<svg id="Layer_1" data-name="Layer 1" xmlns="http://www.w3.org/2000/svg" viewBox="0 0 841.89 841.89"><defs><style>.cls-1{fill:#dbb0a9;}.cls-2{opacity:0.85;}.cls-3{fill:#161315;}.cls-4{fill:#211f1e;}.cls-5{fill:#1f2020;}</style></defs><rect class="cls-1" width="841.89" height="841.89"/><g class="cls-2"><path class="cls-3" d="M86.22,439.81c.33.77.66,1.55,1,2.32l1.15,2.26a21,21,0,0,1-.87-2.42A6.76,6.76,0,0,0,86.22,439.81Z"/><path class="cls-3" d="M90.55,448.55l.45.78.46.61Z"/><path class="cls-3" d="M95.42,455.89c-.8-1.33-1.73-2.51-2.49-3.73A25.1,25.1,0,0,0,95.42,455.89Z"/><path class="cls-3" d="M91.87,449.85c.16.53.16.84-.39.12l0,0,1.47,2.22A23.35,23.35,0,0,1,91.87,449.85Z"/><path class="cls-3" d="M91.87,449.85c-.14-.52-.45-1.3-.53-1.58C91.47,448.74,91.65,449.27,91.87,449.85Z"/><path class="cls-3" d="M95.89,450c.55.67-.42,1,.72,2.34,1.25,1.58,2.39,3.05,3.58,4.44s2.37,2.73,3.5,4.22c1.24,1.18,2.17,3.91,3.44,5.09.7.72,1.78,1.63,2.86,2.58s2.2,1.91,3.17,2.56c1.9,1.36,2.86,1.86.69-.2-3.22-3.15-5.8-5.84-8.17-8.56-1.23-1.32-2.33-2.72-3.47-4.15-.58-.72-1.16-1.44-1.75-2.19s-1.12-1.57-1.71-2.39c-2.06-2.58-3.83-5.29-5.67-8l-2.54-4.23a24.27,24.27,0,0,1-1.19-2.19l-1.16-2.25a37.26,37.26,0,0,1-1.94-5.11c.34,1.11.67,2.26,1,3.42l1.36,3.57a20.31,20.31,0,0,0,3,5.08C92.83,445.83,94.42,447.69,95.89,450Z"/><path class="cls-3" d="M78,403.71c.07.43.17,1.09.25,1.63a5.51,5.51,0,0,0,.14.69c0,.18.06.29.06.29a30.25,30.25,0,0,0,.18,6c.36,2,.81,4,1.31,6,0-.61.11-1.25.16-1.88-.44-2.29-.75-2.52-.61-.43q-.09-1.8-.24-3.54c-.1-1.16-.1-2.32-.19-3.46s-.17-2.28-.27-3.42-.09-2.28-.15-3.43C78.41,402.45,78.11,402.4,78,403.71Z"/><path class="cls-3" d="M78.49,399.46c.06.9.11,1.81.17,2.7,0,0,0-.07.08-.1-.08-.91-.15-1.81-.23-2.7Z"/><path class="cls-3" d="M107.68,469.87c1,1.05,2,2.12,3,3.14l3.07,3,1.52,1.46,1.58,1.39,3.12,2.75c1,.89,2.13,1.73,3.19,2.6s2.1,1.74,3.21,2.52l3.26,2.4c.54.39,1.07.8,1.62,1.18l1.67,1.12a6.47,6.47,0,0,1,2.24,1.13,19.92,19.92,0,0,0,1.91,1.66l4,2.43,1.45.78,0,0c.81.35.66.09.26-.31s-.88-.78-1.22-1.13c.22.22.84.74,1.22,1.13a16.71,16.71,0,0,0,2.07,1.45c1.27.62,2.6,1.3,3.92,2.08a34.45,34.45,0,0,1-3.92-2.08c-.81-.4-1.61-.74-2.37-1.16l-.69-.31c1.5,1,3.09,1.76,4.63,2.64s3.09,1.74,4.68,2.52l2,.9c2.35,1.05,4.75,1.93,6,3l1.73.8a3.4,3.4,0,0,0-.3-.23c.25.14.46.26.62.37,2.44,1.11,5,2.05,7.45,3.09,1.7.45,3.48.78,5.22,1.25l1.56,1a17.48,17.48,0,0,1,3,.45c-1.31-.67-2.45-1.39-3.55-2-1.53-1.05-4.13-.37-5.81-2,1.68,1.6,4.28.92,5.81,2,1.1.6,2.24,1.32,3.55,2a48.16,48.16,0,0,1,8,2.79,22.41,22.41,0,0,1-8-2.79,17.48,17.48,0,0,0-3-.45l-1.56-1c-1.74-.47-3.52-.8-5.22-1.25,2.46.95,5,1.81,7.47,2.73l7.71,2.45a198.86,198.86,0,0,0,50.67,7.89,107.31,107.31,0,0,0,12.91-.21,99.35,99.35,0,0,0,13-2.06,108.06,108.06,0,0,0,25.17-9.46A146.89,146.89,0,0,0,310,495.4,204.88,204.88,0,0,0,330.75,476c12.78-13.67,22.86-28.54,31.79-44a473.8,473.8,0,0,0,24.24-49c1.41-3.35,3-7.5,4.44-12.07s2.89-9.58,4.1-14.63a186.36,186.36,0,0,0,4.54-27.54c0-4.81-.43-7.82-1-9.58s-1.25-2.28-1.89-2.18c-1.26.21-2.38,2.81-2.51,3.23-1.95,5.59-2.81,10.44-3.95,16.78a134.72,134.72,0,0,1-6.72,24.8c1.33-3.65,1.87-4.78,2-4.16a28.51,28.51,0,0,1-1.2,6.18c-1.69,6.44-5.31,16.29-9.1,22.68-5.5,9.24-10.78,20.83-16.92,32.76s-13.08,24.17-21.14,34.36c-4,5.09-8.13,10.6-13.28,16.35a213.64,213.64,0,0,1-21.41,20.12,135.51,135.51,0,0,1-23.87,15.78,91.34,91.34,0,0,1-27,9.11c-2.38.38-4.78.69-7.21.85-1.21.12-2.43.13-3.65.17-.61,0-1.21,0-1.84,0l-1.92,0q-7.68,0-15.52-.76c-11.08-1-20.89-1.76-30.18-3.49a95.37,95.37,0,0,1-10-2.82c-3.25-1-6.25-2.24-8.89-3.14-8.26-3-15.28-5.75-21.93-8.67,3.67,1.72,6.84,3.21,10.22,4.51s6.87,2.64,11.12,4.16c2.85.95,1.77.9-.53.48s-5.74-1.43-7.67-2c-1.66-.49-3.7-2.55-5.36-3-1.71-.73-3.33-1.48-5-2.13l-2.6-1-2.66-1.19c-1.62-.63-1-1.38-1.78-1.69-4.85-2.45-9.08-3.66-11.85-5.84-2.17-1.54-4-3.14-5.78-4.6L125.19,482l-2.47-1.66a2.54,2.54,0,0,1,.41,1.63c-.55-.48-1.19-1.07-1.83-1.67s-1.23-1.26-1.75-1.76c.52.5,1.14,1.13,1.75,1.76s1.28,1.19,1.83,1.67a2.54,2.54,0,0,0-.41-1.63,118.55,118.55,0,0,1-17.63-15.25v.14c1.47,1.74,3,3.36,4.52,5.07s3,3.42,4.53,5.3c-1.33-1.59-1-1.6.75,0,.33.53.63,1.09,1,1.59-1.58-1.29-3.13-2.64-4.59-4a26.77,26.77,0,0,1-3.76-4.59s-1.37-1.12-2-1.73c-.73-1.08-.46-1.23-.44-1.6l-1.79-2c.42.88,1.49,2.56,2.45,4,.47.74,1,1.37,1.34,1.86Z"/><path class="cls-3" d="M144.92,498.62c-.57-.27-1.25-.62-2-1l3.89,2.18c1.3.73,2.6,1.47,3.94,2.12A28.82,28.82,0,0,0,144.92,498.62Z"/></g><g class="cls-2"><path class="cls-3" d="M753.26,442c-.35.74-.68,1.5-1,2.24l-1.16,2.18a22.83,22.83,0,0,1,1.46-2.06A6.1,6.1,0,0,0,753.26,442Z"/><path class="cls-3" d="M748.86,450.44c-.15.26-.31.51-.45.75l-.31.69Z"/><path class="cls-3" d="M744.51,457.87a32.25,32.25,0,0,0,2.37-3.69C746.22,455.23,745.34,456.38,744.51,457.87Z"/><path class="cls-3" d="M748.38,452.19c-.39.38-.65.53-.3-.28l0,0-1.22,2.3A22.31,22.31,0,0,1,748.38,452.19Z"/><path class="cls-3" d="M748.38,452.19c.38-.37.91-1,1.12-1.21C749.16,451.32,748.78,451.73,748.38,452.19Z"/><path class="cls-3" d="M750.16,455.84c-.39.82-1,.17-1.85,1.74-1.06,1.78-1.95,3.5-2.95,5.12s-2.06,3.15-3.24,4.7c-1,1.52-3.58,3-4.55,4.44L735.15,475c-.91,1.18-1.77,2.47-2.53,3.4-1.48,1.92-2.06,2.91.19.69A114.82,114.82,0,0,0,741,469.7c1.21-1.46,2.29-3,3.4-4.56l1.71-2.39,1.68-2.6c1.83-2.93,3.32-6,4.87-9l2.08-4.67c.37-.78.67-1.59,1-2.4s.62-1.62.94-2.44c.8-1.8,1.48-3.5,2.18-5.21-.49,1.11-1,2.23-1.51,3.37s-1.16,2.28-1.79,3.5a52.82,52.82,0,0,0-2.29,5.58A43,43,0,0,1,750.16,455.84Z"/><path class="cls-3" d="M762.38,407l.15,1.63c0,.27,0,.52,0,.69v.29a36.68,36.68,0,0,0-1,5.83c-.32,2-.5,4-.73,6,.28-.55.52-1.11.78-1.69.33-2.31.11-2.61-.44-.61.34-1.14.65-2.27.93-3.4s.4-2.27.57-3.4.29-2.27.4-3.41.07-2.28.08-3.43C762.85,405.74,762.55,405.67,762.38,407Z"/><path class="cls-3" d="M763.13,402.77c0,.9,0,1.81,0,2.69l.09-.09c0-.91,0-1.81-.05-2.7Z"/><path class="cls-3" d="M733.77,472.76c-1,1.06-1.95,2.13-2.95,3.14l-3.05,3-1.51,1.45-1.58,1.38-3.12,2.72c-1.06.88-2.14,1.71-3.2,2.56s-2.11,1.71-3.22,2.47l-3.28,2.35c-.54.38-1.08.78-1.63,1.15L708.55,494a6.15,6.15,0,0,1-1.91,1.62,25,25,0,0,0-2.28,1.07l-4,2.34L699,500l0,0c-.69.54-.4.54.14.38s1.1-.4,1.57-.53c-.3.08-1,.38-1.57.53-.69.28-1.47.56-2.33,1-1.21.73-2.5,1.46-3.87,2.14a36.33,36.33,0,0,1,3.87-2.14c.77-.47,1.52-.89,2.23-1.38l.6-.46c-1.51.92-3.11,1.67-4.66,2.51s-3.11,1.65-4.72,2.37l-2,1a19.52,19.52,0,0,1-6.15,2.59l-1.74.73.37-.06-.69.2c-2.45,1-5,1.88-7.47,2.83-1.55.79-3.17,1.54-4.82,2.26l-1.85.13a10.12,10.12,0,0,1-2.69,1.36,39.86,39.86,0,0,0,4-.47c1.87-.14,3.5-2.19,5.8-2.08-2.3-.11-3.93,1.94-5.8,2.08a39.86,39.86,0,0,1-4,.47,31,31,0,0,1-8.23,1.87,29.64,29.64,0,0,1,8.23-1.87,10.12,10.12,0,0,0,2.69-1.36l1.85-.13c1.65-.72,3.27-1.47,4.82-2.26-2.46.86-5,1.64-7.47,2.47l-7.69,2.19a214.66,214.66,0,0,1-50.11,6.72,102,102,0,0,1-12.5-.35,94.58,94.58,0,0,1-12.4-2.14,100,100,0,0,1-24-9.56,132,132,0,0,1-23-16.4,176.55,176.55,0,0,1-19.1-19.82,292.17,292.17,0,0,1-29.87-43.47,227.43,227.43,0,0,1-20.6-48.83c-1-3.35-2.18-7.42-3.48-11.84s-2.58-9.19-3.75-14A189,189,0,0,1,453.86,331a50.08,50.08,0,0,0-2.07-8.67c-.63-1.6-1.31-2.1-1.94-2-1.26.17-2.31,2.78-2.41,3.23-1.56,5.73-1.46,10.94-.71,17.49s2.26,14.49,4.39,26c-.79-3.91-.78-5.21-.42-4.69a37.82,37.82,0,0,1,2.12,6.06c1.95,6.5,5,16.66,6.59,24.09,2.17,10.82,7.36,23.12,14,35.33s14.68,24.34,22.3,35.52a194.31,194.31,0,0,0,13.7,17.31,163.46,163.46,0,0,0,22.11,22.14,131.87,131.87,0,0,0,26.26,17,104,104,0,0,0,30.59,9.59c2.71.39,5.44.69,8.2.84,1.38.12,2.77.13,4.16.16.69,0,1.4,0,2.07,0l2,0q8.08-.1,16.36-.75c11.71-1,21.77-3.68,31.2-6.45,3.46-1,7.08-1.79,10.5-2.78s6.67-1.92,9.44-2.86A133.69,133.69,0,0,0,694.66,507c-3.74,2-7,3.71-10.42,5.27s-7,3.15-11.42,4.88c-3,1-2,.4.11-.7s5.42-2.89,7.3-3.76c1.54-.9,4.52-1,6.07-2a48.87,48.87,0,0,0,5-2.67l2.48-1.47,2.55-1.63c1.46-1,1.74-.09,2.47-.61,4.86-3,7.88-6.31,11-8.1,2.39-1.34,4.43-2.74,6.48-4a37.67,37.67,0,0,0,3.73-2.79l2.25-2.11a2.61,2.61,0,0,1-1.73.08c.6-.44,1.34-.94,2.08-1.46s1.43-1.07,2-1.54c-.57.47-1.29,1-2,1.54s-1.48,1-2.08,1.46a2.61,2.61,0,0,0,1.73-.08,159.6,159.6,0,0,0,16-17.77l-.13,0a54.61,54.61,0,0,1-4.63,5.1,46.64,46.64,0,0,1-5.34,4.57c1.63-1.28,1.64-.92,0,.76-.55.3-1.08.63-1.64.89,1.41-1.49,2.76-3,4.21-4.44a40.62,40.62,0,0,1,4.41-4s1.06-1.41,1.51-2.16c.94-.91,1.13-.67,1.5-.71l1.7-2.13c-.81.58-2.3,1.93-3.58,3.12-.64.61-1.29,1.11-1.73,1.51Z"/><path class="cls-3" d="M696.66,501.36l1.9-1.12-3.94,2.06c-1.31.68-2.61,1.38-4,2C692.29,504.06,694.46,502.68,696.66,501.36Z"/></g><g class="cls-2"><path class="cls-4" d="M216.48,496.09c.51.26,1,.51,1.54.74a4.33,4.33,0,0,1-.71-.5A1.49,1.49,0,0,0,216.48,496.09Z"/><path class="cls-4" d="M219.47,497.44l.28.12.25.05Z"/><path class="cls-4" d="M222.3,498.27c-.49-.17-1-.3-1.43-.43A6.24,6.24,0,0,0,222.3,498.27Z"/><path class="cls-4" d="M220.11,497.43c.14.13.2.23-.1.18h0l.87.23A4.12,4.12,0,0,1,220.11,497.43Z"/><path class="cls-4" d="M220.11,497.43c-.14-.12-.38-.28-.45-.35C219.79,497.19,219.94,497.31,220.11,497.43Z"/><path class="cls-4" d="M221.36,496.07c.28,0,.07.47.64.55,1.31.26,2.45.35,3.66.6.56,0,1.34.7,1.92.7,1.35.11,4.75-.21,2.78-.39a42.45,42.45,0,0,1-7.48-1.16,32.22,32.22,0,0,1-6.24-1.84,11,11,0,0,1-1.54-.93,20.85,20.85,0,0,0,2,1.36C218.11,495.61,219.64,495.59,221.36,496.07Z"/><path class="cls-4" d="M207.38,487.68l.6.67a7.13,7.13,0,0,0,2.53,3.18c-.09-.2-.17-.4-.26-.61-.56-.53-.73-.51-.32.06-.89-1.36-1.73-2.58-2.49-3.92A.5.5,0,0,0,207.38,487.68Z"/><path class="cls-4" d="M207,486.27l.44.79s0,0,0-.05l-.46-.77Z"/><path class="cls-4" d="M228.46,499.15a46.85,46.85,0,0,0,11.06.25,1.52,1.52,0,0,1,.8-.25,5,5,0,0,0,.86.05c.51-.09,1-.16,1.54-.26l.52-.16h0c.27-.12.17-.17,0-.2a4.54,4.54,0,0,1-.57-.06l.57.06a4.25,4.25,0,0,0,.84-.06c.45-.16.93-.29,1.43-.43a6.62,6.62,0,0,1-1.43.43c-.28.1-.56.17-.84.26l-.23.1a31.75,31.75,0,0,0,3.45-.89l.69-.3a7.36,7.36,0,0,1,2.11-.84l.58-.26h-.13l.24-.06c.78-.46,1.58-.9,2.33-1.42.41-.45.81-.92,1.23-1.36a4.11,4.11,0,0,0,.6-.25,3.26,3.26,0,0,1,.53-.9c-.44.26-.86.46-1.2.68-.6.21-.72,1.22-1.55,1.32.83-.1,1-1.11,1.55-1.32.34-.22.76-.42,1.2-.68a6.66,6.66,0,0,1,.44-.51c.15-.19.3-.39.46-.57a9.36,9.36,0,0,1,1-1,4.62,4.62,0,0,1-1.95,2.12,3.26,3.26,0,0,0-.53.9,4.11,4.11,0,0,1-.6.25c-.42.44-.82.91-1.23,1.36l1.07-.83.53-.42.49-.49,1-1c.3-.34.57-.72.86-1.09a18.05,18.05,0,0,0,3.35-8.13,26.21,26.21,0,0,0-.17-8.66,38.89,38.89,0,0,0-2.53-8.34,26.83,26.83,0,0,0-5.15-7.53,35.25,35.25,0,0,0-7.77-6.15,42.07,42.07,0,0,0-8.82-4,30.65,30.65,0,0,0-9.44-1.37,22,22,0,0,0-9.34,2.24,23.88,23.88,0,0,0-7.6,6,33.63,33.63,0,0,0-5.12,8.51,27.93,27.93,0,0,0-2,9.77,31.3,31.3,0,0,0,1.3,9.8,7.73,7.73,0,0,0,1.82,2.91c.5.45.87.47,1.15.31.54-.32.73-1.35.74-1.5a12.08,12.08,0,0,0,0-1.47c0-.47,0-.93,0-1.38s-.11-.91-.16-1.38-.1-1-.16-1.48a21.16,21.16,0,0,1,.41-8.25c-.46,2.44-.73,1.53-.55-.63a15.61,15.61,0,0,1,2.69-7.33c.56-.66,1-1.4,1.62-2.09.28-.35.55-.72.82-1.09l.89-1.05c.56-.76,1.26-1.39,1.89-2.11.32-.36.71-.63,1.06-1a9.76,9.76,0,0,1,1.11-.93c.4-.28.8-.56,1.19-.85s.86-.46,1.29-.71a15,15,0,0,1,8.72-1.67,34.23,34.23,0,0,1,6.46,1,40.33,40.33,0,0,1,8.48,3.82,33.65,33.65,0,0,1,7.15,5.57c.48.56,1,1.11,1.47,1.68l1.28,1.81,1,1.92.93,2.19a27.64,27.64,0,0,1,2,9.35,35,35,0,0,1-.14,4.76,15.36,15.36,0,0,1-1.08,4.19,10.89,10.89,0,0,1-1.74,2.54l-1.07,1a12.28,12.28,0,0,1-1,.84c-.26.21-.49.43-.75.62l-.79.52-.76.52c-.25.17-.53.29-.79.44a23,23,0,0,1-3.14,1.57,18,18,0,0,0,3.18-1.45l.75-.41.71-.49a11.58,11.58,0,0,0,1.52-1.14c.69-.58.55-.27.11.31l-.37.48c-.15.16-.32.31-.49.46-.33.3-.67.59-.92.79-.4.4-1.44.24-1.86.58-1,.53-2,1.06-3.21,1.55-.51.25-.57-.23-.82-.1-1.66.52-2.94,1.32-4.1,1.34-.88,0-1.67,0-2.44,0-.48,0-1,0-1.47,0-.32.06-.65.09-1,.13a1,1,0,0,1,.45.51c-.48,0-1.16-.13-1.64-.19.48.06,1.16.15,1.64.19a1,1,0,0,0-.45-.51,36.29,36.29,0,0,1-7.73,0l0,.05a41.89,41.89,0,0,1,4.5.87c-.67-.16-.58-.28.2-.25l.58.28a8.9,8.9,0,0,1-4-.5l-.89,0c-.41-.15-.36-.29-.43-.43l-.88-.13a8.88,8.88,0,0,0,1.46.64C228,499,228.46,499.15,228.46,499.15Z"/><path class="cls-4" d="M244.12,498.52c-.2.07-.44.14-.71.21,1-.2,1.94-.46,2.9-.75A6.67,6.67,0,0,0,244.12,498.52Z"/></g><ellipse class="cls-5" cx="230.14" cy="475.07" rx="8.96" ry="8.64"/><g class="cls-2"><path class="cls-4" d="M236,481.2l-.41.33a1,1,0,0,1,.26-.1C235.91,481.37,235.92,481.29,236,481.2Z"/><polygon class="cls-4" points="235.13 481.81 235.05 481.86 235 481.92 235.13 481.81"/><path class="cls-4" d="M234.37,482.34a1.84,1.84,0,0,0,.41-.24A1.8,1.8,0,0,0,234.37,482.34Z"/><path class="cls-4" d="M235,482c-.07,0-.11,0,0-.08h0a1.92,1.92,0,0,1-.22.18Z"/><path class="cls-4" d="M235,482l.19,0Z"/><path class="cls-4" d="M235.29,482.87c-.08.07-.18-.14-.33,0a4.57,4.57,0,0,1-1.11.74c-.17.15-.57,0-.74.1-.41.23-1.58.78-.86.62a9.08,9.08,0,0,0,2.59-1.11,10.57,10.57,0,0,0,1.75-1.59,3.84,3.84,0,0,1,.47-.44c-.23.16-.43.35-.7.51S235.82,482.46,235.29,482.87Z"/><path class="cls-4" d="M238.32,478.09l0,.3a3.34,3.34,0,0,0-.65,1.13l.21-.1c.13-.23.08-.29-.08-.12a3.13,3.13,0,0,0,.78-1.3C238.47,478,238.41,478,238.32,478.09Z"/><path class="cls-4" d="M238.64,477.71l-.09.29h0l.08-.28Z"/><path class="cls-4" d="M232.61,483.3a8.7,8.7,0,0,1-3.6.23.33.33,0,0,1-.28,0,.91.91,0,0,0-.26-.13,4.37,4.37,0,0,1-.49-.12l-.18,0h0c-.1,0-.08,0,0,.09l.15.13a1.53,1.53,0,0,1-.15-.13,1.17,1.17,0,0,0-.25-.13,1.55,1.55,0,0,1-.46-.15,2.26,2.26,0,0,1,.46.15l.28,0h.09a7.08,7.08,0,0,1-1.09-.39l-.23-.06a1.2,1.2,0,0,1-.63-.36l-.18-.11,0,0-.05-.06c-.24-.16-.49-.3-.72-.48s-.36-.15-.54-.24a1.13,1.13,0,0,1-.07-.22.64.64,0,0,1-.32-.12,3.62,3.62,0,0,0,.2.44c.08.22.5.08.55.4-.05-.32-.47-.18-.55-.4a3.62,3.62,0,0,1-.2-.44,1.4,1.4,0,0,1-.56-.74,1.58,1.58,0,0,1,.56.74.64.64,0,0,0,.32.12,1.13,1.13,0,0,0,.07.22c.18.09.37.16.54.24a10.48,10.48,0,0,1-1.25-1.16,8.62,8.62,0,0,1-2.11-4.87,7.75,7.75,0,0,1,6.15-8.23A9.14,9.14,0,0,1,233,468a6.23,6.23,0,0,1,3.65,3.5,11.64,11.64,0,0,1,.78,2.36,6.7,6.7,0,0,1,.05,2.43c0,.86.27,1.19.59,1.27a.87.87,0,0,0,.68-.15,2.11,2.11,0,0,0,.64-.81,3.25,3.25,0,0,0,.26-1,13.92,13.92,0,0,0,0-3.13c.08,1-.12.64-.38-.11s-.73-1.88-1-2.78a5.88,5.88,0,0,0-3.25-3.34,13.06,13.06,0,0,0-5.06-1.1,9,9,0,0,0-2.71.38,9.37,9.37,0,0,0-6.06,4.53,10.28,10.28,0,0,0-1,7.74,7.85,7.85,0,0,0,2.09,3.31,12.92,12.92,0,0,0,1.76,1.78,7.12,7.12,0,0,0,2.7,1.23,9.45,9.45,0,0,1-2.61-1.22c-.61-.45.6.09,1.05.24.2.07.37.45.59.49a5.13,5.13,0,0,0,1.32.35c.21,0,.12.23.23.24.67.13,1.22-.08,1.62,0a7.49,7.49,0,0,0,.87.18,1.93,1.93,0,0,0,.54,0l.35-.07a.45.45,0,0,1-.17-.25c.17,0,.41.06.58.05-.17,0-.41-.05-.58-.05a.45.45,0,0,0,.17.25,11,11,0,0,0,2.59-.89h0a3.32,3.32,0,0,1-1.54.25c.24,0,.22.09,0,.14l-.21-.09a3.52,3.52,0,0,1,1.32-.25l.25-.16c.15,0,.17.06.22.11l.28-.12A6,6,0,0,0,232.61,483.3Z"/><path class="cls-4" d="M227.51,483.24l.24,0a7,7,0,0,1-.91-.33A1.1,1.1,0,0,0,227.51,483.24Z"/></g><g class="cls-2"><path class="cls-4" d="M625.42,503.24c-.48.24-1,.47-1.49.67a7.17,7.17,0,0,1,.83-.18A1.36,1.36,0,0,0,625.42,503.24Z"/><path class="cls-4" d="M622.53,504.45l-.28.1-.21.13Z"/><path class="cls-4" d="M619.86,505.48a7.55,7.55,0,0,0,1.39-.46A10.66,10.66,0,0,0,619.86,505.48Z"/><path class="cls-4" d="M622.07,504.89c-.19,0-.3-.05,0-.2h0l-.79.34A5.52,5.52,0,0,1,622.07,504.89Z"/><path class="cls-4" d="M622.07,504.89c.18,0,.46,0,.56,0A2.74,2.74,0,0,0,622.07,504.89Z"/><path class="cls-4" d="M621.93,506.73c-.27.14-.35-.33-.88,0a21.11,21.11,0,0,1-3.67,1.33c-.57.24-1.59-.12-2.15.09-1.33.39-4.85,1.37-2.74,1.13a41,41,0,0,0,7.92-1.85,37,37,0,0,0,6.2-3.1c.56-.34,1.13-.59,1.68-.9-.74.37-1.5.7-2.35,1C624.81,504.86,623.71,506,621.93,506.73Z"/><path class="cls-4" d="M634.47,495.66l-.3.81a26.78,26.78,0,0,0-2.58,3l.59-.26c.52-.57.48-.72-.07-.31a9.09,9.09,0,0,0,2.9-3.51C634.85,495.4,634.74,495.32,634.47,495.66Z"/><path class="cls-4" d="M635.37,494.56l-.36.82h0c.12-.28.23-.56.34-.83Z"/><path class="cls-4" d="M614,507.2a40.45,40.45,0,0,1-11,.14,1.39,1.39,0,0,1-.84,0,6.29,6.29,0,0,0-.79-.29c-.51-.1-1-.19-1.51-.3l-.54-.08h0c-.3,0-.23.09-.07.19l.49.29c-.09-.06-.34-.18-.49-.29s-.48-.21-.78-.32a8.55,8.55,0,0,1-1.42-.38,10.2,10.2,0,0,1,1.42.38c.29.07.58.09.86.14h.25a32.25,32.25,0,0,1-3.35-1l-.69-.23a4.15,4.15,0,0,1-2-1l-.56-.28.09.09-.19-.14c-.72-.47-1.47-.93-2.16-1.46-.49-.28-1-.56-1.52-.89a4,4,0,0,1-.26-.58,3,3,0,0,1-.84-.54c.22.44.41.87.63,1.24.3.59,1.35.49,1.61,1.3-.26-.81-1.31-.71-1.61-1.3-.22-.37-.41-.8-.63-1.24-.16-.14-.33-.3-.49-.46a7,7,0,0,1-.4-.6,7.41,7.41,0,0,1-.63-1.26,8,8,0,0,1,1.52,2.32,3,3,0,0,0,.84.54,4,4,0,0,0,.26.58c.5.33,1,.61,1.52.89l-1-.83-.49-.42-.43-.48-.86-1c-.27-.34-.5-.71-.76-1.06a17.58,17.58,0,0,1-2.81-7.66,25.77,25.77,0,0,1,.36-8.12,36,36,0,0,1,2.56-7.89,23.57,23.57,0,0,1,5-6.79,30.3,30.3,0,0,1,7.54-5.33,34,34,0,0,1,16.81-3.81,18.15,18.15,0,0,1,7.67,2,16.75,16.75,0,0,1,5.93,5.16,20,20,0,0,1,3.24,7.54,42.5,42.5,0,0,1,1.17,8.17,27,27,0,0,1-.87,8,12.32,12.32,0,0,0-.14,2.85c.1.59.35.88.65,1,.59.21,1.4-.39,1.51-.5a10.62,10.62,0,0,0,1-1.13,11,11,0,0,0,.71-1.26,11.36,11.36,0,0,0,.56-1.38q.21-.74.39-1.56a47.56,47.56,0,0,0,.87-9c-.1,2.78-.41,1.76-.71-.53s-1.07-5.84-1.57-8.5a12.79,12.79,0,0,0-.84-3c-.2-.5-.42-1-.66-1.52s-.58-1-.89-1.48a19.81,19.81,0,0,0-2.24-2.86,17.25,17.25,0,0,0-1.4-1.29,11.88,11.88,0,0,0-1.51-1.2l-1.65-1.06c-.57-.34-1.19-.59-1.78-.88a23.73,23.73,0,0,0-3.74-1.32,34.58,34.58,0,0,0-7.51-.87,30,30,0,0,0-7.73,1.07,36.18,36.18,0,0,0-18.58,10.78c-.59.72-1.19,1.42-1.76,2.16l-1.56,2.36c-.44.86-.87,1.72-1.3,2.59s-.67,1.69-1,2.54a37.4,37.4,0,0,0-2.24,11.16,19.5,19.5,0,0,0,.76,6c.33.92.61,1.82,1,2.66a18.69,18.69,0,0,0,1.32,2.42,29.45,29.45,0,0,0,2.18,3.34l1.25,1.43a13.27,13.27,0,0,0,1.28,1.15c.33.26.65.53,1,.76l1,.62,1,.58c.33.18.68.31,1,.45a19.79,19.79,0,0,0,3.94,1.31,23.82,23.82,0,0,1-3.87-1.4l-.94-.42-.93-.54a13.14,13.14,0,0,1-2-1.3c-.9-.72-.49-.58.29-.17l.64.35.73.32c.49.21,1,.43,1.28.59.56.25,1.23,1.09,1.84,1.28a14.62,14.62,0,0,0,3.88,1c.62.06.43.5.74.53,1.93.37,3.49,0,4.67.25.91.17,1.74.31,2.55.43a13.3,13.3,0,0,0,1.57.08c.33,0,.68-.07,1-.12a1,1,0,0,1-.46-.5c.49,0,1.2.14,1.7.13-.5,0-1.21-.11-1.7-.13a1,1,0,0,0,.46.5,54.75,54.75,0,0,0,7.9-1.48l-.05,0a14.27,14.27,0,0,1-4.63.32c.7.05.63.19-.16.28l-.61-.2a14.79,14.79,0,0,1,4-.35s.56-.19.84-.3c.43,0,.44.14.55.25a8.86,8.86,0,0,0,.89-.21c-.33,0-1-.07-1.61-.07Z"/><path class="cls-4" d="M598.46,506.55l.72.13a27.59,27.59,0,0,1-2.81-.86A4.56,4.56,0,0,0,598.46,506.55Z"/></g><ellipse class="cls-5" cx="612.36" cy="483.41" rx="8.96" ry="8.64"/><g class="cls-2"><path class="cls-4" d="M606.11,490.05l.43.37a1.21,1.21,0,0,1-.17-.25C606.3,490.07,606.21,490.07,606.11,490.05Z"/><polygon class="cls-4" points="606.97 490.74 607.05 490.8 607.13 490.83 606.97 490.74"/><path class="cls-4" d="M607.85,491.21a3.28,3.28,0,0,0-.45-.24A1.71,1.71,0,0,0,607.85,491.21Z"/><path class="cls-4" d="M607.2,490.75c0,.07,0,.12-.06.08h0l.27.14A.82.82,0,0,1,607.2,490.75Z"/><path class="cls-4" d="M607.2,490.75l-.1-.17A.75.75,0,0,0,607.2,490.75Z"/><path class="cls-4" d="M607.85,490.17c.09,0-.05.22.14.26.4.16.77.21,1.14.36.17,0,.36.36.55.37.44.09,1.54,0,.93-.14a8.79,8.79,0,0,1-2.28-.68,8.56,8.56,0,0,1-1.88-1,5.06,5.06,0,0,1-.39-.43,6.3,6.3,0,0,0,.49.62C606.79,489.88,607.35,489.91,607.85,490.17Z"/><path class="cls-4" d="M603.83,486.57l.18.24a2,2,0,0,0,.61,1.21v-.23c-.15-.21-.22-.21-.15,0a10,10,0,0,0-.53-1.46S603.81,486.42,603.83,486.57Z"/><path class="cls-4" d="M603.8,486.08l.13.27v0a2.15,2.15,0,0,0-.14-.26Z"/><path class="cls-4" d="M609.85,491.79a10.22,10.22,0,0,0,3.66.29.42.42,0,0,1,.27-.12,1.47,1.47,0,0,0,.29.05c.17,0,.34-.07.51-.1l.17-.07h0c.08,0,0-.08,0-.1l-.2,0,.2,0H615c.15-.05.29-.13.46-.17a1.24,1.24,0,0,1-.46.17l-.28.1-.08,0a7.56,7.56,0,0,0,1.15-.33l.22-.1a1.19,1.19,0,0,1,.7-.28l.2-.1h-.05l.08,0c.26-.15.53-.28.79-.45a6.08,6.08,0,0,1,.39-.47l.24,0a.69.69,0,0,1,.17-.31l-.46.14c-.23,0-.21.46-.53.42.32,0,.3-.4.53-.42l.46-.14a2.83,2.83,0,0,1,.75-.6,1.15,1.15,0,0,1-.75.6.69.69,0,0,0-.17.31l-.24,0a6.08,6.08,0,0,0-.39.47,10.06,10.06,0,0,0,1.41-1.14,8.71,8.71,0,0,0,2.54-5.19,9.15,9.15,0,0,0-1.36-5.8,10.13,10.13,0,0,0-5.17-4.15,9.53,9.53,0,0,0-6.41.1,11.88,11.88,0,0,0-5.36,3.92A7.74,7.74,0,0,0,602,481.6a9.24,9.24,0,0,0,0,3.51c.43,1.14.9,1.26,1.18,1.14a1.12,1.12,0,0,0,.49-.53,5.26,5.26,0,0,0,.22-1c0-.3,0-.6,0-.94a5,5,0,0,1,.61-2.54c-.32.71-.42.41-.24-.27a3.62,3.62,0,0,1,1.44-2c1-.57,1.87-1.34,3-1.94a6.28,6.28,0,0,1,3.72-.89,10.37,10.37,0,0,1,2,.34,8.62,8.62,0,0,1,4.3,3.37,6.63,6.63,0,0,1,.82,5.45,10.9,10.9,0,0,1-1,2.76,6.25,6.25,0,0,1-1.47,1.3,14.27,14.27,0,0,1-2,1.27,8,8,0,0,0,2-1.2c.47-.38-.14.51-.49.77-.12.15-.5,0-.63.15-.33.18-.62.39-1,.6-.15.11-.2-.13-.28-.08-.51.2-.89.58-1.27.57s-.54,0-.78-.05h-.47l-.32.05a.51.51,0,0,1,.14.26l-.53-.11.53.11a.51.51,0,0,0-.14-.26,7.11,7.11,0,0,1-2.5-.12v0a9.31,9.31,0,0,1,1.41.52c-.21-.09-.17-.14.08-.12l.18.14a2,2,0,0,1-1.28-.31h-.29c-.13-.08-.1-.15-.1-.22l-.29-.07A5.26,5.26,0,0,0,609.85,491.79Z"/><path class="cls-4" d="M615,491.74l-.23.08a8.53,8.53,0,0,0,1-.28A1.34,1.34,0,0,0,615,491.74Z"/></g></svg>