<?xml version="1.0" encoding="utf-8"?>
<!-- Generator: Adobe Illustrator 25.0.0, SVG Export Plug-In . SVG Version: 6.00 Build 0)  -->
<svg version="1.1" id="Layer_1" xmlns="http://www.w3.org/2000/svg" xmlns:xlink="http://www.w3.org/1999/xlink" x="0px" y="0px"
	 viewBox="0 0 841.9 841.9" style="enable-background:new 0 0 841.9 841.9;" xml:space="preserve">
<style type="text/css">
	.st0{fill:#7F563A;}
	.st1{opacity:0.85;}
	.st2{fill:#FEFEFE;}
	.st3{fill:#E0CACA;}
</style>
<rect x="-0.1" class="st0" width="841.9" height="841.9"/>
<g class="st1">
	<path class="st2" d="M85.1,384.5c0.4,1.5,0.8,3.1,1.2,4.6c-0.1-0.8-0.2-1.6-0.3-2.4C85.8,385.9,85.5,385.2,85.1,384.5z"/>
	<path class="st2" d="M87.6,393.3l0.3,0.8c0.1,0.2,0.2,0.5,0.3,0.7L87.6,393.3z"/>
	<path class="st2" d="M90.6,401c-0.5-1.4-1.1-2.7-1.6-3.9C89.5,398.5,90,399.8,90.6,401z"/>
	<path class="st2" d="M88.6,394.8c0,0.5,0,0.8-0.4,0l0,0c0.3,0.8,0.6,1.5,0.9,2.3C88.9,396.4,88.7,395.6,88.6,394.8z"/>
	<path class="st2" d="M88.6,394.8c0-0.5-0.2-1.3-0.2-1.6C88.4,393.7,88.5,394.3,88.6,394.8z"/>
	<path class="st2" d="M92.4,395.6c0.4,0.7-0.6,0.9,0.2,2.3l2.4,4.9c0.8,1.5,1.6,3,2.3,4.6c0.4,0.9,0.7,1.8,0.9,2.8
		c0.2,0.9,0.5,1.9,1,2.7c0.5,0.8,1.2,1.9,2,3.1s1.7,2.2,2.3,3.1c1.4,1.7,2.1,2.4,0.7,0c-1.1-1.8-2.1-3.5-3-5.1s-1.7-3.1-2.5-4.6
		c-1.5-3.1-3-6-4.5-9.6c-2.7-5.7-5-11.5-6.9-17.5c-0.5-1.8-0.8-3.4-1.1-5.1c0.4,2.2,0.7,4.5,1.2,6.9c0.4,1.8,1.1,3.6,1.9,5.2
		C90.4,391.2,91.5,393.2,92.4,395.6z"/>
	<path class="st2" d="M80.7,349.8l0.4,2.5c-0.2,0.9-0.2,1.9-0.2,2.8c0,0.9,0,1.9,0.1,2.9s0.2,1.9,0.3,2.9s0.3,1.9,0.5,2.9
		c0.1-0.6,0.2-1.2,0.3-1.8c-0.3-2.2-0.6-2.4-0.6-0.4c0.1-2.3,0.1-4.5,0-6.6c-0.1-1.1-0.1-2.2-0.1-3.2s-0.1-2.2-0.1-3.2
		C81.1,348.6,80.8,348.6,80.7,349.8z"/>
	<path class="st2" d="M81.2,345.8c0,0.9,0.1,1.7,0.1,2.5c0,0,0.1-0.1,0.1-0.1C81.4,347.4,81.3,346.5,81.2,345.8L81.2,345.8z"/>
	<path class="st2" d="M98.8,416.6c4.9,9.2,10.8,17.9,17.5,26c0.7,0.4,1.3,1,1.8,1.6c0.4,0.7,0.8,1.4,1.3,2c0.9,1.1,2,2.2,3,3.3
		l1.1,1.1l0,0c0.7,0.5,0.6,0.2,0.3-0.2c-0.3-0.4-0.6-0.9-0.8-1.4c0.1,0.3,0.6,0.9,0.8,1.4c0.4,0.7,0.9,1.3,1.4,1.9
		c1,0.9,2,1.8,3.1,2.9c-1.1-0.9-2.1-1.8-3.1-2.9l-1.8-1.7l-0.6-0.5c2.2,2.5,4.7,4.8,7.1,7.1c0.6,0.5,1.2,1,1.6,1.3
		c1.7,1.2,3.3,2.7,4.7,4.3l1.4,1.1c-0.1-0.1-0.1-0.2-0.2-0.3c0.2,0.2,0.4,0.4,0.5,0.5l3,2.4c1,0.8,2,1.5,3.1,2.3
		c1.5,0.8,2.9,1.6,4.4,2.4l1.2,1.3c0.9,0.3,1.8,0.6,2.6,1.1c-1-1-1.9-1.9-2.7-2.7c-1.2-1.3-3.7-1.4-4.8-3.2c1.1,1.9,3.6,2,4.8,3.2
		c0.9,0.8,1.7,1.7,2.7,2.7c0.5,0.3,1.1,0.6,1.6,1s1.2,0.7,1.8,1.1c1.1,0.7,2.2,1.6,3.3,2.4c-1.3-0.6-2.6-1.2-3.8-2.1
		c-0.6-0.4-1.1-0.8-1.6-1.2s-0.9-0.8-1.3-1.2c-0.8-0.5-1.7-0.9-2.6-1.1l-1.2-1.3c-1.5-0.8-3-1.6-4.4-2.4l3,2.2
		c1,0.7,2.1,1.4,3.1,2.1l3.2,2.1l3.3,2c7,4.2,14.4,7.8,22,10.8c40.7,15.2,85.9,12.9,124.9-6.1c7.9-3.9,15.3-8.4,22.3-13.7
		c1.7-1.3,3.4-2.6,5.1-4l4.9-4.2l4.7-4.4c1.5-1.5,3-3,4.5-4.6c5.9-6.3,11.3-13,16.3-20c5.1-7.3,9.7-14.9,13.8-22.8
		c4-8.1,7-16.5,9.1-25.3c2.1-8.6,3.4-17.4,3.9-26.3c0-1.1,0-2.2-0.1-3.1s-0.2-1.8-0.3-2.5c-0.2-1.2-0.4-2.3-0.8-3.4
		c-0.6-1.6-1.2-2.1-1.9-2c-1.3,0.2-2.4,2.6-2.5,3c-0.5,1.3-0.8,2.6-1.2,3.9c-0.3,1.3-0.7,2.5-0.9,3.8s-0.5,2.6-0.7,4
		s-0.5,2.8-0.7,4.3c-1.1,8-3.2,15.8-6.2,23.3c2.5-6.8,2.4-4.1,0.8,1.9c-1.1,3.6-2.4,7.1-4,10.5c-0.4,0.9-0.9,1.9-1.3,2.8
		s-1,1.8-1.5,2.6c-0.9,1.6-1.9,3.2-3,4.7c-6,8-12.3,18-20.1,27.6c-2,2.4-4,4.8-6.1,7.1c-1.1,1.1-2.1,2.4-3.2,3.5l-3.4,3.3
		c-1.1,1.1-2.3,2.1-3.5,3.2s-2.3,2.1-3.6,3c-2.4,1.9-4.9,3.7-7.4,5.4c-5.4,3.7-11,7.1-16.8,10.2c-16.4,8.1-34.1,13.3-52.3,15.5
		c-18.7,2.2-37.7,0.7-55.8-4.6c-10-2.9-18.8-5.6-26.9-9.3l-2.2-1.1c-0.7-0.4-1.4-0.8-2.1-1.2c-1.4-0.8-2.8-1.7-4.2-2.5l-3.8-2.6
		l-1.8-1.2l-1.7-1.2c-6.8-4.7-12.4-9-17.7-13.4c5.4,4.8,11.1,9.3,17.1,13.2c2.3,1.6,1.4,1.3-0.6,0.3c-1-0.5-2.2-1.1-3.4-1.8
		s-2.3-1.4-3.1-1.9c-1.4-0.9-2.8-3.2-4.1-4.1c-1.3-1.1-2.7-2.2-4.1-3.2s-2.7-2.1-4.2-3.4c-1.3-1-0.5-1.5-1.2-2
		c-1.7-1.6-3.5-3.1-5.3-4.5c-1.4-1.2-2.8-2.5-3.9-3.9c-0.8-1-1.5-2-2.1-2.9s-1.3-1.9-1.9-2.8c-0.8-1.1-1.6-2.3-2.5-3.5l-1.8-2.2
		c0.2,0.5,0.1,1.1-0.1,1.6c-0.8-1.1-1.7-2.8-2.4-4c0.7,1.2,1.6,2.9,2.4,4c0.2-0.5,0.2-1.1,0.1-1.6c-4.7-5.7-8.8-11.8-12.4-18.2
		c0,0,0,0.1,0,0.1c1,1.9,2,3.8,2.9,5.7s1.9,3.9,2.8,6c-0.8-1.8-0.4-1.7,0.7,0.2l0.5,1.7c-1.2-1.5-2.2-3.1-3.2-4.8
		c-1-1.6-1.8-3.3-2.3-5.2l-1.4-2c-0.4-1.1-0.1-1.2,0-1.6l-0.6-1.1l-0.6-1.1c0.3,1.5,0.8,2.9,1.3,4.3L98.8,416.6z"/>
	<path class="st2" d="M125.2,452.4l-1.5-1.5L125.2,452.4l1.4,1.6l3,3C128.9,455.5,127.1,453.9,125.2,452.4z"/>
</g>
<g class="st1">
	<path class="st2" d="M215.2,443.8c0.4,0.4,0.9,0.7,1.4,1c-0.2-0.2-0.4-0.5-0.6-0.8C215.8,443.7,215.5,443.8,215.2,443.8z"/>
	<path class="st2" d="M217.9,445.7l0.3,0.2c0.1,0,0.2,0,0.3,0C218.3,445.8,218.1,445.7,217.9,445.7z"/>
	<path class="st2" d="M220.8,446.7c-0.5-0.2-0.9-0.4-1.4-0.6C219.8,446.4,220.2,446.6,220.8,446.7z"/>
	<path class="st2" d="M218.7,445.5c0.1,0.2,0.1,0.4-0.2,0.4l0,0l0.9,0.3C219.1,446,218.9,445.8,218.7,445.5z"/>
	<path class="st2" d="M218.7,445.5c-0.1-0.2-0.3-0.4-0.3-0.6C218.4,445.2,218.5,445.3,218.7,445.5z"/>
	<path class="st2" d="M220.8,442.8c0.3,0-0.2,0.9,0.4,0.9c0.6,0.1,1.2,0.2,1.8,0.2c0.6,0.1,1.1,0.1,1.7,0.2c0.5-0.1,1.1,1.2,1.7,1
		c0.8,0,1.7-0.2,2.5-0.6c0.7-0.3,1-0.6,0.1-0.6c-0.6,0-1.2,0-1.8-0.1c-0.5,0-1.1-0.1-1.6-0.2c-0.5-0.1-1.1-0.1-1.6-0.2l-1.7-0.4
		c-0.5-0.1-1-0.2-1.5-0.3c-0.5-0.1-1-0.2-1.5-0.4l-1.5-0.5l-1.4-0.7c-0.5-0.3-0.9-0.7-1.2-1.2c0.2,0.3,0.4,0.6,0.7,0.9l0.8,0.9
		c0.5,0.4,1.1,0.7,1.8,0.7C219.3,442.4,220.1,442.6,220.8,442.8z"/>
	<path class="st2" d="M207.5,433.9l0.7,0.6c0,0.7,0.3,1.4,0.7,1.9c0.4,0.6,0.9,1.1,1.4,1.5c0-0.2,0-0.5,0-0.8
		c-0.5-0.6-0.8-0.5-0.5,0.2c-0.4-1.5-1-2.9-1.8-4.3C207.8,433.3,207.5,433.4,207.5,433.9z"/>
	<path class="st2" d="M207.5,432.4l0.5,0.8c0,0,0,0,0.1-0.1L207.5,432.4L207.5,432.4z"/>
	<path class="st2" d="M227,447.5c0.9,0.1,1.9,0.2,2.8,0.2c0.9,0,1.9-0.1,2.8-0.1s1.8-0.2,2.7-0.4s1.8-0.4,2.6-0.7
		c0.2-0.3,0.3-0.5,0.7-0.6c0.3,0,0.6,0,0.9,0c0.5-0.2,1-0.4,1.4-0.6l0.5-0.3l0,0c0.2-0.2,0.1-0.3-0.2-0.4c-0.2,0-0.4,0-0.6-0.1
		c0.1,0,0.4,0,0.6,0.1c0.3,0,0.6,0,0.9-0.1c0.4-0.3,0.8-0.6,1.2-0.8c-0.4,0.3-0.8,0.6-1.2,0.8l-0.7,0.5l-0.2,0.2
		c1.1-0.5,2.1-1,3.2-1.6c0.2-0.2,0.4-0.3,0.6-0.5c0.5-0.6,1.2-1.1,1.9-1.2l0.5-0.4h-0.1l0.2-0.1c0.7-0.6,1.4-1.1,2.1-1.8
		c0.3-0.5,0.5-1.1,0.8-1.7l0.8-0.1c0-0.4,0.1-0.8,0.3-1.1c-0.5,0.2-1.1,0.3-1.4,0.5c-0.7,0.1-0.2,1.6-1.3,1.5
		c1.1,0.1,0.6-1.4,1.3-1.5c0.4-0.2,0.9-0.3,1.4-0.5c0.5-0.8,1.2-1.5,2-2c-0.3,1-1,1.7-2,2c-0.2,0.3-0.3,0.7-0.3,1.1l-0.8,0.1
		c-0.3,0.5-0.6,1.1-0.8,1.7c0.7-0.6,1.3-1.2,1.9-1.9c0.6-0.7,1.2-1.4,1.8-2.1c3.7-4.7,5.7-10.5,5.7-16.5c-0.1-3.1-0.8-6.1-2.1-8.8
		c-0.7-1.4-1.4-2.7-2.3-4l-1.5-1.9c-0.5-0.6-1-1.2-1.6-1.8c-2.3-2.4-5-4.6-7.8-6.4c-2.8-1.8-5.8-3.2-9-4.3c-3.2-1.1-6.6-1.6-9.9-1.4
		c-3.5,0.2-6.9,1.2-10,2.9c-3,1.8-5.7,4.1-7.9,6.9c-2.2,2.8-4.1,5.8-5.6,9c-1.4,3.3-2.1,6.8-2.1,10.4c0,1,0,2,0.1,2.9
		s0.2,1.9,0.3,2.8s0.3,1.8,0.5,2.5s0.4,1.5,0.6,2.2c0.2,0.4,0.4,0.7,0.6,1.1c0.2,0.3,0.4,0.6,0.7,0.8c0.4,0.4,0.8,0.7,1.3,1
		c0.6,0.3,1.4,0.3,2,0c0.8-0.5,1.5-1.2,1.9-2c0.2-0.5,0.4-1.1,0.6-1.6c0.1-0.5,0.2-0.9,0.3-1.4c0-0.5,0-0.9,0-1.4c0-0.5,0-1,0-1.4
		c-0.1-1.1-0.1-2.2-0.1-3.4c0.1-1.5,0.5-3,1.1-4.4c-0.8,2.3-1.3,1.4-1.2-0.7c0.1-1.2,0.4-2.4,0.9-3.6c0.5-1.2,1.2-2.3,2.2-3.2
		c2.8-2.2,4.6-4.8,7-7c1.2-1.1,2.5-2,4-2.6c0.8-0.3,1.6-0.5,2.4-0.6c0.4,0,0.9-0.1,1.3-0.1c0.4,0,0.9,0,1.3,0.1
		c0.9,0.2,1.7,0.1,2.7,0.3c0.5,0.1,1,0.1,1.4,0.2l1.5,0.4c2.6,1,5.1,2.2,7.5,3.5c2.4,1.3,4.5,3,6.5,4.9c1.8,1.7,3.3,3.8,4.3,6.1
		c0.9,2.4,1.1,5,0.6,7.5c-0.4,2.8-0.6,5.7-1.6,8.3c-0.2,0.5-0.5,0.9-0.8,1.3c-0.3,0.4-0.6,0.8-1,1.2c-0.7,0.7-1.3,1.4-1.9,1.9
		c-1.7,1.9-3.2,3.5-4.8,4.9c1.8-1.3,3.4-2.9,4.8-4.7c0.6-0.6,0.6-0.2,0.4,0.5c-0.1,0.4-0.3,0.8-0.5,1.2c-0.2,0.3-0.4,0.7-0.6,1
		c-0.3,0.5-1.5,0.2-1.8,0.7c-0.4,0.3-0.8,0.7-1.2,1.2c-0.4,0.4-0.8,0.8-1.2,1.3s-0.8-0.4-0.9-0.2c-0.6,0.5-1.2,1-1.6,1.6
		c-0.4,0.5-0.9,0.8-1.5,1c-0.7,0.1-1.5,0.2-2.2,0.2c-0.4,0.1-0.9,0.1-1.3,0.2l-0.8,0.4c0.2,0.3,0.4,0.6,0.5,1c-0.3,0-0.5,0-0.8,0
		c-0.3,0-0.6-0.1-0.8-0.1c0.2,0,0.5,0.1,0.8,0.1c0.3,0,0.5,0,0.8,0c-0.1-0.4-0.3-0.7-0.5-1c-2.3,0.9-4.8,1.2-7.2,1.1v0.1
		c0.7,0.1,1.4,0.2,2.1,0.4c0.8,0.2,1.5,0.4,2.2,0.7c-0.7-0.2-0.6-0.5,0.2-0.5c0.2,0.2,0.4,0.3,0.6,0.5c-0.7,0.2-1.3,0.2-2,0.2
		c-0.7,0-1.3-0.2-1.9-0.6l-0.9,0.2c-0.4-0.2-0.3-0.5-0.3-0.8c-0.3-0.1-0.6-0.1-0.9-0.1c0.4,0.4,0.8,0.7,1.3,1
		C226.5,447.2,227,447.5,227,447.5z"/>
	<path class="st2" d="M242.1,444.6c-0.2,0.1-0.4,0.3-0.6,0.4c0.5-0.2,0.9-0.4,1.3-0.7l1.3-0.7C243.5,443.5,242.8,444.1,242.1,444.6z
		"/>
</g>
<circle class="st3" cx="230.2" cy="420.9" r="8.8"/>
<g class="st1">
	<path class="st2" d="M235.3,426.4l-0.4,0.3c0.1,0,0.3,0,0.4,0.1C235.5,426.8,235.4,426.6,235.3,426.4z"/>
	<path class="st2" d="M234.5,426.9L234.5,426.9l-0.1,0.1C234.5,427,234.5,427,234.5,426.9z"/>
	<path class="st2" d="M234,427.6c0.1,0,0.3-0.1,0.4-0.2C234.2,427.3,234.1,427.4,234,427.6z"/>
	<path class="st2" d="M234.7,427.4c-0.1-0.1-0.2-0.2-0.2-0.3l0,0c0,0.1-0.1,0.2-0.1,0.2C234.4,427.3,234.6,427.4,234.7,427.4z"/>
	<path class="st2" d="M234.7,427.4c0.1,0.1,0.3,0.1,0.3,0.2L234.7,427.4z"/>
	<path class="st2" d="M236.3,430.4c-0.1,0.2-0.5-0.7-0.6-0.4c-0.3,0.5-0.6,1.1-1.1,1.3c-0.1,0.3-0.9-0.6-1-0.3
		c-0.3,0.4-0.6,0.7-0.9,1.1c-0.2,0.4-0.4,0.8,0.1,0.6c1.1-0.4,2.2-1,3.1-1.8c0.6-0.8,1.1-1.7,1.5-2.6c0.1-0.2,0.3-0.3,0.5-0.5
		c-0.3,0.1-0.6,0.3-1,0.4s-0.3,0.4-0.3,0.8C236.7,429.6,236.6,430,236.3,430.4z"/>
	<path class="st2" d="M237.8,423.8l0.2,0.4c-0.8,0.1-0.7,0.5-0.7,1l0.5,0.1c0.1-0.2-0.1-0.4-0.4-0.3c0.6-0.1,1-0.5,1.1-1.1
		C238.2,423.9,237.9,423.7,237.8,423.8z"/>
	<path class="st2" d="M238.5,423.6c0,0.1,0,0.2,0,0.3h0.1L238.5,423.6L238.5,423.6z"/>
	<path class="st2" d="M232.6,429.1c-1.1,0.4-2.3,0.4-3.5,0.1c-0.1,0.2-0.2,0.4-0.3,0.2c0-0.1-0.1-0.3-0.2-0.4
		c-0.2,0-0.3-0.1-0.5-0.2H228l0,0c-0.1,0.1-0.1,0.2-0.1,0.4c0,0.1,0.1,0.3,0.1,0.4c0-0.1-0.1-0.2-0.1-0.4c0-0.1-0.1-0.2-0.2-0.3
		c-0.2,0-0.3,0-0.4-0.1c0.2,0,0.3,0,0.4,0.1h0.3l0.1-0.1c-0.3-0.1-0.7-0.3-1-0.5h-0.2c-0.3,0-0.6,0-0.5-0.5l-0.1-0.1v0.1
		c0,0,0-0.1,0-0.1c-0.2-0.2-0.4-0.3-0.6-0.5c-0.3,0.1-0.5,0.1-0.8,0.1c0,0,0.1-0.3,0.2-0.5c-0.2,0.1-0.4,0.2-0.6,0.1
		c-0.1,0.3-0.2,0.6-0.2,0.9c-0.1,0.5,1-0.5,0.6,0.4c0.4-0.9-0.7,0.1-0.6-0.4c0.1-0.3,0.1-0.6,0.2-0.9c-0.3,0-0.4-0.5-0.2-1
		c0.5,0,0.4,0.4,0.2,1c0.2,0,0.4,0,0.6-0.1c-0.1,0.2-0.2,0.5-0.2,0.5c0.3,0,0.5,0,0.8-0.1c-0.4-0.4-0.7-0.8-1-1.2
		c-0.8-1.3-1.3-2.9-1.4-4.4c0-1.5,0.5-3,1.4-4.2c1-1.2,2.5-1.8,4.1-1.6c0.7,0.1,1.2,0.2,1.8,0.3c0.5,0.1,1.1,0.2,1.5,0.5
		c0.5,0.2,0.9,0.6,1.1,1.1c0.2,0.6,0.2,1.2-0.1,1.8c-0.2,0.3-0.2,0.7-0.1,1.1c0.1,0.3,0.2,0.6,0.2,0.9c1,0.6,2.1,1.1,3.2,1.5
		c0.8,0.3,1.6,0.4,2.4,0.4c0.7,0,1.4-0.2,1.9-0.6c0.4-0.3,0.6-0.7,0.7-1.1c0.3-0.9,0.3-2,0.8-4c-0.3,1.3-0.9,1-1.3,0.1
		c-0.5-1.2-0.6-2.6-0.3-3.9c0.6-2.5-1.2-4.5-3.5-5.5s-4.8-1.2-7.2-1.5c-1.3-0.1-2.6,0-3.8,0.5c-3.8,0.6-7,3-8.6,6.4
		c-1.6,3.4-2,7.3-1.1,11c0.6,2,2.2,3.2,3.5,4.2c0.8,0.8,1.3,2,2.1,2.6c1.1,0.8,2.4,1.3,3.8,1.3c-1.3-0.2-2.5-0.7-3.6-1.4
		c-0.4-0.3-0.1-0.4,0.4-0.5c0.5,0,1,0,1.5,0c0.3,0,0.1,1.1,0.5,1c0.6,0.2,1.2,0.2,1.8,0c0.3-0.1,0,0.8,0.1,0.7
		c0.5,0,0.9-0.2,1.3-0.5c0.4-0.2,0.7-0.4,0.9-0.3s0.7,0.4,1,0.5c0.2,0.1,0.4,0.1,0.7,0.1l0.4-0.3c-0.1-0.3-0.2-0.7-0.2-1
		c0.2,0,0.5,0.2,0.7,0.3c-0.2,0-0.5-0.2-0.7-0.3c0,0.3,0.1,0.7,0.2,1c1-0.6,1.9-1.2,2.7-2v-0.1c-0.5,0.3-1.2,0.3-1.7-0.1
		c0.3,0.2,0.3,0.4,0,0.5l-0.3-0.4c0.4-0.3,0.8-0.7,1.4-0.1l0.2-0.4c0.2,0.1,0.3,0.4,0.4,0.6c0.1-0.1,0.2-0.1,0.3-0.2
		c-0.2-0.2-0.5-0.4-0.8-0.5L232.6,429.1z"/>
	<path class="st2" d="M227.6,429h0.2c-0.3-0.1-0.6-0.3-0.8-0.4C227,429,227.4,429,227.6,429z"/>
</g>
<g class="st1">
	<path class="st2" d="M754.3,383.8c-0.4,1.5-0.9,3-1.3,4.5c0.3-0.7,0.6-1.5,1-2.2C754.2,385.4,754.3,384.6,754.3,383.8z"/>
	<path class="st2" d="M751.6,392.4c-0.1,0.3-0.2,0.5-0.3,0.8s-0.1,0.5-0.1,0.7L751.6,392.4z"/>
	<path class="st2" d="M749.1,400.2c0.6-1.3,1-2.6,1.5-3.9C750.1,397.4,749.5,398.6,749.1,400.2z"/>
	<path class="st2" d="M751.5,394.2c-0.3,0.4-0.5,0.6-0.3-0.2l0,0l-0.7,2.4C750.8,395.6,751.1,394.9,751.5,394.2z"/>
	<path class="st2" d="M751.5,394.2c0.3-0.4,0.7-1.1,0.8-1.3C752,393.3,751.8,393.7,751.5,394.2z"/>
	<path class="st2" d="M754,397.2c-0.2,0.8-1,0.3-1.4,2l-1.7,5.3c-0.6,1.7-1.2,3.4-2,5c-0.4,0.9-0.9,1.8-1.5,2.6
		c-0.7,0.8-1.2,1.6-1.6,2.5c-0.4,0.9-0.9,2.2-1.4,3.5s-1.1,2.6-1.5,3.7c-0.8,2.1-1.1,3.2,0.4,0.6c1.1-2,2.1-3.7,2.9-5.5
		s1.6-3.4,2.4-5c1.4-3.3,2.8-6.5,4.1-10.2c2-6.1,3.6-12.4,4.8-18.7c0.4-1.8,0.8-3.5,1.3-5.1c-0.7,2.2-1.3,4.4-2.1,6.9
		c-0.6,1.8-1,3.7-1.2,5.6C755.2,392.6,754.7,395,754,397.2z"/>
	<path class="st2" d="M759.7,349.8c0.1,0.8,0.3,2.5,0.3,2.5c-0.2,0.9-0.4,1.8-0.5,2.8s-0.2,1.9-0.3,2.8s-0.1,1.9-0.1,2.9
		s-0.1,1.9-0.2,2.9c0.2-0.5,0.5-1.1,0.7-1.6c0.2-2.2-0.1-2.5-0.5-0.5c0.4-2.2,0.8-4.3,1-6.5c0.1-1.1,0.2-2.1,0.2-3.2
		c0-1.1,0-2.1,0-3.2C760.2,348.6,759.8,348.5,759.7,349.8z"/>
	<path class="st2" d="M760.4,345.8c0,0.9,0,1.7,0,2.5c0,0,0.1-0.1,0.1-0.1C760.5,347.4,760.5,346.5,760.4,345.8L760.4,345.8z"/>
	<path class="st2" d="M742.6,416.3c-4.9,9.2-10.8,17.9-17.5,25.8c-0.3,0.8-0.7,1.4-1.3,2c-0.6,0.5-1.2,1-1.8,1.5c-1,1.1-2,2.1-3,3.2
		l-1,1.2l0,0c-0.5,0.7-0.2,0.6,0.2,0.3c0.4-0.3,0.9-0.6,1.3-0.9c-0.3,0.1-0.9,0.6-1.3,0.9c-0.6,0.5-1.2,1-1.8,1.5
		c-0.9,1-1.9,2-3,2.9c0.9-1,1.9-2,3-2.9l1.6-1.9l0.4-0.6c-2.3,2.5-4.8,4.6-7.2,6.9c-0.5,0.5-1.1,1-1.5,1.4c-1.7,1.7-3.5,3.4-4.9,3.9
		l-1.4,1.1l0.3-0.1c-0.2,0.1-0.4,0.2-0.6,0.3l-3,2.3c-1,0.8-2.1,1.4-3.1,2.2c-1.2,1.1-2.4,2.3-3.8,3.3l-1.7,0.5
		c-0.6,0.7-1.3,1.4-2.1,1.9c1.3-0.5,2.5-0.9,3.6-1.4c1.7-0.5,2.6-2.9,4.8-3.4c-2.2,0.4-3,2.9-4.8,3.4c-1.1,0.5-2.3,0.9-3.6,1.4
		c-0.5,0.4-1,0.7-1.6,1.1s-1.2,0.7-1.8,1c-1.2,0.6-2.4,1.1-3.7,1.6c1.1-0.9,2.4-1.6,3.7-2.2c0.6-0.3,1.2-0.5,1.8-0.8
		c0.6-0.2,1.1-0.5,1.7-0.7c0.8-0.5,1.5-1.2,2.1-1.9l1.7-0.5c1.4-1,2.6-2.2,3.8-3.3l-3.1,2.1c-1,0.7-2.1,1.3-3.2,2l-3.2,2l-3.3,1.8
		c-7,3.9-14.3,7.2-21.9,10c-7.4,2.7-15,4.8-22.8,6.3c-15.9,3.1-32.2,3.5-48.3,1.3c-17.5-2.4-34.3-8.2-49.6-16.9
		c-7.2-4.1-14.2-8.7-20.7-13.9c-1.6-1.3-3.2-2.5-4.8-3.9l-4.6-4l-4.4-4.3c-1.5-1.4-2.8-2.9-4.2-4.4c-5.5-6-10.5-12.5-14.8-19.4
		c-4.4-7.1-8.1-14.6-10.8-22.4c-2.9-7.8-5.4-15.7-7.5-23.7c-2-7.9-3.3-16-4-24.2c-0.2-1-0.4-2-0.5-2.8s-0.3-1.6-0.4-2.3
		c-0.2-1.1-0.5-2.1-1-3.2c-0.6-1.5-1.3-2-2-1.9c-1.2,0.2-2.3,2.6-2.4,3c-0.4,1.3-0.7,2.7-1,4c-0.2,1.3-0.4,2.7-0.4,4
		c-0.1,1.3-0.1,2.7-0.1,4.1s0.2,2.9,0.3,4.4c0.9,8.3,2.3,16.5,4.1,24.6c-1.5-7.5-0.2-4.9,1.7,1.3c1.1,3,2.3,7,3.7,11l1,3l1,3
		c0.7,1.9,1.2,3.9,1.8,5.6c3,10.1,9.6,21.3,18.2,31.5c8.9,10.1,18.8,19.2,29.6,27.2c5.1,4,11.1,7.5,17.9,11.2
		c17.3,9.7,36.5,15.7,56.2,17.4c20.2,1.8,40.6-0.2,60.1-5.7c10.8-3.2,19.5-7.8,27.6-12.6l2.3-1.2l2.3-1.3l4.5-2.5l4.2-2.5l2-1.2
		c0.6-0.4,1.2-0.8,1.8-1.2c6.4-4.5,12.3-9.6,17.6-15.4c-5.4,5.4-11.1,10.4-17.3,14.9c-2.4,1.8-1.8,0.9-0.1-0.7
		c0.8-0.8,1.9-1.8,2.9-2.7s2-1.9,2.8-2.6c1.2-1.2,4-2,5.1-3.3c1.4-1.2,2.7-2.4,3.9-3.7l3.7-4.2c1.1-1.3,1.6-0.5,2.1-1.2
		c1.6-1.8,3-3.7,4.4-5.7c1-1.6,2.1-3.2,3.4-4.6c0.9-0.9,1.7-1.9,2.5-2.7l2.3-2.6c1-1.1,1.8-2.3,2.7-3.5l1.5-2.5
		c-0.5,0.3-1,0.5-1.6,0.5c0.9-1.1,2.2-2.6,3-3.8c-0.8,1.2-2.1,2.6-3,3.8c0.6,0,1.1-0.1,1.6-0.5c3.8-6.5,7.2-13.2,10.1-20.2l-0.1,0.1
		c-1,2-1.9,3.9-3,5.8s-2.4,3.7-3.8,5.5c1.2-1.6,1.3-1.2,0.2,0.7l-1.3,1.2c1-1.7,1.8-3.4,2.7-5.1c0.9-1.6,2-3.2,3.1-4.7l0.8-2.4
		c0.7-1,0.9-0.9,1.3-1c0.2-0.4,0.4-0.8,0.5-1.2l0.5-1.2c-0.6,0.7-1.7,2.3-2.6,3.6L742.6,416.3z"/>
	<path class="st2" d="M716.2,451.9l1.4-1.6L716.2,451.9l-1.6,1.4l-3.1,2.9C712.9,455.4,714.6,453.6,716.2,451.9z"/>
</g>
<g class="st1">
	<path class="st2" d="M625.2,441.6c-0.4,0.3-0.9,0.6-1.3,0.8c0.3-0.1,0.6-0.1,0.8-0.1C625,442.2,625.1,441.9,625.2,441.6z"/>
	<path class="st2" d="M622.6,443.1l-0.2,0.1l-0.2,0.2C622.3,443.4,622.5,443.3,622.6,443.1z"/>
	<path class="st2" d="M620.3,444.5c0.4-0.1,0.9-0.3,1.2-0.6C621.1,444.1,620.6,444.3,620.3,444.5z"/>
	<path class="st2" d="M622.3,443.8c-0.2-0.1-0.4-0.2-0.2-0.4l0,0l-0.7,0.5C621.8,443.9,622.1,443.8,622.3,443.8z"/>
	<path class="st2" d="M622.3,443.8c0.2,0,0.4,0.1,0.6,0.1C622.8,443.9,622.5,443.8,622.3,443.8z"/>
	<path class="st2" d="M623.2,447.2c-0.2,0.2-0.6-0.7-1-0.2s-1.2,0.8-1.8,1.2c-0.6,0.4-1.2,0.7-1.8,0.8c-0.6,0.4-1.8-0.4-2.3-0.1
		s-1.9,0.9-2.8,1.2s-1.2,0.7-0.1,0.6c0.8-0.1,1.6-0.2,2.4-0.4c0.7-0.1,1.3-0.3,2-0.5c0.7-0.2,1.3-0.4,1.9-0.7l2-0.9
		C622.3,447.9,622.7,447.5,623.2,447.2c0.6-0.3,1.1-0.7,1.5-1.1l1.4-1.2l1.3-1.3c0.5-0.4,1-0.8,1.6-1.2l-1.1,0.7l-1.2,0.6
		c-0.6,0.4-1.1,0.9-1.5,1.5C624.6,446,623.9,446.7,623.2,447.2z"/>
	<path class="st2" d="M633,433.2c0,0.3-0.1,0.9-0.1,0.9c-0.6,0.4-1,0.8-1.4,1.4c-0.3,0.6-0.6,1.2-0.9,1.8l0.7-0.2
		c0.4-0.6,0.2-0.9-0.3-0.5c1.3-0.9,2.2-2.1,2.8-3.6C633.6,433,633.3,432.9,633,433.2z"/>
	<path class="st2" d="M634.2,432.3l-0.3,0.8h0.1C634,432.8,634.1,432.5,634.2,432.3L634.2,432.3z"/>
	<path class="st2" d="M614.8,446.9c-0.9,0.1-1.8,0.2-2.8,0.2c-0.9,0-1.8-0.1-2.7-0.1s-1.8-0.3-2.6-0.5s-1.7-0.4-2.5-0.8
		c-0.3,0.1-0.5,0.2-0.8,0c-0.2-0.2-0.4-0.4-0.6-0.6c-0.5-0.2-0.9-0.4-1.3-0.7l-0.5-0.2l0,0c-0.3,0-0.3,0.1-0.2,0.3
		c0.1,0.2,0.2,0.4,0.3,0.5c0-0.1-0.2-0.4-0.3-0.5c-0.2-0.2-0.4-0.4-0.6-0.6c-0.4-0.2-0.9-0.4-1.2-0.7c0.5,0.2,0.9,0.4,1.2,0.7
		c0.3,0.1,0.5,0.2,0.8,0.3h0.3c-1-0.5-2-1.1-2.9-1.8c-0.2-0.1-0.4-0.3-0.6-0.4c-0.7-0.4-1.5-0.8-1.6-1.5l-0.4-0.4c0,0,0,0.1,0,0.1
		c0-0.1-0.1-0.1-0.1-0.2c-0.6-0.6-1.2-1.2-1.8-1.8c-0.5-0.3-1.1-0.5-1.6-0.9v-0.8c-0.4,0-0.7-0.2-1-0.4c0,0.5,0.1,1,0.2,1.5
		c0,0.8,1.6,0.3,1.4,1.5c0.2-1.1-1.4-0.6-1.4-1.5c-0.1-0.5-0.2-1-0.2-1.5c-0.7-0.6-1.1-1.5-1.2-2.5c0.8,0.6,1.2,1.5,1.2,2.5
		c0.3,0.2,0.6,0.4,1,0.4v0.8c0.5,0.3,1,0.6,1.6,0.9c-0.6-0.6-1.1-1.3-1.6-2c-0.5-0.7-1-1.4-1.4-2.1c-2.9-4.5-4.4-9.7-4.2-15
		c0.4-5.3,2.9-10.2,7-13.6c2.2-1.9,4.7-3.6,7.4-4.8c2.6-1.2,5.3-1.9,8.1-2.4c2.5-0.4,5.1-0.5,7.7-0.2c2.3,0.2,4.5,0.9,6.5,2.1
		c4.1,2.7,6.6,7.3,6.7,12.1c0.1,2,0.5,4.7,0.6,7.4c0.1,2.4-0.1,4.8-0.7,7.1c0,0.3,0.1,0.6,0.1,0.9c0,0.2,0.1,0.5,0.1,0.7
		c0.1,0.4,0.3,0.8,0.5,1.2c0.4,0.6,0.9,1,1.6,1.3c0.8,0.3,1.8,0.3,2.6,0c0.5-0.3,1-0.6,1.5-1c0.4-0.3,0.7-0.7,1-1.2
		c0.3-0.4,0.5-0.9,0.8-1.4c0.2-0.5,0.3-1,0.5-1.6c0.6-2.3,0.9-5,1.6-9.2c-0.4,2.9-1,1.8-1.3-0.5c-0.2-1.2-0.3-2.7-0.5-4.2
		c-0.2-1.6-0.2-3.1-0.2-4.7c0.3-4.4-2.3-9.4-6.8-13c-2.3-1.8-5-3.2-7.8-4c-1.4-0.4-2.8-0.8-4.2-1c-0.7-0.1-1.4-0.2-2-0.3
		s-1.4-0.2-2-0.2c-1.4-0.1-2.7-0.1-4.1,0.1c-0.7,0.1-1.4,0.2-2.1,0.3l-2.2,0.5c-3.8,0.7-7.5,2-10.9,3.9c-3.4,1.9-6.4,4.3-9,7.2
		c-2.8,3.1-4.9,6.7-6.3,10.6c-1.3,4.2-1.7,8.6-1,12.9c0.4,2.1,1.1,4.2,2.2,6.1c1,1.7,2.1,3.2,3.3,4.7l1.1,1.7c0.4,0.5,0.7,1.1,1,1.7
		c0.6,1,1.4,2,2.2,2.9c2.1,2.2,4.6,4,7.4,5.1c-2.6-1.3-5-3.1-7.1-5.1c-0.8-0.8-0.3-0.7,0.5-0.3c0.5,0.2,1,0.5,1.4,0.7
		c0.5,0.2,1,0.5,1.3,0.7c0.6,0.2,0.7,1.7,1.3,1.9c0.6,0.4,1.2,0.7,1.8,1l2,0.7c0.6,0.1,0.1,0.9,0.4,1c0.9,0.3,1.8,0.5,2.8,0.5
		c0.7-0.1,1.5,0.1,2.2,0.4c0.8,0.5,1.7,0.8,2.5,1.1c0.5,0.2,1.1,0.3,1.6,0.4l1.1-0.1c-0.2-0.3-0.3-0.7-0.3-1.1
		c0.3,0.1,0.6,0.2,0.8,0.3c0.3,0.1,0.6,0.2,0.9,0.2c-0.3,0-0.6-0.1-0.9-0.2c-0.3-0.1-0.6-0.2-0.8-0.3c0,0.4,0.1,0.8,0.3,1.1
		c2.8-0.3,5.5-0.9,8.2-1.8v-0.1c-0.8,0.2-1.5,0.3-2.3,0.3c-0.8,0-1.6-0.1-2.4-0.4c0.7,0.2,0.6,0.5-0.2,0.5c-0.2-0.1-0.4-0.3-0.6-0.5
		c0.7-0.1,1.3-0.3,2-0.4c0.7-0.1,1.4,0,2,0.2l0.8-0.5c0.4,0.1,0.5,0.4,0.6,0.6l0.9-0.3c-0.6-0.2-1.1-0.3-1.7-0.4
		C615.3,446.9,614.8,446.9,614.8,446.9z"/>
	<path class="st2" d="M600,444l0.7,0.2c-0.4-0.2-0.8-0.5-1.2-0.8l-1.2-0.8C598.5,443.4,599.3,443.7,600,444z"/>
</g>
<circle class="st3" cx="611.6" cy="420.9" r="8.8"/>
<g class="st1">
	<path class="st2" d="M604.8,428.4l0.5,0.5c0-0.2,0-0.3,0-0.5C605.2,428.2,605,428.3,604.8,428.4z"/>
	<path class="st2" d="M605.7,429.2L605.7,429.2l0.2,0.1L605.7,429.2z"/>
	<path class="st2" d="M606.8,429.6c-0.1-0.1-0.3-0.2-0.5-0.2C606.4,429.5,606.6,429.6,606.8,429.6z"/>
	<path class="st2" d="M606.2,429c0,0.1-0.1,0.3-0.2,0.3l0,0l0.3,0.1C606.2,429.3,606.2,429.1,606.2,429z"/>
	<path class="st2" d="M606.2,429c0-0.1,0-0.3,0-0.4C606.1,428.7,606.1,428.9,606.2,429z"/>
	<path class="st2" d="M608.2,426.3c0.1,0-0.4,0.8-0.2,0.6c0.4,0,0.9-0.3,1.2-0.2c0.2-0.1,0,0.9,0.3,0.8c0.3-0.2,0.6-0.4,0.9-0.7
		c0.2-0.3,0.4-0.6,0.2-0.6c-0.6,0.1-1.2,0-1.8-0.1c-0.7,0.1-1.3,0.1-2,0c-0.1-0.1-0.2-0.3-0.3-0.4c0,0.3,0.1,0.5,0.2,0.8
		c0,0.2,0.3,0.1,0.7,0C607.6,426.4,607.9,426.3,608.2,426.3z"/>
	<path class="st2" d="M602.8,424.4l0.4,0.2c-0.4,0.7,0,1.1,0.5,1.3l0.3-0.4c-0.2-0.2-0.4-0.1-0.5,0.2c0.2-0.6,0.2-1.2-0.1-1.7
		C603.1,424.1,602.8,424.2,602.8,424.4z"/>
	<path class="st2" d="M603.2,423.7c0.1,0.1,0.1,0.2,0.2,0.2h0.1L603.2,423.7L603.2,423.7z"/>
	<path class="st2" d="M609.1,429.7c1.2,0.3,2.5,0.4,3.8,0.4c0.1-0.2,0.1-0.4,0.2-0.3c0.1,0.1,0.2,0.2,0.3,0.3l0.5-0.1l0.2-0.1l0,0
		c0.1-0.1,0-0.3-0.1-0.4c-0.1-0.1-0.2-0.2-0.3-0.3l0.3,0.3c0.1,0.1,0.2,0.2,0.3,0.2c0.1-0.1,0.3-0.2,0.5-0.2
		c-0.1,0.1-0.3,0.2-0.5,0.2l-0.2,0.2l-0.1,0.1c0.4-0.1,0.8-0.2,1.2-0.3l0.2-0.2c0.2-0.2,0.4-0.5,0.8-0.2l0.2-0.1l-0.1,0h0.1
		c0.3-0.1,0.6-0.3,0.9-0.4c0.1-0.3,0.1-0.6,0.2-0.8l0.5,0.2c-0.1-0.2-0.1-0.4-0.1-0.6c-0.3-0.1-0.6-0.2-0.9-0.3
		c-0.4-0.2,0.3,1-0.5,0.5c0.7,0.6,0-0.7,0.5-0.5c0.2,0.1,0.5,0.2,0.9,0.3c0.1-0.3,0.5-0.5,1-0.4c0,0.6-0.5,0.6-1,0.4
		c0,0.2,0,0.4,0.1,0.6l-0.5-0.2c-0.1,0.2-0.1,0.5-0.2,0.8c0.6-0.3,1.1-0.7,1.6-1.2c1.7-1.5,2.7-3.5,3-5.7c0.3-2.3-0.2-4.7-1.2-6.8
		c-1.3-2.5-3.3-4.5-5.7-5.8c-2.6-1.2-5.6-1.3-8.3-0.2c-2.9,1.1-5.5,2.7-7.8,4.8c-1.2,1.3-1.9,2.9-2.2,4.6c-0.2,1.7-0.2,3.4,0.2,5
		c0.9,1.2,2.5,1.6,3.8,0.9c0.8-0.3,1.5-0.7,2.2-1.1c0.5-0.4,1.1-0.7,1.5-1.2c0.2-0.2,0.4-0.5,0.5-0.8c0.1-0.8,0.7-1.5,1.5-1.7
		c-0.7,0.4-1.2,0.1-1.2-0.5s0.8-1.3,2-1c1.9,0.5,2.2,0.5,2.6,0.1s1-1.1,1.6-0.6c0.3,0.2,0.5,0.1,0.8,0.3c0.4,0.6,1,1.2,1.5,1.6
		c0.6,0.5,0.9,1.4,0.6,2.2c-0.1,0.4,0.5,1.2,0.6,2c-0.1,0.4-0.8,0.4-1,0.6c-0.4,0.4-0.6,0.9-0.8,1.4c0.4-0.3,0.7-0.7,0.9-1.2
		c0.1-0.1,0.3,0.1,0.4,0.5c0.1,0.3,0.1,0.7,0,1c0,0.3-0.7-0.6-0.7-0.3c-0.2,0.1-0.3,0.6-0.5,1c-0.1,0.2-0.3-0.7-0.4-0.5
		c-0.2,0.3-0.3,0.6-0.3,0.9c-0.1,0.3-0.2,0.6-0.4,0.5c-0.2-0.1-0.4-0.2-0.6-0.4c-0.1,0-0.2-0.1-0.3,0l-0.2,0.2c0,0.3,0.1,0.7,0.1,1
		c-0.1-0.1-0.3-0.3-0.4-0.3c0.1,0.1,0.3,0.3,0.4,0.3c0-0.3,0-0.7-0.1-1c-0.7,0.6-1.5,0.9-2.3,1v0.1c0.5,0.1,1,0.4,1.2,0.9
		c-0.2-0.2-0.1-0.5,0.1-0.5l0.1,0.5c-0.5,0.2-1,0.4-1.2-0.4l-0.4,0.2c-0.1-0.2,0-0.5,0.1-0.7h-0.3c0,0.3,0.1,0.6,0.2,0.9
		C608.9,429.3,609,429.5,609.1,429.7z"/>
	<path class="st2" d="M614.4,429.6c-0.1,0.1-0.1,0.1-0.2,0.1c0.3,0,0.7-0.1,1-0.2C614.9,429.2,614.7,429.4,614.4,429.6z"/>
</g>
</svg>
