<?xml version="1.0" encoding="utf-8"?>
<!-- Generator: Adobe Illustrator 25.0.0, SVG Export Plug-In . SVG Version: 6.00 Build 0)  -->
<svg version="1.1" id="Layer_1" xmlns="http://www.w3.org/2000/svg" xmlns:xlink="http://www.w3.org/1999/xlink" x="0px" y="0px"
	 viewBox="0 0 841.9 841.9" style="enable-background:new 0 0 841.9 841.9;" xml:space="preserve">
<style type="text/css">
	.st0{fill:#5E503F;}
	.st1{opacity:0.85;}
	.st2{fill:#FEFEFE;}
	.st3{fill:#EDEFEF;}
</style>
<rect x="-0.2" class="st0" width="841.9" height="841.9"/>
<g class="st1">
	<path class="st2" d="M177.7,620.4c-0.3,0.2-0.6,0.5-0.9,0.7c0.2-0.1,0.4-0.2,0.6-0.2S177.6,620.6,177.7,620.4z"/>
	<path class="st2" d="M175.9,621.7l-0.2,0.1l-0.1,0.1C175.7,621.8,175.8,621.8,175.9,621.7z"/>
	<path class="st2" d="M174.1,622.6c0.4-0.1,0.7-0.2,1-0.4c-0.1,0-0.3,0.1-0.4,0.2C174.5,622.4,174.3,622.5,174.1,622.6z"/>
	<path class="st2" d="M175.7,622.1c-0.1,0-0.2,0-0.1-0.2l0,0l-0.5,0.3C175.3,622.2,175.5,622.1,175.7,622.1z"/>
	<path class="st2" d="M175.7,622.1c0.1,0,0.3,0,0.4,0C176,622.1,175.8,622.1,175.7,622.1z"/>
	<path class="st2" d="M175.9,623.9c-0.2,0.2-0.3-0.3-0.7,0s-1,0.5-1.4,0.7c-0.5,0.1-1,0.3-1.5,0.3c-0.5,0.1-1.2-0.4-1.7-0.3
		s-1.5,0.2-2.1,0.2s-1,0.2-0.1,0.3c2.2,0.4,4.4,0.2,6.4-0.5c1.7-0.7,3.2-1.9,4.4-3.3c0.3-0.4,0.6-0.7,1-1c-0.5,0.4-1,0.9-1.5,1.2
		c-0.4,0.3-0.8,0.7-1.1,1.1c-0.2,0.2-0.4,0.5-0.7,0.7C176.5,623.5,176.2,623.7,175.9,623.9z"/>
	<path class="st2" d="M182.8,613.2l-0.1,0.7c-0.6,0.8-1.1,1.6-1.4,2.6c0.1-0.1,0.3-0.2,0.4-0.3c0.2-0.5,0.2-0.6-0.2-0.2
		c0.4-0.4,0.7-0.9,1-1.4c0.3-0.5,0.5-1,0.7-1.5C183.1,613,183,613,182.8,613.2z"/>
	<path class="st2" d="M183.5,612.4l-0.2,0.6h0.1L183.5,612.4L183.5,612.4z"/>
	<path class="st2" d="M169.8,623.4c-2.7-0.3-5.3-1.1-7.8-2.2c-0.2,0.1-0.4,0-0.6-0.1c-0.2-0.2-0.3-0.3-0.5-0.4l-1-0.5l-0.4-0.1l0,0
		c-0.2,0-0.2,0-0.1,0.2c0.1,0.1,0.2,0.2,0.3,0.3c-0.1-0.1-0.2-0.2-0.3-0.3s-0.3-0.3-0.5-0.4c-0.3-0.2-0.6-0.3-0.9-0.6
		c0.3,0.1,0.6,0.3,0.9,0.6c0.2,0.1,0.4,0.2,0.6,0.3h0.2c-0.8-0.4-1.4-0.9-2.2-1.4l-0.4-0.3c-0.5-0.3-1.1-0.7-1.2-1.1
		c-0.1-0.1-0.2-0.2-0.3-0.3c0,0,0,0.1,0,0.1c0-0.1-0.1-0.1-0.1-0.2c-0.4-0.5-0.9-0.9-1.4-1.4c-0.3-0.3-0.7-0.5-1-0.8
		c0,0-0.1-0.3-0.1-0.5c-0.2-0.1-0.5-0.2-0.6-0.4c0.1,0.3,0.2,0.7,0.3,1c0.1,0.5,1,0.4,1,1.1c0-0.7-0.9-0.6-1-1.1
		c-0.1-0.3-0.2-0.7-0.3-1c-0.5-0.5-0.8-1.1-1-1.8c0.5,0.5,0.9,1.1,1,1.8c0.2,0.2,0.4,0.4,0.6,0.4c0,0.2,0.1,0.5,0.1,0.5
		c0.3,0.3,0.7,0.5,1,0.8L153,614l-1.1-1.6c-2.1-3.5-3.2-7.5-3.3-11.6c0-1,0-2,0.1-3c0.1-0.5,0.2-1,0.2-1.5l0.1-0.8l0.2-0.7
		c0.1-0.5,0.3-1,0.4-1.5s0.4-1,0.6-1.5c0.2-0.5,0.4-1,0.6-1.4c0.2-0.5,0.5-0.9,0.8-1.4c1-1.9,2.6-3.4,4.6-4.2c1.9-0.6,4-0.6,5.9,0
		c4,1.3,7.8,3.1,11.4,5.3c1.8,1,3.5,2.2,5.1,3.5c1.5,1.2,2.7,2.8,3.4,4.6c0.6,1.6,0.9,3.3,0.8,4.9c-0.1,1.9-0.5,3.8-1.2,5.6
		c-0.4,2.1,0.1,2.9,0.6,3.1c0.5,0.1,1,0,1.4-0.3c1.2-0.9,2.1-2.2,2.5-3.7l0.4-1.3c0.1-0.5,0.2-1,0.4-1.5c0.3-1.3,0.5-2.7,0.6-4
		c-0.1,1.1-0.2,1.5-0.4,1.3c-0.2-0.6-0.3-1.1-0.3-1.7c-0.2-1.1-0.4-2.2-0.8-3.2c-0.4-1.2-0.9-2.3-1.3-3.3c-0.3-0.8-0.7-1.5-1.1-2.1
		c-0.2-0.3-0.5-0.7-0.8-1s-0.6-0.6-0.9-0.9c-1.3-1.2-2.7-2.2-4.2-3.1c-1.5-0.9-3.1-1.7-4.7-2.4l-4.7-2.3c-1.8-0.9-3.6-1.5-5.5-1.9
		c-0.7-0.2-1.4-0.3-2.2-0.4l-1.1-0.1c-0.4,0-0.8,0-1.2,0c-0.8,0-1.6,0.2-2.4,0.4c-0.4,0.1-0.8,0.2-1.2,0.4c-0.4,0.2-0.8,0.3-1.1,0.5
		c-2,1.2-3.8,2.8-5,4.8c-0.4,0.6-0.7,1.2-1.1,1.9c-1.3,2.5-2.1,5.2-2.5,8c-0.4,2.9-0.4,5.8,0.1,8.7c0.6,2.8,1.8,5.4,3.5,7.7
		c0.2,0.4,0.5,0.8,0.7,1.2l0.8,1.2c0.4,0.7,1,1.5,1.5,2.1c0.4,0.4,0.8,0.8,1.2,1.2c0.4,0.4,0.8,0.8,1.3,1.1c0.8,0.6,1.7,1.1,2.6,1.6
		l-0.7-0.4l-0.6-0.4l-1.2-0.8c-0.4-0.3-0.8-0.7-1.2-1c-0.4-0.4-0.8-0.8-1.2-1.2c-0.6-0.6-0.2-0.5,0.3-0.1s1.4,0.9,1.8,1.2
		c0.2,0.2,0.4,0.4,0.5,0.7c0.1,0.3,0.3,0.5,0.6,0.6c0.4,0.3,0.8,0.6,1.2,0.8c0.4,0.2,0.9,0.4,1.4,0.6s0.2,0.5,0.4,0.6
		c0.6,0.3,1.3,0.5,1.9,0.5c0.5,0.1,1,0.2,1.5,0.4l1.7,0.9c0.4,0.2,0.7,0.3,1.1,0.4l0.8,0.1c-0.1-0.2-0.2-0.4-0.2-0.6
		c0.3,0.2,0.8,0.4,1.2,0.5c-0.4-0.1-0.8-0.4-1.2-0.5c0,0.2,0.1,0.4,0.2,0.6c2,0.3,4,0.5,6.1,0.3v0c-1.2,0.1-2.3-0.2-3.4-0.7
		c0.5,0.2,0.4,0.3-0.2,0.2c-0.1-0.1-0.3-0.2-0.4-0.3c1,0,2,0.2,2.9,0.6c0.2,0,0.4-0.1,0.7-0.1c0.3,0.1,0.3,0.2,0.4,0.3h0.7
		c-0.4-0.1-0.8-0.3-1.2-0.3L169.8,623.4z"/>
	<path class="st2" d="M159,619.7c0.1,0.1,0.3,0.2,0.5,0.2l-1.8-1.2C157.8,619.1,158.4,619.4,159,619.7z"/>
</g>
<path class="st3" d="M160.6,614.5c-4.4-1-7.2-5.3-6.3-9.8c0,0,0,0,0,0c0.9-4.4,4.2-4.3,8.6-3.3s8.4,2.4,7.4,6.8
	C169.4,612.7,165.1,615.5,160.6,614.5z"/>
<g class="st1">
	<path class="st2" d="M164.6,614.8c0.2,0,0.3-0.1,0.5-0.1h-0.3C164.8,614.6,164.7,614.7,164.6,614.8z"/>
	<polygon class="st2" points="165.6,614.5 165.6,614.4 165.7,614.4 	"/>
	<path class="st2" d="M166.3,614c-0.1,0.1-0.3,0.1-0.4,0.2C166.1,614.2,166.2,614.1,166.3,614z"/>
	<path class="st2" d="M165.7,614.3C165.7,614.3,165.8,614.3,165.7,614.3L165.7,614.3l0.2,0C165.8,614.3,165.8,614.3,165.7,614.3z"/>
	<path class="st2" d="M165.7,614.3L165.7,614.3z"/>
	<path class="st2" d="M165.5,613.4c0.1-0.1,0.1,0.2,0.3,0c0.3-0.2,0.5-0.5,0.8-0.7c0.1-0.1,0.4-0.1,0.5-0.2c0.3-0.3,0.7-1.2,0.3-0.8
		c-0.5,0.5-1,0.9-1.6,1.3c-0.5,0.4-1,0.7-1.6,0.9c-0.2,0.1-0.3,0.1-0.5,0.1h0.7C164.8,614.1,165.1,613.7,165.5,613.4z"/>
	<path class="st2" d="M161,614.8h0.3c0.4,0.2,0.8,0.2,1.2,0.1l-0.2-0.1c-0.2,0-0.2,0.1-0.1,0.1c-0.4-0.1-0.9-0.2-1.3-0.3
		C160.9,614.7,160.9,614.8,161,614.8z"/>
	<path class="st2" d="M160.6,614.6h0.3l0,0H160.6z"/>
	<path class="st2" d="M167.7,612.9c0.8-0.7,1.5-1.5,2-2.5c0-0.1,0-0.2,0-0.2c0.1,0,0.2-0.1,0.3-0.2c0.1-0.1,0.1-0.3,0.2-0.4v-0.2
		l0,0c0-0.1,0-0.1-0.1,0c0,0-0.1,0.1-0.1,0.1l0.1-0.1c0.1-0.1,0.1-0.1,0.1-0.2c0-0.1,0.1-0.3,0.1-0.4c0,0.1,0,0.3-0.1,0.4l-0.1,0.2
		v0.1c0.1-0.3,0.3-0.7,0.3-1c0-0.1,0-0.1,0-0.2c0-0.2,0-0.4,0.1-0.6v-0.2l0,0v-0.1c0-0.3,0-0.5,0-0.8c-0.1-0.2-0.1-0.3-0.2-0.5
		c0-0.1,0.1-0.1,0.1-0.2c-0.1-0.1-0.1-0.2-0.2-0.2c0,0.1-0.1,0.3-0.1,0.4c-0.1,0.2,0.3,0.3,0.1,0.6c0.2-0.2-0.2-0.4-0.1-0.6
		c0-0.1,0-0.3,0.1-0.4c-0.1-0.3-0.2-0.5-0.2-0.8c0.2,0.2,0.3,0.5,0.2,0.8c0.1,0.1,0.1,0.2,0.2,0.2c0,0.1,0,0.1-0.1,0.2
		c0.1,0.2,0.1,0.3,0.2,0.5c0-0.5-0.1-1.1-0.4-1.6c-0.4-0.8-1-1.5-1.7-2c-0.7-0.5-1.5-0.9-2.2-1.1c-1.6-0.5-3.2-1-4.9-1.3
		c-0.9-0.2-1.9-0.3-2.9-0.4c-1-0.1-2.1,0.2-3,0.7c-0.9,0.6-1.6,1.4-1.9,2.4c-0.3,0.9-0.5,1.8-0.6,2.8c-0.1,2,0.3,3.9,1.2,5.7
		c0.5,0.9,1.2,1.7,2,2.3c0.8,0.6,1.7,1.1,2.7,1.4c1.1,0.1,1.4-0.2,1.4-0.5c0-0.2,0-0.5-0.2-0.7c-0.3-0.5-0.8-0.8-1.3-1.1
		c-0.7-0.4-1.3-0.9-1.7-1.5c0.4,0.6,0.1,0.5-0.3,0.1c-0.6-0.5-0.9-1.2-1-1.9c0-1-0.3-2-0.4-3c-0.1-0.6-0.1-1.1,0-1.7
		c0.1-0.5,0.2-1,0.5-1.5c0.2-0.4,0.5-0.7,0.9-1c1-0.5,2.8-0.4,4.6-0.1c1.8,0.2,3.7,0.7,5.4,1.4c0.7,0.3,1.5,0.7,2.1,1.2
		c0.3,0.4,0.4,0.8,0.4,1.3c0.1,0.6,0.1,1.3,0,1.9c0.1-0.6,0.2-1.2,0.1-1.9c-0.1-0.5,0.4,0.3,0.4,0.6c0.1,0.2-0.3,0.3-0.2,0.5
		c0,0.3,0,0.6-0.1,1c0,0.2-0.2,0.1-0.2,0.2c-0.1,0.5,0,0.9-0.2,1.2c-0.1,0.2-0.3,0.4-0.4,0.5c-0.1,0.1-0.2,0.2-0.2,0.3l-0.1,0.2
		c0.1,0,0.2,0,0.3,0.1l-0.3,0.3l0.3-0.3c-0.1,0-0.2-0.1-0.3-0.1c-0.3,0.7-0.7,1.3-1.3,1.8l0,0c0.3-0.3,0.7-0.5,1.1-0.8
		c-0.2,0.1-0.2,0-0.1-0.1h0.2c-0.2,0.4-0.5,0.6-0.9,0.8c0,0.1-0.1,0.1-0.1,0.2c-0.1,0-0.2,0-0.2,0l-0.2,0.2c0.2,0,0.3-0.1,0.5-0.1
		C167.4,613.1,167.6,613,167.7,612.9z"/>
	<path class="st2" d="M170.2,609.1l-0.1,0.2c0.1-0.3,0.2-0.5,0.3-0.8C170.3,608.7,170.3,608.9,170.2,609.1z"/>
</g>
<g class="st1">
	<path class="st2" d="M345.2,577.2c-1.7,1.9-3.3,3.8-5.1,5.6c1-0.8,1.8-1.8,2.8-2.6C343.8,579.3,344.6,578.3,345.2,577.2z"/>
	<path class="st2" d="M335.2,587.8l-1,0.9c-0.3,0.3-0.5,0.6-0.8,0.8L335.2,587.8z"/>
	<path class="st2" d="M325.4,596.7c1.8-1.5,3.6-2.8,5.1-4.3C329.1,593.6,327.3,594.9,325.4,596.7z"/>
	<path class="st2" d="M333.5,590c-0.7,0.5-1.1,0.6-0.2-0.4l0,0l-2.9,2.8C331.6,591.4,332.6,590.6,333.5,590z"/>
	<path class="st2" d="M333.5,590c0.7-0.4,1.7-1.2,2.1-1.4C335,589,334.3,589.4,333.5,590z"/>
	<path class="st2" d="M333.3,594.8c-0.9,1-1.3,0.1-3.3,2c-2.4,2.1-4.5,4.2-6.8,5.9l-3.4,2.7c-1.1,0.9-2.4,1.7-3.6,2.5
		c-1.3,0.9-2.8,1.7-4.2,2.3c-1.5,0.6-3,1.3-4.4,2.1c-2.7,1.7-7.5,4.6-10.6,6.5s-4.4,2.9-0.2,0.8c3.2-1.6,6-3.1,8.8-4.6
		s5.3-3,7.7-4.5l3.6-2.4c1.2-0.8,2.4-1.6,3.6-2.5l3.6-2.7l1.9-1.4c0.6-0.5,1.2-1,1.8-1.5c7.9-6.9,15.1-14.5,21.4-22.9
		c0.9-1.2,1.8-2.3,2.7-3.4c0.4-0.6,0.9-1.1,1.3-1.7l1.3-1.7c-0.6,0.7-1.1,1.5-1.7,2.2l-1.8,2.2l-1.9,2.2l-1,1.2l-1,1.1
		c-1,1-1.9,2.1-2.8,3.3s-2,2.5-3,3.8s-2.2,2.8-3.5,4.2S334.9,593.3,333.3,594.8z"/>
	<path class="st2" d="M371.7,528.5c-0.2,1.3-0.7,3.9-0.7,3.9c-0.5,1.4-1.1,2.8-1.7,4.2s-1,2.8-1.6,4.3s-1.1,2.9-1.7,4.3
		c-0.2,0.7-0.5,1.5-0.9,2.2l-0.9,2.1l1.6-2.3c1.4-3.3,1.2-3.8-0.1-1c3.3-6.2,5.7-12.9,7.1-19.8C372.5,526.7,372.2,526.6,371.7,528.5
		z"/>
	<path class="st2" d="M373.5,522.3c-0.2,1.4-0.5,2.7-0.7,4.1c0,0,0.1-0.1,0.1-0.1c0.2-1.4,0.4-2.7,0.6-4.1L373.5,522.3z"/>
	<path class="st2" d="M302.2,612.7c-14.9,7.9-30.4,14.8-46.4,20.4c-1.1,0.7-2.3,1.2-3.5,1.5c-1.3,0.2-2.5,0.5-3.8,0.9
		c-2.3,0.7-4.5,1.4-6.8,2l-2.4,0.7h-0.1c-1.3,0.5-0.8,0.5,0,0.4s1.8-0.2,2.5-0.3c-0.5,0-1.7,0.3-2.5,0.3c-1.1,0.2-2.4,0.4-3.8,0.7
		c-2.1,0.6-4.3,1.1-6.6,1.5c2.5-0.6,4.7-1.2,6.6-1.5c1.3-0.4,2.6-0.8,3.9-1.1l1.1-0.4c-5.2,1.4-10.5,2.6-15.8,3.5
		c-1.2,0.2-2.4,0.5-3.3,0.7c-3.8,0.8-7.7,1.3-10.1,1.1l-2.9,0.2h0.6c-0.4,0-0.8,0-1.1,0c-4.1,0.2-8.1,0.2-12.2,0
		c-2.6,0.1-5.4,0.1-8.1-0.1l-2.6-0.9c-1.5,0-3.1-0.1-4.6-0.3c2.1,0.7,4,1.4,5.9,1.8c1.5,0.3,3,0.5,4.5,0.3c1.6-0.1,3.3,0,4.9,0.5
		c-1.6-0.4-3.2-0.6-4.9-0.5c-1.5,0.1-3,0-4.5-0.3c-1.9-0.5-3.8-1.1-5.9-1.8c-4.2-0.7-8.4-2.1-12.2-4.1c4.8,1.4,8.7,2.8,12.2,4.1
		c1.5,0.3,3,0.4,4.6,0.3l2.6,0.9c2.7,0.2,5.5,0.2,8.1,0.1c-8-0.3-16-1.8-23.6-4.3c-1.6-0.5-3.1-1.1-4.6-1.7s-3-1.3-4.4-2
		c-2.9-1.4-5.7-3-8.4-4.8c-5.3-3.6-10.2-7.8-14.4-12.6c-8.5-9.5-14.8-20.8-19.4-32.7c-2.3-6-4.3-12.1-5.9-18.3
		c-0.8-3.2-1.6-6.3-2.3-9.5s-1.3-6.4-1.9-9.6c-2.4-13.1-3-26.5-1.7-39.8c0.9-7.2,2.6-14.3,5.1-21.1c2.5-6.7,5.7-13,9.6-19
		c7.7-11.9,17.4-22.2,27.2-32.3s19.6-19.9,28.5-30.4c4.5-5.2,8.7-10.6,12.8-16.2l3-4.2l1.5-2.1l1.4-2.2l2.8-4.3
		c0.9-1.5,1.8-2.9,2.7-4.4l1.3-2.2c0.4-0.7,0.9-1.5,1.3-2.3s0.9-1.6,1.3-2.4l1.2-2.4c1.5-3.2,2.7-6.6,3.8-10c1-3.4,1.8-6.9,2.5-10.5
		c0.6-3.5,1-7.1,1.3-10.6c1-14.2-0.4-28.6-3.1-43c-1.3-6.5-2.9-12.9-4.8-19.2c-2.1-7-4.8-14.5-7.8-21.8c-5.3-13-11.4-25.7-18.1-38
		c-2.4-4.1-5.2-8-8.4-11.6c-1.9-1.9-2.9-2.3-3.3-1.8c-0.9,1,0.2,4.9,0.5,5.6c2.9,8.4,6.1,15.3,10.4,24.3c2.1,4.5,4.4,9.5,6.9,15.5
		c2.9,7,5.4,14.1,7.5,21.3c-1.7-5.7-2.2-7.5-1.7-6.8c1.5,2.9,2.7,5.8,3.7,8.9c2.1,5.7,3.8,11.6,5.2,17.6c1.5,6.2,2.5,12.5,2.9,18.8
		c0.6,8.7,0.7,17.4,0.4,26.1c-0.3,9.5-2.1,18.8-5.2,27.8c-0.4,1.1-0.9,2.2-1.4,3.4s-1,2.2-1.6,3.3c-1,2.1-2.5,4.4-3.7,6.6
		s-2.7,4.4-4.1,6.6c-0.7,1.1-1.4,2.2-2.1,3.3l-2.2,3.2c-5.8,8.4-12.3,16.4-19.3,23.9c-6.8,7.3-14.1,15.1-22.5,24
		c-5.5,5.6-11,11.4-16.1,17.5c-5.2,6.1-9.9,12.7-14,19.6c-8.3,14.1-13,29.9-13.9,46.2c-0.4,8-0.2,16.1,0.8,24.1
		c0.3,4,1.1,7.9,1.8,11.9c0.3,2,0.8,3.9,1.2,5.9s0.8,4,1.3,5.9c3.7,15.6,8.8,31.6,17.8,46.6c2.3,3.9,4.9,7.5,7.8,11
		c2.7,3.3,5.8,6.4,9,9.2c3.1,2.7,6.4,5.2,9.9,7.3c1.7,1.1,3.5,2,5.2,3s3.5,1.8,5.3,2.5c5.2,2.4,10.6,4.4,16.1,5.8
		c5,1.3,10.1,2.2,15.2,2.6c6.7,0.5,13.4,0.3,20.1-0.5c6-0.7,11.9-1.8,17.7-3.2c-5.8,1.3-11.7,2.3-17.7,3c-2.9,0.3-5.9,0.6-9,0.7
		s-6.5,0.1-10.2-0.1c-2.5-0.2-3.2-0.3-2.9-0.4c1.2-0.1,2.4-0.2,3.5-0.2c3.8-0.1,9.5-0.5,12.6-0.8c2.7-0.3,7.1,0.4,9.8-0.2
		c5.9-0.8,11.7-2.1,17.3-3.9c2.6-0.8,2.5,0.2,3.8-0.2c8.4-2.3,14.3-5.6,19.5-7.2c4-1.2,7.5-2.4,11-3.7c2.2-0.8,4.3-1.6,6.5-2.6
		l4.2-2.1c-0.8,0.2-1.6,0.2-2.3-0.1c2.1-0.8,5.1-2,7.2-2.8c-2.1,0.9-5.1,2-7.2,2.8c0.8,0.3,1.6,0.3,2.3,0.1c5-2.5,10.4-5.3,15.8-8.3
		s10.9-6,16-9.2h-0.2c-6.1,3.6-12.5,6.7-19.1,9.3c2.9-1.2,2.7-0.8-0.5,0.8l-2.7,0.8c5.5-3,11-6,16.6-8.1l3.4-2.2
		c1.8-0.8,1.9-0.5,2.4-0.5c0.6-0.3,1.2-0.7,1.8-1.1l1.7-1.2c-0.7,0.3-1.7,0.8-2.9,1.3l-3.7,1.7l-3.2,1.5L302.2,612.7z"/>
	<path class="st2" d="M235.4,639.3c0.9-0.2,2.1-0.6,3.2-0.9c-4.4,1.1-8.8,2.1-13.3,2.9C227.8,641.3,231.6,640.4,235.4,639.3z"/>
</g>
<g class="st1">
	<path class="st2" d="M663.3,621.4c0.3,0.3,0.6,0.6,1,0.9c-0.2-0.2-0.3-0.3-0.4-0.5C663.7,621.5,663.5,621.4,663.3,621.4z"/>
	<path class="st2" d="M665.3,622.9c0.1,0,0.1,0.1,0.2,0.1l0.2,0C665.5,623.1,665.4,623,665.3,622.9z"/>
	<path class="st2" d="M667.4,623.7c-0.4-0.1-0.8-0.2-1.1-0.4c0.2,0.1,0.3,0.2,0.5,0.2C667,623.6,667.2,623.7,667.4,623.7z"/>
	<path class="st2" d="M665.8,623c0.1,0.1,0.1,0.2-0.1,0.2l0,0l0.7,0.2C666.1,623.3,666,623.2,665.8,623z"/>
	<path class="st2" d="M665.8,623c-0.1-0.1-0.2-0.2-0.3-0.3C665.6,622.8,665.7,622.9,665.8,623z"/>
	<path class="st2" d="M667,621.6c0.2,0,0,0.5,0.4,0.5s0.9,0.1,1.3,0.1c0.4,0,0.8,0,1.2,0c0.4-0.1,1,0.4,1.4,0.3
		c0.6-0.2,1.2-0.4,1.7-0.7c0.5-0.3,0.7-0.5,0-0.3c-1.6,0.4-3.3,0.5-5,0.1c-1.5-0.2-2.8-0.9-4-1.8c-0.3-0.3-0.6-0.6-0.8-1
		c0.3,0.5,0.7,1,1.1,1.4c0.3,0.4,0.7,0.6,1.2,0.7l0.8,0.2C666.4,621.5,666.7,621.5,667,621.6z"/>
	<path class="st2" d="M658.4,613.5l0.4,0.5c0.2,1,0.6,1.9,1.3,2.7c0-0.2,0-0.3,0-0.5c-0.3-0.5-0.4-0.5-0.3,0
		c-0.1-0.6-0.3-1.1-0.6-1.7c-0.2-0.5-0.4-1-0.7-1.5C658.5,613.2,658.3,613.2,658.4,613.5z"/>
	<path class="st2" d="M658.3,612.5c0.1,0.2,0.2,0.4,0.3,0.6l0,0L658.3,612.5L658.3,612.5z"/>
	<path class="st2" d="M672.1,623.7c2.7-0.4,5.4-1.1,7.9-2.2c0.2-0.2,0.2-0.3,0.5-0.4c0.2,0,0.4-0.1,0.6-0.1l1-0.5l0.3-0.2l0,0
		c0.2-0.2,0.1-0.2-0.1-0.2c-0.1,0-0.3,0-0.5,0h0.5c0.2,0,0.4-0.1,0.6-0.2c0.3-0.2,0.6-0.4,0.9-0.6c-0.3,0.2-0.6,0.4-0.9,0.6
		c-0.2,0.1-0.3,0.3-0.5,0.4l-0.2,0.1c0.8-0.4,1.5-0.9,2.3-1.3c0.2-0.1,0.3-0.3,0.4-0.4c0.4-0.4,0.8-0.8,1.4-1
		c0.1-0.1,0.2-0.2,0.4-0.3h-0.1l0.2-0.1c0.5-0.5,1-0.9,1.5-1.4c0.2-0.4,0.4-0.8,0.7-1.2l0.5-0.2c0-0.3,0.1-0.5,0.3-0.7
		c-0.3,0.2-0.6,0.4-0.9,0.5c-0.5,0.2-0.3,1.1-1,1.2c0.7-0.1,0.5-1,1-1.2c0.3-0.2,0.6-0.3,0.9-0.5c0.4-0.6,0.8-1.2,1.4-1.6
		c-0.2,0.7-0.7,1.3-1.4,1.6c-0.1,0.2-0.2,0.5-0.3,0.7l-0.5,0.2c-0.2,0.4-0.4,0.8-0.7,1.2c0.5-0.5,0.9-1,1.3-1.5l1.2-1.6
		c2.5-3.6,3.8-7.8,4-12.2c0-1.1,0-2.2-0.1-3.2c-0.1-0.5-0.2-1.1-0.2-1.6l-0.1-0.8l-0.2-0.8c-0.1-0.5-0.3-1.1-0.4-1.6l-0.6-1.6
		c-0.2-0.5-0.4-1.1-0.7-1.6c-0.2-0.5-0.5-1.1-0.8-1.6c-1.1-2.4-3-4.3-5.3-5.6c-2.4-1.1-5.1-1.4-7.7-0.9c-2.3,0.4-4.6,1.1-6.8,2.1
		c-2.1,0.9-4,1.9-6,3c-2,1.1-4,2.3-5.9,3.6c-2.1,1.4-4,3.2-5.6,5.3c-0.3,0.5-0.6,1-0.9,1.6c-0.3,0.6-0.5,1.3-0.7,2
		c-0.2,0.7-0.3,1.5-0.4,2.2c-0.1,0.8-0.1,1.5,0,2.3c0.2,2.5,0.8,5,1.7,7.3c1.2,2.1,2.1,2.3,2.7,2c0.4-0.3,0.7-0.7,0.8-1.2
		c0.2-1.4,0.1-2.9-0.3-4.3c-0.1-0.4-0.2-0.8-0.2-1.2s-0.1-0.9-0.2-1.4c-0.1-1.1,0-2.2,0.3-3.3c-0.3,1.7-0.7,1.1-0.6-0.4
		c0.1-0.9,0.3-1.7,0.8-2.5c0.5-0.8,1.1-1.5,1.9-2c2.1-1.2,4.3-2.9,7-4.6c2.7-1.8,5.6-3.4,8.6-4.6c1.5-0.6,3-1.1,4.5-1.4
		c1.8-0.3,3.6-0.1,5.3,0.6c1.6,1,2.8,2.4,3.7,4.1c1.1,1.9,1.8,4,2.2,6.2c0.4,2.3,0.4,4.6,0,6.8c-0.3,2.3-0.9,4.5-1.6,6.7
		c-0.2,0.3-0.4,0.7-0.6,1s-0.5,0.6-0.7,0.9c-0.5,0.6-1,1.1-1.4,1.6c-0.3,0.4-0.6,0.7-1,1.1c-0.3,0.3-0.6,0.7-0.9,1
		c-0.7,0.6-1.2,1.2-1.9,1.7l0.5-0.4l0.5-0.4l0.9-0.8c0.3-0.3,0.6-0.6,0.9-0.9c0.4-0.3,0.7-0.7,1-1.1c0.9-1.1-0.1,1.2-0.8,1.9
		c-0.2,0.2-0.4,0.3-0.6,0.4c-0.2,0-0.5,0.1-0.7,0.3c-0.3,0.3-0.6,0.6-0.9,0.9c-0.3,0.3-0.6,0.6-1,0.9s-0.5-0.1-0.6,0
		c-0.5,0.3-0.9,0.7-1.3,1.1c-0.3,0.4-0.7,0.6-1.2,0.8c-0.6,0.2-1.2,0.3-1.8,0.5c-0.3,0.1-0.7,0.2-1,0.3l-0.6,0.3
		c0.2,0.1,0.3,0.2,0.5,0.4c-0.3,0.1-0.8,0.1-1.2,0.2c0.3-0.1,0.9-0.1,1.2-0.2c-0.1-0.2-0.3-0.3-0.5-0.4c-1.7,0.9-3.5,1.4-5.3,1.7
		l0,0c1.1,0,2.2-0.2,3.3-0.1c-0.5,0-0.5-0.2,0.1-0.3l0.5,0.1c-0.9,0.4-1.9,0.6-2.9,0.4c0,0-0.4,0.2-0.6,0.2s-0.3-0.2-0.4-0.3h-0.6
		c0.4,0.2,0.7,0.3,1.1,0.4L672.1,623.7z"/>
	<path class="st2" d="M683.1,619.9c-0.1,0.1-0.3,0.2-0.5,0.3l1.9-1.1C684,619.3,683.5,619.5,683.1,619.9z"/>
</g>
<path class="st3" d="M681.2,614.5c4.4-1,7.2-5.3,6.3-9.8c0,0,0,0,0,0c-1-4.4-4.2-4.3-8.6-3.3s-8.4,2.4-7.4,6.8
	C672.4,612.7,676.8,615.5,681.2,614.5z"/>
<g class="st1">
	<path class="st2" d="M677.4,614.1c-0.1,0-0.3-0.1-0.4-0.1c0.1,0,0.1,0.1,0.2,0.2C677.3,614.2,677.3,614.1,677.4,614.1z"/>
	<polygon class="st2" points="676.6,613.8 676.5,613.8 676.4,613.8 	"/>
	<path class="st2" d="M675.8,613.5c0.1,0.1,0.2,0.1,0.4,0.2C676.1,613.6,676,613.6,675.8,613.5z"/>
	<path class="st2" d="M676.4,613.9C676.4,613.8,676.4,613.8,676.4,613.9L676.4,613.9l-0.2-0.2C676.3,613.7,676.3,613.8,676.4,613.9z
		"/>
	<path class="st2" d="M676.4,613.9c0,0,0.1,0.1,0.1,0.1C676.5,613.9,676.4,613.9,676.4,613.9z"/>
	<path class="st2" d="M675.8,614.5c-0.1,0,0-0.2-0.2-0.2c-0.4-0.1-0.8-0.2-1.1-0.4c-0.2-0.1-0.2-0.4-0.4-0.5
		c-0.4-0.2-1.4-0.7-0.9-0.3c0.6,0.5,1.3,1,2.1,1.3c0.6,0.2,1.3,0.4,2,0.5c0.2,0,0.4,0.1,0.5,0.2l-0.7-0.3
		C676.9,614.6,676.4,614.8,675.8,614.5z"/>
	<path class="st2" d="M680.8,614.4l-0.2,0.1c-0.4-0.1-0.8-0.1-1.1,0l0.2,0.1c0.2,0,0.2-0.1,0-0.1c0.4,0.1,0.9,0.1,1.3,0
		C680.9,614.5,680.9,614.4,680.8,614.4z"/>
	<path class="st2" d="M681.2,614.5l-0.2,0.1l0,0L681.2,614.5L681.2,614.5z"/>
	<path class="st2" d="M674.3,612.7c-0.8-0.7-1.5-1.5-1.9-2.4c-0.1,0-0.2-0.1-0.2-0.2c0-0.1,0-0.2,0-0.2c-0.1-0.1-0.1-0.3-0.2-0.4
		l-0.1-0.1l0,0c0-0.1-0.1,0-0.1,0c0,0.1,0,0.1,0,0.2c0,0,0-0.1,0-0.2c0-0.1,0-0.2,0-0.2c-0.1-0.1-0.1-0.3-0.1-0.4
		c0.1,0.1,0.1,0.3,0.1,0.4l0.1,0.2l0,0.1c-0.1-0.3-0.2-0.7-0.3-1l-0.1-0.2c0-0.3,0-0.5-0.1-0.8l0,0v-0.1c0-0.2,0-0.5,0-0.7
		s-0.1-0.3-0.1-0.5c0-0.1,0.1-0.1,0.2-0.1c0-0.1,0-0.2,0-0.3c-0.1,0.1-0.2,0.2-0.3,0.3s0.2,0.4-0.1,0.6c0.2-0.2-0.1-0.4,0.1-0.6
		s0.2-0.2,0.3-0.3c0-0.3,0.2-0.5,0.4-0.7c-0.1,0.3-0.2,0.5-0.4,0.7c0,0.1,0,0.2,0,0.3c-0.1,0-0.1,0.1-0.2,0.1c0,0.2,0,0.3,0.1,0.5
		c0.1-0.5,0.2-0.9,0.4-1.3c0.9-1.3,2.2-2.2,3.7-2.5c1.6-0.5,3.2-0.8,4.8-1.1c0.9-0.1,1.8-0.2,2.6-0.1c0.8,0,1.5,0.3,2.1,0.8
		c2,2.3,2,5.7-0.1,8c-0.5,0.5-1,1-1.6,1.5c-0.6,0.4-1.2,0.8-1.8,1.1c-0.6,0.4-0.8,0.8-0.7,1.1c0.1,0.2,0.2,0.4,0.4,0.5
		c0.6,0.3,1.2,0.3,1.8,0c0.8-0.4,1.6-0.8,2.4-1.3c-0.7,0.5-0.6,0.1-0.1-0.3s1.2-1.3,1.8-1.8c1-1,1.6-2.3,1.6-3.8
		c0-0.8,0-1.5-0.2-2.3c-0.1-0.8-0.4-1.5-0.6-2.2c-0.4-0.9-1-1.6-1.7-2.1c-1-0.8-2.3-1.2-3.5-1.1c-1.1,0-2.1,0.1-3.1,0.4
		c-2.1,0.4-4.1,1-6,1.8c-1.1,0.5-2,1.4-2.6,2.5c-0.5,0.7-0.8,1.4-1,2.3c-0.1,0.9,0.1,1.8,0.4,2.7c-0.3-0.8-0.4-1.7-0.4-2.6
		c0.1-0.7,0.2,0.5,0.3,1c0,0.2-0.2,0.5-0.1,0.7c0.1,0.4,0.2,0.8,0.4,1.1c0.1,0.2-0.1,0.2-0.1,0.3c0.2,0.5,0.7,0.8,0.8,1.2
		c0.1,0.2,0.2,0.5,0.3,0.7c0.1,0.1,0.2,0.3,0.2,0.4l0.2,0.2c0-0.1,0.1-0.2,0.1-0.3l0.2,0.5l-0.2-0.5c-0.1,0.1-0.1,0.2-0.1,0.3
		c0.6,0.5,1.3,1,2,1.4l0,0c-0.4-0.2-0.7-0.6-0.9-1c0.1,0.2,0,0.2-0.1,0.1v-0.2c0.3,0.2,0.6,0.5,0.8,0.8c0.1,0,0.2,0.1,0.2,0.1
		c0.1,0.1,0,0.2,0,0.2l0.2,0.1c-0.1-0.1-0.2-0.3-0.3-0.4L674.3,612.7z"/>
	<path class="st2" d="M671.8,609.1l0.1,0.2c-0.1-0.3-0.2-0.5-0.2-0.8C671.6,608.7,671.7,608.9,671.8,609.1z"/>
</g>
<g class="st1">
	<path class="st2" d="M494.7,578.9c1.7,1.9,3.3,3.9,5.1,5.8c-0.9-1-1.6-2-2.4-3.1C496.6,580.6,495.7,579.7,494.7,578.9z"/>
	<path class="st2" d="M504.7,589.9l1,0.9c0.3,0.2,0.6,0.5,0.9,0.7L504.7,589.9z"/>
	<path class="st2" d="M515,598.5c-1.8-1.6-3.6-2.9-5.3-4.3C511.4,595.7,513.1,597.2,515,598.5z"/>
	<path class="st2" d="M507.1,591.4c0.5,0.7,0.7,1-0.4,0.2h0l3.1,2.7C508.7,593.2,507.8,592.2,507.1,591.4z"/>
	<path class="st2" d="M507.1,591.4c-0.5-0.6-1.3-1.6-1.6-1.9C505.9,590,506.5,590.7,507.1,591.4z"/>
	<path class="st2" d="M511.8,591.1c1.1,0.8,0.2,1.3,2.3,2.8c2.5,1.8,4.8,3.6,7.1,5l3.5,2.3c1.2,0.8,2.4,1.5,3.6,2.3
		c1.3,0.8,2.6,1.8,3.8,2.8c1.2,1,2.5,1.8,3.9,2.6c2.7,1.4,7.9,3.6,11.2,4.9s5,1.7,0.8-0.3c-3.2-1.5-6-3-8.8-4.3s-5.1-2.7-7.5-4.1
		l-3.5-2.2c-1.2-0.7-2.4-1.4-3.5-2.2l-3.5-2.5l-1.8-1.3c-0.6-0.5-1.2-0.9-1.8-1.4c-8.2-6-15.7-12.8-22.4-20.4
		c-0.9-1.1-1.8-2.3-2.6-3.4c-0.4-0.6-0.9-1.1-1.2-1.7l-1.1-1.7c0.5,0.8,1,1.5,1.5,2.3l1.6,2.2l1.7,2.3c0.3,0.4,0.6,0.8,0.9,1.2
		l1,1.2c0.9,1.1,1.8,2.2,2.8,3.2c1.1,1.1,2.3,2.2,3.5,3.2l4,3.5C508.7,588.5,510.3,589.7,511.8,591.1z"/>
	<path class="st2" d="M468.8,528.8c0.4,1.3,1.3,3.8,1.3,3.8c0.2,1.5,0.5,3,1,4.4c0.4,1.5,0.9,3,1.5,4.4c0.6,1.4,1.2,2.9,1.9,4.3
		c0.3,0.7,0.7,1.4,1,2.1l1.1,2.1c-0.3-0.9-0.5-1.8-0.8-2.7c-1.5-3.2-1.8-3.6-0.8-0.5c-2.4-6.7-4.4-13.5-6-20.3
		C468.8,526.8,468.4,526.8,468.8,528.8z"/>
	<path class="st2" d="M468.1,522.3c0.3,1.3,0.6,2.7,0.9,4c0-0.1,0-0.1,0.1-0.2c-0.3-1.3-0.6-2.7-0.9-4V522.3z"/>
	<path class="st2" d="M539.4,613.2c15,7.9,30.5,14.8,46.4,20.7c1.3,0.2,2.5,0.5,3.7,1c1.2,0.6,2.3,1.1,3.5,1.5
		c2.3,0.7,4.5,1.4,6.8,2.1c0.8,0.2,1.6,0.4,2.5,0.6h0.1c1.3,0.2,1,0,0.2-0.3s-1.7-0.7-2.3-1c0.4,0.2,1.6,0.7,2.3,1
		c1,0.4,2.2,0.8,3.6,1.2l6.6,1.5c-2.2-0.4-4.5-0.8-6.6-1.5c-1.3-0.3-2.6-0.6-3.9-0.9l-1.2-0.2c5.2,1.5,10.5,2.8,15.8,3.8
		c1.2,0.2,2.4,0.4,3.4,0.5c3.9,0.5,7.8,0.8,10.2,1.5l2.9,0.3c-0.2,0-0.4-0.1-0.6-0.1l1.1,0.2c4.1,0.3,8.3,0.4,12.4,0.3
		c2.7-0.3,5.4-0.8,8.1-1.2l2.8,0.1c1.5-0.5,2.9-0.9,4.5-1.3c-2.2,0.2-4.3,0.2-6.2,0.2c-1.5,0.1-3,0.3-4.5,0.7
		c-1.6,0.4-3.3,0.5-4.9,0.2c1.6,0.3,3.3,0.2,4.9-0.2c1.5-0.4,3-0.7,4.5-0.7c1.9,0,3.9-0.1,6.2-0.2c3.8-0.9,8.7-2.2,12.6-3.2
		c-4,1.8-8.3,2.9-12.6,3.2c-1.5,0.3-3,0.8-4.5,1.3l-2.8-0.1c-2.7,0.5-5.5,0.9-8.1,1.2c8.3-0.2,16.4-1.6,24.3-4
		c1.6-0.5,3.2-1.1,4.8-1.7s3.1-1.2,4.6-2c3-1.4,6-3,8.8-4.8c5.6-3.6,10.7-7.9,15.2-12.8c9-9.7,15.5-21.3,20.3-33.5
		c2.4-6.1,4.5-12.3,6.2-18.7c0.8-3.2,1.7-6.4,2.4-9.6s1.4-6.5,2-9.8c2.6-13.5,3.3-27.2,2.2-40.9c-0.8-7.6-2.5-15-4.9-22.2
		c-2.4-7.1-5.6-13.9-9.5-20.2c-7.7-12.7-17.3-23.6-26.8-34.1s-19-20.4-27.5-30.7c-4.3-5.1-8.3-10.4-12.3-15.8l-2.8-4.1
		c-0.5-0.7-1-1.4-1.4-2l-1.3-2.1l-2.7-4.2c-0.9-1.4-1.7-2.8-2.5-4.3l-1.3-2.1c-0.4-0.7-0.8-1.4-1.2-2.1s-0.8-1.4-1.1-2.1l-1-2.2
		c-1.3-2.9-2.4-5.9-3.2-9c-0.8-3.1-1.5-6.3-2-9.5c-0.5-3.2-0.7-6.5-0.9-9.7c-0.5-13.1,1.6-26.6,5.3-39.9c1.4-5.1,3.2-11.3,5.4-18
		s4.8-13.8,7.6-20.9c5.1-12.6,10.8-24.9,17.2-36.9c2.1-4.1,3.9-8.4,5.4-12.8c0.8-2.5,0.6-3.4,0-3.7c-1.2-0.5-4.2,2.4-4.6,2.9
		c-5.9,6.6-9.9,13.3-14.6,22.2c-2.3,4.5-4.8,9.5-7.5,15.4s-5.9,12.8-9.4,21c2.3-5.6,3.3-7.3,3.2-6.4s-1.3,4.5-2.9,9.4
		s-3.7,11.2-5.7,17.8s-3.8,13.2-5.4,18.9c-2.5,9-3.8,18.3-3.9,27.6c-0.1,10.8,1.8,21.5,5.6,31.6c0.5,1.3,1.1,2.6,1.7,3.9
		s1.2,2.6,1.9,3.8c1.4,2.6,2.8,4.8,4.2,7.1s2.9,4.6,4.4,6.9c0.8,1.1,1.5,2.3,2.3,3.4l2.4,3.3c6.3,8.8,13.1,17.1,19.8,25
		s14.3,15.6,22.5,24.4c5.2,5.8,10.3,11.5,15.1,17.4c4.7,5.7,8.9,11.8,12.7,18.1c7.3,12.5,11.6,26.5,12.5,40.9
		c0.5,7.4,0.4,14.7-0.5,22.1c-0.3,3.7-1,7.5-1.5,11.2c-0.3,1.9-0.7,3.7-1.1,5.6s-0.7,3.8-1.2,5.6s-0.9,3.8-1.4,5.6s-0.9,3.8-1.5,5.6
		s-1,3.7-1.7,5.5s-1.2,3.7-1.9,5.5c-2.6,7.4-6,14.4-10,21.1c-2,3.5-4.3,6.8-6.7,10c-2.3,3-4.7,5.9-7.4,8.6c-2.5,2.6-5.3,5-8.2,7.1
		c-1.4,1.1-2.9,2-4.3,3s-3,1.8-4.6,2.6c-4.6,2.3-9.5,3.9-14.5,5c-4.6,1-9.2,1.6-13.9,1.9c-6.2,0.4-12.4,0.4-18.6,0
		c-5.9-0.4-11.5-1.1-17-2c5.6,1.1,11.2,1.9,16.9,2.3c6,0.5,11.9,0.5,17.9,0c2.3-0.2,3-0.2,2.7,0c-1,0.3-2.1,0.6-3.2,0.7
		c-3.9,0.6-7.9,0.9-11.9,0.9c-2.6,0.1-6.6-1.3-9.2-1.4c-5.6-0.7-10.8-1.2-16.9-2.3c-2.6-0.4-2.1-1.3-3.4-1.5
		c-8.1-1.8-14.7-2.7-19.7-4.7c-3.8-1.5-7.2-2.9-10.5-4.4c-2.1-0.9-4.2-1.8-6.4-2.7l-4.3-1.6c0.7,0.4,1.2,1,1.5,1.8
		c-2-0.9-4.8-2.4-6.8-3.4c2,1,4.8,2.5,6.8,3.4c-0.3-0.7-0.8-1.3-1.5-1.8c-5.2-2-10.8-4.3-16.3-6.8c-2.8-1.2-5.6-2.5-8.4-3.8
		s-5.5-2.7-8.1-4.1l0.1,0.2c6.1,3.4,12.2,6.5,18.5,10.2c-2.7-1.6-2.3-1.6,1-0.1l2.3,1.6c-5.7-2.3-11.2-5.1-16.4-8.4l-3.6-1.7
		c-1.7-1.1-1.4-1.3-1.7-1.7c-0.6-0.3-1.2-0.6-1.8-1l-1.8-1.1c0.8,0.7,1.6,1.4,2.5,2l3.3,2.3l2.9,1.9L539.4,613.2z"/>
	<path class="st2" d="M606.3,640c-0.9-0.2-2.1-0.5-3.3-0.8c4.4,1.2,8.8,2.3,13.3,3.2C614,641.5,610.2,640.8,606.3,640z"/>
</g>
</svg>
