<?xml version="1.0" encoding="utf-8"?>
<!-- Generator: Adobe Illustrator 25.0.0, SVG Export Plug-In . SVG Version: 6.00 Build 0)  -->
<svg version="1.1" id="Layer_1" xmlns="http://www.w3.org/2000/svg" xmlns:xlink="http://www.w3.org/1999/xlink" x="0px" y="0px"
	 viewBox="0 0 841.9 841.9" style="enable-background:new 0 0 841.9 841.9;" xml:space="preserve">
<style type="text/css">
	.st0{fill:#423228;}
	.st1{opacity:0.85;}
	.st2{fill:#FEFEFE;}
	.st3{fill:#DDD9D9;}
</style>
<rect class="st0" width="841.9" height="841.9"/>
<g class="st1">
	<path class="st2" d="M431.9,370.3l-0.5,2.6l-0.6,2.6c0.3-0.9,0.6-1.7,0.9-2.6C431.9,372.1,432,371.2,431.9,370.3z"/>
	<path class="st2" d="M429.7,380.3c-0.1,0.3-0.1,0.6-0.2,0.9s-0.1,0.6-0.1,0.8C429.5,381.5,429.6,380.9,429.7,380.3z"/>
	<path class="st2" d="M427.6,389.4c0.5-1.6,0.8-3.1,1.2-4.6C428.3,386.3,428,387.9,427.6,389.4z"/>
	<path class="st2" d="M429.8,382.3c-0.3,0.5-0.5,0.8-0.4-0.2l0,0c-0.2,0.9-0.4,1.8-0.6,2.8C429.1,383.9,429.4,383,429.8,382.3z"/>
	<path class="st2" d="M429.8,382.3c0.3-0.5,0.6-1.3,0.7-1.6C430.2,381.1,430,381.7,429.8,382.3z"/>
	<path class="st2" d="M432.5,385.4c-0.1,1-1,0.5-1.3,2.4c-0.2,1.1-0.4,2.1-0.6,3.2s-0.5,2-0.7,3c-0.5,2-0.9,3.9-1.5,5.9
		c-0.4,1.9-2.4,4.3-2.9,6.2c-0.5,2.2-1.8,5.9-2.4,8.5s-0.8,3.7,0.4,0.6c0.9-2.4,1.7-4.5,2.5-6.6s1.3-4,2-6c0.3-1,0.6-1.9,0.9-2.9
		s0.5-1.9,0.8-2.9c0.5-2,1.2-4,1.7-6.2c0.4-1.8,0.7-3.6,1.1-5.4l0.5-2.7l0.4-2.7c0.3-1.8,0.6-3.6,0.9-5.4s0.5-3.7,0.7-5.5
		c0.3-2.1,0.8-4,1.1-5.9c-0.5,2.5-1.1,5.1-1.8,8c-0.4,2.1-0.7,4.3-0.9,6.4C433.4,380.1,433,382.7,432.5,385.4z"/>
	<path class="st2" d="M435.9,331l0.3,2.8c-0.3,2.1-0.5,4.2-0.6,6.4c-0.1,2.1,0,4.4,0,6.5c0.2-0.6,0.4-1.3,0.6-1.9
		c0-2.5-0.2-2.8-0.5-0.6c0.4-2.5,0.7-5,0.9-7.5s0.1-4.9,0.1-7.4C436.4,329.7,436.1,329.6,435.9,331z"/>
	<path class="st2" d="M436.5,326.5c0,1,0,1.9,0.1,2.9l0.1-0.1c0-1-0.1-2-0.1-2.9L436.5,326.5z"/>
	<path class="st2" d="M422.2,408.5c-4.3,11.1-9.6,21.8-15.9,31.8c-0.2,0.9-0.6,1.7-1.2,2.4c-0.6,0.7-1.2,1.4-1.7,2.1
		c-0.9,1.4-1.9,2.7-2.9,4.1c-0.3,0.5-0.6,1-0.9,1.5l0,0c-0.4,0.8-0.2,0.7,0.3,0.3s0.9-0.9,1.3-1.2c-0.3,0.2-0.9,0.9-1.3,1.2
		c-0.6,0.6-1.1,1.3-1.8,2c-0.9,1.2-1.8,2.5-2.9,3.8c0.9-1.3,1.8-2.6,2.9-3.8c0.6-0.8,1-1.6,1.5-2.4c0.1-0.2,0.2-0.5,0.4-0.7
		l-1.7,2.3l-1.8,2.2l-3.5,4.5l-1.5,1.9c-1.7,2.2-3.3,4.4-4.8,5.3l-1.4,1.5l0.3-0.2c-0.2,0.2-0.4,0.4-0.6,0.5l-3,3.1l-3.1,3
		c-1.2,1.4-2.4,3-3.8,4.3l-1.8,0.9c-0.6,0.9-1.3,1.7-2.1,2.5c1.4-0.8,2.6-1.5,3.7-2.2c0.9-0.6,1.7-1.4,2.2-2.3
		c0.6-1,1.5-1.8,2.6-2.3c-1.1,0.5-1.9,1.3-2.6,2.3c-0.6,0.9-1.4,1.7-2.2,2.3c-1.1,0.7-2.4,1.4-3.7,2.2c-2.2,2.1-4.7,3.8-7.4,5.3
		c2.2-2.1,4.7-3.9,7.4-5.3c0.8-0.7,1.5-1.6,2.1-2.5l1.8-0.9c1.4-1.4,2.6-2.9,3.8-4.3c-1,1-2,2-3.1,2.9l-3.2,2.8
		c-2.1,1.9-4.4,3.6-6.7,5.4c-7.3,5.5-15.1,10.4-23.2,14.6c-8,4.1-16.4,7.4-25.1,9.8c-17.8,5-36.4,6.2-54.7,3.3
		c-19.8-3.2-38.7-10.9-55.1-22.5c-15.5-10.8-29.1-24-40.3-39.1c-5.6-7.5-10.5-15.5-14.7-23.8c-4.3-8.6-7.8-17.5-10.5-26.7
		c-2.2-7.1-5.2-17.4-7.4-27.7c-2-9.2-3.4-18.6-4.2-28c-0.4-2.4-0.7-4.3-1.1-5.9c-0.2-1.2-0.6-2.4-1-3.6c-0.7-1.8-1.4-2.3-2-2.2
		c-1.2,0.2-2.2,3.1-2.3,3.5c-0.8,3-1.2,6-1.3,9c-0.1,3.2,0,6.5,0.4,9.7c0.2,1.8,0.4,3.6,0.6,5.6s0.6,4.1,0.9,6.4
		c0.2,1.1,0.3,2.3,0.5,3.6s0.4,2.5,0.6,3.9c0.4,2.7,0.8,5.6,1.4,8.7c-0.8-4.2-0.7-5.6-0.4-5.1c0.3,0.7,0.6,1.4,0.8,2.2
		c0.4,1.1,0.8,2.6,1.3,4.4c0.9,3.5,2.3,8,3.5,12.7c1.4,4.6,2.6,9.4,3.7,13.3c2.7,11.6,9,24.8,17.6,37.3l3.3,4.7
		c1.1,1.6,2.3,3,3.5,4.6c2.3,3.1,4.9,6,7.4,8.9c5.1,5.7,10.4,11.2,15.8,16.3c2.6,2.6,5.6,5,8.7,7.5c1.6,1.2,3.2,2.4,4.9,3.6
		c0.9,0.6,1.7,1.3,2.6,1.9l2.7,1.8c18.6,13.1,40.2,21.2,62.8,23.7c11.3,1.2,22.8,1,34.1-0.6c11.7-1.6,23.2-4.7,34.1-9.2
		c11.9-4.9,21.2-11.4,29.6-17.9c1.5-1.2,3.2-2.3,4.7-3.5l4.6-3.6c1.5-1.1,2.9-2.4,4.3-3.5s2.7-2.2,3.8-3.4
		c6.4-6.1,12.2-12.9,17.3-20.2c-0.7,0.9-1.3,1.8-2,2.7l-2,2.5l-1.9,2.4c-0.6,0.8-1.3,1.6-2,2.4l-4.2,4.7c-1.5,1.6-3.2,3.2-5,5.1
		c-2.4,2.4-1.8,1.3-0.2-0.7s4.2-5.1,5.6-6.9c0.7-0.9,1.6-1.6,2.5-2.3c1-0.6,1.8-1.4,2.5-2.3c1.3-1.6,2.5-3.2,3.8-4.8
		s2.3-3.4,3.5-5.3c1-1.6,1.6-0.9,2.1-1.7c1.7-2.5,2.9-5,4-7.1c0.9-2,1.9-3.9,3.1-5.7c1.7-2.4,3.1-4.6,4.5-6.8
		c0.9-1.4,1.7-2.9,2.5-4.4c0.4-1,0.9-2,1.3-3c-0.4,0.5-1,0.8-1.6,0.9c0.8-1.4,2-3.3,2.7-4.7c-0.7,1.4-2,3.3-2.7,4.7
		c0.6-0.1,1.2-0.4,1.6-0.9c0.4-0.9,0.8-1.9,1.2-2.8s0.8-2,1.1-2.9l2.3-6c1.4-4.1,2.9-8.3,4.1-12.4l-0.1,0.1
		c-0.4,1.2-0.8,2.3-1.2,3.5s-0.9,2.3-1.4,3.4s-1,2.3-1.6,3.4l-0.9,1.7c-0.3,0.6-0.6,1.1-1,1.7c1.1-1.9,1.2-1.6,0.2,0.8
		c-0.4,0.5-0.8,1.1-1.2,1.6c1.7-4.1,2.9-8.3,5.2-11.9c0,0,0.4-1.9,0.6-2.8c0.6-1.3,0.9-1.1,1.2-1.3c0.3-0.9,0.6-1.9,0.9-2.8
		c-0.6,0.9-1.5,2.8-2.4,4.5l-1.1,2.2L422.2,408.5z"/>
	<path class="st2" d="M398,452.9c0.4-0.5,0.8-1.2,1.3-2c-0.9,1.3-1.9,2.5-2.9,3.8s-2,2.5-3,3.8C394.9,457.4,396.5,455.2,398,452.9z"
		/>
</g>
<g class="st1">
	<path class="st2" d="M252.1,437.2c0-0.5,0-1.1,0-1.6c-0.1,0.3-0.2,0.6-0.4,0.8C251.6,436.8,251.8,437,252.1,437.2z"/>
	<path class="st2" d="M252.2,434.1v-0.3v-0.2C252.2,433.8,252.2,433.9,252.2,434.1z"/>
	<path class="st2" d="M252.3,431.3c-0.1,0.5-0.2,1-0.2,1.4C252.3,432.3,252.3,431.8,252.3,431.3z"/>
	<path class="st2" d="M251.8,433.5c0.2-0.2,0.3-0.2,0.4,0.1l0,0v-0.9C252,433,251.9,433.3,251.8,433.5z"/>
	<path class="st2" d="M251.8,433.5c-0.1,0.2-0.3,0.3-0.4,0.5C251.5,433.8,251.6,433.7,251.8,433.5z"/>
	<path class="st2" d="M248.5,432.3c-0.1-0.4,0.9-0.1,0.8-0.8s0-1.5,0-2.2c0-0.7,0.1-1.4,0.3-2.1c0-0.7,1.3-1.3,1.4-2
		s0.4-2.1,0.5-3.1s0.1-1.5-0.5-0.4c-0.4,0.7-0.7,1.5-1,2.3c-0.3,0.7-0.5,1.4-0.7,2.1c-0.2,0.7-0.4,1.4-0.5,2.1s-0.2,1.4-0.4,2.2
		S248.4,431.8,248.5,432.3c0,0.7,0,1.3,0.1,2c0.1,0.6,0.1,1.2,0.2,1.9s0.2,1.2,0.4,1.9s0.1,1.4,0.1,2v-1.3l0.1-1.4
		c0-0.7-0.1-1.5-0.4-2.1C248.7,434.2,248.5,433.3,248.5,432.3z"/>
	<path class="st2" d="M255,448.9l-0.7-0.6c0-0.7-0.2-1.4-0.5-2c-0.3-0.6-0.7-1.2-1-1.8c-0.1,0.2-0.2,0.5-0.2,0.7
		c0.3,0.7,0.6,0.7,0.6,0c0.1,1.6,0.6,3.1,1.6,4.4C254.8,449.5,255.1,449.4,255,448.9z"/>
	<path class="st2" d="M255.2,450.5c-0.2-0.2-0.4-0.5-0.5-0.8l-0.1,0.1L255.2,450.5L255.2,450.5z"/>
	<path class="st2" d="M253.4,425.2c0.4-0.9,0.9-1.7,1.4-2.6c0.5-0.8,1.1-1.5,1.6-2.3s1.2-1.4,1.9-2s1.3-1.2,2.1-1.8
		c0.1-0.3,0.1-0.6,0.5-0.7c0.3,0,0.6-0.1,0.9-0.2c0.4-0.3,0.9-0.6,1.4-0.8l0.4-0.3l0,0c0.2-0.2,0-0.3-0.2-0.4c-0.2,0-0.4,0-0.7,0
		c0.1,0,0.4,0,0.7,0c0.3,0,0.6-0.1,0.9-0.2c0.4-0.3,0.9-0.5,1.3-0.7c-0.4,0.3-0.9,0.5-1.3,0.7c-0.2,0.2-0.5,0.4-0.7,0.6l-0.2,0.2
		c1-0.6,2.1-1.1,3.2-1.5c0.2-0.1,0.5-0.2,0.7-0.3c0.8-0.4,1.5-0.9,2.2-0.6l0.6-0.1L270,412h0.2c0.9-0.2,1.7-0.4,2.6-0.5
		c0.5-0.3,1.1-0.6,1.7-0.9l0.7,0.4c0.3-0.3,0.6-0.5,1-0.6c-0.5-0.2-1-0.5-1.5-0.6c-0.7-0.4-1.2,1.2-2.1,0.4c0.9,0.8,1.4-0.9,2.1-0.4
		c0.5,0.2,1,0.4,1.5,0.6c1-0.3,2-0.1,2.9,0.3c-1,0.3-2,0.2-2.9-0.3c-0.4,0.1-0.7,0.3-1,0.6l-0.7-0.4c-0.6,0.3-1.1,0.5-1.7,0.9
		c0.9-0.1,1.7-0.2,2.6-0.3c0.9-0.1,1.8-0.1,2.7-0.1c5.5,0,10.9,1.7,15.5,4.9c4.4,3.4,7.3,8.4,8,13.9c0.9,6,0,12.1-2.5,17.7
		c-1.1,2.5-2.5,4.8-4.2,6.9c-1.5,1.9-3.4,3.5-5.6,4.6c-4.8,2-10.2,1.6-14.6-1c-1.8-1-4.4-2.2-6.9-3.7c-2.2-1.3-4.2-2.9-5.9-4.7
		c-0.3-0.2-0.6-0.3-0.8-0.4c-0.2-0.1-0.5-0.2-0.7-0.3c-0.4-0.2-0.8-0.3-1.3-0.3c-0.7,0-1.4,0.2-2,0.6c-0.7,0.6-1.2,1.4-1.4,2.2
		c-0.1,0.6-0.1,1.2,0,1.8c0.1,0.5,0.2,1.1,0.5,1.6c0.2,0.5,0.5,1,0.8,1.4c0.3,0.4,0.7,0.9,1.1,1.3c1.6,1.8,3.9,3.6,7.2,6.6
		c-2.3-2-1-1.9,1.2-0.8c1.1,0.4,2.5,1.2,4,1.9c1.5,0.7,2.9,1.6,4.2,2.5c3.6,2.7,9.5,3.3,15.1,1.4c2.9-1,5.6-2.5,7.9-4.5
		c1.1-1,2.2-2,3.2-3.1c0.5-0.5,0.9-1.1,1.4-1.6s1-1.1,1.3-1.6c0.9-1.1,1.6-2.3,2.2-3.6c0.3-0.7,0.6-1.3,0.9-2l0.8-2.2
		c1.6-3.7,2.5-7.7,2.8-11.7c0.3-4-0.1-8.1-1.1-12c-1.1-4.2-3-8.1-5.7-11.5c-2.9-3.5-6.5-6.3-10.6-8.2c-2.1-0.9-4.3-1.4-6.5-1.6
		c-2-0.1-4-0.1-5.9,0.1c-0.7,0-1.4,0-2.1,0s-1.4-0.1-2.1,0c-1.3,0-2.5,0.1-3.7,0.3c-3.1,0.5-6.1,1.7-8.7,3.5
		c2.7-1.5,5.5-2.6,8.5-3.3c1.2-0.2,0.8,0.1,0,0.6c-0.4,0.2-0.9,0.5-1.4,0.8s-1,0.6-1.3,0.7c-0.6,0.4-1.9-0.4-2.4,0.1
		c-0.7,0.3-1.3,0.6-1.9,1l-1.8,1.3c-0.5,0.5-0.9-0.4-1.1-0.2c-0.8,0.6-1.4,1.3-2,2.1c-0.4,0.7-0.9,1.2-1.5,1.7
		c-0.9,0.5-1.6,1-2.4,1.5c-0.5,0.3-0.9,0.8-1.2,1.2l-0.6,1c0.4,0,0.8,0.1,1.1,0.3c-0.2,0.2-0.5,0.4-0.7,0.6
		c-0.2,0.2-0.5,0.4-0.7,0.6c0.2-0.2,0.4-0.4,0.7-0.6c0.3-0.2,0.5-0.4,0.7-0.6c-0.3-0.2-0.7-0.3-1.1-0.3c-1.4,2.6-2.4,5.3-3.1,8.1
		h0.1c0.3-0.8,0.6-1.5,1-2.2c0.5-0.7,1-1.3,1.7-1.9c-0.5,0.5-0.7,0.3-0.4-0.5c0.2-0.1,0.5-0.2,0.8-0.3c-0.3,0.6-0.5,1.4-0.9,2
		c-0.3,0.6-0.8,1.2-1.3,1.6l-0.1,1c-0.3,0.4-0.6,0.2-0.8,0.2c-0.1,0.3-0.2,0.6-0.2,0.9c0.4-0.4,0.9-0.8,1.2-1.3
		C253.1,425.6,253.4,425.2,253.4,425.2z"/>
	<path class="st2" d="M264.3,413.9l-0.6,0.4c0.4-0.2,0.9-0.5,1.4-0.6l1.4-0.6C265.8,412.9,265,413.4,264.3,413.9z"/>
</g>
<circle class="st3" cx="277.9" cy="437.2" r="9.2"/>
<g class="st1">
	<path class="st2" d="M275.3,427l-0.6,0.1c0.2,0,0.3,0.1,0.4,0.2C275.2,427.5,275.3,427.2,275.3,427z"/>
	<path class="st2" d="M274.1,427.3H274l-0.1,0.1L274.1,427.3z"/>
	<path class="st2" d="M273.1,428c0.2,0,0.4-0.2,0.5-0.3C273.4,427.7,273.2,427.8,273.1,428z"/>
	<path class="st2" d="M274,427.9c-0.1-0.1-0.2-0.2-0.1-0.4l0,0l-0.3,0.2C273.7,427.7,273.9,427.8,274,427.9z"/>
	<path class="st2" d="M274,427.9c0.1,0.1,0.3,0.2,0.3,0.2C274.2,428,274.1,427.9,274,427.9z"/>
	<path class="st2" d="M275.2,431c0,0.1-0.4-0.8-0.5-0.5c-0.2,0.4-0.3,0.9-0.5,1.1c0,0.2-0.8-0.5-0.8-0.2c-0.1,0.4-0.1,0.8,0.1,1.1
		c0.1,0.4,0.3,0.6,0.4,0.5c0.3-0.6,0.7-1.1,1.1-1.5c0.3-0.7,0.7-1.2,1.2-1.7c0.2-0.1,0.4-0.1,0.5,0c-0.3-0.1-0.5-0.2-0.8-0.3
		c-0.2-0.1-0.3,0.2-0.4,0.5C275.5,430.4,275.3,430.8,275.2,431z"/>
	<path class="st2" d="M280,427.5l-0.4,0.2c-0.4-0.8-0.9-0.6-1.4-0.3l0.2,0.5c0.3,0,0.3-0.3,0.1-0.5c0.4,0.5,0.9,0.8,1.5,0.8
		C280.1,428,280.1,427.7,280,427.5z"/>
	<path class="st2" d="M280.4,428.2H280v0.1L280.4,428.2L280.4,428.2z"/>
	<path class="st2" d="M271.7,430c-1,0.9-1.8,1.9-2.5,3.1c0.1,0.2,0.3,0.3,0.1,0.4c-0.2,0-0.3,0.1-0.4,0.1c-0.1,0.2-0.2,0.4-0.2,0.5
		v0.2l0,0c0.1,0.1,0.2,0.1,0.4,0.1c0.1,0,0.3-0.1,0.4-0.1c-0.1,0-0.3,0.1-0.4,0.1c-0.1,0-0.3,0.1-0.4,0.2c0,0.2,0,0.4-0.1,0.5
		c-0.1-0.2,0-0.4,0.1-0.5v-0.3l0-0.1c-0.2,0.4-0.3,0.8-0.5,1.2c0,0.1,0,0.2,0,0.3c0.1,0.3,0.2,0.6-0.3,0.8v0.2h0.1l-0.1,0.1
		c-0.1,0.3-0.1,0.7-0.1,1c0.2,0.2,0.4,0.4,0.6,0.6l-0.4,0.3c0.2,0,0.4,0.1,0.5,0.3c0.2-0.2,0.5-0.4,0.7-0.6c0.5-0.2-1-0.4-0.1-0.7
		c-0.9,0.3,0.6,0.4,0.1,0.7c-0.2,0.2-0.5,0.4-0.7,0.6c0.2,0.3,0.1,0.7-0.2,1.1c-0.5-0.3-0.2-0.8,0.2-1.1c-0.1-0.2-0.3-0.2-0.5-0.3
		l0.4-0.3c-0.2-0.2-0.4-0.4-0.6-0.6c-0.2,3,1.1,6,3.4,7.9c1.9,1.6,4.2,2.5,6.6,2.7c2.9,0.3,5.7-0.3,8.2-1.7c2.5-1.6,4.3-4.1,4.9-7
		c0.7-3.1,0.7-6.3,0.2-9.4c-0.4-1.7-1.4-3.3-2.7-4.4c-1.3-1.2-2.8-2-4.4-2.6c-1.5,0-2.8,1.2-2.9,2.7c-0.2,0.8-0.3,1.7-0.3,2.5
		c0,0.7,0.1,1.3,0.2,2c0.1,0.3,0.2,0.6,0.4,0.9c0.6,0.6,0.9,1.4,0.8,2.2c0-0.8,0.6-1.1,1-0.7s0.7,1.4-0.2,2.3
		c-1.5,1.4-1.6,1.7-1.5,2.3s0.3,1.6-0.5,1.8c-0.4,0.1-0.5,0.4-0.8,0.6c-0.8,0.1-1.7,0.3-2.5,0.5c-0.9,0.2-1.9-0.1-2.5-0.8
		c-0.3-0.4-1.4-0.3-2-0.7c-0.3-0.4,0-1,0-1.3c-0.1-0.6-0.4-1.1-0.7-1.6c0.1,0.5,0.2,1.1,0.5,1.6c0,0.2-0.3,0.2-0.6,0
		c-0.3-0.1-0.6-0.3-0.9-0.6c-0.2-0.2,0.9-0.3,0.7-0.4c0-0.3-0.4-0.6-0.5-1c-0.2-0.2,0.8,0.1,0.7,0s-0.3-0.5-0.5-0.8
		s-0.4-0.5-0.2-0.6c0.2-0.1,0.4-0.3,0.7-0.4c0.1-0.1,0.2-0.2,0.2-0.3v-0.3c-0.3-0.1-0.6-0.3-0.9-0.5c0.1-0.1,0.4-0.1,0.5-0.2
		c-0.1,0.1-0.4,0.1-0.5,0.2c0.3,0.2,0.6,0.3,0.9,0.5c-0.1-0.9,0.1-1.8,0.5-2.6l-0.1-0.1c-0.4,0.4-0.9,0.6-1.5,0.6
		c0.3,0,0.5,0.2,0.4,0.4l-0.5-0.2c0.1-0.5,0.3-1.1,1-0.8v-0.4c0.2,0,0.4,0.3,0.5,0.4l0.2-0.2c-0.3-0.1-0.5-0.2-0.8-0.3
		C272,430,271.7,430,271.7,430z"/>
	<path class="st2" d="M268.8,434.7c0-0.1,0-0.2,0-0.3c-0.1,0.3-0.3,0.7-0.4,1C268.9,435.3,268.8,435,268.8,434.7z"/>
</g>
<g class="st1">
	<path class="st2" d="M703.7,398l-1.8,0c0.3,0.1,0.6,0.2,0.9,0.3C703.2,398.4,703.4,398.2,703.7,398z"/>
	<path class="st2" d="M700.3,397.9H700l-0.3,0.1L700.3,397.9z"/>
	<path class="st2" d="M697.3,398.1c0.5,0.1,1,0.1,1.5,0C698.3,398,697.8,398,697.3,398.1z"/>
	<path class="st2" d="M699.7,398.4c-0.2-0.1-0.3-0.3,0-0.4l0,0l-0.9,0.1C699.1,398.1,699.4,398.2,699.7,398.4z"/>
	<path class="st2" d="M699.7,398.4c0.2,0.1,0.5,0.3,0.6,0.4C700.1,398.6,699.9,398.5,699.7,398.4z"/>
	<path class="st2" d="M698.9,401.8c-0.3,0.1-0.2-0.9-0.8-0.6c-1.3,0.4-2.6,0.6-4,0.7c-0.6,0.2-1.6-0.9-2.2-0.6
		c-1.4,0.3-5.1,1.6-2.9,1.5c3.2-0.1,5.3-0.4,8.2-0.6c2.4-0.4,4.6-0.8,7-1.2c0.6,0,1.3,0,1.9,0.1c-0.8-0.1-1.7-0.3-2.6-0.4
		C702.4,400.3,700.9,401.5,698.9,401.8z"/>
	<path class="st2" d="M716.6,398.6l-0.9,0.3c-1.3-0.5-2.8-0.6-4.2-0.1l0.6,0.5c0.8,0,0.9-0.3,0.2-0.5c1.6,0.5,3.2,0.7,4.8,0.6
		C717,399,717,398.7,716.6,398.6z"/>
	<path class="st2" d="M718,399.2c-0.3,0-0.6,0.1-0.9,0.1c0,0,0,0.1,0,0.1L718,399.2L718,399.2z"/>
	<path class="st2" d="M690.8,399c-4,0-7.9,0-11.6-0.1c-0.3,0.2-0.5,0.4-0.9,0.3c-0.3-0.2-0.6-0.3-0.9-0.4l-1.6,0l-0.6,0.1l0,0
		c-0.3,0.1-0.2,0.3,0,0.4c0.2,0.1,0.4,0.2,0.6,0.4c-0.1-0.1-0.4-0.2-0.6-0.4c-0.3-0.1-0.6-0.2-0.9-0.3c-0.5,0.1-1,0.1-1.5,0
		c0.5-0.1,1-0.1,1.5,0l0.9-0.1l0.3-0.1l-3.7-0.1l-0.8,0.1c-0.8,0.3-1.6,0.2-2.3-0.2h-0.7l0.1,0.1l-0.2-0.1l-2.8-0.1
		c-0.6,0.2-1.2,0.4-1.9,0.5l-0.6-0.5c-0.3,0.3-0.6,0.4-1,0.5c0.5,0.3,1,0.6,1.4,0.8c0.6,0.5,1.4-1,2.2-0.1c-0.7-0.9-1.5,0.5-2.2,0.1
		c-0.4-0.2-0.9-0.5-1.4-0.8c-1,0.2-2.1,0-3-0.5c1-0.3,2.1-0.1,3,0.5c0.4-0.1,0.7-0.2,1-0.5l0.6,0.5c0.6-0.1,1.3-0.4,1.9-0.5
		l-5.6-0.2c-12.2-0.6-23.4-0.5-36-1c-6.8-0.3-13.4-0.7-19.9-1.2c-12.8-1.1-24.6,0.2-37.6-2.2c-5-0.9-14.2-0.4-19-0.3
		c-6.4,1.6-3.1,5.7-2.8,5.9c4,3.5,7.1,1.6,15.1,3.6c-5.5-1.2,4.1-2.3,9.2,0.1c7.5,3.7,18.2,0.7,27.5,1.7c2.3,0.2,4.8,0.1,7.5,0.1
		c14.3,1.2,27.7-0.3,42.8,0c4,0,7.5-0.9,10.9-1.4c2.5-0.2,5.1,0.3,7.1,0.3c2.8,0,5.7-0.3,8.4-0.8c-2.9,0.2-5,0.4-8.2,0.6
		c-2.2,0.1,1.5-1.2,2.9-1.5c0.6-0.2,1.6,0.9,2.2,0.6c1.4-0.1,2.7-0.3,4-0.7c0.6-0.2,0.5,0.8,0.8,0.6c2-0.2,3.4-1.5,4.7-1.2
		c1,0.1,1.8,0.3,2.6,0.4c0.5,0.1,1.1,0.1,1.6,0l1.1-0.2c-0.2-0.3-0.4-0.6-0.5-1c0.5,0,1.2,0.3,1.8,0.3c-0.5-0.1-1.2-0.3-1.8-0.3
		c0.1,0.4,0.2,0.7,0.5,1c2.6-0.6,5.5-1.1,8.2-1.5v-0.1c-1.6,0.1-3.3,0-4.8-0.6c0.7,0.2,0.6,0.5-0.2,0.5l-0.6-0.5
		c1.4-0.3,2.8-0.5,4.2,0.1l0.9-0.3c0.5,0.1,0.4,0.4,0.5,0.7c0.3,0,0.6,0,0.9-0.1C692.8,399.6,691.8,399.3,690.8,399z"/>
	<path class="st2" d="M674.3,399l0.8-0.1l-3.1-0.1C672.7,399.2,673.6,399.3,674.3,399z"/>
</g>
</svg>
