<?xml version="1.0" encoding="utf-8"?>
<!-- Generator: Adobe Illustrator 25.0.0, SVG Export Plug-In . SVG Version: 6.00 Build 0)  -->
<svg version="1.1" id="Layer_1" xmlns="http://www.w3.org/2000/svg" xmlns:xlink="http://www.w3.org/1999/xlink" x="0px" y="0px"
	 viewBox="0 0 841.9 841.9" style="enable-background:new 0 0 841.9 841.9;" xml:space="preserve">
<style type="text/css">
	.st0{fill:#F3D8C7;}
	.st1{opacity:0.85;}
	.st2{fill:#211F1E;}
	.st3{fill:#1F2020;}
	.st4{fill:#060707;}
</style>
<rect class="st0" width="841.9" height="841.9"/>
<g class="st1">
	<path class="st2" d="M569.7,496.2l0.8,0.6c-0.1-0.1-0.2-0.3-0.3-0.4C570,496.2,569.9,496.2,569.7,496.2z"/>
	<path class="st2" d="M571.3,497.3l0.2,0.1h0.2L571.3,497.3z"/>
	<path class="st2" d="M572.9,498.1c-0.3-0.1-0.5-0.3-0.8-0.4C572.4,497.9,572.6,498,572.9,498.1z"/>
	<path class="st2" d="M571.7,497.3c0.1,0.1,0.1,0.2-0.1,0.2l0,0l0.5,0.2C572,497.6,571.8,497.5,571.7,497.3z"/>
	<path class="st2" d="M571.7,497.3c-0.1-0.1-0.2-0.2-0.2-0.3C571.6,497.1,571.7,497.2,571.7,497.3z"/>
	<path class="st2" d="M572.9,496c0.2,0-0.1,0.4,0.3,0.5s0.7,0.2,1.1,0.2c0.3,0,0.7,0.1,1,0.2c0.3,0,0.7,0.6,1,0.6c0.5,0,1,0,1.5-0.1
		c0.4-0.1,0.6-0.2,0.1-0.3c-1.4-0.1-2.8-0.4-4.1-0.9c-1.2-0.3-2.4-0.8-3.5-1.4c-0.3-0.2-0.5-0.5-0.8-0.7c0.3,0.4,0.6,0.7,0.9,1.1
		c0.3,0.2,0.6,0.4,1,0.5C572,495.7,572.5,495.8,572.9,496z"/>
	<path class="st2" d="M565.2,490.2l0.4,0.4c0,0.4,0.2,0.8,0.4,1.1c0.2,0.4,0.5,0.7,0.8,0.9v-0.4c-0.3-0.4-0.4-0.3-0.3,0.1
		c-0.3-0.9-0.7-1.7-1.1-2.5C565.3,489.9,565.2,490,565.2,490.2z"/>
	<path class="st2" d="M565.1,489.3l0.3,0.5l0,0L565.1,489.3L565.1,489.3z"/>
	<path class="st2" d="M576.6,498.8c2.2,0.4,4.4,0.4,6.6,0c0.1-0.1,0.2-0.3,0.5-0.3c0.2,0,0.4,0,0.5,0c0.3-0.1,0.6-0.2,0.9-0.3
		l0.3-0.1l0,0c0.1-0.1,0.1-0.2-0.1-0.2c-0.1,0-0.2,0-0.4,0c0.1,0,0.2,0,0.4,0c0.2,0,0.3,0,0.5,0c0.2-0.2,0.5-0.3,0.8-0.4
		c-0.2,0.2-0.5,0.3-0.8,0.4l-0.5,0.2l-0.1,0.1c0.7-0.2,1.4-0.5,2-0.8c0.1-0.1,0.3-0.2,0.4-0.3c0.3-0.3,0.7-0.6,1.2-0.6l0.3-0.2H589
		l0.1,0c0.5-0.3,0.9-0.6,1.3-1c0.2-0.3,0.4-0.6,0.6-0.9l0.4-0.1c0-0.2,0.1-0.4,0.2-0.6c-0.3,0.1-0.6,0.2-0.8,0.3
		c-0.4,0.1-0.2,0.9-0.8,0.9c0.6,0,0.4-0.8,0.8-0.9c0.2-0.1,0.5-0.2,0.8-0.3c0.3-0.5,0.7-0.9,1.2-1.2c-0.2,0.6-0.6,1-1.2,1.2
		c-0.1,0.2-0.2,0.4-0.2,0.6l-0.4,0.1c-0.2,0.3-0.4,0.6-0.6,0.9c0.8-0.7,1.6-1.5,2.2-2.4c2.2-2.8,3.4-6.3,3.3-9.8
		c0-3.7-1.2-7.2-3.3-10.2c-2.4-3.3-5.8-5.8-9.8-6.9c-3.9-1.1-8-0.6-11.6,1.2c-3.7,1.9-6.7,4.8-8.8,8.3c-1,1.9-1.6,4-1.7,6.2
		c-0.1,2.1,0.1,4.2,0.8,6.3c0.3,0.7,0.8,1.3,1.4,1.7c0.3,0.2,0.7,0.2,1,0.1c0.4-0.3,0.7-0.6,0.9-1.1c0.2-0.6,0.3-1.2,0.3-1.8
		c0-0.5,0-1.1,0-1.7c-0.2-1.6,0-3.2,0.6-4.6c-0.5,1.3-0.7,0.8-0.6-0.4c0.2-1.5,1-2.9,2.1-3.9c1.7-1.2,3-2.7,4.8-4
		c1.8-1.4,3.9-2.2,6.2-2.2c1.2,0,2.3,0.1,3.5,0.3c3.1,0.9,5.9,2.8,7.8,5.4c2.1,2.7,2.9,6.2,2.4,9.5c-0.2,1.7-0.5,3.5-1.1,5.1
		c-0.6,1-1.4,1.9-2.2,2.6c-0.5,0.5-1.1,1-1.6,1.5s-1,0.9-1.6,1.2c1.2-0.7,2.2-1.5,3.1-2.5c0.4-0.4,0.3-0.1,0.2,0.3
		c-0.1,0.2-0.2,0.5-0.3,0.7c-0.2,0.2-0.3,0.4-0.4,0.6s-0.9,0.1-1.1,0.4c-0.3,0.2-0.5,0.4-0.8,0.6l-0.8,0.7c-0.2,0.2-0.4-0.2-0.5-0.1
		c-0.4,0.2-0.8,0.5-1.1,0.8c-0.3,0.2-0.6,0.4-1,0.5c-0.5,0-0.9,0-1.4,0l-0.8,0l-0.5,0.1c0.1,0.1,0.2,0.3,0.3,0.5
		c-0.3,0-0.7-0.1-0.9-0.1c0.3,0,0.7,0.1,0.9,0.1c0-0.2-0.1-0.4-0.3-0.5c-1.5,0.4-3,0.4-4.5,0.2v0c0.9,0.2,1.7,0.4,2.6,0.8
		c-0.4-0.1-0.3-0.3,0.1-0.3l0.3,0.2c-0.4,0.1-0.8,0.1-1.2,0c-0.4,0-0.8-0.2-1.1-0.4h-0.5c-0.2-0.1-0.2-0.3-0.2-0.4s-0.3,0-0.5-0.1
		C575.6,498.2,576.1,498.6,576.6,498.8z"/>
	<path class="st2" d="M585.8,497.9l-0.4,0.2c0.6-0.2,1.1-0.4,1.7-0.7C586.6,497.4,586.2,497.6,585.8,497.9z"/>
</g>
<circle class="st3" cx="580.3" cy="484.5" r="5.6"/>
<g class="st1">
	<path class="st2" d="M583.9,488.4l-0.3,0.2c0.1,0,0.1,0,0.2,0C583.9,488.5,583.9,488.4,583.9,488.4z"/>
	<polygon class="st2" points="583.4,488.8 583.3,488.8 583.3,488.8 	"/>
	<path class="st2" d="M582.9,489.1c0.1,0,0.2-0.1,0.2-0.2C583.1,489,583,489,582.9,489.1z"/>
	<path class="st2" d="M583.3,488.9C583.3,488.9,583.3,488.9,583.3,488.9L583.3,488.9l-0.2,0.1C583.2,488.9,583.3,488.9,583.3,488.9z
		"/>
	<path class="st2" d="M583.3,488.9L583.3,488.9z"/>
	<path class="st2" d="M583.7,489.7c0,0.1-0.2-0.1-0.2,0c-0.2,0.2-0.4,0.4-0.7,0.6c-0.1,0.1-0.4-0.1-0.5,0s-1,0.6-0.5,0.5
		c0.6-0.2,1.2-0.4,1.7-0.8c0.4-0.3,0.8-0.7,1.1-1.2c0.1-0.1,0.2-0.2,0.3-0.3c-0.2,0.1-0.3,0.2-0.5,0.3S584,489.4,583.7,489.7z"/>
	<path class="st2" d="M585.4,486.4v0.2c-0.3,0.2-0.3,0.5-0.4,0.7h0.2c0.1-0.1,0-0.2-0.1-0.1c0.3-0.2,0.5-0.5,0.5-0.8
		C585.5,486.4,585.5,486.3,585.4,486.4z"/>
	<path class="st2" d="M585.6,486.2c0,0.1,0,0.1,0,0.2l0,0V486.2L585.6,486.2z"/>
	<path class="st2" d="M581.8,489.8c-0.7,0.2-1.5,0.3-2.3,0.1c-0.1,0-0.1,0.1-0.2,0l-0.2-0.1c-0.1,0-0.2-0.1-0.3-0.1h-0.1
		c-0.1,0-0.1,0,0,0.1l0.1,0.1c0,0-0.1-0.1-0.1-0.1c0,0-0.1-0.1-0.2-0.1c-0.1,0-0.2-0.1-0.3-0.1c0.1,0,0.2,0,0.3,0.1h0.2
		c-0.2-0.1-0.5-0.2-0.7-0.3l-0.2,0c-0.2,0-0.3-0.1-0.4-0.2l-0.1-0.1l0,0v0c-0.2-0.1-0.3-0.2-0.4-0.3c-0.1,0-0.2-0.1-0.4-0.1v-0.2
		c-0.1,0-0.2,0-0.2-0.1c0,0.1,0,0.2,0.1,0.4c0,0.2,0.4,0,0.3,0.3c0-0.3-0.3-0.1-0.3-0.3c0-0.1-0.1-0.2-0.1-0.4
		c-0.2-0.1-0.3-0.3-0.3-0.5c0.2,0.1,0.3,0.3,0.3,0.5c0.1,0,0.1,0.1,0.2,0.1v0.2c0.1,0,0.2,0.1,0.4,0.1c-0.3-0.2-0.5-0.5-0.8-0.8
		c-1.5-1.8-1.6-4.4-0.3-6.3c0.7-1,1.7-1.7,2.9-1.9c1-0.2,2.1-0.1,3.1,0.3c1,0.4,1.7,1.2,2,2.2c0.1,0.4,0.3,0.9,0.4,1.4
		c0.1,0.5,0.1,0.9,0,1.4c0,0.4,0.3,0.7,0.7,0.8c0.2,0.1,0.4,0.1,0.6,0c0.5-0.2,0.8-0.7,0.8-1.2c0.1-0.7,0.1-1.4,0.1-2.1
		c0,0.7-0.2,0.5-0.3,0c-0.2-0.6-0.4-1.3-0.5-1.9c-0.2-1.1-1-2-2.1-2.5c-1.1-0.5-2.3-0.8-3.5-0.8c-0.6,0-1.3,0.1-1.9,0.3
		c-1.8,0.4-3.3,1.6-4.2,3.2c-0.9,1.6-1.1,3.5-0.6,5.3c0.3,0.9,0.8,1.6,1.5,2.2c0.3,0.5,0.7,0.9,1.1,1.3c0.5,0.4,1.2,0.7,1.8,0.8
		c-0.6-0.2-1.2-0.5-1.8-0.8c-0.4-0.3,0.5,0,0.8,0.1c0.2,0,0.2,0.4,0.4,0.4c0.3,0.1,0.6,0.2,0.9,0.2c0.2,0,0,0.2,0.1,0.2
		c0.5,0.1,0.8-0.1,1.1,0s0.4,0.1,0.6,0.2c0.1,0,0.2,0,0.4,0l0.2-0.1c-0.1-0.1-0.1-0.2-0.1-0.2c0.1,0,0.3,0.1,0.4,0.1
		c-0.1,0-0.3,0-0.4-0.1c0,0.1,0.1,0.2,0.1,0.2c0.6-0.2,1.1-0.4,1.7-0.7l0,0c-0.3,0.2-0.7,0.2-1,0.1c0.2,0,0.2,0.1,0,0.1l-0.2-0.1
		c0.3-0.1,0.5-0.1,0.8-0.1l0.2-0.1c0.1,0,0.1,0.1,0.2,0.1l0.2-0.1C582.3,489.8,582.1,489.8,581.8,489.8z"/>
	<path class="st2" d="M578.6,489.8h0.2c-0.2-0.1-0.4-0.2-0.6-0.2C578.2,489.7,578.4,489.7,578.6,489.8z"/>
</g>
<g class="st1">
	<path class="st2" d="M453.7,432.8l1.2,1.9l1.2,1.9c-0.4-0.6-0.7-1.3-1-2C454.8,433.9,454.3,433.3,453.7,432.8z"/>
	<path class="st2" d="M458.4,440l0.4,0.7l0.5,0.5L458.4,440z"/>
	<path class="st2" d="M463.1,446.1c-0.8-1.1-1.6-2.2-2.4-3.1C461.5,444.1,462.3,445.1,463.1,446.1z"/>
	<path class="st2" d="M459.7,441c0.2,0.5,0.2,0.8-0.4,0.2l0,0c0.5,0.6,1,1.2,1.5,1.8C460.4,442.4,460,441.7,459.7,441z"/>
	<path class="st2" d="M459.7,441c-0.1-0.5-0.5-1.1-0.5-1.4C459.3,440.1,459.5,440.5,459.7,441z"/>
	<path class="st2" d="M463.6,440.6c0.5,0.6-0.3,1,0.8,2.1l3.4,3.8c1.1,1.2,2.2,2.4,3.3,3.7c1.1,1,1.8,3.6,3,4.6
		c1.7,1.6,3.5,3.2,5.3,4.7c1.7,1.2,2.5,1.7,0.7-0.2c-4.8-4.9-9.3-10-13.6-15.4c-1.9-2.2-3.8-4.4-5.6-6.8c-0.9-1.1-1.8-2.3-2.7-3.5
		s-1.8-2.4-2.7-3.6c-0.9-1.4-1.7-2.8-2.5-4.2l3.1,5.8c0.9,1.5,2,2.9,3.2,4.1C460.6,437.1,462,438.7,463.6,440.6z"/>
	<path class="st2" d="M438.2,404l1.3,1.9c0.9,3.4,2.9,6.5,4.8,9.5c-0.1-0.5-0.2-1.1-0.3-1.6c-1-1.8-1.4-1.9-0.7-0.2
		c-1.5-3.8-3.2-7.6-5-11.2C438.1,402.8,437.8,402.9,438.2,404z"/>
	<path class="st2" d="M437.1,400.4l1.1,2.1v-0.1C437.9,401.6,437.5,401,437.1,400.4L437.1,400.4z"/>
	<path class="st2" d="M474.2,458.3c6.5,7.3,13.6,14.1,21.1,20.4c0.7,0.2,1.4,0.6,1.9,1.1c0.5,0.6,1,1.1,1.6,1.6l3.3,2.5l1.2,0.8l0,0
		c0.7,0.4,0.6,0.1,0.3-0.3c-0.4-0.4-0.7-0.7-1-1.1c0.2,0.2,0.7,0.7,1,1.1c0.5,0.5,1.1,1,1.7,1.4c1.1,0.6,2.2,1.3,3.3,2.1
		c-1.2-0.6-2.3-1.3-3.3-2.1c-0.7-0.4-1.4-0.8-2-1.2l-0.6-0.3c1.3,1,2.6,1.8,3.9,2.7s2.6,1.8,4,2.6l1.7,0.9c1,0.5,2,1,2.9,1.5
		c0.8,0.4,1.5,0.9,2.2,1.5l1.5,0.8l-0.2-0.2c0.2,0.1,0.4,0.3,0.5,0.4c1,0.6,2.1,1.1,3.2,1.6l3.2,1.6c1.5,0.5,3.1,0.8,4.6,1.3l1.3,1
		c0.9,0.1,1.8,0.2,2.7,0.4c-1.1-0.7-2.1-1.4-3-2c-1.3-1-3.7-0.4-5-2c1.4,1.6,3.8,1,5,2c0.9,0.6,1.9,1.3,3,2c1.2,0.3,2.4,0.7,3.5,1.2
		c1.2,0.4,2.4,1,3.5,1.5c-1.3-0.2-2.7-0.5-3.9-1.1c-1.1-0.5-2.1-1-3.1-1.7c-0.9-0.2-1.8-0.4-2.7-0.4l-1.3-1
		c-1.5-0.5-3.1-0.8-4.6-1.3c2.1,1,4.3,1.8,6.5,2.8c2.2,0.8,4.5,1.7,6.8,2.4c14.5,4.8,29.8,6.7,45.1,5.7c15.6-1,30.9-4.5,45.3-10.4
		c15.9-6.3,30.7-15.1,43.9-26c12.8-10.7,23.2-23.4,30-38.3c1.7-3.8,3.1-7.7,4.2-11.7c1.1-4.1,1.8-8.3,2-12.6c0-1.1,0.1-2.2,0.1-3.3
		s-0.1-2.2-0.1-3.3s-0.2-2.2-0.4-3.3c0-0.2-0.1-0.6-0.1-0.8v-0.5c0-0.4,0-0.7,0-1.1c0.1-1.8,0.2-3.6,0.5-5.3
		c0.3-1.9,0.7-3.8,1.1-5.7c1.3-5.9,3.2-14.6,5.2-23.2s4.1-17.2,5.6-23c1.4-8,0.6-10.3-0.7-10.5s-2.9,1.7-3.2,2.1
		c-3,4.4-4.6,8.6-6.3,14.1s-3.4,12.4-6.7,22.2c2.1-6.7,2.1-4.1,0.9,1.8s-3.3,14.9-5.1,21.7c-0.4,1.3-0.6,2.6-0.9,3.9
		c-0.3,1.5-0.3,3.1-0.2,4.6c0,0.4,0.1,1,0.1,1.2v0.9c0,0.6,0.1,1.2,0.1,1.8c0,1.2,0,2.4,0,3.6c-0.2,5.3-1,10.5-2.5,15.5
		c-3.3,11-9.1,21.1-16.8,29.6c-4,4.6-8.3,8.9-12.9,13c-6.6,5.5-13.6,10.5-21,14.9c-7.3,4.4-14.9,8.3-22.8,11.5
		c-15.8,6.4-33,10.3-51.3,9.7c-9.7-0.3-18.2-0.7-26.3-2.3c-5.6-1.5-11-3.4-16.3-5.8c-7.1-3-13-5.9-18.7-8.8c1.5,0.9,3,1.7,4.4,2.5
		s2.8,1.5,4.2,2.1c2.8,1.4,5.9,2.7,9.5,4.2c2.5,1,1.5,0.9-0.5,0.5c-2.3-0.6-4.5-1.3-6.7-2.1c-1.5-0.5-3-2.5-4.5-3
		c-1.4-0.8-2.8-1.5-4.3-2.2l-2.2-1l-2.3-1.2c-1.4-0.6-0.7-1.4-1.4-1.7c-0.5-0.3-1-0.6-1.5-0.9s-1-0.6-1.5-0.8c-1-0.5-1.9-1-2.7-1.4
		c-1.6-0.7-3-1.7-4.4-2.8l-2.5-2.3c-0.8-0.7-1.5-1.5-2.2-2.2c-1-0.9-1.9-1.8-3-2.7c-0.7-0.5-1.4-1.1-2.1-1.6c0.2,0.5,0.3,1,0.2,1.6
		c-0.9-0.9-2.1-2.4-3-3.3c0.9,0.9,2,2.3,3,3.3c0.1-0.5,0.1-1.1-0.2-1.6l-3.9-3.1c-1.3-1.1-2.6-2.3-3.9-3.5c-0.6-0.6-1.3-1.2-2-1.8
		s-1.2-1.2-1.9-1.9L472,454v0.1c2.7,3,5.3,6.1,7.8,9.4c-1.1-1.5-0.8-1.5,0.7,0l0.8,1.5c-1.3-1.2-2.7-2.4-3.9-3.7
		c-1.2-1.3-2.3-2.7-3.2-4.2l-1.8-1.5c-0.6-0.9-0.4-1.1-0.4-1.4l-1.6-1.8c0.2,0.4,0.5,1,0.9,1.6s0.8,1.3,1.3,2L474.2,458.3z"/>
	<path class="st2" d="M505.4,485.9l-1.7-1l3.3,2.2c1.1,0.7,2.2,1.5,3.3,2.2C508.8,488,507.2,486.8,505.4,485.9z"/>
</g>
<g class="st1">
	<path class="st4" d="M342.4,416h-2.1c0.4,0.1,0.7,0.2,1,0.3C341.8,416.4,342.1,416.1,342.4,416z"/>
	<path class="st4" d="M338.4,416h-0.4l-0.3,0.1L338.4,416z"/>
	<path class="st4" d="M334.9,416.3c0.6,0,1.2,0,1.8-0.1C336.1,416.1,335.4,416.2,334.9,416.3z"/>
	<path class="st4" d="M337.7,416.5c-0.2-0.1-0.3-0.3,0-0.4l0,0l-1.1,0.2C337,416.2,337.4,416.3,337.7,416.5z"/>
	<path class="st4" d="M337.7,416.5c0.2,0.1,0.6,0.2,0.7,0.3C338.2,416.6,337.9,416.5,337.7,416.5z"/>
	<path class="st4" d="M336.9,419.9c-0.4,0.1-0.3-0.8-1-0.6c-1.5,0.4-3.1,0.7-4.7,0.8c-0.7,0.2-1.9-0.8-2.6-0.6
		c-1.7,0.3-5.9,1.7-3.4,1.6c3.8-0.2,6.3-0.6,9.7-0.8c2.8-0.5,5.4-1,8.3-1.4c0.8-0.1,1.5-0.1,2.3,0c-1-0.1-2-0.2-3.1-0.4
		C340.9,418.3,339.2,419.6,336.9,419.9z"/>
	<path class="st4" d="M357.6,416.1l-1.1,0.4c-1.6-0.5-3.4-0.5-5,0l0.8,0.5c1-0.1,1.1-0.4,0.2-0.5c1.9,0.5,3.8,0.6,5.7,0.4
		C358.1,416.6,358.2,416.3,357.6,416.1z"/>
	<path class="st4" d="M359.4,416.7l-1.1,0.1l0,0.1L359.4,416.7L359.4,416.7z"/>
	<path class="st4" d="M327.2,417.4c-4.8,0.2-9.3,0.3-13.7,0.3c-0.3,0.2-0.6,0.4-1,0.3c-0.3-0.1-0.7-0.2-1-0.3h-2l-0.7,0.1l0,0
		c-0.4,0.1-0.2,0.3,0,0.4c0.2,0.1,0.5,0.2,0.7,0.3c-0.1-0.1-0.5-0.2-0.7-0.3c-0.3-0.1-0.7-0.2-1-0.2c-0.6,0.1-1.3,0.1-1.9,0.1
		c0.6-0.1,1.2-0.2,1.8-0.1l1.1-0.2l0.3-0.1h-4.4l-0.9,0.1c-0.9,0.3-1.9,0.2-2.8-0.1h-0.8l0.2,0.1c-0.1,0-0.2,0-0.3-0.1h-3.3
		c-0.7,0.2-1.5,0.5-2.2,0.6l-0.8-0.5c-0.4,0.3-0.8,0.5-1.2,0.5c0.6,0.3,1.1,0.6,1.7,0.8c0.8,0.5,1.6-1,2.5-0.1
		c-0.9-0.9-1.8,0.6-2.5,0.1c-0.5-0.2-1.1-0.5-1.7-0.8c-1.2,0.2-2.4,0.1-3.5-0.4c1.2-0.3,2.4-0.2,3.5,0.4c0.4-0.1,0.9-0.2,1.2-0.5
		l0.8,0.5c0.7-0.2,1.5-0.4,2.2-0.6h-6.6c-7.2-0.1-14.1,0-21.1,0.1s-14,0.3-21.5,0.4c-8.1,0.1-15.9-0.1-23.5-0.3
		c-15.2-0.4-29,1.5-44.5,0.1c-6-0.5-16.9,0.8-22.7,1.6c-1.4,0.4-2.7,1.1-3.8,2.1c-0.6,0.7-1,1.5-0.7,2.1c0.5,0.9,1.2,1.6,2,2.1
		c2.2,1.2,4.8,1.7,7.3,1.5c3.6-0.2,7.2-0.1,10.7,0.4c-6.5-0.7,4.6-2.6,10.8-0.6c9,3.1,21.4-0.5,32.4-0.1c2.7,0.1,5.6-0.2,8.9-0.3
		c16.9,0.5,32.6-1.6,50.4-2c4.7-0.2,8.8-1.2,12.8-1.8c2.9-0.3,6,0.1,8.4,0c3.3-0.1,6.6-0.5,9.9-1.1c-3.4,0.3-5.9,0.6-9.7,0.9
		c-2.5,0.1,1.7-1.3,3.4-1.6c0.7-0.2,1.9,0.8,2.6,0.6c1.6-0.2,3.1-0.4,4.7-0.8c0.7-0.2,0.7,0.7,1,0.6c2.3-0.3,4-1.6,5.5-1.3
		c1.1,0.1,2.1,0.2,3.1,0.4c0.6,0,1.3,0,1.9,0l1.2-0.3c-0.3-0.3-0.5-0.6-0.6-1c0.6,0,1.5,0.2,2.1,0.2c-0.6,0-1.5-0.2-2.1-0.2
		c0.1,0.4,0.3,0.7,0.6,1c3-0.6,6.5-1.3,9.7-1.8l0-0.1c-1.9,0.2-3.8,0-5.7-0.4c0.9,0.2,0.8,0.5-0.2,0.5l-0.8-0.5c1.6-0.5,3.4-0.5,5,0
		l1.1-0.4c0.5,0.1,0.5,0.4,0.6,0.7l1.1-0.1C329.5,417.9,328.4,417.6,327.2,417.4z"/>
	<path class="st4" d="M307.8,417.9l0.9-0.1H305C305.9,418.1,306.9,418.2,307.8,417.9z"/>
</g>
</svg>
