<?xml version="1.0" encoding="utf-8"?>
<!-- Generator: Adobe Illustrator 25.0.0, SVG Export Plug-In . SVG Version: 6.00 Build 0)  -->
<svg version="1.1" id="Layer_1" xmlns="http://www.w3.org/2000/svg" xmlns:xlink="http://www.w3.org/1999/xlink" x="0px" y="0px"
	 viewBox="0 0 841.9 841.9" style="enable-background:new 0 0 841.9 841.9;" xml:space="preserve">
<style type="text/css">
	.st0{fill:#D0B8AB;}
	.st1{opacity:0.85;}
	.st2{fill:#090A0A;}
	.st3{fill:#131413;}
</style>
<rect class="st0" width="841.9" height="841.9"/>
<g class="st1">
	<path class="st2" d="M547.6,466.4l1,0.3c-0.2-0.1-0.3-0.2-0.4-0.4C547.9,466.2,547.8,466.3,547.6,466.4z"/>
	<path class="st2" d="M549.4,466.9h0.2h0.2H549.4z"/>
	<path class="st2" d="M551.2,467.1c-0.3-0.1-0.6-0.1-0.9-0.1C550.6,467,550.9,467.1,551.2,467.1z"/>
	<path class="st2" d="M549.8,466.6c0.1,0.1,0.1,0.2-0.1,0.3h0.5C550.1,466.9,550,466.8,549.8,466.6z"/>
	<path class="st2" d="M549.8,466.6c-0.1-0.1-0.2-0.2-0.3-0.3C549.7,466.4,549.7,466.5,549.8,466.6z"/>
	<path class="st2" d="M550.8,464.2c0.2,0,0,0.6,0.4,0.6c0.7-0.1,1.5-0.1,2.2-0.1c0.4-0.1,0.8,0.8,1.1,0.6c0.8-0.1,2.9-0.7,1.8-0.9
		c-1.8-0.2-2.9-0.1-4.5-0.3l-2,0.1c-0.7,0-1.3,0-2,0c-0.3-0.1-0.7-0.2-1-0.3c0.4,0.2,0.8,0.5,1.3,0.7S549.7,464.2,550.8,464.2z"/>
	<path class="st2" d="M540.7,463.7h0.6c0.5,0.7,1.4,1,2.2,0.9l-0.2-0.5c-0.5-0.1-0.6,0.1-0.2,0.4c-0.7-0.7-1.5-1.1-2.4-1.4
		C540.6,463.3,540.5,463.5,540.7,463.7z"/>
	<path class="st2" d="M540.1,463l0.5,0.1v-0.1L540.1,463L540.1,463z"/>
	<path class="st2" d="M554.9,467c1.1,0.2,2.2,0.3,3.3,0.4s2.1,0.3,3.2,0.4c0.2-0.1,0.3-0.3,0.5-0.2c0.1,0.1,0.3,0.2,0.5,0.3l0.9,0.1
		h0.3l0,0c0.2-0.1,0.1-0.2,0-0.3c-0.1-0.1-0.2-0.2-0.3-0.3c0.1,0.1,0.2,0.2,0.3,0.3c0.1,0.1,0.3,0.2,0.5,0.2c0.3,0,0.6,0,0.9,0
		c-0.3,0.1-0.6,0.1-0.9,0l-0.5,0.1h-0.2l2.1,0.2h0.4c0.5-0.1,1-0.1,1.3,0.2h0.4l-0.1-0.1c0,0,0.1,0,0.1,0.1l1.6,0.1
		c0.3-0.1,0.7-0.3,1.1-0.4l0.3,0.4c0.2-0.2,0.4-0.3,0.6-0.4c-0.3-0.2-0.5-0.5-0.8-0.6c-0.3-0.4-0.8,0.7-1.2,0c0.4,0.7,0.9-0.4,1.2,0
		c0.2,0.1,0.5,0.4,0.8,0.6c0.6-0.1,1.2,0,1.7,0.4c-0.6,0.2-1.2,0.1-1.7-0.4c-0.2,0-0.4,0.2-0.6,0.4l-0.3-0.4
		c-0.4,0.1-0.7,0.2-1.1,0.4c1,0.1,2.1,0.2,3.2,0.2c6.9,0.5,13.2,0.2,20.4,0c3.9-0.1,7.6-0.1,11.3-0.1c7.3,0,13.8-1.9,21.3-1.3
		c2.9,0.2,8-1.1,10.7-1.7c1.4-0.6,2.1-2.1,1.5-3.5c-0.2-0.5-0.5-0.9-0.9-1.2c-2.7-2.1-4.1-0.4-8.8-1.1c3.2,0.3-1.9,2.1-5.1,0.8
		c-4.6-2-10.1,1-15.3,1c-1.3,0-2.6,0.3-4.2,0.4c-8,0-15.3,1.7-23.6,1.7c-2,0.2-4,0.6-6,1.1c-1.3,0-2.6-0.1-3.9-0.3
		c-1.6,0-3.1,0.1-4.7,0.4c1.6,0,2.8-0.2,4.5-0.2c1.2,0-0.8,0.9-1.7,1.1c-0.3,0.1-0.8-0.7-1.2-0.5c-0.8,0.1-1.5,0.2-2.2,0.4
		c-0.3,0.1-0.3-0.6-0.4-0.5c-1.1,0.1-2,0.9-2.7,0.7c-0.5-0.1-1-0.3-1.4-0.5c-0.3-0.1-0.6-0.1-0.9-0.1l-0.6,0.1
		c0.1,0.2,0.2,0.5,0.2,0.8c-0.3-0.1-0.7-0.3-0.9-0.4c0.3,0.1,0.7,0.3,0.9,0.4c0-0.3-0.1-0.5-0.2-0.8c-0.7,0.1-1.5,0.2-2.3,0.3
		s-1.6,0.1-2.4,0.1v0c0.9,0,1.8,0.3,2.6,0.8c-0.4-0.2-0.3-0.4,0.2-0.4l0.3,0.4c-0.8,0.2-1.7,0.1-2.3-0.4l-0.5,0.2
		c-0.2-0.1-0.2-0.4-0.2-0.6h-0.5C553.9,466.4,554.3,466.8,554.9,467z"/>
	<path class="st2" d="M564.1,468.1h-0.4l1.8,0.2C565.1,467.9,564.6,468,564.1,468.1z"/>
</g>
<g class="st1">
	<path class="st2" d="M293.2,461.4l-1,0.2c0.2,0,0.4,0.1,0.5,0.1C293,461.7,293.1,461.6,293.2,461.4z"/>
	<path class="st2" d="M291.4,461.8h-0.2l-0.1,0.1L291.4,461.8z"/>
	<path class="st2" d="M289.8,462.3c0.3,0,0.6-0.1,0.8-0.2C290.3,462.1,290,462.1,289.8,462.3z"/>
	<path class="st2" d="M291.1,462.2c-0.1-0.1-0.2-0.2,0-0.3l0,0l-0.5,0.2C290.8,462.1,290.9,462.1,291.1,462.2z"/>
	<path class="st2" d="M291.1,462.2c0.1,0.1,0.3,0.1,0.4,0.2C291.4,462.3,291.2,462.2,291.1,462.2z"/>
	<path class="st2" d="M291.2,464.7c-0.1,0.1-0.3-0.6-0.6-0.4c-0.7,0.4-1.4,0.7-2.1,1c-0.3,0.2-1-0.5-1.3-0.3
		c-0.8,0.3-2.7,1.6-1.5,1.4c1.8-0.4,3-0.7,4.6-1.2l1.9-0.8c0.6-0.3,1.2-0.6,1.9-0.9c0.4-0.1,0.7-0.2,1.1-0.2c-0.5,0-1,0-1.5,0
		C292.9,463.2,292.3,464.4,291.2,464.7z"/>
	<path class="st2" d="M300.1,459.6l-0.4,0.4c-0.9-0.2-1.5,0.3-2.2,0.7l0.5,0.2c0.4-0.2,0.4-0.4,0-0.4c0.9,0.1,1.9-0.1,2.7-0.6
		C300.5,459.8,300.4,459.6,300.1,459.6z"/>
	<path class="st2" d="M301.1,459.7l-0.5,0.2l0,0L301.1,459.7L301.1,459.7z"/>
	<path class="st2" d="M286.3,463.5c-1.1,0.2-2.2,0.3-3.3,0.4s-2.1,0.2-3.2,0.2c-0.1,0.2-0.2,0.3-0.5,0.3c-0.2-0.1-0.3-0.2-0.5-0.2
		H278l-0.3,0.1l0,0c-0.2,0.1-0.1,0.2,0,0.3c0.1,0.1,0.2,0.1,0.3,0.2c-0.1,0-0.2-0.1-0.3-0.2c-0.2-0.1-0.3-0.1-0.5-0.2
		c-0.3,0.1-0.6,0.1-0.9,0.1c0.3-0.1,0.6-0.1,0.9-0.1l0.5-0.1l0.1-0.1c-0.7,0-1.4,0-2.1,0l-0.4,0.1c-0.5,0.1-1,0.2-1.3-0.1h-0.4
		l0.1,0.1l-0.1-0.1h-1.6c-0.3,0.1-0.7,0.3-1,0.4l-0.4-0.4c-0.1,0.2-0.3,0.3-0.6,0.4c0.3,0.2,0.5,0.4,0.8,0.6
		c0.4,0.4,0.8-0.8,1.2-0.1c-0.4-0.7-0.9,0.4-1.2,0.1c-0.3-0.2-0.5-0.4-0.8-0.6c-0.6,0.1-1.2,0-1.7-0.3c0.6-0.2,1.2-0.1,1.7,0.3
		c0.2-0.1,0.4-0.2,0.6-0.4l0.4,0.4c0.4-0.1,0.7-0.3,1-0.4c-1,0-2.1,0-3.1-0.1c-6.8-0.4-13.1-0.6-20.1-1.4c-3.8-0.5-7.4-1.2-11-2
		c-7-1.6-13.7-1.6-20.5-4.6c-2.6-1.1-7.8-1.7-10.4-2.1c-3.7,0.5-2.6,3.9-2.4,4.1c1.7,3,3.7,1.9,7.9,4.3c-2.9-1.4,2.5-1.2,5.1,1
		c3.8,3.4,10.1,2.1,15.2,3.5c1.4,0.3,2.8,0.5,4.2,0.6c8,1.8,15.7,1.3,24.3,1.8c2.1-0.1,4.2-0.4,6.2-1c1.4-0.1,2.9,0.2,4.1,0.2
		c1.6-0.1,3.3-0.3,4.8-0.8c-1.6,0.2-2.9,0.5-4.7,0.6c-1.2,0.1,0.8-0.9,1.6-1.2c0.3-0.2,0.9,0.6,1.3,0.4c0.8-0.1,1.5-0.4,2.2-0.6
		c0.3-0.2,0.3,0.5,0.5,0.5c1.1-0.2,1.9-1.2,2.6-1.1l1.5,0.2c0.3,0,0.6,0,0.9-0.1l0.6-0.3c-0.2-0.2-0.3-0.5-0.4-0.7
		c0.3,0,0.7,0.1,1,0.1c-0.3,0-0.7-0.1-1-0.1c0.1,0.3,0.2,0.5,0.4,0.7c0.7-0.3,1.5-0.6,2.2-0.9s1.5-0.6,2.3-0.9v-0.1
		c-0.9,0.3-1.9,0.3-2.8,0c0.4,0.1,0.4,0.3,0,0.4l-0.4-0.3c0.7-0.4,1.6-0.5,2.4-0.2l0.5-0.3c0.3,0.1,0.3,0.3,0.4,0.5l0.5-0.1
		C287.5,463.8,286.9,463.6,286.3,463.5z"/>
	<path class="st2" d="M277.1,464.5l0.4-0.1h-1.8C276.1,464.7,276.6,464.6,277.1,464.5z"/>
</g>
<g class="st1">
	<path class="st3" d="M374.7,427l-3.3,2.3c0.6-0.3,1.2-0.7,1.8-0.9C373.8,428.1,374.3,427.6,374.7,427z"/>
	<path class="st3" d="M368.4,431.5l-0.6,0.4l-0.5,0.4L368.4,431.5z"/>
	<path class="st3" d="M362.8,435.8c1-0.7,2-1.4,2.9-2.1C364.7,434.3,363.7,435,362.8,435.8z"/>
	<path class="st3" d="M367.5,432.7c-0.4,0.1-0.7,0.1-0.2-0.4l0,0l-1.6,1.3C366.2,433.3,366.8,433,367.5,432.7z"/>
	<path class="st3" d="M367.5,432.7c0.4-0.1,1-0.4,1.3-0.5C368.3,432.4,367.9,432.5,367.5,432.7z"/>
	<path class="st3" d="M368,436.5c-0.5,0.5-0.9-0.4-1.9,0.6c-2.5,2.1-4.5,4.1-7,5.9c-1,1-3.4,1.4-4.4,2.4c-2.5,2.1-8.6,8.1-4.6,5.2
		c6-4.5,9.7-7.5,15-11.6c4.2-3.5,8.1-6.9,12.4-10.5c1.2-1,2.5-1.7,3.7-2.5l-5.1,3.2C373.6,430.7,371.5,433.7,368,436.5z"/>
	<path class="st3" d="M399.1,410.1l-1.5,1.5c-2.9,1.4-5.6,3.3-8,5.5l1.5-0.5c1.5-1.1,1.5-1.5,0-0.7c3.3-1.7,6.4-3.7,9.4-6
		C400.1,409.9,400,409.6,399.1,410.1z"/>
	<path class="st3" d="M402.2,408.6l-1.7,1.4c0,0,0.1,0,0.1,0L402.2,408.6L402.2,408.6z"/>
	<path class="st3" d="M351.3,445.2c-7.5,5.5-14.7,10.6-21.7,15.5c-0.4,0.6-0.9,1.1-1.5,1.4c-0.6,0.3-1.2,0.6-1.8,0.9l-3.1,2.1
		l-1,0.8l0,0c-0.5,0.5-0.3,0.5,0.2,0.4s0.9-0.3,1.3-0.5c-0.2,0.1-0.9,0.3-1.3,0.5c-0.6,0.2-1.3,0.5-1.9,0.8c-0.9,0.6-1.9,1.3-3,1.9
		c0.9-0.7,2-1.3,3-1.9l1.7-1.2l0.5-0.4c-1.2,0.8-2.4,1.5-3.6,2.2s-2.5,1.4-3.7,2.1l-1.5,0.9c-0.8,0.6-1.7,1.1-2.6,1.5
		c-0.7,0.4-1.5,0.6-2.3,0.8l-1.4,0.6l0.3,0c-0.2,0.1-0.4,0.1-0.5,0.2l-3,1.3c-1,0.4-2,0.8-3,1.2c-1.2,0.7-2.5,1.4-3.8,2H296
		c-0.6,0.5-1.4,0.9-2.1,1.2c1.2-0.1,2.3-0.1,3.3-0.3c1.6,0,2.7-2.1,4.6-1.8c-1.9-0.2-3.1,1.8-4.6,1.8c-1,0.1-2.1,0.2-3.3,0.3
		c-1,0.4-2.1,0.8-3.2,1c-1.1,0.2-2.3,0.4-3.4,0.5c1.1-0.5,2.3-0.9,3.5-1.1c1.1-0.2,2.2-0.3,3.1-0.4c0.8-0.3,1.5-0.7,2.1-1.2h1.5
		c1.3-0.6,2.5-1.4,3.8-2c-2,0.7-3.9,1.5-6,2.1l-3,1l-3.1,0.8c-13.1,3.4-26.7,4.6-40.2,3.6c-13.7-1-27.2-4.4-39.7-10.2
		c-13.6-6.3-25.7-15.3-35.8-26.4c-1.2-1.3-2.4-2.7-3.6-4.1l-3.7-4.1l-7.3-8l-14.5-15.7c-9.6-10.4-19.2-21-28.5-32.7
		c-7.2-9-22.2-24.2-29.8-32.2c-11.3-9.7-9-1.3-8.7-0.6c3.7,9,10,12.9,21.2,27.9c-7.8-10,8,5.3,14.5,15.6
		c9.2,15.1,28.2,31.1,42.1,47.2c1.7,2,3.6,4,5.6,6.1l3,3.2l1.6,1.7l1.7,1.8c11.5,12.6,25.8,22.4,41.7,28.7
		c16.2,6.4,33.6,9.5,51.1,9.2c9.7-0.2,18-2.4,25.6-4.7l8.6-2.2c2.8-0.8,5.5-1.6,7.6-2.5c6.3-2.4,12.2-5.6,17.8-9.4l-4.2,2.5
		c-1.3,0.8-2.7,1.5-4,2.2s-2.8,1.4-4.3,2.1l-2.3,1.1l-2.5,1.1c-4.8,1.9,2.9-2.4,5.8-4.1c1.2-0.7,3.7-0.8,4.9-1.7
		c1.4-0.7,2.7-1.5,4-2.4c1.3-0.9,2.6-1.8,3.9-2.8c1.1-1,1.5,0,2-0.5c1.7-1.2,3.2-2.6,4.7-4c1.1-1.2,2.3-2.2,3.7-3.1l5.1-3.2
		c1-0.7,2-1.3,3-2.1l1.8-1.6c-0.5,0.1-1,0.1-1.5-0.2c1-0.6,2.5-1.5,3.5-2.1c-1,0.6-2.5,1.5-3.5,2.1c0.5,0.2,1,0.3,1.5,0.2
		c4.4-3.9,9.6-8.3,14.5-12.3h-0.1c-2.9,2.3-6.1,4.3-9.4,6c1.5-0.8,1.5-0.5,0,0.7l-1.5,0.5c2.4-2.2,5-4.1,7.9-5.5l1.5-1.5
		c0.9-0.5,1.1-0.2,1.4-0.2l1.7-1.3C355.1,443.2,353.2,444.2,351.3,445.2z"/>
	<path class="st3" d="M320.3,467.2l1.5-1c-2,1.2-4,2.5-6.2,3.6c0.8-0.2,1.6-0.5,2.2-0.9C318.6,468.4,319.5,467.8,320.3,467.2z"/>
</g>
<g class="st1">
	<path class="st3" d="M465.6,436.9l3.2,2.4c-0.5-0.5-1-0.9-1.4-1.5C466.9,437.4,466.3,437.1,465.6,436.9z"/>
	<path class="st3" d="M471.9,441.6l0.6,0.4l0.5,0.3L471.9,441.6z"/>
	<path class="st3" d="M477.7,445.5c-1-0.8-2-1.4-2.9-2C475.7,444.2,476.7,444.9,477.7,445.5z"/>
	<path class="st3" d="M473.3,442c0.3,0.4,0.4,0.6-0.3,0.3l0,0l1.8,1.1C474.3,443,473.8,442.5,473.3,442z"/>
	<path class="st3" d="M473.3,442c-0.3-0.4-0.7-0.9-0.9-1C472.7,441.3,473,441.7,473.3,442z"/>
	<path class="st3" d="M476.7,440.3c0.6,0.3-0.1,1,1.2,1.6c2.8,1.7,5.4,3,7.8,4.8c1.3,0.6,2.4,2.8,3.7,3.4c2.8,1.7,10.4,5.6,6.4,2.7
		c-6.1-4.2-10.2-6.9-15.7-10.6c-4.6-2.9-9.1-5.5-13.8-8.5c-1.3-0.9-2.4-1.8-3.6-2.7l4.6,3.9C469.5,436.8,473,437.9,476.7,440.3z"/>
	<path class="st3" d="M441.9,419.1l1.9,1c2.3,2.3,4.9,4.3,7.8,5.8l-0.9-1.2c-1.6-1-1.9-1-0.7,0.2c-2.7-2.6-5.6-4.9-8.7-7
		C441.4,418.2,441.2,418.4,441.9,419.1z"/>
	<path class="st3" d="M439.5,416.6l1.8,1.2c0,0,0-0.1,0-0.1L439.5,416.6L439.5,416.6z"/>
	<path class="st3" d="M490.3,453.5c7.6,5.4,14.7,10.6,21.6,15.7c0.7,0.2,1.3,0.5,1.8,0.9c0.4,0.5,0.9,1,1.4,1.5l3.1,2.2l1.1,0.7l0,0
		c0.7,0.3,0.6,0,0.3-0.3c-0.3-0.3-0.6-0.6-0.9-1l0.9,1c0.5,0.5,1,0.9,1.6,1.3c1,0.5,2,1.2,3.1,1.9c-1.1-0.5-2.1-1.2-3.1-1.9l-1.9-1
		l-0.6-0.3c1.2,0.8,2.4,1.6,3.6,2.4s2.4,1.5,3.7,2.2l1.6,0.8c0.9,0.5,1.9,0.9,2.7,1.3c0.7,0.3,1.4,0.8,2,1.4l1.4,0.7l-0.2-0.2
		l0.5,0.3l2.9,1.4c1,0.5,2,0.9,3,1.3c1.4,0.3,2.8,0.7,4.2,1l1.2,0.9c0.8,0,1.6,0.1,2.4,0.3c-1-0.6-1.9-1.3-2.8-1.8
		c-1.2-0.9-3.4-0.3-4.6-1.7c1.3,1.5,3.4,0.8,4.6,1.7c0.9,0.5,1.8,1.1,2.8,1.8c1,0.3,2.1,0.6,3.2,1c1.1,0.4,2.2,0.9,3.2,1.4
		c-1.2-0.2-2.4-0.5-3.6-0.9c-1-0.4-2-0.9-2.9-1.5c-0.8-0.2-1.6-0.3-2.4-0.3l-1.2-0.9c-1.4-0.4-2.8-0.7-4.2-1c2,0.8,3.9,1.7,6,2.4
		l3.1,1.1l3.1,1c13.3,4,27.2,5.7,41.1,4.8c14.2-0.9,28.1-4.1,41.2-9.7c14.4-6.1,27.6-14.7,38.9-25.5c1.4-1.3,2.7-2.6,4-3.9l3.8-3.9
		l7.5-7.8l14.7-15.5c9.8-10.2,19.8-20.4,30.9-30.5c8.5-7.8,22.7-23.6,30.2-31.8c9-11.9,0.7-9.1,0.1-8.8
		c-8.8,4.2-12.3,10.8-26.5,22.9c9.5-8.4-4.8,8.4-14.7,15.4c-14.5,10.1-29.3,30.1-44.5,45c-1.9,1.9-3.8,3.9-5.8,6l-3,3.2l-1.6,1.7
		l-1.6,1.6c-5.6,5.3-11.7,10.2-18.1,14.5c-6.3,4.3-13.1,8-20.1,11c-7.1,3.1-14.6,5.4-22.2,7c-7.9,1.6-16,2.3-24.1,2
		c-8,0-16.1-0.5-24-1.7c-2.7-0.6-5.3-1.3-7.9-2.2c-2.5-1-4.9-1.8-7-2.7c-6.5-2.5-12-4.9-17.2-7.4l4.1,2.1c1.3,0.7,2.6,1.2,3.9,1.8
		s2.7,1.1,4.1,1.7l2.2,0.9l2.4,0.9c4.5,1.7-3.6,0-6.6-1.1c-1.4-0.3-2.8-2.3-4.1-2.7c-1.3-0.6-2.6-1.2-4-1.8s-2.7-1.1-4.2-1.9
		c-1.3-0.5-0.6-1.3-1.3-1.5c-1.9-1-3.7-1.9-5.3-2.6c-1.5-0.6-2.9-1.4-4.1-2.4l-4.6-3.9c-1-0.8-1.9-1.5-3-2.2l-2.1-1.2
		c0.3,0.4,0.4,1,0.3,1.5c-0.9-0.7-2.1-1.9-3.1-2.6c0.9,0.7,2.2,1.9,3.1,2.6c0.1-0.5,0-1-0.3-1.5c-5.1-3-10.9-6.5-16.3-9.9v0.1
		c3.1,2.1,6,4.4,8.7,7c-1.2-1.1-0.9-1.2,0.7-0.2l0.9,1.2c-2.9-1.5-5.5-3.5-7.8-5.8l-1.9-1c-0.8-0.7-0.5-0.9-0.6-1.3l-1.8-1.2
		C486.7,450.1,490.3,453.5,490.3,453.5z"/>
	<path class="st3" d="M521.2,475.5l-1.5-0.9c2,1.3,4,2.7,6.1,3.8c-0.6-0.6-1.2-1.1-1.9-1.5C523,476.5,522.1,476,521.2,475.5z"/>
</g>
</svg>
