<?xml version="1.0" encoding="utf-8"?>
<!-- Generator: Adobe Illustrator 25.0.0, SVG Export Plug-In . SVG Version: 6.00 Build 0)  -->
<svg version="1.1" id="Layer_1" xmlns="http://www.w3.org/2000/svg" xmlns:xlink="http://www.w3.org/1999/xlink" x="0px" y="0px"
	 viewBox="0 0 841.9 841.9" style="enable-background:new 0 0 841.9 841.9;" xml:space="preserve">
<style type="text/css">
	.st0{fill:#423228;}
	.st1{opacity:0.85;}
	.st2{fill:#FEFEFE;}
	.st3{fill:#DDD9D9;}
</style>
<rect class="st0" width="841.9" height="841.9"/>
<g class="st1">
	<path class="st2" d="M437.3,370.8c0.1,0.9,0.3,1.8,0.4,2.7l0.5,2.7c-0.1-0.9-0.2-1.8-0.2-2.7C437.9,372.5,437.7,371.6,437.3,370.8z
		"/>
	<path class="st2" d="M439.3,381l0.2,1c0.1,0.3,0.2,0.5,0.3,0.8C439.6,382.2,439.4,381.6,439.3,381z"/>
	<path class="st2" d="M441.8,390.1c-0.4-1.6-0.8-3.2-1.2-4.6C440.9,387,441.3,388.6,441.8,390.1z"/>
	<path class="st2" d="M440.2,382.8c0,0.6-0.1,0.9-0.4,0l0,0l0.8,2.7C440.4,384.5,440.2,383.6,440.2,382.8z"/>
	<path class="st2" d="M440.2,382.8c0-0.6-0.1-1.5-0.1-1.8C440.1,381.6,440.1,382.2,440.2,382.8z"/>
	<path class="st2" d="M444.1,384.3c0.3,0.9-0.6,0.9,0,2.6c0.4,1,0.7,2,1,3s0.7,1.9,1.1,2.8c0.7,1.9,1.4,3.7,2,5.6
		c0.8,1.7,0.8,4.8,1.6,6.5c1.2,2.6,2.5,5.2,3.9,7.6c1.3,2.2,2,3.1,0.7,0.1l-2.7-6.2c-0.8-2-1.5-3.8-2.2-5.7c-0.3-0.9-0.7-1.8-1-2.8
		l-0.9-2.8c-0.6-1.9-1.3-3.8-1.9-5.9c-0.5-1.7-1.1-3.4-1.6-5.1l-0.8-2.5l-0.7-2.6c-0.5-1.7-0.9-3.4-1.4-5.2
		c-0.5-1.7-0.8-3.5-1.2-5.3c-0.4-2-0.7-3.9-0.9-5.9c0.2,2.5,0.5,5.1,0.9,8c0.3,2.1,0.8,4.2,1.6,6.1
		C442.3,378.9,443.2,381.4,444.1,384.3z"/>
	<path class="st2" d="M434.3,331.1c0.1,0.9,0.3,2.8,0.3,2.8c-0.3,2.1-0.4,4.3-0.2,6.4c0.1,2.2,0.3,4.4,0.6,6.6
		c0.1-0.6,0.2-1.3,0.3-2c-0.2-2.5-0.4-2.8-0.6-0.5c0.2-2.6,0.2-5.1,0.2-7.5s0.1-4.9,0-7.4C434.8,329.7,434.5,329.7,434.3,331.1z"/>
	<path class="st2" d="M435,326.5c0,1,0,2,0.1,2.9l0.1-0.1c0-1-0.1-2-0.1-2.9L435,326.5z"/>
	<path class="st2" d="M449,408.8c4.3,11.1,9.6,21.8,15.8,32c0.7,0.6,1.2,1.3,1.7,2.1c0.3,0.8,0.7,1.7,1.1,2.5
		c0.9,1.4,1.9,2.8,2.8,4.2l1.1,1.4l0,0c0.6,0.7,0.6,0.4,0.4-0.2s-0.5-1.1-0.7-1.6c0.1,0.3,0.5,1.1,0.7,1.6c0.4,0.8,0.8,1.6,1.4,2.4
		c1,1.2,2,2.4,2.9,3.8c-1-1.2-2-2.5-2.9-3.8c-0.6-0.7-1.2-1.5-1.8-2.2l-0.5-0.6l1.6,2.4l1.7,2.3l3.4,4.6l1.6,1.8
		c1.7,1.7,3.2,3.6,4.6,5.6l1.4,1.5c-0.1-0.1-0.1-0.2-0.2-0.4c0.2,0.2,0.3,0.5,0.5,0.6l2.9,3.2l3.1,3.1c1.5,1.2,3,2.4,4.6,3.5
		l1.1,1.6c1,0.5,1.9,1.1,2.7,1.8c-1-1.3-1.8-2.4-2.7-3.5c-0.7-0.8-1.5-1.5-2.5-2c-1-0.6-1.8-1.5-2.4-2.5c0.5,1,1.4,1.9,2.4,2.5
		c1,0.5,1.8,1.2,2.5,2c0.9,1,1.7,2.2,2.7,3.5c2.5,1.8,4.7,3.9,6.8,6.1c-2.6-1.6-4.9-3.7-6.8-6.1c-0.8-0.7-1.8-1.3-2.7-1.8l-1.1-1.6
		c-1.6-1.1-3.1-2.4-4.6-3.5c1,1,2,2,3,3l3.2,2.9c2.1,2,4.4,3.8,6.6,5.7c14.4,11.8,30.9,20.5,48.7,25.8c18.2,5.3,37.4,6.8,56.3,4.2
		c20.7-2.8,40.5-10,58.2-21.1c17.2-10.7,31.3-24.5,43-40c5.9-7.8,11.2-16,16.1-24.4c4.9-8.8,9.4-17.8,13.3-27
		c3.9-9.4,6.8-19.1,8.8-29c2-9.8,3.3-19.7,4-29.6c0-2.1-0.1-4.2-0.3-6.3c-0.1-1.3-0.4-2.6-0.7-3.9c-0.5-1.9-1.2-2.4-1.8-2.3
		c-1.3,0.2-2.5,3-2.6,3.4c-0.9,2.9-1.7,5.8-2.2,8.8c-0.6,2.9-0.9,6-1.5,9.4c-0.3,1.7-0.5,3.5-0.8,5.5s-0.8,4-1.2,6.2
		c-0.2,1.1-0.5,2.2-0.7,3.4s-0.6,2.4-1,3.7c-0.7,2.5-1.4,5.3-2.5,8.1c1.4-4,1.8-5.2,1.9-4.5c0,0.8,0,1.5-0.2,2.3
		c-0.2,1.1-0.5,2.6-1,4.4c-1,4.2-2.3,8.2-3.7,12.2c-1.6,4.2-3.5,8.2-5.8,12.1c-6,9.8-12.1,21.9-19.9,33.9l-3,4.5
		c-1,1.5-2.1,2.9-3.2,4.4c-2.1,3-4.4,5.8-6.7,8.6c-4.5,5.5-9.6,10.5-15,15.1c-2.6,2.3-5.4,4.4-8.3,6.8c-1.5,1.1-3,2.2-4.6,3.4
		c-0.8,0.6-1.6,1.2-2.4,1.7l-2.5,1.6c-18.1,11.2-37.5,18.5-58,21.1c-10.4,1.3-20.9,1.3-31.2,0.1c-10.8-1.3-21.4-4.1-31.4-8.2
		c-10.9-4.5-20.4-9-28.9-14.4c-1.5-1.1-3.1-2.1-4.5-3.3l-4.3-3.5c-1.4-1.2-2.6-2.4-3.9-3.6s-2.5-2.2-3.5-3.3
		c-6.2-5.8-12-11.9-17.6-18.3c0.7,0.9,1.3,1.7,2,2.5l2,2.3c0.7,0.7,1.3,1.5,2,2.2s1.3,1.5,2,2.1l4.2,4.3c1.5,1.5,3.1,3,4.9,4.6
		c2.3,2.2,1.3,1.7-0.7,0.2c-2.3-1.7-4.5-3.5-6.6-5.4c-0.8-0.8-1.5-1.7-2-2.6c-0.6-1-1.2-1.8-2-2.7c-1.3-1.5-2.6-2.9-4-4.3
		s-2.7-2.9-4.1-4.6c-1.3-1.4-0.4-1.8-1-2.4c-1.8-2.3-3.5-4.3-5.1-6c-1.4-1.6-2.7-3.3-3.7-5.1c-1.5-2.5-2.5-4.8-3.7-7.1l-2.3-4.3
		c-0.5-0.9-1.1-1.8-1.7-2.8c0.1,0.6,0,1.2-0.2,1.8c-0.7-1.4-1.5-3.5-2.1-4.9c0.6,1.4,1.5,3.5,2.1,4.9c0.3-0.5,0.4-1.2,0.2-1.8
		l-1.6-2.6c-0.5-0.9-1-1.8-1.5-2.7c-1-1.8-2-3.7-3-5.6c-1.8-3.9-3.8-7.8-5.3-11.7l0,0.1c0.4,1.1,0.9,2.3,1.3,3.5s0.9,2.3,1.3,3.4
		s0.8,2.3,1.2,3.5c0.2,0.6,0.4,1.2,0.6,1.8s0.4,1.2,0.6,1.8c-0.7-2.1-0.4-2,0.7,0.3c0.1,0.6,0.2,1.3,0.4,2c-2.2-3.8-3.8-7.8-4.9-12
		c0,0-0.8-1.7-1.2-2.5c-0.3-1.4,0-1.4,0.1-1.8c-0.3-0.9-0.7-1.8-1-2.7c0.1,1,0.6,3.1,1,5c0.2,0.9,0.4,1.8,0.6,2.4
		S449,408.8,449,408.8z"/>
	<path class="st2" d="M473.2,453.3c-0.4-0.5-0.9-1.2-1.5-1.9c0.9,1.4,1.9,2.6,2.8,3.9l2.9,3.9C476.8,457.6,475,455.5,473.2,453.3z"
		/>
</g>
<g class="st1">
	<path class="st2" d="M622.4,437.4c0.1-0.6,0.1-1.2,0.1-1.8c0,0.3-0.2,0.6-0.3,0.9C622,436.9,622.2,437.1,622.4,437.4z"/>
	<path class="st2" d="M622.4,434c0-0.1,0-0.2,0-0.3c0-0.1-0.1-0.2-0.1-0.3C622.4,433.6,622.4,433.8,622.4,434z"/>
	<path class="st2" d="M621.8,430.9c0.1,0.5,0.2,1.1,0.3,1.6C622.1,431.9,622,431.4,621.8,430.9z"/>
	<path class="st2" d="M621.9,433.4c0.1-0.2,0.2-0.3,0.4,0l0,0c-0.1-0.3-0.2-0.6-0.3-0.9C622,432.8,622,433.1,621.9,433.4z"/>
	<path class="st2" d="M621.9,433.4c-0.1,0.2-0.2,0.5-0.3,0.6C621.7,433.8,621.8,433.6,621.9,433.4z"/>
	<path class="st2" d="M618.4,433c-0.2-0.2,0.8-0.3,0.5-0.8c-0.2-0.6-0.5-1.2-0.8-1.7c-0.3-0.5-0.5-1.1-0.7-1.6
		c-0.4-0.4,0.4-1.6-0.1-2c-0.5-0.7-1.2-1.3-1.9-1.9c-0.7-0.5-1.1-0.5-0.6,0.2c0.7,1,1.2,2.1,1.8,3.2c0.2,0.5,0.5,1,0.7,1.5
		s0.4,1.1,0.6,1.7S618.2,432.6,618.4,433c0.1,0.6,0.3,1.1,0.4,1.6c0.1,0.5,0.2,1,0.4,1.6s0.1,1.1,0.2,1.6c0,0.6-0.1,1.2-0.3,1.8
		c0.1-0.4,0.3-0.7,0.4-1.1s0.2-0.8,0.3-1.2c0.1-0.7,0-1.4-0.4-1.9C619,434.5,618.7,433.8,618.4,433z"/>
	<path class="st2" d="M618.1,449.7l0.2-1c0.6-0.4,1-1,1.3-1.7c0.3-0.7,0.5-1.4,0.5-2.1l-0.7,0.4c-0.2,0.8,0,1,0.4,0.4
		c-1,1.2-1.9,2.6-2.7,4C617.5,449.9,617.7,450,618.1,449.7z"/>
	<path class="st2" d="M616.8,450.7c0.1-0.3,0.3-0.6,0.4-0.8h-0.1L616.8,450.7L616.8,450.7z"/>
	<path class="st2" d="M618.9,425c-0.4-0.9-0.9-1.8-1.4-2.6c-0.5-0.8-1.1-1.6-1.7-2.4s-1.2-1.5-1.9-2.1s-1.3-1.3-2.1-1.9
		c-0.3,0-0.6,0-0.9-0.3c-0.1-0.3-0.3-0.6-0.5-0.8c-0.4-0.4-0.9-0.6-1.3-0.9l-0.5-0.2l0,0c-0.3-0.1-0.3,0.1-0.2,0.3
		c0.1,0.2,0.2,0.4,0.3,0.6c0-0.1-0.2-0.4-0.3-0.6c-0.2-0.3-0.4-0.5-0.6-0.7c-0.5-0.2-1-0.4-1.4-0.6c0.5,0.1,1,0.3,1.4,0.6l0.8,0.4
		l0.3,0.1c-1-0.7-2.1-1.3-3.2-1.8c-0.2-0.1-0.5-0.2-0.8-0.2c-0.8-0.1-1.6-0.4-2.1-1l-0.6-0.2l0.1,0.1c-0.1,0-0.2-0.1-0.2-0.1
		c-0.9-0.3-1.8-0.6-2.7-0.8c-0.6,0.1-1.3,0.1-1.9,0.2l-0.6-0.5c-0.3,0.2-0.7,0.3-1.1,0.4c0.5,0.3,0.9,0.7,1.3,0.9
		c0.5,0.5,1.5-0.7,2.1,0.3c-0.5-1-1.5,0.2-2.1-0.3c-0.4-0.2-0.8-0.6-1.3-0.9c-1,0.1-2-0.2-2.9-0.6c1-0.3,2.1-0.1,2.9,0.6
		c0.4,0,0.8-0.2,1.1-0.4l0.6,0.5c0.6,0,1.3-0.1,1.9-0.2c-0.9-0.2-1.8-0.4-2.8-0.6c-0.9-0.2-1.9-0.3-2.8-0.3
		c-6.2-0.6-12.4,1-17.6,4.4c-2.6,1.8-4.8,4.1-6.5,6.8c-0.9,1.4-1.6,2.8-2.2,4.3l-0.8,2.3c-0.3,0.8-0.4,1.6-0.6,2.4
		c-0.8,3.4-1.2,6.9-1.1,10.5c0.1,3.5,0.6,6.9,1.4,10.3c0.9,3.4,2.4,6.6,4.5,9.4c2.1,3,4.9,5.4,8.2,7c3.3,1.6,6.8,2.6,10.5,2.9
		c3.7,0.3,7.4,0.2,11-0.3c3.6-0.7,7.1-2.1,10.2-4.1c0.8-0.6,1.7-1.1,2.5-1.7s1.5-1.2,2.2-1.9l1.9-1.9c0.6-0.6,1.1-1.2,1.6-1.8
		c0.2-0.4,0.4-0.8,0.6-1.2c0.1-0.3,0.2-0.7,0.3-1.1c0.1-0.5,0.2-1.1,0.1-1.6c-0.1-0.7-0.5-1.4-1.1-1.7c-0.8-0.4-1.8-0.6-2.7-0.5
		c-0.6,0.1-1.1,0.3-1.7,0.5c-0.5,0.2-0.9,0.3-1.4,0.6c-0.4,0.2-0.8,0.5-1.2,0.8c-0.4,0.2-0.8,0.5-1.2,0.9c-0.9,0.7-1.9,1.4-2.9,2
		c-1.4,0.8-2.9,1.3-4.5,1.6c2.4-0.7,2,0.2,0.1,1.4c-1.1,0.6-2.4,1.1-3.6,1.3c-1.3,0.3-2.7,0.3-4.1,0c-3.5-1.1-6.9-1.2-10.2-2
		c-1.7-0.4-3.2-1.1-4.6-2.1c-0.7-0.5-1.4-1.1-2-1.8c-0.3-0.3-0.6-0.7-0.8-1.1c-0.3-0.4-0.5-0.8-0.7-1.2c-0.4-0.9-0.9-1.6-1.3-2.5
		c-0.2-0.5-0.5-0.9-0.7-1.4s-0.4-1-0.6-1.6c-0.7-2.9-1.1-5.8-1.2-8.7c-0.2-2.8,0-5.7,0.6-8.5c0.5-2.6,1.5-5.1,3-7.3
		c1.6-2.2,3.8-3.9,6.3-4.9c2.7-1.2,5.4-2.6,8.2-3.2c0.5-0.1,1.1-0.1,1.6,0c0.5,0,1.1,0.1,1.6,0.2c1,0.2,2,0.4,2.8,0.6
		c2.6,0.4,4.9,0.9,7.1,1.4c-2.2-0.8-4.5-1.3-6.9-1.6c-0.9-0.1-0.5-0.4,0.2-0.6c0.4-0.1,0.9-0.2,1.3-0.3c0.4,0,0.8,0,1.3,0
		c0.6,0,1.1,1.2,1.7,1.2c0.5,0.2,1.1,0.3,1.7,0.4c0.6,0.1,1.2,0.2,1.8,0.4s0.1,0.9,0.4,0.9c0.8,0.3,1.6,0.5,2.4,0.5
		c0.6,0.1,1.2,0.3,1.7,0.8c0.5,0.6,1,1.2,1.5,1.9c0.3,0.3,0.6,0.7,0.9,1l0.8,0.5c0.1-0.4,0.2-0.7,0.5-1c0.1,0.2,0.3,0.5,0.4,0.7
		c0.1,0.3,0.2,0.5,0.3,0.8c-0.1-0.2-0.2-0.5-0.3-0.8c-0.1-0.2-0.3-0.5-0.4-0.7c-0.2,0.3-0.4,0.6-0.5,1c2,1.6,3.8,3.5,5.1,5.7
		l0.1-0.1c-0.4-0.7-0.7-1.4-0.9-2.1c-0.3-0.7-0.5-1.5-0.7-2.3c0.2,0.7-0.1,0.8-0.5,0.1c0-0.3,0.1-0.5,0.1-0.8c0.5,0.5,1,1,1.3,1.6
		c0.4,0.6,0.6,1.3,0.5,2l0.7,0.7c0.1,0.5-0.2,0.5-0.5,0.7c0.1,0.3,0.2,0.5,0.4,0.8c0.1-0.6,0.2-1.2,0.1-1.7
		C619,425.5,618.9,425,618.9,425z"/>
	<path class="st2" d="M607.8,413.3c0.2,0.1,0.5,0.2,0.7,0.3c-0.4-0.3-0.9-0.6-1.3-0.8l-1.4-0.7C606.1,412.8,606.9,413.1,607.8,413.3
		z"/>
</g>
<circle class="st3" cx="593.8" cy="437.3" r="9.2"/>
<g class="st1">
	<path class="st2" d="M595.8,429.6l0.5,0.2c-0.1-0.1-0.1-0.3-0.1-0.4C596,429.3,595.9,429.5,595.8,429.6z"/>
	<path class="st2" d="M596.7,430L596.7,430l0.2,0L596.7,430z"/>
	<path class="st2" d="M597.5,430.2c-0.1-0.1-0.3-0.2-0.4-0.2C597.2,430.1,597.4,430.2,597.5,430.2z"/>
	<path class="st2" d="M597,429.7c0,0.1,0,0.3-0.2,0.4l0,0h0.3C597.1,429.9,597,429.8,597,429.7z"/>
	<path class="st2" d="M597,429.7c0-0.1,0-0.3,0-0.4C597,429.4,597,429.5,597,429.7z"/>
	<path class="st2" d="M598.6,426.6c0.2,0-0.3,0.8,0,0.7c0.6-0.1,1.2,0,1.8,0.2c0.3,0,0,1.1,0.3,1c0.5,0.1,1,0.1,1.5,0.1
		c0.5,0,0.8-0.1,0.5-0.4c-1-0.7-2.1-1.3-3.3-1.7c-1-0.1-2.1-0.1-3.1,0.1c-0.3,0-0.5-0.1-0.7-0.2c0.3,0.2,0.6,0.4,0.9,0.6
		s0.5,0,0.9-0.2C597.7,426.7,598.2,426.6,598.6,426.6z"/>
	<path class="st2" d="M592.1,429l0.2-0.4c0.5,0.6,0.9,0.3,1.3,0l-0.2-0.5c-0.3,0.1-0.3,0.3,0,0.5c-0.4-0.5-1.1-0.6-1.6-0.3
		C591.8,428.6,591.9,428.9,592.1,429z"/>
	<path class="st2" d="M591.5,428.5l0.3-0.1v-0.1L591.5,428.5L591.5,428.5z"/>
	<path class="st2" d="M599.7,430.5c1,0.8,1.7,1.8,2.1,3c0.2,0,0.4,0,0.4,0.1c-0.1,0.1-0.2,0.2-0.2,0.4c0,0.2,0.1,0.3,0.1,0.5
		l0.1,0.1l0,0c0.1,0,0.3,0,0.4-0.1c0.1-0.1,0.2-0.2,0.3-0.3c-0.1,0.1-0.2,0.2-0.3,0.3c-0.1,0.1-0.1,0.2-0.2,0.4
		c0.1,0.1,0.2,0.3,0.2,0.5c-0.1-0.1-0.2-0.3-0.2-0.5c-0.1-0.1-0.1-0.2-0.2-0.2l-0.1,0c0.1,0.4,0.1,0.8,0.2,1.1l0.1,0.2
		c0.2,0.2,0.3,0.5-0.1,0.7v0.2l0.1,0l-0.1,0.1c0,0.3-0.1,0.6-0.1,0.8c0.2,0.2,0.4,0.4,0.5,0.6l-0.5,0.1c0.2,0.1,0.3,0.2,0.4,0.4
		c0.3-0.1,0.6-0.2,0.9-0.3c0.5-0.2-0.9-0.6,0-0.7c-0.9,0.2,0.5,0.6,0,0.7c-0.3,0.1-0.6,0.2-0.9,0.3c0.1,0.3-0.2,0.6-0.7,0.8
		c-0.3-0.4,0.2-0.6,0.7-0.8c-0.1-0.2-0.2-0.3-0.4-0.4l0.5-0.1c-0.1-0.2-0.3-0.4-0.5-0.6c-0.1,0.5-0.3,1.1-0.5,1.6
		c-0.7,1.5-1.7,2.8-3.1,3.8c-1.3,0.9-2.9,1.3-4.5,1.2c-1.6-0.2-3-1.2-3.8-2.6c-0.3-0.6-0.6-1.2-0.8-1.7c-0.3-0.5-0.4-1.1-0.5-1.7
		c-0.1-0.6,0-1.1,0.3-1.6c0.3-0.6,0.9-0.9,1.6-1c0.4-0.1,0.8-0.3,1.1-0.6c0.2-0.3,0.5-0.5,0.8-0.7c0-1.2-0.2-2.4-0.5-3.5
		c-0.2-0.8-0.5-1.6-1-2.3c-0.4-0.6-0.9-1-1.6-1.3c-0.5-0.2-0.9-0.2-1.4,0c-0.9,0.3-1.9,0.9-3.9,1.5c1.3-0.5,1.3,0.2,0.8,1
		c-0.8,1.1-1.9,2-3.2,2.5c-2.4,0.9-3.2,3.6-2.8,6.1s1.7,4.8,2.7,7c0.6,1.2,1.5,2.2,2.5,3c2.6,2.9,6.5,4.3,10.4,3.8
		c3.9-0.5,7.4-2.3,10.1-5.2c1.4-1.6,1.6-3.7,1.7-5.4c0.2-1.1,1-2.3,1-3.3c0.1-1.4-0.2-2.8-1-4c0.5,1.2,0.8,2.5,0.8,3.9
		c0,0.5-0.3,0.3-0.6-0.1c-0.3-0.4-0.6-0.8-0.8-1.3c-0.2-0.2,0.8-0.7,0.6-1c-0.1-0.6-0.6-1.1-1-1.6c-0.3-0.2,0.7-0.4,0.5-0.5
		c-0.3-0.4-0.7-0.7-1.1-0.8c-0.4-0.2-0.8-0.4-0.7-0.6s-0.1-0.8-0.1-1.2c-0.1-0.2-0.2-0.4-0.3-0.6l-0.5-0.2c-0.2,0.3-0.4,0.5-0.7,0.7
		c-0.1-0.2-0.1-0.5-0.2-0.7c0.1,0.2,0.1,0.5,0.2,0.7c0.3-0.2,0.5-0.5,0.7-0.7c-1-0.5-2.2-1-3.3-1.3v0.1c0.6,0.3,0.9,0.9,0.9,1.5
		c0-0.3,0.2-0.5,0.4-0.3L601,431c-0.5-0.2-1-0.3-0.9-1.1l-0.5,0.1c0-0.2,0.2-0.4,0.3-0.7c-0.1-0.1-0.2-0.1-0.3-0.1
		c0,0.3,0,0.6,0,0.9L599.7,430.5z"/>
	<path class="st2" d="M602.4,434.9l-0.2-0.2c0.1,0.3,0.1,0.7,0.1,1C602.8,435.4,602.6,435.2,602.4,434.9z"/>
</g>
<g class="st1">
	<path class="st2" d="M402,367.9l-0.5,2.6l-0.6,2.6c0.3-0.9,0.6-1.7,0.9-2.6C402.1,369.7,402.1,368.8,402,367.9z"/>
	<path class="st2" d="M399.8,378c-0.1,0.3-0.1,0.6-0.2,0.9s-0.1,0.6-0.1,0.8C399.6,379.2,399.7,378.6,399.8,378z"/>
	<path class="st2" d="M397.8,387.1c0.5-1.6,0.8-3.1,1.2-4.6C398.5,384,398.1,385.5,397.8,387.1z"/>
	<path class="st2" d="M399.9,380c-0.3,0.5-0.5,0.8-0.4-0.2l0,0c-0.2,0.9-0.4,1.8-0.6,2.8C399.2,381.5,399.6,380.7,399.9,380z"/>
	<path class="st2" d="M399.9,380c0.3-0.5,0.6-1.3,0.7-1.6C400.4,378.8,400.1,379.4,399.9,380z"/>
	<path class="st2" d="M402.6,383.1c-0.1,1-1,0.5-1.3,2.4c-0.2,1.1-0.4,2.1-0.6,3.2s-0.5,2-0.7,3c-0.5,2-0.9,3.9-1.5,5.9
		c-0.4,1.9-2.4,4.3-2.9,6.2c-0.5,2.2-1.8,5.9-2.4,8.5s-0.8,3.7,0.4,0.6c0.9-2.4,1.7-4.5,2.5-6.6s1.3-4,2-6c0.3-1,0.6-1.9,0.9-2.9
		s0.5-1.9,0.8-2.9c0.5-2,1.2-4,1.7-6.2c0.4-1.8,0.7-3.6,1.1-5.4l0.5-2.7l0.4-2.7c0.3-1.8,0.6-3.6,0.9-5.4c0.3-1.8,0.5-3.6,0.7-5.5
		c0.3-2.1,0.8-4,1.1-5.9c-0.5,2.5-1.1,5.1-1.8,8c-0.4,2.1-0.7,4.3-0.9,6.4C403.5,377.7,403.1,380.4,402.6,383.1z"/>
	<path class="st2" d="M406,328.7c0.1,0.9,0.3,2.8,0.3,2.8c-0.3,2.1-0.5,4.2-0.6,6.4c-0.1,2.2,0,4.4,0,6.5c0.2-0.6,0.4-1.3,0.6-1.9
		c0.1-2.5-0.2-2.8-0.5-0.6c0.4-2.5,0.7-5,0.9-7.5s0.1-4.9,0.1-7.4C406.5,327.4,406.2,327.3,406,328.7z"/>
	<path class="st2" d="M406.7,324.1c0,1,0,2,0.1,2.9c0,0,0.1-0.1,0.1-0.1c0-1-0.1-2-0.1-2.9L406.7,324.1z"/>
	<path class="st2" d="M392.4,406.2c-4.3,11.1-9.6,21.7-15.9,31.8c-0.2,0.9-0.6,1.7-1.2,2.4c-0.6,0.7-1.2,1.4-1.7,2.1
		c-0.9,1.4-1.9,2.7-2.9,4.1l-1,1.5l0,0c-0.4,0.8-0.2,0.7,0.3,0.3s0.9-0.9,1.3-1.2c-0.3,0.2-0.9,0.9-1.3,1.2c-0.6,0.6-1.1,1.3-1.8,2
		c-0.9,1.2-1.8,2.5-2.9,3.8c0.9-1.3,1.8-2.6,2.9-3.8c0.6-0.8,1-1.6,1.5-2.4l0.4-0.7l-1.7,2.3l-1.7,2.4l-3.5,4.5
		c-0.5,0.7-1,1.3-1.5,1.9c-1.7,2.2-3.3,4.4-4.8,5.3l-1.4,1.5l0.3-0.2l-0.6,0.5l-3,3.1l-3.1,3c-1.2,1.4-2.4,3-3.8,4.3l-1.8,0.9
		c-0.6,0.9-1.3,1.7-2.1,2.5c1.4-0.8,2.6-1.5,3.7-2.2c0.9-0.6,1.7-1.4,2.2-2.3c0.6-1,1.5-1.8,2.6-2.3c-1.1,0.5-1.9,1.3-2.6,2.3
		c-0.6,0.9-1.4,1.7-2.2,2.3c-1.1,0.7-2.4,1.4-3.7,2.2c-2.2,2.1-4.7,3.8-7.4,5.3c2.2-2.1,4.7-3.9,7.4-5.3c0.8-0.7,1.5-1.6,2.1-2.5
		l1.8-0.9c1.4-1.4,2.6-2.9,3.8-4.3c-1,1-2,2-3.1,2.9l-3.2,2.8c-2.1,1.9-4.4,3.6-6.7,5.4c-7.3,5.5-15,10.3-23.2,14.5
		c-8,4.1-16.4,7.4-25.1,9.8c-17.8,5-36.4,6.2-54.7,3.3c-19.8-3.2-38.7-10.9-55.1-22.5c-15.5-10.8-29.1-24-40.3-39.1
		c-5.6-7.5-10.5-15.5-14.7-23.8c-4.3-8.6-7.8-17.5-10.5-26.7c-2.2-7.1-5.2-17.4-7.3-27.7c-2-9.2-3.4-18.6-4.2-28
		c-0.4-2.4-0.7-4.3-1.1-5.9c-0.2-1.2-0.6-2.4-1-3.6c-0.7-1.8-1.4-2.3-2-2.2c-1.2,0.2-2.2,3-2.3,3.5c-0.8,2.9-1.2,6-1.3,9
		c-0.1,3.2,0,6.5,0.4,9.7c0.2,1.8,0.4,3.6,0.6,5.6s0.6,4.1,0.9,6.4c0.2,1.1,0.3,2.4,0.5,3.6s0.4,2.5,0.6,3.9
		c0.4,2.7,0.8,5.6,1.4,8.7c-0.8-4.2-0.7-5.6-0.4-5.1c0.3,0.7,0.6,1.4,0.8,2.2c0.4,1.1,0.8,2.6,1.3,4.4c0.9,3.5,2.3,8,3.5,12.7
		c1.4,4.6,2.6,9.4,3.7,13.3c2.7,11.6,9,24.8,17.6,37.3l3.3,4.7c1.1,1.6,2.3,3,3.5,4.6c2.3,3.1,4.9,6,7.4,8.9
		c5.1,5.7,10.4,11.2,15.8,16.3c2.6,2.6,5.6,5,8.7,7.5c1.6,1.2,3.2,2.4,4.9,3.6c0.9,0.6,1.7,1.3,2.6,1.9l2.7,1.8
		c18.6,13,40.2,21.2,62.8,23.6c11.3,1.2,22.8,1,34.1-0.6c11.7-1.6,23.2-4.7,34.1-9.1c11.9-4.9,21.2-11.3,29.6-17.9
		c1.5-1.2,3.2-2.3,4.7-3.5s3.1-2.4,4.6-3.6s2.9-2.4,4.3-3.5s2.7-2.2,3.8-3.4c6.4-6.1,12.2-12.9,17.3-20.2c-0.7,0.9-1.3,1.8-2,2.7
		l-2,2.5l-1.9,2.4c-0.6,0.8-1.3,1.6-2,2.3l-4.2,4.7c-1.5,1.6-3.2,3.2-5,5.1c-2.4,2.4-1.8,1.3-0.2-0.7s4.2-5.1,5.6-6.9
		c0.7-0.9,1.6-1.6,2.5-2.3c1-0.6,1.8-1.4,2.5-2.3c1.3-1.6,2.5-3.2,3.8-4.8s2.3-3.5,3.5-5.3c1-1.6,1.6-0.9,2.1-1.7
		c1.5-2.3,2.8-4.7,4-7.1c0.9-2,1.9-3.9,3.1-5.7c1.7-2.4,3.1-4.7,4.5-6.8c0.9-1.4,1.7-2.9,2.5-4.4c0.4-1,0.9-2,1.3-3
		c-0.4,0.5-1,0.8-1.6,0.9c0.8-1.4,2-3.3,2.7-4.7c-0.7,1.4-2,3.3-2.7,4.7c0.6-0.1,1.2-0.4,1.6-0.9l1.2-2.8c0.4-1,0.8-1.9,1.1-2.9
		c0.8-2,1.5-4,2.3-6c1.4-4.1,2.9-8.3,4.1-12.4l-0.1,0.1c-0.4,1.2-0.8,2.3-1.2,3.5s-0.9,2.3-1.4,3.4s-1,2.3-1.6,3.4
		c-0.3,0.6-0.6,1.1-0.9,1.7s-0.6,1.1-1,1.7c1.1-1.9,1.2-1.6,0.2,0.8c-0.4,0.5-0.8,1-1.2,1.6c1.7-4.1,2.9-8.3,5.2-11.9l0.6-2.8
		c0.6-1.3,0.9-1.1,1.2-1.3l0.9-2.8c-0.6,0.9-1.5,2.8-2.4,4.5l-1.1,2.2L392.4,406.2z"/>
	<path class="st2" d="M368.2,450.6c0.4-0.5,0.8-1.2,1.3-2c-0.9,1.3-1.9,2.5-2.9,3.8l-3,3.8C365,455.1,366.6,452.8,368.2,450.6z"/>
</g>
<g class="st1">
	<path class="st2" d="M222.2,434.9c0-0.5,0-1.1,0-1.6c-0.1,0.3-0.2,0.6-0.4,0.8C221.7,434.5,222,434.6,222.2,434.9z"/>
	<path class="st2" d="M222.3,431.8v-0.3l-0.1-0.3C222.2,431.4,222.3,431.6,222.3,431.8z"/>
	<path class="st2" d="M222.4,428.9c-0.1,0.5-0.2,1-0.2,1.4C222.4,429.9,222.5,429.4,222.4,428.9z"/>
	<path class="st2" d="M221.9,431.2c0.2-0.2,0.3-0.2,0.4,0.1l0,0v-0.9C222.2,430.7,222,430.9,221.9,431.2z"/>
	<path class="st2" d="M221.9,431.2c-0.1,0.2-0.3,0.3-0.4,0.5C221.6,431.5,221.7,431.4,221.9,431.2z"/>
	<path class="st2" d="M218.6,430c-0.1-0.3,0.9-0.1,0.8-0.8s0-1.5,0-2.2c0-0.7,0.1-1.4,0.3-2.1c0-0.7,1.3-1.3,1.4-2s0.4-2.1,0.5-3.1
		s0.1-1.5-0.5-0.4c-0.4,0.7-0.7,1.5-1,2.3c-0.3,0.7-0.5,1.4-0.7,2.1c-0.2,0.7-0.4,1.4-0.5,2.1s-0.2,1.4-0.4,2.2
		S218.6,429.4,218.6,430c-0.1,0.7,0,1.3,0.1,2c0.1,0.6,0.1,1.2,0.2,1.9s0.2,1.2,0.4,1.9s0.1,1.4,0.1,2c0-0.4,0-0.9,0-1.3
		s0.1-0.9,0.1-1.4c0-0.7-0.1-1.5-0.4-2.1C218.8,431.9,218.6,431,218.6,430z"/>
	<path class="st2" d="M225.1,446.6l-0.7-0.6c0-0.7-0.2-1.4-0.5-2c-0.3-0.6-0.7-1.2-1-1.8c-0.1,0.2-0.2,0.5-0.2,0.7
		c0.3,0.7,0.6,0.7,0.6,0c0.1,1.6,0.6,3.2,1.6,4.4C224.9,447.2,225.2,447,225.1,446.6z"/>
	<path class="st2" d="M225.3,448.1c-0.2-0.2-0.4-0.5-0.5-0.7l-0.1,0.1L225.3,448.1L225.3,448.1z"/>
	<path class="st2" d="M223.6,422.8c0.4-0.9,0.9-1.7,1.4-2.5c0.5-0.8,1.1-1.5,1.6-2.3s1.2-1.4,1.9-2s1.3-1.2,2.1-1.8
		c0.1-0.3,0.1-0.6,0.5-0.7c0.3,0,0.6-0.1,0.9-0.2c0.4-0.3,0.9-0.6,1.4-0.8l0.4-0.4l0,0c0.2-0.2,0.1-0.3-0.2-0.4c-0.2,0-0.4,0-0.7,0
		c0.1,0,0.4,0,0.7,0c0.3,0,0.6-0.1,0.9-0.2c0.4-0.3,0.9-0.5,1.3-0.7c-0.4,0.3-0.9,0.5-1.3,0.7c-0.2,0.2-0.5,0.4-0.7,0.6l-0.2,0.2
		c1-0.6,2.1-1.1,3.2-1.5c0.2-0.1,0.5-0.2,0.7-0.4c0.8-0.4,1.5-0.9,2.2-0.6l0.6-0.1l-0.1,0h0.2c0.9-0.2,1.7-0.4,2.6-0.5
		c0.5-0.3,1.1-0.6,1.7-0.9l0.7,0.4c0.3-0.3,0.6-0.5,0.9-0.6c-0.5-0.2-1-0.5-1.4-0.6c-0.7-0.4-1.2,1.2-2.1,0.4
		c0.9,0.8,1.4-0.9,2.1-0.4c0.4,0.1,0.9,0.4,1.4,0.6c1-0.2,2-0.1,2.9,0.3c-1,0.3-2,0.2-2.9-0.3c-0.4,0.1-0.7,0.3-0.9,0.6l-0.7-0.4
		c-0.6,0.3-1.1,0.5-1.7,0.9c0.9-0.1,1.7-0.2,2.6-0.3c0.9-0.1,1.8-0.1,2.7-0.1c5.6,0,11,1.7,15.6,4.8c4.4,3.4,7.3,8.4,8,13.9
		c0.9,6,0,12.2-2.5,17.7c-1.1,2.5-2.5,4.8-4.2,6.9c-1.5,1.9-3.4,3.5-5.6,4.6c-4.8,2-10.2,1.6-14.6-1c-1.8-1-4.4-2.2-6.9-3.7
		c-2.2-1.3-4.2-2.9-5.9-4.7c-0.3-0.2-0.6-0.3-0.8-0.4c-0.2-0.1-0.5-0.2-0.7-0.3c-0.4-0.2-0.8-0.3-1.3-0.3c-0.7,0-1.4,0.2-2,0.6
		c-0.7,0.6-1.2,1.4-1.4,2.3c-0.1,0.6-0.1,1.2,0,1.8c0.1,0.5,0.2,1.1,0.5,1.5c0.2,0.5,0.5,1,0.8,1.4c0.3,0.4,0.7,0.9,1.1,1.3
		c1.6,1.8,3.9,3.6,7.2,6.6c-2.3-1.9-1-1.9,1.2-0.8c1.1,0.4,2.5,1.2,4,1.9c1.5,0.7,2.9,1.6,4.2,2.5c3.6,2.7,9.4,3.3,15.2,1.4
		c2.9-1,5.6-2.5,7.9-4.5c1.1-1,2.2-2,3.2-3.1c0.5-0.5,0.9-1.1,1.4-1.6s1-1.1,1.3-1.6c0.9-1.1,1.6-2.3,2.2-3.6c0.3-0.6,0.6-1.3,0.9-2
		s0.5-1.4,0.8-2.2c1.6-3.7,2.5-7.7,2.8-11.7c0.3-4-0.1-8.1-1.1-12c-1.1-4.2-3-8.1-5.7-11.5c-2.9-3.5-6.5-6.3-10.7-8.2
		c-2.1-0.9-4.3-1.4-6.5-1.6c-2-0.1-4-0.1-5.9,0.1c-0.7,0-1.4,0-2.1,0s-1.4,0-2.1,0c-1.3,0-2.5,0.1-3.8,0.3c-3.1,0.5-6.1,1.7-8.7,3.5
		c2.7-1.5,5.5-2.6,8.5-3.3c1.2-0.2,0.8,0.1,0,0.6c-0.4,0.3-0.9,0.5-1.4,0.8s-1,0.6-1.3,0.7c-0.6,0.4-1.9-0.4-2.4,0.1
		c-0.7,0.3-1.3,0.6-1.9,1l-1.8,1.3c-0.5,0.5-0.9-0.4-1.1-0.2c-0.8,0.6-1.4,1.3-2,2.1c-0.4,0.7-0.9,1.3-1.6,1.7
		c-0.9,0.5-1.6,1-2.4,1.5c-0.5,0.3-0.9,0.7-1.2,1.2l-0.6,1c0.4,0,0.8,0.1,1.1,0.3c-0.2,0.2-0.5,0.4-0.7,0.6
		c-0.2,0.2-0.5,0.4-0.7,0.6c0.2-0.2,0.4-0.4,0.7-0.6c0.3-0.2,0.5-0.4,0.7-0.6c-0.3-0.2-0.7-0.3-1.1-0.3c-1.4,2.6-2.4,5.3-3.1,8.1
		h0.1c0.3-0.8,0.6-1.5,1-2.2c0.5-0.7,1-1.3,1.7-1.9c-0.5,0.5-0.7,0.3-0.4-0.5c0.2-0.1,0.5-0.2,0.8-0.3c-0.3,0.6-0.5,1.4-0.9,2
		c-0.3,0.6-0.8,1.2-1.3,1.6c0,0,0,0.6-0.1,1c-0.3,0.4-0.6,0.2-0.8,0.2c-0.1,0.3-0.2,0.6-0.2,0.9c0.4-0.4,0.9-0.8,1.2-1.3
		C223.2,423.2,223.6,422.8,223.6,422.8z"/>
	<path class="st2" d="M234.4,411.5l-0.6,0.5c0.4-0.3,0.9-0.5,1.4-0.6l1.4-0.6C235.9,410.5,235.2,411,234.4,411.5z"/>
</g>
<circle class="st3" cx="248" cy="434.9" r="9.2"/>
<g class="st1">
	<path class="st2" d="M245.4,424.7l-0.6,0.1c0.2,0,0.3,0.1,0.4,0.2C245.4,425.1,245.4,424.9,245.4,424.7z"/>
	<path class="st2" d="M244.2,425h-0.1l-0.1,0.1L244.2,425z"/>
	<path class="st2" d="M243.3,425.7c0.2,0,0.4-0.2,0.5-0.3C243.5,425.4,243.4,425.5,243.3,425.7z"/>
	<path class="st2" d="M244.2,425.5c-0.1-0.1-0.2-0.2-0.1-0.4l0,0l-0.3,0.2C243.9,425.4,244,425.4,244.2,425.5z"/>
	<path class="st2" d="M244.2,425.5c0.1,0.1,0.3,0.2,0.3,0.2C244.4,425.7,244.3,425.6,244.2,425.5z"/>
	<path class="st2" d="M245.3,428.7c0,0.1-0.4-0.8-0.5-0.5c-0.2,0.4-0.3,0.9-0.5,1.1c0,0.2-0.8-0.5-0.8-0.2c-0.1,0.4-0.1,0.7,0.1,1.1
		c0.1,0.4,0.3,0.6,0.4,0.5c0.3-0.6,0.7-1.1,1.1-1.5c0.3-0.7,0.7-1.2,1.2-1.7c0.2,0,0.4,0,0.5,0c-0.3-0.1-0.5-0.2-0.8-0.3
		c-0.2-0.1-0.3,0.2-0.4,0.5C245.6,428.1,245.5,428.4,245.3,428.7z"/>
	<path class="st2" d="M250.1,425.2l-0.4,0.2c-0.4-0.8-0.9-0.6-1.4-0.3l0.2,0.5c0.3,0,0.3-0.3,0.1-0.5c0.4,0.5,0.9,0.8,1.6,0.8
		C250.2,425.6,250.3,425.3,250.1,425.2z"/>
	<path class="st2" d="M250.5,425.9h-0.3v0.1L250.5,425.9L250.5,425.9z"/>
	<path class="st2" d="M241.8,427.7c-1,0.9-1.8,1.9-2.4,3.1c0.1,0.2,0.3,0.3,0.1,0.4c-0.2,0-0.3,0.1-0.4,0.1
		c-0.1,0.2-0.2,0.3-0.2,0.5v0.2l0,0c0.1,0.1,0.2,0.2,0.4,0.1c0.1,0,0.3-0.1,0.4-0.1c-0.1,0-0.2,0-0.4,0.1c-0.1,0-0.3,0.1-0.4,0.2
		c0,0.2,0,0.4-0.1,0.5c-0.1-0.2,0-0.4,0.1-0.5V432l-0.1-0.1c-0.2,0.4-0.3,0.8-0.4,1.2c0,0.1,0,0.2,0,0.3c0.1,0.3,0.2,0.6-0.3,0.8
		v0.2h0.1l-0.1,0.1c-0.1,0.3-0.1,0.7-0.1,1c0.2,0.2,0.4,0.4,0.6,0.6l-0.4,0.3c0.2,0,0.4,0.1,0.5,0.3c0.2-0.2,0.5-0.4,0.7-0.6
		c0.4-0.2-1-0.4-0.1-0.7c-0.9,0.3,0.6,0.4,0.1,0.7c-0.2,0.2-0.4,0.4-0.7,0.6c0.2,0.3,0.1,0.7-0.2,1.1c-0.5-0.3-0.2-0.8,0.2-1.1
		c-0.1-0.2-0.3-0.2-0.5-0.3l0.4-0.3c-0.2-0.2-0.4-0.4-0.6-0.6c-0.2,3,1.1,6,3.4,7.9c1.9,1.6,4.2,2.5,6.6,2.7
		c2.9,0.3,5.7-0.3,8.2-1.7c2.5-1.6,4.3-4.1,4.9-7c0.7-3.1,0.7-6.3,0.2-9.4c-0.4-1.7-1.4-3.3-2.7-4.4c-1.3-1.2-2.8-2.1-4.5-2.6
		c-1.5,0-2.7,1.2-2.9,2.6c-0.2,0.8-0.3,1.7-0.3,2.5c0,0.7,0.1,1.3,0.2,2c0.1,0.3,0.2,0.6,0.4,0.9c0.6,0.5,0.9,1.4,0.8,2.2
		c0-0.8,0.6-1.1,1-0.7c0.6,0.6,0.6,1.6-0.1,2.2c0,0-0.1,0.1-0.1,0.1c-1.4,1.4-1.6,1.7-1.5,2.3s0.3,1.5-0.4,1.8
		c-0.4,0.1-0.4,0.4-0.8,0.6c-0.8,0.1-1.7,0.3-2.5,0.5c-0.9,0.2-1.9-0.1-2.5-0.8c-0.3-0.3-1.4-0.3-2-0.7c-0.3-0.4,0-1,0-1.3
		c-0.1-0.6-0.4-1.1-0.7-1.6c0.1,0.5,0.2,1.1,0.5,1.5c0,0.2-0.3,0.2-0.6,0c-0.3-0.1-0.6-0.3-0.9-0.6c-0.2-0.2,0.9-0.3,0.7-0.4
		c0-0.3-0.4-0.6-0.6-1c-0.2-0.2,0.8,0.1,0.7,0s-0.3-0.5-0.6-0.8s-0.4-0.5-0.2-0.6c0.2-0.1,0.4-0.3,0.7-0.4c0.1-0.1,0.2-0.2,0.2-0.3
		l-0.1-0.4c-0.3-0.1-0.6-0.3-0.9-0.5c0.1-0.1,0.4-0.1,0.5-0.2c-0.1,0.1-0.4,0.1-0.5,0.2c0.3,0.2,0.6,0.3,0.9,0.5
		c-0.1-0.9,0.1-1.8,0.5-2.6l-0.1-0.1c-0.4,0.4-0.9,0.6-1.5,0.6c0.3,0,0.5,0.2,0.4,0.4l-0.5-0.2c0.1-0.5,0.3-1.1,1.1-0.8
		c0,0,0-0.3,0-0.4c0.2,0,0.4,0.3,0.6,0.5c0.1-0.1,0.1-0.2,0.2-0.2c-0.3-0.1-0.5-0.2-0.8-0.3C242.1,427.7,242,427.7,241.8,427.7z"/>
	<path class="st2" d="M238.9,432.4c0-0.1,0-0.2,0-0.3c-0.2,0.3-0.2,0.7-0.4,1C239,433,238.9,432.7,238.9,432.4z"/>
</g>
</svg>
