<?xml version="1.0" encoding="utf-8"?>
<!-- Generator: Adobe Illustrator 25.0.0, SVG Export Plug-In . SVG Version: 6.00 Build 0)  -->
<svg version="1.1" id="Layer_1" xmlns="http://www.w3.org/2000/svg" xmlns:xlink="http://www.w3.org/1999/xlink" x="0px" y="0px"
	 viewBox="0 0 841.9 841.9" style="enable-background:new 0 0 841.9 841.9;" xml:space="preserve">
<style type="text/css">
	.st0{fill:#3F372F;}
	.st1{opacity:0.85;}
	.st2{fill:#FEFEFE;}
	.st3{fill:#F4ECEA;}
</style>
<rect class="st0" width="841.9" height="841.9"/>
<g class="st1">
	<path class="st2" d="M216.7,525.2l1.7-0.5c-0.3,0.1-0.6,0.1-0.9,0.1C217.2,524.8,216.9,525,216.7,525.2z"/>
	<path class="st2" d="M220.1,524.2l0.3-0.1l0.3-0.1L220.1,524.2z"/>
	<path class="st2" d="M223.2,523.6c-0.5,0-1.1,0.1-1.6,0.2C222.1,523.8,222.6,523.7,223.2,523.6z"/>
	<path class="st2" d="M220.6,523.9c0.2,0,0.3,0.1,0,0.2l0,0l0.9-0.3C221.3,523.8,221,523.9,220.6,523.9z"/>
	<path class="st2" d="M220.6,523.9c-0.2,0-0.5,0-0.6,0C220.2,523.9,220.4,523.9,220.6,523.9z"/>
	<path class="st2" d="M221.1,522c0.3-0.1,0.3,0.4,1,0.2l2.2-0.5c0.7-0.1,1.4-0.2,2.2-0.2c0.7-0.2,1.7,0.5,2.4,0.4l1.5-0.1h1.6
		c0.9,0,1.4-0.1,0.2-0.3c-3-0.5-6.2-0.5-9.2,0c-2.5,0.5-5,1.3-7.4,2.4c-0.7,0.3-1.3,0.5-2,0.8c0.9-0.3,1.7-0.7,2.7-0.9
		c0.7-0.2,1.4-0.5,2.1-0.9C219.3,522.6,220.2,522.3,221.1,522z"/>
	<path class="st2" d="M205.4,532.2l0.6-0.8c0.6-0.4,1.2-0.8,1.8-1.3c0.3-0.2,0.6-0.5,0.8-0.8s0.6-0.5,0.9-0.7l-0.7,0.2
		c-0.7,0.5-0.6,0.7,0,0.3c-0.7,0.4-1.5,0.9-2.1,1.5c-0.7,0.5-1.3,1.1-1.8,1.8C204.9,532.4,205,532.5,205.4,532.2z"/>
	<path class="st2" d="M204.1,533.2l0.7-0.8h-0.1C204.4,532.7,204.2,532.9,204.1,533.2L204.1,533.2z"/>
	<path class="st2" d="M229.9,523.1c4.1,0.4,8,1.8,11.5,3.9c0.3,0,0.6,0.2,0.9,0.4c0.2,0.2,0.4,0.4,0.7,0.6c0.5,0.3,0.9,0.7,1.4,1
		l0.5,0.3l0,0c0.3,0.2,0.3,0,0.1-0.1c-0.1-0.2-0.3-0.3-0.4-0.5c0.1,0.1,0.3,0.3,0.4,0.5c0.2,0.2,0.4,0.5,0.6,0.7
		c0.4,0.4,0.8,0.7,1.2,1.1c-0.4-0.3-0.8-0.7-1.2-1.1l-0.8-0.5l-0.2-0.1c1,0.8,2,1.7,2.9,2.7c0.2,0.2,0.4,0.4,0.6,0.6
		c0.6,0.6,1.1,1.2,1.5,2l0.4,0.6v-0.1l0.1,0.2c0.6,0.8,1.1,1.6,1.5,2.5c0.4,0.5,0.8,1,1.2,1.6c0,0,0,0.5,0,0.7
		c0.3,0.3,0.5,0.6,0.6,0.9c-0.1-0.5-0.1-1.1-0.2-1.5c-0.1-0.7-1.1-1.1-1.1-2c0,0.9,1,1.3,1.1,2c0.1,0.5,0.1,1,0.2,1.5
		c0.5,0.9,0.8,2,0.8,3c-0.4-1-0.7-2-0.8-3c-0.2-0.3-0.4-0.7-0.6-0.9c0-0.2,0-0.7,0-0.7c-0.4-0.5-0.8-1.1-1.2-1.6
		c0.5,0.8,0.9,1.7,1.2,2.6c0.4,0.9,0.7,1.8,1,2.8c1.8,6,1.6,12.3-0.4,18.2c-2.1,5.9-6,11.1-11.3,14.6c-5.6,3.8-12.5,5.4-19.2,4.5
		c-4.7-0.7-9.1-2.4-12.9-5.1l-1.8-1.4c-0.6-0.5-1.1-1.1-1.7-1.6c-2.1-2.2-3.9-4.7-5.1-7.6c-1.2-2.9-1.8-6-1.8-9.1
		c-0.1-3.1,0.2-6.1,0.9-9.1c0.7-2.9,1.9-5.7,3.5-8.3c0.2-0.4,0.3-0.7,0.4-1s0.3-0.5,0.4-0.8c0.2-0.4,0.3-0.8,0.4-1.2
		c0.1-0.7,0-1-0.3-1.2c-0.5-0.4-1.5,0-1.7,0.1c-1,0.5-1.8,1.2-2.6,2c-0.4,0.4-0.7,0.8-1.1,1.3s-0.6,1-0.9,1.5
		c-1.6,3-2.8,6.2-3.7,9.5c0.9-3,0.9-1.8,0.5,0.8c0,0.7-0.1,1.4-0.2,2.2s-0.1,1.6-0.1,2.5s-0.1,1.7-0.1,2.6s-0.1,1.7,0,2.4
		c-0.1,4.3,1.8,9.7,5.3,14c3.6,4.3,8.2,7.7,13.4,9.8c0.6,0.3,1.2,0.5,1.9,0.8s1.4,0.4,2.1,0.6l1.1,0.3l1.1,0.2
		c0.8,0.1,1.5,0.3,2.3,0.3c8.3,1.1,16.6-1.2,23.2-6.4c6.7-5.3,11.1-12.8,12.5-21.2c0.6-4.2,0.2-8.4-1.2-12.4c-0.1-0.7-0.4-1.4-0.6-2
		s-0.4-1.4-0.6-2c-0.4-1.2-0.9-2.4-1.5-3.5c-0.8-1.5-1.7-2.9-2.8-4.2c-1-1.2-2.1-2.2-3.3-3.2c1.1,1,2.2,2.1,3.1,3.3
		c1,1.3,1.9,2.6,2.7,4c0.6,1.1,0.2,0.8-0.4,0l-1-1.3c-0.4-0.4-0.8-0.9-1-1.2c-0.2-0.3-0.4-0.7-0.6-1.1c-0.1-0.4-0.4-0.7-0.6-1
		c-0.5-0.6-1-1.1-1.5-1.6l-1.8-1.4c-0.6-0.4-0.2-0.7-0.5-0.9c-0.8-0.5-1.7-1-2.5-1.5c-0.7-0.3-1.4-0.6-2.1-1.1
		c-0.8-0.6-1.6-1.1-2.5-1.6c-0.5-0.3-1.1-0.6-1.6-0.7l-1.1-0.3c0.2,0.2,0.3,0.4,0.3,0.7c-0.5-0.2-1.2-0.6-1.8-0.8
		c0.5,0.2,1.2,0.6,1.8,0.8c0-0.3-0.1-0.5-0.3-0.7c-2.9-0.8-6-1.1-9-1l0,0c1.7,0,3.5,0.3,5.1,1c-0.4-0.2-0.5-0.2-0.5-0.3
		c0.2-0.1,0.5,0,0.7,0.1l0.6,0.4l-1.1-0.2c-0.4,0-0.8-0.1-1.1-0.1c-0.7-0.1-1.5-0.3-2.2-0.5l-1,0.1c-0.5-0.1-0.4-0.2-0.5-0.4
		c-0.3,0-0.7,0-1,0c0.4,0.1,1.1,0.3,1.7,0.5L229.9,523.1z"/>
	<path class="st2" d="M245.7,530l-0.7-0.5L245.7,530l0.6,0.6l1.2,1.2C246.9,531.1,246.4,530.5,245.7,530z"/>
</g>
<ellipse class="st2" cx="225.4" cy="551.9" rx="12.9" ry="12.5"/>
<g class="st1">
	<path class="st3" d="M237.1,545.3l-0.4-0.7c0,0.1,0.1,0.3,0.1,0.5C236.9,545.2,237,545.2,237.1,545.3z"/>
	<path class="st3" d="M236.3,543.9l-0.1-0.1l-0.1-0.1L236.3,543.9z"/>
	<path class="st3" d="M235.2,542.9c0.2,0.2,0.3,0.4,0.5,0.5C235.6,543.2,235.4,543.1,235.2,542.9z"/>
	<path class="st3" d="M235.9,543.8c0-0.1,0-0.2,0.2-0.1l0,0c-0.1-0.1-0.2-0.2-0.3-0.3C235.8,543.6,235.9,543.7,235.9,543.8z"/>
	<path class="st3" d="M235.9,543.8c0,0.1,0,0.3,0,0.3C235.9,544.1,235.9,544,235.9,543.8z"/>
	<path class="st3" d="M234.4,544.7c-0.1-0.1,0.2-0.3,0-0.5c-0.5-0.4-1-0.5-1.4-0.9c-0.2-0.1-0.3-0.7-0.5-0.8c-0.6-0.3-2.2-0.4-1.4,0
		c1,0.5,1.9,1,2.8,1.8c0.8,0.6,1.6,1.2,2.2,2c0.1,0.2,0.3,0.5,0.3,0.8c-0.1-0.4-0.2-0.7-0.3-1.1c-0.1-0.3-0.4-0.5-0.7-0.6
		C235,545.2,234.7,544.9,234.4,544.7z"/>
	<path class="st3" d="M238.7,551.2l-0.2-0.4c0.1-0.3,0.2-0.7,0.1-1c-0.1-0.3-0.2-0.7-0.4-1l-0.1,0.3c0.1,0.3,0.2,0.4,0.3,0
		c-0.1,0.7-0.1,1.5,0,2.2C238.5,551.4,238.6,551.4,238.7,551.2z"/>
	<path class="st3" d="M238.4,551.9l-0.1-0.4l0,0L238.4,551.9L238.4,551.9z"/>
	<path class="st3" d="M232.6,541.3c-1.5-0.9-3.2-1.6-4.9-1.9c-0.1,0.1-0.2,0.2-0.4,0.1c-0.1-0.1-0.2-0.2-0.4-0.2
		c-0.2,0-0.5,0-0.8-0.1h-0.3l0,0c-0.1,0-0.1,0.1,0,0.2c0.1,0,0.2,0.1,0.2,0.2c0,0-0.2-0.1-0.2-0.2c-0.1-0.1-0.3-0.1-0.4-0.2
		c-0.2,0-0.5,0-0.7,0c0.2,0,0.5,0,0.7,0h0.4h0.1c-0.6,0-1.2,0-1.7,0c-0.1,0-0.2,0-0.4,0.1c-0.3,0.2-0.7,0.2-1.1,0.1h-0.3h0.1h-0.1
		c-0.4,0.1-0.9,0.2-1.3,0.3c-0.2,0.2-0.5,0.4-0.7,0.5l-0.4-0.1c-0.1,0.2-0.2,0.3-0.3,0.4c0.3,0,0.5,0.1,0.7,0.1s0.4-0.7,0.9-0.3
		c-0.5-0.3-0.6,0.5-0.9,0.3s-0.5-0.1-0.7-0.1c-0.4,0.3-0.9,0.4-1.3,0.4c0.3-0.4,0.8-0.6,1.3-0.4c0.2-0.1,0.3-0.3,0.3-0.4l0.4,0.1
		c0.2-0.2,0.5-0.4,0.7-0.5c-0.9,0.2-1.7,0.6-2.5,1c-2.6,1.3-4.7,3.4-5.9,6c-1.3,2.7-1.6,5.8-0.9,8.7c0.8,3.3,2.7,6.2,5.4,8.3
		c2.6,2,5.9,2.9,9.2,2.7c3.4-0.2,6.7-1.3,9.5-3.1c1.5-1,2.7-2.4,3.6-4c0.9-1.6,1.4-3.3,1.6-5.1c0-0.7-0.2-1.3-0.6-1.8
		c-0.2-0.3-0.6-0.4-0.9-0.4c-0.5,0-0.9,0.2-1.3,0.5c-0.4,0.4-0.7,0.7-1,1.2c-0.1,0.2-0.2,0.4-0.3,0.6c-0.1,0.2-0.2,0.4-0.3,0.6
		c-0.4,1.2-1.1,2.2-2.1,3c0.8-0.8,0.9-0.3,0.4,0.6c-0.7,1-1.7,1.7-2.9,1.9c-1.6,0.2-3.2,0.6-4.8,1.1c-1.7,0.5-3.5,0.4-5.1-0.3
		c-0.8-0.3-1.6-0.8-2.4-1.2c-1.9-1.5-3.3-3.6-4-6c-0.7-2.5-0.3-5.1,1.2-7.2c0.7-1.2,1.5-2.3,2.4-3.3c0.8-0.5,1.6-0.9,2.5-1.1
		c1-0.4,2.1-0.7,3.1-1c-1.1,0.2-2.1,0.5-3.1,0.9c-0.8,0.3,0.3-0.8,0.9-1c0.2-0.2,0.7,0.3,0.9,0.1c0.3-0.1,0.5-0.1,0.8-0.2
		c0.2-0.1,0.5-0.2,0.8-0.3s0.2,0.3,0.3,0.3c0.4-0.1,0.7-0.2,1.1-0.3c0.3-0.1,0.6-0.2,0.9-0.1c0.3,0.1,0.7,0.3,1,0.4
		c0.2,0.1,0.4,0.1,0.6,0.2h0.4c0-0.2,0-0.4,0-0.5c0.2,0.1,0.5,0.3,0.7,0.4c-0.2-0.1-0.4-0.3-0.7-0.4c0,0.2,0,0.4,0,0.5
		c1.2,0.1,2.4,0.4,3.4,1l0,0c-0.6-0.4-1.2-0.8-1.7-1.4c0.2,0.2,0.1,0.3-0.2,0.2l-0.1-0.3c0.7,0.1,1.3,0.4,1.6,1l0.4,0.1
		c0.1,0.2,0,0.3,0,0.4l0.4,0.2c-0.1-0.3-0.2-0.5-0.4-0.7C232.9,541.7,232.7,541.5,232.6,541.3z"/>
	<path class="st3" d="M225.4,539.2h0.4c-0.5,0-1,0-1.4,0C224.6,539.4,225,539.3,225.4,539.2z"/>
</g>
<g class="st1">
	<path class="st2" d="M131.1,289.1c-0.3,2.6-0.6,5.2-1,7.8c0.2-1.3,0.5-2.6,0.9-3.9C131.2,291.7,131.2,290.4,131.1,289.1z"/>
	<path class="st2" d="M128.8,304.1c-0.1,0.5-0.2,0.9-0.3,1.4s-0.1,0.8-0.2,1.2C128.6,305.8,128.7,305,128.8,304.1z"/>
	<path class="st2" d="M125.8,317.5c0.7-2.2,1.3-4.5,1.8-6.7C127.1,312.6,126.5,314.9,125.8,317.5z"/>
	<path class="st2" d="M128.8,306.9c-0.3,0.8-0.6,1.2-0.4-0.2v-0.1c-0.2,1.4-0.4,2.7-0.8,4.1C128.1,309.3,128.4,308,128.8,306.9z"/>
	<path class="st2" d="M128.8,306.9c0.3-0.8,0.7-2,0.8-2.4C129.4,305.2,129.1,306,128.8,306.9z"/>
	<path class="st2" d="M131.3,311.1c-0.2,1.4-1.1,0.9-1.6,3.6c-0.4,1.6-0.7,3.2-1.2,4.7c-0.2,0.8-0.4,1.5-0.6,2.2l-0.7,2.2
		c-0.4,1.5-1.1,2.9-1.6,4.3s-1.4,2.8-2.1,4.2c-1.1,2.4-4.1,5.7-4.9,8.3c-0.6,1.5-1.3,3.6-2,5.8c-0.3,1.1-0.6,2.2-0.9,3.3
		s-0.5,2.1-0.7,3c-0.3,1.1-0.5,2.3-0.6,3.4c0,0.3,0.3-0.4,1-2.7c1.8-6,4.1-11.8,6.9-17.4c0.6-1.3,1.3-2.5,2-3.8l1.1-2.1
		c0.4-0.7,0.7-1.4,1-2.1s0.6-1.5,0.9-2.2s0.6-1.5,0.8-2.2c0.6-1.5,1-3.1,1.6-4.7c1.4-5.2,2.4-10.6,3.1-15.9
		c0.7-5.3,1.2-10.7,1.6-16.2c0.3-3.1,0.5-6,0.8-8.8c-0.4,3.8-0.9,7.6-1.4,11.9C132.7,295.3,133.1,302.3,131.3,311.1z"/>
	<path class="st2" d="M132.8,230.8c0.2,1.4,0.5,4.1,0.5,4.1c-0.4,6.2,0,12.6,0.2,19.1c0.2-0.9,0.3-1.9,0.5-2.9
		c-0.1-3.7-0.4-4.1-0.5-0.9c0.5-7.3,0.4-14.7-0.1-22C133.1,228.8,132.9,228.7,132.8,230.8z"/>
	<path class="st2" d="M133,224.1c0.1,1.4,0.3,2.9,0.4,4.3c0,0,0-0.1,0.1-0.1c-0.1-1.4-0.3-2.9-0.4-4.3L133,224.1z"/>
	<path class="st2" d="M114.6,344.4c-1.7,4.2-3.1,8.6-4.3,12.9c-0.6,2.1-1.1,4.3-1.7,6.5s-1,4.3-1.4,6.5c-1.7,8.4-2.8,17-3.4,25.6
		c0.2,1.3,0.2,2.7,0,4c-0.2,1.3-0.4,2.6-0.5,4c-0.1,2.5-0.2,5-0.2,7.4c0,0.9,0.1,1.7,0.1,2.6v0.1c0.1,1.4,0.3,1,0.4,0.1
		s0.2-1.8,0.3-2.6c-0.1,0.5-0.2,1.8-0.3,2.6c-0.2,1.3-0.2,2.7-0.2,4c0.1,2.3,0.2,4.6,0.2,7c-0.2-2.3-0.3-4.7-0.2-7
		c-0.1-1.4-0.1-2.8-0.2-4.2l-0.1-1.2c-0.1,5.6,0.1,11.3,0.3,16.9c0.1,1.3,0.2,2.5,0.3,3.5c0.5,3.5,0.7,7.1,0.7,10.6
		c0.1,1,0.2,2,0.3,3c0-0.2,0-0.4,0-0.6c0,0.4,0,0.8,0,1.1c0.5,4.2,1,8.5,1.7,12.7c0.6,2.7,1.4,5.5,2,8.2c0,0,0,0.5,0,1.1
		s0,1.3,0.1,1.8c0.6,1.5,1.1,3,1.4,4.5c-0.2-2.3-0.3-4.4-0.5-6.4c0-2.9-2.1-6.1-1.8-9.6c-0.4,3.5,1.7,6.7,1.8,9.6
		c0.2,2,0.3,4.1,0.5,6.4c1,3.9,2.1,9,2.7,13.2c-1.5-4.3-2.4-8.7-2.7-13.2c-0.4-1.5-0.9-3.1-1.4-4.5c0-0.5,0-1.2-0.1-1.8s0-1.1,0-1.1
		c-0.7-2.8-1.4-5.5-2-8.2c1.3,8.3,2.9,16.6,4.9,25c3.2,13.3,7.4,26.4,12.7,39c2.6,6.3,5.5,12.4,8.6,18.3c3.2,6,6.6,11.8,10.4,17.4
		c7.5,11.5,16.6,21.9,26.9,31c10.7,9.5,23.1,16.9,36.5,21.8c7.4,2.7,15.2,4.5,23,5.4l2.9,0.3c1,0.1,1.9,0.2,2.9,0.3l5.8,0.4
		c3.9,0.1,7.7,0.2,11.6-0.1c7.7-0.4,15.2-1.6,22.7-3.6c7.3-2,14.4-4.8,21.1-8.3c13.1-7.1,24.6-16.6,34.1-28
		c4.6-5.5,8.9-11.4,12.7-17.5c3.8-6,7.3-12.3,10.5-18.7c3.2-6.4,6.1-12.9,8.7-19.5c2.6-6.6,5.1-13.4,7.4-20.2
		c4.5-13.7,8.4-27.7,11.9-42.3c3.2-14.3,5.6-28.9,7.2-43.5c1.8-16.2,2.8-32.4,3.1-43.4c-0.3-14.8-1.9-18.4-3.1-18.1
		s-2.3,4.5-2.5,5.2c-1.9,9-2.6,16.9-3.5,27.2c-1,13.7-2.8,27.3-5.4,40.8c1.1-6.1,1.6-8,1.7-7.1c0,3.3-0.3,6.7-0.9,10
		c-1.3,10.5-4.6,27-8.4,38.1c-5.5,16.1-11.1,35.7-19.1,55.3c-4,9.9-8.8,19.6-14.2,28.8c-5.3,9-11.7,17.4-19,24.9
		c-3.6,3.7-7.5,7.2-11.5,10.5l-3.2,2.6l-3.4,2.4c-1.1,0.8-2.4,1.6-3.6,2.3s-2.5,1.6-3.8,2.2c-13.5,7.1-28.4,10.9-43.6,11.4
		c-1.9,0-3.8,0-5.7,0h-1.4l-1.4-0.1l-2.8-0.1c-0.9-0.1-1.9-0.1-2.8-0.2l-2.8-0.3c-1.9-0.1-3.7-0.5-5.6-0.7c-7.4-1.2-14.7-3.2-21.6-6
		c-14.2-5.9-27-14.7-37.7-25.8c-11.3-11.7-20.7-24.9-28.1-39.4c-7.6-14.3-14-29.1-19.2-44.4c-3.3-10.5-5.3-22.2-6.9-31
		c-1.2-6.9-2.2-13.4-3-19.6s-1.4-12.1-1.9-17.9c0.4,6.5,0.9,12.1,1.6,17.9s1.6,11.7,2.9,18.8c0.9,4.7,0.3,3.1-0.7-0.4
		s-2.2-9.2-2.7-12.3c-0.6-2.7,0-7.1-0.4-9.8c-0.5-5.9-1.3-11.4-1.8-17.8c-0.3-2.8,0.7-2.5,0.6-3.8c-0.4-8.7-1.3-15.5-0.6-21.1
		c0.4-4.2,1-8,1.5-11.7c0.3-2.3,0.7-4.6,1.1-7.1c0.2-1.5,0.3-3.1,0.6-4.7c-0.3,0.8-0.8,1.4-1.4,1.9c0.2-1.1,0.6-2.5,0.9-3.9
		s0.7-2.7,0.9-3.8c-0.3,1.1-0.6,2.5-0.9,3.8s-0.7,2.7-0.9,3.9c0.6-0.5,1.1-1.2,1.4-1.9c1.5-11.4,4.6-24.4,9.6-35.7l-0.2,0.1
		c-3.1,6.5-5.5,13.2-8.2,20.2c1.1-3.1,1.2-2.6,0.3,1c-0.4,0.9-0.8,1.8-1.2,2.6c1.3-6.3,3.1-12.7,6.1-18.1c0,0,0.2-0.7,0.5-1.5
		l0.9-2.5c1-1.8,1.2-1.6,1.6-1.9c0.6-1.3,1.2-2.6,1.9-3.8c-0.7,0.9-1.3,1.8-1.8,2.7l-1,1.8l-1,1.9c-0.7,1.2-1.3,2.4-1.7,3.2
		L114.6,344.4z"/>
	<path class="st2" d="M103.3,418.1c-0.1-1-0.1-2.2-0.1-3.5c0,4.7,0.1,9.4,0.3,14.2C103.8,426.3,103.5,422.2,103.3,418.1z"/>
</g>
<g class="st1">
	<path class="st2" d="M625.6,528l-1.8-0.6c0.3,0.1,0.6,0.3,0.9,0.5C625,528,625.3,528.1,625.6,528z"/>
	<path class="st2" d="M622.1,527l-0.3-0.1h-0.3L622.1,527z"/>
	<path class="st2" d="M618.8,526.5c0.6,0.1,1.1,0.2,1.7,0.2C620,526.6,619.4,526.5,618.8,526.5z"/>
	<path class="st2" d="M621.4,527c-0.2-0.1-0.3-0.2,0.1-0.2l0,0l-1-0.2C620.8,526.8,621.1,526.9,621.4,527z"/>
	<path class="st2" d="M621.4,527c0.2,0.1,0.5,0.2,0.6,0.3C621.8,527.2,621.6,527.1,621.4,527z"/>
	<path class="st2" d="M620.3,528.5c-0.3,0-0.2-0.5-0.8-0.4h-2.1c-0.7,0.1-1.3,0.1-2,0.1c-0.6,0-1.6-0.4-2.2-0.2
		c-0.5,0.1-0.9,0.2-1.4,0.3c-0.5,0.2-1,0.3-1.4,0.5c-0.8,0.3-1.1,0.5-0.1,0.3c2.7-0.6,5.5-0.8,8.3-0.5c2.4,0.1,4.8,0.5,7.1,1.2
		c0.7,0.3,1.2,0.5,1.8,0.8c-0.8-0.5-1.6-0.9-2.4-1.2c-0.7-0.3-1.4-0.4-2.1-0.5C622.1,528.8,621.2,528.7,620.3,528.5z"/>
	<path class="st2" d="M637,535.8l-0.8-0.6c-0.4-0.6-0.9-1.2-1.5-1.7c-0.3-0.2-0.6-0.5-0.9-0.7s-0.7-0.4-1-0.6l0.4,0.6
		c0.7,0.5,0.9,0.5,0.3-0.1c0.6,0.7,1.2,1.3,1.8,1.9s1.2,1.2,1.8,1.8C637.2,536.3,637.3,536.2,637,535.8z"/>
	<path class="st2" d="M637.9,537.2l-0.7-0.7l0,0L637.9,537.2L637.9,537.2z"/>
	<path class="st2" d="M611.9,526.9c-4.1,0.5-8.1,1.8-11.7,3.9c-0.2,0.3-0.4,0.5-0.7,0.6c-0.3,0.1-0.6,0.2-0.9,0.4
		c-0.5,0.3-0.9,0.7-1.4,1l-0.5,0.4l0,0c-0.2,0.2-0.1,0.2,0.1,0.2c0.2-0.1,0.4-0.2,0.6-0.2c-0.1,0-0.4,0.2-0.6,0.2
		c-0.3,0.1-0.6,0.3-0.8,0.5c-0.4,0.4-0.8,0.8-1.2,1.2c0.4-0.4,0.8-0.8,1.2-1.2l0.7-0.7l0.2-0.2c-1.1,0.8-2.1,1.7-3,2.6
		c-0.2,0.2-0.4,0.4-0.5,0.6c-0.4,0.7-1,1.4-1.7,1.9l-0.4,0.6l0.1-0.1l-0.2,0.2c-0.6,0.8-1.2,1.6-1.7,2.5c-0.2,0.6-0.5,1.3-0.7,1.9
		l-0.5,0.5c0,0.4-0.1,0.8-0.2,1.1c0.3-0.4,0.7-0.8,1-1.2c0.5-0.5,0.3-1.5,1-2c-0.8,0.5-0.6,1.5-1,2c-0.3,0.4-0.6,0.8-1,1.2
		c-0.3,1-0.8,2-1.3,2.9c0.1-1.1,0.6-2.1,1.3-2.9c0.1-0.4,0.2-0.7,0.2-1.1l0.5-0.5c0.2-0.6,0.5-1.3,0.7-1.9c-0.5,0.9-1,1.7-1.4,2.7
		c-0.4,0.9-0.8,1.9-1.1,2.8c-2.1,6.2-2.2,12.9-0.1,19.1c4.7,13.8,18,22.7,32.5,21.9c3.6-0.2,7.1-1.1,10.3-2.6
		c1.6-0.7,3.1-1.6,4.6-2.6l2.1-1.6c0.7-0.5,1.3-1.2,1.9-1.8c2.5-2.5,4.6-5.4,6.3-8.5c1.7-3.3,2.9-6.8,3.5-10.5
		c0.6-3.7,0.4-7.5-0.6-11.1c-0.9-3.6-2.4-7-4.5-10c-0.3-0.4-0.6-0.7-0.8-1s-0.5-0.5-0.8-0.7c-0.4-0.3-0.8-0.6-1.2-0.8
		c-0.7-0.3-1-0.3-1.2,0c-0.4,0.5-0.2,1.6-0.2,1.8c0.3,1.1,0.7,2,1.1,3c0.2,0.5,0.4,0.9,0.7,1.4s0.4,1,0.7,1.5
		c1.4,2.8,2.1,5.8,2.2,8.9c-0.2-2.8,0.3-1.8,0.7,0.5c0.1,0.6,0.1,1.3,0.2,2c0,0.8,0,1.5-0.1,2.3c0,0.8-0.2,1.5-0.4,2.3
		c-0.1,0.7-0.4,1.4-0.7,2c-1.6,3.5-3.2,7.5-6,11.2s-6.6,6.9-10.9,8.3c-0.5,0.2-1.1,0.3-1.6,0.5l-1.7,0.4l-0.9,0.2l-0.9,0.2
		c-0.6,0.1-1.3,0.2-1.9,0.3c-6.8,0.4-13.5-1.6-19-5.6c-5.7-4.2-9.5-10.4-10.7-17.4c-0.7-3.5-0.8-7.1-0.3-10.6
		c0.1-0.6,0.3-1.2,0.5-1.8c0.2-0.6,0.4-1.2,0.6-1.7c0.5-1.1,1-2.1,1.5-3c0.7-1.3,1.4-2.5,2.2-3.7c0.8-1.1,1.6-2.1,2.5-3.1
		c-0.9,0.9-1.8,1.9-2.5,3c-0.8,1.2-1.5,2.4-2.1,3.6c-0.5,0.9-0.5,0.5-0.2-0.2c0.1-0.5,0.3-0.9,0.5-1.4c0.2-0.5,0.5-0.9,0.6-1.2
		c0.2-0.3,0.5-0.6,0.8-0.8c0.3-0.2,0.6-0.5,0.8-0.7c0.4-0.5,0.8-1,1.2-1.6l1.3-1.6c0.4-0.5,0.6-0.1,0.8-0.3c0.7-0.6,1.3-1.2,1.8-1.9
		c0.5-0.5,1.1-1,1.7-1.3c0.8-0.4,1.6-0.8,2.5-1.1c0.5-0.2,1-0.4,1.5-0.6l1-0.5c-0.2,0-0.5-0.1-0.6-0.3c0.6-0.2,1.2-0.3,1.8-0.5
		c-0.6,0.1-1.2,0.3-1.8,0.5c0.2,0.2,0.4,0.3,0.6,0.3c2.6-1.2,5.3-2,8.2-2.3l0,0c-0.8,0.1-1.7,0.1-2.5,0.2s-1.7,0.1-2.6,0.2
		c0.4-0.1,0.6,0,0.5,0c-0.2,0.1-0.4,0.2-0.7,0.3l-0.7-0.1l1.1-0.4c0.4-0.1,0.7-0.2,1.1-0.2c0.7-0.2,1.5-0.2,2.2-0.1l1-0.2
		c0.5,0,0.5,0.2,0.6,0.3c0.3,0,0.7-0.1,1-0.1c-0.6-0.1-1.2-0.2-1.7-0.3L611.9,526.9z"/>
	<path class="st2" d="M596,533.8c0.2-0.2,0.4-0.3,0.6-0.5L596,533.8l-0.7,0.5l-1.2,1.1C594.8,535.1,595.5,534.5,596,533.8z"/>
</g>
<ellipse class="st2" cx="616.5" cy="556" rx="12.9" ry="12.5"/>
<g class="st1">
	<path class="st3" d="M605.8,550.1l0.4-0.6c-0.1,0.1-0.2,0.2-0.3,0.2C605.8,549.8,605.8,549.9,605.8,550.1z"/>
	<polygon class="st3" points="606.7,548.9 606.8,548.8 606.8,548.7 	"/>
	<path class="st3" d="M607.5,547.9c-0.2,0.1-0.3,0.3-0.4,0.5C607.2,548.2,607.4,548.1,607.5,547.9z"/>
	<path class="st3" d="M606.7,548.6c0.1,0,0.2,0,0.2,0.1l0,0c0.1-0.1,0.1-0.2,0.2-0.3C606.9,548.4,606.8,548.5,606.7,548.6z"/>
	<path class="st3" d="M606.7,548.6c-0.1,0-0.2,0.1-0.3,0.1C606.5,548.6,606.6,548.6,606.7,548.6z"/>
	<path class="st3" d="M605.6,547.2c0.1-0.2,0.4,0.2,0.5-0.1c0.3-0.6,0.7-1.1,1.2-1.6c0.2-0.3,0.9-0.1,1-0.4c0.5-0.5,1.8-2,0.8-1.4
		c-1.2,0.7-2.3,1.7-3.2,2.8c-0.7,1-1.2,2-1.6,3.1c-0.1,0.3-0.3,0.6-0.5,0.8c0.2-0.3,0.5-0.7,0.8-1c0.2-0.3,0.3-0.6,0.4-1
		C605.2,548,605.4,547.6,605.6,547.2z"/>
	<path class="st3" d="M603.9,555.3l-0.1-0.4c0.2-0.3,0.3-0.6,0.3-0.9c0-0.3,0-0.6,0.1-1l-0.3,0.2c-0.1,0.4,0.1,0.4,0.2,0.1
		c-0.4,0.6-0.6,1.4-0.5,2.1C603.7,555.5,603.8,555.5,603.9,555.3z"/>
	<path class="st3" d="M603.6,556c0-0.1,0-0.3,0-0.4l0,0V556z"/>
	<path class="st3" d="M609.4,545.7c1.5-0.9,3.1-1.6,4.9-1.8c0.1-0.1,0.2-0.2,0.4-0.2c0.1,0.1,0.3,0.1,0.4,0.1c0.2,0,0.5,0,0.7,0h0.3
		l0,0c0.1-0.1,0.1-0.1,0-0.2c-0.1,0-0.2-0.1-0.3-0.2c0.1,0,0.2,0.1,0.3,0.2c0.1,0.1,0.3,0.1,0.4,0.1c0.2,0,0.5,0,0.7,0
		c-0.2,0-0.5,0-0.7,0l-0.4,0.1h-0.1c0.6,0,1.1,0,1.7,0.1h0.3c0.4,0,0.8,0,1,0.3c0.1,0,0.2,0,0.3,0.1l0-0.1l0.1,0.1
		c0.4,0.1,0.8,0.2,1.2,0.4c0.3,0,0.6,0,0.9,0c0,0,0.1,0.2,0.2,0.3c0.2-0.1,0.4-0.1,0.5,0c-0.2-0.2-0.3-0.5-0.4-0.6
		c-0.2-0.3-0.8,0.2-1-0.3c0.2,0.5,0.8,0,1,0.3c0.1,0.2,0.3,0.4,0.4,0.6c0.4,0.1,0.8,0.4,1,0.8c-0.4-0.1-0.8-0.4-1-0.8
		c-0.2-0.1-0.4-0.1-0.5,0c0-0.1-0.2-0.3-0.2-0.3c-0.3,0-0.6,0-0.9,0c3.2,1.2,5.8,3.7,7.1,6.8c1,2.4,1.1,5,0.4,7.5
		c-0.9,2.6-2.7,4.8-5.1,6c-2.2,1.2-4.6,1.7-7.1,1.5c-1.2-0.1-2.3-0.4-3.4-1c-1.1-0.6-2-1.4-2.7-2.3c-0.7-0.9-1.3-1.8-1.9-2.7
		c-0.5-0.9-0.9-1.9-1.1-3c-0.5-1-1.2-1.4-1.8-1.3c-0.4,0-0.9,0.2-1.2,0.5c-0.4,0.4-0.6,0.9-0.7,1.5c0,0.3-0.1,0.5-0.1,0.8
		c0,0.3,0,0.5,0.1,0.8c0.3,1.5,0.8,3,1.4,4.5c-0.5-1.4,0-1,0.7-0.1c0.9,1.1,1.8,2.3,2.6,3.6c1,1.9,3.5,3.2,6.1,3.6
		c2.6,0.3,5.3,0.1,7.8-0.6c1.3-0.4,2.6-1,3.8-1.7c3.5-2,6-5.4,6.8-9.4c0.7-4-0.1-8.2-2.4-11.7c-1.2-1.6-2.8-2.9-4.6-3.6
		c-1-0.7-2.2-1.3-3.3-1.8c-1.4-0.5-2.9-0.7-4.4-0.5c1.5,0,2.9,0.1,4.3,0.5c1.1,0.4-0.9,0.3-1.7,0.3c-0.3,0-0.7-0.6-1-0.5
		c-0.3,0-0.7,0-1,0l-1,0.2c-0.3,0.1-0.3-0.4-0.4-0.3c-0.4,0.1-0.9,0.2-1.3,0.5c-0.3,0.2-0.6,0.3-1,0.3c-0.4,0-0.9,0-1.3,0.1
		c-0.3,0-0.5,0.1-0.8,0.2l-0.5,0.3c0.2,0.1,0.3,0.2,0.4,0.4c-0.2,0-0.6,0.1-0.8,0.1c0.2-0.1,0.6-0.1,0.8-0.1
		c-0.1-0.2-0.2-0.3-0.4-0.4c-1.2,0.7-2.2,1.6-3.2,2.5l0,0c0.6-0.5,1.3-0.8,2.1-0.9c-0.3,0-0.4-0.1,0-0.3l0.4,0.1
		c-0.5,0.5-1.1,0.8-1.8,0.9l-0.2,0.4c-0.2,0.1-0.3-0.1-0.4-0.1l-0.3,0.3c0.3,0,0.6-0.1,0.8-0.2L609.4,545.7z"/>
	<path class="st3" d="M616.5,543.7l-0.3,0c0.5,0,0.9,0,1.4,0.1C617.3,543.6,616.9,543.6,616.5,543.7z"/>
</g>
<g class="st1">
	<path class="st2" d="M708.1,293.7c0.3,2.6,0.6,5.3,1,8c-0.1-1.3-0.2-2.7-0.2-4C708.8,296.3,708.6,295,708.1,293.7z"/>
	<path class="st2" d="M710.3,309c0.1,0.5,0.2,1,0.3,1.4s0.2,0.8,0.3,1.2C710.7,310.8,710.4,309.9,710.3,309z"/>
	<path class="st2" d="M713.8,322.6c-0.7-2.4-1.4-4.7-1.9-6.9C712.4,318.1,713,320.4,713.8,322.6z"/>
	<path class="st2" d="M711.3,311.7c0,0.9,0,1.3-0.4,0v-0.1c0.3,1.4,0.7,2.7,1,4.1C711.6,314.4,711.4,313.1,711.3,311.7z"/>
	<path class="st2" d="M711.3,311.7c0-0.8-0.2-2.1-0.2-2.6C711.1,309.9,711.2,310.8,711.3,311.7z"/>
	<path class="st2" d="M715.3,314.4c0.5,1.3-0.6,1.2,0.3,3.8c0.5,1.5,1,3,1.5,4.4c0.3,0.7,0.5,1.4,0.8,2.1l0.9,2
		c0.5,1.3,1.3,2.5,1.9,3.8s1.4,2.5,2.1,3.8c0.9,1.5,1.6,3,2.1,4.6c0.3,0.9,0.6,1.7,0.9,2.5c0.3,0.7,0.6,1.5,0.9,2.2
		c0.8,1.5,1.7,3.6,2.8,5.7s2,4.4,2.7,6.2s1.3,3,1.5,3.3s0.1-0.6-0.7-3c-2-6.3-4.6-12.4-7.8-18.3c-0.7-1.4-1.5-2.6-2.2-4l-1-1.8
		c-0.3-0.6-0.7-1.2-1-1.8c-0.6-1.3-1.2-2.6-1.8-4s-1.1-2.8-1.6-4.3c-1.7-4.9-3.1-9.9-4.2-15c-1.1-5.1-2-10.4-2.7-15.8
		c-0.3-3-0.5-5.9-0.6-8.8c0.1,3.8,0.2,7.6,0.6,11.9c0.3,3.1,0.8,6.2,1.6,9.3C713.2,306.5,714.3,310.2,715.3,314.4z"/>
	<path class="st2" d="M707.5,234.8c0,1.4,0.1,4.2,0.1,4.2c-0.8,6.4-1,12.8-0.5,19.2c0.2-1,0.3-1.9,0.5-2.9c0-3.7-0.3-4.1-0.5-0.9
		c0.6-7.6,0.9-14.7,1.3-22C708.1,232.9,707.8,232.8,707.5,234.8z"/>
	<path class="st2" d="M708.5,228.1c-0.1,1.4-0.1,2.9-0.2,4.3c0,0,0.1-0.1,0.1-0.1c0-1.4,0.1-2.9,0.1-4.3
		C708.6,228,708.6,228.1,708.5,228.1z"/>
	<path class="st2" d="M726.8,349.1c3.2,8.4,5.7,17,7.3,25.9c1.6,8.5,2.6,17,3.1,25.6c0.4,1.3,0.5,2.6,0.5,3.9
		c-0.1,1.3-0.2,2.7-0.2,4c0.1,2.5,0.1,5,0.1,7.4c0,0.9,0,1.7,0.1,2.6v0.1c0.1,1.4,0.3,1,0.4,0.1s0.2-1.8,0.3-2.6
		c-0.1,0.5-0.2,1.8-0.3,2.6c-0.1,1.2-0.2,2.5-0.3,4c0,2.3,0,4.6-0.2,7c0-2.7,0.1-5,0.2-7c0-1.4,0-2.8-0.1-4.2l-0.1-1.2
		c0,5.6-0.3,11.3-0.7,16.9c0,1.3-0.1,2.5-0.2,3.5c-0.1,2-0.2,4.1-0.4,5.9c-0.1,1.6-0.4,3.1-0.8,4.7c-0.1,1-0.2,2-0.4,3
		c0-0.2,0.1-0.4,0.2-0.6c-0.1,0.4-0.2,0.8-0.2,1.1c-0.3,2.1-0.6,4.2-0.9,6.3s-0.7,4.2-1,6.3c-0.2,2.8-0.6,5.6-1,8.4
		c0,0-0.7,1.8-1,2.7c0,1.6-0.2,3.2-0.5,4.8c0.8-2.2,1.5-4.2,2.1-6.1c0.5-1.5,0.7-3.1,0.7-4.7c0-1.7,0.4-3.4,1-5c-0.6,1.6-1,3.3-1,5
		c0,1.6-0.2,3.1-0.7,4.7c-0.6,1.9-1.3,3.9-2.1,6.1c-0.8,4.4-2,8.8-3.7,13c0.9-4.4,2.1-8.7,3.7-13c0.3-1.6,0.5-3.2,0.5-4.8
		c0.3-0.9,1-2.7,1-2.7c0.4-2.8,0.7-5.7,1-8.4c-1.5,8.2-3.2,16.4-5.5,24.7c-3.5,13.1-8,26-13.4,38.5c-5.3,12.3-11.7,24-19.3,35.1
		c-7.6,11.1-16.6,21.2-26.8,29.9c-22.1,19.1-51.2,28.1-80.3,24.8c-14.4-1.4-28.4-6-40.8-13.4c-11.9-7.4-22.3-16.8-30.9-27.9
		c-4.3-5.4-8.2-11.1-11.8-17c-3.6-5.9-6.8-12-9.8-18.2c-5.9-12.6-10.8-25.7-14.6-39c-3.9-13.8-7-27.8-9.1-42
		c-1.7-11.1-4.2-27-6-42.8s-3-31.7-3.4-42.5c-1.3-14.5-2.5-18-3.8-17.6s-2.4,4.4-2.5,5.1c-1.6,9-1.7,17.2-1.3,27.6
		s1.4,23.2,2.8,41.6c-0.5-6.3-0.5-8.3-0.1-7.4c0.8,3.3,1.4,6.6,1.8,10c1.5,10.6,4.1,27.3,5.5,39.2c1.1,9.4,2.9,18.8,5.4,27.9
		c2.8,10.3,6.3,20.5,10.4,30.4c4.3,10.4,9.4,20.5,15.2,30.2c3,4.8,6,9.6,9.4,14.2c1.6,2.3,3.4,4.5,5,6.7c0.9,1.1,1.8,2.2,2.7,3.2
		c0.9,1.1,1.7,2.2,2.7,3.2l2.8,3.1c0.9,1,2,2,3,3c2,2,4.2,3.9,6.5,5.9c4.9,4,10,7.7,15.4,10.9c7.4,4.5,15.3,8,23.5,10.5
		c8.1,2.4,16.5,3.8,25,4.3c2.1,0.2,4.2,0.1,6.3,0.2h3.1l3.1-0.2c2.1-0.1,4.2-0.2,6.3-0.4s4.2-0.4,6.3-0.8c8.3-1.3,16.5-3.5,24.3-6.7
		c15.7-6.3,29.7-16.4,41.7-28.5s21.9-26.5,30.3-42c8.7-16.6,13.7-32.3,17.7-47.4c3.1-10.9,6.2-22.7,7.8-31.8
		c2.3-12.8,3.5-25.8,3.6-38.9c-0.2,6.7-0.6,12.5-1.1,18.4s-1.3,12.1-2.5,19.5c-0.9,4.9-0.9,3.1-0.5-0.6s0.8-9.6,1.1-12.9
		c0.2-1.7,0.5-3.3,0.9-4.9c0.4-1.6,0.7-3.3,0.8-5c0.5-6.1,0.6-12.2,0.5-18.3c-0.2-2.8,0.8-2.5,0.7-3.9c-0.1-9-1.6-15.8-1.7-21.5
		c-0.1-4.3-0.4-8.2-0.7-12.1c-0.2-2.4-0.5-4.8-0.9-7.3c-0.3-1.5-0.7-3.2-1-4.8c0,0.8-0.2,1.6-0.6,2.3c-0.2-1.2-0.4-2.6-0.6-4
		s-0.4-2.8-0.6-4c0.2,1.2,0.5,2.6,0.6,4s0.4,2.8,0.6,4c0.4-0.7,0.7-1.5,0.6-2.3c-2.6-11.5-6.7-24.6-12.6-35.8v0.2
		c3.3,6.6,5.7,13.7,7.1,21c-0.7-3.2-0.3-2.9,0.8,0.7c0.1,1,0.2,2,0.2,2.9c-1.9-6.3-4.1-12.4-5.8-18.4l-0.7-1.4l-1.2-2.3
		c-0.7-1.9-0.4-2-0.4-2.5c-0.7-1.3-1.3-2.6-2-3.9c0.3,0.7,0.7,1.8,1.2,3.1s1,2.6,1.5,4l0.7,1.9c0.2,0.6,0.4,1.1,0.5,1.6L726.8,349.1
		z"/>
	<path class="st2" d="M737.9,422.9c0-1,0-2.2,0-3.5c0,2.4-0.1,4.7-0.2,7.1s-0.2,4.7-0.4,7.1C737.8,431.1,737.9,427,737.9,422.9z"/>
</g>
</svg>
