<?xml version="1.0" encoding="utf-8"?>
<!-- Generator: Adobe Illustrator 25.0.0, SVG Export Plug-In . SVG Version: 6.00 Build 0)  -->
<svg version="1.1" id="Layer_1" xmlns="http://www.w3.org/2000/svg" xmlns:xlink="http://www.w3.org/1999/xlink" x="0px" y="0px"
	 viewBox="0 0 841.9 841.9" style="enable-background:new 0 0 841.9 841.9;" xml:space="preserve">
<style type="text/css">
	.st0{fill:#EEE2DE;}
	.st1{opacity:0.85;}
	.st2{fill:#090A0A;}
</style>
<rect class="st0" width="841.9" height="841.9"/>
<g class="st1">
	<path class="st2" d="M201.5,460.4c0.1-0.6,0.2-1.1,0.3-1.7c-0.1,0.3-0.3,0.6-0.4,0.8C201.2,459.9,201.4,460.1,201.5,460.4z"/>
	<path class="st2" d="M202,457.1v-0.3l-0.1-0.3L202,457.1z"/>
	<path class="st2" d="M202.1,454.1c-0.1,0.5-0.2,1-0.1,1.5C202.1,455.1,202.2,454.6,202.1,454.1z"/>
	<path class="st2" d="M201.6,456.5c0.2-0.2,0.3-0.2,0.4,0.1l0,0v-0.9C201.9,455.9,201.8,456.2,201.6,456.5z"/>
	<path class="st2" d="M201.6,456.5c-0.1,0.2-0.3,0.4-0.4,0.5C201.4,456.8,201.5,456.7,201.6,456.5z"/>
	<path class="st2" d="M198.3,455.3c-0.1-0.3,0.9-0.1,0.7-0.7s-0.1-1.3-0.2-2c-0.1-0.6-0.1-1.3-0.1-1.9c-0.2-0.6,0.9-1.4,0.8-2
		c-0.1-0.9-0.4-1.8-0.7-2.7c-0.3-0.8-0.6-1.2-0.6-0.1c-0.1,3.1,0.1,5.1,0,7.9c0.1,2.3,0.4,4.5,0.4,6.9c-0.1,0.6-0.2,1.2-0.4,1.8
		c0.3-0.8,0.6-1.5,0.9-2.4C199.4,458.8,198.3,457.2,198.3,455.3z"/>
	<path class="st2" d="M198.5,472.8l-0.1-1c0.8-1.2,1.2-2.6,1.1-4l-0.6,0.5c-0.1,0.8,0.1,0.9,0.5,0.3c-0.8,1.4-1.4,2.9-1.6,4.5
		C198,473.1,198.3,473.2,198.5,472.8z"/>
	<path class="st2" d="M197.6,474l0.1-0.9h-0.1L197.6,474L197.6,474z"/>
	<path class="st2" d="M201.7,447.7c0.2-2,0.1-3.9,0.2-5.8c0-1,0.1-1.9,0.1-2.8s0-1.8,0-2.8c-0.2-0.3-0.4-0.5-0.3-0.9
		c0.2-0.3,0.3-0.6,0.3-0.9V433l-0.1-0.6l0,0c-0.1-0.3-0.3-0.2-0.4,0c-0.1,0.2-0.2,0.4-0.3,0.6c0.1-0.1,0.2-0.4,0.3-0.6
		c0.1-0.3,0.2-0.6,0.2-0.9c-0.1-0.5-0.1-1-0.1-1.5c0.1,0.5,0.2,1,0.1,1.5c0,0.3,0.1,0.6,0.1,0.9l0.1,0.3c0-1.2,0-2.4,0-3.6
		c0-0.3-0.1-0.5-0.1-0.8c-0.3-0.8-0.3-1.6,0-2.4v-0.6l-0.1,0.1c0-0.1,0-0.2,0.1-0.2c0-0.9-0.1-1.8-0.1-2.8c-0.2-0.6-0.5-1.2-0.7-1.8
		l0.4-0.7c-0.3-0.3-0.5-0.6-0.6-1c-0.2,0.5-0.5,1-0.7,1.4c-0.4,0.6,1.1,1.3,0.3,2.1c0.8-0.8-0.7-1.4-0.3-2.1
		c0.1-0.4,0.4-0.9,0.7-1.4c-0.2-1-0.2-2,0.1-2.9c0.4,0.9,0.4,2-0.1,2.9c0.1,0.4,0.3,0.7,0.6,1l-0.4,0.7c0.2,0.6,0.5,1.2,0.7,1.8
		c-0.1-1.8-0.2-3.6-0.3-5.5c-0.8-12-3.1-22.9-5.8-35c-1.5-6.6-3-12.9-4.4-19.1c-1.6-6-3.5-11.9-5.7-17.6c-2.3-5.8-4.2-11.8-5.8-17.8
		c-0.9-3.1-2.1-6-3.6-8.9c-1.6-3.2-3.3-6.2-4.5-8.3c-2.2-2.5-3.9-2.5-5-1.8c-0.7,0.5-1.3,1.3-1.6,2.2c-1.3,5.1,1.9,6.8,3.4,14.8
		c-1.3-5.3,3.8,2.6,3.6,8.2c-0.2,4.1,1.4,8.1,3.2,12.4s4,8.5,5.1,12.9c0.6,2.2,1.4,4.4,2.2,6.9c1.6,6.8,3.5,13.1,5.4,19.5
		c2,6.6,3.6,13.4,4.8,20.2c0.3,1.8,0.8,3.6,1.4,5.3c0.5,1.7,1.1,3.2,1.5,4.8c0.5,2.3,0.2,4.9,0.4,6.8c0.3,2.7,0.7,5.4,1.3,8
		c-0.4-2.8-0.6-4.8-1.1-7.8c-0.3-2,1.4,1.3,1.8,2.7c0.2,0.6-0.8,1.6-0.5,2.1c0.2,1.3,0.5,2.6,0.9,3.8c0.2,0.6-0.7,0.5-0.6,0.8
		c0.2,1.9,1.5,3.3,1.3,4.5c-0.1,0.9-0.2,1.7-0.4,2.5c-0.1,0.5-0.1,1-0.1,1.5l0.2,1c0.3-0.2,0.6-0.4,1-0.5c-0.1,0.5-0.3,1.2-0.4,1.7
		c0.1-0.5,0.3-1.2,0.4-1.7c-0.4,0.1-0.7,0.2-1,0.5c0.2,1.2,0.5,2.6,0.7,3.9s0.3,2.8,0.4,4.1h0.1c0-1.6,0.3-3.2,0.8-4.7
		c-0.2,0.7-0.5,0.6-0.5-0.2l0.5-0.6c0.1,0.7,0.2,1.4,0.2,2.1c0,0.7-0.2,1.4-0.6,2l0.3,0.9c-0.2,0.4-0.5,0.4-0.7,0.5
		c0,0.3,0,0.6,0,0.9C200.9,449.5,201.4,448.6,201.7,447.7z"/>
	<path class="st2" d="M201.9,431.5c0,0.2,0.1,0.5,0.1,0.8c0-1,0-2,0-3.1C201.5,429.8,201.7,430.7,201.9,431.5z"/>
</g>
<g class="st1">
	<path class="st2" d="M642.1,458.2c-0.1-0.5-0.1-1.1-0.2-1.7c0,0.3-0.1,0.6-0.2,0.9C641.6,457.8,641.8,458,642.1,458.2z"/>
	<path class="st2" d="M641.8,455v-0.3l-0.1-0.2L641.8,455z"/>
	<path class="st2" d="M641.2,452.1c0,0.5,0.1,1,0.2,1.5C641.4,453.1,641.3,452.6,641.2,452.1z"/>
	<path class="st2" d="M641.2,454.5c0.1-0.2,0.3-0.3,0.4,0l0,0c-0.1-0.3-0.2-0.6-0.2-0.9C641.4,453.9,641.3,454.2,641.2,454.5z"/>
	<path class="st2" d="M641.2,454.5c-0.1,0.2-0.2,0.5-0.3,0.6C641.1,454.9,641.2,454.7,641.2,454.5z"/>
	<path class="st2" d="M637.8,454.1c-0.1-0.3,0.8-0.3,0.5-0.9s-0.5-1.3-0.7-2c-0.2-0.6-0.3-1.3-0.4-1.9c-0.3-0.6,0.7-1.6,0.5-2.2
		c-0.3-0.9-0.6-1.9-1.1-2.7c-0.4-0.8-0.7-1.2-0.6-0.1c0.4,3.2,0.7,5.3,1.2,8.2c0.7,2.3,1.3,4.5,2,6.8c0.1,0.6,0.2,1.3,0.2,1.9
		c0-0.8,0-1.7,0-2.6C639.6,457.3,638.2,456,637.8,454.1z"/>
	<path class="st2" d="M643.9,470.6l-0.5-0.8c0.4-1.5-0.2-2.7-0.8-4l-0.3,0.7c0.2,0.8,0.5,0.8,0.6,0.1c-0.2,1.6,0,3.2,0.5,4.7
		C643.6,471.1,643.9,471.1,643.9,470.6z"/>
	<path class="st2" d="M643.7,472.2c-0.1-0.3-0.2-0.6-0.3-0.9c0,0-0.1,0-0.1,0C643.4,471.6,643.5,471.9,643.7,472.2L643.7,472.2z"/>
	<path class="st2" d="M639.8,445.9c-0.2-2-0.2-3.9-0.2-5.8c0-0.9,0-1.9,0-2.8s0.1-1.8,0.1-2.7c-0.2-0.3-0.4-0.5-0.3-0.9
		c0.2-0.3,0.3-0.5,0.4-0.9l0.1-1.6l-0.1-0.6l0,0c-0.1-0.3-0.3-0.2-0.4,0c-0.1,0.2-0.2,0.4-0.4,0.5c0.1-0.1,0.2-0.4,0.4-0.5
		c0.1-0.3,0.2-0.5,0.3-0.8c-0.1-0.5-0.1-1,0-1.5c0.1,0.5,0.1,1,0,1.5l0.1,0.9l0.1,0.3c0-1.2,0.2-2.4,0.3-3.6c0-0.3,0-0.5,0-0.8
		c-0.1-0.9-0.2-1.8,0.3-2.3l0.1-0.6l-0.1,0.1c0-0.1,0.1-0.2,0.1-0.2c0.1-0.9,0.2-1.8,0.3-2.7c-0.1-0.6-0.3-1.2-0.4-1.9l0.5-0.6
		c-0.2-0.3-0.4-0.7-0.4-1.1c-0.3,0.5-0.7,0.9-0.9,1.3c-0.5,0.6,0.8,1.5-0.1,2.1c1-0.6-0.4-1.5,0.1-2.1c0.2-0.4,0.6-0.8,0.9-1.3
		c-0.1-1,0.2-2,0.8-2.8c0.2,1-0.1,2-0.8,2.8c0,0.4,0.2,0.8,0.4,1.1l-0.5,0.6c0.1,0.6,0.2,1.2,0.4,1.9c0.3-1.8,0.5-3.6,0.8-5.4
		c2-11.7,4-22.4,7.5-34.2c1.9-6.2,4.1-12.2,6.7-18.1c2.5-5.7,4.5-11.3,6.8-16.8c2.2-5.7,5.1-11.1,8.6-16.1c2.7-4,6.2-12.2,8.3-16.3
		c0.7-3.1-0.2-4.4-1.3-4.9c-0.8-0.4-1.8-0.5-2.7-0.3c-4.9,1.8-4.7,5.4-10,11.6c3.4-4.4,0.3,4.5-4,8.2c-3.2,2.6-5.2,6.8-6.8,11.2
		s-2.9,9.2-4.9,13.4c-1,2.1-1.6,4.5-2.6,7c-2.7,6.5-4.8,13.2-6.3,20.1c-1.6,6.8-2.8,13.8-4.2,21.3c-0.3,1.9-0.4,3.8-0.4,5.7
		c0,1.8,0.2,3.6,0.2,5.3c-0.2,2.4-0.9,5-1.1,7c-0.2,2.8-0.2,5.7,0.2,8.5c0-2.9-0.2-5,0-8.3c0.2-2.1,1.1,1.6,1.2,3
		c0.2,0.6-0.9,1.5-0.8,2.1c0,1.3,0.2,2.7,0.5,4c0.2,0.6-0.8,0.5-0.7,0.8c0.2,2,1.4,3.5,1.1,4.7l-0.5,2.6c0,0.5,0,1.1,0,1.6l0.3,1
		c0.3-0.3,0.6-0.4,1-0.5c0,0.5-0.2,1.2-0.3,1.7c0-0.5,0.2-1.2,0.3-1.7c-0.4,0.1-0.7,0.2-1,0.5c0.3,1.3,0.6,2.6,0.9,4
		s0.6,2.8,0.9,4.1h0.1c-0.3-1.6-0.2-3.2,0.3-4.8c-0.2,0.7-0.5,0.6-0.5-0.2l0.5-0.6c0.2,0.7,0.3,1.4,0.3,2.1c0.1,0.7,0,1.4-0.3,2
		l0.4,0.9c-0.1,0.5-0.4,0.5-0.7,0.6c0,0.3,0.1,0.6,0.1,0.9C639.3,447.8,639.6,446.8,639.8,445.9z"/>
	<path class="st2" d="M639.7,429.8c0,0.2,0,0.5,0.1,0.8c0-1,0.2-2,0.3-3C639.6,428,639.6,428.9,639.7,429.8z"/>
</g>
<g class="st1">
	<path class="st2" d="M244.5,540.3l1.4,0.2c-0.2-0.1-0.5-0.2-0.7-0.4C244.9,540,244.7,540.2,244.5,540.3z"/>
	<path class="st2" d="M247.1,540.7h0.2h0.2H247.1z"/>
	<path class="st2" d="M249.6,540.8c-0.4-0.1-0.8-0.1-1.2-0.1C248.7,540.8,249.1,540.8,249.6,540.8z"/>
	<path class="st2" d="M247.7,540.4c0.1,0.1,0.2,0.2-0.1,0.3l0,0h0.7C248.1,540.7,247.9,540.6,247.7,540.4z"/>
	<path class="st2" d="M247.7,540.4c-0.1-0.1-0.4-0.2-0.4-0.3C247.4,540.2,247.5,540.3,247.7,540.4z"/>
	<path class="st2" d="M248.6,538c0.2,0,0.1,0.7,0.6,0.5c1-0.1,2.1-0.2,3.1-0.2c0.5-0.1,1.2,0.7,1.6,0.6c1.1-0.1,4-0.9,2.4-0.9
		c-2.5-0.1-4.2,0-6.4-0.1l-2.8,0.2c-0.9,0-1.8,0-2.8,0c-0.5-0.1-1-0.2-1.5-0.3c0.6,0.2,1.3,0.4,2,0.6C245.8,538.7,247,538,248.6,538
		z"/>
	<path class="st2" d="M234.6,537.9l0.8-0.1c0.9,0.7,2.1,1,3.2,0.8l-0.4-0.5c-0.6-0.1-0.8,0.1-0.2,0.4c-1.1-0.7-2.3-1.1-3.6-1.3
		C234.3,537.5,234.2,537.8,234.6,537.9z"/>
	<path class="st2" d="M233.5,537.2l0.7,0.1c0,0,0,0,0-0.1L233.5,537.2L233.5,537.2z"/>
	<path class="st2" d="M254.7,540.6c1.6,0.1,3.1,0.2,4.7,0.3s3,0.2,4.5,0.2c0.2-0.1,0.4-0.3,0.7-0.2c0.2,0.1,0.4,0.2,0.7,0.3l1.3,0.1
		h0.5l0,0c0.2-0.1,0.2-0.2,0-0.3c-0.2-0.1-0.3-0.2-0.5-0.3c0.1,0.1,0.3,0.2,0.5,0.3c0.2,0.1,0.4,0.2,0.7,0.2c0.4,0,0.8,0,1.2,0
		c-0.4,0.1-0.8,0.1-1.2,0l-0.7,0.1l-0.2,0.1l2.9,0.1h0.6c0.6-0.2,1.3-0.1,1.8,0.2h0.5l-0.1-0.1l0.2,0.1l2.2,0.1
		c0.5-0.2,1-0.3,1.5-0.4l0.5,0.3c0.2-0.2,0.5-0.3,0.8-0.4c-0.4-0.2-0.8-0.4-1.1-0.6c-0.5-0.3-1.1,0.7-1.7,0.1
		c0.6,0.7,1.2-0.4,1.7-0.1c0.3,0.2,0.7,0.4,1.1,0.6c0.8-0.1,1.6,0,2.3,0.3c-0.8,0.3-1.6,0.2-2.3-0.3c-0.3,0.1-0.6,0.2-0.8,0.4
		l-0.5-0.3c-0.5,0.1-1,0.3-1.5,0.4c1.4,0,2.9,0.1,4.4,0.1c9.6,0.2,18.5-0.4,28.4-1c5.4-0.3,10.6-0.5,15.7-0.6
		c10.2-0.3,19.2-2.5,29.7-2.3c4,0,11.2-1.5,14.9-2.2c4.8-2.1,1.6-4.7,1.4-4.8c-3.5-2-5.7-0.2-12.2-0.7c4.4,0.2-2.9,2.2-7.2,1
		c-6.2-1.8-14.2,1.5-21.5,1.7c-1.8,0-3.7,0.4-5.9,0.6c-11.2,0.3-21.5,2.4-33.3,2.8c-2.8,0.3-5.7,0.7-8.4,1.4c-1.8,0.1-3.7,0-5.5-0.1
		c-2.2,0.1-4.4,0.3-6.6,0.6c2.3-0.1,3.9-0.3,6.4-0.5c1.7-0.1-1.1,0.9-2.3,1.2c-0.5,0.2-1.2-0.6-1.7-0.5c-1.1,0.1-2.1,0.2-3.1,0.5
		c-0.5,0.2-0.4-0.6-0.6-0.5c-1.5,0.1-2.7,1-3.7,0.8l-2-0.4c-0.4-0.1-0.8-0.1-1.2-0.1l-0.8,0.1c0.2,0.2,0.3,0.5,0.3,0.8
		c-0.4-0.1-1-0.2-1.4-0.3c0.4,0.1,1,0.2,1.4,0.3c0-0.3-0.2-0.6-0.3-0.8c-1,0.2-2.1,0.3-3.2,0.4s-2.2,0.2-3.3,0.3v0.1
		c1.3,0,2.6,0.2,3.8,0.7c-0.6-0.2-0.5-0.4,0.2-0.4l0.5,0.4c-1.1,0.3-2.3,0.1-3.3-0.3l-0.7,0.2c-0.3-0.1-0.3-0.3-0.4-0.5h-0.7
		C253.2,540,254,540.3,254.7,540.6z"/>
	<path class="st2" d="M267.7,541.2l-0.6,0l2.5,0.1C268.9,541,268.3,541,267.7,541.2z"/>
</g>
<g class="st1">
	<path class="st2" d="M597.8,536.8l-1.4,0.2c0.2,0,0.5,0.1,0.7,0.2C597.5,537.1,597.6,537,597.8,536.8z"/>
	<path class="st2" d="M595.2,537H595l-0.2,0.1L595.2,537z"/>
	<path class="st2" d="M592.9,537.5c0.4,0,0.8-0.1,1.2-0.2C593.7,537.3,593.3,537.4,592.9,537.5z"/>
	<path class="st2" d="M594.8,537.5c-0.2-0.1-0.2-0.2,0-0.3l0,0l-0.7,0.2C594.3,537.3,594.5,537.4,594.8,537.5z"/>
	<path class="st2" d="M594.8,537.5c0.2,0.1,0.4,0.2,0.5,0.2C595.1,537.6,594.9,537.5,594.8,537.5z"/>
	<path class="st2" d="M594.5,540.1c-0.2,0.1-0.2-0.6-0.7-0.4c-1,0.4-2,0.7-3.1,0.8c-0.5,0.2-1.3-0.5-1.8-0.3c-1.1,0.3-4,1.5-2.2,1.3
		c2.6-0.3,4.2-0.6,6.5-1l2.7-0.8l2.7-0.8c0.5-0.1,1-0.1,1.5-0.2H598C597,538.7,596,539.7,594.5,540.1z"/>
	<path class="st2" d="M607.8,535.3l-0.6,0.4c-1.1-0.1-2.3,0.1-3.2,0.6l0.6,0.3c0.6-0.2,0.7-0.4,0.1-0.4c1.3,0.1,2.6,0,3.8-0.5
		C608.2,535.5,608.2,535.3,607.8,535.3z"/>
	<path class="st2" d="M609,535.5l-0.7,0.2l0,0L609,535.5L609,535.5z"/>
	<path class="st2" d="M587.9,538.6c-1.6,0.2-3.1,0.2-4.6,0.3s-3,0.1-4.5,0.1c-0.2,0.1-0.4,0.3-0.7,0.2c-0.2-0.1-0.4-0.2-0.7-0.2
		h-1.3l-0.5,0.1l0,0c-0.2,0.1-0.2,0.2,0,0.3c0.2,0.1,0.3,0.2,0.5,0.2c-0.1-0.1-0.3-0.2-0.5-0.2c-0.2-0.1-0.5-0.2-0.7-0.2
		c-0.4,0-0.8,0-1.2,0c0.4-0.1,0.8-0.1,1.2,0l0.7-0.1l0.2-0.1c-1,0-2,0-2.9-0.1l-0.6,0.1c-0.6,0.2-1.3,0.1-1.8-0.1H570l0.1,0.1
		l-0.2-0.1l-2.2-0.1c-0.5,0.1-1,0.3-1.5,0.4l-0.5-0.4c-0.2,0.2-0.5,0.3-0.8,0.3c0.4,0.2,0.8,0.5,1.1,0.6c0.5,0.4,1.1-0.7,1.7,0
		c-0.6-0.7-1.2,0.4-1.7,0c-0.3-0.2-0.7-0.4-1.1-0.6c-0.8,0.1-1.6,0-2.3-0.4c0.8-0.2,1.6-0.1,2.3,0.4c0.3,0,0.6-0.2,0.8-0.3l0.5,0.4
		c0.5-0.1,1-0.3,1.5-0.4c-1.4-0.1-2.9-0.1-4.4-0.3c-9.5-0.7-18.3-1.2-28.2-2.4c-5.3-0.7-10.4-1.5-15.4-2.5c-9.9-2-19.2-2.2-29-5.6
		c-3.8-1.2-11-2-14.7-2.6c-5.1,0.3-3.1,3.8-2.9,4c2.6,3.1,5.3,2.1,11.3,4.7c-4.1-1.6,3.4-1.2,7.2,1.2c5.5,3.6,14.2,2.6,21.4,4.2
		c1.8,0.4,3.7,0.5,5.9,0.8c11.2,2.2,21.9,2,33.8,2.8c2.9,0,5.8-0.2,8.7-0.7c2-0.1,4,0.3,5.6,0.3c2.2,0,4.5-0.2,6.7-0.6
		c-2.3,0.1-4,0.4-6.5,0.4c-1.7,0,1.2-0.9,2.3-1.1c0.5-0.2,1.2,0.6,1.7,0.5c1.1-0.1,2.1-0.3,3.1-0.5c0.5-0.2,0.4,0.6,0.7,0.5
		c1.5-0.2,2.7-1.2,3.7-1l2.1,0.3c0.4,0,0.9,0,1.3,0l0.9-0.2c-0.2-0.2-0.4-0.5-0.4-0.7c0.4,0,1,0.2,1.4,0.2c-0.4,0-1-0.2-1.4-0.2
		c0.1,0.3,0.2,0.5,0.4,0.7c1-0.3,2.1-0.5,3.2-0.8s2.2-0.5,3.3-0.8v-0.1c-1.3,0.2-2.6,0.2-3.8-0.2c0.6,0.1,0.5,0.3-0.1,0.4l-0.5-0.3
		c1.1-0.4,2.2-0.4,3.3-0.1l0.7-0.3c0.4,0.1,0.4,0.3,0.5,0.5l0.7-0.1C589.4,539,588.7,538.8,587.9,538.6z"/>
	<path class="st2" d="M574.9,539.1l0.6-0.1l-2.5-0.1C573.7,539.3,574.3,539.3,574.9,539.1z"/>
</g>
</svg>
