<?xml version="1.0" encoding="utf-8"?>
<!-- Generator: Adobe Illustrator 25.0.0, SVG Export Plug-In . SVG Version: 6.00 Build 0)  -->
<svg version="1.1" id="Layer_1" xmlns="http://www.w3.org/2000/svg" xmlns:xlink="http://www.w3.org/1999/xlink" x="0px" y="0px"
	 viewBox="0 0 841.9 841.9" style="enable-background:new 0 0 841.9 841.9;" xml:space="preserve">
<style type="text/css">
	.st0{fill:#593D2B;}
	.st1{opacity:0.85;}
	.st2{fill:#FEFEFE;}
	.st3{fill:#EDEFEF;}
</style>
<rect x="0.8" class="st0" width="841.9" height="841.9"/>
<g class="st1">
	<path class="st2" d="M142.7,566.2c-0.3,0.3-0.7,0.6-1.1,0.9c0.2-0.1,0.4-0.2,0.7-0.3C142.5,566.7,142.6,566.5,142.7,566.2z"/>
	<path class="st2" d="M140.5,567.8c-0.1,0-0.1,0.1-0.2,0.1l-0.2,0.1C140.3,568,140.4,567.9,140.5,567.8z"/>
	<path class="st2" d="M138.4,568.9c0.2,0,0.4-0.1,0.6-0.2c0.2-0.1,0.4-0.2,0.5-0.3c-0.2,0.1-0.4,0.1-0.5,0.2L138.4,568.9z"/>
	<path class="st2" d="M140.2,568.2c-0.2,0-0.3,0-0.1-0.2l0,0l-0.6,0.4C139.7,568.3,140,568.3,140.2,568.2z"/>
	<path class="st2" d="M140.2,568.2c0.2,0,0.3,0,0.5-0.1C140.6,568.2,140.4,568.2,140.2,568.2z"/>
	<path class="st2" d="M140.3,570.1c-0.2,0.2-0.4-0.3-0.8,0s-1.1,0.5-1.7,0.7c-0.6,0.2-1.2,0.3-1.8,0.4c-0.6,0.1-1.4-0.4-2-0.3
		s-1.8,0.1-2.6,0.1s-1.1,0.1-0.2,0.3c1.3,0.2,2.6,0.3,3.9,0.2c0.3,0,0.6,0,0.9-0.1l0.9-0.2l0.9-0.2l0.9-0.3c2-0.8,3.8-2.2,5.2-3.8
		c0.4-0.5,0.8-0.8,1.2-1.2l-0.8,0.8c-0.3,0.3-0.6,0.5-0.9,0.8c-0.5,0.4-0.9,0.8-1.3,1.3c-0.2,0.2-0.5,0.5-0.8,0.8
		C141.1,569.6,140.7,569.9,140.3,570.1z"/>
	<path class="st2" d="M148.8,557.5l-0.2,0.8c-0.4,0.4-0.7,0.9-1,1.5c-0.3,0.5-0.5,1.1-0.7,1.6c0.2-0.1,0.3-0.2,0.5-0.3
		c0.3-0.6,0.2-0.8-0.2-0.3c0.4-0.5,0.8-1.1,1.2-1.7c0.3-0.6,0.6-1.2,0.9-1.8C149.1,557.3,149,557.2,148.8,557.5z"/>
	<path class="st2" d="M149.6,556.5c-0.1,0.2-0.2,0.5-0.3,0.7h0.1L149.6,556.5L149.6,556.5z"/>
	<path class="st2" d="M133.1,569.7c-3.2-0.4-6.4-1.3-9.3-2.7c-0.3,0-0.5,0-0.7-0.1c-0.2-0.2-0.4-0.3-0.6-0.5l-1.2-0.6l-0.4-0.2l0,0
		c-0.3-0.1-0.2,0-0.1,0.2c0.1,0.1,0.3,0.2,0.4,0.4c-0.1-0.1-0.2-0.2-0.4-0.4s-0.3-0.3-0.6-0.5c-0.4-0.2-0.8-0.4-1.1-0.7
		c0.4,0.2,0.8,0.4,1.1,0.7c0.2,0.1,0.5,0.2,0.7,0.3l0.2,0.1c-0.9-0.5-1.8-1.1-2.6-1.7l-0.5-0.4c-0.6-0.3-1.1-0.7-1.5-1.3
		c-0.1-0.1-0.3-0.2-0.4-0.4l0.1,0.1l-0.1-0.2c-0.5-0.5-1.1-1.1-1.6-1.7c-0.4-0.3-0.8-0.6-1.2-1l-0.2-0.5c-0.3-0.1-0.5-0.3-0.7-0.5
		c0.1,0.4,0.2,0.8,0.4,1.2c0.2,0.6,1.2,0.6,1.2,1.4c-0.1-0.8-1.1-0.8-1.2-1.4c-0.2-0.4-0.3-0.8-0.4-1.2c-0.5-0.6-0.9-1.3-1.2-2.1
		c0.6,0.6,1,1.4,1.2,2.2c0.2,0.2,0.4,0.4,0.7,0.5l0.2,0.5c0.4,0.4,0.8,0.7,1.2,1l-1.4-1.8l-1.3-1.9c-2.6-4.2-4-9.1-4.1-14
		c0-1.2,0-2.4,0.1-3.6c0.1-0.6,0.2-1.2,0.3-1.8l0.2-0.9l0.2-0.9c0.2-0.6,0.3-1.2,0.5-1.8s0.4-1.2,0.7-1.8c0.2-0.6,0.5-1.2,0.8-1.7
		c0.3-0.6,0.6-1.1,0.9-1.7c1.2-2.3,3.2-4.1,5.6-5.2c2.3-0.8,4.8-0.9,7.2-0.1c2.4,0.7,4.8,1.6,7.1,2.8c2.3,1.1,4.6,2.3,6.8,3.6
		c2.2,1.2,4.3,2.7,6.2,4.3c1.9,1.5,3.3,3.4,4.3,5.6c0.2,0.4,0.3,0.8,0.5,1.3s0.2,1,0.4,1.5s0.2,1.1,0.2,1.7c0,0.3,0,0.6,0,0.9
		c0,0.3,0,0.6,0,0.9c-0.2,2.4-0.7,4.7-1.5,7c-0.5,2.5-0.2,3.4,0.5,3.6c0.5,0.1,1.1-0.1,1.5-0.4c1.4-1.2,2.3-2.8,2.8-4.5l0.5-1.5
		c0.1-0.6,0.3-1.2,0.4-1.8c0.3-1.6,0.6-3.2,0.7-4.8c-0.1,1.3-0.2,1.7-0.4,1.5c-0.1-0.2-0.2-0.4-0.2-0.7c0-0.5-0.1-0.9-0.2-1.3
		c-0.2-1.3-0.5-2.5-0.9-3.8c-0.4-1.4-1.1-2.7-1.6-3.8c-0.4-0.9-0.9-1.7-1.4-2.4c-0.3-0.4-0.6-0.8-0.9-1.2s-0.7-0.7-1.1-1
		c-1.5-1.4-3.2-2.6-5.1-3.7c-1.8-1.1-3.7-2-5.6-3l-5.6-2.8c-2.1-1-4.3-1.7-6.6-2.2c-0.8-0.2-1.7-0.4-2.6-0.5L121,518
		c-0.4,0-0.9,0-1.4,0c-0.9,0-1.9,0.2-2.8,0.4c-0.5,0.1-0.9,0.3-1.4,0.5c-0.4,0.2-0.9,0.3-1.3,0.6c-2.4,1.4-4.4,3.3-5.8,5.6
		c-0.5,0.7-0.9,1.4-1.2,2.2c-1.5,3-2.5,6.1-3,9.4c-0.5,3.4-0.5,6.9,0.1,10.2c0.7,3.3,2,6.4,4,9.2c0.3,0.5,0.6,1,0.8,1.5
		s0.6,1,0.9,1.4c0.5,0.9,1.1,1.7,1.8,2.5c0.2,0.3,0.5,0.5,0.7,0.8l0.8,0.7c0.5,0.5,1,0.9,1.5,1.3l1.6,1c0.3,0.2,0.5,0.3,0.8,0.5
		l0.8,0.4l-0.8-0.5l-0.7-0.5l-1.4-1c-0.5-0.4-0.9-0.8-1.4-1.2c-0.5-0.4-1-0.9-1.5-1.4c-0.7-0.7-0.3-0.6,0.3-0.1s1.6,1.1,2.1,1.5
		c0.3,0.2,0.5,0.5,0.6,0.8c0.2,0.3,0.4,0.5,0.7,0.7c0.5,0.4,1,0.7,1.5,1c0.5,0.3,1.1,0.5,1.6,0.8s0.2,0.6,0.5,0.7
		c0.7,0.3,1.5,0.6,2.2,0.7c0.6,0.1,1.2,0.3,1.7,0.6c0.7,0.4,1.4,0.7,2,1c0.4,0.2,0.8,0.3,1.3,0.5l0.9,0.2c-0.1-0.2-0.2-0.4-0.2-0.6
		c0.4,0.2,1,0.4,1.4,0.6c-0.4-0.2-1-0.4-1.4-0.6c0,0.2,0.1,0.4,0.2,0.6c2.4,0.5,4.8,0.6,7.2,0.5l0,0c-1.4,0-2.8-0.2-4.1-0.8
		c0.6,0.2,0.5,0.3-0.2,0.2c-0.1-0.1-0.3-0.2-0.5-0.3c1.2,0.1,2.4,0.3,3.5,0.7c0.3,0,0.5-0.1,0.8-0.1c0.4,0.1,0.4,0.2,0.4,0.3h0.8
		c-0.5-0.1-0.9-0.3-1.4-0.3L133.1,569.7z"/>
	<path class="st2" d="M120.1,565.2c0.2,0.1,0.4,0.2,0.6,0.3c-0.7-0.5-1.5-1-2.2-1.4C118.9,564.6,119.4,565,120.1,565.2z"/>
</g>
<path class="st3" d="M122.1,559.1c-5.3-1.1-8.7-6.4-7.6-11.7c0,0,0,0,0,0c1.2-5.3,5.1-5.2,10.4-4s10.1,2.8,8.9,8.2
	C132.7,556.8,127.4,560.2,122.1,559.1z"/>
<g class="st1">
	<path class="st2" d="M126.9,559.3c0.2,0,0.4-0.1,0.6-0.2c-0.1,0-0.2,0-0.3,0C127.1,559.1,127,559.2,126.9,559.3z"/>
	<polygon class="st2" points="128,558.9 128.1,558.9 128.2,558.8 	"/>
	<path class="st2" d="M128.9,558.4c-0.2,0.1-0.3,0.2-0.5,0.2C128.6,558.6,128.8,558.5,128.9,558.4z"/>
	<path class="st2" d="M128.1,558.7C128.2,558.7,128.3,558.7,128.1,558.7L128.1,558.7l0.3-0.1L128.1,558.7z"/>
	<path class="st2" d="M128.1,558.7L128.1,558.7z"/>
	<path class="st2" d="M128,557.8c0.1-0.1,0.1,0.2,0.3,0c0.4-0.3,0.6-0.5,1-0.8c0.1-0.2,0.5-0.1,0.6-0.3c0.3-0.3,0.9-1.3,0.4-0.9
		c-0.6,0.6-1.2,1.1-1.9,1.6c-0.6,0.4-1.3,0.8-1.9,1c-0.2,0.1-0.4,0.1-0.6,0.1l0.8-0.1C127.2,558.6,127.5,558.2,128,557.8z"/>
	<path class="st2" d="M122.6,559.3h0.3c0.4,0.2,0.9,0.2,1.4,0.1l-0.2-0.1c-0.3,0-0.3,0.1-0.1,0.1c-0.5-0.1-1-0.2-1.6-0.3
		C122.4,559.2,122.4,559.3,122.6,559.3z"/>
	<path class="st2" d="M122.1,559.1h0.3l0,0H122.1L122.1,559.1z"/>
	<path class="st2" d="M130.6,557c1-0.8,1.8-1.9,2.4-3c0-0.1,0-0.2,0.1-0.3c0.1-0.1,0.1-0.1,0.2-0.2c0.1-0.2,0.1-0.3,0.2-0.5
		c0-0.1,0-0.1,0.1-0.2l0,0c0-0.1,0-0.1-0.1,0l-0.1,0.2l0.1-0.2c0.1-0.1,0.1-0.2,0.2-0.2c0-0.2,0.1-0.3,0.1-0.5
		c0,0.2-0.1,0.3-0.1,0.5l-0.1,0.3v0.1c0.2-0.4,0.3-0.8,0.4-1.2c0-0.1,0-0.2,0-0.3c0-0.3,0-0.5,0.2-0.8c0-0.1,0-0.1,0-0.2l0,0v-0.1
		c0-0.3,0.1-0.6,0-1s-0.2-0.4-0.2-0.6c0-0.1,0.1-0.2,0.1-0.2c-0.1-0.1-0.2-0.2-0.2-0.3c0,0.2-0.1,0.3-0.1,0.5s0.3,0.4,0.1,0.7
		c0.2-0.3-0.2-0.5-0.1-0.7s0-0.3,0.1-0.5c-0.1-0.3-0.2-0.7-0.3-1c0.2,0.3,0.4,0.6,0.3,1c0,0.1,0.1,0.2,0.2,0.3c0,0.1,0,0.2-0.1,0.2
		c0.1,0.2,0.1,0.4,0.2,0.6c0-0.6-0.2-1.3-0.4-1.9c-0.4-0.9-1.1-1.8-2-2.3c-0.8-0.6-1.7-1-2.7-1.3c-1.9-0.7-3.9-1.2-5.9-1.5
		c-1.1-0.3-2.3-0.4-3.4-0.4c-1.2-0.1-2.4,0.2-3.5,0.9c-1,0.7-1.8,1.7-2.2,2.8c-0.4,1.1-0.6,2.2-0.7,3.3c-0.1,2.3,0.4,4.6,1.5,6.7
		c0.6,1.1,1.4,2,2.4,2.7c1,0.7,2,1.3,3.2,1.7c1.2,0.2,1.6-0.1,1.6-0.4c0-0.3-0.1-0.5-0.2-0.7c-0.5-0.5-1-0.9-1.6-1.2
		c-0.8-0.4-1.5-1.1-2.1-1.8c0.5,0.7,0.2,0.6-0.4,0.1c-0.7-0.6-1.1-1.4-1.3-2.3c-0.1-1.2-0.5-2.4-0.6-3.7c-0.1-0.7-0.1-1.3,0-2
		c0.1-0.7,0.3-1.3,0.6-1.9c0.3-0.5,0.7-1,1.1-1.3c1.3-0.8,3.5-0.6,5.7-0.2c2.2,0.3,4.4,0.9,6.5,1.7c0.9,0.3,1.8,0.9,2.6,1.5
		c0.4,0.5,0.6,1.1,0.6,1.7c0.1,0.8,0.1,1.6,0,2.4c0.2-0.8,0.2-1.5,0.1-2.3c-0.1-0.6,0.4,0.3,0.4,0.8c0.1,0.2-0.3,0.4-0.2,0.6
		c0,0.3-0.1,0.8-0.1,1.2c0,0.2-0.2,0.1-0.2,0.2c-0.1,0.3-0.1,0.5-0.1,0.8c0,0.2-0.1,0.4-0.2,0.6c-0.1,0.2-0.3,0.4-0.5,0.6
		c-0.1,0.1-0.2,0.3-0.3,0.4l-0.1,0.3c0.1,0,0.2,0,0.3,0l-0.4,0.4l0.4-0.4c-0.1,0-0.2,0-0.3,0c-0.4,0.8-1,1.5-1.6,2.1l0,0l0.6-0.5
		c0.2-0.2,0.4-0.3,0.7-0.4c-0.2,0.1-0.2,0.1-0.1-0.1l0.2-0.1c-0.2,0.4-0.6,0.7-1,0.9c-0.1,0.1-0.1,0.2-0.2,0.2
		c-0.1,0.1-0.2,0.1-0.2,0l-0.2,0.2c0.2,0,0.4-0.1,0.5-0.2C130.3,557.2,130.5,557.1,130.6,557z"/>
	<path class="st2" d="M133.6,552.6c0,0.1,0,0.2-0.1,0.2c0.1-0.3,0.2-0.7,0.3-1C133.7,552,133.6,552.3,133.6,552.6z"/>
</g>
<g class="st1">
	<path class="st2" d="M381.4,519c-1.4,1.9-2.8,3.8-4.3,5.6c0.8-0.9,1.6-1.7,2.5-2.6C380.3,521.1,381,520.1,381.4,519z"/>
	<path class="st2" d="M373,529.6l-0.8,1l-0.6,0.9L373,529.6z"/>
	<path class="st2" d="M365,539c1.5-1.6,2.9-3.1,4.1-4.7C368,535.7,366.6,537.2,365,539z"/>
	<path class="st2" d="M371.7,531.8c-0.6,0.5-1,0.7-0.2-0.3l0,0c-0.8,1-1.5,1.9-2.3,2.9C370.1,533.4,371,532.5,371.7,531.8z"/>
	<path class="st2" d="M371.7,531.8c0.6-0.5,1.4-1.3,1.7-1.5C372.9,530.7,372.4,531.3,371.7,531.8z"/>
	<path class="st2" d="M372.2,536.4c-0.8,1-1.3,0.2-2.8,2.2c-3.3,4.3-6.9,8.4-10.7,12.3c-1,1.1-2.2,2-3.4,2.9
		c-1.2,0.8-2.4,1.8-3.5,2.8l-8.1,8.3c-2.4,2.4-3.4,3.6,0,0.8c8.6-7.4,16.6-15.4,24.1-23.8c6.2-7.4,12-15.1,17.3-23.1l4.6-6.5
		l-3.1,4.2l-3.4,4.4C380.1,524.7,377.3,530.2,372.2,536.4z"/>
	<path class="st2" d="M405.8,473.3c-0.1,0.6-0.2,1.5-0.4,2.3s-0.3,1.4-0.3,1.4c-2.3,5-4.2,10.4-6.5,15.7l1.6-2.1
		c1.3-3,1.2-3.5-0.2-0.9c3.3-5.7,5.6-11.9,7-18.3C406.6,471.8,406.4,471.6,405.8,473.3z"/>
	<path class="st2" d="M407.6,467.6c-0.2,1.3-0.4,2.5-0.6,3.8l0.1-0.1c0.2-1.3,0.4-2.5,0.6-3.8L407.6,467.6z"/>
	<path class="st2" d="M347,558c-11.6,10.6-24.5,19.7-38.2,27.2c-0.9,0.8-1.9,1.4-3,1.9l-3.4,1.1c-2,0.8-4.1,1.6-6.2,2.2
		c-0.7,0.3-1.4,0.5-2.2,0.8h-0.1c-1.2,0.4-0.8,0.5,0,0.4l2.3-0.3c-0.4,0.1-1.6,0.3-2.3,0.3c-1,0.2-2.2,0.4-3.5,0.7
		c-1.9,0.6-4,1.1-6.1,1.5c2.3-0.6,4.4-1.1,6.1-1.5c1.2-0.3,2.4-0.7,3.5-1.1l1-0.4c-4.8,1.4-9.7,2.5-14.6,3.4l-3.1,0.6
		c-1.8,0.4-3.6,0.7-5.2,0.9c-1.4,0.2-2.8,0.3-4.2,0.2l-2.7,0.3h0.5h-1c-3.8,0.4-7.5,0.6-11.3,0.8c-2.4,0.3-5,0.7-7.5,0.9
		c0,0-1.7-0.2-2.6-0.4c-1.4,0.3-2.8,0.5-4.2,0.6c2.1,0.3,3.9,0.5,5.7,0.7c2.6,0.4,5.7-1.2,8.8-0.5c-3.1-0.7-6.2,0.8-8.8,0.5
		c-1.8-0.2-3.6-0.4-5.7-0.7c-4,0.2-8,0-12-0.6c4-0.2,8,0,12,0.6c1.4-0.1,2.8-0.2,4.2-0.6c0.9,0.2,2.6,0.4,2.6,0.4
		c2.5-0.2,5.1-0.6,7.5-0.9c-7.4,0.4-14.9,0.5-22.6,0.2c-12.1-0.3-24.2-1.4-36.2-3.2c-11.8-1.7-23.4-4.4-34.7-8.1
		c-5.7-1.9-11.2-4.1-16.5-6.7c-5.4-2.6-10.5-5.7-15.3-9.3c-4.8-3.6-9.1-7.9-12.6-12.8c-3.5-4.9-6-10.6-7.3-16.5
		c-1.2-6.5-1.2-13.2,0.1-19.7c1.3-6.4,3.4-12.7,6.3-18.6c2.9-5.9,6.2-11.5,9.8-16.9c3.7-5.3,7.7-10.6,11.6-15.9
		c15.5-21.1,29.9-41.5,43.6-62.7c7-10.7,13.4-21.8,19.1-33.2c6.2-12.1,10.2-25.1,12.1-38.5c0.7-6.3,0.8-12.6,0.3-18.9
		c-0.6-7.2-1.6-14.5-3.1-21.6c-0.7-3.6-1.6-7.2-2.3-10.6s-1.7-6.9-2.5-10.1c-1.7-6.4-3.3-12.3-4.6-17c-8.5-24.9-8.9-10.6-8.8-9.4
		c0.5,8.2,2,15.2,4.1,24.2l1.7,7.2c0.6,2.5,1.2,5.3,1.8,8.2c1.4,6.8,2.4,13.7,3,20.7c-0.5-5.5-0.6-7.2-0.2-6.5
		c0.3,0.9,0.6,1.9,0.8,2.9c0.2,0.8,0.4,1.6,0.5,2.6s0.3,2.1,0.5,3.2c0.4,2.3,0.6,5,0.8,7.9c0.1,1.4,0.1,2.9,0.1,4.4s0,3-0.1,4.5
		c-0.2,5.8-1.1,11.6-2.8,17.1c-2.5,7.6-5.5,15.1-8.9,22.3c-3.7,7.8-8.1,16-12.9,24.2c-9.7,16.5-20.7,33.5-31.8,48.6
		c-5.6,7.6-11.2,15.9-17.7,25c-4.3,5.9-8.6,11.6-12.8,17.9c-4.1,6.3-7.7,12.9-10.6,19.8c-3.1,7.1-5.1,14.5-6,22.2l-0.2,3l-0.1,1.5
		v1.5v3c0,1,0.2,2,0.2,3c0.2,2,0.5,4,0.9,5.9c0.2,1,0.5,2,0.8,2.9l0.4,1.5l0.5,1.4c1.3,3.8,3.1,7.5,5.2,10.9
		c2.1,3.4,4.6,6.5,7.4,9.4c5.5,5.6,11.8,10.3,18.6,14.1c13.5,7.6,28.3,12.4,43.6,15.9c7.7,1.7,15.5,2.8,23.3,3.5
		c7.4,0.6,14.6,0.9,21.5,1c10.1,0.3,21,0.7,29.2,0.3c11.7-0.5,23.2-2.2,34.6-5c-5.9,1.3-11,2.2-16.3,3s-10.8,1.3-17.4,1.8
		c-2.2,0.1-2.9,0.1-2.7,0c1-0.3,2.1-0.5,3.1-0.6l11.5-1.8c2.5-0.5,6.5,0.1,9-0.4c5.4-0.9,10.8-2.1,16-3.7c2.4-0.8,2.4,0.2,3.6-0.2
		c3.5-1,6.9-2.4,10.2-4c2.9-1.5,5.5-3,7.7-4.1l2.6-1.3l2.4-1.3c1.6-0.8,3.1-1.7,4.6-2.5c1.9-1.1,3.7-2.2,5.6-3.5
		c1.1-0.8,2.3-1.8,3.5-2.7c-0.7,0.3-1.4,0.4-2.2,0.3c1.8-1.2,4.3-2.7,6-3.9c-1.7,1.2-4.3,2.8-6,3.9c0.7,0.1,1.5,0,2.2-0.3
		c8.9-7,17.3-14.5,25.1-22.6h-0.2c-4.7,4.6-9.8,8.8-15.2,12.5c2.4-1.7,2.3-1.3-0.3,0.9l-2.3,1.2c4.4-3.8,8.7-7.7,13.2-10.9
		c0,0,1.7-1.8,2.5-2.8c1.4-1.2,1.6-0.9,2-1c0.9-0.9,1.8-1.8,2.7-2.7c-1.1,0.8-3.4,2.5-5.3,4.1L347,558z"/>
	<path class="st2" d="M290.3,592.3c0.9-0.2,1.9-0.5,3-0.9c-4,1.1-8.2,2-12.3,2.8C284.2,594,287.3,593.4,290.3,592.3z"/>
</g>
<g class="st1">
	<path class="st2" d="M698.3,567.2c0.4,0.3,0.8,0.7,1.2,1c-0.2-0.2-0.4-0.4-0.5-0.6C698.8,567.4,698.5,567.3,698.3,567.2z"/>
	<path class="st2" d="M700.6,569c0.1,0.1,0.2,0.1,0.2,0.1l0.2,0.1C701,569.2,700.8,569.1,700.6,569z"/>
	<path class="st2" d="M703.2,570l-0.7-0.2c-0.2-0.1-0.4-0.2-0.6-0.2c0.2,0.1,0.4,0.2,0.6,0.3C702.7,569.9,702.9,570,703.2,570z"/>
	<path class="st2" d="M701.2,569.1c0.1,0.1,0.2,0.2-0.1,0.2l0,0l0.8,0.3C701.7,569.4,701.4,569.3,701.2,569.1z"/>
	<path class="st2" d="M701.2,569.1c-0.1-0.1-0.3-0.3-0.4-0.4C701,568.9,701.1,569,701.2,569.1z"/>
	<path class="st2" d="M702.5,567.8c0.2,0,0,0.5,0.5,0.6s1.1,0.2,1.6,0.2c0.5,0,1,0,1.5,0.1c0.5-0.1,1.2,0.4,1.7,0.3
		c0.7-0.2,1.5-0.4,2.2-0.7c0.6-0.3,0.9-0.5,0-0.3c-2,0.5-4.2,0.5-6.2,0.1c-1.8-0.3-3.5-1.1-4.9-2.3c-0.4-0.4-0.7-0.8-1-1.2
		c0.2,0.3,0.4,0.5,0.6,0.8c0.2,0.3,0.4,0.6,0.7,0.8c0.4,0.4,0.9,0.7,1.4,0.9l0.9,0.3C701.8,567.6,702.2,567.7,702.5,567.8z"/>
	<path class="st2" d="M692.4,557.8l0.5,0.6c0.1,0.6,0.3,1.2,0.6,1.7c0.3,0.5,0.6,1.1,1,1.5c0-0.2,0-0.4-0.1-0.6
		c-0.3-0.6-0.5-0.6-0.3,0c-0.2-0.7-0.4-1.3-0.7-2c-0.3-0.6-0.5-1.2-0.8-1.8C692.5,557.4,692.3,557.4,692.4,557.8z"/>
	<path class="st2" d="M692.2,556.5c0.1,0.2,0.2,0.5,0.4,0.7l0,0C692.4,557,692.3,556.8,692.2,556.5L692.2,556.5z"/>
	<path class="st2" d="M708.8,570c3.3-0.4,6.4-1.3,9.5-2.6c0.2-0.2,0.4-0.3,0.6-0.4c0.3,0,0.5-0.1,0.7-0.2l1.3-0.6l0.4-0.2l0,0
		c0.2-0.2,0.1-0.2-0.1-0.2c-0.2,0-0.3,0.1-0.5,0.1c0.1,0,0.3,0,0.5-0.1c0.2,0,0.5-0.1,0.7-0.2c0.4-0.3,0.7-0.5,1.1-0.7
		c-0.3,0.3-0.7,0.5-1.1,0.7c-0.2,0.2-0.4,0.3-0.7,0.5l-0.2,0.1c1-0.5,1.8-1.1,2.8-1.6c0.2-0.2,0.4-0.3,0.5-0.4
		c0.4-0.5,1-0.9,1.6-1.1c0.2-0.1,0.3-0.2,0.4-0.4h-0.1l0.2-0.1c0.6-0.5,1.2-1.1,1.8-1.6c0.3-0.5,0.5-0.9,0.8-1.4l0.5-0.2
		c0.1-0.3,0.2-0.6,0.3-0.9c-0.4,0.3-0.7,0.5-1,0.7c-0.5,0.2-0.4,1.2-1.2,1.4c0.7-0.2,0.6-1.2,1.2-1.4c0.3-0.2,0.7-0.4,1-0.7
		c0.4-0.7,1-1.4,1.6-2c-0.3,0.8-0.9,1.5-1.6,2c-0.2,0.3-0.3,0.6-0.3,0.9l-0.5,0.2c-0.3,0.5-0.6,0.9-0.8,1.4l1.6-1.8l1.5-2
		c2.9-4.3,4.6-9.3,4.8-14.5c0.1-1.3,0-2.6-0.1-3.9c-0.1-0.7-0.2-1.3-0.3-1.9l-0.1-1l-0.2-1c-0.2-0.6-0.3-1.3-0.5-1.9l-0.7-1.9
		c-0.2-0.6-0.5-1.3-0.8-1.9c-0.3-0.6-0.6-1.3-0.9-1.9c-1.4-2.8-3.6-5.1-6.4-6.6c-2.8-1.3-6-1.6-9-1c-2.8,0.5-5.5,1.4-8,2.5
		c-2.5,1.1-4.8,2.3-7.2,3.6c-2.4,1.3-4.8,2.7-7,4.3c-2.5,1.7-4.7,3.8-6.5,6.3c-0.4,0.6-0.7,1.2-1,1.8c-0.3,0.7-0.6,1.5-0.8,2.3
		c-0.2,0.9-0.4,1.7-0.5,2.6c0,0.4,0,0.9,0,1.3c0,0.4,0,0.9,0,1.3c0.2,3,0.9,5.9,2,8.6c1.4,2.6,2.3,2.9,2.9,2.6
		c0.4-0.3,0.7-0.8,0.8-1.4c0.1-1.7-0.1-3.5-0.6-5.1L691,549c-0.1-0.5-0.1-1.1-0.2-1.7c-0.1-1.3,0-2.7,0.3-4c-0.2,1-0.3,1.4-0.4,1.2
		c-0.1-0.2-0.1-0.4-0.1-0.6c0-0.4,0-0.8,0-1.2c0.1-1.1,0.4-2.1,0.9-3.1c0.5-1,1.3-1.9,2.2-2.6c2.4-1.7,5.2-3.7,8.4-5.8
		c1.6-1,3.3-2.1,5.1-3.1c1.7-1,3.5-1.8,5.3-2.5c1.8-0.7,3.7-1.3,5.6-1.8c2.3-0.5,4.7-0.2,6.8,0.8c2,1.3,3.6,3.1,4.7,5.2
		c1.3,2.4,2.2,4.9,2.7,7.6c0.5,2.8,0.5,5.6,0,8.4c-0.4,2.8-1.1,5.5-2.2,8.1c-0.2,0.4-0.5,0.9-0.7,1.3s-0.6,0.8-0.9,1.2
		c-0.5,0.8-1.2,1.4-1.7,2c-0.2,0.2-0.4,0.5-0.6,0.7l-0.6,0.6c-0.4,0.4-0.8,0.8-1.2,1.2l-1.2,1.1l-0.6,0.5l-0.6,0.5l0.7-0.5l0.6-0.5
		l1.2-1c0.4-0.3,0.7-0.7,1.1-1.1c0.4-0.4,0.8-0.8,1.2-1.3c0.5-0.6,0.5-0.3,0.2,0.3c-0.3,0.7-0.8,1.3-1.3,1.9
		c-0.2,0.2-0.5,0.4-0.7,0.5c-0.3,0.1-0.6,0.2-0.8,0.4c-0.4,0.3-0.8,0.7-1.2,1c-0.4,0.3-0.8,0.7-1.2,1s-0.6-0.1-0.7,0.1
		c-0.6,0.5-1.2,0.9-1.7,1.3c-0.4,0.4-0.9,0.7-1.5,0.9c-0.8,0.2-1.4,0.4-2.1,0.6c-0.4,0.1-0.8,0.2-1.3,0.4l-0.8,0.4
		c0.2,0.1,0.4,0.2,0.5,0.3c-0.4,0.1-1,0.2-1.4,0.3c0.4-0.1,1-0.1,1.4-0.3c-0.1-0.2-0.3-0.3-0.5-0.3c-2,1-4.2,1.6-6.5,1.9l0,0
		c1.3,0,2.6-0.2,4-0.2c-0.6,0-0.6-0.1,0.1-0.3c0.2,0,0.4,0.1,0.6,0.1c-1.1,0.5-2.3,0.7-3.5,0.5c0,0-0.5,0.2-0.8,0.2
		s-0.4-0.2-0.5-0.3h-0.8c0.4,0.2,0.9,0.3,1.4,0.4L708.8,570z"/>
	<path class="st2" d="M722,565.5c-0.2,0.1-0.3,0.2-0.5,0.4l2.3-1.3C723.1,564.7,722.5,565.1,722,565.5z"/>
</g>
<path class="st3" d="M719.8,559.1c5.3-1.1,8.7-6.4,7.6-11.7c0,0,0,0,0,0c-1.2-5.3-5.1-5.2-10.4-4s-10,2.8-8.9,8.2
	C709.2,556.8,714.4,560.2,719.8,559.1C719.8,559.1,719.8,559.1,719.8,559.1z"/>
<g class="st1">
	<path class="st2" d="M715.2,558.6c-0.2,0-0.4-0.1-0.5-0.2c0.1,0,0.2,0.1,0.2,0.2C715,558.7,715.1,558.7,715.2,558.6z"/>
	<polygon class="st2" points="714.2,558.3 714.1,558.2 714,558.2 	"/>
	<path class="st2" d="M713.2,557.9c0.1,0.1,0.3,0.2,0.5,0.2C713.6,558,713.4,558,713.2,557.9z"/>
	<path class="st2" d="M713.9,558.3C713.9,558.3,713.9,558.2,713.9,558.3L713.9,558.3l-0.2-0.2C713.8,558.2,713.9,558.2,713.9,558.3z
		"/>
	<path class="st2" d="M713.9,558.3c0,0.1,0.1,0.1,0.1,0.2C714,558.4,714,558.3,713.9,558.3z"/>
	<path class="st2" d="M713.3,559c-0.1,0,0-0.2-0.2-0.3c-0.5-0.1-0.9-0.3-1.3-0.5c-0.2-0.1-0.3-0.5-0.5-0.6c-0.4-0.2-1.6-0.9-1-0.4
		c0.7,0.6,1.6,1.2,2.5,1.6c0.8,0.3,1.6,0.5,2.4,0.6c0.2,0,0.4,0.1,0.7,0.2l-0.8-0.3C714.6,559,714,559.2,713.3,559z"/>
	<path class="st2" d="M719.2,559l-0.3,0.1c-0.5-0.1-0.9-0.1-1.4,0l0.2,0.1c0.3,0,0.3-0.1,0.1-0.1c0.5,0.1,1.1,0.1,1.6,0
		C719.4,559.1,719.4,559,719.2,559z"/>
	<path class="st2" d="M719.8,559l-0.3,0.1l0,0L719.8,559L719.8,559z"/>
	<path class="st2" d="M711.4,556.9c-1-0.8-1.8-1.8-2.3-3c-0.1-0.1-0.2-0.1-0.2-0.2c0-0.1,0-0.2,0-0.3c-0.1-0.2-0.1-0.3-0.2-0.5
		l-0.1-0.2l0,0c-0.1-0.1-0.1,0-0.1,0c0,0.1,0,0.1,0,0.2c0-0.1,0-0.1,0-0.2c0-0.1,0-0.2,0-0.3c-0.1-0.2-0.1-0.3-0.2-0.5
		c0.1,0.2,0.1,0.3,0.2,0.5l0.1,0.3l0.1,0.1c-0.1-0.4-0.2-0.8-0.3-1.2l-0.1-0.2c-0.1-0.2-0.1-0.5-0.1-0.8c0-0.1,0-0.1,0-0.2l0,0
		c0,0,0-0.1,0-0.1c0-0.3,0-0.6,0-0.9c0-0.2,0-0.4-0.1-0.6c0-0.1,0.1-0.1,0.2-0.2c0-0.1,0-0.2,0-0.3c-0.1,0.1-0.2,0.3-0.3,0.4
		s0.2,0.5-0.1,0.7c0.3-0.2-0.1-0.5,0.1-0.7s0.2-0.3,0.3-0.4c0.1-0.3,0.2-0.6,0.5-0.8c-0.1,0.3-0.2,0.6-0.5,0.8c0,0.1,0,0.2,0,0.3
		c-0.1,0.1-0.1,0.1-0.2,0.2c0,0.2,0,0.4,0.1,0.6c0.1-0.6,0.2-1.1,0.5-1.7c0.9-1.7,2.7-2.5,4.5-3.1c1.9-0.6,3.8-1,5.8-1.3
		c1.1-0.2,2.1-0.2,3.2-0.1c0.9,0,1.8,0.4,2.6,0.9c0.6,0.6,1.1,1.3,1.4,2.1c0.3,0.9,0.5,1.8,0.5,2.7c0.1,1.8-0.6,3.6-1.8,5
		c-0.6,0.7-1.2,1.3-1.9,1.9c-0.7,0.5-1.5,1-2.3,1.3c-0.8,0.5-1,0.8-0.9,1.2c0.1,0.2,0.3,0.4,0.5,0.5c0.7,0.2,1.5,0.2,2.1-0.2
		c1-0.4,1.9-1,2.8-1.6c-0.8,0.6-0.6,0.2-0.1-0.4l2.1-2.2c1.2-1.2,1.8-2.8,1.8-4.5c0-0.9,0-1.8-0.2-2.7c-0.2-0.9-0.4-1.8-0.8-2.6
		c-0.4-1-1.1-1.8-2-2.5c-1.2-0.9-2.6-1.3-4.1-1.3c-1.3,0-2.5,0.1-3.7,0.4c-2.5,0.5-4.9,1.2-7.2,2.2c-1.3,0.6-2.3,1.6-3,2.8
		c-0.6,0.8-0.9,1.7-1.1,2.6c-0.1,1.1,0,2.1,0.5,3.1c-0.3-1-0.5-2-0.5-3c0.1-0.8,0.2,0.6,0.3,1.1c0,0.2-0.2,0.6-0.1,0.8
		c0.1,0.5,0.3,0.9,0.5,1.3c0.1,0.2-0.1,0.2-0.1,0.3c0.1,0.3,0.3,0.6,0.5,0.8c0.2,0.2,0.3,0.4,0.4,0.6c0.1,0.3,0.2,0.6,0.4,0.8
		c0.1,0.2,0.2,0.3,0.3,0.5l0.3,0.2c0-0.1,0-0.2,0.1-0.3l0.3,0.5l-0.3-0.5c-0.1,0.1-0.1,0.2-0.1,0.3c0.7,0.7,1.4,1.2,2.3,1.7l0,0
		c-0.2-0.1-0.4-0.3-0.6-0.5c-0.2-0.2-0.4-0.4-0.5-0.7c0.1,0.2,0.1,0.2-0.2,0v-0.2c0.4,0.3,0.7,0.6,1,1c0.1,0,0.2,0.1,0.3,0.1
		c0.1,0.1,0,0.2,0,0.2l0.3,0.2c-0.1-0.2-0.2-0.3-0.3-0.5L711.4,556.9z"/>
	<path class="st2" d="M708.4,552.5l0.1,0.2c-0.1-0.3-0.2-0.7-0.3-1C708.2,552,708.3,552.3,708.4,552.5z"/>
</g>
<g class="st1">
	<path class="st2" d="M458.3,520.5c1.4,1.9,2.8,3.8,4.3,5.7c-0.7-1-1.3-2-1.9-3.1C460,522.2,459.2,521.3,458.3,520.5z"/>
	<path class="st2" d="M466.7,531.4l0.8,1c0.3,0.3,0.5,0.5,0.8,0.8C467.8,532.6,467.3,532,466.7,531.4z"/>
	<path class="st2" d="M475.1,540.7c-1.4-1.7-2.9-3.2-4.2-4.7C472.2,537.6,473.6,539.2,475.1,540.7z"/>
	<path class="st2" d="M468.7,533.1c0.4,0.7,0.5,1-0.4,0.2l0,0c0.8,0.9,1.7,1.8,2.5,2.8C470,534.9,469.3,533.9,468.7,533.1z"/>
	<path class="st2" d="M468.7,533.1c-0.4-0.6-1-1.6-1.2-2C467.9,531.7,468.2,532.3,468.7,533.1z"/>
	<path class="st2" d="M473.3,533.2c0.9,0.9,0,1.3,1.8,3c4,4.1,7.8,7.4,11.6,11.1c1.1,1,2.1,2.1,2.9,3.3c0.9,1.2,1.9,2.3,3,3.2
		c1.1,1,2.7,2.2,4.3,3.4s3.4,2.5,4.7,3.4c2.8,1.8,4.1,2.5,0.8-0.2c-8.6-7-16.7-14.5-24.3-22.5c-6.7-6.7-13-13.8-18.9-21.2
		c-1.6-2.2-3-4.3-4.4-6.5l2.7,4.3c1,1.5,1.9,3,3,4.6C463.4,523.5,468.1,527.5,473.3,533.2z"/>
	<path class="st2" d="M434.6,473.7c0.2,0.6,0.5,1.5,0.8,2.2l0.5,1.3c1,5.5,3.5,10.9,6.3,16c-0.2-0.8-0.5-1.7-0.7-2.5
		c-1.4-3-1.8-3.3-0.8-0.5c-2.3-6.2-4.3-12.4-6-18.8C434.6,471.9,434.3,471.9,434.6,473.7z"/>
	<path class="st2" d="M434,467.7c0.3,1.3,0.5,2.5,0.8,3.8c0,0,0-0.1,0-0.1c-0.3-1.2-0.6-2.5-0.8-3.7C434,467.6,434,467.6,434,467.7z
		"/>
	<path class="st2" d="M494.5,558.5c11.7,10.6,24.5,19.8,38.3,27.5c1.1,0.3,2.2,0.8,3.3,1.4c0.5,0.3,1,0.7,1.5,1s1.1,0.6,1.6,0.8
		c2,0.9,4.1,1.6,6.2,2.3c0.7,0.2,1.5,0.4,2.3,0.6h0.1c1.2,0.2,0.9,0,0.2-0.3c-0.7-0.3-1.4-0.6-2.1-1c0.4,0.2,1.4,0.7,2.1,1
		c1.1,0.5,2.2,0.9,3.4,1.2c2,0.5,4,0.9,6.2,1.4c-2.1-0.3-4.1-0.8-6.2-1.4c-1.2-0.3-2.4-0.6-3.6-0.9l-1.1-0.2
		c4.8,1.5,9.7,2.7,14.7,3.7l3.1,0.5c1.8,0.2,3.6,0.4,5.2,0.7c1.4,0.2,2.8,0.5,4.2,0.9l2.7,0.3l-0.5-0.1l1,0.2
		c3.8,0.5,7.6,0.8,11.4,1.1l7.6-0.2l2.5,0.6c1.4-0.2,2.8-0.4,4.3-0.4c-2.1-0.3-3.9-0.7-5.7-0.9c-2.5-0.6-5.8,0.7-8.7-0.3
		c3,1.1,6.2-0.2,8.7,0.3c1.7,0.2,3.6,0.6,5.7,0.9c4-0.1,8,0,12,0.3c-4,0.4-8,0.3-12-0.3c-1.4,0-2.9,0.2-4.3,0.4l-2.5-0.6l-7.6,0.2
		c7.5,0.5,15,0.8,22.8,0.7c12.3,0,24.5-0.9,36.6-2.6c12-1.6,23.8-4.3,35.4-7.9c5.8-1.9,11.5-4.1,17-6.7c5.6-2.6,11-5.8,16-9.5
		c5.2-3.8,9.7-8.3,13.6-13.4c3.9-5.4,6.7-11.5,8.2-18c1.5-7,1.6-14.3,0.4-21.4c-1.2-6.9-3.3-13.6-6.2-20c-2.8-6.2-6-12.2-9.7-18
		c-3.7-5.7-7.4-11.1-11-16.5c-14.6-21.7-29.1-42-42.4-63.1c-6.6-10.5-12.9-21.3-17.9-32.6s-8.5-23.3-8.9-35.8
		c-0.2-5.6,0-11.3,0.5-16.9c0.7-6.8,1.7-13.5,3.1-20.1c0.6-3.5,1.5-6.9,2.2-10.3s1.5-6.7,2.4-9.9c1.6-6.4,3.1-12.1,4.3-16.9
		c5.4-25.6-2.2-13.7-2.7-12.5c-3.8,7.3-6.1,14.1-8.7,23c-0.6,2.2-1.3,4.6-2,7.1s-1.4,5.3-2.2,8.2c-1.5,5.9-3.2,12.7-5,20.9
		c1.2-5.6,1.8-7.3,1.9-6.4c0,1-0.1,2.1-0.2,3.1c-0.1,0.8-0.2,1.7-0.3,2.7s-0.2,2.1-0.4,3.3c-0.3,2.4-0.5,5.2-0.8,8.1
		c-0.1,1.5-0.2,3-0.3,4.6s-0.2,3.1-0.2,4.8c-0.2,6.2,0,12.4,0.6,18.5c0.8,8.7,2.9,17.2,6.3,25.2c3.7,8.9,8.2,17.5,13.2,25.6
		c10.2,16.8,22.2,33.3,32.6,49.1c5.2,7.9,11.1,16,17.5,25.2c4,6.1,8.3,12.1,11.9,17.8c3.6,5.7,6.8,11.8,9.5,18.1
		c2.6,6,4.3,12.3,5.2,18.8l0.2,2.4l0.1,1.2v3.5c0,0.8-0.1,1.6-0.2,2.3c0,1.6-0.4,3.1-0.6,4.6c-0.2,0.8-0.4,1.5-0.6,2.3l-0.3,1.1
		l-0.4,1.1c-1,3-2.3,5.8-3.9,8.5c-1.7,2.7-3.6,5.3-5.8,7.6c-4.7,4.8-10,9-15.8,12.3c-11.9,7-25.8,11.6-40.4,14.8
		c-14.1,3.2-28.4,5.5-42.8,6.9c-9.8,0.7-20.4,0.1-28.4-0.3c-11.2-0.5-22.4-1.6-33.5-3.3c5.6,1.1,10.6,1.8,15.8,2.3
		s10.5,0.9,16.9,1.2c4.3,0.2,2.8,0.4-0.5,0.6s-8.4,0.2-11.3,0c-2.5,0-6.2-1.5-8.6-1.7c-5.2-0.7-10.1-1.2-15.7-2.2
		c-2.4-0.3-1.9-1.2-3.1-1.4c-3.7-0.9-7.1-1.5-10-2.4c-2.7-0.7-5.2-1.7-7.5-3.1l-2.4-1.4l-2.2-1.4c-1.5-0.9-2.9-1.9-4.2-2.8
		c-1.8-1.1-3.5-2.3-5.3-3.5c-1.2-0.7-2.4-1.5-3.6-2.2c0.5,0.5,0.9,1.2,1,1.9c-1.7-1.2-3.9-3.1-5.5-4.4c1.6,1.3,3.9,3.1,5.5,4.4
		c-0.1-0.7-0.5-1.4-1-1.9c-9.4-5.9-18.3-12.6-26.6-20c0,0.1,0,0.1,0,0.2c4.8,4.4,9.5,8.6,14.4,13.3c-2.1-2-1.7-2,0.9,0.1l1.7,1.9
		c-4.8-3.3-9.4-6.9-13-11.1c0,0-2-1.5-3-2.3c-1.2-1.4-1-1.5-1.1-2c-1-0.8-1.9-1.7-2.8-2.6c1.4,1.8,2.8,3.5,4.3,5.1
		c0.8,0.9,1.6,1.8,2.2,2.4L494.5,558.5z"/>
	<path class="st2" d="M551.4,593c-0.9-0.2-1.9-0.5-3.1-0.8c4.1,1.2,8.2,2.2,12.3,3C558.6,594.4,555,593.8,551.4,593z"/>
</g>
</svg>
