<svg id="Layer_1" data-name="Layer 1" xmlns="http://www.w3.org/2000/svg" viewBox="0 0 841.89 841.89"><defs><style>.cls-1{fill:#d69f7e;}.cls-2{opacity:0.85;}.cls-3{fill:#211f1e;}.cls-4{fill:#1f2020;}</style></defs><rect class="cls-1" y="-0.44" width="841.89" height="841.89"/><g class="cls-2"><path class="cls-3" d="M250.3,521.28l1.49-.47a5.15,5.15,0,0,1-.8.09A1.23,1.23,0,0,0,250.3,521.28Z"/><path class="cls-3" d="M253.2,520.48l.27-.06.22-.09Z"/><path class="cls-3" d="M255.86,519.88a11.74,11.74,0,0,0-1.38.2A7.16,7.16,0,0,0,255.86,519.88Z"/><path class="cls-3" d="M253.69,520.12c.18,0,.27.09,0,.2h0l.79-.25A4.44,4.44,0,0,1,253.69,520.12Z"/><path class="cls-3" d="M253.69,520.12c-.17,0-.44,0-.54,0A2.92,2.92,0,0,0,253.69,520.12Z"/><path class="cls-3" d="M254.06,518.3c.28-.12.3.38.85.2l1.89-.47a16.4,16.4,0,0,1,1.88-.18c.59-.16,1.49.46,2.07.38l1.31-.07,1.42,0c.81,0,1.21-.13.17-.29a24.62,24.62,0,0,0-8,.08,28.29,28.29,0,0,0-6.38,2.18c-.58.28-1.14.49-1.71.7.76-.23,1.5-.55,2.37-.75a6.25,6.25,0,0,0,1.8-.81A15,15,0,0,1,254.06,518.3Z"/><path class="cls-3" d="M240.51,527.33l.46-.71a10.53,10.53,0,0,0,1.55-1.09c.48-.43.93-.9,1.44-1.3l-.62.13c-.58.47-.55.65,0,.31a15.09,15.09,0,0,0-1.87,1.23,12.1,12.1,0,0,0-1.57,1.55A.53.53,0,0,0,240.51,527.33Z"/><path class="cls-3" d="M239.35,528.1l.57-.65h0l-.55.67Z"/><path class="cls-3" d="M261.7,519.39a23.79,23.79,0,0,1,9.93,3.39,1.33,1.33,0,0,1,.75.3,4.53,4.53,0,0,0,.59.57c.42.26.78.61,1.16.9l.44.3h0c.25.13.24,0,.15-.14a3.1,3.1,0,0,1-.31-.46c.05.1.22.31.31.46a4.11,4.11,0,0,0,.54.6,10.33,10.33,0,0,1,1,1,7.57,7.57,0,0,1-1-1l-.7-.46-.22-.12a25.64,25.64,0,0,1,2.46,2.31,5.88,5.88,0,0,1,.5.49,4.72,4.72,0,0,1,1.29,1.69l.33.5,0-.12a1.65,1.65,0,0,0,.09.22A21.39,21.39,0,0,1,280.3,532c.33.44.71.89,1,1.36V534a2.73,2.73,0,0,1,.59.78c0-.48-.06-.93-.13-1.34,0-.65-1-.93-.95-1.75-.08.82.94,1.1.95,1.75.07.41.09.86.13,1.34a5.61,5.61,0,0,1,.66,2.61,7.06,7.06,0,0,1-.66-2.61,2.73,2.73,0,0,0-.59-.78v-.63c-.33-.47-.71-.92-1-1.36a22.19,22.19,0,0,1,1.06,2.26,19.12,19.12,0,0,1,.83,2.38,25.84,25.84,0,0,1-.37,15.67,25.16,25.16,0,0,1-9.71,12.52,23.53,23.53,0,0,1-16.51,3.74,26.61,26.61,0,0,1-7.67-2.4,21.87,21.87,0,0,1-6.32-4.58,21.19,21.19,0,0,1-4.33-6.46,18.86,18.86,0,0,1-1.48-7.74,31.51,31.51,0,0,1,.83-7.73,22.5,22.5,0,0,1,3-7l.35-.85q.18-.37.3-.69a4.9,4.9,0,0,0,.29-1.06,1.1,1.1,0,0,0-.35-1.12,1.85,1.85,0,0,0-1.57,0,7,7,0,0,0-2.3,1.68c-.32.34-.62.71-.93,1.1s-.53.86-.81,1.33a37,37,0,0,0-3.26,8.21c.77-2.61.84-1.55.54.68s-.34,5.76-.42,8.38c-.23,3.81,1.42,8.48,4.53,12.25a31.61,31.61,0,0,0,11.7,8.61c.54.24,1.1.46,1.67.68s1.19.34,1.81.5l.94.24,1,.16c.66.09,1.34.25,2,.3a26.87,26.87,0,0,0,20.32-5.59,30.24,30.24,0,0,0,11-18.58,23.48,23.48,0,0,0-1-10.85c-.12-.6-.33-1.19-.5-1.79s-.3-1.2-.53-1.76a20.22,20.22,0,0,0-1.3-3.11,22.66,22.66,0,0,0-2.46-3.68,24,24,0,0,0-2.86-2.78,31.78,31.78,0,0,1,2.76,2.84,25.42,25.42,0,0,1,2.38,3.49c.53.94.21.67-.33,0l-.91-1.1c-.35-.38-.68-.74-.9-1a2.74,2.74,0,0,1-.47-1,2.32,2.32,0,0,0-.55-.93,13.28,13.28,0,0,0-1.33-1.37l-1.58-1.21c-.5-.32-.12-.65-.39-.8a17.46,17.46,0,0,0-2.23-1.25,7.27,7.27,0,0,1-1.81-.91,23,23,0,0,0-2.12-1.38,7.17,7.17,0,0,0-1.4-.65l-1-.24a1,1,0,0,1,.25.63c-.45-.18-1-.56-1.51-.7.47.14,1.06.52,1.51.7a1,1,0,0,0-.25-.63,28.1,28.1,0,0,0-7.8-.78l0,0a11.73,11.73,0,0,1,4.41.86c-.31-.14-.45-.2-.4-.25s.26-.06.63,0l.51.38-1-.16c-.33,0-.65-.06-1-.11a9.89,9.89,0,0,1-1.87-.49l-.86.11c-.41-.09-.39-.24-.47-.38a8.61,8.61,0,0,0-.88,0c.31.11.94.31,1.5.45Z"/><path class="cls-3" d="M275.29,525.34l-.58-.4.54.45.5.5,1,1A4.84,4.84,0,0,0,275.29,525.34Z"/></g><circle class="cls-4" cx="258.32" cy="545.18" r="11.71"/><g class="cls-2"><path class="cls-3" d="M268.78,539.24l-.38-.66a2.29,2.29,0,0,1,.12.37C268.58,539.11,268.67,539.15,268.78,539.24Z"/><path class="cls-3" d="M268,538l-.08-.11-.08-.08Z"/><path class="cls-3" d="M267.11,537a5.42,5.42,0,0,0,.46.49A3.32,3.32,0,0,0,267.11,537Z"/><path class="cls-3" d="M267.74,537.86c0-.08,0-.14.09-.05h0l-.27-.3A1.79,1.79,0,0,1,267.74,537.86Z"/><path class="cls-3" d="M267.74,537.86c0,.1.06.2.08.25A1.44,1.44,0,0,0,267.74,537.86Z"/><path class="cls-3" d="M266.89,538.14c-.1-.08.1-.21-.1-.36-.43-.39-.86-.65-1.26-1-.2-.13-.35-.55-.58-.66-.5-.32-1.91-.73-1.18-.32a10.77,10.77,0,0,1,2.61,1.9,11.29,11.29,0,0,1,1.89,2.11,7.55,7.55,0,0,1,.32.72,8.53,8.53,0,0,0-.39-1,2.26,2.26,0,0,0-.53-.67A6.39,6.39,0,0,1,266.89,538.14Z"/><path class="cls-3" d="M270.18,544.54c0-.13-.1-.38-.1-.38a3.29,3.29,0,0,0-.26-1.77l-.05.28c.1.34.16.37.15.05,0,.73.06,1.37.1,2A.23.23,0,0,0,270.18,544.54Z"/><path class="cls-3" d="M270.06,545.17c0-.14,0-.27,0-.4l0,0c0,.13,0,.26.05.39Z"/><path class="cls-3" d="M264.89,535.4a12.51,12.51,0,0,0-4.51-1.84.61.61,0,0,1-.38,0,1.51,1.51,0,0,0-.35-.14c-.23,0-.46,0-.69-.06h-.25c-.13,0-.09.06,0,.1a1.57,1.57,0,0,1,.23.09l-.23-.09a1.82,1.82,0,0,0-.37-.09c-.21,0-.43,0-.65,0a3.05,3.05,0,0,1,.65,0h.39l.11,0a13.88,13.88,0,0,0-1.58,0,1.4,1.4,0,0,0-.32.06,2.29,2.29,0,0,1-1,.1l-.27.06h-.06c-.38.1-.78.16-1.16.3-.23.13-.46.28-.69.4h-.29a1.55,1.55,0,0,1-.35.3c.22,0,.43,0,.61-.08s.46-.43.83-.32c-.37-.11-.55.33-.83.32s-.39.05-.61.08a5.82,5.82,0,0,1-1.16.51,1.83,1.83,0,0,1,1.16-.51,1.55,1.55,0,0,0,.35-.3h.29c.23-.12.46-.27.69-.4a11.91,11.91,0,0,0-7.31,6.57,12.45,12.45,0,0,0-.65,7.8,12.83,12.83,0,0,0,4.71,7.26,12,12,0,0,0,8,2.33,14.54,14.54,0,0,0,8-3,10.75,10.75,0,0,0,2.85-3.51,12.65,12.65,0,0,0,1.31-4.27c0-1.54-.44-1.88-.73-1.85a1.11,1.11,0,0,0-.64.48,9,9,0,0,0-.55,1.14c-.13.38-.24.77-.39,1.2a7.77,7.77,0,0,1-1.73,3.13c.67-.84.61-.43.12.38a5.93,5.93,0,0,1-2.58,2.2,32.79,32.79,0,0,1-4.65,1.59A9,9,0,0,1,255,555a13,13,0,0,1-2.48-1.28,11.39,11.39,0,0,1-4.16-6.36,9.92,9.92,0,0,1,1.3-7.67,13.54,13.54,0,0,1,2.57-3.18,8.34,8.34,0,0,1,2.42-1.19,14.39,14.39,0,0,1,3.11-.85,10.37,10.37,0,0,0-3.06.78c-.77.31.42-.53,1-.69.23-.13.65.05.87,0a4.79,4.79,0,0,0,.75-.17l.79-.15c.24-.06.21.17.33.15a6.11,6.11,0,0,0,1-.14,2.12,2.12,0,0,1,.84,0,6.38,6.38,0,0,1,1,.33l.6.19.42.09a.45.45,0,0,1-.09-.3l.63.32-.63-.32a.45.45,0,0,0,.09.3,9.6,9.6,0,0,1,3.08,1.31v0c-.53-.39-1.06-.74-1.6-1.21.24.19.17.22-.14.09l-.18-.22a3.21,3.21,0,0,1,1.5.91l.35.16a.23.23,0,0,1,.07.27l.32.22A8.6,8.6,0,0,0,264.89,535.4Z"/><path class="cls-3" d="M258.31,533.39h.33a9.69,9.69,0,0,0-1.32,0A2.18,2.18,0,0,0,258.31,533.39Z"/></g><g class="cls-2"><path class="cls-3" d="M601.67,534.11c.33.4.68.79,1,1.19a5.3,5.3,0,0,1-.4-.7A1.34,1.34,0,0,0,601.67,534.11Z"/><path class="cls-3" d="M603.56,536.46l.16.22.17.17Z"/><path class="cls-3" d="M605.17,538.66a9.11,9.11,0,0,0-.74-1.18A7.61,7.61,0,0,0,605.17,538.66Z"/><path class="cls-3" d="M604.08,536.76c0,.18,0,.29-.18.1h0c.18.21.36.41.54.63A4.69,4.69,0,0,1,604.08,536.76Z"/><path class="cls-3" d="M604.08,536.76c0-.17-.14-.42-.16-.51A3,3,0,0,0,604.08,536.76Z"/><path class="cls-3" d="M605.9,536.38c.22.21-.23.42.16.86l1.18,1.55a17.33,17.33,0,0,1,.92,1.64c.38.48.17,1.56.47,2.06l.59,1.17c.2.45.41.92.59,1.28.37.73.61,1.07.34,0a24.78,24.78,0,0,0-3.26-7.31,28.29,28.29,0,0,0-4.55-5c-.49-.42-.9-.86-1.32-1.29.51.6,1.1,1.16,1.63,1.88a6.85,6.85,0,0,0,1.46,1.33A14.8,14.8,0,0,1,605.9,536.38Z"/><path class="cls-3" d="M592.21,527.55l.84.14a11.14,11.14,0,0,0,1.62,1c.58.26,1.19.49,1.77.79l-.38-.51c-.66-.35-.81-.24-.27.15a13.68,13.68,0,0,0-1.87-1.23,12.22,12.22,0,0,0-2-.83C591.92,527.21,591.85,527.34,592.21,527.55Z"/><path class="cls-3" d="M591.05,526.79l.82.26a.43.43,0,0,1,0,0l-.83-.23Z"/><path class="cls-3" d="M608,543.82a24,24,0,0,1,.85,10.46,1.38,1.38,0,0,1,0,.81,5.4,5.4,0,0,0-.29.76,13.63,13.63,0,0,1-.37,1.43l-.09.52h0c0,.28.07.23.18.08a4.81,4.81,0,0,1,.3-.47c-.06.09-.19.32-.3.47a5.23,5.23,0,0,0-.33.74,11.18,11.18,0,0,1-.47,1.33,7,7,0,0,1,.47-1.33c.05-.29.1-.56.15-.83a2.29,2.29,0,0,1,0-.25,24.37,24.37,0,0,1-1.14,3.17,9.87,9.87,0,0,1-1.28,2.52l-.34.5.1-.08-.16.17a18.39,18.39,0,0,1-1.47,2.06c-.26.49-.52,1-.82,1.5l-.58.26a2.78,2.78,0,0,1-.48.85c.42-.24.83-.44,1.18-.66.59-.27.44-1.32,1.23-1.57-.79.25-.64,1.3-1.23,1.57-.35.22-.76.42-1.18.66a5.72,5.72,0,0,1-2.13,1.64,6.9,6.9,0,0,1,2.13-1.64,2.78,2.78,0,0,0,.48-.85l.58-.26c.3-.49.56-1,.82-1.5a17.15,17.15,0,0,1-1.64,1.87,17.77,17.77,0,0,1-1.85,1.72,25.83,25.83,0,0,1-14.52,5.9,25.17,25.17,0,0,1-15.35-3.91,23.54,23.54,0,0,1-10-13.65,26.37,26.37,0,0,1-.86-8,22,22,0,0,1,1.68-7.62,21.08,21.08,0,0,1,4.2-6.55,19.21,19.21,0,0,1,6.51-4.45,32.89,32.89,0,0,1,7.42-2.32,22.89,22.89,0,0,1,7.65-.07c.33,0,.64,0,.91,0s.53,0,.75,0a5,5,0,0,0,1.1-.16c.56-.17.82-.45.88-.76.14-.61-.51-1.35-.63-1.44a7,7,0,0,0-2.46-1.44c-.44-.16-.9-.29-1.38-.42s-1-.14-1.54-.21a37.31,37.31,0,0,0-8.83.28c2.7-.33,1.75.16-.41.77s-5.41,2-7.86,3c-3.58,1.3-7.2,4.67-9.42,9a31.55,31.55,0,0,0-3.23,14.17c0,.59,0,1.19,0,1.8s.16,1.23.26,1.86l.15,1c.08.32.17.64.25,1,.18.64.3,1.32.53,2a26.89,26.89,0,0,0,13.23,16.4,30.19,30.19,0,0,0,21.41,2.65,23.41,23.41,0,0,0,9.54-5.28c.5-.35,1-.77,1.44-1.17s1-.76,1.41-1.19a19.93,19.93,0,0,0,2.32-2.43,22.24,22.24,0,0,0,2.4-3.72,23.51,23.51,0,0,0,1.41-3.74,33.77,33.77,0,0,1-1.5,3.67,27.17,27.17,0,0,1-2.26,3.57c-.65.86-.53.46-.17-.28l.65-1.28c.21-.47.41-.91.56-1.22a2.86,2.86,0,0,1,.7-.82,2.14,2.14,0,0,0,.63-.87,14.06,14.06,0,0,0,.73-1.77c.15-.62.31-1.26.48-1.93s.55-.37.58-.68a16.57,16.57,0,0,0,.26-2.55,7.13,7.13,0,0,1,.11-2,25.09,25.09,0,0,0,.42-2.5,6.08,6.08,0,0,0,0-1.54c0-.33-.11-.67-.17-1a1,1,0,0,1-.48.49c0-.48.1-1.18,0-1.67.06.49,0,1.19,0,1.67a1,1,0,0,0,.48-.49A28.33,28.33,0,0,0,608,542l0,0a11.53,11.53,0,0,1,1,4.39c0-.35,0-.5.07-.48s.16.22.22.6l-.15.62-.24-1c-.11-.32-.2-.63-.29-.94a11.17,11.17,0,0,1-.3-1.91s-.29-.5-.44-.74a.51.51,0,0,1,.16-.58c-.11-.27-.21-.55-.35-.82,0,.33.09,1,.19,1.56S608,543.82,608,543.82Z"/><path class="cls-3" d="M607.9,558.65c0-.19.09-.43.14-.69l-.2.68-.26.66-.53,1.32A4.82,4.82,0,0,0,607.9,558.65Z"/></g><circle class="cls-4" cx="582.94" cy="551" r="11.71"/><g class="cls-2"><path class="cls-3" d="M592.57,558.22l.44-.61a2.43,2.43,0,0,1-.29.26A.57.57,0,0,0,592.57,558.22Z"/><path class="cls-3" d="M593.38,557a.75.75,0,0,0,.07-.12l0-.11Z"/><path class="cls-3" d="M593.92,555.82a4,4,0,0,0-.26.61A3.6,3.6,0,0,0,593.92,555.82Z"/><path class="cls-3" d="M593.41,556.73c.07-.06.12-.07.08.06h0l.17-.36A2,2,0,0,1,593.41,556.73Z"/><path class="cls-3" d="M593.41,556.73l-.19.16A2.31,2.31,0,0,0,593.41,556.73Z"/><path class="cls-3" d="M592.82,556.05c0-.12.23,0,.28-.23.19-.55.26-1.05.42-1.55,0-.24.36-.55.37-.8.1-.59-.09-2.05-.17-1.21a10.45,10.45,0,0,1-.71,3.15,11.16,11.16,0,0,1-1.17,2.57,7.54,7.54,0,0,1-.54.58,10.69,10.69,0,0,0,.77-.75,2.65,2.65,0,0,0,.4-.75A5.8,5.8,0,0,1,592.82,556.05Z"/><path class="cls-3" d="M588.26,561.62l.31-.25a3.23,3.23,0,0,0,1.52-.93l-.28.06c-.27.22-.27.29,0,.16-.67.27-1.23.6-1.84.9C588.05,561.6,588.07,561.68,588.26,561.62Z"/><path class="cls-3" d="M587.63,561.76l.35-.2h0l-.34.21Z"/><path class="cls-3" d="M594.53,553.13a12.6,12.6,0,0,0-.11-4.87.65.65,0,0,1-.17-.34,1.6,1.6,0,0,0,0-.38c0-.23-.15-.44-.22-.66l-.1-.22h0c-.07-.11-.1-.07-.1,0a1.13,1.13,0,0,1,0,.26v-.26a2,2,0,0,0-.07-.37,6.27,6.27,0,0,1-.3-.58,2.69,2.69,0,0,1,.3.58l.17.35.06.1a12.39,12.39,0,0,0-.62-1.45,2.27,2.27,0,0,0-.18-.28,2.16,2.16,0,0,1-.49-.87l-.17-.23,0,.06,0-.1a9.68,9.68,0,0,0-.74-.95c-.21-.16-.44-.31-.64-.48l-.12-.26a1.32,1.32,0,0,1-.42-.2c.12.19.21.38.31.53s.58.25.64.63c-.06-.38-.53-.37-.64-.63s-.19-.34-.31-.53a5.33,5.33,0,0,1-.93-.86,1.87,1.87,0,0,1,.93.86,1.32,1.32,0,0,0,.42.2l.12.26c.2.17.43.32.64.48A11.32,11.32,0,0,0,590,541.3a11.88,11.88,0,0,0-7.2-2.45,12.56,12.56,0,0,0-7.41,2.51,12.89,12.89,0,0,0-4.78,7.22,12,12,0,0,0,1,8.27,14.51,14.51,0,0,0,6,6.14A10.63,10.63,0,0,0,582,564.2a12.26,12.26,0,0,0,4.44-.5c1.4-.63,1.55-1.15,1.4-1.4a1.09,1.09,0,0,0-.69-.4,7.87,7.87,0,0,0-1.27,0c-.4,0-.8.08-1.25.11a7.58,7.58,0,0,1-3.56-.34c1,.28.64.39-.3.27a5.87,5.87,0,0,1-3-1.5,31.3,31.3,0,0,1-3.32-3.63,8.89,8.89,0,0,1-1.78-5,13,13,0,0,1,.18-2.78,11.34,11.34,0,0,1,4.18-6.35,10,10,0,0,1,7.55-1.86,13.49,13.49,0,0,1,3.94,1.08,8.83,8.83,0,0,1,2.06,1.74,15.18,15.18,0,0,1,2,2.52,10.13,10.13,0,0,0-1.93-2.49c-.59-.58.65.17,1,.61.2.16.21.62.37.79s.3.41.45.62l.46.66c.15.2-.07.26,0,.36a5.49,5.49,0,0,0,.54.9,2,2,0,0,1,.31.77,6.55,6.55,0,0,1,.09,1c0,.21,0,.41.06.63l.09.42a.52.52,0,0,1,.24-.21c0,.21,0,.51,0,.71,0-.2,0-.5,0-.71a.52.52,0,0,0-.24.21,9.64,9.64,0,0,1,0,3.35h0c.15-.65.26-1.28.47-2-.07.3-.13.25-.13-.09l.13-.25a3.07,3.07,0,0,1-.24,1.73v.39c-.07.18-.15.15-.22.18s-.05.25-.07.38A7.8,7.8,0,0,0,594.53,553.13Z"/><path class="cls-3" d="M593.75,546.29l.14.3c-.13-.42-.36-.8-.53-1.21A2,2,0,0,0,593.75,546.29Z"/></g><g class="cls-2"><path class="cls-3" d="M148,296.69c0,2.89,0,5.8,0,8.71.06-1.47.15-2.91.31-4.4A19.71,19.71,0,0,0,148,296.69Z"/><path class="cls-3" d="M148,313.45c0,.53,0,1.06,0,1.55s.08.91.11,1.32C148.12,315.37,148.07,314.4,148,313.45Z"/><path class="cls-3" d="M148.62,328.6c0-2.68-.12-5.24-.24-7.71C148.36,323.07,148.43,325.61,148.62,328.6Z"/><path class="cls-3" d="M148.57,316.52c-.13.94-.27,1.4-.4-.14v-.06c.07,1.51.15,3,.22,4.57C148.4,319.25,148.47,317.78,148.57,316.52Z"/><path class="cls-3" d="M148.57,316.52c.12-.9.22-2.33.29-2.82C148.75,314.52,148.65,315.47,148.57,316.52Z"/><path class="cls-3" d="M152,320.27c.14,1.52-.82,1.18-.53,4.2.44,7.07,1.09,13.1,1.35,19.72.33,3-.51,7.8-.15,10.8.59,7.08,3.07,25.05,2.32,14.41-1.11-16-1.82-26.42-2.42-40.8-.72-11.69-1.34-22.93-1.72-34.92-.06-3.36,0-6.49.11-9.65-.17,4.12-.32,8.34-.44,13C150.32,303.22,151.6,310.65,152,320.27Z"/><path class="cls-3" d="M149.82,232.59l.12,4.55c-1,6.72-.94,13.83-.84,20.93.18-1,.36-2.08.55-3.14.06-4.05-.19-4.53-.5-.93.81-8.24,1.19-16,1.49-24C150.36,230.46,150.06,230.35,149.82,232.59Z"/><path class="cls-3" d="M150.82,225.29c-.06,1.57-.12,3.15-.18,4.69a1.14,1.14,0,0,0,.09-.16c0-1.58.08-3.15.12-4.69Z"/><path class="cls-3" d="M150.83,360.68c1.14,20.12,2.66,39,4.66,57.45a19,19,0,0,1,.79,4.27c0,1.45.06,2.92.19,4.36q.5,4,1,8c.16.92.32,1.86.48,2.81,0,0,0,.06,0,.08.32,1.49.41,1,.42.07s-.07-2-.06-2.85c0,.53.06,1.93.06,2.85,0,1.28.16,2.7.34,4.35.39,2.44.85,5,1.19,7.62-.55-2.91-1-5.43-1.19-7.62-.27-1.54-.52-3-.77-4.5l-.27-1.29c.8,6.13,1.66,12.21,2.62,18.28.26,1.39.51,2.72.72,3.8.84,4.38,1.83,8.71,1.85,11.51.2,1.07.41,2.15.61,3.24,0-.2,0-.43,0-.64.06.49.11.9.16,1.24.83,4.56,1.8,9.12,2.75,13.7.87,2.91,1.81,5.89,2.66,8.89,0,0,.22,2.11.32,3.15a38.52,38.52,0,0,1,1.76,4.92c-.35-2.51-.61-4.81-.95-6.92-.32-3.14-2.57-6.58-2.54-10.38,0,3.8,2.22,7.24,2.54,10.38.34,2.11.6,4.41.95,6.92.67,2.1,1.35,4.54,2,7s1.25,5,1.69,7.26a65.34,65.34,0,0,1-3.65-14.28,38.52,38.52,0,0,0-1.76-4.92c-.1-1-.32-3.15-.32-3.15-.85-3-1.79-6-2.66-8.89,2,8.92,4.16,17.89,6.75,27,2.07,7.31,4.42,14.46,6.94,21.51s5.41,13.91,8.63,20.59a178,178,0,0,0,10.81,19.43,125.12,125.12,0,0,0,13.75,17.53,82.47,82.47,0,0,0,17.49,14.17,70.29,70.29,0,0,0,21.21,8.47,68.38,68.38,0,0,0,23.26,1.13,58.65,58.65,0,0,0,22.57-7.92,77.73,77.73,0,0,0,19.5-17.05,126.56,126.56,0,0,0,14-21.07c1-1.86,2-3.67,2.88-5.55l2.67-5.62,2.46-5.68c.83-1.89,1.53-3.82,2.3-5.73q4.43-11.49,7.84-23.15c9.07-31,13.36-61.64,16.51-92.25s4.69-61.46,6.19-93.87c.54-12.45.58-30.24.11-47.89s-1.38-35.19-2.12-47.18c-1.74-16-3.58-19.78-4.78-19.35s-2,5-2,5.8c-1.07,9.94-1,18.7-.65,30s.81,25.16.09,45.19c.33-13.64,1-8.63,1.31,3s-.06,30-1.51,42.8c-2.18,18.57-3.18,41.06-4.85,64.6s-4,48.12-8.57,70.47c-2.28,11.16-4.61,23-8.3,36.06-2.46,8.43-5.22,16.65-8.36,24.62a189,189,0,0,1-10.71,23,106.69,106.69,0,0,1-14.18,20.1A63.14,63.14,0,0,1,288.81,605c-.44.22-.87.47-1.31.66l-1.37.53-2.72,1.08c-.91.36-1.88.55-2.81.83s-1.87.57-2.83.77l-2.91.5a20.46,20.46,0,0,1-2.93.41l-3,.21c-.5,0-1,.09-1.49.11L266,610a62.55,62.55,0,0,1-23.7-4.83,69.1,69.1,0,0,1-20.84-13.8,108,108,0,0,1-16.6-20.46A228.93,228.93,0,0,1,191.51,547a250.87,250.87,0,0,1-9.91-23.42c-4-11.4-6.87-24-9.09-33.63-3.56-15.07-6.25-28.17-8.67-40.76,1.19,7.07,2.38,13.15,3.66,19.41.67,3.13,1.35,6.3,2.08,9.67s1.54,6.91,2.51,10.76c1.25,5.16.53,3.44-.74-.43-.66-1.93-1.36-4.42-2.06-6.84s-1.32-4.8-1.72-6.52a31.63,31.63,0,0,1-.75-5.34,32.46,32.46,0,0,0-.67-5.36c-1.19-6.45-2.59-12.33-3.92-19.27-.68-3,.34-2.76,0-4.24-1.61-9.47-3.7-16.7-4.15-22.85-.39-4.66-.69-8.87-.95-13-.19-2.59-.41-5.16-.69-7.9-.23-1.69-.46-3.44-.7-5.19a5,5,0,0,1-.8,2.45c-.17-2.54-.27-6.14-.41-8.68.14,2.54.24,6.14.41,8.68a5,5,0,0,0,.8-2.45c-1.65-12.6-3.12-27.18-4.15-40.77l-.08.18c.47,8,.82,15.72.81,24,0-3.59.26-3.17.6.9-.09,1-.18,2.11-.26,3.15-.77-7.07-1.5-14.13-1.16-20.89,0,0-.37-3-.56-4.52,0-2.26.34-2.17.57-2.66-.1-1.55-.19-3.12-.29-4.69-.16,1.67-.28,5.12-.35,8.16S150.83,360.68,150.83,360.68Z"/><path class="cls-3" d="M158.69,442.29c-.17-1.07-.38-2.39-.61-3.8.66,5.12,1.42,10.23,2.19,15.35C160.28,451.06,159.48,446.69,158.69,442.29Z"/></g><g class="cls-2"><path class="cls-3" d="M691.28,296.68c0,2.88-.08,5.79-.12,8.69.08-1.46.2-2.9.38-4.38A18.31,18.31,0,0,0,691.28,296.68Z"/><path class="cls-3" d="M691,313.41c0,.52,0,1,0,1.54s0,.91.06,1.32C691,315.32,691,314.35,691,313.41Z"/><path class="cls-3" d="M690.91,328.53c.12-2.67.16-5.23.16-7.7C690.94,323,690.87,325.55,690.91,328.53Z"/><path class="cls-3" d="M691.43,316.49c-.17.92-.32,1.38-.4-.16v-.06c0,1.51,0,3,0,4.56C691.15,319.2,691.28,317.74,691.43,316.49Z"/><path class="cls-3" d="M691.43,316.49c.15-.9.31-2.32.4-2.81C691.68,314.49,691.55,315.44,691.43,316.49Z"/><path class="cls-3" d="M694.74,320.38c.08,1.53-.88,1.15-.74,4.18.1,7.1.31,13.19,0,19.83.1,3-1.19,7.76-1.12,10.78,0,7.13,0,25.36.67,14.66.84-16.11,1-26.62,1.28-41.08,0-11.75-.34-23.05-.66-35.07,0-3.36,0-6.5.08-9.67-.14,4.13-.28,8.36-.44,13.05C693.56,303.23,694.74,310.7,694.74,320.38Z"/><path class="cls-3" d="M690.58,232.66c.17,1.5.52,4.52.52,4.52a175.65,175.65,0,0,0,.54,20.92c.13-1,.27-2.09.4-3.16-.17-4.05-.45-4.51-.56-.91a223.37,223.37,0,0,0-.34-24.05C690.9,230.5,690.6,230.41,690.58,232.66Z"/><path class="cls-3" d="M690.8,225.31c.11,1.56.23,3.14.34,4.67a1,1,0,0,0,.07-.17c-.13-1.57-.26-3.14-.4-4.67A1,1,0,0,1,690.8,225.31Z"/><path class="cls-3" d="M690.46,360.65c-1.07,20.11-2.68,39-4.86,57.39a18.55,18.55,0,0,1-.22,4.33c-.34,1.42-.6,2.85-.86,4.27-.36,2.68-.73,5.36-1.09,8-.1.93-.21,1.88-.32,2.83v.08c-.1,1.52.11,1.09.38.18s.5-1.95.74-2.75c-.15.51-.48,1.87-.74,2.75-.3,1.25-.59,2.64-.88,4.28-.28,2.44-.66,5-1.12,7.62.33-2.95.75-5.46,1.12-7.62.18-1.55.34-3,.51-4.54,0-.43.06-.86.1-1.31-.89,6.11-1.84,12.16-2.89,18.21-.2,1.4-.4,2.73-.56,3.82a65.21,65.21,0,0,1-2.26,11.4c-.22,1.06-.45,2.15-.67,3.23l.21-.61-.33,1.2c-.92,4.53-2,9.06-3,13.61-.52,3-1,6.05-1.6,9.11l-1.24,2.91a37.25,37.25,0,0,1-.83,5.14c.91-2.35,1.78-4.49,2.5-6.52,1.25-2.92.7-7,2.43-10.42-1.73,3.39-1.18,7.5-2.43,10.42-.72,2-1.59,4.17-2.5,6.52-.51,2.15-1.19,4.58-1.95,7s-1.7,4.84-2.58,7a93.26,93.26,0,0,1,4.53-14,37.25,37.25,0,0,0,.83-5.14l1.24-2.91c.6-3.06,1.08-6.14,1.6-9.11-2.11,8.85-4.46,17.73-7.19,26.71-2.2,7.22-4.66,14.27-7.26,21.2s-5.54,13.68-8.79,20.23a175.63,175.63,0,0,1-10.79,19,122.67,122.67,0,0,1-13.5,16.94c-9.93,10.43-22.68,18.38-37,21.34a64,64,0,0,1-21.91.87,54.11,54.11,0,0,1-20.9-7.63,72.19,72.19,0,0,1-18-16.4,119.91,119.91,0,0,1-13-20.52c-.87-1.82-1.84-3.59-2.64-5.44s-1.63-3.69-2.44-5.52-1.49-3.74-2.24-5.6-1.38-3.76-2.07-5.64c-2.65-7.55-5-15.17-6.93-22.87-7.81-30.69-12.14-60.86-15-91.21a774.55,774.55,0,0,1-2.92-93.2c.24-12.35.57-30,.89-47.49s1-34.92,1.68-46.8c.14-16-.88-19.86-2.18-19.62s-2.71,4.65-2.87,5.39c-2.44,9.7-3.32,18.47-4.06,29.79s-1.28,25.21-2.63,45.29c.84-13.68,1.28-8.61,1.23,3.08s-.37,30-1.32,43c-1.48,18.75-.84,41.54,1.16,65.33s5.37,48.58,9.09,71.55a367.11,367.11,0,0,0,8.24,37.1,249.82,249.82,0,0,0,8.05,25.86,183.93,183.93,0,0,0,11.19,24.66,114,114,0,0,0,15.87,22.39A74,74,0,0,0,548,615.7c.54.26,1.06.55,1.62.79l1.69.64,3.38,1.29c1.13.42,2.32.66,3.48,1s2.33.66,3.51.9l3.58.58a28.86,28.86,0,0,0,3.59.45l3.6.21c.6,0,1.2.08,1.8.1l1.8-.07a74.27,74.27,0,0,0,28-6,81.85,81.85,0,0,0,24-16.09A124.14,124.14,0,0,0,646.42,577a158.13,158.13,0,0,0,13.2-25.86c3.48-8.47,6.13-16.76,8.6-24.88,3.77-11.79,7.62-24.44,9.9-34.22a389.28,389.28,0,0,0,7.28-41.65c-1,7.17-2,13.36-3.11,19.75-.59,3.19-1.18,6.43-1.81,9.87s-1.4,7.06-2.32,11c-1.21,5.27-1.08,3.36-.47-.72.31-2,.69-4.64,1.07-7.17s.77-5,1-6.74a35.21,35.21,0,0,1,1.38-5.28,31.71,31.71,0,0,0,1.3-5.3c1.21-6.53,1.77-12.62,2.57-19.69.26-3,1.14-2.56,1.25-4.08,1.19-9.64.84-17.21,1.82-23.32.66-4.65,1.25-8.86,1.83-12.95.3-2.6.6-5.18.81-7.93.07-1.72.15-3.49.22-5.27a5.07,5.07,0,0,1-1.22,2.29c.28-2.54.8-6.12,1-8.66-.24,2.54-.76,6.12-1,8.66a5.07,5.07,0,0,0,1.22-2.29c.53-12.75,1-27.44,1.2-41.09l-.09.18a225,225,0,0,1-2,24c.46-3.55.69-3.1.47,1-.23,1-.47,2.07-.7,3.09a174.7,174.7,0,0,1,1.46-20.89s-.06-3-.08-4.56c.23-2.24.53-2.12.81-2.58,0-1.56.09-3.13.14-4.71-.32,1.65-.74,5.08-1.11,8.1S690.46,360.65,690.46,360.65Z"/><path class="cls-3" d="M682.55,442.19l.46-3.81c-.74,5.1-1.58,10.19-2.45,15.29C681.47,451,682,446.62,682.55,442.19Z"/></g></svg>