<svg id="Layer_1" data-name="Layer 1" xmlns="http://www.w3.org/2000/svg" viewBox="0 0 841.89 841.89"><defs><style>.cls-1{fill:#deab90;}.cls-2{opacity:0.85;}.cls-3{fill:#211f1e;}.cls-4{fill:#040505;}</style></defs><rect class="cls-1" width="841.89" height="841.89"/><g class="cls-2"><path class="cls-3" d="M118.3,367.2l.48,3.88a15,15,0,0,1,.07-2A3.82,3.82,0,0,0,118.3,367.2Z"/><path class="cls-3" d="M119.22,374.67c0,.23,0,.46.08.68l.17.58C119.38,375.51,119.3,375.08,119.22,374.67Z"/><path class="cls-3" d="M120.51,381.35c-.15-1.2-.37-2.33-.61-3.41A21.18,21.18,0,0,0,120.51,381.35Z"/><path class="cls-3" d="M119.88,376c-.09.44-.21.66-.41,0v0c.13.66.27,1.32.43,2A11,11,0,0,1,119.88,376Z"/><path class="cls-3" d="M119.88,376c.08-.42.12-1.07.17-1.3A10.87,10.87,0,0,0,119.88,376Z"/><path class="cls-3" d="M123.48,377.15c.22.65-.75.64-.32,1.93.78,3.08,1.65,5.67,2.14,8.58.41,1.29-.18,3.56.28,4.84.89,3.06,3.72,10.68,2.74,6-.77-3.48-1.44-6.35-2.1-9.13s-1.15-5.51-1.78-8.65l-.93-3.79c-.31-1.25-.56-2.51-.85-3.77-.55-2.53-1.1-5.07-1.63-7.7a36,36,0,0,1-.43-4.29c0,1.85.14,3.73.29,5.82C121,369.8,122.65,372.93,123.48,377.15Z"/><path class="cls-3" d="M116,338.55c.16.67.49,2,.49,2a30.91,30.91,0,0,0,.63,9.36l.36-1.44c-.2-1.81-.49-2-.56-.37a57.54,57.54,0,0,0-.33-10.78C116.31,337.56,116,337.54,116,338.55Z"/><path class="cls-3" d="M116.3,335.23c.08.7.17,1.4.25,2.09l.08-.08c-.11-.7-.21-1.4-.31-2.08Z"/><path class="cls-3" d="M123.93,395.37c.47,2.21.85,4.4,1.36,6.53l1.48,6.34.72,3.12.81,3.07q.81,3,1.6,6.06a4.4,4.4,0,0,1,.83,1.78,12.53,12.53,0,0,0,.26,2c.36,1.17.71,2.33,1.06,3.48.15.39.31.79.46,1.19l0,0c.31.62.39.38.39-.07a12.38,12.38,0,0,1,0-1.31c0,.24.06.88,0,1.31a14.09,14.09,0,0,0,.34,1.95c.42,1,.87,2.09,1.22,3.23a20,20,0,0,1-1.22-3.23l-.75-1.91c-.08-.18-.17-.35-.26-.53.75,2.66,1.72,5.25,2.62,7.85.25.59.48,1.15.68,1.6.77,1.85,1.7,3.61,1.75,4.93l.56,1.38c0-.1,0-.2,0-.3.06.22.11.4.14.55.78,1.93,1.53,3.89,2.46,5.78.76,1.14,1.57,2.3,2.31,3.49,0,0,.13,1,.19,1.49a9.79,9.79,0,0,1,1.55,1.82c-.3-1.12-.53-2.15-.75-3.11-.19-1.47-2.24-2.39-2.15-4.27-.09,1.88,2,2.8,2.15,4.27.22,1,.45,2,.75,3.11a26.46,26.46,0,0,1,2.88,6,14.83,14.83,0,0,1-2.88-6,9.79,9.79,0,0,0-1.55-1.82c-.06-.49-.19-1.49-.19-1.49-.74-1.19-1.55-2.35-2.31-3.49l2.62,5.62,3,5.56A99.56,99.56,0,0,0,157.56,478a77.55,77.55,0,0,0,14.89,13.47,68.47,68.47,0,0,0,18.38,8.79,74.91,74.91,0,0,0,20.85,3.14A103.15,103.15,0,0,0,234.51,501,155.54,155.54,0,0,0,275.4,485.9c6.21-3.32,12.18-6.91,18-10.66,11.71-7.52,23-15.67,35-24.13A183.71,183.71,0,0,0,345,437.2c5.85-5.43,11.42-11.08,15.19-15,4.52-5.77,4.63-8.11,3.61-8.84s-3.22,0-3.54.19c-4.29,2-7.3,4.48-11,7.88a151.08,151.08,0,0,1-15.54,12.84c4.89-3.63,3.62-1.71-.17,1.86s-10.22,8.63-15.43,11.29c-7.57,3.81-15.56,9.74-24.08,15.78s-17.57,12.18-26.7,16.45c-4.58,2.05-9.27,4.6-14.82,6.77a166.62,166.62,0,0,1-21.65,6.49,91.36,91.36,0,0,1-21.67,2.36,62.6,62.6,0,0,1-21.2-4,59,59,0,0,1-19-11.85,118.27,118.27,0,0,1-15.7-16.68c-.74-1.09-1.49-2.2-2.17-3.36s-1.26-2.37-1.86-3.54-1.2-2.28-1.7-3.39-1-2.18-1.46-3.15c-.73-1.54-1.54-3-2.18-4.43s-1.32-2.85-2-4.22c-1.37-2.7-2.46-5.39-3.66-8,1.19,2.93,2.17,5.49,3.43,8s2.36,5.21,4,8.28c1.05,2.08.42,1.49-.68,0-.55-.72-1.22-1.67-1.85-2.6s-1.13-1.9-1.5-2.59c-.72-1.15-.56-3.49-1.28-4.63-1.09-2.68-2.36-5.06-3.72-7.9-.66-1.19.29-1.35,0-1.95-1.49-4-3.73-6.75-4.23-9.47-.4-2-.76-3.89-1.11-5.69-.26-1.13-.52-2.25-.88-3.41l-.77-2.22a2.21,2.21,0,0,1-.74,1.28c-.21-1.12-.37-2.73-.58-3.85.21,1.12.37,2.73.58,3.85a2.21,2.21,0,0,0,.74-1.28c-.92-2.68-1.89-5.58-2.83-8.55l-2.48-9-.07.1a63,63,0,0,1,1.57,10.64c-.16-1.6.15-1.47.62.29,0,.49-.09,1-.14,1.47a26.7,26.7,0,0,1-1.79-9.19s-.48-1.29-.71-1.93c-.07-1,.24-1,.45-1.28-.16-.68-.32-1.36-.49-2.05A59.62,59.62,0,0,0,123.93,395.37Z"/><path class="cls-3" d="M133.26,430.88l-.6-1.61c.62,2.23,1.47,4.38,2.21,6.59C134.88,434.54,134.06,432.72,133.26,430.88Z"/></g><g class="cls-2"><path class="cls-3" d="M720.75,366.33c-.2,1.35-.4,2.72-.61,4.09a15.18,15.18,0,0,1,.63-2A4.35,4.35,0,0,0,720.75,366.33Z"/><path class="cls-3" d="M719.58,374.2c0,.24-.08.49-.11.72v.63C719.51,375.1,719.54,374.65,719.58,374.2Z"/><path class="cls-3" d="M718.71,381.34c.27-1.25.43-2.45.57-3.62A23.18,23.18,0,0,0,718.71,381.34Z"/><path class="cls-3" d="M719.86,375.71c-.21.42-.38.61-.39-.12v0c-.05.72-.1,1.43-.19,2.17C719.47,377,719.66,376.29,719.86,375.71Z"/><path class="cls-3" d="M719.86,375.71c.19-.4.41-1,.52-1.27A10.41,10.41,0,0,0,719.86,375.71Z"/><path class="cls-3" d="M722.94,378c0,.74-.93.42-1,1.88-.29,3.39-.34,6.33-.86,9.46,0,1.47-1.55,3.51-1.6,5-.4,3.38-.84,12.19.11,7.14.68-3.8,1.21-7,1.71-10s.8-6,1.29-9.44l.39-4.18c.12-1.38.18-2.76.27-4.15.17-2.77.35-5.55.56-8.42.19-1.59.43-3.07.65-4.57-.34,2-.76,3.93-1.21,6.13C722.62,369.72,723.39,373.41,722.94,378Z"/><path class="cls-3" d="M724.42,336.09c.05.72.14,2.17.14,2.17a34.36,34.36,0,0,0-1,9.92l.6-1.45c.11-1.93-.14-2.18-.49-.49a64.93,64.93,0,0,0,1.53-11.36C724.94,335.1,724.64,335,724.42,336.09Z"/><path class="cls-3" d="M725.32,332.65c0,.75-.07,1.5-.1,2.23l.08-.07c0-.75,0-1.5.05-2.24Z"/><path class="cls-3" d="M716.86,396.52c-.48,2.35-.87,4.68-1.41,7s-1.07,4.51-1.6,6.72c-.27,1.11-.53,2.21-.8,3.31l-.9,3.24c-.62,2.15-1.22,4.28-1.83,6.39a4,4,0,0,1-.29,2.07,13.76,13.76,0,0,0-1,1.87c-.41,1.22-.82,2.43-1.22,3.64-.11.43-.23.87-.34,1.32v0c-.11.73.09.57.36.19a12.91,12.91,0,0,1,.74-1.18c-.15.21-.48.81-.74,1.18a15.92,15.92,0,0,0-.89,1.88,32.62,32.62,0,0,1-1.22,3.46,28.28,28.28,0,0,1,1.22-3.46c.19-.72.36-1.41.54-2.1,0-.21.07-.41.11-.63-.88,2.8-2,5.5-3,8.22l-.57,1.75a13.45,13.45,0,0,1-2.25,5.05c-.21.47-.43.95-.64,1.43l.2-.25c-.12.21-.23.37-.32.51-.89,2-1.76,4-2.81,6-.47,1.36-.91,2.79-1.44,4.18l-1.08,1.11a7.62,7.62,0,0,1-.76,2.39,27.61,27.61,0,0,0,2.26-2.54c1.09-1.14.6-3.43,2.19-4.61-1.59,1.18-1.1,3.47-2.19,4.61a27.61,27.61,0,0,1-2.26,2.54,23.33,23.33,0,0,1-3.87,5.82,19,19,0,0,1,3.87-5.82,7.62,7.62,0,0,0,.76-2.39l1.08-1.11c.53-1.39,1-2.82,1.44-4.18-1,1.92-2,3.84-3,5.79l-3.34,5.69a114.61,114.61,0,0,1-12.53,16.85,81.71,81.71,0,0,1-15.45,13.47,68.39,68.39,0,0,1-18.67,8.56,71.67,71.67,0,0,1-21.07,2.67,96.47,96.47,0,0,1-23-3.43,137.48,137.48,0,0,1-21.32-7.78c-6.8-3.1-13.31-6.43-19.63-10s-12.47-7.28-18.47-11.27A233,233,0,0,1,507.41,447c-4.21-4.05-10.42-9.58-16.52-15.18s-12.06-11.25-16-15.22c-5.81-4.81-8-5.2-8.83-4.22s-.17,3.28,0,3.61c2,4.62,4.63,7.9,8.34,11.85s8.48,8.58,14.95,15.77c-4.47-4.83-2.3-3.61,1.94,0A147.22,147.22,0,0,1,506,458.06c5.79,7.1,14.38,13.95,23.94,20.33s20.09,12.25,29.79,17.88c1.22.7,2.49,1.36,3.78,2s2.62,1.35,4,2l4.24,2,4.54,1.94A128.11,128.11,0,0,0,601,512.64a96.92,96.92,0,0,0,26.17,2.54,79.47,79.47,0,0,0,26.42-5.67,81.74,81.74,0,0,0,23.69-14.89A34.46,34.46,0,0,0,680,492l2.48-2.64c1.56-1.78,2.9-3.65,4.27-5.43a30.29,30.29,0,0,0,1.88-2.74l1.75-2.74c1.2-1.77,2.18-3.63,3.19-5.43.78-1.29,1.63-2.56,2.44-3.85s1.56-2.61,2.31-3.89,1.56-2.49,2.21-3.7,1.24-2.39,1.78-3.48c.81-1.73,1.68-3.37,2.32-5s1.29-3.27,1.89-4.85c1.26-3.14,2.09-6.24,3-9.23-1.14,3.29-2,6.19-3.2,9.1s-2.24,6-4,9.5c-1.12,2.36-1,1.4-.44-.54.28-1,.67-2.18,1.07-3.35s.69-2.35,1-3.16c.38-1.43,2.26-3.14,2.64-4.59a89.13,89.13,0,0,0,2.7-9.18c.3-1.44,1.17-1,1.29-1.7,1.2-4.52,1.17-8.28,2.24-11.05.75-2.12,1.42-4,2.08-5.92.38-1.19.76-2.38,1.07-3.67.11-.81.23-1.66.35-2.51a2.2,2.2,0,0,1-1.25.87c.33-1.18.93-2.81,1.26-4-.33,1.17-.93,2.8-1.26,4a2.2,2.2,0,0,0,1.25-.87c.42-3,.92-6.29,1.42-9.59s.86-6.67,1.28-9.91l-.1.07A59.4,59.4,0,0,1,716,403.62c.6-1.62.81-1.36.42.55l-.81,1.35c.56-3.35.88-6.73,2.21-9.73,0,0,.07-1.47.1-2.19.34-1,.63-.92.93-1.1l.36-2.22C718.44,391.76,716.86,396.52,716.86,396.52Z"/><path class="cls-3" d="M706.92,434.21c.14-.5.3-1.11.48-1.77l-.59,1.75-.66,1.71-1.34,3.44C705.7,438.28,706.32,436.25,706.92,434.21Z"/></g><g class="cls-2"><path class="cls-3" d="M628.49,443.64l-1-.32a2.25,2.25,0,0,1,.46.24A1.14,1.14,0,0,0,628.49,443.64Z"/><path class="cls-3" d="M626.64,443.07l-.18,0h-.15Z"/><path class="cls-3" d="M624.91,442.83c.3.05.6.08.88.1A5.1,5.1,0,0,0,624.91,442.83Z"/><path class="cls-3" d="M626.27,443.11c-.1-.06-.15-.11,0-.09h0l-.52-.09Z"/><path class="cls-3" d="M626.27,443.11l.29.16A2.52,2.52,0,0,0,626.27,443.11Z"/><path class="cls-3" d="M625.69,443.85c-.17,0-.09-.23-.43-.22l-1.11,0c-.35,0-.7,0-1.06,0a9.25,9.25,0,0,0-1.18-.12,6.67,6.67,0,0,0-1.48.4c-.42.15-.6.26,0,.16a14.67,14.67,0,0,1,4.39-.26,15.1,15.1,0,0,1,3.77.63c.34.14.65.3,1,.45-.4-.2-.8-.46-1.28-.65a4.39,4.39,0,0,0-1.12-.26A12.9,12.9,0,0,1,625.69,443.85Z"/><path class="cls-3" d="M634.52,447.75l-.42-.32a3.27,3.27,0,0,0-.8-.86,5.24,5.24,0,0,0-1-.69l.22.3c.38.26.45.26.17-.05.64.72,1.29,1.3,1.91,2C634.61,448,634.67,448,634.52,447.75Z"/><path class="cls-3" d="M635,448.46l-.39-.37v0l.39.36Z"/><path class="cls-3" d="M621.24,443a15.91,15.91,0,0,0-6.17,2.05,1.11,1.11,0,0,1-.38.32,3.85,3.85,0,0,0-.47.19c-.26.16-.49.37-.74.55l-.25.21h0c-.12.12-.06.12,0,.08l.3-.13-.3.13a3.52,3.52,0,0,0-.43.26c-.2.2-.4.41-.63.61a5,5,0,0,1,.63-.61l.38-.35.11-.11a14.93,14.93,0,0,0-1.59,1.39,2.59,2.59,0,0,0-.28.33,4.05,4.05,0,0,1-.9,1l-.22.31.06-.05-.1.1a12.74,12.74,0,0,0-.88,1.33c-.13.33-.26.68-.39,1l-.24.28a2.68,2.68,0,0,1-.12.59c.17-.24.35-.44.48-.64s.16-.81.55-1.07c-.39.26-.3.8-.55,1.07s-.31.4-.48.64A11.44,11.44,0,0,1,608,454a3,3,0,0,1,.66-1.55,2.68,2.68,0,0,0,.12-.59l.24-.28c.13-.32.26-.67.39-1a14.45,14.45,0,0,0-1.34,2.9,15.91,15.91,0,0,0-.05,10.09,17.05,17.05,0,0,0,17.13,11.52,15.57,15.57,0,0,0,10-4.56,18.12,18.12,0,0,0,5.1-10,14.66,14.66,0,0,0-.32-5.86,16.25,16.25,0,0,0-2.38-5.28,4.63,4.63,0,0,0-1.46-1.33c-.34-.18-.53-.15-.63,0s-.1.82-.08.9c.18.57.39,1.05.59,1.56s.48,1,.72,1.55a11.41,11.41,0,0,1,1.17,4.72c-.12-1.46.13-1,.36.28a9.31,9.31,0,0,1-.5,4.58,28.34,28.34,0,0,1-3.17,5.95,12.59,12.59,0,0,1-5.81,4.38,14.24,14.24,0,0,1-13.87-2.08,14.33,14.33,0,0,1-5.65-9.23,17.86,17.86,0,0,1-.15-5.62,12,12,0,0,1,1.36-3.43,22.52,22.52,0,0,1,1.18-2c.46-.57.84-1.17,1.32-1.66a13.38,13.38,0,0,0-2.49,3.53c-.26.49-.24.29-.11-.13.07-.21.16-.49.26-.74s.24-.48.34-.65.64-.57.82-.83.42-.55.63-.84l.7-.83c.2-.26.32-.07.43-.19a9.17,9.17,0,0,0,1-1,4.12,4.12,0,0,1,.89-.69,11,11,0,0,1,1.3-.57c.26-.11.51-.23.79-.33l.52-.25a.57.57,0,0,1-.34-.15c.28-.08.66-.19.93-.25-.27.06-.65.17-.93.25a.57.57,0,0,0,.34.15,12.87,12.87,0,0,1,4.33-1.23l0,0c-.89.06-1.74.17-2.68.21.4,0,.36,0-.08.15l-.36,0a4.69,4.69,0,0,1,1.15-.32,3.55,3.55,0,0,1,1.17-.06l.5-.11c.26,0,.25.09.3.15s.35,0,.53,0A10.46,10.46,0,0,0,621.24,443Z"/><path class="cls-3" d="M612.83,446.68l.33-.28a13.3,13.3,0,0,0-1.32,1.17A4,4,0,0,0,612.83,446.68Z"/></g><circle class="cls-4" cx="623.33" cy="458.96" r="7.16"/><g class="cls-2"><path class="cls-3" d="M617.39,455.58l.24-.36a.85.85,0,0,1-.19.14C617.37,455.43,617.39,455.5,617.39,455.58Z"/><polygon class="cls-3" points="617.87 454.91 617.91 454.85 617.93 454.78 617.87 454.91"/><path class="cls-3" d="M618.29,454.29a3.47,3.47,0,0,0-.25.29A.81.81,0,0,0,618.29,454.29Z"/><path class="cls-3" d="M617.86,454.71c.06,0,.1,0,.08.07h0l.11-.2A.68.68,0,0,1,617.86,454.71Z"/><path class="cls-3" d="M617.86,454.71a.77.77,0,0,1-.15.06Z"/><path class="cls-3" d="M617.32,454c0-.08.21.09.28-.07a3.52,3.52,0,0,1,.65-.9c.09-.16.48-.1.57-.24.25-.3,1-1.09.48-.77a7.33,7.33,0,0,0-1.73,1.57,8.79,8.79,0,0,0-.9,1.75,3.5,3.5,0,0,1-.25.47,7,7,0,0,1,.42-.58C617.06,455,617,454.49,617.32,454Z"/><path class="cls-3" d="M616.37,458.58l-.07-.24a2,2,0,0,0,.21-1l-.15.13c0,.21,0,.24.11.07a2.27,2.27,0,0,0-.28,1.21C616.26,458.68,616.33,458.69,616.37,458.58Z"/><path class="cls-3" d="M616.2,459c0-.09,0-.17,0-.24h0c0,.09,0,.17,0,.25Z"/><path class="cls-3" d="M619.37,453.07a6.6,6.6,0,0,1,2.72-1.06c.07-.06.11-.12.21-.11l.23.06a2.88,2.88,0,0,1,.41,0l.15,0h0c.08,0,0-.07,0-.1l-.15-.08.15.08a.77.77,0,0,0,.23.06,1.7,1.7,0,0,1,.39,0,1.24,1.24,0,0,1-.39,0l-.23,0-.07,0a7.15,7.15,0,0,1,.93.05h.2c.23,0,.46,0,.57.14l.16.05,0,0,0,0a5.11,5.11,0,0,1,.66.22c.16,0,.33,0,.49,0l.1.18a.45.45,0,0,1,.28,0,1.85,1.85,0,0,0-.24-.34c-.1-.18-.42.09-.52-.19.1.28.42,0,.52.19a1.85,1.85,0,0,1,.24.34,1,1,0,0,1,.59.46,1,1,0,0,1-.59-.46.45.45,0,0,0-.28,0l-.1-.18c-.16,0-.33,0-.49,0a6.49,6.49,0,0,1,1.23.63,7.27,7.27,0,0,1,2.73,3.3,6.52,6.52,0,0,1,.2,4.28,6.06,6.06,0,0,1-2.82,3.53,7,7,0,0,1-4,.94,4.61,4.61,0,0,1-3.47-1.92,11.92,11.92,0,0,1-1.09-1.62,5.72,5.72,0,0,1-.63-1.8c-.27-.62-.61-.81-.93-.79a.88.88,0,0,0-.6.29,1.87,1.87,0,0,0-.34,1.67,14.75,14.75,0,0,0,.75,2.48c-.28-.76,0-.56.37,0s1,1.32,1.43,2a4.64,4.64,0,0,0,3.36,2,11,11,0,0,0,4.35-.37,7,7,0,0,0,2.07-1,7.7,7.7,0,0,0,3.61-5.25,9.08,9.08,0,0,0-1.24-6.4,6.3,6.3,0,0,0-2.49-2.11,10.45,10.45,0,0,0-1.82-1,5.18,5.18,0,0,0-2.46-.32,7.05,7.05,0,0,1,2.39.34c.59.21-.52.11-.92.11-.17,0-.39-.32-.57-.28a3.4,3.4,0,0,0-1.14.06c-.18.05-.15-.2-.24-.17-.57.07-.95.42-1.29.42a5.58,5.58,0,0,0-.73.05,1.69,1.69,0,0,0-.44.12l-.26.16a.43.43,0,0,1,.21.19c-.13,0-.34.05-.47.09.13,0,.34-.05.47-.09a.43.43,0,0,0-.21-.19,8.85,8.85,0,0,0-1.77,1.41h0a2.37,2.37,0,0,1,1.14-.57c-.19,0-.2,0,0-.14l.2,0a2.29,2.29,0,0,1-1,.52l-.14.2c-.12.05-.16,0-.22-.05l-.18.17A4.49,4.49,0,0,0,619.37,453.07Z"/><path class="cls-3" d="M623.33,451.88l-.2,0a6.83,6.83,0,0,1,.79.06C623.79,451.83,623.56,451.85,623.33,451.88Z"/></g><g class="cls-2"><path class="cls-3" d="M204.67,443.15l.86-.27a3.4,3.4,0,0,1-.46.06A.85.85,0,0,0,204.67,443.15Z"/><path class="cls-3" d="M206.34,442.69l.16,0,.13,0Z"/><path class="cls-3" d="M207.88,442.35a6.7,6.7,0,0,0-.8.11A4.46,4.46,0,0,0,207.88,442.35Z"/><path class="cls-3" d="M206.63,442.5c.1,0,.15,0,0,.1h0l.45-.14A2.5,2.5,0,0,1,206.63,442.5Z"/><path class="cls-3" d="M206.63,442.5l-.31,0Z"/><path class="cls-3" d="M206.87,441.58c.16-.07.16.18.48.09l1.08-.26c.36,0,.71-.08,1.08-.09s.85.23,1.18.2,1.09,0,1.56,0,.69-.05.09-.14a14.26,14.26,0,0,0-4.57,0,16.37,16.37,0,0,0-3.66,1.21c-.33.16-.65.28-1,.41.44-.14.86-.33,1.35-.45a3.94,3.94,0,0,0,1-.45A9.41,9.41,0,0,1,206.87,441.58Z"/><path class="cls-3" d="M199,446.66l.27-.4a9.43,9.43,0,0,0,.88-.64c.28-.25.54-.52.84-.74l-.35.09c-.33.27-.32.36,0,.16a7.16,7.16,0,0,0-2,1.61C198.8,446.75,198.85,446.81,199,446.66Z"/><path class="cls-3" d="M198.39,447.11l.33-.37h0l-.32.38Z"/><path class="cls-3" d="M211.24,442.1a13.75,13.75,0,0,1,5.72,1.95.93.93,0,0,1,.43.18,2.5,2.5,0,0,0,.34.31,6.78,6.78,0,0,1,.67.53l.25.17h0c.14.08.13,0,.07-.07a3,3,0,0,1-.18-.25l.18.25a3.26,3.26,0,0,0,.32.34,7.68,7.68,0,0,1,.6.56,5.66,5.66,0,0,1-.6-.56l-.4-.27-.12-.07a13.62,13.62,0,0,1,1.42,1.32,4,4,0,0,1,.29.29,3,3,0,0,1,.74,1l.19.29,0-.07.06.12a11.25,11.25,0,0,1,.76,1.25c.19.25.39.51.58.79l0,.35a2.12,2.12,0,0,1,.32.46c0-.27-.06-.53-.1-.76s-.57-.55-.55-1c0,.46.52.64.55,1s.06.49.1.76a3.75,3.75,0,0,1,.4,1.5,4.8,4.8,0,0,1-.4-1.5,2.12,2.12,0,0,0-.32-.46l0-.35c-.19-.28-.39-.54-.58-.79a13.14,13.14,0,0,1,1.1,2.67,14.83,14.83,0,0,1-.2,9,14.48,14.48,0,0,1-5.59,7.24,13.65,13.65,0,0,1-9.56,2.21,14.15,14.15,0,0,1-8.14-4,12.69,12.69,0,0,1-2.53-3.76,11.28,11.28,0,0,1-.91-4.5,17.46,17.46,0,0,1,.46-4.52,13.22,13.22,0,0,1,1.75-4.12c.7-1.37.74-1.88.46-2.07s-.76,0-.83.06a4.37,4.37,0,0,0-1.27,1,6.62,6.62,0,0,0-1,1.41,20.43,20.43,0,0,0-1.82,4.7c.43-1.49.44-.89.27.38s-.19,3.3-.19,4.78a11,11,0,0,0,2.63,6.94,17.56,17.56,0,0,0,6.64,4.89,14.5,14.5,0,0,0,4.22,1.07A15.39,15.39,0,0,0,219,469.55,17.11,17.11,0,0,0,225.24,459a13.64,13.64,0,0,0-.55-6.17,17.23,17.23,0,0,0-1.33-3.78A13.42,13.42,0,0,0,222,447a15.23,15.23,0,0,0-1.62-1.6,13.94,13.94,0,0,1,2.91,3.62c.57,1.08-.62-.64-1.17-1.21-.23-.25-.32-.84-.6-1.06a7.13,7.13,0,0,0-.76-.79l-.89-.7c-.28-.19-.08-.35-.23-.44a10.44,10.44,0,0,0-1.26-.74,4.61,4.61,0,0,1-1-.53,13.43,13.43,0,0,0-1.22-.77,3.73,3.73,0,0,0-.81-.37l-.57-.15a.46.46,0,0,1,.16.33c-.26-.1-.6-.32-.87-.39.27.07.61.29.87.39a.46.46,0,0,0-.16-.33,16,16,0,0,0-4.45-.5l0,0a7.18,7.18,0,0,1,2.53.48c-.36-.13-.3-.21.13-.11l.3.2c-.38-.07-.75-.12-1.12-.16a7.75,7.75,0,0,1-1.08-.27l-.49.05c-.24,0-.23-.12-.27-.19a4.34,4.34,0,0,0-.51,0C210.15,441.86,211.24,442.1,211.24,442.1Z"/><path class="cls-3" d="M219.06,445.53l-.33-.24a11.43,11.43,0,0,1,1.18,1.13A3.15,3.15,0,0,0,219.06,445.53Z"/></g><circle class="cls-4" cx="209.3" cy="456.94" r="6.73"/><g class="cls-2"><path class="cls-3" d="M215.43,453.45l-.22-.38a.59.59,0,0,1,0,.23C215.28,453.4,215.36,453.41,215.43,453.45Z"/><polygon class="cls-3" points="214.99 452.73 214.94 452.66 214.88 452.62 214.99 452.73"/><path class="cls-3" d="M214.45,452.17a1.44,1.44,0,0,0,.27.28A1.17,1.17,0,0,0,214.45,452.17Z"/><path class="cls-3" d="M214.8,452.67c0-.06,0-.1.08-.05h0l-.16-.17A1.19,1.19,0,0,1,214.8,452.67Z"/><path class="cls-3" d="M214.8,452.67v.17A1,1,0,0,0,214.8,452.67Z"/><path class="cls-3" d="M214,453.06c-.07,0,.13-.18,0-.25s-.53-.3-.75-.49-.14-.38-.28-.43c-.3-.16-1.14-.25-.74,0a10.28,10.28,0,0,1,2.62,2.07,2.37,2.37,0,0,1,.17.41,3.81,3.81,0,0,0-.18-.58C214.78,453.47,214.33,453.35,214,453.06Z"/><path class="cls-3" d="M216.2,456.57l-.09-.22a1.29,1.29,0,0,0-.14-1l-.07.18c0,.19.12.2.14,0a4.83,4.83,0,0,0,0,1.2C216.09,456.68,216.17,456.68,216.2,456.57Z"/><path class="cls-3" d="M216.06,456.93l0-.22h0c0,.08,0,.16.05.23Z"/><path class="cls-3" d="M213.09,451.29a7.47,7.47,0,0,0-2.6-1.07c-.08,0-.13.08-.22,0a1.06,1.06,0,0,0-.2-.12l-.4,0h-.14c-.08,0-.06.07,0,.1l.13.1-.13-.1a1.13,1.13,0,0,0-.22-.08,1.5,1.5,0,0,1-.37,0,1.25,1.25,0,0,1,.37,0l.23,0,.06,0c-.3,0-.6,0-.91,0a.53.53,0,0,0-.19,0c-.22.06-.42.13-.58,0l-.16,0h0a5.2,5.2,0,0,0-.68.17c-.13.09-.26.2-.39.28l-.19,0a.52.52,0,0,1-.18.22l.39,0c.18,0,.23-.34.47-.19-.24-.15-.29.24-.47.19l-.39,0a1.5,1.5,0,0,1-.69.25.73.73,0,0,1,.69-.25.52.52,0,0,0,.18-.22l.19,0c.13-.08.26-.19.39-.28a6.53,6.53,0,0,0-1.3.52,7.08,7.08,0,0,0-3.47,7.89,7.9,7.9,0,0,0,2.72,4.41,7.06,7.06,0,0,0,4.84,1.48,9.88,9.88,0,0,0,5-1.74,6,6,0,0,0,1.81-2.15,7.74,7.74,0,0,0,.8-2.68c-.09-1-.49-1.17-.79-1.15a1.24,1.24,0,0,0-.63.27,3.24,3.24,0,0,0-.78,1.29,3.55,3.55,0,0,1-1.07,1.65c.42-.42.44-.17.18.29a2.39,2.39,0,0,1-1.52,1.09,22,22,0,0,0-2.54.64,4.12,4.12,0,0,1-2.73-.15,8.85,8.85,0,0,1-1.27-.68,6.45,6.45,0,0,1-2.11-3.3,4.93,4.93,0,0,1,.63-4,9.75,9.75,0,0,1,1.23-1.79,4.08,4.08,0,0,1,1.3-.6,14.22,14.22,0,0,1,1.65-.53,5.49,5.49,0,0,0-1.63.47c-.41.18.17-.41.48-.53.11-.09.37.12.48.06.28-.06.52-.18.83-.26.14-.06.12.18.19.15.4,0,.76-.32,1-.2a3.82,3.82,0,0,1,.54.24l.33.11.24,0a.5.5,0,0,1,0-.27,4.05,4.05,0,0,1,.35.21,4.05,4.05,0,0,0-.35-.21.5.5,0,0,0,0,.27,5,5,0,0,1,1.8.59v0a4.61,4.61,0,0,1-.88-.74c.13.12.08.17-.1.1l-.08-.17a1.21,1.21,0,0,1,.85.53l.22.07c.06.09,0,.14,0,.21l.19.12A2.67,2.67,0,0,0,213.09,451.29Z"/><path class="cls-3" d="M209.29,450.13h.19a6.37,6.37,0,0,0-.76,0A.73.73,0,0,0,209.29,450.13Z"/></g></svg>