<?xml version="1.0" encoding="utf-8"?>
<!-- Generator: Adobe Illustrator 25.0.0, SVG Export Plug-In . SVG Version: 6.00 Build 0)  -->
<svg version="1.1" id="Layer_1" xmlns="http://www.w3.org/2000/svg" xmlns:xlink="http://www.w3.org/1999/xlink" x="0px" y="0px"
	 viewBox="0 0 841.9 841.9" style="enable-background:new 0 0 841.9 841.9;" xml:space="preserve">
<style type="text/css">
	.st0{fill:#EDC4B3;}
	.st1{opacity:0.85;}
	.st2{fill:#211F1E;}
	.st3{fill:#1F2020;}
</style>
<rect x="0" class="st0" width="841.9" height="841.9"/>
<g class="st1">
	<path class="st2" d="M185.2,479.1c0.6,0.1,1.1,0.2,1.7,0.4c-0.3-0.1-0.5-0.3-0.8-0.4C185.8,479,185.5,479,185.2,479.1z"/>
	<path class="st2" d="M188.3,480.1l0.3,0.1l0.3,0.1L188.3,480.1z"/>
	<path class="st2" d="M191.1,481.5c-0.4-0.3-0.9-0.6-1.4-0.8c0.2,0.1,0.4,0.2,0.6,0.4S190.8,481.4,191.1,481.5z"/>
	<path class="st2" d="M189,480.2c0.1,0.2,0.2,0.3-0.1,0.2l0,0l0.8,0.4C189.5,480.6,189.2,480.4,189,480.2z"/>
	<path class="st2" d="M189,480.2c-0.1-0.1-0.3-0.3-0.4-0.4C188.7,479.9,188.8,480,189,480.2z"/>
	<path class="st2" d="M190.5,479.1c0.3,0.1,0,0.5,0.6,0.7s1.3,0.7,1.9,1c0.6,0.3,1.2,0.7,1.8,1.1c0.6,0.3,1,1.4,1.6,1.7
		c1.2,0.9,4.5,2.9,2.8,1.4c-2.2-1.9-4.6-3.6-7.1-5.2c-2.3-1.3-4.8-2.1-7.4-2.3c-0.7-0.1-1.4-0.1-2.1-0.2c1,0.1,1.9,0.3,2.8,0.5
		c0.7,0.2,1.5,0.3,2.3,0.4C188.7,478.4,189.6,478.6,190.5,479.1z"/>
	<path class="st2" d="M172.1,480.3l0.9-0.4c0.7,0,1.4-0.1,2.1-0.3c0.7-0.2,1.4-0.4,2.1-0.6l-0.7-0.1c-0.8,0.2-0.9,0.4-0.1,0.3
		c-1.7,0.1-3.4,0.4-5,0.9C171.6,480.2,171.7,480.4,172.1,480.3z"/>
	<path class="st2" d="M170.6,480.4l0.9-0.3l0,0L170.6,480.4L170.6,480.4z"/>
	<path class="st2" d="M196.6,485.3c3.2,2.7,6.1,5.4,9.1,7.9c0.3,0.1,0.6,0.2,0.8,0.5c0.2,0.3,0.4,0.5,0.6,0.7l1.3,1.1l0.5,0.3l0,0
		c0.3,0.2,0.3,0,0.1-0.1c-0.1-0.2-0.2-0.3-0.4-0.5c0.1,0.1,0.2,0.3,0.4,0.5c0.2,0.2,0.4,0.5,0.6,0.7c0.4,0.3,0.9,0.6,1.3,1
		c-0.5-0.3-0.9-0.6-1.3-1l-0.8-0.5l-0.2-0.1l3,2.5l0.6,0.5c0.7,0.4,1.3,1,1.8,1.6l0.5,0.5l-0.1-0.1l0.2,0.2c0.7,0.6,1.4,1.3,2.1,2
		c0.5,0.4,1,0.8,1.5,1.2l0.3,0.6c0.3,0.2,0.6,0.4,0.9,0.7c-0.2-0.5-0.4-0.9-0.6-1.4c-0.3-0.7-1.4-0.7-1.6-1.6
		c0.2,0.9,1.3,0.9,1.6,1.6c0.2,0.4,0.5,0.9,0.6,1.4c0.7,0.7,1.2,1.6,1.5,2.6c-0.6-0.8-1.1-1.7-1.5-2.6c-0.3-0.3-0.6-0.5-0.9-0.7
		l-0.3-0.6c-0.5-0.4-1-0.8-1.5-1.2c1.4,1.3,2.6,2.8,3.6,4.4c0.8,1.3,1.4,2.7,1.7,4.1c0.2,1.4,0.1,2.9-0.3,4.2
		c-1,2.8-2.7,5.3-4.9,7.3c-1,1.1-2.2,2.1-3.4,3c-0.6,0.5-1.2,0.9-1.9,1.3l-0.9,0.6l-1,0.5c-2.7,1.6-5.6,2.7-8.7,3.3
		c-3.3,0.7-6.7,0.9-10.1,0.4c-3.2-0.4-6.3-1.4-9.2-2.8c-2.8-1.4-5.3-3.2-7.6-5.2c-2.2-2.1-4.1-4.5-5.7-7.1
		c-3.3-5.3-5.2-11.4-5.3-17.6c-0.2-2.9,0.1-5.9,0.9-8.7c0.6-2.5,2.2-4.7,4.3-6.1c1-0.9,1.7-1.4,2.1-1.8c0.3-0.3,0.5-0.7,0.4-1.1
		c-0.2-0.6-1.3-0.8-1.4-0.8c-2.3-0.1-4.5,0.9-6.1,2.6c-1.8,1.9-3.5,4.7-4.7,9.1c0.4-1.5,0.7-1.9,0.7-1.7c0,0.8-0.1,1.6-0.2,2.5
		c-0.3,2.6-0.3,6.5-0.4,9.4c-0.2,4.2,1.3,9.2,3.8,13.8c2.6,4.7,6,9,10.1,12.5c0.5,0.4,1,0.8,1.5,1.3l1.8,1.1
		c1.3,0.8,2.6,1.5,3.9,2.1c7.3,3.5,15.7,4.2,23.4,1.9c3.9-1.1,7.5-2.9,10.8-5.2l1.2-0.9c0.4-0.3,0.8-0.7,1.2-1
		c0.8-0.7,1.6-1.3,2.3-2.1c0.7-0.8,1.4-1.5,2.1-2.3c0.7-0.8,1.4-1.7,2-2.6c1.3-2,2.1-4.3,2.4-6.6c0.1-2.2-0.3-4.5-1.4-6.5
		c-1.2-2.5-2.7-4.7-4.6-6.7c-2.2-2.1-4.5-4-7.1-5.7c2.4,1.7,4.7,3.6,6.8,5.6c1.7,1.7-1.6-0.8-2.8-1.6c-0.6-0.3-1-1.4-1.5-1.8
		c-1.1-0.9-2.3-1.6-3.5-2.4c-0.6-0.3-0.2-0.6-0.5-0.8c-1.6-1.2-3.2-1.7-4.2-2.6c-0.7-0.7-1.4-1.3-1.9-1.9c-0.4-0.4-0.8-0.7-1.2-1.1
		l-0.9-0.6c0.1,0.2,0.1,0.5,0,0.7c-0.4-0.4-0.9-1-1.3-1.3c0.4,0.4,0.9,1,1.3,1.3c0.1-0.2,0.1-0.5,0-0.7c-2.2-1.5-4.7-3.4-7-5.1v0.1
		c1.3,1,2.6,2.2,3.6,3.5c-0.5-0.6-0.3-0.6,0.3-0.1l0.3,0.6c-1.2-0.8-2.3-1.8-3.3-2.9l-0.8-0.5c-0.3-0.4-0.2-0.5-0.2-0.6l-0.8-0.6
		c0.3,0.5,0.7,0.9,1.1,1.4L196.6,485.3z"/>
	<path class="st2" d="M209.8,496.3l-0.7-0.5l2.5,2.1C211.1,497.3,210.5,496.7,209.8,496.3z"/>
</g>
<path class="st3" d="M194.7,512.8c0,5.8-4.7,10.5-10.5,10.5s-10.5-4.7-10.5-10.5c0-5.8,5.4-13.2,10.5-10.5
	C191.8,506.4,194.7,507,194.7,512.8z"/>
<g class="st1">
	<path class="st2" d="M193.4,507.5c-0.1-0.2-0.3-0.3-0.5-0.5c0.1,0.1,0.1,0.2,0.2,0.3C193.2,507.5,193.3,507.5,193.4,507.5z"/>
	<polygon class="st2" points="192.5,506.6 192.4,506.5 192.3,506.5 	"/>
	<path class="st2" d="M191.5,506c0.2,0.1,0.3,0.2,0.5,0.3C191.8,506.2,191.7,506.1,191.5,506z"/>
	<path class="st2" d="M192.2,506.5C192.2,506.5,192.2,506.4,192.2,506.5L192.2,506.5l-0.2-0.3C192.1,506.4,192.1,506.5,192.2,506.5z
		"/>
	<path class="st2" d="M192.2,506.5l0.1,0.2C192.3,506.7,192.3,506.6,192.2,506.5z"/>
	<path class="st2" d="M191.5,507c-0.1,0,0.1-0.2-0.1-0.3c-0.5-0.2-0.9-0.4-1.3-0.6c-0.2-0.1-0.4-0.5-0.6-0.5
		c-0.5-0.2-1.9-0.5-1.1-0.2c1.1,0.5,1.8,0.9,2.7,1.4c0.8,0.4,1.5,0.8,2.1,1.4c0.1,0.2,0.3,0.4,0.4,0.6c-0.1-0.3-0.3-0.6-0.5-0.8
		C192.7,507.5,192.1,507.4,191.5,507z"/>
	<path class="st2" d="M194.9,512.3l-0.1-0.3c0.1-0.5,0-1.1-0.2-1.6l-0.1,0.3c0.1,0.3,0.2,0.3,0.1,0c0,0.6,0,1.2,0,1.8
		C194.8,512.4,194.9,512.5,194.9,512.3z"/>
	<path class="st2" d="M194.8,512.8v-0.4l0,0C194.8,512.6,194.8,512.7,194.8,512.8z"/>
	<path class="st2" d="M189.2,504.9l-3.9-2.1c-0.1,0-0.2,0-0.3-0.1c-0.1-0.1-0.2-0.2-0.2-0.2l-0.5-0.3l-0.2-0.1l0,0
		c-0.1,0-0.1,0-0.1,0.1l0.2,0.2l-0.2-0.2c-0.1-0.1-0.2-0.1-0.3-0.2c-0.2,0-0.4-0.1-0.6-0.2c0.2,0,0.4,0.1,0.6,0.2l0.3,0.1h0.1
		c-0.4-0.2-0.9-0.4-1.4-0.5h-0.3c-0.3,0-0.6,0-0.9-0.1h-0.3c-0.4,0.1-0.7,0.1-1.1,0.2c-0.2,0.1-0.4,0.3-0.6,0.4h-0.3
		c-0.1,0.1-0.2,0.2-0.3,0.3l0.6-0.1c0.3,0,0.4-0.4,0.7-0.3c-0.3-0.1-0.5,0.4-0.7,0.3l-0.6,0.1c-0.3,0.2-0.6,0.4-1,0.6
		c0.2-0.3,0.6-0.5,1-0.6c0.1-0.1,0.2-0.2,0.3-0.3h0.3c0.2-0.1,0.4-0.3,0.6-0.4c-0.7,0.2-1.3,0.6-1.9,1c-1.8,1.4-3.3,3.4-4.1,5.5
		c-0.4,1.1-0.7,2.2-0.9,3.4c-0.1,1.2-0.1,2.5,0.2,3.7c0.6,2.6,2,5,4.2,6.7c2.1,1.6,4.6,2.4,7.2,2.2c2.7-0.2,5.2-1.1,7.3-2.7
		c1.1-0.9,2-1.9,2.6-3.2c0.6-1.2,1-2.5,1.2-3.9c0-1.4-0.4-1.7-0.7-1.7c-0.3,0.1-0.5,0.2-0.6,0.4c-0.2,0.3-0.4,0.7-0.5,1
		c-0.1,0.3-0.2,0.7-0.4,1.1c-0.3,1-0.8,2-1.6,2.8c0.6-0.7,0.6-0.4,0.1,0.3c-0.6,0.9-1.4,1.6-2.3,1.9c-1.4,0.5-2.8,1-4.2,1.3
		c-1.6,0.4-3.2,0.3-4.7-0.3c-0.8-0.3-1.5-0.7-2.2-1.1c-1.8-1.4-3.1-3.4-3.6-5.7c-0.3-1.1-0.3-2.3-0.1-3.5c0.2-1.2,0.6-2.4,1.2-3.5
		c0.5-1.1,1.2-2.2,1.9-3.2c0.6-0.5,1.2-0.9,1.9-1.2c0.8-0.4,1.6-0.5,2.5-0.4l-0.6-0.1l-0.6,0.1c-0.2,0-0.4,0.1-0.6,0.1
		c-0.2,0.1-0.4,0.1-0.6,0.2c-0.6,0.3,0.3-0.5,0.8-0.6c0.2-0.1,0.5,0.2,0.7,0.1h0.3h0.3c0.2,0,0.4,0,0.7,0c0.2,0,0.1,0.2,0.2,0.3
		c0.1,0,0.3,0.1,0.4,0.1l0.5,0.1c0.3,0,0.5,0.1,0.8,0.3l0.8,0.6c0.2,0.1,0.4,0.2,0.5,0.3l0.4,0.1c0-0.1,0-0.2,0-0.3l0.6,0.4
		l-0.6-0.4c0,0.1,0,0.2,0,0.3c0.9,0.3,2,0.7,2.9,1.1l0,0c-0.6-0.3-1.1-0.6-1.5-1c0.2,0.2,0.2,0.2-0.1,0.1l-0.2-0.2
		c0.5,0.2,1,0.4,1.4,0.8l0.3,0.1c0.1,0.1,0.1,0.2,0.1,0.2l0.3,0.2C189.8,505.4,189.5,505.1,189.2,504.9z"/>
	<path class="st2" d="M183.7,502l0.3,0.1c-0.4-0.2-0.7-0.3-1.1-0.4C183.1,501.8,183.4,501.9,183.7,502z"/>
</g>
<g class="st1">
	<path class="st2" d="M642,494.7c-0.6,0.1-1.3,0.2-1.9,0.4c0.3-0.1,0.7-0.1,1-0.1C641.4,495,641.7,494.9,642,494.7z"/>
	<path class="st2" d="M638.5,495.8l-0.3,0.1c-0.1,0-0.2,0.1-0.2,0.2C638.1,496,638.3,495.9,638.5,495.8z"/>
	<path class="st2" d="M635.7,497.5c0.5-0.3,0.9-0.6,1.4-0.9c-0.2,0.1-0.4,0.2-0.7,0.4S636,497.3,635.7,497.5z"/>
	<path class="st2" d="M638,496.3c-0.2,0-0.3,0-0.1-0.2l0,0l-0.8,0.5C637.4,496.5,637.7,496.3,638,496.3z"/>
	<path class="st2" d="M638,496.3l0.6-0.1C638.4,496.2,638.2,496.2,638,496.3z"/>
	<path class="st2" d="M638.1,498.1c-0.2,0.2-0.4-0.3-0.9,0.1s-1.1,0.9-1.6,1.3s-1,0.9-1.5,1.3s-1.5,0.7-1.9,1.2
		c-1,1.1-3.5,4-1.8,2.5c2-1.9,4.2-3.7,6.4-5.4c1.8-1.5,3.9-2.5,6.1-3c0.6-0.1,1.3-0.1,1.9-0.1c-0.9-0.1-1.7-0.1-2.6,0
		c-0.7,0.1-1.4,0.3-1.9,0.7C639.6,497.2,638.9,497.6,638.1,498.1z"/>
	<path class="st2" d="M655.5,496.5l-1-0.1c-0.6-0.3-1.3-0.6-2.1-0.7c-0.7-0.2-1.5-0.3-2.2-0.3l0.6,0.4c0.8,0.1,1,0,0.2-0.2
		c1.6,0.6,3.2,1.1,4.8,1.4C655.9,496.8,655.9,496.7,655.5,496.5z"/>
	<path class="st2" d="M656.9,497.2l-1-0.2c0,0,0,0,0,0L656.9,497.2L656.9,497.2z"/>
	<path class="st2" d="M630.6,502c-3.2,2.8-6.2,5.4-9.2,7.8c-0.1,0.3-0.3,0.5-0.6,0.7c-0.3,0.1-0.6,0.3-0.8,0.4l-1.3,1l-0.4,0.4l0,0
		c-0.2,0.2-0.1,0.2,0.1,0.2c0.2-0.1,0.4-0.2,0.6-0.2c-0.1,0-0.4,0.2-0.6,0.2c-0.3,0.1-0.5,0.3-0.8,0.5c-0.4,0.4-0.8,0.7-1.2,1
		c0.4-0.4,0.8-0.7,1.2-1l0.7-0.6l0.2-0.2l-3.1,2.4l-0.6,0.5c-0.6,0.6-1.2,1.1-1.9,1.5l-0.5,0.5l0.1-0.1l-0.2,0.1
		c-0.8,0.6-1.5,1.3-2.2,2l-1.2,1.6l-0.6,0.3c-0.1,0.4-0.3,0.7-0.5,1l1.2-0.8c0.6-0.3,0.7-1.4,1.5-1.6c-0.9,0.2-0.9,1.3-1.5,1.6
		l-1.2,0.8c-0.6,0.9-1.3,1.7-2,2.4c0.4-1,1.1-1.9,2-2.4c0.2-0.3,0.4-0.6,0.5-1l0.6-0.3l1.2-1.6c-1.5,1.3-2.8,2.8-3.9,4.4
		c-1,1.4-1.6,2.9-2,4.5c-0.3,1.6-0.3,3.3,0.2,5c1,3.1,2.8,5.8,5.1,8c1.1,1.2,2.2,2.2,3.5,3.2c0.6,0.5,1.3,0.9,1.9,1.4l1,0.7l1,0.6
		c2.8,1.7,5.9,3,9.2,3.7c7,1.8,14.4,1.3,21.1-1.4c3.2-1.3,6.2-3.2,8.8-5.5c2.5-2.3,4.7-4.9,6.6-7.8c3.7-5.9,6.2-12.4,7.5-19.2
		c0.7-3.7,0.4-7.5-0.6-11.1c-0.9-3-2.6-5.8-5-7.9c-0.7-0.5-1.4-1-2.1-1.5c-1.2-0.7-2.5-1-3.9-1c-0.8,0.1-1,0.3-1.1,0.7
		c-0.1,0.6,0.7,1.5,0.8,1.6c1.5,1.3,3,2.7,4.3,4.2c1.9,2.2,2.9,5.1,2.8,8c-0.1-1.3-0.1-1.8,0.1-1.6c0.3,0.7,0.5,1.4,0.6,2.1
		c0.4,2.9,0,5.8-1,8.5c-1.5,3.5-3,7.7-5,11.9s-4.8,8.3-8.5,10.8c-0.5,0.3-0.9,0.7-1.3,1l-1.5,0.9c-1.1,0.7-2.2,1.3-3.3,1.8
		c-6.2,2.4-13.1,2.9-19.6,1.3c-3.3-0.9-6.4-2.3-9.2-4.1l-1.1-0.7c-0.3-0.3-0.7-0.5-1-0.8c-0.7-0.5-1.3-1.1-2-1.7
		c-0.6-0.6-1.2-1.2-1.8-1.9c-0.6-0.7-1.1-1.4-1.5-2.1c-0.9-1.3-1.6-2.7-2-4.2c-0.3-1.4-0.3-2.8,0.2-4.1c0.8-2,2.6-3.8,4-5.2
		c2.2-2.2,4.2-4.1,6.2-5.9c-2.3,2-3.9,3.4-6.1,5.7c-1.5,1.5,0.6-1.5,1.6-2.6c0.4-0.5,1.5-0.7,1.9-1.2c1-0.9,1.9-1.8,3-2.9
		c0.4-0.5,0.7,0,0.9-0.3c1.5-1.3,2.3-2.8,3.4-3.5l2.3-1.6c0.4-0.3,0.9-0.7,1.3-1.1l0.8-0.8c-0.2,0.1-0.5,0.1-0.7,0
		c0.4-0.3,1.1-0.8,1.5-1.1c-0.4,0.3-1.1,0.8-1.5,1.1c0.2,0.1,0.5,0.1,0.7,0c1.8-2,4-4.2,6-6.1h-0.1c-1.2,1.1-2.6,2.1-4,3
		c0.6-0.4,0.7-0.2,0,0.3l-0.7,0.2c1-1.1,2.1-2.1,3.4-2.8l0.6-0.7c0.4-0.2,0.5-0.1,0.7-0.1l0.7-0.6c-0.5,0.2-1.1,0.5-1.5,0.8
		L630.6,502z"/>
	<path class="st2" d="M617.5,513l0.6-0.5l-2.6,2C616.2,514.1,616.9,513.6,617.5,513z"/>
</g>
<path class="st3" d="M632.7,529.8c0.3,5.8,5.2,10.3,11,10c5.4-0.2,9.8-4.6,10-10c0-5.8-5.4-13.2-10.5-10.5
	C635.6,523.3,632.7,524,632.7,529.8z"/>
<g class="st1">
	<path class="st2" d="M634.5,524.9c0.1-0.2,0.3-0.3,0.4-0.5c-0.1,0.1-0.2,0.1-0.3,0.2C634.6,524.7,634.5,524.8,634.5,524.9z"/>
	<polygon class="st2" points="635.4,524.1 635.5,524 635.6,523.9 	"/>
	<path class="st2" d="M636.3,523.4c-0.2,0.1-0.3,0.2-0.5,0.3C636,523.6,636.1,523.5,636.3,523.4z"/>
	<path class="st2" d="M635.5,523.8C635.6,523.8,635.6,523.8,635.5,523.8L635.5,523.8l0.3-0.1C635.7,523.8,635.6,523.8,635.5,523.8z"
		/>
	<path class="st2" d="M635.5,523.8l-0.2,0.1L635.5,523.8z"/>
	<path class="st2" d="M635.2,523c0.1-0.1,0.2,0.1,0.4-0.1c0.4-0.4,0.8-0.7,1.2-1c0.2-0.2,0.6-0.1,0.8-0.3c0.5-0.3,1.5-1.3,0.8-0.9
		c-0.9,0.5-1.8,1.1-2.7,1.7c-0.7,0.6-1.4,1.3-1.9,2.1c-0.2,0.2-0.3,0.4-0.5,0.6c0.2-0.3,0.5-0.5,0.7-0.8
		C634.4,523.9,634.8,523.5,635.2,523z"/>
	<path class="st2" d="M632.9,529.2l-0.1-0.3c0.2-0.5,0.3-1,0.3-1.5l-0.2,0.2c0,0.3,0,0.3,0.1,0.1c-0.2,0.6-0.3,1.2-0.3,1.8
		C632.8,529.4,632.9,529.4,632.9,529.2z"/>
	<path class="st2" d="M632.7,529.8c0-0.1,0-0.2,0-0.4l0,0V529.8z"/>
	<path class="st2" d="M638.3,522c1.3-0.7,2.6-1.4,3.9-2c0.1-0.1,0.1-0.2,0.3-0.2c0.1,0,0.2,0,0.3-0.1l0.5-0.3l0.2-0.1l0,0
		c0.1-0.1,0-0.1,0-0.1l0,0c0.1,0,0.2,0,0.3-0.1c0.2-0.1,0.3-0.2,0.5-0.2c-0.2,0-0.4,0.2-0.5,0.2l-0.3,0.2l-0.1,0.1
		c0.4-0.2,0.8-0.3,1.3-0.4l0.3-0.1c0.3-0.1,0.6-0.1,0.8,0c0.1,0,0.2,0,0.2,0l0,0h0.1c0.3,0.1,0.7,0.2,1,0.3c0.2,0,0.5,0.1,0.7,0.2
		c0.1,0.1,0.1,0.1,0.2,0.2c0.1,0,0.3,0,0.4,0.1c-0.1-0.2-0.2-0.3-0.3-0.5s-0.6,0-0.8-0.3c0.2,0.3,0.6,0.1,0.8,0.3s0.2,0.3,0.3,0.5
		c0.3,0.2,0.6,0.4,0.8,0.7c-0.3-0.2-0.6-0.4-0.8-0.7c-0.1-0.1-0.3-0.1-0.4-0.1c0-0.1-0.1-0.1-0.2-0.2c-0.2-0.1-0.5-0.1-0.7-0.2
		c0.6,0.2,1.2,0.6,1.7,1c1.6,1.5,2.9,3.3,3.6,5.4c0.4,1,0.6,2.1,0.7,3.2c0.1,1.1,0,2.2-0.3,3.3c-0.6,2.3-2.1,4.3-4.1,5.5
		c-1.8,1.2-4,1.7-6.2,1.6c-1.1-0.1-2.1-0.3-3-0.8c-1-0.5-1.8-1.2-2.5-2c-0.7-0.8-1.3-1.6-1.8-2.5c-0.5-0.9-0.8-1.9-1-2.9
		c-0.3-1-0.6-1.3-1-1.3c-0.3,0-0.5,0.2-0.6,0.4c-0.2,0.4-0.3,0.7-0.3,1.2c0,0.4,0,0.8,0.1,1.2c0.3,1.2,0.7,2.4,1.2,3.5
		c-0.5-1-0.1-0.7,0.4,0s1.5,1.9,2.2,2.8c1.2,1.5,2.9,2.4,4.8,2.6c2,0.3,4.1,0.1,6.1-0.5c1-0.3,2-0.8,2.9-1.5
		c2.6-1.7,4.4-4.3,4.9-7.4c0.3-1.5,0.2-3.1-0.1-4.5c-0.3-1.5-0.8-3-1.5-4.3c-0.7-1.3-1.8-2.5-3-3.4c-0.7-0.7-1.6-1.3-2.5-1.8
		c-1.2-0.5-2.5-0.6-3.8-0.2l0.9-0.2c0.3,0,0.6,0,0.9,0c0.3,0,0.6,0,0.9,0.1c0.3,0,0.7,0.1,1,0.3c0.9,0.4-0.7,0-1.3,0
		c-0.2,0-0.7-0.3-0.9-0.2c-0.1,0-0.3,0-0.4,0l-0.4,0.1c-0.3,0.1-0.6,0.2-0.8,0.3c-0.2,0.1-0.3-0.1-0.4,0c-0.2,0.1-0.4,0.2-0.5,0.3
		c-0.1,0.1-0.2,0.2-0.4,0.3c-0.2,0.2-0.4,0.3-0.7,0.5l-0.9,0.4c-0.2,0.1-0.4,0.2-0.5,0.3l-0.3,0.2c0.1,0,0.2,0.1,0.3,0.1l-0.6,0.2
		l0.6-0.2c-0.1-0.1-0.2-0.1-0.3-0.1l-2.6,1.8l0,0c0.5-0.3,1.1-0.6,1.7-0.8c-0.3,0.1-0.3,0,0-0.2h0.3c-0.4,0.3-0.9,0.6-1.4,0.7
		l-0.3,0.2c-0.1,0-0.2,0-0.3,0l-0.3,0.2C637.6,522.1,637.9,522.1,638.3,522z"/>
	<path class="st2" d="M643.8,519.1l-0.3,0.1c0.3-0.2,0.7-0.3,1.1-0.3C644.4,518.9,644.1,518.9,643.8,519.1z"/>
</g>
<g class="st1">
	<path class="st2" d="M91.1,339.3c0,2.3,0.1,4.7,0.1,7c0-1.2,0.1-2.3,0.2-3.5C91.5,341.6,91.4,340.4,91.1,339.3z"/>
	<path class="st2" d="M91.4,352.8c0,0.4,0,0.9,0,1.2l0.1,1.1L91.4,352.8z"/>
	<path class="st2" d="M92.4,364.9c-0.1-2.2-0.2-4.2-0.4-6.2C92,360.8,92.1,362.9,92.4,364.9z"/>
	<path class="st2" d="M92,355.2c-0.1,0.8-0.2,1.1-0.4-0.1v0c0.1,1.2,0.2,2.4,0.3,3.7C91.9,357.4,91.9,356.2,92,355.2z"/>
	<path class="st2" d="M92,355.2c0.1-0.7,0.2-1.9,0.2-2.3C92.2,353.6,92.1,354.4,92,355.2z"/>
	<path class="st2" d="M95.6,358.1c0.2,1.2-0.8,1-0.4,3.4c0.6,5.6,1.4,10.4,1.9,15.7c0.4,2.4-0.2,6.3,0.3,8.6
		c0.8,5.6,4.3,19.8,3,11.3c-1.9-12.7-3-21-4-32.4c-1-9.3-1.9-18.3-2.3-27.9c-0.1-2.7,0-5.2,0-7.7c-0.1,3.3-0.3,6.7-0.3,10.4
		C93.5,344.5,94.9,350.4,95.6,358.1z"/>
	<path class="st2" d="M93.2,287.8c0,1.2,0,3.7,0,3.7c-1.1,5.4-1.1,11.1-1.1,16.8c0.2-0.8,0.4-1.7,0.6-2.5c0.1-3.2-0.2-3.6-0.5-0.8
		c0.9-6.6,1.3-12.8,1.8-19.2C93.7,286.1,93.4,286,93.2,287.8z"/>
	<path class="st2" d="M94.3,282c-0.1,1.3-0.2,2.5-0.3,3.8l0.1-0.1c0.1-1.3,0.1-2.5,0.2-3.8L94.3,282z"/>
	<path class="st2" d="M95.7,390.6c1.9,15.3,4.7,30.5,8.4,45.5c0.5,1,0.9,2.1,1.2,3.3c0.1,1.2,0.3,2.3,0.6,3.5
		c0.6,2.1,1.2,4.2,1.8,6.2c0.2,0.7,0.5,1.4,0.8,2.2v0.1c0.5,1.1,0.5,0.7,0.4,0s-0.3-1.6-0.3-2.3c0,0.4,0.2,1.5,0.3,2.3
		c0.2,1,0.5,2.1,0.8,3.4c0.7,1.9,1.4,3.8,2.1,5.8c-0.8-1.9-1.5-3.9-2.1-5.8l-1.2-3.4c-0.1-0.3-0.3-0.6-0.4-1
		c0.8,2.4,1.5,4.7,2.2,7.1s1.6,4.7,2.4,7c0.4,1,0.8,2.1,1.2,2.9c0.7,1.7,1.5,3.3,2.1,4.8c0.5,1.3,1,2.6,1.3,4l1.1,2.4l-0.1-0.5
		l0.3,0.9c0.7,1.7,1.5,3.4,2.4,5.1s1.6,3.4,2.5,5l2,3.1l2.1,3.1c0,0,0.6,1.6,0.9,2.4c1,1,1.8,2.1,2.6,3.3c-0.8-1.9-1.6-3.6-2.2-5.2
		c-0.6-1.3-1.3-2.4-2.2-3.5c-1-1.2-1.6-2.5-2-4c0.4,1.5,1,2.8,2,4c0.9,1,1.7,2.2,2.2,3.5c0.7,1.6,1.4,3.3,2.2,5.2
		c0.5,0.7,1,1.5,1.6,2.4s1.1,1.7,1.7,2.5s1.1,1.8,1.6,2.6s1.1,1.7,1.5,2.5c-1.4-1.6-2.7-3.3-3.8-5.1c-0.5-0.8-1-1.7-1.4-2.5
		s-0.8-1.6-1.1-2.4c-0.8-1.2-1.7-2.3-2.6-3.3c-0.3-0.8-0.9-2.4-0.9-2.4l-2.1-3.1l-2-3.1c3.4,6.7,7.3,13.1,11.5,19.2
		c6.9,10,15.1,18.9,24.5,26.6c9.3,7.6,19.7,13.7,30.8,18.1c11.3,4.3,23.1,7.1,35.1,8.3c12.4,1.3,25,1,37.4-1c6.8-1.2,13.5-3,20-5.4
		c6.4-2.5,12.5-5.5,18.3-9.2c5.7-3.6,11-7.8,15.9-12.4c2.5-2.2,4.7-4.7,7-7.2l3.2-3.8c1.1-1.3,2-2.6,3-3.9
		c7.7-10.4,14-21.7,18.8-33.7c2.4-5.9,4.5-11.8,6.4-17.8c1.9-6,3.5-12,4.9-18.1s2.6-12.2,3.8-18.3s2.1-12.4,2.9-18.6
		c1.7-12.5,3-25.2,4.1-38.3c0.9-12.9,1-25.8,0.5-38.7c-0.5-14.3-1.7-28.4-2.7-38c-2.1-12.9-4.1-15.8-5.3-15.4s-1.8,4.2-1.9,4.8
		c-0.8,8-0.5,15,0,24.1c0.8,12,0.9,24.1,0.3,36.2c0.2-5.5,0.4-7.2,0.7-6.4c0.4,2.9,0.6,5.9,0.6,8.8c0.1,4.7,0,10.7-0.3,16.8
		c-0.3,5.8-0.9,11.6-1.9,17.4c-2.6,14.7-4.5,32.5-7.8,51c-1.6,9.3-3.7,18.5-6.3,27.6c-2.5,8.9-5.7,17.6-9.7,26c-0.5,1-1,2-1.5,3
		l-1.5,3c-1,2.1-2.2,4.1-3.3,6.2c-0.6,1.1-1.2,2.1-1.8,3.1s-1.3,2.1-1.9,3.2l-2.1,3.2l-1.1,1.6c-0.4,0.5-0.8,1.1-1.2,1.6
		c-7.9,10.8-17.9,20-29.2,27l-2.1,1.2c-0.7,0.4-1.4,0.8-2.1,1.2l-4.4,2.2l-4.5,2c-0.7,0.3-1.5,0.6-2.3,0.9l-2.3,0.8
		c-0.8,0.3-1.5,0.6-2.3,0.8l-2.4,0.7c-1.6,0.4-3.1,1-4.8,1.3l-4.8,1.1l-4.9,0.8c-6.6,1-13.4,1.4-20.1,1.2H234
		c-0.9,0-1.7-0.1-2.6-0.1l-5.1-0.3l-5.1-0.6c-0.9-0.1-1.7-0.2-2.6-0.3l-2.5-0.4c-1.7-0.3-3.4-0.5-5.1-0.9l-5.1-1.3
		c-1.7-0.4-3.3-1-5-1.4c-0.8-0.3-1.7-0.5-2.5-0.8l-2.5-0.9c-6.7-2.3-13.1-5.3-19.2-9c-6.2-3.7-12.1-7.8-17.7-12.3
		c-5.2-4.2-10-8.8-14.4-13.9l-1.2-1.4l-1.1-1.4l-2.2-2.9c-1.4-2-2.7-4-4-6s-2.4-4-3.5-5.9s-2.1-3.7-3.1-5.4
		c-5.3-9.7-10-19.6-14.2-29.8c1,2.7,2,5.1,3,7.5s2,4.6,3.1,7s2.2,4.6,3.4,7l1.9,3.8l2.2,4c1,1.9,1.3,2.5,1.1,2.3
		c-0.7-0.7-1.3-1.6-1.9-2.4c-2.1-3-4-6.2-5.8-9.4c-1.2-2.1-1.8-6-2.9-8.1c-0.5-1.2-1-2.4-1.6-3.5l-1.5-3.5c-1.1-2.3-2.1-4.7-3.2-7.3
		c-1-2.2,0-2.3-0.4-3.4c-2.6-7.2-5.3-12.6-6.3-17.4l-1.1-5.2c-0.3-1.7-0.6-3.3-0.9-5c-0.4-2-0.8-4.1-1.3-6.2c-0.4-1.3-0.7-2.7-1-4.1
		c0,0.7-0.2,1.5-0.6,2.1c-0.3-2-0.7-4.9-1-6.9c0.3,2,0.6,4.9,1,6.9c0.4-0.6,0.6-1.3,0.6-2.1c-2.5-9.9-4.7-21.4-6.2-32.2l-0.1,0.2
		c0.8,6.3,1.5,12.5,1.9,19.2c-0.2-2.9,0.1-2.6,0.7,0.7c0,0.9-0.1,1.7-0.1,2.5c-1.2-5.6-2.3-11.2-2.2-16.6l-0.8-3.6
		c-0.1-1.8,0.2-1.8,0.5-2.2l-0.5-3.7c-0.1,1.3-0.1,4.1,0,6.6S95.7,390.6,95.7,390.6z"/>
	<path class="st2" d="M109.6,454.8l-1-2.9c1.2,4,2.5,7.9,3.9,11.8c-0.3-1.4-0.6-2.7-1.1-4C110.9,458.2,110.2,456.5,109.6,454.8z"/>
</g>
<g class="st1">
	<path class="st2" d="M748.1,341.3c-0.1,2.3-0.1,4.6-0.2,7c0.1-1.2,0.2-2.3,0.4-3.5C748.4,343.6,748.3,342.5,748.1,341.3z"/>
	<path class="st2" d="M747.6,354.7c0,0.4,0,0.8-0.1,1.2s0,0.7,0,1.1L747.6,354.7z"/>
	<path class="st2" d="M747.1,366.8c0.2-2.1,0.3-4.2,0.3-6.2C747.3,362.4,747.2,364.4,747.1,366.8z"/>
	<path class="st2" d="M747.9,357.2c-0.2,0.7-0.3,1.1-0.4-0.1v0c0,1.2,0,2.4-0.1,3.7C747.6,359.4,747.8,358.2,747.9,357.2z"/>
	<path class="st2" d="M747.9,357.2c0.2-0.7,0.3-1.9,0.5-2.2C748.2,355.6,748.1,356.4,747.9,357.2z"/>
	<path class="st2" d="M751.2,360.4c0,1.2-0.9,0.9-0.8,3.3c-0.1,5.7,0,10.6-0.5,16c0,2.5-1.5,6.2-1.5,8.6c-0.3,5.7-1.2,20.4,0,11.9
		c1.6-12.9,2.2-21.4,2.8-33c0.3-9.5,0.2-18.6,0-28.2c0-2.7,0.1-5.2,0.2-7.8c-0.2,3.3-0.3,6.7-0.5,10.5
		C750.3,346.6,751.4,352.6,751.2,360.4z"/>
	<path class="st2" d="M747.2,290l0.6,3.6c-0.1,5.6,0.1,11.2,0.8,16.8c0.1-0.8,0.2-1.7,0.4-2.5c-0.2-3.2-0.5-3.6-0.6-0.7
		c0.3-6.4,0-12.9-0.7-19.3C747.5,288.2,747.2,288.2,747.2,290z"/>
	<path class="st2" d="M747.3,284.1c0.2,1.2,0.3,2.5,0.4,3.7c0,0,0.1-0.1,0.1-0.1c-0.2-1.3-0.3-2.5-0.5-3.7L747.3,284.1z"/>
	<path class="st2" d="M745.5,392.5c-1.8,15.3-4.7,30.5-8.5,45.4c0,1.2-0.2,2.3-0.6,3.4c-0.5,1.1-0.9,2.2-1.2,3.3
		c-0.6,2.1-1.3,4.1-1.9,6.2c-0.2,0.7-0.4,1.5-0.6,2.2v0.1c-0.3,1.2,0,0.9,0.3,0.2s0.7-1.5,1-2.1c-0.2,0.4-0.6,1.4-1,2.1
		c-0.4,0.9-0.9,2-1.3,3.2c-0.5,1.9-1.2,3.9-2,5.9c0.7-2.3,1.4-4.2,2-5.9c0.3-1.2,0.7-2.4,1-3.5c0.1-0.3,0.2-0.7,0.2-1
		c-0.8,2.4-1.5,4.7-2.4,7s-1.6,4.6-2.6,6.9c-0.4,1.1-0.8,2.1-1,2.9c-0.6,1.7-1.2,3.4-1.8,4.8c-0.5,1.3-1.1,2.5-1.9,3.7
		c-0.4,0.8-0.8,1.6-1.1,2.4l0.3-0.4c-0.2,0.3-0.4,0.6-0.5,0.9c-0.8,1.7-1.6,3.4-2.5,5s-1.7,3.3-2.6,5c-0.5,1.1-1,2.2-1.5,3.4
		s-1.1,2.2-1.7,3.4l-1.7,1.9c-0.5,1.3-1.1,2.6-1.8,3.8c1.3-1.5,2.6-2.9,3.6-4.3c0.8-1.1,1.5-2.4,1.9-3.7c0.5-1.4,1.3-2.8,2.3-3.9
		c-1,1.1-1.8,2.4-2.2,3.9c-0.5,1.3-1.1,2.5-1.9,3.7c-1,1.4-2.3,2.8-3.6,4.3c-0.4,0.8-0.9,1.6-1.5,2.4s-1.2,1.6-1.8,2.5
		s-1.2,1.6-1.9,2.4s-1.3,1.5-2,2.1c1.2-1.9,2.4-3.6,3.6-5.2c0.6-0.8,1.2-1.5,1.8-2.2s1.1-1.4,1.7-2c0.7-1.2,1.3-2.5,1.8-3.8l1.7-1.9
		c0.6-1.1,1.1-2.2,1.7-3.4s1-2.3,1.5-3.4c-3.5,6.5-7.5,12.7-11.8,18.7c-7,9.6-15.2,18.2-24.5,25.6c-9.1,7.2-19.3,13.1-30.1,17.3
		c-11,4.1-22.5,6.7-34.2,7.8c-12.1,1.2-24.3,0.7-36.2-1.5c-6.5-1.3-12.8-3.1-19-5.6c-6-2.5-11.7-5.6-17.1-9.2
		c-5.3-3.6-10.2-7.7-14.6-12.3c-2.2-2.2-4.3-4.6-6.3-7l-2.9-3.7c-1-1.2-1.8-2.6-2.7-3.8c-6.9-10.2-12.7-21.1-17.1-32.6
		c-2.2-5.6-4.2-11.4-6-17.2s-3.2-11.7-4.6-17.6c-5.3-24.2-7.8-49-7.4-73.8c0-9.9,0-23.9,0.5-37.9s1.3-27.9,2.2-37.3
		c0.5-12.7-0.4-15.9-1.7-15.8s-2.8,3.5-3,4.1c-2.7,7.6-3.8,14.7-4.7,23.8s-1.6,20.2-2.9,36.4c0.4-5.5,0.7-7.2,0.9-6.4
		c0.3,3,0.4,5.9,0.3,8.9c0,4.7,0,10.8-0.1,16.9s-0.2,12.5-0.5,17.7c-1,15.2,0.5,33.6,4.3,52.7c3.8,19.2,9.5,38,17.1,56.1
		c0.5,1.1,0.9,2.2,1.4,3.3l1.6,3.3c1,2.2,2.3,4.4,3.5,6.7c0.6,1.1,1.3,2.3,2,3.4l2.1,3.4l2.3,3.5l1.2,1.8l1.3,1.7
		c8.4,12.4,19.3,22.9,32,30.8l2.4,1.4c0.8,0.5,1.6,1,2.4,1.4l5,2.5l5.1,2.2c0.8,0.4,1.7,0.7,2.6,1l2.6,0.9c0.9,0.3,1.7,0.6,2.6,0.9
		l2.7,0.8c1.8,0.5,3.5,1,5.4,1.4l5.4,1.1l5.5,0.8c7.3,0.9,14.7,1.3,22,1l2.8-0.1c0.9,0,1.8-0.1,2.8-0.2l5.5-0.4l5.5-0.7
		c0.9-0.1,1.8-0.2,2.8-0.4l2.8-0.5c1.8-0.4,3.7-0.6,5.5-1.1l5.5-1.3c1.8-0.5,3.6-1.1,5.5-1.6c0.9-0.3,1.8-0.5,2.7-0.8l2.7-1
		c7.3-2.6,14.4-5.9,21.1-9.8c6.8-4.1,13.1-8.9,18.8-14.4c5.2-5,9.9-10.4,14.2-16.1l1.2-1.5l1-1.5l2.3-3c1.5-2,3-4.1,4.4-6.2
		s2.8-4.1,4-6s2.4-3.9,3.3-5.7c5.5-10.1,9.9-20.7,13.3-31.6c-0.9,2.8-1.9,5.3-2.8,7.9s-1.9,4.9-2.9,7.3s-2,4.9-3.3,7.5l-1.9,4
		l-2.2,4.2c-1,2-1.5,2.5-1.4,2.2c0.3-1,0.7-2,1.1-3c1.3-3.1,3.3-7.9,4.4-10.5c0.8-2.3,3.4-5.4,4.2-7.8c0.5-1.2,1-2.5,1.5-3.7
		c0.4-1.2,0.8-2.5,1.2-3.7c0.8-2.5,1.5-5.1,2.4-7.8c0.6-2.4,1.4-1.8,1.7-3c2.3-7.5,2.6-13.7,4.2-18.4l1.5-5.2l1.3-4.9
		c0.5-2,1-4.1,1.4-6.3c0.2-1.4,0.4-2.8,0.6-4.2c-0.3,0.7-0.7,1.3-1.3,1.7c0.4-2,1.2-4.8,1.6-6.8c-0.4,2-1.2,4.8-1.6,6.8
		c0.6-0.4,1.1-1,1.3-1.7c1.4-10.2,2.6-22,3.4-32.9l-0.1,0.1c-0.5,6.4-1.6,12.8-3.1,19.1c0.6-2.8,0.8-2.4,0.4,0.8l-0.9,2.4
		c0.5-5.6,1.3-11.1,2.5-16.6c0,0,0.1-2.5,0.1-3.7c0.3-1.8,0.6-1.7,0.9-2c0.1-1.2,0.2-2.5,0.3-3.8c-0.4,1.3-0.9,4-1.4,6.4
		L745.5,392.5z"/>
	<path class="st2" d="M731.6,456.7c0.2-0.8,0.6-1.9,0.9-3c-1.3,3.9-2.7,7.8-4.2,11.7c0.7-1.2,1.3-2.5,1.7-3.8
		C730.6,460.1,731.1,458.4,731.6,456.7z"/>
</g>
</svg>
