<?xml version="1.0" encoding="utf-8"?>
<!-- Generator: Adobe Illustrator 25.0.0, SVG Export Plug-In . SVG Version: 6.00 Build 0)  -->
<svg version="1.1" id="Layer_1" xmlns="http://www.w3.org/2000/svg" xmlns:xlink="http://www.w3.org/1999/xlink" x="0px" y="0px"
	 viewBox="0 0 841.9 841.9" style="enable-background:new 0 0 841.9 841.9;" xml:space="preserve">
<style type="text/css">
	.st0{fill:#9D6B53;}
	.st1{opacity:0.85;}
	.st2{fill:#020202;}
	.st3{fill:#040505;}
	.st4{fill:#090A0A;}
	.st5{fill:#060707;}
</style>
<rect class="st0" width="841.9" height="841.9"/>
<g class="st1">
	<path class="st2" d="M240.4,397.4l-0.9-0.2c0.2,0.1,0.3,0.1,0.4,0.2C240.1,397.5,240.2,397.4,240.4,397.4z"/>
	<path class="st2" d="M238.6,397h-0.2h-0.1H238.6z"/>
	<path class="st2" d="M237,397.1c0.3,0,0.5,0,0.8,0C237.6,397,237.3,397,237,397.1z"/>
	<path class="st2" d="M238.2,397.2c-0.1-0.1-0.1-0.2,0-0.2l0,0h-0.5C237.9,397.1,238.1,397.2,238.2,397.2z"/>
	<path class="st2" d="M238.2,397.2c0.1,0.1,0.2,0.1,0.3,0.2C238.4,397.4,238.4,397.3,238.2,397.2z"/>
	<path class="st2" d="M237.8,398.9c-0.1,0-0.1-0.4-0.4-0.4c-0.7,0.2-1.2,0.3-1.9,0.4c-0.3,0.1-0.8-0.4-1.1-0.2
		c-0.4,0.2-0.8,0.4-1.2,0.7c-0.3,0.3-0.4,0.5,0,0.3c0.7-0.2,1.3-0.4,1.9-0.5l0.9-0.2l0.9-0.1c0.6-0.1,1.1-0.1,1.6-0.2
		c0.6,0,1.1,0,1.7,0c0.3,0.1,0.6,0.2,0.9,0.3c-0.4-0.2-0.7-0.4-1.1-0.6C239.5,398.4,238.6,398.8,237.8,398.9z"/>
	<path class="st2" d="M246.1,400.9l-0.4-0.2c-0.1-0.4-0.4-0.7-0.7-0.9c-0.3-0.2-0.6-0.4-1-0.5l0.2,0.4c0.4,0.2,0.5,0.1,0.2-0.2
		c0.2,0.4,0.5,0.7,0.8,1c0.3,0.3,0.6,0.6,0.9,0.9C246.1,401.2,246.3,401.1,246.1,400.9z"/>
	<path class="st2" d="M246.5,401.6l-0.4-0.3l0,0L246.5,401.6L246.5,401.6z"/>
	<path class="st2" d="M233.7,397.8c-1.9,0.4-3.8,1.1-5.6,2c-0.1,0.1-0.1,0.3-0.3,0.3c-0.2,0-0.3,0-0.5,0.1l-0.7,0.4l-0.2,0.2l0,0
		c-0.1,0.1,0,0.2,0.1,0.2c0.1,0,0.2,0,0.3,0c-0.1,0-0.2,0-0.3,0c-0.2,0-0.3,0.1-0.4,0.1c-0.2,0.2-0.4,0.4-0.6,0.5
		c0.2-0.2,0.4-0.4,0.6-0.5l0.4-0.3l0.1-0.1c-0.6,0.3-1,0.7-1.6,1.1c-0.1,0.1-0.2,0.2-0.3,0.3c-0.3,0.4-0.6,0.7-1,0.8l-0.2,0.2h0.1
		l-0.1,0.1c-0.4,0.3-0.7,0.7-1,1.1l-0.4,0.9l-0.4,0.1c0,0.2,0,0.4-0.1,0.6c0.3-0.1,0.5-0.2,0.7-0.4s0-0.9,0.6-0.9
		c-0.6,0-0.3,0.8-0.6,0.9s-0.5,0.2-0.7,0.4c-0.2,0.5-0.5,0.9-0.9,1.3c0.1-0.5,0.4-1,0.9-1.3c0.1-0.2,0.1-0.4,0.1-0.6l0.4-0.1
		l0.4-0.9c-0.3,0.4-0.6,0.7-0.9,1.1c-0.3,0.4-0.6,0.8-0.8,1.3c-0.8,1.4-1.2,3.1-1.2,4.7c0,1.6,0.4,3.2,1.1,4.7
		c0.7,1.4,1.6,2.8,2.6,4c1.1,1.3,2.4,2.4,3.8,3.3c3.2,1.9,6.9,2.6,10.6,2.1c1.7-0.2,3.4-0.6,5.1-1.2c0.8-0.3,1.6-0.6,2.3-1
		c0.4-0.2,0.8-0.4,1.2-0.6c0.4-0.2,0.8-0.4,1.1-0.7c1.6-1.1,2.9-2.4,4-4c1.1-1.7,1.9-3.6,2.2-5.6c0.3-2,0-4-0.7-5.9
		c-0.6-1.8-1.5-3.5-2.7-5c-1.4-1.3-2.3-1.1-2.7-0.7c-0.3,0.4-0.5,0.8-0.6,1.3c0,1.1,0.2,2.1,0.7,3.1c0.7,1.3,1,2.7,1,4.1
		c0-1.3,0.4-0.9,0.7,0.1c0.4,1.3,0.2,2.7-0.6,3.8c-1.2,1.4-1.9,2.6-3.2,4c-0.3,0.3-0.7,0.6-1.1,1s-0.8,0.6-1.3,0.8
		c-0.9,0.5-1.9,1-3,1.2c-1.1,0.3-2.2,0.6-3.3,0.8c-2.8,0.4-5.7-0.1-8.3-1.5c-1.3-0.7-2.4-1.7-3.2-2.9c-1-1.2-1.7-2.5-2-4
		c-0.5-1.3-0.6-2.7-0.5-4.1c0.3-0.9,0.9-1.8,1.6-2.5c0.8-1.1,1.6-2.1,2.4-3c-0.9,0.8-1.7,1.8-2.4,2.8c-0.3,0.4-0.3,0.2-0.2-0.2
		c0.1-0.2,0.1-0.5,0.2-0.7c0.1-0.2,0.2-0.4,0.3-0.6c0.1-0.3,0.8-0.2,0.9-0.5c0.2-0.2,0.4-0.5,0.6-0.7c0.2-0.2,0.4-0.5,0.6-0.8
		s0.4,0.1,0.5,0c0.7-0.6,0.9-1.5,1.6-1.7c0.4-0.2,0.8-0.3,1.2-0.4c0.2-0.1,0.5-0.2,0.7-0.3l0.3-0.2c-0.2-0.1-0.3-0.2-0.4-0.4
		c0.2-0.1,0.6-0.1,0.9-0.1c-0.2,0.1-0.6,0.1-0.9,0.1c0.1,0.2,0.2,0.3,0.4,0.4c1.1-0.8,2.4-1.3,3.7-1.7l0,0c-0.8,0.2-1.6,0.3-2.4,0.2
		c0.4,0,0.4,0.1,0,0.3l-0.4-0.1c0.3-0.2,0.7-0.3,1-0.4c0.4-0.1,0.7-0.1,1.1,0l0.4-0.2c0.2,0,0.2,0.2,0.3,0.3l0.5-0.1
		c-0.3-0.1-0.6-0.2-0.9-0.3L233.7,397.8z"/>
	<path class="st2" d="M226,401.2c0.1-0.1,0.2-0.2,0.3-0.3c-0.4,0.3-0.9,0.6-1.3,0.9C225.4,401.8,225.7,401.5,226,401.2z"/>
</g>
<ellipse class="st3" cx="235.1" cy="409.3" rx="7.5" ry="6"/>
<g class="st1">
	<path class="st4" d="M229,406.3c0.1-0.1,0.2-0.2,0.3-0.3c-0.1,0-0.1,0.1-0.2,0.1C229,406.1,229,406.2,229,406.3z"/>
	<polygon class="st4" points="229.6,405.7 229.6,405.6 229.6,405.6 	"/>
	<path class="st4" d="M230.1,405.2c-0.1,0.1-0.2,0.1-0.3,0.2C229.9,405.4,230,405.3,230.1,405.2z"/>
	<path class="st4" d="M229.6,405.5C229.6,405.5,229.7,405.5,229.6,405.5L229.6,405.5l0.2-0.1C229.7,405.5,229.7,405.5,229.6,405.5z"
		/>
	<path class="st4" d="M229.6,405.5c-0.1,0-0.1,0-0.2,0H229.6z"/>
	<path class="st4" d="M229.2,404.8c0.1-0.1,0.2,0.1,0.3,0c0.2-0.3,0.5-0.5,0.8-0.8c0.1-0.1,0.4,0,0.6-0.1c0.3-0.2,1.1-0.9,0.5-0.7
		c-0.7,0.3-1.3,0.7-1.8,1.2c-0.4,0.5-0.8,1-1.1,1.5c-0.1,0.1-0.2,0.3-0.3,0.4c0.1-0.2,0.3-0.3,0.5-0.5S228.8,405.1,229.2,404.8z"/>
	<path class="st4" d="M227.8,408.9l-0.1-0.2c0.2-0.3,0.3-0.6,0.3-1l-0.2,0.1c-0.1,0.2,0,0.2,0.1,0.1c-0.2,0.3-0.3,0.7-0.3,1.1
		C227.7,409,227.8,409,227.8,408.9z"/>
	<path class="st4" d="M227.6,409.3c0-0.1,0-0.2,0-0.2l0,0C227.6,409.1,227.6,409.2,227.6,409.3z"/>
	<path class="st4" d="M231.2,404.2c0.8-0.4,1.7-0.7,2.7-0.8c0.1-0.1,0.1-0.1,0.2-0.1l0.2,0.1h0.4h0.1l0,0c0.1,0,0.1-0.1,0-0.1
		l-0.1-0.1l0.1,0.1c0.1,0,0.1,0.1,0.2,0.1c0.1,0,0.3,0,0.4,0c-0.1,0-0.3,0-0.4,0h-0.2h-0.1c0.3,0,0.6,0,0.9,0h0.2
		c0.2,0,0.4,0,0.6,0.1h0.1l0,0h0.1l0.6,0.2h0.5l0.1,0.1c0.1,0,0.2,0,0.3,0c-0.1-0.1-0.2-0.2-0.3-0.3c-0.1-0.1-0.4,0.1-0.5-0.1
		c0.1,0.3,0.4,0,0.5,0.1c0.1,0.1,0.2,0.2,0.3,0.3c0.2,0,0.5,0.2,0.6,0.4c-0.2,0-0.5-0.2-0.6-0.4c-0.1,0-0.2,0-0.3,0l-0.1-0.1h-0.5
		c0.4,0.1,0.8,0.3,1.2,0.5c1.2,0.6,2.3,1.5,3,2.7c0.7,1.2,0.8,2.6,0.3,3.9c-0.6,1.3-1.7,2.4-3.1,2.9c-1.3,0.5-2.6,0.7-4,0.6
		c-1.3,0-2.6-0.6-3.6-1.5c-0.4-0.4-0.8-0.9-1.2-1.3c-0.3-0.4-0.6-0.9-0.7-1.5c-0.3-0.5-0.6-0.7-0.9-0.7c-0.2,0-0.4,0.1-0.6,0.3
		c-0.4,0.5-0.5,1.1-0.3,1.6c0.3,0.8,0.6,1.6,1,2.3c-0.4-0.7-0.1-0.5,0.4-0.1c0.6,0.5,1.1,1.1,1.6,1.7c0.8,0.9,2,1.5,3.3,1.6
		c1.3,0.1,2.7,0,4-0.3c0.7-0.1,1.4-0.4,2-0.7c2-0.8,3.5-2.5,4.1-4.5c0.6-2.2,0-4.6-1.6-6.2c-0.7-0.8-1.6-1.3-2.7-1.6
		c-0.6-0.3-1.2-0.6-1.8-0.8c-0.7-0.2-1.5-0.2-2.3-0.1c0.7,0,1.5,0,2.2,0.2c0.6,0.1-0.5,0.2-0.9,0.2c-0.2,0-0.4-0.3-0.6-0.2
		c-0.4,0-0.7,0-1.1,0.1c-0.1,0-0.1-0.2-0.2-0.2c-0.5,0.1-0.9,0.4-1.2,0.4h-0.7c-0.1,0-0.3,0-0.4,0.1c-0.1,0-0.2,0.1-0.2,0.1
		c0.1,0.1,0.1,0.1,0.2,0.2c-0.1,0-0.3,0-0.4,0c0.1,0,0.3,0,0.4,0c0-0.1-0.1-0.2-0.2-0.2c-0.6,0.3-1.2,0.7-1.8,1.1l0,0
		c0.3-0.2,0.7-0.4,1.1-0.4c-0.2,0-0.2,0,0-0.1l0.2,0.1c-0.3,0.2-0.6,0.3-1,0.4l-0.2,0.2c-0.1,0-0.1,0-0.2-0.1l-0.2,0.1
		C230.7,404.2,231,404.2,231.2,404.2z"/>
	<path class="st4" d="M235.1,403.3h-0.2c0.2,0,0.5,0,0.7,0C235.5,403.3,235.3,403.3,235.1,403.3z"/>
</g>
<g class="st1">
	<path class="st2" d="M607.8,400.8l0.8-0.1c-0.2,0-0.3,0-0.5-0.1C607.9,400.6,607.9,400.7,607.8,400.8z"/>
	<path class="st2" d="M609.4,400.6h0.2l0.1,0L609.4,400.6z"/>
	<path class="st2" d="M610.8,400.4c-0.3-0.1-0.5-0.1-0.8,0C610.3,400.4,610.6,400.4,610.8,400.4z"/>
	<path class="st2" d="M609.6,400.3c0.1,0.1,0.2,0.1,0,0.2l0,0l0.4-0.1C609.9,400.4,609.8,400.4,609.6,400.3z"/>
	<path class="st2" d="M609.6,400.3c-0.1-0.1-0.2-0.1-0.3-0.1L609.6,400.3z"/>
	<path class="st2" d="M609.9,398.6c0.2-0.1,0.2,0.4,0.5,0.3c0.7-0.2,1.4-0.3,2.2-0.3c0.3-0.1,0.8,0.5,1.1,0.5c0.5,0,1.1-0.1,1.6-0.1
		c0.5,0,0.7-0.1,0.1-0.3c-0.8-0.1-1.6-0.2-2.3-0.3H612h-1.1c-0.6,0.1-1.3,0.2-1.9,0.4c-0.6,0.2-1.2,0.4-1.8,0.6
		c-0.3,0.1-0.7,0.2-1,0.2l1.4-0.2C608.2,399.5,608.8,398.8,609.9,398.6z"/>
	<path class="st2" d="M602.2,403.5l0.2-0.4c0.3-0.1,0.7-0.3,0.9-0.5c0.3-0.2,0.5-0.5,0.8-0.7h-0.4c-0.3,0.3-0.3,0.4,0.1,0.3
		c-0.4,0.1-0.8,0.3-1.1,0.5c-0.3,0.2-0.6,0.5-0.9,0.8C601.9,403.5,602,403.7,602.2,403.5z"/>
	<path class="st2" d="M601.5,403.9l0.3-0.4l0,0L601.5,403.9L601.5,403.9z"/>
	<path class="st2" d="M614.1,400.3c1.9,0.4,3.8,1,5.5,2c0.2,0,0.3-0.1,0.5,0.1c0.1,0.1,0.2,0.3,0.3,0.4l0.7,0.5l0.3,0.1l0,0
		c0.2,0,0.2,0,0.1-0.2c-0.1-0.1-0.1-0.2-0.2-0.3c0,0.1,0.1,0.2,0.2,0.3c0.1,0.1,0.2,0.3,0.3,0.4c0.2,0.1,0.4,0.3,0.6,0.5
		c-0.2-0.1-0.5-0.3-0.6-0.5c-0.1-0.1-0.3-0.1-0.4-0.2h-0.1c0.5,0.4,1,0.8,1.4,1.2c0.1,0.1,0.2,0.2,0.3,0.2c0.4,0.3,0.8,0.5,0.8,0.9
		l0.2,0.2v-0.1c0,0,0,0.1,0,0.1c0.3,0.3,0.6,0.7,0.9,1.1c0.3,0.2,0.5,0.4,0.8,0.6v0.4c0.2,0.1,0.4,0.2,0.5,0.3c0-0.3,0-0.6,0-0.8
		c0-0.4-0.8-0.3-0.7-0.9c-0.1,0.6,0.7,0.4,0.7,0.9c0,0.2,0,0.5,0,0.8c0.3,0.4,0.5,0.9,0.5,1.4c-0.3-0.4-0.5-0.9-0.5-1.4
		c-0.1-0.1-0.3-0.3-0.5-0.3v-0.4c-0.2-0.2-0.5-0.4-0.8-0.6c0.3,0.4,0.5,0.7,0.7,1.1c0.2,0.4,0.4,0.8,0.6,1.2
		c0.6,1.3,0.8,2.7,0.8,4.1c-0.1,1.4-0.5,2.8-1.1,4c-0.7,1.3-1.5,2.5-2.5,3.5c-1,1.1-2.1,2-3.4,2.7c-2.8,1.4-6,1.6-9,0.7
		c-1.4-0.4-2.8-0.9-4.2-1.5c-0.7-0.3-1.3-0.6-2-0.9c-0.3-0.2-0.6-0.3-0.9-0.5c-0.3-0.2-0.6-0.3-0.8-0.5c-2.2-1.4-3.3-4-2.9-6.5
		c0.2-1.2,0.5-2.5,0.8-3.7c0.4-1.3,1-2.5,1.7-3.6c0.5-1.3,0.2-2.1-0.3-2.5c-0.4-0.3-0.8-0.4-1.3-0.4c-1.2,0.2-2.2,0.9-2.8,1.9
		l-0.5,0.8l-0.6,1c-0.2,0.4-0.4,0.8-0.6,1.2s-0.5,0.9-0.7,1.4c0.7-1.5,0.8-0.8,0.5,0.5s-0.5,3.3-0.8,4.9c-0.3,1.3-0.1,2.7,0.5,3.9
		c0.1,0.3,0.3,0.7,0.5,1s0.4,0.6,0.6,0.9c0.5,0.6,1,1.2,1.5,1.7c0.6,0.5,1.2,0.9,1.8,1.3c0.6,0.4,1.3,0.7,1.9,1l3.6,1.6
		c1.3,0.6,2.7,0.9,4.1,1.2c2.1,0.5,4.2,0.7,6.3,0.4c2.2-0.3,4.3-1.1,6.1-2.3c3.6-2.6,6.3-6.3,7.5-10.5c0.3-1.2,0.3-2.5,0.1-3.7
		c-0.2-1.1-0.6-2.1-1.1-3.1c-0.5-1.3-1.1-2.6-1.9-3.8c-1-1.3-2.2-2.4-3.6-3.1c1.3,0.9,2.5,1.9,3.5,3.1c0.8,1-1-0.4-1.6-0.8
		c-0.3-0.2-0.3-0.9-0.6-1.1c-0.3-0.2-0.6-0.5-0.9-0.6l-1-0.5c-0.3-0.1,0-0.5-0.2-0.5c-1-0.5-2-0.5-2.5-0.9c-0.4-0.3-0.8-0.6-1.2-0.8
		c-0.2-0.2-0.5-0.3-0.8-0.4l-0.6-0.1c0.1,0.2,0.1,0.4,0.1,0.6c-0.2-0.1-0.6-0.4-0.8-0.5c0.2,0.1,0.6,0.4,0.8,0.5
		c0-0.2,0-0.4-0.1-0.6c-1.5-0.3-2.9-0.4-4.4-0.4l0,0c0.9,0,1.7,0.3,2.4,0.8c-0.3-0.2-0.3-0.3,0.2-0.2l0.2,0.3
		c-0.4,0-0.7-0.1-1.1-0.1c-0.4-0.1-0.7-0.2-1-0.4l-0.5,0.1c-0.2-0.1-0.2-0.2-0.2-0.4h-0.5c0.3,0.2,0.5,0.3,0.8,0.5L614.1,400.3z"/>
	<path class="st2" d="M621.6,403.6c-0.1-0.1-0.2-0.1-0.3-0.2c0.4,0.3,0.8,0.7,1.2,1C622.4,404,622,403.8,621.6,403.6z"/>
</g>
<ellipse class="st3" cx="612.7" cy="411.4" rx="7.5" ry="6"/>
<g class="st1">
	<path class="st4" d="M619.3,408c-0.1-0.1-0.2-0.2-0.3-0.4c0,0.1,0.1,0.1,0.1,0.2C619.2,408,619.2,408,619.3,408z"/>
	<polygon class="st4" points="618.8,407.3 618.7,407.3 618.6,407.2 	"/>
	<path class="st4" d="M618.1,406.9c0.1,0.1,0.2,0.2,0.3,0.2C618.3,407,618.2,406.9,618.1,406.9z"/>
	<path class="st4" d="M618.5,407.3C618.5,407.2,618.5,407.2,618.5,407.3L618.5,407.3l-0.1-0.2C618.5,407.2,618.5,407.2,618.5,407.3z
		"/>
	<path class="st4" d="M618.5,407.3c0,0.1,0,0.1,0,0.2C618.6,407.4,618.6,407.4,618.5,407.3z"/>
	<path class="st4" d="M617.8,407.8c-0.1,0,0.1-0.2,0-0.2c-0.3-0.1-0.6-0.2-0.8-0.4s-0.2-0.4-0.3-0.4c-0.3-0.1-1.2-0.1-0.8,0.1
		c0.6,0.2,1.1,0.5,1.6,0.8c0.5,0.2,0.9,0.5,1.3,0.9c0.1,0.1,0.2,0.2,0.2,0.4c-0.1-0.2-0.1-0.4-0.2-0.5
		C618.7,408.1,618.2,408,617.8,407.8z"/>
	<path class="st4" d="M620.4,411l-0.1-0.2c0.1-0.3,0-0.7-0.2-1L620,410c0.1,0.2,0.2,0.2,0.1,0c0,0.4,0,0.8,0.1,1.2
		C620.3,411.2,620.4,411.2,620.4,411z"/>
	<path class="st4" d="M620.2,411.4v-0.2l0,0C620.2,411.3,620.2,411.4,620.2,411.4z"/>
	<path class="st4" d="M616.6,406.2c-0.9-0.4-1.8-0.7-2.7-0.8c-0.1,0-0.1,0.1-0.2,0c-0.1,0-0.1-0.1-0.2-0.1h-0.4h-0.2
		c-0.1,0,0,0.1,0,0.1l0.1,0.1l-0.1-0.1l-0.2-0.1c-0.1,0-0.3,0-0.4,0c0.1,0,0.3,0,0.4,0h0.2h0.1c-0.3,0-0.6,0-0.9,0h-0.2
		c-0.2,0.1-0.4,0.1-0.6,0h-0.2l0,0h-0.1l-0.7,0.1c-0.1,0.1-0.3,0.2-0.4,0.3l-0.2-0.1c-0.1,0.1-0.1,0.1-0.2,0.2l0.4,0.1
		c0.2,0.1,0.3-0.3,0.5-0.2c-0.2-0.2-0.3,0.2-0.5,0.2l-0.4-0.1c-0.2,0.1-0.5,0.2-0.7,0.2c0.2-0.2,0.5-0.2,0.7-0.2
		c0.1-0.1,0.2-0.1,0.2-0.2l0.2,0.1c0.1-0.1,0.3-0.2,0.4-0.3c-0.5,0.1-0.9,0.2-1.3,0.4c-1.5,0.5-2.7,1.5-3.5,2.8
		c-0.9,1.4-1.1,3.1-0.5,4.7c0.6,1.7,1.8,3.1,3.4,4c1.5,0.8,3.2,1.2,4.9,1.1c1.7-0.1,3.5-0.5,5.1-1.2c0.9-0.4,1.6-1.1,2.1-1.9
		c0.6-0.8,1-1.7,1.1-2.7c0-1-0.5-1.3-0.8-1.2c-0.2,0-0.4,0.1-0.6,0.3c-0.4,0.3-0.7,0.8-0.8,1.2c-0.3,0.6-0.7,1.1-1.3,1.5
		c0.5-0.3,0.5-0.1,0.1,0.3c-0.4,0.5-1,0.8-1.7,0.9c-0.9,0.1-1.8,0.2-2.7,0.4c-1,0.2-2,0.2-3-0.1c-0.5-0.2-1-0.3-1.4-0.6
		c-1.1-0.7-2-1.7-2.5-2.9c-0.4-1.2-0.1-2.6,0.8-3.6c0.4-0.6,1-1.1,1.5-1.6c0.5-0.2,0.9-0.4,1.4-0.5c0.7-0.2,1.2-0.3,1.8-0.5
		c-0.6,0.1-1.2,0.2-1.8,0.4c-0.4,0.1,0.2-0.4,0.5-0.5c0.1-0.1,0.4,0.2,0.5,0.1c0.3,0,0.5-0.2,0.9-0.2c0.1-0.1,0.1,0.2,0.2,0.1
		c0.4,0,0.8-0.3,1.1-0.2c0.2,0.1,0.4,0.1,0.6,0.2c0.1,0,0.2,0.1,0.3,0.1h0.3c0-0.1,0-0.2,0-0.3c0.1,0,0.3,0.1,0.4,0.2
		c-0.1,0-0.2-0.1-0.4-0.2c0,0.1,0,0.2,0,0.3c0.7,0,1.3,0.1,1.9,0.4l0,0c-0.4-0.2-0.7-0.4-1-0.6c0.2,0.1,0.1,0.2-0.1,0.1l-0.1-0.2
		c0.4,0,0.7,0.2,0.9,0.4h0.2c0.1,0.1,0,0.1,0,0.2l0.2,0.1C617,406.5,616.8,406.4,616.6,406.2z"/>
	<path class="st4" d="M612.7,405.3h0.2c-0.3,0-0.5,0-0.8,0C612.3,405.4,612.5,405.4,612.7,405.3z"/>
</g>
<g class="st1">
	<path class="st5" d="M479.5,415.7l2.5,1.4c-0.4-0.3-0.8-0.6-1.1-1C480.5,415.8,480,415.6,479.5,415.7z"/>
	<path class="st5" d="M484.4,418.3l0.5,0.2l0.4,0.1L484.4,418.3z"/>
	<path class="st5" d="M489,420.2c-0.8-0.4-1.5-0.7-2.3-1C487.4,419.7,488.2,420,489,420.2z"/>
	<path class="st5" d="M485.5,418.3c0.2,0.3,0.3,0.5-0.2,0.3l0,0l1.4,0.6C486.3,419,485.9,418.7,485.5,418.3z"/>
	<path class="st5" d="M485.5,418.3c-0.2-0.3-0.6-0.6-0.7-0.7C485.1,417.9,485.3,418.1,485.5,418.3z"/>
	<path class="st5" d="M488.1,415.8c0.5,0.1,0,0.9,1,1.1c2.1,0.5,4.2,1.2,6.2,2c1,0.2,2,1.8,3,2c1.5,0.5,3,0.8,4.5,1
		c1.4,0.2,2,0.1,0.4-0.5l-12.4-4.9c-0.9-0.3-1.8-0.6-2.7-0.9l-2.6-1c-1.8-0.7-3.5-1.4-5.4-2.1c-0.9-0.5-1.9-1-2.8-1.5l3.6,2.3
		C482.5,414.6,485.2,414.6,488.1,415.8z"/>
	<path class="st5" d="M461.4,404.9l1.5,0.5c1.7,1.6,3.7,2.8,5.9,3.6L468,408c-1.2-0.6-1.5-0.5-0.5,0.3c-2-1.8-4.2-3.2-6.5-4.4
		C460.9,404.3,461,404.7,461.4,404.9z"/>
	<path class="st5" d="M459.6,403.2l1.4,0.7c0,0,0-0.1,0-0.1L459.6,403.2L459.6,403.2z"/>
	<path class="st5" d="M499,423.8c1.5,0.7,3,1.2,4.5,1.8l4.5,1.8c2.9,1.1,5.8,2.4,8.7,3.3c0.5-0.1,1-0.1,1.5,0.2
		c0.4,0.3,0.8,0.5,1.2,0.8l2.5,0.9l0.9,0.2l0,0c0.5,0,0.4-0.1,0.2-0.4c-0.3-0.2-0.5-0.4-0.8-0.6c0.1,0.1,0.5,0.4,0.8,0.6
		c0.4,0.3,0.8,0.5,1.3,0.7c0.8,0.2,1.6,0.5,2.4,0.8c-0.8-0.2-1.6-0.4-2.4-0.8l-1.5-0.4l-0.4,0l2.9,1c1,0.3,1.9,0.7,2.9,1l1.2,0.3
		c1.5,0.3,2.9,0.5,3.6,1.2l1,0.3l-0.2-0.1c0.1,0.1,0.3,0.1,0.4,0.2l4.4,1.3c1,0.1,2,0.1,3.1,0.2l0.9,0.7c0.6-0.2,1.2-0.2,1.8-0.1
		c-0.7-0.5-1.4-0.9-2-1.3c-0.9-0.7-2.5,0.5-3.4-0.8c1,1.2,2.5,0,3.4,0.8c0.6,0.3,1.3,0.8,2,1.3c1.6,0.2,3.2,0.7,4.6,1.5
		c-1.7,0-3.3-0.6-4.6-1.5c-0.6-0.1-1.2-0.1-1.8,0.1l-0.9-0.7c-1-0.1-2.1-0.1-3.1-0.2c2.9,0.8,5.8,1.5,8.9,2.3
		c4.8,1.3,9.7,2.1,14.5,3c2.4,0.5,4.8,0.8,7.2,1.1l7.2,0.9c9.9,1,19.9,1.4,29.9,1.3c10.9,0,21.9-0.7,32.8-1.9
		c10.3-1.3,20.5-3.4,30.4-6.3c9.8-2.8,19.6-6,30-9.1c2-0.6,4.4-1.6,6.9-2.6s5.2-2.4,7.8-3.8c5.3-2.7,10.3-5.8,13.8-8
		c4.2-3.6,4.5-5.6,3.7-6.6c-0.8-0.7-1.9-1-3-1c-3.7,0.3-6.2,1.5-9.5,3.1c-4.3,2.3-8.7,4.3-13.4,5.8c2.1-0.7,2.9-0.8,2.7-0.4
		c-0.9,0.8-1.9,1.5-3,2c-0.8,0.4-1.8,0.9-2.9,1.4s-2.2,0.9-3.4,1.3c-2.3,0.8-4.6,1.4-7,1.7c-3.3,0.4-6.6,1-9.8,2
		c-1.7,0.5-3.4,1-5.2,1.6l-2.6,0.9l-2.7,0.9c-7.2,2.7-14.6,4.7-22.2,6.1c-1.8,0.2-3.7,0.6-5.7,1l-3,0.6c-1,0.2-2.1,0.3-3.2,0.5
		l-4.2,0.5c-1.4,0.2-2.8,0.4-4.2,0.5c-2.8,0.2-5.6,0.5-8.4,0.8s-5.6,0.4-8.3,0.6l-2.1,0.2l-2.1,0.1l-4.2,0.2
		c-11.5,0.6-23.1,0.1-34.5-1.4c-1.6-0.2-3.1-0.3-4.6-0.4s-3-0.3-4.4-0.4c-2.9-0.2-5.7-0.2-8.4-0.6c-3.9-0.7-7.9-2-11-2.7
		c-4.9-1.3-9.2-2.1-13.3-2.9c4.5,1.1,7.9,1.7,12.9,3c1.7,0.4,1,0.5-0.3,0.6c-1.5,0-3.1-0.1-4.6-0.4c-1,0-2.2-1.5-3.2-1.5
		c-1-0.3-2.1-0.5-3.1-0.6l-1.6-0.2l-1.7-0.3c-1-0.1-0.6-1-1.1-1c-3-0.8-5.7-0.4-7.6-1.2c-1.4-0.6-2.7-1.1-3.9-1.8
		c-0.8-0.4-1.6-0.7-2.4-1l-1.7-0.4c0.3,0.4,0.4,0.8,0.4,1.2c-0.8-0.4-1.8-1-2.5-1.3c0.8,0.4,1.8,1,2.5,1.3c0-0.4-0.1-0.9-0.4-1.2
		c-4.4-1-8.7-2.2-13-3.7v0.1c1.2,0.5,2.4,1,3.5,1.6c1.2,0.6,2.4,1.3,3.5,2c-1-0.6-0.8-0.8,0.5-0.4l0.8,0.8c-2.3-0.6-4.6-1.1-6.3-2.7
		l-1.5-0.3c-0.6-0.4-0.5-0.7-0.5-1l-1.4-0.6C496.5,422,497.7,422.9,499,423.8z"/>
	<path class="st5" d="M524.3,433.1l-1.2-0.3c1.6,0.5,3.2,1.2,4.8,1.7C526.8,433.8,525.6,433.3,524.3,433.1z"/>
</g>
<g class="st1">
	<path class="st5" d="M361,409.4l-2.5,1.3c0.5-0.2,0.9-0.3,1.4-0.4C360.3,410.2,360.7,409.8,361,409.4z"/>
	<path class="st5" d="M356.1,411.8l-0.5,0.2l-0.4,0.3L356.1,411.8z"/>
	<path class="st5" d="M351.8,414.2c0.8-0.3,1.5-0.7,2.3-1.1C353.3,413.4,352.5,413.7,351.8,414.2z"/>
	<path class="st5" d="M355.4,412.7c-0.3,0-0.5,0-0.1-0.4l0,0l-1.3,0.8C354.5,412.9,355,412.8,355.4,412.7z"/>
	<path class="st5" d="M355.4,412.7c0.3,0,0.8-0.1,1-0.1C356.1,412.6,355.8,412.7,355.4,412.7z"/>
	<path class="st5" d="M355.8,416.3c-0.4,0.3-0.7-0.6-1.5,0c-1.8,1.2-3.7,2.3-5.7,3.3c-0.8,0.6-2.7,0.3-3.5,0.9
		c-1,0.6-2.8,1.9-3.9,2.6s-1.6,1.3,0,0.7c1.2-0.5,2.3-1.1,3.4-1.6l3-1.5l5.9-3c0.8-0.5,1.7-1,2.5-1.5l2.4-1.6
		c1.6-1.1,3.2-2.1,4.9-3.2c0.9-0.5,1.9-1,2.9-1.4l-4,1.6C360.2,412.5,358.5,414.7,355.8,416.3z"/>
	<path class="st5" d="M379.7,399.7l-1.1,1c-2.2,0.7-4.3,1.8-6,3.3l1.1-0.1c1.1-0.7,1.1-1,0-0.6c2.5-0.8,4.9-2,7.1-3.5
		C380.5,399.6,380,399.5,379.7,399.7z"/>
	<path class="st5" d="M382.1,399.1l-1.3,0.8l0.1,0L382.1,399.1L382.1,399.1z"/>
	<path class="st5" d="M342.5,419.3c-1.5,0.7-3,1.3-4.5,1.9l-4.4,1.7c-3,1.1-5.8,2.3-8.7,3.1c-0.3,0.4-0.8,0.6-1.3,0.7
		c-0.5,0-1,0-1.5,0.1l-2.5,0.8l-0.9,0.4l0,0c-0.4,0.3-0.2,0.4,0.1,0.4c0.3,0,0.7,0,1,0c-0.2,0-0.7,0-1,0c-0.5,0-1,0.1-1.4,0.2
		c-0.8,0.3-1.6,0.6-2.4,0.8c0.8-0.4,1.6-0.6,2.4-0.8l1.4-0.6c0.1-0.1,0.2-0.1,0.4-0.2l-2.9,0.9c-1,0.3-1.9,0.6-2.9,0.8l-1.2,0.4
		c-1.4,0.5-2.8,1-3.7,0.8l-1,0.3h0.2h-0.4l-4.4,1.1c-0.9,0.5-1.9,0.9-2.8,1.2l-1.1-0.2c-0.5,0.4-1,0.7-1.6,0.8
		c0.9,0.1,1.7,0.2,2.4,0.3c1.1,0.2,2-1.4,3.4-0.9c-1.4-0.5-2.3,1.1-3.4,0.9c-0.7,0-1.5-0.2-2.4-0.3c-1.5,0.5-3.2,0.7-4.8,0.6
		c1.5-0.7,3.2-0.9,4.8-0.6c0.6-0.2,1.1-0.4,1.6-0.8l1.1,0.2c1-0.4,1.9-0.8,2.8-1.2c-2.9,0.7-5.9,1.2-8.9,1.8
		c-4.8,1-9.7,1.6-14.4,2.3c-2.4,0.4-4.8,0.6-7.1,0.9l-7.1,0.7c-9.8,0.8-19.6,0.9-29.5,0.4c-10.7-0.6-21.3-2-31.8-4.3
		c-10.1-2.3-19.8-4.4-29.3-7.3c-9.7-2.9-19-6.8-27.8-11.8c-1.7-1-3.9-2.1-6.2-3.3l-7.4-3.7c-5-2.5-9.9-5.2-13.2-7.1
		c-4.7-2-6.4-1.5-7-0.5c-0.4,1-0.4,2.1,0.1,3c1.7,3.3,4,5.1,7.2,7.2s7.2,4.3,12.7,8.2c-1.9-1.2-2.4-1.9-2-1.9
		c1.2,0.2,2.4,0.6,3.5,1.2c0.9,0.4,1.9,0.9,2.9,1.4s2.2,1.1,3.3,1.7c2.2,1.2,4.2,2.5,6.2,4c2.7,2.1,5.7,3.9,8.9,5.3
		c1.7,0.7,3.5,1.4,5.3,2.1c0.9,0.3,1.8,0.7,2.8,1l2.9,0.9c7.6,2.3,15.8,3.8,23.3,6c1.9,0.5,3.8,0.9,5.9,1.3l3.1,0.6l3.3,0.6l4.4,0.9
		c1.5,0.3,2.9,0.6,4.4,0.8c2.9,0.4,5.9,0.8,8.8,1.1c2.9,0.2,5.8,0.4,8.8,0.6l2.2,0.1h2.2l4.4,0c12.1,0,24.1-0.7,36.1-2.2
		c1.6-0.2,3.3-0.4,4.8-0.7s3-0.7,4.5-1.1c2.9-0.8,5.7-1.5,8.4-2.3c4-1,8.3-1.5,11.6-2.2c4.5-1.2,9-2.7,13.3-4.5
		c-4.6,1.5-7.9,2.6-13,4.2c-1.7,0.4-1.2,0,0-0.7c1.4-0.8,2.8-1.5,4.3-2.1c0.9-0.5,2.7,0.1,3.6-0.4c1-0.3,2-0.7,3-1.1l1.5-0.6
		l1.6-0.8c0.9-0.5,1.1,0.4,1.5,0.2c3-1.2,4.9-3.2,7-3.5c1.5-0.4,2.9-0.6,4.2-1c0.8-0.3,1.6-0.5,2.5-0.9l1.5-0.9
		c-0.4-0.1-0.8-0.3-1.1-0.7c0.8-0.3,2-0.5,2.8-0.8c-0.8,0.3-2,0.5-2.8,0.8c0.3,0.3,0.7,0.6,1.1,0.7c3.7-2.1,8.1-4.2,12-6.5h-0.1
		c-1.2,0.6-2.4,1.1-3.6,1.6c-1.3,0.5-2.6,0.8-3.9,1c1.2-0.2,1.1,0.1-0.1,0.6l-1.1-0.1c2-1.2,4.2-2,6.4-2.5l1.2-0.9
		c0.4-0.2,0.8,0,1.1,0.3l1.4-0.7C345.6,418.6,344.1,418.9,342.5,419.3z"/>
	<path class="st5" d="M317.3,428.6l1.2-0.5c-1.6,0.5-3.2,1-4.9,1.4C314.6,429.8,315.9,429.2,317.3,428.6z"/>
</g>
</svg>
