<?xml version="1.0" encoding="utf-8"?>
<!-- Generator: Adobe Illustrator 25.0.0, SVG Export Plug-In . SVG Version: 6.00 Build 0)  -->
<svg version="1.1" id="Layer_1" xmlns="http://www.w3.org/2000/svg" xmlns:xlink="http://www.w3.org/1999/xlink" x="0px" y="0px"
	 viewBox="0 0 841.9 841.9" style="enable-background:new 0 0 841.9 841.9;" xml:space="preserve">
<style type="text/css">
	.st0{fill:#F5D0C6;}
	.st1{opacity:0.85;}
	.st2{fill:#211F1E;}
	.st3{fill:#1F2020;}
</style>
<rect y="-0.9" class="st0" width="841.9" height="841.9"/>
<g class="st1">
	<path class="st2" d="M216.1,569.5c-0.2,0.2-0.5,0.4-0.7,0.6c0.2-0.1,0.3-0.1,0.5-0.2C216,569.8,216,569.6,216.1,569.5z"/>
	<path class="st2" d="M214.7,570.5c0,0-0.1,0.1-0.1,0.1l-0.1,0.1C214.5,570.6,214.6,570.5,214.7,570.5z"/>
	<path class="st2" d="M213.3,571.2c0.3,0,0.5-0.1,0.8-0.3C213.8,571,213.5,571.1,213.3,571.2z"/>
	<path class="st2" d="M214.5,570.8c-0.1,0-0.2-0.1-0.1-0.2l0,0c-0.1,0.1-0.3,0.2-0.4,0.3C214.2,570.9,214.3,570.8,214.5,570.8z"/>
	<path class="st2" d="M214.5,570.8c0.1,0,0.2,0,0.4,0C214.7,570.8,214.6,570.8,214.5,570.8z"/>
	<path class="st2" d="M214.8,572.5c-0.2,0.1-0.3-0.3-0.6-0.1s-0.8,0.4-1.2,0.6c-0.4,0.1-0.8,0.2-1.2,0.3c-0.4,0.1-1-0.4-1.4-0.3
		s-1.2,0.2-1.8,0.2s-0.8,0.2-0.1,0.3c1.8,0.3,3.6,0.1,5.3-0.5c1.4-0.6,2.6-1.6,3.5-2.8c0.3-0.3,0.5-0.6,0.8-0.8
		c-0.4,0.4-0.8,0.7-1.2,1c-0.3,0.2-0.5,0.6-0.9,1c-0.2,0.2-0.3,0.4-0.5,0.6C215.3,572.2,215.1,572.4,214.8,572.5z"/>
	<path class="st2" d="M220.2,563.8l-0.1,0.5c-0.6,0.6-1,1.3-1.1,2.1l0.4-0.2c0.2-0.4,0.1-0.5-0.2-0.2c0.3-0.3,0.6-0.7,0.9-1.1
		c0.2-0.4,0.4-0.8,0.6-1.2C220.5,563.6,220.3,563.6,220.2,563.8z"/>
	<path class="st2" d="M220.8,563.1c-0.1,0.2-0.1,0.3-0.2,0.5h0.1C220.6,563.5,220.8,563.3,220.8,563.1L220.8,563.1z"/>
	<path class="st2" d="M209.9,571.9c-2.2-0.3-4.3-0.9-6.2-1.8c-0.2,0.1-0.4,0-0.5,0c-0.1-0.1-0.2-0.3-0.4-0.4l-0.8-0.4l-0.3-0.1l0,0
		c-0.2,0-0.2,0.1-0.1,0.2c0.1,0.1,0.2,0.2,0.2,0.3c0-0.1-0.1-0.2-0.2-0.3c-0.1-0.1-0.2-0.3-0.4-0.4c-0.3-0.1-0.5-0.3-0.8-0.4
		c0.3,0.1,0.5,0.3,0.8,0.4c0.1,0.1,0.3,0.2,0.5,0.2h0.2c-0.6-0.3-1.2-0.8-1.7-1.1l-0.4-0.2c-0.4-0.2-0.9-0.5-1-0.9
		c-0.1-0.1-0.2-0.2-0.3-0.3v0.1c0,0-0.1-0.1-0.1-0.1c-0.4-0.4-0.7-0.7-1.1-1.1c-0.3-0.2-0.6-0.4-0.9-0.6c0,0,0-0.3,0-0.4
		c-0.2,0-0.4-0.2-0.5-0.3c0,0.3,0.1,0.6,0.2,0.9c0.1,0.4,0.9,0.3,0.8,0.9c0.1-0.6-0.8-0.5-0.8-0.9c-0.1-0.3-0.1-0.6-0.2-0.9
		c-0.4-0.4-0.7-0.9-0.7-1.5c0.4,0.4,0.7,0.9,0.7,1.5c0.1,0.2,0.3,0.3,0.5,0.3c0,0.1,0,0.4,0,0.4c0.3,0.2,0.6,0.4,0.9,0.6l-0.9-1.2
		l-0.8-1.3c-1.6-2.8-2.5-6-2.6-9.2c0-0.8,0-1.6,0.1-2.4l0.2-1.2l0.1-0.6l0.2-0.6c0.4-1.6,1.1-3.1,1.9-4.5c0.8-1.5,2.1-2.6,3.6-3.2
		c1.5-0.5,3.1-0.4,4.5,0.1c3.1,1.1,6.2,2.5,9,4.2c1.4,0.8,2.8,1.8,4,2.8c1.1,1,2,2.2,2.5,3.6c0.4,1.2,0.6,2.4,0.5,3.6
		c-0.1,1.5-0.4,2.9-0.9,4.3c-0.2,1.7,0.3,2.4,0.9,2.6c0.5,0.1,0.9,0.1,1.4-0.1c1.1-0.6,1.9-1.7,2.3-2.9c0.1-0.3,0.2-0.7,0.3-1
		s0.2-0.8,0.3-1.2c0.3-1.1,0.5-2.2,0.6-3.3c-0.2,1.8-0.5,1.1-0.7-0.3c-0.1-0.9-0.3-1.8-0.6-2.6c-0.3-1-0.7-1.9-0.9-2.8
		c-0.2-0.6-0.5-1.3-0.9-1.8c-0.2-0.3-0.4-0.6-0.6-0.8s-0.5-0.5-0.7-0.8c-1-1-2.2-1.8-3.4-2.5c-1.3-0.7-2.6-1.3-3.8-2
		s-2.6-1.2-3.8-1.9c-1.4-0.7-3-1.2-4.5-1.6c-0.6-0.2-1.2-0.3-1.8-0.4l-1-0.1c-0.3,0-0.7,0-1,0c-1.4,0.1-2.8,0.4-4,1.1
		c-1.2,0.7-2.3,1.5-3.1,2.6c-0.8,0.9-1.5,2-2,3.1c-2.1,4.3-2.8,9-2,13.7c0.5,2.3,1.5,4.5,3,6.3c0.2,0.3,0.4,0.7,0.6,1s0.4,0.7,0.6,1
		c0.4,0.6,0.8,1.2,1.2,1.7c0.3,0.4,0.6,0.7,1,1c0.4,0.3,0.7,0.6,1.1,0.9c0.7,0.5,1.4,0.9,2.2,1.3c-0.7-0.4-1.4-0.9-2.1-1.4
		c-0.3-0.2-0.6-0.5-1-0.8c-0.4-0.3-0.7-0.6-1-1c-0.9-1,1.1,0.3,1.8,0.8c0.2,0.2,0.3,0.4,0.4,0.6c0.1,0.2,0.2,0.5,0.4,0.5
		c0.3,0.2,0.6,0.5,1,0.6c0.4,0.2,0.8,0.3,1.2,0.5s0.1,0.5,0.3,0.5c0.5,0.2,1,0.3,1.6,0.4c0.4,0,0.8,0.1,1.2,0.3l1.3,0.8
		c0.3,0.1,0.6,0.2,0.9,0.3l0.6,0.1c-0.1-0.2-0.1-0.4-0.1-0.6c0.3,0.1,0.6,0.3,0.9,0.4c-0.3-0.1-0.7-0.3-0.9-0.4c0,0.2,0,0.4,0.1,0.6
		c1.6,0.2,3.3,0.3,4.9,0.1l0,0c-0.9,0.1-1.9-0.2-2.7-0.6c0.4,0.2,0.3,0.3-0.2,0.2c-0.1-0.1-0.2-0.2-0.3-0.3c0.8,0,1.6,0.1,2.4,0.5
		c0.2,0,0.4-0.1,0.5-0.1c0.3,0.1,0.2,0.2,0.3,0.3h0.6c-0.3-0.1-0.6-0.3-0.9-0.3L209.9,571.9z"/>
	<path class="st2" d="M201.2,568.9l0.4,0.2l-1.4-1C200.2,568.5,200.7,568.7,201.2,568.9z"/>
</g>
<path class="st3" d="M202.5,564.9c-3.5-0.8-5.8-4.3-5-7.8c0.8-3.5,3.4-3.4,6.9-2.7s6.7,1.9,5.9,5.5
	C209.6,563.4,206.1,565.6,202.5,564.9C202.5,564.9,202.5,564.9,202.5,564.9z"/>
<g class="st1">
	<path class="st2" d="M205.7,565.1l0.4-0.1c-0.1,0-0.1,0-0.2,0C205.8,565,205.8,565,205.7,565.1z"/>
	<path class="st2" d="M206.5,564.9L206.5,564.9L206.5,564.9L206.5,564.9z"/>
	<path class="st2" d="M207.1,564.5l-0.3,0.2C206.9,564.6,207,564.6,207.1,564.5z"/>
	<path class="st2" d="M206.6,564.7C206.6,564.7,206.6,564.7,206.6,564.7L206.6,564.7l0.2,0C206.7,564.7,206.6,564.7,206.6,564.7z"/>
	<path class="st2" d="M206.6,564.7h-0.1H206.6z"/>
	<path class="st2" d="M206.4,563.8c0,0,0.1,0.2,0.2,0.1s0.4-0.4,0.6-0.6c0.1-0.1,0.4,0,0.4-0.1s0.5-1,0.2-0.7
		c-0.4,0.4-0.8,0.7-1.2,1c-0.4,0.3-0.8,0.6-1.2,0.8c-0.1,0-0.3,0.1-0.4,0.1h0.6C205.8,564.4,206,564.1,206.4,563.8z"/>
	<path class="st2" d="M202.8,565.1l0.2,0c0.3,0.2,0.6,0.2,0.9,0.1l-0.1-0.1c-0.2,0-0.2,0.1,0,0.1c-0.3-0.1-0.7-0.2-1.1-0.2
		C202.7,565,202.7,565,202.8,565.1z"/>
	<path class="st2" d="M202.5,564.9h0.2l0,0H202.5L202.5,564.9z"/>
	<path class="st2" d="M208.2,563.5c0.7-0.6,1.2-1.2,1.6-2c0-0.1,0-0.1,0-0.2c0.1,0,0.1-0.1,0.2-0.1c0.1-0.1,0.1-0.2,0.1-0.3v-0.1
		l0,0c0-0.1,0-0.1-0.1,0l-0.1,0.1l0.1-0.1c0.1,0,0.1-0.1,0.1-0.2c0-0.1,0-0.2,0.1-0.3c0,0.1,0,0.2-0.1,0.3v0.2v0.1
		c0.1-0.2,0.2-0.5,0.3-0.8c0-0.1,0-0.1,0-0.2c0-0.2,0-0.4,0.1-0.5v-0.2l0,0v-0.1c0-0.2,0-0.4,0-0.7s-0.1-0.3-0.2-0.4l0.1-0.2
		c-0.1,0-0.1-0.1-0.2-0.2c0,0.1-0.1,0.2-0.1,0.3s0.3,0.3,0.1,0.5c0.2-0.2-0.2-0.3-0.1-0.5s0.1-0.2,0.1-0.3c-0.1-0.2-0.2-0.4-0.2-0.7
		c0.2,0.2,0.3,0.4,0.2,0.7c0,0.1,0.1,0.2,0.2,0.2l-0.1,0.2c0.1,0.1,0.1,0.3,0.2,0.4c0-0.4-0.1-0.9-0.3-1.3c-0.3-0.6-0.7-1.2-1.3-1.6
		c-0.6-0.4-1.2-0.7-1.8-0.9c-1.3-0.4-2.6-0.8-3.9-1.1c-0.8-0.2-1.5-0.3-2.3-0.3c-0.9-0.1-1.7,0.1-2.5,0.6c-0.7,0.5-1.3,1.2-1.6,2
		c-0.3,0.7-0.5,1.5-0.5,2.3c-0.1,1.6,0.3,3.3,0.9,4.7c0.4,0.8,1,1.5,1.7,2c0.7,0.5,1.4,0.9,2.3,1.2c0.9,0.1,1.1-0.2,1.2-0.5
		c0-0.2,0-0.5-0.1-0.7c-0.2-0.4-0.6-0.8-1-1c-0.5-0.3-1-0.7-1.3-1.3c0.3,0.5,0.1,0.5-0.3,0.2c-0.4-0.4-0.7-0.9-0.7-1.5
		c0-0.8-0.1-1.6-0.2-2.4c-0.1-0.4-0.1-0.8,0-1.3c0-0.4,0.2-0.8,0.4-1.1c0.2-0.3,0.4-0.5,0.6-0.7c1.1-0.3,2.3-0.3,3.4,0
		c1.5,0.2,2.9,0.5,4.2,1.1c0.6,0.2,1.1,0.5,1.6,0.8c0.2,0.3,0.3,0.6,0.3,1c0,0.5,0,1,0,1.4c0.1-0.5,0.1-1,0-1.4
		c-0.1-0.3,0.4,0.2,0.4,0.5c0.1,0.1-0.2,0.3-0.2,0.4s0,0.5,0,0.8c0,0.1-0.2,0-0.2,0.1c-0.1,0.4,0.1,0.8-0.1,1
		c-0.1,0.1-0.2,0.3-0.4,0.4c-0.1,0.1-0.1,0.2-0.2,0.3l-0.1,0.2c0.1,0,0.2,0,0.3,0.1l-0.3,0.2l0.3-0.2c-0.1,0-0.2-0.1-0.3-0.1
		c-0.2,0.5-0.6,1-1,1.4l0,0c0.3-0.2,0.6-0.4,0.9-0.6c-0.1,0.1-0.2,0-0.1-0.1h0.2c-0.1,0.3-0.4,0.5-0.7,0.6l-0.1,0.2
		c-0.1,0-0.1,0-0.2-0.1l-0.1,0.1c0.1,0,0.3,0,0.4-0.1C207.9,563.7,208.1,563.6,208.2,563.5z"/>
	<path class="st2" d="M210.2,560.5c0,0,0,0.1-0.1,0.2c0.1-0.2,0.2-0.4,0.2-0.7C210.2,560.1,210.2,560.3,210.2,560.5z"/>
</g>
<g class="st1">
	<path class="st2" d="M340,550.7c-1.3,1.5-2.6,3-4,4.5c0.8-0.7,1.5-1.4,2.3-2C339,552.4,339.6,551.6,340,550.7z"/>
	<path class="st2" d="M332.1,559.1c-0.3,0.3-0.5,0.5-0.8,0.7l-0.6,0.7L332.1,559.1z"/>
	<path class="st2" d="M324.4,566.2c0.7-0.6,1.4-1.1,2.1-1.7l1-0.9l0.9-0.9C327.3,563.7,325.9,564.8,324.4,566.2z"/>
	<path class="st2" d="M330.8,560.9c-0.6,0.3-0.9,0.4-0.2-0.4l0,0l-2.2,2.2C329.3,562,330.1,561.4,330.8,560.9z"/>
	<path class="st2" d="M330.8,560.9c0.5-0.3,1.4-0.9,1.7-1.1C332,560.1,331.4,560.5,330.8,560.9z"/>
	<path class="st2" d="M331.1,565.2c-0.3,0.3-0.7,0.5-1,0.5c-0.6,0.2-1.2,0.5-1.6,1l-2.7,2.5c-0.4,0.4-0.9,0.8-1.3,1.2l-1.3,1.1
		c-1.8,1.5-3.6,2.9-5.5,4.2c-1.1,0.7-2.2,1.3-3.4,1.8c-1.2,0.4-2.4,1-3.5,1.6c-2.1,1.4-6,3.8-8.5,5.3c-0.8,0.5-1.6,1-2.4,1.5
		c-0.2,0.2,0.5,0,2.2-0.8c4.6-2.1,9.1-4.5,13.3-7.3c4-2.6,7.8-5.4,11.5-8.5c6.2-5.5,11.9-11.7,16.8-18.4c1.4-1.9,2.9-3.6,4.2-5.4
		l-1.4,1.8l-1.5,1.7c-1,1.2-2,2.4-3.1,3.6c-0.8,0.8-1.5,1.7-2.2,2.6c-0.4,0.5-0.7,1-1.1,1.5l-1.2,1.6c-0.8,1.1-1.7,2.2-2.7,3.4
		S332.4,564,331.1,565.2z"/>
	<path class="st2" d="M361,512c-0.2,1-0.5,3.1-0.5,3.1l-1.4,3.3c-0.5,1.1-0.8,2.2-1.3,3.4c-0.9,2.2-1.7,4.6-2.7,6.8l1.4-1.8
		c1.1-2.6,0.9-3-0.2-0.8c2.8-4.9,4.7-10.2,5.7-15.7C361.7,510.6,361.5,510.5,361,512z"/>
	<path class="st2" d="M362.6,507.1c-0.2,1.1-0.4,2.2-0.5,3.2c0,0,0.1-0.1,0.1-0.1c0.2-1.1,0.3-2.2,0.5-3.2L362.6,507.1z"/>
	<path class="st2" d="M306.2,579.1c-12,6-24.9,10.1-38.2,12c-1,0.4-2,0.6-3,0.7c-1,0-2,0-3,0c-1.9,0.2-3.8,0.4-5.6,0.4l-2,0.2l0,0
		c-1.1,0.2-0.7,0.3-0.1,0.4s1.4,0.1,2,0.2c-0.4-0.1-1.4-0.1-2-0.2c-0.9,0-1.9-0.1-3.1-0.2c-1.8,0.1-3.6,0.1-5.4,0
		c2.1,0,3.8-0.1,5.4,0c1.1,0,2.1-0.1,3.2-0.2l0.9-0.2c-4.3,0.2-8.6,0.2-12.8-0.1l-2.7-0.1c-2.7,0-5.4-0.3-8-1.1
		c-0.7-0.1-1.5-0.3-2.2-0.4l0.4,0.2l-0.8-0.2c-1.6-0.3-3.2-0.6-4.7-1l-2.3-0.6c-0.8-0.2-1.6-0.4-2.3-0.7l-3.1-0.7
		c-0.5-0.1-1.1-0.2-1.6-0.3l-1.6-0.5l-1.9-1.2c-0.5-0.1-1.1-0.1-1.6-0.3c-0.7-0.2-1.3-0.4-1.9-0.7c1.3,0.9,2.8,1.8,4.2,2.6
		c1.1,0.6,2.3,0.9,3.5,1c1.3,0.1,2.6,0.5,3.7,1.3c-1.1-0.7-2.4-1.1-3.7-1.3c-1.2-0.1-2.4-0.4-3.5-1c-1.4-0.8-2.9-1.6-4.2-2.6
		c-0.7-0.3-1.5-0.6-2.3-0.9c-0.8-0.3-1.6-0.7-2.4-1.2c-1.5-0.9-2.9-1.8-4.3-2.8c1.7,0.7,3.3,1.5,4.9,2.5c1.5,0.9,2.8,1.7,4.1,2.5
		c0.6,0.3,1.3,0.5,1.9,0.7c0.5,0.1,1.1,0.2,1.6,0.3l1.9,1.2l1.6,0.5c0.5,0.1,1.1,0.2,1.6,0.3l3.1,0.7c-6.1-1.8-12.1-4.3-17.7-7.4
		c-2.3-1.2-4.5-2.6-6.7-4c-1.1-0.7-2.1-1.5-3.2-2.2s-2.1-1.5-3.1-2.3c-4-3.2-7.7-6.7-11.2-10.5c-6.8-7.5-12.6-15.9-17.3-24.9
		l-1.8-3.4l-1.6-3.5l-1.6-3.5c-0.5-1.2-1-2.3-1.4-3.5c-1.9-4.7-3.2-9.7-4.1-14.7c-1.8-10.3-1.3-20.9,1.5-31c1.5-5.6,3.5-11,6-16.2
		c2.5-5.1,5.4-10.1,8.5-14.8c6.2-9.3,13.1-18.2,20.7-26.5c7.4-8.3,14.8-16.2,22.2-24.2s14.6-16,21.4-24.5c3.4-4.3,6.7-8.7,9.8-13.4
		c3.2-4.7,5.9-9.8,8.1-15c1.1-2.8,2-5.6,2.7-8.5c0.7-3,1.1-6.1,1.2-9.2c0.2-5.9-0.2-11.9-1-17.8c-0.8-5.4-2.2-10.7-4.1-15.9
		c-2.3-6-5.3-11.8-8.9-17.2c-1.8-2.7-3.8-5.3-5.9-7.8c-2.1-2.4-4.2-4.8-6.3-6.9c-3.8-3.7-7.8-7.1-12.1-10.2c-5-3.2-8.6-4.5-10.8-5.1
		s-3.2-0.2-3.3,0.4c-0.2,1.3,2,3.7,2.4,4.1c2.5,2.5,4.9,4.7,7.4,6.9s5,4.5,7.8,7.2c3.2,3,6.1,6.3,8.8,9.8c3.5,4.6,6.5,9.7,8.7,15.1
		c-1.9-4.2-2.4-5.6-1.9-5.1c0.6,0.6,1.1,1.3,1.5,2c0.3,0.6,0.7,1.2,1.2,1.9s0.8,1.6,1.3,2.4c2.1,4.3,3.7,8.8,4.8,13.4
		c1.1,4.8,1.6,9.8,1.4,14.7c-0.1,1.6-0.1,3.2-0.3,4.8c-0.1,0.8-0.1,1.6-0.2,2.5v0.6l-0.1,0.6l-0.1,1.2c-0.5,3.2-1.3,6.4-2.4,9.5
		c-2.7,7-6.3,13.6-10.6,19.7c-9,13.2-20.5,26.2-31.7,37.8c-5.6,5.8-11.3,12.3-17.6,19.7c-8.5,9.4-16.2,19.5-22.9,30.3
		c-3.3,5.4-6.2,11.1-8.7,17c-2.5,6-4.4,12.2-5.7,18.6c-2.6,13.1-1.8,26.7,2.2,39.4c1,3.2,2.2,6.3,3.5,9.4c1.4,3,2.8,6,4.2,8.9
		c3.1,6,6.6,11.8,10.4,17.3c2.1,2.9,4.3,5.7,6.6,8.3c1.2,1.3,2.4,2.5,3.6,3.7l1.8,1.8l1.9,1.6c1.2,1.1,2.5,2.2,3.7,3.2l3.8,2.9
		c1.2,1,2.6,1.8,3.9,2.7l1.9,1.3l1,0.6l1,0.6c3.8,2.4,7.8,4.6,11.8,6.6c2,1,3.9,1.9,5.9,2.6c1.8,0.8,3.6,1.4,5.5,2
		c5.1,1.6,10.4,2.8,15.7,3.4c2.5,0.2,5,0.6,7.4,0.6l3.6,0.1h3.5c-1.3,0-2.6,0-3.8-0.1l-3.6-0.2l-1.8-0.1l-1.7-0.2l-3.5-0.4
		c-5.1-0.7-10.1-1.7-15-3.2c-3.8-1.1-2.4-1,0.6-0.5l2.4,0.5c0.9,0.2,1.8,0.3,2.7,0.4c1.8,0.3,3.6,0.6,4.8,0.7c1.3,0.2,2.6,0.5,3.8,1
		c1.2,0.4,2.5,0.7,3.8,0.8c2.3,0.3,4.7,0.4,7,0.4c1.2,0,2.3,0,3.5-0.1s2.4,0,3.7-0.2c2.2-0.2,1.9,0.7,3,0.6c7-0.4,12.1-2.3,16.5-2.7
		c3.3-0.4,6.3-0.8,9.2-1.3c1.8-0.3,3.6-0.8,5.5-1.3c1.2-0.4,2.4-0.8,3.5-1.2c-0.7,0-1.3-0.1-1.9-0.5c1.8-0.5,4.3-1,6-1.5
		c-1.7,0.5-4.2,1.1-6,1.5c0.6,0.4,1.2,0.5,1.9,0.5c9.2-3.3,17.9-7.5,26.1-12.8h-0.2c-2.4,1.5-4.9,2.8-7.4,4c-2.6,1.2-5.3,2.1-8,2.9
		c2.4-0.8,2.2-0.4-0.4,0.8l-2.2,0.3c4.6-2,9-4.2,13.5-5.8l2.6-1.8c1.5-0.7,1.5-0.4,2-0.3c1-0.5,1.9-1.2,2.8-1.8
		c-0.6,0.2-1.4,0.6-2.3,1l-3,1.3l-2.5,1.1C306.6,579,306.2,579.1,306.2,579.1z"/>
	<path class="st2" d="M251.1,592.7c0.8-0.1,1.7-0.1,2.7-0.2c-1.8,0.1-3.6,0-5.4,0s-3.6-0.1-5.4-0.2
		C245.6,592.9,248.3,593,251.1,592.7z"/>
</g>
<g class="st1">
	<path class="st2" d="M624.2,570.4c0.3,0.2,0.5,0.5,0.8,0.7c-0.1-0.1-0.2-0.3-0.3-0.5C624.5,570.5,624.3,570.5,624.2,570.4z"/>
	<path class="st2" d="M625.8,571.7c0,0,0.1,0.1,0.2,0.1h0.2C626,571.8,625.9,571.7,625.8,571.7z"/>
	<path class="st2" d="M627.5,572.3c-0.3-0.1-0.6-0.2-0.9-0.3C626.9,572.2,627.2,572.3,627.5,572.3z"/>
	<path class="st2" d="M626.2,571.7c0.1,0.1,0.1,0.2-0.1,0.2l0,0l0.5,0.2C626.5,571.9,626.3,571.8,626.2,571.7z"/>
	<path class="st2" d="M626.2,571.7c-0.1-0.1-0.2-0.2-0.2-0.3C626.1,571.5,626.1,571.6,626.2,571.7z"/>
	<path class="st2" d="M627.3,570.3c0.2,0-0.1,0.5,0.2,0.5l1,0.1c0.3,0,0.6,0,1,0c0.3-0.1,0.8,0.4,1.1,0.3c0.5-0.1,1-0.3,1.4-0.6
		c0.4-0.2,0.5-0.4,0-0.3c-1.3,0.3-2.6,0.4-3.9,0.2c-1.2-0.1-2.3-0.6-3.2-1.3c-0.2-0.2-0.5-0.5-0.7-0.8c0.2,0.4,0.5,0.8,0.8,1.2
		c0.3,0.3,0.6,0.5,1,0.5l0.6,0.2C626.9,570.2,627.1,570.2,627.3,570.3z"/>
	<path class="st2" d="M620.3,564.1l0.4,0.4c0.1,0.8,0.4,1.6,1,2.2c0-0.2,0-0.3,0-0.4c-0.2-0.4-0.4-0.4-0.3,0
		c-0.1-0.5-0.2-0.9-0.4-1.3c-0.2-0.4-0.3-0.8-0.5-1.2C620.4,563.8,620.2,563.8,620.3,564.1z"/>
	<path class="st2" d="M620.2,563.2c0.1,0.2,0.2,0.3,0.3,0.5l0,0L620.2,563.2L620.2,563.2z"/>
	<path class="st2" d="M631.3,572.2c2.2-0.3,4.3-0.9,6.3-1.7c0.1-0.2,0.2-0.3,0.4-0.3c0.2,0,0.4,0,0.5-0.1l0.8-0.4l0.3-0.2l0,0
		c0.1-0.1,0-0.2-0.1-0.2c-0.1,0-0.2,0-0.4,0h0.4c0.2,0,0.3-0.1,0.5-0.1c0.2-0.2,0.5-0.3,0.7-0.5c-0.2,0.2-0.5,0.4-0.7,0.5
		c-0.1,0.1-0.3,0.2-0.4,0.3l-0.1,0.1c0.6-0.3,1.2-0.7,1.9-1l0.3-0.3c0.4-0.4,0.7-0.7,1.1-0.7c0.1-0.1,0.2-0.2,0.3-0.2h-0.1l0.1-0.1
		c0.4-0.4,0.8-0.7,1.2-1.1c0.2-0.3,0.3-0.7,0.5-1l0.4-0.1c0-0.2,0.1-0.4,0.2-0.6c-0.3,0.1-0.5,0.3-0.8,0.4c-0.4,0.1-0.2,0.9-0.8,0.9
		c0.6,0,0.3-0.8,0.8-0.9c0.3-0.1,0.5-0.2,0.8-0.4c0.3-0.5,0.7-0.9,1.2-1.3c-0.2,0.6-0.6,1-1.2,1.3c-0.1,0.2-0.2,0.4-0.2,0.6
		l-0.4,0.1c-0.2,0.3-0.3,0.7-0.5,1l1.1-1.2l1-1.3c4.1-6,4.5-13.8,0.9-20.2c-0.9-2-2.5-3.6-4.4-4.6c-2-0.9-4.2-1.2-6.3-0.8
		c-1.9,0.3-3.8,0.9-5.5,1.7c-1.7,0.7-3.2,1.5-4.8,2.4s-3.2,1.8-4.8,2.9c-1.8,1.2-3.4,2.6-4.7,4.3c-0.3,0.4-0.6,0.9-0.8,1.3
		c-0.2,0.5-0.5,1.1-0.6,1.7c-0.1,0.6-0.3,1.2-0.3,1.9c0,0.6,0,1.3,0,1.9c0.2,2.1,0.7,4.1,1.5,6c1.1,1.7,1.9,1.8,2.5,1.5
		c0.4-0.2,0.7-0.6,0.9-1.1c0.3-1.2,0.3-2.4,0-3.5c-0.1-0.3-0.1-0.6-0.2-1s-0.1-0.7-0.1-1.1c-0.1-0.9,0.1-1.7,0.3-2.6
		c-0.3,1.3-0.6,0.8-0.6-0.4c0.1-0.7,0.3-1.4,0.6-1.9c0.4-0.6,0.9-1.1,1.6-1.5c2-1,3.8-2.2,5.6-3.5c2.1-1.5,4.4-2.7,6.8-3.6
		c1.2-0.4,2.3-0.8,3.5-1.1c1.3-0.2,2.6-0.1,3.8,0.5c1.1,0.7,2.1,1.8,2.7,3c1.7,3,2.4,6.6,1.8,10c-0.2,1.8-0.6,3.5-1.1,5.2
		c-0.1,0.3-0.3,0.6-0.5,0.8c-0.2,0.2-0.4,0.5-0.6,0.7c-0.4,0.5-0.8,0.9-1.1,1.2s-0.5,0.6-0.8,0.8l-0.7,0.8c-0.5,0.5-0.9,1-1.5,1.4
		c0.5-0.4,1.1-0.8,1.5-1.3c0.2-0.2,0.4-0.5,0.7-0.7c0.3-0.3,0.5-0.6,0.7-0.8c0.7-0.8,0,1-0.5,1.6c-0.1,0.2-0.3,0.2-0.5,0.3
		s-0.5,0.1-0.5,0.2c-0.3,0.2-0.5,0.4-0.7,0.7c-0.2,0.2-0.5,0.5-0.8,0.8s-0.4-0.2-0.5,0c-0.4,0.3-0.7,0.6-1,1
		c-0.2,0.3-0.6,0.5-0.9,0.7c-0.5,0.1-1,0.2-1.4,0.3c-0.3,0.1-0.6,0.2-0.8,0.3l-0.5,0.3c0.2,0.1,0.3,0.2,0.4,0.4
		c-0.3,0.1-0.7,0.1-1,0.1c0.3-0.1,0.7,0,1-0.1c-0.1-0.2-0.2-0.3-0.4-0.4c-1.3,0.7-2.7,1.2-4.2,1.5l0,0c0.9-0.1,1.8-0.1,2.7,0
		c-0.4,0-0.4-0.2,0-0.3c0.1,0,0.3,0.1,0.4,0.2c-0.7,0.4-1.5,0.5-2.3,0.3c0,0-0.3,0.2-0.5,0.2s-0.2-0.2-0.3-0.3h-0.5
		c0.3,0.2,0.6,0.3,0.9,0.4L631.3,572.2z"/>
	<path class="st2" d="M640.1,569.2c-0.1,0.1-0.2,0.2-0.4,0.3l1.5-0.9C640.9,568.6,640.5,568.9,640.1,569.2z"/>
</g>
<path class="st3" d="M638.6,564.9c3.5-0.8,5.8-4.3,5-7.8c-0.8-3.5-3.4-3.4-6.9-2.7s-6.7,1.9-5.9,5.5
	C631.5,563.4,635,565.6,638.6,564.9C638.6,564.9,638.6,564.9,638.6,564.9z"/>
<g class="st1">
	<path class="st2" d="M635.6,564.5c-0.1,0-0.2-0.1-0.3-0.1c0.1,0,0.1,0.1,0.2,0.2C635.5,564.5,635.5,564.5,635.6,564.5z"/>
	<path class="st2" d="M634.9,564.2L634.9,564.2h-0.1H634.9z"/>
	<path class="st2" d="M634.3,564c0.1,0.1,0.2,0.1,0.3,0.1C634.5,564.1,634.4,564,634.3,564z"/>
	<path class="st2" d="M634.8,564.3C634.8,564.3,634.8,564.2,634.8,564.3L634.8,564.3l-0.1-0.1C634.7,564.2,634.7,564.2,634.8,564.3z
		"/>
	<path class="st2" d="M634.8,564.3c0,0,0.1,0.1,0.1,0.1L634.8,564.3z"/>
	<path class="st2" d="M634.3,565c-0.1,0,0-0.2-0.1-0.2c-0.3-0.1-0.6-0.2-0.9-0.3c-0.2,0-0.2-0.4-0.3-0.4c-0.3-0.1-1.2-0.5-0.8-0.2
		c0.5,0.4,1.1,0.8,1.7,1.1c0.5,0.2,1.1,0.3,1.7,0.3c0.1,0,0.3,0.1,0.4,0.1l-0.6-0.2C635.2,564.9,634.7,565.1,634.3,565z"/>
	<path class="st2" d="M638.3,564.7l-0.2,0.1c-0.3-0.1-0.6-0.1-0.9,0l0.1,0.1c0.2,0,0.2-0.1,0-0.1c0.3,0.1,0.7,0.1,1.1,0
		C638.4,564.8,638.4,564.7,638.3,564.7z"/>
	<path class="st2" d="M638.6,564.8h-0.2l0,0H638.6L638.6,564.8z"/>
	<path class="st2" d="M633.1,563.4c-0.6-0.5-1.2-1.2-1.5-2c-0.1,0-0.1,0-0.2-0.1c0-0.1,0-0.1,0-0.2c0-0.1-0.1-0.2-0.1-0.3l-0.1-0.1
		l0,0c0,0-0.1,0-0.1,0c0,0,0,0.1,0,0.2c0,0,0-0.1,0-0.2c0-0.1,0-0.1,0-0.2c-0.1-0.1-0.1-0.2-0.1-0.3c0.1,0.1,0.1,0.2,0.1,0.3
		l0.1,0.2v0c-0.1-0.3-0.2-0.5-0.2-0.8l-0.1-0.2c-0.1-0.2-0.1-0.4,0-0.5c0,0,0-0.1,0-0.1l0,0l0,0c0-0.2,0-0.4,0-0.6s-0.1-0.3-0.1-0.4
		l0.2-0.1c0-0.1-0.1-0.2-0.1-0.2c-0.1,0.1-0.2,0.2-0.3,0.2c-0.1,0.1,0.2,0.3,0,0.5c0.2-0.1-0.1-0.4,0-0.5c0.1-0.1,0.2-0.2,0.3-0.2
		c0-0.2,0.2-0.4,0.3-0.5c0,0.3-0.2,0.4-0.3,0.5c0,0.1,0,0.2,0.1,0.2l-0.2,0.1c0,0.1,0.1,0.3,0.1,0.4c0.1-0.4,0.2-0.7,0.3-1.1
		c0.7-1,1.8-1.7,3-2c1.2-0.4,2.5-0.7,3.8-0.8c1.4-0.2,2.9-0.1,3.7,0.6c0.4,0.4,0.6,0.8,0.8,1.3c0.2,0.5,0.3,1.1,0.3,1.7
		c0,1.2-0.4,2.3-1.3,3.1c-0.4,0.4-0.8,0.8-1.2,1.1c-0.4,0.3-0.9,0.6-1.4,0.8c-0.3,0.2-0.5,0.6-0.5,1c0.1,0.2,0.2,0.4,0.4,0.5
		c0.5,0.3,1,0.3,1.5,0.1c0.7-0.3,1.4-0.6,2-1c-0.6,0.4-0.5,0.1-0.1-0.3c0.5-0.5,1-1,1.6-1.5c0.9-0.8,1.4-1.9,1.4-3.1
		c0-0.6,0-1.3-0.2-1.9c-0.1-0.6-0.3-1.2-0.5-1.8c-0.3-0.7-0.8-1.4-1.5-1.8c-0.9-0.7-1.9-1-3-1c-0.9,0-1.7,0.1-2.6,0.3
		c-1.7,0.3-3.3,0.8-4.9,1.5c-0.9,0.5-1.6,1.2-2.1,2.1c-0.4,0.6-0.7,1.2-0.8,1.9c-0.1,0.8,0,1.5,0.4,2.2c-0.3-0.7-0.4-1.4-0.3-2.2
		c0.1-0.6,0.2,0.5,0.3,0.8c0,0.2-0.2,0.4-0.1,0.6c0.1,0.3,0.2,0.6,0.4,0.9c0.1,0.1-0.2,0.2-0.1,0.2c0.2,0.5,0.6,0.7,0.7,0.9
		c0.1,0.2,0.1,0.4,0.2,0.6c0.1,0.1,0.1,0.2,0.2,0.3l0.2,0.2c0-0.1,0.1-0.2,0.1-0.2c0.1,0.1,0.1,0.3,0.2,0.4
		c-0.1-0.1-0.1-0.3-0.2-0.4c-0.1,0.1-0.1,0.1-0.1,0.2c0.5,0.4,1,0.8,1.6,1.1l0,0c-0.3-0.2-0.6-0.5-0.7-0.8c0.1,0.2,0,0.2-0.1,0.1
		v-0.2c0.3,0.2,0.5,0.3,0.7,0.7l0.2,0.1c0.1,0.1,0,0.1,0,0.2l0.2,0.1c0-0.1-0.1-0.2-0.2-0.4L633.1,563.4z"/>
	<path class="st2" d="M631.1,560.5c0,0.1,0,0.1,0.1,0.2c-0.1-0.2-0.1-0.4-0.2-0.6C630.9,560.1,631,560.3,631.1,560.5z"/>
</g>
<g class="st1">
	<path class="st2" d="M499.1,552.4c1.3,1.5,2.7,3.1,4,4.7c-0.7-0.8-1.3-1.7-1.8-2.5C500.7,553.6,499.9,552.9,499.1,552.4z"/>
	<path class="st2" d="M507.1,561.1c0.3,0.3,0.5,0.5,0.8,0.8l0.8,0.6C508.1,562,507.6,561.6,507.1,561.1z"/>
	<path class="st2" d="M515.3,568c-0.7-0.6-1.4-1.2-2.1-1.8l-1.1-0.8l-1-0.9C512.4,565.8,513.8,567,515.3,568z"/>
	<path class="st2" d="M509,562.2c0.4,0.5,0.5,0.9-0.4,0.2l0,0l2.5,2.1C510.3,563.7,509.6,562.9,509,562.2z"/>
	<path class="st2" d="M509,562.2c-0.4-0.5-1-1.3-1.2-1.6C508.1,561.1,508.5,561.7,509,562.2z"/>
	<path class="st2" d="M513.3,561.5c0.3,0.2,0.5,0.6,0.5,1c0.1,0.4,0.3,0.8,1.2,1.4l2.9,2.1c0.5,0.3,0.9,0.7,1.4,1l1.4,0.9
		c1.9,1.2,3.7,2.4,5.6,3.6c1.1,0.6,2.1,1.4,3,2.3c0.9,0.8,1.9,1.6,3.1,2.1c2.9,1.4,5.8,2.6,8.9,3.5c0.8,0.3,1.7,0.5,2.6,0.6
		c0.2,0-0.3-0.3-2-1c-4.4-1.9-8.7-4-12.8-6.4c-3.9-2.3-7.7-4.8-11.2-7.6c-6.5-4.7-12.5-10.1-17.8-16.1c-1.4-1.7-2.8-3.5-4-5.4
		l1.1,1.8l1.3,1.8c0.9,1.2,1.7,2.5,2.7,3.8c0.7,0.9,1.5,1.7,2.3,2.5c0.4,0.4,0.9,0.8,1.3,1.3s1,0.8,1.5,1.2c1,0.8,2.1,1.7,3.3,2.7
		S512,560.5,513.3,561.5z"/>
	<path class="st2" d="M478.7,512.3l1.1,3c0.1,1.2,0.4,2.4,0.7,3.5c0.3,1.2,0.7,2.4,1.1,3.5c0.9,2.3,2,4.6,3.2,6.7
		c-0.2-0.7-0.4-1.5-0.5-2.2c-1.2-2.6-1.5-2.8-0.8-0.4c-1.8-5.6-3.4-10.8-4.7-16.2C478.8,510.8,478.4,510.8,478.7,512.3z"/>
	<path class="st2" d="M478.3,507.2l0.7,3.2c0,0,0-0.1,0.1-0.1c-0.2-1.1-0.5-2.1-0.8-3.2V507.2z"/>
	<path class="st2" d="M534.7,579.6c12.1,6,25,10.1,38.4,12.2c1-0.1,2-0.1,3,0.1c1,0.3,2,0.6,3,0.7c1.9,0.2,3.8,0.4,5.7,0.5l2,0l0,0
		c1.1,0,0.8-0.2,0.1-0.4s-1.4-0.3-2-0.5c0.4,0.1,1.3,0.3,2,0.5c1,0.2,2,0.3,3,0.4h5.4c-1.8,0.2-3.6,0.2-5.4,0c-1.1,0-2.2,0.1-3.2,0
		h-0.9c4.3,0.3,8.7,0.3,13,0.2l2.7-0.3c3.1-0.3,6.2-0.9,8.2-0.7c0.8-0.1,1.5-0.3,2.3-0.4h-0.5l0.9-0.1c1.6-0.3,3.2-0.5,4.8-0.9
		l2.4-0.5c0.8-0.2,1.6-0.4,2.4-0.6l3-1.2c0.5-0.2,1-0.4,1.5-0.6l1.5-0.7l2.2-0.3c0.4-0.3,0.9-0.6,1.4-0.8c0.5-0.3,1.1-0.7,1.8-1
		c-1.7,0.5-3.3,0.7-4.8,1.1c-1.2,0.3-2.3,0.8-3.3,1.4c-1.1,0.6-2.4,1-3.8,1c1.3,0,2.6-0.4,3.8-1c1-0.6,2.1-1.1,3.3-1.4
		c1.5-0.3,3.1-0.6,4.8-1.1c0.7-0.3,1.4-0.7,2.2-1.1s1.6-0.7,2.4-1.1c1.6-0.8,3.3-1.5,4.8-2c-1.5,1-3.2,2-4.9,2.7
		c-1.5,0.6-3,1.1-4.6,1.5c-0.7,0.3-1.3,0.7-1.8,1c-0.5,0.2-0.9,0.5-1.4,0.8l-2.2,0.3l-1.5,0.7c-0.5,0.2-1,0.4-1.5,0.6l-3,1.2
		c6.3-1.7,12.5-4.1,18.3-7.1c2.4-1.2,4.7-2.6,7-4c1.2-0.7,2.2-1.5,3.3-2.2s2.2-1.5,3.2-2.3c4.2-3.2,8.1-6.7,11.7-10.5
		c7.1-7.6,13.2-16.1,18.1-25.3l1.9-3.4l1.7-3.5l1.7-3.5c0.6-1.2,1-2.4,1.5-3.6c2-5,3.5-10.1,4.5-15.3c2-10.9,1.7-22-1-32.8
		c-1.5-5.9-3.4-11.6-5.9-17.1c-2.4-5.4-5.2-10.6-8.2-15.7c-6-9.8-12.7-19.2-20-28.1c-14.1-17.6-29.4-32.8-42.5-49.3
		c-3.2-4.1-6.2-8.4-9-12.8c-2.7-4.3-5-8.9-6.8-13.7c-0.8-2.3-1.5-4.8-1.9-7.2c-0.4-2.4-0.6-4.8-0.5-7.2c0.2-5.3,1-10.5,2.2-15.6
		c1.1-4.6,2.5-9.1,4.2-13.5c2.1-5.2,4.7-10.1,7.8-14.8c5.7-8.6,12.9-16.1,21.1-22.2c4-3.4,6.6-5.5,8-7s1.6-2.2,1.2-2.8
		c-0.7-1.1-4-0.6-4.5-0.4c-3.3,0.9-6.5,2.3-9.5,4.1c-3.2,1.9-6.2,4.1-8.9,6.6c-3.5,3.1-6.7,6.4-9.7,9.9c-4.1,4.8-7.8,9.8-11,15.2
		c2.6-4.3,3.7-5.4,3.5-4.7c-0.3,0.8-0.7,1.7-1.1,2.5l-1,2.1c-0.4,0.8-0.8,1.7-1.2,2.6c-2.1,4.6-3.9,9.3-5.5,14.1
		c-1.7,5.3-2.9,10.8-3.9,15.4c-0.4,1.7-0.7,3.4-0.9,5.2c-0.1,0.9-0.2,1.8-0.3,2.7l-0.1,0.7v0.8c0,0.5,0,1,0,1.5
		c-0.1,4.2,0.5,8.4,1.7,12.4c2.4,8.2,6.7,15.8,11.7,22.8c5.1,7,10.5,13.7,16.3,20.1c5.7,6.4,11.3,12.6,16.6,18.7
		s11.1,12.3,17.2,19.6c7.6,9.3,14.6,19,20.9,29.3c3,5,5.7,10.1,8,15.4c2.2,5.2,4,10.7,5.2,16.2c1.2,5.5,1.6,11.2,1.5,16.9
		c-0.2,5.7-1.2,11.4-2.8,16.9c-0.8,2.8-1.9,5.6-3,8.3c-1.2,2.8-2.5,5.6-3.9,8.3c-2.8,5.5-6,10.8-9.6,15.9c-1.8,2.8-3.9,5.2-5.8,7.7
		c-1,1.2-2,2.3-3,3.5l-1.5,1.7c-0.5,0.5-1,1.1-1.5,1.6c-1,1.1-2,2.2-3.1,3.2l-3.2,2.9c-1,1-2.2,1.8-3.3,2.7l-1.7,1.3l-0.8,0.7
		l-0.9,0.6c-3.4,2.3-7.1,4.2-10.8,5.9c-1.9,0.8-3.7,1.6-5.5,2.1s-3.4,1.2-5,1.7c-4.7,1.5-9.5,2.7-14.3,3.6c-2.3,0.3-4.5,0.8-6.8,1
		l-3.3,0.4l-3.3,0.2c1.2-0.1,2.4-0.1,3.5-0.2l3.4-0.3l1.6-0.2l1.6-0.2l3.2-0.5c4.6-0.8,9.2-2,13.7-3.4c3.4-1.1,2.3-0.4-0.2,0.7
		l-2.1,0.9c-0.8,0.3-1.6,0.6-2.4,0.9c-1.4,0.5-2.9,1-4.4,1.4c-1.2,0.3-2.4,0.4-3.7,0.3c-1.2-0.1-2.5,0-3.7,0.2
		c-2.2,0.3-4.3,0.5-6.5,0.9c-1.1,0.2-2.2,0.2-3.3,0.4s-2.3,0.3-3.5,0.3c-2.1,0.2-1.8-0.8-2.9-0.7c-6.6,0-11.8,0.7-16-0.3
		c-3.2-0.7-6-1.3-8.7-2.1c-1.7-0.4-3.4-0.9-5.3-1.4c-1.2-0.2-2.3-0.5-3.5-0.8c0.6,0.3,1,0.8,1.3,1.4c-1.7-0.5-4-1.5-5.7-2.1
		c1.6,0.6,4,1.5,5.7,2.1c-0.3-0.6-0.7-1.1-1.3-1.4c-9.2-2.1-18.2-5.3-26.5-9.7l0.1,0.1c2.5,1.3,4.8,2.7,7.3,4l7.5,3.9
		c-2.2-1.1-1.8-1.3,0.8-0.2l1.9,1.2c-4.7-1.5-9.5-3.2-13.3-6L531,577c-1.3-0.9-1.1-1.1-1.2-1.5c-1-0.5-1.9-1.1-2.8-1.7
		c0.4,0.4,1.1,1,1.9,1.7s1.8,1.2,2.6,1.9l2.3,1.6C534,579.2,534.4,579.4,534.7,579.6z"/>
	<path class="st2" d="M590.1,593.3c-0.8,0-1.7,0-2.7,0c1.8,0.1,3.6,0.1,5.4,0.2s3.6,0,5.5-0.1C596.3,593,593.2,593.3,590.1,593.3z"
		/>
</g>
</svg>
