<?xml version="1.0" encoding="utf-8"?>
<!-- Generator: Adobe Illustrator 25.0.0, SVG Export Plug-In . SVG Version: 6.00 Build 0)  -->
<svg version="1.1" id="Layer_1" xmlns="http://www.w3.org/2000/svg" xmlns:xlink="http://www.w3.org/1999/xlink" x="0px" y="0px"
	 viewBox="0 0 841.9 841.9" style="enable-background:new 0 0 841.9 841.9;" xml:space="preserve">
<style type="text/css">
	.st0{fill:#784936;}
	.st1{opacity:0.85;}
	.st2{fill:#FEFEFE;}
	.st3{fill:#E0CACA;}
</style>
<rect y="0.6" class="st0" width="841.9" height="841.9"/>
<g class="st1">
	<path class="st2" d="M222.4,449.3l-0.6-0.9c0.1,0.2,0.1,0.4,0.1,0.6C221.9,449.3,222.1,449.3,222.4,449.3z"/>
	<path class="st2" d="M221.2,447.6c0-0.1-0.1-0.1-0.1-0.2l-0.2-0.1L221.2,447.6z"/>
	<path class="st2" d="M220.1,446.2c0.1,0.3,0.3,0.6,0.5,0.8C220.5,446.7,220.3,446.4,220.1,446.2z"/>
	<path class="st2" d="M220.6,447.6c0.1-0.2,0.1-0.3,0.4-0.2l0,0l-0.4-0.4C220.6,447.2,220.6,447.4,220.6,447.6z"/>
	<path class="st2" d="M220.6,447.6c-0.1,0.2-0.1,0.4-0.1,0.5C220.6,447.9,220.6,447.7,220.6,447.6z"/>
	<path class="st2" d="M217.4,448.9c-0.2-0.1,0.6-0.6,0.3-0.9s-0.7-0.7-1.1-1.1c-0.3-0.4-0.6-0.8-0.8-1.2c-0.4-0.3,0.4-1.4,0.1-1.7
		c-0.2-0.3-0.4-0.6-0.6-0.9c-0.2-0.3-0.5-0.6-0.7-0.9c-0.5-0.5-0.8-0.8-0.6,0c0.5,2,1.4,4,2.6,5.7c1.1,1.3,2.4,2.5,3.9,3.5
		c0.3,0.3,0.6,0.6,0.9,1c-0.3-0.5-0.6-1-0.9-1.6c-0.2-0.4-0.6-0.6-1.2-0.9C218.5,449.7,217.9,449.4,217.4,448.9z"/>
	<path class="st2" d="M228.3,454.3l-0.6,0.1c-0.2-0.4-0.5-0.8-0.9-1c-0.4-0.2-0.8-0.3-1.3-0.5l0.1,0.6c0.5,0.2,0.7,0,0.4-0.4
		c0.5,0.9,1.4,1.6,2.5,1.9C228.4,454.8,228.5,454.6,228.3,454.3z"/>
	<path class="st2" d="M228.9,455.3l-0.6-0.2v0.1L228.9,455.3L228.9,455.3z"/>
	<path class="st2" d="M217.8,442.8c-0.6-2.4-0.7-4.9-0.1-7.3c-0.1-0.2-0.3-0.4-0.2-0.6c0.2-0.1,0.3-0.3,0.4-0.5
		c0.1-0.3,0.2-0.7,0.3-1c0-0.1,0-0.2,0-0.4l0,0c-0.1-0.2-0.2-0.2-0.4-0.1c-0.1,0.1-0.3,0.2-0.4,0.2c0.1,0,0.3-0.2,0.4-0.2
		c0.2-0.1,0.3-0.3,0.4-0.5c0.1-0.3,0.2-0.6,0.4-0.9c0,0.3-0.1,0.6-0.4,0.9v0.6v0.2c0.3-0.7,0.6-1.4,1-2.1c0-0.2,0.1-0.3,0.1-0.5
		c0.2-0.5,0.3-1.1,0.9-1.2l0.3-0.3h-0.1l0.2-0.1c0.3-0.5,0.7-0.9,1.1-1.3c0.1-0.4,0.2-0.8,0.4-1.2l0.6,0.1c-0.1-0.3,0-0.6,0.1-0.8
		c-0.4,0-0.8,0-1.2,0c-0.7,0,0.1,1.3-0.9,1.1c1,0.2,0.2-1.1,0.9-1.1c0.4,0,0.8,0,1.2,0c0.4-0.6,1-0.9,1.7-0.8
		c-0.3,0.8-1,0.8-1.7,0.8c-0.1,0.2-0.2,0.5-0.1,0.8l-0.6-0.1c-0.1,0.4-0.3,0.8-0.4,1.2c0.4-0.4,0.8-0.8,1.2-1.1
		c0.4-0.4,0.9-0.7,1.4-1c3-2,6.4-3.1,10-3.1c3.5,0,7,1.2,9.8,3.3c2.9,2.3,4.8,5.7,5.2,9.4c0.2,1.6,0.1,3.2-0.1,4.9
		c-0.2,1.5-0.6,3-1.3,4.4c-0.7,1.4-1.7,2.6-2.9,3.5c-1.2,0.9-2.7,1.5-4.3,1.6c-1.2,0.1-2.6,0.5-4.1,0.7c-1.3,0.2-2.7,0.2-4.1,0
		c-1.4,0.4-2.4,1.4-2.9,2.8c-0.3,0.8-0.3,1.7-0.2,2.5c0.2,0.9,0.7,1.6,1.4,2.2c0.3,0.2,0.6,0.4,1,0.6c0.4,0.2,0.7,0.3,1.1,0.4
		c1.6,0.4,3.6,0.5,6.9,0.9c-2.2-0.2-1.5-0.9,0.2-1.3c2.1-0.7,4.3-1.1,6.5-1.2c3.5,0.1,6.9-2.6,8.8-6.2c1.9-3.6,2.7-7.8,3.2-11.6
		c0.1-0.5,0.1-1,0.1-1.5c0-0.5-0.1-1-0.1-1.6c-0.1-0.5-0.1-1.1-0.3-1.6c-0.1-0.5-0.2-1.1-0.4-1.7c-1.1-6.1-4.8-11.3-10.1-14.3
		c-5.4-3-11.6-4.1-17.7-2.9c-3.4,0.7-5.7,2.8-7.7,4.6l-1.2,0.9c-0.4,0.3-0.8,0.5-1.2,0.9c-0.8,0.5-1.5,1.1-2.1,1.8
		c-0.8,0.9-1.5,1.9-2,3c-0.4,1-0.8,2-1,3.1c0.6-2.1,1.7-4.1,3-5.8c0.6-0.7,0.6-0.2,0.4,0.5c-0.1,0.4-0.2,0.8-0.3,1.2s-0.2,0.8-0.3,1
		c-0.1,0.5-1.4,0.5-1.4,1c-0.2,0.4-0.4,0.9-0.5,1.4c-0.1,0.5-0.1,1-0.2,1.6s-0.9,0.1-0.8,0.4c-0.1,0.7,0,1.4,0.1,2.1
		c0.2,0.5,0.3,1.1,0.1,1.6c-0.3,0.6-0.5,1.2-0.7,1.9c-0.1,0.4-0.2,0.8-0.1,1.2l0.2,0.8c0.3-0.2,0.6-0.3,1-0.3c0,0.4-0.3,0.9-0.3,1.2
		c0-0.4,0.2-0.9,0.3-1.2c-0.4,0-0.7,0.2-1,0.3c0.6,1.9,1.4,3.8,2.4,5.5h0.1c-0.5-1-0.5-2.2-0.2-3.3c-0.1,0.5-0.4,0.5-0.5,0l0.4-0.5
		c0.1,0.2,0.2,0.5,0.3,0.7c0.1,0.2,0.2,0.4,0.2,0.7c0.1,0.5,0.1,1-0.1,1.4l0.5,0.5c0,0.3-0.3,0.4-0.6,0.5c0.1,0.2,0.2,0.4,0.3,0.6
		c0.2-0.4,0.3-0.8,0.4-1.3C217.8,443.1,217.8,442.8,217.8,442.8z"/>
	<path class="st2" d="M218.4,432.5c0,0.1,0,0.3-0.1,0.5c0.2-0.6,0.5-1.2,0.9-1.8C218.6,431.3,218.5,431.9,218.4,432.5z"/>
</g>
<circle class="st3" cx="235.4" cy="438.7" r="8.2"/>
<g class="st1">
	<path class="st2" d="M228.1,432.6l-0.4,0.4c0.2,0,0.3,0,0.5,0C228.3,432.9,228.2,432.8,228.1,432.6z"/>
	<path class="st2" d="M227.4,433.4L227.4,433.4l-0.1,0.2C227.3,433.6,227.3,433.5,227.4,433.4z"/>
	<path class="st2" d="M227,434.5c0.1-0.1,0.2-0.3,0.2-0.5C227.1,434.1,227,434.3,227,434.5z"/>
	<path class="st2" d="M227.6,433.9c-0.1,0-0.3-0.1-0.3-0.2l0,0l-0.1,0.3C227.4,433.9,227.5,433.9,227.6,433.9z"/>
	<path class="st2" d="M227.6,433.9c0.1,0,0.3,0,0.4,0H227.6z"/>
	<path class="st2" d="M230.4,435.8c0.1,0.1-0.8-0.4-0.6-0.1c0.1,0.4,0.4,0.8,0.3,1.1c0.1,0.2-0.9,0-0.7,0.2c0.2,0.3,0.4,0.6,0.7,0.8
		c0.3,0.2,0.6,0.3,0.6,0.1c-0.1-0.5-0.1-1.1-0.1-1.6c-0.2-0.6-0.2-1.3-0.1-1.9c0.1-0.1,0.2-0.2,0.4-0.3c-0.3,0-0.5,0.1-0.8,0.2
		c-0.2,0-0.1,0.3,0,0.6C230.3,435.1,230.4,435.5,230.4,435.8z"/>
	<path class="st2" d="M231.9,430.5c0,0.1-0.1,0.4-0.1,0.4c-0.7-0.4-1,0-1.2,0.5l0.4,0.3c0.2-0.2,0.1-0.4-0.2-0.5
		c0.5,0.2,1.1,0.1,1.6-0.2C232.1,430.8,232,430.5,231.9,430.5z"/>
	<path class="st2" d="M232.5,430.9c-0.1,0.1-0.1,0.1-0.2,0.2v0.1L232.5,430.9L232.5,430.9z"/>
	<path class="st2" d="M227.1,436.7c-0.2,1.2-0.3,2.4-0.2,3.5c0.2,0,0.4,0.1,0.3,0.2c-0.1,0.1-0.2,0.2-0.3,0.3c0,0.2,0.1,0.3,0.1,0.5
		l0.1,0.1l0,0c0.1,0,0.3,0,0.4-0.1c0.1-0.1,0.2-0.2,0.3-0.3l-0.3,0.3c-0.1,0.1-0.1,0.2-0.2,0.3c0.1,0.1,0.2,0.3,0.2,0.4
		c-0.1-0.1-0.2-0.2-0.2-0.4l-0.2-0.2l-0.1,0c0.1,0.4,0.2,0.8,0.3,1.1c0.1,0.1,0.1,0.1,0.2,0.2c0.3,0.2,0.5,0.4,0.2,0.8l0.1,0.2v-0.1
		c0,0,0,0.1,0,0.1c0.1,0.3,0.3,0.5,0.4,0.8c0.3,0,0.5,0,0.8,0.1c0,0-0.1,0.3-0.2,0.5c0.2-0.1,0.4-0.1,0.6-0.1
		c0.1-0.3,0.2-0.6,0.3-0.9c0.2-0.4-1,0.3-0.4-0.4c-0.5,0.8,0.7,0,0.4,0.4c-0.1,0.2-0.2,0.5-0.3,0.9c0.3,0.1,0.5,0.4,0.4,1
		c-0.6,0.1-0.6-0.4-0.4-1c-0.2,0-0.4,0-0.6,0.1c0.1-0.2,0.2-0.5,0.2-0.5c-0.3,0-0.5-0.1-0.8-0.1c0.3,0.5,0.7,1,1.1,1.5
		c1.5,1.5,3.4,2.5,5.5,2.6c2.2,0.2,4.4-0.4,6.4-1.5c2.3-1.3,4.2-3.3,5.3-5.7c1.1-2.5,1-5.4-0.1-7.9c-1.2-2.7-2.9-5.2-4.9-7.3
		c-1.2-1.1-2.8-1.8-4.5-1.9c-1.6-0.2-3.3,0-4.8,0.4c-1.1,0.9-1.4,2.5-0.7,3.8c0.3,0.8,0.7,1.5,1.2,2.2c0.4,0.5,0.8,1,1.2,1.5
		c0.2,0.2,0.5,0.4,0.8,0.5c0.8,0.1,1.4,0.6,1.6,1.4c-0.3-0.7-0.1-1.2,0.4-1.2s1.2,0.7,0.9,1.9c-0.5,1.9-0.5,2.1-0.1,2.4
		s1,0.8,0.6,1.3c-0.2,0.2-0.1,0.5-0.2,0.7c-0.5,0.3-1,0.8-1.3,1.3c-0.4,0.6-1.1,0.9-1.8,0.7c-0.3,0-1,0.6-1.7,0.7
		c-0.4-0.1-0.4-0.7-0.5-0.9c-0.4-0.3-0.8-0.5-1.3-0.6c0.3,0.3,0.7,0.6,1.1,0.8c0.1,0.1-0.1,0.3-0.5,0.4c-0.3,0.1-0.7,0.2-1,0.1
		c-0.2,0,0.6-0.7,0.3-0.7c-0.1-0.2-0.6-0.2-1-0.4s0.6-0.4,0.5-0.4c-0.3-0.1-0.6-0.2-0.9-0.2c-0.3-0.1-0.6-0.2-0.5-0.3
		c0.1-0.2,0.2-0.4,0.4-0.6c0-0.1,0-0.2,0-0.3l-0.2-0.2c-0.3,0.1-0.7,0.1-1,0.1c0-0.1,0.2-0.3,0.3-0.4c-0.1,0.1-0.3,0.3-0.3,0.4
		c0.3,0,0.7-0.1,1-0.1c-0.6-0.6-1-1.3-1.2-2.1h-0.1c0,0.5-0.4,1-0.9,1.2c0.2-0.2,0.5-0.1,0.5,0.1l-0.5,0.1c-0.2-0.4-0.4-0.9,0.3-1.1
		l-0.2-0.3c0.2-0.1,0.4,0,0.7,0.1v-0.3c-0.3,0-0.6,0.1-0.8,0.2C227.4,436.5,227.3,436.6,227.1,436.7z"/>
	<path class="st2" d="M227.4,441.7c-0.1-0.1-0.1-0.1-0.1-0.2c0.1,0.3,0.1,0.6,0.2,1C227.9,442.1,227.7,441.9,227.4,441.7z"/>
</g>
<g class="st1">
	<path class="st2" d="M619.8,418.2l1,0.4c-0.2-0.1-0.3-0.3-0.4-0.5C620.2,417.9,620,418,619.8,418.2z"/>
	<path class="st2" d="M621.6,418.9l0.2,0.1h0.2C621.9,419,621.8,418.9,621.6,418.9z"/>
	<path class="st2" d="M623.4,419.5c-0.3-0.2-0.5-0.3-0.8-0.4C622.8,419.3,623.1,419.4,623.4,419.5z"/>
	<path class="st2" d="M622.2,418.6c0,0.2,0,0.3-0.2,0.4l0,0l0.6,0.1C622.4,418.9,622.3,418.8,622.2,418.6z"/>
	<path class="st2" d="M622.2,418.6c0-0.2-0.2-0.4-0.2-0.5C622,418.3,622.1,418.5,622.2,418.6z"/>
	<path class="st2" d="M624,415.7c0.2,0-0.2,0.9,0.3,0.9s1,0.2,1.5,0.3c0.5,0.1,0.9,0.3,1.3,0.6c0.5,0.1,0.4,1.4,0.9,1.5
		c0.2,0.1,0.6,0.2,1,0.4c0.4,0.1,0.7,0.3,1.1,0.4c0.7,0.2,1.1,0.2,0.5-0.4c-1.6-1.4-3.4-2.5-5.3-3.2c-1.7-0.4-3.4-0.7-5.2-0.7
		c-0.5-0.1-0.9-0.2-1.3-0.4c0.5,0.3,1.1,0.5,1.7,0.8c0.4,0.2,0.9,0.1,1.5,0C622.7,415.5,623.3,415.6,624,415.7z"/>
	<path class="st2" d="M612,417.4l0.5-0.4c0.4,0.2,0.9,0.3,1.3,0.3c0.4-0.1,0.9-0.2,1.3-0.4l-0.4-0.5c-0.5,0.1-0.6,0.4-0.1,0.5
		c-1-0.5-2.1-0.5-3.1-0.2C611.7,417,611.7,417.3,612,417.4z"/>
	<path class="st2" d="M611,416.9l0.6-0.2v-0.1L611,416.9L611,416.9z"/>
	<path class="st2" d="M627.2,421c1.9,1.6,3.3,3.6,4.2,5.9c0.2,0.1,0.5,0.1,0.5,0.4c-0.1,0.2-0.1,0.4-0.1,0.6c0.1,0.3,0.2,0.7,0.3,1
		l0.2,0.3l0,0c0.2,0.1,0.3,0.1,0.4-0.1c0.1-0.2,0.1-0.3,0.2-0.5c-0.1,0.1-0.1,0.3-0.2,0.5c-0.1,0.2-0.1,0.4-0.1,0.6
		c0.1,0.3,0.2,0.7,0.2,1c-0.2-0.3-0.3-0.7-0.2-1l-0.3-0.5l-0.1-0.1c0.2,0.8,0.3,1.5,0.4,2.3c0.1,0.2,0.1,0.3,0.1,0.5
		c0.2,0.5,0.4,1.1-0.1,1.5c0,0.1,0,0.3,0,0.4l0.1-0.1l-0.1,0.2c0,0.6-0.1,1.1-0.2,1.7c0.2,0.4,0.3,0.8,0.4,1.2l-0.5,0.3
		c0.2,0.2,0.3,0.5,0.3,0.7c0.3-0.2,0.7-0.5,1-0.7c0.6-0.3-0.8-1,0.1-1.4c-1,0.4,0.4,1.1-0.1,1.4c-0.3,0.3-0.7,0.5-1,0.7
		c0,0.7-0.4,1.3-1,1.6c-0.2-0.8,0.4-1.2,1-1.6c0-0.3-0.1-0.5-0.3-0.7l0.5-0.3c-0.1-0.4-0.2-0.8-0.4-1.2c-0.1,0.6-0.2,1.1-0.4,1.6
		c-0.1,0.6-0.3,1.1-0.5,1.6c-1.3,3.3-3.6,6.2-6.5,8.2c-2.9,2-6.4,3-10,2.8c-3.7-0.2-7.2-1.9-9.6-4.8c-1-1.2-2-2.6-2.7-4
		c-0.7-1.4-1.2-2.9-1.4-4.4c-0.2-1.5-0.1-3.1,0.4-4.5c0.5-1.5,1.4-2.8,2.6-3.7c0.9-0.8,1.9-1.9,3-2.9c1-0.9,2.1-1.7,3.4-2.3
		c0.9-1.1,1.2-2.6,0.8-3.9c-0.2-0.8-0.7-1.6-1.3-2.2c-0.7-0.6-1.5-0.9-2.4-1c-0.4,0-0.8,0-1.1,0.1c-0.4,0.1-0.8,0.2-1.1,0.4
		c-2.1,0.9-4.2,2-6.2,3.1c1.9-1.1,1.7-0.1,0.6,1.2c-1.4,1.8-2.9,3.3-4.7,4.7c-2.9,1.9-4.2,6-3.7,10.1s2.2,8,4,11.4
		c0.2,0.4,0.5,0.9,0.8,1.3s0.6,0.8,1,1.2c0.3,0.4,0.7,0.8,1.1,1.2c0.4,0.4,0.8,0.8,1.2,1.2c4.3,4.4,10.4,6.6,16.5,6
		c6.1-0.6,11.9-3.2,16.2-7.6c2.4-2.5,3.2-5.5,3.7-8.2l0.5-1.4c0.2-0.5,0.4-0.9,0.5-1.4c0.3-0.9,0.6-1.7,0.7-2.6
		c0.1-1.2,0.1-2.4-0.1-3.6c-0.2-1.1-0.5-2.1-0.9-3.1c0.7,2.1,0.9,4.3,0.8,6.5c-0.1,0.9-0.3,0.5-0.6-0.2c-0.1-0.3-0.3-0.8-0.4-1.1
		c-0.1-0.3-0.2-0.7-0.3-1c-0.2-0.4,0.9-1.2,0.6-1.7c-0.1-0.5-0.2-1-0.4-1.5c-0.2-0.5-0.5-0.9-0.7-1.4s0.7-0.6,0.5-0.8
		c-0.3-0.6-0.8-1.2-1.3-1.6c-0.5-0.4-0.9-0.8-1-1.3c-0.1-0.6-0.3-1.3-0.5-1.9c-0.1-0.4-0.3-0.7-0.6-1l-0.6-0.5
		c-0.1,0.3-0.4,0.6-0.6,0.9c-0.2-0.3-0.3-0.9-0.5-1.2c0.2,0.3,0.3,0.9,0.5,1.2c0.3-0.2,0.5-0.5,0.6-0.9c-1.6-1.3-3.3-2.3-5.1-3.2
		v0.1c1,0.6,1.7,1.5,2,2.6c-0.2-0.5,0.1-0.6,0.5-0.3l-0.1,0.6c-0.2-0.1-0.4-0.3-0.6-0.4c-0.2-0.1-0.4-0.3-0.6-0.4
		c-0.4-0.3-0.6-0.8-0.7-1.2l-0.7-0.1c-0.1-0.3,0-0.5,0.2-0.8c-0.2-0.1-0.4-0.2-0.6-0.3c0.1,0.4,0.2,0.8,0.4,1.2
		C627,420.7,627.2,421,627.2,421z"/>
	<path class="st2" d="M632.5,429.8c-0.1-0.1-0.1-0.3-0.2-0.5c0.1,0.6,0.2,1.3,0.3,1.9C633,430.9,632.8,430.3,632.5,429.8z"/>
</g>
<circle class="st3" cx="615" cy="434.3" r="8.2"/>
<g class="st1">
	<path class="st2" d="M624.5,435.2l0.1-0.6c-0.1,0.1-0.2,0.2-0.4,0.3C624.1,435,624.3,435.1,624.5,435.2z"/>
	<path class="st2" d="M624.6,434c0,0,0-0.1,0-0.1l-0.1-0.1C624.6,433.9,624.6,434,624.6,434z"/>
	<path class="st2" d="M624.3,433c0,0.2,0,0.4,0.1,0.5C624.5,433.3,624.4,433.1,624.3,433z"/>
	<path class="st2" d="M624.2,433.9c0.1-0.1,0.3-0.1,0.4,0l0,0l-0.1-0.3C624.4,433.7,624.3,433.8,624.2,433.9z"/>
	<path class="st2" d="M624.2,433.9c-0.1,0.1-0.3,0.2-0.3,0.2C623.9,434,624,433.9,624.2,433.9z"/>
	<path class="st2" d="M620.8,433.9c-0.1,0,0.8-0.1,0.6-0.2c-0.3-0.3-0.8-0.5-0.8-0.7c-0.2,0,0.7-0.5,0.5-0.6c-0.3-0.2-0.7-0.2-1-0.2
		c-0.4,0-0.7,0.1-0.6,0.2c0.4,0.4,0.7,0.8,1,1.3c0.5,0.4,0.9,0.9,1.2,1.5c0,0.2-0.1,0.3-0.2,0.4c0.2-0.2,0.4-0.4,0.5-0.6
		c0.1-0.1-0.1-0.3-0.4-0.5S620.9,434.1,620.8,433.9z"/>
	<path class="st2" d="M622.6,439l-0.1-0.4c0.8,0,0.8-0.6,0.7-1.1h-0.5c0,0.2,0.2,0.4,0.5,0.3c-0.5,0.1-1,0.5-1.2,1
		C622.2,438.9,622.4,439.1,622.6,439z"/>
	<path class="st2" d="M621.8,439.1c0-0.1,0.1-0.2,0.1-0.3h-0.1L621.8,439.1L621.8,439.1z"/>
	<path class="st2" d="M623,431.2c-0.5-1.1-1.1-2.1-1.9-3c-0.2,0.1-0.4,0.2-0.4,0c0-0.1,0-0.3,0-0.4c-0.1-0.1-0.2-0.2-0.4-0.4h-0.2
		l0,0c-0.1,0-0.2,0.2-0.2,0.3c0,0.1,0,0.3-0.1,0.4c0-0.1,0-0.2,0.1-0.4c0-0.1,0-0.3,0-0.4c-0.2,0-0.3-0.1-0.4-0.2
		c0.2,0,0.3,0.1,0.4,0.2l0.3,0.1h0.1c-0.3-0.3-0.6-0.5-0.9-0.8c-0.1,0-0.2,0-0.3,0c-0.3,0-0.6,0-0.6-0.5l-0.2-0.1c0,0,0,0.1,0,0.1
		c0,0,0-0.1,0-0.1c-0.3-0.2-0.5-0.3-0.8-0.4c-0.2,0.1-0.5,0.3-0.7,0.4c0,0-0.1-0.3-0.1-0.5c-0.1,0.2-0.2,0.3-0.4,0.4
		c0.1,0.3,0.2,0.6,0.3,0.9c0,0.5,0.6-0.8,0.6,0.1c0-0.9-0.5,0.4-0.6-0.1c-0.1-0.2-0.2-0.5-0.3-0.9c-0.3,0.1-0.6-0.1-0.9-0.6
		c0.4-0.4,0.7,0,0.9,0.6c0.2-0.1,0.3-0.2,0.4-0.4c0,0.2,0.1,0.5,0.1,0.5c0.2-0.1,0.5-0.2,0.7-0.4c-0.6-0.3-1.2-0.5-1.8-0.6
		c-2-0.4-4.2-0.1-6,1c-1.9,1.1-3.5,2.8-4.4,4.8c-1.2,2.4-1.6,5.1-1.2,7.7c0.6,2.7,2.2,5,4.6,6.4c2.5,1.6,5.3,2.7,8.2,3.2
		c1.7,0.2,3.3-0.2,4.8-1c1.4-0.8,2.7-1.8,3.7-3.1c0.5-1.8-0.6-2.8-1.6-3.5c-0.7-0.5-1.4-0.8-2.2-1.1c-0.6-0.2-1.2-0.4-1.8-0.5
		c-0.3-0.1-0.6-0.1-0.9,0c-0.7,0.3-1.5,0.3-2.1-0.2c0.7,0.4,0.8,0.9,0.3,1.2s-1.4,0.1-1.8-1c-0.7-1.8-0.8-2-1.3-2.1s-1.3,0-1.2-0.7
		c0-0.3-0.2-0.4-0.2-0.7c0.3-0.6,0.4-1.2,0.4-1.8c0-0.7,0.4-1.3,1.1-1.6c0.3-0.1,0.5-1.1,1-1.6c0.4-0.1,0.7,0.4,0.9,0.4
		c0.5,0,1,0,1.4-0.2c-0.5-0.1-0.9-0.1-1.4,0c-0.2,0,0-0.3,0.2-0.6c0.2-0.3,0.4-0.5,0.7-0.7c0.2-0.1,0,0.9,0.1,0.7
		c0.2,0.1,0.6-0.2,1-0.2c0.2-0.1-0.3,0.7-0.2,0.6c0.3-0.1,0.6-0.2,0.9-0.3c0.3-0.1,0.6-0.2,0.6,0c0,0.2,0,0.5,0,0.7
		c0,0.1,0.1,0.2,0.2,0.3h0.3c0.2-0.2,0.5-0.5,0.8-0.7c0,0.2,0,0.3,0,0.5c0-0.2,0-0.3,0-0.5c-0.3,0.2-0.5,0.4-0.8,0.7
		c0.8,0.1,1.6,0.5,2.2,1.1h0.1c-0.3-0.4-0.3-1,0-1.4c-0.1,0.3-0.3,0.4-0.5,0.2l0.3-0.4c0.4,0.2,0.9,0.5,0.4,1.1l0.4,0.1
		c-0.1,0.2-0.4,0.2-0.6,0.4c0,0.1,0.1,0.2,0.2,0.2c0.2-0.2,0.4-0.4,0.5-0.6C622.9,431.5,622.9,431.4,623,431.2z"/>
	<path class="st2" d="M619.9,427.3l0.2,0.1c-0.2-0.2-0.5-0.4-0.7-0.6C619.3,427.2,619.6,427.3,619.9,427.3z"/>
</g>
<g class="st1">
	<path class="st2" d="M378.6,412l-2.9,2.2c0.5-0.3,1.1-0.6,1.6-0.9C377.9,413,378.3,412.6,378.6,412z"/>
	<path class="st2" d="M373.1,416.2l-0.5,0.4c-0.1,0.1-0.3,0.3-0.4,0.4L373.1,416.2z"/>
	<path class="st2" d="M368.1,420.1c0.9-0.6,1.7-1.2,2.6-1.9C369.8,418.8,368.9,419.4,368.1,420.1z"/>
	<path class="st2" d="M372.3,417.4c-0.4,0.1-0.6,0.1-0.2-0.4l0,0l-1.5,1.2C371.2,417.9,371.8,417.6,372.3,417.4z"/>
	<path class="st2" d="M372.3,417.4c0.4-0.1,0.9-0.4,1.1-0.4C373.1,417.1,372.7,417.2,372.3,417.4z"/>
	<path class="st2" d="M373.1,421c-0.5,0.5-0.9-0.4-1.8,0.5c-2,1.9-4.1,3.8-6.3,5.5c-0.9,0.9-3.2,1.1-4.1,2c-1.2,1-3.1,2.8-4.4,4
		s-1.7,1.9,0.1,0.7c5.5-3.9,9-6.6,13.8-10.3c1.9-1.6,3.7-3.2,5.5-4.8s3.6-3.3,5.5-5c1.1-0.9,2.2-1.6,3.2-2.4l-4.6,3
		c-1.2,0.9-2.2,1.9-3.2,3C375.8,418.5,374.5,419.8,373.1,421z"/>
	<path class="st2" d="M399.5,395.5l-1.2,1.5c-2.6,1.3-4.6,3.5-6.7,5.6c0.4-0.1,0.9-0.3,1.3-0.5c1.2-1.1,1.2-1.5,0-0.7
		c2.9-1.8,5.5-3.8,8-6.1C400.5,395.3,400.3,395,399.5,395.5z"/>
	<path class="st2" d="M402.3,394l-1.4,1.3h0.2l1.4-1.4L402.3,394z"/>
	<path class="st2" d="M357.7,428.6l-2.6,1.8l-2.6,1.7l-5.1,3.3c-3.4,2.1-6.8,4-10.1,6c-0.4,0.5-0.9,0.9-1.4,1.1
		c-0.6,0.1-1.2,0.3-1.8,0.6l-3,1.6l-1,0.6l0,0c-0.5,0.4-0.3,0.4,0.1,0.4c0.4-0.1,0.8-0.2,1.2-0.3c-0.2,0-0.8,0.2-1.2,0.3
		c-0.6,0.2-1.2,0.4-1.7,0.6c-0.9,0.6-1.9,1.1-2.8,1.5c0.9-0.6,1.9-1.1,2.8-1.5c0.6-0.3,1.1-0.7,1.6-1l0.4-0.3
		c-1.1,0.6-2.3,1.2-3.4,1.7l-3.4,1.7l-1.4,0.8c-1.3,1-2.8,1.6-4.4,1.9l-1.3,0.5h0.3l-0.5,0.1c-1.8,0.8-3.5,1.6-5.3,2.3
		c-1.1,0.6-2.2,1.4-3.3,2l-1.4,0.1c-0.5,0.5-1.1,1-1.8,1.3c1.1-0.1,2.1-0.2,3-0.4c1.4-0.1,2.3-2,4.1-1.8c-1.8-0.2-2.7,1.7-4.1,1.8
		c-0.9,0.2-1.9,0.2-3,0.4c-1.9,0.9-3.8,1.5-5.9,1.7c1.8-1,3.8-1.6,5.9-1.7c0.7-0.3,1.3-0.8,1.8-1.3l1.4-0.1c1.1-0.6,2.2-1.3,3.3-2
		c-3.5,1.4-7.1,2.8-10.8,4.1c-1.5,0.5-3,1.1-4.4,1.5l-4.4,1.4c-2.9,1-5.9,1.7-8.8,2.5c-1.5,0.4-3,0.7-4.4,1.1l-4.4,1l-4.5,0.8
		c-1.5,0.3-3,0.5-4.5,0.7l-4.5,0.6c-1.5,0.2-3,0.3-4.5,0.5c-3,0.4-6.1,0.4-9.2,0.5c-6.3,0.1-12.6-0.2-18.9-0.9
		c-13.4-1.7-26.4-5.7-38.4-11.7c-11.3-5.6-22-12.5-31.7-20.5c-9.8-8.1-18.4-17.6-25.5-28.1c-2.8-4.2-7-10-11-15.9s-7.6-12-9.9-16.2
		c-3.7-5.3-5.5-6.1-6.6-5.5s-1.3,2.8-1.3,3.1c0.2,4.5,1.6,8,3.8,12.2s5.2,9.2,9.2,16.8c-2.8-5.1-1.1-3.6,1.8,0.3
		c3.7,4.9,7,9.9,10,15.2c3.7,7.2,10.3,14.5,18.1,21.2s16.7,12.6,25,18c4.6,2.9,9.4,5.4,14.4,7.6c13.8,6.7,28.7,10.7,44,11.8
		c7.6,0.6,15.3,0.5,22.9-0.1c7.9-0.7,15.7-1.9,23.4-3.5c8.4-1.9,15.3-4.9,21.9-7.7c2.4-1,5-1.9,7.4-2.7s4.7-1.7,6.7-2.5
		c3.1-1.2,5.8-2.7,8.4-4s5-2.8,7.3-4.2c-2.7,1.5-5,2.8-7.4,4l-3.8,1.9l-2,1l-2.2,1c-4.2,1.8,2.5-2.3,5-3.9c1.1-0.7,3.4-0.6,4.4-1.4
		c2.5-1.3,4.8-2.8,7.1-4.4c1-0.8,1.4,0.1,1.9-0.2c3.5-2.1,5.6-4.8,8-5.8l4.9-2.4c1-0.5,1.9-1,2.9-1.7l1.8-1.4
		c-0.5,0.1-1-0.1-1.4-0.3c1-0.5,2.3-1.2,3.2-1.7c-0.9,0.5-2.3,1.2-3.2,1.7c0.4,0.3,0.9,0.4,1.4,0.3c2.1-1.7,4.4-3.5,6.7-5.2
		s4.6-3.7,6.8-5.5h-0.1c-2.7,2-5.6,3.8-8.6,5.1c1.4-0.6,1.4-0.3,0,0.7l-1.4,0.3c1.2-0.9,2.3-1.8,3.6-2.6c1.2-0.8,2.5-1.5,3.8-2.1
		l1.4-1.3c0.9-0.4,1-0.1,1.3,0l1.6-1.2C361.3,426.9,359.5,427.7,357.7,428.6z"/>
	<path class="st2" d="M328.5,446.2l1.4-0.8c-1.9,1-3.9,1.9-5.8,2.8C325.3,448.1,326.9,447.2,328.5,446.2z"/>
</g>
<g class="st1">
	<path class="st2" d="M460.7,415.7c0.9,0.8,1.9,1.5,2.9,2.3c-0.5-0.4-0.9-0.9-1.2-1.4C461.8,416.2,461.3,415.9,460.7,415.7z"/>
	<path class="st2" d="M466.2,420.1c0.2,0.1,0.3,0.3,0.5,0.4l0.5,0.2C466.8,420.5,466.5,420.3,466.2,420.1z"/>
	<path class="st2" d="M471.4,423.6c-0.8-0.7-1.7-1.3-2.6-1.9C469.6,422.5,470.5,423.1,471.4,423.6z"/>
	<path class="st2" d="M467.5,420.5c0.2,0.4,0.3,0.6-0.3,0.3l0,0l1.6,1C468.3,421.4,467.9,420.9,467.5,420.5z"/>
	<path class="st2" d="M467.5,420.5c-0.2-0.3-0.6-0.8-0.7-1C467,419.8,467.2,420.2,467.5,420.5z"/>
	<path class="st2" d="M470.8,418.7c0.6,0.3-0.1,1,1,1.5c2.5,1.5,4.8,2.7,7,4.2c1.2,0.5,2.2,2.5,3.3,3c1.7,0.9,3.5,1.8,5.3,2.5
		c1.6,0.6,2.4,0.8,0.6-0.4c-5.6-3.6-9.3-5.8-14.2-9.2c-2.1-1.3-4.1-2.5-6.2-3.8s-4.1-2.6-6.1-4c-1.1-0.8-2.1-1.6-3.1-2.5
		c1.2,1.2,2.5,2.4,4,3.7c1.1,0.9,2.3,1.7,3.6,2.3C467.5,416.8,469.1,417.6,470.8,418.7z"/>
	<path class="st2" d="M440.4,398.2l1.6,1c1.8,2.3,4,4.3,6.5,5.8l-0.7-1.2c-1.3-1.1-1.6-1-0.6,0.2c-2.2-2.6-4.6-4.9-7.2-7
		C440,397.3,439.8,397.5,440.4,398.2z"/>
	<path class="st2" d="M438.5,395.8l1.5,1.2v-0.1L438.5,395.8L438.5,395.8z"/>
	<path class="st2" d="M482.9,430.6l2.6,1.8l2.6,1.7l5.1,3.3c3.4,2.1,6.7,4.1,10,6.2c0.6,0,1.2,0.3,1.7,0.6c0.4,0.4,0.9,0.8,1.4,1.2
		l2.9,1.7l1.1,0.5l0,0c0.6,0.2,0.5,0,0.2-0.3c-0.3-0.3-0.6-0.6-0.9-0.9c0.1,0.2,0.6,0.6,0.9,0.9c0.4,0.4,0.9,0.8,1.5,1.1
		c0.9,0.4,1.9,0.9,2.9,1.4c-1-0.4-2-0.9-2.9-1.4c-0.6-0.2-1.2-0.5-1.7-0.8l-0.5-0.2c1.1,0.6,2.2,1.3,3.4,1.9l3.4,1.8l1.5,0.7
		c1.7,0.8,3.5,1.4,4.3,2.3l1.2,0.6l-0.2-0.2c0.2,0.1,0.3,0.2,0.4,0.3c1.7,0.8,3.5,1.8,5.3,2.5c1.2,0.3,2.5,0.6,3.8,1l1,1
		c0.7,0,1.5,0.1,2.2,0.4c-0.9-0.7-1.6-1.3-2.4-1.9c-1-0.9-3.1-0.2-4.1-1.7c1.1,1.4,3.1,0.7,4.1,1.7c0.8,0.5,1.5,1.2,2.4,1.9
		c2,0.6,3.9,1.5,5.6,2.6c-2-0.4-3.9-1.3-5.6-2.6c-0.7-0.3-1.4-0.4-2.2-0.4l-1-1c-1.2-0.4-2.5-0.7-3.8-1c3.5,1.5,7,3.2,10.7,4.6
		c1.5,0.6,2.9,1.2,4.4,1.7l4.4,1.6c2.9,1.1,5.9,1.9,8.9,2.8c1.5,0.5,3,0.8,4.5,1.2l4.5,1.1l4.5,0.9c1.5,0.3,3,0.6,4.6,0.8l4.6,0.7
		c1.5,0.2,3.1,0.4,4.6,0.5c3.1,0.4,6.2,0.5,9.4,0.7c6.5,0.2,13,0.1,19.4-0.4c14-1.3,27.7-4.6,40.7-9.8c12.7-5.1,23.8-12.3,34-20.4
		s19.7-17.3,29.4-27.3c4.6-5,8.8-10.5,12.5-16.2c3.7-5.6,7.1-11.5,10.1-17.5c2.5-6.5,1.8-8.7,0.6-9.1s-3,0.9-3.2,1.1
		c-3.4,2.9-5.4,5.9-7.9,9.9c-3.2,5.3-6.9,10.4-11.1,15c3.7-4.3,3-2.3,0.3,1.8s-7.6,9.8-11.9,13c-6.3,4.6-12.7,11.1-19.8,17.6
		s-14.9,12.8-23.1,17.1c-4.1,2.1-8.3,4.6-13.4,6.8c-12.9,5.2-26.5,8.6-40.4,10.1c-7,0.7-14.1,0.9-21.1,0.5
		c-7.3-0.5-14.6-1.5-21.8-3.1c-7.8-1.7-14.8-3-21.5-4.7c-2.4-0.8-4.8-1.8-7-2.7s-4.4-2-6.2-2.8l-15.9-6.6c2.7,1.3,5,2.4,7.4,3.4
		l3.8,1.6l2,0.9l2.2,0.9c4.1,1.6-3.3,0-6.1-1.1c-1.2-0.3-2.5-2.1-3.8-2.5c-2.5-1.2-4.8-2-7.6-3c-1.2-0.4-0.6-1.2-1.2-1.4
		c-3.6-1.7-6.9-2.1-9-3.6c-1.6-1.1-3-2.1-4.4-3.1c-0.9-0.6-1.8-1.2-2.8-1.7c-0.6-0.3-1.3-0.6-2-0.9c0.3,0.4,0.4,0.9,0.3,1.4
		c-0.9-0.6-2-1.6-2.9-2.2c0.9,0.6,2,1.6,2.9,2.2c0.1-0.5-0.1-1-0.3-1.4c-2.4-1.2-4.9-2.5-7.5-3.9s-5.1-2.9-7.5-4.3c0,0,0,0.1,0,0.1
		c2.8,1.8,5.5,3.8,8,6.1c-1.1-1-0.8-1.1,0.6-0.2l0.8,1.1c-1.3-0.7-2.6-1.4-3.9-2.1c-1.2-0.8-2.3-1.7-3.3-2.8l-1.8-0.8
		c-0.7-0.6-0.5-0.9-0.5-1.2l-1.7-1C480.1,428,481.4,429.4,482.9,430.6z"/>
	<path class="st2" d="M512.1,448.4c-0.4-0.2-0.9-0.4-1.5-0.7c1.9,1.1,3.8,2,5.7,3.1C515.5,449.8,513.8,449.1,512.1,448.4z"/>
</g>
</svg>
