<svg id="Layer_1" data-name="Layer 1" xmlns="http://www.w3.org/2000/svg" viewBox="0 0 841.89 841.89"><defs><style>.cls-1{fill:#bd8675;}.cls-2{opacity:0.85;}.cls-3{fill:#0f0c0e;}.cls-4{fill:#121011;}</style></defs><rect class="cls-1" width="841.89" height="841.89"/><g class="cls-2"><path class="cls-3" d="M636.51,354.48c1.39,1.5,2.81,3,4.16,4.58-.65-.81-1.24-1.67-1.84-2.55A9.52,9.52,0,0,0,636.51,354.48Z"/><path class="cls-3" d="M644.39,363.4l.7.85.67.66Z"/><path class="cls-3" d="M651.34,371.63a54.53,54.53,0,0,0-3.42-4.29C648.82,368.61,650,370,651.34,371.63Z"/><path class="cls-3" d="M646.17,364.77c.32.6.41.94-.37.17l0,0c.74.78,1.45,1.58,2.16,2.43C647.25,366.39,646.66,365.52,646.17,364.77Z"/><path class="cls-3" d="M646.17,364.77c-.31-.58-.86-1.44-1-1.76C645.42,363.54,645.77,364.13,646.17,364.77Z"/><path class="cls-3" d="M650.53,364.74c.78.8-.13,1.19,1.4,2.76,1.69,1.92,3.24,3.74,4.75,5.53s2.93,3.62,4.24,5.64a16.86,16.86,0,0,1,1.9,3.44,17.67,17.67,0,0,0,1.79,3.49l5.77,8.37c1.7,2.47,2.57,3.57.77.1a170.24,170.24,0,0,0-16.6-24.79,224.63,224.63,0,0,0-17.4-18.39c-.87-.85-1.69-1.69-2.48-2.52l-1.19-1.25-.52-.56-.51-.62.61.77.76.84,1.54,1.71c1,1.15,2.11,2.35,3.21,3.63a26.1,26.1,0,0,0,2.44,2.53c.88.87,1.85,1.75,2.89,2.68s2.13,1.93,3.23,3S649.42,363.39,650.53,364.74Z"/><path class="cls-3" d="M608.11,318.31c.66.87,2.07,2.55,2.07,2.55,2.15,4.4,5.41,8.36,8.74,12.2l-1-2.07c-1.8-2.28-2.21-2.4-.82-.21-3.12-5.06-6.3-9.64-9.42-14.44C607.65,316.78,607.36,316.87,608.11,318.31Z"/><path class="cls-3" d="M605.89,313.49l1.79,2.85s0-.1,0-.15l-1.84-2.81Z"/><path class="cls-3" d="M664.79,390.17a133.75,133.75,0,0,1,15.25,38,9.89,9.89,0,0,1,1,3c0,1.05.1,2.09.22,3.12.34,1.9.56,3.81.8,5.7.1.67.19,1.34.29,2v.05c.22,1.07.33.74.4.05s.07-1.45.14-2.05c0,.38-.07,1.39-.14,2.05,0,.92,0,1.94,0,3.13.09.87.17,1.77.23,2.68s0,1.86,0,2.81c-.08-1.06-.13-2-.16-3s-.1-1.76-.11-2.54c-.09-1.11-.24-2.17-.4-3.23-.06-.31-.12-.61-.19-.93a92.88,92.88,0,0,1,.45,13.12c0,1,0,2,0,2.74,0,1.59-.06,3.17-.24,4.59a13,13,0,0,1-.78,3.62c-.12.76-.25,1.53-.38,2.31l.15-.44a6.25,6.25,0,0,1-.23.85c-.35,1.61-.63,3.23-1.08,4.82l-.62,2.39-.73,2.37c-.19,1.06-.47,2.11-.73,3.18l-.41,1.61-.5,1.59-1.27,1.88a18.58,18.58,0,0,1-1.09,3.56c1-1.51,2-2.85,2.73-4.22,1.32-1.93.9-5,2.52-7.26-1.62,2.25-1.2,5.33-2.52,7.26-.72,1.37-1.75,2.71-2.73,4.22a34.73,34.73,0,0,1-5.57,8.83,72.5,72.5,0,0,1,5.57-8.83,18.58,18.58,0,0,0,1.09-3.56l1.27-1.88.5-1.59.41-1.61c.26-1.07.54-2.12.73-3.18a79,79,0,0,1-8.13,17.77A81.49,81.49,0,0,1,649.13,518a97.66,97.66,0,0,1-27.59,13.85,129.88,129.88,0,0,1-30.76,5.86c-2.65.23-5.31.3-8,.41s-5.37.07-8.08,0A156.09,156.09,0,0,1,558.33,537a73.83,73.83,0,0,1-32.1-12.55A108.49,108.49,0,0,1,502,500.86c-3.39-4.44-6.54-9-9.5-13.64s-5.66-9.39-8.25-14.18a289.46,289.46,0,0,1-13.62-29.53,343.56,343.56,0,0,1-18.25-63.76c-1.66-8.64-4.23-20.92-6.5-33.19s-4.28-24.51-5.41-32.89c-2.23-11.15-3.79-13.71-5.05-13.34s-2,3.67-2,4.21c-1,7.2-.53,13.53.46,21.6s2.55,17.92,4.35,32.27c-1.3-9.76-.08-6.29,1.68,1.91s4.34,21.1,5.52,30.39c1.57,13.49,6,29.36,12.07,45.48a375.09,375.09,0,0,0,22,47.29,166.41,166.41,0,0,0,15.48,22.92A109.27,109.27,0,0,0,524,533.3a83.06,83.06,0,0,0,18.19,8.42c.8.26,1.59.54,2.4.77l2.44.62,2.45.62,2.48.46,2.48.46c.83.12,1.66.21,2.5.31l2.5.29c.85.1,1.62.12,2.43.19a181,181,0,0,0,19.38.46,166.2,166.2,0,0,0,19.65-1.71A128,128,0,0,0,640,532.06a83,83,0,0,0,17.5-12.22,89.7,89.7,0,0,0,12.82-14.75c5.42-7.43,10.3-16.12,12.62-23.29a81.56,81.56,0,0,0,4-31,102.42,102.42,0,0,1-.63,14.79A83.06,83.06,0,0,1,683,481c-1.29,3.83-1.12,2.39-.45-.61s1.44-7.65,1.74-10.25a10.74,10.74,0,0,1,.4-1.84c.18-.66.39-1.36.6-2.06s.43-1.4.59-2.07a9.49,9.49,0,0,0,.24-1.88,73,73,0,0,0-.23-14.59c-.35-2.22.62-2,.44-3.13-.73-7.14-3-12.28-3.72-16.7-.62-3.37-1.3-6.38-2-9.3-.48-1.85-1.11-3.63-1.78-5.53-.51-1.14-1-2.32-1.58-3.5a3.29,3.29,0,0,1-.33,2l-1-3c-.37-1.05-.74-2.1-1.07-3,.33.86.7,1.91,1.07,3l1,3a3.29,3.29,0,0,0,.33-2,173.13,173.13,0,0,0-14.78-25.73V384a75.63,75.63,0,0,1,7.92,15.34c-1-2.39-.58-2.24.79.37.2.74.35,1.5.52,2.24-2.42-4.51-5-8.86-6.87-13.36,0,0-1.28-1.78-2-2.62-.74-1.44-.44-1.54-.4-2-.6-.94-1.23-1.88-1.9-2.8.49,1.11,1.55,3.36,2.52,5.32.49,1,.9,1.9,1.22,2.57Z"/><path class="cls-3" d="M682.69,445.37c-.08-.77-.15-1.72-.29-2.73.18,1.83.22,3.67.32,5.51s.07,3.68,0,5.52A13.16,13.16,0,0,0,683,452c0-.62,0-1.3,0-2s0-1.48-.09-2.25Z"/></g><path class="cls-4" d="M191.87,515.33c1,4.31,0,8.26-2.31,8.82s-5.45-.46-6.49-4.77-1.7-9.77.62-10.34S190.82,511,191.87,515.33Z"/><g class="cls-2"><path class="cls-3" d="M190.63,512.12l-.26-.34a.81.81,0,0,1,.07.22C190.48,512.09,190.55,512.09,190.63,512.12Z"/><polygon class="cls-3" points="190.11 511.48 190.06 511.42 190 511.39 190.11 511.48"/><path class="cls-3" d="M189.54,511c.1.09.18.18.28.26A.71.71,0,0,0,189.54,511Z"/><path class="cls-3" d="M189.92,511.45c0-.05,0-.09.08-.06h0l-.18-.13A.58.58,0,0,1,189.92,511.45Z"/><path class="cls-3" d="M189.92,511.45l0,.16A.5.5,0,0,0,189.92,511.45Z"/><path class="cls-3" d="M189.2,511.93c-.07,0,.11-.19,0-.25a8,8,0,0,1-.78-.44c-.14,0-.15-.38-.29-.42-.31-.13-1.15-.26-.75,0a9.79,9.79,0,0,1,1.52.94,8.17,8.17,0,0,1,1.27.94,2.49,2.49,0,0,1,.23.37,3.78,3.78,0,0,0-.26-.54C190,512.24,189.54,512.18,189.2,511.93Z"/><path class="cls-3" d="M192,514.93l-.15-.18c.09-.37-.15-.66-.33-1l-.05.19c.09.17.16.17.14,0a4.45,4.45,0,0,0,.26,1.13C191.87,515.06,192,515.05,192,514.93Z"/><path class="cls-3" d="M191.9,515.31a1.8,1.8,0,0,1-.08-.21l0,0,.1.2Z"/><path class="cls-3" d="M188.19,510.23a9.64,9.64,0,0,0-2.48-1.17c-.08,0-.14.07-.22,0a1,1,0,0,0-.18-.13l-.39-.07h-.14c-.08,0-.06.06,0,.1a.69.69,0,0,1,.13.11l-.13-.11a.4.4,0,0,0-.2-.08,1.51,1.51,0,0,1-.37,0,.94.94,0,0,1,.37,0l.22,0h.07a3.46,3.46,0,0,0-.91,0l-.18.05-.1,0a.77.77,0,0,1-.49.13l-.14.1h0l-.07,0a2.14,2.14,0,0,0-.51.53c0,.16-.06.34-.08.48a1.34,1.34,0,0,0-.17.1.52.52,0,0,1,0,.28l.29-.25c.17-.07-.08-.4.2-.45-.28.05,0,.38-.2.45l-.29.25a1.42,1.42,0,0,1-.27.67.71.71,0,0,1,.27-.67.52.52,0,0,0,0-.28,1.34,1.34,0,0,1,.17-.1c0-.14.05-.32.08-.48A4.32,4.32,0,0,0,182,511a13.13,13.13,0,0,0-.11,4.28c.16,1.41.4,2.8.7,4.28A7.87,7.87,0,0,0,185,524a5.55,5.55,0,0,0,5,1.07,4.3,4.3,0,0,0,2.32-1.73,10.44,10.44,0,0,0,1.22-2.4,7.43,7.43,0,0,0,.35-2.54,14.58,14.58,0,0,0-.29-2.45c-.73-1.54-1.55-.44-1.6-.38a2.35,2.35,0,0,0-.34,1.46,5.45,5.45,0,0,1-.22,2c.15-.59.3-.37.31.15A2.75,2.75,0,0,1,191,521c-.64.62-1.05,1.3-1.47,1.63a.91.91,0,0,0-.16.11.79.79,0,0,0-.16.08,6,6,0,0,1-.61.13,2.34,2.34,0,0,1-1.21-.16,4.5,4.5,0,0,1-1.13-.58,6.89,6.89,0,0,1-1.83-3.4,24,24,0,0,1-.89-4.78c-.08-.87-.31-1.63-.35-2.33a2.59,2.59,0,0,1,.39-1.2,1.85,1.85,0,0,1,.32-.48l.31-.12-.32.08a1,1,0,0,0-.34.47c-.13.3-.19-.36-.07-.53s.26.05.29,0a.18.18,0,0,0,.09-.06,2.16,2.16,0,0,1,.5-.2c.12-.06.1.18.15.16.36,0,.74-.27,1-.14a5.65,5.65,0,0,1,.5.27l.32.14.24,0a.53.53,0,0,1,0-.28,3.71,3.71,0,0,1,.32.23,3.71,3.71,0,0,0-.32-.23.53.53,0,0,0,0,.28,6.34,6.34,0,0,1,1.78.6v0a3.58,3.58,0,0,1-.86-.72c.12.12.07.17-.11.09l-.07-.17a1.22,1.22,0,0,1,.82.53l.22.06c.07.09,0,.15,0,.21l.19.12A2.79,2.79,0,0,0,188.19,510.23Z"/><path class="cls-3" d="M184.55,508.89h.19a4.79,4.79,0,0,0-.76,0A.83.83,0,0,0,184.55,508.89Z"/></g><g class="cls-2"><path class="cls-3" d="M199.22,352.18c-1.39,1.51-2.86,3-4.21,4.53a23.31,23.31,0,0,1,2.34-2.08A9.68,9.68,0,0,0,199.22,352.18Z"/><path class="cls-3" d="M191.24,361l-.7.84c-.18.28-.37.54-.53.78C190.42,362.11,190.84,361.57,191.24,361Z"/><path class="cls-3" d="M184.8,369.66c1.16-1.51,2.27-3,3.28-4.39A45.9,45.9,0,0,0,184.8,369.66Z"/><path class="cls-3" d="M190.23,363c-.53.43-.85.58-.24-.33l0,0c-.63.87-1.3,1.7-1.93,2.62A25.07,25.07,0,0,1,190.23,363Z"/><path class="cls-3" d="M190.23,363c.51-.4,1.25-1.11,1.53-1.32C191.3,362.07,190.78,362.51,190.23,363Z"/><path class="cls-3" d="M191.19,367.23c-.56.91-1.16.12-2.28,1.93-1.43,2-2.56,4-3.77,5.94s-2.3,3.83-3.53,5.78a15.83,15.83,0,0,1-2.25,3,14.89,14.89,0,0,0-2.15,3.1c-.58,1.1-1.28,2.68-2,4.32S174,394.66,173.5,396a12.44,12.44,0,0,0-.73,2.59c0,.24.31-.28,1.11-1.94,2.29-5.05,4.48-9.09,6.68-13,1.12-1.93,2.23-3.82,3.46-5.72s2.52-3.84,3.94-5.91a171.51,171.51,0,0,1,14.84-19.41c.81-.85,1.62-1.66,2.42-2.44l1.2-1.16a4.55,4.55,0,0,0,.38-.39l.29-.31.57-.62-.77.8c-.12.12-.28.3-.47.47l-.41.38-1.65,1.51c-1.11,1-2.28,2.07-3.43,3.24a34.44,34.44,0,0,0-4.56,5.65C194.81,362,193.22,364.55,191.19,367.23Z"/><path class="cls-3" d="M227.84,317.44c-.45,1-1.48,2.85-1.48,2.85a112.43,112.43,0,0,0-8.82,11.82l1.74-1.46c1.68-2.32,1.66-2.75,0-.85a81.16,81.16,0,0,0,10.18-13.56C229,316.4,228.8,316.18,227.84,317.44Z"/><path class="cls-3" d="M231.06,313.36c-.54,1-1.08,1.94-1.63,2.88l.14-.06c.52-1,1.05-2,1.57-2.91Z"/><path class="cls-3" d="M173.41,389.41a134.05,134.05,0,0,0-13.52,38.33,10.17,10.17,0,0,1-.18,3.08,19.65,19.65,0,0,0-.75,3c-.11.95-.23,1.91-.34,2.86l-.24,2.85c0,.66-.06,1.34,0,2v.06c.07,1.08.23.76.39.1a17.94,17.94,0,0,1,.47-2c-.1.37-.32,1.33-.47,2-.15.9-.27,1.9-.37,3.08,0,1.74.09,3.57.08,5.45a39.12,39.12,0,0,1-.08-5.45c0-1.11,0-2.18,0-3.24,0-.31,0-.62,0-.94a114.54,114.54,0,0,0-.09,13.1c.1,1,.22,2,.32,2.73.4,3.14,1,6.22.89,8.23.13.76.23,1.54.4,2.31,0-.15,0-.31,0-.46,0,.35.07.64.1.88.32,1.62.64,3.24,1.06,4.85s.84,3.21,1.31,4.81c.38,1,.86,2,1.31,3s.9,2,1.39,3c0,0,.26,1.51.38,2.25a20.93,20.93,0,0,1,1.94,3.18c-.46-1.75-.87-3.33-1.21-4.82-.39-2.19-2.67-4.28-2.6-7.05-.07,2.77,2.21,4.86,2.6,7.05.34,1.49.75,3.07,1.21,4.82,1.5,2.75,3.19,6.41,4.55,9.42a27.45,27.45,0,0,1-4.55-9.42,20.93,20.93,0,0,0-1.94-3.18c-.12-.74-.38-2.25-.38-2.25-.49-1-.95-2-1.39-3s-.93-2-1.31-3a93.07,93.07,0,0,0,7.64,18.25,89.41,89.41,0,0,0,20,24.81,92.27,92.27,0,0,0,27,16.18A105.17,105.17,0,0,0,248.1,543a123.4,123.4,0,0,0,16.31-.1c2.74-.16,5.48-.49,8.24-.83l4.14-.62c1.38-.24,2.78-.54,4.17-.81A91.31,91.31,0,0,0,314,526a123.11,123.11,0,0,0,13.67-11.27A142.92,142.92,0,0,0,339.54,502a184.09,184.09,0,0,0,19-28c2.69-4.85,5.25-9.74,7.6-14.71s4.63-9.95,6.74-15c8.49-20.2,15.37-41,22.21-63,2.59-8.46,5.54-20.76,7.91-33.07s4.24-24.65,5.37-33.11c.78-11.43-.47-14.38-1.72-14.27s-2.71,3.18-2.89,3.7c-2.58,6.68-3.83,12.72-5.29,20.56a303.06,303.06,0,0,1-7.07,31.05c2.52-9.28,2.38-5.7.79,2.37s-4.91,20.55-8.46,29c-5.18,12.16-9.93,27.21-15.65,42.72-2.85,7.75-5.94,15.62-9.39,23.24a185,185,0,0,1-11.53,21.7c-.52.85-1,1.7-1.58,2.55l-1.65,2.57c-1.08,1.74-2.25,3.47-3.43,5.25s-2.45,3.54-3.73,5.38-2.67,3.65-4.17,5.45a126.63,126.63,0,0,1-25.9,24.12,81.58,81.58,0,0,1-31.37,13.17A112.4,112.4,0,0,1,240,534.67a93.8,93.8,0,0,1-17.57-4.14,82.52,82.52,0,0,1-16.67-7.8c-2.85-1.67-5.48-3.49-8-5.28s-4.92-3.7-7.15-5.68a81.87,81.87,0,0,1-11.88-12.62c-4.87-6.68-8.25-14.93-10.38-21.25a113.75,113.75,0,0,1-5.85-27.71,90.27,90.27,0,0,0,1.69,13.39,100.09,100.09,0,0,0,3.76,13.75c1.22,3.39.52,2.33-.72-.18-.61-1.26-1.29-2.91-1.92-4.53s-1.16-3.23-1.46-4.41c-.68-2-.21-5.4-.71-7.41-.65-4.45-1.36-8.55-1.68-13.43-.23-2.09.73-1.84.66-2.88-.06-6.59-.59-11.86.36-16.06.38-1.58.72-3.08,1.1-4.53s.81-2.82,1.2-4.2c.55-1.72,1-3.45,1.54-5.27l.86-3.54a3.16,3.16,0,0,1-1.46,1.26c.54-1.7,1.65-4,2.27-5.64-.62,1.67-1.73,3.94-2.27,5.64a3.16,3.16,0,0,0,1.46-1.26,130.72,130.72,0,0,1,4.43-13.33,143.78,143.78,0,0,1,6.16-13.24l-.13.06c-2.78,4.88-5.31,9.69-8.2,14.79,1.2-2.23,1.32-1.83.22.82-.43.61-.9,1.22-1.31,1.83,1.69-4.71,3.61-9.39,6.48-13.23,0,0,.19-.5.47-1.11l.82-1.84c.9-1.31,1.13-1.1,1.52-1.26.51-1,1.1-1.9,1.64-2.86-.4.43-1,1.13-1.63,1.93s-1.28,1.76-1.91,2.63C174.38,387.82,173.41,389.41,173.41,389.41Z"/><path class="cls-3" d="M158.32,444.91c0-.77,0-1.71,0-2.72-.08,1.83-.17,3.65-.15,5.49s0,3.66.12,5.5a17.49,17.49,0,0,0,.15-3.68C158.46,448.07,158.36,446.5,158.32,444.91Z"/></g><g class="cls-2"><path class="cls-3" d="M207.31,533.87l.15-.7a1.14,1.14,0,0,1-.31.31C207,533.63,207.19,533.73,207.31,533.87Z"/><path class="cls-3" d="M207.6,532.51l0-.13,0-.11Z"/><path class="cls-3" d="M207.62,531.24a1.42,1.42,0,0,0-.07.64A1.09,1.09,0,0,0,207.62,531.24Z"/><path class="cls-3" d="M207.29,532.21c.11-.07.23-.09.29,0h0l0-.39A1.23,1.23,0,0,1,207.29,532.21Z"/><path class="cls-3" d="M207.29,532.21c-.12,0-.23.16-.3.19A2.2,2.2,0,0,0,207.29,532.21Z"/><path class="cls-3" d="M204.82,531.53c-.06-.13.65,0,.52-.26a8,8,0,0,1-.32-1.64c-.14-.25.69-.55.55-.81-.14-.59-1-2.09-1-1.25,0,1.27.13,2.12.1,3.27.14,1,.34,1.9.44,2.9a2.13,2.13,0,0,1-.19.76c.17-.31.33-.63.49-1S204.86,532.31,204.82,531.53Z"/><path class="cls-3" d="M205.83,539c-.06-.14-.16-.42-.16-.42.62-.42.55-1,.48-1.66l-.41.18c0,.33.16.41.37.16a2.86,2.86,0,0,0-.84,1.83C205.47,539.08,205.69,539.14,205.83,539Z"/><path class="cls-3" d="M205.25,539.46c0-.13,0-.26,0-.39h-.06c0,.14,0,.27,0,.4Z"/><path class="cls-3" d="M207.24,528.53c.17-1.65.22-3.21.33-4.74-.13-.12-.29-.2-.2-.35a1.16,1.16,0,0,0,.26-.36c0-.22,0-.45,0-.67l-.07-.23h0c-.09-.12-.2-.08-.3,0a1.84,1.84,0,0,1-.25.23c.06,0,.15-.16.25-.23a1,1,0,0,0,.19-.37,1.65,1.65,0,0,1-.06-.63,1,1,0,0,1,.06.63l.11.38.07.1,0-1.53a2.38,2.38,0,0,0-.07-.31c-.11-.36-.22-.72.12-1v-.27l-.06.06.06-.11c0-.39,0-.77,0-1.16a8.31,8.31,0,0,1-.49-.72l.32-.3a.75.75,0,0,1-.4-.38c-.19.24-.41.46-.53.65-.33.3.78.48.14.86.64-.38-.47-.56-.14-.86.12-.19.34-.41.53-.65a1.36,1.36,0,0,1,.14-1.26c.39.42.19.86-.14,1.26a.75.75,0,0,0,.4.38l-.32.3a8.31,8.31,0,0,0,.49.72c0-.76,0-1.54-.12-2.33a26.9,26.9,0,0,0-.56-3.72c-.14-.61-.29-1.22-.43-1.82s-.39-1.19-.59-1.78a36.07,36.07,0,0,0-1.43-3.52c-.27-.58-.59-1.14-.89-1.73l-.47-.88-.52-.86a46.57,46.57,0,0,0-5-7,25.44,25.44,0,0,0-6.49-5.05c-2.33-1.38-4.7-2.64-7.15-4.42a12.53,12.53,0,0,0-4-1.54,38.68,38.68,0,0,0-4.22-.66,2.51,2.51,0,0,0-2.11,2.38,5.46,5.46,0,0,0,.33,1.89,3.31,3.31,0,0,0,2.11,2.09,8.56,8.56,0,0,1,3.24,1.71c-.92-.69-.44-1,.47-.86a4.26,4.26,0,0,1,2.87,2,6.74,6.74,0,0,0,4,3.19c1.59.7,3.38,1.31,4.54,2.59.57.62,1.33,1.07,2,1.75,1.63,2,3.25,3.75,4.71,5.72a21,21,0,0,1,3.54,6.76,6.68,6.68,0,0,0,.93,1.87,20,20,0,0,1,1,1.74,4.35,4.35,0,0,1,.2,1.38,9.45,9.45,0,0,0,0,1.29,9,9,0,0,0,.37,1.63,12,12,0,0,0,.46,1.51c-.09-.55-.19-1-.29-1.51s-.26-1-.39-1.58c-.14-.8,1,.45,1.25,1,.2.22-.56.65-.4.87a4.77,4.77,0,0,0,.59,1.51c.17.24-.55.23-.47.35.21.74,1.14,1.32.92,1.82s-.24.7-.36,1a1.67,1.67,0,0,0-.06.63c.05.14.11.28.17.42a2.28,2.28,0,0,1,.76-.15c0,.2-.21.48-.26.68.05-.2.22-.48.26-.68a2.28,2.28,0,0,0-.76.15,17.68,17.68,0,0,1,.84,3.37h.07a2.83,2.83,0,0,1,.61-1.91c-.18.28-.38.23-.39-.1l.38-.23c.15.59.3,1.19-.27,1.69,0,0,.14.26.2.39-.11.17-.34.14-.53.16,0,.13,0,.26,0,.39A4.63,4.63,0,0,0,207.24,528.53Z"/><path class="cls-3" d="M207.49,521.79a2.38,2.38,0,0,1,.07.31l.05-1.28C207.27,521.06,207.38,521.42,207.49,521.79Z"/></g><g class="cls-2"><path class="cls-3" d="M581.45,499l.81-.2a1.77,1.77,0,0,1-.45,0C581.61,498.78,581.55,498.91,581.45,499Z"/><path class="cls-3" d="M583,498.65l.14,0,.11-.08Z"/><path class="cls-3" d="M584.37,498.12a3.11,3.11,0,0,0-.71.23A1.83,1.83,0,0,0,584.37,498.12Z"/><path class="cls-3" d="M583.22,498.33c.11.05.17.11,0,.2h0l.4-.18A1.29,1.29,0,0,1,583.22,498.33Z"/><path class="cls-3" d="M583.22,498.33c-.1,0-.25-.06-.3-.09A1.32,1.32,0,0,0,583.22,498.33Z"/><path class="cls-3" d="M583.1,496.6c.13-.09.23.38.48.2a9.21,9.21,0,0,1,1.72-.86c.25-.19.84.2,1.08,0,.62-.31,2.1-1.44,1.13-1.12l-3.69,1.38c-1,.5-2,1-3.06,1.51a5.86,5.86,0,0,1-.9.21l1.26-.14C581.73,497.75,582.24,497,583.1,496.6Z"/><path class="cls-3" d="M575.46,500.47l.37-.28a2.82,2.82,0,0,0,1.95-.48l-.35-.15c-.37.14-.37.28,0,.28a5.46,5.46,0,0,0-2.3.37C575.2,500.32,575.23,500.47,575.46,500.47Z"/><path class="cls-3" d="M574.7,500.37l.42-.16,0,0-.41.19Z"/><path class="cls-3" d="M587.21,496.85c1.84-.58,3.59-1.09,5.3-1.56.11-.12.17-.26.36-.26a1.82,1.82,0,0,0,.45.05l.75-.2.25-.12h0c.12-.1.06-.16-.05-.2l-.31-.08c.06,0,.21,0,.31.08a1.28,1.28,0,0,0,.44,0,3.19,3.19,0,0,1,.7-.23,1.79,1.79,0,0,1-.7.23l-.4.19-.11.08,1.72-.45.34-.14a1.41,1.41,0,0,1,1.1-.23l.31-.07-.07,0h.12l1.3-.34c.25-.17.5-.37.77-.53l.35.14a1,1,0,0,1,.41-.38c-.28-.06-.53-.15-.76-.18s-.49.66-1,.34c.48.32.61-.48,1-.34s.48.12.76.18a2.28,2.28,0,0,1,1.41-.21,1.55,1.55,0,0,1-1.41.21,1,1,0,0,0-.41.38l-.35-.14c-.27.16-.52.36-.77.53l2.58-.69c5.64-1.45,10.71-3.19,16.49-4.94,3.13-1,6.17-1.8,9.16-2.65,6-1.65,10.94-4.34,17.17-5.94a33.17,33.17,0,0,0,8.41-4.53,3.57,3.57,0,0,0,1-1.73,1.27,1.27,0,0,0,0-.33c0-.1,0-.23,0-.32a.65.65,0,0,0-.28-.41,4.11,4.11,0,0,0-1.33-.44,5.11,5.11,0,0,0-3,.64,15.54,15.54,0,0,1-4,1.53c2.56-.69-1.16,1.92-3.92,1.84-3.92-.14-8,3.09-12.25,4.28-1.07.28-2.13.77-3.37,1.19-6.56,1.82-12.29,4.57-19.14,6.69a32.91,32.91,0,0,0-4.72,2.23c-1.09.43-2.35.59-3.25.88a25.74,25.74,0,0,0-3.73,1.54l3.66-1.42c1-.34-.49.8-1.1,1.13-.25.19-.84-.19-1.09,0a10.3,10.3,0,0,0-1.71.88c-.24.19-.35-.28-.47-.19-.86.38-1.36,1.17-2,1.22l-1.25.15a4.73,4.73,0,0,0-.74.19l-.45.26a1,1,0,0,1,.36.42c-.24.05-.6.05-.84.09.24,0,.6,0,.84-.09a1,1,0,0,0-.36-.42c-1.09.62-2.35,1.29-3.55,1.84l0,0a5.55,5.55,0,0,1,2.29-.38c-.36,0-.36-.15,0-.29l.35.15a2.94,2.94,0,0,1-1.94.51l-.38.27c-.22,0-.26-.15-.33-.26l-.43.16A6.84,6.84,0,0,0,587.21,496.85Z"/><path class="cls-3" d="M594.74,494.58l-.34.14,1.44-.36C595.52,494.21,595.13,494.39,594.74,494.58Z"/></g></svg>