<?xml version="1.0" encoding="utf-8"?>
<!-- Generator: Adobe Illustrator 25.0.0, SVG Export Plug-In . SVG Version: 6.00 Build 0)  -->
<svg version="1.1" id="Layer_1" xmlns="http://www.w3.org/2000/svg" xmlns:xlink="http://www.w3.org/1999/xlink" x="0px" y="0px"
	 viewBox="0 0 841.9 841.9" style="enable-background:new 0 0 841.9 841.9;" xml:space="preserve">
<style type="text/css">
	.st0{fill:#FBDFE9;}
	.st1{opacity:0.85;}
	.st2{fill:#211F1E;}
	.st3{fill:#131413;}
	.st4{fill:#1F2020;}
</style>
<rect x="0" class="st0" width="841.9" height="841.9"/>
<g class="st1">
	<path class="st2" d="M538.1,395.4l1.2,0.9c-0.2-0.2-0.3-0.4-0.5-0.6C538.7,395.4,538.4,395.4,538.1,395.4z"/>
	<path class="st2" d="M540.4,397.1l0.2,0.2l0.2,0.1L540.4,397.1z"/>
	<path class="st2" d="M542.6,398.4c-0.3-0.3-0.7-0.5-1.1-0.7C541.8,398,542.2,398.3,542.6,398.4z"/>
	<path class="st2" d="M541,397.1c0.1,0.2,0.1,0.3-0.2,0.2l0,0l0.7,0.4C541.3,397.5,541.1,397.3,541,397.1z"/>
	<path class="st2" d="M541,397.1c-0.1-0.2-0.2-0.4-0.2-0.5C540.8,396.8,540.9,397,541,397.1z"/>
	<path class="st2" d="M543,395.4c0.2,0.1-0.2,0.6,0.3,0.8c1,0.4,2,0.9,3,1.5c0.5,0.1,0.7,1.2,1.2,1.4c1.1,0.5,4.2,1.4,2.7,0.4
		c-2.3-1.4-3.9-2.2-5.9-3.5c-1.8-0.9-3.5-1.7-5.3-2.7c-0.5-0.3-0.9-0.6-1.3-1c0.5,0.5,1,1,1.6,1.5
		C540.1,394.6,541.6,394.6,543,395.4z"/>
	<path class="st2" d="M529.7,388.6l0.8,0.3c0.7,1,1.6,1.8,2.8,2.2l-0.2-0.6c-0.6-0.4-0.8-0.3-0.4,0.2c-0.8-1.1-1.8-2.1-3-2.8
		C529.6,388.1,529.4,388.3,529.7,388.6z"/>
	<path class="st2" d="M529,387.5l0.7,0.4v-0.1L529,387.5L529,387.5z"/>
	<path class="st2" d="M547.5,401c2.8,1.9,5.5,3.6,8.1,5.4c0.3,0,0.5,0,0.7,0.2c0.1,0.2,0.3,0.4,0.5,0.6l1.2,0.7l0.5,0.2l0,0
		c0.3,0.1,0.2-0.1,0.2-0.2c-0.1-0.1-0.2-0.3-0.3-0.5c0,0.1,0.2,0.3,0.3,0.5c0.2,0.2,0.3,0.4,0.5,0.5c0.4,0.2,0.8,0.4,1.1,0.6
		c-0.4-0.2-0.8-0.4-1.1-0.6l-0.7-0.3l-0.2-0.1l2.6,1.7c0.2,0.1,0.4,0.2,0.6,0.3c0.7,0.3,1.4,0.6,1.6,1.1l0.5,0.3l-0.1-0.1l0.2,0.2
		l2,1.2c0.5,0.1,1,0.2,1.6,0.4l0.3,0.6c0.3-0.1,0.6,0,0.9,0.1c-0.3-0.4-0.5-0.8-0.8-1.1c-0.3-0.6-1.4,0.1-1.6-0.8
		c0.2,0.9,1.3,0.3,1.6,0.8c0.2,0.3,0.5,0.7,0.8,1.1c0.8,0.3,1.5,0.8,2.1,1.4c-0.9-0.2-1.6-0.7-2.1-1.4c-0.3-0.1-0.6-0.2-0.9-0.1
		l-0.3-0.6c-0.5-0.2-1-0.3-1.6-0.4c1.3,0.8,2.7,1.6,4.1,2.4c8.9,5,18.4,8.9,28.3,11.5c5.5,1.5,11.2,2.5,16.9,2.9
		c5.5,0.3,11-0.2,16.3-1.5c5.3-1.2,10.4-2.8,15.9-4.1c2.6-0.8,5.2-1.7,7.6-2.9c2.7-1.2,5.3-2.4,7.1-3.2c4.4-3,0.9-4.9,0.6-5
		c-4.1-1.3-6,1.1-12.8,2.4c4.6-1.1-2.5,3-7.1,2.9c-3.4-0.1-6.8,1-10.5,2.2s-7.5,2.3-11.1,2.3c-1.8,0-3.8,0.2-5.9,0.2
		c-5.5-0.4-11.1-1.2-16.5-2.3c-5.7-1.2-11.3-2.9-16.6-5.3c-3-1.3-5.9-1.9-8.5-2.8c-1.8-0.9-3.5-1.8-5.1-2.9
		c-2.3-1.2-4.4-2.1-6.4-2.9c2.1,1.1,3.8,1.8,6.2,3c1.6,0.8-1.5,0.2-2.7-0.2c-0.5-0.1-0.8-1.2-1.4-1.3c-1-0.5-2-0.9-3.1-1.2
		c-0.5-0.1-0.1-0.7-0.4-0.8c-1.5-0.7-3-0.5-3.8-1.2l-1.7-1.5c-0.3-0.3-0.7-0.5-1.1-0.8l-0.8-0.3c0.1,0.3,0,0.6-0.1,0.9
		c-0.3-0.3-0.8-0.7-1.1-1c0.3,0.3,0.8,0.7,1.1,1c0.1-0.3,0.1-0.6,0.1-0.9c-2-0.8-4.3-1.9-6.4-2.9v0.1c1.2,0.7,2.3,1.6,3.1,2.6
		c-0.4-0.5-0.2-0.6,0.3-0.2l0.2,0.6c-1.1-0.4-2.1-1.1-2.9-2.1l-0.8-0.2c-0.3-0.3-0.1-0.5-0.1-0.7L546,399
		C546.4,399.7,546.9,400.4,547.5,401z"/>
	<path class="st2" d="M559.2,408.4c-0.2-0.1-0.4-0.2-0.6-0.3l2.2,1.4C560.6,409,559.9,408.7,559.2,408.4z"/>
</g>
<g class="st1">
	<path class="st3" d="M100.9,381.8l0.5,2.1l0.6,2.1c-0.1-0.7-0.2-1.5-0.3-2.2C101.5,383.1,101.3,382.4,100.9,381.8z"/>
	<path class="st3" d="M103,390c0.1,0.3,0.1,0.5,0.2,0.8s0.2,0.4,0.3,0.6C103.3,391,103.1,390.5,103,390z"/>
	<path class="st3" d="M105.6,397.2c-0.4-1.3-0.8-2.5-1.3-3.7C104.7,394.8,105.1,396,105.6,397.2z"/>
	<path class="st3" d="M103.9,391.4c0,0.5-0.1,0.8-0.4,0l0,0c0.3,0.7,0.6,1.4,0.9,2.1C104.1,392.9,104,392.1,103.9,391.4z"/>
	<path class="st3" d="M103.9,391.4c0-0.5-0.1-1.2-0.1-1.5C103.8,390.4,103.8,390.9,103.9,391.4z"/>
	<path class="st3" d="M107.7,392.2c0.3,0.7-0.6,0.8,0.1,2.2l1,2.4c0.3,0.8,0.7,1.5,1.1,2.2c0.7,1.4,1.4,2.9,2,4.4
		c0.8,1.3,0.8,3.9,1.6,5.1c1.1,2,2.4,4,3.8,5.8c1.2,1.6,1.9,2.3,0.7,0c-0.9-1.8-1.8-3.3-2.6-4.8l-2.2-4.4c-0.7-1.4-1.3-2.8-2-4.3
		s-1.3-3-2-4.6l-1.7-4l-0.8-2l-0.7-2l-1.5-4.1c-0.5-1.4-0.9-2.8-1.3-4.2c-0.4-1.6-0.7-3.1-0.9-4.7c0.2,2,0.6,4.1,1,6.4
		c0.3,1.7,0.9,3.3,1.7,4.9C106,388,106.8,390,107.7,392.2z"/>
	<path class="st3" d="M97.2,349.7c0.1,0.8,0.4,2.3,0.4,2.3c-0.3,1.7-0.3,3.5-0.1,5.2c0.1,1.8,0.4,3.5,0.7,5.3
		c0.1-0.5,0.2-1.1,0.3-1.6c-0.2-2-0.5-2.2-0.6-0.4c0.1-2.1,0.1-4.1,0.1-6.1s0-4-0.2-6C97.6,348.6,97.3,348.6,97.2,349.7z"/>
	<path class="st3" d="M97.7,346c0.1,0.8,0.1,1.6,0.1,2.4c0,0,0.1-0.1,0.1-0.1C97.9,347.5,97.8,346.7,97.7,346L97.7,346z"/>
	<path class="st3" d="M112.7,411.8c4.3,8.7,9.3,17,15,24.8c0.6,0.4,1.2,0.9,1.6,1.5c0.3,0.7,0.7,1.3,1.1,1.9
		c0.8,1.1,1.6,2.2,2.5,3.2l1,1l0,0c0.6,0.5,0.6,0.2,0.4-0.2c-0.2-0.4-0.5-0.9-0.7-1.3c0.1,0.2,0.5,0.9,0.7,1.3
		c0.4,0.6,0.8,1.3,1.2,1.8l1.3,1.4c0.4,0.5,0.9,0.9,1.3,1.4c-0.6-0.5-1.1-1-1.5-1.4c-0.4-0.5-0.8-1-1.1-1.4l-1.5-1.6l-0.5-0.5
		c1,1.2,2,2.4,3,3.6l3.1,3.4l1.4,1.4c1.7,1.5,3.4,2.9,4.1,4.2l1.2,1.2l-0.2-0.3c0.2,0.2,0.3,0.4,0.4,0.5l5.2,4.7
		c1.3,0.8,2.7,1.6,4,2.5l0.9,1.4c0.8,0.3,1.6,0.7,2.4,1.2c-0.9-1-1.6-1.9-2.3-2.8c-0.9-1.4-3.4-1.4-4.2-3.3c0.9,1.9,3.3,1.9,4.2,3.3
		c0.7,0.8,1.4,1.8,2.3,2.8c1,0.6,2,1.3,3,2.1c1,0.8,2,1.7,2.8,2.5c-1.2-0.6-2.3-1.3-3.4-2.2c-0.9-0.8-1.7-1.6-2.5-2.4
		c-0.8-0.5-1.6-0.9-2.4-1.2l-0.9-1.4c-1.3-0.9-2.7-1.6-4-2.5c1.8,1.5,3.6,2.9,5.4,4.4s3.8,2.8,5.7,4.2c6.2,4.4,12.6,8.3,19.4,11.7
		c6.7,3.3,13.6,6.1,20.7,8.4c7.2,2.3,14.5,4,21.9,5.3c7.7,1.2,15.5,1.9,23.3,2.1c17.2,0.2,34-1.1,50-5.6c7.9-2.2,15.4-5.4,22.5-9.6
		c6.9-4.1,13.3-9.2,18.9-15c5.6-5.9,10.4-12.4,14.5-19.4c4.1-7.2,7.7-14.7,10.5-22.5c2.7-7.8,4.6-15.9,5.7-24.1
		c1-8,1.6-16.1,1.7-24.2c-0.1-2.8-0.5-5.5-1.4-8.2c-0.6-1.5-1.3-1.9-1.9-1.9c-1.3,0.2-2.4,2.5-2.5,2.8c-0.8,2.3-1.5,4.7-1.9,7.2
		c-0.5,2.4-0.7,4.9-1,7.7c-0.1,1.4-0.3,2.9-0.5,4.5s-0.5,3.3-0.7,5.1s-0.7,3.7-1.1,5.8s-1,4.3-1.7,6.7c1.8-6.5,1.9-4,1,1.7
		c-0.2,1.4-0.6,3-1,4.8c-0.2,0.9-0.4,1.8-0.7,2.6s-0.6,1.8-0.8,2.7s-0.6,1.8-0.9,2.7s-0.7,1.7-1.1,2.6c-0.7,1.6-1.4,3.2-2.3,4.6
		c-0.6,1-1.2,2-1.8,3.1l-1.8,3.2c-1.1,2.2-2.5,4.4-3.7,6.6c-2.7,4.7-5.7,9.2-8.9,13.6c-3.4,4.5-7.3,8.7-11.5,12.4
		c-2.1,1.8-4.4,3.6-6.7,5.1l-3.6,2.2c-1.2,0.7-2.5,1.3-3.7,1.9c-5.3,2.7-10.8,5-16.5,6.8c-8.2,2.3-16.5,3.9-24.9,4.8
		c-8.4,0.9-16.9,1.4-25.3,1.3c-17.4,0-34.6-3.4-50.8-10c-8.9-3.6-16.8-6.8-24-10.7c-1.3-0.8-2.6-1.6-3.8-2.4s-2.4-1.8-3.6-2.7
		c-2.4-1.7-4.4-3.6-6.4-5.1c-1.5-1.1-2.9-2.4-4.3-3.5l-2-1.7c-0.7-0.5-1.3-1.1-1.9-1.7l-3.8-3.3l-3.5-3.3l3.6,3.5l3.5,3.1l1.8,1.6
		l1.9,1.6c1.3,1,2.7,2.2,4.2,3.4c2.1,1.6,1.2,1.3-0.6,0.3c-2-1.2-3.9-2.4-5.8-3.8c-1.3-0.8-2.2-3.3-3.5-4.1
		c-0.6-0.6-1.2-1.1-1.8-1.6l-1.8-1.6l-3.8-3.3c-1.1-1-0.3-1.5-0.9-2c-0.8-0.9-1.6-1.6-2.4-2.3s-1.6-1.4-2.3-2
		c-1.3-1.1-2.5-2.4-3.5-3.8c-1.3-1.9-2.3-3.8-3.4-5.5c-0.7-1.1-1.3-2.2-2.1-3.3l-1.6-2.1c0.1,0.5,0,1.1-0.2,1.5
		c-0.6-1.1-1.5-2.7-2-3.8c0.6,1.1,1.4,2.7,2,3.8c0.3-0.5,0.3-1,0.2-1.5c-1-1.2-1.9-2.6-2.9-4s-2-2.8-2.8-4.3s-1.8-3-2.7-4.5
		s-1.7-3-2.5-4.5v0.1c1.7,3.6,3.4,7.1,4.8,11c-0.4-0.8-0.4-1.2-0.3-1.2c0.4,0.4,0.7,0.9,1,1.4l0.4,1.6l-1.5-2.2
		c-0.5-0.8-0.9-1.5-1.3-2.3c-0.8-1.5-1.5-3.1-2-4.8l-1.2-1.9c-0.3-1.1-0.1-1.2,0.1-1.5c-0.3-0.7-0.7-1.4-1-2.1c0.3,1.4,0.6,2.7,1,4
		c0.2,0.7,0.4,1.4,0.6,1.9S112.7,411.8,112.7,411.8z"/>
	<path class="st3" d="M135.6,446c-0.4-0.4-0.8-0.9-1.3-1.4l2.5,3l2.6,2.9c-0.4-0.8-0.9-1.5-1.6-2.1c-0.4-0.4-0.7-0.8-1.1-1.1
		S136,446.4,135.6,446z"/>
</g>
<g class="st1">
	<path class="st2" d="M232.1,443.5c0.4,0.4,0.9,0.7,1.4,1c-0.2-0.2-0.5-0.4-0.6-0.6C232.6,443.6,232.4,443.5,232.1,443.5z"/>
	<path class="st2" d="M234.8,445.2l0.3,0.1c0.1,0,0.2,0.1,0.2,0.1C235.1,445.4,235,445.3,234.8,445.2z"/>
	<path class="st2" d="M237.5,446.4c-0.5-0.2-0.9-0.4-1.4-0.6C236.6,446,237,446.2,237.5,446.4z"/>
	<path class="st2" d="M235.4,445.3c0.1,0.1,0.2,0.2-0.1,0.2l0,0l0.8,0.3C235.9,445.6,235.7,445.5,235.4,445.3z"/>
	<path class="st2" d="M235.4,445.3c-0.1-0.1-0.3-0.3-0.4-0.4C235.1,445.1,235.3,445.2,235.4,445.3z"/>
	<path class="st2" d="M236.8,444.1c0.3,0.1,0,0.5,0.6,0.6c0.6,0.2,1.2,0.3,1.8,0.5c0.6,0.1,1.1,0.3,1.7,0.4s1.2,0.8,1.8,0.7
		c1.3,0.2,4.6-0.4,2.7-0.4c-0.7,0-1.3-0.1-2-0.1c-0.6,0-1.2-0.1-1.7-0.2c-0.6-0.1-1.1-0.2-1.7-0.4l-1.7-0.5
		C237.7,444.4,237.2,444.2,236.8,444.1c-0.6-0.2-1.1-0.4-1.5-0.6l-1.4-0.7l-1.4-0.8c-0.5-0.3-0.9-0.7-1.3-1.2l0.8,0.9l0.9,0.8
		c0.5,0.4,1.1,0.7,1.7,0.9L236.8,444.1z"/>
	<path class="st2" d="M224.4,433.9l0.5,0.7c0.2,0.6,0.5,1.3,0.8,1.8c0.3,0.6,0.8,1.1,1.2,1.6c-0.1-0.2-0.1-0.4-0.2-0.6
		c-0.5-0.6-0.7-0.6-0.3,0c-0.7-1.5-1.4-2.7-2.1-4.1C224.3,433.5,224.3,433.7,224.4,433.9z"/>
	<path class="st2" d="M224.1,432.5l0.4,0.8v0C224.3,433,224.2,432.8,224.1,432.5L224.1,432.5z"/>
	<path class="st2" d="M243.6,447.5c0.9,0.1,1.9,0.2,2.8,0.2c0.9,0,1.9-0.1,2.8-0.1s1.8-0.2,2.7-0.4s1.7-0.4,2.6-0.7
		c0.2-0.2,0.5-0.4,0.7-0.4c0.3,0,0.6-0.1,0.8-0.1c0.5-0.2,1-0.4,1.4-0.6l0.5-0.3l0,0c0.2-0.2,0.1-0.2-0.1-0.2
		c-0.2,0-0.4,0.1-0.6,0.1c0.1,0,0.4-0.1,0.6-0.1c0.3-0.1,0.5-0.1,0.8-0.2c0.4-0.3,0.8-0.5,1.2-0.8c-0.4,0.3-0.8,0.6-1.2,0.8
		l-0.7,0.4l-0.2,0.1c1.1-0.5,2.1-1.1,3.1-1.7c0.2-0.1,0.4-0.3,0.6-0.5c0.5-0.5,1.2-1,1.8-1.2l0.5-0.4h-0.1l0.2-0.1
		c0.7-0.6,1.4-1.1,2-1.8l1-1.5l0.6-0.3c0.1-0.3,0.2-0.6,0.4-0.9c-0.4,0.3-0.8,0.5-1.1,0.8c-0.5,0.3-0.5,1.3-1.3,1.5
		c0.8-0.2,0.8-1.2,1.3-1.5c0.3-0.2,0.7-0.5,1.1-0.8c0.5-0.8,1.1-1.5,1.8-2.1c-0.4,0.9-1,1.6-1.8,2.1c-0.2,0.3-0.4,0.6-0.4,0.9
		l-0.6,0.3l-1,1.5c0.6-0.6,1.2-1.2,1.8-1.9c0.6-0.7,1.2-1.4,1.7-2.1c3.5-4.6,5.4-10.3,5.4-16.1c-0.3-6-2.9-11.6-7.3-15.8
		c-2.3-2.3-4.9-4.3-7.7-6c-2.8-1.6-5.7-2.9-8.8-3.8c-3-0.9-6.2-1.3-9.4-1.1c-3.2,0.2-6.3,1.1-9.1,2.7c-2.8,1.7-5.2,3.8-7.1,6.4
		c-2,2.6-3.5,5.5-4.7,8.5c-1.1,3.1-1.7,6.3-1.7,9.6c0,0.9,0,1.8,0.1,2.7s0.2,1.8,0.3,2.6s0.3,1.6,0.4,2.3s0.4,1.4,0.5,2
		c0.2,0.4,0.3,0.7,0.4,1c0.2,0.3,0.3,0.6,0.5,0.8c0.2,0.4,0.5,0.7,0.8,1c0.5,0.4,0.9,0.5,1.1,0.3c0.4-0.4,0.7-0.9,0.8-1.5
		c0-0.5,0-1,0-1.5c0-0.5,0-0.9,0-1.4c0-0.5-0.1-0.9-0.2-1.4c0-0.5-0.1-1-0.1-1.5c-0.4-2.7-0.3-5.5,0.4-8.1c-0.5,2.4-0.7,1.5-0.6-0.6
		c0.1-1.3,0.4-2.5,0.8-3.7c0.4-1.3,1-2.5,1.7-3.6c2-2.8,4-6,6.9-8.5c1.5-1.3,3.2-2.3,5-2.9c0.9-0.3,1.9-0.6,2.8-0.7
		c0.5-0.1,1-0.1,1.5-0.1c0.5,0,1,0,1.5,0c1,0.1,2,0.1,3,0.3c0.5,0.1,1.1,0.1,1.6,0.2l1.7,0.4c2.9,0.9,5.7,2.1,8.4,3.6
		c2.6,1.5,5,3.3,7.1,5.4c2.1,2.1,3.7,4.5,4.8,7.3c1,2.8,1.3,5.9,0.7,8.9c-0.4,3.1-1.3,6.1-2.6,8.9c-0.2,0.5-0.5,0.9-0.9,1.4
		c-0.3,0.4-0.6,0.9-1,1.3c-0.7,0.8-1.4,1.6-2,2.2c-1.7,1.8-3.5,3.5-5.4,5c2-1.4,3.8-3,5.4-4.8c0.6-0.7,0.5-0.4,0.2,0.3
		c-0.2,0.3-0.5,0.7-0.7,1.1c-0.2,0.3-0.5,0.6-0.8,0.9c-0.3,0.4-1.3,0.6-1.7,1c-0.5,0.3-0.9,0.7-1.3,1.1c-0.4,0.4-0.9,0.7-1.4,1.1
		s-0.6-0.1-0.8,0.1c-0.7,0.4-1.3,0.9-1.9,1.4c-0.5,0.4-1.1,0.6-1.7,0.8c-0.8,0.2-1.5,0.3-2.3,0.4c-0.4,0.1-0.9,0.1-1.4,0.2l-0.9,0.2
		c0.2,0.1,0.4,0.2,0.5,0.4c-0.2,0-0.5,0-0.8,0h-0.8h0.8c0.3,0,0.6,0,0.8,0c-0.1-0.2-0.3-0.3-0.5-0.4c-2.4,0.6-5,0.7-7.5,0.4v0
		c0.7,0.1,1.5,0.2,2.2,0.4s1.5,0.2,2.2,0.4c-0.7-0.1-0.6-0.3,0.2-0.3c0.2,0.1,0.4,0.1,0.6,0.2c-0.7,0.1-1.3,0.1-2,0.1
		c-0.7,0-1.3-0.2-1.9-0.4h-0.9c-0.4-0.1-0.4-0.3-0.4-0.4l-0.9-0.2c0.4,0.3,0.9,0.5,1.4,0.7L243.6,447.5z"/>
	<path class="st2" d="M258.6,444.7c-0.2,0.1-0.4,0.2-0.6,0.4c0.4-0.2,0.9-0.4,1.3-0.7l1.3-0.7C259.8,443.8,259.2,444.2,258.6,444.7z
		"/>
</g>
<circle class="st4" cx="246.8" cy="421.1" r="8.8"/>
<g class="st1">
	<path class="st2" d="M252.5,427.4l-0.4,0.3c0.1,0,0.2-0.1,0.3-0.1C252.4,427.5,252.5,427.5,252.5,427.4z"/>
	<polygon class="st2" points="251.7,428 251.6,428 251.6,428.1 	"/>
	<path class="st2" d="M250.9,428.5c0.1-0.1,0.3-0.1,0.4-0.2C251.2,428.4,251.1,428.4,250.9,428.5z"/>
	<path class="st2" d="M251.6,428.2C251.5,428.2,251.5,428.2,251.6,428.2L251.6,428.2l-0.3,0.1C251.4,428.3,251.5,428.2,251.6,428.2z
		"/>
	<path class="st2" d="M251.6,428.2c0.1,0,0.2,0,0.2,0H251.6z"/>
	<path class="st2" d="M251.9,429c-0.1,0.1-0.2-0.1-0.3,0c-0.3,0.3-0.7,0.6-1.1,0.8c-0.2,0.1-0.6,0-0.7,0.1c-0.4,0.2-1.6,0.8-0.9,0.6
		c0.9-0.2,1.8-0.6,2.6-1.1c0.6-0.5,1.2-1,1.7-1.6c0.1-0.2,0.3-0.3,0.5-0.4c-0.2,0.2-0.4,0.4-0.7,0.5c-0.2,0.1-0.3,0.3-0.4,0.5
		C252.3,428.6,252.1,428.8,251.9,429z"/>
	<path class="st2" d="M254.8,424.2v0.3c-0.3,0.3-0.5,0.7-0.6,1.1l0.2-0.1c0.1-0.2,0.1-0.3-0.1-0.1c0.4-0.4,0.6-0.8,0.8-1.3
		C254.9,424.1,254.9,424.1,254.8,424.2z"/>
	<path class="st2" d="M255.1,423.8c0,0.1,0,0.2-0.1,0.3l0,0C255,424,255.1,423.9,255.1,423.8L255.1,423.8z"/>
	<path class="st2" d="M249.2,429.5c-1.2,0.3-2.4,0.4-3.6,0.2c-0.1,0-0.2,0.1-0.3,0c-0.1-0.1-0.2-0.1-0.3-0.1c-0.2,0-0.3-0.1-0.5-0.1
		h-0.2l0,0c-0.1,0-0.1,0,0,0.1l0.1,0.1c-0.1,0-0.1-0.1-0.1-0.1c-0.1-0.1-0.2-0.1-0.2-0.1c-0.2,0-0.3-0.1-0.5-0.2
		c0.2,0,0.3,0.1,0.5,0.2h0.3h0.1c-0.4-0.1-0.7-0.2-1.1-0.4l-0.2-0.1c-0.2-0.1-0.5-0.2-0.6-0.4l-0.2-0.1l0,0l-0.1-0.1
		c-0.2-0.2-0.5-0.3-0.7-0.5l-0.5-0.2l-0.1-0.2c-0.1,0-0.2-0.1-0.3-0.1c0.1,0.2,0.1,0.3,0.2,0.5s0.5,0.1,0.5,0.4
		c0-0.3-0.5-0.2-0.5-0.4s-0.1-0.3-0.2-0.5c-0.3-0.2-0.4-0.5-0.5-0.8c0.3,0.2,0.4,0.5,0.5,0.8c0.1,0.1,0.2,0.1,0.3,0.1l0.1,0.2
		l0.5,0.2c-0.4-0.4-0.8-0.8-1.2-1.2c-1.2-1.4-1.8-3.1-2-4.9c-0.1-1.8,0.4-3.6,1.4-5.1c1.1-1.6,2.8-2.8,4.7-3.2
		c1.7-0.4,3.5-0.3,5.2,0.4c1.6,0.6,2.9,2,3.5,3.6c0.3,0.8,0.6,1.6,0.7,2.4c0.1,0.8,0.1,1.6,0,2.5c0,0.9,0.3,1.2,0.6,1.3
		c0.2,0,0.5,0,0.7-0.1c0.3-0.2,0.5-0.5,0.6-0.8c0.1-0.3,0.2-0.7,0.3-1c0.1-1,0.1-2.1,0-3.1c0.1,1-0.1,0.6-0.4-0.1s-0.7-1.9-1-2.8
		c-0.5-1.5-1.7-2.8-3.1-3.4c-1.6-0.8-3.3-1.2-5.1-1.2c-0.9,0-1.8,0.1-2.7,0.4c-2.6,0.6-4.7,2.3-6,4.6c-1.3,2.4-1.6,5.1-0.9,7.7
		c0.4,1.3,1.1,2.4,2,3.3c0.5,0.7,1.1,1.3,1.7,1.8c0.8,0.6,1.7,1.1,2.7,1.3c-0.9-0.3-1.8-0.7-2.6-1.3c-0.6-0.5,0.6,0.1,1,0.3
		c0.2,0.1,0.3,0.5,0.6,0.5c0.4,0.2,0.9,0.3,1.3,0.4c0.2,0,0.1,0.2,0.2,0.2c0.3,0,0.6,0,0.9,0c0.2,0,0.5,0,0.7,0
		c0.3,0.1,0.6,0.1,0.9,0.2c0.2,0,0.4,0,0.6,0l0.4-0.1c-0.1-0.1-0.1-0.2-0.2-0.2c0.2,0,0.4,0.1,0.6,0c-0.2,0-0.4,0-0.6,0
		c0,0.1,0.1,0.2,0.2,0.2c0.9-0.2,1.8-0.5,2.6-0.9l0,0c-0.5,0.2-1,0.3-1.5,0.3c0.2,0,0.2,0.1,0,0.1l-0.2-0.1c0.4-0.2,0.9-0.3,1.3-0.2
		l0.2-0.2c0.1,0,0.2,0.1,0.2,0.1l0.3-0.1C249.8,429.4,249.5,429.5,249.2,429.5z"/>
	<path class="st2" d="M244.1,429.4h0.2c-0.3-0.1-0.6-0.2-0.9-0.4C243.6,429.3,243.8,429.4,244.1,429.4z"/>
</g>
<g class="st1">
	<path class="st3" d="M739.1,378.5c-0.3,1.3-0.6,2.6-1,3.9c0.3-0.6,0.5-1.2,0.8-1.9C739.1,379.8,739.2,379.1,739.1,378.5z"/>
	<path class="st3" d="M737,385.9c-0.1,0.2-0.1,0.5-0.2,0.7s-0.1,0.4-0.1,0.6C736.8,386.7,736.9,386.3,737,385.9z"/>
	<path class="st3" d="M735.1,392.5c0.5-1.1,0.8-2.3,1.1-3.4C735.8,390.2,735.4,391.4,735.1,392.5z"/>
	<path class="st3" d="M737.1,387.4c-0.3,0.4-0.5,0.5-0.4-0.2l0,0c-0.1,0.7-0.3,1.4-0.5,2C736.5,388.5,736.8,387.9,737.1,387.4z"/>
	<path class="st3" d="M737.1,387.4c0.2-0.4,0.5-1,0.7-1.1C737.5,386.6,737.3,387,737.1,387.4z"/>
	<path class="st3" d="M739.8,390.1c-0.1,0.7-1,0.2-1.3,1.6c-0.4,1.6-0.7,3.1-1.2,4.6s-0.9,2.9-1.5,4.3c-0.3,1.4-2.3,3-2.7,4.4
		c-0.3,0.8-0.7,1.9-1.1,3s-0.9,2.3-1.2,3.2c-0.6,1.9-0.8,2.8,0.4,0.6c1.9-3.4,3.1-6.3,4.3-9.1c0.6-1.4,1.1-2.8,1.7-4.3
		c0.3-0.7,0.6-1.5,0.8-2.2s0.5-1.5,0.8-2.4c0.4-1.3,0.7-2.7,1.1-4s0.6-2.7,0.9-4s0.6-2.7,0.8-4s0.4-2.7,0.7-4.1
		c0.2-0.8,0.3-1.5,0.5-2.2s0.3-1.5,0.5-2.2c-0.5,1.9-1,3.8-1.7,5.9C740.7,382,740.9,385.6,739.8,390.1z"/>
	<path class="st3" d="M743.2,349.4c0.1,0.7,0.3,2.1,0.3,2.1c-0.2,0.8-0.3,1.6-0.4,2.3c-0.1,0.8-0.2,1.6-0.3,2.4
		c-0.1,1.6-0.1,3.2-0.1,4.9c0.2-0.5,0.4-0.9,0.6-1.4c0.1-1.9-0.2-2.1-0.5-0.5c0.4-1.8,0.7-3.7,1-5.5c0.1-1.8,0.2-3.7,0.2-5.5
		C743.7,348.4,743.4,348.3,743.2,349.4z"/>
	<path class="st3" d="M743.9,346v2.2l0.1-0.1C744,347.4,744,346.6,743.9,346L743.9,346z"/>
	<path class="st3" d="M730,406.4c-4,7.9-9.1,15.3-15,21.9c-0.2,0.6-0.6,1.2-1.1,1.7c-0.6,0.4-1.1,0.8-1.6,1.3
		c-0.8,0.9-1.7,1.8-2.6,2.6l-0.9,1l0,0c-0.4,0.6-0.2,0.5,0.2,0.3c0.4-0.3,0.8-0.5,1.2-0.7c-0.2,0.1-0.8,0.5-1.2,0.7
		c-0.6,0.4-1.1,0.8-1.6,1.2c-0.8,0.9-1.7,1.7-2.6,2.4c0.9-1,1.9-1.7,2.6-2.4l1.4-1.6c0.1-0.2,0.2-0.3,0.4-0.5c-1,1-2,2-3.1,2.9
		l-3.3,2.8c-0.5,0.4-0.9,0.9-1.3,1.2c-1.5,1.4-3.1,2.7-4.3,3.1c-0.4,0.3-0.8,0.6-1.2,0.9l0.3-0.1l-0.5,0.2l-2.7,1.8
		c-0.9,0.6-1.8,1.2-2.7,1.8c-1.1,0.9-2.2,1.9-3.3,2.7c0,0-1,0.3-1.5,0.3c-0.5,0.6-1.2,1.2-1.8,1.6c1.2-0.3,2.2-0.6,3.2-0.9
		c1.5-0.4,2.2-2.5,4.2-2.7c-1.9,0.1-2.7,2.3-4.2,2.7c-1,0.3-2,0.6-3.2,0.9c-0.9,0.6-1.9,1.2-2.9,1.7c-1.1,0.5-2.2,0.8-3.3,1.1
		c1-0.7,2.1-1.3,3.2-1.7c1-0.4,2-0.7,3-1c0.7-0.4,1.3-1,1.8-1.6c0.5-0.1,1.5-0.3,1.5-0.3c1.2-0.9,2.2-1.8,3.3-2.7
		c-1.8,1.1-3.6,2.2-5.4,3.2s-3.7,2.1-5.7,3c-12.2,6-25.1,10.4-38.4,13.1c-6.7,1.4-13.4,2.4-20.1,3.1c-7,0.7-14,1-21.1,0.9
		c-15.7-0.2-30.8-1.1-45.2-3.7c-7-1.2-13.9-2.8-20.7-4.8c-6.5-1.9-12.7-4.7-18.5-8.2c-5.7-3.5-10.6-8-14.6-13.4
		c-4-5.6-6.9-11.8-8.6-18.4c-1.9-6.7-3.4-13.5-4.5-20.4c-1.1-6.9-1.7-13.9-2.1-21c-1-7.2-2.4-9-3.6-8.8s-2.3,2.2-2.4,2.6
		c-1.7,4.6-2,8.7-1.8,14c0.1,2.6,0.2,5.6,0.5,9.1c0,0.9,0.1,1.8,0.2,2.7s0.2,1.9,0.2,2.9s0.1,2.1,0.2,3.2s0.2,2.2,0.3,3.5
		c-0.4-3.2-0.2-4.3,0.1-3.9c0.6,1.6,1.1,3.3,1.5,5c0.3,1.4,0.7,2.9,1.1,4.5c0.2,0.8,0.4,1.7,0.6,2.5s0.5,1.7,0.7,2.6
		s0.4,1.8,0.6,2.7s0.5,1.8,0.7,2.6s0.4,1.7,0.6,2.6s0.4,1.6,0.6,2.4c1.2,5,3.2,9.7,6.1,13.9c3.2,4.9,7.3,9.1,12,12.6
		c4.8,3.6,10.1,6.6,15.6,8.9c5.3,2.3,10.8,4.2,16.3,5.8c5.8,1.6,11.7,2.8,17.6,3.6c8.2,1.4,16.5,2.3,24.9,2.6
		c4.1,0.2,8.2,0.3,12.2,0.4s8.1,0,12.3-0.1c17.1-0.5,34.1-3.1,50.7-7.6c9.2-2.6,16.7-6.5,23.7-10.3c1.3-0.7,2.6-1.4,3.9-2l2-1l1.9-1
		l3.7-1.9c1.2-0.7,2.3-1.3,3.3-2c5.7-3.6,10.9-7.8,15.6-12.6c-4.8,4.5-9.9,8.7-15.4,12.3c-4.3,2.8,2.4-2.9,4.9-5.1
		c0.7-0.5,1.5-1,2.3-1.2c0.8-0.3,1.6-0.8,2.2-1.3c1.2-0.9,2.4-2,3.4-3.1l3.3-3.5c0.9-1.1,1.4-0.3,1.9-0.9c1.4-1.5,2.7-3.2,3.8-4.9
		c0.8-1.4,1.8-2.7,3-3.9c1.6-1.6,2.9-3.1,4.3-4.5c0.8-0.9,1.6-1.9,2.3-3c0.4-0.7,0.8-1.4,1.3-2.2c-0.4,0.3-1,0.4-1.5,0.3
		c0.7-0.9,1.9-2.2,2.6-3.2c-0.7,1-1.8,2.2-2.6,3.2c0.5,0.1,1,0,1.5-0.3c3.2-5.6,6-11.4,8.3-17.4h-0.1c-0.7,1.7-1.6,3.3-2.5,5
		c-1,1.6-2.1,3.2-3.2,4.7c1-1.4,1.2-1,0.2,0.6l-1.2,1c0.8-1.4,1.5-3,2.2-4.4c0.8-1.4,1.7-2.7,2.7-4c0,0,0.4-1.4,0.6-2
		c0.6-0.9,0.8-0.7,1.2-0.8c0.3-0.7,0.6-1.3,0.9-2c-0.5,0.6-1.5,1.9-2.3,3.1L730,406.4z"/>
	<path class="st3" d="M707.2,436.4l1.2-1.3c-1.7,1.7-3.5,3.2-5.4,4.7C704.7,439,706.1,437.8,707.2,436.4z"/>
</g>
</svg>
