<?xml version="1.0" encoding="utf-8"?>
<!-- Generator: Adobe Illustrator 25.0.0, SVG Export Plug-In . SVG Version: 6.00 Build 0)  -->
<svg version="1.1" id="Layer_1" xmlns="http://www.w3.org/2000/svg" xmlns:xlink="http://www.w3.org/1999/xlink" x="0px" y="0px"
	 viewBox="0 0 841.9 841.9" style="enable-background:new 0 0 841.9 841.9;" xml:space="preserve">
<style type="text/css">
	.st0{fill:#FAD5E5;}
	.st1{opacity:0.85;}
	.st2{fill:#161315;}
	.st3{fill:#211F1E;}
	.st4{fill:#1F2020;}
</style>
<rect y="0.6" class="st0" width="841.9" height="841.9"/>
<g class="st1">
	<path class="st2" d="M391.6,359.2l-2.8,2.8c0.5-0.4,1.1-0.8,1.6-1.2C391,360.4,391.4,359.9,391.6,359.2z"/>
	<path class="st2" d="M386.2,364.6l-0.5,0.5l-0.4,0.5L386.2,364.6z"/>
	<path class="st2" d="M381.5,369.6c0.9-0.8,1.7-1.7,2.5-2.5C383.1,367.9,382.2,368.7,381.5,369.6z"/>
	<path class="st2" d="M385.5,365.9c-0.4,0.2-0.6,0.2-0.2-0.3l0,0l-1.4,1.6C384.4,366.7,385,366.3,385.5,365.9z"/>
	<path class="st2" d="M385.5,365.9c0.4-0.2,0.9-0.6,1.1-0.7C386.3,365.4,385.9,365.6,385.5,365.9z"/>
	<path class="st2" d="M386.7,369.5c-0.4,0.6-1-0.2-1.8,0.9c-2.1,2.5-3.7,4.7-5.9,6.9c-0.8,1.1-3.1,1.9-3.9,3c-2.1,2.5-7,9.2-3.6,5.8
		c5.1-5.3,8.3-8.8,12.8-13.6c3.5-4,6.8-8,10.4-12.1c1-1.1,2.1-2.1,3.2-3l-4.5,3.9C391.2,363,389.6,366.3,386.7,369.5z"/>
	<path class="st2" d="M412.7,339l-1.2,1.7c-2.6,1.9-4.9,4.1-6.8,6.6l1.4-0.7c1.3-1.4,1.2-1.7-0.1-0.7c2.9-2.2,5.7-4.6,8.1-7.3
		C413.7,338.7,413.5,338.4,412.7,339z"/>
	<path class="st2" d="M415.5,337.1l-1.5,1.6h0.1L415.5,337.1L415.5,337.1z"/>
	<path class="st2" d="M371.8,380.6c-6.5,6.5-12.6,12.6-18.6,18.5c-0.3,0.6-0.7,1.2-1.2,1.6c-0.6,0.3-1.1,0.7-1.6,1.2
		c-0.9,0.9-1.8,1.7-2.6,2.6l-0.9,1l0,0c-0.4,0.6-0.2,0.5,0.2,0.3c0.4-0.2,0.8-0.5,1.2-0.7c-0.2,0.1-0.8,0.5-1.2,0.7
		c-0.6,0.4-1.1,0.8-1.6,1.2c-0.8,0.9-1.6,1.7-2.5,2.5c0.7-0.9,1.6-1.7,2.5-2.5l1.4-1.6c0.1-0.2,0.2-0.3,0.4-0.5l-6,5.8
		c-0.4,0.5-0.9,0.9-1.2,1.3c-1.4,1.5-2.8,3-4,3.5l-1.1,1l0.3-0.1l-0.5,0.3l-4.9,3.9c-0.5,0.5-0.9,1-1.4,1.5s-1,1-1.5,1.4l-1.4,0.5
		c-0.5,0.7-1,1.3-1.6,1.8c1.1-0.4,2.1-0.8,3-1.2c1.5-0.5,2-2.6,3.9-3c-1.8,0.4-2.4,2.5-3.9,3c-0.9,0.4-1.9,0.8-3,1.2
		c-0.4,0.3-0.8,0.7-1.3,1c-0.5,0.3-1,0.6-1.5,0.9c-1,0.5-2,1-3.1,1.4c1.7-1.4,3.7-2.5,5.8-3.2c0.6-0.5,1.2-1.1,1.6-1.8l1.4-0.5
		c0.5-0.5,1-1,1.5-1.4s1-1,1.4-1.5c-1.6,1.3-3.3,2.4-5,3.6l-2.6,1.8c-0.9,0.6-1.8,1.1-2.7,1.7l-4.4,2.6l-4.5,2.3l-2.2,1.2l-2.3,1
		l-4.5,2l-4.6,1.8l-2.3,0.9c-0.8,0.3-1.6,0.5-2.4,0.8l-4.7,1.5c-1.6,0.4-3.2,0.8-4.8,1.2l-2.4,0.6c-0.8,0.2-1.6,0.3-2.4,0.5
		l-4.9,0.9l-5,0.6l-2.5,0.3l-2.5,0.2l-5.1,0.3h-5.1c-1.7,0-3.4-0.1-5.2-0.2l-2.6-0.1c-0.9,0-1.7-0.1-2.6-0.2
		c-14.6-1.5-28.8-5.8-41.9-12.5l-4.7-2.4c-1.5-0.9-3-1.8-4.5-2.7c-0.7-0.5-1.5-0.9-2.2-1.3l-2.1-1.4c-1.4-1-2.9-1.9-4.2-2.9
		c-2.7-2.1-5.5-4-8-6.3l-1.9-1.6l-1-0.8l-0.9-0.9l-3.6-3.5c-4.8-4.8-9.1-10.1-12.8-15.7c-1.9-2.9-3.7-5.8-5.2-8.9
		c-0.8-1.5-1.5-3.1-2.2-4.7l-1.1-2.4c-0.4-0.8-0.6-1.6-0.9-2.5c-1.9-4.9-4.9-12.5-8.1-19.9s-6.4-14.6-8.5-19.6
		c-7.2-12.8-8-4.2-8-3.5c0.3,9.6,4.8,15.3,10,32.9c-1.9-6-0.5-4.1,1.7,0.8c0.5,1.2,1.1,2.6,1.7,4.1s1.2,3.1,1.9,4.8s1.3,3.4,1.8,5
		c0.1,0.4,0.3,0.8,0.4,1.2s0.3,0.8,0.4,1.2c0.3,0.8,0.5,1.5,0.8,2.3c2.5,8.6,8.3,17.9,16,26.2s17,15.6,25.9,21.9
		c1.1,0.8,2.3,1.6,3.4,2.4l3.8,2.2c1.3,0.7,2.6,1.5,4,2.2l4.3,2.1c7.5,3.8,15.3,6.8,23.4,9c8,2,16.3,3.3,24.5,3.7l6.2,0.2l6.3-0.2
		c1,0,2.1-0.1,3.1-0.2l3.1-0.3c1-0.1,2.1-0.2,3.2-0.3l3.1-0.5c8.6-1.2,17.1-3.2,25.3-6c9-3.1,16.1-7.5,22.7-11.9
		c2.4-1.6,5-3.1,7.4-4.6s4.6-3.1,6.5-4.5c1.4-1.2,2.8-2.3,4.1-3.5l1.9-1.7c0.6-0.5,1.2-1.2,1.8-1.7c2.3-2.3,4.5-4.6,6.3-6.8
		c-2.2,2.4-4.4,4.5-6.5,6.6c-0.5,0.5-1.1,1.1-1.6,1.6l-1.8,1.5l-4,3.4c-1,0.8-1.4,1-1.3,0.8c0.3-0.5,0.7-1,1.1-1.5
		c1.3-1.5,3.3-3.7,4.5-4.8c0.6-0.6,1.3-1.1,2.1-1.4c0.8-0.4,1.5-0.9,2.1-1.5c1.1-1,2.1-2.1,3.1-3.3c0.9-1.1,1.9-2.3,2.9-3.6
		c0.8-1.1,1.4-0.3,1.8-0.9c3-3.3,4.5-6.5,6.6-8.3l4.5-3.9c0.9-0.8,1.7-1.6,2.6-2.5l1.5-1.9c-0.5,0.2-1,0.2-1.5,0
		c0.9-0.8,2.2-1.8,3-2.6c-0.9,0.8-2.2,1.8-3,2.6c0.5,0.2,1,0.2,1.5,0c3.7-4.5,8-9.6,12.1-14.2h-0.1c-2.5,2.7-5.2,5.1-8.1,7.3
		c1.3-1,1.4-0.7,0.1,0.7l-1.4,0.7c1.9-2.5,4.2-4.8,6.8-6.6l1.2-1.7c0.8-0.6,1-0.4,1.3-0.4l1.5-1.5
		C375.2,378,373.4,379.2,371.8,380.6z"/>
	<path class="st2" d="M345.4,406.9l1.2-1.3l-5.1,4.9C342.7,410,344,408.5,345.4,406.9z"/>
</g>
<g class="st1">
	<path class="st2" d="M453.1,368.9l3.3,3.4c-0.5-0.6-1-1.3-1.5-1.9C454.5,369.8,453.8,369.3,453.1,368.9z"/>
	<path class="st2" d="M459.5,375.5l0.6,0.6l0.6,0.5L459.5,375.5z"/>
	<path class="st2" d="M465.6,381.2c-1-1.1-2-2-3-3C463.5,379.3,464.5,380.3,465.6,381.2z"/>
	<path class="st2" d="M461.1,376.3c0.3,0.5,0.3,0.8-0.3,0.2l0,0l1.9,1.7C462,377.6,461.5,377,461.1,376.3z"/>
	<path class="st2" d="M461.1,376.3c-0.2-0.4-0.7-1.1-0.8-1.3C460.5,375.5,460.8,375.9,461.1,376.3z"/>
	<path class="st2" d="M465,375.4c0.7,0.5-0.1,1.1,1.2,2.1c2.9,2.6,5.6,4.6,8.2,7.2c1.3,1,2.4,3.6,3.7,4.6c3,2.6,10.9,8.7,6.7,4.6
		c-6.3-6.1-10.6-10-16.3-15.5c-4.8-4.3-9.5-8.3-14.4-12.7c-1.3-1.3-2.5-2.5-3.7-3.8l4.8,5.4C457.3,369.8,461,371.8,465,375.4z"/>
	<path class="st2" d="M428.7,343.6l2,1.5c2.3,3.1,5,5.8,8,8.2l-0.9-1.6c-1.6-1.5-2-1.5-0.7,0c-2.7-3.5-5.7-6.7-8.9-9.7
		C428.1,342.5,427.9,342.7,428.7,343.6z"/>
	<path class="st2" d="M426.3,340.4l1.9,1.8c0,0,0-0.1,0-0.1L426.3,340.4L426.3,340.4z"/>
	<path class="st2" d="M478.7,393c7.9,7.8,15.2,15.2,22.3,22.4c0.7,0.4,1.4,0.9,1.9,1.5c0.4,0.7,0.9,1.3,1.5,1.9l3.1,3.2l1.2,1l0,0
		c0.7,0.5,0.6,0.2,0.3-0.2s-0.6-0.9-0.9-1.4c0.1,0.3,0.6,0.9,0.9,1.4c0.5,0.7,1,1.3,1.5,1.9c1,0.9,2,1.9,3,3c-1.1-0.9-2.1-1.9-3-3
		l-1.9-1.7c-0.2-0.1-0.4-0.3-0.6-0.5l7.1,7.3l1.5,1.4c1.8,1.6,3.6,3.3,4.4,4.7l1.3,1.3L522,437l0.4,0.5l5.3,5.5c1.3,1,2.7,2.1,4,3.2
		l0.9,1.5c0.9,0.5,1.6,1,2.4,1.7c-0.8-1.2-1.4-2.3-2.1-3.3c-0.9-1.6-3.4-2-4.2-4.1c0.8,2.1,3.3,2.5,4.2,4.1c0.7,1,1.3,2.1,2.1,3.3
		c2,1.8,3.8,3.8,5.4,6c-2.1-1.7-3.9-3.7-5.4-6c-0.7-0.7-1.5-1.2-2.4-1.7l-0.9-1.5c-1.3-1.1-2.7-2.2-4-3.2l10.6,11
		c11.5,12,22.7,23.3,34,34.8l8.5,8.6c1.5,1.5,2.8,2.9,4.4,4.4c0.8,0.8,1.6,1.4,2.4,2.1s1.7,1.3,2.5,2c7.2,5.1,15.7,8.1,24.6,8.5
		c19.7,1,38-10.2,46.1-28.2c14.7-31.9,26-61.8,42.1-93.5c6.1-12.2,15.5-35.6,20.5-47.7c5.4-16.8-2-10-2.5-9.4
		c-7.5,8.6-9,17.1-19.4,36.6c6.9-13.4-2.2,11.1-10,23.2c-11.4,17.4-20,45.5-30.8,68.4c-2.7,5.7-5.1,12-8.2,18.9
		c-1.8,3.9-4.1,7.5-6.9,10.6c-8.5,9.3-20.9,14.1-33.5,12.9c-8.4-0.8-16.4-4.5-22.5-10.3l-0.6-0.6l-0.7-0.6l-1.3-1.3l-2.6-2.6
		l-5.3-5.3l-10.7-10.8c-7.7-7.7-15.1-13.9-22-20c-4.9-4.6-9.6-10-13.5-13.9c-6.1-6-11.5-11-16.8-15.7c5.7,5.5,10,9.4,16.3,15.5
		c4.2,4.1-3.8-2-6.7-4.6c-1.3-1-2.4-3.6-3.8-4.6c-2.6-2.6-5.2-4.6-8.2-7.2c-1.3-1-0.5-1.6-1.2-2.1c-3.9-3.6-7.7-5.6-9.9-8.2
		l-4.8-5.4c-1-1-2-2.1-3-3.1l-2.2-1.9c0.3,0.5,0.3,1.1,0.2,1.6c-1-1-2.2-2.6-3.1-3.6c1,1,2.2,2.6,3.1,3.6c0.1-0.6,0.1-1.1-0.2-1.6
		c-5.3-4.5-11.4-9.9-17-14.9c0,0,0,0.1,0,0.1c3.2,3,6.2,6.3,8.9,9.7c-1.2-1.5-0.9-1.6,0.8,0l0.9,1.6c-3-2.6-5.9-5.1-8-8.2l-2-1.5
		c-0.8-1-0.5-1.1-0.5-1.5L474,387C475,388.5,478.7,393,478.7,393z"/>
	<path class="st2" d="M510.5,424.9l-1.5-1.4l5.9,6.1C514.1,428.1,512.3,426.5,510.5,424.9z"/>
</g>
<g class="st1">
	<path class="st3" d="M605.3,498.5c0.3,0.2,0.6,0.5,0.9,0.6c-0.2-0.1-0.3-0.3-0.4-0.4C605.7,498.5,605.5,498.4,605.3,498.5z"/>
	<path class="st3" d="M607,499.6l0.2,0.1h0.2C607.3,499.7,607.2,499.7,607,499.6z"/>
	<path class="st3" d="M608.9,500.4c-0.3-0.1-0.6-0.3-0.9-0.4C608.2,500.2,608.5,500.3,608.9,500.4z"/>
	<path class="st3" d="M607.5,499.6c0.1,0.1,0.1,0.2-0.1,0.2l0,0l0.6,0.2C607.8,499.9,607.6,499.8,607.5,499.6z"/>
	<path class="st3" d="M607.5,499.6c-0.1-0.1-0.2-0.2-0.2-0.3C607.3,499.4,607.4,499.5,607.5,499.6z"/>
	<path class="st3" d="M608.7,498.3c0.2,0-0.1,0.4,0.3,0.5c0.4,0.1,0.8,0.2,1.2,0.2l1.1,0.2c0.3,0,0.8,0.7,1.1,0.6
		c0.9,0.1,2.9-0.5,1.7-0.5c-1.5,0-3-0.3-4.5-0.7c-1.3-0.3-2.6-0.8-3.8-1.5c-0.3-0.2-0.6-0.5-0.8-0.8c0.2,0.2,0.3,0.4,0.5,0.6
		l0.6,0.5c0.3,0.3,0.7,0.5,1.1,0.5C607.7,498,608.2,498.1,608.7,498.3z"/>
	<path class="st3" d="M600.3,492.1l0.4,0.4c0.2,0.9,0.7,1.7,1.4,2.2v-0.5c-0.3-0.4-0.5-0.4-0.3,0.1c-0.4-0.9-0.8-1.9-1.3-2.7
		C600.4,491.8,600.2,491.8,600.3,492.1z"/>
	<path class="st3" d="M600.2,491.2c0.1,0.2,0.2,0.3,0.3,0.5l0,0L600.2,491.2L600.2,491.2z"/>
	<path class="st3" d="M612.9,501c2.4,0.3,4.8,0.1,7.1-0.6c0.1-0.1,0.2-0.3,0.5-0.3c0.2,0,0.4,0,0.6,0c0.3-0.1,0.6-0.3,0.9-0.4
		l0.3-0.2l0,0c0.1-0.1,0.1-0.2-0.1-0.2c-0.1,0-0.3,0-0.4,0c0.1,0,0.3,0,0.4,0c0.2,0,0.4-0.1,0.5-0.1c0.3-0.2,0.5-0.4,0.8-0.5
		c-0.2,0.2-0.5,0.4-0.8,0.5l-0.5,0.3l-0.1,0.1c0.7-0.3,1.4-0.7,2-1.1c0.1-0.1,0.3-0.2,0.4-0.3c0.3-0.4,0.7-0.7,1.2-0.8l0.3-0.3h-0.1
		l0.1-0.1c0.5-0.4,0.9-0.7,1.3-1.2l0.6-1l0.4-0.1c0-0.2,0.1-0.5,0.2-0.6c-0.3,0.1-0.6,0.3-0.8,0.4c-0.4,0.1-0.2,1-0.9,1
		c0.6,0,0.5-0.8,0.9-1c0.2-0.1,0.5-0.3,0.8-0.4c0.3-0.5,0.8-1,1.3-1.4c-0.2,0.6-0.7,1.1-1.3,1.4c-0.1,0.2-0.2,0.4-0.2,0.6l-0.4,0.1
		l-0.6,1c0.4-0.4,0.8-0.8,1.2-1.2c0.4-0.4,0.8-0.9,1.1-1.4c2.4-3,3.6-6.8,3.6-10.6c-0.2-4-1.9-7.8-4.8-10.5
		c-1.5-1.6-3.2-2.9-5.1-4.1c-1.8-1.1-3.8-2-5.8-2.7c-2-0.7-4.2-0.9-6.3-0.8c-2.2,0.1-4.3,0.7-6.2,1.8c-1.9,1.1-3.6,2.6-4.9,4.4
		c-1.4,1.8-2.5,3.7-3.4,5.7c-0.8,2.1-1.2,4.3-1.2,6.5c0,2.2,0.3,4.4,0.9,6.6c0.3,0.7,0.8,1.4,1.5,1.8c0.3,0.2,0.7,0.3,1.1,0.1
		c0.4-0.3,0.7-0.7,0.9-1.1c0.2-0.6,0.3-1.3,0.3-1.9c0-0.3,0-0.6,0-0.9c0-0.3,0-0.6-0.1-1c-0.2-1.7-0.1-3.5,0.5-5.2
		c-0.4,1.5-0.7,1-0.6-0.4c0.1-1.7,0.8-3.3,1.8-4.6c1.6-1.6,2.8-3.5,4.5-5c0.8-0.8,1.8-1.4,2.9-1.8c0.5-0.2,1.1-0.4,1.7-0.5
		c0.6-0.1,1.2-0.1,1.8,0c0.6,0.1,1.2,0.1,1.8,0.2c0.3,0,0.7,0.1,1,0.1l1,0.2c1.8,0.6,3.5,1.4,5.2,2.4c1.6,0.9,3.1,2,4.4,3.3
		c1.3,1.2,2.3,2.7,2.9,4.4c0.6,1.7,0.8,3.5,0.5,5.3c-0.2,1.9-0.7,3.8-1.3,5.6c-0.3,0.6-0.7,1.2-1.2,1.7c-0.5,0.5-0.9,1-1.3,1.3
		c-1,1.1-2.1,2.2-3.3,3.2c1.2-0.9,2.3-1.9,3.3-3.1c0.4-0.4,0.4-0.2,0.2,0.3c-0.1,0.3-0.2,0.5-0.4,0.8c-0.1,0.2-0.3,0.4-0.5,0.6
		c-0.2,0.3-0.9,0.3-1.2,0.5c-0.3,0.2-0.6,0.5-0.8,0.8c-0.3,0.2-0.5,0.5-0.8,0.8s-0.4-0.2-0.6,0c-0.4,0.3-0.8,0.6-1.2,1
		c-0.3,0.3-0.6,0.5-1,0.6c-0.5,0.1-1,0.2-1.5,0.2c-0.3,0.1-0.6,0.1-0.9,0.1l-0.6,0.2c0.2,0.1,0.3,0.3,0.3,0.5c-0.3,0-0.7,0-1-0.1
		c0.3,0,0.7,0.1,1,0.1c-0.1-0.2-0.2-0.3-0.3-0.5c-1.6,0.5-3.2,0.6-4.8,0.5l0,0c0.5,0.1,0.9,0.1,1.4,0.2c0.5,0.1,1,0.2,1.5,0.4
		c-0.4-0.1-0.4-0.3,0.1-0.3c0.1,0.1,0.2,0.2,0.4,0.2c-0.8,0.2-1.7,0.1-2.5-0.3l-0.6,0.1c-0.3-0.1-0.2-0.3-0.2-0.4l-0.5-0.1
		c0.3,0.2,0.6,0.4,0.9,0.6L612.9,501z"/>
	<path class="st3" d="M622.7,499.1c-0.1,0.1-0.3,0.2-0.4,0.2c0.6-0.2,1.1-0.6,1.7-0.9C623.5,498.5,623.1,498.8,622.7,499.1z"/>
</g>
<circle class="st4" cx="615" cy="484.8" r="5.7"/>
<g class="st1">
	<path class="st3" d="M618.6,488.7l-0.3,0.2c0.1,0,0.1,0,0.2,0C618.6,488.9,618.6,488.8,618.6,488.7z"/>
	<polygon class="st3" points="618.1,489.1 618.1,489.1 618,489.2 	"/>
	<path class="st3" d="M617.7,489.5c0.1,0,0.2-0.1,0.3-0.2C617.8,489.4,617.7,489.4,617.7,489.5z"/>
	<path class="st3" d="M618.1,489.3C618,489.3,618,489.3,618.1,489.3L618.1,489.3l-0.2,0C618,489.3,618,489.3,618.1,489.3z"/>
	<path class="st3" d="M618.1,489.3L618.1,489.3z"/>
	<path class="st3" d="M618.4,490.1c0,0.1-0.2-0.1-0.2,0c-0.2,0.2-0.4,0.4-0.7,0.6c-0.1,0.1-0.4-0.1-0.5,0c-0.3,0.2-1,0.7-0.5,0.5
		c0.6-0.2,1.2-0.5,1.7-0.8c0.4-0.4,0.8-0.7,1.1-1.2c0.1-0.1,0.2-0.2,0.3-0.3c-0.2,0.1-0.3,0.2-0.5,0.3S618.8,489.8,618.4,490.1z"/>
	<path class="st3" d="M620.2,486.7v0.2c-0.3,0.2-0.3,0.5-0.4,0.7l0.2,0c0.1-0.1,0-0.2-0.1-0.1c0.3-0.2,0.5-0.5,0.5-0.8
		C620.3,486.7,620.2,486.7,620.2,486.7z"/>
	<path class="st3" d="M620.4,486.5c0,0.1,0,0.1,0,0.2l0,0V486.5L620.4,486.5z"/>
	<path class="st3" d="M616.6,490.2c-0.8,0.2-1.6,0.3-2.3,0.1c-0.1,0-0.1,0.1-0.2,0c0-0.1-0.1-0.1-0.2-0.1l-0.3-0.1h-0.1
		c-0.1,0-0.1,0,0,0.1l0.1,0.1c0,0-0.1-0.1-0.1-0.1c0,0-0.1-0.1-0.2-0.1c-0.1,0-0.2-0.1-0.3-0.1c0.1,0,0.2,0.1,0.3,0.1h0.2h0.1
		c-0.2-0.1-0.5-0.2-0.7-0.3h-0.2c-0.2,0-0.4-0.1-0.4-0.3l-0.1-0.1l0,0v0c-0.1-0.1-0.3-0.2-0.4-0.3c-0.1,0-0.3-0.1-0.4-0.1v-0.2
		c-0.1,0-0.2,0-0.2-0.1c0,0.1,0,0.2,0.1,0.4c0,0.2,0.4,0,0.4,0.3c0-0.3-0.3-0.1-0.4-0.3c0-0.1-0.1-0.2-0.1-0.4
		c-0.2-0.1-0.3-0.3-0.3-0.5c0.2,0.1,0.3,0.3,0.3,0.5c0.1,0,0.1,0.1,0.2,0.1v0.1c0.1,0.1,0.3,0.1,0.4,0.1c-0.3-0.2-0.5-0.5-0.8-0.8
		c-1.5-1.8-1.6-4.4-0.3-6.4c0.7-1,1.8-1.7,3-1.9c1.1-0.2,2.2-0.1,3.2,0.3c1,0.4,1.7,1.2,2,2.3c0.1,0.4,0.3,0.9,0.4,1.4
		c0.1,0.5,0.1,1,0,1.4c0,0.4,0.3,0.7,0.7,0.9c0.2,0.1,0.4,0.1,0.7,0c0.5-0.2,0.8-0.7,0.8-1.2c0.1-0.7,0.1-1.4,0.1-2.1
		c0,0.7-0.2,0.5-0.3,0c-0.2-0.7-0.4-1.3-0.6-2c-0.3-1.1-1-2-2.1-2.5c-1.1-0.5-2.3-0.8-3.5-0.8c-0.6,0-1.3,0.1-1.9,0.3
		c-1.8,0.4-3.4,1.6-4.2,3.2c-0.9,1.7-1.1,3.6-0.6,5.4c0.3,0.9,0.8,1.7,1.5,2.3c0.3,0.5,0.7,0.9,1.2,1.3c0.5,0.4,1.2,0.7,1.9,0.8
		c-0.6-0.2-1.2-0.5-1.8-0.9c-0.4-0.3,0.5,0,0.8,0.1c0.1,0,0.2,0.4,0.4,0.4c0.3,0.1,0.6,0.2,0.9,0.2c0.2,0,0.1,0.2,0.1,0.2
		c0.5,0.1,0.8-0.1,1.1,0c0.2,0.1,0.4,0.1,0.6,0.2c0.1,0,0.2,0,0.4,0l0.2-0.1c-0.1-0.1-0.1-0.2-0.1-0.2c0.1,0,0.3,0.1,0.4,0
		c-0.1,0-0.3,0-0.4,0c0,0.1,0.1,0.2,0.1,0.2c0.6-0.2,1.2-0.4,1.7-0.7l0,0c-0.3,0.1-0.7,0.2-1,0.1c0.2,0,0.2,0.1,0,0.1l-0.2-0.1
		c0.3-0.1,0.6-0.2,0.9-0.1l0.2-0.1c0.1,0,0.1,0.1,0.2,0.1l0.2-0.1C617,490.2,616.8,490.2,616.6,490.2z"/>
	<path class="st3" d="M613.3,490.1h0.2c-0.2-0.1-0.4-0.2-0.6-0.2C612.9,490.1,613.1,490.1,613.3,490.1z"/>
</g>
<g class="st1">
	<path class="st3" d="M203.9,412.5l1,0.4c-0.2-0.1-0.3-0.2-0.5-0.3C204.2,412.5,204,412.5,203.9,412.5z"/>
	<path class="st3" d="M205.9,413.3l0.2,0.1h0.2L205.9,413.3z"/>
	<path class="st3" d="M207.7,413.7c-0.3-0.1-0.6-0.2-0.9-0.2C207.1,413.6,207.4,413.7,207.7,413.7z"/>
	<path class="st3" d="M206.3,413.1c0.1,0.1,0.1,0.2-0.1,0.2l0,0l0.6,0.1C206.6,413.4,206.4,413.3,206.3,413.1z"/>
	<path class="st3" d="M206.3,413.1c-0.1-0.1-0.2-0.2-0.3-0.3C206.1,413,206.2,413.1,206.3,413.1z"/>
	<path class="st3" d="M207.3,411.7c0.2,0,0,0.5,0.4,0.5c0.8,0.1,1.7,0.2,2.5,0.4c0.4,0,0.8,0.7,1.2,0.7c0.9,0.1,3.2,0,1.9-0.3
		c-1.9-0.4-3.2-0.7-5-1.1l-2.2-0.3c-0.7-0.1-1.4-0.3-2.2-0.4c-0.4-0.1-0.8-0.3-1.1-0.4l1.5,0.7C205,411.7,206.1,411.5,207.3,411.7z"
		/>
	<path class="st3" d="M196.4,409.5l0.6,0.1c0.7,0.5,1.5,0.9,2.4,1l-0.3-0.4c-0.5-0.2-0.6-0.1-0.2,0.2c-0.8-0.6-1.7-1-2.7-1.4
		C196.2,409.2,196.2,409.4,196.4,409.5z"/>
	<path class="st3" d="M195.7,408.9l0.6,0.2V409L195.7,408.9L195.7,408.9z"/>
	<path class="st3" d="M211.7,414.4c2.4,0.6,4.8,1.2,7,1.7c0.2-0.1,0.4-0.1,0.6,0c0.2,0.1,0.3,0.2,0.5,0.3l1,0.2c0.1,0,0.2,0,0.4,0
		l0,0c0.2,0,0.2-0.1,0.1-0.2c-0.1-0.1-0.2-0.1-0.3-0.2c0.1,0.1,0.2,0.1,0.3,0.2c0.2,0.1,0.3,0.2,0.5,0.2c0.3,0,0.6,0.1,0.9,0.1
		c-0.3,0-0.6-0.1-0.9-0.1h-0.6h-0.2l2.3,0.5h0.5c0.5,0,1,0.1,1.4,0.4l0.4,0.1l-0.1,0l0.1,0.1l1.7,0.3c0.4,0,0.8-0.1,1.2-0.1l0.4,0.3
		c0.2-0.1,0.4-0.1,0.7-0.1c-0.3-0.2-0.6-0.4-0.8-0.5c-0.4-0.3-0.9,0.4-1.3-0.1c0.4,0.5,1-0.1,1.3,0.1c0.2,0.1,0.5,0.3,0.8,0.5
		c0.6,0,1.2,0.2,1.8,0.5c-0.6,0.1-1.3-0.1-1.8-0.5c-0.2,0-0.5,0.1-0.7,0.1l-0.4-0.3c-0.4,0-0.8,0.1-1.2,0.1l3.4,0.6
		c7.5,1.1,15,1.5,22.5,1.4c4.3,0,8.4-0.2,12.5-0.3c8.1-0.4,15.3-2.4,23.5-3.4c3.2-0.4,8.7-2.4,11.6-3.6c1.8-1.1,2-2,1.7-2.6
		c-0.3-0.4-0.7-0.7-1.1-0.9c-2.9-0.7-4.4,0.9-9.4,1.4c3.4-0.5-2.1,1.9-5.5,1.5c-4.9-0.6-11,2.2-16.7,2.6c-1.4,0.1-2.9,0.4-4.6,0.5
		c-8.8,0.4-16.9,1.5-26.1,0.8c-1.2-0.1-2.3-0.1-3.5,0l-3.2,0.1c-1.4-0.1-2.9-0.4-4.3-0.7c-1.9-0.2-3.6-0.4-5.2-0.4
		c1.8,0.2,3.1,0.3,5,0.5c1.3,0.1-1,0.5-1.9,0.5c-0.4,0-0.9-0.6-1.3-0.5c-0.8-0.1-1.6-0.1-2.5-0.1c-0.4,0-0.3-0.4-0.5-0.4
		c-1.2-0.1-2.2,0.3-2.9,0l-1.5-0.5c-0.3-0.1-0.6-0.2-0.9-0.2c-0.2,0-0.4,0-0.7,0c0.1,0.2,0.2,0.4,0.2,0.6c-0.3-0.1-0.7-0.3-1-0.4
		c0.3,0.1,0.7,0.3,1,0.4c0-0.2-0.1-0.4-0.2-0.6c-1.6-0.1-3.4-0.3-5.1-0.5l0,0c1,0.2,1.9,0.5,2.8,1c-0.4-0.2-0.3-0.3,0.2-0.2l0.3,0.3
		c-0.9,0-1.8-0.2-2.5-0.7H211c-0.2-0.1-0.2-0.3-0.2-0.4l-0.6-0.1c0.3,0.2,0.6,0.4,0.9,0.6L211.7,414.4z"/>
	<path class="st3" d="M221.7,416.7h-0.5l1.9,0.4C222.7,416.8,222.2,416.6,221.7,416.7z"/>
</g>
</svg>
