<?xml version="1.0" encoding="utf-8"?>
<!-- Generator: Adobe Illustrator 25.0.0, SVG Export Plug-In . SVG Version: 6.00 Build 0)  -->
<svg version="1.1" id="Layer_1" xmlns="http://www.w3.org/2000/svg" xmlns:xlink="http://www.w3.org/1999/xlink" x="0px" y="0px"
	 viewBox="0 0 841.9 841.9" style="enable-background:new 0 0 841.9 841.9;" xml:space="preserve">
<style type="text/css">
	.st0{fill:#DEAB90;}
	.st1{opacity:0.85;}
	.st2{fill:#211F1E;}
	.st3{fill:#040505;}
</style>
<rect class="st0" width="841.9" height="841.9"/>
<g class="st1">
	<path class="st2" d="M720.8,367.6c-0.2,1.4-0.4,2.7-0.6,4.1c0.2-0.7,0.4-1.3,0.6-2C720.9,369,720.9,368.2,720.8,367.6z"/>
	<path class="st2" d="M719.6,375.4c0,0.2-0.1,0.5-0.1,0.7v0.6C719.5,376.3,719.5,375.9,719.6,375.4z"/>
	<path class="st2" d="M718.7,382.6c0.3-1.2,0.4-2.5,0.6-3.6C719,380.1,718.8,381.4,718.7,382.6z"/>
	<path class="st2" d="M719.9,377c-0.2,0.4-0.4,0.6-0.4-0.1l0,0c0,0.7-0.1,1.4-0.2,2.2C719.5,378.2,719.7,377.5,719.9,377z"/>
	<path class="st2" d="M719.9,377c0.2-0.4,0.4-1.1,0.5-1.3C720.2,376.1,720,376.6,719.9,377z"/>
	<path class="st2" d="M722.9,379.3c0,0.7-0.9,0.4-1,1.9c-0.3,3.4-0.3,6.3-0.9,9.5c0,1.5-1.5,3.5-1.6,5c-0.4,3.4-0.8,12.2,0.1,7.1
		c0.7-3.8,1.2-7,1.7-10s0.8-6,1.3-9.5l0.4-4.2c0.1-1.4,0.2-2.8,0.3-4.1c0.2-2.8,0.3-5.6,0.6-8.4c0.2-1.6,0.4-3.1,0.7-4.6
		c-0.3,1.9-0.8,3.9-1.2,6.1C722.6,371,723.4,374.6,722.9,379.3z"/>
	<path class="st2" d="M724.4,337.3c0,0.7,0.1,2.2,0.1,2.2c-0.8,3.2-1.2,6.6-1,9.9l0.6-1.4c0.1-1.9-0.1-2.2-0.5-0.5
		c0.8-3.7,1.4-7.5,1.5-11.4C724.9,336.3,724.6,336.3,724.4,337.3z"/>
	<path class="st2" d="M725.3,333.9c0,0.7-0.1,1.5-0.1,2.2l0.1-0.1C725.3,335.3,725.3,334.5,725.3,333.9L725.3,333.9z"/>
	<path class="st2" d="M716.9,397.8c-0.5,2.4-0.9,4.7-1.4,7l-1.6,6.7c-0.3,1.1-0.5,2.2-0.8,3.3s-0.6,2.2-0.9,3.2
		c-0.6,2.1-1.2,4.3-1.8,6.4c0.1,0.7,0,1.4-0.3,2.1c-0.4,0.6-0.7,1.2-1,1.9c-0.4,1.2-0.8,2.4-1.2,3.6c-0.1,0.4-0.2,0.9-0.3,1.3l0,0
		c-0.1,0.7,0.1,0.6,0.4,0.2c0.2-0.4,0.5-0.8,0.7-1.2c-0.2,0.2-0.5,0.8-0.7,1.2c-0.3,0.6-0.6,1.2-0.9,1.9c-0.3,1.2-0.7,2.3-1.2,3.5
		c0.3-1.2,0.7-2.3,1.2-3.5c0.2-0.7,0.4-1.4,0.5-2.1c0-0.2,0.1-0.4,0.1-0.6c-0.9,2.8-2,5.5-3,8.2l-0.6,1.8c-0.4,1.8-1.2,3.5-2.2,5
		c-0.2,0.5-0.4,1-0.6,1.4l0.2-0.2c-0.1,0.2-0.2,0.4-0.3,0.5c-0.9,2-1.8,4-2.8,6c-0.5,1.4-0.9,2.8-1.4,4.2l-1.1,1.1
		c-0.1,0.8-0.4,1.6-0.8,2.4c0.8-0.8,1.6-1.6,2.3-2.5c1.1-1.1,0.6-3.4,2.2-4.6c-1.6,1.2-1.1,3.5-2.2,4.6c-0.7,0.9-1.5,1.7-2.3,2.5
		c-1,2.1-2.3,4.1-3.9,5.8c0.9-2.2,2.2-4.1,3.9-5.8c0.4-0.7,0.6-1.6,0.8-2.4l1.1-1.1c0.5-1.4,1-2.8,1.4-4.2l-3,5.8l-3.3,5.7
		c-3.7,6-7.8,11.6-12.5,16.9c-4.6,5.1-9.8,9.6-15.5,13.5c-5.8,3.8-12.1,6.7-18.7,8.6c-6.9,1.9-14,2.8-21.1,2.7
		c-7.8-0.2-15.5-1.4-23-3.4c-7.3-2-14.4-4.6-21.3-7.8c-6.8-3.1-13.3-6.4-19.6-10s-12.5-7.3-18.5-11.3c-12.3-8.1-23.8-17.4-34.3-27.6
		c-4.2-4.1-10.4-9.6-16.5-15.2s-12.1-11.2-16-15.2c-5.8-4.8-8-5.2-8.8-4.2s-0.2,3.3,0,3.6c2,4.6,4.6,7.9,8.3,11.9s8.5,8.6,15,15.8
		c-4.5-4.8-2.3-3.6,1.9,0c5.2,4.5,10.1,9.4,14.7,14.5c5.8,7.1,14.4,14,23.9,20.3s20.1,12.2,29.8,17.9c1.2,0.7,2.5,1.4,3.8,2
		s2.6,1.3,4,2l4.2,2l4.5,2c7.9,3.6,16.2,6.5,24.7,8.4c8.6,2,17.4,2.9,26.2,2.5c9.1-0.4,18-2.3,26.4-5.7c8.7-3.6,16.7-8.6,23.7-14.9
		c0.9-0.8,1.8-1.7,2.7-2.6l2.5-2.6c1.6-1.8,2.9-3.7,4.3-5.4c0.7-0.9,1.3-1.8,1.9-2.7l1.8-2.7c1.2-1.8,2.2-3.6,3.2-5.4
		c0.8-1.3,1.6-2.6,2.4-3.9s1.6-2.6,2.3-3.9s1.6-2.5,2.2-3.7s1.2-2.4,1.8-3.5c0.8-1.7,1.7-3.4,2.3-5s1.3-3.3,1.9-4.9
		c1.3-3.1,2.1-6.2,3-9.2c-1.1,3.3-2,6.2-3.2,9.1s-2.2,6-4,9.5c-1.1,2.4-1,1.4-0.4-0.5c0.3-1,0.7-2.2,1.1-3.4s0.7-2.3,1-3.1
		c0.4-1.4,2.3-3.1,2.6-4.6c1.1-3,2-6.1,2.7-9.2c0.3-1.5,1.2-1,1.3-1.7c1.2-4.5,1.2-8.3,2.2-11l2.1-5.9c0.4-1.2,0.8-2.4,1.1-3.7
		c0.1-0.8,0.2-1.7,0.3-2.5c-0.3,0.4-0.8,0.7-1.3,0.8c0.3-1.2,0.9-2.8,1.3-4c-0.3,1.2-0.9,2.8-1.3,4c0.5-0.1,0.9-0.4,1.2-0.9
		c0.4-3,0.9-6.3,1.4-9.6s0.9-6.7,1.3-9.9l-0.1,0.1c-0.6,3.8-1.5,7.5-2.9,11.1c0.6-1.6,0.8-1.4,0.4,0.6l-0.8,1.3
		c0.6-3.3,0.9-6.7,2.2-9.7c0,0,0.1-1.5,0.1-2.2c0.3-1,0.6-0.9,0.9-1.1l0.4-2.2C718.4,393,716.9,397.8,716.9,397.8z"/>
	<path class="st2" d="M706.9,435.4c0.1-0.5,0.3-1.1,0.5-1.8l-0.6,1.7l-0.7,1.7c-0.5,1.1-0.9,2.3-1.3,3.4
		C705.7,439.5,706.3,437.5,706.9,435.4z"/>
</g>
<g class="st1">
	<path class="st2" d="M628.5,444.9l-1-0.3c0.2,0.1,0.3,0.2,0.5,0.2C628.1,444.9,628.3,444.9,628.5,444.9z"/>
	<path class="st2" d="M626.6,444.3h-0.2h-0.2H626.6z"/>
	<path class="st2" d="M624.9,444.1c0.3,0.1,0.6,0.1,0.9,0.1C625.5,444.1,625.2,444.1,624.9,444.1z"/>
	<path class="st2" d="M626.3,444.4c-0.1-0.1-0.2-0.1,0-0.1l0,0l-0.5-0.1C625.9,444.2,626.1,444.3,626.3,444.4z"/>
	<path class="st2" d="M626.3,444.4l0.3,0.1L626.3,444.4z"/>
	<path class="st2" d="M625.7,445.1c-0.2,0-0.1-0.2-0.4-0.2h-1.1c-0.4,0-0.7,0-1.1,0c-0.3,0-0.8-0.2-1.2-0.1c-0.5,0.1-1,0.2-1.5,0.4
		c-0.4,0.2-0.6,0.3,0,0.2c1.4-0.3,2.9-0.4,4.4-0.3c1.3,0,2.5,0.3,3.8,0.6c0.3,0.1,0.7,0.3,1,0.5c-0.4-0.2-0.8-0.5-1.3-0.7
		c-0.4-0.1-0.7-0.2-1.1-0.3C626.7,445.2,626.2,445.2,625.7,445.1z"/>
	<path class="st2" d="M634.5,449l-0.4-0.3c-0.2-0.3-0.5-0.6-0.8-0.9c-0.3-0.3-0.6-0.5-1-0.7l0.2,0.3c0.4,0.3,0.5,0.3,0.2,0
		c0.6,0.7,1.3,1.3,1.9,2C634.6,449.2,634.7,449.2,634.5,449z"/>
	<path class="st2" d="M635,449.7l-0.4-0.4l0,0L635,449.7L635,449.7z"/>
	<path class="st2" d="M621.2,444.2c-2.2,0.3-4.3,1-6.2,2c-0.1,0.1-0.2,0.3-0.4,0.3c-0.2,0.1-0.3,0.1-0.5,0.2
		c-0.3,0.2-0.5,0.4-0.7,0.5l-0.2,0.2l0,0c-0.1,0.1-0.1,0.1,0,0.1l0.3-0.1l-0.3,0.1c-0.1,0.1-0.3,0.2-0.4,0.2
		c-0.2,0.2-0.4,0.4-0.6,0.6c0.2-0.2,0.4-0.4,0.6-0.6l0.4-0.3l0.1-0.1c-0.6,0.4-1.1,0.9-1.6,1.4c-0.1,0.1-0.2,0.2-0.3,0.3
		c-0.2,0.4-0.5,0.7-0.9,1l-0.2,0.3l0.1,0l-0.1,0.1c-0.3,0.4-0.6,0.9-0.9,1.3l-0.4,1l-0.2,0.3c0,0.2-0.1,0.4-0.1,0.6
		c0.2-0.2,0.3-0.5,0.5-0.6s0.2-0.8,0.5-1.1c-0.4,0.3-0.3,0.8-0.5,1.1s-0.3,0.4-0.5,0.6c-0.2,0.5-0.4,1-0.7,1.5
		c0.1-0.6,0.3-1.1,0.7-1.5c0.1-0.2,0.1-0.4,0.1-0.6l0.2-0.3l0.4-1c-0.6,0.9-1,1.9-1.3,2.9c-1.1,3.3-1.1,6.8,0,10.1
		c2.5,7.3,9.5,12,17.1,11.5c3.8-0.3,7.3-1.9,10-4.6c2.7-2.7,4.5-6.2,5.1-10c0.3-2,0.2-3.9-0.3-5.9c-0.5-1.9-1.3-3.7-2.4-5.3
		c-0.4-0.5-0.9-1-1.5-1.3c-0.3-0.2-0.5-0.1-0.6,0s-0.1,0.8-0.1,0.9c0.2,0.6,0.4,1,0.6,1.6s0.5,1,0.7,1.5c0.7,1.5,1.1,3.1,1.2,4.7
		c-0.1-1.5,0.1-1,0.4,0.3c0.2,1.5,0,3.1-0.5,4.6c-0.8,2.1-1.9,4.1-3.2,5.9c-1.5,2-3.5,3.5-5.8,4.4c-1.2,0.4-2.5,0.7-3.8,0.9
		c-3.6,0.2-7.2-0.9-10.1-3c-3-2.2-5-5.5-5.7-9.2c-0.3-1.9-0.4-3.7-0.2-5.6c0.3-1.2,0.7-2.4,1.4-3.4c0.4-0.7,0.8-1.4,1.2-2
		c0.5-0.6,0.8-1.2,1.3-1.6c-1,1-1.9,2.2-2.5,3.5c-0.3,0.5-0.2,0.3-0.1-0.1c0.1-0.2,0.2-0.5,0.3-0.7s0.2-0.5,0.3-0.6s0.6-0.6,0.8-0.8
		s0.4-0.5,0.6-0.8l0.7-0.8c0.2-0.3,0.3-0.1,0.4-0.2c0.4-0.3,0.7-0.6,1-1c0.3-0.3,0.6-0.5,0.9-0.7c0.4-0.2,0.9-0.4,1.3-0.6
		c0.3-0.1,0.5-0.2,0.8-0.3l0.5-0.3c-0.1,0-0.2-0.1-0.3-0.1c0.3-0.1,0.7-0.2,0.9-0.2c-0.3,0-0.7,0.2-0.9,0.2c0.1,0.1,0.2,0.1,0.3,0.1
		c1.4-0.7,2.8-1.1,4.3-1.2l0,0c-0.9,0-1.7,0.2-2.7,0.2c0.4,0,0.4,0-0.1,0.2h-0.4c0.4-0.2,0.8-0.3,1.2-0.3c0.4-0.1,0.8-0.1,1.2,0
		l0.5-0.1c0.3,0,0.2,0.1,0.3,0.1s0.3,0,0.5,0C622.3,444.4,621.8,444.3,621.2,444.2z"/>
	<path class="st2" d="M612.8,447.9l0.3-0.3c-0.5,0.4-0.9,0.7-1.3,1.2C612.2,448.6,612.6,448.3,612.8,447.9z"/>
</g>
<circle class="st3" cx="623.3" cy="460.2" r="7.2"/>
<g class="st1">
	<path class="st2" d="M617.4,456.8l0.2-0.4c-0.1,0.1-0.1,0.1-0.2,0.1C617.4,456.7,617.4,456.7,617.4,456.8z"/>
	<polygon class="st2" points="617.9,456.1 617.9,456.1 617.9,456 	"/>
	<path class="st2" d="M618.3,455.5c-0.1,0.1-0.2,0.2-0.2,0.3C618.1,455.7,618.2,455.6,618.3,455.5z"/>
	<path class="st2" d="M617.9,456C617.9,456,618,456,617.9,456L617.9,456l0.2-0.1C618,455.9,617.9,456,617.9,456z"/>
	<path class="st2" d="M617.9,456c-0.1,0-0.1,0-0.2,0.1L617.9,456z"/>
	<path class="st2" d="M617.3,455.3c0-0.1,0.2,0.1,0.3-0.1c0.2-0.3,0.4-0.6,0.7-0.9c0.1-0.2,0.5-0.1,0.6-0.2c0.2-0.3,1-1.1,0.5-0.8
		c-0.7,0.4-1.2,1-1.7,1.6c-0.4,0.5-0.7,1.1-0.9,1.8c-0.1,0.2-0.2,0.3-0.2,0.5c0.1-0.2,0.2-0.4,0.4-0.6S617,455.7,617.3,455.3z"/>
	<path class="st2" d="M616.4,459.8l-0.1-0.2c0.2-0.3,0.2-0.7,0.2-1l-0.2,0.1c0,0.2,0,0.2,0.1,0.1c-0.2,0.4-0.3,0.8-0.3,1.2
		C616.3,459.9,616.3,459.9,616.4,459.8z"/>
	<path class="st2" d="M616.2,460.2c0-0.1,0-0.2,0-0.2l0,0C616.2,460,616.2,460.1,616.2,460.2z"/>
	<path class="st2" d="M619.4,454.3c0.8-0.6,1.7-0.9,2.7-1.1c0.1-0.1,0.1-0.1,0.2-0.1c0.1,0,0.2,0,0.2,0c0.1,0,0.3,0,0.4,0h0.2l0,0
		c0.1,0,0-0.1,0-0.1l-0.2-0.1l0.2,0.1c0.1,0,0.2,0,0.2,0c0.1,0,0.3,0,0.4,0c-0.1,0-0.3,0-0.4,0h-0.2H623c0.3,0,0.6,0,0.9,0h0.2
		c0.2,0,0.5,0,0.6,0.1h0.2l0,0l0,0c0.2,0.1,0.5,0.1,0.7,0.2c0.2,0,0.3,0,0.5,0l0.1,0.2c0.1,0,0.2,0,0.3,0c-0.1-0.1-0.2-0.2-0.2-0.3
		c-0.1-0.2-0.4,0.1-0.5-0.2c0.1,0.3,0.4,0,0.5,0.2c0.1,0.1,0.2,0.2,0.2,0.3c0.3,0.1,0.5,0.2,0.6,0.5c-0.2-0.1-0.5-0.2-0.6-0.5
		c-0.1,0-0.2,0-0.3,0l-0.1-0.2c-0.2,0-0.3,0-0.5,0c0.4,0.2,0.8,0.4,1.2,0.6c1.2,0.8,2.2,1.9,2.7,3.3c0.5,1.4,0.6,2.9,0.2,4.3
		c-0.5,1.5-1.5,2.8-2.8,3.5c-1.2,0.7-2.6,1-4,0.9c-1.4-0.1-2.7-0.8-3.5-1.9c-0.4-0.5-0.8-1.1-1.1-1.6c-0.3-0.6-0.5-1.2-0.6-1.8
		c-0.3-0.6-0.6-0.8-0.9-0.8c-0.2,0-0.4,0.1-0.6,0.3c-0.4,0.5-0.5,1.1-0.3,1.7c0.2,0.8,0.4,1.7,0.8,2.5c-0.3-0.8,0-0.6,0.4,0
		s1,1.3,1.4,2c0.8,1.1,2,1.9,3.4,2c1.5,0.2,2.9,0.1,4.3-0.4c0.7-0.2,1.4-0.6,2.1-1c1.9-1.1,3.2-3.1,3.6-5.2c0.4-2.2,0-4.5-1.2-6.4
		c-0.6-0.9-1.5-1.6-2.5-2.1c-0.6-0.4-1.2-0.7-1.8-1c-0.8-0.3-1.6-0.4-2.5-0.3c0.8,0,1.6,0.1,2.4,0.3c0.6,0.2-0.5,0.1-0.9,0.1
		c-0.2,0-0.4-0.3-0.6-0.3c-0.4,0-0.8,0-1.1,0.1c-0.2,0-0.2-0.2-0.2-0.2c-0.6,0.1-1,0.4-1.3,0.4c-0.2,0-0.5,0-0.7,0
		c-0.2,0-0.3,0-0.4,0.1l-0.3,0.2c0.1,0,0.2,0.1,0.2,0.2c-0.1,0-0.3,0-0.5,0.1c0.1,0,0.3-0.1,0.5-0.1c0-0.1-0.1-0.1-0.2-0.2
		c-0.6,0.4-1.2,0.9-1.8,1.4l0,0c0.3-0.3,0.7-0.5,1.1-0.6c-0.2,0-0.2,0,0-0.1h0.2c-0.3,0.3-0.6,0.4-1,0.5l-0.1,0.2
		c-0.1,0-0.2,0-0.2,0l-0.2,0.2C618.8,454.4,619.1,454.4,619.4,454.3z"/>
	<path class="st2" d="M623.3,453.1h-0.2c0.3,0,0.5,0,0.8,0C623.7,453.1,623.5,453.1,623.3,453.1z"/>
</g>
<g class="st1">
	<path class="st2" d="M209.2,425.7l1.3-0.1c-0.2-0.1-0.5-0.1-0.7-0.3C209.5,425.2,209.4,425.5,209.2,425.7z"/>
	<path class="st2" d="M211.7,425.5h0.2l0.2-0.1L211.7,425.5z"/>
	<path class="st2" d="M214,425.1c-0.4,0-0.8,0-1.1,0.1C213.2,425.2,213.6,425.2,214,425.1z"/>
	<path class="st2" d="M212.1,425c0.1,0.1,0.2,0.3,0,0.4l0,0l0.7-0.2C212.6,425.2,212.3,425.1,212.1,425z"/>
	<path class="st2" d="M212.1,425c-0.1-0.1-0.4-0.2-0.4-0.3C211.8,424.8,212,424.9,212.1,425z"/>
	<path class="st2" d="M212.4,421.5c0.2-0.1,0.2,0.8,0.7,0.6c1-0.4,2-0.7,3-0.9c0.4-0.2,1.2,0.8,1.7,0.5c1.1-0.3,3.8-1.8,2.1-1.6
		c-2.5,0.3-4,0.7-6.2,1c-1.8,0.5-3.4,1.2-5.2,1.7c-0.5,0.1-1,0.1-1.5,0.1l2,0.2C209.9,423.2,211,421.9,212.4,421.5z"/>
	<path class="st2" d="M199.6,426.5l0.6-0.4c1,0.4,2.2,0.2,3.1-0.4l-0.6-0.4c-0.6,0.1-0.6,0.4,0,0.5c-1.2-0.3-2.5-0.3-3.7,0
		C199.2,426.1,199.2,426.4,199.6,426.5z"/>
	<path class="st2" d="M198.4,426l0.7-0.2l-0.1-0.1L198.4,426L198.4,426z"/>
	<path class="st2" d="M218.7,423.9c3-0.3,5.9-0.2,8.7-0.2c0.2-0.2,0.4-0.4,0.6-0.3c0.2,0.1,0.4,0.3,0.7,0.3h1.2l0.4-0.1l0,0
		c0.2-0.1,0.2-0.3,0-0.4c-0.2-0.1-0.3-0.2-0.4-0.3c0.1,0.1,0.3,0.2,0.4,0.3c0.2,0.1,0.4,0.2,0.7,0.3c0.4-0.1,0.8-0.1,1.2,0
		c-0.4,0.1-0.8,0.1-1.2,0l-0.7,0.1l-0.2,0.1l2.8,0.1l0.6-0.1c0.7-0.1,1.3-0.3,1.8,0.2h0.5l-0.1-0.1l0.2,0.1l2.1,0.1
		c0.5-0.2,0.9-0.4,1.4-0.5l0.5,0.5c0.2-0.2,0.5-0.4,0.8-0.5c-0.4-0.3-0.7-0.6-1.1-0.8c-0.5-0.5-1.1,1-1.6,0.1
		c0.6,0.9,1.1-0.6,1.6-0.1c0.3,0.2,0.7,0.5,1.1,0.8c0.8-0.1,1.6,0.1,2.3,0.6c-0.8,0.3-1.7,0.1-2.2-0.5c-0.3,0.1-0.6,0.2-0.8,0.5
		l-0.5-0.5c-0.5,0.1-0.9,0.4-1.4,0.5c1.4,0.1,2.8,0.2,4.2,0.3c9.1,0.6,17.6,0.8,27.1,1.5c5.1,0.4,10.1,1,14.9,1.6
		c4.7,0.5,9.4,0.8,14.2,0.9c4.8,0.1,9.7,0.5,14.4,1.4c1.1,0.2,2.3,0.3,3.5,0.2c1.4,0,2.7,0,4.1-0.2c2.6-0.2,5.1-0.6,7.6-1.2
		c2.5-1.3,2.8-2.8,2.4-4c-0.3-0.9-0.8-1.6-1.4-2.2c-1.3-1.1-3-1.7-4.8-1.5c-2.3,0.1-4.5-0.1-6.8-0.6c4.2,0.9-2.9,2.5-6.8,0.2
		c-5.6-3.5-13.5-0.6-20.5-1.7c-1.7-0.3-3.6-0.1-5.6-0.2c-10.7-1.5-20.8-0.3-32.3-0.8c-3,0-5.7,0.8-8.3,1.3c-1.9,0.1-3.9-0.4-5.4-0.3
		c-2.2,0-4.3,0.3-6.4,0.8c2.2-0.2,3.8-0.5,6.3-0.6c1.6-0.1-1.1,1.2-2.2,1.5c-0.5,0.2-1.2-0.8-1.7-0.6c-1,0.1-2,0.4-3,0.7
		c-0.5,0.2-0.4-0.7-0.6-0.6c-1.5,0.2-2.6,1.5-3.5,1.3c-0.7-0.1-1.4-0.2-2-0.4c-0.4,0-0.8,0-1.2,0l-0.8,0.3c0.2,0.3,0.3,0.6,0.4,1
		c-0.4,0-1-0.2-1.3-0.3c0.4,0,0.9,0.2,1.3,0.3c-0.1-0.4-0.2-0.7-0.4-1c-1.9,0.6-4.1,1.2-6.2,1.8v0.1c1.2-0.2,2.5-0.1,3.7,0.4
		c-0.6-0.2-0.5-0.5,0.1-0.5l0.5,0.5c-1.1,0.3-2.1,0.7-3.2,0l-0.7,0.4c-0.4-0.1-0.4-0.4-0.4-0.7l-0.7,0.1
		C217.3,423.3,218,423.7,218.7,423.9z"/>
	<path class="st2" d="M231.1,423.5l-0.6,0.1l2.4,0.1C232.5,423.2,231.8,423.3,231.1,423.5z"/>
</g>
</svg>
