<?xml version="1.0" encoding="utf-8"?>
<!-- Generator: Adobe Illustrator 25.0.0, SVG Export Plug-In . SVG Version: 6.00 Build 0)  -->
<svg version="1.1" id="Layer_1" xmlns="http://www.w3.org/2000/svg" xmlns:xlink="http://www.w3.org/1999/xlink" x="0px" y="0px"
	 viewBox="0 0 841.9 841.9" style="enable-background:new 0 0 841.9 841.9;" xml:space="preserve">
<style type="text/css">
	.st0{fill:#9D6B53;}
	.st1{opacity:0.85;}
	.st2{fill:#060707;}
</style>
<rect class="st0" width="841.9" height="841.9"/>
<g class="st1">
	<path class="st2" d="M497.8,421.1l2,0.2c-0.3-0.1-0.7-0.2-1-0.4C498.4,420.8,498.1,421,497.8,421.1z"/>
	<path class="st2" d="M501.6,421.5h0.4l0.3-0.1L501.6,421.5z"/>
	<path class="st2" d="M505.1,421.4c-0.6-0.1-1.2-0.1-1.8-0.1C503.9,421.5,504.5,421.5,505.1,421.4z"/>
	<path class="st2" d="M502.4,421c0.2,0.1,0.3,0.3,0,0.4l0,0l1-0.1C503,421.3,502.7,421.1,502.4,421z"/>
	<path class="st2" d="M502.4,421c-0.2-0.1-0.5-0.3-0.6-0.4C501.9,420.8,502.1,420.9,502.4,421z"/>
	<path class="st2" d="M503.4,417.7c0.4-0.1,0.2,0.9,0.9,0.7c1.5-0.3,3-0.4,4.5-0.4c0.7-0.2,1.7,1,2.4,0.8c1.6-0.2,5.8-1.3,3.4-1.3
		l-9.4,0.1c-2.7,0.2-5.3,0.5-8,0.7c-0.7,0-1.5-0.1-2.2-0.2l2.9,0.6C499.4,418.9,501.2,417.8,503.4,417.7z"/>
	<path class="st2" d="M483.2,419.7l1.1-0.3c1.5,0.8,3.1,0.6,4.8,0.4l-0.7-0.5c-0.9,0-1.1,0.3-0.2,0.5c-1.7-0.6-3.6-0.9-5.5-0.9
		C482.8,419.2,482.7,419.5,483.2,419.7z"/>
	<path class="st2" d="M481.6,419h1.1c0,0,0-0.1,0-0.1L481.6,419L481.6,419z"/>
	<path class="st2" d="M512.5,421c4.6,0.2,8.9,0.4,13.2,0.7c0.3-0.2,0.6-0.4,1-0.2c0.3,0.2,0.7,0.3,1,0.4l1.8,0.1h0.7l0,0
		c0.4-0.1,0.3-0.2,0-0.4c-0.2-0.1-0.4-0.2-0.6-0.4c0.1,0.1,0.4,0.2,0.6,0.4c0.3,0.2,0.7,0.3,1,0.3c0.6-0.1,1.2-0.1,1.8,0
		c-0.6,0.1-1.2,0.1-1.8,0l-1,0.1l-0.3,0.1l4.2,0.3c0.3,0,0.6,0,0.9,0c0.9-0.2,1.8-0.1,2.7,0.3l0.8,0.1l-0.2-0.1
		c0.1,0,0.2,0.1,0.3,0.1l3.2,0.2c0.7-0.2,1.4-0.4,2.1-0.5l0.7,0.5c0.4-0.2,0.8-0.4,1.2-0.4c-0.6-0.3-1.1-0.6-1.6-0.9
		c-0.7-0.5-1.6,0.9-2.4,0c0.8,0.9,1.7-0.5,2.4,0c0.5,0.2,1,0.5,1.6,0.9c1.1-0.2,2.3,0,3.3,0.4c-1.1,0.3-2.4,0.1-3.3-0.6
		c-0.4,0-0.8,0.2-1.2,0.4l-0.7-0.5c-0.7,0.1-1.4,0.3-2.1,0.5l6.3,0.4c13.8,1.1,26.6,1.2,41,1.8c7.8,0.2,15.3,0.7,22.6,1
		c3.7,0.2,7.3,0.3,10.8,0.2L633,426c3.5-0.1,7.1-0.3,10.7-0.3s7.3,0,11.1,0.2c1.7,0,3.4,0,5.1-0.2c2-0.2,4-0.4,6-0.8
		c2-0.3,4.1-0.7,6-1.2c1-0.2,1.9-0.4,2.7-0.6l2.4-0.7c0.8-0.4,1.6-0.9,2.2-1.4c0.5-0.4,0.9-0.9,1.3-1.4c0.1-0.2,0.2-0.4,0.3-0.6
		c0.1-0.2,0.2-0.4,0.2-0.6c0.1-0.4,0-0.7-0.2-1c-0.7-0.7-1.5-1.3-2.4-1.6c-2.3-0.8-4.7-0.9-7.1-0.5c-1.3,0.1-2.6,0.4-4.3,0.5
		c-2,0.2-3.9,0.2-5.9,0c1.6,0.1,2.1,0.3,1.9,0.5c-0.7,0.5-1.5,0.8-2.4,0.8c-2.6,0.5-6.8,0.7-9.8-0.3c-2.3-0.7-4.6-1-7-1
		c-2.6,0-5.2,0.1-7.8,0.4c-2.7,0.3-5.4,0.5-8.1,0.7c-2.7,0.2-5.3,0.3-8,0.2c-2.6-0.2-5.4,0-8.5,0c-8.1-0.4-15.9-0.4-23.8-0.1
		s-16,0.3-24.5,0c-4.5-0.1-8.5,0.6-12.4,1c-2.8,0.1-5.8-0.5-8-0.5c-3.2-0.1-6.4,0-9.6,0.4l9.4-0.2c2.4,0-1.7,1.2-3.4,1.4
		c-0.7,0.2-1.7-0.9-2.4-0.8c-1.5,0-3,0.2-4.5,0.5c-0.7,0.2-0.6-0.8-0.9-0.7c-2.2,0.1-4,1.3-5.4,1c-1.1-0.2-2-0.4-3-0.6
		c-0.6-0.1-1.2-0.1-1.8-0.1l-1.2,0.2c0.3,0.3,0.4,0.6,0.5,1c-0.6-0.1-1.4-0.3-2-0.4c0.6,0.1,1.4,0.3,2,0.4c-0.1-0.4-0.2-0.7-0.5-1
		c-2.9,0.4-6.3,0.8-9.4,1v0.1c1.9,0,3.7,0.2,5.5,0.8c-0.8-0.2-0.7-0.5,0.2-0.5l0.7,0.5c-1.6,0.4-3.2,0.2-4.8-0.4l-1.1,0.3
		c-0.5-0.2-0.5-0.5-0.6-0.7h-1.1C510.3,420.2,511.4,420.6,512.5,421z"/>
	<path class="st2" d="M531.2,421.8h-0.9l3.5,0.3C533,421.7,532.1,421.6,531.2,421.8z"/>
</g>
<g class="st1">
	<path class="st2" d="M351.5,416.5h-2.1c0.4,0.1,0.7,0.2,1,0.3C350.9,416.9,351.1,416.7,351.5,416.5z"/>
	<path class="st2" d="M347.5,416.5h-0.4l-0.3,0.1L347.5,416.5z"/>
	<path class="st2" d="M343.9,416.8c0.6,0,1.2,0,1.8-0.1C345.1,416.6,344.5,416.7,343.9,416.8z"/>
	<path class="st2" d="M346.8,417c-0.2-0.1-0.3-0.3,0-0.4l0,0l-1.1,0.1C346,416.8,346.4,416.9,346.8,417z"/>
	<path class="st2" d="M346.8,417c0.2,0.1,0.6,0.2,0.7,0.3C347.2,417.2,347,417.1,346.8,417z"/>
	<path class="st2" d="M345.9,420.4c-0.4,0.1-0.3-0.8-1-0.6c-1.5,0.4-3.1,0.7-4.7,0.8c-0.7,0.2-1.9-0.8-2.6-0.6
		c-1.7,0.3-5.9,1.7-3.4,1.6c3.8-0.2,6.3-0.6,9.7-0.8c2.8-0.5,5.4-1,8.3-1.4c0.8-0.1,1.5-0.1,2.3,0c-1-0.1-2-0.2-3.1-0.4
		C350,418.8,348.2,420.1,345.9,420.4z"/>
	<path class="st2" d="M366.7,416.6l-1.1,0.4c-1.6-0.5-3.4-0.5-5,0l0.8,0.5c1-0.1,1.1-0.4,0.2-0.5c1.9,0.5,3.8,0.6,5.7,0.4
		C367.2,417.1,367.2,416.8,366.7,416.6z"/>
	<path class="st2" d="M368.4,417.2l-1.1,0.1v0.1L368.4,417.2L368.4,417.2z"/>
	<path class="st2" d="M336.3,417.9c-4.8,0.2-9.3,0.3-13.7,0.3c-0.3,0.2-0.6,0.4-1,0.3c-0.3-0.1-0.7-0.2-1-0.3h-1.9l-0.7,0.1l0,0
		c-0.4,0.1-0.2,0.3,0,0.4c0.2,0.1,0.5,0.2,0.7,0.3c-0.1-0.1-0.5-0.2-0.7-0.3c-0.3-0.1-0.7-0.2-1-0.2c-0.6,0.1-1.2,0.1-1.8,0.1
		c0.6-0.1,1.2-0.2,1.8-0.1l1.1-0.2l0.3-0.1h-4.5l-0.9,0.1c-0.9,0.3-1.9,0.2-2.8-0.1h-0.8l0.1,0.1c-0.1,0-0.2,0-0.3-0.1H306
		c-0.7,0.2-1.4,0.5-2.2,0.6l-0.8-0.5c-0.4,0.3-0.8,0.5-1.2,0.5c0.6,0.3,1.2,0.6,1.7,0.8c0.8,0.5,1.6-1,2.5-0.1
		c-0.9-0.9-1.8,0.6-2.5,0.1c-0.5-0.2-1.1-0.5-1.7-0.8c-1.2,0.2-2.4,0.1-3.5-0.4c1.2-0.4,2.4-0.2,3.5,0.4c0.4-0.1,0.9-0.2,1.2-0.5
		l0.8,0.5c0.7-0.2,1.5-0.4,2.2-0.6h-6.6c-7.2-0.1-14.1,0-21.1,0.1s-14,0.3-21.5,0.4c-8.1,0.1-15.9-0.1-23.5-0.3
		c-15.2-0.4-29,1.5-44.5,0.1c-6-0.5-16.9,0.8-22.7,1.6c-1.4,0.4-2.7,1.1-3.8,2.1c-0.6,0.7-1,1.5-0.7,2.1c0.5,0.9,1.1,1.6,1.9,2.1
		c2.2,1.2,4.8,1.7,7.3,1.5c3.6-0.2,7.2-0.1,10.7,0.4c-6.5-0.7,4.6-2.6,10.8-0.6c9,3.1,21.4-0.5,32.4-0.1c2.7,0.1,5.6-0.2,8.9-0.3
		c16.9,0.5,32.6-1.6,50.4-2c4.7-0.2,8.8-1.2,12.8-1.8c2.9-0.3,6,0.1,8.4,0c3.3-0.1,6.6-0.5,9.9-1.1c-3.4,0.3-5.9,0.6-9.7,0.9
		c-2.5,0.1,1.7-1.3,3.4-1.6c0.7-0.2,1.9,0.8,2.6,0.6c1.6-0.2,3.1-0.4,4.7-0.8c0.7-0.2,0.7,0.7,1,0.6c2.3-0.3,4-1.6,5.5-1.3
		c1.1,0.1,2.1,0.2,3.1,0.4c0.6,0,1.3,0,1.9,0l1.2-0.3c-0.3-0.3-0.5-0.6-0.6-1c0.6,0,1.5,0.2,2.1,0.2c-0.6,0-1.5-0.2-2.1-0.2
		c0.1,0.4,0.3,0.7,0.6,1c3-0.6,6.5-1.3,9.7-1.8V419c-1.9,0.2-3.8,0-5.7-0.4c0.9,0.2,0.8,0.5-0.2,0.5l-0.8-0.5c1.6-0.5,3.4-0.5,5,0
		l1.1-0.4c0.5,0.1,0.5,0.4,0.6,0.7l1.1-0.1C338.6,418.4,337.4,418.1,336.3,417.9z"/>
	<path class="st2" d="M316.9,418.4l0.9-0.1h-3.7C315,418.7,315.9,418.7,316.9,418.4z"/>
</g>
</svg>
