<?xml version="1.0" encoding="utf-8"?>
<!-- Generator: Adobe Illustrator 25.0.0, SVG Export Plug-In . SVG Version: 6.00 Build 0)  -->
<svg version="1.1" id="Layer_1" xmlns="http://www.w3.org/2000/svg" xmlns:xlink="http://www.w3.org/1999/xlink" x="0px" y="0px"
	 viewBox="0 0 841.9 841.9" style="enable-background:new 0 0 841.9 841.9;" xml:space="preserve">
<style type="text/css">
	.st0{fill:#DBB0A9;}
	.st1{opacity:0.85;}
	.st2{fill:#161315;}
	.st3{fill:#211F1E;}
	.st4{fill:#1F2020;}
</style>
<rect class="st0" width="841.9" height="841.9"/>
<g class="st1">
	<path class="st2" d="M712.3,440.4c-0.3,0.7-0.7,1.5-1,2.2l-1.2,2.2c0.4-0.7,0.9-1.4,1.5-2.1C712,442,712.2,441.2,712.3,440.4z"/>
	<path class="st2" d="M707.9,448.8l-0.5,0.8c-0.1,0.2-0.2,0.5-0.3,0.7L707.9,448.8z"/>
	<path class="st2" d="M703.6,456.2c0.9-1.2,1.7-2.4,2.4-3.7C705.3,453.6,704.4,454.7,703.6,456.2z"/>
	<path class="st2" d="M707.5,450.5c-0.4,0.4-0.7,0.5-0.3-0.3l0,0c-0.4,0.8-0.8,1.5-1.2,2.3C706.4,451.9,706.9,451.2,707.5,450.5z"/>
	<path class="st2" d="M707.5,450.5c0.4-0.4,0.9-1,1.1-1.2C708.2,449.7,707.8,450.1,707.5,450.5z"/>
	<path class="st2" d="M709.2,454.2c-0.4,0.8-1,0.2-1.8,1.7c-1,1.8-2,3.5-2.9,5.1s-2.1,3.1-3.2,4.7c-1,1.5-3.6,3-4.5,4.4
		c-0.6,0.8-1.5,2-2.4,3.1s-1.8,2.5-2.5,3.4c-1.5,1.9-2,2.9,0.2,0.7c2.9-3,5.6-6.1,8.2-9.4c1.2-1.5,2.3-3,3.4-4.6l1.7-2.4l1.7-2.6
		c1.8-2.9,3.3-6,4.9-9l2.1-4.7c0.4-0.8,0.7-1.6,1-2.4s0.6-1.6,0.9-2.5c0.8-1.8,1.5-3.5,2.2-5.2c-0.5,1.1-1,2.2-1.5,3.4
		s-1.2,2.3-1.8,3.5c-0.9,1.8-1.6,3.7-2.3,5.6C711.5,449.6,710.5,452,709.2,454.2z"/>
	<path class="st2" d="M721.4,405.3l0.2,1.6c0,0.2,0,0.5,0,0.7v0.3c-0.5,1.9-0.8,3.9-1,5.8c-0.3,2-0.5,4-0.7,6
		c0.3-0.5,0.5-1.1,0.8-1.7c0.3-2.3,0.1-2.6-0.4-0.6c0.3-1.1,0.6-2.3,0.9-3.4s0.4-2.3,0.6-3.4s0.3-2.3,0.4-3.4s0.1-2.3,0.1-3.4
		C721.9,404.1,721.6,404,721.4,405.3z"/>
	<path class="st2" d="M722.2,401.1v2.7l0.1-0.1V401L722.2,401.1z"/>
	<path class="st2" d="M692.8,471.1c-1,1-1.9,2.1-3,3.1l-3,3l-1.5,1.5l-1.6,1.3l-3.1,2.7c-1.1,0.9-2.2,1.7-3.2,2.5s-2.1,1.7-3.2,2.5
		l-3.3,2.3c-0.5,0.4-1.1,0.8-1.6,1.2l-1.7,1.1c-0.5,0.7-1.2,1.2-1.9,1.7c-0.8,0.3-1.5,0.7-2.3,1.1l-4,2.3l-1.4,0.9l0,0
		c-0.7,0.5-0.4,0.5,0.1,0.4s1.1-0.4,1.6-0.5c-0.3,0.1-1.1,0.4-1.6,0.5c-0.7,0.3-1.5,0.6-2.3,1c-1.2,0.7-2.5,1.5-3.9,2.1
		c1.2-0.8,2.5-1.5,3.9-2.1c0.8-0.5,1.5-0.9,2.2-1.4l0.6-0.5c-1.5,0.9-3.1,1.7-4.7,2.5s-3.1,1.6-4.7,2.4l-2,1c-1.9,1.2-4,2.1-6.1,2.6
		l-1.8,0.7l0.4-0.1c-0.3,0.1-0.5,0.1-0.7,0.2c-2.5,1-5,1.9-7.5,2.8c-1.5,0.8-3.2,1.5-4.8,2.3l-1.8,0.1c-0.8,0.6-1.7,1-2.7,1.3
		c1.5-0.1,2.8-0.2,4-0.5c1.9-0.2,3.5-2.2,5.8-2.1c-2.3-0.1-3.9,1.9-5.8,2.1c-1.2,0.2-2.6,0.3-4,0.5c-2.6,1-5.4,1.6-8.2,1.9
		c2.6-1,5.4-1.6,8.2-1.9c1-0.3,1.9-0.8,2.7-1.3l1.8-0.1c1.6-0.7,3.3-1.5,4.8-2.3c-2.5,0.9-5,1.6-7.5,2.5l-7.7,2.2
		c-16.4,4.2-33.2,6.5-50.1,6.7c-4.2,0.1-8.4,0-12.5-0.3c-4.2-0.4-8.3-1.2-12.4-2.1c-8.4-2.1-16.4-5.4-24-9.6
		c-8.3-4.6-16-10.1-23.1-16.3c-6.9-6.1-13.3-12.7-19.1-19.8c-11.2-13.6-21.2-28.1-29.9-43.5c-8.8-15.4-15.7-31.8-20.6-48.8
		c-1-3.4-2.2-7.4-3.5-11.8s-2.6-9.2-3.8-14c-2.1-8.5-3.7-17-4.7-25.7c-0.4-2.9-1.1-5.8-2.1-8.7c-0.6-1.6-1.3-2.1-2-2
		c-1.2,0.2-2.3,2.8-2.4,3.2c-1.5,5.7-1.5,10.9-0.7,17.5s2.3,14.5,4.4,26c-0.8-3.9-0.8-5.2-0.4-4.7c0.9,2,1.6,4,2.1,6.1
		c1.9,6.5,5,16.7,6.6,24.1c2.2,10.8,7.4,23.1,14,35.3s14.7,24.4,22.3,35.5c4.2,6,8.8,11.8,13.7,17.3c6.7,8.1,14.1,15.5,22.1,22.1
		c8,6.7,16.9,12.4,26.3,17c9.6,4.8,20,8,30.6,9.6c2.7,0.4,5.4,0.7,8.2,0.8c1.4,0.1,2.8,0.1,4.2,0.2h2.1h2c5.4-0.1,10.8-0.3,16.4-0.7
		c11.7-1,21.8-3.7,31.2-6.5c3.5-1,7.1-1.8,10.5-2.8s6.7-1.9,9.4-2.9c7.8-2.8,15.2-6.3,22.3-10.5c-3.8,2-7,3.7-10.4,5.3
		s-7,3.2-11.4,4.9c-3,1-2,0.4,0.1-0.7s5.4-2.9,7.3-3.8c1.5-0.9,4.5-1,6.1-2c1.7-0.8,3.4-1.7,5-2.7l2.5-1.5l2.5-1.6
		c1.5-1,1.7-0.1,2.5-0.6c4.9-3,7.9-6.3,11-8.1c2.4-1.4,4.4-2.8,6.5-4c1.3-0.8,2.5-1.8,3.7-2.8l2.2-2.1c-0.5,0.2-1.2,0.3-1.7,0.1
		c0.6-0.4,1.3-0.9,2.1-1.5s1.4-1.1,2-1.5c-0.6,0.5-1.3,1-2,1.5s-1.5,1-2.1,1.5c0.6,0.2,1.2,0.1,1.7-0.1c5.8-5.5,11.1-11.5,16-17.8
		h-0.1c-1.4,1.8-3,3.5-4.6,5.1c-1.7,1.7-3.4,3.2-5.3,4.6c1.6-1.3,1.6-0.9,0,0.8c-0.5,0.3-1.1,0.6-1.6,0.9c1.4-1.5,2.8-3,4.2-4.4
		c1.4-1.4,2.8-2.8,4.4-4c0,0,1.1-1.4,1.5-2.2c0.9-0.9,1.1-0.7,1.5-0.7l1.7-2.1c-0.8,0.6-2.3,1.9-3.6,3.1c-0.6,0.6-1.3,1.1-1.7,1.5
		L692.8,471.1z"/>
	<path class="st2" d="M655.7,499.7l1.9-1.1l-3.9,2c-1.3,0.7-2.6,1.4-4,2C651.4,502.4,653.5,501,655.7,499.7z"/>
</g>
<g class="st1">
	<path class="st3" d="M584.5,501.6c-0.5,0.2-1,0.5-1.5,0.7c0.3-0.1,0.5-0.1,0.8-0.2C584.1,502,584.3,501.8,584.5,501.6z"/>
	<path class="st3" d="M581.6,502.8l-0.3,0.1l-0.2,0.1L581.6,502.8z"/>
	<path class="st3" d="M578.9,503.8c0.5-0.1,0.9-0.3,1.4-0.5C579.8,503.5,579.4,503.6,578.9,503.8z"/>
	<path class="st3" d="M581.1,503.2c-0.2,0-0.3,0,0-0.2l0,0l-0.8,0.3C580.6,503.3,580.9,503.3,581.1,503.2z"/>
	<path class="st3" d="M581.1,503.2c0.2,0,0.5,0,0.6,0H581.1z"/>
	<path class="st3" d="M581,505.1c-0.3,0.1-0.4-0.3-0.9,0c-1.2,0.6-2.4,1-3.7,1.3c-0.6,0.2-1.6-0.1-2.1,0.1c-1.3,0.4-4.8,1.4-2.8,1.1
		c2.7-0.3,5.3-1,7.9-1.8c2.2-0.8,4.2-1.9,6.2-3.1c0.6-0.4,1.1-0.6,1.7-0.9c-0.7,0.4-1.5,0.7-2.3,1
		C583.9,503.2,582.8,504.3,581,505.1z"/>
	<path class="st3" d="M593.5,494l-0.3,0.8c-0.9,0.9-1.8,1.9-2.6,3l0.6-0.2c0.5-0.6,0.5-0.7-0.1-0.3c1.2-0.9,2.2-2.1,2.9-3.5
		C593.9,493.8,593.8,493.7,593.5,494z"/>
	<path class="st3" d="M594.4,492.9l-0.4,0.8l0,0L594.4,492.9L594.4,492.9z"/>
	<path class="st3" d="M573.1,505.5c-3.6,0.6-7.3,0.6-11,0.1c-0.3,0.1-0.6,0.1-0.8,0c-0.3-0.1-0.5-0.2-0.8-0.3
		c-0.5-0.1-1-0.2-1.5-0.3l-0.5-0.1l0,0c-0.3,0-0.2,0.1-0.1,0.2c0.2,0.1,0.3,0.2,0.5,0.3c-0.1-0.1-0.3-0.2-0.5-0.3
		c-0.3-0.1-0.5-0.2-0.8-0.3c-0.5-0.1-1-0.2-1.4-0.4c0.5,0.1,1,0.2,1.4,0.4c0.3,0.1,0.6,0.1,0.9,0.1h0.2c-1.1-0.3-2.3-0.6-3.3-1
		l-0.7-0.2c-0.7-0.1-1.4-0.5-2-1l-0.5-0.3l0.1,0.1l-0.2-0.1c-0.7-0.5-1.5-0.9-2.2-1.5c-0.5-0.3-1-0.6-1.5-0.9
		c-0.1-0.2-0.2-0.4-0.2-0.6c-0.3-0.1-0.6-0.3-0.8-0.5c0.2,0.4,0.4,0.9,0.6,1.2c0.3,0.6,1.3,0.5,1.6,1.3c-0.3-0.8-1.3-0.7-1.6-1.3
		c-0.2-0.4-0.4-0.8-0.6-1.2c-0.4-0.3-0.7-0.6-0.9-1c-0.2-0.4-0.5-0.8-0.6-1.3c0.6,0.7,1.2,1.5,1.5,2.3c0.2,0.2,0.5,0.4,0.8,0.5
		c0.1,0.2,0.2,0.4,0.2,0.6c0.5,0.3,1,0.6,1.5,0.9l-1-0.8l-0.5-0.4l-0.4-0.5l-0.9-1c-0.3-0.3-0.5-0.7-0.8-1.1
		c-1.5-2.3-2.5-4.9-2.8-7.7c-0.3-2.7-0.2-5.5,0.4-8.1c0.5-2.7,1.4-5.4,2.5-7.9c1.2-2.5,2.9-4.8,5-6.8c2.2-2.2,4.8-4,7.5-5.3
		c5.2-2.7,11-4,16.8-3.8c2.7,0.1,5.3,0.8,7.7,2c2.4,1.2,4.4,3,5.9,5.2c1.6,2.3,2.7,4.8,3.2,7.5c0.7,2.7,1,5.4,1.2,8.2
		c0.1,2.7-0.2,5.4-0.9,8c-0.2,0.9-0.2,1.9-0.2,2.9c0.1,0.6,0.3,0.9,0.7,1c0.6,0.1,1.1-0.1,1.5-0.5c0.4-0.3,0.7-0.7,1-1.1
		c0.3-0.4,0.5-0.8,0.7-1.3c0.2-0.4,0.4-0.9,0.6-1.4c0.1-0.5,0.3-1,0.4-1.6c0.6-3,0.9-6,0.9-9c-0.1,2.8-0.4,1.8-0.7-0.5
		s-1.1-5.8-1.6-8.5c-0.2-1-0.4-2-0.8-3c-0.2-0.5-0.4-1-0.7-1.5s-0.6-1-0.9-1.5c-0.7-1-1.4-2-2.2-2.9c-0.4-0.5-0.9-0.9-1.4-1.3
		c-0.5-0.4-1-0.8-1.5-1.2l-1.5-1.1c-0.6-0.3-1.2-0.6-1.8-0.9c-1.2-0.5-2.5-1-3.7-1.3c-2.5-0.6-5-0.8-7.5-0.9c-2.6,0-5.2,0.4-7.7,1.1
		c-3.6,0.8-7,2.2-10.1,4c-3.2,1.8-6,4.1-8.5,6.8c-0.6,0.7-1.2,1.4-1.8,2.1l-1.6,2.4L543,472l-1,2.5c-1.3,3.6-2.1,7.3-2.2,11.2
		c-0.1,2,0.2,4.1,0.8,6c0.3,0.9,0.6,1.8,1,2.7c0.4,0.8,0.8,1.6,1.3,2.4c0.7,1.2,1.4,2.3,2.2,3.3c0.4,0.5,0.9,1,1.3,1.4
		c0.4,0.4,0.8,0.8,1.3,1.1c0.3,0.3,0.6,0.5,1,0.8l1,0.6l1,0.6c0.3,0.2,0.7,0.3,1,0.5c1.3,0.6,2.6,1,3.9,1.3
		c-1.3-0.4-2.6-0.8-3.9-1.4l-0.9-0.4l-0.9-0.5c-0.7-0.4-1.4-0.8-2-1.3c-0.9-0.7-0.5-0.6,0.3-0.2l0.6,0.3l0.7,0.3
		c0.5,0.2,1,0.4,1.3,0.6c0.6,0.2,1.2,1.1,1.8,1.3c1.2,0.5,2.6,0.9,3.9,1c0.6,0,0.4,0.5,0.7,0.5c1.9,0.4,3.5,0,4.7,0.2
		c0.9,0.2,1.7,0.3,2.5,0.4c0.5,0.1,1,0.1,1.6,0.1l1-0.1c-0.2-0.1-0.4-0.3-0.5-0.5c0.5,0,1.2,0.1,1.7,0.1c-0.5,0-1.2-0.1-1.7-0.1
		c0.1,0.2,0.3,0.4,0.5,0.5c2.7-0.3,5.3-0.8,7.9-1.5l0,0c-1.5,0.4-3.1,0.5-4.6,0.3c0.7,0.1,0.6,0.2-0.2,0.3l-0.6-0.2
		c1.3-0.3,2.7-0.4,4-0.4c0,0,0.6-0.2,0.8-0.3c0.4,0,0.5,0.1,0.6,0.2l0.9-0.2c-0.3,0-1-0.1-1.6-0.1L573.1,505.5z"/>
	<path class="st3" d="M557.5,504.9l0.7,0.1c-1-0.2-1.9-0.5-2.8-0.9C556.1,504.6,556.8,504.8,557.5,504.9z"/>
</g>
<ellipse class="st4" cx="571.4" cy="481.8" rx="9" ry="8.6"/>
<g class="st1">
	<path class="st3" d="M565.2,488.4l0.4,0.4c-0.1-0.1-0.1-0.2-0.2-0.2C565.4,488.4,565.3,488.4,565.2,488.4z"/>
	<polygon class="st3" points="566,489.1 566.1,489.1 566.2,489.2 	"/>
	<path class="st3" d="M566.9,489.5c-0.1-0.1-0.3-0.2-0.5-0.2C566.6,489.4,566.8,489.5,566.9,489.5z"/>
	<path class="st3" d="M566.3,489.1C566.3,489.2,566.3,489.2,566.3,489.1L566.3,489.1l0.2,0.2C566.4,489.3,566.3,489.2,566.3,489.1z"
		/>
	<path class="st3" d="M566.3,489.1l-0.1-0.2L566.3,489.1z"/>
	<path class="st3" d="M566.9,488.5c0.1,0,0,0.2,0.1,0.3c0.4,0.2,0.8,0.2,1.1,0.4c0.2,0,0.4,0.4,0.5,0.4c0.4,0.1,1.5,0,0.9-0.1
		c-0.8-0.1-1.6-0.4-2.3-0.7c-0.7-0.2-1.3-0.6-1.9-1c-0.1-0.1-0.3-0.3-0.4-0.4c0.1,0.2,0.3,0.4,0.5,0.6
		C565.9,488.2,566.4,488.3,566.9,488.5z"/>
	<path class="st3" d="M562.9,484.9l0.2,0.2c0.1,0.5,0.3,0.9,0.6,1.2v-0.2c-0.2-0.2-0.2-0.2-0.2,0c-0.1-0.5-0.3-1-0.5-1.5
		C562.9,484.8,562.9,484.8,562.9,484.9z"/>
	<path class="st3" d="M562.9,484.4l0.1,0.3l0,0C563,484.6,562.9,484.5,562.9,484.4L562.9,484.4z"/>
	<path class="st3" d="M568.9,490.1c1.2,0.3,2.4,0.4,3.7,0.3c0.1-0.1,0.1-0.1,0.3-0.1c0.1,0,0.2,0,0.3,0c0.2,0,0.3-0.1,0.5-0.1
		l0.2-0.1l0,0c0.1,0,0-0.1,0-0.1h-0.2h0.2c0.1,0,0.2,0,0.3,0l0.5-0.2c-0.1,0.1-0.3,0.1-0.5,0.2l-0.3,0.1h-0.1
		c0.4-0.1,0.8-0.2,1.1-0.3c0.1,0,0.2-0.1,0.2-0.1c0.2-0.2,0.4-0.3,0.7-0.3c0.1,0,0.1-0.1,0.2-0.1l0,0h0.1c0.2-0.1,0.5-0.3,0.8-0.5
		s0.3-0.3,0.4-0.5c0.1,0,0.2,0,0.2,0c0-0.1,0.1-0.2,0.2-0.3l-0.5,0.1c-0.2,0-0.2,0.5-0.5,0.4c0.3,0,0.3-0.4,0.5-0.4l0.5-0.1
		c0.2-0.2,0.5-0.4,0.8-0.6c-0.1,0.3-0.4,0.5-0.8,0.6c-0.1,0.1-0.1,0.2-0.2,0.3c-0.1,0-0.2,0-0.2,0c-0.1,0.1-0.3,0.3-0.4,0.5
		c0.5-0.3,1-0.7,1.4-1.1c1.4-1.4,2.3-3.2,2.5-5.2c0.2-2-0.3-4.1-1.4-5.8c-1.2-1.9-3-3.4-5.2-4.1c-2.1-0.7-4.3-0.7-6.4,0.1
		c-2.1,0.8-4,2.1-5.4,3.9c-0.7,1-1.2,2.1-1.4,3.3c-0.2,1.2-0.2,2.4,0,3.5c0.4,1.1,0.9,1.3,1.2,1.1c0.2-0.1,0.4-0.3,0.5-0.5
		c0.1-0.3,0.2-0.7,0.2-1c0-0.3,0-0.6,0-0.9c0-0.9,0.2-1.8,0.6-2.5c-0.3,0.7-0.4,0.4-0.2-0.3c0.2-0.8,0.7-1.5,1.5-2
		c1-0.6,1.9-1.4,3-2c1.1-0.7,2.4-1,3.7-0.9c0.7,0,1.3,0.2,2,0.3c1.8,0.6,3.3,1.8,4.3,3.4c1.1,1.6,1.4,3.6,0.8,5.5
		c-0.2,1-0.5,1.9-1,2.8c-0.4,0.5-0.9,0.9-1.5,1.3c-0.6,0.5-1.3,0.9-2,1.3c0.7-0.3,1.4-0.7,2-1.2c0.5-0.4-0.1,0.5-0.5,0.8
		c-0.1,0.1-0.5,0-0.6,0.2c-0.3,0.2-0.6,0.4-1,0.6c-0.2,0.1-0.2-0.1-0.3-0.1c-0.5,0.2-0.9,0.6-1.3,0.6c-0.3,0-0.5,0-0.8,0h-0.5H571
		c0.1,0.1,0.1,0.2,0.1,0.3c-0.2,0-0.3-0.1-0.5-0.1c0.2,0,0.3,0.1,0.5,0.1c0-0.1-0.1-0.2-0.1-0.3c-0.8,0.1-1.7,0.1-2.5-0.1l0,0
		c0.5,0.1,1,0.3,1.4,0.5c-0.2-0.1-0.2-0.1,0.1-0.1l0.2,0.1c-0.4,0-0.9-0.1-1.3-0.3h-0.3c-0.1-0.1-0.1-0.1-0.1-0.2l-0.3-0.1
		C568.4,489.8,568.7,490,568.9,490.1z"/>
	<path class="st3" d="M574.1,490.1l-0.2,0.1c0.3-0.1,0.7-0.2,1-0.3C574.6,489.9,574.3,489.9,574.1,490.1z"/>
</g>
<g class="st1">
	<path class="st2" d="M134.1,382c0.6,0.4,1.2,0.8,1.8,1.1c-0.3-0.2-0.6-0.5-0.8-0.8C134.8,382,134.5,382,134.1,382z"/>
	<path class="st2" d="M137.6,384l0.3,0.2l0.3,0.1L137.6,384z"/>
	<path class="st2" d="M141.1,385.4c-0.5-0.3-1.1-0.6-1.7-0.8C139.9,385,140.5,385.2,141.1,385.4z"/>
	<path class="st2" d="M138.5,383.9c0.1,0.2,0.2,0.4-0.2,0.3l0,0l1.1,0.4C139.1,384.4,138.8,384.2,138.5,383.9z"/>
	<path class="st2" d="M138.5,383.9c-0.1-0.2-0.4-0.5-0.5-0.6C138.2,383.5,138.4,383.7,138.5,383.9z"/>
	<path class="st2" d="M140.9,381.3c0.4,0.1-0.1,0.9,0.6,1c1.5,0.4,3,0.8,4.5,1.4c0.7,0.1,1.4,1.5,2.1,1.6c1.7,0.4,6.1,0.8,3.8-0.1
		c-3.5-1.3-6-1.9-9.1-3.3c-2.7-0.8-5.3-1.7-7.9-2.8c-0.7-0.4-1.3-0.8-1.9-1.2c0.8,0.6,1.6,1.3,2.5,1.9
		C136.6,380.8,138.7,380.5,140.9,381.3z"/>
	<path class="st2" d="M121.2,373.3l1.1,0.4c1.1,1.4,2.5,2.4,4.1,3c-0.1-0.3-0.2-0.5-0.4-0.8c-0.8-0.5-1.1-0.3-0.5,0.3
		c-1.3-1.5-2.8-2.8-4.5-3.7C121.1,372.6,120.9,372.9,121.2,373.3z"/>
	<path class="st2" d="M120.1,371.8l1,0.6c0,0,0-0.1,0-0.1L120.1,371.8L120.1,371.8z"/>
	<path class="st2" d="M148.5,387.8c4.5,1.9,8.8,3.3,13,4.8c0.4-0.1,0.7-0.2,1.1,0c0.3,0.2,0.6,0.4,0.9,0.6l1.9,0.6l0.7,0.1l0,0
		c0.4,0,0.3-0.2,0.1-0.4c-0.2-0.2-0.4-0.3-0.6-0.5c0.1,0.1,0.4,0.3,0.6,0.5c0.3,0.2,0.6,0.4,0.9,0.5c0.6,0.1,1.2,0.2,1.8,0.4
		c-0.6-0.1-1.2-0.2-1.8-0.4l-1.1-0.2h-0.3c1.4,0.4,2.8,0.9,4.3,1.3c0.3,0,0.7,0.1,0.9,0.1c1,0,1.9,0.2,2.7,0.8l0.8,0.2l-0.1-0.1
		l0.3,0.1l3.3,0.8c0.8,0,1.5-0.2,2.3-0.2l0.7,0.6c0.4-0.2,0.9-0.3,1.3-0.3c-0.6-0.4-1.1-0.8-1.5-1c-0.7-0.6-1.8,0.7-2.6-0.4
		c0.7,1.1,1.9-0.2,2.6,0.4c0.5,0.3,1,0.7,1.5,1c1.2,0,2.4,0.4,3.4,1c-1.2,0.1-2.5-0.2-3.4-1c-0.5,0-0.9,0.1-1.3,0.3l-0.7-0.6
		c-0.8,0-1.6,0.2-2.3,0.2c2.2,0.5,4.4,0.8,6.6,1.3c0.9,0.2,1.8,0.4,2.7,0.5l2.7,0.4l5.4,0.7l5.3,0.4c1.8,0.1,3.6,0.2,5.3,0.2
		l5.4,0.1c1.8,0,3.6-0.1,5.4-0.1c3.6,0,7.4-0.3,11.2-0.5c8.3-0.5,16.2-1.3,24-2.3c7.5-1.1,14.9-2.7,22.2-4.8
		c7.2-2,14.4-4.1,22.3-5.7c3.8-1,7.5-2.3,11.1-3.9c4-1.7,7.8-3.7,10.5-5c3.2-2.5,3.4-4.2,2.8-5.3c-0.6-0.8-1.4-1.3-2.4-1.5
		c-2.5-0.4-5.1-0.1-7.5,1c-3.3,1.4-6.8,2.4-10.4,3.1c3.2-0.7,2.3,0.3-0.2,1.5c-3.1,1.5-6.5,2.3-10,2.4c-2.5-0.1-5,0.2-7.4,0.8
		c-2.5,0.5-5.1,1.5-7.8,2.3l-4,1.4l-4.1,1.3c-2.7,0.8-5.4,1.5-8.2,1.9c-2.7,0.4-5.5,1.1-8.7,1.8c-8.4,1-16.3,2.2-24.4,3.2
		c-8.3,1.1-16.7,1.4-25.1,1c-4.6-0.1-8.7,0.3-12.7,0.4c-2.9-0.2-5.8-1.2-8.1-1.5c-1.8-0.3-3.5-0.6-5.1-0.8s-3.2-0.3-4.7-0.5
		c1.6,0.4,3.1,0.5,4.6,0.7s3,0.4,4.9,0.7c1.2,0.2,0.8,0.4-0.2,0.6c-1.1,0.2-2.2,0.2-3.4,0.2c-0.8,0.1-1.6-1.2-2.4-1.1
		c-1.5-0.3-3-0.2-4.7-0.4c-0.8,0-0.4-0.9-0.8-0.9c-2.2-0.4-4.3,0.3-5.6-0.3c-1-0.5-1.9-1-2.8-1.4c-0.6-0.3-1.2-0.5-1.8-0.6l-1.2-0.2
		c0.2,0.4,0.2,0.7,0.2,1.1c-0.6-0.2-1.3-0.7-1.9-1c0.6,0.2,1.3,0.7,1.9,1c0-0.4,0-0.8-0.2-1.1c-3.3-0.5-6.5-1.2-9.6-2.1v0.1
		c1.8,0.6,3.6,1.5,5.1,2.7c-0.7-0.5-0.5-0.7,0.4-0.4c0.2,0.2,0.4,0.5,0.5,0.7c-1.7-0.2-3.3-0.9-4.6-2l-1.1-0.1
		c-0.4-0.3-0.3-0.6-0.3-0.9l-1.1-0.4C146.7,386.4,147.6,387.1,148.5,387.8z"/>
	<path class="st2" d="M167.3,394l-0.9-0.2l3.6,1.1C169.2,394.3,168.2,394,167.3,394z"/>
</g>
</svg>
