<svg id="Layer_1" data-name="Layer 1" xmlns="http://www.w3.org/2000/svg" viewBox="0 0 841.89 841.89"><defs><style>.cls-1{fill:#784936;}.cls-2{opacity:0.85;}.cls-3{fill:#fefefe;}.cls-4{fill:#e0caca;}</style></defs><rect class="cls-1" y="-0.87" width="841.89" height="841.89"/><g class="cls-2"><path class="cls-3" d="M222.83,447.84l-.62-.84a1.49,1.49,0,0,1,.06.62C222.33,447.87,222.58,447.83,222.83,447.84Z"/><path class="cls-3" d="M221.7,446.18l-.09-.16-.16-.09A3,3,0,0,1,221.7,446.18Z"/><path class="cls-3" d="M220.56,444.73a2.52,2.52,0,0,0,.48.81A1.74,1.74,0,0,0,220.56,444.73Z"/><path class="cls-3" d="M221.1,446.12c.05-.17.15-.29.34-.19h0c-.14-.13-.28-.25-.41-.39A1.64,1.64,0,0,1,221.1,446.12Z"/><path class="cls-3" d="M221.1,446.12c-.06.17-.07.39-.1.49A2.66,2.66,0,0,0,221.1,446.12Z"/><path class="cls-3" d="M217.93,447.47c-.22-.13.64-.58.25-.85s-.73-.72-1.07-1.08a4.87,4.87,0,0,1-.78-1.22c-.4-.35.43-1.36.1-1.7-.14-.22-.38-.52-.62-.85s-.48-.66-.71-.93c-.46-.54-.82-.78-.64,0a18.39,18.39,0,0,0,2.57,5.68,22,22,0,0,0,3.84,3.52,5.51,5.51,0,0,1,.89,1.05c-.3-.54-.64-1-.93-1.64-.17-.42-.65-.62-1.23-.87A5.24,5.24,0,0,1,217.93,447.47Z"/><path class="cls-3" d="M228.76,452.9l-.66.07a2.16,2.16,0,0,0-.94-1,12,12,0,0,0-1.28-.44c0,.2.05.41.07.62.47.24.66,0,.38-.38a4.06,4.06,0,0,0,2.47,1.9C228.84,453.41,229,453.14,228.76,452.9Z"/><path class="cls-3" d="M229.38,453.84l-.58-.16v.08l.6.11Z"/><path class="cls-3" d="M218.31,441.32a15.2,15.2,0,0,1-.15-7.27c-.15-.21-.33-.38-.17-.6a1.74,1.74,0,0,0,.44-.47c.08-.33.23-.65.34-1l0-.36h0c0-.22-.2-.22-.37-.15a2.76,2.76,0,0,1-.44.25c.1,0,.27-.18.44-.25a1.47,1.47,0,0,0,.42-.44,2.75,2.75,0,0,1,.36-.92,1.84,1.84,0,0,1-.36.92l0,.6a1.16,1.16,0,0,1,0,.18,16,16,0,0,1,1-2.1c0-.18.11-.33.15-.47.16-.54.33-1.11.89-1.16l.26-.32-.11,0,.16-.08a12.57,12.57,0,0,1,1.13-1.29,10.89,10.89,0,0,1,.35-1.24l.63.07a1.18,1.18,0,0,1,.14-.8,9.24,9.24,0,0,0-1.21.05c-.66,0,.1,1.33-.9,1.1,1,.23.24-1.13.9-1.1a9.24,9.24,0,0,1,1.21-.05,1.86,1.86,0,0,1,1.72-.81c-.31.76-1,.78-1.72.81a1.18,1.18,0,0,0-.14.8l-.63-.07a10.89,10.89,0,0,0-.35,1.24,17.66,17.66,0,0,1,2.59-2.18,18.28,18.28,0,0,1,10-3.1,15.92,15.92,0,0,1,9.8,3.32,13.73,13.73,0,0,1,5.19,9.37,21.63,21.63,0,0,1-.07,4.84,13.16,13.16,0,0,1-1.32,4.42,10.26,10.26,0,0,1-2.87,3.53,7.86,7.86,0,0,1-4.27,1.59c-1.18.1-2.63.5-4.13.69a13.09,13.09,0,0,1-4.08,0,4.23,4.23,0,0,0-2.87,2.79,4.69,4.69,0,0,0-.17,2.53,4.32,4.32,0,0,0,1.42,2.21,5.19,5.19,0,0,0,1,.61,8.49,8.49,0,0,0,1.14.35c1.65.39,3.63.52,6.87.9-2.2-.2-1.46-.89.16-1.34a26.4,26.4,0,0,1,6.53-1.18c3.48.06,6.86-2.61,8.8-6.19s2.72-7.77,3.19-11.66a14.72,14.72,0,0,0,.1-1.5c0-.51-.06-1-.12-1.55a11.21,11.21,0,0,0-.25-1.61c-.12-.55-.2-1.12-.35-1.68a20.51,20.51,0,0,0-10.14-14.32,26.12,26.12,0,0,0-17.69-2.91c-3.34.68-5.74,2.76-7.67,4.63l-1.19.89c-.4.29-.84.54-1.22.84a12.44,12.44,0,0,0-2.07,1.78,13.14,13.14,0,0,0-2,3,14.46,14.46,0,0,0-1,3.07,18.78,18.78,0,0,1,3-5.81c.55-.67.57-.23.41.49-.08.35-.21.77-.32,1.17a8.21,8.21,0,0,1-.31,1.05c-.08.48-1.39.51-1.43,1.06a4.71,4.71,0,0,0-.5,1.42c-.07.52-.11,1.05-.2,1.59s-.86.1-.84.36a6,6,0,0,0,.15,2.1,2.32,2.32,0,0,1,.09,1.58c-.31.65-.47,1.26-.69,1.85a3.38,3.38,0,0,0-.13,1.19c.08.25.16.52.25.78a2.48,2.48,0,0,1,1-.35c0,.36-.28.87-.29,1.24,0-.37.25-.88.29-1.24a2.48,2.48,0,0,0-1,.35,25,25,0,0,0,2.4,5.49l.07,0a4.3,4.3,0,0,1-.17-3.26c-.14.5-.43.49-.55,0l.44-.48c.09.23.18.45.25.68a3.71,3.71,0,0,1,.24.66,2.37,2.37,0,0,1-.13,1.42l.48.49c0,.32-.33.4-.56.54a5.14,5.14,0,0,0,.27.58,5.78,5.78,0,0,0,.36-1.26C218.26,441.68,218.31,441.32,218.31,441.32Z"/><path class="cls-3" d="M218.89,431a3.54,3.54,0,0,1-.08.49,17,17,0,0,1,.86-1.77C219.11,429.88,219,430.47,218.89,431Z"/></g><circle class="cls-4" cx="235.92" cy="437.24" r="8.22"/><g class="cls-2"><path class="cls-3" d="M228.59,431.12l-.41.44a1,1,0,0,1,.46,0C228.8,431.51,228.67,431.32,228.59,431.12Z"/><path class="cls-3" d="M227.82,432l-.06.08a.51.51,0,0,0,0,.13C227.79,432.14,227.81,432.07,227.82,432Z"/><path class="cls-3" d="M227.52,433a.84.84,0,0,0,.21-.48A.51.51,0,0,0,227.52,433Z"/><path class="cls-3" d="M228.12,432.43c-.16,0-.3-.07-.34-.22h0l-.05.33A.78.78,0,0,1,228.12,432.43Z"/><path class="cls-3" d="M228.12,432.43c.15,0,.3,0,.39,0A1.8,1.8,0,0,0,228.12,432.43Z"/><path class="cls-3" d="M230.92,434.34c.06.11-.77-.38-.64-.15.07.43.37.83.28,1.08.15.17-.91.05-.75.26a2.27,2.27,0,0,0,.72.77c.31.22.6.31.61.13a6.75,6.75,0,0,1-.07-1.62,4.89,4.89,0,0,1-.14-1.92.68.68,0,0,1,.39-.27,3.6,3.6,0,0,0-.76.17c-.19,0-.12.33,0,.65A2.76,2.76,0,0,1,230.92,434.34Z"/><path class="cls-3" d="M232.33,429c-.05.13-.14.41-.14.41-.67-.43-1,0-1.21.52l.42.29c.17-.18.07-.42-.24-.48a1.66,1.66,0,0,0,1.59-.17C232.62,429.37,232.51,429.09,232.33,429Z"/><path class="cls-3" d="M233,429.42l-.23.18,0,.07.2-.24Z"/><path class="cls-3" d="M227.62,435.27a11.8,11.8,0,0,0-.18,3.54c.2.05.43.06.34.2a.91.91,0,0,0-.28.34c0,.17.07.33.1.5l.12.14h0a.39.39,0,0,0,.38-.12,1.44,1.44,0,0,1,.28-.27l-.28.27a.75.75,0,0,0-.18.34.71.71,0,0,1,.23.42.43.43,0,0,1-.23-.42l-.21-.23-.1-.05a9.11,9.11,0,0,0,.3,1.14,1.11,1.11,0,0,0,.18.19c.25.19.49.35.18.75l.1.2.05-.08,0,.11a6.41,6.41,0,0,0,.45.81c.27,0,.57,0,.79.09l-.2.48a.9.9,0,0,1,.58-.12c.08-.32.21-.63.26-.85.24-.44-1,.33-.44-.42-.55.75.68,0,.44.42-.05.22-.18.53-.26.85.3.08.45.41.41,1-.55.09-.57-.43-.41-1a.9.9,0,0,0-.58.12l.2-.48c-.22,0-.52,0-.79-.09a8.36,8.36,0,0,0,1.14,1.48,8.54,8.54,0,0,0,5.52,2.64,11,11,0,0,0,6.36-1.46,12.81,12.81,0,0,0,5.32-5.66,9.79,9.79,0,0,0-.13-7.9,24.82,24.82,0,0,0-4.91-7.31,7.62,7.62,0,0,0-4.47-1.88,12.83,12.83,0,0,0-4.82.45,3.07,3.07,0,0,0-.69,3.82,13.19,13.19,0,0,0,1.18,2.2,13.4,13.4,0,0,0,1.2,1.49,1.72,1.72,0,0,0,.78.48,2,2,0,0,1,1.61,1.35c-.34-.65-.13-1.2.41-1.2s1.21.66.92,1.91c-.5,1.88-.54,2.12-.14,2.43s1,.75.56,1.26c-.22.23-.1.46-.22.71a3.7,3.7,0,0,0-1.32,1.29,1.59,1.59,0,0,1-1.78.67c-.33-.06-1,.63-1.73.74-.4-.08-.39-.69-.54-.88a3.49,3.49,0,0,0-1.3-.64,4.84,4.84,0,0,0,1.14.74c.12.1-.13.27-.48.4a2.29,2.29,0,0,1-1,.13c-.26,0,.54-.7.32-.67-.12-.19-.59-.19-.95-.36s.65-.36.53-.37a2.79,2.79,0,0,0-.88-.24c-.33-.07-.59-.17-.5-.33a2.89,2.89,0,0,1,.36-.6.52.52,0,0,0,0-.32l-.24-.21c-.3,0-.66.08-1,.11.06-.13.26-.3.32-.41-.06.11-.26.28-.32.41.36,0,.72-.06,1-.11a4.06,4.06,0,0,1-1.16-2.13l-.09,0a1.4,1.4,0,0,1-.84,1.18c.23-.18.49-.11.53.11l-.5.12c-.25-.42-.4-.92.35-1.13l-.24-.33c.16-.09.45,0,.7.05a1.13,1.13,0,0,0,0-.26,2.33,2.33,0,0,0-.82.22C227.82,435.15,227.62,435.27,227.62,435.27Z"/><path class="cls-3" d="M227.91,440.24a1.15,1.15,0,0,1-.14-.2,8.26,8.26,0,0,0,.24.95C228.36,440.63,228.14,440.45,227.91,440.24Z"/></g><g class="cls-2"><path class="cls-3" d="M379.1,410.61l-2.89,2.17a12.9,12.9,0,0,1,1.66-.84A3.42,3.42,0,0,0,379.1,410.61Z"/><path class="cls-3" d="M373.54,414.79l-.52.38-.39.39Z"/><path class="cls-3" d="M368.61,418.71a29.18,29.18,0,0,0,2.57-1.93A18.65,18.65,0,0,0,368.61,418.71Z"/><path class="cls-3" d="M372.8,415.94c-.4.11-.64.1-.19-.36l0,0-1.45,1.22A13.37,13.37,0,0,1,372.8,415.94Z"/><path class="cls-3" d="M372.8,415.94c.38-.12.95-.36,1.15-.42A11.94,11.94,0,0,0,372.8,415.94Z"/><path class="cls-3" d="M373.54,419.6c-.45.46-.9-.4-1.8.52a73.88,73.88,0,0,1-6.3,5.44c-.92.89-3.18,1.15-4.1,2-1.15.95-3.1,2.79-4.34,4s-1.74,1.9.13.66c5.51-3.93,9-6.58,13.79-10.34,1.86-1.62,3.71-3.18,5.51-4.82s3.59-3.3,5.47-5c1.08-.9,2.18-1.63,3.24-2.41l-4.57,3a15.42,15.42,0,0,0-3.17,3A30.58,30.58,0,0,1,373.54,419.6Z"/><path class="cls-3" d="M400,394.09l-1.22,1.48c-2.59,1.3-4.62,3.45-6.72,5.55.44-.15.88-.3,1.32-.47,1.24-1.14,1.22-1.47,0-.66a49.32,49.32,0,0,0,8-6.1C401,393.83,400.82,393.58,400,394.09Z"/><path class="cls-3" d="M402.74,392.56l-1.43,1.33.11,0,1.39-1.38Z"/><path class="cls-3" d="M358.19,427.13l-2.57,1.77L353,430.57l-5.09,3.26c-3.39,2.1-6.78,4-10.11,6a3.44,3.44,0,0,1-1.44,1.13,11.58,11.58,0,0,0-1.75.58l-3,1.59-1,.64,0,0c-.5.4-.27.44.14.37a9.36,9.36,0,0,1,1.2-.26c-.23,0-.8.2-1.2.26a18,18,0,0,0-1.72.63c-.89.51-1.83,1-2.84,1.49a17.51,17.51,0,0,1,2.84-1.49c.56-.33,1.08-.68,1.61-1l.43-.34c-1.12.62-2.27,1.19-3.42,1.74l-3.45,1.68-1.39.8a11.24,11.24,0,0,1-4.45,1.92l-1.25.55.27,0c-.19.06-.36.1-.5.13-1.77.76-3.51,1.6-5.33,2.29-1.08.65-2.18,1.36-3.33,2l-1.38.07a7.23,7.23,0,0,1-1.81,1.28c1.07-.14,2.07-.22,3-.38,1.39-.07,2.31-2,4.09-1.79-1.78-.23-2.7,1.72-4.09,1.79-.9.16-1.9.24-3,.38a20,20,0,0,1-5.89,1.72,13.58,13.58,0,0,1,5.89-1.72,7.23,7.23,0,0,0,1.81-1.28l1.38-.07c1.15-.63,2.25-1.34,3.33-2-3.52,1.39-7,2.85-10.76,4.09-1.48.51-2.94,1.05-4.42,1.53L292,459.48c-2.92,1-5.9,1.68-8.83,2.5-1.47.42-3,.72-4.43,1.06l-4.44,1-4.46.82c-1.49.29-3,.56-4.48.74l-4.5.63c-1.51.19-3,.29-4.55.45-3,.34-6.09.38-9.18.55a140.22,140.22,0,0,1-18.85-.93,120.84,120.84,0,0,1-38.43-11.68,166.76,166.76,0,0,1-31.73-20.49A130.14,130.14,0,0,1,132.56,406c-2.83-4.17-7-10-11-15.9s-7.63-12-9.91-16.22c-3.7-5.34-5.49-6.16-6.6-5.5s-1.31,2.78-1.27,3.11c.21,4.46,1.62,7.95,3.81,12.19s5.2,9.26,9.21,16.81c-2.81-5.09-1.12-3.63,1.79.33a144.29,144.29,0,0,1,10,15.19c3.71,7.25,10.31,14.53,18.08,21.16s16.7,12.58,25,18a120.63,120.63,0,0,0,14.37,7.6A117.66,117.66,0,0,0,230,474.58a143,143,0,0,0,22.94-.14,200.63,200.63,0,0,0,23.4-3.46c8.37-1.88,15.29-4.94,21.86-7.69,2.42-1,4.95-1.86,7.39-2.66s4.71-1.72,6.67-2.53c3.08-1.24,5.81-2.7,8.42-4.05s5-2.81,7.33-4.23c-2.67,1.46-4.95,2.79-7.4,4l-3.76,1.92-2,1-2.23,1c-4.18,1.79,2.46-2.3,5-3.88,1.07-.74,3.34-.63,4.42-1.36a74.43,74.43,0,0,0,7.11-4.39c1-.77,1.36.15,1.88-.24,3.48-2.14,5.6-4.76,8-5.78l4.93-2.42c1-.52,1.92-1,2.9-1.67l1.76-1.35a2.1,2.1,0,0,1-1.39-.34c.95-.49,2.31-1.16,3.25-1.68-.94.52-2.3,1.19-3.25,1.68a2.1,2.1,0,0,0,1.39.34c2.09-1.68,4.36-3.46,6.68-5.25s4.59-3.7,6.84-5.46l-.12,0a41.24,41.24,0,0,1-8.64,5.13c1.37-.63,1.37-.31,0,.66l-1.36.3c1.18-.91,2.35-1.83,3.57-2.63a18.17,18.17,0,0,1,3.8-2.06l1.38-1.34c.85-.43,1-.16,1.29-.06.53-.38,1-.78,1.58-1.17A51.3,51.3,0,0,0,358.19,427.13Z"/><path class="cls-3" d="M329,444.78c.39-.23.87-.51,1.37-.83-1.9,1-3.85,1.89-5.79,2.85C325.8,446.69,327.39,445.73,329,444.78Z"/></g><g class="cls-2"><path class="cls-3" d="M520.06,416.44l1.45.45a2.58,2.58,0,0,1-.64-.53C520.58,416.17,520.35,416.33,520.06,416.44Z"/><path class="cls-3" d="M522.86,417.32l.25.08.25,0Z"/><path class="cls-3" d="M525.47,417.78a5.82,5.82,0,0,0-1.31-.32A3.4,3.4,0,0,0,525.47,417.78Z"/><path class="cls-3" d="M523.5,417c.12.18.16.34-.13.38h0l.8.08A2.76,2.76,0,0,1,523.5,417Z"/><path class="cls-3" d="M523.5,417c-.11-.18-.32-.37-.38-.47A2.7,2.7,0,0,0,523.5,417Z"/><path class="cls-3" d="M525,413.9c.28,0,0,.88.53.81a17,17,0,0,1,3.48.23c.56-.08,1.09,1.14,1.65,1.06,1.27,0,4.61-.48,2.81-.86-2.73-.52-4.55-.68-7-1.2-2-.16-4-.24-6.15-.45a7.27,7.27,0,0,1-1.59-.55c.64.36,1.31.68,2.05,1C521.79,414.51,523.37,413.67,525,413.9Z"/><path class="cls-3" d="M509.52,412.67l.86-.08c.91,1,2.18,1.11,3.44,1.21-.13-.2-.25-.41-.38-.62-.69-.15-.85.08-.31.47a9.14,9.14,0,0,0-3.84-1.78C509.3,412.15,509.19,412.43,509.52,412.67Z"/><path class="cls-3" d="M508.49,411.71l.8.16v-.08l-.82-.11Z"/><path class="cls-3" d="M531.11,418.34c3.42.78,6.61,1.67,9.75,2.39.29-.13.5-.31.8-.13a2.5,2.5,0,0,0,.67.49l1.37.35.5,0h0c.28,0,.23-.21.1-.38a2.78,2.78,0,0,1-.41-.44c.07.09.28.27.41.44a2.44,2.44,0,0,0,.69.42,5.26,5.26,0,0,1,1.32.24,3.18,3.18,0,0,1-1.32-.24l-.81,0-.24,0c1,.26,2.08.55,3.12.79l.68,0c.79,0,1.57,0,2,.56l.56.13-.09-.1a1,1,0,0,1,.19.12l2.38.56a15.82,15.82,0,0,1,1.68-.25l.46.57a1.77,1.77,0,0,1,1-.34c-.39-.34-.73-.72-1.06-1-.46-.57-1.36.73-1.84-.27.48,1,1.38-.3,1.84.27.33.26.67.64,1.06,1a3.74,3.74,0,0,1,2.47.84,2.65,2.65,0,0,1-2.47-.84,1.77,1.77,0,0,0-1,.34l-.46-.57a15.82,15.82,0,0,0-1.68.25l2.35.55,2.39.47c10.39,2.19,20.18,3,31.23,3.5,3,.19,5.95.19,8.87.31s5.8.08,8.67,0a75.1,75.1,0,0,0,16.57-2.36c5.4-1.29,10.75-2.78,16.73-4.24a31.91,31.91,0,0,0,8.17-3.88,50,50,0,0,0,7.23-5.68,5.91,5.91,0,0,0,1.24-3.41,2.29,2.29,0,0,0-.9-1.89,6.23,6.23,0,0,0-2.58-.8,8.84,8.84,0,0,0-5.33,1.62,20.54,20.54,0,0,1-6.89,3.1c2.21-.66,1.83.26.19,1.35a11.93,11.93,0,0,1-7,1.9c-3.56-.44-7,.66-10.71,1.86-1.83.66-3.76,1.23-5.66,1.81a28.2,28.2,0,0,1-5.82,1,22.39,22.39,0,0,0-3,.34c-1,.16-2.1.28-3.24.38-6,.05-11.68.43-17.55.55-2.93.14-5.9,0-8.92,0-1.51-.06-3-.16-4.57-.26s-3.11-.22-4.68-.45a26,26,0,0,0-4.83,0c-1.55.12-3,.21-4.49.25a46.42,46.42,0,0,1-5.91-1.22,39.59,39.59,0,0,0-7.21-.54c2.46.29,4.28.34,7,.69,1.82.27-1.46,1-2.71,1-.56.12-1.17-1.08-1.72-1a20.31,20.31,0,0,0-3.47.06c-.56.1-.31-.83-.59-.78-1.66-.13-3.18.81-4.17.33-.76-.31-1.44-.61-2.1-.9A8.11,8.11,0,0,0,538,417l-.93,0a2.34,2.34,0,0,1,.17,1.08c-.42-.15-1-.51-1.39-.66.41.15,1,.51,1.39.66a2.34,2.34,0,0,0-.17-1.08c-2.26,0-4.85-.09-7.25-.25v.09a9,9,0,0,1,3.91,1.55c-.55-.35-.41-.59.29-.48l.41.59a4.77,4.77,0,0,1-3.49-1l-.85.12c-.35-.22-.26-.51-.27-.78l-.82-.12A11.2,11.2,0,0,0,531.11,418.34Z"/><path class="cls-3" d="M545,421.54l-.67-.07,2.62.68C546.6,421.61,545.82,421.57,545,421.54Z"/></g></svg>