<svg id="Layer_1" data-name="Layer 1" xmlns="http://www.w3.org/2000/svg" viewBox="0 0 841.89 841.89"><defs><style>.cls-1{fill:#fbdfe9;}.cls-2{opacity:0.85;}.cls-3{fill:#131413;}.cls-4{fill:#211f1e;}.cls-5{fill:#1f2020;}</style></defs><rect class="cls-1" y="0.03" width="841.89" height="841.89"/><g class="cls-2"><path class="cls-3" d="M100.83,381.64l.48,2.15.58,2.13a16.22,16.22,0,0,1-.27-2.22A5.07,5.07,0,0,0,100.83,381.64Z"/><path class="cls-3" d="M103,389.86c.06.26.13.52.2.76s.19.42.28.61C103.25,390.79,103.11,390.32,103,389.86Z"/><path class="cls-3" d="M105.6,397.06c-.39-1.3-.83-2.51-1.29-3.68A25.72,25.72,0,0,0,105.6,397.06Z"/><path class="cls-3" d="M103.86,391.21c0,.49,0,.75-.41.05v0l.87,2.15A17.22,17.22,0,0,1,103.86,391.21Z"/><path class="cls-3" d="M103.86,391.21c0-.47-.08-1.2-.08-1.46A9.56,9.56,0,0,0,103.86,391.21Z"/><path class="cls-3" d="M107.7,392c.35.68-.62.81.06,2.17.36.8.7,1.58,1,2.34s.74,1.47,1.09,2.19c.72,1.43,1.4,2.85,2,4.37.78,1.28.8,3.86,1.61,5.14a50.29,50.29,0,0,0,3.83,5.8c1.23,1.63,1.91,2.29.69,0-.92-1.74-1.81-3.31-2.59-4.83l-2.15-4.39c-.73-1.41-1.33-2.85-2-4.32s-1.32-3-1.94-4.65l-1.67-4-.83-2-.74-2c-.48-1.35-1-2.7-1.47-4.07s-.86-2.79-1.3-4.22a39.47,39.47,0,0,1-.94-4.7c.22,2,.61,4.1,1,6.42a16.66,16.66,0,0,0,1.71,4.85C105.92,387.82,106.79,389.77,107.7,392Z"/><path class="cls-3" d="M97.2,349.52c.12.75.38,2.27.38,2.27a19.06,19.06,0,0,0-.13,5.23,46,46,0,0,0,.75,5.3c.1-.54.17-1.07.3-1.62-.21-2-.5-2.25-.57-.42.13-2.1.15-4.12.08-6.12s0-4-.15-6C97.6,348.43,97.3,348.38,97.2,349.52Z"/><path class="cls-3" d="M97.72,345.82c0,.78.09,1.58.14,2.35l.08-.09c-.07-.79-.14-1.58-.2-2.35Z"/><path class="cls-3" d="M112.7,411.65a163.78,163.78,0,0,0,15,24.75,5.1,5.1,0,0,1,1.58,1.54,19.08,19.08,0,0,0,1.08,1.93c.83,1.09,1.65,2.17,2.54,3.18l1,1,0,0c.58.5.54.23.34-.21a13.34,13.34,0,0,1-.66-1.3c.11.25.47.86.66,1.3a18.35,18.35,0,0,0,1.23,1.83l1.29,1.39c.46.46.91.94,1.35,1.45-.56-.5-1.06-1-1.5-1.45s-.81-.95-1.14-1.39l-1.6-1.65-.5-.44,3,3.56,3.15,3.41L141,452c1.66,1.51,3.4,2.92,4.07,4.22l1.19,1.17-.18-.28c.16.19.29.36.39.5l5.25,4.71c1.29.84,2.68,1.61,4,2.48l.95,1.35a13.75,13.75,0,0,1,2.38,1.19c-.88-.94-1.56-1.94-2.29-2.75-.93-1.35-3.37-1.4-4.23-3.28.86,1.88,3.3,1.93,4.23,3.28.73.81,1.41,1.81,2.29,2.75a25.94,25.94,0,0,1,3,2.12c1,.81,2,1.71,2.82,2.51a13.77,13.77,0,0,1-3.35-2.19,24.7,24.7,0,0,1-2.46-2.44,13.75,13.75,0,0,0-2.38-1.19l-.95-1.35c-1.31-.87-2.7-1.64-4-2.48,1.75,1.49,3.57,2.93,5.37,4.41s3.76,2.8,5.67,4.23a152.1,152.1,0,0,0,19.4,11.67,161.18,161.18,0,0,0,20.69,8.4,165.6,165.6,0,0,0,21.95,5.27,176.09,176.09,0,0,0,23.29,2.07c17.23.22,34-1.15,50-5.65a94,94,0,0,0,22.48-9.59,89,89,0,0,0,18.88-15.05,103.27,103.27,0,0,0,14.47-19.42,150.06,150.06,0,0,0,10.56-22.5,118.86,118.86,0,0,0,5.7-24.14A213.1,213.1,0,0,0,372,377.83a28.27,28.27,0,0,0-1.4-8.16c-.6-1.5-1.26-1.94-1.89-1.86-1.26.18-2.38,2.45-2.5,2.82a44.15,44.15,0,0,0-1.92,7.17c-.46,2.4-.66,4.9-1,7.69-.15,1.4-.3,2.88-.46,4.47s-.46,3.26-.72,5.07-.65,3.75-1.09,5.83-1,4.3-1.69,6.68c1.75-6.51,1.88-4,1,1.72-.21,1.44-.61,3-1,4.76-.21.85-.41,1.74-.67,2.63s-.56,1.77-.84,2.68-.61,1.79-.91,2.68-.71,1.74-1.07,2.59a35.83,35.83,0,0,1-2.32,4.64c-.6,1-1.19,2-1.76,3.06l-1.83,3.17c-1.15,2.18-2.5,4.35-3.74,6.64a153,153,0,0,1-8.87,13.61,81.57,81.57,0,0,1-11.52,12.37,73.43,73.43,0,0,1-6.72,5.15l-3.57,2.17c-1.17.74-2.44,1.29-3.65,1.91a111.67,111.67,0,0,1-16.45,6.79,155.82,155.82,0,0,1-24.9,4.78,213.69,213.69,0,0,1-25.31,1.3,135.21,135.21,0,0,1-50.76-9.95c-8.91-3.57-16.81-6.76-24-10.7-1.28-.77-2.56-1.59-3.83-2.42s-2.42-1.81-3.6-2.7c-2.38-1.73-4.45-3.64-6.37-5.12-1.53-1.14-2.87-2.39-4.26-3.51l-2.05-1.68c-.66-.55-1.29-1.14-1.93-1.69l-3.75-3.26q-1.8-1.65-3.52-3.26l3.55,3.52,3.53,3.15,1.78,1.58,1.92,1.57c1.33,1.06,2.67,2.25,4.23,3.43,2.07,1.59,1.17,1.27-.63.31s-4.34-2.77-5.77-3.8c-1.29-.81-2.21-3.26-3.45-4.11-.59-.56-1.18-1.09-1.78-1.6l-1.77-1.58L139,445.1c-1.14-1-.31-1.5-.88-2-.81-.86-1.64-1.63-2.44-2.34s-1.58-1.36-2.27-2a21.62,21.62,0,0,1-3.48-3.76c-1.28-1.93-2.34-3.75-3.4-5.48-.73-1.07-1.36-2.18-2.13-3.3l-1.6-2a2.25,2.25,0,0,1-.22,1.53c-.63-1.11-1.46-2.69-2-3.84.56,1.15,1.39,2.73,2,3.84a2.25,2.25,0,0,0,.22-1.53c-1-1.24-1.92-2.58-2.86-4s-2-2.78-2.85-4.26l-2.7-4.48c-.92-1.48-1.66-3.05-2.48-4.54a.49.49,0,0,1,0,.11c1.67,3.62,3.4,7.08,4.83,11-.36-.82-.42-1.24-.3-1.21a4.88,4.88,0,0,1,1,1.36c.12.53.24,1.07.36,1.59l-1.5-2.22c-.47-.75-.89-1.53-1.3-2.31a22.37,22.37,0,0,1-2-4.81s-.83-1.29-1.23-1.93c-.35-1.09,0-1.17.08-1.49-.34-.69-.69-1.4-1-2.11a37.66,37.66,0,0,0,1,4c.23.74.43,1.43.58,1.93S112.7,411.65,112.7,411.65Z"/><path class="cls-3" d="M135.57,445.83l-1.32-1.41,2.51,3,2.65,2.87a9,9,0,0,0-1.57-2.11c-.34-.37-.72-.75-1.11-1.13Z"/></g><g class="cls-2"><path class="cls-4" d="M232.05,443.27a13.17,13.17,0,0,0,1.38,1,2.71,2.71,0,0,1-.62-.6A1.54,1.54,0,0,0,232.05,443.27Z"/><path class="cls-4" d="M234.76,445.06l.26.16.25.07A4.67,4.67,0,0,1,234.76,445.06Z"/><path class="cls-4" d="M237.47,446.21c-.47-.22-.92-.43-1.37-.6A7.16,7.16,0,0,0,237.47,446.21Z"/><path class="cls-4" d="M235.4,445.13c.13.14.18.24-.12.16h0l.83.32A6.47,6.47,0,0,1,235.4,445.13Z"/><path class="cls-4" d="M235.4,445.13a4.89,4.89,0,0,1-.4-.41A2.56,2.56,0,0,0,235.4,445.13Z"/><path class="cls-4" d="M236.8,443.91c.27.07,0,.47.55.61a12.55,12.55,0,0,0,1.78.45c.57.14,1.12.28,1.7.4s1.26.8,1.83.74c1.33.17,4.56-.37,2.68-.44a13.23,13.23,0,0,1-2-.15,11.75,11.75,0,0,1-1.74-.25c-.55-.12-1.11-.21-1.67-.36l-1.74-.54c-.51-.15-1-.35-1.48-.51a10.87,10.87,0,0,1-1.46-.59l-1.43-.67-1.39-.84a7.5,7.5,0,0,1-1.34-1.16l.8.85.93.81a4.17,4.17,0,0,0,1.69.88Z"/><path class="cls-4" d="M224.38,433.75l.52.7a5.94,5.94,0,0,0,.83,1.81,9.62,9.62,0,0,0,1.28,1.58c0-.21-.11-.41-.17-.62-.48-.6-.65-.6-.32,0-.66-1.46-1.38-2.73-2.05-4.09C224.39,433.28,224.25,433.33,224.38,433.75Z"/><path class="cls-4" d="M224,432.36c.15.26.29.53.43.78l0,0-.45-.77Z"/><path class="cls-4" d="M243.52,447.34a24.86,24.86,0,0,0,2.82.22c.93,0,1.85-.06,2.76-.09s1.8-.22,2.67-.4,1.75-.38,2.58-.68a1.43,1.43,0,0,1,.72-.42,5.66,5.66,0,0,0,.84-.13,14.7,14.7,0,0,0,1.41-.62l.47-.27h0c.24-.17.13-.2-.06-.19a4.69,4.69,0,0,1-.56.08l.56-.08a4.41,4.41,0,0,0,.8-.24,11.42,11.42,0,0,1,1.24-.78,7.68,7.68,0,0,1-1.24.78l-.75.44-.2.15a30.86,30.86,0,0,0,3.09-1.69c.22-.15.41-.32.58-.46a5.88,5.88,0,0,1,1.84-1.25l.48-.4-.12,0,.21-.12a23.87,23.87,0,0,0,2-1.78l1-1.47.56-.31a3.14,3.14,0,0,1,.44-.92c-.41.28-.81.52-1.14.76-.52.31-.54,1.29-1.34,1.5.8-.21.82-1.19,1.34-1.5.33-.24.73-.48,1.14-.76a12.15,12.15,0,0,1,1.83-2.14,4.73,4.73,0,0,1-1.83,2.14,3.14,3.14,0,0,0-.44.92l-.56.31-1,1.47a23.47,23.47,0,0,0,1.81-1.92,20.38,20.38,0,0,0,1.67-2.11,26.34,26.34,0,0,0,5.37-16.07,23.28,23.28,0,0,0-7.3-15.76,39.08,39.08,0,0,0-7.71-6,41.52,41.52,0,0,0-8.77-3.81,26.14,26.14,0,0,0-9.38-1.08,20.9,20.9,0,0,0-9.13,2.69,24.57,24.57,0,0,0-7.07,6.44,35.39,35.39,0,0,0-4.71,8.54,29.22,29.22,0,0,0-1.69,9.63c0,.91,0,1.82.07,2.7s.16,1.75.27,2.58.3,1.61.44,2.34.36,1.4.51,2c.16.39.31.74.46,1a7,7,0,0,0,.48.8,5.47,5.47,0,0,0,.84,1c.5.45.86.47,1.14.32a2.32,2.32,0,0,0,.77-1.48,11.9,11.9,0,0,0,0-1.45c0-.46,0-.92,0-1.37a13,13,0,0,0-.17-1.36c0-.47-.08-.95-.14-1.46a21.47,21.47,0,0,1,.35-8.16c-.47,2.42-.69,1.53-.59-.61a18,18,0,0,1,.78-3.74,13.56,13.56,0,0,1,1.69-3.59c2-2.75,4-6,6.91-8.53a15.54,15.54,0,0,1,5-3,14.25,14.25,0,0,1,2.84-.72,12,12,0,0,1,1.47-.11,8.9,8.9,0,0,1,1.46,0c1,.11,2,.08,3,.26.53.08,1.07.11,1.62.22l1.69.39a40.05,40.05,0,0,1,8.37,3.63,31.94,31.94,0,0,1,7.11,5.44,20.91,20.91,0,0,1,4.77,7.27,17.19,17.19,0,0,1,.73,8.85A31,31,0,0,1,268,432.2a8.65,8.65,0,0,1-.87,1.38c-.32.44-.62.9-1,1.3-.73.78-1.36,1.57-2,2.17a39.49,39.49,0,0,1-5.44,5,27.16,27.16,0,0,0,5.39-4.79c.64-.69.53-.35.15.29-.19.32-.44.72-.7,1.11s-.58.7-.79.94c-.35.44-1.31.62-1.69,1a11.91,11.91,0,0,0-1.32,1.13c-.45.36-.91.74-1.42,1.13s-.59-.07-.8.11a14.07,14.07,0,0,0-1.9,1.35,5.57,5.57,0,0,1-1.67.84,19.94,19.94,0,0,1-2.31.42c-.45.11-.91.14-1.4.23l-.91.26a1,1,0,0,1,.49.44l-.79,0-.8,0,.8,0,.79,0a1,1,0,0,0-.49-.44,22,22,0,0,1-7.47.4l0,.05c.73.11,1.45.2,2.18.36s1.47.21,2.24.41c-.67-.14-.58-.27.18-.26a4.66,4.66,0,0,0,.58.23,10.31,10.31,0,0,1-2,.08,4.63,4.63,0,0,1-1.9-.43l-.87,0c-.41-.12-.35-.28-.41-.42l-.86-.18a6.41,6.41,0,0,0,1.41.68Z"/><path class="cls-4" d="M258.58,444.5c-.18.12-.4.23-.64.36a10.71,10.71,0,0,0,1.3-.68l1.28-.74A5.24,5.24,0,0,0,258.58,444.5Z"/></g><circle class="cls-5" cx="246.75" cy="420.97" r="8.79"/><g class="cls-2"><path class="cls-4" d="M252.46,427.2l-.41.34a.85.85,0,0,1,.26-.11C252.42,427.37,252.43,427.29,252.46,427.2Z"/><polygon class="cls-4" points="251.65 427.82 251.57 427.87 251.52 427.94 251.65 427.82"/><path class="cls-4" d="M250.91,428.37a2.7,2.7,0,0,0,.4-.25A1.52,1.52,0,0,0,250.91,428.37Z"/><path class="cls-4" d="M251.57,428c-.07,0-.11,0,0-.09h0l-.21.19A1,1,0,0,1,251.57,428Z"/><path class="cls-4" d="M251.57,428l.19,0Z"/><path class="cls-4" d="M251.83,428.88c-.07.07-.18-.14-.32,0a4.48,4.48,0,0,1-1.11.76c-.16.15-.57,0-.74.11-.4.24-1.57.79-.85.62a8.78,8.78,0,0,0,2.58-1.13,10.61,10.61,0,0,0,1.72-1.63,3.9,3.9,0,0,1,.46-.45c-.23.17-.43.36-.69.53a1.82,1.82,0,0,0-.45.52A4,4,0,0,1,251.83,428.88Z"/><path class="cls-4" d="M254.77,424c0,.1,0,.3,0,.3a3.29,3.29,0,0,0-.64,1.14l.21-.1c.12-.23.07-.29-.08-.12A3.14,3.14,0,0,0,255,424C254.92,424,254.85,423.92,254.77,424Z"/><path class="cls-4" d="M255.08,423.66,255,424h0c0-.09,0-.19.07-.29Z"/><path class="cls-4" d="M249.16,429.35a8.31,8.31,0,0,1-3.59.22c-.09,0-.16.08-.28,0l-.25-.13c-.17,0-.33-.09-.49-.13l-.18,0h0c-.1,0-.09.05,0,.1a.64.64,0,0,1,.15.13,1.08,1.08,0,0,0-.15-.13,1.38,1.38,0,0,0-.24-.14,2.8,2.8,0,0,1-.46-.16,2.24,2.24,0,0,1,.46.16l.28,0h.09a7.73,7.73,0,0,1-1.08-.4c-.09,0-.16-.06-.23-.08-.26-.1-.53-.19-.62-.37l-.17-.12,0,0,0-.06a4.94,4.94,0,0,1-.7-.5l-.54-.25-.06-.22a.68.68,0,0,1-.32-.14c.06.16.12.32.18.45s.5.09.55.42c-.05-.33-.47-.19-.55-.42s-.12-.29-.18-.45a1.49,1.49,0,0,1-.54-.75,1.54,1.54,0,0,1,.54.75.68.68,0,0,0,.32.14l.06.22.54.25a8.07,8.07,0,0,1-1.21-1.2,8.85,8.85,0,0,1-2-4.92,8.2,8.2,0,0,1,1.36-5.15,7.76,7.76,0,0,1,4.68-3.18,8.56,8.56,0,0,1,5.17.39,6.13,6.13,0,0,1,3.53,3.59,12.27,12.27,0,0,1,.73,2.4,7.35,7.35,0,0,1,.05,2.46c0,.86.27,1.19.59,1.27a.91.91,0,0,0,.68-.16,2,2,0,0,0,.63-.82,2.94,2.94,0,0,0,.26-1,14.71,14.71,0,0,0,0-3.12c.08,1-.13.64-.36-.11s-.69-1.89-1-2.8a5.91,5.91,0,0,0-3.14-3.44,12.25,12.25,0,0,0-5.07-1.18,8.73,8.73,0,0,0-2.72.38,9.35,9.35,0,0,0-6,4.64,10.72,10.72,0,0,0-.94,7.7,7.8,7.8,0,0,0,2,3.34,12.26,12.26,0,0,0,1.7,1.84,6.67,6.67,0,0,0,2.67,1.3,8.59,8.59,0,0,1-2.59-1.29c-.6-.46.59.12,1,.28.2.06.35.46.57.5a4.38,4.38,0,0,0,1.32.38c.21,0,.11.25.22.25a4.11,4.11,0,0,0,.91,0,1.84,1.84,0,0,1,.71,0,8.09,8.09,0,0,0,.87.19,1.94,1.94,0,0,0,.54,0l.36-.07a.45.45,0,0,1-.17-.25,5.44,5.44,0,0,0,.58,0,5.44,5.44,0,0,1-.58,0,.45.45,0,0,0,.17.25,10.35,10.35,0,0,0,2.59-.9h0a3.3,3.3,0,0,1-1.53.26c.23,0,.22.09,0,.14l-.22-.09a3.59,3.59,0,0,1,1.32-.25l.25-.17c.15,0,.17.06.22.11l.28-.12A5.64,5.64,0,0,0,249.16,429.35Z"/><path class="cls-4" d="M244.08,429.26l.24,0a5.89,5.89,0,0,1-.91-.35A1.2,1.2,0,0,0,244.08,429.26Z"/></g><g class="cls-2"><path class="cls-3" d="M738.59,380.53c-.33,1.38-.66,2.77-1.09,4.13.25-.67.58-1.32.9-2A4.77,4.77,0,0,0,738.59,380.53Z"/><path class="cls-3" d="M736.37,388.44c-.07.25-.15.5-.22.73s-.06.45-.09.64C736.16,389.36,736.27,388.9,736.37,388.44Z"/><path class="cls-3" d="M734.3,395.58c.47-1.23.85-2.43,1.18-3.6A24.94,24.94,0,0,0,734.3,395.58Z"/><path class="cls-3" d="M736.42,390c-.28.4-.49.57-.37-.18v0c-.17.73-.38,1.43-.58,2.17A19.94,19.94,0,0,1,736.42,390Z"/><path class="cls-3" d="M736.42,390c.25-.38.56-1,.71-1.23A12.21,12.21,0,0,0,736.42,390Z"/><path class="cls-3" d="M739.05,392.86c-.15.76-1,.29-1.28,1.79a70.07,70.07,0,0,1-2.82,9.56c-.33,1.52-2.37,3.24-2.77,4.71-.31.84-.68,2-1.09,3.25s-.87,2.45-1.18,3.44c-.63,2-.79,3,.42.56A139.17,139.17,0,0,0,738,397c.75-2.87,1.56-5.65,2.1-8.52q.45-2.13.9-4.29c.27-1.45.49-2.92.75-4.4.31-1.65.8-3.15,1.11-4.71-.24,1-.54,2-.86,3l-1,3.23a13.88,13.88,0,0,0-.51,2.38c-.15.85-.27,1.75-.39,2.72s-.23,2-.39,3.07c-.08.54-.17,1.09-.27,1.66S739.22,392.28,739.05,392.86Z"/><path class="cls-3" d="M743.2,349.43c.09.74.26,2.25.26,2.25a35.24,35.24,0,0,0-.73,5.06c-.13,1.72-.06,3.48-.16,5.22.23-.48.46-1,.65-1.49.09-2-.16-2.26-.5-.51a60.11,60.11,0,0,0,1-5.93c.19-2,.2-3.92.21-5.9C743.66,348.38,743.36,348.32,743.2,349.43Z"/><path class="cls-3" d="M743.9,345.82c0,.77,0,1.55,0,2.31,0,0,.06-.05.09-.08,0-.78,0-1.56-.08-2.32Z"/><path class="cls-3" d="M729.06,410.54a137.69,137.69,0,0,1-14.75,24.29,4,4,0,0,1-1,1.88,16.11,16.11,0,0,0-1.6,1.48c-.84,1-1.67,2.09-2.51,3.1l-.87,1.11,0,0c-.41.64-.15.57.26.31s.83-.61,1.19-.84c-.23.15-.78.59-1.19.84a19.45,19.45,0,0,0-1.61,1.45,34,34,0,0,1-2.48,2.89,32.56,32.56,0,0,1,2.48-2.89l1.37-1.79.36-.54c-2,2.26-4,4.58-6.16,6.69L701.22,450a14.26,14.26,0,0,1-4.22,3.89l-1.19,1.1.28-.15c-.19.15-.36.26-.5.36-1.64,1.58-3.47,3-5.21,4.47l-1.52,1.7c-.54.54-1.09,1.09-1.65,1.62l-1.51.58a9.74,9.74,0,0,1-1.72,2c1.15-.54,2.23-1,3.19-1.49a5.26,5.26,0,0,0,1.88-1.72,4.33,4.33,0,0,1,2.18-1.69,4.33,4.33,0,0,0-2.18,1.69,5.26,5.26,0,0,1-1.88,1.72c-1,.5-2,1-3.19,1.49a25.81,25.81,0,0,1-6.16,3.85,20.26,20.26,0,0,1,6.16-3.85,9.74,9.74,0,0,0,1.72-2l1.51-.58c.56-.53,1.11-1.08,1.65-1.62l1.52-1.7c-1.69,1.47-3.53,2.79-5.33,4.17s-3.69,2.68-5.6,4a150.9,150.9,0,0,1-19,11,144.15,144.15,0,0,1-20,8.09l-2.56.85-2.6.73c-1.74.46-3.47,1-5.23,1.41l-5.32,1.19-1.33.29-1.35.23-2.71.46-2.72.46c-.91.16-1.83.23-2.75.35-1.84.21-3.68.45-5.54.63-3.74.23-7.51.55-11.35.51-16.64,0-32.77-1.72-47.56-6.18a110.11,110.11,0,0,1-20.76-8.47,74.15,74.15,0,0,1-17.38-12.83c-10.15-10.19-16.87-23.64-19.92-38.65-1.24-5.75-2.93-14-4-22.35s-1.79-16.79-2-22.59c-1-7.74-2.37-9.65-3.65-9.48s-2.31,2.41-2.43,2.78a31.36,31.36,0,0,0-1.61,7.19,55.56,55.56,0,0,0-.24,7.77c.05,1.41.1,2.91.16,4.51s.19,3.32.3,5.17.24,3.84.37,6c.07,1.09.1,2.21.19,3.38s.17,2.39.26,3.66c-.55-6.9.43-4.45,1.5,1.3.29,1.44.61,3.09,1,4.84.17.88.31,1.79.5,2.72s.37,1.86.56,2.81.35,1.91.52,2.86.39,1.89.57,2.82c.32,1.87.63,3.67.92,5.32.18,1.2.4,2.43.65,3.68s.66,2.49,1,3.77c.19.64.39,1.29.59,1.94s.49,1.28.74,1.92c.53,1.29,1,2.62,1.65,3.91A70.08,70.08,0,0,0,498.82,467a78.48,78.48,0,0,0,14,13,123.27,123.27,0,0,0,16,9.72c5.37,2.81,11.49,4.77,18.34,6.69a134.24,134.24,0,0,0,26.64,5c4.44.43,8.86.61,13.27.73l6.61.05,6.72-.24A165.37,165.37,0,0,0,654,489.62c9.43-4,16.88-9.14,23.74-14.18,2.61-1.69,5.21-3.6,7.79-5.27s4.88-3.51,6.86-5.1a111.55,111.55,0,0,0,14.91-15.26c-2.46,2.69-4.51,5.11-6.85,7.4-1.16,1.15-2.29,2.38-3.59,3.57l-4.21,3.82c-1,.91-1.44,1.09-1.38.92a10.86,10.86,0,0,1,1.2-1.6c1.34-1.64,3.52-4,4.73-5.31,1-1.2,3.44-2.09,4.4-3.32a35.11,35.11,0,0,0,3.24-3.68c1-1.29,2.08-2.57,3.12-4,.84-1.3,1.45-.54,1.87-1.19.76-1,1.42-1.9,2-2.82s1.08-1.85,1.56-2.7a25,25,0,0,1,2.86-4.35l4.15-5.09c.76-1.07,1.5-2.15,2.22-3.34l1.22-2.36a2.25,2.25,0,0,1-1.5.47c.36-.52.84-1.13,1.3-1.75s.88-1.26,1.22-1.8c-.34.54-.78,1.17-1.22,1.8s-.94,1.23-1.3,1.75a2.25,2.25,0,0,0,1.5-.47,189.34,189.34,0,0,0,8.22-18.86l-.12.05a54.48,54.48,0,0,1-2.51,5.36c-1,1.73-2,3.43-3.23,5.12,1-1.48,1.14-1.16.24.67l-1.19,1.11c.79-1.58,1.43-3.22,2.22-4.77a31.9,31.9,0,0,1,2.67-4.39l.63-2.2c.59-1,.84-.79,1.17-.9.3-.71.6-1.44.9-2.17C731.75,406.08,729.06,410.54,729.06,410.54Z"/><path class="cls-3" d="M706.83,444.24l1.18-1.48c-1.71,1.88-3.35,3.83-5.19,5.61a8.63,8.63,0,0,0,2-1.63C705.48,446,706.16,445.12,706.83,444.24Z"/></g><g class="cls-2"><path class="cls-4" d="M609.06,442.2a15.3,15.3,0,0,1-1.33.88c.25-.11.51-.2.77-.3A1.29,1.29,0,0,0,609.06,442.2Z"/><path class="cls-4" d="M606.44,443.8l-.24.14-.2.15A4.17,4.17,0,0,0,606.44,443.8Z"/><path class="cls-4" d="M604,445.11a7.65,7.65,0,0,0,1.29-.61A9,9,0,0,0,604,445.11Z"/><path class="cls-4" d="M606.06,444.28c-.19,0-.3,0-.07-.19h0l-.73.41A6,6,0,0,1,606.06,444.28Z"/><path class="cls-4" d="M606.06,444.28a3,3,0,0,0,.54-.09Z"/><path class="cls-4" d="M606.15,446.11c-.26.18-.39-.28-.88.06a17.75,17.75,0,0,1-1.76.93,7.61,7.61,0,0,1-1.81.69c-.56.24-1.58,0-2.14.17s-1.88.59-2.69.76-1.18.39-.1.32a14.66,14.66,0,0,0,2.23-.3,15.5,15.5,0,0,0,2-.45c.62-.2,1.24-.35,1.85-.57l1.9-.76c.53-.26,1-.57,1.52-.85a11.53,11.53,0,0,0,1.45-.93l1.4-1,1.32-1.13c.54-.39,1-.78,1.49-1.16l-1,.72-1.12.69a11.62,11.62,0,0,0-1.56,1.28A9.22,9.22,0,0,1,606.15,446.11Z"/><path class="cls-4" d="M616.84,433.41c-.07.28-.23.84-.23.84a9.25,9.25,0,0,0-1.18,1.54c-.31.58-.66,1.13-1,1.7l.55-.33c.44-.63.38-.77-.11-.29a11.24,11.24,0,0,0,2.51-3.75A.53.53,0,0,0,616.84,433.41Z"/><path class="cls-4" d="M617.72,432.31c-.11.27-.23.54-.35.81h0l.33-.82Z"/><path class="cls-4" d="M598.33,447a22,22,0,0,1-2.79.23c-.92,0-1.82-.07-2.72-.1s-1.77-.25-2.63-.44-1.71-.41-2.52-.73a1.35,1.35,0,0,1-.81-.14,4.88,4.88,0,0,0-.71-.44,13.06,13.06,0,0,1-1.36-.65l-.5-.2h0c-.28-.07-.24,0-.11.17a3.73,3.73,0,0,1,.4.39c-.07-.08-.28-.25-.4-.39a5,5,0,0,0-.68-.48,13.5,13.5,0,0,1-1.24-.74,7.24,7.24,0,0,1,1.24.74l.8.32.24.06a28.48,28.48,0,0,1-3-1.76c-.23-.13-.43-.28-.61-.39a4.54,4.54,0,0,1-1.67-1.39l-.45-.41.06.11c-.06-.07-.1-.14-.14-.19a19.86,19.86,0,0,1-1.85-1.82c-.45-.35-1-.68-1.39-1.07l-.19-.61a3,3,0,0,1-.8-.6c.19.45.34.89.52,1.27.18.64,1.26.64,1.4,1.47-.14-.83-1.22-.83-1.4-1.47-.18-.38-.33-.82-.52-1.27a6.31,6.31,0,0,1-1.42-2.37,6.72,6.72,0,0,1,1.42,2.37,3,3,0,0,0,.8.6l.19.61c.43.39.94.72,1.39,1.07a23.71,23.71,0,0,1-1.67-1.94,24.4,24.4,0,0,1-1.52-2.1,26.37,26.37,0,0,1-4.61-15.34,20.8,20.8,0,0,1,7.07-14.29,33.31,33.31,0,0,1,7.49-5.2,34.44,34.44,0,0,1,8.3-2.85,28,28,0,0,1,8.26-.51,17,17,0,0,1,7.39,2.3A19.21,19.21,0,0,1,616,411.94a50,50,0,0,1,1,8.14,28.55,28.55,0,0,1-.87,7.95c0,.34-.07.65-.08.94s-.07.53-.08.76a4.26,4.26,0,0,0,0,1.12c.11.59.36.88.66,1,.6.2,1.39-.39,1.5-.51a10.22,10.22,0,0,0,1-1.11,8,8,0,0,0,.7-1.25c.2-.43.38-.88.56-1.36s.25-1,.37-1.54a50.17,50.17,0,0,0,.93-8.88c-.09,2.73-.44,1.72-.67-.54-.22-1.12-.33-2.58-.62-4.06s-.55-3-.67-4.34a18.55,18.55,0,0,0-6.83-11.52,20.76,20.76,0,0,0-6.87-3.65,26.49,26.49,0,0,0-3.75-.89c-.62-.12-1.24-.14-1.85-.21s-1.23-.17-1.83-.16a21.38,21.38,0,0,0-3.72.17c-.64.09-1.3.15-1.95.28l-2,.44a34.4,34.4,0,0,0-10.06,3.8,33.24,33.24,0,0,0-8.4,6.62,26.87,26.87,0,0,0-5.78,9.5,24.75,24.75,0,0,0-.91,11.58,24.34,24.34,0,0,0,4.48,10.15c.31.54.67,1.05,1,1.57s.66,1.06,1,1.55a23.42,23.42,0,0,0,8.87,7.73,29.39,29.39,0,0,1-6.55-5c-.76-.77-.38-.6.31-.13.35.24.77.55,1.18.85s.84.55,1.12.76c.52.31.87,1.37,1.45,1.62a15,15,0,0,0,1.63,1l1.82.85c.57.22.27.61.57.71a18.42,18.42,0,0,0,2.49.79,7.4,7.4,0,0,1,2,.51c.84.41,1.66.61,2.43.91a6.67,6.67,0,0,0,1.55.32l1.06,0a1,1,0,0,1-.4-.58c.24.05.53.13.83.21a7.07,7.07,0,0,0,.84.12,7.07,7.07,0,0,1-.84-.12c-.3-.08-.59-.16-.83-.21a1,1,0,0,0,.4.58,29.68,29.68,0,0,0,7.94-1.09l0,0a19.29,19.29,0,0,1-2.26.35,12.19,12.19,0,0,1-2.33-.13c.68.07.6.21-.18.28-.2-.06-.4-.17-.6-.25.68,0,1.35-.18,2-.21a16.19,16.19,0,0,1,2,0l.83-.29a.59.59,0,0,1,.56.25l.87-.26Z"/><path class="cls-4" d="M583.47,444.22l.67.28a9.36,9.36,0,0,1-1.26-.73l-1.22-.78A5.19,5.19,0,0,0,583.47,444.22Z"/></g><circle class="cls-5" cx="595.14" cy="420.97" r="8.79"/><g class="cls-2"><path class="cls-4" d="M589,427.69l.42.38a1.53,1.53,0,0,1-.16-.25A.35.35,0,0,0,589,427.69Z"/><polygon class="cls-4" points="589.82 428.4 589.9 428.46 589.99 428.49 589.82 428.4"/><path class="cls-4" d="M590.69,428.88a2.7,2.7,0,0,0-.44-.24A2,2,0,0,0,590.69,428.88Z"/><path class="cls-4" d="M590.05,428.42c0,.06,0,.11-.06.07h0l.26.15A1.33,1.33,0,0,1,590.05,428.42Z"/><path class="cls-4" d="M590.05,428.42l-.09-.18A.76.76,0,0,0,590.05,428.42Z"/><path class="cls-4" d="M590.72,427.85c.09,0-.06.21.13.26.4.17.77.22,1.13.38.17,0,.35.36.54.37.44.1,1.53,0,.93-.13a8.31,8.31,0,0,1-2.26-.71,7.88,7.88,0,0,1-1.85-1,4,4,0,0,1-.39-.44,6.27,6.27,0,0,0,.48.64,1.42,1.42,0,0,0,.54.33A3.5,3.5,0,0,1,590.72,427.85Z"/><path class="cls-4" d="M586.77,424.18l.18.24a2,2,0,0,0,.58,1.21v-.23c-.15-.21-.21-.21-.15,0a8.63,8.63,0,0,0-.51-1.46C586.82,424,586.75,424,586.77,424.18Z"/><path class="cls-4" d="M586.75,423.68l.12.28,0,0c0-.09-.1-.18-.14-.27Z"/><path class="cls-4" d="M592.69,429.49a9.52,9.52,0,0,0,3.65.28c.09-.06.14-.12.27-.11l.29,0c.17,0,.34-.08.5-.12l.18-.06h0c.09,0,0-.08,0-.1l-.19,0,.19,0a1,1,0,0,0,.29,0,2.75,2.75,0,0,1,.46-.18,1.81,1.81,0,0,1-.46.18l-.27.11-.08,0a9.35,9.35,0,0,0,1.14-.35,1.14,1.14,0,0,0,.22-.12,1.23,1.23,0,0,1,.69-.29l.19-.1h0l.08,0a7.62,7.62,0,0,0,.77-.48c.13-.16.25-.33.39-.48l.23-.05a.74.74,0,0,1,.16-.32l-.46.16c-.22,0-.19.46-.51.43.32,0,.29-.39.51-.43l.46-.16a2.76,2.76,0,0,1,.73-.61,1.14,1.14,0,0,1-.73.61.74.74,0,0,0-.16.32l-.23.05c-.14.15-.26.32-.39.48a8.54,8.54,0,0,0,1.38-1.18,8.87,8.87,0,0,0,2.41-5.24A9.46,9.46,0,0,0,603,416a10,10,0,0,0-5.09-4.24,9.12,9.12,0,0,0-6.41.14,11.77,11.77,0,0,0-5.24,4.08,7.8,7.8,0,0,0-1.3,3.27,9.44,9.44,0,0,0,.06,3.48c.42,1.13.88,1.25,1.16,1.14a1.15,1.15,0,0,0,.5-.53,5.85,5.85,0,0,0,.23-1c0-.3,0-.6,0-.93a5.26,5.26,0,0,1,.59-2.57c-.31.73-.4.43-.25-.26a3.73,3.73,0,0,1,1.39-2.07c1-.6,1.83-1.4,2.93-2a6.11,6.11,0,0,1,3.67-.94,10.19,10.19,0,0,1,2,.34,8.43,8.43,0,0,1,4.21,3.44,7,7,0,0,1,.82,5.51,11.05,11.05,0,0,1-1,2.79A6,6,0,0,1,599.9,427,12.59,12.59,0,0,1,598,428.3a7.85,7.85,0,0,0,1.93-1.25c.45-.39-.12.52-.47.78-.12.15-.49.06-.62.17-.33.18-.61.41-1,.62-.15.11-.2-.12-.28-.07a3.42,3.42,0,0,0-.68.38,1.3,1.3,0,0,1-.58.2,4.84,4.84,0,0,1-.78,0H595l-.31,0a.71.71,0,0,1,.13.26c-.16,0-.37-.07-.52-.1.15,0,.36.08.52.1a.71.71,0,0,0-.13-.26,6.6,6.6,0,0,1-2.49-.13v0a8.75,8.75,0,0,1,1.41.53c-.22-.09-.17-.15.08-.13l.17.15a1.94,1.94,0,0,1-1.27-.32h-.29c-.13-.08-.1-.15-.1-.22L592,429A4.34,4.34,0,0,0,592.69,429.49Z"/><path class="cls-4" d="M597.86,429.42l-.23.08a8,8,0,0,0,1-.3A1.15,1.15,0,0,0,597.86,429.42Z"/></g></svg>