<svg id="Layer_1" data-name="Layer 1" xmlns="http://www.w3.org/2000/svg" viewBox="0 0 841.89 841.89"><defs><style>.cls-1{fill:#fde8ea;}.cls-2{opacity:0.85;}.cls-3{fill:#211f1e;}.cls-4{fill:#1f2020;}</style></defs><rect class="cls-1" width="841.89" height="841.89"/><g class="cls-2"><path class="cls-3" d="M570.05,501.79l.83.62a2.07,2.07,0,0,1-.32-.44C570.41,501.79,570.25,501.81,570.05,501.79Z"/><path class="cls-3" d="M571.68,503l.15.1.16,0Z"/><path class="cls-3" d="M573.32,503.68a5,5,0,0,0-.83-.37A2.79,2.79,0,0,0,573.32,503.68Z"/><path class="cls-3" d="M572.11,502.93c.06.11.07.21-.11.16h0l.5.22A2.27,2.27,0,0,1,572.11,502.93Z"/><path class="cls-3" d="M572.11,502.93c-.06-.12-.17-.26-.2-.32A2.36,2.36,0,0,0,572.11,502.93Z"/><path class="cls-3" d="M573.3,501.66c.16,0-.09.43.25.48s.73.17,1.07.25a4.79,4.79,0,0,1,1,.23c.32,0,.67.64,1,.62a4.82,4.82,0,0,0,1.53-.15c.45-.11.65-.23.11-.3a13.86,13.86,0,0,1-4.12-.91,14.12,14.12,0,0,1-3.48-1.45,7.43,7.43,0,0,1-.75-.73,12.53,12.53,0,0,0,.94,1.09,2.2,2.2,0,0,0,1,.49A6.88,6.88,0,0,1,573.3,501.66Z"/><path class="cls-3" d="M565.55,495.79l.38.4a2.36,2.36,0,0,0,.42,1.15,4.8,4.8,0,0,0,.81.94l0-.43c-.29-.36-.42-.35-.29.07a13.56,13.56,0,0,0-1.12-2.56C565.64,495.47,565.5,495.52,565.55,495.79Z"/><path class="cls-3" d="M565.46,494.89l.27.47,0,0-.3-.46Z"/><path class="cls-3" d="M577,504.45a16.88,16.88,0,0,0,6.61,0c.14-.14.22-.27.45-.27a1.93,1.93,0,0,0,.53,0,8.39,8.39,0,0,0,.89-.28l.3-.15h0c.14-.11.07-.16-.06-.19a1.36,1.36,0,0,1-.36-.05c.07,0,.24,0,.36.05a1.91,1.91,0,0,0,.52,0,4.91,4.91,0,0,1,.79-.41,3,3,0,0,1-.79.41l-.47.24-.13.09a15.7,15.7,0,0,0,2-.82,1.83,1.83,0,0,0,.37-.25,2.15,2.15,0,0,1,1.21-.64l.32-.22h-.09l.14-.05a12.8,12.8,0,0,0,1.3-1c.2-.31.39-.64.59-.94l.42-.12a1.31,1.31,0,0,1,.21-.61c-.3.13-.59.22-.81.33-.4.1-.23.9-.85.87.62,0,.45-.77.85-.87.22-.11.51-.2.81-.33a4.2,4.2,0,0,1,1.22-1.23,2,2,0,0,1-1.22,1.23,1.31,1.31,0,0,0-.21.61l-.42.12c-.2.3-.39.63-.59.94a15,15,0,0,0,2.26-2.37,16,16,0,0,0,3.37-9.88,17.77,17.77,0,0,0-3.36-10.24,18.3,18.3,0,0,0-9.81-7,16.13,16.13,0,0,0-11.63,1.24,21.48,21.48,0,0,0-8.82,8.36,14.26,14.26,0,0,0-1.75,6.19,18.23,18.23,0,0,0,.76,6.31,3.78,3.78,0,0,0,1.41,1.74,1,1,0,0,0,1,.06,2.18,2.18,0,0,0,.91-1.08,7.82,7.82,0,0,0,.34-1.8c0-.55,0-1.08,0-1.68a8.94,8.94,0,0,1,.64-4.67c-.47,1.34-.7.82-.57-.42a6.36,6.36,0,0,1,2.15-3.92c1.7-1.19,3-2.72,4.85-4a10.12,10.12,0,0,1,6.25-2.23,17.05,17.05,0,0,1,3.5.32,15.63,15.63,0,0,1,7.91,5.47,12.67,12.67,0,0,1,2.42,9.59,21.8,21.8,0,0,1-1.12,5.12,10,10,0,0,1-2.26,2.62c-.53.55-1.08,1-1.58,1.47s-1,.88-1.58,1.23a13.22,13.22,0,0,0,3.16-2.56c.37-.38.35-.15.17.26a5.2,5.2,0,0,1-.36.7,6.12,6.12,0,0,1-.44.56c-.18.29-.88.15-1.09.39a5.05,5.05,0,0,0-.77.63c-.27.2-.53.43-.84.66s-.4-.21-.52-.11a5.68,5.68,0,0,0-1.12.82,2,2,0,0,1-1,.48,9.32,9.32,0,0,1-1.39,0l-.83.06-.54.15a1.08,1.08,0,0,1,.27.49c-.28,0-.67-.08-.94-.13.27.05.66.11.94.13a1.08,1.08,0,0,0-.27-.49,11.86,11.86,0,0,1-4.47.21v0a14.14,14.14,0,0,1,2.6.77c-.39-.15-.32-.25.13-.26l.33.26a3.78,3.78,0,0,1-1.21,0,2.18,2.18,0,0,1-1.11-.41l-.54,0c-.23-.13-.18-.27-.2-.41a5.09,5.09,0,0,1-.51-.1A6.67,6.67,0,0,0,577,504.45Z"/><path class="cls-3" d="M586.3,503.52l-.4.19a15.74,15.74,0,0,0,1.66-.69A2,2,0,0,0,586.3,503.52Z"/></g><circle class="cls-4" cx="580.73" cy="490" r="5.68"/><g class="cls-2"><path class="cls-3" d="M584.34,493.93l-.26.21a.48.48,0,0,1,.18,0C584.34,494.07,584.33,494,584.34,493.93Z"/><polygon class="cls-3" points="583.82 494.31 583.77 494.35 583.75 494.39 583.82 494.31"/><path class="cls-3" d="M583.36,494.68a1.13,1.13,0,0,0,.26-.16A.83.83,0,0,0,583.36,494.68Z"/><path class="cls-3" d="M583.8,494.48s-.09,0-.06-.08h0l-.13.13Z"/><path class="cls-3" d="M583.8,494.48h0Z"/><path class="cls-3" d="M584.13,495.28c0,.06-.16-.15-.24,0a2.82,2.82,0,0,1-.71.56c-.11.12-.41-.07-.52,0s-1,.66-.54.54a5.76,5.76,0,0,0,1.73-.81,7.1,7.1,0,0,0,1.09-1.17,2.72,2.72,0,0,1,.3-.29,4.33,4.33,0,0,1-.47.33C584.53,494.55,584.47,495,584.13,495.28Z"/><path class="cls-3" d="M585.85,492c0,.06,0,.2,0,.2-.27.17-.32.45-.42.72l.17,0c.08-.15,0-.2-.09-.1a1.51,1.51,0,0,0,.53-.82C586,491.91,585.91,491.88,585.85,492Z"/><path class="cls-3" d="M586.1,491.73c0,.06,0,.13-.05.19h0c0-.07,0-.13,0-.19Z"/><path class="cls-3" d="M582.28,495.38a5.17,5.17,0,0,1-2.3.14c-.07,0-.12.08-.19,0a.42.42,0,0,0-.16-.11l-.31-.09h-.12c-.06,0-.06,0,0,.09a.94.94,0,0,1,.09.12l-.09-.12a.58.58,0,0,0-.15-.11,1.18,1.18,0,0,1-.3-.1.76.76,0,0,1,.3.1l.19,0h0a5.07,5.07,0,0,1-.68-.27.53.53,0,0,1-.15-.05c-.17,0-.35-.1-.39-.25l-.11-.07v0l0-.05c-.14-.11-.3-.2-.44-.33s-.25-.07-.37-.12,0-.12,0-.17a.36.36,0,0,1-.24-.06,2.44,2.44,0,0,0,.08.34c0,.19.37,0,.35.27,0-.27-.33-.08-.35-.27a2.44,2.44,0,0,1-.08-.34.68.68,0,0,1-.31-.51.63.63,0,0,1,.31.51.36.36,0,0,0,.24.06c0,.05,0,.17,0,.17s.25.08.37.12a5,5,0,0,1-.75-.78,5.29,5.29,0,0,1-.33-6.32,4.62,4.62,0,0,1,3-1.88,5.56,5.56,0,0,1,3.12.3,3.26,3.26,0,0,1,2,2.23c.09.39.28.88.37,1.4a4.21,4.21,0,0,1,0,1.4,1,1,0,0,0,.7.85.94.94,0,0,0,.64,0,1.38,1.38,0,0,0,.79-1.17,14.57,14.57,0,0,0,.09-2.11c0,.66-.18.44-.35-.05a13,13,0,0,1-.55-1.94,3.47,3.47,0,0,0-2.07-2.47,9.41,9.41,0,0,0-3.51-.81,5.92,5.92,0,0,0-1.89.26,6.23,6.23,0,0,0-4.18,3.21,7.59,7.59,0,0,0-.63,5.36,5,5,0,0,0,1.48,2.25,9.13,9.13,0,0,0,1.14,1.28,4.2,4.2,0,0,0,1.85.84,5.91,5.91,0,0,1-1.78-.85c-.41-.31.46,0,.78.09.14,0,.2.38.36.39a2.43,2.43,0,0,0,.91.2c.15,0,.06.23.13.22.46.08.85-.15,1.11-.06a4.69,4.69,0,0,0,.58.17,1.09,1.09,0,0,0,.36,0l.24-.07a.58.58,0,0,1-.12-.25c.11,0,.28.06.39.06-.11,0-.28-.05-.39-.06a.58.58,0,0,0,.12.25,7.41,7.41,0,0,0,1.69-.72v0a1.52,1.52,0,0,1-1,.13c.15,0,.15.1,0,.14l-.15-.1a1.29,1.29,0,0,1,.86-.15l.15-.14c.1,0,.13.07.17.12l.18-.08A3.21,3.21,0,0,0,582.28,495.38Z"/><path class="cls-3" d="M579,495.32l.16,0c-.2,0-.38-.16-.58-.23C578.65,495.25,578.84,495.29,579,495.32Z"/></g><g class="cls-2"><path class="cls-3" d="M453.43,438.06c.39.63.78,1.27,1.18,1.9l1.24,1.87a17,17,0,0,1-1-2.06A5.17,5.17,0,0,0,453.43,438.06Z"/><path class="cls-3" d="M458.14,445.28l.44.66.46.51Z"/><path class="cls-3" d="M462.91,451.46c-.78-1.14-1.59-2.18-2.39-3.17A28.88,28.88,0,0,0,462.91,451.46Z"/><path class="cls-3" d="M459.43,446.31c.15.48.16.76-.37.17l0,0c.46.63,1,1.22,1.48,1.84A12.52,12.52,0,0,1,459.43,446.31Z"/><path class="cls-3" d="M459.43,446.31c-.15-.46-.46-1.14-.53-1.39A13.24,13.24,0,0,0,459.43,446.31Z"/><path class="cls-3" d="M463.33,445.93c.54.56-.34,1,.75,2.08l3.4,3.83c1.13,1.19,2.22,2.37,3.28,3.68,1.11,1.05,1.8,3.62,3,4.61a65.18,65.18,0,0,0,5.34,4.69c1.68,1.26,2.55,1.72.67-.2a206.5,206.5,0,0,1-13.64-15.51c-1.92-2.26-3.85-4.46-5.63-6.79l-2.75-3.49c-.93-1.16-1.77-2.41-2.67-3.65-.95-1.42-1.74-2.81-2.54-4.21l3.16,5.85A18.87,18.87,0,0,0,459,441C460.32,442.4,461.79,444,463.33,445.93Z"/><path class="cls-3" d="M437.85,409.06l1.32,1.95c.88,3.43,2.86,6.52,4.82,9.59-.11-.54-.23-1.09-.34-1.65-1-1.8-1.38-1.89-.69-.16a106.72,106.72,0,0,0-5.08-11.25C437.75,407.88,437.46,408,437.85,409.06Z"/><path class="cls-3" d="M436.74,405.42l1.14,2.12,0-.11-1.19-2.09Z"/><path class="cls-3" d="M474,463.71a184.16,184.16,0,0,0,21.28,20.46,5.14,5.14,0,0,1,1.92,1.16,11,11,0,0,0,1.57,1.62l3.33,2.48,1.23.79,0,0c.7.35.59.1.28-.29a13.08,13.08,0,0,1-1-1.13c.17.22.67.75,1,1.13a15.87,15.87,0,0,0,1.71,1.45c1.09.65,2.22,1.34,3.33,2.13a27.36,27.36,0,0,1-3.33-2.13c-.69-.41-1.37-.77-2-1.18l-.6-.32c1.27,1,2.62,1.79,3.92,2.69s2.61,1.78,4,2.58l1.76.93c1,.52,2,1.06,2.93,1.56a9.13,9.13,0,0,1,2.21,1.52L519,500l-.25-.23c.21.15.39.27.52.38,1,.59,2.12,1.1,3.21,1.62l3.25,1.56c1.49.48,3.08.82,4.61,1.3l1.32,1.05a13.23,13.23,0,0,1,2.69.45c-1.13-.69-2.13-1.37-3.06-2-1.29-1.05-3.7-.41-5.08-2,1.38,1.6,3.79,1,5.08,2,.93.61,1.93,1.29,3.06,2a29,29,0,0,1,3.53,1.21,31.78,31.78,0,0,1,3.53,1.54,15.84,15.84,0,0,1-3.94-1.08,24.52,24.52,0,0,1-3.12-1.67,13.23,13.23,0,0,0-2.69-.45l-1.32-1.05c-1.53-.48-3.12-.82-4.61-1.3,2.14,1,4.33,1.86,6.53,2.79s4.48,1.69,6.81,2.41a121.06,121.06,0,0,0,45.35,5.77A145.16,145.16,0,0,0,630,503.86a169.48,169.48,0,0,0,23.37-11.48,167.4,167.4,0,0,0,20.75-14.64C687,467,697.39,454.17,704.28,439.18a82.89,82.89,0,0,0,4.23-11.72,62.71,62.71,0,0,0,2.06-12.64c0-1.09.11-2.18.09-3.28l-.12-3.32c-.11-1.11-.25-2.22-.38-3.34,0-.26-.08-.61-.09-.79l0-.48c0-.29,0-.72,0-1.11a38.83,38.83,0,0,1,.55-5.37c.3-1.88.69-3.81,1.14-5.76,1.32-6,3.2-14.69,5.23-23.37s4.14-17.31,5.68-23.18c1.37-8.07.57-10.33-.69-10.51s-2.94,1.74-3.15,2.08c-3,4.38-4.62,8.63-6.29,14.21s-3.46,12.46-6.71,22.34c2.12-6.75,2.08-4.09.91,1.81s-3.31,15-5.12,21.8a35.07,35.07,0,0,0-.86,3.9,21.73,21.73,0,0,0-.26,4.65c0,.41.09,1,.09,1.21l0,.89c0,.58.08,1.17.11,1.77,0,1.2,0,2.41,0,3.64a63.65,63.65,0,0,1-2.59,15.55,78,78,0,0,1-16.94,29.74,158.41,158.41,0,0,1-13,13.06,175.83,175.83,0,0,1-21.16,15,159.91,159.91,0,0,1-22.91,11.52c-15.86,6.42-33.2,10.32-51.59,9.72-9.71-.3-18.33-.73-26.5-2.3a102.1,102.1,0,0,1-16.39-5.83c-7.12-3-13.13-5.9-18.82-8.9,1.54.93,3,1.69,4.45,2.48s2.83,1.48,4.28,2.16c2.85,1.44,5.89,2.72,9.56,4.25,2.46.95,1.5.9-.52.47a67.68,67.68,0,0,1-6.69-2.11c-1.45-.51-3.08-2.56-4.52-3.07-1.45-.77-2.84-1.52-4.31-2.2l-2.24-1.05-2.28-1.22c-1.39-.66-.72-1.36-1.41-1.69-.52-.31-1-.59-1.54-.86l-1.46-.82c-1-.52-1.88-1-2.75-1.42a17.36,17.36,0,0,1-4.38-2.84L494.52,480c-.8-.73-1.52-1.51-2.26-2.24-.95-.91-1.9-1.8-3-2.69-.71-.49-1.39-1.08-2.1-1.63a2.35,2.35,0,0,1,.18,1.57c-.9-.93-2.07-2.35-3-3.29.89.94,2.06,2.36,3,3.29a2.35,2.35,0,0,0-.18-1.57l-3.87-3.16c-1.3-1.12-2.59-2.31-3.9-3.5l-2-1.79c-.64-.62-1.26-1.26-1.89-1.89-1.26-1.26-2.5-2.52-3.73-3.76v.13a117.53,117.53,0,0,1,7.8,9.48c-1.11-1.47-.76-1.49.71,0,.26.49.51,1,.76,1.49-1.35-1.22-2.7-2.45-4-3.73a21,21,0,0,1-3.19-4.23l-1.78-1.54c-.65-.95-.39-1.1-.35-1.45l-1.58-1.81c.18.4.49,1,.86,1.65s.84,1.34,1.26,2Z"/><path class="cls-3" d="M505.42,491.48l-1.69-1,3.29,2.22c1.1.74,2.19,1.51,3.34,2.18A23,23,0,0,0,505.42,491.48Z"/></g><g class="cls-2"><path class="cls-3" d="M200.7,429.35l1.45.45a2.41,2.41,0,0,1-.64-.53C201.22,429.08,201,429.24,200.7,429.35Z"/><path class="cls-3" d="M203.49,430.23l.26.08.25,0Z"/><path class="cls-3" d="M206.11,430.69a5.33,5.33,0,0,0-1.31-.32A3.4,3.4,0,0,0,206.11,430.69Z"/><path class="cls-3" d="M204.14,429.91c.12.18.16.34-.13.38h0l.8.09A2.76,2.76,0,0,1,204.14,429.91Z"/><path class="cls-3" d="M204.14,429.91c-.12-.18-.32-.37-.38-.47A2.7,2.7,0,0,0,204.14,429.91Z"/><path class="cls-3" d="M205.67,426.81c.29,0,0,.88.54.81a16.34,16.34,0,0,1,3.48.23c.55-.08,1.09,1.14,1.65,1.06,1.27,0,4.61-.48,2.81-.86-2.73-.52-4.55-.68-7-1.2-2-.16-4.06-.24-6.16-.45a7.37,7.37,0,0,1-1.58-.55c.64.36,1.31.68,2.05,1C202.43,427.42,204,426.58,205.67,426.81Z"/><path class="cls-3" d="M190.16,425.58l.85-.08a4.81,4.81,0,0,0,3.45,1.21l-.39-.62c-.69-.15-.85.08-.31.47a9,9,0,0,0-3.83-1.78C189.93,425.06,189.83,425.34,190.16,425.58Z"/><path class="cls-3" d="M189.12,424.62l.81.16v-.08l-.83-.11Z"/><path class="cls-3" d="M211.75,431.25c3.42.78,6.6,1.67,9.75,2.39.28-.13.5-.31.8-.13a2.5,2.5,0,0,0,.67.49l1.37.35.5,0h0c.28-.05.24-.21.11-.38a3,3,0,0,1-.42-.45c.08.1.29.28.42.45a2.53,2.53,0,0,0,.68.42,5.18,5.18,0,0,1,1.32.24,3.24,3.24,0,0,1-1.32-.24l-.8,0-.24,0c1,.26,2.08.55,3.12.79.25,0,.48,0,.68,0,.79,0,1.57,0,2,.57l.56.13-.09-.1.19.12,2.38.56a15.82,15.82,0,0,1,1.68-.25s.3.38.46.56a1.84,1.84,0,0,1,1-.33c-.39-.34-.73-.72-1.06-1-.46-.57-1.36.73-1.84-.27.48,1,1.38-.3,1.84.27.33.26.67.64,1.06,1a3.78,3.78,0,0,1,2.47.83,2.62,2.62,0,0,1-2.47-.83,1.84,1.84,0,0,0-1,.33c-.16-.18-.46-.56-.46-.56a15.82,15.82,0,0,0-1.68.25l2.34.54,2.4.48c10.39,2.19,20.18,3,31.23,3.5,3,.19,5.95.19,8.86.31s5.81.08,8.68,0A75.1,75.1,0,0,0,303.48,439c5.4-1.29,10.75-2.79,16.73-4.24a32.22,32.22,0,0,0,8.17-3.88,50,50,0,0,0,7.23-5.68,5.9,5.9,0,0,0,1.23-3.41,2.25,2.25,0,0,0-.89-1.89,6.23,6.23,0,0,0-2.58-.8,8.82,8.82,0,0,0-5.33,1.62,20.54,20.54,0,0,1-6.89,3.1c2.21-.66,1.83.26.18,1.35a11.91,11.91,0,0,1-7,1.9c-3.55-.44-7,.66-10.7,1.86-1.83.66-3.76,1.23-5.67,1.81a28,28,0,0,1-5.81,1,22.39,22.39,0,0,0-3,.34c-1,.16-2.1.28-3.24.38-6,.05-11.68.43-17.56.55-2.92.14-5.89.05-8.91.05-1.51-.06-3-.16-4.58-.26s-3.1-.22-4.68-.46a26.8,26.8,0,0,0-4.82,0c-1.55.12-3,.21-4.49.25a44.34,44.34,0,0,1-5.91-1.23,39.57,39.57,0,0,0-7.22-.53c2.47.29,4.29.34,7,.69,1.82.27-1.46,1-2.72,1-.55.12-1.16-1.08-1.72-1a20.34,20.34,0,0,0-3.47.06c-.55.1-.3-.83-.58-.78-1.67-.13-3.18.81-4.17.33-.76-.31-1.44-.61-2.1-.9a8.11,8.11,0,0,0-1.33-.35l-.94,0a2.22,2.22,0,0,1,.17,1.08c-.41-.15-1-.51-1.39-.67.42.16,1,.52,1.39.67a2.22,2.22,0,0,0-.17-1.08c-2.26,0-4.84-.09-7.25-.25v.09a9,9,0,0,1,3.92,1.55c-.55-.35-.42-.59.29-.48l.41.59a4.77,4.77,0,0,1-3.5-1l-.84.13c-.35-.22-.26-.51-.28-.78l-.81-.12A11.2,11.2,0,0,0,211.75,431.25Z"/><path class="cls-3" d="M225.67,434.45l-.67-.07,2.62.68C227.23,434.52,226.46,434.48,225.67,434.45Z"/></g></svg>