<svg id="Layer_1" data-name="Layer 1" xmlns="http://www.w3.org/2000/svg" viewBox="0 0 841.89 841.89"><defs><style>.cls-1{fill:#593d2b;}.cls-2{opacity:0.85;}.cls-3{fill:#fefefe;}.cls-4{fill:#edefef;}</style></defs><rect class="cls-1" width="841.89" height="841.89"/><g class="cls-2"><path class="cls-3" d="M697.45,567.37c.39.34.75.71,1.18,1a2.4,2.4,0,0,1-.5-.63A1.32,1.32,0,0,0,697.45,567.37Z"/><path class="cls-3" d="M699.82,569.21a1.49,1.49,0,0,0,.24.14l.24.06A2.86,2.86,0,0,1,699.82,569.21Z"/><path class="cls-3" d="M702.37,570.16c-.22-.08-.45-.15-.67-.21s-.42-.17-.63-.25a3.79,3.79,0,0,0,.57.29C701.87,570.05,702.11,570.11,702.37,570.16Z"/><path class="cls-3" d="M700.43,569.25c.11.13.16.24-.12.17h0l.77.29A4.43,4.43,0,0,1,700.43,569.25Z"/><path class="cls-3" d="M700.43,569.25a3,3,0,0,1-.36-.37A1.56,1.56,0,0,0,700.43,569.25Z"/><path class="cls-3" d="M701.73,568c.23,0,0,.47.47.56s1.07.17,1.56.22a9.37,9.37,0,0,1,1.5.09c.47-.11,1.22.44,1.71.34a12.4,12.4,0,0,0,2.17-.7c.62-.3.87-.51,0-.33a13.76,13.76,0,0,1-6.21.09,10.81,10.81,0,0,1-4.89-2.29,12.39,12.39,0,0,1-1-1.19l.61.84a6,6,0,0,0,.7.84,3.23,3.23,0,0,0,1.43.88l.92.33C701,567.79,701.39,567.85,701.73,568Z"/><path class="cls-3" d="M691.61,558l.47.64a4.62,4.62,0,0,0,.59,1.68,11.5,11.5,0,0,0,1,1.54,5.35,5.35,0,0,1-.06-.59c-.35-.6-.51-.61-.31,0a14.17,14.17,0,0,0-.72-2c-.26-.63-.53-1.25-.84-1.85A.48.48,0,0,0,691.61,558Z"/><path class="cls-3" d="M691.37,556.71l.36.72,0,0c-.13-.23-.27-.47-.39-.7Z"/><path class="cls-3" d="M708,570.19a36.48,36.48,0,0,0,9.48-2.63,1.2,1.2,0,0,1,.63-.41,3.51,3.51,0,0,0,.73-.16l1.26-.59.43-.25h0c.2-.16.1-.19-.08-.19a2.43,2.43,0,0,1-.51.06c.1,0,.34,0,.51-.06a2.53,2.53,0,0,0,.71-.25,10.1,10.1,0,0,1,1.11-.72,6.24,6.24,0,0,1-1.11.72c-.22.15-.42.32-.64.45l-.19.13c1-.46,1.84-1.06,2.76-1.58.19-.15.36-.31.5-.43a4.28,4.28,0,0,1,1.65-1.15,5.2,5.2,0,0,0,.44-.38l-.11,0,.18-.12c.59-.54,1.21-1.06,1.78-1.64.27-.46.54-.94.83-1.39l.54-.25a4,4,0,0,1,.35-.86c-.35.27-.72.47-1,.68-.53.24-.41,1.22-1.16,1.39.75-.17.63-1.15,1.16-1.39.32-.21.69-.41,1-.68a8.75,8.75,0,0,1,1.61-2,4.19,4.19,0,0,1-1.61,2,4,4,0,0,0-.35.86l-.54.25c-.29.45-.56.93-.83,1.39l1.6-1.77c.48-.64,1-1.29,1.45-2a27.4,27.4,0,0,0,4.79-14.55,29.6,29.6,0,0,0-.08-3.88c-.07-.65-.18-1.29-.27-1.94l-.15-1-.24-1c-.16-.64-.31-1.28-.49-1.93s-.44-1.26-.67-1.89a14.61,14.61,0,0,0-.78-1.88,18,18,0,0,0-.92-1.87,14.69,14.69,0,0,0-6.35-6.56,15,15,0,0,0-9-1,33.49,33.49,0,0,0-8,2.54c-2.5,1.1-4.82,2.34-7.16,3.6a73.44,73.44,0,0,0-7,4.29,26.89,26.89,0,0,0-6.51,6.28,16.84,16.84,0,0,0-1,1.83,18.7,18.7,0,0,0-.84,2.3,23.71,23.71,0,0,0-.45,2.59c0,.44,0,.89,0,1.33a8.39,8.39,0,0,0,0,1.33,30.07,30.07,0,0,0,2,8.61c1.39,2.57,2.33,2.88,2.88,2.58a2.06,2.06,0,0,0,.77-1.37,15,15,0,0,0-.55-5.12c-.1-.46-.21-.94-.32-1.45s-.14-1.06-.21-1.66a12.42,12.42,0,0,1,.29-4c-.18,1-.34,1.36-.44,1.2a1.43,1.43,0,0,1-.13-.58,4,4,0,0,1,0-1.15,8.2,8.2,0,0,1,.95-3.09,7.6,7.6,0,0,1,2.2-2.56c2.43-1.65,5.16-3.7,8.43-5.8,1.63-1,3.35-2.07,5.12-3.06A36.77,36.77,0,0,1,711.7,526a39.1,39.1,0,0,1,5.57-1.77A10.94,10.94,0,0,1,724,525a12.94,12.94,0,0,1,4.64,5.2,25,25,0,0,1,2.68,7.59,22.86,22.86,0,0,1,0,8.37,36.53,36.53,0,0,1-2.15,8.11c-.22.43-.46.86-.71,1.28s-.59.77-.88,1.15c-.55.77-1.21,1.39-1.71,2-.21.23-.39.47-.59.69l-.61.61c-.41.41-.78.83-1.17,1.21l-1.19,1.07-.57.53-.61.47.68-.46.6-.52,1.16-1c.37-.35.71-.74,1.09-1.13a11.63,11.63,0,0,0,1.17-1.3c.54-.64.47-.32.18.29a9.37,9.37,0,0,1-1.27,1.88,1.84,1.84,0,0,1-.73.49,1.84,1.84,0,0,0-.79.41,10.37,10.37,0,0,0-1.15,1c-.38.35-.79.69-1.24,1.05s-.56-.09-.73.09c-.63.46-1.19.87-1.68,1.29a3.59,3.59,0,0,1-1.46.9c-.75.22-1.43.43-2.1.6a10.06,10.06,0,0,0-1.25.4l-.79.4a1,1,0,0,1,.53.35c-.41.13-1,.17-1.43.26.41-.09,1-.13,1.43-.26a1,1,0,0,0-.53-.35,21.24,21.24,0,0,1-6.49,1.9l0,0c1.32-.05,2.6-.19,4-.2-.62,0-.57-.13.1-.29a5.78,5.78,0,0,0,.57.12,6.46,6.46,0,0,1-3.5.5s-.5.17-.75.22-.37-.22-.45-.35l-.78,0a8.69,8.69,0,0,0,1.37.38Z"/><path class="cls-3" d="M721.17,565.69c-.15.11-.33.25-.54.38l2.3-1.35A4.34,4.34,0,0,0,721.17,565.69Z"/></g><path class="cls-4" d="M719,559.24a9.88,9.88,0,0,0,7.57-11.73c-1.15-5.32-5.07-5.16-10.4-4s-10,2.84-8.9,8.17A9.87,9.87,0,0,0,719,559.24Z"/><g class="cls-2"><path class="cls-3" d="M714.35,558.78a2.76,2.76,0,0,1-.53-.18l.24.18C714.17,558.85,714.25,558.81,714.35,558.78Z"/><polygon class="cls-3" points="713.34 558.42 713.25 558.38 713.17 558.37 713.34 558.42"/><path class="cls-3" d="M712.43,558.07a2.29,2.29,0,0,0,.46.2A3,3,0,0,0,712.43,558.07Z"/><path class="cls-3" d="M713.11,558.45c0-.06-.05-.1,0-.09h0l-.28-.1A1.42,1.42,0,0,1,713.11,558.45Z"/><path class="cls-3" d="M713.11,558.45c0,.06.12.13.14.16Z"/><path class="cls-3" d="M712.54,559.12c-.11,0,0-.23-.2-.27a5.46,5.46,0,0,1-1.29-.53c-.2-.08-.32-.49-.52-.57-.43-.23-1.58-.9-1-.38A10.93,10.93,0,0,0,712,559a11.76,11.76,0,0,0,2.39.59,6.16,6.16,0,0,1,.65.18l-.85-.32C713.78,559.21,713.18,559.38,712.54,559.12Z"/><path class="cls-3" d="M718.44,559.14l-.28.12a3.52,3.52,0,0,0-1.37,0l.2.13c.27,0,.3-.1.06-.14a3.41,3.41,0,0,0,1.59,0C718.59,559.22,718.59,559.15,718.44,559.14Z"/><path class="cls-3" d="M718.94,559.21l-.3.07v0l.3-.09Z"/><path class="cls-3" d="M710.58,557.09a9.23,9.23,0,0,1-2.34-3c-.08-.06-.16-.09-.19-.22a1.35,1.35,0,0,0,0-.29,4.29,4.29,0,0,1-.19-.5l-.08-.16h0c-.06-.08-.08,0-.09,0a1.49,1.49,0,0,1,0,.21s0-.14,0-.21a1,1,0,0,0,0-.29,2.54,2.54,0,0,1-.15-.49,2.42,2.42,0,0,1,.15.49l.14.27,0,.07a9.55,9.55,0,0,1-.33-1.16c0-.09-.06-.17-.08-.24a1.18,1.18,0,0,1-.06-.75l0-.22v.05s0-.06,0-.08c0-.3,0-.6,0-.89s0-.4-.06-.61a1.27,1.27,0,0,1,.17-.17.66.66,0,0,1,0-.35,3.8,3.8,0,0,0-.33.39c-.15.19.18.5-.08.72.26-.22-.07-.53.08-.72a3.8,3.8,0,0,1,.33-.39,1.35,1.35,0,0,1,.47-.82,1.83,1.83,0,0,1-.47.82.66.66,0,0,0,0,.35,1.27,1.27,0,0,0-.17.17c0,.21,0,.41.06.61a4.53,4.53,0,0,1,.51-1.65c.93-1.66,2.73-2.51,4.5-3.13a35.94,35.94,0,0,1,5.76-1.31,14.4,14.4,0,0,1,3.19-.14,4.56,4.56,0,0,1,2.59.92,4.73,4.73,0,0,1,1.38,2.13,8.74,8.74,0,0,1,.48,2.68,7.07,7.07,0,0,1-1.83,5,14.85,14.85,0,0,1-1.91,1.87,8.85,8.85,0,0,1-2.28,1.31c-.79.47-1,.85-.87,1.16a.92.92,0,0,0,.49.51,2.77,2.77,0,0,0,2.11-.15,17.11,17.11,0,0,0,2.83-1.57c-.82.57-.64.2-.06-.38l2.12-2.21a6.38,6.38,0,0,0,1.8-4.46,11.24,11.24,0,0,0-.22-2.71,15.13,15.13,0,0,0-.76-2.6,5.65,5.65,0,0,0-2-2.46,6.68,6.68,0,0,0-4.1-1.28,17.74,17.74,0,0,0-3.72.41,36.92,36.92,0,0,0-7.18,2.15,7.1,7.1,0,0,0-3.06,2.82,6,6,0,0,0-1.09,2.63,6.22,6.22,0,0,0,.48,3.13,7.66,7.66,0,0,1-.45-3.05c.1-.84.2.63.35,1.12,0,.22-.15.59-.07.8a5,5,0,0,0,.49,1.35c.1.19-.13.24-.07.33a5.28,5.28,0,0,0,.51.8,1.83,1.83,0,0,1,.42.6,6,6,0,0,0,.37.85,2.67,2.67,0,0,0,.29.48l.28.25a.5.5,0,0,1,.1-.28c.08.14.22.38.31.52-.09-.14-.23-.38-.31-.52a.5.5,0,0,0-.1.28,11.05,11.05,0,0,0,2.28,1.71v0a3.37,3.37,0,0,1-.62-.51,2.55,2.55,0,0,1-.5-.66c.12.21.06.24-.14.05l-.06-.24a3.88,3.88,0,0,1,1,1,2.34,2.34,0,0,0,.29.13c.1.11,0,.17,0,.24l.27.17a2.82,2.82,0,0,0-.34-.46Z"/><path class="cls-3" d="M707.59,552.68l.11.23a7.83,7.83,0,0,1-.26-1A1.14,1.14,0,0,0,707.59,552.68Z"/></g><g class="cls-2"><path class="cls-3" d="M457.5,520.7c1.42,1.9,2.82,3.84,4.31,5.72a33,33,0,0,1-1.94-3.06A12.43,12.43,0,0,0,457.5,520.7Z"/><path class="cls-3" d="M465.93,531.59c.27.34.54.68.8,1s.52.54.76.77C467,532.78,466.45,532.18,465.93,531.59Z"/><path class="cls-3" d="M474.29,540.81c-1.42-1.68-2.88-3.19-4.25-4.7A59.52,59.52,0,0,0,474.29,540.81Z"/><path class="cls-3" d="M467.91,533.22c.4.68.53,1.06-.38.17l0,0,2.55,2.76C469.21,535.06,468.5,534.09,467.91,533.22Z"/><path class="cls-3" d="M467.91,533.22c-.38-.64-1-1.63-1.21-2C467,531.82,467.42,532.51,467.91,533.22Z"/><path class="cls-3" d="M472.52,533.37c.9.86,0,1.29,1.77,3,4,4.13,7.76,7.35,11.57,11.14a22.81,22.81,0,0,1,2.91,3.29,21.08,21.08,0,0,0,3,3.22c1.09,1,2.69,2.16,4.32,3.42s3.38,2.45,4.74,3.4c2.76,1.84,4.13,2.54.77-.16a266.24,266.24,0,0,1-24.3-22.46A234.1,234.1,0,0,1,458.43,517c-1.65-2.18-3-4.34-4.39-6.49l2.7,4.35c1,1.46,1.94,3,3,4.56C462.54,523.61,467.25,527.62,472.52,533.37Z"/><path class="cls-3" d="M433.83,473.87c.2.59.5,1.48.81,2.2s.51,1.31.51,1.31c1,5.53,3.49,10.9,6.31,16-.23-.83-.47-1.67-.7-2.52-1.42-3-1.81-3.26-.81-.46a187,187,0,0,1-6-18.79C433.84,472.05,433.52,472,433.83,473.87Z"/><path class="cls-3" d="M433.21,467.84c.27,1.25.5,2.53.78,3.75a.3.3,0,0,0,.05-.15c-.3-1.25-.56-2.51-.83-3.74Z"/><path class="cls-3" d="M493.67,558.66a212.23,212.23,0,0,0,38.27,27.45,16.08,16.08,0,0,1,3.29,1.38c.49.33,1,.65,1.52,1s1.06.56,1.59.82c2,.88,4.14,1.64,6.23,2.32.74.23,1.49.43,2.26.62h.06c1.23.24.92,0,.22-.35a18.25,18.25,0,0,1-2.11-1c.38.22,1.42.68,2.11,1a29.54,29.54,0,0,0,3.36,1.21c2,.47,4,.89,6.15,1.42a49.39,49.39,0,0,1-6.15-1.42c-1.25-.26-2.44-.57-3.64-.87l-1.06-.22a139.09,139.09,0,0,0,14.7,3.67l3.13.47c1.81.25,3.62.44,5.25.7a22.47,22.47,0,0,1,4.17.88l2.69.33-.51-.15,1,.21c3.77.45,7.57.8,11.4,1.08l7.59-.18,2.55.56a27.08,27.08,0,0,1,4.27-.4c-2.06-.31-3.92-.67-5.66-.91-2.53-.57-5.75.74-8.72-.35,3,1.09,6.19-.22,8.72.35,1.74.24,3.6.6,5.66.91a104.28,104.28,0,0,1,12,.35,43.79,43.79,0,0,1-12-.35,27.08,27.08,0,0,0-4.27.4l-2.55-.56-7.59.18c7.46.54,15,.79,22.75.75A276.77,276.77,0,0,0,647,597.35a211.25,211.25,0,0,0,35.37-7.93,139.53,139.53,0,0,0,17-6.74,94.68,94.68,0,0,0,16-9.52,65.69,65.69,0,0,0,13.58-13.43,49.72,49.72,0,0,0,8.25-17.91,56.21,56.21,0,0,0,.38-21.42,83.72,83.72,0,0,0-6.18-20,146.28,146.28,0,0,0-9.66-18c-3.65-5.73-7.37-11.06-11-16.54-14.54-21.71-29.07-42.06-42.35-63.12-6.6-10.53-12.92-21.27-17.9-32.62s-8.45-23.31-8.9-35.74a130,130,0,0,1,.51-16.92,187.09,187.09,0,0,1,3.06-20.14c.64-3.45,1.47-6.9,2.19-10.28s1.55-6.68,2.36-9.85c1.57-6.35,3.09-12.14,4.34-16.85,5.4-25.62-2.16-13.67-2.72-12.54-3.84,7.29-6.12,14.12-8.68,23-.62,2.24-1.27,4.61-2,7.15s-1.39,5.27-2.17,8.21c-1.5,5.9-3.25,12.68-5,20.87,1.15-5.58,1.79-7.27,1.86-6.41a20.24,20.24,0,0,1-.23,3.08c-.09.78-.21,1.69-.33,2.69s-.25,2.14-.38,3.34c-.34,2.4-.55,5.16-.86,8.11-.14,1.48-.2,3-.31,4.57s-.17,3.15-.21,4.75a150.25,150.25,0,0,0,.6,18.5A85.21,85.21,0,0,0,640,371a181,181,0,0,0,13.22,25.6c10.24,16.84,22.21,33.33,32.58,49.11,5.18,7.88,11.08,16,17.5,25.23,4,6.06,8.26,12.07,11.91,17.84a123.63,123.63,0,0,1,9.46,18.06,71.47,71.47,0,0,1,5.19,18.83L730,528l.1,1.19v3.53c0,.78-.12,1.55-.17,2.33-.05,1.57-.42,3.07-.62,4.61-.17.76-.38,1.5-.56,2.25l-.27,1.13-.38,1.1a40.23,40.23,0,0,1-3.91,8.46,50.61,50.61,0,0,1-5.8,7.62,70.23,70.23,0,0,1-15.82,12.3c-11.93,7-25.79,11.59-40.35,14.78a334.87,334.87,0,0,1-42.83,6.92c-9.84.67-20.4.1-28.37-.32a294.24,294.24,0,0,1-33.5-3.32c5.65,1.09,10.61,1.75,15.75,2.28s10.48.91,16.94,1.18c4.3.18,2.8.44-.51.6s-8.43.16-11.3,0c-2.47,0-6.16-1.54-8.61-1.66-5.25-.75-10.12-1.15-15.72-2.18-2.42-.35-1.9-1.24-3.1-1.43-3.73-.89-7.07-1.55-10-2.37a28.5,28.5,0,0,1-7.55-3.09l-2.38-1.4-2.25-1.43c-1.47-.92-2.87-1.86-4.23-2.81-1.77-1.13-3.48-2.33-5.36-3.53-1.2-.67-2.4-1.45-3.62-2.2a3.68,3.68,0,0,1,1,1.94c-1.67-1.23-3.93-3.08-5.55-4.37,1.62,1.29,3.88,3.14,5.55,4.37a3.68,3.68,0,0,0-1-1.94,208.61,208.61,0,0,1-26.65-20,1,1,0,0,1,.05.16c4.8,4.39,9.48,8.64,14.39,13.32-2.13-2-1.68-2,.94.06l1.71,1.94c-4.74-3.34-9.38-6.88-13-11.09,0,0-2-1.49-3-2.26-1.25-1.36-1-1.52-1.09-2-.94-.85-1.88-1.72-2.82-2.6.78,1.13,2.65,3.25,4.32,5.1.82.94,1.64,1.76,2.22,2.37Z"/><path class="cls-3" d="M550.61,593.14c-.87-.18-1.93-.44-3.06-.75,4.06,1.2,8.17,2.2,12.34,3C557.77,594.54,554.18,594,550.61,593.14Z"/></g><g class="cls-2"><path class="cls-3" d="M118.79,410.38l2.09.45a5.14,5.14,0,0,1-1-.54C119.44,410.09,119.17,410.26,118.79,410.38Z"/><path class="cls-3" d="M122.82,411.23l.37.07.33,0Z"/><path class="cls-3" d="M126.53,411.57a11.47,11.47,0,0,0-1.88-.26A6.31,6.31,0,0,0,126.53,411.57Z"/><path class="cls-3" d="M123.64,410.87c.2.18.29.35-.1.39h0l1.13.05A4.72,4.72,0,0,1,123.64,410.87Z"/><path class="cls-3" d="M123.64,410.87c-.19-.17-.52-.35-.62-.45A3.81,3.81,0,0,0,123.64,410.87Z"/><path class="cls-3" d="M125.13,407.68c.38-.05.14.88.9.79a31.39,31.39,0,0,1,4.87.07c.76-.1,1.74,1.14,2.5,1,1.76,0,6.3-.73,3.72-1-3.89-.35-6.44-.53-9.93-.91l-4.28-.07c-1.41-.05-2.84-.12-4.31-.21a16.43,16.43,0,0,1-2.3-.53c1,.33,2,.67,3,1C120.78,408.39,122.77,407.55,125.13,407.68Z"/><path class="cls-3" d="M103.5,406.68l1.16-.08a9.29,9.29,0,0,0,5,1.23l-.66-.63c-1-.16-1.15.08-.33.47a17.7,17.7,0,0,0-5.63-1.8C103.08,406.15,103,406.44,103.5,406.68Z"/><path class="cls-3" d="M101.88,405.7l1.14.17s0-.06,0-.09l-1.16-.11Z"/><path class="cls-3" d="M134.44,411.91c2.45.31,4.82.63,7.15,1s4.6.57,6.85.88a1.31,1.31,0,0,1,1.08-.18,4.59,4.59,0,0,0,1,.46l2,.27h.72c.38-.08.29-.24.07-.4a3.15,3.15,0,0,1-.65-.41c.11.1.44.26.65.41a4.52,4.52,0,0,0,1,.36,10.14,10.14,0,0,1,1.88.13,6.43,6.43,0,0,1-1.88-.13l-1.13,0-.33.06,4.5.52h1a4.49,4.49,0,0,1,2.82.45l.8.1-.14-.1.29.12c1.13.13,2.27.23,3.41.35.75-.14,1.52-.32,2.29-.41l.74.53a2.85,2.85,0,0,1,1.3-.4c-.6-.32-1.14-.67-1.65-.9-.73-.53-1.77.85-2.61-.11.84,1,1.88-.42,2.61.11.51.23,1.05.58,1.65.9a7.47,7.47,0,0,1,3.57.67,4.74,4.74,0,0,1-3.57-.67,2.85,2.85,0,0,0-1.3.4l-.74-.53c-.77.09-1.54.27-2.29.41l6.77.67c14.82,1.34,28.56,1.26,44,1.06,8.37-.12,16.42-.24,24.34-.45a227.83,227.83,0,0,0,22.89-2.1c7.51-1,15-1.94,23.12-2.3,6.21-.31,17.28-3.28,23-5,3.67-1.81,4.23-3.51,3.78-4.68a4.19,4.19,0,0,0-2-2,13.4,13.4,0,0,0-7.66-.39,57.18,57.18,0,0,1-11,1.27c6.75-.29-4.32,3.31-10.95,2.08-4.79-1-10.18-.2-15.84.82s-11.54,2.29-17.13,2.49c-2.8.06-5.72.57-9,.81-8.65.22-16.93.82-25.34,1.38s-17,1-26,.72a53.49,53.49,0,0,0-6.84.37c-2.17.2-4.26.46-6.3.62-3,.07-6.1-.64-8.5-.78a99.48,99.48,0,0,0-10.21,0c3.5.11,6.06.13,10,.19,2.6.11-1.88,1.12-3.62,1.28-.76.15-1.83-1-2.58-.86a31.28,31.28,0,0,0-4.84.3c-.76.15-.58-.8-1-.73-2.35,0-4.28,1-5.75.6-1.12-.27-2.12-.53-3.1-.78a14.79,14.79,0,0,0-1.92-.27c-.42,0-.86.06-1.29.08a2.07,2.07,0,0,1,.45,1.09c-.61-.14-1.46-.46-2.07-.6.61.14,1.46.46,2.07.6a2.07,2.07,0,0,0-.45-1.09c-3.14.15-6.75.2-10.11.13l0,.09a17.87,17.87,0,0,1,5.74,1.37c-.84-.33-.7-.58.3-.5l.69.57a9.17,9.17,0,0,1-5-.83l-1.14.18c-.53-.22-.46-.52-.54-.79l-1.14-.1a9.85,9.85,0,0,0,1.86,1C133.83,411.67,134.44,411.91,134.44,411.91Z"/><path class="cls-3" d="M154.38,414.28c-.27,0-.6,0-.95,0l3.77.45A4.47,4.47,0,0,0,154.38,414.28Z"/></g></svg>