<?xml version="1.0" encoding="utf-8"?>
<!-- Generator: Adobe Illustrator 25.0.0, SVG Export Plug-In . SVG Version: 6.00 Build 0)  -->
<svg version="1.1" id="Layer_1" xmlns="http://www.w3.org/2000/svg" xmlns:xlink="http://www.w3.org/1999/xlink" x="0px" y="0px"
	 viewBox="0 0 841.9 841.9" style="enable-background:new 0 0 841.9 841.9;" xml:space="preserve">
<style type="text/css">
	.st0{fill:#FDE8EA;}
	.st1{opacity:0.85;}
	.st2{fill:#211F1E;}
	.st3{fill:#1F2020;}
</style>
<rect y="-2.3" class="st0" width="841.9" height="841.9"/>
<g class="st1">
	<path class="st2" d="M271.4,498.4l-0.8,0.5c0.2-0.1,0.3-0.1,0.5-0.1C271.3,498.8,271.3,498.6,271.4,498.4z"/>
	<path class="st2" d="M269.8,499.4l-0.1,0.1l-0.1,0.1L269.8,499.4z"/>
	<path class="st2" d="M268.4,500.3c0.3-0.1,0.5-0.2,0.8-0.4C268.9,500,268.7,500.1,268.4,500.3z"/>
	<path class="st2" d="M269.7,499.8c-0.1,0-0.2,0-0.1-0.2l0,0l-0.4,0.3C269.3,499.9,269.5,499.8,269.7,499.8z"/>
	<path class="st2" d="M269.7,499.8c0.1,0,0.3,0,0.4,0C269.9,499.8,269.8,499.8,269.7,499.8z"/>
	<path class="st2" d="M270.1,501.5c-0.1,0.1-0.3-0.3-0.6-0.1l-1,0.7c-0.3,0.2-0.7,0.4-1.1,0.5c-0.3,0.2-1-0.1-1.4,0
		s-0.5,0.2-0.8,0.4s-0.6,0.3-0.8,0.4c-0.5,0.2-0.7,0.4,0,0.3c1.7-0.3,3.3-0.9,4.8-1.7c1.2-0.8,2.3-1.7,3.3-2.8
		c0.3-0.3,0.6-0.5,0.9-0.7c-0.4,0.3-0.8,0.6-1.3,0.8c-0.4,0.2-0.7,0.5-0.9,0.9C270.9,500.8,270.5,501.2,270.1,501.5z"/>
	<path class="st2" d="M276,493.2c0,0.2-0.1,0.5-0.1,0.5c-0.3,0.3-0.6,0.6-0.8,0.9c-0.2,0.3-0.4,0.7-0.5,1.1l0.4-0.1
		c0.2-0.4,0.1-0.5-0.1-0.2c0.7-0.6,1.3-1.4,1.6-2.2C276.3,493,276.2,493,276,493.2z"/>
	<path class="st2" d="M276.7,492.5c-0.1,0.2-0.1,0.3-0.2,0.5l0,0L276.7,492.5L276.7,492.5z"/>
	<path class="st2" d="M265.2,501.9c-2.1,0.4-4.3,0.4-6.5-0.1c-0.2,0.1-0.3,0.1-0.5,0c-0.1-0.1-0.3-0.2-0.4-0.3
		c-0.3-0.1-0.6-0.2-0.9-0.3l-0.3-0.1l0,0c-0.2,0-0.2,0.1-0.1,0.2c0.1,0.1,0.2,0.2,0.2,0.3c0-0.1-0.2-0.2-0.2-0.3
		c-0.1-0.1-0.3-0.2-0.4-0.3c-0.3-0.1-0.5-0.2-0.8-0.4c0.3,0.1,0.6,0.2,0.8,0.4l0.5,0.1h0.2c-0.6-0.3-1.3-0.6-1.9-0.9
		c-0.1,0-0.3-0.1-0.4-0.2c-0.5-0.2-0.9-0.4-1.1-0.8l-0.3-0.2v0.1l-0.1-0.1c-0.4-0.3-0.8-0.6-1.2-1c-0.3-0.2-0.6-0.3-0.9-0.5
		c0,0,0-0.3-0.1-0.4c-0.2,0-0.4-0.1-0.6-0.3c0.1,0.3,0.1,0.6,0.2,0.9c0.1,0.5,0.9,0.2,0.9,0.9c0-0.6-0.8-0.4-0.9-0.9
		c-0.1-0.2-0.1-0.6-0.2-0.9c-0.4-0.4-0.7-0.9-0.8-1.5c0.4,0.4,0.7,0.9,0.8,1.5c0.2,0.1,0.4,0.2,0.6,0.3c0,0.1,0.1,0.4,0.1,0.4
		c0.3,0.2,0.6,0.4,0.9,0.5c-0.7-0.7-1.4-1.5-1.9-2.4c-1.8-2.7-2.7-5.9-2.6-9.2c0.1-3.3,1.3-6.4,3.3-9c2.2-2.7,5.4-4.5,8.8-4.9
		c3.1-0.5,6.3,0.1,9.1,1.5c1.3,0.7,2.5,1.7,3.5,2.9c1,1.2,1.7,2.6,2,4.1c0.4,1.4,0.7,2.9,0.8,4.4c0.1,1.5,0,2.9-0.4,4.3
		c0,1.5,0.4,2.2,1,2.4c0.5,0.2,1,0.2,1.4,0c0.6-0.3,1-0.8,1.4-1.3c0.3-0.5,0.6-1.1,0.7-1.8c0.4-1.9,0.6-3.7,0.6-5.6
		c-0.1,1.8-0.4,1.1-0.7-0.3s-0.9-3.5-1.1-5.3c-0.3-2.5-2.3-5.2-5-6.9c-2.8-1.6-5.9-2.7-9.1-3c-1.7-0.2-3.4-0.1-5,0.3
		c-4.8,0.8-9,3.5-11.6,7.5c-2.7,4.1-3.8,9-3.1,13.8c0.4,2.4,1.5,4.6,3,6.4c0.8,1.3,1.7,2.5,2.7,3.7c0.7,0.7,1.5,1.3,2.3,1.8
		c0.8,0.4,1.5,0.8,2.4,1.1c-1.6-0.7-3.2-1.6-4.5-2.8c-0.5-0.5-0.2-0.4,0.3-0.2c0.2,0.1,0.6,0.3,0.8,0.4c0.3,0.1,0.5,0.2,0.8,0.4
		c0.4,0.1,0.5,1,0.9,1c0.4,0.2,0.7,0.4,1.1,0.5l1.2,0.4c0.4,0.1,0.1,0.5,0.4,0.5c0.5,0.1,1.1,0.2,1.7,0.2c0.4,0,0.9,0,1.3,0.1
		c0.5,0.2,1,0.3,1.5,0.5c0.3,0.1,0.7,0.1,1,0.1l0.6-0.1c-0.1-0.1-0.2-0.3-0.3-0.5c0.3,0,0.7,0.2,1,0.2c-0.3,0-0.7-0.2-1-0.2
		c0,0.2,0.1,0.4,0.3,0.5c1.7-0.2,3.3-0.7,4.8-1.3l0,0c-0.9,0.3-1.9,0.4-2.8,0.2c0.4,0.1,0.4,0.2-0.1,0.3l-0.4-0.2
		c0.4-0.1,0.8-0.2,1.2-0.3c0.4-0.1,0.8-0.1,1.2,0l0.5-0.3c0.3,0,0.3,0.1,0.4,0.3c0.2,0,0.4-0.1,0.5-0.2
		C266.3,501.9,265.7,501.9,265.2,501.9z"/>
	<path class="st2" d="M256.1,500.9l0.4,0.1c-0.5-0.2-1.1-0.5-1.6-0.8C255.1,500.6,255.6,500.8,256.1,500.9z"/>
</g>
<circle class="st3" cx="261.5" cy="487.7" r="5.7"/>
<g class="st1">
	<path class="st2" d="M257.5,492.1l0.3,0.2c0-0.1-0.1-0.1-0.1-0.2C257.6,492.1,257.5,492.1,257.5,492.1z"/>
	<path class="st2" d="M258,492.6L258,492.6h0.1H258z"/>
	<path class="st2" d="M258.6,492.9c-0.1-0.1-0.2-0.1-0.3-0.2C258.4,492.8,258.5,492.9,258.6,492.9z"/>
	<path class="st2" d="M258.2,492.6C258.2,492.6,258.2,492.7,258.2,492.6L258.2,492.6l0.1,0.2C258.2,492.7,258.2,492.6,258.2,492.6z"
		/>
	<path class="st2" d="M258.2,492.6l0-0.1C258.1,492.5,258.2,492.5,258.2,492.6z"/>
	<path class="st2" d="M258.8,492c0.1,0-0.1,0.2,0,0.2s0.5,0.1,0.7,0.2s0.2,0.3,0.3,0.3c0.3,0,1-0.2,0.6-0.2c-0.5-0.1-1-0.2-1.4-0.4
		c-0.4-0.1-0.8-0.3-1.2-0.5c-0.1-0.1-0.2-0.2-0.2-0.3c0.1,0.1,0.2,0.3,0.3,0.4C258,491.9,258.5,491.8,258.8,492z"/>
	<path class="st2" d="M256,489.8l0.1,0.1c0,0.3,0.1,0.6,0.4,0.8v-0.2c-0.1-0.1-0.2-0.1-0.1,0c0-0.3-0.1-0.7-0.3-1
		C256.1,489.7,256,489.7,256,489.8z"/>
	<path class="st2" d="M256.1,489.5l0.1,0.2l0,0L256.1,489.5L256.1,489.5z"/>
	<path class="st2" d="M259.9,493.2c0.8,0.2,1.6,0.3,2.4,0.2c0,0,0.1-0.1,0.2-0.1c0.1,0,0.1,0,0.2,0.1l0.3-0.1l0.1,0l0,0
		c0,0,0-0.1,0-0.1l-0.1,0l0.1,0c0.1,0,0.1,0,0.2,0c0.1-0.1,0.2-0.1,0.3-0.1c-0.1,0.1-0.2,0.1-0.3,0.1l-0.2,0.1l0,0
		c0.3-0.1,0.5-0.1,0.7-0.2l0.1-0.1c0.2-0.1,0.3-0.2,0.5-0.2l0.1-0.1l0,0c0.2-0.1,0.3-0.2,0.5-0.3c0.1-0.1,0.1-0.2,0.2-0.3h0.2
		c0-0.1,0-0.2,0.1-0.2h-0.3c-0.2,0-0.1,0.4-0.3,0.3c0.3,0.1,0.2-0.3,0.3-0.3h0.3c0.1-0.2,0.3-0.3,0.5-0.4c-0.1,0.2-0.3,0.4-0.5,0.4
		c0,0.1-0.1,0.2-0.1,0.2h-0.2c-0.1,0.1-0.2,0.2-0.2,0.3c0.3-0.2,0.6-0.5,0.9-0.8c1.9-2,2.2-5,0.8-7.3c-0.8-1.3-1.9-2.4-3.4-2.9
		c-1.4-0.5-3-0.5-4.4,0c-1.4,0.6-2.7,1.5-3.7,2.7c-0.5,0.7-0.8,1.4-0.9,2.3c-0.1,0.8-0.1,1.6,0.1,2.4c0.4,0.8,0.8,0.8,1.1,0.7
		c0.2-0.1,0.4-0.2,0.5-0.4c0.2-0.4,0.4-0.8,0.4-1.2c0-0.6,0.2-1.1,0.5-1.6c-0.2,0.4-0.4,0.2-0.3-0.2c0.1-0.5,0.5-1,1-1.2
		c0.7-0.3,1.3-0.6,1.9-1.1c0.6-0.4,1.4-0.6,2.1-0.6c0.4,0,0.8,0.1,1.1,0.2c1,0.4,1.8,1.1,2.4,2c0.6,0.9,0.8,2.1,0.5,3.2
		c-0.1,0.6-0.2,1.2-0.5,1.7c-0.2,0.3-0.5,0.6-0.9,0.8c-0.4,0.3-0.8,0.6-1.1,0.9c0.4-0.2,0.8-0.5,1.1-0.8c0.3-0.2,0,0.4-0.2,0.6
		c-0.1,0.1-0.3,0-0.4,0s-0.4,0.3-0.6,0.4s-0.1-0.1-0.2-0.1c-0.3,0.1-0.5,0.5-0.8,0.5c-0.2,0-0.3,0-0.5-0.1h-0.3l-0.2,0
		c0,0.1,0.1,0.2,0.1,0.3c-0.1,0-0.2-0.1-0.3-0.1c0.1,0,0.2,0.1,0.3,0.1c0-0.1,0-0.2-0.1-0.3c-0.5,0.1-1.1,0.1-1.6,0l0,0
		c0.3,0.1,0.6,0.2,0.9,0.4c-0.1-0.1-0.1-0.1,0.1-0.1l0.1,0.1c-0.3,0.1-0.6,0-0.8-0.2h-0.2c-0.1-0.1,0-0.1,0-0.2h-0.2
		C259.7,492.9,259.8,493.1,259.9,493.2z"/>
	<path class="st2" d="M263.3,493.2l-0.1,0.1c0.2,0,0.4-0.1,0.6-0.2C263.6,493,263.4,493.1,263.3,493.2z"/>
</g>
<g class="st1">
	<path class="st2" d="M386.6,434.3l-1.2,1.9l-1.3,1.8c0.5-0.6,1-1.1,1.5-1.7C386.1,435.7,386.4,435.1,386.6,434.3z"/>
	<path class="st2" d="M381.8,441.4l-0.5,0.6c-0.1,0.2-0.2,0.4-0.3,0.6L381.8,441.4z"/>
	<path class="st2" d="M377.4,447.7c0.9-1.1,1.6-2.1,2.3-3.2C378.9,445.6,378.1,446.6,377.4,447.7z"/>
	<path class="st2" d="M381.3,442.9c-0.4,0.3-0.6,0.4-0.3-0.3l0,0c-0.4,0.7-0.8,1.3-1.2,2C380.3,443.9,380.8,443.4,381.3,442.9z"/>
	<path class="st2" d="M381.3,442.9c0.4-0.3,0.9-0.8,1.1-1C382,442.2,381.6,442.5,381.3,442.9z"/>
	<path class="st2" d="M382.9,446.5c-0.4,0.7-1,0-1.8,1.4l-2.7,4.5c-0.9,1.4-1.9,2.7-3,4.1c-0.8,1.4-3.2,2.6-4.1,3.9
		c-1.1,1.5-2.9,4.2-4.1,6s-1.7,2.7,0.2,0.7c4.7-5.3,9.1-10.9,13.2-16.8c1.7-2.5,3.3-5.1,4.8-7.7l2.3-3.9c0.8-1.3,1.5-2.7,2.2-4
		c0.9-1.5,1.8-2.8,2.7-4.2l-4,5.5c-1,1.5-1.9,3-2.6,4.7C385.1,442.6,384,444.6,382.9,446.5z"/>
	<path class="st2" d="M403,406.1c-0.2,0.7-0.7,2.2-0.7,2.2c-2,2.9-3.7,6.1-5.1,9.4c0.4-0.4,0.8-0.8,1.2-1.2c0.9-1.9,0.8-2.2-0.2-0.7
		c2.4-3.3,4.4-6.9,6.1-10.7C403.9,405.3,403.7,405.1,403,406.1z"/>
	<path class="st2" d="M405.3,403c-0.3,0.7-0.7,1.5-1,2.2c0,0,0.1,0,0.1,0C404.7,404.4,405,403.7,405.3,403L405.3,403z"/>
	<path class="st2" d="M367.8,461c-6.5,7.4-13.6,14.2-21.3,20.2c-0.4,0.6-0.9,1.2-1.5,1.6c-0.7,0.3-1.3,0.7-2,1.1l-3.4,2.4l-1.1,0.9
		l0,0c-0.6,0.5-0.3,0.5,0.2,0.4c0.4-0.2,0.9-0.4,1.4-0.6c-0.3,0.1-0.9,0.4-1.4,0.6c-0.7,0.3-1.4,0.6-2,1c-1,0.7-2.1,1.5-3.3,2.2
		c1-0.8,2.1-1.5,3.3-2.2c0.6-0.5,1.3-0.9,1.9-1.4l0.5-0.5c-1.3,0.9-2.6,1.7-4,2.5s-2.6,1.7-4,2.4l-1.7,1.1c-1,0.6-1.9,1.3-2.8,1.8
		c-0.8,0.4-1.6,0.7-2.5,0.9l-1.5,0.8l0.3-0.1l-0.6,0.2c-1,0.5-2.1,1-3.2,1.5l-3.2,1.4c-1.3,0.8-2.7,1.5-4.1,2.3l-1.6,0.1
		c-0.7,0.6-1.5,1-2.3,1.3c1.2-0.1,2.4-0.2,3.6-0.5c1.7-0.2,3-2.2,5.1-2.1c-2.1-0.1-3.4,2-5.1,2.1c-1.2,0.2-2.4,0.4-3.6,0.5
		c-1.1,0.5-2.3,0.9-3.5,1.2c-1.2,0.3-2.5,0.5-3.8,0.6c1.2-0.5,2.5-1,3.8-1.2c1.1-0.3,2.3-0.5,3.5-0.6c0.8-0.3,1.6-0.8,2.3-1.3
		l1.6-0.1c1.4-0.7,2.8-1.5,4.1-2.3c-2.1,0.9-4.3,1.7-6.5,2.5s-4.5,1.5-6.8,2.1c-14.4,4.1-29.5,5.7-44.4,4.6
		c-15.2-1.1-30.1-4.8-44.1-10.9c-7.7-3.4-15.1-7.4-22.2-12c-6.8-4.5-13.2-9.6-19.1-15.2c-5.7-5.4-10.9-11.2-15.7-17.4
		c-1.2-1.5-2.2-3.1-3.4-4.6s-2.1-3.1-3.1-4.8c-2-3.2-3.7-6.6-5.2-10c-1.5-3.4-2.6-6.9-3.5-10.5c-0.8-3.5-1.3-7.2-1.3-10.8
		c0-0.9,0-1.8,0.1-2.7l0.3-2.7c0.1-0.9,0.4-1.7,0.5-2.6l0.1-0.7l0.2-1c0.1-0.6,0.2-1.3,0.2-1.9c0.2-2.3,0.2-4.5,0.1-6.8
		c-0.1-2.2-0.2-4.3-0.4-6.5c-0.9-8.3-2.4-16.4-4.4-24.5c-2.1-8.9-4.5-17.5-6.2-23.5c-2.9-7.8-4.9-9.3-6.1-8.8s-1.6,3-1.6,3.5
		c-0.3,5.3,0.5,9.7,1.7,15.4c1.8,7.5,3.2,15.1,4.2,22.7c-0.9-6.9,0.2-4.5,1.6,1.2s2.9,15.1,2.2,21.5c-0.1,1.1-0.3,2.3-0.4,3.4
		c-0.1,1-0.3,2-0.6,3c-0.1,0.2-0.1,0.3-0.2,0.7l-0.3,1.1l-0.5,2.2c-0.2,1.5-0.4,3-0.6,4.6c-0.3,6.5,0.6,13,2.7,19.1
		c2.1,6.2,4.9,12.2,8.4,17.8c3.4,5.4,7,10.6,11,15.6c4.2,5.2,8.8,10,13.8,14.4c6.8,6.4,14.3,12.1,22.3,17c7.9,4.9,16.2,9,24.9,12.2
		c17.9,6.8,37,10.2,56.2,9.8c10.6-0.3,19.8-2.7,28.3-5.3c6.2-1.8,12.9-3.6,17.8-5.6c6.8-2.9,13.3-6.5,19.3-10.9
		c-1.6,1-3.1,2-4.6,2.9s-2.9,1.8-4.4,2.6c-2.9,1.7-6.1,3.3-10,5c-2.6,1.1-1.8,0.4,0-0.7s4.7-2.9,6.3-3.8c1.3-0.9,4-1.1,5.3-2.1
		c1.5-0.8,2.9-1.8,4.3-2.8c0.7-0.5,1.4-1,2.1-1.5l2.1-1.7c1.2-1,1.6-0.1,2.2-0.7c0.5-0.4,1-0.7,1.5-1.1s0.9-0.8,1.3-1.2
		c0.8-0.8,1.6-1.5,2.3-2.2c1.2-1.3,2.6-2.5,4-3.6l2.9-2c0.9-0.6,1.8-1.3,2.6-2c1-0.9,2.1-1.7,3.1-2.7c0.6-0.6,1.2-1.4,1.8-2
		c-0.5,0.2-1.1,0.3-1.6,0.1c1-0.9,2.5-2,3.5-2.9c-1,0.9-2.5,2-3.5,2.9c0.5,0.2,1.1,0.1,1.6-0.1l3.4-3.8l3.4-4.1l1.7-2.1l1.7-2.1
		c1.1-1.4,2.2-2.8,3.3-4.2h-0.1c-2.6,3.3-5.5,6.2-8.7,8.8c1.4-1.2,1.5-0.8,0,0.7l-1.5,0.8c1.2-1.4,2.3-2.8,3.5-4.1
		c1.2-1.3,2.5-2.5,3.9-3.6l1.3-2c0.9-0.8,1.1-0.5,1.4-0.6c0.5-0.6,1-1.3,1.5-1.9c-0.5,0.4-1,0.8-1.4,1.2l-1.7,1.6L367.8,461z"/>
	<path class="st2" d="M336.5,488.6l1.6-1.1l-3.3,2.1c-1.1,0.7-2.2,1.4-3.4,2C332.8,491.4,334.6,490,336.5,488.6z"/>
</g>
<g class="st1">
	<path class="st2" d="M569.7,499.5l0.8,0.6c-0.1-0.1-0.2-0.3-0.3-0.5C570.1,499.5,569.9,499.5,569.7,499.5z"/>
	<path class="st2" d="M571.3,500.6l0.2,0.1h0.2L571.3,500.6z"/>
	<path class="st2" d="M573,501.4c-0.3-0.1-0.5-0.3-0.8-0.4C572.4,501.2,572.7,501.3,573,501.4z"/>
	<path class="st2" d="M571.8,500.6c0.1,0.1,0.1,0.2-0.1,0.2l0,0l0.5,0.2C572,500.9,571.9,500.8,571.8,500.6z"/>
	<path class="st2" d="M571.8,500.6c-0.1-0.1-0.2-0.2-0.2-0.3C571.6,500.4,571.7,500.5,571.8,500.6z"/>
	<path class="st2" d="M573,499.4c0.2,0-0.1,0.4,0.2,0.5s0.7,0.2,1.1,0.2c0.3,0,0.7,0.1,1,0.2c0.3,0,0.7,0.6,1,0.6c0.5,0,1,0,1.5-0.1
		c0.5-0.1,0.7-0.2,0.1-0.3c-2.7-0.3-5.2-1.1-7.6-2.4c-0.3-0.2-0.5-0.5-0.8-0.7c0.3,0.4,0.6,0.7,0.9,1.1c0.3,0.3,0.6,0.4,1,0.5
		C572,499.1,572.5,499.2,573,499.4z"/>
	<path class="st2" d="M565.2,493.5l0.4,0.4c0,0.4,0.2,0.8,0.4,1.1c0.2,0.3,0.5,0.7,0.8,0.9v-0.4c-0.3-0.4-0.4-0.3-0.3,0.1
		c-0.3-0.9-0.7-1.7-1.1-2.5C565.3,493.2,565.2,493.2,565.2,493.5z"/>
	<path class="st2" d="M565.1,492.6l0.3,0.5l0,0L565.1,492.6L565.1,492.6z"/>
	<path class="st2" d="M576.7,502.2c2.2,0.4,4.4,0.4,6.6,0c0.1-0.1,0.2-0.3,0.5-0.3c0.2,0,0.4,0,0.5,0c0.3-0.1,0.6-0.2,0.9-0.3
		l0.3-0.1l0,0c0.1-0.1,0.1-0.2-0.1-0.2H585c0.1,0,0.2,0,0.4,0c0.2,0,0.3,0,0.5,0c0.3-0.2,0.5-0.3,0.8-0.4c-0.2,0.2-0.5,0.3-0.8,0.4
		l-0.5,0.2l-0.1,0.1c0.7-0.2,1.4-0.5,2-0.8c0.1-0.1,0.3-0.2,0.4-0.3c0.3-0.3,0.7-0.6,1.2-0.6l0.3-0.2h-0.1l0.1-0.1
		c0.5-0.3,0.9-0.6,1.3-1c0.2-0.3,0.4-0.6,0.6-0.9l0.4-0.1c0-0.2,0.1-0.4,0.2-0.6c-0.3,0.1-0.6,0.2-0.8,0.3c-0.4,0.1-0.2,0.9-0.8,0.9
		c0.6,0,0.5-0.8,0.8-0.9c0.2-0.1,0.5-0.2,0.8-0.3c0.3-0.5,0.7-0.9,1.2-1.2c-0.2,0.6-0.6,1-1.2,1.2c-0.1,0.2-0.2,0.4-0.2,0.6
		l-0.4,0.1c-0.2,0.3-0.4,0.6-0.6,0.9c0.8-0.7,1.6-1.5,2.3-2.4c2.2-2.8,3.4-6.3,3.4-9.9c0-3.7-1.2-7.3-3.4-10.2
		c-2.4-3.4-5.8-5.8-9.8-7c-3.9-1.1-8-0.6-11.6,1.2c-3.7,1.9-6.7,4.8-8.8,8.4c-1,1.9-1.6,4-1.8,6.2c-0.1,2.1,0.1,4.3,0.8,6.3
		c0.3,0.7,0.8,1.3,1.4,1.8c0.3,0.2,0.7,0.2,1,0.1c0.4-0.3,0.7-0.6,0.9-1.1c0.2-0.6,0.3-1.2,0.3-1.8c0-0.5,0-1.1,0-1.7
		c-0.2-1.6,0-3.2,0.6-4.7c-0.5,1.3-0.7,0.8-0.6-0.4c0.2-1.5,1-2.9,2.2-3.9c1.7-1.2,3-2.7,4.8-4c1.8-1.4,4-2.2,6.2-2.2
		c1.2,0,2.3,0.1,3.5,0.3c3.1,0.9,5.9,2.8,7.9,5.4c2.1,2.7,2.9,6.2,2.4,9.6c-0.2,1.7-0.5,3.5-1.1,5.1c-0.6,1-1.4,1.9-2.3,2.6
		c-0.5,0.5-1.1,1-1.6,1.5s-1,0.9-1.6,1.2c1.2-0.7,2.2-1.6,3.2-2.6c0.4-0.4,0.3-0.1,0.2,0.3c-0.1,0.2-0.2,0.5-0.4,0.7
		c-0.1,0.2-0.3,0.4-0.4,0.6c-0.2,0.3-0.9,0.1-1.1,0.4c-0.3,0.2-0.5,0.4-0.8,0.6c-0.3,0.2-0.5,0.4-0.8,0.7s-0.4-0.2-0.5-0.1
		c-0.4,0.2-0.8,0.5-1.1,0.8c-0.3,0.2-0.6,0.4-1,0.5c-0.5,0-0.9,0-1.4,0l-0.8,0.1l-0.5,0.1c0.1,0.1,0.2,0.3,0.3,0.5
		c-0.3,0-0.7-0.1-0.9-0.1c0.3,0,0.7,0.1,0.9,0.1c0-0.2-0.1-0.4-0.3-0.5c-1.5,0.4-3,0.4-4.5,0.2l0,0c0.9,0.2,1.8,0.4,2.6,0.8
		c-0.4-0.1-0.3-0.3,0.1-0.3l0.3,0.3c-0.4,0.1-0.8,0.1-1.2,0c-0.4,0-0.8-0.2-1.1-0.4H576c-0.2-0.1-0.2-0.3-0.2-0.4l-0.5-0.1
		C575.7,501.5,576.2,501.9,576.7,502.2z"/>
	<path class="st2" d="M586,501.2l-0.4,0.2c0.6-0.2,1.1-0.4,1.7-0.7C586.8,500.7,586.3,500.9,586,501.2z"/>
</g>
<circle class="st3" cx="580.4" cy="487.7" r="5.7"/>
<g class="st1">
	<path class="st2" d="M584,491.6l-0.3,0.2c0.1,0,0.1,0,0.2,0C584,491.8,584,491.7,584,491.6z"/>
	<polygon class="st2" points="583.5,492 583.4,492 583.4,492.1 	"/>
	<path class="st2" d="M583,492.4c0.1,0,0.2-0.1,0.3-0.2C583.2,492.3,583.1,492.3,583,492.4z"/>
	<path class="st2" d="M583.5,492.2C583.4,492.2,583.4,492.2,583.5,492.2L583.5,492.2l-0.2,0C583.3,492.2,583.4,492.2,583.5,492.2z"
		/>
	<path class="st2" d="M583.5,492.2L583.5,492.2z"/>
	<path class="st2" d="M583.8,493c0,0.1-0.2-0.1-0.2,0c-0.2,0.2-0.4,0.4-0.7,0.6c-0.1,0.1-0.4-0.1-0.5,0s-1,0.7-0.5,0.5
		c0.6-0.2,1.2-0.4,1.7-0.8c0.4-0.4,0.8-0.7,1.1-1.2c0.1-0.1,0.2-0.2,0.3-0.3c-0.2,0.1-0.3,0.2-0.5,0.3S584.1,492.7,583.8,493z"/>
	<path class="st2" d="M585.5,489.7c0,0.1,0,0.2,0,0.2c-0.2,0.2-0.4,0.4-0.4,0.7h0.2c0.1-0.1,0-0.2-0.1-0.1c0.3-0.2,0.5-0.5,0.5-0.8
		C585.6,489.6,585.6,489.6,585.5,489.7z"/>
	<path class="st2" d="M585.8,489.4c0,0.1,0,0.1,0,0.2l0,0C585.7,489.6,585.7,489.5,585.8,489.4L585.8,489.4z"/>
	<path class="st2" d="M581.9,493.1c-0.7,0.2-1.5,0.3-2.3,0.1c-0.1,0-0.1,0.1-0.2,0c0,0-0.1-0.1-0.2-0.1L579,493h-0.1
		c-0.1,0-0.1,0,0,0.1c0,0,0.1,0.1,0.1,0.1l-0.1-0.1c0,0-0.1-0.1-0.2-0.1c-0.1,0-0.2-0.1-0.3-0.1c0.1,0,0.2,0,0.3,0.1h0.2
		c-0.2-0.1-0.5-0.2-0.7-0.3h-0.2c-0.2,0-0.3-0.1-0.4-0.2l-0.1-0.1l0,0l0,0c-0.1-0.1-0.3-0.2-0.4-0.3s-0.2-0.1-0.4-0.1s0-0.1,0-0.2
		c-0.1,0-0.2,0-0.2,0c0,0.1,0,0.2,0.1,0.3c0,0.2,0.4,0,0.3,0.3c0-0.3-0.3-0.1-0.3-0.3c0-0.1-0.1-0.2-0.1-0.3
		c-0.2-0.1-0.3-0.3-0.3-0.5c0.2,0.1,0.3,0.3,0.3,0.5c0.1,0,0.2,0.1,0.2,0c0,0.1,0,0.2,0,0.2s0.2,0.1,0.4,0.1
		c-0.3-0.2-0.5-0.5-0.8-0.8c-1.5-1.8-1.7-4.3-0.4-6.3c0.7-1,1.8-1.7,3-1.9c1-0.2,2.1-0.1,3.1,0.3c1,0.4,1.7,1.2,2,2.2
		c0.1,0.4,0.3,0.9,0.4,1.4c0.1,0.5,0.1,0.9,0,1.4c0,0.4,0.3,0.7,0.7,0.8c0.2,0.1,0.4,0.1,0.6,0c0.5-0.2,0.8-0.7,0.8-1.2
		c0.1-0.7,0.1-1.4,0.1-2.1c0,0.7-0.2,0.5-0.3,0c-0.2-0.6-0.4-1.3-0.5-1.9c-0.2-1.1-1-2-2.1-2.5c-1.1-0.5-2.3-0.8-3.5-0.8
		c-0.6,0-1.3,0.1-1.9,0.3c-1.8,0.4-3.3,1.6-4.2,3.2c-0.9,1.6-1.1,3.6-0.6,5.4c0.3,0.9,0.8,1.7,1.5,2.3c0.3,0.5,0.7,0.9,1.1,1.3
		c0.5,0.4,1.2,0.7,1.8,0.8c-0.6-0.2-1.2-0.5-1.8-0.8c-0.4-0.3,0.5,0,0.8,0.1c0.1,0,0.2,0.4,0.4,0.4c0.3,0.1,0.6,0.2,0.9,0.2
		c0.2,0,0.1,0.2,0.1,0.2c0.5,0.1,0.8-0.2,1.1-0.1c0.2,0.1,0.4,0.1,0.6,0.2c0.1,0,0.2,0,0.4,0l0.2-0.1c-0.1-0.1-0.1-0.2-0.1-0.2
		c0.1,0,0.3,0.1,0.4,0.1c-0.1,0-0.3,0-0.4-0.1c0,0.1,0.1,0.2,0.1,0.2c0.6-0.2,1.2-0.4,1.7-0.7l0,0c-0.3,0.1-0.7,0.2-1,0.1
		c0.2,0,0.2,0.1,0,0.1l-0.2-0.1c0.3-0.1,0.6-0.2,0.9-0.1l0.2-0.1c0.1,0,0.1,0.1,0.2,0.1l0.2-0.1
		C582.4,493.2,582.2,493.1,581.9,493.1z"/>
	<path class="st2" d="M578.7,493h0.2c-0.2-0.1-0.4-0.2-0.6-0.2C578.3,493,578.5,493,578.7,493z"/>
</g>
<g class="st1">
	<path class="st2" d="M453.1,435.8l1.2,1.9l1.2,1.9c-0.4-0.6-0.7-1.3-1-2C454.2,436.8,453.7,436.2,453.1,435.8z"/>
	<path class="st2" d="M457.8,443l0.4,0.7l0.5,0.5L457.8,443z"/>
	<path class="st2" d="M462.6,449.2c-0.8-1.2-1.6-2.2-2.4-3.2C460.9,447.1,461.7,448.2,462.6,449.2z"/>
	<path class="st2" d="M459.1,444c0.1,0.5,0.2,0.8-0.4,0.2l0,0c0.5,0.6,1,1.2,1.5,1.8C459.8,445.4,459.4,444.7,459.1,444z"/>
	<path class="st2" d="M459.1,444c-0.1-0.5-0.5-1.1-0.5-1.4C458.7,443.1,458.9,443.5,459.1,444z"/>
	<path class="st2" d="M463,443.6c0.5,0.6-0.3,1,0.8,2.1l3.4,3.8c1.1,1.2,2.2,2.4,3.3,3.7c1.1,1.1,1.8,3.6,3,4.6
		c1.7,1.7,3.5,3.2,5.3,4.7c1.7,1.2,2.5,1.7,0.7-0.2c-4.8-4.9-9.4-10.1-13.6-15.5c-1.9-2.3-3.9-4.5-5.6-6.8l-2.8-3.5
		c-0.9-1.2-1.8-2.4-2.7-3.6c-1-1.4-1.7-2.8-2.5-4.2c1,1.9,2,3.7,3.2,5.8c0.9,1.5,2,2.9,3.2,4.2C460,440.1,461.4,441.7,463,443.6z"/>
	<path class="st2" d="M437.5,406.8l1.3,1.9c0.9,3.4,2.9,6.5,4.8,9.6c-0.1-0.5-0.2-1.1-0.3-1.6c-1-1.8-1.4-1.9-0.7-0.2
		c-1.5-3.8-3.2-7.6-5.1-11.2C437.4,405.6,437.1,405.7,437.5,406.8z"/>
	<path class="st2" d="M436.4,403.1l1.1,2.1c0,0,0-0.1,0-0.1l-1.2-2.1L436.4,403.1z"/>
	<path class="st2" d="M473.6,461.4c6.5,7.4,13.7,14.2,21.3,20.5c0.7,0.2,1.4,0.6,1.9,1.2c0.5,0.6,1,1.1,1.6,1.6l3.3,2.5l1.2,0.8l0,0
		c0.7,0.4,0.6,0.1,0.3-0.3s-0.7-0.8-1-1.1c0.2,0.2,0.7,0.7,1,1.1c0.5,0.5,1.1,1,1.7,1.5c1.1,0.6,2.2,1.3,3.3,2.1
		c-1.2-0.6-2.3-1.3-3.3-2.1c-0.7-0.4-1.4-0.8-2-1.2l-0.6-0.3c1.3,1,2.6,1.8,3.9,2.7s2.6,1.8,4,2.6l1.8,0.9c1,0.5,2,1.1,2.9,1.5
		c0.8,0.4,1.5,0.9,2.2,1.5l1.5,0.8l-0.2-0.2l0.5,0.4c1,0.6,2.1,1.1,3.2,1.6l3.2,1.6c1.5,0.5,3.1,0.8,4.6,1.3l1.3,1
		c0.9,0.1,1.8,0.2,2.7,0.5c-1.1-0.7-2.1-1.4-3.1-2c-1.3-1.1-3.7-0.4-5.1-2c1.4,1.6,3.8,1,5.1,2c0.9,0.6,1.9,1.3,3.1,2
		c1.2,0.3,2.4,0.7,3.5,1.2c1.2,0.4,2.4,1,3.5,1.5c-1.4-0.2-2.7-0.5-3.9-1.1c-1.1-0.5-2.1-1-3.1-1.7c-0.9-0.2-1.8-0.4-2.7-0.5l-1.3-1
		c-1.5-0.5-3.1-0.8-4.6-1.3c2.1,1,4.3,1.9,6.5,2.8s4.5,1.7,6.8,2.4c14.6,4.8,30,6.8,45.3,5.8c15.6-1,31-4.5,45.6-10.4
		c16-6.3,30.9-15.2,44.1-26.1c12.8-10.8,23.3-23.6,30.2-38.6c1.7-3.8,3.1-7.7,4.2-11.7c1.1-4.1,1.8-8.4,2.1-12.6
		c0-1.1,0.1-2.2,0.1-3.3s-0.1-2.2-0.1-3.3s-0.2-2.2-0.4-3.3c0-0.2-0.1-0.6-0.1-0.8v-0.5c0-0.3,0-0.7,0-1.1c0.1-1.8,0.2-3.6,0.5-5.4
		c0.3-1.9,0.7-3.8,1.1-5.8c1.3-6,3.2-14.7,5.2-23.4s4.1-17.3,5.7-23.2c1.4-8.1,0.6-10.3-0.7-10.5s-2.9,1.8-3.2,2.1
		c-3,4.4-4.6,8.6-6.3,14.2s-3.5,12.5-6.7,22.3c2.1-6.8,2.1-4.1,0.9,1.8s-3.3,15-5.1,21.8c-0.4,1.3-0.6,2.6-0.9,3.9
		c-0.3,1.5-0.3,3.1-0.3,4.6c0,0.4,0.1,1,0.1,1.2v0.9c0,0.6,0.1,1.2,0.1,1.8c0,1.2,0,2.4,0,3.6c-0.2,5.3-1.1,10.5-2.6,15.5
		c-3.4,11-9.2,21.2-16.9,29.7c-4.1,4.6-8.4,9-13,13.1c-6.7,5.5-13.7,10.5-21.2,15c-7.3,4.5-14.9,8.3-22.9,11.5
		c-15.9,6.4-33.2,10.3-51.6,9.7c-9.7-0.3-18.3-0.7-26.5-2.3c-5.6-1.5-11.1-3.4-16.4-5.8c-7.1-3-13.1-5.9-18.8-8.9
		c1.5,0.9,3,1.7,4.5,2.5s2.8,1.5,4.3,2.2c2.8,1.4,5.9,2.7,9.6,4.2c2.5,1,1.5,0.9-0.5,0.5s-5-1.5-6.7-2.1c-1.5-0.5-3.1-2.6-4.5-3.1
		c-1.5-0.8-2.8-1.5-4.3-2.2l-2.2-1.1l-2.3-1.2c-1.4-0.6-0.7-1.4-1.4-1.7c-0.5-0.3-1-0.6-1.5-0.9s-1-0.6-1.5-0.8
		c-1-0.5-1.9-1-2.8-1.4c-1.6-0.7-3.1-1.7-4.4-2.8l-2.5-2.3c-0.8-0.7-1.5-1.5-2.3-2.2c-1-0.9-1.9-1.8-3-2.7c-0.7-0.5-1.4-1.1-2.1-1.6
		c0.2,0.5,0.3,1,0.2,1.6c-0.9-0.9-2.1-2.4-3-3.3c0.9,0.9,2.1,2.4,3,3.3c0.1-0.5,0.1-1.1-0.2-1.6L483,468c-1.3-1.1-2.6-2.3-3.9-3.5
		l-2-1.8c-0.6-0.6-1.3-1.2-1.9-1.9l-3.7-3.8v0.1c2.8,3,5.4,6.2,7.8,9.5c-1.1-1.5-0.8-1.5,0.7,0l0.8,1.5c-1.4-1.2-2.7-2.4-4-3.7
		c-1.2-1.3-2.3-2.7-3.2-4.2l-1.8-1.5c-0.6-1-0.4-1.1-0.4-1.5l-1.6-1.8c0.2,0.4,0.5,1,0.9,1.6s0.8,1.4,1.3,2L473.6,461.4z"/>
	<path class="st2" d="M505.1,489.2l-1.7-1l3.3,2.2c1.1,0.7,2.2,1.5,3.3,2.2C508.5,491.2,506.9,490.1,505.1,489.2z"/>
</g>
</svg>
