<?xml version="1.0" encoding="utf-8"?>
<!-- Generator: Adobe Illustrator 25.0.0, SVG Export Plug-In . SVG Version: 6.00 Build 0)  -->
<svg version="1.1" id="Layer_1" xmlns="http://www.w3.org/2000/svg" xmlns:xlink="http://www.w3.org/1999/xlink" x="0px" y="0px"
	 viewBox="0 0 841.9 841.9" style="enable-background:new 0 0 841.9 841.9;" xml:space="preserve">
<style type="text/css">
	.st0{fill:#5E503F;}
	.st1{opacity:0.85;}
	.st2{fill:#FEFEFE;}
	.st3{fill:#EDEFEF;}
</style>
<rect x="-0.5" class="st0" width="841.9" height="841.9"/>
<g class="st1">
	<path class="st2" d="M157,375.7c0.1-0.6,0.2-1.2,0.3-1.8c-0.1,0.3-0.3,0.6-0.4,0.8C156.7,375.2,156.9,375.4,157,375.7z"/>
	<path class="st2" d="M157.5,372.4l0.1-0.3l-0.1-0.3L157.5,372.4z"/>
	<path class="st2" d="M157.6,369.2c-0.1,0.5-0.2,1-0.1,1.6C157.6,370.3,157.7,369.8,157.6,369.2z"/>
	<path class="st2" d="M157.1,371.7c0.2-0.2,0.3-0.2,0.4,0.1l0,0v-0.9C157.4,371.1,157.3,371.4,157.1,371.7z"/>
	<path class="st2" d="M157.1,371.7c-0.2,0.2-0.3,0.4-0.4,0.5C156.9,372,157,371.9,157.1,371.7z"/>
	<path class="st2" d="M153.8,370.5c-0.1-0.3,0.9-0.1,0.7-0.8s-0.1-1.4-0.2-2c-0.1-0.7-0.2-1.3-0.1-2c-0.2-0.6,0.9-1.5,0.8-2.1
		c-0.1-1-0.4-1.9-0.7-2.8c-0.3-0.8-0.6-1.2-0.6-0.1c-0.1,3.2,0.1,5.3,0,8.1c0.1,2.4,0.4,4.6,0.3,7.1c-0.1,0.6-0.2,1.3-0.4,1.9
		c0.3-0.8,0.6-1.6,0.9-2.5C154.9,374.1,153.8,372.4,153.8,370.5z"/>
	<path class="st2" d="M153.9,388.4l-0.1-1c0.8-1.2,1.2-2.7,1.1-4.1l-0.6,0.5c-0.1,0.8,0.1,1,0.5,0.3c-0.9,1.4-1.4,3-1.6,4.6
		C153.4,388.7,153.7,388.8,153.9,388.4z"/>
	<path class="st2" d="M153,389.7c0.1-0.3,0.1-0.6,0.1-1h-0.1L153,389.7L153,389.7z"/>
	<path class="st2" d="M157.2,362.7c0.2-2,0.1-4,0.2-6c0-1,0.1-1.9,0.1-2.9s0-1.9,0-2.8c-0.2-0.3-0.4-0.5-0.3-0.9
		c0.1-0.3,0.3-0.6,0.3-0.9v-1.6c0-0.2-0.1-0.4-0.1-0.6l0,0c-0.1-0.3-0.3-0.2-0.4,0c-0.1,0.2-0.2,0.4-0.3,0.6
		c0.1-0.1,0.2-0.4,0.3-0.6c0.1-0.3,0.2-0.6,0.3-0.9c-0.1-0.5-0.1-1-0.1-1.5c0.1,0.5,0.2,1,0.1,1.5c0.1,0.3,0.1,0.6,0.1,0.9l0.1,0.3
		c0-1.3,0-2.5,0-3.8c0-0.3-0.1-0.5-0.1-0.8c-0.3-0.8-0.3-1.6,0.1-2.4v-0.7l-0.1,0.1c0-0.1,0.1-0.2,0.1-0.3c0-0.9-0.1-1.9-0.1-2.8
		c-0.2-0.6-0.5-1.2-0.7-1.8l0.4-0.7c-0.3-0.3-0.5-0.6-0.6-1c-0.2,0.5-0.5,1-0.7,1.5c-0.4,0.7,1.1,1.3,0.3,2.1
		c0.8-0.8-0.7-1.5-0.3-2.1c0.1-0.5,0.4-0.9,0.7-1.5c-0.2-1-0.2-2,0.1-3c0.4,1,0.4,2.1-0.1,3c0.1,0.4,0.3,0.7,0.6,1l-0.4,0.7
		c0.2,0.6,0.5,1.2,0.7,1.8c-0.1-1.8-0.2-3.7-0.3-5.6c-0.9-12.3-3.2-23.5-6-36c-1.5-6.8-3-13.3-4.6-19.7c-1.6-6.1-3.6-12.2-5.9-18.1
		c-2.3-6-4.3-12.1-6-18.3c-1-3.1-2.2-6.2-3.7-9.1c-1.6-3.2-3.4-6.4-4.6-8.6c-2.3-2.6-4-2.6-5-1.9c-0.7,0.6-1.3,1.3-1.6,2.2
		c-1.2,5.1,2,7,3.6,15.1c-1.3-5.4,3.8,2.7,3.7,8.4c-0.2,4.2,1.4,8.4,3.4,12.7c1.9,4.3,4.1,8.8,5.2,13.3c0.6,2.2,1.5,4.5,2.3,7.1
		c1.6,6.9,3.6,13.4,5.6,20.1c2.1,6.8,3.7,13.7,4.9,20.7c0.3,1.8,0.8,3.7,1.4,5.4c0.5,1.7,1.1,3.3,1.6,5c0.5,2.4,0.2,5,0.4,7
		c0.3,2.8,0.7,5.5,1.4,8.2c-0.2-1.4-0.4-2.6-0.5-3.9s-0.4-2.6-0.6-4.1c-0.3-2.1,1.4,1.4,1.8,2.8c0.2,0.6-0.8,1.6-0.5,2.2
		c0.2,1.3,0.5,2.6,0.9,3.9c0.2,0.6-0.7,0.6-0.6,0.9c0.2,1.9,1.5,3.4,1.3,4.6c-0.1,0.9-0.2,1.8-0.4,2.6c-0.1,0.5-0.1,1.1-0.1,1.6
		c0.1,0.3,0.1,0.7,0.2,1c0.3-0.2,0.6-0.4,1-0.5c-0.1,0.5-0.3,1.2-0.4,1.7c0.1-0.5,0.3-1.2,0.4-1.7c-0.4,0.1-0.7,0.2-1,0.5
		c0.2,1.3,0.5,2.6,0.7,4s0.3,2.8,0.4,4.2h0.1c0-1.6,0.3-3.3,0.9-4.8c-0.2,0.7-0.5,0.6-0.5-0.2l0.5-0.6c0.1,0.7,0.2,1.4,0.2,2.1
		c0,0.7-0.2,1.4-0.6,2c0,0,0.2,0.6,0.3,0.9c-0.2,0.4-0.5,0.4-0.7,0.5c0,0.3,0,0.6,0,1C156.5,364.6,156.9,363.6,157.2,362.7z"/>
	<path class="st2" d="M157.4,346.1c0,0.2,0.1,0.5,0.1,0.8c0-1,0-2.1,0-3.1C157.2,344.5,157.1,345.3,157.4,346.1z"/>
</g>
<g class="st1">
	<path class="st2" d="M650.2,621.4c0.3,0.3,0.6,0.6,1,0.9c-0.2-0.2-0.3-0.3-0.4-0.5C650.6,621.5,650.4,621.4,650.2,621.4z"/>
	<path class="st2" d="M652.1,622.9l0.2,0.1l0.2,0C652.4,623.1,652.3,623,652.1,622.9z"/>
	<path class="st2" d="M654.3,623.7c-0.4-0.1-0.8-0.2-1.1-0.4c0.2,0.1,0.3,0.2,0.5,0.2C653.9,623.6,654.1,623.7,654.3,623.7z"/>
	<path class="st2" d="M652.7,623c0.1,0.1,0.1,0.2-0.1,0.2l0,0l0.7,0.2C653,623.3,652.8,623.2,652.7,623z"/>
	<path class="st2" d="M652.7,623c-0.1-0.1-0.2-0.3-0.3-0.3C652.4,622.8,652.5,622.9,652.7,623z"/>
	<path class="st2" d="M653.9,621.6c0.2,0,0,0.5,0.3,0.5s0.9,0.1,1.3,0.1c0.4,0,0.8,0,1.2,0c0.4-0.1,1,0.4,1.4,0.3
		c0.6-0.2,1.2-0.4,1.8-0.7c0.5-0.3,0.7-0.5,0-0.3c-1.6,0.4-3.3,0.5-5,0.1c-1.5-0.2-2.8-0.9-4-1.8c-0.3-0.3-0.6-0.6-0.8-1
		c0.3,0.5,0.6,1,1,1.4c0.3,0.4,0.7,0.6,1.2,0.7l0.8,0.2C653.3,621.5,653.6,621.5,653.9,621.6z"/>
	<path class="st2" d="M645.3,613.5l0.4,0.5c0.2,1,0.6,1.9,1.3,2.7c0-0.2,0-0.3,0-0.5c-0.3-0.5-0.4-0.5-0.3,0
		c-0.1-0.6-0.3-1.1-0.6-1.7c-0.2-0.5-0.4-1-0.7-1.5C645.4,613.2,645.2,613.2,645.3,613.5z"/>
	<path class="st2" d="M645.2,612.5l0.3,0.6l0,0C645.3,612.9,645.2,612.7,645.2,612.5L645.2,612.5z"/>
	<path class="st2" d="M659,623.7c2.7-0.4,5.4-1.1,7.9-2.2c0.1-0.2,0.3-0.3,0.5-0.4c0.2,0,0.4-0.1,0.6-0.1l1-0.5l0.3-0.2l0,0
		c0.2-0.2,0.1-0.2-0.1-0.2c-0.1,0-0.3,0-0.4,0c0.1,0,0.3,0,0.4,0c0.2,0,0.4-0.1,0.6-0.2c0.3-0.2,0.6-0.4,0.9-0.6
		c-0.3,0.2-0.6,0.4-0.9,0.6c-0.2,0.1-0.3,0.3-0.5,0.4l-0.2,0.1c0.8-0.4,1.5-0.9,2.3-1.3c0.2-0.1,0.3-0.3,0.4-0.4
		c0.4-0.4,0.8-0.8,1.4-1c0.1-0.1,0.2-0.2,0.4-0.3h-0.1l0.2-0.1c0.5-0.5,1-0.9,1.5-1.4c0.2-0.4,0.4-0.8,0.7-1.2l0.5-0.2
		c0-0.3,0.1-0.5,0.3-0.7c-0.3,0.2-0.7,0.4-0.9,0.5c-0.5,0.2-0.3,1.1-1,1.2c0.7-0.1,0.5-1,1-1.2c0.3-0.2,0.6-0.3,0.9-0.5
		c0.4-0.6,0.8-1.2,1.4-1.6c-0.2,0.7-0.7,1.3-1.4,1.6c-0.1,0.2-0.2,0.5-0.3,0.7l-0.5,0.2c-0.2,0.4-0.5,0.8-0.7,1.2l1.3-1.5l1.2-1.6
		c2.5-3.6,3.8-7.8,4-12.2c0-1.1,0-2.2-0.1-3.2c-0.1-0.5-0.2-1.1-0.2-1.6l-0.1-0.8l-0.2-0.8c-0.1-0.5-0.2-1.1-0.4-1.6
		s-0.4-1.1-0.6-1.6c-0.2-0.5-0.4-1.1-0.7-1.6c-0.2-0.5-0.5-1.1-0.8-1.6c-1.1-2.4-3-4.3-5.3-5.6c-2.4-1.1-5.1-1.4-7.7-0.9
		c-2.3,0.4-4.6,1.1-6.7,2.1c-2.1,0.9-4,1.9-6,3c-2,1.1-4,2.3-5.9,3.6c-2.1,1.4-4,3.2-5.6,5.3c-0.3,0.5-0.6,1-0.9,1.6
		c-0.3,0.7-0.5,1.3-0.7,2c-0.2,0.7-0.3,1.5-0.4,2.2c0,0.8,0,1.5,0,2.3c0.2,2.5,0.8,5,1.8,7.3c1.2,2.1,2.1,2.3,2.7,2
		c0.4-0.3,0.7-0.7,0.8-1.2c0.2-1.4,0.1-2.9-0.3-4.3c-0.1-0.4-0.2-0.8-0.2-1.2s-0.1-0.9-0.2-1.4c-0.1-1.1,0-2.2,0.3-3.3
		c-0.3,1.7-0.7,1.1-0.6-0.4c0.1-0.9,0.4-1.7,0.8-2.5c0.5-0.8,1.1-1.5,1.9-2c2.1-1.2,4.3-2.9,7-4.6c2.7-1.8,5.6-3.4,8.6-4.6
		c1.5-0.6,3-1.1,4.5-1.4c1.8-0.3,3.6-0.1,5.3,0.6c1.6,1,2.8,2.4,3.7,4.1c1.1,1.9,1.8,4,2.2,6.2c0.4,2.2,0.4,4.6,0,6.8
		c-0.3,2.3-0.9,4.5-1.6,6.7c-0.2,0.3-0.4,0.7-0.6,1s-0.5,0.6-0.7,0.9c-0.5,0.6-1,1.1-1.4,1.6c-0.3,0.4-0.6,0.7-1,1.1
		c-0.3,0.3-0.6,0.7-0.9,1c-0.7,0.6-1.2,1.2-1.9,1.7l0.6-0.4l0.5-0.4l0.9-0.8c0.3-0.3,0.6-0.6,0.9-0.9c0.4-0.3,0.7-0.7,1-1.1
		c0.9-1.1-0.1,1.2-0.8,1.9c-0.2,0.2-0.4,0.3-0.6,0.4c-0.2,0-0.5,0.1-0.7,0.3c-0.3,0.3-0.6,0.6-0.9,0.9c-0.3,0.3-0.6,0.6-1,0.9
		s-0.5-0.1-0.6,0c-0.5,0.3-0.9,0.7-1.3,1.1c-0.3,0.4-0.7,0.6-1.2,0.8c-0.6,0.2-1.2,0.3-1.8,0.5c-0.3,0.1-0.7,0.2-1,0.3l-0.6,0.3
		c0.2,0.1,0.4,0.2,0.5,0.4c-0.3,0.1-0.8,0.1-1.2,0.2c0.3-0.1,0.8-0.1,1.2-0.2c-0.1-0.2-0.3-0.3-0.5-0.4c-1.7,0.9-3.5,1.4-5.3,1.7
		l0,0c1.1,0,2.1-0.2,3.3-0.1c-0.5,0-0.5-0.2,0.1-0.3l0.5,0.1c-0.9,0.4-1.9,0.6-2.9,0.4c0,0-0.4,0.2-0.6,0.2s-0.3-0.2-0.4-0.3h-0.7
		c0.4,0.2,0.7,0.3,1.1,0.4L659,623.7z"/>
	<path class="st2" d="M670,619.9c-0.1,0.1-0.3,0.2-0.5,0.3l1.9-1.1C670.9,619.3,670.4,619.5,670,619.9z"/>
</g>
<path class="st3" d="M668.1,614.5c4.4-1,7.3-5.3,6.3-9.8c-1-4.4-4.2-4.3-8.7-3.3s-8.4,2.4-7.4,6.8
	C659.3,612.7,663.7,615.5,668.1,614.5z"/>
<g class="st1">
	<path class="st2" d="M664.3,614.1c-0.1,0-0.3-0.1-0.4-0.2c0.1,0,0.1,0.1,0.2,0.2C664.1,614.2,664.2,614.1,664.3,614.1z"/>
	<polygon class="st2" points="663.5,613.8 663.4,613.8 663.3,613.8 	"/>
	<path class="st2" d="M662.7,613.5c0.1,0.1,0.2,0.1,0.4,0.2C663,613.6,662.8,613.6,662.7,613.5z"/>
	<path class="st2" d="M663.3,613.9C663.3,613.8,663.3,613.8,663.3,613.9L663.3,613.9l-0.2-0.2C663.1,613.7,663.2,613.8,663.3,613.9z
		"/>
	<path class="st2" d="M663.3,613.9l0.1,0.1C663.3,613.9,663.3,613.9,663.3,613.9z"/>
	<path class="st2" d="M662.7,614.5c-0.1,0,0-0.2-0.2-0.2c-0.4-0.1-0.8-0.2-1.1-0.4c-0.2-0.1-0.2-0.4-0.4-0.5
		c-0.4-0.2-1.4-0.7-0.9-0.3c0.6,0.5,1.3,1,2.1,1.3c0.6,0.2,1.3,0.4,2,0.5c0.2,0,0.4,0.1,0.5,0.2l-0.7-0.3
		C663.8,614.6,663.3,614.8,662.7,614.5z"/>
	<path class="st2" d="M667.7,614.4l-0.2,0.1c-0.4-0.1-0.8-0.1-1.1,0l0.2,0.1c0.2,0,0.2-0.1,0-0.1c0.4,0.1,0.9,0.1,1.3,0
		C667.8,614.5,667.8,614.4,667.7,614.4z"/>
	<path class="st2" d="M668.1,614.5l-0.2,0.1l0,0L668.1,614.5L668.1,614.5z"/>
	<path class="st2" d="M661.2,612.7c-0.8-0.7-1.5-1.5-1.9-2.4c-0.1,0-0.2-0.1-0.2-0.2c0-0.1,0-0.2,0-0.2c-0.1-0.1-0.1-0.3-0.2-0.4
		l-0.1-0.1l0,0c0-0.1-0.1,0-0.1,0c0,0.1,0,0.1,0,0.2c0-0.1,0-0.1,0-0.2c0-0.1,0-0.2,0-0.2c-0.1-0.1-0.1-0.3-0.1-0.4
		c0.1,0.1,0.1,0.3,0.1,0.4l0.1,0.2v0.1c-0.1-0.3-0.2-0.7-0.3-1l-0.1-0.2c-0.1-0.2-0.1-0.4,0-0.6c0,0,0-0.1,0-0.2l0,0c0,0,0,0,0-0.1
		c0-0.2,0-0.5,0-0.7s0-0.3-0.1-0.5c0-0.1,0.1-0.1,0.2-0.1c0-0.1,0-0.2,0-0.3c-0.1,0.1-0.2,0.2-0.3,0.3c-0.2,0.2,0.2,0.4-0.1,0.6
		c0.3-0.2-0.1-0.4,0.1-0.6c0.1-0.1,0.2-0.2,0.3-0.3c0-0.3,0.2-0.5,0.4-0.7c-0.1,0.3-0.2,0.5-0.4,0.7c0,0.1,0,0.2,0,0.3
		c-0.1,0-0.1,0.1-0.2,0.1c0,0.2,0,0.3,0.1,0.5c0.1-0.5,0.2-0.9,0.4-1.3c0.9-1.3,2.2-2.2,3.7-2.5c1.6-0.5,3.2-0.8,4.8-1.1
		c0.9-0.1,1.8-0.2,2.6-0.1c0.8,0,1.5,0.3,2.1,0.8c2,2.3,2,5.7-0.1,8c-0.5,0.5-1,1-1.5,1.5c-0.6,0.4-1.2,0.8-1.8,1.1
		c-0.6,0.4-0.8,0.8-0.7,1.1c0.1,0.2,0.2,0.4,0.4,0.5c0.6,0.3,1.2,0.3,1.8,0c0.8-0.4,1.6-0.8,2.4-1.3c-0.7,0.5-0.6,0.1-0.1-0.3
		s1.2-1.3,1.8-1.8c1-1,1.6-2.3,1.6-3.8c0-0.8,0-1.5-0.2-2.3c-0.2-0.8-0.4-1.5-0.6-2.2c-0.4-0.9-1-1.6-1.7-2.1
		c-1-0.8-2.3-1.2-3.5-1.1c-1.1,0-2.1,0.1-3.1,0.4c-2.1,0.4-4.1,1-6,1.8c-1.1,0.5-2.1,1.4-2.7,2.5c-0.5,0.7-0.8,1.4-1,2.3
		c-0.1,0.9,0.1,1.8,0.4,2.7c-0.3-0.8-0.4-1.7-0.4-2.6c0.1-0.7,0.2,0.5,0.3,1c0,0.2-0.2,0.5-0.1,0.7c0.1,0.4,0.2,0.8,0.4,1.1
		c0.1,0.2-0.1,0.2-0.1,0.3c0.2,0.5,0.7,0.8,0.8,1.2c0.1,0.2,0.2,0.5,0.3,0.7c0.1,0.1,0.1,0.3,0.2,0.4l0.2,0.2c0-0.1,0.1-0.2,0.1-0.3
		l0.2,0.5l-0.2-0.5c-0.1,0.1-0.1,0.2-0.1,0.3c0.6,0.5,1.3,1,2,1.4l0,0c-0.4-0.2-0.7-0.6-0.9-1c0.1,0.2,0,0.2-0.1,0.1v-0.2
		c0.3,0.2,0.6,0.5,0.8,0.8l0.2,0.1c0.1,0.1,0,0.2,0,0.2l0.2,0.1c-0.1-0.1-0.2-0.3-0.3-0.4L661.2,612.7z"/>
	<path class="st2" d="M658.7,609.1l0.1,0.2c-0.1-0.3-0.2-0.5-0.2-0.8C658.5,608.7,658.6,608.9,658.7,609.1z"/>
</g>
<g class="st1">
	<path class="st2" d="M481.5,578.9c1.7,1.9,3.3,3.9,5.1,5.8c-0.9-1-1.6-2-2.4-3.1C483.5,580.6,482.6,579.7,481.5,578.9z"/>
	<path class="st2" d="M491.6,589.9l1,0.9l0.9,0.7L491.6,589.9z"/>
	<path class="st2" d="M501.9,598.5c-1.8-1.6-3.6-2.9-5.3-4.3C498.3,595.7,500.1,597.2,501.9,598.5z"/>
	<path class="st2" d="M494,591.4c0.5,0.7,0.7,1-0.4,0.2l0,0l3.1,2.7C495.6,593.2,494.7,592.2,494,591.4z"/>
	<path class="st2" d="M494,591.4c-0.5-0.6-1.3-1.6-1.6-1.9C492.8,590,493.3,590.7,494,591.4z"/>
	<path class="st2" d="M498.7,591.1c1,0.8,0.2,1.3,2.3,2.8c2.5,1.8,4.8,3.6,7.1,5l3.5,2.3c1.1,0.8,2.4,1.5,3.6,2.3
		c1.3,0.8,2.6,1.7,3.8,2.8c1.2,1,2.5,1.8,3.9,2.6c2.7,1.4,7.9,3.6,11.2,4.9s5,1.7,0.8-0.3c-3.2-1.5-6.1-3-8.8-4.3s-5.1-2.7-7.5-4.1
		l-3.5-2.2c-1.2-0.7-2.4-1.4-3.5-2.2l-3.5-2.5c-0.6-0.4-1.2-0.8-1.8-1.3s-1.2-0.9-1.8-1.4c-8.2-6-15.7-12.8-22.3-20.4
		c-0.9-1.1-1.8-2.3-2.6-3.4c-0.4-0.6-0.9-1.1-1.2-1.7l-1.1-1.7c0.5,0.8,1,1.5,1.5,2.3l1.6,2.2c0.6,0.8,1.1,1.5,1.7,2.3l0.9,1.2
		l1,1.2c0.9,1.1,1.8,2.2,2.9,3.2c1.1,1.1,2.3,2.2,3.5,3.2l4,3.5C495.6,588.5,497.1,589.7,498.7,591.1z"/>
	<path class="st2" d="M455.6,528.8l1.4,3.8c0.2,1.5,0.5,3,1,4.4c0.4,1.5,0.9,3,1.5,4.4c0.6,1.4,1.2,2.9,1.9,4.3
		c0.3,0.7,0.7,1.4,1,2.1l1.1,2.1c-0.2-0.9-0.5-1.8-0.8-2.7c-1.5-3.2-1.8-3.6-0.8-0.5c-2.4-6.7-4.4-13.5-6-20.3
		C455.7,526.8,455.3,526.8,455.6,528.8z"/>
	<path class="st2" d="M455,522.3c0.3,1.3,0.6,2.7,0.9,4c0,0,0-0.1,0-0.2c-0.3-1.3-0.6-2.7-0.9-4L455,522.3z"/>
	<path class="st2" d="M526.2,613.2c15,7.9,30.5,14.8,46.4,20.7c1.3,0.2,2.5,0.5,3.7,1c1.2,0.6,2.3,1.1,3.5,1.5
		c2.3,0.7,4.5,1.4,6.8,2.1c0.8,0.2,1.6,0.4,2.4,0.6h0.1c1.3,0.2,1,0,0.2-0.3s-1.7-0.7-2.3-1c0.4,0.2,1.6,0.7,2.3,1
		c1.1,0.4,2.2,0.8,3.7,1.2l6.6,1.5c-2.2-0.4-4.5-0.8-6.6-1.5c-1.3-0.3-2.6-0.6-3.9-0.9l-1.1-0.2c5.2,1.5,10.5,2.8,15.8,3.8
		c1.2,0.2,2.4,0.4,3.4,0.5c3.9,0.5,7.8,0.8,10.2,1.5l2.9,0.3c-0.2,0-0.4-0.1-0.5-0.1l1.1,0.2c4.1,0.3,8.3,0.4,12.4,0.3
		c2.7-0.3,5.4-0.8,8.1-1.2l2.8,0.1c1.5-0.5,2.9-0.9,4.5-1.3c-2.2,0.2-4.3,0.2-6.2,0.2c-1.5,0.1-3,0.3-4.5,0.7
		c-1.6,0.4-3.3,0.5-4.9,0.2c1.6,0.3,3.3,0.2,4.9-0.2c1.4-0.4,2.9-0.7,4.5-0.7c1.9,0,3.9-0.1,6.2-0.2c3.8-0.9,8.7-2.2,12.7-3.2
		c-4,1.8-8.3,2.9-12.7,3.2c-1.5,0.3-3,0.8-4.5,1.3l-2.8-0.1c-2.7,0.5-5.5,0.9-8.1,1.2c8.2-0.2,16.4-1.6,24.3-4
		c1.6-0.5,3.2-1.1,4.8-1.7s3.1-1.2,4.6-2c3-1.4,6-3,8.8-4.8c5.6-3.6,10.7-7.9,15.2-12.8c9-9.7,15.5-21.3,20.3-33.5
		c2.4-6.1,4.5-12.3,6.2-18.7c0.8-3.2,1.7-6.4,2.4-9.6s1.4-6.5,2-9.8c2.6-13.5,3.3-27.2,2.2-40.9c-0.8-7.6-2.5-15-4.9-22.2
		c-2.4-7.1-5.6-13.9-9.5-20.2c-7.7-12.7-17.3-23.6-26.8-34.1s-19-20.4-27.5-30.7c-4.3-5.1-8.4-10.4-12.3-15.8l-2.8-4.1
		c-0.5-0.7-1-1.4-1.4-2l-1.3-2.1l-2.7-4.2c-0.9-1.4-1.7-2.8-2.5-4.3l-1.3-2.1c-0.4-0.7-0.8-1.4-1.2-2.1s-0.8-1.4-1.1-2.1l-1-2.2
		c-1.3-2.9-2.4-5.9-3.2-9c-0.8-3.1-1.5-6.3-2-9.5c-0.5-3.2-0.8-6.5-0.9-9.7c-0.5-13.1,1.6-26.6,5.3-39.9c1.4-5.1,3.2-11.3,5.4-18
		s4.8-13.8,7.6-20.9c5.1-12.6,10.8-24.9,17.2-36.9c2.1-4.1,3.9-8.4,5.4-12.8c0.8-2.5,0.6-3.4,0-3.7c-1.2-0.5-4.2,2.4-4.6,2.9
		c-5.9,6.6-9.9,13.3-14.6,22.2c-2.3,4.5-4.8,9.5-7.5,15.4s-5.9,12.8-9.4,21c2.3-5.6,3.3-7.3,3.2-6.4s-1.3,4.5-2.9,9.4
		s-3.7,11.2-5.7,17.8s-3.8,13.2-5.4,18.9c-2.5,9-3.8,18.3-3.9,27.6c-0.1,10.8,1.8,21.5,5.6,31.6c0.5,1.3,1.1,2.6,1.7,3.9
		s1.2,2.6,1.9,3.8c1.4,2.6,2.8,4.8,4.2,7.1s2.9,4.6,4.4,6.9c0.8,1.1,1.5,2.3,2.3,3.4l2.4,3.3c6.3,8.8,13.1,17.1,19.8,25
		s14.3,15.6,22.5,24.4c5.2,5.8,10.3,11.5,15.1,17.4c4.7,5.7,8.9,11.8,12.6,18.1c7.3,12.5,11.6,26.5,12.5,40.9
		c0.5,7.4,0.4,14.7-0.5,22.1c-0.3,3.7-1,7.5-1.5,11.2c-0.3,1.9-0.7,3.7-1.1,5.6s-0.7,3.8-1.2,5.6s-0.9,3.8-1.4,5.6s-0.9,3.8-1.5,5.6
		s-1,3.7-1.7,5.5s-1.2,3.7-1.9,5.5c-2.6,7.4-6,14.4-10,21.1c-2,3.5-4.3,6.8-6.7,10c-2.3,3-4.8,5.9-7.4,8.6c-2.5,2.6-5.3,5-8.2,7.1
		c-1.4,1.1-2.9,2-4.4,3s-3,1.8-4.6,2.6c-4.6,2.3-9.5,3.9-14.5,5c-4.6,1-9.2,1.6-13.9,1.9c-6.2,0.4-12.4,0.4-18.6,0
		c-5.9-0.4-11.5-1.1-17-2c5.6,1.1,11.2,1.9,16.9,2.3c6,0.5,12,0.5,17.9,0c2.2-0.2,3-0.2,2.7,0c-1,0.3-2.1,0.6-3.2,0.7
		c-3.9,0.6-7.9,0.9-11.9,0.9c-2.6,0.1-6.6-1.3-9.2-1.4c-5.6-0.7-10.9-1.2-16.9-2.3c-2.6-0.4-2.1-1.3-3.4-1.5
		c-8.2-1.8-14.7-2.7-19.7-4.7c-3.8-1.5-7.2-2.9-10.5-4.4c-2.1-0.9-4.2-1.8-6.4-2.7l-4.3-1.6c0.7,0.4,1.2,1,1.5,1.8
		c-2-0.9-4.8-2.4-6.8-3.4c2,1,4.8,2.5,6.8,3.4c-0.3-0.7-0.9-1.3-1.5-1.8c-5.2-2-10.8-4.3-16.3-6.8c-2.8-1.2-5.6-2.5-8.4-3.8
		s-5.5-2.7-8.1-4.1l0.1,0.2c6.1,3.4,12.2,6.5,18.5,10.2c-2.7-1.6-2.3-1.6,1-0.1l2.3,1.6c-5.7-2.3-11.2-5.1-16.4-8.4l-3.6-1.7
		c-1.7-1.1-1.4-1.3-1.7-1.7c-0.6-0.3-1.2-0.6-1.8-1l-1.8-1.1c0.8,0.7,1.6,1.4,2.5,2l3.3,2.3l2.9,1.9L526.2,613.2z"/>
	<path class="st2" d="M593.2,640c-0.9-0.2-2.1-0.5-3.3-0.8c4.4,1.2,8.8,2.3,13.3,3.2C600.9,641.5,597,640.8,593.2,640z"/>
</g>
<g class="st1">
	<path class="st2" d="M185.9,475.5l1.6,0.6c-0.3-0.2-0.5-0.4-0.7-0.6C186.4,475.3,186.2,475.5,185.9,475.5z"/>
	<path class="st2" d="M188.9,476.6l0.3,0.1h0.3L188.9,476.6z"/>
	<path class="st2" d="M191.7,477.2c-0.5-0.2-0.9-0.3-1.4-0.3C190.7,477.1,191.2,477.2,191.7,477.2z"/>
	<path class="st2" d="M189.6,476.4c0.1,0.2,0.2,0.4-0.1,0.4l0,0l0.9,0.1C190,476.7,189.8,476.6,189.6,476.4z"/>
	<path class="st2" d="M189.6,476.4c-0.1-0.2-0.3-0.4-0.4-0.5C189.3,476.1,189.4,476.2,189.6,476.4z"/>
	<path class="st2" d="M191.2,473.3c0.3,0,0,0.9,0.6,0.8c1.2,0,2.5,0.1,3.7,0.3c0.6-0.1,1.2,1.2,1.8,1.1c1.4,0,4.9-0.5,2.9-0.9
		c-2.9-0.4-4.8-0.7-7.4-1.2L191.2,473.3l-1.6-0.3c-1.1-0.1-2.1-0.3-3.2-0.5c-0.6-0.2-1.1-0.4-1.6-0.7c0.7,0.4,1.4,0.9,2.1,1.2
		C187.8,473.7,189.5,473,191.2,473.3z"/>
	<path class="st2" d="M175,470.3l0.9,0.1c0.9,1,2.1,1.7,3.5,1.8c-0.1-0.2-0.2-0.4-0.4-0.7c-0.7-0.3-0.9-0.1-0.4,0.4
		c-1.1-1.1-2.4-1.9-3.8-2.5C174.8,469.8,174.7,470,175,470.3z"/>
	<path class="st2" d="M174,469.2l0.8,0.3c0,0,0-0.1,0-0.1L174,469.2L174,469.2z"/>
	<path class="st2" d="M197.7,477.9l5.4,1.1l5.2,1c0.3-0.1,0.5-0.3,0.9-0.2c0.2,0.2,0.5,0.3,0.8,0.4l1.5,0.2h0.6
		c0.3-0.1,0.2-0.2,0.1-0.4c-0.2-0.1-0.3-0.3-0.5-0.4c0.1,0.1,0.3,0.3,0.5,0.4c0.2,0.2,0.5,0.3,0.8,0.4c0.5,0,1,0,1.4,0.1
		c-0.5,0-1,0-1.4-0.1h-0.9h-0.2l3.4,0.6c0.3,0,0.5,0,0.7,0c0.9,0,1.7-0.1,2.1,0.4l0.6,0.1l-0.1-0.1l0.2,0.1l2.6,0.4
		c0.6-0.1,1.2-0.3,1.8-0.4l0.6,0.5c0.3-0.2,0.6-0.4,1-0.4c-0.4-0.3-0.9-0.7-1.2-0.9c-0.5-0.5-1.4,0.9-2-0.1c0.6,1,1.4-0.4,2,0.1
		c0.4,0.2,0.8,0.6,1.2,0.9c1-0.1,1.9,0.1,2.7,0.6c-1,0.3-2,0-2.7-0.6c-0.4,0-0.7,0.2-1,0.4l-0.6-0.5c-0.6,0.1-1.2,0.3-1.8,0.4
		c1.7,0.2,3.4,0.4,5.2,0.6c2.8,0.4,5.6,0.5,8.4,0.7s5.5,0.2,8.3,0.2s5.5,0,8.4-0.1s5.7-0.1,8.6-0.2l18.6-0.5
		c12.1-0.3,22.7-3.4,35.1-3.4c4.8-0.1,13.2-2.4,17.6-3.6c5.6-3.1,1.4-6.3,1.1-6.4c-4.4-2.5-6.7,0.1-14.4-0.3c5.2,0.1-3.2,3-8.4,1.6
		c-7.5-2.3-16.6,2.3-25.2,2.5c-2.1,0-4.3,0.5-6.9,0.7c-6.6,0.2-12.9,0.8-19.2,1.4c-6.5,0.7-13.1,1.1-19.7,1
		c-3.3,0.2-6.6,0.6-9.9,1.2c-2.2,0-4.6-0.6-6.4-0.7c-2.6-0.2-5.1-0.2-7.7,0c2.6,0.1,4.6,0,7.5,0.2c1,0,0.6,0.3-0.2,0.6
		c-0.9,0.3-1.7,0.5-2.6,0.6c-0.6,0.2-1.4-1-1.9-0.8c-1.2,0-2.5,0.1-3.7,0.3c-0.6,0.1-0.4-0.8-0.7-0.7c-1.8,0-3.3,1-4.4,0.6
		c-0.8-0.3-1.6-0.6-2.3-0.8c-0.5-0.2-0.9-0.3-1.4-0.3l-1,0.1c0.2,0.3,0.3,0.7,0.2,1.1c-0.4-0.1-1.1-0.5-1.5-0.6
		c0.4,0.1,1.1,0.5,1.5,0.6c0-0.4-0.1-0.7-0.2-1.1c-1.2,0.1-2.5,0-3.8,0s-2.6-0.1-3.9-0.2v0.1c1.5,0.2,2.9,0.7,4.2,1.5
		c-0.6-0.4-0.5-0.6,0.3-0.5l0.5,0.6c-1.4,0-2.7,0-3.8-1l-0.9,0.1c-0.4-0.2-0.3-0.5-0.3-0.8l-0.9-0.2c0.4,0.4,0.8,0.8,1.3,1.1
		C197.3,477.6,197.7,477.9,197.7,477.9z"/>
	<path class="st2" d="M212.8,480.5c-0.2,0-0.5,0-0.7,0l2.9,0.5C214.5,480.5,213.7,480.5,212.8,480.5z"/>
</g>
</svg>
