<?xml version="1.0" encoding="utf-8"?>
<!-- Generator: Adobe Illustrator 25.0.0, SVG Export Plug-In . SVG Version: 6.00 Build 0)  -->
<svg version="1.1" id="Layer_1" xmlns="http://www.w3.org/2000/svg" xmlns:xlink="http://www.w3.org/1999/xlink" x="0px" y="0px"
	 viewBox="0 0 841.9 841.9" style="enable-background:new 0 0 841.9 841.9;" xml:space="preserve">
<style type="text/css">
	.st0{fill:#D69F7E;}
	.st1{opacity:0.85;}
	.st2{fill:#211F1E;}
</style>
<rect y="-0.4" class="st0" width="841.9" height="841.9"/>
<g class="st1">
	<path class="st2" d="M203.4,419l1.7-0.2c-0.3,0-0.6-0.1-0.9-0.2C203.8,418.6,203.7,418.8,203.4,419z"/>
	<path class="st2" d="M206.7,418.7h0.3l0.2-0.1L206.7,418.7z"/>
	<path class="st2" d="M209.6,418.2c-0.5,0-1,0.1-1.5,0.2C208.6,418.4,209.1,418.3,209.6,418.2z"/>
	<path class="st2" d="M207.2,418.2c0.2,0.1,0.3,0.3,0,0.4l0,0l0.9-0.2C207.8,418.3,207.5,418.3,207.2,418.2z"/>
	<path class="st2" d="M207.2,418.2c-0.2-0.1-0.5-0.2-0.6-0.3C206.8,418,207,418.1,207.2,418.2z"/>
	<path class="st2" d="M207.6,414.7c0.3-0.1,0.3,0.8,0.9,0.5c1.2-0.5,2.5-0.9,3.9-1.1c0.6-0.3,1.6,0.7,2.2,0.4c1.4-0.4,4.9-2,2.8-1.7
		c-3.2,0.4-5.3,0.9-8.1,1.3c-2.3,0.6-4.5,1.4-6.8,2c-0.6,0.1-1.3,0.2-1.9,0.2l2.6,0.1C204.4,416.6,205.7,415.2,207.6,414.7z"/>
	<path class="st2" d="M190.9,420.6l0.8-0.5c0.7,0.2,1.4,0.2,2.1,0c0.7-0.2,1.4-0.4,2-0.6l-0.7-0.4c-0.8,0.2-0.8,0.5-0.1,0.5
		c-1.6-0.2-3.2-0.1-4.8,0.4C190.4,420.2,190.4,420.5,190.9,420.6z"/>
	<path class="st2" d="M189.3,420.3l0.9-0.3c0,0,0-0.1-0.1-0.1L189.3,420.3L189.3,420.3z"/>
	<path class="st2" d="M215.9,416.7c2-0.2,3.9-0.4,5.8-0.5s3.8-0.2,5.6-0.3c0.3-0.2,0.4-0.4,0.8-0.4c0.3,0.1,0.6,0.2,0.9,0.3h1.6
		l0.6-0.1l0,0c0.3-0.1,0.2-0.3,0-0.4c-0.2-0.1-0.4-0.2-0.6-0.3c0.1,0.1,0.4,0.2,0.6,0.3c0.3,0.1,0.6,0.2,0.9,0.2
		c0.5-0.1,1-0.1,1.5-0.1c-0.5,0.1-1,0.2-1.5,0.1l-0.9,0.2l-0.3,0.1h3.7c0.3,0,0.5-0.1,0.8-0.1c0.9-0.2,1.7-0.3,2.3,0.1h0.7l-0.1-0.1
		l0.2,0.1h2.8c0.6-0.2,1.2-0.5,1.8-0.6l0.6,0.5c0.3-0.3,0.6-0.4,1-0.5c-0.5-0.3-1-0.6-1.4-0.8c-0.6-0.5-1.4,1-2.1,0.1
		c0.8,0.9,1.5-0.6,2.1-0.1c0.4,0.2,0.9,0.5,1.4,0.8c1-0.2,2-0.1,2.9,0.4c-1,0.3-2.1,0.2-2.9-0.4c-0.4,0.1-0.7,0.2-1,0.5l-0.6-0.5
		c-0.6,0.2-1.2,0.4-1.8,0.6l5.5,0.1c12,0.2,23,0,35.5,0.3c6.7,0.2,13.2,0.5,19.6,1s12.4,0.3,18.5,0.2c6.3-0.2,12.6,0.1,18.8,0.7
		c3.2,0.2,6.5,0.1,9.7-0.4c3.6-0.4,7.2-1.1,9.7-1.6c3.2-1.5,3.6-3.1,3.3-4.3c-0.3-0.9-0.9-1.6-1.7-2.1c-1.9-1.1-4.1-1.5-6.2-1.2
		c-3,0.3-5.9,0.3-8.9-0.2c5.4,0.6-3.7,2.7-9,0.5c-7.5-3.2-17.8,0.1-26.9-0.7c-2.3-0.2-4.7,0-7.4,0c-14.1-1-27.2,0.6-42.1,0.6
		c-4,0.1-7.4,1.1-10.7,1.6c-2.4,0.2-5-0.2-7-0.1c-2.8,0.1-5.6,0.5-8.3,1.1c2.9-0.3,4.9-0.7,8.1-0.9c2.1-0.1-1.4,1.3-2.8,1.6
		c-0.6,0.2-1.6-0.8-2.2-0.5c-1.3,0.2-2.6,0.5-3.9,0.9c-0.6,0.2-0.6-0.7-0.9-0.6c-1.9,0.3-3.3,1.6-4.6,1.4c-0.9-0.1-1.8-0.2-2.6-0.3
		c-0.5,0-1.1,0-1.6,0.1l-1,0.3c0.3,0.3,0.5,0.6,0.5,1c-0.5,0-1.2-0.2-1.7-0.2c0.5,0,1.2,0.2,1.7,0.2c-0.1-0.4-0.3-0.7-0.5-1
		c-2.5,0.7-5.4,1.5-8,2.1c0,0,0,0.1,0,0.1c1.6-0.3,3.2-0.2,4.8,0.2c-0.7-0.1-0.7-0.4,0.1-0.5l0.7,0.4c-1.4,0.4-2.8,0.8-4.1,0.2
		l-0.9,0.4c-0.4-0.1-0.5-0.4-0.6-0.6l-0.9,0.2C213.9,416.3,214.9,416.5,215.9,416.7z"/>
	<path class="st2" d="M232.1,415.6c-0.2,0-0.5,0.1-0.8,0.1h3.1C233.6,415.4,232.8,415.3,232.1,415.6z"/>
</g>
<g class="st1">
	<path class="st2" d="M637.8,427.2l-1.7-0.3c0.3,0.1,0.6,0.3,0.8,0.5C637.3,427.5,637.5,427.4,637.8,427.2z"/>
	<path class="st2" d="M634.5,426.6l-0.3-0.1l-0.3,0L634.5,426.6z"/>
	<path class="st2" d="M631.4,426.5c0.5,0.1,1,0.2,1.6,0.1C632.4,426.5,631.9,426.4,631.4,426.5z"/>
	<path class="st2" d="M633.8,427c-0.2-0.2-0.2-0.3,0.1-0.4h-0.9C633.2,426.7,633.5,426.8,633.8,427z"/>
	<path class="st2" d="M633.8,427c0.2,0.2,0.4,0.3,0.5,0.4C634.1,427.3,634,427.1,633.8,427z"/>
	<path class="st2" d="M632.6,430.3c-0.3,0.1-0.1-0.9-0.8-0.7c-1.3,0.2-2.7,0.3-4,0.2c-0.6,0.1-1.5-1-2.1-0.9c-1.5,0.1-5.2,1.1-3,1.2
		c1.6,0.1,2.9,0.1,4.2,0.1s2.5,0.1,4,0.2c2.4-0.1,4.7-0.2,7.1-0.2c0.6,0.1,1.3,0.2,1.9,0.4c-0.8-0.3-1.6-0.6-2.5-0.9
		C636.2,429.3,634.5,430.3,632.6,430.3z"/>
	<path class="st2" d="M650.5,430.4l-1,0.1c-0.6-0.5-1.2-0.8-1.9-1c-0.7-0.1-1.4-0.2-2.2-0.2l0.5,0.6c0.8,0.1,1-0.1,0.3-0.5
		c1.4,0.8,3,1.4,4.6,1.7C650.8,431,650.9,430.7,650.5,430.4z"/>
	<path class="st2" d="M651.8,431.4l-0.9-0.2c0,0,0,0,0,0.1L651.8,431.4L651.8,431.4z"/>
	<path class="st2" d="M624.8,426.6l-11.6-1c-0.3,0.2-0.5,0.4-0.9,0.2c-0.3-0.2-0.6-0.3-0.9-0.4l-1.6-0.1h-0.6l0,0
		c-0.3,0.1-0.2,0.2,0,0.4c0.2,0.1,0.4,0.2,0.5,0.4c-0.1-0.1-0.4-0.2-0.5-0.4c-0.3-0.1-0.6-0.2-0.9-0.3c-0.5,0.1-1,0.1-1.6,0
		c0.5-0.1,1-0.1,1.6,0l0.9-0.1l0.3-0.1l-3.7-0.3c-0.3,0-0.6,0-0.8,0c-0.9,0.1-1.8,0.2-2.3-0.3l-0.7,0l0.1,0.1l-0.2-0.1l-2.8-0.2
		c-0.6,0.2-1.2,0.4-1.9,0.5l-0.6-0.5c-0.3,0.2-0.7,0.4-1.1,0.5c0.5,0.3,1,0.6,1.4,0.8c0.6,0.5,1.4-0.9,2.2,0c-0.7-0.9-1.5,0.5-2.2,0
		c-0.4-0.2-0.9-0.5-1.4-0.8c-1,0.1-2.1-0.1-3-0.5c1-0.3,2.1-0.1,3,0.5c0.4-0.1,0.8-0.2,1.1-0.5l0.6,0.5c0.6-0.1,1.3-0.3,1.9-0.5
		c-1.8-0.2-3.7-0.3-5.6-0.4c-12.2-1-23.5-0.9-36.2-1.4c-6.9-0.3-13.5-0.7-19.9-1.3s-12.6-0.6-18.7-0.9c-6.3-0.1-12.5-1-18.5-2.5
		c-3-0.6-6.1-1.1-9.2-1.5l-2.5-0.3l-2.4-0.4c-1.5-0.2-2.8-0.5-3.9-0.7c-3,0-4.1,1.2-4.4,2.4c-0.2,0.9-0.1,1.8,0.3,2.7
		c1.4,2.3,3.2,3.1,5.4,3.7l3.9,1c1.8,0.5,3.5,1,5.2,1.6c-5.4-1.8,4.3-1.7,9.4,1c3.7,2.1,8.4,2.5,13.2,2.5s9.9-0.4,14.6,0.1
		c2.3,0.3,4.8,0.1,7.6,0.2c14.5,1.4,27.9-0.2,43,0.2c4,0,7.5-0.8,10.9-1.2c2.5-0.1,5.1,0.5,7.1,0.5c2.8,0.1,5.6-0.1,8.5-0.4
		c-2.9,0-5,0.2-8.2,0.2c-2.2,0,1.5-1.2,3-1.4c0.6-0.2,1.5,0.9,2.2,0.7c1.3,0,2.7-0.2,4-0.5c0.6-0.2,0.5,0.8,0.8,0.7
		c1.9-0.1,3.5-1.2,4.7-0.9c0.9,0.2,1.8,0.4,2.6,0.6c0.5,0.1,1,0.2,1.6,0.2l1.1-0.2c-0.2-0.3-0.4-0.6-0.4-1c0.5,0.1,1.2,0.4,1.7,0.5
		c-0.5-0.1-1.2-0.4-1.7-0.5c0,0.4,0.2,0.7,0.4,1c2.6-0.4,5.6-0.6,8.3-0.7V428c-1.6,0-3.3-0.3-4.8-1c0.7,0.3,0.6,0.5-0.2,0.5
		l-0.6-0.5c1.4-0.3,2.9-0.1,4.2,0.5l0.9-0.2c0.4,0.2,0.4,0.5,0.5,0.7h1C626.8,427.4,625.8,427,624.8,426.6z"/>
	<path class="st2" d="M608.3,425.4h0.8l-3.1-0.3C606.5,425.5,607.4,425.4,608.3,425.4z"/>
</g>
</svg>
