<?xml version="1.0" encoding="utf-8"?>
<!-- Generator: Adobe Illustrator 25.0.0, SVG Export Plug-In . SVG Version: 6.00 Build 0)  -->
<svg version="1.1" id="Layer_1" xmlns="http://www.w3.org/2000/svg" xmlns:xlink="http://www.w3.org/1999/xlink" x="0px" y="0px"
	 viewBox="0 0 841.9 841.9" style="enable-background:new 0 0 841.9 841.9;" xml:space="preserve">
<style type="text/css">
	.st0{fill:#FCE2E4;}
	.st1{opacity:0.85;}
	.st2{fill:#131413;}
	.st3{fill:#211F1E;}
	.st4{fill:#1F2020;}
</style>
<rect class="st0" width="841.9" height="841.9"/>
<g class="st1">
	<path class="st2" d="M373.5,460.6l-4.7,1.1c0.8-0.2,1.6-0.3,2.4-0.4C372,461.2,372.8,461,373.5,460.6z"/>
	<path class="st2" d="M364.5,462.8l-0.8,0.2l-0.7,0.2L364.5,462.8z"/>
	<path class="st2" d="M356.3,464.9c1.5-0.3,2.8-0.7,4.1-1C359.3,464.1,357.9,464.5,356.3,464.9z"/>
	<path class="st2" d="M362.9,463.5c-0.5,0-0.8,0,0-0.2l0,0l-2.5,0.7C361.4,463.7,362.2,463.6,362.9,463.5z"/>
	<path class="st2" d="M362.9,463.5l1.6-0.2C364,463.3,363.4,463.4,362.9,463.5z"/>
	<path class="st2" d="M361.2,465.6c-0.8,0.3-0.7-0.3-2.3,0.2c-3.8,1.1-7,2.1-10.6,3c-1.6,0.5-4.3,0.6-5.9,1.1
		c-3.8,1.1-13.4,4.1-7.7,2.7l22-5.7l18.7-5.2c1.8-0.5,3.5-0.9,5.2-1.2l-7.1,1.5C370.2,462.6,366.4,464.2,361.2,465.6z"/>
	<path class="st2" d="M408.1,452.4l-2.4,0.8c-3.8,0.7-7.6,1.6-11.3,2.7l1.8-0.2c2.2-0.6,2.4-0.8,0.4-0.4c4.5-0.8,8.7-1.8,13-2.9
		C409.3,452.3,409.3,452.2,408.1,452.4z"/>
	<path class="st2" d="M412.1,451.7l-2.5,0.7h0.1l2.5-0.7L412.1,451.7z"/>
	<path class="st2" d="M339.1,469.6l-31.1,7.6c-0.7,0.3-1.5,0.6-2.3,0.7c-0.8,0.1-1.6,0.2-2.4,0.4l-4.4,1l-1.5,0.4h0
		c-0.8,0.2-0.5,0.3,0,0.2s1.1-0.2,1.6-0.2l-1.6,0.2c-0.7,0.1-1.5,0.2-2.4,0.4c-1.3,0.4-2.7,0.7-4.1,1c1.6-0.5,3-0.8,4.1-1l2.5-0.7
		l0.7-0.2l-10,2.4l-2.1,0.5c-2.1,0.6-4.2,1.1-6.3,1.4l-1.8,0.4h0.4l-0.7,0.1l-7.5,1.8c-1.6,0.5-3.3,1-4.9,1.5l-1.7,0.2
		c-0.9,0.4-1.8,0.7-2.8,0.9c1.4-0.2,2.7-0.3,3.8-0.5c1.7-0.2,3.6-1.4,5.8-1.5c-2.1,0-4,1.3-5.8,1.5c-1.2,0.2-2.5,0.3-3.8,0.5
		c-2.6,0.7-5.3,1.3-8,1.7c2.6-0.8,5.3-1.4,8-1.7c0.9-0.3,1.9-0.6,2.8-0.9l1.7-0.2c1.7-0.5,3.3-1,4.9-1.5l-15,3.6
		c-16.3,3.9-32,7.7-47.9,11.5l-24,5.8l-12.3,3c-2.1,0.5-4.1,1-6.2,1.5c-1,0.2-2.1,0.5-3.1,0.6s-2.1,0.3-3.2,0.4
		c-4.6,0.4-9.1,0.1-13.6-0.8c-4.4-1-8.5-2.6-12.4-4.8c-15.3-8.6-24.3-25.2-23.1-42.7c0.1-2,0.4-4.1,0.8-6.1c0.4-2,0.9-4.2,1.3-6.2
		c0.9-4.2,1.8-8.3,2.7-12.5c3.6-16.6,7.3-33.3,11.7-50.7c3.3-13.4,8.4-38.4,11.1-51.4c2.9-17.5-1-9-1.3-8.2
		c-4,10.3-4.8,18.9-10.5,40.4c3.8-14.7-1.2,11.2-5.4,24.9c-3.1,9.9-5.8,22.2-8.5,35.1c-1.3,6.5-2.7,13-4,19.6
		c-0.3,1.6-0.7,3.3-1,4.9l-0.5,2.4c-0.2,0.9-0.3,1.7-0.5,2.6c-0.5,3.4-0.8,6.8-0.7,10.3c0.3,7.4,2.3,14.6,5.8,21.1
		c2.4,4.6,5.6,8.8,9.3,12.4c3.7,3.6,8,6.6,12.6,8.9c4.6,2.3,9.6,3.8,14.7,4.5c5.1,0.7,10.3,0.6,15.4-0.3c1.3-0.2,2.5-0.5,3.8-0.8
		l3.5-0.9l7.1-1.8l14.3-3.6c9.6-2.4,19.4-4.9,29.6-7.3c10.7-2.6,20-5.4,29-7.9c6.6-1.7,13.7-3.2,19-4.5c8.4-2.1,15.6-4,22.5-5.9
		l-22,5.7c-5.8,1.5,3.9-1.6,7.6-2.7c1.6-0.5,4.3-0.6,5.9-1.1c3.5-0.9,6.8-1.9,10.5-3c1.6-0.5,1.5,0,2.4-0.2c5.2-1.4,9-3,12.4-3.7
		l7.1-1.5c1.4-0.3,2.8-0.6,4.3-1l2.8-0.8c-0.5,0.1-1,0-1.4-0.2l4.7-1l-4.7,1c0.4,0.2,0.9,0.2,1.4,0.2c6.8-2,14.6-4.1,21.9-6.2h-0.1
		c-4.3,1.1-8.5,2.1-13,2.9c2-0.4,1.8-0.2-0.4,0.4l-1.7,0.2c3.7-1.1,7.5-2,11.3-2.7l2.4-0.8c1.2-0.2,1.2-0.1,1.5,0l2.5-0.7
		C344.8,468.5,339.1,469.6,339.1,469.6z"/>
	<path class="st2" d="M295,480.5l2-0.5l-8.4,2C290.8,481.7,292.9,481.2,295,480.5z"/>
</g>
<g class="st1">
	<path class="st3" d="M116.9,474.6c0.2-0.1,0.4-0.2,0.6-0.3c-0.1,0-0.2,0-0.4,0C117,474.3,117,474.5,116.9,474.6z"/>
	<path class="st3" d="M118,474l0.1,0l0.1-0.1L118,474z"/>
	<path class="st3" d="M119,473.4c-0.2,0.1-0.4,0.1-0.5,0.2C118.7,473.6,118.8,473.6,119,473.4z"/>
	<path class="st3" d="M118.1,473.7c0.1,0,0.2,0.1,0.1,0.2l0,0c0.1-0.1,0.2-0.1,0.3-0.2C118.4,473.7,118.3,473.7,118.1,473.7z"/>
	<path class="st3" d="M118.1,473.7c-0.1,0-0.2,0-0.3-0.1C118,473.7,118,473.7,118.1,473.7z"/>
	<path class="st3" d="M117.7,472c0.1-0.1,0.3,0.4,0.5,0.2c0.5-0.4,1-0.7,1.6-0.8c0.2-0.2,0.8,0.3,1,0.1c0.6-0.2,2.2-0.9,1.2-0.9
		c-1.3,0.1-2.5,0.5-3.6,1c-0.9,0.5-1.8,1.2-2.5,2c-0.2,0.2-0.5,0.3-0.7,0.5c0.3-0.2,0.7-0.3,1-0.5s0.4-0.3,0.7-0.6
		C117.1,472.5,117.4,472.2,117.7,472z"/>
	<path class="st3" d="M113.6,478.2c0-0.1,0-0.4,0-0.4c0.6-0.3,0.7-0.8,0.9-1.4l-0.3,0.1c-0.2,0.3-0.1,0.4,0.2,0.2
		c-0.6,0.4-1,0.9-1.2,1.5C113.4,478.2,113.5,478.3,113.6,478.2z"/>
	<path class="st3" d="M113.1,478.6l0.1-0.4l0,0L113.1,478.6L113.1,478.6z"/>
	<path class="st3" d="M121.4,472.5c1.5-0.2,3.1-0.1,4.6,0.3c0.1-0.1,0.2-0.2,0.4-0.1c0.1,0.1,0.2,0.2,0.3,0.2l0.6,0.2h0.2
		c0.1,0,0.1-0.1,0-0.2s-0.1-0.1-0.2-0.2c0.1,0.1,0.1,0.1,0.2,0.2c0.1,0.1,0.2,0.2,0.3,0.2c0.2,0,0.4,0.1,0.6,0.1
		c-0.2,0-0.4,0-0.6-0.1h-0.4h-0.1c0.5,0.1,1,0.3,1.4,0.4h0.3c0.4,0,0.7,0.1,0.9,0.4l0.2,0.1v0c0,0,0.1,0,0.1,0.1l1,0.4
		c0.3,0,0.5,0,0.8,0l0.1,0.3c0.1-0.1,0.3-0.1,0.5-0.1c-0.1-0.2-0.2-0.4-0.4-0.6c-0.2-0.3-0.7,0.2-0.8-0.3c0.1,0.5,0.7,0,0.8,0.3
		c0.1,0.2,0.3,0.4,0.4,0.6c0.4,0.1,0.8,0.3,1,0.6c-0.4,0-0.8-0.3-1-0.6c-0.2,0-0.3,0-0.5,0.1l-0.1-0.3c-0.3,0-0.5,0-0.8,0
		c0.7,0.3,1.4,0.6,2,0.9c2.2,1,4.3,2.1,6.3,3.3c2.1,1.1,4.1,2.4,5.8,4c1.8,1.8,3.2,3.9,4.2,6.3c1,2.1,1.7,4.4,2.3,6.6
		c0.5,2.3,0.5,4.7-0.1,7c-0.3,0.9-0.4,2.1-0.6,3.4c-0.1,0.6-0.2,1.2-0.4,1.8c-0.1,0.5-0.2,1-0.4,1.5c-0.1,0.8,0.3,1.7,1.1,2
		c0.4,0.2,0.9,0.2,1.3,0.1c0.9-0.3,1.6-1.1,1.9-2c0.2-0.5,0.3-1,0.6-1.5c0.2-0.7,0.5-1.4,0.9-2.1c-0.5,1.1-0.7,0.6-0.6-0.3
		c0.1-1.3,0.4-2.5,0.9-3.6c0.2-0.4,0.4-0.8,0.5-1.3c0.1-0.5,0.2-0.9,0.2-1.4c0-1-0.1-2-0.3-3c-0.2-1-0.6-2-0.9-3.1s-0.7-2-1-3
		c-0.4-1-0.8-2-1.4-3c-1.3-2.9-3.3-5.5-5.8-7.5l-1.9-1.4c-0.7-0.4-1.4-0.8-2.1-1.2c-1.4-0.8-2.7-1.4-4.1-2.1c-1.4-0.6-2.9-1-4.4-1.3
		c-1-0.3-1.9-0.9-2.7-1.2c-1.1-0.4-2.3-0.6-3.5-0.7c1.2,0.2,2.3,0.4,3.4,0.8c0.9,0.3-0.8,0.4-1.4,0.3c-0.3,0-0.5-0.6-0.8-0.6
		c-0.6-0.1-1.1-0.1-1.7-0.1c-0.3,0-0.1-0.4-0.3-0.4c-0.8-0.1-1.6,0.4-2.1,0.2s-0.7-0.3-1.1-0.4c-0.2-0.1-0.4-0.1-0.7-0.1l-0.5,0.1
		c0.1,0.2,0.2,0.3,0.2,0.5c-0.2,0-0.5-0.2-0.7-0.2c0.2,0,0.5,0.2,0.7,0.2c0-0.2-0.1-0.4-0.2-0.5c-1.2,0.2-2.3,0.5-3.5,0.9l0,0
		c0.7-0.2,1.4-0.1,2,0.1c-0.3-0.1-0.3-0.2,0.1-0.3l0.2,0.2c-0.6,0.2-1.2,0.2-1.7,0l-0.3,0.2c-0.2,0-0.2-0.2-0.3-0.3l-0.4,0.1
		C120.5,472.3,121,472.4,121.4,472.5z"/>
	<path class="st3" d="M127.9,473.1h-0.3c0.4,0.1,0.8,0.2,1.2,0.4C128.7,473.1,128.3,473.1,127.9,473.1z"/>
</g>
<path class="st4" d="M130.8,498.1c-4.2-0.9-6.8-5-5.9-9.2c0,0,0,0,0,0c0.9-4.2,4-4,8.1-3.1s7.9,2.2,7,6.4
	C139.2,496.4,135.1,499.1,130.8,498.1C130.9,498.2,130.9,498.2,130.8,498.1z"/>
<g class="st1">
	<path class="st3" d="M134.6,498.4c0.2,0,0.3-0.1,0.4-0.1h-0.2C134.7,498.2,134.7,498.3,134.6,498.4z"/>
	<polygon class="st3" points="135.5,498.1 135.6,498.1 135.6,498 	"/>
	<path class="st3" d="M136.2,497.7l-0.4,0.2C136,497.8,136.1,497.8,136.2,497.7z"/>
	<path class="st3" d="M135.6,497.9c0.1,0,0.1,0,0,0.1l0,0l0.2-0.1C135.7,497.9,135.7,497.9,135.6,497.9z"/>
	<path class="st3" d="M135.6,497.9L135.6,497.9z"/>
	<path class="st3" d="M135.4,497.1c0.1-0.1,0.1,0.2,0.2,0.1c0.3-0.2,0.5-0.5,0.7-0.6c0.1-0.1,0.4,0,0.5-0.2s0.6-1.1,0.3-0.7
		c-0.4,0.5-0.9,0.9-1.5,1.2c-0.4,0.4-0.9,0.6-1.5,0.9c-0.2,0-0.3,0.1-0.5,0.1h0.7C134.8,497.7,135,497.3,135.4,497.1z"/>
	<path class="st3" d="M131.2,498.4h0.2c0.3,0.2,0.7,0.2,1.1,0.1l-0.2-0.1c-0.2,0-0.2,0.1,0,0.1c-0.4-0.1-0.8-0.2-1.2-0.3
		C131.1,498.3,131.1,498.4,131.2,498.4z"/>
	<path class="st3" d="M130.9,498.2h0.2l0,0H130.9z"/>
	<path class="st3" d="M137.5,496.6c0.8-0.7,1.4-1.4,1.9-2.3c0-0.1,0-0.2,0-0.2c0.1,0,0.1-0.1,0.2-0.2c0.1-0.1,0.1-0.3,0.2-0.4v-0.1
		l0,0c0-0.1,0-0.1-0.1,0l-0.1,0.1l0.1-0.1c0.1-0.1,0.1-0.1,0.1-0.2c0-0.1,0.1-0.3,0.1-0.4c0,0.1,0,0.3-0.1,0.4l-0.1,0.2v0.1
		c0.1-0.3,0.2-0.6,0.3-0.9v-0.2c0-0.2,0-0.4,0.1-0.6v-0.2l0,0v-0.1c0-0.2,0-0.5,0-0.8c-0.1-0.2-0.1-0.3-0.2-0.5c0,0,0.1-0.1,0.1-0.2
		c-0.1-0.1-0.2-0.1-0.2-0.2c0,0.1-0.1,0.3-0.1,0.4s0.3,0.3,0.1,0.5c0.2-0.2-0.2-0.4-0.1-0.5s0.1-0.2,0.1-0.4
		c-0.1-0.2-0.2-0.5-0.2-0.8c0.2,0.2,0.3,0.5,0.2,0.8c0,0.1,0.1,0.2,0.2,0.2c0,0.1-0.1,0.2-0.1,0.2c0.1,0.2,0.1,0.3,0.2,0.5
		c0-0.5-0.1-1-0.3-1.5c-0.4-0.8-0.9-1.4-1.6-1.9c-0.7-0.4-1.4-0.8-2.1-1.1c-1.5-0.5-3-0.9-4.6-1.2c-0.9-0.2-1.8-0.3-2.7-0.4
		c-1-0.1-2,0.2-2.8,0.7c-0.9,0.5-1.5,1.3-1.8,2.3c-0.3,0.8-0.5,1.7-0.6,2.6c-0.1,1.9,0.3,3.7,1.1,5.4c0.5,0.9,1.1,1.6,1.9,2.2
		c0.8,0.6,1.6,1.1,2.6,1.4c1,0.1,1.3-0.2,1.4-0.5c0-0.2,0-0.5-0.2-0.7c-0.3-0.4-0.7-0.8-1.2-1.1c-0.6-0.3-1.2-0.8-1.6-1.5
		c0.3,0.5,0.1,0.5-0.3,0.1c-0.5-0.5-0.9-1.1-0.9-1.8c0-1-0.3-1.8-0.4-2.9c-0.1-0.5-0.1-1,0-1.5c0.1-0.5,0.2-1,0.4-1.4
		c0.2-0.4,0.5-0.7,0.8-0.9c0.9-0.5,2.5-0.4,4.2-0.1c1.7,0.2,3.4,0.6,5,1.3c0.7,0.3,1.3,0.6,1.9,1c0.3,0.4,0.4,0.8,0.4,1.2
		c0.1,0.6,0.1,1.2,0,1.8c0.1-0.6,0.1-1.2,0.1-1.7c-0.1-0.4,0.4,0.2,0.4,0.6c0.1,0.1-0.2,0.3-0.2,0.5s0,0.6,0,0.9
		c0,0.1-0.2,0.1-0.2,0.1c-0.1,0.4,0,0.9-0.2,1.1c-0.1,0.2-0.3,0.3-0.4,0.5c-0.1,0.1-0.2,0.2-0.2,0.3l-0.1,0.2c0.1,0,0.2,0,0.3,0.1
		c-0.1,0.1-0.2,0.2-0.3,0.3c0.1-0.1,0.2-0.2,0.3-0.3c-0.1,0-0.2-0.1-0.3-0.1c-0.3,0.6-0.7,1.2-1.2,1.7l0,0c0.3-0.3,0.6-0.5,1-0.7
		c-0.2,0.1-0.2,0-0.1-0.1h0.2c-0.2,0.3-0.5,0.6-0.8,0.7c0,0-0.1,0.1-0.1,0.2s-0.1,0-0.2-0.1l-0.2,0.1c0.2,0,0.3,0,0.4-0.1
		C137.2,496.7,137.3,496.6,137.5,496.6z"/>
	<path class="st3" d="M139.9,493.1c0,0,0,0.1-0.1,0.2c0.1-0.2,0.2-0.5,0.3-0.8C139.9,492.6,139.9,492.8,139.9,493.1z"/>
</g>
<g class="st1">
	<path class="st2" d="M470.7,463.7l4.7,1.2c-0.8-0.2-1.5-0.5-2.3-0.8C472.3,463.9,471.5,463.7,470.7,463.7z"/>
	<path class="st2" d="M479.7,465.9l0.8,0.2l0.7,0.1L479.7,465.9z"/>
	<path class="st2" d="M487.9,467.8c-1.4-0.4-2.8-0.7-4.2-1C484.9,467.1,486.3,467.5,487.9,467.8z"/>
	<path class="st2" d="M481.5,466.1c0.5,0.2,0.7,0.3-0.1,0.2l0,0l2.5,0.5C482.9,466.6,482.1,466.3,481.5,466.1z"/>
	<path class="st2" d="M481.5,466.1l-1.5-0.5C480.4,465.7,480.9,465.9,481.5,466.1z"/>
	<path class="st2" d="M483.9,465c0.8,0.1,0.5,0.6,2.2,0.9c3.9,0.8,7.2,1.4,10.8,2.3c1.6,0.3,4.1,1.4,5.7,1.7c3.9,0.8,13.8,2.6,8,1.2
		l-22.2-5.2l-19-4.1c-1.8-0.4-3.5-0.9-5.2-1.3l7,1.9C474.5,463.4,478.7,463.8,483.9,465z"/>
	<path class="st2" d="M436.3,454.9l2.5,0.4c3.7,1.2,7.4,2.1,11.2,2.9l-1.6-0.6c-2.2-0.5-2.5-0.4-0.6,0.1c-4.4-1.4-8.6-2.5-12.9-3.5
		C435.2,454.4,435.1,454.5,436.3,454.9z"/>
	<path class="st2" d="M432.4,453.6l2.5,0.6c0,0,0,0-0.1-0.1L432.4,453.6L432.4,453.6z"/>
	<path class="st2" d="M505.3,471.7l31,7.7c0.8,0.1,1.6,0.2,2.4,0.4c0.8,0.3,1.5,0.5,2.3,0.7l4.3,1.1l1.5,0.3l0,0
		c0.8,0.1,0.6,0,0.1-0.2s-1.1-0.4-1.5-0.5l1.5,0.5c0.7,0.2,1.4,0.5,2.3,0.7c1.3,0.3,2.7,0.6,4.2,1c-1.6-0.3-3-0.7-4.2-1l-2.5-0.5
		l-0.7-0.1l9.9,2.5l2.1,0.5c2.1,0.4,4.2,0.9,6.2,1.6l1.8,0.5l-0.3-0.1l0.7,0.2l7.5,1.9c1.7,0.3,3.3,0.6,5,1l1.6,0.6
		c1,0.1,1.9,0.2,2.9,0.5c-1.3-0.5-2.5-0.9-3.7-1.3c-1.6-0.6-3.9-0.5-5.8-1.4c1.9,0.9,4.1,0.8,5.8,1.4c1.1,0.4,2.3,0.8,3.7,1.3
		c2.7,0.6,5.3,1.3,7.9,2.2c-2.7-0.5-5.3-1.2-7.9-2.2c-0.9-0.2-1.9-0.4-2.9-0.5l-1.6-0.6c-1.7-0.4-3.4-0.6-5-1l14.9,3.8
		c16.3,4.2,31.9,8.1,47.8,12l23.9,6l12.2,3.1l6.2,1.6c1.1,0.2,2.2,0.5,3.2,0.7s2.2,0.4,3.3,0.5c4.8,0.5,9.6,0.3,14.3-0.6
		c4.6-0.9,9.1-2.5,13.3-4.8c8.2-4.4,15.1-11.1,19.7-19.2c4.5-7.9,6.6-17,6-26.1c-0.1-2.2-0.4-4.4-0.8-6.6c-0.4-2.1-0.9-4.2-1.3-6.3
		l-2.6-12.5c-3.5-16.6-6.9-33.3-10.1-51c-2.5-13.5-8-38.5-10.8-51.4c-4.5-17.2-4.6-7.8-4.5-6.9c0.6,11,3.3,19.2,7,41.2
		c-2.6-15,3.5,10.7,5.3,25c1.3,10.3,3.8,22.6,6.6,35.5c1.4,6.4,2.9,13,4.3,19.5c0.4,1.6,0.7,3.3,1.1,4.9c0.2,0.8,0.3,1.6,0.5,2.4
		s0.3,1.5,0.4,2.3c0.5,3,0.6,6.1,0.4,9.2c-0.4,6.5-2.2,12.9-5.3,18.7c-2.3,4-5.2,7.7-8.5,10.8c-3.3,3.1-7.1,5.7-11.2,7.7
		c-4.1,2-8.4,3.3-12.9,4c-4.5,0.6-9,0.6-13.5-0.1c-1.1-0.2-2.2-0.4-3.3-0.7l-3.5-0.9l-7.1-1.7l-14.4-3.5c-9.6-2.3-19.5-4.7-29.6-7.2
		c-10.7-2.6-20.2-4.5-29.3-6.5c-6.6-1.5-13.6-3.5-19-4.8c-8.4-2.1-15.7-3.7-22.7-5.2l22.2,5.1c5.8,1.4-4.2-0.4-8-1.2
		c-1.7-0.3-4.1-1.4-5.8-1.7c-3.6-0.9-6.9-1.5-10.7-2.3c-1.7-0.3-1.4-0.7-2.2-0.9c-5.2-1.2-9.4-1.6-12.7-2.5l-7-1.9
		c-1.4-0.4-2.8-0.7-4.3-1.1l-2.9-0.6c0.4,0.2,0.8,0.4,1.2,0.8l-4.5-1.3l4.7,1.3c-0.3-0.4-0.7-0.6-1.2-0.8
		c-6.9-1.4-14.9-3.1-22.3-4.7l0.1,0.1c4.3,1,8.5,2.1,12.9,3.5c-1.9-0.6-1.6-0.6,0.6-0.1l1.6,0.6c-3.8-0.7-7.6-1.7-11.3-2.8l-2.5-0.5
		c-1.2-0.4-1.1-0.5-1.3-0.7l-2.6-0.6C499.8,470,505.3,471.7,505.3,471.7z"/>
	<path class="st2" d="M549.5,482.5l-2.1-0.5l8.3,2.1C553.7,483.5,551.6,482.9,549.5,482.5z"/>
</g>
<g class="st1">
	<path class="st3" d="M728.4,475.2l-0.6-0.4c0.1,0.1,0.2,0.2,0.2,0.4C728.1,475.3,728.2,475.2,728.4,475.2z"/>
	<path class="st3" d="M727.1,474.5l-0.1-0.1h-0.1L727.1,474.5z"/>
	<path class="st3" d="M725.9,474.1c0.2,0.1,0.4,0.2,0.6,0.2C726.3,474.2,726.1,474.1,725.9,474.1z"/>
	<path class="st3" d="M726.8,474.6c0-0.1,0-0.2,0.1-0.2l0,0l-0.4-0.1C726.6,474.3,726.7,474.4,726.8,474.6z"/>
	<path class="st3" d="M726.8,474.6c0,0.1,0.1,0.2,0.1,0.3C726.9,474.7,726.9,474.6,726.8,474.6z"/>
	<path class="st3" d="M725.8,476c-0.1,0,0.1-0.4-0.2-0.4c-0.5-0.1-1,0-1.5-0.1c-0.2,0.1-0.5-0.5-0.7-0.5c-0.6,0-1.9,0.6-1.1,0.6
		c1,0,1.9,0,2.9,0.2c0.9,0.1,1.7,0.3,2.5,0.6c0.2,0.1,0.4,0.3,0.5,0.5c-0.2-0.3-0.4-0.5-0.6-0.8c-0.2-0.2-0.5-0.3-0.8-0.2
		C726.5,476.1,726.2,476.1,725.8,476z"/>
	<path class="st3" d="M731.6,479.6l-0.3-0.3c0-0.6-0.3-1.2-0.8-1.5v0.4c0.2,0.2,0.3,0.2,0.3-0.1c0.1,0.7,0.4,1.3,0.7,1.9
		C731.5,479.9,731.6,479.8,731.6,479.6z"/>
	<path class="st3" d="M731.5,480.3l-0.2-0.3l0,0L731.5,480.3L731.5,480.3z"/>
	<path class="st3" d="M723.2,473.9c-1.6-0.1-3.1-0.1-4.7,0.1c-0.1,0.1-0.2,0.2-0.3,0.2c-0.1-0.1-0.2-0.1-0.4-0.1l-0.7,0.1
		c-0.1,0-0.2,0.1-0.2,0.1l0,0c-0.1,0.1,0,0.1,0,0.2c0.1,0,0.2,0.1,0.3,0.1c0,0-0.2-0.1-0.3-0.1c-0.1,0-0.3-0.1-0.4,0
		c-0.2,0.1-0.4,0.1-0.6,0.2c0.2-0.1,0.4-0.2,0.6-0.2l0.3-0.1l0.1-0.1c-0.5,0.1-1,0.2-1.5,0.3l-0.3,0.1c-0.3,0.1-0.7,0.3-0.9,0.2
		L714,475h0.1H714l-1.1,0.3c-0.2,0.2-0.4,0.4-0.6,0.5l-0.3-0.1c-0.1,0.2-0.2,0.3-0.3,0.4c0.2,0.1,0.5,0.1,0.7,0.2s0.4-0.6,0.8-0.3
		c-0.4-0.3-0.5,0.5-0.8,0.3s-0.4-0.1-0.7-0.2c-0.4,0.2-0.8,0.3-1.2,0.2c0.3-0.3,0.8-0.4,1.2-0.2c0.1-0.1,0.3-0.2,0.3-0.4l0.3,0.1
		c0.2-0.1,0.4-0.4,0.6-0.5c-0.7,0.2-1.4,0.4-2.2,0.7c-2.3,0.8-4.5,1.7-6.7,2.8c-2.3,1.1-4.4,2.4-6.4,4c-2.2,1.8-4.1,3.9-5.7,6.2
		c-1.5,2.2-2.6,4.7-3.2,7.4c-0.7,2.6-1.1,5.2-1.7,8.1c-0.1,1.4-0.1,2.9,0.2,4.3c0.1,0.8,0.3,1.5,0.6,2.3c0.2,0.6,0.4,1.2,0.6,1.9
		c0.9,1.2,1.7,1.3,2.2,1c0.4-0.2,0.8-0.5,1-0.9c0.4-0.8,0.5-1.7,0.3-2.6c-0.1-0.4-0.2-0.9-0.2-1.5c0-0.7,0-1.3,0.1-2
		c-0.1,1.1-0.5,0.7-0.7-0.1c-0.2-1.1,0-2.3,0.5-3.3c0.2-0.3,0.4-0.7,0.5-1.1c0.2-0.4,0.3-0.8,0.4-1.1c0.2-0.8,0.3-1.6,0.4-2.5
		s0.3-1.7,0.5-2.6c0.2-0.8,0.6-1.7,1-2.4c0.5-0.7,0.7-1.6,1.3-2.4c1.4-2,3-3.9,4.8-5.7l1.4-1.2c0.5-0.4,1-0.7,1.5-1.1
		c1.2-0.7,2.5-1.4,3.8-2c1.2-0.7,2.4-1.5,3.5-2.4c0.8-0.4,1.7-0.6,2.6-0.9c1-0.4,2-0.8,3-1.3c-1,0.4-1.8,0.7-2.9,1.2
		c-0.8,0.3,0.3-0.8,0.8-1.1c0.2-0.2,0.7,0.2,0.9,0c0.5-0.2,0.9-0.4,1.4-0.7c0.2-0.2,0.3,0.3,0.4,0.2c0.7-0.3,1.1-1,1.6-0.9
		s0.7,0,1,0.1c0.2,0,0.4,0,0.6,0l0.4-0.1c-0.1-0.1-0.2-0.3-0.2-0.5c0.2,0,0.5,0.1,0.7,0.1c-0.2,0-0.5-0.1-0.7-0.1
		c0,0.2,0.1,0.4,0.2,0.5c1-0.4,2.1-0.6,3.2-0.6l0,0c-0.6,0-1.3-0.2-1.9-0.5c0.3,0.1,0.2,0.2-0.1,0.3l-0.2-0.2
		c0.5-0.2,1.2-0.2,1.7,0.2l0.4-0.1c0.2,0.1,0.1,0.2,0.2,0.4h0.4C724,474.4,723.6,474.1,723.2,473.9z"/>
	<path class="st3" d="M716.5,474.5l0.3-0.1c-0.4,0.1-0.8,0.1-1.2,0.2C715.8,474.8,716.2,474.7,716.5,474.5z"/>
</g>
<path class="st4" d="M713.7,499.9c4.2-0.9,6.8-5,5.9-9.2c0,0,0,0,0,0c-0.9-4.2-4-4-8.1-3.1s-7.9,2.2-7,6.4
	C705.4,498.1,709.5,500.8,713.7,499.9C713.7,499.9,713.7,499.9,713.7,499.9z"/>
<g class="st1">
	<path class="st3" d="M710.1,499.5c-0.1,0-0.3-0.1-0.4-0.1c0.1,0,0.1,0.1,0.2,0.1C710,499.5,710,499.5,710.1,499.5z"/>
	<path class="st3" d="M709.3,499.2L709.3,499.2h-0.1H709.3z"/>
	<path class="st3" d="M708.6,498.9c0.1,0.1,0.2,0.1,0.4,0.1C708.9,499,708.7,499,708.6,498.9z"/>
	<path class="st3" d="M709.1,499.2C709.1,499.2,709.1,499.1,709.1,499.2L709.1,499.2l-0.2-0.1L709.1,499.2z"/>
	<path class="st3" d="M709.1,499.2c0,0.1,0.1,0.1,0.1,0.1L709.1,499.2z"/>
	<path class="st3" d="M708.6,499.9c-0.1,0,0-0.2-0.1-0.2c-0.4-0.1-0.7-0.2-1-0.4c-0.2,0-0.2-0.4-0.4-0.5c-0.3-0.2-1.3-0.7-0.9-0.2
		c0.6,0.5,1.3,0.9,2,1.2c0.6,0.2,1.3,0.4,1.9,0.4c0.2,0,0.3,0.1,0.5,0.1l-0.7-0.3C709.6,499.9,709.1,500.1,708.6,499.9z"/>
	<path class="st3" d="M713.3,499.8l-0.2,0.1c-0.4-0.1-0.7-0.1-1.1,0l0.2,0.1c0.2,0,0.2-0.1,0-0.1c0.4,0.1,0.8,0.1,1.2,0
		C713.4,499.9,713.4,499.8,713.3,499.8z"/>
	<path class="st3" d="M713.7,499.9l-0.2,0.1l0,0L713.7,499.9L713.7,499.9z"/>
	<path class="st3" d="M707.2,498.2c-0.8-0.6-1.4-1.4-1.8-2.3c-0.1,0-0.1-0.1-0.2-0.2c0-0.1,0-0.2,0-0.2c-0.1-0.1-0.1-0.3-0.2-0.4
		l-0.1-0.1l0,0c0-0.1-0.1,0-0.1,0c0,0.1,0,0.1,0,0.2c0-0.1,0-0.1,0-0.2c0-0.1,0-0.2,0-0.2c-0.1-0.1-0.1-0.2-0.1-0.4
		c0.1,0.1,0.1,0.2,0.1,0.4l0.1,0.2l0,0.1c-0.1-0.3-0.2-0.6-0.2-0.9l-0.1-0.2c-0.1-0.2-0.1-0.4,0-0.6s0-0.1,0-0.2l0,0c0,0,0,0,0-0.1
		c0-0.2,0-0.5,0-0.7c0-0.2-0.1-0.3-0.1-0.5l0.2-0.1c0-0.1,0-0.2,0-0.3c-0.1,0.1-0.2,0.2-0.3,0.3c-0.2,0.1,0.2,0.4-0.1,0.6
		c0.2-0.2-0.1-0.4,0.1-0.6c0.1-0.1,0.2-0.2,0.3-0.3c0-0.3,0.2-0.5,0.4-0.6c0,0.3-0.2,0.5-0.4,0.6c0,0.1,0,0.2,0,0.3l-0.2,0.1
		c0,0.2,0,0.3,0.1,0.5c0.1-0.4,0.2-0.9,0.4-1.3c0.8-1.2,2.1-2,3.5-2.4c1.5-0.5,3-0.8,4.5-1c1.7-0.2,3.5-0.2,4.4,0.6
		c0.9,1,1.4,2.3,1.3,3.6c0.1,1.4-0.5,2.8-1.5,3.8c-0.5,0.5-0.9,0.9-1.5,1.4c-0.5,0.4-1.1,0.8-1.7,1c-0.6,0.4-0.7,0.8-0.6,1.1
		c0.1,0.2,0.2,0.4,0.4,0.5c0.5,0.3,1.2,0.3,1.7,0c0.8-0.3,1.6-0.7,2.3-1.2c-0.7,0.4-0.5,0.1-0.1-0.4s1.2-1.2,1.8-1.7
		c1-0.9,1.6-2.2,1.5-3.6c0-0.7,0-1.5-0.2-2.2c-0.1-0.7-0.4-1.4-0.6-2.1c-0.3-0.8-0.9-1.5-1.7-2c-1-0.7-2.2-1.1-3.4-1.1
		c-1,0-2,0.1-3,0.3c-2,0.4-3.9,1-5.7,1.7c-1,0.5-1.9,1.3-2.4,2.4c-0.5,0.6-0.8,1.4-0.9,2.2c-0.1,0.9,0,1.7,0.4,2.5
		c-0.3-0.8-0.4-1.6-0.4-2.5c0.1-0.7,0.2,0.5,0.3,0.9c0,0.2-0.2,0.5-0.1,0.6c0.1,0.4,0.2,0.7,0.4,1.1c0.1,0.1-0.1,0.2-0.1,0.3
		c0.2,0.5,0.7,0.8,0.8,1.1s0.2,0.5,0.3,0.7c0.1,0.1,0.1,0.3,0.2,0.4l0.2,0.2c0-0.1,0.1-0.2,0.1-0.3c0.1,0.1,0.2,0.3,0.2,0.4
		c-0.1-0.1-0.2-0.3-0.2-0.4c-0.1,0.1-0.1,0.2-0.1,0.3c0.6,0.5,1.2,0.9,1.8,1.3l0,0c-0.4-0.2-0.7-0.5-0.9-0.9c0.1,0.2,0,0.2-0.1,0.1
		v-0.2c0.3,0.2,0.6,0.5,0.8,0.8l0.2,0.1c0.1,0.1,0,0.2,0,0.2l0.2,0.1c-0.1-0.1-0.1-0.3-0.2-0.4L707.2,498.2z"/>
	<path class="st3" d="M704.8,494.8l0.1,0.2c-0.1-0.3-0.2-0.5-0.2-0.8C704.7,494.4,704.7,494.6,704.8,494.8z"/>
</g>
</svg>
