<?xml version="1.0" encoding="utf-8"?>
<!-- Generator: Adobe Illustrator 25.0.0, SVG Export Plug-In . SVG Version: 6.00 Build 0)  -->
<svg version="1.1" id="Layer_1" xmlns="http://www.w3.org/2000/svg" xmlns:xlink="http://www.w3.org/1999/xlink" x="0px" y="0px"
	 viewBox="0 0 841.9 841.9" style="enable-background:new 0 0 841.9 841.9;" xml:space="preserve">
<style type="text/css">
	.st0{fill:#F5D0C6;}
	.st1{opacity:0.85;}
	.st2{fill:#211F1E;}
	.st3{fill:#1F2020;}
</style>
<rect x="-0.1" class="st0" width="841.9" height="841.9"/>
<g class="st1">
	<path class="st2" d="M246.5,562.4l-0.6-0.4c0.1,0.1,0.1,0.3,0.2,0.5C246.2,562.7,246.4,562.5,246.5,562.4z"/>
	<path class="st2" d="M245.4,561.6l-0.1-0.1h-0.1L245.4,561.6z"/>
	<path class="st2" d="M244.1,561.2c0.2,0.1,0.4,0.2,0.6,0.3C244.6,561.3,244.4,561.2,244.1,561.2z"/>
	<path class="st2" d="M244.9,561.9c0-0.2,0-0.3,0.2-0.3l0,0l-0.4-0.1C244.8,561.6,244.9,561.8,244.9,561.9z"/>
	<path class="st2" d="M244.9,561.9c0,0.2,0,0.3,0,0.4C244.9,562.2,244.9,562,244.9,561.9z"/>
	<path class="st2" d="M243,564.7c-0.2,0,0.3-0.8,0-0.7c-0.6,0-1.3,0-1.9-0.2c-0.3,0-0.2-1.1-0.5-1c-0.7-0.1-2.7,0.2-1.9,0.6
		c1.1,0.5,2.2,0.9,3.4,1.3c1.1,0.2,2.2,0.2,3.2,0.5c0.3,0.1,0.5,0.3,0.7,0.5c-0.2-0.3-0.5-0.6-0.8-0.9
		C245,564.2,243.8,564.9,243,564.7z"/>
	<path class="st2" d="M251.1,565.4l-0.5,0.1c-0.2-0.9-0.9-0.9-1.5-1v0.5c0.3,0.1,0.5-0.1,0.3-0.4c0.3,0.7,0.9,1.2,1.6,1.5
		C251.1,565.9,251.2,565.6,251.1,565.4z"/>
	<path class="st2" d="M251.4,566.2l-0.4-0.1v0.1L251.4,566.2L251.4,566.2z"/>
	<path class="st2" d="M241.3,560.6c-1.5-0.9-2.8-1.8-4.1-2.7c-0.2,0.1-0.4,0.2-0.5,0c0-0.2,0-0.3-0.1-0.5l-0.5-0.4l-0.2-0.1l0,0
		c-0.2,0-0.2,0.2-0.2,0.3c0,0.1,0,0.3,0,0.4c0-0.1,0-0.3,0-0.4c0-0.2-0.1-0.3-0.1-0.4c-0.2-0.1-0.4-0.2-0.6-0.3
		c0.2,0,0.4,0.2,0.6,0.3l0.4,0.1h0.1l-1.2-1l-0.3-0.1c-0.4-0.1-0.8-0.2-0.7-0.7l-0.2-0.2v0.1c0,0,0-0.1,0-0.1
		c-0.3-0.2-0.6-0.5-0.9-0.8c-0.3,0-0.6,0-0.9-0.1l0.1-0.5c-0.2,0.1-0.4,0.1-0.6,0.1c0,0.3,0,0.7,0,1c-0.1,0.5,1.1-0.4,0.8,0.5
		c0.3-0.9-0.8,0-0.8-0.5c0-0.3,0-0.7,0-1c-0.5-0.2-0.7-0.6-0.7-1.1c0.6,0,0.7,0.5,0.7,1.1c0.2,0,0.4,0,0.6-0.1l-0.1,0.5
		c0.3,0,0.6,0.1,0.9,0.1l-1.7-1.6c-3.6-3.7-7-6.8-10.2-11c-1.6-2.3-3-4.7-4.2-7.2c-2.3-4.9-6.1-8.2-7.1-14.2c-0.5-2.2-3-5.3-4.2-6.9
		c-2.9-1.4-5.5,2.1-5.6,2.3c-2,3.3,0.4,3.3,0.5,7.3c-0.3-2.6,2.8,0.2,2,3.4c-1.3,4.7,3.7,6.9,5.3,10.7c0.5,1,1.2,1.9,1.9,2.8
		c0.7,1.4,1.6,2.8,2.5,4c1,1.2,2.1,2.4,3.1,3.5l3.5,3.3c1.2,1.1,2.4,2.2,3.6,3.4c1.4,1,3,1.7,4.6,2.1c1,0.5,1.6,1.6,2.3,2.2
		c1,0.8,2.2,1.3,3.5,1.6c-1.1-0.5-2.2-1.1-3.3-1.7c-0.8-0.5,1.3-0.5,1.9-0.4c0.3,0,0.1,1.1,0.4,1.1c0.6,0.3,1.2,0.4,1.8,0.4
		c0.3,0-0.2,0.8-0.1,0.7c0.8,0.3,2-0.3,2.3,0.2c0.3,0.3,0.5,0.7,0.7,1c0.2,0.2,0.3,0.3,0.6,0.4h0.5c0.1-0.3,0.2-0.7,0.4-1
		c0.2,0.2,0.3,0.5,0.5,0.7c-0.2-0.2-0.3-0.5-0.5-0.7c-0.2,0.3-0.3,0.7-0.4,1c1.2,0.1,2.6,0.4,3.8,0.6V562c-0.7-0.3-1.3-0.8-1.5-1.6
		c0.1,0.3,0,0.5-0.3,0.4v-0.5c0.7,0.1,1.3,0.2,1.4,1.1l0.5-0.1c0.1,0.2-0.1,0.5-0.2,0.7l0.4,0.1
		C241.6,561.6,241.5,561.1,241.3,560.6z"/>
	<path class="st2" d="M235.5,556.8l0.3,0.1l-1-0.9C234.7,556.6,235.1,556.7,235.5,556.8z"/>
</g>
<g class="st1">
	<path class="st2" d="M323.5,547.2l-3.3,4.2c0.6-0.7,1.2-1.3,1.9-1.9C322.7,548.8,323.2,548.1,323.5,547.2z"/>
	<path class="st2" d="M316.9,555l-0.6,0.7l-0.5,0.6C316.2,556,316.5,555.5,316.9,555z"/>
	<path class="st2" d="M310.6,561.8c0.6-0.5,1.2-1.1,1.8-1.6s1.1-1.1,1.6-1.7C312.9,559.4,311.9,560.5,310.6,561.8z"/>
	<path class="st2" d="M316,556.8c-0.5,0.3-0.8,0.4-0.2-0.3l0,0l-1.9,2.1C314.6,557.8,315.4,557.2,316,556.8z"/>
	<path class="st2" d="M316,556.8c0.5-0.3,1.2-0.8,1.4-1L316,556.8z"/>
	<path class="st2" d="M316.8,560.8c-0.6,0.8-1.1-0.1-2.3,1.4l-4.4,4.6c-1.5,1.5-3,2.8-4.6,4.1c-1.4,1.4-4.5,2.2-5.9,3.5
		c-0.9,0.7-2.1,1.6-3.4,2.7s-2.5,2.1-3.6,2.8c-2.1,1.6-3,2.4,0,0.7c3.9-2.3,7.6-4.8,11.1-7.6c1.7-1.2,3.1-2.6,4.7-3.9
		s3.1-2.8,4.8-4.4c5.1-5.3,9.7-11.1,13.7-17.3c1.2-1.8,2.4-3.3,3.5-5c-0.7,1.1-1.6,2.1-2.4,3.2s-1.7,2.2-2.6,3.3
		C322.9,551.8,320.9,556.3,316.8,560.8z"/>
	<path class="st2" d="M341.1,512.5c-0.1,0.9-0.4,2.8-0.4,2.8c-1.7,3.8-3,8-4.5,12.1l1.2-1.6c0.9-2.3,0.8-2.7-0.3-0.7
		c0.6-1.1,1.2-2.2,1.7-3.4c0.5-1.2,0.9-2.3,1.4-3.5s0.7-2.3,1-3.5l0.5-1.8l0.3-1.8C341.8,511.2,341.5,511.1,341.1,512.5z"/>
	<path class="st2" d="M342.6,508.1c-0.2,1-0.3,1.9-0.5,2.9c0,0,0.1,0,0.1-0.1c0.1-1,0.3-1.9,0.4-2.9L342.6,508.1z"/>
	<path class="st2" d="M295.5,574.7c-1.3,0.8-2.6,1.7-3.9,2.5l-4,2.2c-1.3,0.8-2.7,1.4-4,2s-2.7,1.2-4.1,1.8
		c-5.4,2.2-11,3.7-16.8,4.3c-0.8,0.4-1.7,0.5-2.6,0.5c-0.9-0.1-1.8-0.2-2.7-0.3c-0.8,0-1.7-0.1-2.5-0.1l-1.2-0.1l-1.2-0.2l-1.7-0.1
		l0,0c-0.9,0-0.7,0.2-0.1,0.4s1.2,0.3,1.7,0.5c-0.3-0.1-1.2-0.3-1.7-0.5c-0.8-0.2-1.6-0.5-2.6-0.7l-1.1-0.2l-1.1-0.3
		c-0.8-0.2-1.6-0.4-2.3-0.6c0.9,0.2,1.7,0.4,2.5,0.6l1.1,0.3l1,0.2c1,0.1,1.9,0.3,2.8,0.3h0.8c-3.7-0.5-7.4-1.4-10.9-2.8
		c-0.8-0.2-1.6-0.6-2.2-0.8s-1.3-0.5-1.9-0.7s-1.2-0.6-1.7-0.8s-1.1-0.6-1.5-0.8c-0.4-0.3-0.8-0.6-1.1-1c-0.6-0.3-1.1-0.7-1.7-1
		c0.1,0.1,0.2,0.2,0.3,0.3c-0.2-0.2-0.4-0.3-0.6-0.5l-3.5-2.4l-3.4-2.6c-1.5-1.1-3.1-2.1-4.6-3.3l-1.1-1.7c-1-0.5-1.8-1.2-2.6-1.9
		c0.8,1.3,1.7,2.5,2.5,3.6c1.1,1.8,3.9,2.2,5,4.4c-1.1-2.2-4-2.6-5-4.4c-0.8-1.1-1.7-2.2-2.5-3.6c-1.1-1-2.1-2.1-3.1-3.3
		c-0.9-1.2-1.8-2.5-2.6-3.8c1.2,1.1,2.3,2.3,3.2,3.6c0.9,1.2,1.7,2.3,2.4,3.4c0.8,0.8,1.7,1.4,2.6,1.9l1.1,1.7
		c1.5,1.2,3.1,2.3,4.6,3.3c-4.3-3.7-8.3-7.7-11.9-12.1c-5.8-7.1-11.1-14.6-15.6-22.5c-4.6-7.8-8.7-15.8-12.5-24
		c-1-2-1.9-4.1-2.8-6.2s-1.9-4.1-2.6-6.3s-1.7-4.2-2.4-6.4s-1.4-4.3-2.1-6.5c-2.5-9-3.7-18.3-3.4-27.6c0.5-10.1,2.7-20,6.5-29.4
		c3.8-9.1,8.6-17.7,14.2-25.9c5.5-8.1,11.2-15.9,16.7-23.8c5.7-7.9,10.8-16.1,15.3-24.7c2.3-4.4,4.2-9,5.7-13.8l0.6-1.8
		c0.2-0.6,0.3-1.2,0.5-1.9l0.9-3.7c0.2-1.3,0.4-2.5,0.6-3.8c0.1-0.6,0.2-1.3,0.3-1.9l0.1-2c0.1-1.3,0.2-2.6,0.2-3.9v-3.8
		c0-1.3-0.1-2.5-0.1-3.8s-0.1-2.6-0.2-3.9c-0.4-5.2-1.3-10.4-2.6-15.5c-1.2-4.7-2.9-9.3-5-13.6c-2.5-5.1-5.5-10-9-14.6
		c-6.3-8.2-13.9-15.4-22.4-21.3c-3-1.9-6.2-3.4-9.7-4.2c-2-0.4-2.9,0-3.1,0.6c-0.2,1.3,1.7,3.5,2,3.9c4.4,4.6,8.4,7.9,13.5,12.6
		c2.9,2.6,5.6,5.4,8.1,8.4c3.3,4,6.1,8.4,8.4,13c-0.9-1.8-1.6-3-1.9-3.7s-0.3-0.9,0-0.7c1.5,1.6,2.9,3.4,3.9,5.4
		c2.2,3.6,4,7.4,5.4,11.4c1.4,4.2,2.3,8.5,2.5,12.9c0.2,5.6,0.4,11.7,0.1,18c-0.4,6.5-1.7,12.8-3.9,18.9c-2.5,6.6-5.6,13-9.3,19.1
		c-3.7,6.2-7.8,12.2-12.1,18c-4.3,5.7-8.6,12.1-13.3,19.4c-6.3,9.4-11.9,19.3-15.7,30.1c-2,5.4-3.4,10.9-4.4,16.6l-0.6,4.3
		c-0.1,0.7-0.2,1.4-0.3,2.1l-0.1,2.2l-0.2,4.3l0.1,4.3c0.4,11.6,2.7,23,6.8,33.8c1.1,2.7,2.2,5.4,3.3,8.1c1.2,2.6,2.3,5.2,3.5,7.8
		l3.7,7.8c1.3,2.6,2.6,5.2,4,7.9s3,5.4,4.6,7.9c0.8,1.3,1.6,2.5,2.4,3.7l2.4,3.5c1.6,2.4,3.4,4.5,5,6.7l2.6,3.2
		c0.9,1,1.7,2.1,2.6,3.1c4.9,6.1,10.3,12.5,15.2,16.8c6.9,6.2,15.2,10.6,24.2,13c-4.2-1.2-8.3-2.9-12.2-5c-4.1-2.2-7.9-4.8-11.4-7.8
		c-2.7-2.3-1.5-1.7,0.7-0.2s5.7,3.6,7.7,4.7c1,0.6,1.9,1.3,2.8,2.1c0.5,0.4,1,0.8,1.5,1.2c0.5,0.3,1,0.6,1.5,0.8
		c3.9,1.9,8,3.3,12.3,4c2,0.3,1.6,1.1,2.6,1.2c0.8,0.1,1.6,0.2,2.3,0.3l2.2,0.1c1.3,0,2.7-0.1,4-0.2c2.5-0.2,4.7-0.6,6.7-0.7
		c1.5,0,2.9-0.3,4.3-0.4s2.7-0.4,4-0.6c1.7-0.4,3.3-0.8,4.9-1.4c1-0.4,2.1-0.9,3.1-1.4c-0.6,0.1-1.2-0.1-1.8-0.4
		c1.5-0.5,3.7-1.1,5.2-1.8c-1.5,0.6-3.7,1.2-5.2,1.8c0.5,0.3,1.1,0.5,1.8,0.4c3.9-1.8,7.6-3.9,11.2-6.2l2.8-1.8l2.7-1.9l2.7-1.9
		c0.9-0.7,1.7-1.3,2.5-2h-0.1c-1,0.7-2,1.5-3,2.2s-2.1,1.3-3.2,2l-1.6,0.9c-0.5,0.3-1.1,0.5-1.7,0.8c-1.1,0.5-2.3,1-3.5,1.5
		c2-0.9,1.9-0.5-0.3,0.8c-0.6,0.2-1.3,0.3-2,0.5c1-0.5,1.9-1.1,2.8-1.7s1.9-1.2,2.8-1.7l1.4-0.8c0.5-0.3,0.9-0.5,1.4-0.8
		c0.9-0.5,1.9-1,2.9-1.4c0,0,1.5-1.2,2.2-1.8c1.2-0.7,1.3-0.4,1.7-0.4l2.3-1.8c-1,0.4-2.9,1.5-4.5,2.4c-0.8,0.5-1.6,0.8-2.2,1.1
		L295.5,574.7z"/>
	<path class="st2" d="M247.8,586.9l2.3,0.3c-1.6-0.3-3.1-0.5-4.6-1c-0.8-0.2-1.5-0.4-2.3-0.6l-2.2-0.8c0.9,0.6,1.9,1,2.9,1.3
		c0.6,0.2,1.2,0.3,1.9,0.5l1,0.2L247.8,586.9z"/>
</g>
<g class="st1">
	<path class="st2" d="M604.2,571.5c0.3,0.2,0.5,0.5,0.8,0.7c-0.1-0.1-0.2-0.3-0.3-0.5C604.5,571.5,604.3,571.5,604.2,571.5z"/>
	<path class="st2" d="M605.8,572.7c0,0,0.1,0.1,0.2,0.1h0.2C606,572.8,605.9,572.8,605.8,572.7z"/>
	<path class="st2" d="M607.5,573.3c-0.3-0.1-0.6-0.2-0.9-0.3C606.9,573.2,607.2,573.3,607.5,573.3z"/>
	<path class="st2" d="M606.2,572.7c0.1,0.1,0.1,0.2-0.1,0.2l0,0l0.5,0.2C606.5,572.9,606.3,572.8,606.2,572.7z"/>
	<path class="st2" d="M606.2,572.7c-0.1-0.1-0.1-0.2-0.2-0.3C606,572.5,606.1,572.6,606.2,572.7z"/>
	<path class="st2" d="M607.3,571.3c0.2,0-0.1,0.5,0.2,0.5s0.7,0,1,0c0.3,0,0.6,0,1,0c0.3-0.1,0.8,0.4,1.1,0.3c0.5-0.1,1-0.3,1.4-0.6
		c0.4-0.2,0.5-0.4,0-0.3c-1.3,0.3-2.6,0.4-3.9,0.2c-1.2-0.1-2.3-0.6-3.2-1.3c-0.2-0.2-0.5-0.5-0.7-0.8c0.2,0.4,0.5,0.8,0.8,1.2
		c0.3,0.3,0.6,0.5,1,0.5l0.6,0.1C606.9,571.2,607.1,571.3,607.3,571.3z"/>
	<path class="st2" d="M600.3,565.1l0.4,0.4c0.1,0.8,0.4,1.6,1,2.2c0-0.1,0-0.3,0-0.4c-0.2-0.4-0.4-0.4-0.3,0
		c-0.1-0.5-0.2-0.9-0.4-1.3c-0.2-0.4-0.3-0.8-0.5-1.2C600.4,564.8,600.2,564.8,600.3,565.1z"/>
	<path class="st2" d="M600.2,564.2l0.3,0.5l0,0L600.2,564.2L600.2,564.2z"/>
	<path class="st2" d="M611.3,573.2c2.2-0.3,4.3-0.9,6.3-1.7c0.1-0.2,0.2-0.3,0.4-0.3c0.2,0,0.4,0,0.5-0.1l0.8-0.4l0.3-0.2l0,0
		c0.1-0.1,0-0.2-0.1-0.2c-0.1,0-0.2,0-0.4,0h0.4c0.2,0,0.3-0.1,0.5-0.1c0.2-0.2,0.5-0.3,0.7-0.5c-0.2,0.2-0.5,0.4-0.7,0.5
		c-0.1,0.1-0.3,0.2-0.4,0.3l-0.1,0.1c0.6-0.3,1.2-0.7,1.8-1c0.1-0.1,0.2-0.2,0.3-0.3c0.4-0.4,0.7-0.7,1.1-0.7
		c0.1-0.1,0.2-0.2,0.3-0.2h-0.1l0.1-0.1c0.4-0.4,0.8-0.7,1.2-1.1c0.2-0.3,0.3-0.7,0.5-1l0.4-0.1c0-0.2,0.1-0.4,0.2-0.6
		c-0.3,0.2-0.6,0.3-0.8,0.4c-0.4,0.1-0.2,0.9-0.8,0.9c0.6,0,0.3-0.8,0.8-0.9c0.2-0.1,0.5-0.2,0.8-0.4c0.3-0.5,0.7-0.9,1.2-1.3
		c-0.2,0.6-0.6,1-1.2,1.3c-0.1,0.2-0.2,0.4-0.2,0.6l-0.4,0.1c-0.2,0.3-0.3,0.7-0.5,1c0.4-0.4,0.7-0.8,1.1-1.2l1-1.3
		c4.1-6,4.5-13.8,0.9-20.2c-0.9-2-2.5-3.6-4.4-4.6c-2-0.9-4.2-1.2-6.3-0.8c-1.9,0.3-3.7,0.9-5.5,1.7c-1.7,0.7-3.2,1.6-4.8,2.4
		s-3.2,1.8-4.8,2.9c-1.8,1.2-3.4,2.6-4.7,4.3c-0.3,0.4-0.6,0.9-0.8,1.3c-0.2,0.5-0.5,1.1-0.6,1.7c-0.1,0.6-0.3,1.2-0.3,1.9
		c0,0.6,0,1.3,0,1.9c0.2,2.1,0.7,4.1,1.5,6c1.1,1.7,1.9,1.8,2.5,1.5c0.4-0.2,0.7-0.6,0.9-1.1c0.3-1.2,0.3-2.4,0-3.5l-0.2-1
		c0-0.3-0.1-0.7-0.1-1.1c-0.1-0.9,0.1-1.7,0.3-2.5c-0.3,1.3-0.6,0.8-0.6-0.4c0.1-0.7,0.3-1.4,0.6-1.9c0.4-0.6,0.9-1.1,1.6-1.5
		c2-1,3.8-2.2,5.6-3.5c2.1-1.5,4.4-2.7,6.8-3.6c1.2-0.4,2.3-0.8,3.5-1.1c1.3-0.2,2.6-0.1,3.8,0.5c1.1,0.7,2.1,1.8,2.7,3
		c1.7,3,2.4,6.6,1.8,10c-0.2,1.8-0.6,3.5-1.1,5.2c-0.1,0.3-0.3,0.5-0.5,0.8s-0.4,0.5-0.6,0.7c-0.4,0.5-0.8,0.9-1.1,1.2
		c-0.2,0.3-0.5,0.6-0.8,0.8l-0.7,0.8c-0.5,0.5-0.9,1-1.5,1.4c0.5-0.4,1-0.8,1.5-1.3c0.2-0.2,0.4-0.5,0.7-0.7
		c0.3-0.3,0.5-0.5,0.7-0.8c0.7-0.8,0,1-0.5,1.6c-0.1,0.2-0.3,0.2-0.5,0.3s-0.5,0.1-0.5,0.2c-0.3,0.2-0.5,0.5-0.7,0.7
		c-0.2,0.2-0.5,0.5-0.8,0.8s-0.4-0.2-0.5,0c-0.4,0.3-0.7,0.6-1,1c-0.2,0.3-0.6,0.5-0.9,0.7c-0.5,0.1-1,0.2-1.4,0.3
		c-0.3,0.1-0.6,0.1-0.8,0.2l-0.5,0.3c0.2,0.1,0.3,0.2,0.4,0.4c-0.3,0.1-0.7,0.1-1,0.1c0.3,0,0.7,0,1-0.1c-0.1-0.2-0.2-0.3-0.4-0.4
		c-1.3,0.7-2.7,1.2-4.2,1.5l0,0c0.9-0.1,1.8-0.1,2.7,0c-0.4,0-0.4-0.2,0-0.3l0.4,0.2c-0.7,0.4-1.5,0.5-2.3,0.3c0,0-0.3,0.2-0.5,0.2
		s-0.2-0.2-0.3-0.3h-0.5c0.3,0.2,0.6,0.3,0.9,0.4L611.3,573.2z"/>
	<path class="st2" d="M620.1,570.2c-0.1,0.1-0.2,0.2-0.4,0.3l1.5-0.9C620.9,569.7,620.4,569.9,620.1,570.2z"/>
</g>
<path class="st3" d="M618.6,565.9c3.5-0.8,5.8-4.3,5-7.8c-0.8-3.5-3.4-3.4-6.9-2.7s-6.7,1.9-5.9,5.5
	C611.5,564.4,615,566.6,618.6,565.9C618.6,565.9,618.6,565.9,618.6,565.9z"/>
<g class="st1">
	<path class="st2" d="M615.6,565.5c-0.1,0-0.2-0.1-0.3-0.1c0.1,0,0.1,0.1,0.2,0.1C615.5,565.5,615.5,565.5,615.6,565.5z"/>
	<path class="st2" d="M614.9,565.2L614.9,565.2L614.9,565.2L614.9,565.2z"/>
	<path class="st2" d="M614.3,565c0.1,0.1,0.2,0.1,0.3,0.1C614.5,565.1,614.4,565,614.3,565z"/>
	<path class="st2" d="M614.8,565.3C614.8,565.3,614.8,565.2,614.8,565.3L614.8,565.3l-0.2-0.1C614.6,565.2,614.7,565.2,614.8,565.3z
		"/>
	<path class="st2" d="M614.8,565.3c0,0,0.1,0.1,0.1,0.1C614.8,565.4,614.8,565.3,614.8,565.3z"/>
	<path class="st2" d="M614.3,566c-0.1,0,0-0.2-0.1-0.2c-0.3-0.1-0.6-0.2-0.9-0.3c-0.2,0-0.2-0.4-0.3-0.4s-1.2-0.5-0.8-0.2
		c0.5,0.4,1.1,0.8,1.7,1.1c0.5,0.2,1.1,0.3,1.7,0.3c0.1,0,0.3,0.1,0.4,0.1l-0.6-0.2C615.2,565.9,614.7,566.2,614.3,566z"/>
	<path class="st2" d="M618.3,565.8l-0.2,0.1c-0.3-0.1-0.6-0.1-0.9,0l0.1,0.1c0.2,0,0.2-0.1,0-0.1c0.3,0.1,0.7,0.1,1.1,0
		C618.4,565.8,618.4,565.8,618.3,565.8z"/>
	<path class="st2" d="M618.6,565.8l-0.2,0.1l0,0L618.6,565.8z"/>
	<path class="st2" d="M613.1,564.4c-0.7-0.5-1.2-1.2-1.5-2c-0.1,0-0.1,0-0.2-0.1c0-0.1,0-0.1,0-0.2c0-0.1-0.1-0.2-0.1-0.3l-0.1-0.1
		l0,0c0,0-0.1,0-0.1,0c0,0,0,0.1,0,0.2c0,0,0-0.1,0-0.2c0-0.1,0-0.1,0-0.2c0-0.1-0.1-0.2-0.1-0.3c0.1,0.1,0.1,0.2,0.1,0.3l0.1,0.2
		l0,0c-0.1-0.2-0.1-0.4-0.2-0.6l-0.1-0.2c-0.1-0.2-0.1-0.4,0-0.5c0,0,0-0.1,0-0.1l0,0v0c0-0.2,0-0.4,0-0.6c0-0.1-0.1-0.3-0.1-0.4
		l0.2-0.1c0-0.1-0.1-0.2-0.1-0.2c-0.1,0.1-0.2,0.2-0.3,0.2c-0.1,0.1,0.2,0.3,0,0.5c0.2-0.1-0.1-0.3,0-0.5c0.1-0.1,0.2-0.2,0.3-0.2
		c0-0.2,0.2-0.4,0.3-0.5c0,0.3-0.2,0.4-0.3,0.5c0,0.1,0,0.2,0.1,0.2l-0.2,0.1c0,0.1,0,0.3,0.1,0.4c0-0.4,0.2-0.7,0.3-1.1
		c0.7-1,1.8-1.7,3-2c1.2-0.4,2.5-0.7,3.8-0.8c1.4-0.2,2.9-0.1,3.7,0.6c0.4,0.4,0.6,0.8,0.8,1.3c0.2,0.5,0.3,1.1,0.3,1.7
		c0,1.2-0.4,2.3-1.3,3.1c-0.4,0.4-0.8,0.8-1.2,1.1c-0.4,0.3-0.9,0.6-1.4,0.8c-0.3,0.2-0.5,0.6-0.5,1c0.1,0.2,0.2,0.4,0.4,0.5
		c0.5,0.3,1,0.3,1.5,0.1c0.7-0.3,1.4-0.6,2-1c-0.6,0.4-0.5,0.1-0.1-0.3c0.5-0.5,1-1,1.6-1.5c0.9-0.8,1.4-1.9,1.4-3
		c0-0.6,0-1.3-0.2-1.9c-0.1-0.6-0.3-1.2-0.5-1.8c-0.3-0.7-0.8-1.4-1.5-1.8c-0.9-0.7-1.9-1-3-1c-0.9,0-1.7,0.1-2.6,0.3
		c-1.7,0.3-3.3,0.8-4.9,1.5c-0.9,0.5-1.7,1.2-2.1,2.1c-0.4,0.6-0.7,1.2-0.8,1.9c-0.1,0.8,0,1.5,0.4,2.2c-0.3-0.7-0.4-1.4-0.3-2.2
		c0.1-0.6,0.2,0.5,0.3,0.8c0,0.2-0.2,0.4-0.1,0.6c0.1,0.3,0.2,0.6,0.4,0.9c0.1,0.1-0.1,0.2-0.1,0.2c0.2,0.4,0.6,0.6,0.7,0.9
		s0.2,0.4,0.2,0.6c0,0.1,0.1,0.2,0.2,0.3l0.2,0.2c0-0.1,0.1-0.2,0.1-0.2c0.1,0.1,0.1,0.3,0.2,0.4c-0.1-0.1-0.1-0.3-0.2-0.4
		c-0.1,0.1-0.1,0.1-0.1,0.2c0.5,0.4,1,0.8,1.6,1.1l0,0c-0.3-0.2-0.6-0.5-0.7-0.8c0.1,0.2,0,0.2-0.1,0.1V564c0.3,0.2,0.5,0.3,0.7,0.7
		c0.1,0,0.1,0,0.2,0.1c0.1,0.1,0,0.1,0,0.2l0.2,0.1c0-0.1-0.1-0.3-0.2-0.4L613.1,564.4z"/>
	<path class="st2" d="M611.1,561.5c0,0,0.1,0.1,0.1,0.2c-0.1-0.2-0.1-0.4-0.2-0.7C610.9,561.2,611,561.3,611.1,561.5z"/>
</g>
<g class="st1">
	<path class="st2" d="M479.1,553.4c1.3,1.5,2.7,3.1,4,4.7c-0.7-0.8-1.3-1.7-1.8-2.5C480.7,554.7,479.9,554,479.1,553.4z"/>
	<path class="st2" d="M487.1,562.2c0.3,0.3,0.5,0.5,0.8,0.8l0.8,0.6C488.1,563,487.6,562.6,487.1,562.2z"/>
	<path class="st2" d="M495.3,569c-0.7-0.6-1.4-1.2-2.1-1.8l-1.1-0.8l-1-0.9C492.4,566.8,493.8,568,495.3,569z"/>
	<path class="st2" d="M489,563.3c0.4,0.5,0.5,0.9-0.4,0.2l0,0l2.5,2.1C490.3,564.7,489.6,564,489,563.3z"/>
	<path class="st2" d="M489,563.3c-0.4-0.5-1-1.3-1.2-1.6C488.1,562.2,488.5,562.7,489,563.3z"/>
	<path class="st2" d="M493.2,562.6c0.3,0.2,0.5,0.6,0.5,1c0.2,0.6,0.6,1.1,1.2,1.4l2.9,2.1c0.5,0.3,0.9,0.7,1.4,1l1.4,0.9
		c1.9,1.2,3.6,2.4,5.6,3.6c1.1,0.6,2.1,1.4,2.9,2.3c0.9,0.8,1.9,1.6,3.1,2.1c2.9,1.4,5.9,2.6,8.9,3.5c0.8,0.3,1.7,0.5,2.6,0.6
		c0.2,0-0.3-0.3-2-1c-4.4-1.9-8.7-4-12.8-6.4c-3.9-2.3-7.6-4.8-11.2-7.6c-6.5-4.7-12.5-10.2-17.8-16.2c-1.4-1.7-2.7-3.5-4-5.4
		l1.1,1.8l1.3,1.8c0.9,1.2,1.7,2.5,2.7,3.8c0.7,0.9,1.5,1.7,2.3,2.5c0.4,0.4,0.9,0.8,1.3,1.3s1,0.8,1.5,1.2c1,0.8,2.1,1.7,3.3,2.7
		S492,561.5,493.2,562.6z"/>
	<path class="st2" d="M458.7,513.4l1.1,3c0.1,1.2,0.4,2.4,0.7,3.6c0.3,1.2,0.7,2.4,1.1,3.5c0.9,2.3,2,4.6,3.2,6.7
		c-0.2-0.7-0.4-1.5-0.5-2.2c-1.2-2.6-1.5-2.8-0.8-0.4c-1.8-5.6-3.4-10.8-4.7-16.2C458.8,511.8,458.4,511.8,458.7,513.4z"/>
	<path class="st2" d="M458.3,508.2c0.2,1.1,0.5,2.2,0.7,3.2c0,0,0-0.1,0.1-0.1c-0.3-1.1-0.5-2.1-0.8-3.2V508.2z"/>
	<path class="st2" d="M514.7,580.7c12.1,6,25,10.1,38.3,12.2c1-0.1,2.1-0.1,3.1,0.1c1,0.3,2,0.5,3,0.7c1.9,0.2,3.8,0.4,5.7,0.5h2
		l0,0c1.1,0,0.8-0.2,0.1-0.4s-1.4-0.3-2-0.5c0.4,0.1,1.3,0.3,2,0.5c1,0.2,2,0.3,3,0.4h5.4c-1.8,0.1-3.6,0.1-5.4,0
		c-1.1,0-2.2,0.1-3.2,0h-0.9c4.3,0.3,8.7,0.3,13,0.2l2.7-0.3c3.1-0.3,6.2-1,8.2-0.7c0.8-0.1,1.5-0.3,2.3-0.4h-0.5l0.9-0.1
		c1.6-0.3,3.2-0.5,4.8-0.9l2.4-0.5c0.8-0.2,1.6-0.4,2.4-0.6l3-1.2c0.5-0.2,1-0.4,1.5-0.6l1.5-0.7l2.2-0.3c0.4-0.3,0.9-0.6,1.4-0.8
		c0.5-0.3,1.1-0.7,1.8-1c-1.7,0.5-3.3,0.7-4.8,1.1c-1.2,0.3-2.3,0.8-3.3,1.4c-1.2,0.6-2.4,1-3.8,1c1.3,0,2.6-0.4,3.8-1
		c1-0.6,2.1-1.1,3.3-1.4c1.5-0.3,3.1-0.6,4.8-1.1c0.7-0.3,1.4-0.7,2.2-1.1s1.6-0.7,2.4-1.1c1.6-0.8,3.3-1.5,4.8-2
		c-1.5,1.1-3.2,2-4.9,2.7c-1.5,0.6-3,1.1-4.6,1.5c-0.7,0.3-1.3,0.7-1.8,1c-0.5,0.3-0.9,0.5-1.4,0.8l-2.2,0.3l-1.5,0.7
		c-0.5,0.2-1,0.4-1.5,0.6L602,591c6.3-1.7,12.4-4,18.3-7c2.4-1.2,4.7-2.6,7-4c1.2-0.7,2.2-1.5,3.3-2.2s2.2-1.5,3.2-2.3
		c4.2-3.2,8.1-6.7,11.7-10.5c7.1-7.6,13.2-16.1,18.1-25.3l1.9-3.4l1.7-3.5l1.7-3.5c0.6-1.2,1-2.4,1.5-3.6c2-5,3.5-10.1,4.5-15.3
		c2-10.9,1.7-22-1-32.8c-1.5-5.9-3.4-11.6-5.9-17.1c-2.4-5.4-5.2-10.6-8.2-15.7c-6-9.8-12.7-19.2-20-28
		c-14.1-17.6-29.4-32.8-42.4-49.3c-3.2-4.1-6.2-8.4-9-12.8c-2.7-4.3-5-8.9-6.8-13.7c-0.8-2.3-1.5-4.8-1.9-7.2
		c-0.4-2.4-0.6-4.8-0.5-7.2c0.2-5.3,1-10.5,2.2-15.6c1.1-4.6,2.5-9.1,4.2-13.6c2.1-5.2,4.7-10.1,7.8-14.8
		c5.7-8.6,12.9-16.1,21.1-22.2c4-3.4,6.6-5.5,8-7s1.6-2.2,1.2-2.8c-0.7-1.1-4-0.6-4.5-0.4c-3.3,0.9-6.5,2.3-9.5,4.1
		c-3.2,1.9-6.2,4.1-8.9,6.6c-3.5,3.1-6.7,6.4-9.7,9.9c-4.1,4.8-7.8,9.8-11,15.2c2.6-4.3,3.7-5.4,3.5-4.7c-0.3,0.8-0.7,1.7-1.1,2.5
		c-0.3,0.6-0.7,1.3-1,2.1l-1.2,2.6c-2.1,4.6-3.9,9.3-5.5,14.1c-1.7,5.3-2.9,10.8-3.9,15.4c-0.4,1.7-0.7,3.5-0.9,5.2
		c-0.1,0.9-0.2,1.8-0.3,2.7l-0.1,0.7v0.8c0,0.5,0,1,0,1.5c-0.1,4.2,0.5,8.4,1.7,12.4c2.4,8.2,6.7,15.8,11.7,22.8
		c5.1,7,10.5,13.7,16.3,20.1c5.7,6.4,11.3,12.6,16.6,18.7s11.1,12.3,17.2,19.6c7.6,9.3,14.6,19,20.9,29.3c3,5,5.7,10.1,8,15.4
		c2.2,5.2,4,10.7,5.2,16.2c1.1,5.5,1.6,11.2,1.4,16.9c-0.2,5.7-1.2,11.4-2.8,16.9c-0.8,2.8-1.8,5.6-3,8.3c-1.2,2.8-2.5,5.5-3.9,8.3
		c-2.8,5.5-6,10.8-9.6,15.8c-1.8,2.8-3.9,5.2-5.8,7.7c-1,1.2-2,2.3-3,3.5l-1.5,1.7l-1.6,1.7c-1,1.1-2,2.2-3.1,3.2s-2.1,2-3.2,2.9
		c-1,1-2.1,1.9-3.3,2.7l-1.6,1.3l-0.8,0.7l-0.9,0.6c-3.4,2.3-7,4.2-10.8,5.9c-1.9,0.8-3.7,1.6-5.5,2.2s-3.4,1.2-5,1.7
		c-4.7,1.5-9.5,2.7-14.3,3.6c-2.3,0.3-4.5,0.8-6.8,1l-3.3,0.4l-3.3,0.2c1.2-0.1,2.4-0.1,3.5-0.2l3.3-0.3l1.6-0.2l1.6-0.2l3.2-0.5
		c4.6-0.8,9.2-2,13.7-3.4c3.4-1.1,2.3-0.4-0.2,0.7l-2.1,0.9c-0.8,0.3-1.6,0.6-2.4,0.9c-1.4,0.5-2.9,1-4.4,1.3
		c-1.2,0.3-2.4,0.4-3.7,0.4c-1.2-0.1-2.5,0-3.7,0.2c-2.2,0.3-4.3,0.5-6.5,0.9c-1.1,0.2-2.2,0.2-3.3,0.4s-2.3,0.3-3.5,0.3
		c-2.1,0.2-1.8-0.8-2.8-0.7c-6.6,0-11.8,0.7-16-0.3c-3.2-0.7-6-1.3-8.7-2.1c-1.7-0.4-3.4-0.9-5.3-1.3c-1.2-0.2-2.3-0.5-3.5-0.8
		c0.6,0.3,1,0.8,1.3,1.4c-1.7-0.5-4-1.4-5.7-2.1c1.7,0.6,4,1.5,5.7,2.1c-0.3-0.6-0.7-1.1-1.3-1.4c-9.2-2-18.2-5.3-26.5-9.7l0.1,0.1
		c2.4,1.3,4.8,2.7,7.3,3.9l7.5,3.9c-2.2-1.1-1.8-1.3,0.8-0.2l1.9,1.2c-4.7-1.5-9.5-3.2-13.3-6l-2.9-1.3c-1.3-0.9-1.1-1.1-1.2-1.5
		c-1-0.5-1.9-1.1-2.8-1.7c0.4,0.4,1.1,1,1.9,1.7s1.7,1.3,2.6,1.9l2.3,1.6C514.3,580.4,514.7,580.7,514.7,580.7z"/>
	<path class="st2" d="M570.1,594.4c-0.8,0-1.7,0-2.7,0c1.8,0.1,3.6,0.1,5.4,0.2s3.6,0,5.5-0.1C576.3,594.1,573.2,594.3,570.1,594.4z
		"/>
</g>
</svg>
