<?xml version="1.0" encoding="utf-8"?>
<!-- Generator: Adobe Illustrator 25.0.0, SVG Export Plug-In . SVG Version: 6.00 Build 0)  -->
<svg version="1.1" id="Layer_1" xmlns="http://www.w3.org/2000/svg" xmlns:xlink="http://www.w3.org/1999/xlink" x="0px" y="0px"
	 viewBox="0 0 841.9 841.9" style="enable-background:new 0 0 841.9 841.9;" xml:space="preserve">
<style type="text/css">
	.st0{fill:#BD8675;}
	.st1{fill:#121011;}
	.st2{opacity:0.85;}
	.st3{fill:#0F0C0E;}
</style>
<rect class="st0" width="841.9" height="841.9"/>
<path class="st1" d="M647.7,513.7c-1,4.3,0,8.3,2.3,8.8s5.5-0.5,6.5-4.8s1.7-9.8-0.6-10.3S648.7,509.4,647.7,513.7z"/>
<g class="st2">
	<path class="st3" d="M649.4,510.9l0.3-0.3c-0.1,0-0.1,0.1-0.2,0.1C649.4,510.8,649.4,510.8,649.4,510.9z"/>
	<polygon class="st3" points="649.9,510.4 650,510.3 650,510.2 	"/>
	<path class="st3" d="M650.4,509.8c-0.1,0.1-0.2,0.2-0.2,0.2C650.2,510,650.3,509.9,650.4,509.8z"/>
	<path class="st3" d="M650,510.2C650.1,510.2,650.1,510.2,650,510.2L650,510.2l0.2-0.1C650.1,510.1,650.1,510.2,650,510.2z"/>
	<path class="st3" d="M650,510.2h-0.2H650z"/>
	<path class="st3" d="M649.5,509.5c0-0.1,0.2,0.1,0.3,0c0.2-0.3,0.4-0.5,0.6-0.8c0.1-0.1,0.4-0.1,0.5-0.2s0.9-1,0.4-0.7
		c-0.6,0.4-1.1,0.9-1.6,1.4c-0.4,0.5-0.7,1-1,1.5c-0.1,0.1-0.2,0.3-0.3,0.4c0.2-0.1,0.3-0.3,0.5-0.5S649.2,509.8,649.5,509.5z"/>
	<path class="st3" d="M648,513.4v-0.2c0.2-0.2,0.4-0.6,0.4-0.9l-0.2,0.1c-0.1,0.2,0,0.2,0.1,0.1c-0.3,0.3-0.4,0.6-0.5,1
		C647.8,513.5,647.9,513.5,648,513.4z"/>
	<path class="st3" d="M647.7,513.7c0-0.1,0-0.2,0-0.2l0,0V513.7z"/>
	<path class="st3" d="M651.4,508.8c0.7-0.5,1.6-0.9,2.5-1.1c0-0.1,0.1-0.1,0.2-0.1h0.2c0.1,0,0.2,0,0.4,0h0.1l0,0c0.1,0,0-0.1,0-0.1
		l-0.1-0.1l0.1,0.1l0.2,0c0.1,0,0.2,0,0.4,0c-0.1,0-0.2,0-0.4,0l-0.2,0h-0.1c0.3,0,0.6,0,0.8,0h0.3c0.2,0,0.3,0.1,0.3,0.2l0.1,0.1
		l0,0v0c0.1,0.1,0.3,0.3,0.4,0.5c0.1,0.1,0.2,0.2,0.3,0.3c0,0.1,0,0.1-0.1,0.2c0.1,0,0.1,0.1,0.2,0.2c0-0.1,0.1-0.3,0.1-0.4
		c0-0.2-0.4-0.2-0.2-0.5c-0.1,0.3,0.3,0.3,0.2,0.5c0,0.1-0.1,0.3-0.1,0.4c0.1,0.2,0.1,0.5,0,0.7c-0.1-0.2-0.1-0.5,0-0.7
		c0-0.1-0.1-0.2-0.2-0.2c0-0.1,0-0.1,0.1-0.2c-0.1-0.1-0.2-0.2-0.3-0.3c0.2,0.4,0.3,0.8,0.3,1.2c0.1,1.4,0.1,2.7-0.2,4.1
		c-0.2,1.4-0.5,2.8-0.9,4.1c-0.3,1.4-1.2,2.6-2.4,3.3c-1,0.6-2.3,0.8-3.4,0.5c-0.8-0.2-1.4-1.4-1.3-2.8c0-0.6,0-1.2,0-1.9
		c0-0.7,0.1-1.3,0.1-2c-0.1-1.4-1.2-1-1.3-0.9c-0.5,0.3-0.8,0.8-0.8,1.3c-0.1,0.5-0.2,1.2-0.4,2.2c0.1-0.7,0.3-0.4,0.3,0.1
		c0.1,0.7,0.1,1.5,0,2.2c-0.1,1.4,0.5,2.7,1.7,3.5c0.2,0.1,0.4,0.2,0.6,0.3l0.7,0.2c1.1,0.2,2.1,0.2,3.2-0.1c0.7-0.2,1.4-0.5,2-1
		c0.9-0.6,1.6-1.3,2.1-2.3c0.5-0.8,0.8-1.8,1-2.7c0.3-1.7,0.6-3.5,0.8-5.2c0-0.9-0.1-1.9-0.3-2.8c-0.1-0.7-0.2-1.4-0.5-2
		c-0.4-0.7-1-1.3-1.8-1.4c-0.2,0-0.5,0-0.7,0c0.2,0,0.5,0,0.7,0c0.8,0.2,1.4,0.7,1.8,1.3c0.2,0.3,0,0.2-0.2,0
		c-0.2-0.2-0.5-0.4-0.7-0.6c-0.2-0.1-0.3-0.5-0.6-0.5c-0.1,0-0.2-0.1-0.3-0.1c-0.3,0-0.6,0-0.9,0.1c-0.2,0-0.2-0.2-0.2-0.2
		c-0.5,0.1-0.9,0.5-1.2,0.5s-0.5,0.1-0.7,0.1c-0.1,0-0.3,0.1-0.4,0.1l-0.2,0.2c0.1,0,0.2,0.1,0.2,0.2c-0.1,0-0.3,0-0.4,0.1
		c0.1,0,0.3-0.1,0.4-0.1c-0.1-0.1-0.1-0.1-0.2-0.2c-0.6,0.4-1.1,0.9-1.6,1.3l0,0c0.3-0.3,0.7-0.4,1-0.5c-0.2,0-0.2,0,0-0.1h0.2
		c-0.2,0.2-0.5,0.4-0.9,0.5l-0.1,0.2c-0.1,0-0.1,0-0.2-0.1l-0.2,0.1C651,508.8,651.2,508.8,651.4,508.8z"/>
	<path class="st3" d="M655,507.5h-0.2c0.2,0,0.5,0,0.7,0C655.4,507.4,655.2,507.4,655,507.5z"/>
</g>
<g class="st2">
	<path class="st3" d="M638.4,352.4c1.3,1.5,2.8,3,4.1,4.5c-0.6-0.8-1.2-1.6-1.8-2.5C640,353.6,639.2,352.9,638.4,352.4z"/>
	<path class="st3" d="M646.1,361.2c0.2,0.3,0.5,0.6,0.7,0.9l0.7,0.7C647,362.2,646.5,361.7,646.1,361.2z"/>
	<path class="st3" d="M652.8,369.5c-1.1-1.5-2.2-2.9-3.3-4.3C650.4,366.4,651.5,367.8,652.8,369.5z"/>
	<path class="st3" d="M647.8,362.6c0.3,0.6,0.4,0.9-0.4,0.2l0,0c0.7,0.8,1.4,1.6,2.1,2.4C648.9,364.2,648.3,363.4,647.8,362.6z"/>
	<path class="st3" d="M647.8,362.6c-0.3-0.6-0.8-1.4-1-1.8C647.1,361.4,647.4,362,647.8,362.6z"/>
	<path class="st3" d="M652.2,362.6c0.8,0.8-0.2,1.2,1.3,2.8c1.7,1.9,3.1,3.8,4.6,5.5s2.8,3.6,4.1,5.7c0.7,1.1,1.3,2.2,1.8,3.5
		c0.4,1.2,1,2.4,1.7,3.5c0.7,1.1,1.7,2.5,2.6,4.1s2,3.1,2.8,4.4c0.5,0.8,1,1.6,1.6,2.3c0.2,0.1,0-0.5-0.8-2.2
		c-2.2-4.6-4.7-9-7.5-13.3c-1.2-2-2.5-3.9-3.9-5.8s-2.8-3.9-4.3-6c-5.3-6.5-10.9-12.6-17-18.3c-0.8-0.8-1.7-1.7-2.5-2.5l-1.2-1.2
		l-0.2-0.2l-0.3-0.3l-0.5-0.6l0.7,0.9l0.3,0.3l0.4,0.4l1.5,1.7c1,1.1,2.1,2.3,3.2,3.6c1.6,1.8,3.4,3.6,5.2,5.2
		C648,358,650.2,360.3,652.2,362.6z"/>
	<path class="st3" d="M610.4,316.6c0.7,0.9,2,2.5,2,2.5c2.1,4.4,5.3,8.3,8.6,12.1c-0.3-0.7-0.7-1.4-1-2c-1.8-2.3-2.2-2.4-0.8-0.2
		c-3.1-5-6.2-9.5-9.3-14.3C610,315.1,609.7,315.2,610.4,316.6z"/>
	<path class="st3" d="M608.2,311.9l1.8,2.8c0,0,0-0.1,0-0.1l-1.8-2.8L608.2,311.9z"/>
	<path class="st3" d="M665.6,388.1c6.5,11.9,10.9,24.8,13.3,38.2c0.4,0.9,0.7,2,0.8,3c0,1,0,2.1,0.1,3.1s0.2,1.9,0.3,2.8
		s0.1,1.9,0.2,2.8c0.1,0.6,0.2,1.3,0.2,2v0c0.1,1.1,0.3,0.7,0.4,0.1s0.1-1.4,0.2-2c-0.1,0.4-0.1,1.4-0.2,2c-0.1,0.9-0.2,1.9-0.2,3.1
		c0.1,1.8,0.1,3.6,0,5.4c-0.1-2.1,0-3.9,0-5.4c-0.1-1.1-0.2-2.1-0.2-3.2c0-0.3-0.1-0.6-0.1-0.9c0.2,4.3,0.1,8.7-0.2,13
		c-0.1,1-0.1,1.9-0.2,2.7c-0.1,3.1-0.5,6.2-1.3,8.1c-0.1,0.7-0.3,1.5-0.5,2.3c0.1-0.1,0.1-0.3,0.2-0.4l-0.3,0.8
		c-0.4,1.6-0.7,3.2-1.2,4.7s-0.9,3.1-1.4,4.7c-0.2,1-0.5,2.1-0.8,3.1c-0.2,1.1-0.5,2.1-0.9,3.2l-1.2,1.8c-0.2,1.2-0.5,2.4-1,3.5
		c1-1.5,2-2.8,2.7-4.2c1.3-1.9,0.9-5,2.5-7.2c-1.6,2.2-1.2,5.3-2.5,7.2c-0.7,1.3-1.7,2.7-2.7,4.2c-1.3,3.2-3.1,6.2-5.3,8.9
		c1.5-3.1,3.3-6,5.3-8.9c0.5-1.1,0.8-2.3,1-3.5l1.2-1.9c0.4-1,0.7-2.1,0.9-3.2c0.3-1,0.5-2.1,0.8-3.1c-2,6.1-4.7,12.1-7.9,17.6
		c-10.4,17.9-26.8,31.7-46.2,38.9c-9.7,3.6-19.8,5.7-30.1,6.2c-5.3,0.3-10.5,0.2-15.8-0.3c-2.7-0.2-5.3-0.6-8-0.9l-4-0.7
		c-1.3-0.3-2.6-0.6-4-0.8c-11.2-2.8-21.7-7.8-30.8-14.8c-4.5-3.4-8.7-7.2-12.6-11.2c-3.9-4-7.5-8.2-10.8-12.7
		c-6.5-8.7-12.4-17.9-17.5-27.5c-2.5-4.7-5-9.5-7.2-14.4s-4.4-9.7-6.4-14.7c-8.2-20.3-14.5-41.3-18.7-62.7
		c-1.7-8.5-4.4-20.6-6.8-32.7s-4.5-24.1-5.7-32.4c-2.3-11-3.9-13.5-5.1-13.1s-2,3.6-2,4.2c-0.9,7.1-0.4,13.4,0.6,21.3
		s2.8,17.7,4.7,31.8c-1.4-9.6-0.1-6.2,1.7,1.9s4.5,20.8,5.8,29.9c1.7,13.3,6.2,28.9,12.4,44.8c3.1,7.9,6.6,15.9,10.3,23.7
		S479,471.7,483,479l1.5,2.8l1.7,2.7c1.1,1.9,2.3,3.7,3.6,5.6s2.6,3.8,4,5.7s2.8,3.9,4.4,5.9c7.7,10.5,17.1,19.7,27.8,27.2
		c5.4,3.7,11.2,6.9,17.2,9.4c6.1,2.5,12.5,4.4,19,5.4c12.9,2.2,26.1,2.4,39,0.5c6.7-1,13.2-2.6,19.6-4.8c6.6-2.2,12.9-5.2,18.8-8.7
		c3.1-1.9,6.1-4,8.9-6.2c2.7-2.2,5.2-4.5,7.5-7c4.4-4.6,8.4-9.7,11.8-15.2c5-7.5,9.6-16.1,12-23.1c1.8-5.1,3-10.4,3.8-15.8
		c0.7-4.8,1.1-9.7,1-14.6c-0.1,4.9-0.5,9.7-1.2,14.5c-0.8,5.1-2,10.2-3.5,15.1c-1.3,3.8-1.1,2.3-0.5-0.6c0.3-1.5,0.7-3.4,1-5.2
		s0.7-3.6,0.8-4.9c0.3-2.2,2-5.4,2-7.7c0.6-4.8,0.7-9.6,0.3-14.4c-0.2-2.2,0.8-2,0.6-3.1c-0.4-7.1-2.3-12.2-2.8-16.6
		c-0.2-1.7-0.5-3.3-0.7-4.8s-0.5-3-0.8-4.5c-0.5-1.8-0.8-3.7-1.5-5.5l-1.4-3.5c0.1,0.7-0.1,1.4-0.5,1.9c-0.5-1.8-1.2-4.2-1.7-6
		c0.5,1.8,1.3,4.2,1.7,6c0.4-0.6,0.5-1.3,0.5-1.9c-1.7-4.2-3.8-8.7-6.1-13.1s-4.9-8.8-7.5-12.9v0.2c3,4.8,5.5,10,7.2,15.4
		c-0.8-2.4-0.5-2.2,0.8,0.4c0.2,0.8,0.3,1.5,0.4,2.2c-2.2-4.5-4.6-8.9-6.2-13.4c0,0-0.3-0.5-0.7-1l-1.2-1.6c-0.7-1.5-0.4-1.5-0.3-2
		c-0.5-1-1.2-1.9-1.8-2.8c0.2,0.6,0.6,1.4,1,2.3s0.9,2,1.3,3C664.9,386.4,665.6,388.1,665.6,388.1z"/>
	<path class="st3" d="M680.6,443.3c0-0.8-0.1-1.7-0.2-2.7c0,1.8,0.1,3.6,0,5.4s-0.1,3.6-0.2,5.5c0.3-1.2,0.5-2.4,0.5-3.6
		C680.7,446.5,680.7,444.9,680.6,443.3z"/>
</g>
<g class="st2">
	<path class="st3" d="M634.2,531.9l-0.1-0.7c0,0.1-0.1,0.3-0.2,0.4C633.9,531.8,634,531.8,634.2,531.9z"/>
	<path class="st3" d="M634,530.6c0,0,0-0.1,0-0.1l-0.1-0.1L634,530.6z"/>
	<path class="st3" d="M633.7,529.4c0,0.2,0,0.4,0.1,0.6C633.8,529.8,633.8,529.6,633.7,529.4z"/>
	<path class="st3" d="M633.7,530.4c0.1-0.1,0.2-0.1,0.3,0l0,0l-0.2-0.3C633.8,530.2,633.7,530.3,633.7,530.4z"/>
	<path class="st3" d="M633.7,530.4c-0.1,0.1-0.2,0.2-0.2,0.3C633.5,530.6,633.6,530.5,633.7,530.4z"/>
	<path class="st3" d="M631.1,530.4c-0.1-0.1,0.6-0.2,0.4-0.4c-0.3-0.5-0.6-1-0.7-1.6c-0.2-0.2,0.6-0.7,0.4-1c-0.3-0.6-1.4-2-1.2-1.1
		c0.2,1.3,0.5,2.2,0.8,3.4c0.4,0.9,0.9,1.8,1.3,2.8c0.1,0.3,0.1,0.5,0.1,0.8c0-0.4,0.1-0.7,0.2-1.1S631.4,531.2,631.1,530.4z"/>
	<path class="st3" d="M634.8,537.1l-0.3-0.3c0.4-0.7,0.1-1.2-0.3-1.7l-0.3,0.3c0.1,0.3,0.3,0.3,0.4,0c-0.2,0.6-0.2,1.4,0,2
		C634.5,537.4,634.7,537.3,634.8,537.1z"/>
	<path class="st3" d="M634.5,537.8c0-0.1-0.1-0.2-0.1-0.4h-0.1L634.5,537.8L634.5,537.8z"/>
	<path class="st3" d="M632.8,526.9c-0.2-1.6-0.2-3.1-0.2-4.7c-0.2-0.1-0.3-0.2-0.2-0.3c0.1-0.1,0.2-0.2,0.2-0.4c0-0.2,0-0.4,0-0.7
		s0-0.2,0-0.2l0,0c-0.1-0.1-0.2-0.1-0.3,0c-0.1,0.1-0.2,0.2-0.3,0.2c0.1-0.1,0.2-0.2,0.3-0.2c0.1-0.1,0.2-0.2,0.2-0.3
		c0-0.2,0-0.4,0-0.6c0.1,0.2,0.1,0.4,0,0.6l0.1,0.4l0.1,0.1l0.2-1.5c0-0.1,0-0.2,0-0.3c-0.1-0.4-0.2-0.7,0.2-0.9
		c0-0.1,0-0.2,0.1-0.3l-0.1,0l0.1-0.1c0.1-0.4,0.2-0.7,0.2-1.1c-0.1-0.3-0.2-0.5-0.3-0.8l0.4-0.2c-0.2-0.1-0.3-0.3-0.3-0.5
		c-0.2,0.1-0.4,0.3-0.7,0.5c-0.4,0.2,0.7,0.7-0.1,0.9c0.7-0.2-0.3-0.7,0.1-0.9c0.2-0.2,0.4-0.3,0.7-0.5c-0.1-0.5,0.2-0.9,0.5-1.1
		c0.2,0.5-0.2,0.8-0.5,1.1c0,0.2,0.2,0.4,0.3,0.5l-0.4,0.2c0.1,0.3,0.2,0.5,0.3,0.8c0.2-0.7,0.3-1.5,0.5-2.2c0.4-1.2,0.6-2.3,1-3.4
		c0.2-0.6,0.4-1.1,0.6-1.7s0.4-1.1,0.7-1.6c0.5-1.1,1-2.1,1.5-3.1c0.3-0.5,0.6-1,1-1.5c0.2-0.2,0.3-0.5,0.5-0.8l0.6-0.7
		c1.6-2,3.5-3.7,5.7-5c2.1-1.2,4-2.6,6.1-3.6c2.1-1.1,4.5-1.7,6.9-1.7c1.2-0.1,2.4-0.3,3.5-0.6c1.3-0.3,2.5-0.6,3.3-0.8
		c0.9-0.6,1.3-1.7,1.1-2.8c0-0.6-0.2-1.3-0.6-1.8c-0.6-0.9-1.6-1.5-2.7-1.4c-1.3,0.1-2.7,0.1-4-0.1c1.3,0.1,0.9,0.6,0,1
		c-1.2,0.5-2.6,0.5-3.8,0.1c-2-0.8-4-0.1-5.8,1s-3.6,2.5-5.5,3.5c-1,0.6-1.9,1.3-2.8,2c-2.7,1.8-5,4.3-6.7,7.1c-1.6,2.9-3,6-4.1,9.1
		c-0.2,0.8-0.3,1.7-0.3,2.6c0,0.8,0.1,1.6,0.2,2.4c-0.1,0.5-0.2,1.1-0.4,1.6c-0.1,0.5-0.3,1-0.3,1.5c-0.1,0.6-0.1,1.3,0,2
		c0.1,0.6,0.2,1.2,0.3,1.8c0-0.6-0.1-1.2-0.2-1.7s0-1.2,0-1.9c0.1-0.9,0.8,0.8,1,1.4c0.1,0.3-0.7,0.6-0.5,0.9
		c0.1,0.6,0.2,1.2,0.5,1.7c0.2,0.3-0.6,0.2-0.5,0.3c0.1,0.8,1,1.5,0.9,2s-0.2,0.8-0.3,1.1c0,0.2,0,0.5,0,0.7
		c0.1,0.1,0.1,0.3,0.2,0.4c0.2-0.1,0.5-0.2,0.8-0.2c0,0.2-0.2,0.5-0.2,0.7c0-0.2,0.2-0.5,0.2-0.7c-0.3,0-0.5,0.1-0.8,0.2
		c0.4,1.1,1,2.2,1.4,3.3h0.1c-0.2-0.7-0.1-1.4,0.2-2c-0.1,0.3-0.3,0.3-0.4,0l0.3-0.3c0.3,0.6,0.5,1.1,0,1.7l0.3,0.3
		c-0.1,0.2-0.3,0.2-0.5,0.3c0,0.1,0.1,0.3,0.1,0.4C632.4,527.8,632.6,527.3,632.8,526.9z"/>
	<path class="st3" d="M632.5,520.2c0,0.1,0,0.2,0,0.3l0.2-1.3C632.4,519.5,632.5,519.8,632.5,520.2z"/>
</g>
<path class="st1" d="M194.2,513.7c1.1,4.3,0,8.3-2.3,8.8s-5.4-0.5-6.5-4.8s-1.7-9.8,0.6-10.3S193.2,509.4,194.2,513.7z"/>
<g class="st2">
	<path class="st3" d="M193,510.5l-0.3-0.3c0,0.1,0.1,0.1,0.1,0.2C192.8,510.5,192.9,510.5,193,510.5z"/>
	<polygon class="st3" points="192.5,509.9 192.4,509.8 192.4,509.8 	"/>
	<path class="st3" d="M191.9,509.4c0.1,0.1,0.2,0.2,0.3,0.3C192.1,509.5,192,509.5,191.9,509.4z"/>
	<path class="st3" d="M192.3,509.9C192.3,509.8,192.3,509.8,192.3,509.9L192.3,509.9l-0.1-0.2C192.2,509.7,192.3,509.8,192.3,509.9z
		"/>
	<path class="st3" d="M192.3,509.9v0.1V509.9z"/>
	<path class="st3" d="M191.6,510.3c-0.1,0,0.1-0.2,0-0.2c-0.3-0.1-0.5-0.3-0.8-0.4c-0.1,0-0.2-0.4-0.3-0.4c-0.3-0.1-1.1-0.3-0.7,0
		c0.5,0.3,1,0.6,1.5,1c0.5,0.3,0.9,0.6,1.3,0.9c0.1,0.1,0.2,0.2,0.2,0.4c-0.1-0.2-0.2-0.4-0.3-0.5
		C192.3,510.6,191.9,510.6,191.6,510.3z"/>
	<path class="st3" d="M194.3,513.3l-0.1-0.2c0.1-0.4-0.1-0.7-0.3-1l-0.1,0.2c0.1,0.2,0.1,0.2,0.1,0c0,0.4,0.1,0.8,0.3,1.1
		C194.2,513.5,194.3,513.4,194.3,513.3z"/>
	<path class="st3" d="M194.2,513.7l-0.1-0.2l0,0L194.2,513.7L194.2,513.7z"/>
	<path class="st3" d="M190.5,508.6c-0.8-0.5-1.6-0.9-2.5-1.2c-0.1,0-0.1,0.1-0.2,0l-0.2-0.1l-0.4-0.1h-0.1c-0.1,0,0,0,0,0.1
		c0,0,0.1,0.1,0.1,0.1l-0.1-0.1c-0.1,0-0.1-0.1-0.2-0.1c-0.1,0-0.2,0-0.4,0c0.1,0,0.2,0,0.4,0h0.2h0.1c-0.3,0-0.6,0-0.9,0h-0.2H186
		c-0.1,0.1-0.3,0.1-0.5,0.1l-0.1,0.1l0,0h-0.1c-0.2,0.1-0.4,0.3-0.5,0.5c0,0.2-0.1,0.3-0.1,0.5c-0.1,0-0.1,0.1-0.2,0.1
		c0,0.1,0,0.2,0,0.3l0.3-0.2c0.2-0.1-0.1-0.4,0.2-0.4c-0.3,0,0,0.4-0.2,0.4l-0.3,0.2c0,0.2-0.1,0.5-0.3,0.7c0-0.3,0.1-0.5,0.3-0.7
		c0-0.1,0-0.2,0-0.3c0,0,0.1-0.1,0.2-0.1c0-0.1,0.1-0.3,0.1-0.5c-0.3,0.4-0.4,0.8-0.5,1.3c-0.3,1.4-0.3,2.9-0.1,4.3
		c0.2,1.4,0.4,2.8,0.7,4.3c0.3,1.7,1.1,3.3,2.4,4.5c1.4,1.2,3.3,1.6,5,1.1c0.9-0.3,1.8-0.9,2.3-1.7c0.5-0.7,0.9-1.6,1.2-2.4
		c0.3-0.8,0.4-1.7,0.4-2.5c0-0.8-0.1-1.6-0.3-2.5c-0.7-1.5-1.6-0.4-1.6-0.4c-0.3,0.4-0.4,0.9-0.3,1.5c0.1,0.7,0,1.4-0.2,2
		c0.1-0.6,0.3-0.4,0.3,0.2c0,0.6-0.2,1.3-0.6,1.8c-0.6,0.6-1.1,1.3-1.5,1.6l-0.1,0.1c-0.1,0-0.1,0-0.2,0.1c-0.2,0.1-0.4,0.1-0.6,0.1
		c-0.4,0.1-0.8,0-1.2-0.2c-0.4-0.1-0.8-0.3-1.1-0.6c-0.9-0.9-1.6-2.1-1.8-3.4c-0.5-1.6-0.8-3.2-0.9-4.8c-0.1-0.9-0.3-1.6-0.3-2.3
		c0-0.4,0.2-0.8,0.4-1.2c0.1-0.2,0.2-0.3,0.3-0.5l0.3-0.1l-0.3,0.1c-0.2,0.1-0.2,0.2-0.4,0.5s-0.2-0.4-0.1-0.5s0.3,0,0.3,0l0.1-0.1
		c0.2-0.1,0.3-0.2,0.5-0.2c0.1,0,0.1,0.2,0.2,0.2c0.4,0,0.7-0.3,1-0.1s0.4,0.2,0.5,0.3l0.3,0.1h0.2c0-0.1,0-0.2,0-0.3
		c0.1,0.1,0.2,0.2,0.3,0.2c-0.1-0.1-0.2-0.2-0.3-0.2c0,0.1,0,0.2,0,0.3c0.6,0.1,1.2,0.3,1.8,0.6l0,0c-0.3-0.2-0.6-0.4-0.9-0.7
		c0.1,0.1,0.1,0.2-0.1,0.1l-0.1-0.2c0.3,0.1,0.6,0.3,0.8,0.5l0.2,0.1c0.1,0.1,0,0.1,0,0.2l0.2,0.1
		C190.8,508.9,190.7,508.8,190.5,508.6z"/>
	<path class="st3" d="M186.9,507.3c0.1,0,0.1,0,0.2,0c-0.2,0-0.5,0-0.8,0C186.5,507.3,186.7,507.3,186.9,507.3z"/>
</g>
<g class="st2">
	<path class="st3" d="M201.6,350.6c-1.4,1.5-2.9,3-4.2,4.5c0.7-0.8,1.5-1.5,2.3-2.1C200.5,352.3,201.1,351.5,201.6,350.6z"/>
	<path class="st3" d="M193.6,359.4l-0.7,0.8l-0.5,0.8L193.6,359.4z"/>
	<path class="st3" d="M187.1,368c1.2-1.5,2.3-3,3.3-4.4C189.3,365.1,188.2,366.5,187.1,368z"/>
	<path class="st3" d="M192.6,361.4c-0.5,0.4-0.9,0.6-0.2-0.3l0,0c-0.6,0.9-1.3,1.7-1.9,2.6C191.1,362.9,191.8,362.1,192.6,361.4z"/>
	<path class="st3" d="M192.6,361.4c0.5-0.4,1.2-1.1,1.5-1.3C193.7,360.5,193.1,360.9,192.6,361.4z"/>
	<path class="st3" d="M193.6,365.6c-0.6,0.9-1.2,0.1-2.3,1.9c-1.4,2-2.6,4-3.8,5.9s-2.3,3.8-3.5,5.8c-0.6,1.1-1.4,2.1-2.2,3
		c-0.8,0.9-1.6,2-2.2,3.1c-0.6,1.1-1.3,2.7-1.9,4.3s-1.3,3.3-1.8,4.7c-0.3,0.8-0.6,1.7-0.7,2.6c0,0.2,0.3-0.3,1.1-1.9
		c2.3-5,4.5-9.1,6.7-13c1.1-1.9,2.2-3.8,3.5-5.7s2.5-3.8,3.9-5.9c4.5-6.8,9.4-13.3,14.8-19.4c0.8-0.9,1.6-1.7,2.4-2.4l1.2-1.2
		l0.4-0.4l0.3-0.3l0.6-0.6l-0.8,0.8c-0.1,0.2-0.3,0.3-0.5,0.5l-0.4,0.4l-1.6,1.5c-1.1,1-2.3,2.1-3.4,3.2c-1.7,1.7-3.2,3.6-4.6,5.6
		C197.2,360.4,195.6,362.9,193.6,365.6z"/>
	<path class="st3" d="M230.2,315.8c-0.5,1-1.5,2.9-1.5,2.9c-3.2,3.7-6.1,7.7-8.8,11.8l1.7-1.5c1.7-2.3,1.7-2.8,0-0.8
		c3.9-4.2,7.3-8.7,10.2-13.6C231.4,314.8,231.2,314.6,230.2,315.8z"/>
	<path class="st3" d="M233.4,311.8c-0.5,1-1.1,1.9-1.6,2.9c0,0,0.1,0,0.1,0C232.5,313.6,233,312.6,233.4,311.8L233.4,311.8z"/>
	<path class="st3" d="M175.8,387.8c-6.4,12-11,24.9-13.5,38.3c0.1,1,0,2.1-0.2,3.1c-0.3,1-0.6,2-0.8,3c-0.1,1-0.2,1.9-0.3,2.9
		l-0.2,2.9c0,0.7-0.1,1.3,0,2v0.1c0.1,1.1,0.2,0.8,0.4,0.1c0.1-0.7,0.3-1.3,0.5-2c-0.1,0.4-0.3,1.3-0.5,2c-0.1,0.9-0.3,1.9-0.4,3.1
		c0,1.7,0.1,3.6,0.1,5.5c-0.2-1.8-0.2-3.6-0.1-5.5c0-1.1,0-2.2,0-3.2c0-0.3,0-0.6,0-0.9c-0.3,4.4-0.3,8.7-0.1,13.1
		c0.1,1,0.2,2,0.3,2.7c0.4,3.1,1,6.2,0.9,8.2c0.1,0.8,0.2,1.5,0.4,2.3c0-0.1,0-0.3,0-0.5c0,0.4,0.1,0.6,0.1,0.9
		c0.3,1.6,0.6,3.2,1.1,4.9s0.8,3.2,1.3,4.8c0.4,1,0.9,2,1.3,3s0.9,2,1.4,3c0,0,0.2,1.5,0.4,2.2c0.7,1,1.4,2.1,1.9,3.2
		c-0.5-1.8-0.9-3.3-1.2-4.8c-0.4-2.2-2.7-4.3-2.6-7.1c-0.1,2.8,2.2,4.9,2.6,7.1c0.4,1.5,0.8,3.1,1.2,4.8c1.5,2.8,3.2,6.4,4.6,9.4
		c-2.1-2.8-3.7-6-4.6-9.4c-0.5-1.1-1.2-2.2-1.9-3.2c-0.1-0.7-0.4-2.2-0.4-2.2c-0.5-1-1-2-1.4-3s-0.9-2-1.3-3
		c1.9,6.3,4.5,12.5,7.6,18.2c5.1,9.4,11.9,17.8,20,24.8c8,6.9,17.1,12.4,27,16.2c10,3.8,20.5,6.1,31.1,6.7
		c5.4,0.3,10.9,0.3,16.3-0.1c2.7-0.2,5.5-0.5,8.2-0.8l4.1-0.6c1.4-0.2,2.8-0.5,4.2-0.8c11.9-2.6,23.1-7.6,33-14.7
		c4.8-3.4,9.4-7.2,13.6-11.3c4.2-4,8.2-8.3,11.9-12.8c7.2-8.7,13.5-18.1,19-28c2.7-4.9,5.2-9.7,7.6-14.7s4.6-10,6.7-15
		c8.5-20.2,15.4-41,22.2-63c2.6-8.5,5.5-20.8,7.9-33.1s4.2-24.6,5.4-33.1c0.8-11.4-0.5-14.4-1.7-14.3s-2.7,3.2-2.9,3.7
		c-2.6,6.7-3.8,12.7-5.3,20.6c-1.8,10.5-4.2,20.8-7.1,31c2.5-9.3,2.4-5.7,0.8,2.4s-4.9,20.5-8.5,29c-5.2,12.2-9.9,27.2-15.6,42.7
		c-2.9,7.8-6,15.6-9.4,23.2c-3.4,7.5-7.2,14.7-11.5,21.7c-0.5,0.8-1,1.7-1.6,2.5l-1.6,2.6c-1.1,1.7-2.3,3.5-3.4,5.2
		s-2.5,3.5-3.7,5.4s-2.7,3.6-4.2,5.5c-7.5,9.2-16.2,17.3-26,24c-9.4,6.5-20.1,11-31.3,13.2c-11.7,2.2-23.6,2.6-35.4,1.1
		c-6-0.8-11.9-2.2-17.6-4.1c-5.8-2-11.4-4.6-16.7-7.8c-2.9-1.7-5.5-3.5-8-5.3s-4.9-3.7-7.1-5.7c-4.4-3.8-8.4-8-11.9-12.6
		c-4.9-6.7-8.2-14.9-10.4-21.3c-3.1-9-5.1-18.3-5.9-27.7c0.2,4.5,0.8,9,1.7,13.4c0.9,4.7,2.2,9.3,3.8,13.8c1.2,3.4,0.5,2.3-0.7-0.2
		c-0.6-1.3-1.3-2.9-1.9-4.5s-1.2-3.2-1.5-4.4c-0.7-2-0.2-5.4-0.7-7.4c-0.7-4.4-1.4-8.5-1.7-13.4c-0.2-2.1,0.7-1.8,0.6-2.9
		c0-6.6-0.6-11.9,0.4-16.1c0.4-1.6,0.7-3.1,1.1-4.5s0.8-2.8,1.2-4.2c0.5-1.7,1-3.5,1.5-5.3l0.9-3.5c-0.3,0.6-0.9,1-1.5,1.3
		c0.6-1.7,1.7-4,2.3-5.6c-0.6,1.7-1.7,3.9-2.3,5.6c0.6-0.3,1.1-0.7,1.5-1.3c1.2-4.5,2.7-9,4.4-13.3c1.8-4.5,3.9-9,6.1-13.3l-0.1,0.1
		c-2.8,4.9-5.3,9.7-8.2,14.8c1.2-2.2,1.3-1.8,0.2,0.8c-0.4,0.6-0.9,1.2-1.3,1.8c1.7-4.7,3.6-9.4,6.5-13.2c0,0,0.2-0.5,0.5-1.1
		s0.6-1.4,0.8-1.8c0.9-1.3,1.1-1.1,1.5-1.2c0.5-1,1.1-1.9,1.6-2.9c-0.4,0.4-1,1.1-1.6,1.9s-1.3,1.8-1.9,2.6
		C176.7,386.2,175.8,387.8,175.8,387.8z"/>
	<path class="st3" d="M160.7,443.3c0-0.8,0-1.7,0-2.7c-0.1,1.8-0.2,3.7-0.2,5.5s0.1,3.7,0.1,5.5c0.2-1.2,0.2-2.5,0.2-3.7
		C160.8,446.5,160.7,444.9,160.7,443.3z"/>
</g>
<g class="st2">
	<path class="st3" d="M209.7,532.3l0.1-0.7c-0.1,0.1-0.2,0.2-0.3,0.3C209.4,532,209.5,532.1,209.7,532.3z"/>
	<path class="st3" d="M210,530.9c0,0,0-0.1,0-0.1v-0.1V530.9z"/>
	<path class="st3" d="M210,529.6c-0.1,0.2-0.1,0.4-0.1,0.6C210,530.1,210,529.8,210,529.6z"/>
	<path class="st3" d="M209.6,530.6c0.1-0.1,0.2-0.1,0.3,0l0,0v-0.4C209.9,530.4,209.8,530.5,209.6,530.6z"/>
	<path class="st3" d="M209.6,530.6c-0.1,0-0.2,0.2-0.3,0.2C209.5,530.7,209.5,530.7,209.6,530.6z"/>
	<path class="st3" d="M207.2,529.9c-0.1-0.1,0.6,0,0.5-0.3c-0.2-0.5-0.3-1.1-0.3-1.6c-0.1-0.2,0.7-0.5,0.6-0.8c-0.1-0.6-1-2.1-1-1.2
		c0,1.3,0.1,2.1,0.1,3.3c0.1,1,0.3,1.9,0.4,2.9c0,0.3-0.1,0.5-0.2,0.8c0.2-0.3,0.3-0.6,0.5-1S207.2,530.7,207.2,529.9z"/>
	<path class="st3" d="M208.2,537.4L208,537c0.6-0.4,0.6-1,0.5-1.7l-0.4,0.2c0,0.3,0.1,0.4,0.4,0.2c-0.5,0.5-0.8,1.1-0.8,1.8
		C207.8,537.5,208,537.5,208.2,537.4z"/>
	<path class="st3" d="M207.6,537.8v-0.4h-0.1L207.6,537.8L207.6,537.8z"/>
	<path class="st3" d="M209.6,526.9c0.2-1.7,0.2-3.2,0.3-4.7c-0.1-0.1-0.3-0.2-0.2-0.4c0.1-0.1,0.2-0.2,0.3-0.4c0-0.2,0-0.5,0-0.7
		l-0.1-0.2l0,0c-0.1-0.1-0.2-0.1-0.3,0c-0.1,0.1-0.2,0.2-0.3,0.2c0.1,0,0.1-0.2,0.3-0.2c0.1-0.1,0.1-0.2,0.2-0.4c0-0.2,0-0.4,0-0.6
		c0.1,0.2,0.1,0.4,0,0.6l0.1,0.4l0.1,0.1v-1.5c0-0.1-0.1-0.2-0.1-0.3c-0.1-0.4-0.2-0.7,0.1-1v-0.3l-0.1,0.1l0.1-0.1
		c0-0.4,0-0.8,0-1.2c-0.2-0.2-0.3-0.5-0.5-0.7l0.3-0.3c-0.2-0.1-0.3-0.2-0.4-0.4c-0.2,0.2-0.4,0.5-0.5,0.7c-0.3,0.3,0.8,0.5,0.1,0.9
		c0.6-0.4-0.5-0.6-0.1-0.9c0.1-0.2,0.3-0.4,0.5-0.7c-0.2-0.4-0.1-0.9,0.1-1.3c0.4,0.4,0.2,0.9-0.1,1.3c0.1,0.2,0.2,0.3,0.4,0.4
		l-0.3,0.3c0.2,0.2,0.3,0.5,0.5,0.7c0-0.8,0-1.5-0.1-2.3c-0.1-1.3-0.3-2.5-0.6-3.7c-0.1-0.6-0.3-1.2-0.4-1.8s-0.4-1.2-0.6-1.8
		c-0.4-1.2-0.9-2.4-1.4-3.5c-0.3-0.6-0.6-1.1-0.9-1.7l-0.5-0.9l-0.5-0.9c-1.4-2.5-3.1-4.8-5-7c-1.9-2-4.1-3.7-6.5-5.1
		c-2.3-1.4-4.7-2.6-7.2-4.4c-1.2-0.7-2.6-1.3-4-1.5c-1.4-0.3-2.8-0.5-4.2-0.7c-1.2,0.2-2.1,1.2-2.1,2.4c0,0.6,0.1,1.3,0.3,1.9
		c0.3,1,1.1,1.8,2.1,2.1c1.2,0.3,2.3,0.9,3.2,1.7c-0.9-0.7-0.4-1,0.5-0.9c1.2,0.2,2.2,1,2.9,2c0.8,1.5,2.3,2.7,3.9,3.2
		c1.6,0.7,3.4,1.3,4.5,2.6c0.6,0.6,1.3,1.1,2.1,1.8c1.6,2,3.2,3.8,4.7,5.7c1.6,2,2.8,4.3,3.5,6.8c0.2,0.7,0.5,1.3,0.9,1.9
		c0.4,0.6,0.7,1.2,1,1.8c0.1,0.4,0.2,0.9,0.2,1.4c0,0.4,0,0.9,0,1.3c0.1,0.6,0.2,1.1,0.4,1.6c0.1,0.5,0.3,1,0.5,1.5
		c-0.1-0.5-0.2-1-0.3-1.5s-0.3-1-0.4-1.6c-0.1-0.8,1,0.5,1.2,1c0.2,0.2-0.6,0.7-0.4,0.9c0.1,0.5,0.3,1,0.6,1.5
		c0.2,0.2-0.6,0.2-0.5,0.3c0.2,0.7,1.1,1.3,0.9,1.8s-0.2,0.7-0.4,1c-0.1,0.2-0.1,0.4-0.1,0.6l0.2,0.4c0.2-0.1,0.5-0.1,0.8-0.2
		c0,0.2-0.2,0.5-0.3,0.7c0-0.2,0.2-0.5,0.3-0.7c-0.3,0-0.5,0.1-0.8,0.2c0.4,1.1,0.7,2.2,0.9,3.4h0.1c0-0.7,0.2-1.4,0.6-1.9
		c-0.2,0.3-0.4,0.2-0.4-0.1l0.4-0.2c0.1,0.6,0.3,1.2-0.3,1.7l0.2,0.4c-0.1,0.2-0.3,0.1-0.5,0.2c0,0.1,0,0.3,0,0.4
		C209,527.6,209.3,527.3,209.6,526.9z"/>
	<path class="st3" d="M209.8,520.2c0,0.1,0,0.2,0.1,0.3v-1.3C209.6,519.5,209.7,519.8,209.8,520.2z"/>
</g>
</svg>
