<svg id="Layer_1" data-name="Layer 1" xmlns="http://www.w3.org/2000/svg" viewBox="0 0 841.89 841.89"><defs><style>.cls-1{fill:#3f372f;}.cls-2{opacity:0.85;}.cls-3{fill:#fefefe;}.cls-4{fill:#f4ecea;}</style></defs><rect class="cls-1" width="841.89" height="841.89"/><g class="cls-2"><path class="cls-3" d="M244,525.91l1.74-.54a6.8,6.8,0,0,1-.92.12A1.73,1.73,0,0,0,244,525.91Z"/><path class="cls-3" d="M247.37,525l.31-.06.26-.11Z"/><path class="cls-3" d="M250.46,524.3a13.1,13.1,0,0,0-1.6.23A11.17,11.17,0,0,0,250.46,524.3Z"/><path class="cls-3" d="M247.94,524.6c.21,0,.32.08,0,.2h0l.92-.27A6.26,6.26,0,0,1,247.94,524.6Z"/><path class="cls-3" d="M247.94,524.6c-.19,0-.5,0-.61,0A5.51,5.51,0,0,0,247.94,524.6Z"/><path class="cls-3" d="M248.42,522.75c.33-.13.33.38,1,.18l2.18-.5a21.66,21.66,0,0,1,2.16-.2c.68-.16,1.72.47,2.38.4l1.52-.06h1.62c.93,0,1.38-.11.19-.29a28.6,28.6,0,0,0-9.2,0,32.28,32.28,0,0,0-7.38,2.44c-.67.31-1.31.56-2,.81.87-.28,1.72-.66,2.72-.9a8.66,8.66,0,0,0,2.09-.9A18.73,18.73,0,0,1,248.42,522.75Z"/><path class="cls-3" d="M232.65,533l.55-.81a14.92,14.92,0,0,0,1.78-1.29c.28-.25.55-.5.82-.77s.58-.48.86-.72l-.69.19c-.68.54-.65.73,0,.32a18,18,0,0,0-2.15,1.46,13.91,13.91,0,0,0-1.81,1.79C232.18,533.16,232.27,533.28,232.65,533Z"/><path class="cls-3" d="M231.34,533.9l.67-.75H232l-.64.77Z"/><path class="cls-3" d="M257.24,523.79a27.92,27.92,0,0,1,11.52,3.93,1.78,1.78,0,0,1,.85.36,5.88,5.88,0,0,0,.69.64c.49.3.91.71,1.36,1l.5.34h0c.28.16.26,0,.14-.13s-.27-.36-.37-.52c.07.11.26.34.37.52a7.93,7.93,0,0,0,.65.67,13.84,13.84,0,0,1,1.19,1.13,10.2,10.2,0,0,1-1.19-1.13c-.28-.18-.54-.36-.81-.55l-.25-.13a27.71,27.71,0,0,1,2.86,2.66,13,13,0,0,1,2.09,2.53l.38.58,0-.13.11.24a23.67,23.67,0,0,1,1.53,2.51c.38.52.8,1,1.17,1.59l0,.72a3.47,3.47,0,0,1,.65.92c-.08-.55-.12-1.07-.21-1.53-.05-.74-1.13-1.11-1.1-2,0,.92,1.05,1.29,1.1,2,.09.46.13,1,.21,1.53a7.28,7.28,0,0,1,.8,3,9.59,9.59,0,0,1-.8-3,3.47,3.47,0,0,0-.65-.92l0-.72c-.37-.55-.79-1.07-1.17-1.59a22.27,22.27,0,0,1,1.24,2.61,23.28,23.28,0,0,1,1,2.77,30,30,0,0,1-.4,18.22,29.28,29.28,0,0,1-11.27,14.59A27.64,27.64,0,0,1,250.15,581a29.92,29.92,0,0,1-13-5.11l-1.8-1.43c-.59-.48-1.1-1.06-1.66-1.58a25.32,25.32,0,0,1-5.1-7.56,22.82,22.82,0,0,1-1.84-9.08,35.53,35.53,0,0,1,.93-9.11,26.44,26.44,0,0,1,3.53-8.29l.43-1c.15-.29.28-.55.39-.79a5.52,5.52,0,0,0,.39-1.21c.13-.65,0-1-.27-1.19-.52-.37-1.53,0-1.68.13a8.47,8.47,0,0,0-2.54,2q-.54.6-1,1.29c-.33.47-.61,1-.92,1.54a40.31,40.31,0,0,0-3.66,9.46c.85-3,.88-1.79.53.77,0,.65-.1,1.39-.18,2.18s-.06,1.63-.13,2.48,0,1.73,0,2.57-.05,1.66,0,2.4c-.13,4.34,1.75,9.65,5.3,14a35.65,35.65,0,0,0,13.36,9.84c.62.27,1.26.52,1.91.77s1.36.38,2.07.57l1.07.28,1.12.18c.76.1,1.53.28,2.33.34a30.94,30.94,0,0,0,23.2-6.41,34.32,34.32,0,0,0,12.54-21.22,27.3,27.3,0,0,0-1.09-12.41c-.13-.69-.37-1.37-.56-2.05s-.36-1.38-.62-2a22.82,22.82,0,0,0-1.51-3.55,27,27,0,0,0-2.79-4.23,28.11,28.11,0,0,0-3.26-3.21,35.45,35.45,0,0,1,3.15,3.27,30.93,30.93,0,0,1,2.71,4c.6,1.08.26.76-.34,0l-1-1.29c-.39-.44-.76-.86-1-1.17a3.33,3.33,0,0,1-.56-1.1,2.85,2.85,0,0,0-.65-1,17.66,17.66,0,0,0-1.52-1.59l-1.78-1.41c-.57-.39-.18-.71-.48-.89a23.26,23.26,0,0,0-2.54-1.49,9.77,9.77,0,0,1-2.05-1.06,28.3,28.3,0,0,0-2.46-1.56,8,8,0,0,0-1.62-.74l-1.14-.3a1.09,1.09,0,0,1,.32.66c-.52-.21-1.22-.64-1.76-.79.54.15,1.24.58,1.76.79a1.09,1.09,0,0,0-.32-.66,31.81,31.81,0,0,0-9-1l0,0a14.45,14.45,0,0,1,5.11.95c-.36-.16-.52-.22-.47-.27a1.3,1.3,0,0,1,.73.06l.59.41-1.12-.2c-.38,0-.76-.08-1.13-.14a15.59,15.59,0,0,1-2.17-.52l-1,.09c-.48-.09-.45-.24-.55-.38-.33,0-.68,0-1,0,.36.11,1.1.32,1.74.46Z"/><path class="cls-3" d="M273,530.7l-.67-.48.64.52.58.59,1.16,1.16A6.67,6.67,0,0,0,273,530.7Z"/></g><ellipse class="cls-3" cx="252.69" cy="552.61" rx="12.94" ry="12.48"/><g class="cls-2"><path class="cls-4" d="M264.45,546l-.43-.72a1.56,1.56,0,0,1,.09.45C264.16,545.93,264.3,546,264.45,546Z"/><path class="cls-4" d="M263.57,544.66l-.09-.12-.11-.07Z"/><path class="cls-4" d="M262.52,543.64a3.27,3.27,0,0,0,.52.53A1.85,1.85,0,0,0,262.52,543.64Z"/><path class="cls-4" d="M263.2,544.58c0-.12,0-.2.17-.12h0c-.11-.1-.21-.21-.33-.3A1,1,0,0,1,263.2,544.58Z"/><path class="cls-4" d="M263.2,544.58c0,.11,0,.26,0,.32A1.19,1.19,0,0,0,263.2,544.58Z"/><path class="cls-4" d="M261.69,545.41c-.12-.06.26-.35,0-.47-.5-.37-1-.53-1.45-.89-.24-.08-.26-.72-.53-.79-.59-.27-2.19-.4-1.42,0a11.61,11.61,0,0,1,2.8,1.77,10.33,10.33,0,0,1,2.24,2,3.86,3.86,0,0,1,.34.75,6.83,6.83,0,0,0-.35-1.09,1.29,1.29,0,0,0-.65-.63A4.48,4.48,0,0,1,261.69,545.41Z"/><path class="cls-4" d="M266,551.9c-.06-.14-.19-.41-.19-.41a1.62,1.62,0,0,0,.09-1,3,3,0,0,0-.35-1l-.16.34c.12.35.25.38.28,0a9,9,0,0,0,0,2.26C265.76,552.11,265.91,552.12,266,551.9Z"/><path class="cls-4" d="M265.7,552.6l-.07-.43h0l.1.43Z"/><path class="cls-4" d="M259.9,542.07a14.8,14.8,0,0,0-4.95-1.94c-.15.07-.25.16-.42.08a1.34,1.34,0,0,0-.38-.22c-.25,0-.5,0-.75-.08l-.27,0h0c-.15,0-.11.12,0,.2a1.6,1.6,0,0,1,.25.18c-.05,0-.17-.11-.25-.18a1.59,1.59,0,0,0-.4-.16,2.8,2.8,0,0,1-.71,0,2,2,0,0,1,.71,0l.42,0,.13,0a14.28,14.28,0,0,0-1.73,0,2.88,2.88,0,0,0-.36.07,1.34,1.34,0,0,1-1.1.06l-.3,0,.06,0h-.12a11.4,11.4,0,0,0-1.29.28c-.24.19-.48.39-.73.55l-.36-.11a1,1,0,0,1-.35.43c.28,0,.53.09.74.1s.44-.67.9-.36c-.46-.31-.55.48-.9.36s-.46-.07-.74-.1a2.76,2.76,0,0,1-1.33.44,1.32,1.32,0,0,1,1.33-.44,1,1,0,0,0,.35-.43l.36.11c.25-.16.49-.36.73-.55a13.17,13.17,0,0,0-8.4,7,13.45,13.45,0,0,0-.85,8.74,14.82,14.82,0,0,0,5.34,8.29,13.87,13.87,0,0,0,9.2,2.69,19.85,19.85,0,0,0,9.53-3.09,11.16,11.16,0,0,0,3.57-4,14,14,0,0,0,1.61-5.12,2.94,2.94,0,0,0-.62-1.83,1.13,1.13,0,0,0-.94-.39,2.38,2.38,0,0,0-1.26.52,6.61,6.61,0,0,0-1,1.18,3.43,3.43,0,0,0-.28.58c-.1.2-.19.41-.28.63a6.29,6.29,0,0,1-2.1,3c.81-.75.88-.27.37.57a4.28,4.28,0,0,1-2.94,1.93,31.79,31.79,0,0,0-4.82,1.07,8,8,0,0,1-5.15-.26,19.62,19.62,0,0,1-2.42-1.22,12.08,12.08,0,0,1-4-6,8.6,8.6,0,0,1,1.2-7.24,19.1,19.1,0,0,1,2.35-3.29A7.72,7.72,0,0,1,249,543a32.58,32.58,0,0,1,3.11-1,11.49,11.49,0,0,0-3.07.89c-.77.32.32-.81.9-1,.22-.18.7.26.92.14a3.71,3.71,0,0,0,.76-.24c.25-.08.51-.18.8-.26s.23.36.35.31a3.72,3.72,0,0,0,1.07-.34,1.32,1.32,0,0,1,.88-.08,6,6,0,0,1,1,.44c.2.08.41.13.63.2l.44,0a1.23,1.23,0,0,1,0-.54c.2.1.46.3.65.4-.19-.1-.45-.3-.65-.4a1.23,1.23,0,0,0,0,.54,9.07,9.07,0,0,1,3.44,1l0,0a7.94,7.94,0,0,1-1.69-1.37c.25.23.14.33-.2.2l-.15-.33a2.17,2.17,0,0,1,1.62,1l.43.11c.12.17,0,.29,0,.42l.36.21a3.39,3.39,0,0,0-.38-.72A3.5,3.5,0,0,0,259.9,542.07Z"/><path class="cls-4" d="M252.69,540l.36,0a11.66,11.66,0,0,0-1.45,0C251.88,540.14,252.28,540.05,252.69,540Z"/></g><g class="cls-2"><path class="cls-3" d="M158.4,289.82c-.29,2.61-.64,5.22-1,7.83.25-1.3.52-2.59.86-3.9A14.57,14.57,0,0,0,158.4,289.82Z"/><path class="cls-3" d="M156.14,304.84c-.1.47-.17.94-.27,1.37l-.16,1.19C155.86,306.55,156,305.7,156.14,304.84Z"/><path class="cls-3" d="M153.15,318.2a61.37,61.37,0,0,0,1.79-6.74C154.42,313.37,153.82,315.58,153.15,318.2Z"/><path class="cls-3" d="M156.06,307.67c-.31.8-.54,1.17-.36-.21v-.06c-.24,1.35-.45,2.69-.77,4.06C155.36,310.05,155.7,308.76,156.06,307.67Z"/><path class="cls-3" d="M156.06,307.67c.31-.77.7-2,.85-2.44C156.66,305.94,156.36,306.76,156.06,307.67Z"/><path class="cls-3" d="M158.62,311.83c-.24,1.41-1.06.86-1.57,3.63-.39,1.6-.71,3.16-1.15,4.66-.21.76-.42,1.5-.62,2.24l-.72,2.19c-.45,1.46-1.06,2.86-1.65,4.28s-1.4,2.84-2.11,4.16c-1.14,2.42-4.07,5.71-4.93,8.31-.62,1.47-1.33,3.58-2,5.75-.34,1.09-.63,2.21-.92,3.27s-.54,2.07-.73,3a20.31,20.31,0,0,0-.6,3.41c0,.29.31-.43,1-2.7a116.68,116.68,0,0,1,6.87-17.43c.64-1.27,1.32-2.5,2-3.75l1.07-2.08c.37-.7.72-1.4,1-2.12s.62-1.45.94-2.18.56-1.49.84-2.25c.59-1.51,1.05-3.09,1.57-4.71A122,122,0,0,0,160,303.55c.71-5.31,1.19-10.66,1.55-16.17.28-3.08.54-5.95.8-8.84-.39,3.77-.85,7.63-1.46,11.89C160,296,160.43,303,158.62,311.83Z"/><path class="cls-3" d="M160.12,231.5c.17,1.36.51,4.12.51,4.12a172.44,172.44,0,0,0,.23,19.11c.15-.94.31-1.9.47-2.87-.08-3.71-.36-4.13-.54-.84a156.35,156.35,0,0,0-.11-22C160.45,229.52,160.15,229.44,160.12,231.5Z"/><path class="cls-3" d="M160.33,224.78c.13,1.42.25,2.86.35,4.26a1,1,0,0,0,.08-.15c-.14-1.44-.28-2.87-.42-4.27Z"/><path class="cls-3" d="M141.89,345.13a131.67,131.67,0,0,0-4.31,12.94c-.65,2.15-1.13,4.33-1.69,6.48s-1,4.3-1.39,6.46a213.15,213.15,0,0,0-3.4,25.58,15.73,15.73,0,0,1,0,4c-.22,1.31-.38,2.64-.5,4-.14,2.47-.16,5-.23,7.4l.08,2.61v.07c.11,1.39.26,1,.4.12s.22-1.84.34-2.59c-.08.48-.2,1.75-.34,2.59-.11,1.17-.23,2.46-.24,4,.12,2.26.19,4.61.26,7.05a67.56,67.56,0,0,1-.26-7.05c-.08-1.42-.11-2.79-.16-4.17l-.09-1.2c-.09,5.65.08,11.27.34,16.89.11,1.29.21,2.53.3,3.53.42,4.06.93,8.08.75,10.64.09,1,.18,2,.3,3v-.58l0,1.13c.48,4.22,1,8.45,1.68,12.69.61,2.7,1.35,5.46,2,8.24l0,1.1c0,.6,0,1.33.07,1.81a35.42,35.42,0,0,1,1.44,4.56c-.21-2.31-.3-4.43-.51-6.38-.06-2.89-2.15-6.1-1.78-9.59-.37,3.49,1.72,6.7,1.78,9.59.21,2,.3,4.07.51,6.38,1,3.9,2.08,9,2.75,13.19a53.17,53.17,0,0,1-2.75-13.19,35.42,35.42,0,0,0-1.44-4.56c0-.48-.05-1.21-.07-1.81l0-1.1c-.66-2.78-1.4-5.54-2-8.24,1.27,8.26,2.89,16.56,4.93,24.95a258.73,258.73,0,0,0,12.68,39Q155.34,534,160,543a200.48,200.48,0,0,0,10.37,17.43,154.9,154.9,0,0,0,26.85,31,116.11,116.11,0,0,0,36.52,21.81,106.8,106.8,0,0,0,22.89,5.57l2.9.34c1,.12,1.93.23,2.9.27l5.79.37c3.86.06,7.71.15,11.55-.13A111.48,111.48,0,0,0,302.46,616a102.07,102.07,0,0,0,21.17-8.36,115.47,115.47,0,0,0,34.08-28,165,165,0,0,0,12.73-17.48,195.86,195.86,0,0,0,10.49-18.68q4.76-9.59,8.74-19.52t7.36-20.2c4.55-13.66,8.41-27.73,11.93-42.26A382.34,382.34,0,0,0,416.18,418c1.84-16.15,2.75-32.27,3.12-43.31-.26-14.82-1.91-18.42-3.13-18.11s-2.34,4.48-2.48,5.16c-1.88,9-2.58,16.91-3.45,27.19a362.94,362.94,0,0,1-5.39,40.81c1.12-6.1,1.62-8,1.74-7.08a69.55,69.55,0,0,1-.87,10c-1.31,10.55-4.57,26.95-8.36,38.08-5.48,16.08-11.12,35.67-19.14,55.35A219.74,219.74,0,0,1,364,554.93a128.34,128.34,0,0,1-19,24.87,134,134,0,0,1-11.55,10.49l-3.23,2.52-3.43,2.4c-1.14.84-2.38,1.56-3.61,2.31s-2.47,1.56-3.8,2.21a100.42,100.42,0,0,1-43.65,11.38c-1.89,0-3.78,0-5.67,0h-1.42l-1.41-.08-2.84-.14c-.95-.05-1.9-.08-2.84-.16l-2.79-.29c-1.87-.14-3.72-.46-5.57-.74a98.76,98.76,0,0,1-21.61-6A112.94,112.94,0,0,1,194,577.94a164.09,164.09,0,0,1-28.08-39.38,295.52,295.52,0,0,1-19.23-44.42c-3.31-10.52-5.34-22.15-6.9-31-1.22-6.93-2.18-13.41-3-19.6s-1.43-12.1-1.88-17.9c.37,6.49.91,12.09,1.64,17.85s1.58,11.69,2.89,18.8c.89,4.74.27,3.15-.7-.42s-2.21-9.17-2.72-12.34c-.58-2.71,0-7.11-.45-9.82-.54-5.93-1.31-11.37-1.79-17.77-.28-2.75.69-2.45.55-3.81-.36-8.71-1.29-15.5-.65-21.07.42-4.22,1-8,1.54-11.69.34-2.33.69-4.64,1.05-7.1.18-1.53.32-3.13.56-4.71a4.65,4.65,0,0,1-1.38,1.94c.2-1.14.56-2.49.87-3.85s.67-2.7,1-3.82c-.28,1.12-.64,2.46-1,3.82s-.67,2.71-.87,3.85a4.65,4.65,0,0,0,1.38-1.94c1.47-11.38,4.54-24.41,9.63-35.69l-.15.11c-3.1,6.54-5.52,13.16-8.15,20.26,1.09-3.09,1.24-2.62.28,1-.43.87-.8,1.76-1.19,2.64,1.33-6.34,3.08-12.66,6.06-18.07,0,0,.2-.67.49-1.48l.87-2.45c1-1.82,1.23-1.58,1.64-1.86.63-1.26,1.19-2.58,1.88-3.82a28.72,28.72,0,0,0-1.82,2.69l-1.08,1.77-1,1.85c-.67,1.22-1.28,2.37-1.68,3.23Z"/><path class="cls-3" d="M130.62,418.87c-.06-1-.09-2.21-.11-3.51,0,4.72.09,9.44.29,14.18C131.14,427,130.81,423,130.62,418.87Z"/></g><g class="cls-2"><path class="cls-3" d="M698.45,419l-1.56-.36a2.64,2.64,0,0,1,.73.5C697.94,419.29,698.16,419.11,698.45,419Z"/><path class="cls-3" d="M695.45,418.36l-.28-.05-.25.05Z"/><path class="cls-3" d="M692.67,418.2a5.73,5.73,0,0,0,1.4.16A3.91,3.91,0,0,0,692.67,418.2Z"/><path class="cls-3" d="M694.82,418.75c-.15-.17-.21-.33.09-.39h-.84A2.94,2.94,0,0,1,694.82,418.75Z"/><path class="cls-3" d="M694.82,418.75c.14.16.37.32.45.42A3,3,0,0,0,694.82,418.75Z"/><path class="cls-3" d="M693.59,422c-.29.06-.08-.88-.65-.74a18.29,18.29,0,0,1-3.65.18c-.57.13-1.27-1.05-1.84-.91-1.31.08-4.71.89-2.8,1.11,2.88.27,4.79.29,7.39.49,2.15-.07,4.25-.28,6.43-.16a8.47,8.47,0,0,1,1.7.43c-.7-.29-1.43-.59-2.24-.89a3,3,0,0,0-1.9.06A8.89,8.89,0,0,1,693.59,422Z"/><path class="cls-3" d="M709.82,421.79l-.88.16a5.24,5.24,0,0,0-3.72-.88l.47.58c.74.09.87-.16.27-.49a9.74,9.74,0,0,0,4.18,1.4C710.11,422.29,710.19,422,709.82,421.79Z"/><path class="cls-3" d="M711,422.65l-.86-.09s0,.06,0,.09l.87,0Z"/><path class="cls-3" d="M686.75,418.23c-1.82-.23-3.58-.54-5.31-.74l-5.09-.62c-.28.16-.48.36-.82.21a2.69,2.69,0,0,0-.75-.42l-1.46-.2-.53,0h0c-.29.08-.22.23-.06.39a3.18,3.18,0,0,1,.48.4c-.09-.09-.33-.25-.48-.4a2.53,2.53,0,0,0-.76-.35,6,6,0,0,1-1.4-.1,3.47,3.47,0,0,1,1.4.1l.83,0,.25-.06-3.33-.48H669c-.82,0-1.63.11-2.1-.38l-.59-.07.11.1-.22-.11-2.53-.28c-.57.15-1.15.34-1.72.44l-.54-.51a1.91,1.91,0,0,1-1,.42c.44.31.84.65,1.21.87.54.52,1.34-.88,2,.07-.61-.95-1.41.45-2-.07-.37-.22-.77-.56-1.21-.87a4.06,4.06,0,0,1-2.64-.64,2.83,2.83,0,0,1,2.64.64,1.91,1.91,0,0,0,1-.42l.54.51c.57-.1,1.15-.29,1.72-.44l-5-.56-4.09-.45c-1.35-.13-2.7-.19-4-.27l-8-.41-2-.1-2,0-4.08-.07c-2.74,0-5.54-.16-8.41-.17-3.11,0-6.16-.11-9.18-.21l-8.93-.25c-11.79-.37-22.29,1.9-34.38,1.11-4.64-.22-13,1.51-17.33,2.45-5.62,2.71-1.69,6.16-1.4,6.33,4.16,2.76,6.54.35,14,1.27-5.06-.41,3.29-2.8,8.23-1,3.58,1.39,7.62,1.05,11.85.48s8.63-1.47,12.8-1.36c2.07,0,4.26-.23,6.73-.31,6.44.17,12.6-.05,18.85-.47,6.25-.2,12.61-.69,19.33-.27,3.57.11,6.74-.8,9.77-1,2.21,0,4.52.58,6.31.69a59.77,59.77,0,0,0,7.59-.19c-2.6-.13-4.51.06-7.4,0-1.93-.06,1.42-1.15,2.72-1.34.56-.18,1.34.94,1.9.75a18.44,18.44,0,0,0,3.61-.35c.56-.15.41.8.69.72,1.75,0,3.21-1.13,4.3-.76.83.23,1.57.45,2.29.67a8.35,8.35,0,0,0,1.43.21l1-.15a2.14,2.14,0,0,1-.31-1.05c.45.1,1.08.38,1.53.48-.45-.1-1.08-.38-1.53-.48a2.14,2.14,0,0,0,.31,1.05,73.44,73.44,0,0,1,7.54-.45l0-.09a9.71,9.71,0,0,1-4.24-1.2c.62.31.5.56-.24.51l-.5-.56a5.2,5.2,0,0,1,3.74.7l.87-.2c.38.19.32.48.37.75l.86.05A12.16,12.16,0,0,0,686.75,418.23Z"/><path class="cls-3" d="M671.93,416.5h.7l-2.8-.41C670.29,416.59,671.1,416.54,671.93,416.5Z"/></g></svg>