<?xml version="1.0" encoding="utf-8"?>
<!-- Generator: Adobe Illustrator 25.0.0, SVG Export Plug-In . SVG Version: 6.00 Build 0)  -->
<svg version="1.1" id="Layer_1" xmlns="http://www.w3.org/2000/svg" xmlns:xlink="http://www.w3.org/1999/xlink" x="0px" y="0px"
	 viewBox="0 0 841.9 841.9" style="enable-background:new 0 0 841.9 841.9;" xml:space="preserve">
<style type="text/css">
	.st0{fill:#7F563A;}
	.st1{opacity:0.85;}
	.st2{fill:#FEFEFE;}
	.st3{fill:#E0CACA;}
</style>
<rect y="-0.2" class="st0" width="841.9" height="841.9"/>
<g class="st1">
	<path class="st2" d="M126.4,384.3l1.3,4.6c-0.2-0.8-0.3-1.6-0.3-2.4C127.2,385.7,126.9,385,126.4,384.3z"/>
	<path class="st2" d="M129,393.1l0.3,0.8l0.3,0.7L129,393.1z"/>
	<path class="st2" d="M132,400.8c-0.5-1.4-1.1-2.7-1.6-3.9C130.8,398.3,131.4,399.6,132,400.8z"/>
	<path class="st2" d="M129.9,394.6c0,0.5,0,0.8-0.4,0l0,0l0.9,2.3C130.2,396.2,130.1,395.4,129.9,394.6z"/>
	<path class="st2" d="M129.9,394.6c0-0.5-0.1-1.3-0.2-1.6C129.8,393.5,129.9,394,129.9,394.6z"/>
	<path class="st2" d="M133.8,395.4c0.4,0.7-0.6,0.9,0.2,2.3l2.4,4.9c0.8,1.5,1.6,3,2.3,4.6c0.4,0.9,0.7,1.8,0.9,2.8
		c0.2,1,0.5,1.9,1,2.7c0.5,0.8,1.2,1.9,2,3.1s1.7,2.2,2.3,3.1c1.4,1.7,2.1,2.4,0.7,0c-1.1-1.8-2.1-3.5-3-5.1s-1.7-3.1-2.5-4.6
		c-1.5-3.1-3.1-6-4.5-9.6c-2.7-5.7-5-11.5-6.8-17.5c-0.4-1.8-0.8-3.4-1.1-5.1c0.4,2.2,0.7,4.5,1.2,6.9c0.4,1.8,1.1,3.6,1.9,5.2
		C131.8,390.9,132.9,393,133.8,395.4z"/>
	<path class="st2" d="M122.1,349.6c0.1,0.8,0.4,2.5,0.4,2.5c-0.2,0.9-0.2,1.9-0.2,2.8c0,0.9,0.1,1.9,0.1,2.8s0.2,1.9,0.3,2.9
		s0.4,1.9,0.5,2.9l0.3-1.8c-0.3-2.2-0.6-2.4-0.6-0.5c0.1-2.3,0.1-4.5,0-6.6c-0.1-1.1-0.1-2.2-0.1-3.2s-0.1-2.2-0.1-3.2
		C122.5,348.4,122.2,348.4,122.1,349.6z"/>
	<path class="st2" d="M122.6,345.6l0.2,2.5l0.1-0.1C122.7,347.2,122.7,346.3,122.6,345.6L122.6,345.6z"/>
	<path class="st2" d="M140.1,416.4c4.9,9.2,10.8,17.9,17.5,26c0.7,0.4,1.3,0.9,1.8,1.6c0.4,0.7,0.8,1.4,1.3,2c0.9,1.1,2,2.2,3,3.3
		l1.1,1.1l0,0c0.6,0.5,0.6,0.2,0.3-0.2s-0.6-0.9-0.8-1.4c0.1,0.3,0.6,0.9,0.8,1.4c0.4,0.7,0.9,1.3,1.4,1.9c1,0.9,2,1.8,3.1,2.9
		c-1.1-0.9-2.1-1.8-3.1-2.9l-1.8-1.7l-0.6-0.5c2.2,2.5,4.7,4.8,7.1,7.2c0.6,0.5,1.2,1,1.6,1.3c1.7,1.2,3.3,2.7,4.7,4.3l1.4,1.1
		l-0.2-0.3l0.5,0.5l2.9,2.4c1,0.8,2,1.5,3.1,2.3c1.5,0.8,2.9,1.6,4.4,2.4l1.2,1.3c0.9,0.3,1.8,0.6,2.6,1.1c-1-1-1.9-1.9-2.7-2.7
		c-1.2-1.3-3.7-1.3-4.8-3.2c1.1,1.9,3.6,2,4.8,3.2c0.9,0.8,1.7,1.7,2.7,2.7c0.5,0.3,1.1,0.6,1.6,1s1.2,0.7,1.8,1.1
		c1.1,0.7,2.2,1.6,3.3,2.4c-1.3-0.6-2.6-1.3-3.8-2.1c-0.5-0.4-1-0.7-1.5-1.2c-0.5-0.4-0.9-0.8-1.3-1.2c-0.8-0.5-1.7-0.9-2.6-1.1
		l-1.2-1.3c-1.5-0.8-3-1.6-4.4-2.4l3,2.2c1,0.7,2.1,1.4,3.1,2.1l3.2,2.1l3.3,2c7,4.2,14.4,7.8,22,10.8c7.5,2.9,15.3,5.2,23.2,6.8
		c34.4,6.9,70.2,2.4,101.7-13c7.8-3.9,15.3-8.4,22.3-13.7c1.7-1.3,3.4-2.6,5.1-4l4.9-4.2l4.7-4.4c1.6-1.5,3-3,4.5-4.6
		c5.9-6.3,11.3-13,16.3-20c5.1-7.3,9.7-14.9,13.8-22.8c4-8.1,7-16.6,9.1-25.3c2.1-8.6,3.4-17.4,3.9-26.3c0-1.1,0-2.1-0.1-3.1
		s-0.2-1.8-0.3-2.5c-0.2-1.2-0.4-2.3-0.8-3.4c-0.6-1.6-1.2-2.1-1.9-2c-1.3,0.2-2.4,2.6-2.5,3c-0.5,1.3-0.9,2.6-1.2,3.9
		s-0.7,2.5-0.9,3.8s-0.5,2.6-0.7,4s-0.5,2.8-0.7,4.3c-1.1,8-3.2,15.8-6.2,23.3c2.5-6.8,2.4-4.1,0.8,1.9c-1.1,3.6-2.4,7.1-4,10.5
		l-1.3,2.8c-0.5,0.9-1,1.8-1.5,2.6c-0.9,1.6-1.9,3.2-3,4.7c-6,8-12.3,18-20.1,27.6c-2,2.4-4,4.8-6.1,7.1c-1.1,1.1-2.1,2.4-3.2,3.5
		l-3.4,3.3c-1.1,1.1-2.3,2.1-3.5,3.2s-2.3,2.1-3.6,3c-2.5,1.9-4.9,3.8-7.4,5.4c-5.4,3.7-11,7.1-16.8,10.2
		c-16.4,8.1-34.1,13.3-52.2,15.5c-18.7,2.2-37.7,0.7-55.8-4.6c-10-2.9-18.8-5.6-26.9-9.3l-2.2-1.1c-0.7-0.4-1.4-0.8-2.1-1.2
		c-1.4-0.8-2.8-1.7-4.2-2.5l-3.8-2.6l-1.8-1.2l-1.7-1.2c-6.8-4.7-12.4-9-17.7-13.4c5.4,4.8,11.1,9.3,17.1,13.2
		c2.3,1.6,1.4,1.3-0.6,0.3c-1-0.5-2.2-1.1-3.4-1.8s-2.3-1.4-3.1-1.9c-1.4-0.8-2.8-3.2-4.1-4.1c-1.3-1.1-2.7-2.2-4.1-3.2
		s-2.7-2.2-4.2-3.4c-1.3-1-0.5-1.5-1.2-2c-1.7-1.6-3.5-3.1-5.3-4.5c-1.4-1.2-2.8-2.5-3.9-3.9c-0.8-1-1.4-2-2.1-2.9l-1.9-2.8
		c-0.9-1.1-1.6-2.3-2.5-3.5c-0.6-0.7-1.2-1.4-1.8-2.1c0.2,0.5,0.1,1.1-0.1,1.6c-0.8-1.1-1.7-2.8-2.4-4c0.7,1.2,1.6,2.9,2.4,4
		c0.2-0.5,0.2-1.1,0.1-1.6c-4.7-5.7-8.8-11.8-12.4-18.2v0.1c1,1.9,2,3.8,2.9,5.7s1.9,3.9,2.8,6c-0.8-1.8-0.4-1.7,0.7,0.2
		c0.2,0.6,0.3,1.1,0.5,1.7c-1.2-1.5-2.2-3.1-3.2-4.8c-1-1.6-1.8-3.3-2.3-5.1l-1.4-2c-0.4-1.1-0.1-1.2,0-1.6l-0.6-1.1l-0.6-1.1
		c0.3,1.5,0.8,2.9,1.3,4.3C139.6,415,140.1,416.4,140.1,416.4z"/>
	<path class="st2" d="M166.6,452.1l-1.5-1.5L166.6,452.1l1.4,1.6l3,3C170.3,455.3,168.4,453.7,166.6,452.1z"/>
</g>
<g class="st1">
	<path class="st2" d="M256.5,443.6c0.4,0.4,0.9,0.7,1.4,1c-0.2-0.2-0.4-0.5-0.5-0.8C257.1,443.5,256.9,443.6,256.5,443.6z"/>
	<path class="st2" d="M259.3,445.4l0.3,0.2h0.3C259.6,445.6,259.5,445.5,259.3,445.4z"/>
	<path class="st2" d="M262.1,446.5c-0.4-0.2-0.9-0.4-1.4-0.6C261.1,446.2,261.6,446.4,262.1,446.5z"/>
	<path class="st2" d="M260,445.3c0.1,0.2,0.1,0.4-0.2,0.3l0,0l0.9,0.3C260.5,445.7,260.2,445.5,260,445.3z"/>
	<path class="st2" d="M260,445.3c-0.1-0.2-0.3-0.5-0.3-0.6C259.8,444.9,259.9,445.1,260,445.3z"/>
	<path class="st2" d="M262.2,442.6c0.3,0-0.2,0.9,0.4,0.9c0.6,0.1,1.2,0.2,1.8,0.2c0.6,0.1,1.1,0.1,1.7,0.2c0.5-0.1,1.1,1.2,1.7,1
		c0.8-0.1,1.7-0.3,2.5-0.6c0.7-0.3,1-0.6,0.1-0.6c-0.6,0-1.2,0-1.8-0.1c-0.5,0-1.1-0.1-1.6-0.2c-0.5-0.1-1.1-0.1-1.6-0.3l-1.6-0.4
		c-0.5-0.1-1-0.2-1.5-0.3c-0.5-0.1-1-0.2-1.5-0.4l-1.5-0.5l-1.4-0.7c-0.5-0.3-0.9-0.7-1.3-1.1c0.2,0.3,0.5,0.6,0.7,0.9l0.8,0.9
		c0.5,0.4,1.1,0.7,1.8,0.7C260.6,442.2,261.4,442.4,262.2,442.6z"/>
	<path class="st2" d="M248.9,433.7l0.7,0.6c0,0.7,0.2,1.4,0.6,1.9c0.4,0.6,0.9,1.1,1.4,1.5V437c-0.5-0.6-0.8-0.5-0.5,0.2
		c-0.4-1.5-1-2.9-1.8-4.3C249.1,433.1,248.8,433.2,248.9,433.7z"/>
	<path class="st2" d="M248.9,432.1l0.5,0.8l0.1-0.1L248.9,432.1L248.9,432.1z"/>
	<path class="st2" d="M268.4,447.2c0.9,0.1,1.9,0.2,2.8,0.2c0.9,0,1.9-0.1,2.8-0.1s1.8-0.2,2.7-0.4s1.8-0.4,2.6-0.6
		c0.2-0.3,0.3-0.5,0.7-0.6c0.3,0,0.6,0,0.9,0c0.5-0.1,1-0.4,1.4-0.6l0.5-0.3l0,0c0.2-0.2,0.1-0.3-0.2-0.4c-0.2,0-0.4,0-0.6-0.1
		c0.1,0,0.4,0,0.6,0.1c0.3,0,0.6,0,0.9-0.1c0.4-0.3,0.8-0.6,1.2-0.8c-0.4,0.3-0.8,0.6-1.2,0.8l-0.7,0.5l-0.2,0.2
		c1.1-0.5,2.1-1,3.2-1.6c0.2-0.2,0.4-0.3,0.6-0.5c0.5-0.6,1.1-1.1,1.9-1.2l0.5-0.4h-0.1l0.2-0.1c0.7-0.5,1.4-1.1,2.1-1.8
		c0.3-0.6,0.5-1.1,0.8-1.7l0.7-0.2c0-0.4,0.1-0.8,0.3-1.1c-0.5,0.2-1,0.3-1.4,0.5c-0.7,0.1-0.2,1.6-1.3,1.5c1.1,0.1,0.6-1.4,1.3-1.5
		c0.4-0.2,0.9-0.3,1.4-0.5c0.5-0.8,1.2-1.5,2-2c-0.3,1-1,1.7-2,2c-0.2,0.3-0.3,0.7-0.3,1.1l-0.7,0.2c-0.3,0.5-0.6,1.1-0.8,1.7
		c1.3-1.2,2.5-2.6,3.6-4c3.7-4.7,5.7-10.5,5.7-16.5c-0.1-3.1-0.8-6.1-2.1-8.8c-0.7-1.4-1.4-2.7-2.3-4l-1.4-1.9
		c-0.5-0.6-1-1.2-1.6-1.8c-2.3-2.4-5-4.6-7.8-6.4c-2.8-1.8-5.9-3.2-9-4.3c-3.2-1.1-6.6-1.6-9.9-1.4c-3.5,0.2-6.9,1.2-10,2.9
		c-3,1.8-5.7,4.1-7.9,6.9c-2.2,2.8-4.1,5.8-5.6,9c-1.4,3.3-2.1,6.8-2.1,10.4c0,1,0,2,0.1,2.9s0.2,1.9,0.3,2.8l0.5,2.5
		c0.1,0.8,0.4,1.5,0.6,2.2c0.2,0.4,0.4,0.8,0.6,1.1c0.2,0.3,0.4,0.6,0.7,0.8c0.4,0.4,0.8,0.7,1.3,1c0.6,0.3,1.4,0.3,2,0
		c0.8-0.5,1.5-1.2,1.9-2c0.2-0.5,0.4-1.1,0.6-1.6c0.1-0.5,0.2-0.9,0.3-1.4c0-0.5,0-0.9,0-1.4c0-0.5,0-1,0-1.4
		c-0.1-1.1-0.1-2.3-0.1-3.4c0.1-1.5,0.5-3,1-4.4c-0.8,2.3-1.2,1.4-1.2-0.6c0.1-1.2,0.4-2.4,0.9-3.6c0.5-1.2,1.2-2.3,2.2-3.2
		c2.8-2.2,4.6-4.8,7-7c1.2-1.1,2.5-2,4-2.6c0.8-0.3,1.6-0.5,2.4-0.6c0.4-0.1,0.9-0.1,1.3-0.1c0.4,0,0.9,0,1.3,0.1
		c0.9,0.2,1.7,0.1,2.7,0.3c0.5,0.1,1,0.1,1.5,0.2l1.5,0.4c2.6,1,5.1,2.2,7.5,3.6c2.4,1.3,4.5,3,6.5,4.8c1.8,1.7,3.3,3.8,4.3,6.1
		c0.9,2.4,1.1,5,0.6,7.5c-0.3,2.8-0.8,5.6-1.6,8.3c-0.2,0.5-0.5,0.9-0.8,1.3c-0.3,0.4-0.6,0.8-1,1.2c-0.7,0.7-1.3,1.4-1.9,1.9
		c-1.7,1.9-3.2,3.5-4.8,4.9c1.8-1.4,3.4-2.9,4.8-4.7c0.6-0.6,0.6-0.2,0.4,0.5c-0.1,0.4-0.3,0.8-0.5,1.2c-0.2,0.3-0.4,0.7-0.6,1
		c-0.3,0.5-1.5,0.2-1.8,0.7c-0.4,0.3-0.8,0.7-1.2,1.2c-0.4,0.4-0.8,0.8-1.2,1.3s-0.8-0.4-0.9-0.2c-0.6,0.5-1.2,1-1.6,1.6
		c-0.4,0.5-0.9,0.8-1.5,1c-0.7,0.1-1.5,0.2-2.2,0.2c-0.4,0.1-0.9,0.1-1.3,0.2l-0.8,0.4c0.2,0.3,0.4,0.6,0.5,0.9c-0.3,0-0.5,0-0.8,0
		c-0.3,0-0.5-0.1-0.8-0.1c0.2,0,0.5,0.1,0.8,0.1c0.3,0,0.5,0,0.8,0c-0.1-0.4-0.3-0.7-0.5-0.9c-2.3,0.8-4.8,1.2-7.2,1.1v0.1
		c0.7,0.1,1.4,0.2,2.1,0.4c0.8,0.2,1.5,0.4,2.2,0.7c-0.7-0.2-0.6-0.5,0.2-0.5c0.2,0.2,0.4,0.3,0.6,0.5c-0.7,0.2-1.3,0.2-2,0.2
		c-0.7,0-1.3-0.2-1.9-0.6l-0.9,0.2c-0.4-0.2-0.3-0.5-0.3-0.8l-0.9-0.1c0.4,0.4,0.8,0.7,1.3,1C267.9,447,268.4,447.2,268.4,447.2z"/>
	<path class="st2" d="M283.5,444.4c-0.2,0.1-0.4,0.3-0.6,0.4c0.5-0.2,0.9-0.4,1.3-0.7l1.3-0.7C284.8,443.3,284.2,443.9,283.5,444.4z
		"/>
</g>
<circle class="st3" cx="271.6" cy="420.7" r="8.8"/>
<g class="st1">
	<path class="st2" d="M276.7,426.2l-0.4,0.3c0.1,0,0.3,0,0.4,0.1C276.8,426.6,276.7,426.4,276.7,426.2z"/>
	<path class="st2" d="M275.9,426.7L275.9,426.7l-0.1,0.1C275.8,426.8,275.9,426.7,275.9,426.7z"/>
	<path class="st2" d="M275.3,427.4c0.1,0,0.3-0.1,0.3-0.2C275.5,427.1,275.4,427.2,275.3,427.4z"/>
	<path class="st2" d="M276,427.2c-0.1-0.1-0.2-0.2-0.2-0.3l0,0c0,0.1-0.1,0.2-0.1,0.2C275.8,427.1,275.9,427.1,276,427.2z"/>
	<path class="st2" d="M276,427.2c0.1,0.1,0.3,0.1,0.3,0.2C276.2,427.3,276.1,427.3,276,427.2z"/>
	<path class="st2" d="M277.7,430.2c0,0.1-0.5-0.7-0.6-0.4c-0.3,0.5-0.6,1.1-1.1,1.3c-0.1,0.3-0.9-0.6-1-0.3
		c-0.3,0.4-0.6,0.7-0.8,1.1c-0.2,0.4-0.4,0.8,0.1,0.6c1.1-0.4,2.2-1,3.1-1.8c0.6-0.8,1.1-1.7,1.5-2.6c0.2-0.2,0.3-0.4,0.6-0.5
		c-0.3,0.1-0.6,0.3-1,0.4s-0.3,0.4-0.3,0.8C278.1,429.4,277.9,429.8,277.7,430.2z"/>
	<path class="st2" d="M279.1,423.6l0.2,0.4c-0.8,0.1-0.7,0.5-0.7,1l0.5,0.1c0.1-0.2-0.1-0.4-0.4-0.3c0.6-0.1,1.1-0.5,1.1-1.1
		C279.6,423.6,279.3,423.5,279.1,423.6z"/>
	<path class="st2" d="M279.9,423.4v0.3h0.1L279.9,423.4L279.9,423.4z"/>
	<path class="st2" d="M274,428.9c-1.1,0.4-2.3,0.4-3.5,0.1c-0.1,0.2-0.2,0.4-0.3,0.2c0-0.1-0.1-0.3-0.2-0.4c-0.2,0-0.3-0.1-0.5-0.2
		h-0.2l0,0c-0.1,0.1-0.2,0.2-0.1,0.4c0,0.1,0.1,0.3,0.1,0.4c0-0.1-0.1-0.3-0.1-0.4c0-0.1-0.1-0.2-0.2-0.3c-0.2,0-0.3,0-0.5-0.1
		c0.2,0,0.3,0,0.5,0.1l0.3,0l0.1-0.1c-0.3-0.1-0.7-0.3-1-0.5h-0.2c-0.3,0-0.6,0-0.5-0.5l-0.1-0.1v0.1c0,0,0-0.1,0-0.1
		c-0.2-0.2-0.4-0.4-0.6-0.5c-0.3,0.1-0.5,0.1-0.8,0.1l0.2-0.5c-0.2,0.1-0.4,0.2-0.5,0.1c-0.1,0.3-0.2,0.6-0.2,0.9
		c-0.1,0.5,1-0.5,0.6,0.4c0.4-0.9-0.7,0.1-0.6-0.4c0.1-0.3,0.1-0.6,0.2-0.9c-0.3-0.1-0.4-0.5-0.2-1c0.5,0,0.4,0.4,0.2,1
		c0.2,0,0.4,0,0.5-0.1l-0.2,0.5c0.3,0,0.5,0,0.8-0.1c-0.4-0.4-0.7-0.8-1-1.2c-0.8-1.3-1.3-2.9-1.4-4.4c0-1.5,0.5-3,1.4-4.2
		c1-1.2,2.5-1.8,4-1.6c0.7,0.1,1.2,0.2,1.8,0.3c0.5,0.1,1.1,0.2,1.5,0.5c0.5,0.2,0.9,0.6,1.1,1.1c0.2,0.6,0.2,1.2-0.1,1.8
		c-0.2,0.3-0.2,0.7-0.1,1.1c0.1,0.3,0.2,0.6,0.2,0.9c1,0.6,2.1,1.1,3.2,1.5c0.8,0.3,1.6,0.4,2.4,0.4c0.7,0,1.4-0.2,1.9-0.6
		c0.4-0.3,0.6-0.7,0.7-1.1c0.2-0.9,0.3-2,0.8-4c-0.3,1.3-0.9,1-1.3,0.1c-0.5-1.2-0.6-2.6-0.3-3.9c0.5-2.5-1.2-4.5-3.5-5.5
		s-4.8-1.2-7.1-1.5c-1.3-0.1-2.6,0-3.8,0.5c-3.8,0.6-7,3-8.6,6.4c-1.6,3.4-2,7.3-1.1,11c0.5,2,2.2,3.2,3.5,4.2
		c0.8,0.8,1.3,2,2.1,2.6c1.1,0.8,2.4,1.3,3.8,1.3c-1.3-0.2-2.5-0.7-3.6-1.4c-0.4-0.3-0.1-0.4,0.4-0.5c0.5,0,1,0,1.5,0
		c0.3,0,0.1,1.1,0.5,1c0.6,0.2,1.2,0.2,1.8,0c0.3-0.1,0,0.8,0.1,0.7c0.5,0,0.9-0.2,1.2-0.5c0.4-0.2,0.7-0.4,0.9-0.3s0.7,0.4,1,0.5
		c0.2,0.1,0.4,0.1,0.6,0.1l0.4-0.3c-0.1-0.3-0.2-0.7-0.2-1c0.2,0,0.5,0.2,0.7,0.3c-0.2,0-0.5-0.2-0.7-0.3c0,0.3,0.1,0.7,0.2,1
		c1-0.6,1.9-1.3,2.7-2l0-0.1c-0.5,0.3-1.2,0.3-1.7-0.1c0.3,0.2,0.3,0.4,0,0.5l-0.3-0.5c0.4-0.3,0.8-0.7,1.4-0.1l0.2-0.4
		c0.2,0.1,0.3,0.4,0.4,0.6c0.1-0.1,0.2-0.1,0.3-0.2c-0.2-0.2-0.5-0.4-0.8-0.5L274,428.9z"/>
	<path class="st2" d="M269,428.8h0.2c-0.3-0.1-0.6-0.3-0.8-0.4C268.4,428.8,268.7,428.8,269,428.8z"/>
</g>
<g class="st1">
	<path class="st2" d="M703.2,378.7l-1.9,0.3c0.3,0,0.7,0.1,1,0.2C702.7,379.2,702.9,379,703.2,378.7z"/>
	<path class="st2" d="M699.5,379.2h-0.3l-0.3,0.1L699.5,379.2z"/>
	<path class="st2" d="M696.2,379.9c0.6,0,1.1-0.1,1.7-0.3C697.3,379.7,696.7,379.8,696.2,379.9z"/>
	<path class="st2" d="M698.9,379.8c-0.2-0.1-0.3-0.2,0-0.4l0,0l-1,0.3C698.2,379.7,698.6,379.7,698.9,379.8z"/>
	<path class="st2" d="M698.9,379.8c0.2,0.1,0.5,0.2,0.7,0.2C699.3,379.9,699.1,379.8,698.9,379.8z"/>
	<path class="st2" d="M698.5,383.3c-0.3,0.2-0.4-0.8-1-0.5c-1.4,0.6-2.8,1-4.3,1.3c-0.6,0.3-1.8-0.6-2.5-0.3c-1.5,0.5-5.4,2.3-3,1.9
		c3.6-0.6,5.9-1.2,9-1.8c2.6-0.8,5-1.6,7.6-2.4c0.7-0.1,1.4-0.2,2.2-0.3c-0.9,0-1.9,0-3,0.1C702.1,381.3,700.7,382.7,698.5,383.3z"
		/>
	<path class="st2" d="M717.1,376.2c-0.3,0.2-0.5,0.4-0.8,0.6c-0.8-0.1-1.6,0-2.3,0.2c-0.8,0.2-1.5,0.5-2.2,0.8l0.8,0.3
		c0.9-0.3,0.9-0.5,0.1-0.6c0.9,0.1,1.8,0,2.8-0.1c0.9-0.1,1.7-0.4,2.5-0.8C717.7,376.5,717.6,376.2,717.1,376.2z"/>
	<path class="st2" d="M718.8,376.2l-0.9,0.5l0.1,0.1L718.8,376.2L718.8,376.2z"/>
	<path class="st2" d="M689.2,381.8c-4.5,0.6-8.7,1.1-12.8,1.5c-0.3,0.2-0.5,0.5-0.9,0.4c-0.3-0.1-0.7-0.2-1-0.2l-1.8,0.1l-0.6,0.1
		l0,0c-0.3,0.1-0.2,0.3,0,0.4c0.2,0.1,0.5,0.2,0.7,0.3c-0.1-0.1-0.5-0.2-0.7-0.3c-0.3-0.1-0.7-0.2-1-0.2c-0.6,0.1-1.1,0.2-1.7,0.2
		c0.6-0.2,1.1-0.2,1.7-0.2l1-0.2l0.3-0.1l-4.1,0.3c-0.3,0.1-0.6,0.1-0.8,0.2c-0.8,0.3-1.8,0.4-2.6,0.1l-0.7,0l0.2,0.1l-0.3-0.1
		l-3.1,0.2c-0.7,0.2-1.3,0.5-2,0.8l-0.8-0.4c-0.3,0.3-0.7,0.5-1.1,0.6c0.6,0.2,1.1,0.5,1.6,0.6c0.8,0.4,1.5-1.1,2.4-0.3
		c-0.9-0.8-1.6,0.7-2.4,0.3c-0.5-0.1-1-0.4-1.6-0.6c-1.1,0.3-2.2,0.2-3.3-0.1c1.1-0.4,2.3-0.4,3.3,0.1c0.4-0.1,0.8-0.3,1.1-0.6
		l0.8,0.4c0.7-0.2,1.3-0.5,2-0.8l-6.2,0.4c-13.5,0.7-25.9,1.9-39.9,2.7c-7.6,0.4-14.9,0.5-22.1,0.5c-14.3,0-27.2,2.3-41.7,0.9
		c-5.6-0.4-15.8,0.8-21.1,1.3c-7.1,2.2-3,6-2.6,6.2c4.7,3.1,7.9,1,17,2.4c-6.2-0.7,4.3-2.6,10.2-0.6c8.6,3,20.2-0.8,30.6-0.6
		c2.6,0,5.3-0.4,8.4-0.5c16,0,30.7-2.8,47.4-4c4.4-0.4,8.2-1.7,11.9-2.5c2.7-0.4,5.7-0.2,7.9-0.5c3.1-0.3,6.2-0.9,9.3-1.7
		c-3.2,0.5-5.5,1-9.1,1.5c-2.4,0.3,1.5-1.4,3.1-1.8c0.7-0.3,1.8,0.7,2.5,0.4c1.5-0.3,2.9-0.7,4.3-1.2c0.7-0.3,0.7,0.7,1,0.5
		c2.1-0.5,3.7-1.9,5-1.8l3,0.1c0.6,0,1.2-0.1,1.8-0.2l1.1-0.4c-0.3-0.2-0.5-0.6-0.7-0.9c0.6,0,1.4,0.1,2,0.1c-0.6,0-1.4-0.1-2-0.1
		c0.1,0.4,0.3,0.7,0.7,0.9c2.8-0.9,6-1.8,8.9-2.6v-0.1c-1.8,0.4-3.6,0.4-5.4,0.1c0.8,0.1,0.8,0.4-0.1,0.6l-0.8-0.4
		c1.5-0.5,3.1-0.9,4.7-0.4l1-0.5c0.5,0.1,0.5,0.4,0.7,0.6l1-0.2C691.4,382.1,690.3,381.9,689.2,381.8z"/>
	<path class="st2" d="M671,383.9c0.2-0.1,0.5-0.1,0.8-0.2l-3.5,0.2C669.2,384.3,670.2,384.3,671,383.9z"/>
</g>
</svg>
