<?xml version="1.0" encoding="utf-8"?>
<!-- Generator: Adobe Illustrator 25.0.0, SVG Export Plug-In . SVG Version: 6.00 Build 0)  -->
<svg version="1.1" id="Layer_1" xmlns="http://www.w3.org/2000/svg" xmlns:xlink="http://www.w3.org/1999/xlink" x="0px" y="0px"
	 viewBox="0 0 841.9 841.9" style="enable-background:new 0 0 841.9 841.9;" xml:space="preserve">
<style type="text/css">
	.st0{fill:#E6B8A2;}
	.st1{fill:#262524;}
	.st2{opacity:0.85;}
	.st3{fill:#211F1E;}
</style>
<rect class="st0" width="841.9" height="841.9"/>
<path class="st1" d="M134.8,491.7c0.8,3.4-0.6,6.7-3.2,7.4s-6,0-6.9-3.4s-1.1-7.8,1.5-8.5C128.8,486.6,134,488.3,134.8,491.7z"/>
<g class="st2">
	<path class="st3" d="M133.4,488.9c-0.1-0.1-0.2-0.2-0.3-0.3c0,0.1,0.1,0.1,0.1,0.2C133.2,488.9,133.3,488.9,133.4,488.9z"/>
	<path class="st3" d="M132.8,488.4L132.8,488.4L132.8,488.4L132.8,488.4z"/>
	<path class="st3" d="M132.2,488.1c0.1,0.1,0.2,0.1,0.3,0.2C132.4,488.2,132.3,488.1,132.2,488.1z"/>
	<path class="st3" d="M132.6,488.4C132.6,488.4,132.6,488.4,132.6,488.4L132.6,488.4l-0.1-0.2C132.5,488.3,132.6,488.4,132.6,488.4z
		"/>
	<path class="st3" d="M132.6,488.4v0.1C132.6,488.5,132.6,488.5,132.6,488.4z"/>
	<path class="st3" d="M132,489.1c-0.1,0,0.1-0.2-0.1-0.2c-0.3-0.1-0.5-0.1-0.8-0.2c-0.1,0-0.2-0.3-0.3-0.3c-0.3-0.1-1.1,0-0.7,0.1
		c0.5,0.1,1,0.3,1.5,0.5c0.5,0.1,0.9,0.3,1.3,0.6c0.1,0.1,0.2,0.2,0.3,0.3c-0.1-0.2-0.2-0.3-0.3-0.4
		C132.8,489.2,132.4,489.2,132,489.1z"/>
	<path class="st3" d="M134.9,491.3l-0.1-0.2c0-0.3-0.1-0.6-0.4-0.8v0.2c0.1,0.1,0.2,0.1,0.1,0c0.1,0.3,0.2,0.7,0.3,1
		C134.8,491.5,134.9,491.4,134.9,491.3z"/>
	<path class="st3" d="M134.9,491.7c0-0.1-0.1-0.1-0.1-0.2l0,0C134.8,491.6,134.8,491.6,134.9,491.7L134.9,491.7z"/>
	<path class="st3" d="M130.8,487.7c-0.8-0.3-1.6-0.5-2.4-0.6c-0.1,0-0.1,0.1-0.2,0c-0.1,0-0.1-0.1-0.2-0.1h-0.3h-0.1l0,0
		c-0.1,0,0,0.1,0,0.1c0,0,0.1,0,0.1,0.1l-0.1-0.1c-0.1,0-0.1-0.1-0.2-0.1c-0.1,0-0.2,0-0.3,0c0.1,0,0.2,0,0.3,0h0.2h0.1
		c-0.3,0-0.5,0-0.8,0h-0.2c-0.2,0.1-0.4,0.1-0.5,0l-0.2,0l0,0l-0.3,0.1l-0.3,0.2c-0.1,0.1-0.2,0.2-0.2,0.4H125c0,0.1,0,0.2-0.1,0.3
		c0.1,0,0.2-0.1,0.3-0.1c0.2,0,0.1-0.4,0.3-0.3c-0.3-0.1-0.2,0.3-0.3,0.3c-0.1,0-0.2,0-0.3,0.1c-0.1,0.2-0.3,0.4-0.4,0.5
		c0-0.2,0.2-0.4,0.4-0.5c0-0.1,0-0.2,0.1-0.3h0.2c0.1-0.1,0.1-0.3,0.2-0.4c-0.4,0.2-0.7,0.5-0.9,0.9c-0.6,1.2-0.9,2.6-0.7,3.9
		c0.1,1.3,0.2,2.7,0.6,4c0.2,0.8,0.6,1.5,1.1,2.2c0.5,0.6,1.2,1.1,1.9,1.5c1.4,0.6,3,0.7,4.5,0.3c1.7-0.4,3.1-1.5,4-3
		c0.4-0.7,0.7-1.5,0.8-2.4c0.1-0.8,0.1-1.6-0.1-2.4c-0.7-1.5-1.5-0.4-1.6-0.4c-0.3,0.4-0.4,0.8-0.4,1.3c0,0.6-0.2,1.3-0.5,1.8
		c0.2-0.5,0.4-0.3,0.3,0.2c-0.1,0.6-0.4,1.1-0.9,1.4c-0.7,0.3-1.2,0.8-1.8,1c-0.2,0.1-0.3,0.1-0.5,0.2c-0.2,0.1-0.4,0.1-0.6,0.2
		c-0.4,0.1-0.8,0.1-1.3,0c-0.4-0.1-0.8-0.2-1.2-0.3c-0.9-0.4-1.6-1.3-1.9-2.3c-0.4-1.4-0.6-2.8-0.7-4.2c0-0.6,0-1.3,0-1.9
		c0.1-0.3,0.3-0.5,0.6-0.7c0.1,0,0.1-0.1,0.2-0.1l0.2-0.1c0.2-0.1,0.4-0.2,0.7-0.2c-0.2,0-0.5,0.1-0.7,0.2c-0.1,0.1-0.3,0.2-0.4,0.3
		c-0.2,0.2-0.1-0.4,0.2-0.5s0.3,0.1,0.4,0.1s0.4-0.2,0.7-0.3c0.1-0.1,0.1,0.2,0.2,0.2c0.4,0,0.7-0.3,0.9-0.2
		c0.2,0.1,0.3,0.1,0.5,0.2l0.3,0.1h0.2c0-0.1,0-0.2,0-0.3c0.1,0,0.2,0.1,0.3,0.2c-0.1,0-0.2-0.1-0.3-0.2c0,0.1,0,0.2,0,0.3
		c0.6,0,1.2,0.1,1.7,0.2l0,0c-0.3-0.1-0.6-0.3-0.9-0.5c0.1,0.1,0.1,0.2-0.1,0.1l-0.1-0.2c0.3,0,0.6,0.1,0.8,0.3h0.1
		c0.1,0.1,0,0.1,0,0.2l0.2,0.1C131.1,488.1,131,487.9,130.8,487.7z"/>
	<path class="st3" d="M127.4,487h0.2c-0.2,0-0.5,0-0.7,0C127,487.1,127.2,487,127.4,487z"/>
</g>
<g class="st2">
	<path class="st3" d="M170.3,372.4c-1.6,1.1-3.1,2.4-4.7,3.6c0.8-0.6,1.6-1.1,2.5-1.6C169,373.8,169.7,373.2,170.3,372.4z"/>
	<path class="st3" d="M161.4,379.4l-0.8,0.7l-0.6,0.6L161.4,379.4z"/>
	<path class="st3" d="M153.9,386.4c1.4-1.2,2.6-2.4,3.9-3.5C156.4,384,155.1,385.2,153.9,386.4z"/>
	<path class="st3" d="M160.1,381.1c-0.6,0.3-0.9,0.4-0.2-0.4l0,0c-0.8,0.7-1.5,1.4-2.2,2.1C158.5,382.3,159.3,381.7,160.1,381.1z"/>
	<path class="st3" d="M160.1,381.1c0.6-0.3,1.4-0.8,1.7-1C161.3,380.4,160.8,380.8,160.1,381.1z"/>
	<path class="st3" d="M160.4,385.4c-0.7,0.8-1.1-0.1-2.5,1.4c-1.7,1.7-3.1,3.3-4.6,4.9s-2.9,3.2-4.4,4.8c-0.8,0.9-1.7,1.7-2.7,2.4
		c-1,0.7-1.9,1.5-2.6,2.5c-3.1,3.7-9.2,14-5,8.4c1.6-2.1,3.1-4,4.5-5.8s2.9-3.4,4.3-5s2.8-3.2,4.3-4.7l2.3-2.4l2.5-2.4
		c5.4-5.6,11.2-10.9,17.2-15.9l1.3-1l0.6-0.5c0.1-0.1,0.3-0.2,0.4-0.3l0.3-0.3l2.5-2l-1.7,1.3c-0.6,0.4-1.1,0.9-1.8,1.3l-3.7,2.5
		c-1.9,1.4-3.6,2.9-5.2,4.6l-2.8,3C162.7,383.2,161.6,384.3,160.4,385.4z"/>
	<path class="st3" d="M202.5,343.8c-0.6,0.8-1.8,2.5-1.8,2.5c-3.6,3-7,6.2-10.2,9.7l1.9-1.1c1.9-1.9,2-2.3,0.1-0.8
		c4.3-3.3,8.2-7,11.8-11.1C203.8,343,203.6,342.8,202.5,343.8z"/>
	<path class="st3" d="M206.2,340.5l-2,2.5h0.1C205,342.1,205.6,341.3,206.2,340.5L206.2,340.5z"/>
	<path class="st3" d="M139.5,402.8c-8.7,10.5-15.7,21.4-20.2,33.1c-0.1,1-0.3,2-0.7,2.9c-0.5,0.9-0.9,1.8-1.2,2.7
		c-0.6,1.8-1,3.5-1.4,5.3c-0.1,0.6-0.2,1.3-0.3,1.9v0c-0.1,1,0.1,0.8,0.4,0.2s0.5-1.3,0.7-1.8c-0.1,0.3-0.4,1.2-0.7,1.8
		c-0.1,0.4-0.3,0.9-0.4,1.3s-0.2,1-0.3,1.5c-0.2,1.7-0.3,3.4-0.5,5.2c0-1,0.1-1.9,0.1-2.8s0.2-1.6,0.4-2.4l0.2-1.5
		c0.1-0.5,0.2-1,0.2-1.5c0-0.3,0.1-0.6,0.1-0.9c-0.9,4.1-1.4,8.3-1.4,12.5c0,1,0.1,1.9,0.1,2.6s0.1,1.5,0.2,2.2s0.2,1.5,0.2,2.1
		c0.2,1.2,0.2,2.4,0.2,3.5c0.1,0.7,0.3,1.5,0.4,2.2v-0.5c0,0.3,0.1,0.6,0.1,0.9c0.7,3.1,1.6,6.2,2.8,9.1c1,1.8,2.1,3.6,3.3,5.4
		c0,0,0.1,0.4,0.2,0.8s0.3,0.9,0.4,1.3c0.4,0.4,0.7,0.7,1.1,1.2c0.4,0.5,0.8,1,1.3,1.5c-0.8-1.5-1.3-3-1.9-4.4
		c-0.4-1.1-1-2.1-1.8-2.9c-0.8-1-1.3-2.2-1.4-3.5c0.1,1.3,0.6,2.5,1.4,3.5c0.8,0.9,1.4,1.9,1.8,2.9c0.6,1.3,1.1,2.8,1.9,4.4
		c0.9,1.2,2,2.5,3,3.9c0.5,0.7,1.1,1.4,1.6,2.1l1.5,2c-1.4-1.1-2.6-2.5-3.7-3.9c-0.9-1.3-1.7-2.6-2.3-4c-0.4-0.6-0.9-1.1-1.3-1.5
		c-0.3-0.4-0.7-0.8-1.1-1.2c-0.1-0.4-0.3-0.9-0.4-1.3s-0.2-0.8-0.2-0.8c-1.2-1.8-2.3-3.6-3.3-5.4c2.4,5.9,5.8,11.3,10,16.1
		c6.8,7.7,15.2,13.8,24.6,18c9.2,4.2,18.9,7,28.9,8.4c10,1.5,20.2,2,30.3,1.5c10.4-0.5,20.8-1.8,31.1-3.9c5.7-1.2,11.3-2.8,16.7-4.7
		c5.4-1.9,10.6-4,15.8-6.5c10-4.9,19.5-10.8,28.3-17.7c8.5-6.6,16.4-14,23.6-22.1c3.6-3.9,6.9-8,10.2-12.1c3.3-4.1,6.4-8.4,9.4-12.7
		c12-17.2,22.3-35.5,32.5-55.1c4.8-9.7,9.1-19.8,12.8-30c4.1-11.3,7.6-22.7,9.8-30.6c2.2-10.8,1.3-13.8,0.1-13.8s-3.1,2.6-3.3,3.1
		c-3.4,6-5.4,11.5-7.8,18.7c-3.2,9.6-6.9,19-11.3,28.2c3.8-8.3,3.2-5,0.4,2.4c-1.4,3.7-3.3,8.3-5.6,12.9c-2.1,4.4-4.5,8.7-7.2,12.9
		c-7,10.5-14.1,23.7-22.5,37s-17.9,26.8-28.6,37.5c-5.7,5.9-11.7,11.5-18,16.7c-18.4,14.2-38.6,24.5-60.8,28.8
		c-11.3,2.3-22.8,3.6-34.3,3.7c-17.9,0.3-35.6-3.4-51.9-10.7c-5-2.3-9.7-5.1-14-8.5c-3-2.5-5.6-5.4-7.8-8.5c-2-2.8-3.8-5.9-5.2-9
		c-3.8-7.9-5.7-16.6-5.6-25.4c-0.2,4.2,0.2,8.4,1,12.5c0.8,4.3,2.2,8.5,4.1,12.4c0.7,1.5,0.9,2,0.7,1.9c-0.6-0.6-1-1.3-1.4-2
		c-1.6-2.5-2.8-5.2-3.8-8c-0.7-1.8-0.2-5-0.7-6.9c-0.6-4.2-0.8-8.4-0.8-12.6c0-2,1-1.6,1-2.6c0-0.4,0.1-0.8,0.1-1.1s0.1-0.8,0.1-1.1
		c0.1-0.7,0.2-1.4,0.2-2.1c0.2-1.4,0.3-2.7,0.5-4s0.4-2.4,0.7-3.5c0.3-1,0.6-2,1-3c0.6-1.4,1.2-2.7,1.8-4l1.9-3.7
		c0.8-1.5,1.6-3,2.5-4.6c0.5-1,0.9-2.1,1.5-3.1c-0.5,0.4-1,0.7-1.7,0.9c0.9-1.5,2.3-3.4,3.3-4.8c-0.9,1.4-2.4,3.3-3.3,4.8
		c0.6-0.1,1.2-0.4,1.7-0.9c2-4,4.3-7.8,6.8-11.5c2.6-3.9,5.4-7.6,8.4-11.2h-0.1c-3.5,4-6.9,8-10.6,12.2c1.6-1.8,1.6-1.4,0.1,0.8
		l-1.6,1.4c2.4-4.1,5.3-7.8,8.7-11c0,0,0.3-0.4,0.7-0.9l1.1-1.6c1.1-1,1.3-0.8,1.7-0.9c0.7-0.8,1.4-1.6,2.1-2.4
		c-0.5,0.3-1.1,0.9-1.9,1.5s-1.6,1.4-2.3,2.1C140.8,401.5,139.5,402.8,139.5,402.8z"/>
	<path class="st3" d="M115.3,451.9c0.1-0.7,0.1-1.6,0.3-2.6c-0.7,3.4-1,6.9-1.2,10.5C115,457.9,115,454.9,115.3,451.9z"/>
</g>
<g class="st2">
	<path class="st3" d="M150,507.4l0.2-0.6c-0.1,0.1-0.2,0.2-0.3,0.2C149.8,507.1,149.9,507.2,150,507.4z"/>
	<path class="st3" d="M150.4,506.2c0,0,0-0.1,0-0.1V506C150.4,506.1,150.4,506.1,150.4,506.2z"/>
	<path class="st3" d="M150.6,505.1c-0.1,0.2-0.1,0.4-0.1,0.6C150.6,505.5,150.6,505.3,150.6,505.1z"/>
	<path class="st3" d="M150.2,505.9c0.1,0,0.2,0,0.3,0.1l0,0v-0.4C150.4,505.7,150.3,505.8,150.2,505.9z"/>
	<path class="st3" d="M150.2,505.9c-0.1,0-0.2,0.1-0.3,0.1C150,506,150.1,505.9,150.2,505.9z"/>
	<path class="st3" d="M147.8,504.9c-0.1-0.1,0.6,0.1,0.6-0.2c0-0.5-0.3-1-0.2-1.5c-0.1-0.2,0.7-0.4,0.6-0.6c-0.1-0.5-0.8-2-0.9-1.2
		c-0.1,1.1-0.1,1.9-0.2,2.9c0,0.9,0.1,1.7,0.1,2.6c0,0.2-0.1,0.4-0.3,0.6c0.2-0.2,0.4-0.5,0.6-0.8S147.8,505.6,147.8,504.9z"/>
	<path class="st3" d="M148,511.8c0-0.1-0.1-0.4-0.1-0.4c0.7-0.3,0.7-0.8,0.7-1.4l-0.4,0.1c-0.1,0.3,0.1,0.4,0.4,0.2
		c-0.5,0.3-0.9,0.9-1,1.5C147.6,511.8,147.8,511.9,148,511.8z"/>
	<path class="st3" d="M147.3,512.1c0-0.1,0-0.2,0.1-0.3h-0.1C147.3,511.9,147.3,512,147.3,512.1L147.3,512.1z"/>
	<path class="st3" d="M150.5,502.6c0.1-0.4,0.2-0.7,0.2-1.1l0.1-1.1c0.1-0.7,0.2-1.4,0.3-2.1c-0.1-0.1-0.3-0.2-0.2-0.3
		c0.1-0.1,0.2-0.2,0.3-0.3l0.1-0.6c0-0.1,0-0.1,0-0.2l0,0c-0.1-0.1-0.2-0.1-0.3,0c-0.1,0.1-0.2,0.1-0.3,0.2c0.1,0,0.2-0.1,0.3-0.2
		c0.1-0.1,0.2-0.2,0.2-0.3c0-0.2,0-0.4,0-0.6c0.1,0.2,0.1,0.4,0,0.6l0.1,0.3l0.1,0.1l0.1-1.4c0-0.1-0.1-0.2-0.1-0.3
		c-0.1-0.3-0.2-0.7,0.1-0.9v-0.2l-0.1,0l0.1-0.1v-1.1c-0.1-0.2-0.4-0.4-0.5-0.6l0.3-0.3c-0.2-0.1-0.3-0.2-0.4-0.3
		c-0.2,0.2-0.4,0.4-0.5,0.6c-0.3,0.3,0.8,0.4,0.2,0.8c0.7-0.4-0.5-0.5-0.2-0.8c0.1-0.2,0.3-0.4,0.5-0.6c-0.2-0.4-0.1-0.8,0.1-1.2
		c0.4,0.4,0.2,0.8-0.1,1.2c0.1,0.2,0.3,0.3,0.4,0.3l-0.3,0.3c0.1,0.2,0.4,0.4,0.5,0.6c0-0.7-0.1-1.4-0.2-2.1c-0.3-2.3-1-4.5-2.1-6.5
		c-1.2-2.1-2.7-4-4.4-5.6c-1.9-1.8-3.9-3.5-6.1-5c-2.1-1.3-4.3-2.4-6.7-3c-2.4-0.7-4.8-1.6-7-2.7c-1.8-0.9-5.5-1-7.4-0.9
		c-1.1,0.4-1.7,1.5-1.6,2.6c0,0.6,0.2,1.3,0.4,1.9c0.4,0.9,1.1,1.6,2.1,1.8c1.1,0.2,2.2,0.6,3.1,1.2c-1.9-1.1,1.7-1.6,3.2,0.5
		c1,1.3,2.5,2.2,4.1,2.3c1.6,0.3,3.3,0.4,4.6,1.3c0.3,0.2,0.7,0.4,1.1,0.5c0.4,0.2,0.8,0.3,1.2,0.5c1.9,1.4,3.7,2.5,5.3,3.8
		c1.7,1.2,3.1,2.8,4,4.8c0.3,0.5,0.6,1,1,1.4c0.4,0.4,0.8,0.9,1.1,1.3c0.2,0.7,0.2,1.5,0.2,2.2c0.1,0.9,0.4,1.8,0.7,2.7
		c-0.1-1-0.4-1.6-0.6-2.6c-0.1-0.3,0.2-0.2,0.5,0c0.3,0.2,0.5,0.5,0.7,0.9c0.2,0.2-0.6,0.6-0.4,0.8c0,0.4,0.4,0.8,0.6,1.3
		c0.1,0.2-0.6,0.2-0.5,0.3c0.1,0.6,1,1.2,0.8,1.6c-0.1,0.3-0.3,0.6-0.4,0.9c-0.1,0.2-0.1,0.4-0.1,0.5c0,0.1,0.1,0.3,0.1,0.4
		c0.3-0.1,0.5-0.1,0.8-0.1c-0.1,0.2-0.3,0.4-0.3,0.6c0.1-0.2,0.2-0.4,0.3-0.6c-0.3,0-0.5,0-0.8,0.1c0.2,0.5,0.3,1,0.4,1.5
		c0.1,0.5,0.1,1,0.2,1.6h0.1c0-0.6,0.3-1.2,0.8-1.6c-0.2,0.2-0.4,0.2-0.4-0.1l0.4-0.2c0.3,0.5,0.1,1.2-0.4,1.5c0,0,0.1,0.2,0.2,0.4
		c-0.1,0.1-0.4,0.1-0.6,0.1c0,0.1,0,0.2,0,0.4C149.8,503.2,150.2,502.9,150.5,502.6z"/>
	<path class="st3" d="M151.2,496.5c0,0.1,0,0.2,0,0.3l0.1-1.2C151,495.9,151.1,496.2,151.2,496.5z"/>
</g>
<g class="st2">
	<path class="st3" d="M685.7,375.5l4.3,3.4c-0.7-0.6-1.4-1.3-2-2C687.3,376.3,686.5,375.8,685.7,375.5z"/>
	<path class="st3" d="M693.8,382.1c0.2,0.2,0.5,0.4,0.7,0.6l0.7,0.5L693.8,382.1z"/>
	<path class="st3" d="M701.1,388.1c-1.1-1.1-2.3-2.2-3.6-3.2C698.5,385.9,699.7,386.9,701.1,388.1z"/>
	<path class="st3" d="M695.6,383c0.3,0.5,0.5,0.8-0.3,0.2l0,0l2.2,1.8C696.8,384.4,696.2,383.7,695.6,383z"/>
	<path class="st3" d="M695.6,383c-0.3-0.5-1-1.1-1.1-1.4C694.8,382,695.2,382.5,695.6,383z"/>
	<path class="st3" d="M699.6,382c0.8,0.6,0,1.1,1.6,2.2c1.8,1.4,3.4,2.7,5,4s3.1,2.7,4.6,4.2c1.5,1.3,2.8,4.2,4.1,5.6
		c0.8,0.8,1.9,2,3,3.2l1.7,1.8c0.5,0.6,1,1.2,1.5,1.7c0.5,0.7,1.1,1.3,1.8,1.9c0.2,0.1,0-0.4-1-1.9c-2.6-3.8-5.5-7.3-8.7-10.6
		l-2.2-2.2l-2.2-2.1c-1.5-1.5-3.1-2.9-4.8-4.4c-1.4-1.2-2.9-2.3-4.3-3.5l-2.2-1.7l-2.2-1.6c-1.5-1.1-3-2.2-4.5-3.2l-4.5-3.2
		c-1.6-1.3-3-2.7-4.5-4l2.8,2.8l1.5,1.4c0.2,0.2,0.5,0.4,0.7,0.7l0.8,0.7C690.4,376.2,694.8,378.1,699.6,382z"/>
	<path class="st3" d="M656.8,347.2l1.3,1.2l0.8,0.7c2.4,3.6,5.7,6.6,9.1,9.5c-0.4-0.6-0.7-1.1-1.1-1.7c-1.9-1.7-2.3-1.8-0.8,0
		c-3.3-4.1-6.7-7.6-10-11.4C656.2,345.9,656,346,656.8,347.2z"/>
	<path class="st3" d="M654.3,343.3c0.7,0.8,1.3,1.5,2,2.2c0,0,0-0.1,0-0.1L654.3,343.3L654.3,343.3z"/>
	<path class="st3" d="M715.5,402.2c3.9,4.8,6.9,10.1,9.1,15.9c1,2.8,1.6,5.7,1.9,8.6c0.2,2.9,0,5.8-0.5,8.7c0.1,0.9,0,1.8-0.3,2.7
		c-0.4,0.8-0.7,1.7-1.1,2.5s-0.6,1.6-0.9,2.4s-0.7,1.5-1,2.3c-0.2,0.5-0.5,1.1-0.7,1.6l0,0c-0.3,0.9-0.1,0.7,0.3,0.2s0.7-1,1.1-1.5
		c-0.2,0.3-0.7,1-1.1,1.5c-0.5,0.7-1,1.4-1.5,2.3c-0.7,1.4-1.5,2.9-2.4,4.2c0.8-1.6,1.7-3,2.4-4.2c0.4-0.9,0.8-1.7,1.2-2.6l0.3-0.8
		c-1.7,3.5-3.6,6.8-5.8,10l-1.2,2.1c-1.5,2.4-2.9,4.8-4.3,5.9l-1.2,1.7l0.3-0.3c-0.2,0.2-0.4,0.4-0.5,0.6l-2.5,3.6
		c-0.4,0.6-0.8,1.2-1.3,1.8c-0.4,0.6-0.8,1.3-1.2,2c-0.7,1.8-1.3,3.7-1.9,5.6l-1.2,1.6c-0.2,1.1-0.5,2.2-0.9,3.2
		c0.9-1.3,1.8-2.5,2.5-3.7c1.2-1.6,0.8-4.5,2.7-6.1c-1.9,1.7-1.5,4.5-2.7,6.1c-0.7,1.2-1.6,2.4-2.5,3.7c-1.2,2.9-2.8,5.5-4.8,7.8
		c1.3-2.8,2.9-5.4,4.8-7.8c0.4-1,0.7-2.1,0.9-3.2l1.2-1.6c0.6-1.9,1.2-3.8,1.9-5.6c-1.4,2.6-2.4,5.3-3.6,7.9c-1.2,2.6-2.5,5.2-4,7.7
		c-2.4,4-5.1,7.8-8.1,11.3c-3,3.4-6.3,6.6-9.9,9.4c-7.2,5.5-15.4,9.4-24.2,11.4c-8.9,1.9-18.1,2.3-27.1,1c-4.6-0.7-9.2-1.6-13.8-2.8
		l-3.4-1l-1.7-0.5l-1.7-0.6l-3.4-1.2l-3.4-1.3c-19.6-7.7-36.2-20-50.1-34.1c-3.5-3.5-6.8-7.1-10-10.8s-6.2-7.4-9.1-11.2
		c-17.7-22.9-31.7-48.5-41.3-75.8c-2.6-7.2-6.5-17.5-10.1-27.8s-6.8-20.7-8.8-27.8c-3.3-9.4-5.1-11.4-6.3-10.9s-1.6,3.5-1.6,4
		c-0.2,6.4,0.9,11.9,2.7,18.8s4.4,15.3,7.8,27.6c-2.4-8.3-0.8-5.5,1.9,1.4c1.4,3.4,3,7.9,4.6,12.4s3.2,9.3,4.3,13.3
		c3.1,11.6,9.3,24.7,17.1,37.7c8,13,16.8,25.6,26.3,37.6c5,6.3,10.5,12.3,16.3,17.9c16.1,16.5,35.5,29.3,57.2,36.6
		c5.5,1.8,11,3.3,16.7,4.5c5.8,1.2,11.7,1.8,17.6,2c6.1,0.2,12.2-0.3,18.2-1.5c6.2-1.2,12.2-3.2,17.9-6c3-1.5,5.8-3.2,8.4-5.2
		c2.5-1.8,4.9-3.9,7.1-6.1c2.1-2.1,4.1-4.3,5.9-6.6c1.7-2.2,3.4-4.5,4.9-6.9c2.3-3.4,4.4-6.9,6.3-10.5c1.9-3.5,3.4-7.1,4.5-9.7
		c0.5-1,0.9-2,1.4-2.8c0.1-0.2,0.2-0.4,0.3-0.6l0.2-0.3l0.2-0.4l1-1.4l3.7-5.6c2.4-3.7,4.6-7.3,6.6-11c-2.4,4-4.5,7.4-6.8,10.8
		l-3.5,5.2c-0.3,0.5-0.6,0.9-0.9,1.4l-0.5,0.7l-0.4,0.6c-0.5,0.9-1,1.8-1.4,2.8c-0.6,1.4-0.9,1.9-0.9,1.7c0.1-0.8,0.2-1.5,0.5-2.3
		c0.2-0.6,0.4-1.2,0.6-1.8c0.1-0.3,0.2-0.6,0.4-0.9l0.2-0.4l0.3-0.5c0.8-1.4,1.5-2.7,2.1-3.7c0.9-1.7,3.5-3.5,4.4-5.2
		c2.3-3.5,4.4-7.2,6.2-11c0.8-1.8,1.5-1.2,1.9-2.1c0.7-1.4,1.2-2.8,1.7-4.2c0.4-1.4,0.8-2.7,1.1-3.9c0.1-0.6,0.3-1.2,0.4-1.8
		s0.2-1.2,0.3-1.7c0.3-1.1,0.4-2.2,0.7-3.2c0.2-0.7,0.3-1.5,0.4-2.2c0.1-0.7,0.3-1.5,0.3-2.2c0.1-0.7,0.1-1.4,0.2-2.1s0-1.4,0-2.1
		c0-0.9-0.1-1.8-0.2-2.6l-0.2-1.3c-0.1-0.5-0.2-0.9-0.3-1.4s-0.3-1.1-0.5-1.7s-0.4-1.1-0.6-1.7c0,0.6-0.1,1.3-0.5,1.8
		c-0.2-0.8-0.5-1.8-0.7-2.8s-0.6-1.9-0.9-2.7c0.3,0.8,0.6,1.7,0.9,2.7s0.5,2,0.7,2.8c0.4-0.5,0.6-1.1,0.5-1.8
		c-1.6-4.1-3.7-8-6.3-11.6c-2.6-3.6-5.5-7-8.6-10.2c0,0,0,0.1,0,0.1c3.5,3.7,6.4,8,8.5,12.6c-1-2.1-0.6-2,0.8,0.3
		c0.2,0.7,0.4,1.3,0.5,2c-2.3-3.9-5.1-7.3-7.2-11.1l-2.1-2c-0.8-1.2-0.5-1.3-0.5-1.7l-2.1-2.1c0.5,0.9,1.8,2.7,2.9,4.3
		c0.5,0.8,1,1.5,1.4,2.1L715.5,402.2z"/>
	<path class="st3" d="M720.7,449.5c0.3-0.6,0.7-1.3,1-2.2c-1.5,2.9-3.1,5.6-4.9,8.3c0.8-0.8,1.4-1.6,2-2.6
		C719.5,452,720.2,450.8,720.7,449.5z"/>
</g>
<g class="st2">
	<path class="st3" d="M699,440.4l-0.1,0.6c0-0.1,0.1-0.2,0.2-0.3C699.2,440.6,699,440.5,699,440.4z"/>
	<path class="st3" d="M698.8,441.5v0.1v0.1V441.5z"/>
	<path class="st3" d="M698.7,442.6c0.1-0.2,0.1-0.4,0.1-0.5C698.7,442.2,698.7,442.4,698.7,442.6z"/>
	<path class="st3" d="M699,441.8c-0.1,0.1-0.2,0.1-0.2,0l0,0v0.3C698.8,442,698.9,441.9,699,441.8z"/>
	<path class="st3" d="M699,441.8c0.1-0.1,0.1-0.1,0.2-0.2L699,441.8z"/>
	<path class="st3" d="M700.6,442.3c0,0.1-0.4,0-0.4,0.3c0.1,0.5,0.1,1,0.1,1.5c0.1,0.2-0.5,0.5-0.5,0.7c0,0.5,0.3,2,0.5,1.2
		c0.2-1.2,0.3-2,0.4-3.1c0-0.9-0.1-1.8-0.2-2.7c0-0.2,0-0.5,0.1-0.7c-0.1,0.3-0.2,0.6-0.3,1S700.6,441.6,700.6,442.3z"/>
	<path class="st3" d="M699.3,435.9l0.2,0.3c-0.3,0.5-0.1,1,0,1.5l0.2-0.2c0-0.3-0.2-0.3-0.3-0.1c0.2-0.5,0.3-1.2,0.2-1.7
		C699.5,435.7,699.4,435.7,699.3,435.9z"/>
	<path class="st3" d="M699.6,435.3l0.1,0.3h0C699.7,435.5,699.6,435.4,699.6,435.3L699.6,435.3z"/>
	<path class="st3" d="M698.6,445c-0.3,1.4-0.7,2.7-1.2,4c0.1,0.1,0.1,0.2,0,0.3c-0.1,0.1-0.2,0.1-0.3,0.2l-0.2,0.5
		c0,0.1,0,0.1,0,0.2l0,0c0,0.1,0.1,0.1,0.2,0.1c0.1-0.1,0.2-0.1,0.2-0.1c-0.1,0-0.2,0.1-0.2,0.1c-0.1,0.1-0.2,0.2-0.2,0.2
		c0,0.2-0.1,0.4-0.2,0.5c0-0.2,0.1-0.4,0.2-0.5v-0.3v-0.1l-0.5,1.2c0,0.1,0,0.2-0.1,0.3c-0.1,0.3-0.1,0.6-0.4,0.7l-0.1,0.2h0.1
		l-0.1,0.1l-0.5,0.9c0,0.2,0,0.5,0,0.7l-0.3,0.1c0.1,0.1,0.1,0.3,0.1,0.4c0.2-0.1,0.4-0.2,0.6-0.3c0.3-0.1-0.2-0.7,0.3-0.7
		c-0.5,0.1,0,0.6-0.3,0.7c-0.2,0.1-0.4,0.2-0.6,0.3c-0.1,0.4-0.3,0.7-0.7,0.9c0-0.4,0.3-0.7,0.7-0.9c0-0.1,0-0.3-0.1-0.4l0.3-0.1
		c0-0.2,0-0.5,0-0.7c-0.3,0.6-0.6,1.2-0.9,1.8c-2.1,3.8-4,7.3-6.6,11c-1.4,1.9-2.8,3.8-4.4,5.6c-3,3.5-5,7.2-8.9,10.1
		c-1.4,1.1-3.3,3.8-4.4,5.1c-0.4,0.9,0,2.1,0.9,2.5c0.2,0.1,0.5,0.2,0.7,0.2c2.3,0.1,2.3-1.4,4.9-3c-1.7,1.2,0-1.8,2.2-2.6
		c3.1-1,4.3-5,6.7-7.5c0.6-0.7,1.1-1.4,1.6-2.2c3.5-4,5.5-8.5,8.2-13.4c0.6-1.2,1-2.5,1.2-3.9c0.3-0.9,1-1.6,1.2-2.3
		c0.4-1,0.7-2,0.9-3c-0.3,1-0.5,1.8-0.9,2.9c-0.3,0.7-0.3-0.8-0.3-1.3c0-0.2,0.6-0.4,0.6-0.6c0.1-0.5,0.2-1,0.2-1.5
		c0-0.2,0.4,0,0.4-0.2c0.2-0.7-0.2-1.4,0-1.8l0.5-0.8c0.1-0.2,0.2-0.4,0.2-0.5c0-0.1,0-0.3,0-0.4c-0.2,0-0.4,0-0.5,0
		c0.1-0.2,0.2-0.4,0.3-0.6c-0.1,0.2-0.2,0.4-0.3,0.6c0.2,0,0.4,0,0.5,0c0-1,0.1-2.1,0.1-3.1l0,0c-0.1,0.6-0.3,1.2-0.7,1.6
		c0.2-0.2,0.3-0.1,0.2,0.1l-0.3,0.1c-0.1-0.5,0.1-1.1,0.5-1.5c0,0-0.1-0.2-0.1-0.4s0.2-0.1,0.4-0.1s0-0.2,0-0.4
		C699.1,444.5,698.8,444.7,698.6,445z"/>
	<path class="st3" d="M696.8,450.6c0-0.1,0-0.2,0.1-0.3l-0.5,1C696.7,451.2,696.8,450.9,696.8,450.6z"/>
</g>
</svg>
