<?xml version="1.0" encoding="utf-8"?>
<!-- Generator: Adobe Illustrator 25.0.0, SVG Export Plug-In . SVG Version: 6.00 Build 0)  -->
<svg version="1.1" id="Layer_1" xmlns="http://www.w3.org/2000/svg" xmlns:xlink="http://www.w3.org/1999/xlink" x="0px" y="0px"
	 viewBox="0 0 841.9 841.9" style="enable-background:new 0 0 841.9 841.9;" xml:space="preserve">
<style type="text/css">
	.st0{fill:#FAD5E5;}
	.st1{opacity:0.85;}
	.st2{fill:#161315;}
	.st3{fill:#211F1E;}
	.st4{fill:#1F2020;}
</style>
<rect x="0.1" class="st0" width="841.9" height="841.9"/>
<g class="st1">
	<path class="st2" d="M387,363.6l-3.4,3.3c0.6-0.5,1.3-1,1.9-1.5C386.1,364.9,386.6,364.3,387,363.6z"/>
	<path class="st2" d="M380.4,370l-0.6,0.6l-0.5,0.6L380.4,370z"/>
	<path class="st2" d="M374.7,376c1.1-1,2-2,3-3C376.6,373.9,375.6,374.9,374.7,376z"/>
	<path class="st2" d="M379.5,371.5c-0.5,0.3-0.7,0.3-0.2-0.3l0,0l-1.7,1.8C378.2,372.5,378.9,372,379.5,371.5z"/>
	<path class="st2" d="M379.5,371.5c0.5-0.2,1.1-0.7,1.3-0.9C380.5,370.9,380,371.2,379.5,371.5z"/>
	<path class="st2" d="M380.5,375.4c-0.5,0.7-1-0.1-2.1,1.2c-2.5,2.9-4.6,5.6-7.2,8.2c-1,1.3-3.6,2.4-4.6,3.7
		c-2.6,3-8.7,10.9-4.6,6.7c6.1-6.3,10-10.6,15.5-16.3c4.3-4.8,8.3-9.5,12.7-14.4c1.3-1.3,2.5-2.5,3.8-3.7l-5.4,4.8
		C386.1,367.7,384,371.5,380.5,375.4z"/>
	<path class="st2" d="M412.2,339.1l-1.5,2c-3.1,2.1-5.7,5.1-8.2,8l1.6-0.9c1.5-1.6,1.5-2,0-0.7c3.5-2.7,6.7-5.7,9.7-8.9
		C413.4,338.6,413.2,338.3,412.2,339.1z"/>
	<path class="st2" d="M415.5,336.7l-1.8,1.9h0.1L415.5,336.7L415.5,336.7z"/>
	<path class="st2" d="M362.9,389.1c-7.8,7.8-15.2,15.2-22.4,22.3c-0.4,0.7-0.9,1.4-1.5,1.9c-0.7,0.4-1.3,0.9-1.9,1.4l-3.2,3.1
		l-1.1,1.2l0,0c-0.5,0.7-0.2,0.6,0.2,0.3s0.9-0.6,1.3-0.9c-0.3,0.1-0.9,0.6-1.3,0.9c-0.7,0.5-1.3,1-1.9,1.5c-0.9,1-1.9,2-3,3
		c0.9-1.1,1.9-2.1,3-3l1.7-1.9l0.5-0.6l-7.3,7.1l-1.5,1.5c-1.6,1.8-3.3,3.6-4.7,4.4l-1.3,1.2l0.3-0.2c-0.2,0.1-0.4,0.3-0.5,0.4
		l-5.5,5.3c-1,1.3-2.1,2.7-3.2,4l-1.5,0.9c-0.5,0.9-1,1.6-1.7,2.4c1.2-0.8,2.3-1.4,3.3-2.1c1.5-0.9,2-3.4,4.1-4.2
		c-2.1,0.8-2.6,3.3-4.1,4.2c-1,0.7-2.1,1.4-3.3,2.1c-1.8,2-3.8,3.8-6,5.4c1.7-2.1,3.7-3.9,6-5.4c0.7-0.7,1.2-1.5,1.7-2.4l1.5-0.9
		c1.1-1.3,2.2-2.7,3.2-4l-10.9,10.6c-12,11.5-23.3,22.7-34.8,34l-8.6,8.5c-1.5,1.4-2.9,2.9-4.3,4.2c-0.7,0.7-1.5,1.3-2.2,1.9
		s-1.6,1.2-2.4,1.8c-6.7,4.6-14.5,7.1-22.6,7.3c-10.9,0.3-21.5-3.8-29.5-11.2c-1.5-1.4-2.9-3-4.2-4.6c-2.5-3.3-4.6-6.9-6-10.8
		c-12.6-32.7-26.3-61.7-37.9-95.3c-4.5-12.9-14.8-35.9-20-48c-8.3-15.6-8.6-5.6-8.4-4.7c1,11.3,6.1,18.3,12.8,39.4
		c-4.8-14.3,6.4,9.3,9.7,23.3c4.6,20.3,18.7,46,27.7,69.7c2.2,5.9,5,12,7.9,19c2,5.1,4.8,9.9,8.3,14.1c3.5,4.2,7.8,7.7,12.5,10.5
		c19.5,11.4,44.2,8.4,60.3-7.5l10.5-10.6l10.8-10.7c7.7-7.7,13.9-15.1,20-22c4.6-4.9,10-9.6,13.9-13.5c6.1-6.1,11-11.5,15.7-16.8
		c-5.5,5.7-9.4,10-15.5,16.3c-4.1,4.2,2-3.8,4.6-6.7c1-1.3,3.6-2.4,4.7-3.8c2.6-2.6,4.6-5.2,7.2-8.2c1-1.3,1.6-0.5,2.1-1.2
		c3.6-3.9,5.6-7.7,8.2-9.9l5.4-4.7c1-1,2.1-2,3.1-3l1.9-2.2c-0.5,0.3-1.1,0.3-1.6,0.2c1-1,2.6-2.2,3.6-3.1c-1,1-2.6,2.2-3.6,3.1
		c0.6,0.1,1.1,0.1,1.6-0.2c4.5-5.3,9.9-11.4,14.9-17h-0.1c-3,3.2-6.3,6.2-9.7,8.9c1.5-1.2,1.5-0.9,0,0.7l-1.5,0.9
		c2.4-3,5.2-5.7,8.2-8l1.5-2c1-0.8,1.1-0.5,1.5-0.5l1.8-1.9C367.3,385.5,362.9,389.1,362.9,389.1z"/>
	<path class="st2" d="M331,420.9l1.4-1.5l-6.1,5.9C327.8,424.5,329.4,422.7,331,420.9z"/>
</g>
<g class="st1">
	<path class="st3" d="M235.9,493.9c-0.3,0.2-0.6,0.4-0.9,0.6c0.2-0.1,0.4-0.1,0.5-0.1C235.8,494.2,235.8,494.1,235.9,493.9z"/>
	<path class="st3" d="M234.2,494.9l-0.2,0.1l-0.1,0.1L234.2,494.9z"/>
	<path class="st3" d="M232.6,495.8c0.3-0.1,0.6-0.2,0.8-0.4C233.2,495.5,232.9,495.6,232.6,495.8z"/>
	<path class="st3" d="M234,495.3c-0.1,0-0.2-0.1-0.1-0.2l0,0l-0.5,0.3C233.6,495.4,233.8,495.3,234,495.3z"/>
	<path class="st3" d="M234,495.3c0.1,0,0.3,0,0.4,0H234z"/>
	<path class="st3" d="M234.3,497c-0.2,0.1-0.3-0.3-0.6,0s-0.8,0.5-1.1,0.7c-0.4,0.2-0.8,0.4-1.2,0.5c-0.4,0.2-1.1-0.1-1.4,0
		c-0.9,0.4-3.3,1.1-1.8,1c1.8-0.2,3.6-0.7,5.3-1.5c1.3-0.8,2.6-1.7,3.7-2.8l1-0.8l-0.7,0.5l-0.8,0.4c-0.4,0.3-0.7,0.6-1,0.9
		C235.3,496.4,234.8,496.7,234.3,497z"/>
	<path class="st3" d="M241,488.3c0,0.2-0.1,0.6-0.1,0.6c-0.6,0.6-1.1,1.3-1.4,2.1l0.4-0.2c0.3-0.4,0.2-0.5-0.1-0.2
		c0.8-0.6,1.4-1.5,1.7-2.4C241.3,488.2,241.2,488.1,241,488.3z"/>
	<path class="st3" d="M241.7,487.6c-0.1,0.2-0.1,0.4-0.2,0.5h0.1L241.7,487.6L241.7,487.6z"/>
	<path class="st3" d="M229,497.2c-2.3,0.4-4.7,0.1-6.9-0.7c-0.2,0-0.4,0.1-0.6,0c-0.1-0.1-0.3-0.3-0.4-0.4c-0.3-0.1-0.6-0.3-0.9-0.4
		l-0.3-0.1l0,0c-0.2,0-0.2,0.1-0.1,0.2l0.2,0.3c0-0.1-0.2-0.2-0.2-0.3c-0.1-0.1-0.3-0.3-0.4-0.4c-0.3-0.1-0.6-0.3-0.8-0.5
		c0.3,0.1,0.6,0.3,0.8,0.5l0.5,0.2h0.2c-0.7-0.3-1.3-0.7-1.9-1.2c-0.1-0.1-0.3-0.2-0.4-0.2c-0.5-0.3-1-0.5-1.1-0.9l-0.3-0.3v0.1
		l-0.1-0.1c-0.4-0.4-0.8-0.8-1.2-1.2c-0.3-0.2-0.7-0.4-1-0.6l-0.1-0.5c-0.2-0.1-0.4-0.2-0.6-0.3c0.1,0.3,0.1,0.6,0.2,0.9
		c0.1,0.5,0.9,0.3,0.9,1c0-0.6-0.9-0.5-0.9-1c-0.1-0.3-0.2-0.6-0.2-0.9c-0.4-0.4-0.7-1-0.9-1.6c0.5,0.4,0.8,1,0.9,1.6
		c0.2,0.2,0.4,0.3,0.6,0.3l0.1,0.5c0.3,0.2,0.7,0.4,1,0.6c-0.4-0.4-0.7-0.8-1.1-1.3c-0.4-0.4-0.7-0.9-1-1.4c-1.9-2.9-3-6.4-2.9-9.9
		c0.2-3.5,1.9-6.8,4.6-9.1c1.5-1.3,3.1-2.4,4.8-3.3c1.7-0.8,3.5-1.4,5.3-1.7c3.6-0.6,7.1-0.4,9.7,1.2c2.8,1.9,4.6,4.9,4.9,8.2
		c0.3,1.7,0.4,3.3,0.5,5c0.1,1.6-0.1,3.3-0.5,4.9c0,0.6,0,1.2,0.2,1.8c0.1,0.3,0.4,0.6,0.8,0.7c0.5,0.2,1,0.1,1.5-0.1
		c0.6-0.4,1.1-0.9,1.4-1.5c0.2-0.3,0.3-0.6,0.4-0.9c0.1-0.3,0.2-0.7,0.3-1c0.4-2,0.7-3.9,0.8-5.9c-0.2,1.8-0.5,1.2-0.7-0.3
		c-0.3-1.9-0.5-3.8-0.6-5.7c0-2.7-1.6-5.8-4.4-8c-1.4-1.1-3.1-2-4.8-2.5c-0.9-0.3-1.7-0.5-2.6-0.6c-0.9-0.1-1.7-0.2-2.5-0.3
		c-0.9-0.1-1.7,0-2.6,0.1c-0.4,0.1-0.9,0.1-1.3,0.2l-1.4,0.3c-4.8,0.9-9.2,3.4-12.6,7c-1.8,1.9-3.1,4.1-3.9,6.6
		c-0.8,2.6-1,5.3-0.6,8c0.5,2.5,1.6,4.9,3.3,6.8l1.4,2.1c0.4,0.6,0.9,1.2,1.4,1.8c1.3,1.4,2.9,2.5,4.6,3.3c-1.6-0.9-3.2-2-4.5-3.3
		c-0.5-0.5-0.2-0.4,0.3-0.2l0.9,0.5c0.3,0.2,0.6,0.3,0.8,0.5c0.4,0.2,0.5,1,0.9,1.2c0.4,0.3,0.7,0.5,1.1,0.7l1.3,0.5
		c0.4,0.1,0.1,0.5,0.3,0.6c0.6,0.2,1.1,0.3,1.7,0.4c0.5,0,0.9,0.1,1.4,0.3c0.6,0.3,1.1,0.5,1.6,0.7c0.3,0.1,0.7,0.2,1,0.2h0.7
		c-0.1-0.2-0.2-0.3-0.2-0.5c0.4,0.1,0.7,0.2,1.1,0.3c-0.4-0.1-0.7-0.2-1.1-0.3c0,0.2,0.1,0.4,0.2,0.5c1.8-0.1,3.6-0.4,5.3-1l0,0
		c-0.5,0.1-1,0.2-1.5,0.2c-0.5,0-1,0-1.5-0.2c0.4,0.1,0.4,0.2-0.1,0.3c-0.1-0.1-0.3-0.2-0.4-0.2c0.9-0.2,1.7-0.2,2.6-0.1l0.5-0.2
		c0.3,0,0.3,0.2,0.4,0.3l0.6-0.2C230.4,497.3,229,497.2,229,497.2z"/>
	<path class="st3" d="M219.4,495.4l0.4,0.2c-0.6-0.3-1.1-0.7-1.6-1C218.4,494.9,218.9,495.1,219.4,495.4z"/>
</g>
<circle class="st4" cx="227" cy="481.3" r="5.7"/>
<g class="st1">
	<path class="st3" d="M222.9,485.7l0.3,0.3c0-0.1-0.1-0.1-0.1-0.2C223,485.7,222.9,485.8,222.9,485.7z"/>
	<path class="st3" d="M223.4,486.2L223.4,486.2h0.1H223.4z"/>
	<path class="st3" d="M224,486.5c-0.1-0.1-0.2-0.1-0.3-0.2C223.8,486.4,223.9,486.5,224,486.5z"/>
	<path class="st3" d="M223.6,486.2C223.6,486.2,223.6,486.3,223.6,486.2L223.6,486.2l0.1,0.2C223.7,486.3,223.6,486.3,223.6,486.2z"
		/>
	<path class="st3" d="M223.6,486.2c0,0,0-0.1-0.1-0.1C223.6,486.1,223.6,486.2,223.6,486.2z"/>
	<path class="st3" d="M224.2,485.6c0.1,0-0.1,0.2,0.1,0.2c0.2,0,0.5,0.1,0.7,0.2c0.1,0,0.2,0.3,0.3,0.3c0.3,0,1-0.1,0.6-0.2
		c-0.5-0.1-1-0.2-1.4-0.4c-0.4-0.1-0.8-0.3-1.2-0.5c-0.1-0.1-0.2-0.2-0.2-0.3c0.1,0.2,0.2,0.3,0.3,0.4
		C223.4,485.5,223.9,485.4,224.2,485.6z"/>
	<path class="st3" d="M221.4,483.4l0.1,0.1c0,0.3,0.1,0.6,0.4,0.8v-0.2c-0.1-0.1-0.2-0.1-0.1,0c0-0.3-0.1-0.7-0.3-1
		C221.5,483.3,221.4,483.3,221.4,483.4z"/>
	<path class="st3" d="M221.5,483l0.1,0.2l0,0L221.5,483L221.5,483z"/>
	<path class="st3" d="M225.4,486.9c0.8,0.2,1.6,0.3,2.4,0.2c0.1,0,0.1-0.1,0.2-0.1c0.1,0,0.1,0,0.2,0.1l0.3-0.1l0.1,0l0,0
		c0.1,0,0-0.1,0-0.1l-0.1,0l0.1,0h0.2c0.1-0.1,0.2-0.1,0.3-0.1c-0.1,0.1-0.2,0.1-0.3,0.1l-0.2,0.1h-0.1c0.3-0.1,0.5-0.1,0.8-0.2
		l0.1-0.1c0.2-0.1,0.3-0.2,0.5-0.2l0.1-0.1l0,0c0.2-0.1,0.3-0.2,0.5-0.3c0.1-0.1,0.1-0.2,0.2-0.3h0.2c0-0.1,0-0.2,0.1-0.2
		c-0.1,0-0.2,0-0.3,0c-0.2,0-0.1,0.4-0.3,0.3c0.2,0.1,0.2-0.3,0.3-0.3c0.1,0,0.2,0,0.3,0c0.1-0.2,0.3-0.3,0.5-0.4
		c-0.1,0.2-0.3,0.4-0.5,0.4c0,0.1-0.1,0.1-0.1,0.2h-0.2c-0.1,0.1-0.1,0.2-0.2,0.3c0.3-0.2,0.6-0.5,0.9-0.8c1.9-2,2.2-5,0.8-7.4
		c-0.8-1.3-2-2.4-3.4-3c-1.4-0.6-3-0.6-4.4,0c-1.5,0.6-2.7,1.5-3.7,2.8c-0.5,0.7-0.9,1.4-1,2.3c-0.1,0.8-0.1,1.6,0.1,2.5
		c0.4,0.8,0.8,0.8,1.1,0.7c0.2-0.1,0.4-0.2,0.5-0.4c0.2-0.4,0.4-0.8,0.4-1.2c0-0.6,0.2-1.1,0.5-1.6c-0.2,0.4-0.4,0.2-0.3-0.2
		c0.1-0.5,0.5-1,1-1.2c0.7-0.3,1.3-0.7,1.9-1.1c0.6-0.4,1.4-0.6,2.1-0.6c0.4,0,0.8,0.1,1.1,0.2c1,0.4,1.8,1.1,2.4,2
		c0.6,0.9,0.8,2.1,0.5,3.2c-0.1,0.6-0.3,1.2-0.5,1.7c-0.2,0.3-0.5,0.6-0.9,0.8c-0.4,0.3-0.8,0.6-1.1,0.9c0.4-0.2,0.8-0.5,1.1-0.8
		c0.3-0.2,0,0.4-0.2,0.6c-0.1,0.1-0.3,0-0.4,0.1c-0.2,0.1-0.4,0.3-0.6,0.4c-0.1,0.1-0.1-0.1-0.2-0.1c-0.3,0.1-0.5,0.5-0.8,0.5
		c-0.2,0-0.3,0-0.5-0.1h-0.3l-0.2,0c0,0.1,0.1,0.2,0.1,0.3c-0.1,0-0.2-0.1-0.3-0.1c0.1,0,0.2,0.1,0.3,0.1c0-0.1,0-0.2-0.1-0.3
		c-0.5,0.1-1.1,0.1-1.6,0l0,0c0.3,0.1,0.6,0.2,0.9,0.4c-0.1-0.1-0.1-0.1,0.1-0.1l0.1,0.1c-0.3,0.1-0.6,0-0.8-0.2h-0.2
		c-0.1-0.1,0-0.1,0-0.2h-0.2C225,486.5,225.2,486.7,225.4,486.9z"/>
	<path class="st3" d="M228.7,486.8l-0.1,0.1c0.2,0,0.4-0.1,0.6-0.2C229.1,486.6,228.9,486.7,228.7,486.8z"/>
</g>
<g class="st1">
	<path class="st2" d="M453.2,368.5l3.4,3.4c-0.5-0.6-1-1.3-1.5-1.9C454.5,369.3,453.9,368.8,453.2,368.5z"/>
	<path class="st2" d="M459.6,375.1l0.6,0.6l0.6,0.5L459.6,375.1z"/>
	<path class="st2" d="M465.6,380.8c-1-1.1-2-2-3-3C463.6,378.8,464.6,379.8,465.6,380.8z"/>
	<path class="st2" d="M461.1,375.9c0.3,0.5,0.3,0.8-0.3,0.2l0,0l1.9,1.7C462.1,377.2,461.6,376.6,461.1,375.9z"/>
	<path class="st2" d="M461.1,375.9c-0.2-0.4-0.7-1.1-0.8-1.3C460.5,375,460.8,375.4,461.1,375.9z"/>
	<path class="st2" d="M465,375c0.7,0.5-0.1,1,1.2,2.1c2.9,2.6,5.6,4.6,8.2,7.2c1.3,1,2.4,3.6,3.7,4.6c3,2.6,10.9,8.7,6.7,4.6
		c-6.3-6.1-10.6-10-16.3-15.5c-4.8-4.3-9.5-8.3-14.4-12.7c-1.3-1.3-2.5-2.5-3.7-3.8l4.8,5.4C457.4,369.4,461.1,371.4,465,375z"/>
	<path class="st2" d="M428.7,343.2l2,1.5c2.3,3.1,5,5.8,8,8.2l-0.9-1.5c-1.6-1.5-2-1.5-0.7,0c-2.7-3.5-5.7-6.7-8.9-9.7
		C428.2,342.1,428,342.3,428.7,343.2z"/>
	<path class="st2" d="M426.3,340l1.9,1.8c0,0,0-0.1,0-0.1L426.3,340L426.3,340z"/>
	<path class="st2" d="M478.7,392.6c7.8,7.8,15.2,15.2,22.3,22.4c0.7,0.4,1.4,0.9,1.9,1.5c0.4,0.7,0.9,1.3,1.5,1.9l3.1,3.2l1.2,1l0,0
		c0.7,0.5,0.6,0.2,0.3-0.2s-0.6-0.9-0.9-1.3c0.1,0.3,0.6,0.9,0.9,1.3c0.5,0.7,1,1.3,1.5,1.9c1,0.9,2,1.9,3,3c-1.1-0.9-2.1-1.9-3-3
		l-1.9-1.7l-0.6-0.4l7.1,7.2l1.5,1.4c1.8,1.6,3.6,3.3,4.4,4.7l1.3,1.3l-0.2-0.3l0.4,0.5l5.3,5.5c1.3,1,2.7,2.1,4,3.2l0.9,1.5
		c0.8,0.5,1.6,1.1,2.3,1.7c-0.8-1.2-1.4-2.3-2.1-3.3c-0.9-1.6-3.4-2-4.2-4.1c0.8,2.1,3.3,2.5,4.2,4.1c0.7,1,1.3,2.1,2.1,3.3
		c2,1.8,3.8,3.8,5.4,6c-2.1-1.7-3.9-3.7-5.4-6c-0.7-0.7-1.5-1.2-2.4-1.7l-0.9-1.5c-1.3-1.1-2.7-2.2-4-3.2l10.6,10.9
		c11.5,12,22.7,23.3,34,34.8l8.6,8.7c1.5,1.5,2.8,2.9,4.4,4.4c0.8,0.8,1.6,1.4,2.4,2.1s1.7,1.3,2.5,2c7.2,5.1,15.7,8.1,24.6,8.5
		c19.7,1,38-10.2,46.1-28.2c14.7-31.9,26-61.8,42.1-93.5c6.1-12.2,15.5-35.6,20.5-47.7c5.4-16.8-2-10-2.5-9.3
		c-7.5,8.6-9,17.1-19.4,36.6c6.9-13.3-2.2,11.1-10,23.2c-11.4,17.4-20,45.5-30.8,68.4c-2.7,5.7-5.1,12-8.2,18.9
		c-1.8,3.9-4.1,7.5-6.9,10.6c-8.5,9.3-20.9,14.1-33.5,12.9c-8.4-0.8-16.4-4.5-22.5-10.3l-0.6-0.6l-0.7-0.6l-1.3-1.3l-2.6-2.6
		l-5.3-5.2l-10.7-10.8c-7.7-7.7-15.1-13.9-22-20c-4.9-4.6-9.6-10-13.5-13.9c-6.1-6.1-11.5-11-16.8-15.8c5.7,5.5,10,9.4,16.3,15.5
		c4.2,4.1-3.8-2-6.7-4.6c-1.3-1-2.4-3.6-3.8-4.7c-2.6-2.6-5.2-4.6-8.2-7.2c-1.3-1-0.5-1.6-1.2-2.1c-3.9-3.6-7.7-5.6-9.9-8.2
		l-4.7-5.3c-1-1-2-2.1-3-3.1L493,403c0.3,0.5,0.3,1.1,0.2,1.6c-1-1-2.2-2.6-3.1-3.6c1,1,2.2,2.6,3.1,3.6c0.1-0.6,0.1-1.1-0.2-1.6
		c-5.3-4.5-11.4-9.9-17-14.9c0,0,0,0.1,0,0.1c3.2,3,6.3,6.3,9,9.7c-1.2-1.5-0.9-1.6,0.8,0l0.9,1.5c-3-2.6-5.9-5.1-8-8.2l-2-1.5
		c-0.8-1-0.5-1.1-0.5-1.5l-1.9-1.8C475.1,388.1,478.7,392.6,478.7,392.6z"/>
	<path class="st2" d="M510.5,424.4L509,423l5.9,6.1C514.2,427.7,512.3,426.1,510.5,424.4z"/>
</g>
<g class="st1">
	<path class="st3" d="M605.3,498c0.3,0.2,0.6,0.4,0.9,0.6c-0.2-0.1-0.3-0.3-0.4-0.4C605.7,498,605.5,498.1,605.3,498z"/>
	<path class="st3" d="M607.1,499.2l0.2,0.1h0.2C607.3,499.3,607.2,499.3,607.1,499.2z"/>
	<path class="st3" d="M608.9,499.9c-0.3-0.1-0.6-0.3-0.9-0.4C608.3,499.7,608.6,499.9,608.9,499.9z"/>
	<path class="st3" d="M607.6,499.2c0.1,0.1,0.1,0.2-0.1,0.2l0,0l0.5,0.2C607.9,499.5,607.7,499.3,607.6,499.2z"/>
	<path class="st3" d="M607.6,499.2c-0.1-0.1-0.2-0.3-0.2-0.3C607.4,499,607.5,499.1,607.6,499.2z"/>
	<path class="st3" d="M608.7,497.9c0.2,0-0.1,0.4,0.3,0.5c0.4,0.1,0.8,0.2,1.2,0.2c0.4,0.1,0.7,0.1,1.1,0.2s0.8,0.7,1.1,0.6
		c0.9,0.1,2.9-0.5,1.7-0.5c-1.5,0-3-0.3-4.5-0.7c-1.3-0.3-2.6-0.8-3.8-1.5c-0.3-0.2-0.6-0.5-0.8-0.8c0.2,0.2,0.3,0.4,0.5,0.6
		l0.6,0.5c0.3,0.3,0.7,0.5,1.1,0.5C607.7,497.6,608.2,497.7,608.7,497.9z"/>
	<path class="st3" d="M600.3,491.7l0.4,0.4c0.2,0.9,0.7,1.7,1.4,2.2l0-0.5c-0.3-0.4-0.5-0.4-0.3,0.1c-0.4-0.9-0.8-1.9-1.3-2.7
		C600.4,491.4,600.3,491.4,600.3,491.7z"/>
	<path class="st3" d="M600.2,490.7c0.1,0.2,0.2,0.3,0.3,0.5l0,0L600.2,490.7L600.2,490.7z"/>
	<path class="st3" d="M612.9,500.5c2.4,0.3,4.8,0.1,7.1-0.6c0.1-0.1,0.2-0.3,0.5-0.3c0.2,0,0.4,0,0.6,0c0.3-0.1,0.6-0.3,0.9-0.4
		l0.3-0.2l0,0c0.1-0.1,0.1-0.2-0.1-0.2l0,0c0.2,0,0.4-0.1,0.5-0.1c0.3-0.2,0.5-0.4,0.8-0.5c-0.2,0.2-0.5,0.4-0.8,0.5l-0.5,0.3
		l-0.1,0.1c0.7-0.3,1.4-0.7,2-1.1c0.1-0.1,0.3-0.2,0.4-0.3c0.3-0.4,0.8-0.7,1.2-0.8l0.3-0.3H626l0.1-0.1c0.5-0.4,0.9-0.7,1.3-1.2
		l0.6-1l0.4-0.1c0-0.2,0.1-0.5,0.2-0.7c-0.3,0.2-0.6,0.3-0.8,0.4c-0.4,0.1-0.2,1-0.9,1c0.6,0,0.5-0.8,0.9-1c0.2-0.1,0.5-0.2,0.8-0.4
		c0.3-0.5,0.8-1,1.3-1.4c-0.2,0.6-0.7,1.1-1.3,1.4c-0.1,0.2-0.2,0.4-0.2,0.7l-0.4,0.1l-0.6,1c0.4-0.4,0.8-0.8,1.2-1.2
		c0.4-0.4,0.8-0.9,1.1-1.4c2.4-3,3.6-6.8,3.6-10.6c-0.2-4-1.9-7.8-4.8-10.5c-1.5-1.6-3.2-2.9-5.1-4.1c-1.8-1.1-3.8-2-5.8-2.6
		c-2-0.7-4.2-0.9-6.3-0.8c-2.2,0.1-4.3,0.7-6.2,1.8c-1.9,1.1-3.6,2.6-4.9,4.4c-1.4,1.8-2.5,3.7-3.4,5.7c-0.8,2.1-1.2,4.3-1.2,6.5
		c0,2.2,0.3,4.4,0.9,6.6c0.3,0.8,0.8,1.4,1.4,1.9c0.3,0.2,0.7,0.3,1.1,0.1c0.4-0.3,0.8-0.7,0.9-1.2c0.2-0.6,0.3-1.3,0.3-1.9
		c0-0.3,0-0.6,0-0.9c0-0.3,0-0.6-0.1-0.9c-0.2-1.7-0.1-3.5,0.5-5.2c-0.4,1.5-0.7,1-0.6-0.4c0.1-1.7,0.8-3.3,1.8-4.6
		c1.6-1.6,2.8-3.5,4.5-5c0.8-0.8,1.8-1.4,2.9-1.8c0.5-0.2,1.1-0.4,1.7-0.4c0.6-0.1,1.2-0.1,1.8,0c0.6,0.1,1.2,0.1,1.8,0.2
		c0.3,0,0.7,0.1,1,0.1l1,0.2c1.8,0.6,3.5,1.4,5.2,2.4c1.6,0.9,3.1,2,4.4,3.3c1.3,1.2,2.3,2.7,2.9,4.4c0.6,1.7,0.8,3.5,0.5,5.3
		c-0.2,1.9-0.7,3.8-1.3,5.6c-0.3,0.6-0.7,1.2-1.2,1.7c-0.5,0.5-0.9,1-1.3,1.3c-1,1.1-2.1,2.2-3.3,3.2c1.2-0.9,2.3-1.9,3.3-3.1
		c0.4-0.4,0.4-0.2,0.2,0.3c-0.1,0.2-0.2,0.5-0.4,0.8c-0.1,0.2-0.3,0.4-0.5,0.6c-0.2,0.3-0.9,0.3-1.2,0.5c-0.3,0.2-0.6,0.5-0.8,0.8
		l-0.8,0.8c-0.2,0.3-0.4-0.2-0.6,0c-0.4,0.3-0.8,0.6-1.1,1c-0.3,0.3-0.6,0.5-1,0.6c-0.5,0.1-1,0.2-1.5,0.2c-0.3,0.1-0.6,0.1-0.9,0.1
		l-0.6,0.2c0.2,0.1,0.3,0.3,0.3,0.5c-0.3,0-0.7,0-1,0c0.3,0,0.7,0.1,1,0c-0.1-0.2-0.2-0.3-0.3-0.5c-1.6,0.5-3.2,0.6-4.8,0.5l0,0
		c0.5,0.1,1,0.1,1.4,0.2c0.5,0.1,1,0.2,1.5,0.4c-0.4-0.1-0.4-0.3,0.1-0.3c0.1,0.1,0.2,0.1,0.4,0.2c-0.8,0.2-1.7,0.1-2.5-0.3
		l-0.6,0.1c-0.3-0.1-0.2-0.3-0.2-0.4l-0.5-0.1c0.3,0.2,0.6,0.4,0.9,0.6L612.9,500.5z"/>
	<path class="st3" d="M622.8,498.7c-0.1,0.1-0.3,0.2-0.4,0.2c0.6-0.3,1.2-0.6,1.7-0.9C623.6,498.1,623.1,498.3,622.8,498.7z"/>
</g>
<circle class="st4" cx="615" cy="484.3" r="5.7"/>
<g class="st1">
	<path class="st3" d="M618.7,488.3l-0.3,0.2c0.1,0,0.1,0,0.2,0C618.7,488.4,618.7,488.4,618.7,488.3z"/>
	<polygon class="st3" points="618.2,488.7 618.1,488.7 618.1,488.8 	"/>
	<path class="st3" d="M617.7,489.1c0.1,0,0.2-0.1,0.3-0.2C617.9,488.9,617.8,489,617.7,489.1z"/>
	<path class="st3" d="M618.2,488.9C618.2,488.9,618.1,488.9,618.2,488.9L618.2,488.9l-0.1,0C618.1,488.9,618.1,488.9,618.2,488.9z"
		/>
	<path class="st3" d="M618.2,488.9L618.2,488.9z"/>
	<path class="st3" d="M618.5,489.7c0,0.1-0.2-0.1-0.2,0c-0.2,0.2-0.4,0.4-0.7,0.6c-0.1,0.1-0.4-0.1-0.5,0s-1,0.7-0.5,0.5
		c0.6-0.2,1.2-0.5,1.7-0.8c0.4-0.4,0.8-0.7,1.1-1.2c0.1-0.1,0.2-0.2,0.3-0.3c-0.2,0.1-0.3,0.2-0.5,0.3
		C618.9,488.9,618.8,489.4,618.5,489.7z"/>
	<path class="st3" d="M620.2,486.3v0.2c-0.3,0.2-0.3,0.5-0.4,0.7h0.2c0.1-0.1,0-0.2-0.1-0.1c0.3-0.2,0.5-0.5,0.5-0.8
		C620.4,486.3,620.3,486.2,620.2,486.3z"/>
	<path class="st3" d="M620.5,486.1c0,0.1,0,0.1,0,0.2l0,0V486.1L620.5,486.1z"/>
	<path class="st3" d="M616.6,489.8c-0.8,0.2-1.6,0.3-2.3,0.1c-0.1,0-0.1,0.1-0.2,0c0,0-0.1-0.1-0.2-0.1l-0.3-0.1h-0.1
		c-0.1,0-0.1,0,0,0.1l0.1,0.1c0,0-0.1-0.1-0.1-0.1c0,0-0.1-0.1-0.2-0.1c-0.1,0-0.2-0.1-0.3-0.1c0.1,0,0.2,0.1,0.3,0.1h0.2
		c-0.2-0.1-0.5-0.2-0.7-0.3h-0.2c-0.2,0-0.4-0.1-0.4-0.3l-0.1-0.1l0,0v0c-0.2-0.1-0.3-0.2-0.4-0.3c-0.1,0-0.3-0.1-0.4-0.1v-0.2
		c-0.1,0-0.2,0-0.2-0.1c0,0.1,0,0.2,0.1,0.4c0,0.2,0.4,0,0.4,0.3c0-0.3-0.3-0.1-0.4-0.3c0-0.1-0.1-0.2-0.1-0.4
		c-0.2-0.1-0.3-0.3-0.3-0.5c0.2,0.1,0.3,0.3,0.3,0.5c0.1,0,0.1,0.1,0.2,0.1v0.2c0.1,0,0.3,0.1,0.4,0.1c-0.3-0.2-0.5-0.5-0.8-0.8
		c-1.5-1.8-1.7-4.4-0.3-6.4c0.7-1,1.8-1.7,3-1.9c1.1-0.2,2.2-0.1,3.2,0.3c1,0.4,1.7,1.2,2,2.3c0.1,0.4,0.3,0.9,0.4,1.4
		c0.1,0.5,0.1,0.9,0,1.4c0,0.4,0.3,0.7,0.7,0.9c0.2,0.1,0.4,0.1,0.7,0c0.5-0.2,0.8-0.7,0.8-1.2c0.1-0.7,0.1-1.4,0.1-2.1
		c0,0.7-0.2,0.5-0.3,0c-0.2-0.6-0.4-1.3-0.6-2c-0.2-1.1-1-2.1-2.1-2.5c-1.1-0.5-2.3-0.8-3.5-0.8c-0.6,0-1.3,0.1-1.9,0.3
		c-1.8,0.4-3.4,1.6-4.2,3.2c-0.9,1.7-1.1,3.6-0.6,5.4c0.3,0.9,0.8,1.7,1.5,2.3c0.3,0.5,0.7,0.9,1.2,1.3c0.5,0.4,1.2,0.7,1.9,0.8
		c-0.6-0.2-1.2-0.5-1.8-0.9c-0.4-0.3,0.5,0,0.8,0.1c0.1,0,0.2,0.4,0.4,0.4c0.3,0.1,0.6,0.2,0.9,0.2c0.2,0,0.1,0.2,0.1,0.2
		c0.5,0.1,0.8-0.2,1.1-0.1c0.2,0.1,0.4,0.1,0.6,0.2c0.1,0,0.2,0,0.4,0l0.2-0.1c-0.1-0.1-0.1-0.2-0.1-0.2c0.1,0,0.3,0.1,0.4,0.1
		c-0.1,0-0.3-0.1-0.4-0.1c0,0.1,0.1,0.2,0.1,0.2c0.6-0.2,1.2-0.4,1.7-0.7l0,0c-0.3,0.1-0.7,0.2-1,0.1c0.2,0,0.2,0.1,0,0.1l-0.2-0.1
		c0.3-0.1,0.6-0.2,0.9-0.1l0.2-0.1c0.1,0,0.1,0.1,0.2,0.1l0.2-0.1C617.1,489.8,616.9,489.8,616.6,489.8z"/>
	<path class="st3" d="M613.3,489.7h0.2c-0.2-0.1-0.4-0.2-0.6-0.2C613,489.6,613.1,489.7,613.3,489.7z"/>
</g>
</svg>
