<?xml version="1.0" encoding="utf-8"?>
<!-- Generator: Adobe Illustrator 25.0.0, SVG Export Plug-In . SVG Version: 6.00 Build 0)  -->
<svg version="1.1" id="Layer_1" xmlns="http://www.w3.org/2000/svg" xmlns:xlink="http://www.w3.org/1999/xlink" x="0px" y="0px"
	 viewBox="0 0 841.9 841.9" style="enable-background:new 0 0 841.9 841.9;" xml:space="preserve">
<style type="text/css">
	.st0{fill:#FCE2E4;}
	.st1{opacity:0.85;}
	.st2{fill:#090A0A;}
	.st3{fill:#131413;}
	.st4{fill:#211F1E;}
	.st5{fill:#1F2020;}
</style>
<rect class="st0" width="841.9" height="841.9"/>
<g class="st1">
	<path class="st2" d="M153.3,401l2.2,0.3c-0.4-0.1-0.7-0.2-1.1-0.4C154,400.9,153.6,400.9,153.3,401z"/>
	<path class="st2" d="M157.5,401.6l0.4,0h0.3L157.5,401.6z"/>
	<path class="st2" d="M161.3,401.8c-0.6-0.1-1.3-0.1-1.9-0.1C160,401.7,160.6,401.8,161.3,401.8z"/>
	<path class="st2" d="M158.3,401.3c0.2,0.1,0.3,0.2-0.1,0.3h1.1C159,401.5,158.6,401.4,158.3,401.3z"/>
	<path class="st2" d="M158.3,401.3c-0.2-0.1-0.6-0.3-0.7-0.3C157.8,401.1,158,401.2,158.3,401.3z"/>
	<path class="st2" d="M159.5,398.9c0.4,0,0.2,0.7,1,0.6c1.8,0,3.3-0.2,5-0.1c0.8-0.1,1.9,0.8,2.7,0.7c1.8,0,6.4-0.7,3.7-0.9
		c-4-0.2-6.7-0.1-10.3-0.4h-4.4c-1.5,0-2.9,0-4.4-0.1c-0.8-0.1-1.6-0.2-2.4-0.4c1,0.3,2.1,0.5,3.2,0.7
		C155.1,399.5,157.1,398.8,159.5,398.9z"/>
	<path class="st2" d="M137.4,398h1.2c1.5,0.9,3.4,1,5.2,1.1l-0.7-0.5c-1-0.1-1.2,0-0.3,0.4c-1-0.4-1.9-0.7-2.9-1
		c-1-0.3-1.9-0.5-2.9-0.7C136.9,397.5,136.8,397.8,137.4,398z"/>
	<path class="st2" d="M135.7,397.1l1.2,0.2v-0.1L135.7,397.1L135.7,397.1z"/>
	<path class="st2" d="M169.4,401.7l14.5,0.9c0.3-0.2,0.7-0.2,1.1-0.2c0.3,0.1,0.7,0.2,1.1,0.3l2,0.1h0.7l0,0
		c0.4-0.1,0.3-0.2,0.1-0.3c-0.2-0.1-0.5-0.2-0.7-0.3c0.1,0.1,0.5,0.2,0.7,0.3c0.4,0.1,0.7,0.2,1.1,0.2c0.6,0,1.3,0,1.9,0
		c-0.6,0.1-1.3,0.1-1.9,0l-1.1,0l-0.3,0.1l4.6,0.3h1c1-0.1,2-0.1,2.9,0.3h0.8l-0.2-0.1l0.3,0.1l3.5,0.2c0.8-0.1,1.6-0.3,2.3-0.3
		l0.8,0.4c0.4-0.2,0.9-0.3,1.3-0.3c-0.6-0.2-1.2-0.5-1.7-0.6c-0.8-0.4-1.8,0.7-2.7,0c0.9,0.7,1.9-0.4,2.7,0c0.5,0.2,1.1,0.4,1.7,0.6
		c1.2-0.1,2.5,0,3.7,0.4c-1.2,0.2-2.5,0.1-3.7-0.4c-0.5,0-0.9,0.1-1.3,0.3l-0.8-0.4c-0.8,0.1-1.6,0.2-2.3,0.3c2.3,0.1,4.6,0.2,7,0.4
		c15.2,0.8,29.3,0.8,45.1,1c8.6,0.2,16.8,0.4,24.9,0.7c16.1,0.6,30.8-0.7,47.1,0.7c6.3,0.5,17.8-0.3,23.9-0.6c8-1.5,3.7-4.4,3.3-4.6
		c-5-2.4-8.9-0.8-19-2c6.9,0.7-5,1.9-11.5,0.2c-9.5-2.5-22.8,0-34.4-0.5c-2.9-0.1-6,0-9.4,0c-17.9-0.7-34.6,0.6-53.4,0.2
		c-5-0.1-9.4,0.6-13.6,0.8c-3.1,0.1-6.4-0.4-8.8-0.4c-3.9-0.1-7.3,0-10.5,0.2l10.3-0.1c2.7,0-1.9,0.9-3.7,1
		c-0.8,0.1-1.9-0.7-2.7-0.6c-1.7,0-3.3,0.1-5,0.3c-0.8,0.1-0.6-0.6-1-0.5c-2.4,0.1-4.3,0.9-5.9,0.6l-3.2-0.5c-0.6-0.1-1.3-0.1-2-0.1
		l-1.3,0.1c0.3,0.2,0.5,0.5,0.6,0.8c-0.6-0.1-1.5-0.3-2.2-0.4c0.6,0.1,1.5,0.3,2.2,0.4c-0.1-0.3-0.3-0.6-0.6-0.8
		c-3.2,0.2-6.9,0.4-10.4,0.4v0.1c2,0.1,4,0.3,6,0.9c-0.9-0.2-0.8-0.4,0.3-0.4l0.8,0.4c-1.8,0.2-3.5,0.1-5.2-0.5l-1.2,0.2
		c-0.6-0.1-0.5-0.4-0.6-0.6h-1.2C167.1,401.1,168.2,401.5,169.4,401.7z"/>
	<path class="st2" d="M190,402.9h-1l3.9,0.2C192,402.8,191,402.7,190,402.9z"/>
</g>
<g class="st1">
	<path class="st3" d="M437.5,463l4.7,1.2c-0.8-0.2-1.5-0.5-2.3-0.8C439.1,463.2,438.3,463.1,437.5,463z"/>
	<path class="st3" d="M446.5,465.3l0.8,0.2l0.7,0.1L446.5,465.3z"/>
	<path class="st3" d="M454.7,467.1c-1.4-0.4-2.8-0.7-4.2-1C451.8,466.5,453.1,466.8,454.7,467.1z"/>
	<path class="st3" d="M448.3,465.4c0.5,0.2,0.7,0.3-0.1,0.2l0,0l2.5,0.5C449.7,465.9,448.9,465.7,448.3,465.4z"/>
	<path class="st3" d="M448.3,465.4l-1.5-0.5C447.2,465.1,447.7,465.2,448.3,465.4z"/>
	<path class="st3" d="M450.7,464.3c0.8,0.1,0.5,0.6,2.2,0.9c3.9,0.8,7.2,1.4,10.8,2.3c1.6,0.3,4.1,1.4,5.7,1.7
		c3.9,0.8,13.8,2.6,8,1.2l-22.1-5.2l-19-4.1c-1.8-0.4-3.5-0.9-5.2-1.3l7,1.9C441.3,462.7,445.5,463.1,450.7,464.3z"/>
	<path class="st3" d="M403.1,454.2l2.5,0.4c3.7,1.2,7.5,2.1,11.3,2.9l-1.6-0.6c-2.2-0.5-2.5-0.4-0.6,0.1c-4.4-1.4-8.6-2.5-12.9-3.5
		C402,453.7,401.9,453.8,403.1,454.2z"/>
	<path class="st3" d="M399.2,452.9l2.5,0.6c0,0,0,0-0.1-0.1L399.2,452.9L399.2,452.9z"/>
	<path class="st3" d="M472.1,471l31,7.7c0.8,0.1,1.6,0.2,2.4,0.4c0.8,0.3,1.5,0.5,2.3,0.7l4.4,1.1l1.5,0.3l0,0
		c0.8,0.1,0.6,0,0.1-0.2s-1-0.4-1.5-0.5l1.5,0.5c0.7,0.2,1.4,0.5,2.3,0.7c1.3,0.3,2.7,0.6,4.2,1c-1.6-0.3-3-0.7-4.2-1l-2.5-0.5
		l-0.7-0.1l9.9,2.5l2.1,0.5c2.1,0.4,4.2,0.9,6.2,1.6l1.8,0.5l-0.3-0.1l0.7,0.2l7.5,1.9c1.7,0.3,3.3,0.6,5,1l1.6,0.6
		c1,0.1,1.9,0.2,2.8,0.5c-1.3-0.5-2.5-0.9-3.6-1.3c-1.6-0.6-3.9-0.5-5.8-1.4c1.9,0.9,4.1,0.8,5.8,1.4c1.1,0.4,2.3,0.8,3.6,1.3
		c2.7,0.6,5.3,1.3,7.9,2.2c-2.7-0.5-5.3-1.2-7.9-2.2c-0.9-0.2-1.9-0.4-2.8-0.5l-1.6-0.6c-1.7-0.4-3.4-0.6-5-1l14.9,3.8
		c16.3,4.2,31.9,8.1,47.8,12c7.9,2,15.8,4,23.9,6l12.2,3.1l6.2,1.6c1.1,0.2,2.1,0.5,3.2,0.7s2.2,0.4,3.3,0.5
		c4.8,0.5,9.6,0.3,14.3-0.6c4.6-0.9,9.1-2.5,13.3-4.8c8.2-4.4,15.1-11.1,19.7-19.2c4.5-7.9,6.5-17,6-26.1c-0.1-2.2-0.4-4.4-0.8-6.6
		c-0.4-2.1-0.9-4.2-1.3-6.3c-0.9-4.2-1.8-8.3-2.6-12.5c-3.5-16.6-6.9-33.3-10.1-51c-2.5-13.5-8-38.5-10.9-51.4
		c-4.5-17.2-4.6-7.8-4.5-6.9c0.6,11,3.3,19.2,7,41.2c-2.6-15,3.5,10.7,5.3,25c1.3,10.3,3.8,22.6,6.6,35.5c1.4,6.4,2.9,13,4.3,19.5
		c0.4,1.6,0.7,3.3,1.1,4.9c0.2,0.8,0.3,1.6,0.5,2.4l0.4,2.3c0.5,3,0.6,6.1,0.4,9.2c-0.4,6.5-2.2,12.9-5.3,18.7
		c-2.3,4-5.2,7.7-8.5,10.8c-3.3,3.1-7.1,5.7-11.2,7.7c-4.1,2-8.4,3.3-12.9,4c-4.5,0.6-9,0.6-13.5-0.1c-1.1-0.2-2.2-0.4-3.3-0.7
		l-3.5-0.9l-7.1-1.7l-14.3-3.5c-9.6-2.3-19.5-4.7-29.6-7.2c-10.7-2.6-20.2-4.5-29.3-6.5c-6.6-1.5-13.6-3.5-19-4.8
		c-8.4-2.1-15.7-3.7-22.7-5.2l22.2,5.1c5.8,1.4-4.2-0.4-8-1.2c-1.7-0.3-4.1-1.4-5.8-1.7c-3.5-0.9-6.9-1.5-10.7-2.3
		c-1.7-0.3-1.4-0.7-2.2-0.9c-5.2-1.2-9.4-1.6-12.7-2.5l-7-1.9c-1.4-0.4-2.8-0.7-4.3-1.1l-2.9-0.6c0.4,0.2,0.8,0.4,1.2,0.8l-4.6-1.3
		l4.6,1.3c-0.3-0.4-0.7-0.6-1.2-0.8c-6.9-1.4-14.9-3.1-22.3-4.7l0.1,0.1c4.3,1,8.5,2.1,12.9,3.5c-1.9-0.6-1.6-0.6,0.6-0.1l1.6,0.6
		c-3.8-0.7-7.6-1.7-11.3-2.9l-2.5-0.5c-1.2-0.4-1.1-0.5-1.3-0.7l-2.5-0.6C466.6,469.3,472.1,471,472.1,471z"/>
	<path class="st3" d="M516.3,481.9l-2.1-0.5l8.3,2.1C520.5,482.8,518.4,482.3,516.3,481.9z"/>
</g>
<g class="st1">
	<path class="st4" d="M695.2,474.6l-0.6-0.4c0.1,0.1,0.2,0.2,0.2,0.4C694.9,474.6,695,474.6,695.2,474.6z"/>
	<path class="st4" d="M694,473.8l-0.1-0.1h-0.1L694,473.8z"/>
	<path class="st4" d="M692.7,473.4c0.2,0.1,0.4,0.2,0.6,0.2C693.1,473.5,692.9,473.4,692.7,473.4z"/>
	<path class="st4" d="M693.6,473.9c0-0.1,0-0.2,0.1-0.2l0,0l-0.4-0.1C693.4,473.7,693.5,473.8,693.6,473.9z"/>
	<path class="st4" d="M693.6,473.9c0,0.1,0.1,0.2,0.1,0.3C693.7,474.1,693.7,474,693.6,473.9z"/>
	<path class="st4" d="M692.7,475.3c-0.1,0,0.1-0.4-0.2-0.4c-0.5-0.1-1,0-1.5-0.1c-0.2,0.1-0.5-0.5-0.7-0.5c-0.6,0-1.9,0.6-1.1,0.6
		c1,0,1.9,0,2.9,0.2c0.9,0.1,1.7,0.3,2.5,0.6c0.2,0.1,0.4,0.3,0.5,0.5c-0.2-0.3-0.4-0.5-0.6-0.8c-0.2-0.2-0.5-0.3-0.8-0.2
		C693.3,475.4,693,475.4,692.7,475.3z"/>
	<path class="st4" d="M698.4,478.9l-0.3-0.3c0-0.6-0.3-1.2-0.8-1.5v0.4c0.2,0.2,0.3,0.2,0.3-0.1c0.1,0.7,0.4,1.3,0.7,1.9
		C698.3,479.2,698.4,479.1,698.4,478.9z"/>
	<path class="st4" d="M698.4,479.6l-0.2-0.3l0,0L698.4,479.6L698.4,479.6z"/>
	<path class="st4" d="M690,473.3c-1.6-0.1-3.1-0.1-4.7,0.1c-0.1,0.1-0.2,0.2-0.3,0.2c-0.1-0.1-0.2-0.1-0.4-0.1l-0.7,0.1
		c-0.1,0-0.2,0-0.2,0.1l0,0c-0.1,0.1,0,0.1,0,0.2c0.1,0,0.2,0.1,0.3,0.1c0,0-0.2-0.1-0.3-0.1c-0.1,0-0.3-0.1-0.4,0
		c-0.2,0.1-0.4,0.1-0.6,0.2c0.2-0.1,0.4-0.2,0.6-0.2l0.3-0.1l0.1-0.1c-0.5,0.1-1,0.2-1.5,0.3l-0.3,0.1c-0.3,0.1-0.7,0.3-0.9,0.2
		l-0.3,0.1h0.1h-0.1l-1.1,0.3c-0.2,0.2-0.4,0.4-0.6,0.5l-0.3-0.1c-0.1,0.2-0.2,0.3-0.3,0.4c0.2,0.1,0.5,0.1,0.7,0.2s0.4-0.6,0.8-0.3
		c-0.4-0.3-0.5,0.5-0.8,0.3s-0.4-0.1-0.7-0.2c-0.4,0.2-0.8,0.3-1.2,0.2c0.3-0.3,0.8-0.4,1.2-0.2c0.1-0.1,0.3-0.2,0.3-0.4l0.3,0.1
		c0.2-0.1,0.4-0.4,0.6-0.5c-0.7,0.2-1.4,0.4-2.2,0.7c-2.3,0.8-4.5,1.7-6.7,2.8c-2.3,1.1-4.4,2.4-6.4,4c-2.2,1.8-4.1,3.9-5.7,6.2
		c-1.5,2.2-2.6,4.7-3.2,7.4c-0.7,2.6-1.1,5.2-1.7,8.1c-0.2,1.4-0.1,2.9,0.2,4.3c0.1,0.8,0.3,1.5,0.6,2.3c0.2,0.6,0.4,1.2,0.6,1.8
		c0.9,1.2,1.7,1.3,2.2,1c0.4-0.2,0.8-0.5,1-0.9c0.4-0.8,0.5-1.7,0.3-2.6c-0.1-0.4-0.2-0.9-0.2-1.5c0-0.7,0-1.3,0.1-2
		c-0.1,1.1-0.5,0.7-0.7-0.1c-0.2-1.1,0-2.3,0.5-3.3c0.2-0.3,0.4-0.7,0.5-1.1c0.2-0.4,0.3-0.8,0.4-1.1c0.2-0.8,0.3-1.6,0.4-2.5
		s0.3-1.7,0.5-2.6c0.2-0.8,0.6-1.7,1-2.4c0.5-0.7,0.7-1.6,1.3-2.4c1.4-2,3-3.9,4.8-5.7l1.4-1.2c0.5-0.4,1-0.7,1.5-1.1
		c1.2-0.7,2.5-1.4,3.8-2c1.2-0.7,2.4-1.5,3.6-2.4c0.8-0.4,1.7-0.6,2.6-0.9c1-0.4,2-0.8,3-1.3c-1,0.4-1.8,0.7-2.9,1.2
		c-0.8,0.3,0.3-0.8,0.8-1.1c0.2-0.2,0.7,0.2,0.9,0c0.5-0.2,0.9-0.4,1.4-0.7c0.2-0.2,0.3,0.3,0.4,0.2c0.7-0.3,1.1-1,1.6-0.9
		c0.3,0,0.7,0,1,0.1c0.2,0,0.4,0,0.6,0l0.4-0.1c-0.1-0.2-0.2-0.3-0.2-0.5c0.2,0,0.5,0.1,0.7,0.1c-0.2,0-0.5-0.1-0.7-0.1
		c0,0.2,0.1,0.3,0.2,0.5c1-0.4,2.1-0.6,3.2-0.6l0,0c-0.6,0-1.3-0.2-1.9-0.5c0.3,0.1,0.2,0.2-0.1,0.3l-0.2-0.2
		c0.5-0.2,1.2-0.2,1.7,0.2l0.4-0.1c0.2,0.1,0.1,0.2,0.2,0.4h0.4C690.8,473.7,690.4,473.5,690,473.3z"/>
	<path class="st4" d="M683.3,473.9l0.3-0.1c-0.4,0.1-0.8,0.1-1.2,0.2C682.7,474.1,683,474,683.3,473.9z"/>
</g>
<path class="st5" d="M680.5,499.2c4.2-0.9,6.8-5,5.9-9.2c0,0,0,0,0,0c-0.9-4.2-4-4-8.1-3.1s-7.9,2.2-7,6.4
	C672.2,497.5,676.3,500.1,680.5,499.2C680.5,499.2,680.5,499.2,680.5,499.2z"/>
<g class="st1">
	<path class="st4" d="M676.9,498.8c-0.1,0-0.3-0.1-0.4-0.1c0.1,0,0.1,0.1,0.2,0.1C676.8,498.9,676.8,498.8,676.9,498.8z"/>
	<path class="st4" d="M676.1,498.5L676.1,498.5H676H676.1z"/>
	<path class="st4" d="M675.4,498.2c0.1,0.1,0.2,0.1,0.3,0.1C675.7,498.3,675.6,498.3,675.4,498.2z"/>
	<path class="st4" d="M676,498.5C676,498.5,676,498.5,676,498.5L676,498.5l-0.2-0.1C675.9,498.4,675.9,498.5,676,498.5z"/>
	<path class="st4" d="M676,498.5c0,0,0.1,0.1,0.1,0.1C676.1,498.6,676,498.6,676,498.5z"/>
	<path class="st4" d="M675.4,499.2c-0.1,0,0-0.2-0.1-0.2c-0.4-0.1-0.7-0.2-1-0.4c-0.2,0-0.2-0.4-0.4-0.5c-0.3-0.2-1.3-0.7-0.9-0.2
		c0.6,0.5,1.3,0.9,2,1.2c0.6,0.2,1.3,0.3,1.9,0.4c0.2,0,0.3,0.1,0.5,0.1l-0.7-0.3C676.4,499.2,675.9,499.4,675.4,499.2z"/>
	<path class="st4" d="M680.1,499.1l-0.2,0.1c-0.4-0.1-0.7-0.1-1.1,0l0.2,0.1c0.2,0,0.2-0.1,0-0.1c0.4,0.1,0.8,0.1,1.2,0
		C680.2,499.2,680.2,499.1,680.1,499.1z"/>
	<path class="st4" d="M680.5,499.2l-0.2,0.1l0,0L680.5,499.2L680.5,499.2z"/>
	<path class="st4" d="M674,497.5c-0.8-0.6-1.4-1.4-1.8-2.3c-0.1,0-0.1-0.1-0.2-0.2c0-0.1,0-0.2,0-0.2c-0.1-0.1-0.1-0.3-0.1-0.4
		l-0.1-0.1l0,0c0-0.1-0.1,0-0.1,0c0,0.1,0,0.1,0,0.2c0,0,0-0.1,0-0.2c0-0.1,0-0.2,0-0.2c-0.1-0.1-0.1-0.2-0.1-0.4
		c0.1,0.1,0.1,0.2,0.1,0.4l0.1,0.2v0.1c-0.1-0.3-0.2-0.6-0.2-0.9l-0.1-0.2c-0.1-0.2-0.1-0.4,0-0.6c0-0.1,0-0.1,0-0.2l0,0
		c0,0,0,0,0-0.1c0-0.2,0-0.5,0-0.7c0-0.2-0.1-0.3-0.1-0.5c0,0,0.1-0.1,0.2-0.1c0-0.1,0-0.2,0-0.3l-0.3,0.3c-0.1,0.1,0.2,0.4-0.1,0.6
		c0.2-0.2-0.1-0.4,0.1-0.6l0.3-0.3c0-0.3,0.2-0.5,0.4-0.6c0,0.3-0.2,0.5-0.4,0.6c0,0.1,0,0.2,0,0.3c-0.1,0-0.1,0.1-0.2,0.1
		c0,0.2,0,0.3,0.1,0.5c0-0.4,0.2-0.9,0.4-1.3c0.8-1.2,2.1-2,3.5-2.4c1.5-0.5,3-0.8,4.5-1c1.7-0.2,3.5-0.2,4.4,0.6
		c0.9,1,1.4,2.3,1.3,3.6c0.1,1.4-0.5,2.8-1.5,3.8c-0.5,0.5-0.9,0.9-1.5,1.4c-0.5,0.4-1.1,0.8-1.7,1c-0.6,0.4-0.7,0.8-0.6,1.1
		c0.1,0.2,0.2,0.4,0.4,0.5c0.5,0.3,1.2,0.3,1.7,0c0.8-0.3,1.6-0.7,2.3-1.2c-0.7,0.4-0.5,0.1-0.1-0.4s1.2-1.2,1.8-1.7
		c1-0.9,1.5-2.2,1.5-3.5c0-0.7,0-1.5-0.2-2.2c-0.1-0.7-0.4-1.4-0.6-2.1c-0.3-0.8-0.9-1.5-1.7-2c-1-0.7-2.2-1.1-3.4-1.1
		c-1,0-2,0.1-3,0.3c-2,0.4-3.9,1-5.7,1.7c-1,0.5-1.9,1.3-2.4,2.4c-0.5,0.6-0.8,1.4-0.9,2.2c-0.1,0.9,0.1,1.7,0.4,2.5
		c-0.3-0.8-0.4-1.6-0.4-2.5c0.1-0.7,0.2,0.5,0.3,0.9c0,0.2-0.2,0.5-0.1,0.6c0.1,0.4,0.2,0.7,0.4,1.1c0.1,0.1-0.1,0.2-0.1,0.3
		c0.2,0.5,0.7,0.8,0.8,1.1s0.2,0.5,0.3,0.7c0.1,0.1,0.1,0.3,0.2,0.4l0.2,0.2c0-0.1,0.1-0.2,0.1-0.3c0.1,0.1,0.2,0.3,0.2,0.4
		c-0.1-0.1-0.2-0.3-0.2-0.4c-0.1,0.1-0.1,0.2-0.1,0.3c0.6,0.5,1.2,0.9,1.8,1.3l0,0c-0.4-0.2-0.7-0.5-0.9-0.9c0.1,0.2,0,0.2-0.1,0.1
		V497c0.3,0.2,0.6,0.5,0.8,0.8l0.2,0.1c0,0.1,0,0.2,0,0.2l0.2,0.1c-0.1-0.1-0.1-0.3-0.2-0.4L674,497.5z"/>
	<path class="st4" d="M671.6,494.1l0.1,0.2c-0.1-0.3-0.2-0.5-0.2-0.8C671.5,493.7,671.5,493.9,671.6,494.1z"/>
</g>
</svg>
