<?xml version="1.0" encoding="utf-8"?>
<!-- Generator: Adobe Illustrator 25.0.0, SVG Export Plug-In . SVG Version: 6.00 Build 0)  -->
<svg version="1.1" id="Layer_1" xmlns="http://www.w3.org/2000/svg" xmlns:xlink="http://www.w3.org/1999/xlink" x="0px" y="0px"
	 viewBox="0 0 841.9 841.9" style="enable-background:new 0 0 841.9 841.9;" xml:space="preserve">
<style type="text/css">
	.st0{fill:#EACCCA;}
	.st1{opacity:0.85;}
	.st2{fill:#020202;}
	.st3{fill:#040505;}
	.st4{fill:#090A0A;}
	.st5{fill:#060707;}
</style>
<rect class="st0" width="841.9" height="841.9"/>
<g class="st1">
	<path class="st2" d="M599.6,385.5l1-0.2c-0.2,0-0.4,0-0.5-0.1C599.8,385.2,599.7,385.3,599.6,385.5z"/>
	<path class="st2" d="M601.5,385.2h0.2l0.2-0.1L601.5,385.2z"/>
	<path class="st2" d="M603.2,385c-0.3,0-0.6,0-0.9,0C602.6,385,602.9,385,603.2,385z"/>
	<path class="st2" d="M601.8,384.9c0.1,0.1,0.2,0.1,0,0.2l0,0c0.2,0,0.3-0.1,0.5-0.1L601.8,384.9z"/>
	<path class="st2" d="M601.8,384.9c-0.1-0.1-0.2-0.1-0.3-0.1C601.6,384.8,601.7,384.9,601.8,384.9z"/>
	<path class="st2" d="M602.2,383.2c0.2,0,0.2,0.4,0.5,0.3c0.9-0.2,1.7-0.2,2.6-0.1c0.4,0,0.9,0.7,1.3,0.6s1.3,0.2,1.9,0.2
		s0.8,0,0.2-0.3l-1.4-0.4c-0.5-0.1-0.9-0.2-1.3-0.3c-0.4-0.1-0.9-0.1-1.3-0.1c-0.5,0-0.9-0.1-1.4-0.1c-1.6,0.1-3.1,0.5-4.5,1.1
		c-0.4,0.2-0.8,0.3-1.2,0.4c0.5-0.2,1.1-0.3,1.7-0.3c0.4-0.1,0.9-0.2,1.3-0.5C601.1,383.5,601.7,383.3,602.2,383.2z"/>
	<path class="st2" d="M593.4,389.3l0.2-0.5c0.4-0.2,0.7-0.5,1-0.7c0.3-0.3,0.5-0.6,0.8-0.9H595c-0.3,0.4-0.3,0.5,0.1,0.3
		c-0.4,0.2-0.8,0.5-1.2,0.8c-0.4,0.3-0.7,0.7-0.9,1.1C593,389.4,593.2,389.5,593.4,389.3z"/>
	<path class="st2" d="M592.6,389.8l0.3-0.5l0,0L592.6,389.8L592.6,389.8z"/>
	<path class="st2" d="M607,385.3c2.2,0.7,4.3,1.9,6,3.4c0.2,0,0.3,0,0.5,0.2c0.1,0.2,0.2,0.3,0.3,0.5l0.7,0.7l0.3,0.2l0,0
		c0.2,0.1,0.2,0,0.2-0.1c-0.1-0.1-0.1-0.2-0.1-0.4c0,0.1,0.1,0.2,0.1,0.4c0.1,0.2,0.2,0.3,0.2,0.5c0.2,0.2,0.4,0.4,0.6,0.7
		c-0.2-0.2-0.4-0.4-0.6-0.7c-0.1-0.1-0.3-0.2-0.4-0.4l-0.1-0.1c0.5,0.5,0.9,1.1,1.4,1.7l0.3,0.4c0.4,0.4,0.8,0.8,0.7,1.2l0.2,0.4
		v-0.1c0,0.1,0,0.1,0,0.1c0.3,0.5,0.5,1,0.8,1.5c0.3,0.3,0.5,0.6,0.7,0.9l-0.1,0.4c0.2,0.1,0.3,0.3,0.5,0.5c0-0.3,0.1-0.6,0.1-0.9
		c0.1-0.5-0.8-0.6-0.6-1.2c-0.2,0.6,0.7,0.7,0.6,1.2c0,0.3,0,0.6-0.1,0.9c0.3,0.5,0.4,1.2,0.3,1.8c-0.3-0.5-0.4-1.2-0.3-1.8
		c-0.1-0.2-0.3-0.4-0.5-0.5l0.1-0.4c-0.2-0.3-0.5-0.6-0.7-0.9c0.2,0.5,0.4,1,0.6,1.5c0.2,0.5,0.3,1,0.5,1.6c0.7,3.4,0.4,6.9-1,10.1
		c-1.4,3.1-3.3,6.3-6.2,8.2c-1.5,1-3.3,1.6-5.2,1.7c-1.8,0.1-3.6-0.2-5.2-0.9c-1.6-0.6-3.2-1.4-4.7-2.4l-1.1-0.7l-1-0.8
		c-0.3-0.2-0.6-0.5-0.9-0.8c-0.3-0.3-0.6-0.6-0.8-0.9c-1-1.2-1.7-2.7-2.1-4.3c-0.2-0.8-0.3-1.6-0.3-2.4c0-0.8,0.1-1.7,0.3-2.5
		c0.3-1.7,0.7-3.3,1.2-4.9c0.5-1.6,1.1-3.2,1.9-4.7c0.5-1.7,0.2-2.5-0.3-2.8c-0.4-0.2-0.9-0.3-1.4-0.1c-1.3,0.5-2.3,1.5-2.8,2.7
		c-0.7,1.3-1.4,2.9-2.5,5.3c0.3-0.9,0.6-1.1,0.6-0.9c0,0.5,0,1-0.1,1.4c-0.3,1.5-0.6,3.8-1.2,5.5c-0.8,2.5-0.2,6,1.7,8.9l0.3,0.5
		l0.4,0.5l0.8,1c0.6,0.6,1.3,1.2,1.9,1.8s1.4,1,2.1,1.5s1.3,0.9,2,1.3c1.5,0.9,3,1.6,4.7,2c2.4,0.9,5,1.2,7.6,0.9
		c2.6-0.4,5.1-1.5,7.2-3.2c1.9-1.6,3.5-3.6,4.7-5.8c1.3-2.2,2.2-4.5,2.9-7c0.5-2.5,0.3-5.1-0.5-7.5c-0.3-1.6-0.7-3.2-1.3-4.6
		c-0.8-1.7-2-3.2-3.3-4.5c1.3,1.3,2.3,2.8,3.2,4.4c0.7,1.3-1-0.7-1.6-1.4c-0.3-0.3-0.2-1.1-0.5-1.4c-0.5-0.7-1.2-1.3-1.8-1.8
		c-0.3-0.2,0.1-0.5-0.1-0.6c-1-0.9-2.1-1.1-2.6-1.7c-0.4-0.4-0.8-0.8-1.2-1.2c-0.3-0.2-0.5-0.4-0.8-0.6l-0.7-0.2
		c0.1,0.2,0.1,0.4,0,0.6c-0.3-0.2-0.6-0.5-0.9-0.7c0.3,0.2,0.6,0.5,0.9,0.7c0.1-0.2,0.1-0.4,0-0.6c-1.6-0.7-3.3-1.1-5.1-1.3l0,0
		c0.2,0,0.5,0.1,0.7,0.2c0.2,0.1,0.5,0.2,0.7,0.3c0.5,0.2,0.9,0.5,1.3,0.8c-0.4-0.3-0.3-0.4,0.2-0.2l0.2,0.4c-0.8-0.2-1.7-0.5-2.4-1
		h-0.2h-0.4c-0.2-0.1-0.2-0.3-0.2-0.4l-0.6-0.1C605.9,384.7,607.1,385.3,607,385.3z"/>
	<path class="st2" d="M615.2,390.7c-0.1-0.1-0.2-0.2-0.3-0.3c0.4,0.5,0.8,1,1.2,1.5C616,391.5,615.6,391.1,615.2,390.7z"/>
</g>
<ellipse class="st3" cx="604.5" cy="400" rx="7.9" ry="8.1"/>
<g class="st1">
	<path class="st4" d="M611.7,395.9l-0.2-0.5c0,0.1,0.1,0.2,0.1,0.3C611.5,395.8,611.6,395.9,611.7,395.9z"/>
	<polygon class="st4" points="611.2,395 611.1,395 611.1,394.9 	"/>
	<path class="st4" d="M610.5,394.4c0.1,0.1,0.2,0.2,0.3,0.3C610.8,394.6,610.7,394.5,610.5,394.4z"/>
	<path class="st4" d="M611,395C611,394.9,611,394.9,611,395L611,395l-0.1-0.3C610.9,394.8,611,394.9,611,395z"/>
	<path class="st4" d="M611,395v0.2V395z"/>
	<path class="st4" d="M610.2,395.3c-0.1,0,0.1-0.2,0-0.3c-0.3-0.2-0.6-0.4-0.9-0.6c-0.1-0.1-0.2-0.4-0.3-0.5
		c-0.3-0.2-1.3-0.4-0.8-0.1c0.6,0.3,1.2,0.8,1.7,1.2c0.5,0.4,0.9,0.9,1.3,1.4c0.1,0.2,0.2,0.3,0.2,0.5c-0.1-0.2-0.1-0.5-0.2-0.7
		S610.5,395.7,610.2,395.3z"/>
	<path class="st4" d="M612.6,399.6l-0.1-0.3c0.1-0.4,0-0.8-0.2-1.2l-0.1,0.2c0.1,0.2,0.1,0.2,0.1,0c0,0.5,0,0.9,0,1.4
		C612.5,399.7,612.6,399.7,612.6,399.6z"/>
	<path class="st4" d="M612.5,400v-0.3l0,0C612.5,399.8,612.5,399.9,612.5,400L612.5,400z"/>
	<path class="st4" d="M609,393.3c-0.9-0.6-2-1.1-3.1-1.3c-0.1,0-0.2,0.1-0.3,0c-0.1,0-0.2-0.1-0.2-0.1c-0.2,0-0.3,0-0.5,0h-0.2
		c-0.1,0-0.1,0.1,0,0.1l0.2,0.1l-0.2-0.1c-0.1,0-0.2-0.1-0.2-0.1c-0.1,0-0.3,0-0.5,0c0.1,0,0.3,0,0.5,0h0.3h0.1c-0.4,0-0.7,0-1.1,0
		h-0.2c-0.2,0.1-0.5,0.1-0.7,0h-0.2l0,0h-0.1c-0.3,0.1-0.5,0.1-0.8,0.2c-0.2,0.1-0.3,0.2-0.5,0.3h-0.2c-0.1,0.1-0.1,0.2-0.2,0.2h0.5
		c0.2,0,0.3-0.4,0.6-0.2c-0.3-0.1-0.4,0.3-0.6,0.2h-0.5c-0.2,0.2-0.5,0.3-0.8,0.3c0.2-0.2,0.5-0.4,0.8-0.3c0.1-0.1,0.2-0.2,0.2-0.2
		h0.2c0.2-0.1,0.3-0.2,0.5-0.3c-0.5,0.2-1,0.4-1.5,0.7c-3.3,1.9-4.9,5.7-4,9.4c0.4,2,1.6,3.9,3.2,5.2c1.6,1.3,3.6,1.9,5.7,1.8
		c2.1-0.1,4.1-0.9,5.8-2.1c0.8-0.7,1.5-1.6,2-2.5c0.5-1,0.8-2,0.9-3.1c-0.1-1.1-0.5-1.4-0.8-1.3c-0.2,0-0.5,0.2-0.6,0.3
		c-0.4,0.5-0.7,1-0.8,1.6c-0.2,0.8-0.6,1.5-1.2,2c0.5-0.5,0.5-0.2,0.2,0.3c-0.4,0.7-1,1.2-1.8,1.4c-1,0.2-2,0.7-3.1,0.9
		c-1.1,0.3-2.3,0.2-3.4-0.2c-0.5-0.2-1.1-0.5-1.6-0.9c-1.3-1.1-2.2-2.5-2.6-4.1c-0.4-1.7-0.1-3.5,0.8-5c0.4-0.8,0.9-1.5,1.5-2.2
		c0.5-0.3,1-0.6,1.6-0.8c0.6-0.3,1.3-0.5,2-0.6c-0.7,0.1-1.4,0.3-2,0.6c-0.5,0.2,0.2-0.5,0.6-0.6c0.2-0.1,0.4,0.1,0.6,0
		c0.3-0.1,0.6-0.2,1-0.3c0.2-0.1,0.2,0.2,0.2,0.1c0.2,0,0.5-0.1,0.7-0.2c0.2,0,0.4,0,0.6,0c0.2,0.1,0.4,0.2,0.7,0.3l0.4,0.1h0.3
		c0-0.1,0-0.2,0-0.3c0.1,0.1,0.3,0.2,0.4,0.2c-0.1-0.1-0.3-0.2-0.4-0.2c0,0.1,0,0.2,0,0.3c0.7,0.1,1.5,0.4,2.1,0.8l0,0
		c-0.4-0.3-0.7-0.6-1-0.9c0.2,0.1,0.1,0.2-0.1,0.1l-0.1-0.2c0.4,0.1,0.8,0.3,1,0.6l0.2,0.1c0.1,0.1,0,0.2,0,0.2s0.2,0.1,0.2,0.1
		C609.3,393.6,609.1,393.4,609,393.3z"/>
	<path class="st4" d="M604.5,391.8h0.2c-0.3,0-0.6,0-0.9,0C604,391.9,604.3,391.9,604.5,391.8z"/>
</g>
<g class="st1">
	<path class="st5" d="M461.6,409.2c0.8,0.7,1.6,1.4,2.5,2.1c-0.4-0.4-0.8-0.8-1.1-1.3C462.6,409.6,462.1,409.3,461.6,409.2z"/>
	<path class="st5" d="M466.4,413.2l0.5,0.4l0.4,0.2L466.4,413.2z"/>
	<path class="st5" d="M471,416.6c-0.7-0.6-1.5-1.2-2.3-1.8C469.4,415.5,470.2,416.1,471,416.6z"/>
	<path class="st5" d="M467.6,413.6c0.2,0.3,0.2,0.5-0.3,0.3l0,0l1.4,1C468.3,414.5,467.9,414,467.6,413.6z"/>
	<path class="st5" d="M467.6,413.6c-0.2-0.3-0.5-0.8-0.6-0.9C467.2,413,467.4,413.3,467.6,413.6z"/>
	<path class="st5" d="M470.8,411.8c0.5,0.3-0.2,0.9,0.8,1.5c2.2,1.5,4.3,2.4,6.3,3.9c1,0.5,1.8,2.4,2.8,2.9c2.3,1.3,8.5,4.1,5.3,1.9
		c-2.5-1.7-4.6-2.9-6.5-4.3s-3.9-2.6-6.1-4.2c-3.6-2.4-7.2-4.6-10.8-7.3c-0.9-0.8-1.8-1.6-2.7-2.4l3.4,3.5
		C464.9,409,467.9,409.8,470.8,411.8z"/>
	<path class="st5" d="M444.2,392.6l1.5,0.9c1.5,2.2,3.4,4,5.6,5.5l-0.5-1.1c-1.2-1-1.5-0.9-0.6,0.2c-1.8-2.4-3.8-4.6-6.1-6.6
		C443.8,391.9,443.8,392.3,444.2,392.6z"/>
	<path class="st5" d="M442.6,390.3l1.3,1.2c0,0,0-0.1,0-0.1C443.5,391,443,390.6,442.6,390.3L442.6,390.3z"/>
	<path class="st5" d="M481.2,423l4.6,3.2l4.5,3c3,2,6,3.8,8.9,5.6c0.6,0,1.1,0.2,1.5,0.6c0.4,0.4,0.8,0.8,1.2,1.1l2.6,1.5l1,0.5l0,0
		c0.5,0.2,0.5,0,0.2-0.3c-0.3-0.3-0.5-0.5-0.8-0.8c0.1,0.2,0.5,0.5,0.8,0.8c0.4,0.4,0.8,0.7,1.3,1c0.9,0.4,1.8,0.8,2.6,1.3
		c-0.9-0.3-1.8-0.8-2.6-1.3l-1.5-0.7l-0.5-0.2c2,1.2,4,2.2,6.1,3.3l1.3,0.6c1.5,0.7,3.1,1.2,3.8,2.1l1.1,0.5l-0.2-0.2
		c0.2,0.1,0.3,0.2,0.4,0.3c1.5,0.8,3.1,1.5,4.7,2.2c1.1,0.3,2.3,0.5,3.4,0.8l0.9,0.9c0.7,0,1.4,0.1,2,0.3c-0.8-0.6-1.5-1.2-2.1-1.7
		c-0.9-0.9-2.8-0.1-3.7-1.5c0.9,1.4,2.8,0.6,3.7,1.5c0.7,0.5,1.3,1.1,2.1,1.7c1.8,0.5,3.5,1.3,5,2.4c-1.8-0.4-3.6-1.2-5-2.4
		c-0.6-0.2-1.3-0.3-2-0.3l-0.9-0.9c-1.1-0.3-2.3-0.6-3.4-0.8l4.7,2.1l4.9,2c10.4,4.1,21.2,7.1,32.2,9l2,0.4l2.1,0.3l4.2,0.6l4.2,0.4
		l2.1,0.2l2.1,0.1c5.8,0.4,11.6,0.5,17.4,0.3c6.3-0.2,12.7-0.7,18.9-1.6c6.2-0.9,12.2-2,18.2-3.3c11.5-2.8,22.7-6.9,33.3-12.2
		c10.5-5.1,20.7-10.9,31.4-17.1c5.2-3.2,10.1-6.8,14.7-10.8c5.2-4.4,10-9.1,13.2-12.4c3.8-5,3.7-7.2,2.7-7.9s-3-0.2-3.3,0
		c-3.8,1.5-6.3,3.5-9.5,6.2c-4.2,3.7-8.6,7.1-13.4,10c4.3-2.7,3.2-1.1-0.1,1.7s-8.9,6.6-13.5,8.3c-3.5,1.3-7,2.9-10.3,4.7
		c-3.5,1.9-7.2,4-11,6.1c-7.5,4.2-15.6,8.4-23.6,10.8c-4,1.3-8.2,2.8-13,4.1c-12.3,2.9-24.8,4.8-37.3,5.6c-6.3,0.4-12.7,0.3-19-0.1
		c-6.6-0.4-13.1-1.4-19.6-2.9l-5.1-1c-1.7-0.3-3.3-0.6-4.9-0.9l-4.7-0.9c-1.5-0.3-3-0.7-4.5-1c-2.2-0.7-4.3-1.4-6.3-2.4
		c-2-0.8-3.9-1.8-5.6-2.5l-7.4-3c-2.4-0.9-4.6-1.9-6.8-2.7c2.4,1.1,4.5,2.1,6.7,2.9s4.4,1.9,7.2,2.9c1.8,0.7,1.1,0.8-0.4,0.5
		c-0.8-0.1-1.7-0.3-2.6-0.5s-1.8-0.5-2.4-0.7c-1.1-0.3-2.2-2-3.3-2.2c-2.2-1-4.3-1.7-6.8-2.6c-1.1-0.3-0.5-1.1-1.1-1.3
		c-3.2-1.5-6.2-1.8-8.1-3.1l-3.9-2.9c-0.8-0.5-1.6-1.1-2.5-1.6l-1.8-0.9c0.2,0.4,0.3,0.9,0.2,1.3c-0.8-0.6-1.8-1.5-2.5-2
		c0.8,0.6,1.8,1.5,2.5,2c0.1-0.5,0-0.9-0.2-1.3c-2.1-1.1-4.4-2.2-6.7-3.4s-4.6-2.6-6.7-3.9v0.1c2.5,1.6,4.9,3.5,7,5.6
		c-1-0.9-0.7-1.1,0.6-0.2c0.2,0.4,0.5,0.7,0.7,1c-2.4-1.1-4.5-2.6-6.3-4.5l-1.6-0.7c-0.6-0.6-0.4-0.8-0.4-1.1l-1.5-1
		c0.6,0.8,1.3,1.6,2,2.4L481.2,423z"/>
	<path class="st5" d="M507.2,439.1c-0.4-0.1-0.8-0.4-1.3-0.6c1.7,1,3.4,1.9,5.1,2.8C510.3,440.4,508.8,439.8,507.2,439.1z"/>
</g>
<g class="st1">
	<path class="st2" d="M205.9,412.9l1.6,0.1c-0.3-0.1-0.5-0.2-0.8-0.4C206.3,412.5,206.2,412.7,205.9,412.9z"/>
	<path class="st2" d="M208.9,413h0.3l0.2-0.1L208.9,413z"/>
	<path class="st2" d="M211.7,412.8c-0.5-0.1-0.9-0.1-1.4,0C210.7,412.9,211.2,412.9,211.7,412.8z"/>
	<path class="st2" d="M209.5,412.6c0.2,0.1,0.2,0.3,0,0.4l0,0c0.3,0,0.5-0.1,0.8-0.1C210,412.8,209.7,412.7,209.5,412.6z"/>
	<path class="st2" d="M209.5,412.6c-0.2-0.1-0.4-0.3-0.5-0.4C209.1,412.3,209.3,412.5,209.5,412.6z"/>
	<path class="st2" d="M210.2,409.2c0.3-0.1,0.2,0.9,0.8,0.6c1.2-0.3,2.4-0.6,3.6-0.7c0.6-0.2,1.4,0.9,1.9,0.6
		c1.3-0.3,4.6-1.5,2.6-1.5c-2.9,0.1-4.8,0.4-7.4,0.5c-2.1,0.4-4.2,0.8-6.3,1.1c-0.6,0-1.2,0-1.7-0.1c0.7,0.2,1.5,0.3,2.4,0.5
		C207.1,410.6,208.5,409.4,210.2,409.2z"/>
	<path class="st2" d="M194.3,412.2l0.8-0.3c1.2,0.5,2.5,0.6,3.8,0.2l-0.6-0.5c-0.7,0-0.8,0.3-0.2,0.5c-1.4-0.5-2.9-0.7-4.3-0.6
		C194,411.8,193.9,412.1,194.3,412.2z"/>
	<path class="st2" d="M193,411.6l0.9-0.1v-0.1L193,411.6L193,411.6z"/>
	<path class="st2" d="M217.5,412c3.6,0,7.1,0.1,10.4,0.2c0.2-0.2,0.4-0.4,0.8-0.3c0.2,0.2,0.5,0.3,0.8,0.4l1.5,0.1l0.5-0.1l0,0
		c0.3-0.1,0.2-0.3,0-0.4c-0.2-0.1-0.4-0.2-0.5-0.4c0.1,0.1,0.3,0.2,0.5,0.4c0.2,0.1,0.5,0.2,0.8,0.3c0.5-0.1,0.9-0.1,1.4,0
		c-0.5,0.1-0.9,0.1-1.4,0c-0.3,0-0.6,0.1-0.8,0.1l-0.2,0.1l3.3,0.2l0.7-0.1c0.8-0.1,1.6-0.2,2.1,0.2h0.6l-0.1-0.1l0.2,0.1l2.5,0.1
		c0.6-0.2,1.1-0.4,1.7-0.5l0.6,0.5c0.3-0.2,0.6-0.4,0.9-0.5c-0.4-0.3-0.9-0.6-1.2-0.8c-0.6-0.5-1.3,1-1.9,0c0.7,0.9,1.4-0.5,1.9,0
		c0.4,0.2,0.8,0.5,1.2,0.8c0.9-0.2,1.9,0,2.6,0.5c-0.9,0.3-1.9,0.1-2.6-0.5c-0.4,0.1-0.7,0.2-0.9,0.5l-0.6-0.5
		c-0.6,0.1-1.1,0.4-1.7,0.5l5,0.3c10.9,0.7,21,0.7,32.4,1.2c6.1,0.3,12,0.8,17.8,1.4c11.5,1.2,22.1,0,33.7,2.5
		c4.5,0.9,12.8,0.5,17.1,0.4c5.8-1.5,2.8-5.7,2.6-5.9c-3.5-3.5-6.3-1.6-13.5-3.8c4.9,1.2-3.7,2.2-8.3-0.2
		c-6.7-3.7-16.4-0.9-24.7-1.9c-2.1-0.2-4.3-0.1-6.8-0.2c-12.9-1.4-24.9,0.1-38.4-0.3c-3.6,0-6.8,0.8-9.8,1.3
		c-2.2,0.1-4.6-0.3-6.4-0.4c-2.5,0-5.1,0.2-7.6,0.7c2.6-0.1,4.5-0.4,7.4-0.5c1.9,0-1.4,1.2-2.6,1.5c-0.6,0.2-1.4-0.9-2-0.6
		c-1.2,0.1-2.4,0.3-3.6,0.7c-0.6,0.2-0.5-0.8-0.8-0.6c-1.8,0.2-3.1,1.4-4.2,1.1c-0.8-0.1-1.6-0.3-2.4-0.5c-0.5-0.1-1-0.1-1.4-0.1
		l-1,0.2c0.2,0.3,0.4,0.6,0.4,1c-0.5,0-1.1-0.3-1.6-0.3c0.5,0.1,1.1,0.3,1.6,0.3c-0.1-0.4-0.2-0.7-0.4-1c-2.3,0.5-5,1-7.4,1.4v0.1
		c1.5-0.1,3,0.1,4.3,0.6c-0.6-0.2-0.6-0.5,0.2-0.5l0.6,0.5c-1.2,0.4-2.6,0.4-3.8-0.2l-0.8,0.3c-0.4-0.1-0.4-0.4-0.5-0.7l-0.9,0.1
		C215.6,411.3,216.5,411.7,217.5,412z"/>
	<path class="st2" d="M232.3,412.1c-0.2,0-0.4,0-0.7,0.1l2.8,0.1C233.9,411.9,233.1,412,232.3,412.1z"/>
</g>
</svg>
