<?xml version="1.0" encoding="utf-8"?>
<!-- Generator: Adobe Illustrator 25.0.0, SVG Export Plug-In . SVG Version: 6.00 Build 0)  -->
<svg version="1.1" id="Layer_1" xmlns="http://www.w3.org/2000/svg" xmlns:xlink="http://www.w3.org/1999/xlink" x="0px" y="0px"
	 viewBox="0 0 841.9 841.9" style="enable-background:new 0 0 841.9 841.9;" xml:space="preserve">
<style type="text/css">
	.st0{fill:#FEECE1;}
	.st1{opacity:0.85;}
	.st2{fill:#211F1E;}
	.st3{fill:#1F2020;}
</style>
<rect y="-0.5" class="st0" width="841.9" height="841.9"/>
<g class="st1">
	<path class="st2" d="M558.2,489.3c0.4,0.3,0.8,0.6,1.2,0.9c-0.2-0.2-0.4-0.3-0.5-0.6C558.7,489.4,558.5,489.3,558.2,489.3z"/>
	<path class="st2" d="M560.6,490.9l0.2,0.1c0.1,0,0.1,0,0.2,0.1C560.9,491,560.8,490.9,560.6,490.9z"/>
	<path class="st2" d="M563,491.9c-0.4-0.2-0.8-0.4-1.2-0.5C562.2,491.6,562.6,491.8,563,491.9z"/>
	<path class="st2" d="M561.2,490.9c0.1,0.1,0.2,0.2-0.1,0.2l0,0l0.8,0.3C561.6,491.2,561.4,491.1,561.2,490.9z"/>
	<path class="st2" d="M561.2,490.9c-0.1-0.1-0.3-0.3-0.3-0.4C561,490.7,561.1,490.8,561.2,490.9z"/>
	<path class="st2" d="M562.5,489.6c0.2,0.1,0,0.5,0.5,0.6c0.5,0.2,1,0.3,1.6,0.4l1.5,0.3c0.5,0,1.1,0.8,1.6,0.7
		c1.2,0.1,4-0.4,2.4-0.5c-0.6,0-1.2,0-1.7-0.1c-0.5,0-1-0.1-1.5-0.2c-0.5-0.1-1-0.2-1.5-0.3l-1.5-0.5
		C563.4,489.9,562.9,489.7,562.5,489.6c-0.5-0.2-0.9-0.3-1.3-0.5l-1.3-0.6l-1.2-0.7c-0.4-0.3-0.8-0.6-1.2-1l0.7,0.8l0.8,0.7
		c0.4,0.4,1,0.6,1.5,0.8L562.5,489.6z"/>
	<path class="st2" d="M551.4,480.8l0.5,0.6c0.3,1.2,1,2.2,1.9,3c0-0.2-0.1-0.4-0.1-0.6c-0.4-0.5-0.6-0.5-0.3,0
		c-0.6-1.3-1.2-2.5-1.8-3.7C551.3,480.3,551.3,480.6,551.4,480.8z"/>
	<path class="st2" d="M551.1,479.5c0.1,0.2,0.2,0.5,0.4,0.7l0,0C551.4,480,551.2,479.7,551.1,479.5L551.1,479.5z"/>
	<path class="st2" d="M568.5,492.9c3.2,0.4,6.5,0.2,9.6-0.9c0.2-0.2,0.4-0.3,0.6-0.4c0.3,0,0.5,0,0.8-0.1c0.4-0.1,0.8-0.4,1.3-0.5
		l0.4-0.2l0,0c0.2-0.2,0.1-0.2-0.1-0.2c-0.2,0-0.3,0-0.5,0c0.1,0,0.3,0,0.5,0c0.3,0,0.5-0.1,0.7-0.2c0.4-0.3,0.7-0.5,1.1-0.7
		c-0.3,0.3-0.7,0.5-1.1,0.7l-0.7,0.4l-0.2,0.1c1-0.4,1.9-0.9,2.8-1.5c0.2-0.1,0.3-0.3,0.5-0.4c0.5-0.5,1-0.9,1.7-1.1l0.4-0.4h-0.1
		l0.2-0.1c0.6-0.5,1.2-1,1.8-1.6c0.3-0.4,0.6-0.9,0.9-1.3l0.5-0.3c0.1-0.3,0.2-0.6,0.4-0.8c-0.4,0.2-0.8,0.4-1,0.6
		c-0.5,0.2-0.4,1.2-1.2,1.3c0.8-0.1,0.7-1.1,1.2-1.3c0.3-0.2,0.7-0.4,1-0.6c0.5-0.7,1-1.3,1.7-1.9c-0.3,0.8-0.9,1.5-1.7,1.9
		c-0.2,0.3-0.3,0.5-0.4,0.8l-0.5,0.3c-0.3,0.4-0.6,0.9-0.9,1.3c0.6-0.5,1.1-1.1,1.6-1.7c0.5-0.6,1-1.2,1.5-1.9
		c3.1-4.1,4.8-9.2,4.8-14.3c-0.3-5.4-2.6-10.4-6.5-14.1c-2.1-2.1-4.4-3.9-6.9-5.4c-2.5-1.4-5.1-2.6-7.8-3.4c-2.7-0.9-5.6-1.2-8.4-1
		c-2.9,0.2-5.7,1-8.2,2.4c-2.5,1.5-4.6,3.5-6.4,5.8c-1.8,2.3-3.2,4.9-4.3,7.6c-1,2.8-1.5,5.7-1.5,8.6c0,2.9,0.4,5.8,1.2,8.6
		c0.2,0.6,0.5,1.1,0.9,1.6c0.2,0.3,0.5,0.6,0.8,0.9c0.5,0.4,0.8,0.4,1.1,0.2c0.4-0.3,0.7-0.8,0.8-1.4c0.1-0.4,0.1-0.9,0.1-1.3
		c0-0.4,0-0.8,0-1.2s-0.1-0.8-0.1-1.2s-0.1-0.9-0.1-1.3c-0.3-2.4-0.2-4.9,0.4-7.2c-0.5,2.1-0.7,1.4-0.6-0.5c0.1-1.1,0.3-2.2,0.7-3.3
		c0.4-1.1,0.9-2.2,1.6-3.1c1.9-2.4,3.7-5.2,6.2-7.4c1.3-1.1,2.7-2,4.3-2.6c0.8-0.3,1.6-0.5,2.5-0.6c0.4-0.1,0.9-0.1,1.3-0.1
		c0.4,0,0.9,0,1.3,0c0.8,0.1,1.7,0.1,2.7,0.2c0.5,0.1,0.9,0.1,1.4,0.2l1.5,0.3c2.6,0.8,5,1.9,7.3,3.2c2.3,1.3,4.4,2.9,6.2,4.8
		c1.8,1.8,3.3,4,4.2,6.3c0.9,2.5,1.1,5.1,0.6,7.7c-0.4,2.7-1.1,5.3-2.2,7.8c-0.2,0.4-0.5,0.8-0.8,1.2c-0.3,0.4-0.6,0.8-0.9,1.1
		c-0.6,0.7-1.2,1.4-1.8,1.9c-1.5,1.6-3.1,3.1-4.8,4.4c1.8-1.2,3.3-2.6,4.7-4.2c0.6-0.6,0.5-0.3,0.2,0.3c-0.2,0.3-0.4,0.6-0.6,1
		c-0.2,0.3-0.4,0.6-0.7,0.9c-0.3,0.4-1.2,0.5-1.5,0.9c-0.4,0.3-0.8,0.6-1.2,1c-0.4,0.3-0.8,0.7-1.2,1s-0.5-0.1-0.7,0.1
		c-0.6,0.4-1.1,0.8-1.7,1.2c-0.4,0.3-0.9,0.6-1.5,0.8c-0.7,0.2-1.3,0.3-2,0.4c-0.4,0.1-0.8,0.1-1.2,0.2l-0.8,0.2
		c0.2,0.1,0.3,0.3,0.4,0.5c-0.2,0-0.5,0-0.7,0h-0.7h0.7c0.2,0,0.5,0,0.7,0c-0.1-0.2-0.2-0.4-0.4-0.5c-2.2,0.6-4.4,0.8-6.7,0.5l0,0
		c0.7,0.1,1.3,0.2,1.9,0.3s1.3,0.2,2,0.4c-0.6-0.1-0.5-0.3,0.2-0.3c0.2,0.1,0.3,0.2,0.5,0.2c-0.6,0.1-1.2,0.1-1.8,0.1
		c-0.6,0-1.2-0.1-1.7-0.4l-0.8,0c-0.4-0.1-0.3-0.3-0.4-0.4l-0.8-0.1c0.4,0.3,0.8,0.5,1.2,0.6L568.5,492.9z"/>
	<path class="st2" d="M581.9,490.3c-0.2,0.1-0.3,0.2-0.6,0.3c0.8-0.3,1.5-0.8,2.3-1.3C583,489.5,582.4,489.9,581.9,490.3z"/>
</g>
<circle class="st3" cx="571.3" cy="470.8" r="7.8"/>
<g class="st1">
	<path class="st2" d="M576.4,476.3l-0.4,0.3c0.1,0,0.1-0.1,0.2-0.1C576.4,476.5,576.4,476.4,576.4,476.3z"/>
	<polygon class="st2" points="575.7,476.9 575.6,476.9 575.6,477 	"/>
	<path class="st2" d="M575,477.3c0.1-0.1,0.2-0.1,0.4-0.2C575.2,477.2,575.1,477.2,575,477.3z"/>
	<path class="st2" d="M575.6,477C575.5,477,575.5,477,575.6,477L575.6,477l-0.2,0.1C575.4,477,575.5,477,575.6,477z"/>
	<path class="st2" d="M575.6,477h0.2H575.6z"/>
	<path class="st2" d="M575.9,477.9c-0.1,0.1-0.2-0.1-0.3,0c-0.3,0.3-0.6,0.5-1,0.7c-0.2,0.1-0.5,0-0.7,0.1c-0.4,0.2-1.4,0.8-0.8,0.6
		c0.8-0.2,1.6-0.5,2.3-1c0.6-0.4,1.1-0.9,1.5-1.5c0.1-0.1,0.3-0.3,0.4-0.4c-0.2,0.1-0.4,0.3-0.6,0.5S576.4,477.5,575.9,477.9z"/>
	<path class="st2" d="M578.5,473.5c0,0.1,0,0.3,0,0.3c-0.3,0.3-0.5,0.6-0.6,1l0.2-0.1c0.1-0.2,0-0.3-0.1-0.1
		c0.3-0.3,0.6-0.7,0.7-1.2C578.6,473.4,578.5,473.4,578.5,473.5z"/>
	<path class="st2" d="M578.7,473.2l-0.1,0.3l0,0L578.7,473.2L578.7,473.2z"/>
	<path class="st2" d="M573.5,478.2c-1,0.3-2.1,0.4-3.2,0.2c-0.1,0-0.2,0.1-0.2,0c-0.1,0-0.1-0.1-0.2-0.1l-0.4-0.1h-0.2l0,0
		c-0.1,0-0.1,0,0,0.1c0.1,0,0.1,0.1,0.1,0.1c0,0-0.1-0.1-0.1-0.1c-0.1-0.1-0.1-0.1-0.2-0.1c-0.1,0-0.3-0.1-0.4-0.1
		c0.1,0,0.3,0.1,0.4,0.1h0.2h0.1c-0.3-0.1-0.7-0.2-1-0.4l-0.2-0.1c-0.2-0.1-0.5-0.2-0.5-0.3l-0.2-0.1l0,0l0-0.1
		c-0.2-0.1-0.4-0.3-0.6-0.5c-0.2-0.1-0.3-0.1-0.5-0.2c0,0,0-0.1,0-0.2c-0.1,0-0.2,0-0.3-0.1c0,0.1,0.1,0.3,0.2,0.4
		c0.1,0.2,0.5,0.1,0.5,0.4c0-0.3-0.4-0.2-0.5-0.4c-0.1-0.1-0.1-0.3-0.2-0.4c-0.2-0.2-0.4-0.4-0.5-0.7c0.2,0.2,0.4,0.4,0.5,0.7
		c0.1,0.1,0.2,0.1,0.3,0.1c0,0.1,0,0.2,0,0.2c0.2,0.1,0.3,0.1,0.5,0.2c-0.4-0.3-0.8-0.7-1.1-1.1c-1-1.2-1.6-2.8-1.8-4.4
		c-0.1-1.6,0.3-3.2,1.2-4.5c1-1.4,2.5-2.4,4.1-2.8c1.5-0.3,3.1-0.2,4.5,0.4c1.4,0.6,2.5,1.7,3,3.2c0.3,0.7,0.5,1.4,0.6,2.1
		c0.1,0.7,0.1,1.4,0,2.1c0.1,0.8,0.3,1.1,0.6,1.1c0.2,0,0.5,0,0.7-0.1c0.5-0.4,0.8-1,0.9-1.6c0.1-0.9,0.1-1.9,0-2.8
		c0.1,0.9-0.2,0.6-0.4-0.1s-0.6-1.7-0.8-2.5c-0.5-1.4-1.5-2.5-2.8-3.1c-1.4-0.7-3-1-4.6-1.1c-0.8,0-1.7,0.1-2.5,0.4
		c-2.3,0.6-4.3,2.1-5.4,4.2c-1.1,2.1-1.4,4.6-0.8,7c0.3,1.1,1,2.2,1.8,3c0.5,0.6,1,1.2,1.5,1.7c0.7,0.6,1.6,1.1,2.5,1.3
		c-0.8-0.3-1.6-0.6-2.3-1.2c-0.5-0.4,0.5,0.1,1,0.2c0.2,0.1,0.3,0.4,0.5,0.5c0.4,0.2,0.8,0.3,1.2,0.3c0.2,0,0.1,0.2,0.2,0.2
		c0.6,0.1,1.1-0.1,1.5,0s0.5,0.1,0.8,0.2c0.2,0,0.3,0,0.5,0l0.3-0.1c-0.1-0.1-0.1-0.2-0.2-0.2c0.2,0,0.4,0.1,0.5,0
		c-0.2,0-0.4,0-0.5,0c0,0.1,0.1,0.2,0.2,0.2c0.8-0.2,1.6-0.5,2.3-0.8l0,0c-0.4,0.2-0.9,0.3-1.4,0.2c0.2,0,0.2,0.1,0,0.1l-0.2-0.1
		c0.4-0.2,0.8-0.2,1.2-0.2l0.2-0.2c0.1,0,0.2,0,0.2,0.1l0.2-0.1C574.1,478.2,573.8,478.2,573.5,478.2z"/>
	<path class="st2" d="M569,478.1h0.2c-0.3-0.1-0.5-0.2-0.8-0.3C568.5,478,568.7,478.1,569,478.1z"/>
</g>
<g class="st1">
	<path class="st2" d="M431.2,368.4c0,1-0.1,2-0.1,3v3c0.1-1,0.2-2,0.3-3C431.5,370.4,431.5,369.4,431.2,368.4z"/>
	<path class="st2" d="M431.3,379.9c0,0.4,0.1,0.7,0.1,1l0.2,0.9C431.5,381.2,431.4,380.5,431.3,379.9z"/>
	<path class="st2" d="M432.9,390.1l-0.8-5.2c0.1,0.8,0.1,1.5,0.3,2.4S432.6,389.1,432.9,390.1z"/>
	<path class="st2" d="M432,382c-0.1,0.6-0.2,1-0.4-0.1l0,0c0.1,1,0.3,2,0.5,3.1C432,384,431.9,383,432,382z"/>
	<path class="st2" d="M432,382c0.1-0.6,0.1-1.6,0.2-1.9C432,380.6,432,381.2,432,382z"/>
	<path class="st2" d="M435.6,384.1c0.2,1-0.8,0.9-0.3,2.8c0.2,1.2,0.5,2.3,0.8,3.3s0.5,2.1,0.9,3.2s0.6,2.1,0.9,3.1s0.6,2.1,0.9,3.1
		c0.7,1.9,0.6,5.2,1.3,7.1c0.4,1.1,1,2.6,1.7,4.2s1.4,3.1,2,4.4c1.3,2.4,2,3.5,0.7,0.2c-1.9-5-3.3-9.2-4.6-13.3
		c-0.6-2-1.2-4.1-1.7-6.1s-1.1-4.3-1.5-6.6c-1.9-7.5-2.7-15.2-2.5-23c0.1-2.1,0.4-4.2,0.9-6.3c-0.3,1.3-0.5,2.7-0.8,4.1
		s-0.5,2.9-0.6,4.4C433.3,372.9,434.6,377.9,435.6,384.1z"/>
	<path class="st2" d="M439.2,326.3c0.2,0.6,0.4,1.2,0.5,1.8l0.2,1.1c-0.5,4.6-1.3,9.2-2.5,13.7c0.4-0.6,0.7-1.3,1.1-1.9
		c0.3-0.7,0.4-1.5,0.4-2.2c-0.1-0.1-0.3,0.4-0.7,1.5c1.1-2.5,1.8-5.2,2.1-7.9c0.3-2.7,0-5.4-0.9-7.9
		C439.2,324.8,439,324.8,439.2,326.3z"/>
	<path class="st2" d="M438.2,321.5c0.5,1,0.8,1.9,1.2,2.9c0,0,0-0.1,0-0.1c-0.4-1-0.8-2-1.2-2.9L438.2,321.5z"/>
	<path class="st2" d="M439.1,411.1c1,3.2,2.2,6.4,3.4,9.5c0.6,1.5,1.2,3.1,1.8,4.6c0.6,1.5,1.2,3,1.9,4.5c1.3,3,2.5,5.9,3.8,8.8
		s2.6,5.8,4,8.6c0.7,0.7,1.2,1.6,1.6,2.5c0.3,1,0.7,1.9,1,2.8c0.8,1.6,1.7,3.2,2.6,4.8l1,1.6l0,0c0.6,0.8,0.6,0.5,0.4-0.1
		s-0.5-1.3-0.6-1.8c0.1,0.4,0.5,1.2,0.6,1.8c0.3,0.8,0.7,1.7,1.2,2.7c0.9,1.4,1.9,2.9,2.8,4.4c-1-1.4-1.9-2.9-2.8-4.4l-1.6-2.6
		l-0.5-0.7c1,1.8,2,3.7,3.1,5.5l3.2,5.3c0.5,0.8,1.1,1.5,1.5,2.1c1.7,2,3.1,4.3,4.3,6.6l1.3,1.8l-0.2-0.4l0.4,0.7
		c0.9,1.3,1.8,2.6,2.8,3.8l3,3.7c0.7,0.7,1.4,1.5,2.2,2.2s1.5,1.4,2.3,2.2l1.1,1.9c1,0.7,1.9,1.4,2.8,2.2c-1-1.4-1.8-2.8-2.6-4
		c-1-1.9-3.9-2.9-4.8-5.4c0.9,2.5,3.7,3.5,4.8,5.4c0.8,1.2,1.6,2.6,2.6,4c1.2,1.1,2.4,2.3,3.5,3.5c1.2,1.3,2.4,2.5,3.4,3.8
		c-1.5-1-2.8-2.3-4-3.6c-1.1-1.2-2-2.5-2.9-3.7c-0.9-0.8-1.8-1.6-2.8-2.2l-1.1-1.9c-0.8-0.7-1.5-1.5-2.3-2.2s-1.5-1.5-2.2-2.2
		c1.9,2.5,4,4.7,6.1,7.1c1,1.2,2.2,2.3,3.3,3.4s2.2,2.3,3.4,3.4c7.3,7.1,15.4,13.3,24.3,18.5c2.2,1.3,4.4,2.4,6.7,3.6
		c1.1,0.6,2.3,1.1,3.4,1.6s2.3,1,3.5,1.5c4.7,1.9,9.5,3.5,14.4,4.7c19.6,5,40.7,4.2,61.4-1.8c5.6-1.6,11-3.6,16.4-5.8
		c5.3-2.2,10.4-4.7,15.4-7.5c4.9-2.8,9.8-5.6,14.3-8.8c1.2-0.8,2.3-1.6,3.4-2.4s2.3-1.6,3.4-2.5c2.2-1.7,4.4-3.4,6.5-5.2
		c4.2-3.5,8.2-7.2,12.1-11c1.9-2,3.8-3.9,5.5-5.9c0.9-1,1.8-2,2.7-3l2.6-3.1c0.9-1,1.7-2.1,2.5-3.1s1.6-2.1,2.4-3.2
		c1.5-2.2,3.1-4.3,4.6-6.5c3-4.4,5.7-9,8.2-13.7s4.8-9.5,6.8-14.5c2.1-5,3.8-10.1,5.3-15.3c1.5-5.3,2.7-10.7,3.6-16.1
		c0.9-5.6,1.4-11.3,1.4-17c0-0.6,0-1.1,0-1.7s0-1.1,0-1.7c0-1.1,0-2.3-0.1-3.6c-0.1-2.5-0.2-5.1-0.2-7.8c-0.1-5.5-0.3-11.4-0.3-17.2
		c-0.1-11.7,0.2-23.3,1.4-30.7c0.4-5,1-7.7,0.9-8.7c0-0.1,0-0.2-0.1-0.4c-0.1,0-0.1-0.1-0.2-0.1l-0.1-0.1v-0.1c0-0.1,0-0.2,0-0.3
		c0-0.3-0.1-0.6-0.2-0.9c-0.2-0.3-0.5-0.5-0.8-0.6c-0.4-0.1-0.8-0.1-1.2,0c-0.4,0.2-0.7,0.4-1.1,0.6c-0.2,0.2-0.4,0.4-0.6,0.6
		c-0.3,0.3-0.6,0.7-0.8,1c-0.2,0.4-0.5,0.7-0.7,1.1c-0.4,0.7-0.8,1.5-1.2,2.3c-0.7,1.5-1.2,3.1-1.7,4.7c-0.5,1.6-0.7,3.3-1.1,5
		s-0.5,3.6-0.7,5.5c-0.7,7.7-1,17.2-1.6,30.9c0.1-4.7,0.5-6.1,0.7-5.5c0.4,2.5,0.6,5,0.7,7.5c0.1,2,0.2,4.2,0.2,6.7s0.2,5,0.2,7.6
		c0.2,4.9-0.1,9.7-0.9,14.5c-1.2,6-2.6,12.5-4.5,19.4c-2,7.2-4.4,14.2-7.3,21c-6,14.4-14.4,27.7-24.9,39.4
		c-5.4,6.1-11.3,11.9-17.4,17.3c-2.2,1.9-4.6,3.6-6.8,5.4s-4.6,3.4-7,5s-4.8,3.1-7.2,4.7s-4.9,2.9-7.4,4.3s-5,2.6-7.5,3.9
		s-5.1,2.4-7.7,3.4s-5.2,2-7.9,3s-5.3,1.8-8.1,2.5c-5.4,1.6-11,2.7-16.6,3.5c-0.7,0.1-1.4,0.2-2.1,0.3l-2.1,0.2
		c-1.4,0.1-2.8,0.3-4.2,0.3l-4.3,0.2l-4.3-0.1c-5.8-0.2-11.6-0.9-17.2-2.1c-5.8-1.3-11.5-3-17-5.3c-5.6-2.3-11.1-4.9-16.4-7.9
		c-2.5-1.5-5-2.9-7.3-4.5c-1.2-0.8-2.4-1.5-3.5-2.3l-3.3-2.5c-6.3-5-11.9-11.6-16.2-16.5c-6-7-11.7-14.4-16.9-22
		c4.9,7.6,10.4,14.8,16.4,21.6c1.1,1.4,1.5,1.8,1.3,1.7c-0.7-0.5-1.4-1-2-1.6c-2.3-2.1-4.4-4.3-6.5-6.7c-1.4-1.5-2.5-4.6-3.7-6.2
		c-1.2-1.8-2.5-3.5-3.8-5.2l-3.9-5.4c-1.3-1.6-0.3-1.9-0.9-2.7c-1.7-2.8-3.4-5-4.9-7.1c-1.4-1.9-2.6-3.9-3.6-6
		c-1.3-2.9-2.3-5.5-3.4-8.1c-0.7-1.6-1.4-3.2-2.1-4.9c-0.5-1-1.1-2.1-1.6-3.1c0.1,0.6,0,1.3-0.3,1.9c-0.6-1.6-1.4-3.9-2-5.5
		c0.6,1.6,1.4,3.9,2,5.5c0.3-0.6,0.4-1.2,0.3-1.9c-4.2-8.2-7.8-16.7-10.8-25.4l0,0.1c1.6,5.1,3.2,10.1,4.6,15.5
		c-0.6-2.4-0.3-2.1,0.7,0.4l0.3,2.1c-2.1-4.2-3.7-8.7-4.6-13.4l-0.5-1.1c-0.2-0.6-0.5-1.3-0.7-1.8c-0.3-1.5,0-1.5,0.2-1.9
		c-0.3-1-0.7-2-0.9-3c0.2,1.8,0.5,3.7,0.8,5.5c0.2,1,0.4,2,0.5,2.6L439.1,411.1z"/>
	<path class="st2" d="M462,461.5c-0.4-0.6-0.9-1.4-1.4-2.2c1.6,3.1,3.5,6,5.3,9C465.4,466.5,463.7,464.1,462,461.5z"/>
</g>
<g class="st1">
	<path class="st2" d="M138.8,429.7l2.4,0.3c-0.4-0.1-0.8-0.3-1.2-0.5C139.6,429.4,139.2,429.5,138.8,429.7z"/>
	<path class="st2" d="M143.5,430.3l0.4,0.1h0.4L143.5,430.3z"/>
	<path class="st2" d="M147.7,430.5c-0.7-0.1-1.4-0.2-2.1-0.2C146.3,430.5,147,430.6,147.7,430.5z"/>
	<path class="st2" d="M144.4,429.9c0.2,0.2,0.4,0.3-0.1,0.4h1.3C145.2,430.2,144.8,430.1,144.4,429.9z"/>
	<path class="st2" d="M144.4,429.9c-0.2-0.2-0.6-0.3-0.8-0.4C143.9,429.7,144.1,429.8,144.4,429.9z"/>
	<path class="st2" d="M145.8,426.7c0.4-0.1,0.2,0.9,1.1,0.8c2-0.1,3.7-0.2,5.5-0.1c0.9-0.2,2.1,1,2.9,0.8c2-0.1,7.1-1,4.1-1.2
		c-2.2-0.1-4.1-0.1-5.8-0.1h-2.7l-2.8-0.2c-3.3,0-6.4,0.1-9.8,0.1c-0.9-0.1-1.8-0.2-2.7-0.4c1.1,0.3,2.3,0.6,3.6,0.8
		C140.9,427.6,143.1,426.6,145.8,426.7z"/>
	<path class="st2" d="M121.2,426.6l1.3-0.1c1.8,0.8,3.8,1.1,5.8,1l-0.8-0.6c-1.1-0.1-1.3,0.1-0.3,0.5c-2.1-0.9-4.3-1.4-6.5-1.6
		C120.7,426.1,120.6,426.4,121.2,426.6z"/>
	<path class="st2" d="M119.3,425.7l1.3,0.1c0,0,0-0.1,0-0.1L119.3,425.7L119.3,425.7z"/>
	<path class="st2" d="M156.7,430.4l8.2,0.6l7.9,0.4c0.4-0.2,0.8-0.3,1.2-0.2c0.4,0.2,0.8,0.3,1.2,0.4l2.2,0.1l0.8,0l0,0
		c0.4-0.1,0.3-0.2,0-0.4c-0.3-0.1-0.5-0.2-0.8-0.4c0.1,0.1,0.5,0.2,0.8,0.4c0.4,0.2,0.8,0.2,1.2,0.3c0.7-0.1,1.4-0.1,2.1-0.1
		c-0.7,0.1-1.4,0.1-2.1,0.1c-0.4,0-0.9,0.1-1.3,0.1l-0.4,0.1c1.7,0.1,3.4,0.1,5.1,0.1c0.4,0,0.8-0.1,1.1-0.1
		c1.1-0.3,2.2-0.2,3.2,0.2h0.9l-0.2-0.1c0.1,0,0.2,0,0.4,0.1l3.9,0.1c0.8-0.2,1.7-0.5,2.6-0.7l0.9,0.4c0.4-0.3,0.9-0.5,1.4-0.6
		c-0.7-0.2-1.4-0.5-2-0.7c-0.9-0.4-1.9,1.1-3,0.2c1.1,0.8,2.1-0.7,3-0.2c0.6,0.2,1.2,0.4,2,0.7c1.4-0.2,2.8-0.2,4.1,0.2
		c-1.4,0.4-2.8,0.3-4.1-0.2c-0.5,0.1-1,0.3-1.4,0.6l-0.9-0.4c-0.9,0.2-1.7,0.5-2.6,0.7l7.8-0.2c4.2,0,8.4-0.4,12.5-0.8
		s8.2-1,12.3-1.5c1-0.2,2-0.3,3.1-0.5l3.1-0.6l6.2-1.2c2.1-0.4,4.1-1,6.2-1.5s4.2-0.9,6.4-1.6l6.9-1.9c2.3-0.7,4.5-1.4,6.7-2.1
		s4.4-1.5,6.6-2.3s4.3-1.5,6.4-2.5c8.2-3.4,16-7.7,23.3-12.8c7.2-5,14.1-10.5,21.5-16.4c3.5-3.1,6.6-6.6,9.4-10.3
		c2.8-3.7,5.3-7.7,7.5-11.8c1.6-4.6,0.7-6.5-0.5-6.8c-1-0.2-2,0-2.9,0.5c-2.4,1.5-4.5,3.6-6.1,6c-2.3,3.4-5,6.5-8.1,9.2
		c1.4-1.2,2-1.6,2-1.2c-0.3,1-0.8,1.9-1.5,2.6c-0.5,0.6-1.1,1.3-1.7,2.1c-0.7,0.7-1.4,1.5-2.2,2.1c-1.5,1.4-3.2,2.6-5,3.5
		c-4.9,2.2-9.4,6.1-14.4,10.1l-1.9,1.5l-1.9,1.5c-1.3,1-2.6,2-3.9,2.9c-2.6,1.8-5.4,3.4-8.3,4.8c-1.4,0.6-2.8,1.4-4.3,2.2
		s-3.1,1.5-4.7,2.3c-8.9,3.5-17.6,6.8-26.6,9.6l-6.8,1.9c-1.1,0.3-2.3,0.7-3.5,0.9l-3.5,0.8l-3.6,0.8c-1.2,0.2-2.4,0.5-3.6,0.7
		c-2.5,0.4-4.9,0.8-7.5,1.1c-0.7,0.1-1.3,0.2-2,0.3l-1.9,0.3c-1.3,0.2-2.5,0.5-3.7,0.8c-2.4,0.5-4.7,1.2-7,1.5
		c-3.3,0.4-7,0.1-9.7,0.3c-4.3,0.2-8,0.5-11.5,1l11.3-0.8c1.5-0.1,1,0.2-0.1,0.6c-1.2,0.4-2.5,0.8-3.8,1c-0.8,0.2-2.2-0.8-3-0.6
		c-1.8,0.1-3.6,0.4-5.4,0.8c-0.8,0.2-0.7-0.7-1.2-0.6c-2.7,0.2-4.7,1.3-6.4,1l-3.6-0.5c-0.7-0.1-1.5-0.1-2.2-0.1l-1.5,0.2
		c0.3,0.3,0.5,0.6,0.6,1c-0.7-0.1-1.7-0.3-2.4-0.5c0.7,0.1,1.7,0.4,2.4,0.5c-0.1-0.4-0.3-0.7-0.6-1c-3.5,0.3-7.6,0.5-11.4,0.7v0.1
		c2.2,0,4.5,0.4,6.6,1c-1-0.3-0.8-0.5,0.3-0.5l0.8,0.5c-2,0.3-3.9,0.1-5.8-0.6l-1.3,0.2c-0.6-0.2-0.6-0.5-0.7-0.7h-1.3
		C154.1,429.7,155.4,430.1,156.7,430.4z"/>
	<path class="st2" d="M179.6,431.5c-0.4,0-0.7,0.1-1.1,0.1c1.4,0.1,2.9,0.1,4.3,0.1C182,431.2,180.8,431.3,179.6,431.5z"/>
</g>
</svg>
