<?xml version="1.0" encoding="utf-8"?>
<!-- Generator: Adobe Illustrator 25.0.0, SVG Export Plug-In . SVG Version: 6.00 Build 0)  -->
<svg version="1.1" id="Layer_1" xmlns="http://www.w3.org/2000/svg" xmlns:xlink="http://www.w3.org/1999/xlink" x="0px" y="0px"
	 viewBox="0 0 841.9 841.9" style="enable-background:new 0 0 841.9 841.9;" xml:space="preserve">
<style type="text/css">
	.st0{fill:#FEECE1;}
	.st1{opacity:0.85;}
	.st2{fill:#211F1E;}
	.st3{fill:#1F2020;}
</style>
<rect y="0.3" class="st0" width="841.9" height="841.9"/>
<g class="st1">
	<path class="st2" d="M282,486.7c-0.4,0.3-0.7,0.5-1.1,0.8c0.2-0.1,0.4-0.1,0.7-0.2C281.7,487.2,281.9,487,282,486.7z"/>
	<path class="st2" d="M279.7,488.1l-0.2,0.1l-0.2,0.1C279.5,488.3,279.6,488.2,279.7,488.1z"/>
	<path class="st2" d="M277.6,489.2c0.4-0.1,0.8-0.3,1.1-0.5C278.4,488.9,278,489,277.6,489.2z"/>
	<path class="st2" d="M279.4,488.6c-0.2,0-0.3,0-0.1-0.2l0,0l-0.6,0.4C279,488.7,279.2,488.6,279.4,488.6z"/>
	<path class="st2" d="M279.4,488.6c0.2,0,0.3,0,0.5-0.1L279.4,488.6z"/>
	<path class="st2" d="M279.6,490.3c-0.2,0.2-0.4-0.3-0.8,0s-1,0.6-1.5,0.8c-0.5,0.3-1,0.5-1.6,0.6c-0.5,0.2-1.4,0-1.9,0.1
		c-1.1,0.4-4.3,1.2-2.4,1c0.7,0,1.3-0.1,1.9-0.3c0.6-0.1,1.1-0.2,1.7-0.4c0.5-0.2,1.1-0.3,1.6-0.5l1.6-0.7
		C278.8,490.8,279.2,490.5,279.6,490.3c0.5-0.3,0.9-0.6,1.3-0.9l1.2-0.9l1.1-1c0.5-0.3,0.9-0.7,1.3-1l-0.9,0.6l-1,0.6
		c-0.5,0.3-0.9,0.7-1.3,1.1C280.8,489.5,280.3,489.9,279.6,490.3z"/>
	<path class="st2" d="M288.7,479.3c-0.1,0.2-0.2,0.7-0.2,0.7c-0.8,0.8-1.4,1.8-1.9,2.8l0.5-0.3c0.4-0.5,0.3-0.7-0.1-0.3
		c1-0.9,1.7-2,2.2-3.2C289,479,288.9,479,288.7,479.3z"/>
	<path class="st2" d="M289.5,478.3l-0.3,0.7h0L289.5,478.3L289.5,478.3z"/>
	<path class="st2" d="M272.8,491c-3.1,0.5-6.2,0.2-9.1-0.9c-0.2,0.1-0.5,0-0.7-0.1c-0.2-0.2-0.4-0.3-0.6-0.4
		c-0.4-0.2-0.8-0.4-1.2-0.6l-0.4-0.2l0,0c-0.2-0.1-0.2,0-0.1,0.2c0.1,0.1,0.2,0.2,0.3,0.4c-0.1-0.1-0.2-0.2-0.3-0.4
		c-0.2-0.2-0.4-0.3-0.6-0.4c-0.4-0.2-0.7-0.4-1.1-0.6c0.4,0.2,0.7,0.4,1.1,0.6l0.7,0.3l0.2,0c-0.9-0.5-1.7-1-2.5-1.5
		c-0.2-0.1-0.4-0.2-0.5-0.3c-0.6-0.4-1.2-0.7-1.4-1.2l-0.4-0.4l0,0.1l-0.1-0.2c-0.6-0.5-1.1-1-1.6-1.6c-0.4-0.3-0.8-0.6-1.2-0.9
		c0,0-0.1-0.4-0.1-0.5c-0.3-0.1-0.5-0.3-0.7-0.5c0.1,0.4,0.3,0.8,0.4,1.1c0.1,0.6,1.1,0.5,1.2,1.3c-0.1-0.8-1.1-0.7-1.2-1.3
		c-0.1-0.3-0.3-0.7-0.4-1.1c-0.6-0.6-1-1.3-1.2-2c0.6,0.6,1,1.3,1.2,2c0.2,0.2,0.4,0.4,0.7,0.5c0,0.2,0.1,0.5,0.1,0.5
		c0.4,0.3,0.8,0.6,1.2,0.9c-0.5-0.5-1-1.1-1.4-1.7c-0.5-0.6-0.9-1.2-1.3-1.8c-2.6-3.9-4-8.4-3.9-13.1c0.3-4.7,2.5-9.1,6.1-12.2
		c1.9-1.8,4.1-3.2,6.4-4.4c2.3-1.1,4.6-1.9,7.1-2.4c2.3-0.5,4.7-0.6,7-0.4c2.2,0.2,4.3,0.8,6.2,2c3.8,2.5,6.4,6.6,7,11.1
		c0.4,2.3,0.7,4.6,0.8,6.9c0.1,2.3-0.2,4.5-0.7,6.7c0,0.6-0.1,1.1-0.1,1.5c0,0.3,0,0.7,0.1,1c0.1,0.4,0.3,0.7,0.7,0.9
		c0.5,0.1,1,0,1.5-0.4c0.3-0.3,0.6-0.6,0.9-0.9c0.2-0.3,0.5-0.7,0.6-1.1c0.2-0.4,0.4-0.8,0.5-1.2s0.3-0.8,0.3-1.3
		c0.5-2.5,0.8-5.1,0.9-7.7c-0.1,2.4-0.5,1.5-0.7-0.5s-0.8-5-1-7.3c-0.3-3.4-2.4-7.2-5.9-10.1c-1.8-1.4-3.8-2.5-6-3.2
		c-1.1-0.3-2.2-0.6-3.3-0.8c-0.5-0.1-1.1-0.1-1.6-0.2c-0.5-0.1-1.1-0.1-1.6-0.1c-1.1-0.1-2.2,0-3.2,0.1c-0.5,0.1-1.1,0.1-1.7,0.2
		l-1.8,0.4c-3.1,0.6-6,1.7-8.8,3.3c-2.7,1.5-5.2,3.5-7.3,5.8c-2.2,2.4-3.9,5.2-5,8.3c-1.1,3.3-1.3,6.7-0.8,10.1c0.6,3.2,2,6.2,4,8.8
		c0.3,0.5,0.6,0.9,0.9,1.4s0.6,0.9,0.9,1.4c0.6,0.8,1.2,1.6,1.8,2.3c1.7,1.8,3.7,3.3,5.9,4.4c-2.1-1.2-4-2.6-5.7-4.3
		c-0.7-0.7-0.3-0.5,0.3-0.1c0.3,0.2,0.7,0.5,1.1,0.7s0.7,0.5,1,0.6c0.5,0.2,0.7,1.2,1.2,1.4c0.5,0.3,0.9,0.6,1.4,0.9l1.6,0.7
		c0.5,0.2,0.2,0.6,0.5,0.6c0.7,0.3,1.4,0.5,2.2,0.6c0.6,0,1.2,0.2,1.7,0.4c0.7,0.4,1.4,0.5,2.1,0.8c0.4,0.1,0.9,0.2,1.3,0.3h0.9
		c-0.2-0.1-0.3-0.3-0.3-0.6c0.5,0.1,1,0.2,1.4,0.3c-0.5-0.1-1-0.2-1.4-0.3c0,0.2,0.2,0.4,0.3,0.6c2.3,0,4.6-0.4,6.9-1l0,0
		c-0.6,0.1-1.3,0.2-2,0.3c-0.7,0-1.3,0-2-0.1c0.6,0.1,0.5,0.2-0.1,0.3c-0.2-0.1-0.4-0.2-0.5-0.2c0.6,0,1.2-0.2,1.7-0.2
		c0.6,0,1.1,0,1.7,0l0.7-0.3c0.2,0,0.4,0.1,0.5,0.3l0.7-0.2c-0.3-0.1-0.9,0-1.4-0.1L272.8,491z"/>
	<path class="st2" d="M260.1,488.5l0.6,0.2c-0.8-0.4-1.4-0.9-2.1-1.3C258.9,488,259.5,488.3,260.1,488.5z"/>
</g>
<circle class="st3" cx="270.1" cy="470" r="7.5"/>
<g class="st1">
	<path class="st2" d="M264.8,475.8l0.4,0.3c-0.1-0.1-0.1-0.1-0.1-0.2C264.9,475.8,264.9,475.8,264.8,475.8z"/>
	<polygon class="st2" points="265.5,476.4 265.5,476.4 265.6,476.5 	"/>
	<path class="st2" d="M266.2,476.8c-0.1-0.1-0.2-0.2-0.4-0.2C266,476.7,266.1,476.7,266.2,476.8z"/>
	<path class="st2" d="M265.7,476.4C265.7,476.4,265.7,476.5,265.7,476.4L265.7,476.4l0.2,0.2C265.8,476.5,265.7,476.5,265.7,476.4z"
		/>
	<path class="st2" d="M265.7,476.4l-0.1-0.2L265.7,476.4z"/>
	<path class="st2" d="M266.3,475.8c0.1,0-0.1,0.2,0.1,0.2c0.3,0.1,0.7,0.2,1,0.3c0.1,0,0.3,0.3,0.5,0.3c0.4,0.1,1.3-0.1,0.8-0.2
		c-1.2-0.3-2.4-0.7-3.5-1.4c-0.1-0.1-0.2-0.2-0.3-0.4c0.1,0.2,0.3,0.4,0.4,0.6C265.4,475.6,265.9,475.6,266.3,475.8z"/>
	<path class="st2" d="M262.9,472.7l0.2,0.2c0,0.4,0.2,0.8,0.5,1v-0.2c-0.1-0.2-0.2-0.2-0.1,0c-0.1-0.4-0.2-0.9-0.4-1.3
		C262.9,472.6,262.9,472.6,262.9,472.7z"/>
	<path class="st2" d="M262.9,472.3c0,0.1,0.1,0.2,0.1,0.2l0,0L262.9,472.3L262.9,472.3z"/>
	<path class="st2" d="M268,477.3c1,0.3,2.1,0.4,3.1,0.2c0.1-0.1,0.1-0.1,0.2-0.1c0.1,0,0.2,0,0.2,0c0.1,0,0.3-0.1,0.4-0.1l0.1-0.1
		l0,0c0.1,0,0-0.1,0-0.1H272h0.2c0.1,0,0.2,0,0.2,0c0.1-0.1,0.3-0.1,0.4-0.2c-0.1,0.1-0.3,0.1-0.4,0.2l-0.2,0.1h-0.1
		c0.3-0.1,0.7-0.2,1-0.3l0.2-0.1c0.2-0.1,0.4-0.3,0.6-0.2l0.2-0.1l0,0h0.1c0.2-0.1,0.5-0.2,0.7-0.4l0.3-0.4h0.2
		c0-0.1,0.1-0.2,0.1-0.3l-0.4,0.1c-0.2,0-0.1,0.4-0.5,0.4c0.3,0.1,0.2-0.4,0.5-0.4l0.4-0.1c0.2-0.2,0.4-0.4,0.6-0.5
		c-0.1,0.3-0.4,0.5-0.6,0.5c-0.1,0.1-0.1,0.2-0.1,0.3h-0.2l-0.3,0.4c0.4-0.3,0.8-0.6,1.2-1c1.2-1.2,1.9-2.8,2.1-4.5
		c0.2-1.7-0.2-3.5-1.1-5c-1-1.7-2.6-3-4.4-3.7c-1.8-0.7-3.8-0.6-5.6,0.1c-1.8,0.7-3.4,1.9-4.6,3.5c-0.6,0.9-1,1.8-1.1,2.9
		c-0.2,1-0.2,2.1,0.1,3.1c0.4,1,0.8,1.1,1.1,1c0.2-0.1,0.4-0.3,0.5-0.5c0.2-0.5,0.3-1.1,0.3-1.6c0-0.8,0.2-1.5,0.5-2.2
		c-0.3,0.6-0.4,0.4-0.3-0.2c0.2-0.7,0.6-1.3,1.2-1.7c0.9-0.5,1.6-1.1,2.5-1.6c0.9-0.6,2-0.9,3-0.8c0.6,0,1.1,0.1,1.6,0.3
		c1.4,0.6,2.7,1.6,3.5,2.9c0.9,1.4,1.1,3,0.7,4.6c-0.2,0.8-0.4,1.6-0.8,2.4c-0.3,0.4-0.7,0.8-1.2,1.1c-0.5,0.4-1.1,0.8-1.6,1.1
		c0.6-0.3,1.1-0.6,1.6-1.1c0.4-0.3-0.1,0.5-0.4,0.7c-0.1,0.1-0.4,0-0.5,0.1c-0.3,0.1-0.5,0.4-0.8,0.5c-0.1,0.1-0.2-0.1-0.2-0.1
		c-0.4,0.2-0.7,0.6-1,0.5c-0.2,0-0.4,0-0.7,0H270l-0.3,0c0.1,0.1,0.1,0.2,0.1,0.3l-0.5-0.1l0.5,0.1c0-0.1-0.1-0.2-0.1-0.3
		c-0.7,0.1-1.4,0.1-2.1,0l0,0c0.4,0.1,0.8,0.3,1.2,0.5c-0.2-0.1-0.1-0.1,0.1-0.1l0.1,0.1c-0.4,0.1-0.8,0-1.1-0.3h-0.3
		c-0.1-0.1-0.1-0.1-0.1-0.2l-0.2-0.1C267.5,477,267.8,477.1,268,477.3z"/>
	<path class="st2" d="M272.4,477.2l-0.2,0.1c0.3-0.1,0.5-0.2,0.8-0.3C272.8,477,272.6,477.1,272.4,477.2z"/>
</g>
<g class="st1">
	<path class="st2" d="M402.8,371.2c0,0.9,0.1,1.9,0.1,2.8v2.8c0.1-0.9,0.2-1.9,0.3-2.8C403.3,373,403.1,372.1,402.8,371.2z"/>
	<path class="st2" d="M402.5,382c0,0.3-0.1,0.7-0.1,1s0,0.6,0,0.9L402.5,382z"/>
	<path class="st2" d="M401.5,391.7c0.2-0.8,0.3-1.7,0.5-2.5s0.2-1.6,0.3-2.4c-0.1,0.7-0.2,1.5-0.4,2.3S401.6,390.7,401.5,391.7z"/>
	<path class="st2" d="M402.8,384c-0.2,0.6-0.4,0.9-0.4-0.1l0,0c0,1-0.1,1.9-0.2,2.9C402.4,385.7,402.7,384.8,402.8,384z"/>
	<path class="st2" d="M402.8,384c0.2-0.6,0.4-1.5,0.5-1.8C403.1,382.8,403,383.4,402.8,384z"/>
	<path class="st2" d="M405.9,386.9c0,1-1,0.7-1,2.7c-0.1,1.2-0.2,2.3-0.4,3.4s-0.2,2.2-0.4,3.2s-0.3,2.1-0.5,3.2s-0.5,2.1-0.7,3.2
		c-0.2,2-2.2,4.8-2.5,6.7c-0.2,1.2-0.7,2.7-1,4.4s-0.7,3.3-1,4.6c-0.6,2.7-0.7,3.9,0.5,0.6c1.8-5,3-9.3,4-13.4
		c0.5-2.1,1-4.1,1.4-6.3s0.9-4.3,1.2-6.7c1-7.8,1.1-15.6,0.1-23.4c-0.2-2.2-0.4-4.3-0.7-6.4c0.2,1.4,0.2,2.8,0.4,4.2
		s0.2,2.9,0.1,4.5C405.3,375.4,406.5,380.4,405.9,386.9z"/>
	<path class="st2" d="M396.3,330.1c-0.1,0.6-0.1,1.3-0.1,1.9v1.1c-0.5,2.3-0.4,4.6,0.1,6.9c0.5,2.3,1.2,4.5,2.1,6.7
		c0-0.7-0.1-1.4-0.1-2.1c-0.2-0.7-0.4-1.4-0.8-2c-0.1-0.1-0.1,0.4,0.1,1.6c-0.5-2.6-0.8-5.3-1-7.9c-0.1-2.6,0.2-5.2,0.9-7.7
		C397.1,328.8,396.7,328.6,396.3,330.1z"/>
	<path class="st2" d="M398.4,325.6c-0.3,1-0.8,1.9-1,2.9c0,0,0.1-0.1,0.1-0.1c0.3-1,0.6-2,1-2.9L398.4,325.6z"/>
	<path class="st2" d="M397.2,412.1c-1,3.1-2.1,6.2-3.2,9.2c-0.6,1.5-1.2,3-1.8,4.4c-0.6,1.5-1.2,2.9-1.8,4.4
		c-1.3,2.9-2.4,5.7-3.8,8.5s-2.6,5.5-4,8.2c-0.2,0.9-0.5,1.8-1,2.6c-0.6,0.8-1.1,1.6-1.6,2.4c-0.8,1.6-1.7,3.1-2.6,4.6l-0.9,1.6v0
		c-0.4,0.9-0.1,0.7,0.3,0.3s0.8-1,1.2-1.4c-0.2,0.3-0.8,1-1.2,1.4c-0.6,0.7-1.1,1.5-1.6,2.3c-0.8,1.4-1.6,2.9-2.6,4.3
		c0.9-1.7,1.8-3.1,2.6-4.3c0.5-0.9,0.9-1.8,1.4-2.6c0.1-0.3,0.2-0.5,0.4-0.8c-1,1.7-2,3.5-3.1,5.2l-3.2,5.1c-0.5,0.8-1,1.5-1.3,2.1
		c-1.5,2.5-3,5-4.5,6.1l-1.3,1.7l0.3-0.3l-0.5,0.6c-0.9,1.2-1.8,2.4-2.8,3.6l-2.9,3.5c-0.6,0.8-1.1,1.7-1.7,2.5s-1.2,1.6-1.8,2.4
		l-1.7,1.2c-0.5,1-1.2,2-2,2.8c1.4-0.9,2.6-1.9,3.7-2.8c1.7-1.2,2.4-4,4.5-5.3c-2.2,1.3-2.8,4.1-4.5,5.3c-1.1,0.9-2.3,1.8-3.7,2.8
		c-1,1.1-2.1,2.2-3.3,3.4c-1.2,1.1-2.5,2-3.9,2.9c1.2-1.3,2.4-2.5,3.7-3.6c1.1-1,2.3-1.9,3.5-2.7c0.8-0.8,1.5-1.8,2-2.8l1.7-1.2
		c0.6-0.8,1.2-1.6,1.8-2.4s1.1-1.7,1.7-2.5c-1.9,2.3-4,4.4-6,6.6c-1,1.1-2.1,2.1-3.2,3.2s-2.1,2.2-3.3,3.1
		c-7.1,6.5-14.9,12.2-23.3,16.9c-2,1.2-4.2,2.2-6.3,3.3c-1,0.6-2.1,1-3.2,1.5s-2.2,0.9-3.3,1.4c-4.4,1.7-8.9,3.1-13.5,4.2
		c-18.3,4.5-38,3.5-57.3-2.5c-5.2-1.6-10.2-3.6-15.2-5.8c-4.8-2.2-9.5-4.7-14.1-7.5c-8.9-5.4-17.2-11.7-24.9-18.7
		c-7.4-6.8-14.3-14.1-20.5-22c-0.8-1-1.5-2-2.2-2.9s-1.5-2-2.2-3c-1.4-2-2.8-4-4.1-6.1c-2.7-4.1-5.1-8.3-7.4-12.6
		c-2.2-4.3-4.2-8.8-6-13.3c-1.7-4.6-3.2-9.2-4.3-14c-1.2-4.8-1.9-9.6-2.3-14.5c-0.4-4.9-0.4-9.8,0.1-14.7c0.2-2,0.4-4.2,0.6-6.6
		s0.4-5,0.6-7.7c0.2-5.4,0.5-11.2,0.5-17c0.1-11.7-0.5-23.3-2-31.7c-1.3-5.5-3.1-9.1-5.4-11.4c-0.3-0.3-0.5-0.5-0.8-0.7
		c-0.3-0.2-0.7-0.4-1-0.6l-0.4-0.2l-0.1,0.1l-0.3,0.1c-0.3,0.2-0.6,0.4-0.9,0.7c-0.2,0.2-0.3,0.5-0.3,0.8c0.1,0.5,0.2,1,0.4,1.4
		c0.1,0.5,0.2,1,0.3,1.4s0.1,0.7,0.1,0.8c0.1,0.4,0.2,0.8,0.2,1.2l0.1,1.2c0.1,0.8,0.1,1.6,0.2,2.3c0.1,1.5,0.1,3.1,0.3,4.6
		c0.2,3.1,0.3,6.3,0.5,10c0.4,9.8,0.1,19.6-0.9,29.3c0.4-4.4,0.7-5.8,0.9-5.2c0.3,2.4,0.4,4.8,0.3,7.2c0,1.9-0.1,4.1-0.2,6.4
		s-0.3,4.8-0.6,7.3c-0.5,4.9-1.1,10.2-1.5,14.6c-0.6,7-0.2,14,1.3,20.9c1.6,7.7,4.1,15.1,7.3,22.3c6.6,14.8,16.3,28.6,26.1,40.6
		c5.4,6.5,11.3,12.5,17.7,18c2.2,2.1,4.5,4,6.8,5.9s4.7,3.7,7.1,5.4s4.9,3.4,7.4,5c2.5,1.6,5,3.1,7.6,4.5s5.2,2.8,7.9,4.1
		s5.4,2.5,8.1,3.6s5.5,2.1,8.3,3.1s5.7,1.8,8.6,2.5c5.8,1.5,11.7,2.6,17.7,3.2c0.8,0.1,1.5,0.2,2.2,0.2l2.4,0.2
		c1.5,0.1,3,0.2,4.5,0.2l4.6,0.1l4.6-0.2c6.2-0.3,12.4-1.1,18.5-2.4c6.2-1.4,12.3-3.3,18.2-5.6c6-2.5,11.6-5.6,16.9-9.3
		c2.5-1.8,4.9-3.5,7.1-5.4c1.1-0.9,2.3-1.8,3.3-2.8l3.2-2.9c6-5.1,11.7-10.6,17-16.5c6.1-7.1,11.4-14.9,15.9-23.1
		c-4.6,7.9-9.8,15.4-15.6,22.5c-1.1,1.4-1.6,1.8-1.6,1.5c0.4-0.8,0.8-1.5,1.3-2.2c1.5-2.4,3.9-5.8,5.1-7.8c1-1.8,3.8-3.6,4.8-5.5
		c1.2-1.8,2.3-3.6,3.4-5.5l3.1-5.9c0.9-1.8,1.6-1.1,2-2.1c1.3-2.5,2.5-5.2,3.5-7.8c0.7-2.2,1.7-4.2,2.8-6.2c1.5-2.7,2.8-5.2,4.1-7.5
		c0.4-0.8,0.8-1.5,1.2-2.3s0.7-1.6,1-2.4l1.1-3.3c-0.4,0.5-0.9,0.8-1.5,1c0.7-1.5,1.9-3.6,2.5-5.1c-0.7,1.5-1.8,3.6-2.5,5.1
		c0.6-0.2,1.2-0.5,1.5-1c3.1-8.5,5.7-17.1,7.9-25.9l-0.1,0.1c-1.3,5.1-3.2,10-5.5,14.7c1-2.1,1.2-1.8,0.3,0.8l-1.2,1.7
		c1.5-4.4,2.7-8.9,4.8-12.9c0,0,0.1-0.5,0.2-1.1s0.2-1.4,0.3-1.8c0.5-1.4,0.8-1.2,1.1-1.5c0.3-1,0.6-2,0.8-3c-0.5,1-1.4,3.1-2.2,4.9
		c-0.4,0.9-0.8,1.8-1,2.4L397.2,412.1z"/>
	<path class="st2" d="M375.1,460.7l1.2-2.2c-1.6,2.9-3.5,5.7-5.3,8.6C372.6,465.1,374,463,375.1,460.7z"/>
</g>
<g class="st1">
	<path class="st2" d="M559.2,486.7c0.4,0.3,0.8,0.6,1.2,0.8c-0.2-0.1-0.4-0.3-0.5-0.5C559.6,486.8,559.4,486.7,559.2,486.7z"/>
	<path class="st2" d="M561.5,488.3l0.2,0.1l0.2,0C561.8,488.4,561.6,488.3,561.5,488.3z"/>
	<path class="st2" d="M563.8,489.2c-0.4-0.2-0.8-0.4-1.2-0.5C563,488.9,563.4,489.1,563.8,489.2z"/>
	<path class="st2" d="M562,488.3c0.1,0.1,0.1,0.2-0.1,0.2l0,0l0.7,0.3C562.4,488.6,562.2,488.5,562,488.3z"/>
	<path class="st2" d="M562,488.3c-0.1-0.1-0.2-0.2-0.3-0.4C561.8,488.1,561.9,488.2,562,488.3z"/>
	<path class="st2" d="M563.3,487c0.2,0,0,0.5,0.5,0.6c0.5,0.2,1,0.3,1.5,0.4l1.5,0.3c0.5,0,1,0.7,1.5,0.7c1.1,0.1,3.9-0.4,2.3-0.5
		c-0.6,0-1.1,0-1.7-0.1c-0.5,0-1-0.1-1.5-0.2c-0.5-0.1-1-0.2-1.4-0.3l-1.5-0.5C564.2,487.2,563.7,487.1,563.3,487
		c-0.5-0.2-0.9-0.3-1.3-0.5l-1.2-0.5l-1.2-0.7c-0.4-0.3-0.8-0.6-1.1-1l0.7,0.7l0.8,0.7c0.4,0.4,0.9,0.6,1.5,0.7
		C562,486.6,562.7,486.8,563.3,487z"/>
	<path class="st2" d="M552.6,478.5l0.5,0.6c0.3,1.1,0.9,2.1,1.8,2.9l-0.1-0.5c-0.4-0.5-0.6-0.5-0.3,0c-0.5-1.3-1.1-2.4-1.7-3.5
		C552.5,478,552.5,478.3,552.6,478.5z"/>
	<path class="st2" d="M552.3,477.3l0.4,0.7l0,0L552.3,477.3L552.3,477.3z"/>
	<path class="st2" d="M569,490.1c3.1,0.4,6.3,0.2,9.3-0.8c0.2-0.2,0.4-0.3,0.6-0.3c0.2,0,0.5,0,0.7-0.1c0.4-0.2,0.8-0.3,1.2-0.5
		c0.1-0.1,0.3-0.2,0.4-0.2l0,0c0.2-0.2,0.1-0.2-0.1-0.2c-0.2,0-0.3,0-0.5,0c0.1,0,0.3,0,0.5,0c0.2,0,0.5-0.1,0.7-0.2
		c0.3-0.3,0.7-0.5,1.1-0.7c-0.3,0.3-0.7,0.5-1.1,0.7l-0.6,0.4l-0.2,0.1c0.9-0.4,1.8-0.9,2.7-1.4c0.2-0.1,0.3-0.3,0.5-0.4
		c0.4-0.5,1-0.8,1.6-1.1l0.4-0.4h-0.1l0.2-0.1c0.6-0.5,1.2-1,1.7-1.5l0.8-1.3l0.5-0.2c0.1-0.3,0.2-0.6,0.4-0.8
		c-0.4,0.2-0.7,0.4-1,0.6c-0.5,0.2-0.4,1.2-1.2,1.3c0.7-0.1,0.7-1,1.2-1.3c0.3-0.2,0.6-0.4,1-0.6c0.4-0.7,1-1.3,1.6-1.8
		c-0.3,0.8-0.9,1.4-1.6,1.8c-0.2,0.2-0.3,0.5-0.4,0.8l-0.5,0.2l-0.8,1.3c0.6-0.5,1.1-1.1,1.6-1.6c0.5-0.6,1-1.2,1.5-1.8
		c3-4,4.7-8.9,4.7-13.9c-0.3-5.2-2.5-10.1-6.3-13.6c-2-2-4.2-3.8-6.6-5.2c-2.4-1.4-4.9-2.5-7.6-3.3c-2.6-0.8-5.4-1.2-8.1-1
		c-2.8,0.2-5.5,1-8,2.3c-2.4,1.4-4.5,3.3-6.2,5.6c-1.7,2.3-3.1,4.8-4.2,7.4c-1,2.7-1.5,5.5-1.5,8.4c0,2.8,0.3,5.7,1.2,8.4
		c0.2,0.6,0.5,1.1,0.9,1.6c0.2,0.3,0.5,0.6,0.8,0.9c0.3,0.3,0.7,0.4,1.1,0.2c0.4-0.3,0.7-0.8,0.8-1.3c0.1-0.4,0.1-0.8,0.1-1.3
		c0-0.4,0-0.8,0-1.2c0-0.4,0-0.8-0.1-1.2c0-0.4-0.1-0.8-0.1-1.2c-0.3-2.3-0.2-4.7,0.4-7c-0.4,2-0.7,1.3-0.6-0.5
		c0.2-2.2,0.9-4.4,2.2-6.2c1.8-2.3,3.5-5,6-7.1c1.2-1.1,2.6-1.9,4.1-2.5c0.8-0.3,1.6-0.5,2.4-0.6c0.4-0.1,0.8-0.1,1.2-0.1
		c0.4,0,0.8,0,1.2,0c0.8,0.1,1.7,0.1,2.5,0.2c0.5,0.1,0.9,0.1,1.4,0.2l1.4,0.3c2.5,0.8,4.8,1.8,7.1,3.1c2.2,1.2,4.2,2.8,6,4.6
		c1.7,1.7,3.1,3.8,4,6.1c0.9,2.4,1.1,4.9,0.6,7.4c-0.3,2.6-1,5.1-2.1,7.5c-0.2,0.4-0.4,0.8-0.7,1.2c-0.3,0.4-0.5,0.8-0.8,1.1
		c-0.6,0.7-1.2,1.3-1.7,1.8c-1.4,1.5-2.9,3-4.6,4.3c1.7-1.2,3.2-2.5,4.5-4.1c0.5-0.6,0.5-0.3,0.2,0.3c-0.2,0.3-0.4,0.6-0.6,1
		c-0.2,0.3-0.4,0.6-0.7,0.8c-0.3,0.4-1.2,0.5-1.5,0.8c-0.4,0.3-0.8,0.6-1.1,1c-0.4,0.3-0.8,0.6-1.2,1s-0.5-0.1-0.7,0
		c-0.6,0.4-1.1,0.8-1.6,1.2c-0.4,0.3-0.9,0.6-1.4,0.7c-0.7,0.1-1.3,0.3-2,0.3c-0.4,0.1-0.8,0.1-1.2,0.2l-0.8,0.2
		c0.2,0.1,0.3,0.3,0.4,0.5c-0.5,0-0.9,0-1.4,0c0.5,0,0.9,0,1.4,0c-0.1-0.2-0.2-0.4-0.4-0.5c-2.1,0.5-4.2,0.7-6.4,0.5v0
		c0.6,0.1,1.2,0.2,1.9,0.3s1.3,0.2,1.9,0.4c-0.6-0.1-0.5-0.3,0.2-0.3c0.2,0.1,0.3,0.2,0.5,0.2c-0.6,0.1-1.1,0.1-1.7,0.1
		c-0.6,0-1.1-0.1-1.6-0.4l-0.8,0c-0.3-0.1-0.3-0.3-0.3-0.4l-0.7-0.1c0.4,0.3,0.8,0.5,1.2,0.6L569,490.1z"/>
	<path class="st2" d="M582,487.7c-0.2,0.1-0.4,0.2-0.5,0.3c0.8-0.3,1.5-0.8,2.2-1.2C583.1,487,582.5,487.3,582,487.7z"/>
</g>
<circle class="st3" cx="571.8" cy="468.9" r="7.5"/>
<g class="st1">
	<path class="st2" d="M576.7,474.2l-0.3,0.3c0.1,0,0.1-0.1,0.2-0.1C576.7,474.3,576.7,474.2,576.7,474.2z"/>
	<polygon class="st2" points="576,474.7 575.9,474.7 575.9,474.8 	"/>
	<path class="st2" d="M575.4,475.2c0.1-0.1,0.2-0.1,0.3-0.2C575.6,475,575.5,475.1,575.4,475.2z"/>
	<path class="st2" d="M575.9,474.9C575.9,474.9,575.8,474.9,575.9,474.9L575.9,474.9l-0.2,0.1C575.8,474.9,575.9,474.9,575.9,474.9z
		"/>
	<path class="st2" d="M575.9,474.9h0.2H575.9z"/>
	<path class="st2" d="M576.2,475.7c-0.1,0.1-0.2-0.1-0.3,0c-0.3,0.3-0.6,0.5-0.9,0.7c-0.2,0.1-0.5,0-0.7,0.1
		c-0.3,0.2-1.4,0.7-0.7,0.6c0.8-0.2,1.6-0.5,2.2-1c0.5-0.4,1-0.9,1.5-1.4c0.1-0.1,0.3-0.3,0.4-0.4c-0.2,0.1-0.4,0.3-0.6,0.5
		S576.7,475.3,576.2,475.7z"/>
	<path class="st2" d="M578.7,471.5c0,0.1,0,0.2,0,0.2c-0.3,0.3-0.4,0.6-0.5,1l0.2-0.1c0.1-0.2,0-0.2-0.1-0.1
		c0.3-0.3,0.5-0.7,0.7-1.1C578.8,471.4,578.8,471.4,578.7,471.5z"/>
	<path class="st2" d="M579,471.2c0,0.1,0,0.2-0.1,0.2l0,0C578.9,471.3,578.9,471.2,579,471.2L579,471.2z"/>
	<path class="st2" d="M573.9,476c-1,0.3-2,0.4-3.1,0.2c-0.1,0-0.2,0.1-0.2,0c-0.1-0.1-0.1-0.1-0.2-0.1c-0.1,0-0.3-0.1-0.4-0.1h-0.2
		l0,0c-0.1,0-0.1,0,0,0.1l0.1,0.1c0,0-0.1-0.1-0.1-0.1c-0.1-0.1-0.1-0.1-0.2-0.1c-0.1,0-0.3-0.1-0.4-0.1c0.1,0,0.3,0.1,0.4,0.1h0.2
		h0.1c-0.3-0.1-0.6-0.2-0.9-0.4c-0.1,0-0.1,0-0.2-0.1c-0.2-0.1-0.5-0.2-0.5-0.3l-0.1-0.1l0,0l0,0c-0.2-0.1-0.4-0.3-0.6-0.4
		c-0.2-0.1-0.3-0.1-0.5-0.2c0,0,0-0.1,0-0.2c-0.1,0-0.2,0-0.3-0.1c0,0.1,0.1,0.3,0.1,0.4c0,0.2,0.5,0,0.5,0.4c0-0.3-0.4-0.1-0.5-0.4
		c-0.1-0.1-0.1-0.3-0.1-0.4c-0.2-0.2-0.4-0.4-0.5-0.7c0.2,0.2,0.4,0.4,0.5,0.7c0.1,0.1,0.2,0.1,0.3,0.1c0,0.1,0,0.2,0,0.2
		c0.2,0.1,0.3,0.1,0.5,0.2c-0.4-0.3-0.7-0.6-1-1c-1-1.2-1.6-2.7-1.7-4.2c-0.1-1.6,0.3-3.1,1.2-4.4c0.9-1.4,2.4-2.3,4-2.7
		c1.5-0.3,3-0.2,4.4,0.4c1.4,0.5,2.4,1.7,2.9,3.1c0.3,0.6,0.4,1.3,0.6,2c0.1,0.7,0.1,1.3,0,2c0.1,0.7,0.3,1,0.6,1.1
		c0.2,0.1,0.5,0,0.7-0.1c0.5-0.4,0.8-0.9,0.8-1.6c0.1-0.9,0.1-1.8,0-2.7c0,0.9-0.2,0.6-0.4-0.1s-0.6-1.6-0.8-2.5
		c-0.4-1.3-1.4-2.4-2.7-3c-1.4-0.6-2.9-1-4.4-1c-0.8,0-1.6,0.1-2.4,0.3c-2.3,0.5-4.2,2-5.3,4.1c-1.1,2.1-1.4,4.5-0.8,6.8
		c0.3,1.1,1,2.1,1.8,2.9c0.4,0.6,0.9,1.1,1.5,1.6c0.7,0.5,1.5,0.9,2.3,1.1c-0.8-0.2-1.6-0.6-2.3-1.1c-0.5-0.4,0.5,0.1,0.9,0.2
		c0.2,0,0.3,0.4,0.5,0.5c0.4,0.2,0.8,0.3,1.2,0.3c0.2,0,0.1,0.2,0.2,0.2c0.6,0.1,1.1-0.1,1.4,0s0.5,0.1,0.8,0.2c0.2,0,0.3,0,0.5,0
		l0.3-0.1c-0.1-0.1-0.1-0.2-0.2-0.2c0.2,0,0.3,0,0.5,0c-0.2,0-0.3,0-0.5,0c0,0.1,0.1,0.2,0.2,0.2c0.8-0.2,1.5-0.5,2.2-0.8l0,0
		c-0.4,0.2-0.9,0.3-1.3,0.2c0.2,0,0.2,0.1,0,0.1l-0.2-0.1c0.4-0.2,0.7-0.2,1.1-0.2l0.2-0.2c0.1,0,0.2,0.1,0.2,0.1l0.2-0.1
		C574.5,476,574.2,476,573.9,476z"/>
	<path class="st2" d="M569.5,476h0.2c-0.3-0.1-0.5-0.2-0.8-0.3C569.1,475.9,569.3,475.9,569.5,476z"/>
</g>
<g class="st1">
	<path class="st2" d="M436.5,370c0,1-0.1,1.9-0.1,2.9v2.9c0.1-1,0.2-1.9,0.3-2.9C436.8,371.9,436.7,370.9,436.5,370z"/>
	<path class="st2" d="M436.5,381.1c0,0.3,0.1,0.7,0.1,1l0.2,0.9C436.7,382.3,436.6,381.7,436.5,381.1z"/>
	<path class="st2" d="M438,391l-0.8-5c0.1,0.7,0.1,1.5,0.3,2.3S437.8,390,438,391z"/>
	<path class="st2" d="M437.2,383c-0.1,0.6-0.2,1-0.4-0.1l0,0c0.1,1,0.3,2,0.5,3C437.1,385,437.1,384,437.2,383z"/>
	<path class="st2" d="M437.2,383c0.1-0.6,0.1-1.5,0.2-1.9C437.3,381.7,437.2,382.4,437.2,383z"/>
	<path class="st2" d="M440.8,385.1c0.2,1-0.8,0.9-0.3,2.8c0.2,1.1,0.5,2.2,0.8,3.2s0.5,2,0.8,3s0.6,2,0.8,3s0.6,2,0.9,3
		c0.6,1.8,0.5,5.1,1.3,6.9c0.4,1.1,1,2.6,1.7,4.1s1.4,3,2,4.2c1.2,2.4,1.9,3.4,0.7,0.2c-1.8-4.8-3.2-8.9-4.4-12.8
		c-0.6-2-1.1-3.9-1.7-6s-1-4.1-1.4-6.4c-1.8-7.2-2.6-14.7-2.5-22.1c0.1-2.1,0.4-4.1,0.9-6.1c-0.3,1.3-0.5,2.6-0.8,4
		s-0.4,2.8-0.5,4.3C438.6,374.3,439.9,379.1,440.8,385.1z"/>
	<path class="st2" d="M444.2,329.3c0.2,0.6,0.4,1.1,0.5,1.7l0.2,1.1c-0.5,4.5-1.3,8.9-2.4,13.2l1.1-1.8c0.3-0.7,0.4-1.4,0.4-2.1
		c-0.1-0.1-0.3,0.3-0.7,1.4c1-2.4,1.7-5,2.1-7.6c0.3-2.6,0-5.2-0.8-7.7C444.2,327.9,444,327.9,444.2,329.3z"/>
	<path class="st2" d="M443.3,324.6c0.4,0.9,0.8,1.9,1.1,2.8c0,0,0-0.1,0-0.1c-0.3-1-0.7-1.9-1.2-2.8L443.3,324.6z"/>
	<path class="st2" d="M444.1,411.2c1,3.1,2.1,6.2,3.2,9.2c0.6,1.5,1.2,3,1.8,4.5s1.2,2.9,1.8,4.4c1.3,2.9,2.4,5.8,3.7,8.5
		s2.5,5.6,3.9,8.3c0.7,0.7,1.2,1.5,1.6,2.4c0.3,0.9,0.6,1.8,1,2.7c0.8,1.6,1.6,3.1,2.5,4.7c0.3,0.5,0.7,1,1,1.6l0,0
		c0.6,0.8,0.6,0.5,0.4-0.1s-0.5-1.2-0.6-1.8c0.1,0.3,0.4,1.2,0.6,1.8c0.3,0.9,0.7,1.8,1.2,2.6c0.9,1.4,1.8,2.8,2.7,4.3
		c-1-1.4-1.9-2.8-2.7-4.3l-1.6-2.5c-0.2-0.2-0.3-0.5-0.5-0.7c1,1.8,1.9,3.6,3,5.3l3.1,5.2c0.5,0.8,1,1.5,1.5,2.1
		c1.6,2,3,4.1,4.2,6.4l1.3,1.8l-0.2-0.4c0.2,0.3,0.3,0.5,0.4,0.7c0.9,1.2,1.8,2.5,2.7,3.7l2.9,3.6c0.7,0.7,1.4,1.4,2.1,2.1
		s1.5,1.4,2.2,2.1c0,0,0.7,1.2,1,1.9c0.9,0.7,1.9,1.4,2.7,2.2c-1-1.4-1.7-2.7-2.5-3.9c-1-1.8-3.8-2.7-4.6-5.2
		c0.8,2.5,3.6,3.4,4.6,5.2c0.8,1.2,1.5,2.5,2.5,3.9c1.2,1.1,2.3,2.2,3.4,3.4c1.1,1.2,2.3,2.5,3.2,3.7c-1.4-1-2.7-2.2-3.9-3.5
		c-1-1.1-1.9-2.3-2.7-3.6c-0.8-0.8-1.7-1.5-2.7-2.1c-0.3-0.6-1-1.9-1-1.9c-0.7-0.7-1.5-1.4-2.2-2.1s-1.4-1.4-2.1-2.1
		c1.8,2.4,3.9,4.6,5.9,6.9c1,1.2,2.1,2.2,3.1,3.3s2.1,2.2,3.2,3.3c7.1,6.9,14.9,12.9,23.4,17.9c2.1,1.3,4.3,2.3,6.4,3.5
		c1.1,0.6,2.2,1,3.3,1.5s2.2,1,3.3,1.5c4.5,1.8,9.1,3.3,13.9,4.5c19,4.9,39.3,4,59.4-1.7c5.4-1.6,10.7-3.4,15.8-5.6
		c5.1-2.2,10-4.6,14.8-7.2c9.5-5.2,18.4-11.3,26.7-18.2c8.1-6.7,15.5-14.1,22.1-22.3c0.8-1,1.6-2,2.4-3s1.6-2,2.3-3.1
		c1.5-2.1,3-4.2,4.4-6.3c2.9-4.2,5.5-8.7,7.9-13.2s4.6-9.2,6.6-14c2-4.8,3.7-9.8,5.2-14.8c1.5-5.1,2.7-10.3,3.5-15.6
		c0.9-5.4,1.4-10.9,1.4-16.4c0-0.5,0-1.1,0-1.6s0-1.1,0-1.6c0-1.1,0-2.2,0-3.5c0-2.4-0.1-4.9-0.2-7.6c-0.1-5.3-0.3-11-0.3-16.6
		c-0.1-11.3,0.2-22.5,1.4-29.6c0.4-4.8,0.9-7.4,0.8-8.3c0-0.1,0-0.3-0.1-0.3c-0.1,0-0.1-0.1-0.2-0.1l-0.1-0.1v-0.1
		c0-0.1,0-0.2,0-0.3c0-0.3-0.1-0.6-0.3-0.9c-0.2-0.3-0.5-0.5-0.8-0.6c-0.4-0.1-0.8-0.1-1.1,0c-0.4,0.2-0.7,0.3-1.1,0.6
		c-0.2,0.2-0.4,0.3-0.6,0.5c-0.3,0.3-0.6,0.6-0.8,1l-0.7,1c-0.4,0.7-0.8,1.4-1.1,2.2c-0.7,1.5-1.2,3-1.6,4.6c-0.4,1.6-0.7,3.2-1,4.9
		s-0.5,3.5-0.7,5.3c-0.7,7.5-0.9,16.6-1.6,29.8c0.1-4.5,0.5-5.9,0.7-5.3c0.4,2.4,0.6,4.8,0.7,7.2c0.1,1.9,0.2,4.1,0.2,6.4
		s0.1,4.8,0.2,7.3c0.2,4.7-0.1,9.4-0.9,14c-1.2,5.8-2.5,12.1-4.4,18.7c-1.9,6.9-4.2,13.7-7,20.3c-5.8,13.9-13.9,26.8-24,38
		c-5.3,5.9-10.9,11.5-16.8,16.7c-2.1,1.8-4.4,3.5-6.6,5.2s-4.5,3.3-6.8,4.8s-4.6,3-6.9,4.5s-4.7,2.8-7.1,4.1s-4.8,2.5-7.3,3.8
		s-4.9,2.3-7.5,3.3s-5.1,2-7.6,2.9s-5.2,1.7-7.8,2.4c-5.2,1.5-10.6,2.6-16,3.2c-0.7,0.1-1.3,0.2-2,0.3l-2,0.2
		c-1.4,0.1-2.7,0.3-4.1,0.3l-4.1,0.2l-4.1-0.1c-5.6-0.2-11.1-0.9-16.6-2c-5.6-1.2-11.1-2.9-16.3-5.1c-5.4-2.2-10.7-4.8-15.8-7.6
		c-2.4-1.4-4.8-2.7-7-4.3c-1.1-0.8-2.3-1.4-3.4-2.2l-3.2-2.4c-6-4.9-11.5-11.2-15.6-15.9c-5.9-6.8-11.4-13.9-16.6-21.2
		c4.8,7.3,10,14.3,15.8,20.8c1.1,1.3,1.5,1.7,1.2,1.7c-0.7-0.4-1.4-1-1.9-1.6c-2.2-2-4.3-4.2-6.2-6.4c-1.3-1.5-2.4-4.5-3.6-6
		c-1.2-1.8-2.4-3.4-3.7-5l-3.8-5.2c-1.2-1.5-0.3-1.9-0.8-2.6c-1.6-2.6-3.3-4.9-4.8-6.9c-1.3-1.8-2.4-3.7-3.4-5.8
		c-1.3-2.8-2.2-5.3-3.3-7.8l-2.1-4.7l-1.6-3c0.1,0.6,0,1.3-0.3,1.8c-0.6-1.5-1.4-3.8-1.9-5.3c0.6,1.5,1.3,3.8,1.9,5.3
		c0.3-0.6,0.4-1.2,0.3-1.8c-4.1-7.9-7.6-16.1-10.5-24.5c0,0,0,0.1,0,0.1c1.5,5,3.1,9.7,4.4,15c-0.6-2.3-0.3-2.1,0.7,0.4l0.3,2.1
		c-2.1-4.1-3.6-8.4-4.5-12.9l-0.5-1l-0.7-1.7c-0.3-1.5,0-1.5,0.2-1.8c-0.3-1-0.6-1.9-0.9-2.9c0.2,1.8,0.4,3.5,0.8,5.3
		c0.2,1,0.4,1.9,0.5,2.5S444.1,411.2,444.1,411.2z"/>
	<path class="st2" d="M466.2,459.9c-0.4-0.6-0.8-1.4-1.3-2.1c1.6,3,3.4,5.8,5.1,8.7C469.5,464.7,467.9,462.4,466.2,459.9z"/>
</g>
</svg>
