<?xml version="1.0" encoding="utf-8"?>
<!-- Generator: Adobe Illustrator 25.0.0, SVG Export Plug-In . SVG Version: 6.00 Build 0)  -->
<svg version="1.1" id="Layer_1" xmlns="http://www.w3.org/2000/svg" xmlns:xlink="http://www.w3.org/1999/xlink" x="0px" y="0px"
	 viewBox="0 0 841.9 841.9" style="enable-background:new 0 0 841.9 841.9;" xml:space="preserve">
<style type="text/css">
	.st0{fill:#F9DEC9;}
	.st1{opacity:0.85;}
	.st2{fill:#090A0A;}
	.st3{fill:#211F1E;}
	.st4{fill:#1F2020;}
</style>
<rect y="-0.1" class="st0" width="841.9" height="841.9"/>
<g class="st1">
	<path class="st2" d="M387.8,383c-0.6,1-1.2,2.1-1.8,3.2c0.4-0.5,0.7-1,1.2-1.5C387.5,384.2,387.7,383.6,387.8,383z"/>
	<path class="st2" d="M384.3,389.1l-0.3,0.6c-0.1,0.2-0.1,0.4-0.2,0.5C384,389.8,384.2,389.5,384.3,389.1z"/>
	<path class="st2" d="M381.5,394.8c0.6-0.9,1.1-1.9,1.5-2.9C382.5,392.9,382,393.8,381.5,394.8z"/>
	<path class="st2" d="M384.1,390.5c-0.3,0.3-0.5,0.4-0.3-0.2l0,0L383,392C383.4,391.4,383.7,390.9,384.1,390.5z"/>
	<path class="st2" d="M384.1,390.5c0.3-0.3,0.7-0.7,0.9-0.9C384.7,389.9,384.4,390.2,384.1,390.5z"/>
	<path class="st2" d="M386.4,393.5c-0.2,0.6-1,0-1.4,1.2c-1.2,2.7-2,5.2-3.3,7.6c-0.4,1.2-2.3,2.5-2.7,3.7c-1.2,2.7-3.7,10-1.6,6.1
		c3.1-6,4.9-10,7.7-15.4c2-4.5,3.8-8.9,5.9-13.4c0.6-1.3,1.3-2.4,2-3.5c-0.9,1.5-1.9,2.9-3,4.6C388.5,386.5,388.1,389.8,386.4,393.5
		z"/>
	<path class="st2" d="M401,359.7l-0.6,1.8c-2,2.1-3.1,4.9-4.3,7.6l1-0.9c0.8-1.5,0.6-1.8-0.3-0.6c2-2.7,3.8-5.5,5.3-8.6
		C401.9,359.1,401.6,358.9,401,359.7z"/>
	<path class="st2" d="M403,357.3l-0.9,1.8h0.1C402.6,358.5,402.8,357.9,403,357.3L403,357.3z"/>
	<path class="st2" d="M375.9,407c-4,7.4-7.8,14.4-11.6,21.1c0,0.6-0.2,1.2-0.6,1.7c-0.4,0.4-0.8,0.9-1.2,1.4c-0.5,1-1.1,2-1.7,3
		c-0.2,0.4-0.3,0.7-0.5,1.1l0,0c-0.2,0.6,0,0.5,0.3,0.2c0.3-0.3,0.6-0.6,0.9-0.9c-0.2,0.2-0.6,0.6-0.9,0.9c-0.4,0.5-0.8,1-1.1,1.5
		c-0.4,1-1,1.9-1.5,2.8c0.4-1,1-1.9,1.5-2.8l0.8-1.7c0.1-0.2,0.1-0.4,0.2-0.5c-1.3,2.3-2.5,4.5-3.9,6.7c-0.3,0.5-0.5,1-0.8,1.4
		c-0.9,1.6-1.8,3.3-2.8,3.9l-0.8,1.1l0.2-0.2c-0.1,0.1-0.3,0.3-0.4,0.4c-1.1,1.6-2.4,3-3.6,4.5c-0.6,1.1-1.4,2.2-2.1,3.2
		c0,0-0.8,0.4-1.2,0.6c-0.3,0.7-0.7,1.3-1.2,1.9c0.9-0.5,1.9-1,2.6-1.5c1.2-0.7,1.3-2.8,2.9-3.4c-1.7,0.6-1.7,2.7-2.9,3.4
		c-0.7,0.5-1.7,1-2.6,1.5c-1.3,1.6-3,2.8-4.8,3.8c1.3-1.6,3-2.9,4.8-3.8c0.5-0.6,0.9-1.2,1.2-1.9c0.4-0.2,1.2-0.6,1.2-0.6
		c0.8-1.1,1.5-2.1,2.1-3.2c-2.5,2.9-5.3,5.5-8.2,8c-9.3,7.9-20.1,13.8-31.9,17.1c-5.8,1.7-11.8,2.7-17.9,3c-6.3,0.4-12.5,0-18.7-1.1
		c-6.7-1.3-13.2-3.4-19.3-6.3c-3-1.4-5.9-3.1-8.6-4.9c-2.7-1.7-5.5-3.8-8.2-5.7c-21.9-15.4-43.1-27.5-64.5-44.2
		c-8.3-6.2-24.7-16.2-33.2-21.5c-12.1-5.9-8.5,1.3-8.1,1.9c5,7.4,11.5,9.3,24.5,20.1c-9-7.2,8.3,2.7,16.1,10.5
		c11.1,11.5,31.5,21.1,47.2,32.3c3.9,2.8,8.3,5.4,13.1,8.6c3.1,2.1,6,4.2,9.4,6.4c1.7,1,3.4,2,5.1,2.9l2.6,1.3l1.3,0.6l1.4,0.6
		c7.2,3.1,14.8,5.1,22.6,6l2.9,0.3l2.9,0.2c2,0.2,3.9,0.1,5.9,0.1c4-0.1,7.9-0.4,11.8-0.9c8.1-1.2,16-3.3,23.5-6.5
		c7.3-3.3,14-7.9,19.8-13.4c4.1-3.5,8.6-7.1,11.4-10.5c4.1-4.6,7.4-9.9,10-15.5c-1.5,2.8-2.9,5.1-4.4,7.5c-0.8,1.2-1.6,2.4-2.5,3.6
		s-1.9,2.5-3,3.9c-1.6,1.8-1.2,1-0.3-0.6c0.5-0.8,1-1.8,1.6-2.7s1.1-1.9,1.5-2.5c0.6-1.2,2.7-2.2,3.2-3.5c0.8-1.2,1.5-2.4,2-3.7
		c0.6-1.3,1.1-2.6,1.8-4c0.4-1.2,1.2-0.6,1.4-1.2c1.7-3.7,2.1-7,3.6-9.1c1.1-1.6,2-3.1,3-4.6c0.6-0.9,1.1-1.9,1.6-2.9
		c0.3-0.7,0.5-1.4,0.8-2c-0.4,0.3-0.9,0.4-1.4,0.4c0.5-0.9,1.5-2.1,2-3c-0.5,0.9-1.5,2.1-2,3c0.5,0,0.9-0.1,1.3-0.4
		c2-4.9,4.5-10.6,6.9-15.8h-0.1c-1.5,3-3.2,5.9-5.3,8.6c0.9-1.2,1-0.9,0.3,0.6l-1,0.9c1-2.8,2.5-5.3,4.3-7.6c0,0,0.4-1.2,0.6-1.8
		c0.6-0.8,0.8-0.6,1.1-0.6c0.3-0.6,0.6-1.2,0.9-1.8C378.3,403.9,377.1,405.4,375.9,407z"/>
	<path class="st2" d="M359.6,437.2l0.7-1.5l-1.6,2.8l-1.7,2.8C358.1,440.1,359,438.7,359.6,437.2z"/>
</g>
<g class="st1">
	<path class="st3" d="M289.5,473.1c0.2,0.2,0.5,0.4,0.8,0.5c-0.1-0.1-0.3-0.2-0.3-0.3C289.8,473.2,289.6,473.2,289.5,473.1z"/>
	<path class="st3" d="M291.2,473.9h0.2h0.2H291.2z"/>
	<path class="st3" d="M292.7,474.1c-0.2-0.1-0.5-0.1-0.7-0.1C292.2,474.1,292.5,474.1,292.7,474.1z"/>
	<path class="st3" d="M291.6,473.8c0.1,0.1,0.1,0.2-0.1,0.2l0,0l0.5,0C291.9,473.9,291.7,473.9,291.6,473.8z"/>
	<path class="st3" d="M291.6,473.8c-0.1-0.1-0.2-0.2-0.2-0.2C291.4,473.6,291.5,473.7,291.6,473.8z"/>
	<path class="st3" d="M292.4,472.2c0.1,0,0,0.4,0.3,0.4c0.7,0,1.3,0,2,0.1c0.3,0,0.6,0.6,0.9,0.6c0.8,0.1,2.4-0.2,1.5-0.4
		c-0.6-0.1-1.3-0.3-1.9-0.4s-1.2-0.2-1.9-0.4L292.4,472.2l-0.6,0h-0.6c-0.2,0-0.4-0.1-0.6-0.3c-0.1-0.2-0.1-0.5,0-0.7
		c-0.1,0.3-0.1,0.7,0,1c0.1,0.2,0.5,0.2,0.8,0.1C291.7,472.3,292,472.2,292.4,472.2z"/>
	<path class="st3" d="M288.7,466.7l0.2,0.4c-0.1,0.7-0.1,1.4,0.2,2l0.2-0.3c-0.1-0.4-0.2-0.4-0.3-0.1c0.2-0.8,0.1-1.6-0.1-2.3
		C288.9,466.5,288.7,466.5,288.7,466.7z"/>
	<path class="st3" d="M288.9,466c0,0.1,0.1,0.3,0.1,0.4l0,0L288.9,466L288.9,466z"/>
	<path class="st3" d="M295.8,474.5c1.8,0.5,3.6,0.8,5.5,0.8c0.1-0.1,0.2-0.2,0.4-0.2c0.1,0.1,0.3,0.1,0.4,0.1c0.3,0,0.5,0,0.8-0.1
		l0.3-0.1l0,0c0.1-0.1,0.1-0.1,0-0.2c-0.1,0-0.2-0.1-0.3-0.1c0.1,0,0.2,0.1,0.3,0.1c0.1,0,0.3,0.1,0.4,0.1l0.7-0.2
		c-0.2,0.1-0.5,0.2-0.7,0.2l-0.4,0.1l-0.1,0.1c0.6-0.1,1.2-0.1,1.8-0.3l0.4-0.1c0.4-0.1,0.8-0.4,1.1-0.2l0.3-0.1h-0.1h0.1
		c0.4-0.1,0.9-0.3,1.3-0.5c0.2-0.2,0.5-0.4,0.7-0.6l0.4,0.1c0.1-0.2,0.2-0.3,0.3-0.5c-0.3,0-0.5,0-0.8,0s-0.4,0.7-0.9,0.5
		c0.5,0.2,0.5-0.5,0.9-0.5s0.5,0,0.8,0c0.4-0.3,0.8-0.5,1.3-0.6c-0.3,0.4-0.8,0.7-1.3,0.6c-0.1,0.1-0.3,0.3-0.3,0.5l-0.4-0.1
		c-0.2,0.2-0.5,0.4-0.7,0.6c0.8-0.4,1.7-0.8,2.5-1.2c2.5-1.6,4.6-3.8,6-6.4l0.5-1c0.2-0.3,0.3-0.7,0.4-1c0.3-0.7,0.5-1.4,0.7-2.2
		c0.1-0.4,0.2-0.8,0.2-1.2l0.1-0.6v-0.6v-0.6c0-0.2-0.1-0.4-0.1-0.7c0-0.2-0.1-0.5-0.2-0.7l-0.3-0.6c-0.2-0.5-0.6-0.9-0.9-1.2
		c-0.4-0.3-0.8-0.6-1.2-0.9c-0.8-0.4-1.6-0.8-2.4-1.1c-1.6-0.5-3.2-0.9-4.7-1.3s-3-0.7-4.4-1l-1-0.2l-1.2-0.2
		c-0.8-0.1-1.6-0.2-2.4-0.3c-1.7-0.1-3.4,0-5.1,0.4c-1.9,0.4-3.7,1.3-5.3,2.4c-1.6,1.3-2.7,3.2-3.1,5.2c-0.4,1.8-0.5,3.7-0.2,5.6
		c0.7,1.7,1.5,2,2.1,1.8c0.4-0.2,0.8-0.4,1.1-0.8c0.6-0.9,0.9-1.8,0.9-2.9c0-1.3,0.4-2.6,1.2-3.6c-0.3,0.4-0.5,0.6-0.6,0.5
		c-0.1-0.3-0.1-0.7,0.1-0.9c0.1-0.3,0.2-0.5,0.4-0.7c0.2-0.2,0.4-0.5,0.6-0.7c0.2-0.2,0.5-0.4,0.8-0.5c0.3-0.1,0.6-0.2,0.9-0.2
		c0.8-0.1,1.6-0.2,2.3-0.3c0.4,0,0.8-0.1,1.2-0.2s0.9-0.1,1.3-0.2c1-0.1,1.9-0.1,2.9,0c0.5,0.1,1,0.1,1.5,0.2s1.1,0.3,1.7,0.4
		c1.1,0.3,2.3,0.4,3.6,0.6c1.6,0.4,3.2,0.7,4.5,1.1c0.3,0.1,0.6,0.2,0.9,0.3s0.5,0.2,0.6,0.3l0.2,0.1c0,0,0.1,0.1,0.1,0.1
		c0.1,0.1,0.1,0.2,0.2,0.2c0.3,1,0.2,2-0.1,3c-0.4,1.4-1,2.8-1.9,4c-0.8,1.3-1.6,2.5-2.5,3.7c-0.8,0.6-1.6,1.1-2.6,1.4
		c-0.3,0.1-0.6,0.3-0.8,0.4l-0.8,0.4c-0.5,0.3-1,0.5-1.5,0.7c0.5-0.2,1.1-0.4,1.6-0.6l0.8-0.4l0.8-0.5c0.8-0.4-0.3,0.8-0.8,1.2
		c-0.2,0.2-0.8-0.2-1,0c-0.5,0.2-1.1,0.5-1.6,0.8c-0.2,0.1-0.3-0.3-0.4-0.3c-0.4,0.1-0.7,0.3-1.1,0.5c-0.3,0.2-0.6,0.3-0.9,0.2
		c-0.4,0-0.8-0.1-1.2-0.2c-0.2,0-0.5-0.1-0.7-0.1c-0.2,0-0.3,0.1-0.5,0.1c0.1,0.2,0.1,0.4,0.1,0.5c-0.2-0.1-0.5-0.2-0.8-0.3
		c0.2,0.1,0.5,0.2,0.8,0.3c0-0.2-0.1-0.4-0.1-0.5c-1.3,0.1-2.6,0.1-3.8-0.1v0c0.8,0.2,1.5,0.5,2.1,0.9c-0.3-0.2-0.2-0.3,0.1-0.2
		l0.2,0.3c-0.7,0.1-1.4-0.1-1.9-0.6h-0.5c-0.2-0.1-0.1-0.3-0.1-0.4l-0.4-0.1C295,474,295.4,474.3,295.8,474.5z"/>
	<path class="st3" d="M303.6,475l-0.4,0.1l0.7-0.1l0.7-0.2C304.5,474.7,304.1,474.9,303.6,475z"/>
</g>
<path class="st4" d="M299.3,471.1c2.9,1.6,6.6,0.5,8.1-2.4c0,0,0,0,0,0c1.6-2.9-0.3-4.4-3.2-6s-5.8-2.7-7.4,0.3
	C295.3,465.8,296.4,469.5,299.3,471.1C299.3,471.1,299.3,471.1,299.3,471.1z"/>
<g class="st1">
	<path class="st3" d="M297.5,469c-0.1-0.1-0.1-0.2-0.2-0.3c0,0.1,0,0.1,0,0.2C297.3,469,297.4,469,297.5,469z"/>
	<polygon class="st3" points="297.2,468.4 297.1,468.4 297.1,468.3 	"/>
	<path class="st3" d="M296.9,467.9c0,0.1,0.1,0.2,0.1,0.3C297,468.1,296.9,468,296.9,467.9z"/>
	<path class="st3" d="M297,468.4C297,468.3,297,468.3,297,468.4L297,468.4l0-0.1C297,468.3,297,468.3,297,468.4z"/>
	<path class="st3" d="M297,468.4c0,0,0,0.1,0,0.1V468.4z"/>
	<path class="st3" d="M296.2,468.6c-0.1,0,0.2-0.1,0.1-0.2c-0.2-0.2-0.3-0.5-0.5-0.8c-0.1-0.1,0.1-0.4,0-0.5
		c-0.1-0.3-0.5-1.1-0.5-0.6c0.1,0.6,0.3,1.2,0.6,1.8c0.3,0.4,0.6,0.8,1,1.2c0.1,0.1,0.2,0.2,0.2,0.4l-0.2-0.5
		C296.9,469.1,296.4,469,296.2,468.6z"/>
	<path class="st3" d="M299.2,470.8H299c-0.1-0.2-0.4-0.4-0.6-0.5v0.2c0.1,0.1,0.2,0,0.1-0.1c0.2,0.3,0.4,0.5,0.7,0.7
		C299.2,470.9,299.2,470.9,299.2,470.8z"/>
	<path class="st3" d="M299.3,471.1l-0.2-0.1l0,0L299.3,471.1L299.3,471.1z"/>
	<path class="st3" d="M296.3,466.8c-0.1-0.8-0.1-1.5,0.1-2.3c0-0.1-0.1-0.1,0-0.2c0.1,0,0.1-0.1,0.1-0.1c0-0.1,0.1-0.2,0.1-0.3v-0.1
		l0,0c0-0.1,0-0.1-0.1,0l-0.1,0.1l0.1-0.1c0,0,0.1-0.1,0.1-0.1c0-0.1,0.1-0.2,0.1-0.3c0,0.1-0.1,0.2-0.1,0.3v0.2v0.1
		c0.1-0.2,0.2-0.4,0.3-0.7c0,0,0-0.1,0-0.1c0.1-0.2,0.1-0.3,0.3-0.4l0.1-0.1l0,0l0,0c0.1-0.1,0.2-0.3,0.4-0.4
		c0.1-0.1,0.1-0.2,0.2-0.3c0.1,0,0.1,0,0.2,0c0-0.1,0-0.2,0.1-0.2c-0.1,0-0.2,0-0.4,0c-0.2,0,0,0.4-0.3,0.3c0.3,0.1,0.1-0.3,0.3-0.3
		c0.1,0,0.2,0,0.4,0c0.1-0.1,0.4-0.2,0.5-0.1c-0.1,0.2-0.4,0.1-0.5,0.1c-0.1,0.1-0.1,0.1-0.1,0.2c-0.1,0-0.1,0-0.2,0
		c-0.1,0.1-0.1,0.2-0.2,0.3c0.3-0.2,0.6-0.4,0.9-0.5c1.1-0.3,2.2-0.1,3.2,0.4c1.1,0.5,2.1,1,3.1,1.7c1.1,0.7,2.1,1.6,2.2,2.5
		c0,0.5-0.1,0.9-0.2,1.3c-0.2,0.5-0.5,0.9-0.8,1.3c-0.6,0.8-1.6,1.3-2.7,1.3c-0.4,0-0.9,0.1-1.5,0c-0.5,0-0.9-0.1-1.4-0.2
		c-0.4,0-0.8,0.2-1,0.5c-0.1,0.2-0.1,0.4-0.1,0.6c0.1,0.5,0.5,0.9,1,1c0.7,0.2,1.3,0.4,2,0.5c-0.6-0.1-0.4-0.3,0.1-0.3
		c0.7-0.1,1.3-0.1,2-0.1c1.1,0,2.2-0.4,2.9-1.3c0.4-0.4,0.7-0.9,1-1.5c0.3-0.5,0.5-1.1,0.8-1.6c0.2-0.7,0.3-1.5,0.1-2.2
		c-0.2-1-0.7-1.9-1.5-2.5c-0.6-0.5-1.3-1-2-1.3c-1.4-0.8-2.8-1.4-4.3-1.9c-1.5-0.2-3.1,0.2-4.4,1c-0.5,0.5-0.9,1.1-1.1,1.8
		c0.2-0.6,0.6-1.2,1-1.7c0.4-0.4-0.1,0.5-0.2,0.8c0,0.1-0.4,0.2-0.4,0.3c-0.1,0.3-0.2,0.6-0.3,0.9c0,0.1-0.2,0-0.2,0.1
		c-0.1,0.4,0.1,0.8,0,1.1c-0.1,0.2-0.2,0.4-0.2,0.5c0,0.1-0.1,0.2-0.1,0.4l0,0.2c0.1-0.1,0.2-0.1,0.2-0.1c0,0.1-0.1,0.3-0.1,0.4
		c0-0.1,0.1-0.3,0.1-0.4c-0.1,0-0.2,0-0.2,0.1c0.1,0.6,0.3,1.2,0.5,1.7l0,0c-0.1-0.3-0.1-0.7,0-1c0,0.1-0.1,0.1-0.1,0l0.1-0.1
		c0.1,0.3,0.1,0.6,0.1,0.9c0,0.1,0.1,0.1,0.1,0.2c0,0.1-0.1,0.1-0.1,0.1l0.1,0.2c0.1-0.1,0.1-0.2,0.1-0.4
		C296.3,466.9,296.3,466.8,296.3,466.8z"/>
	<path class="st3" d="M296.7,463.6v0.1c0.1-0.2,0.2-0.4,0.3-0.5C296.8,463.2,296.7,463.4,296.7,463.6z"/>
</g>
<g class="st1">
	<path class="st2" d="M451.9,384.5l1.7,3.2c-0.2-0.6-0.4-1.2-0.6-1.8C452.8,385.4,452.4,384.8,451.9,384.5z"/>
	<path class="st2" d="M455.2,390.7l0.3,0.6l0.3,0.5L455.2,390.7z"/>
	<path class="st2" d="M458.4,396.2c-0.5-1-1-1.9-1.6-2.8C457.3,394.4,457.8,395.3,458.4,396.2z"/>
	<path class="st2" d="M456.2,391.6c0.1,0.4,0,0.6-0.4,0.1l0,0c0.3,0.5,0.7,1.1,1,1.6C456.6,392.8,456.4,392.2,456.2,391.6z"/>
	<path class="st2" d="M456.2,391.6c-0.1-0.4-0.2-1-0.3-1.2C456,390.8,456.1,391.2,456.2,391.6z"/>
	<path class="st2" d="M460,391.4c0.4,0.5-0.5,0.8,0.3,1.9c1.7,2.5,3.3,4.5,4.6,7c0.8,1,0.8,3.3,1.6,4.3c1.7,2.5,6.5,8.6,4.2,4.7
		c-3.4-5.9-5.7-9.7-8.7-14.9c-2.7-4.2-5.4-8.1-8.1-12.4c-0.7-1.2-1.3-2.4-1.9-3.6c0.7,1.6,1.4,3.2,2.2,5
		C455.2,385.8,457.8,388,460,391.4z"/>
	<path class="st2" d="M439.5,360.4l1.2,1.5c0.9,2.8,2.3,5.5,4.1,7.8c-0.1-0.5-0.1-0.9-0.2-1.4c-0.9-1.5-1.2-1.5-0.6-0.1
		c-1.1-3.2-2.6-6.3-4.3-9.2C439.5,359.4,439.2,359.5,439.5,360.4z"/>
	<path class="st2" d="M438.6,357.4c0.3,0.6,0.7,1.1,1,1.7c0,0,0-0.1,0-0.1L438.6,357.4L438.6,357.4z"/>
	<path class="st2" d="M465.6,407.7c4.1,7.5,7.9,14.5,11.5,21.4c0.5,0.4,0.9,0.9,1.1,1.5c0.1,0.6,0.3,1.2,0.6,1.8l1.6,3l0.6,1l0,0
		c0.4,0.5,0.4,0.3,0.4-0.1c-0.1-0.4-0.2-0.8-0.3-1.2c0,0.2,0.2,0.8,0.3,1.2c0.2,0.6,0.4,1.2,0.6,1.7c0.5,0.9,1.1,1.8,1.6,2.8
		c-0.6-0.9-1.2-1.8-1.6-2.8l-1-1.6l-0.3-0.4l1.8,3.5l1.9,3.4c0.3,0.5,0.6,0.9,1,1.3c1.1,1.2,2,2.7,2.7,4.2l0.8,1.1
		c0-0.1-0.1-0.2-0.1-0.3c0.1,0.2,0.2,0.3,0.2,0.5l0.9,1.2l1,1.1l1.9,2.3c1,0.8,2.1,1.6,3.1,2.5c0,0,0.4,0.9,0.6,1.3
		c0.7,0.3,1.4,0.7,2,1.1c-0.6-0.9-1.1-1.8-1.6-2.6c-0.6-1.3-2.8-1.4-3.2-3.2c0.4,1.8,2.6,1.9,3.2,3.2c0.5,0.8,1,1.6,1.6,2.6
		c1.6,1.3,3.1,2.8,4.4,4.4c-1.8-1.1-3.4-2.6-4.4-4.4c-0.6-0.5-1.2-0.9-2-1.1c-0.2-0.4-0.6-1.3-0.6-1.3c-1-0.9-2.1-1.6-3.1-2.5
		c2.6,3,5.4,5.7,8.4,8.3c9.7,8.2,20.9,14.5,33,18.4c12.3,4.1,25.3,6,38.2,5.6c7.2-0.2,14.4-1.2,21.5-2.9c6.9-1.7,13.6-4.4,19.8-7.8
		c0.8-0.4,1.6-0.9,2.3-1.3l2.1-1.4l4.1-2.9l8-5.7l15.7-11.5c10.5-7.6,21-15.1,32.7-22.2c8.9-5.5,24.2-17.5,32.3-23.6
		c9.9-9.3,1.8-8.5,1.2-8.3c-8.8,2.1-12.8,7.6-27.6,16c9.9-5.9-5.5,6.9-15.6,11.4c-14.8,6.4-31.1,22.1-47.2,32.9
		c-2,1.4-4,2.8-6.1,4.4l-3.2,2.4c-0.5,0.4-1.1,0.8-1.7,1.2l-1.6,1c-0.8,0.4-1.4,0.8-2.2,1.2l-2.3,1.1l-1.2,0.6l-1.2,0.5l-2.4,1
		c-1.6,0.6-3.2,1.2-4.8,1.7s-3.2,1-4.9,1.4c-20.7,5.3-42.6,3.6-62.3-4.9c-7.3-3.1-13.8-5.9-19.5-9.5c-3.8-2.8-7.3-6-10.4-9.5
		c-3.9-4-7.4-8.3-10.6-12.9l1.1,1.8c0.4,0.6,0.8,1.1,1.2,1.6c0.8,1,1.5,2.1,2.3,3.1c1.6,2,3.4,4,5.6,6.3c1.5,1.5,0.8,1.2-0.6,0.2
		c-0.8-0.6-1.6-1.2-2.3-1.8c-0.7-0.6-1.4-1.2-2-1.9c-0.9-0.9-1.3-3-2.1-3.9c-0.7-1.1-1.5-2.1-2.4-3.1c-0.8-1-1.6-2.1-2.4-3.3
		c-0.8-1,0.1-1.4-0.3-1.9c-2.1-3.5-4.7-5.6-5.7-8.1l-2.2-5c-0.5-1-1-2-1.5-3l-1.3-1.8c0,0.5-0.1,1-0.4,1.4c-0.5-1-1-2.4-1.5-3.4
		c0.5,1,1,2.4,1.5,3.4c0.3-0.4,0.4-0.9,0.4-1.4c-3-4.4-6.4-9.6-9.5-14.5c0,0,0,0.1,0,0.1c1.7,2.9,3.2,6,4.3,9.2
		c-0.5-1.4-0.2-1.4,0.7,0.1c0.1,0.5,0.1,0.9,0.2,1.4c-1.8-2.4-3.1-5-4.1-7.8l-1.2-1.5c-0.3-0.9,0-1,0.1-1.3c-0.3-0.6-0.7-1.1-1-1.7
		C464.4,404,465,405.9,465.6,407.7z"/>
	<path class="st2" d="M482.1,438.1l-0.8-1.4c0.5,1,1,1.9,1.5,2.9l1.6,2.9C484.2,441.2,483.1,439.7,482.1,438.1z"/>
</g>
<g class="st1">
	<path class="st3" d="M554.2,465.8c-0.2,0.1-0.4,0.2-0.6,0.3c0.1,0,0.3,0,0.5,0C554.2,466,554.2,465.9,554.2,465.8z"/>
	<path class="st3" d="M553,466.1h-0.1l-0.1,0.1L553,466.1z"/>
	<path class="st3" d="M551.7,466.5c0.3,0,0.5-0.1,0.7-0.2C552.2,466.4,551.9,466.4,551.7,466.5z"/>
	<path class="st3" d="M552.8,466.4c-0.1,0-0.2-0.1-0.1-0.2l0,0l-0.3,0.1C552.6,466.3,552.7,466.4,552.8,466.4z"/>
	<path class="st3" d="M552.8,466.4c0.1,0,0.2,0.1,0.3,0.1C553,466.5,552.9,466.4,552.8,466.4z"/>
	<path class="st3" d="M552.9,468.1c-0.1,0.1-0.2-0.4-0.5-0.2c-0.5,0.3-1.1,0.6-1.7,0.8c-0.2,0.2-0.8-0.2-1.1,0
		c-0.5,0.3-2.3,1.4-1.2,1.1c0.7-0.2,1.3-0.4,2-0.7c0.6-0.2,1.1-0.4,1.7-0.6L552.9,468.1c0.4-0.1,0.8-0.2,1.1-0.4
		c0.3-0.1,0.6-0.3,0.9-0.5c0.3-0.2,0.5-0.4,0.7-0.8c0.1-0.3,0.2-0.7,0.3-1.1c-0.1,0.5-0.3,0.9-0.6,1.3c-0.3,0.2-0.5,0.4-0.9,0.7
		C553.9,467.7,553.4,468,552.9,468.1z"/>
	<path class="st3" d="M555.3,460.1c0,0.1,0.1,0.5,0.1,0.5c-0.4,0.6-0.5,1.3-0.4,2l0.3-0.3c0-0.4-0.1-0.5-0.2-0.1
		c0.4-0.7,0.6-1.5,0.7-2.2C555.5,460,555.4,460,555.3,460.1z"/>
	<path class="st3" d="M555.7,459.5v0.5l0,0C555.7,459.8,555.7,459.7,555.7,459.5L555.7,459.5z"/>
	<path class="st3" d="M548.8,467.8c-1.7,0.5-3.6,0.8-5.4,0.7c-0.1,0.1-0.2,0.2-0.4,0.1c-0.1-0.1-0.3-0.2-0.4-0.2
		c-0.3,0-0.5-0.1-0.8-0.1h-0.3c-0.2,0-0.1,0.1,0,0.2l0.2,0.2c0,0-0.2-0.1-0.2-0.2c-0.1-0.1-0.3-0.2-0.4-0.2c-0.2,0-0.5,0-0.7-0.1
		c0.2,0,0.5,0.1,0.7,0.1h0.4h0.1c-0.6-0.1-1.1-0.2-1.7-0.4h-0.4c-0.4,0-0.8-0.1-1-0.4l-0.3-0.1v0.1l-0.1-0.1
		c-0.4-0.2-0.8-0.4-1.2-0.6c-0.3,0-0.6-0.1-0.9-0.1c0,0-0.1-0.2-0.1-0.4c-0.2,0.1-0.4,0.1-0.5,0c0.1,0.2,0.2,0.5,0.4,0.7
		c0.2,0.4,0.8-0.1,0.9,0.4c-0.1-0.6-0.8,0-0.9-0.4c-0.1-0.2-0.3-0.5-0.4-0.7c-0.5-0.2-0.8-0.5-1-1c0.5,0.2,0.8,0.5,1,1
		c0.2,0.1,0.4,0.1,0.5,0c0,0.1,0.1,0.4,0.1,0.4c0.3,0.1,0.6,0.1,0.9,0.1c-0.8-0.4-1.5-0.9-2.2-1.4c-2.2-1.6-3.9-3.8-5.1-6.2
		l-0.4-0.9c-0.1-0.3-0.2-0.6-0.3-1c-0.2-0.6-0.4-1.3-0.5-1.9c-0.3-1.2-0.2-2.4,0.4-3.5c0.6-1,2-1.5,3.4-1.8c1.5-0.3,3-0.4,4.5-0.5
		c1.5-0.1,3.1-0.3,4.6-0.5l1.1-0.2l1-0.1c0.7-0.1,1.3-0.2,2-0.2c1.3,0,2.5,0.2,3.7,0.6c1.1,0.4,1.9,1.2,2.5,2.1
		c0.5,0.8,1,1.8,1.2,2.8c0.3,1.1,0.4,2.3,0.3,3.4c0.2,1.3,0.8,1.8,1.5,1.9c0.5,0.1,0.9,0,1.3-0.3c0.9-0.7,1.5-1.7,1.5-2.8
		c0.1-1.7,0-3.3-0.3-4.9c0.2,0.8,0,1-0.1,1s-0.3-0.5-0.6-1c-0.2-0.3-0.3-0.6-0.5-1s-0.4-0.7-0.6-1.1s-0.5-0.7-0.7-1.1
		s-0.5-0.7-0.7-1.1c-0.7-1.1-1.7-1.9-2.8-2.5c-0.6-0.3-1.3-0.5-1.9-0.6c-0.7-0.1-1.3-0.2-2-0.2c-1.3,0-2.7,0.1-4,0.3l-1.9,0.3
		c-0.5,0.1-1.1,0.2-1.6,0.2c-1.1,0.1-2.2,0.3-3.5,0.5c-1.8,0.1-3.6,0.4-5.4,0.9c-0.5,0.2-1,0.3-1.5,0.5c-0.5,0.2-1.1,0.5-1.6,0.9
		c-0.3,0.2-0.5,0.4-0.8,0.6s-0.5,0.5-0.8,0.8c-0.5,0.6-0.9,1.2-1.2,1.9c-0.1,0.3-0.2,0.7-0.3,1c-0.1,0.3-0.2,0.7-0.2,1v0.9v0.5
		l0.1,0.4c0.1,0.5,0.1,1.1,0.3,1.6l0.4,1.5c0.7,1.9,1.6,3.8,2.7,5.5c1.2,1.6,2.8,2.9,4.5,3.8c1,0.8,2,1.5,3.1,2.2
		c0.4,0.2,0.8,0.4,1.1,0.5s0.8,0.2,1.1,0.3c0.7,0.2,1.4,0.3,2.1,0.3c-0.7-0.1-1.4-0.3-2.1-0.5l-1-0.3c-0.3-0.1-0.7-0.3-1.1-0.5
		c-1-0.5,1-0.2,1.7,0c0.3,0,0.6,0.7,1,0.7c0.7,0.2,1.4,0.2,2.1,0.2c0.3,0,0.2,0.4,0.4,0.4c0.5,0,0.9-0.1,1.4-0.2
		c0.3-0.1,0.7-0.2,1.1-0.1c0.4,0.1,0.9,0.2,1.3,0.2c0.3,0,0.6,0,0.8,0l0.5-0.2c-0.1-0.1-0.2-0.3-0.3-0.5c0.3,0,0.6,0,0.9,0
		c-0.3,0-0.6,0-0.9,0c0.1,0.2,0.2,0.3,0.3,0.5c1.3-0.5,2.6-1,3.8-1.6l0,0c-0.7,0.3-1.5,0.4-2.3,0.3c0.4,0,0.4,0.2,0,0.3l-0.3-0.2
		c0.6-0.4,1.3-0.5,2-0.4l0.4-0.3c0.2,0,0.3,0.1,0.3,0.3l0.4-0.2C550,467.9,549.4,467.8,548.8,467.8z"/>
	<path class="st3" d="M541.1,468.3h0.4l-0.7-0.1l-0.7-0.2C540.3,468.2,540.7,468.3,541.1,468.3z"/>
</g>
<path class="st4" d="M545.4,464.6c-2.9,1.6-6.6,0.5-8.1-2.4c0,0,0,0,0,0c-1.6-2.9,0.3-4.4,3.2-6s5.8-2.7,7.4,0.3
	C549.4,459.4,548.3,463,545.4,464.6C545.4,464.6,545.4,464.6,545.4,464.6z"/>
<g class="st1">
	<path class="st3" d="M547.8,462.9c0.1-0.1,0.1-0.2,0.2-0.3c0,0-0.1,0.1-0.2,0.1C547.8,462.8,547.8,462.8,547.8,462.9z"/>
	<path class="st3" d="M548.2,462.3L548.2,462.3v-0.1V462.3z"/>
	<path class="st3" d="M548.4,461.7c0,0.1-0.1,0.2-0.1,0.3C548.3,461.9,548.4,461.8,548.4,461.7z"/>
	<path class="st3" d="M548.1,462.1C548.1,462.1,548.2,462.1,548.1,462.1L548.1,462.1l0.1-0.1C548.2,462.1,548.2,462.1,548.1,462.1z"
		/>
	<path class="st3" d="M548.1,462.1l-0.1,0.1L548.1,462.1z"/>
	<path class="st3" d="M547.4,461.6c0-0.1,0.2,0,0.2-0.1c0-0.3,0-0.5,0.1-0.8c0-0.1,0.3-0.2,0.2-0.3c0-0.3-0.3-1-0.3-0.6
		c0,0.5-0.1,1-0.2,1.4c-0.1,0.4-0.2,0.9-0.4,1.3c-0.1,0.1-0.1,0.2-0.2,0.3l0.4-0.3C547.4,462.4,547.3,462,547.4,461.6z"/>
	<path class="st3" d="M545.7,464.6l0.1-0.2c0.3,0,0.6-0.2,0.7-0.5h-0.2c-0.1,0.1-0.1,0.2,0.1,0.1c-0.3,0.1-0.6,0.2-0.9,0.4
		C545.6,464.6,545.6,464.7,545.7,464.6z"/>
	<path class="st3" d="M545.4,464.7l0.2-0.1l0,0L545.4,464.7L545.4,464.7z"/>
	<path class="st3" d="M548.5,460.4c0.1-0.8,0.1-1.6,0-2.4c-0.1,0-0.1-0.1-0.1-0.1c0-0.1,0-0.1,0-0.2c0-0.1-0.1-0.2-0.1-0.3l-0.1-0.1
		l0,0c0,0-0.1,0-0.1,0c0,0,0,0.1,0,0.1c0,0,0-0.1,0-0.1c0-0.1,0-0.1,0-0.2c-0.1-0.1-0.1-0.2-0.1-0.3c0.1,0.1,0.1,0.2,0.1,0.3
		l0.1,0.2l0,0c-0.1-0.2-0.2-0.5-0.3-0.7l-0.1-0.1c-0.1-0.1-0.2-0.3-0.2-0.4l-0.1-0.1l0,0c-0.1-0.2-0.2-0.3-0.4-0.5l-0.4-0.2
		c0-0.1,0-0.1,0-0.2c-0.1,0-0.2,0-0.2,0l0.1,0.3c0,0.2,0.4,0,0.3,0.3c0-0.3-0.3-0.1-0.3-0.3l-0.1-0.3c-0.2-0.1-0.4-0.2-0.5-0.4
		c0.2,0,0.4,0.2,0.5,0.4c0.1,0,0.2,0,0.2,0c0,0.1,0,0.1,0,0.2l0.4,0.2c-0.3-0.3-0.6-0.6-1-0.7c-1.2-0.5-2.6-0.4-3.8,0.1
		c-1.2,0.5-2.3,1-3.4,1.6c-0.6,0.3-1.2,0.7-1.8,1.1c-0.6,0.5-1.1,1.1-1.4,1.9c-0.2,0.8-0.2,1.6,0.1,2.4c0.2,0.7,0.6,1.3,1,1.9
		c0.9,1.2,2.1,2.2,3.5,2.8c0.7,0.3,1.6,0.4,2.4,0.4c0.8,0,1.6-0.2,2.3-0.5c0.7-0.5,0.6-0.9,0.5-1.2c-0.1-0.2-0.3-0.3-0.5-0.5
		c-0.4-0.2-0.8-0.2-1.3-0.1c-0.5,0.1-1.1,0.1-1.6-0.1c0.5,0.2,0.3,0.3-0.1,0.3c-0.5,0-1.1-0.2-1.4-0.7c-0.4-0.6-0.9-1.1-1.5-1.5
		c-0.3-0.2-0.5-0.5-0.8-0.8c-0.2-0.3-0.4-0.6-0.4-1c-0.1-0.3-0.1-0.5,0-0.8c0.6-0.8,1.4-1.5,2.3-2c1.1-0.8,2.3-1.3,3.6-1.8
		c0.5-0.2,1-0.3,1.5-0.4c0.3,0.1,0.6,0.2,0.7,0.5c0.3,0.3,0.6,0.6,0.9,0.9c-0.2-0.4-0.5-0.7-0.8-1c-0.2-0.2,0.4-0.1,0.6,0.1
		s0,0.3,0.1,0.4c0.1,0.2,0.3,0.4,0.5,0.5c0.1,0.1-0.1,0.2-0.1,0.2c0.2,0.3,0.5,0.5,0.5,0.7c0,0.2,0,0.3,0,0.5c0,0.1,0,0.2,0,0.3
		l0.1,0.2c0.1-0.1,0.2-0.1,0.2-0.1c0,0.1-0.1,0.2-0.1,0.3c0-0.1,0.1-0.2,0.1-0.3c-0.1,0-0.2,0-0.2,0.1c0.2,0.5,0.3,1,0.2,1.6l0,0
		c0-0.3,0.1-0.6,0.3-0.9c-0.1,0.1-0.1,0.1-0.1,0l0.1-0.1c0.1,0.3,0.1,0.6-0.1,0.8c0,0.1,0,0.1,0,0.2c0,0.1-0.1,0.1-0.2,0.1v0.2
		c0.1-0.1,0.2-0.2,0.3-0.3C548.4,460.5,548.5,460.4,548.5,460.4z"/>
	<path class="st3" d="M548.2,457c0,0.1,0,0.1,0.1,0.1c-0.1-0.2-0.1-0.4-0.2-0.6C548,456.8,548.1,456.9,548.2,457z"/>
</g>
</svg>
