<?xml version="1.0" encoding="utf-8"?>
<!-- Generator: Adobe Illustrator 25.0.0, SVG Export Plug-In . SVG Version: 6.00 Build 0)  -->
<svg version="1.1" id="Layer_1" xmlns="http://www.w3.org/2000/svg" xmlns:xlink="http://www.w3.org/1999/xlink" x="0px" y="0px"
	 viewBox="0 0 841.9 841.9" style="enable-background:new 0 0 841.9 841.9;" xml:space="preserve">
<style type="text/css">
	.st0{fill:#F3D8C7;}
	.st1{opacity:0.85;}
	.st2{fill:#211F1E;}
	.st3{fill:#1F2020;}
</style>
<rect x="0" class="st0" width="841.9" height="841.9"/>
<g class="st1">
	<path class="st2" d="M272.2,498l-0.8,0.5c0.2-0.1,0.3-0.1,0.5-0.1C272.1,498.3,272.1,498.2,272.2,498z"/>
	<path class="st2" d="M270.7,499l-0.1,0.1l-0.1,0.1L270.7,499z"/>
	<path class="st2" d="M269.3,499.9c0.3-0.1,0.5-0.2,0.8-0.4C269.8,499.6,269.5,499.7,269.3,499.9z"/>
	<path class="st2" d="M270.5,499.4c-0.1,0-0.2,0-0.1-0.2l0,0l-0.4,0.3C270.2,499.4,270.4,499.4,270.5,499.4z"/>
	<path class="st2" d="M270.5,499.4c0.1,0,0.3,0,0.4,0C270.8,499.3,270.6,499.3,270.5,499.4z"/>
	<path class="st2" d="M271,501.1c-0.1,0.1-0.3-0.3-0.6-0.1l-1,0.7c-0.3,0.2-0.7,0.4-1.1,0.5c-0.3,0.2-1-0.1-1.4,0s-0.5,0.2-0.8,0.4
		s-0.6,0.3-0.8,0.4c-0.5,0.2-0.7,0.4,0,0.3c1.7-0.3,3.3-0.9,4.8-1.7c1.2-0.8,2.3-1.7,3.3-2.7c0.3-0.3,0.6-0.5,0.9-0.7
		c-0.4,0.3-0.8,0.6-1.3,0.8c-0.4,0.2-0.7,0.5-0.9,0.9C271.8,500.4,271.4,500.7,271,501.1z"/>
	<path class="st2" d="M276.8,492.8c0,0.2-0.1,0.5-0.1,0.5c-0.3,0.2-0.6,0.5-0.8,0.9c-0.2,0.3-0.4,0.7-0.5,1.1l0.4-0.1
		c0.2-0.4,0.1-0.5-0.1-0.2c0.7-0.6,1.3-1.3,1.6-2.2C277.1,492.6,277,492.6,276.8,492.8z"/>
	<path class="st2" d="M277.5,492.1c-0.1,0.2-0.1,0.3-0.2,0.5l0,0C277.3,492.5,277.4,492.3,277.5,492.1L277.5,492.1z"/>
	<path class="st2" d="M266,501.4c-2.1,0.4-4.3,0.4-6.4-0.1c-0.2,0-0.3,0.1-0.5,0c-0.1-0.1-0.3-0.2-0.4-0.3c-0.3-0.1-0.6-0.2-0.9-0.3
		l-0.3-0.1l0,0c-0.2,0-0.2,0.1-0.1,0.2c0.1,0.1,0.2,0.2,0.2,0.3c0-0.1-0.2-0.2-0.2-0.3c-0.1-0.1-0.3-0.2-0.4-0.3
		c-0.3-0.1-0.5-0.2-0.8-0.4c0.3,0.1,0.5,0.2,0.8,0.4l0.5,0.1h0.1c-0.6-0.3-1.2-0.6-1.8-0.9c-0.1,0-0.3-0.1-0.4-0.2
		c-0.4-0.2-0.9-0.4-1-0.8l-0.3-0.2v0.1l-0.1-0.1c-0.4-0.3-0.8-0.6-1.1-1c-0.3-0.2-0.6-0.3-0.9-0.5l-0.1-0.4c-0.2,0-0.4-0.1-0.6-0.3
		c0.1,0.3,0.1,0.6,0.2,0.9c0.1,0.4,0.9,0.2,0.9,0.8c0-0.6-0.8-0.4-0.9-0.8c-0.1-0.2-0.1-0.6-0.2-0.9c-0.4-0.4-0.7-0.9-0.8-1.5
		c0.4,0.4,0.7,0.9,0.8,1.5c0.2,0.1,0.4,0.2,0.6,0.3l0.1,0.4c0.3,0.2,0.6,0.4,0.9,0.5c-0.7-0.7-1.4-1.5-1.9-2.4
		c-1.8-2.7-2.7-5.9-2.6-9.1c0.1-3.3,1.3-6.4,3.3-8.9c2.2-2.7,5.3-4.5,8.8-4.9c3.1-0.4,6.2,0.1,9,1.5c1.3,0.7,2.5,1.7,3.5,2.9
		c1,1.2,1.6,2.6,2,4.1c0.4,1.4,0.6,2.9,0.8,4.3c0.1,1.4,0,2.9-0.3,4.3c0,1.5,0.4,2.2,1,2.4c0.4,0.1,0.9,0.1,1.4-0.1
		c0.6-0.3,1-0.8,1.4-1.3c0.3-0.5,0.6-1.2,0.7-1.8c0.4-1.8,0.6-3.7,0.6-5.6c-0.1,1.8-0.4,1.1-0.7-0.3s-0.9-3.5-1.1-5.2
		c-0.3-2.5-2.3-5.2-5-6.9c-2.7-1.6-5.8-2.7-9-3c-1.7-0.2-3.4-0.1-5,0.3c-4.7,0.8-8.9,3.5-11.6,7.5c-2.6,4.1-3.7,8.9-3,13.7
		c0.4,2.4,1.5,4.6,3,6.4c0.8,1.3,1.7,2.5,2.7,3.7c0.7,0.7,1.5,1.3,2.3,1.8c0.7,0.4,1.5,0.7,2.4,1c-1.6-0.7-3.1-1.6-4.5-2.8
		c-0.5-0.5-0.2-0.4,0.3-0.2c0.2,0.1,0.6,0.3,0.8,0.4s0.6,0.3,0.8,0.4s0.5,0.9,0.9,1c0.3,0.2,0.7,0.4,1.1,0.5l1.2,0.4
		c0.4,0.1,0.1,0.5,0.4,0.5c0.5,0.1,1.1,0.2,1.6,0.2c0.4,0,0.9,0,1.3,0.1c0.5,0.2,1,0.4,1.5,0.5c0.3,0.1,0.7,0.1,1,0.1l0.6-0.1
		c-0.1-0.1-0.2-0.3-0.3-0.5c0.3,0.1,0.7,0.1,1,0.2c-0.3,0-0.7-0.1-1-0.2c0,0.2,0.1,0.4,0.3,0.5c1.6-0.2,3.3-0.7,4.8-1.3l0,0
		c-0.9,0.3-1.8,0.4-2.8,0.2c0.4,0.1,0.4,0.2-0.1,0.3L264,502l1.2-0.3c0.4-0.1,0.8-0.1,1.2,0l0.5-0.3c0.3,0,0.3,0.1,0.4,0.3
		c0.2,0,0.4-0.1,0.5-0.2C267.2,501.4,266.6,501.4,266,501.4z"/>
	<path class="st2" d="M257,500.5l0.4,0.1c-0.5-0.2-1.1-0.5-1.6-0.8C256,500.1,256.5,500.3,257,500.5z"/>
</g>
<circle class="st3" cx="262.4" cy="487.3" r="5.6"/>
<g class="st1">
	<path class="st2" d="M258.4,491.7l0.3,0.3c0-0.1-0.1-0.1-0.1-0.2C258.5,491.7,258.5,491.7,258.4,491.7z"/>
	<path class="st2" d="M258.9,492.2L258.9,492.2L258.9,492.2L258.9,492.2z"/>
	<path class="st2" d="M259.5,492.5c-0.1-0.1-0.2-0.1-0.3-0.1C259.3,492.4,259.4,492.5,259.5,492.5z"/>
	<path class="st2" d="M259.1,492.2C259.1,492.2,259.1,492.3,259.1,492.2L259.1,492.2l0.1,0.2C259.2,492.3,259.1,492.2,259.1,492.2z"
		/>
	<path class="st2" d="M259.1,492.2l0-0.1C259.1,492.1,259.1,492.1,259.1,492.2z"/>
	<path class="st2" d="M259.7,491.5c0.1,0-0.1,0.2,0,0.2s0.5,0.1,0.7,0.2s0.2,0.3,0.3,0.3s1-0.2,0.6-0.2c-0.5-0.1-0.9-0.2-1.4-0.4
		c-0.4-0.1-0.8-0.3-1.2-0.5c-0.1-0.1-0.2-0.2-0.2-0.3c0.1,0.1,0.2,0.3,0.3,0.4C259,491.5,259.4,491.4,259.7,491.5z"/>
	<path class="st2" d="M257,489.4l0.1,0.1c0,0.3,0.1,0.6,0.4,0.8v-0.2c-0.1-0.1-0.2-0.1-0.1,0c0-0.3-0.1-0.7-0.3-1
		C257,489.3,257,489.3,257,489.4z"/>
	<path class="st2" d="M257,489.1l0.1,0.2l0,0L257,489.1L257,489.1z"/>
	<path class="st2" d="M260.8,492.8c0.8,0.2,1.6,0.3,2.4,0.2c0.1,0,0.1-0.1,0.2-0.1c0.1,0,0.1,0,0.2,0.1l0.3-0.1h0.1l0,0
		c0.1,0,0-0.1,0-0.1l-0.1,0l0.1,0c0.1,0,0.1,0,0.2,0c0.1-0.1,0.2-0.1,0.3-0.1c-0.1,0.1-0.2,0.1-0.3,0.1l-0.2,0.1h0
		c0.3-0.1,0.5-0.1,0.7-0.2c0.1,0,0.1-0.1,0.1-0.1c0.2-0.1,0.3-0.2,0.5-0.2l0.1-0.1l0,0c0.2-0.1,0.3-0.2,0.5-0.3
		c0.1-0.1,0.1-0.2,0.2-0.4h0.2c0-0.1,0-0.2,0.1-0.2h-0.3c-0.2,0-0.1,0.4-0.3,0.3c0.3,0.1,0.2-0.3,0.3-0.3h0.3
		c0.1-0.2,0.3-0.3,0.5-0.4c-0.1,0.2-0.3,0.4-0.5,0.4c0,0.1-0.1,0.1-0.1,0.2h-0.2c-0.1,0.1-0.1,0.2-0.2,0.4c2.7-1.8,3.4-5.3,1.7-8
		c-0.8-1.3-1.9-2.3-3.3-2.9c-1.4-0.5-2.9-0.5-4.3,0c-1.4,0.6-2.7,1.5-3.7,2.7c-0.5,0.7-0.8,1.4-0.9,2.2c-0.1,0.8-0.1,1.6,0.1,2.4
		c0.4,0.8,0.8,0.8,1.1,0.7c0.2-0.1,0.4-0.2,0.5-0.4c0.2-0.4,0.4-0.8,0.4-1.2c0-0.6,0.2-1.1,0.5-1.5c-0.2,0.4-0.4,0.2-0.3-0.2
		c0.1-0.5,0.5-1,1-1.2c0.7-0.3,1.3-0.6,1.9-1c0.6-0.4,1.4-0.6,2.1-0.6c0.4,0,0.8,0.1,1.1,0.2c1,0.4,1.8,1.1,2.4,2
		c0.6,0.9,0.8,2.1,0.5,3.1c-0.1,0.6-0.2,1.1-0.5,1.7c-0.2,0.3-0.5,0.6-0.9,0.8c-0.4,0.3-0.7,0.6-1.1,0.9c0.4-0.2,0.8-0.5,1.1-0.8
		c0.3-0.2,0,0.4-0.2,0.6s-0.3,0-0.4,0c-0.2,0.1-0.4,0.3-0.6,0.4c-0.1,0.1-0.1-0.1-0.2-0.1c-0.3,0.1-0.5,0.5-0.8,0.5
		c-0.2,0-0.3,0-0.5-0.1h-0.3l-0.2,0.1c0,0.1,0.1,0.2,0.1,0.2l-0.3-0.1l0.3,0.1c0-0.1,0-0.2-0.1-0.2c-0.5,0.1-1.1,0.1-1.6,0l0,0
		c0.3,0.1,0.6,0.2,0.9,0.4c-0.1-0.1-0.1-0.1,0.1-0.1l0.1,0.1c-0.3,0.1-0.6,0-0.8-0.2h-0.2c-0.1-0.1,0-0.1,0-0.2h-0.2
		C260.6,492.5,260.7,492.7,260.8,492.8z"/>
	<path class="st2" d="M264.2,492.8l-0.1,0.1c0.2,0,0.4-0.1,0.6-0.2C264.5,492.6,264.3,492.7,264.2,492.8z"/>
</g>
<g class="st1">
	<path class="st2" d="M386.8,434.2l-1.2,1.8l-1.3,1.8c0.5-0.6,1-1.1,1.5-1.6C386.3,435.7,386.6,435,386.8,434.2z"/>
	<path class="st2" d="M382,441.2l-0.5,0.6c-0.1,0.2-0.2,0.4-0.3,0.6L382,441.2z"/>
	<path class="st2" d="M377.7,447.6c0.9-1.1,1.6-2.1,2.3-3.2C379.1,445.4,378.4,446.5,377.7,447.6z"/>
	<path class="st2" d="M381.5,442.8c-0.4,0.3-0.6,0.4-0.3-0.3l0,0c-0.4,0.7-0.8,1.3-1.2,2C380.5,443.8,381,443.3,381.5,442.8z"/>
	<path class="st2" d="M381.5,442.8c0.4-0.3,0.9-0.8,1.1-1C382.2,442.1,381.9,442.4,381.5,442.8z"/>
	<path class="st2" d="M383.1,446.4c-0.4,0.7-1,0-1.8,1.4l-2.7,4.4c-0.9,1.4-1.9,2.7-2.9,4.1c-0.8,1.4-3.2,2.6-4,3.9
		c-1.1,1.5-2.9,4.2-4.1,6s-1.6,2.7,0.2,0.6c4.7-5.3,9-10.9,13.1-16.7c1.6-2.5,3.3-5,4.7-7.6c0.8-1.3,1.5-2.6,2.3-3.9
		c0.8-1.3,1.5-2.6,2.2-4s1.8-2.8,2.7-4.1l-3.9,5.4c-1,1.5-1.9,3-2.6,4.6C385.4,442.5,384.3,444.4,383.1,446.4z"/>
	<path class="st2" d="M403.1,406.2l-0.7,2.2c-2,2.9-3.7,6.1-5,9.4l1.2-1.2c0.9-1.9,0.8-2.2-0.2-0.7c2.4-3.3,4.4-6.9,6.1-10.6
		C404,405.4,403.8,405.2,403.1,406.2z"/>
	<path class="st2" d="M405.4,403.1c-0.3,0.7-0.7,1.5-1,2.2h0.1C404.8,404.6,405.1,403.8,405.4,403.1L405.4,403.1z"/>
	<path class="st2" d="M368.1,460.8c-6.4,7.4-13.5,14.1-21.2,20.1c-0.4,0.6-0.9,1.2-1.5,1.6c-0.7,0.3-1.3,0.7-2,1.1l-3.3,2.4
		l-1.1,0.9l0,0c-0.6,0.5-0.3,0.5,0.2,0.4c0.4-0.2,0.9-0.4,1.4-0.6c-0.3,0.1-0.9,0.4-1.4,0.6c-0.7,0.3-1.4,0.6-2,1
		c-1,0.7-2.1,1.5-3.3,2.2c1-0.8,2.1-1.5,3.3-2.2c0.6-0.5,1.3-0.9,1.9-1.4l0.5-0.5c-1.3,0.9-2.6,1.7-3.9,2.5s-2.6,1.7-4,2.4l-1.6,1.1
		c-0.9,0.6-1.8,1.2-2.8,1.7c-0.8,0.4-1.6,0.7-2.5,0.9l-1.5,0.7l0.3-0.1l-0.6,0.2c-1,0.5-2.1,1-3.2,1.5l-3.2,1.4
		c-1.3,0.8-2.7,1.5-4.1,2.3l-1.6,0.1c-0.7,0.6-1.5,1-2.3,1.3c1.2-0.1,2.4-0.2,3.6-0.5c1.7-0.2,3-2.2,5-2.1c-2.1-0.1-3.4,2-5,2.1
		c-1.2,0.2-2.4,0.4-3.6,0.5c-1.1,0.5-2.3,0.9-3.5,1.2c-1.2,0.3-2.5,0.5-3.7,0.6c1.2-0.5,2.5-1,3.8-1.2c1.1-0.3,2.3-0.5,3.4-0.6
		c0.8-0.3,1.6-0.8,2.3-1.3l1.6-0.1c1.4-0.7,2.8-1.5,4.1-2.3c-2.1,0.9-4.3,1.7-6.5,2.5s-4.4,1.5-6.7,2.1c-14.3,4.1-29.3,5.6-44.1,4.5
		c-15.1-1.1-30-4.8-43.9-10.9c-7.7-3.4-15.1-7.4-22.1-12c-6.8-4.5-13.1-9.5-19-15.1c-5.6-5.3-10.9-11.1-15.6-17.3
		c-1.2-1.5-2.2-3.1-3.3-4.6s-2.1-3.1-3-4.8c-1.9-3.2-3.7-6.5-5.2-9.9c-1.5-3.4-2.6-6.9-3.5-10.4c-0.8-3.5-1.3-7.1-1.3-10.8
		c0-0.9,0-1.8,0.1-2.7l0.3-2.7c0.1-0.9,0.4-1.7,0.5-2.6l0.1-0.7l0.2-1c0.1-0.6,0.2-1.3,0.2-1.9c0.2-2.3,0.2-4.5,0.1-6.8
		c-0.1-2.2-0.2-4.3-0.4-6.4c-0.9-8.2-2.4-16.4-4.4-24.4c-2.1-8.8-4.5-17.4-6.1-23.3c-2.9-7.7-4.9-9.2-6-8.7s-1.6,3-1.6,3.4
		c-0.3,5.3,0.4,9.7,1.7,15.3c1.8,7.5,3.2,15,4.1,22.6c-0.9-6.9,0.2-4.5,1.6,1.2s2.8,15,2.2,21.4c-0.1,1.1-0.2,2.3-0.4,3.4
		c-0.1,1-0.3,2-0.6,3c-0.1,0.2-0.1,0.3-0.2,0.7l-0.3,1.1c-0.2,0.7-0.3,1.5-0.5,2.2c-0.2,1.5-0.4,3-0.6,4.6
		c-0.3,6.5,0.7,12.9,2.7,19.1c2.1,6.2,4.9,12.1,8.4,17.7c3.3,5.4,7,10.6,10.9,15.5c4.2,5.2,8.8,9.9,13.7,14.3
		c6.8,6.4,14.2,12.1,22.1,17c7.8,4.8,16.1,8.9,24.8,12.1c17.9,6.8,36.8,10.1,55.9,9.7c10.6-0.3,19.7-2.7,28.1-5.3
		c6.2-1.8,12.9-3.6,17.7-5.6c6.8-2.9,13.2-6.5,19.2-10.8c-1.6,1-3.1,1.9-4.5,2.9s-2.9,1.8-4.4,2.6c-2.9,1.7-6.1,3.2-9.9,5
		c-2.6,1.1-1.8,0.4,0-0.7s4.6-2.9,6.2-3.8c1.3-0.9,4-1.1,5.3-2c1.5-0.8,2.9-1.8,4.3-2.8c0.7-0.5,1.4-1,2.1-1.5l2.1-1.6
		c1.2-1,1.6-0.1,2.2-0.7s1-0.7,1.5-1.1s0.9-0.8,1.3-1.2c0.8-0.8,1.6-1.5,2.3-2.2c1.2-1.3,2.6-2.5,4-3.6l2.9-2c0.9-0.6,1.8-1.3,2.6-2
		c1-0.9,2.1-1.7,3.1-2.7c0.6-0.6,1.2-1.4,1.8-2c-0.5,0.2-1.1,0.3-1.6,0.1c1-0.9,2.5-2,3.5-2.9c-1,0.9-2.5,2-3.5,2.9
		c0.5,0.2,1.1,0.1,1.6-0.1l3.4-3.8l3.4-4.1l1.7-2.1l1.6-2.1l3.3-4.2H372c-2.6,3.2-5.5,6.1-8.7,8.7c1.4-1.2,1.5-0.8,0.1,0.7l-1.5,0.8
		c1.2-1.4,2.3-2.8,3.5-4.1c1.2-1.3,2.5-2.5,3.8-3.6l1.3-2c0.9-0.8,1-0.5,1.4-0.6c0.5-0.6,1-1.3,1.5-1.9c-0.4,0.2-0.9,0.7-1.4,1.2
		l-1.8,1.5L368.1,460.8z"/>
	<path class="st2" d="M336.9,488.2l1.6-1.1l-3.3,2.1c-1.1,0.7-2.2,1.4-3.4,2C333.3,491,335.1,489.6,336.9,488.2z"/>
</g>
<g class="st1">
	<path class="st2" d="M568.9,499l0.8,0.6c-0.1-0.1-0.2-0.3-0.3-0.4C569.2,499,569,499.1,568.9,499z"/>
	<path class="st2" d="M570.5,500.2l0.2,0.1h0.2L570.5,500.2z"/>
	<path class="st2" d="M572.1,500.9c-0.3-0.1-0.5-0.3-0.8-0.4C571.5,500.7,571.8,500.9,572.1,500.9z"/>
	<path class="st2" d="M570.9,500.2c0.1,0.1,0.1,0.2-0.1,0.2l0,0l0.5,0.2C571.1,500.5,571,500.3,570.9,500.2z"/>
	<path class="st2" d="M570.9,500.2c0-0.1-0.2-0.2-0.2-0.3C570.8,500,570.8,500.1,570.9,500.2z"/>
	<path class="st2" d="M572.1,498.9c0.2,0-0.1,0.4,0.2,0.5s0.7,0.2,1.1,0.2c0.3,0,0.7,0.1,1,0.2c0.3,0,0.7,0.6,1,0.6
		c0.5,0,1,0,1.5-0.1c0.5-0.1,0.6-0.2,0.1-0.3c-1.4-0.1-2.8-0.4-4.1-0.9c-1.2-0.3-2.4-0.8-3.5-1.4c-0.3-0.2-0.5-0.5-0.8-0.7
		c0.3,0.4,0.6,0.7,0.9,1.1c0.3,0.2,0.6,0.4,1,0.5C571.1,498.6,571.6,498.7,572.1,498.9z"/>
	<path class="st2" d="M564.4,493.1l0.4,0.4c0,0.4,0.2,0.8,0.4,1.1c0.2,0.4,0.5,0.7,0.8,0.9v-0.4c-0.3-0.4-0.4-0.3-0.3,0.1
		c-0.3-0.9-0.7-1.7-1.1-2.5C564.5,492.8,564.3,492.8,564.4,493.1z"/>
	<path class="st2" d="M564.3,492.2l0.3,0.5l0,0L564.3,492.2L564.3,492.2z"/>
	<path class="st2" d="M575.8,501.7c2.2,0.4,4.4,0.4,6.6,0c0.1-0.1,0.2-0.3,0.4-0.3c0.2,0,0.4,0,0.5,0c0.3-0.1,0.6-0.2,0.9-0.3
		l0.3-0.1l0,0c0.1-0.1,0.1-0.2-0.1-0.2c-0.1,0-0.2,0-0.4,0c0.1,0,0.2,0,0.4,0c0.2,0,0.3,0,0.5,0c0.3-0.2,0.5-0.3,0.8-0.4
		c-0.2,0.2-0.5,0.3-0.8,0.4l-0.5,0.2l-0.1,0.1c0.7-0.2,1.4-0.5,2-0.8c0.1-0.1,0.3-0.2,0.4-0.3c0.3-0.3,0.7-0.6,1.2-0.6l0.3-0.2h-0.1
		l0.1,0c0.4-0.3,0.9-0.6,1.3-1c0.2-0.3,0.4-0.6,0.6-0.9l0.4-0.1c0-0.2,0.1-0.4,0.2-0.6c-0.3,0.1-0.6,0.2-0.8,0.3
		c-0.4,0.1-0.2,0.9-0.8,0.9c0.6,0,0.4-0.8,0.8-0.9c0.2-0.1,0.5-0.2,0.8-0.3c0.3-0.5,0.7-0.9,1.2-1.2c-0.2,0.6-0.6,1-1.2,1.2
		c-0.1,0.2-0.2,0.4-0.2,0.6l-0.4,0.1c-0.2,0.3-0.4,0.6-0.6,0.9c0.8-0.7,1.6-1.5,2.2-2.4c2.2-2.8,3.4-6.3,3.3-9.8
		c0-3.7-1.2-7.2-3.3-10.2c-2.4-3.3-5.8-5.8-9.8-6.9c-3.9-1.1-8-0.6-11.6,1.2c-3.7,1.9-6.7,4.8-8.8,8.3c-1,1.9-1.6,4-1.7,6.2
		c-0.1,2.1,0.1,4.2,0.8,6.3c0.3,0.7,0.8,1.3,1.4,1.7c0.3,0.2,0.7,0.2,1,0.1c0.4-0.2,0.7-0.6,0.9-1.1c0.2-0.6,0.3-1.2,0.3-1.8
		c0-0.5,0-1.1-0.1-1.7c-0.2-1.6,0-3.2,0.7-4.6c-0.5,1.3-0.7,0.8-0.6-0.4c0.2-1.5,1-2.9,2.1-3.9c1.7-1.2,3-2.7,4.8-4
		c1.8-1.4,3.9-2.2,6.2-2.2c1.2,0,2.3,0.1,3.5,0.3c3.1,0.9,5.9,2.8,7.8,5.4c2.1,2.7,2.9,6.2,2.4,9.5c-0.2,1.7-0.5,3.5-1.1,5.1
		c-0.6,1-1.4,1.9-2.2,2.6c-0.5,0.5-1.1,1-1.6,1.5s-1,0.9-1.6,1.2c1.2-0.7,2.2-1.6,3.1-2.6c0.4-0.4,0.3-0.1,0.2,0.3
		c-0.1,0.2-0.2,0.5-0.4,0.7c-0.1,0.2-0.3,0.4-0.4,0.6c-0.2,0.3-0.9,0.1-1.1,0.4c-0.3,0.2-0.5,0.4-0.8,0.6l-0.8,0.7
		c-0.2,0.2-0.4-0.2-0.5-0.1c-0.4,0.2-0.8,0.5-1.1,0.8c-0.3,0.2-0.6,0.4-1,0.5c-0.5,0-0.9,0-1.4,0l-0.8,0.1l-0.5,0.1
		c0.1,0.1,0.2,0.3,0.3,0.5c-0.3,0-0.7-0.1-0.9-0.1c0.3,0,0.7,0.1,0.9,0.1c0-0.2-0.1-0.4-0.3-0.5c-1.5,0.4-3,0.4-4.4,0.2v0
		c0.9,0.2,1.8,0.4,2.6,0.8c-0.4-0.1-0.3-0.3,0.1-0.3l0.3,0.2c-0.4,0.1-0.8,0.1-1.2,0c-0.4,0-0.8-0.2-1.1-0.4h-0.5
		c-0.2-0.1-0.2-0.3-0.2-0.4s-0.3,0-0.5-0.1C574.8,501.1,575.3,501.4,575.8,501.7z"/>
	<path class="st2" d="M585,500.8l-0.4,0.2c0.6-0.2,1.1-0.4,1.7-0.7C585.8,500.3,585.3,500.5,585,500.8z"/>
</g>
<circle class="st3" cx="579.5" cy="487.3" r="5.6"/>
<g class="st1">
	<path class="st2" d="M583.1,491.2l-0.3,0.2c0.1,0,0.1,0,0.2,0C583.1,491.4,583,491.3,583.1,491.2z"/>
	<polygon class="st2" points="582.5,491.6 582.5,491.6 582.5,491.7 	"/>
	<path class="st2" d="M582.1,492c0.1,0,0.2-0.1,0.3-0.2C582.3,491.9,582.2,491.9,582.1,492z"/>
	<path class="st2" d="M582.5,491.8C582.5,491.8,582.4,491.8,582.5,491.8L582.5,491.8l-0.1,0.1L582.5,491.8z"/>
	<path class="st2" d="M582.5,491.8L582.5,491.8z"/>
	<path class="st2" d="M582.9,492.6c0,0.1-0.2-0.1-0.2,0c-0.2,0.2-0.4,0.4-0.7,0.6c-0.1,0.1-0.4-0.1-0.5,0c-0.3,0.2-1,0.6-0.5,0.5
		c0.6-0.2,1.2-0.4,1.7-0.8c0.4-0.3,0.8-0.7,1.1-1.2c0.1-0.1,0.2-0.2,0.3-0.3c-0.2,0.1-0.3,0.2-0.5,0.3S583.2,492.3,582.9,492.6z"/>
	<path class="st2" d="M584.6,489.3v0.2c-0.3,0.2-0.3,0.5-0.4,0.7h0.2c0.1-0.1,0-0.2-0.1-0.1c0.3-0.2,0.5-0.5,0.5-0.8
		C584.7,489.2,584.6,489.2,584.6,489.3z"/>
	<path class="st2" d="M584.8,489c0,0.1,0,0.1,0,0.2l0,0V489L584.8,489z"/>
	<path class="st2" d="M581,492.7c-0.7,0.2-1.5,0.3-2.3,0.1c-0.1,0-0.1,0.1-0.2,0c0,0-0.1-0.1-0.2-0.1l-0.3-0.1H578
		c-0.1,0-0.1,0,0,0.1c0,0,0.1,0.1,0.1,0.1l-0.1-0.1c0,0-0.1-0.1-0.2-0.1c-0.1,0-0.2-0.1-0.3-0.1c0.1,0,0.2,0,0.3,0.1h0.2
		c-0.2-0.1-0.5-0.2-0.7-0.3l-0.1,0c-0.2,0-0.3-0.1-0.4-0.2l-0.1-0.1l0,0l0,0c-0.1-0.1-0.3-0.2-0.4-0.3c-0.1,0-0.3-0.1-0.4-0.1v-0.2
		c-0.1,0-0.2,0-0.2-0.1c0,0.1,0,0.2,0.1,0.4c0,0.2,0.4,0,0.4,0.3c0-0.3-0.3-0.1-0.4-0.3c0-0.1-0.1-0.2-0.1-0.4
		c-0.2-0.1-0.3-0.3-0.3-0.5c0.2,0.1,0.3,0.3,0.3,0.5c0.1,0,0.1,0.1,0.2,0.1v0.2c0.1,0,0.3,0.1,0.4,0.1c-0.3-0.2-0.5-0.5-0.8-0.8
		c-1.5-1.8-1.6-4.4-0.3-6.3c0.7-1,1.7-1.7,2.9-1.9c1-0.2,2.1-0.1,3.1,0.3c1,0.4,1.7,1.2,2,2.2c0.1,0.4,0.3,0.9,0.4,1.4
		c0.1,0.5,0.1,0.9,0,1.4c0,0.4,0.3,0.7,0.7,0.8c0.2,0.1,0.4,0.1,0.7,0c0.5-0.2,0.8-0.7,0.8-1.2c0.1-0.7,0.1-1.4,0.1-2.1
		c0,0.7-0.2,0.5-0.3,0c-0.2-0.6-0.4-1.3-0.5-1.9c-0.2-1.1-1-2-2.1-2.5c-1.1-0.5-2.3-0.8-3.5-0.8c-0.6,0-1.3,0.1-1.9,0.3
		c-1.8,0.4-3.3,1.6-4.2,3.2c-0.9,1.6-1.1,3.5-0.6,5.3c0.3,0.9,0.8,1.7,1.5,2.2c0.3,0.5,0.7,0.9,1.1,1.3c0.5,0.4,1.2,0.7,1.8,0.8
		c-0.6-0.2-1.2-0.5-1.8-0.8c-0.4-0.3,0.5,0,0.8,0.1c0.1,0,0.2,0.4,0.4,0.4c0.3,0.1,0.6,0.2,0.9,0.2c0.2,0,0.1,0.2,0.1,0.2
		c0.5,0.1,0.8-0.1,1.1,0s0.4,0.1,0.6,0.2c0.1,0,0.2,0,0.4,0l0.2-0.1c-0.1-0.1-0.1-0.2-0.1-0.2c0.1,0,0.3,0.1,0.4,0.1
		c-0.1,0-0.3,0-0.4-0.1c0,0.1,0.1,0.2,0.1,0.2c0.6-0.2,1.2-0.4,1.7-0.7l0,0c-0.3,0.1-0.7,0.2-1,0.1c0.2,0,0.2,0.1,0,0.1l-0.2-0.1
		c0.3-0.1,0.6-0.2,0.9-0.1l0.2-0.1c0.1,0,0.1,0.1,0.2,0.1l0.2-0.1C581.5,492.7,581.2,492.7,581,492.7z"/>
	<path class="st2" d="M577.8,492.6h0.2c-0.2-0.1-0.4-0.1-0.6-0.2C577.4,492.5,577.6,492.6,577.8,492.6z"/>
</g>
<g class="st1">
	<path class="st2" d="M452.9,435.7l1.2,1.9l1.2,1.9c-0.4-0.6-0.7-1.3-1-2C454,436.8,453.5,436.2,452.9,435.7z"/>
	<path class="st2" d="M457.6,442.9l0.4,0.7l0.5,0.5L457.6,442.9z"/>
	<path class="st2" d="M462.3,449c-0.8-1.1-1.6-2.2-2.4-3.1C460.7,447,461.5,448,462.3,449z"/>
	<path class="st2" d="M458.9,443.9c0.1,0.5,0.2,0.8-0.4,0.2l0,0c0.5,0.6,1,1.2,1.5,1.8C459.5,445.3,459.2,444.6,458.9,443.9z"/>
	<path class="st2" d="M458.9,443.9c-0.1-0.5-0.5-1.1-0.5-1.4C458.5,443,458.7,443.4,458.9,443.9z"/>
	<path class="st2" d="M462.8,443.5c0.5,0.5-0.3,1,0.7,2.1l3.4,3.8c1.1,1.2,2.2,2.4,3.3,3.7c1.1,1,1.8,3.6,3,4.6
		c1.7,1.6,3.5,3.2,5.3,4.7c1.7,1.2,2.5,1.7,0.7-0.2c-4.8-4.9-9.3-10-13.6-15.4c-1.9-2.2-3.8-4.4-5.6-6.8l-2.7-3.5
		c-0.9-1.2-1.8-2.4-2.6-3.6c-1-1.4-1.7-2.8-2.5-4.2l3.1,5.8c0.9,1.5,2,2.9,3.2,4.1C459.8,440,461.2,441.6,462.8,443.5z"/>
	<path class="st2" d="M437.4,406.9l1.3,1.9c0.9,3.4,2.8,6.5,4.8,9.5c-0.1-0.5-0.2-1.1-0.3-1.6c-1-1.8-1.4-1.9-0.7-0.2
		c-1.5-3.8-3.1-7.6-5-11.2C437.3,405.7,437,405.8,437.4,406.9z"/>
	<path class="st2" d="M436.3,403.2l1.1,2.1c0,0,0-0.1,0-0.1C437,404.5,436.6,403.8,436.3,403.2L436.3,403.2z"/>
	<path class="st2" d="M473.4,461.2c6.5,7.3,13.6,14.1,21.2,20.4c0.7,0.2,1.4,0.6,1.9,1.1c0.5,0.6,1,1.1,1.6,1.6l3.3,2.5l1.2,0.8l0,0
		c0.7,0.4,0.6,0.1,0.3-0.3c-0.4-0.4-0.7-0.7-1-1.1c0.2,0.2,0.7,0.7,1,1.1c0.5,0.5,1.1,1,1.7,1.4c1.1,0.6,2.2,1.3,3.3,2.1
		c-1.2-0.6-2.3-1.3-3.3-2.1c-0.7-0.4-1.4-0.8-2-1.2l-0.6-0.3c1.3,1,2.6,1.8,3.9,2.7s2.6,1.8,4,2.6l1.8,0.9c1,0.5,2,1,2.9,1.5
		c0.8,0.4,1.5,0.9,2.2,1.5l1.5,0.8l-0.2-0.2l0.5,0.4c1,0.6,2.1,1.1,3.2,1.6l3.2,1.6c1.5,0.5,3.1,0.8,4.6,1.3l1.3,1
		c0.9,0.1,1.8,0.2,2.7,0.4c-1.1-0.7-2.1-1.4-3-2c-1.3-1-3.7-0.4-5-2c1.4,1.6,3.8,1,5,2c0.9,0.6,1.9,1.3,3,2c1.2,0.3,2.4,0.7,3.5,1.2
		c1.2,0.4,2.4,1,3.5,1.5c-1.3-0.2-2.7-0.5-3.9-1.1c-1.1-0.5-2.1-1-3.1-1.7c-0.9-0.2-1.8-0.4-2.7-0.4l-1.3-1
		c-1.5-0.5-3.1-0.8-4.6-1.3c2.1,1,4.3,1.8,6.5,2.8c2.2,0.8,4.5,1.7,6.8,2.4c14.5,4.8,29.8,6.7,45.1,5.7c15.6-1,30.9-4.5,45.3-10.4
		c15.9-6.3,30.7-15.1,43.9-26c12.8-10.7,23.2-23.4,30-38.3c1.7-3.8,3.1-7.7,4.2-11.7c1.1-4.1,1.8-8.3,2-12.6c0-1.1,0.1-2.2,0.1-3.3
		l-0.1-3.3c-0.1-1.1-0.2-2.2-0.4-3.3c0-0.2-0.1-0.6-0.1-0.8v-0.5c0-0.4,0-0.7,0-1.1c0.1-1.8,0.2-3.6,0.5-5.3
		c0.3-1.9,0.7-3.8,1.1-5.7c1.3-5.9,3.2-14.6,5.2-23.2s4.1-17.2,5.7-23c1.4-8,0.6-10.3-0.7-10.5s-2.9,1.7-3.1,2.1
		c-3,4.4-4.6,8.6-6.3,14.1s-3.5,12.4-6.7,22.2c2.1-6.7,2.1-4.1,0.9,1.8s-3.3,15-5.1,21.7c-0.4,1.3-0.7,2.6-0.9,3.9
		c-0.3,1.5-0.3,3.1-0.3,4.6c0,0.4,0.1,1,0.1,1.2v0.9c0,0.6,0.1,1.2,0.1,1.8c0,1.2,0,2.4,0,3.6c-0.2,5.2-1.1,10.4-2.6,15.5
		c-3.4,11-9.1,21.1-16.8,29.6c-4,4.6-8.3,8.9-12.9,13c-6.6,5.5-13.7,10.5-21.1,14.9c-7.3,4.4-14.9,8.3-22.8,11.5
		c-15.8,6.4-33,10.3-51.3,9.7c-9.7-0.3-18.2-0.7-26.3-2.3c-5.6-1.5-11-3.4-16.3-5.8c-7.1-3-13-5.9-18.7-8.8c1.5,0.9,3,1.7,4.4,2.5
		s2.8,1.5,4.3,2.1c2.8,1.4,5.9,2.7,9.5,4.2c2.5,1,1.5,0.9-0.5,0.5c-2.3-0.6-4.5-1.3-6.7-2.1c-1.4-0.5-3-2.5-4.5-3
		c-1.5-0.8-2.8-1.5-4.3-2.2l-2.2-1.1l-2.3-1.2c-1.4-0.6-0.7-1.4-1.4-1.7c-0.5-0.3-1-0.6-1.5-0.9s-1-0.6-1.5-0.8
		c-1-0.5-1.9-1-2.7-1.4c-1.6-0.7-3.1-1.7-4.4-2.8l-2.5-2.3c-0.8-0.7-1.5-1.5-2.2-2.2c-1-0.9-1.9-1.8-3-2.7c-0.7-0.5-1.4-1.1-2.1-1.6
		c0.2,0.5,0.3,1,0.2,1.6c-0.9-0.9-2.1-2.4-3-3.3c0.9,0.9,2.1,2.3,3,3.3c0.1-0.5,0.1-1.1-0.2-1.6l-3.9-3.1c-1.3-1.1-2.6-2.3-3.9-3.5
		l-2-1.8c-0.6-0.6-1.3-1.2-1.9-1.9l-3.7-3.7v0.2c2.8,3,5.3,6.1,7.8,9.4c-1.1-1.5-0.8-1.5,0.7,0c0.2,0.5,0.5,1,0.8,1.5
		c-1.3-1.2-2.7-2.4-3.9-3.7c-1.2-1.3-2.3-2.7-3.2-4.2l-1.8-1.5c-0.6-0.9-0.4-1.1-0.4-1.4l-1.6-1.8c0.2,0.4,0.5,1,0.8,1.6
		s0.8,1.3,1.3,2L473.4,461.2z"/>
	<path class="st2" d="M504.6,488.8l-1.7-1l3.3,2.2c1.1,0.7,2.2,1.5,3.3,2.2C508,490.8,506.4,489.7,504.6,488.8z"/>
</g>
</svg>
