<?xml version="1.0" encoding="utf-8"?>
<!-- Generator: Adobe Illustrator 25.0.0, SVG Export Plug-In . SVG Version: 6.00 Build 0)  -->
<svg version="1.1" id="Layer_1" xmlns="http://www.w3.org/2000/svg" xmlns:xlink="http://www.w3.org/1999/xlink" x="0px" y="0px"
	 viewBox="0 0 841.9 841.9" style="enable-background:new 0 0 841.9 841.9;" xml:space="preserve">
<style type="text/css">
	.st0{fill:#D0B8AB;}
	.st1{opacity:0.85;}
	.st2{fill:#131413;}
</style>
<rect x="-3" class="st0" width="841.9" height="841.9"/>
<g class="st1">
	<path class="st2" d="M371.7,426.8l-3.3,2.3c0.6-0.3,1.2-0.6,1.9-0.9C370.8,427.9,371.3,427.4,371.7,426.8z"/>
	<path class="st2" d="M365.3,431.3l-0.6,0.4l-0.5,0.4L365.3,431.3z"/>
	<path class="st2" d="M359.8,435.6c1-0.7,1.9-1.4,2.9-2.1C361.6,434.1,360.7,434.8,359.8,435.6z"/>
	<path class="st2" d="M364.5,432.5c-0.4,0.1-0.7,0.1-0.2-0.4l0,0l-1.6,1.3C363.2,433.1,363.8,432.8,364.5,432.5z"/>
	<path class="st2" d="M364.5,432.5c0.4-0.1,1-0.4,1.3-0.5C365.3,432.2,364.9,432.3,364.5,432.5z"/>
	<path class="st2" d="M365,436.3c-0.5,0.5-0.9-0.4-2,0.6c-2.5,2.1-4.5,4.1-7,5.9c-1,1-3.4,1.4-4.4,2.4c-2.5,2.1-8.6,8.1-4.6,5.2
		c6-4.5,9.7-7.5,15-11.6c4.2-3.5,8.1-6.9,12.4-10.5c1.2-1,2.5-1.7,3.7-2.5L373,429C370.6,430.5,368.5,433.5,365,436.3z"/>
	<path class="st2" d="M396.1,409.9l-1.5,1.5c-2.9,1.5-5.6,3.3-8,5.6l1.5-0.5c1.5-1.1,1.5-1.5,0-0.7c3.3-1.7,6.4-3.8,9.4-6
		C397.1,409.7,397,409.4,396.1,409.9z"/>
	<path class="st2" d="M399.2,408.4l-1.7,1.3h0.1C398.1,409.3,398.7,408.9,399.2,408.4L399.2,408.4z"/>
	<path class="st2" d="M348.2,445c-7.5,5.5-14.7,10.6-21.7,15.5c-0.4,0.6-0.9,1.1-1.5,1.4c-0.6,0.3-1.2,0.6-1.8,0.9l-3.1,2.1l-1,0.8
		l0,0c-0.5,0.5-0.3,0.5,0.2,0.4s0.9-0.3,1.3-0.5c-0.2,0.1-0.9,0.3-1.3,0.5c-0.6,0.2-1.3,0.5-1.9,0.8c-1,0.7-2,1.3-3,1.9
		c1-0.7,2-1.3,3-1.9l1.7-1.2l0.5-0.4c-1.2,0.8-2.4,1.5-3.6,2.2s-2.5,1.4-3.7,2.1l-1.5,0.9c-0.8,0.6-1.7,1.1-2.6,1.5
		c-0.7,0.4-1.5,0.6-2.3,0.8l-1.4,0.6l0.3,0c-0.2,0.1-0.4,0.1-0.5,0.1l-3,1.2c-1,0.4-2,0.8-3,1.2c-1.2,0.7-2.5,1.4-3.8,2H293
		c-0.6,0.5-1.4,0.9-2.1,1.2c1.2-0.1,2.3-0.1,3.3-0.3c1.5,0,2.7-2.1,4.6-1.8c-1.9-0.2-3.1,1.8-4.6,1.8c-1,0.1-2.1,0.2-3.3,0.3
		c-1,0.4-2.1,0.8-3.2,1c-1.1,0.3-2.3,0.4-3.4,0.5c1.1-0.5,2.3-0.9,3.5-1.1c1.1-0.2,2.2-0.3,3.2-0.4c0.8-0.3,1.5-0.7,2.1-1.2h1.5
		c1.3-0.6,2.5-1.4,3.8-2c-2,0.7-3.9,1.5-6,2.1l-3,1l-3.1,0.8c-13.1,3.4-26.7,4.7-40.2,3.7c-13.7-1-27.2-4.4-39.7-10.2
		c-13.6-6.3-25.7-15.3-35.7-26.4c-1.2-1.3-2.4-2.7-3.6-4.1l-3.6-4.1l-7.3-8l-14.5-15.7c-9.6-10.4-19.2-21-28.5-32.7
		c-7.2-9-22.2-24.2-29.8-32.2c-11.3-9.7-9-1.3-8.7-0.6c3.7,9,10,12.9,21.2,27.9c-7.8-10,8,5.2,14.5,15.6
		c9.2,15.1,28.2,31.1,42.1,47.2c1.7,2,3.6,4,5.6,6.1l3,3.2l1.6,1.7l1.7,1.8c11.5,12.6,25.8,22.4,41.7,28.7
		c16.2,6.4,33.6,9.5,51.1,9.2c9.7-0.2,18-2.4,25.6-4.7l8.6-2.2c2.8-0.8,5.5-1.6,7.7-2.5c6.3-2.4,12.2-5.6,17.8-9.4l-4.2,2.5
		c-1.3,0.8-2.7,1.5-4,2.2s-2.8,1.4-4.3,2.1l-2.3,1.1l-2.5,1.1c-4.8,1.9,2.9-2.4,5.8-4.1c1.2-0.7,3.7-0.8,4.9-1.7
		c1.4-0.7,2.7-1.5,4-2.4c1.3-0.9,2.6-1.8,3.9-2.8c1.1-0.9,1.5,0,2-0.5c1.7-1.2,3.2-2.5,4.7-4c1.1-1.2,2.3-2.2,3.7-3.1l5.1-3.2
		c1-0.7,2-1.3,3-2.1l1.8-1.6c-0.5,0.1-1,0-1.5-0.2c1-0.6,2.5-1.5,3.5-2.1c-1,0.6-2.5,1.5-3.5,2.1c0.5,0.2,1,0.3,1.5,0.2
		c4.4-3.9,9.6-8.3,14.5-12.3h-0.1c-2.9,2.3-6.1,4.3-9.4,6c1.5-0.8,1.5-0.5,0,0.7l-1.5,0.5c2.5-2.1,5-4.3,7.9-5.5l1.5-1.5
		c0.9-0.5,1.1-0.2,1.4-0.1l1.7-1.3C352.1,443,350.1,444,348.2,445z"/>
	<path class="st2" d="M317.3,467l1.5-1c-2.1,1.2-4,2.5-6.2,3.6c0.8-0.2,1.5-0.5,2.2-0.9C315.6,468.1,316.5,467.5,317.3,467z"/>
</g>
<g class="st1">
	<path class="st2" d="M225.1,462.4c-0.2,0.2-0.4,0.4-0.6,0.5c0.1-0.1,0.3-0.1,0.4-0.1C225.1,462.7,225.1,462.6,225.1,462.4z"/>
	<path class="st2" d="M223.8,463.3l-0.1,0.1l-0.1,0.1C223.7,463.4,223.8,463.4,223.8,463.3z"/>
	<path class="st2" d="M222.6,464c0.2,0,0.5-0.1,0.7-0.3C223,463.8,222.8,463.9,222.6,464z"/>
	<path class="st2" d="M223.7,463.7c-0.1,0-0.2-0.1-0.1-0.2l0,0l-0.4,0.2C223.4,463.7,223.5,463.7,223.7,463.7z"/>
	<path class="st2" d="M223.7,463.7c0.1,0,0.2,0,0.3,0C223.9,463.7,223.8,463.7,223.7,463.7z"/>
	<path class="st2" d="M224.1,465.4c-0.1,0.1-0.3-0.3-0.6-0.1s-0.7,0.4-1.1,0.5c-0.4,0.1-0.7,0.2-1.1,0.3c-0.4,0.1-0.9-0.4-1.3-0.3
		s-1.1,0.2-1.6,0.2s-0.7,0.2-0.1,0.3c1.6,0.2,3.3,0.1,4.9-0.5c1.3-0.6,2.4-1.5,3.2-2.6c0.2-0.3,0.5-0.5,0.8-0.8
		c-0.4,0.3-0.7,0.6-1.1,0.9s-0.5,0.5-0.8,0.9C224.9,464.7,224.5,465.1,224.1,465.4z"/>
	<path class="st2" d="M228.8,457.3c0,0.2-0.1,0.5-0.1,0.5c-0.5,0.5-0.9,1.2-1,1.9l0.4-0.2c0.2-0.4,0.1-0.5-0.2-0.2
		c0.6-0.6,1.1-1.3,1.3-2.1C229.1,457.2,229,457.1,228.8,457.3z"/>
	<path class="st2" d="M229.4,456.7l-0.2,0.5h0.1C229.4,457,229.4,456.8,229.4,456.7L229.4,456.7z"/>
	<path class="st2" d="M219.5,464.7c-2-0.2-3.9-0.8-5.6-1.6c-0.2,0-0.3,0.1-0.5,0c-0.1-0.1-0.2-0.2-0.3-0.4l-0.7-0.4l-0.3-0.1l0,0
		c-0.2,0-0.2,0.1-0.1,0.2c0.1,0.1,0.1,0.2,0.2,0.3c0-0.1-0.1-0.2-0.2-0.3c-0.1-0.1-0.2-0.2-0.3-0.4c-0.2-0.1-0.5-0.2-0.7-0.4
		c0.2,0.1,0.5,0.2,0.7,0.4c0.1,0.1,0.3,0.1,0.4,0.2h0.1c-0.6-0.3-1-0.7-1.6-1l-0.3-0.2c-0.4-0.2-0.8-0.5-0.9-0.8
		c-0.1-0.1-0.1-0.2-0.2-0.2v0.1l-0.1-0.1c-0.3-0.3-0.7-0.7-1-1c-0.3-0.2-0.6-0.3-0.8-0.5c0,0,0-0.3,0-0.4c-0.2,0-0.4-0.1-0.5-0.3
		c0,0.3,0.1,0.5,0.1,0.8c0,0.4,0.8,0.2,0.8,0.8c0.1-0.6-0.7-0.4-0.8-0.8c-0.1-0.3-0.1-0.5-0.1-0.8c-0.4-0.4-0.6-0.8-0.6-1.4
		c0.4,0.3,0.6,0.8,0.6,1.4c0.1,0.1,0.3,0.2,0.5,0.3c0,0.1,0,0.4,0,0.4c0.3,0.2,0.6,0.4,0.8,0.5l-0.8-1.1c-0.2-0.4-0.5-0.8-0.8-1.2
		c-1.5-2.5-2.3-5.4-2.3-8.3c0-2.9,0.7-5.9,2.3-8.4c0.7-1.3,1.9-2.3,3.2-2.9c1.3-0.4,2.7-0.4,4,0.1c2.9,1,5.6,2.3,8.2,3.9
		c1.3,0.7,2.5,1.6,3.6,2.6c1,0.9,1.8,2,2.2,3.2c0.3,1,0.5,2.1,0.4,3.2c-0.1,1.3-0.4,2.6-0.8,3.9c-0.1,1.5,0.3,2.2,0.9,2.4
		c0.4,0.1,0.9,0.1,1.4-0.1c1-0.5,1.8-1.5,2.1-2.6l0.3-0.9l0.3-1.1c0.3-1,0.5-2,0.6-3c-0.2,1.7-0.5,1-0.7-0.3
		c-0.1-0.8-0.3-1.6-0.6-2.4c-0.2-0.9-0.6-1.8-0.8-2.6c-0.2-0.6-0.4-1.2-0.8-1.7c-0.2-0.3-0.4-0.5-0.6-0.8c-0.2-0.2-0.4-0.5-0.7-0.7
		c-0.9-0.9-2-1.7-3.2-2.3c-1.1-0.6-2.3-1.2-3.5-1.8s-2.3-1.1-3.5-1.7c-1.3-0.7-2.7-1.1-4.2-1.4c-0.6-0.2-1.1-0.3-1.7-0.4l-0.9-0.1
		c-0.3,0-0.6,0-0.9,0c-1.3,0-2.6,0.4-3.8,1c-1.1,0.6-2.1,1.4-2.9,2.4c-0.7,0.9-1.3,1.8-1.8,2.8c-1.9,3.9-2.5,8.3-1.8,12.6
		c0.5,2.1,1.4,4.1,2.8,5.8c0.2,0.3,0.4,0.6,0.5,0.9l0.6,0.9c0.3,0.6,0.7,1.1,1.1,1.6c0.3,0.3,0.6,0.7,0.9,0.9c0.3,0.3,0.6,0.5,1,0.8
		c0.6,0.4,1.3,0.8,2,1.1c-1.4-0.8-2.7-1.7-3.8-2.9c-0.8-0.9,1,0.3,1.7,0.7c0.2,0.1,0.3,0.3,0.3,0.5c0.1,0.2,0.2,0.4,0.4,0.5
		c0.3,0.2,0.6,0.4,0.9,0.6c0.3,0.1,0.7,0.3,1.1,0.4s0.1,0.5,0.2,0.5c1,0.4,2,0.2,2.6,0.6l1.2,0.7c0.3,0.1,0.5,0.2,0.8,0.3l0.6,0.1
		c-0.1-0.2-0.1-0.4-0.1-0.6c0.2,0.1,0.6,0.3,0.8,0.4c-0.2-0.1-0.6-0.3-0.8-0.4c0,0.2,0,0.4,0.1,0.6c1.5,0.2,3,0.2,4.5,0v0
		c-0.9,0.1-1.7-0.1-2.5-0.6c0.4,0.2,0.3,0.3-0.1,0.2l-0.3-0.3c0.7,0,1.5,0.1,2.1,0.4c0.2,0,0.3-0.1,0.5-0.1c0.2,0.1,0.2,0.2,0.3,0.3
		h0.5c-0.3-0.1-0.6-0.3-0.9-0.4L219.5,464.7z"/>
	<path class="st2" d="M211.6,462l0.4,0.2l-1.3-0.9C210.8,461.6,211.2,461.8,211.6,462z"/>
</g>
<path class="st2" d="M212.8,458.3c-3.2-0.7-5.3-3.9-4.6-7.1c0.7-3.2,3.1-3.1,6.3-2.4s6.1,1.7,5.4,5
	C219.2,456.9,216.1,459,212.8,458.3z"/>
<g class="st1">
	<path class="st2" d="M215.8,458.5c0.1,0,0.2-0.1,0.4-0.1c-0.1,0-0.1,0-0.2,0C215.8,458.4,215.8,458.5,215.8,458.5z"/>
	<path class="st2" d="M216.4,458.3L216.4,458.3L216.4,458.3L216.4,458.3z"/>
	<path class="st2" d="M217,458c-0.1,0-0.2,0.1-0.3,0.1C216.8,458.1,216.9,458.1,217,458z"/>
	<path class="st2" d="M216.5,458.2C216.6,458.2,216.6,458.2,216.5,458.2L216.5,458.2l0.2,0C216.6,458.2,216.6,458.2,216.5,458.2z"/>
	<path class="st2" d="M216.5,458.2h-0.1H216.5z"/>
	<path class="st2" d="M216.3,457.3c0,0,0.1,0.2,0.2,0.1c0.2-0.2,0.3-0.4,0.5-0.5c0.1-0.1,0.4,0,0.4-0.1s0.4-0.9,0.1-0.6
		c-0.3,0.4-0.7,0.7-1.1,1c-0.3,0.3-0.7,0.5-1.1,0.7c-0.1,0-0.2,0.1-0.4,0.1h0.5C215.9,457.9,216,457.5,216.3,457.3z"/>
	<path class="st2" d="M213.1,458.5h0.2c0.3,0.2,0.6,0.2,0.9,0.1l-0.1-0.1c-0.2,0-0.2,0.1,0,0.1c-0.3-0.1-0.6-0.2-0.9-0.2
		C213,458.4,213,458.5,213.1,458.5z"/>
	<path class="st2" d="M212.8,458.3h0.2l0,0H212.8L212.8,458.3z"/>
	<path class="st2" d="M218,457.1c0.6-0.5,1.1-1.1,1.5-1.8c0-0.1-0.1-0.1,0-0.2c0.1,0,0.1-0.1,0.2-0.1c0-0.1,0.1-0.2,0.1-0.3v-0.1
		l0,0c0-0.1,0-0.1-0.1,0l-0.1,0.1l0.1-0.1c0.1,0,0.1-0.1,0.1-0.1c0-0.1,0-0.2,0.1-0.3c0,0.1,0,0.2-0.1,0.3v0.2v0.1
		c0.1-0.2,0.2-0.5,0.2-0.7v-0.2c0-0.2,0-0.4,0.1-0.5v-0.1l0,0l0,0c0-0.2,0-0.4,0-0.6c-0.1-0.1-0.1-0.2-0.2-0.4
		c0-0.1,0.1-0.1,0.1-0.2c-0.1,0-0.1-0.1-0.2-0.2c0,0.1-0.1,0.2-0.1,0.3s0.3,0.2,0.1,0.4c0.2-0.2-0.2-0.3-0.1-0.4s0.1-0.2,0.1-0.3
		c-0.1-0.2-0.2-0.4-0.1-0.6c0.2,0.2,0.2,0.4,0.1,0.6c0,0.1,0.1,0.1,0.2,0.2c0,0.1,0,0.1-0.1,0.2c0.1,0.1,0.1,0.2,0.2,0.4
		c0-0.4-0.1-0.8-0.2-1.2c-0.6-1.1-1.7-2-2.9-2.3c-1.2-0.4-2.4-0.7-3.6-1c-0.7-0.2-1.4-0.3-2.1-0.3c-0.8-0.1-1.6,0.1-2.3,0.5
		c-0.7,0.4-1.2,1.1-1.5,1.9c-0.3,0.7-0.4,1.4-0.5,2.1c-0.1,1.5,0.2,3,0.8,4.4c0.4,0.7,0.9,1.3,1.5,1.8c0.6,0.5,1.3,0.9,2.1,1.1
		c0.8,0.1,1.1-0.3,1.1-0.6c0-0.2,0-0.5-0.1-0.7c-0.2-0.4-0.5-0.7-0.9-0.9c-0.5-0.3-0.9-0.7-1.1-1.1c0.2,0.4,0,0.4-0.3,0.1
		c-0.4-0.3-0.6-0.9-0.6-1.4c0-0.7,0-1.4-0.1-2.1c0-0.4,0-0.7,0-1.1c0-0.4,0.1-0.7,0.3-1c0.1-0.2,0.3-0.4,0.5-0.6c1-0.2,2-0.2,3,0
		c1.3,0.1,2.6,0.5,3.8,1c0.5,0.2,1,0.4,1.4,0.7c0.2,0.2,0.3,0.5,0.2,0.8c0.1,0.4,0.1,0.9,0.1,1.3c0.1-0.4,0.1-0.8,0-1.3
		c-0.1-0.3,0.4,0.1,0.4,0.4c0.1,0.1-0.2,0.2-0.2,0.3s0,0.4,0,0.7s-0.2,0-0.2,0.1c-0.1,0.3,0.1,0.7-0.1,0.9c-0.1,0.1-0.2,0.2-0.3,0.4
		c-0.1,0.1-0.1,0.1-0.2,0.2l-0.1,0.2c0.1,0,0.2,0,0.3,0.1c-0.1,0.1-0.2,0.1-0.3,0.2s0.2-0.1,0.3-0.2c-0.1,0-0.2-0.1-0.3-0.1
		c-0.2,0.5-0.5,0.9-0.8,1.3l0,0c0.2-0.2,0.5-0.4,0.8-0.5c-0.1,0.1-0.2,0-0.1-0.1h0.2c-0.1,0.3-0.3,0.5-0.6,0.5l-0.1,0.2
		c-0.1,0-0.1,0-0.2-0.1l-0.1,0.1c0.1,0,0.2,0,0.4,0C217.8,457.2,217.9,457.2,218,457.1z"/>
	<path class="st2" d="M219.8,454.4v0.2c0.1-0.2,0.2-0.4,0.2-0.6C219.9,454,219.9,454.2,219.8,454.4z"/>
</g>
<g class="st1">
	<path class="st2" d="M462.6,436.7l3.2,2.4c-0.5-0.5-1-0.9-1.5-1.5C463.9,437.2,463.3,436.9,462.6,436.7z"/>
	<path class="st2" d="M468.9,441.4c0.2,0.1,0.4,0.3,0.6,0.4l0.5,0.3L468.9,441.4z"/>
	<path class="st2" d="M474.7,445.3c-0.9-0.7-1.9-1.4-2.9-2.1C472.7,444,473.7,444.6,474.7,445.3z"/>
	<path class="st2" d="M470.3,441.8c0.3,0.4,0.4,0.6-0.3,0.3l0,0l1.8,1.1C471.3,442.8,470.8,442.3,470.3,441.8z"/>
	<path class="st2" d="M470.3,441.8c-0.3-0.4-0.7-0.9-0.9-1C469.7,441.1,470,441.5,470.3,441.8z"/>
	<path class="st2" d="M473.7,440.1c0.6,0.3-0.1,1,1.2,1.7c2.8,1.7,5.3,3,7.8,4.8c1.3,0.6,2.4,2.8,3.7,3.4c2.8,1.7,10.4,5.6,6.4,2.7
		c-6.1-4.2-10.2-6.9-15.7-10.6c-4.6-2.9-9.1-5.5-13.8-8.5c-1.3-0.9-2.4-1.8-3.6-2.7l4.6,3.9C466.4,436.6,470,437.6,473.7,440.1z"/>
	<path class="st2" d="M438.9,418.9l1.9,1c2.3,2.3,4.9,4.3,7.8,5.8l-0.9-1.2c-1.6-1-1.9-1-0.7,0.2c-2.7-2.6-5.6-4.9-8.7-7
		C438.4,418,438.1,418.2,438.9,418.9z"/>
	<path class="st2" d="M436.5,416.4l1.8,1.2c0,0,0-0.1,0-0.1L436.5,416.4L436.5,416.4z"/>
	<path class="st2" d="M487.3,453.2c7.6,5.4,14.7,10.6,21.6,15.7c0.7,0.2,1.3,0.5,1.8,0.9c0.4,0.5,0.9,1,1.4,1.5l3.1,2.2l1.1,0.7l0,0
		c0.7,0.3,0.6,0,0.3-0.3c-0.3-0.3-0.6-0.6-0.9-1c0.2,0.2,0.6,0.7,0.9,1c0.5,0.5,1,0.9,1.6,1.3c1,0.5,2,1.2,3.1,1.9
		c-1.1-0.5-2.1-1.1-3.1-1.9l-1.9-1l-0.5-0.3c1.2,0.8,2.4,1.6,3.6,2.4s2.4,1.5,3.7,2.2l1.6,0.8c0.9,0.5,1.9,0.9,2.7,1.3
		c0.7,0.3,1.4,0.8,2,1.4l1.4,0.7l-0.2-0.2l0.5,0.3l2.9,1.4c1,0.5,2,0.9,3,1.3c1.4,0.3,2.8,0.7,4.2,1l1.2,0.9c0.8,0,1.6,0.1,2.4,0.3
		c-1-0.6-1.9-1.3-2.8-1.8c-1.2-0.9-3.4-0.2-4.6-1.7c1.3,1.5,3.4,0.8,4.6,1.7c0.9,0.5,1.8,1.1,2.8,1.8c1,0.3,2.1,0.6,3.2,1
		c1.1,0.4,2.2,0.9,3.2,1.4c-1.2-0.2-2.4-0.5-3.6-0.9c-1-0.4-2-0.9-2.8-1.5c-0.8-0.2-1.6-0.3-2.4-0.3l-1.2-0.9
		c-1.4-0.4-2.8-0.7-4.2-1c2,0.8,3.9,1.7,6,2.4l3.1,1.1l3.1,1c13.3,4,27.2,5.7,41.1,4.8c14.2-0.9,28.1-4.2,41.2-9.8
		c14.4-6.1,27.6-14.7,38.9-25.5c1.4-1.3,2.7-2.6,4-3.9l3.8-3.9l7.5-7.8l14.7-15.4c9.8-10.3,19.8-20.4,30.9-30.5
		c8.5-7.8,22.7-23.6,30.2-31.8c9-11.9,0.7-9.1,0.1-8.8c-8.8,4.2-12.3,10.8-26.5,22.9c9.5-8.4-4.8,8.4-14.7,15.4
		c-14.5,10.1-29.3,30-44.5,45c-1.9,1.9-3.8,3.9-5.8,6l-3,3.2l-1.6,1.7l-1.6,1.6c-5.6,5.3-11.7,10.2-18.1,14.5
		c-6.3,4.3-13.1,8-20.1,11c-7.1,3.1-14.6,5.4-22.2,7c-7.9,1.6-16,2.3-24.1,2c-8.8-0.1-16.5-0.4-24-1.7c-2.7-0.6-5.3-1.3-7.9-2.2
		c-2.5-1-4.9-1.8-7-2.7c-6.5-2.5-12-4.9-17.2-7.4l4.1,2.1c1.3,0.7,2.6,1.2,3.9,1.8s2.7,1.1,4.1,1.7l2.2,0.9l2.4,0.9
		c4.5,1.7-3.6,0-6.6-1.2c-1.4-0.3-2.8-2.3-4.1-2.7c-1.3-0.6-2.6-1.2-4-1.8s-2.7-1.1-4.2-1.9c-1.3-0.5-0.6-1.3-1.3-1.5
		c-1.9-1-3.7-1.9-5.3-2.6c-1.5-0.6-2.9-1.4-4.1-2.4l-4.6-3.9c-1-0.8-1.9-1.5-3-2.2l-2.1-1.2c0.3,0.4,0.4,1,0.3,1.5
		c-0.9-0.7-2.1-1.9-3.1-2.6c0.9,0.7,2.1,1.9,3.1,2.6c0.1-0.5,0-1-0.3-1.5c-5.1-3-10.9-6.5-16.3-9.9v0.1c3.1,2.1,6,4.4,8.7,7
		c-1.2-1.1-0.9-1.2,0.7-0.2l0.9,1.2c-2.8-1.7-5.6-3.4-7.8-5.8l-1.9-1c-0.8-0.7-0.5-0.9-0.6-1.3l-1.8-1.2
		C484.1,450.3,485.6,451.8,487.3,453.2z"/>
	<path class="st2" d="M518.2,475.3l-1.5-0.9c2,1.3,4,2.6,6.1,3.8c-0.6-0.6-1.2-1.1-1.9-1.5C520,476.2,519.1,475.8,518.2,475.3z"/>
</g>
<g class="st1">
	<path class="st2" d="M609.8,471.1c0.2,0.2,0.5,0.5,0.7,0.6c-0.1-0.1-0.2-0.3-0.3-0.4C610.2,471.2,610,471.2,609.8,471.1z"/>
	<path class="st2" d="M611.3,472.3l0.2,0.1h0.2C611.5,472.4,611.4,472.4,611.3,472.3z"/>
	<path class="st2" d="M612.9,472.9c-0.3-0.1-0.5-0.2-0.8-0.3C612.3,472.8,612.6,472.9,612.9,472.9z"/>
	<path class="st2" d="M611.7,472.3c0.1,0.1,0.1,0.2-0.1,0.2l0,0l0.5,0.2C612,472.5,611.8,472.4,611.7,472.3z"/>
	<path class="st2" d="M611.7,472.3c-0.1-0.1-0.1-0.2-0.2-0.3C611.6,472.1,611.6,472.2,611.7,472.3z"/>
	<path class="st2" d="M612.8,470.9c0.1,0-0.1,0.4,0.2,0.5h0.9c0.3,0,0.6,0,0.9,0c0.3-0.1,0.7,0.4,1,0.3c0.4-0.1,0.9-0.3,1.2-0.6
		c0.3-0.2,0.5-0.4,0-0.3c-1.1,0.3-2.3,0.4-3.5,0.2c-1-0.1-2-0.5-2.9-1.1c-0.2-0.2-0.4-0.5-0.6-0.7c0.2,0.4,0.4,0.7,0.7,1
		c0.2,0.3,0.5,0.4,0.9,0.5C612,470.8,612.4,470.8,612.8,470.9z"/>
	<path class="st2" d="M606.3,465.3l0.3,0.4c0,0.8,0.4,1.5,0.9,2v-0.4c-0.2-0.4-0.4-0.3-0.3,0c-0.2-0.8-0.4-1.6-0.8-2.4
		C606.4,465,606.3,465.1,606.3,465.3z"/>
	<path class="st2" d="M606.3,464.5l0.2,0.4l0,0C606.4,464.8,606.4,464.7,606.3,464.5L606.3,464.5z"/>
	<path class="st2" d="M616.4,472.7c2-0.3,3.9-0.8,5.8-1.6c0.1-0.1,0.2-0.3,0.4-0.3c0.2,0,0.3,0,0.5,0l0.8-0.4l0.2-0.2l0,0
		c0.1-0.1,0-0.2-0.1-0.2c-0.1,0-0.2,0-0.3,0h0.3c0.2,0,0.3,0,0.5-0.1c0.2-0.2,0.4-0.3,0.7-0.4c-0.2,0.2-0.4,0.3-0.7,0.4
		c-0.1,0.1-0.2,0.2-0.4,0.3l-0.1,0.1c0.6-0.3,1.1-0.6,1.7-0.9c0.1-0.1,0.2-0.2,0.3-0.3c0.3-0.3,0.7-0.7,1-0.7
		c0.1-0.1,0.2-0.1,0.3-0.2h-0.1l0.1,0c0.4-0.3,0.8-0.6,1.1-1c0.2-0.3,0.3-0.6,0.4-0.9l0.4-0.1c0-0.2,0.1-0.4,0.1-0.6
		c-0.3,0.1-0.5,0.2-0.8,0.3c-0.4,0.1-0.1,0.9-0.7,0.9c0.6,0,0.3-0.8,0.7-0.9c0.2-0.1,0.5-0.2,0.8-0.3c0.3-0.5,0.6-0.9,1.1-1.1
		c-0.1,0.5-0.5,1-1.1,1.1c-0.1,0.2-0.1,0.4-0.1,0.6l-0.4,0.1c-0.2,0.3-0.3,0.6-0.4,0.9l1-1.1c0.3-0.4,0.6-0.8,0.9-1.2
		c3.8-5.5,4.1-12.6,0.9-18.4c-0.8-1.8-2.3-3.3-4-4.2c-1.8-0.8-3.8-1.1-5.8-0.8c-1.7,0.3-3.4,0.8-5,1.5c-1.5,0.7-3,1.4-4.4,2.2
		s-2.9,1.6-4.4,2.6c-1.7,1.1-3.1,2.4-4.4,4c-0.3,0.4-0.5,0.8-0.7,1.2c-0.2,0.5-0.4,1-0.6,1.5c-0.1,0.6-0.2,1.2-0.3,1.8
		c0,0.6,0,1.2,0,1.8c0.2,1.9,0.6,3.8,1.3,5.5c1,1.6,1.8,1.6,2.4,1.4c0.4-0.2,0.7-0.6,0.9-1c0.3-1,0.4-2.2,0.1-3.2
		c0-0.3-0.1-0.5-0.2-0.9s-0.1-0.6-0.1-1c0-0.8,0.1-1.6,0.4-2.3c-0.3,1.1-0.6,0.7-0.6-0.3c0-0.6,0.2-1.2,0.6-1.7
		c0.4-0.6,0.9-1,1.5-1.3c1.8-0.8,3.5-1.8,5.1-3c1.9-1.4,4-2.5,6.1-3.3c1-0.4,2.1-0.7,3.2-1c1.1-0.2,2.3,0,3.3,0.5
		c1,0.7,1.8,1.6,2.3,2.6c1.6,2.7,2.1,5.9,1.6,8.9c-0.2,1.6-0.5,3.2-0.9,4.7c-0.1,0.2-0.3,0.5-0.4,0.7s-0.3,0.4-0.5,0.6
		c-0.3,0.4-0.7,0.8-1,1.1c-0.2,0.3-0.4,0.5-0.7,0.8l-0.6,0.7c-0.5,0.4-0.8,0.9-1.3,1.3c0.5-0.4,0.9-0.8,1.4-1.2
		c0.4-0.4,0.8-0.9,1.2-1.4c0.6-0.8,0,0.9-0.4,1.5c-0.1,0.1-0.3,0.2-0.5,0.2s-0.4,0-0.5,0.2c-0.2,0.2-0.4,0.4-0.6,0.6
		c-0.2,0.2-0.4,0.5-0.7,0.7s-0.4-0.2-0.5-0.1c-0.7,0.5-1.1,1.4-1.7,1.5c-0.5,0.1-0.9,0.2-1.3,0.3c-0.3,0.1-0.5,0.1-0.8,0.2l-0.5,0.3
		c0.2,0.1,0.3,0.2,0.4,0.4c-0.2,0.1-0.6,0-0.9,0.1c0.2,0,0.6,0,0.9-0.1c-0.1-0.2-0.2-0.3-0.4-0.4c-1.2,0.7-2.4,1.2-3.8,1.4l0,0
		c0.8-0.1,1.6-0.1,2.4,0c-0.4,0-0.4-0.2,0-0.3l0.4,0.2c-0.6,0.4-1.4,0.5-2.1,0.3c0,0-0.3,0.1-0.5,0.2s-0.2-0.2-0.3-0.4h-0.5
		c0.3,0.2,0.5,0.3,0.8,0.4C616.1,472.7,616.4,472.7,616.4,472.7z"/>
	<path class="st2" d="M624.4,470c-0.1,0.1-0.2,0.2-0.3,0.2l1.4-0.8C625.1,469.4,624.8,469.7,624.4,470z"/>
</g>
<path class="st2" d="M623,466c3.2-0.7,5.3-3.9,4.6-7.1c-0.7-3.2-3.1-3.1-6.3-2.4s-6.1,1.7-5.4,5C616.6,464.6,619.8,466.7,623,466z"
	/>
<g class="st1">
	<path class="st2" d="M620.3,465.6l-0.3-0.1c0.1,0,0.1,0.1,0.1,0.1C620.2,465.7,620.2,465.7,620.3,465.6z"/>
	<path class="st2" d="M619.7,465.4L619.7,465.4L619.7,465.4z"/>
	<path class="st2" d="M619.1,465.2c0.1,0.1,0.2,0.1,0.3,0.1C619.3,465.3,619.2,465.3,619.1,465.2z"/>
	<path class="st2" d="M619.5,465.5C619.5,465.4,619.5,465.4,619.5,465.5L619.5,465.5l-0.2-0.1C619.4,465.4,619.5,465.4,619.5,465.5z
		"/>
	<path class="st2" d="M619.5,465.5l0.1,0.1C619.6,465.6,619.5,465.5,619.5,465.5z"/>
	<path class="st2" d="M619,466.2c-0.1,0,0-0.2-0.1-0.2c-0.3,0-0.6-0.1-0.8-0.3c-0.1,0-0.2-0.4-0.3-0.4s-1.1-0.5-0.7-0.1
		c0.5,0.4,1,0.7,1.6,1c0.5,0.1,1,0.2,1.5,0.3c0.1,0,0.3,0.1,0.4,0.1l-0.5-0.2C619.9,466.1,619.5,466.3,619,466.2z"/>
	<path class="st2" d="M622.7,465.9l-0.2,0.1c-0.3-0.1-0.6-0.1-0.8,0l0.1,0.1c0.2,0,0.2-0.1,0-0.1c0.3,0.1,0.7,0.2,1,0
		C622.8,466,622.8,465.9,622.7,465.9z"/>
	<path class="st2" d="M623,466l-0.2,0l0,0L623,466z"/>
	<path class="st2" d="M618,464.7c-0.6-0.5-1.1-1.1-1.4-1.8c-0.1,0-0.1,0-0.1-0.1c0-0.1,0-0.1,0-0.2c0-0.1-0.1-0.2-0.1-0.3l-0.1-0.1
		l0,0c0,0-0.1,0-0.1,0s0,0.1,0,0.1s0-0.1,0-0.1c0-0.1,0-0.1,0-0.2c0-0.1-0.1-0.2-0.1-0.3c0,0.1,0.1,0.2,0.1,0.3l0.1,0.2l0,0
		c-0.1-0.2-0.1-0.5-0.2-0.7l-0.1-0.1c0-0.2-0.1-0.3,0-0.5c0,0,0-0.1,0-0.1l0,0l0,0c0-0.2,0-0.4,0-0.5c0-0.1-0.1-0.2-0.1-0.4l0.1-0.1
		c0-0.1-0.1-0.1-0.1-0.2c-0.1,0.1-0.2,0.1-0.3,0.2c-0.1,0.1,0.2,0.3,0,0.4c0.2-0.1-0.1-0.3,0-0.4c0.1-0.1,0.2-0.2,0.3-0.2
		c0-0.2,0.1-0.4,0.3-0.5c0,0.2-0.2,0.3-0.3,0.5c0,0.1,0,0.2,0.1,0.2l-0.1,0.1c0,0.1,0,0.2,0.1,0.4c0-0.3,0.1-0.7,0.3-1
		c0.6-0.9,1.6-1.5,2.7-1.8c1.1-0.4,2.3-0.6,3.5-0.8c1.3-0.2,2.7-0.1,3.3,0.5c0.3,0.3,0.5,0.7,0.7,1.1c0.2,0.5,0.2,1,0.3,1.5
		c0,1-0.4,2-1.2,2.7c-0.3,0.3-0.7,0.6-1.1,1c-0.4,0.3-0.8,0.5-1.2,0.7c-0.3,0.2-0.5,0.6-0.4,1c0.1,0.2,0.2,0.4,0.3,0.5
		c0.4,0.3,0.9,0.3,1.4,0.1c0.6-0.3,1.3-0.6,1.9-0.9c-0.6,0.3-0.5,0-0.1-0.3c0.4-0.5,0.9-0.9,1.5-1.3c0.9-0.7,1.4-1.7,1.3-2.9
		c0-0.6,0-1.1-0.1-1.7c-0.1-0.6-0.3-1.2-0.5-1.7c-0.3-0.7-0.8-1.3-1.4-1.7c-0.8-0.6-1.8-0.9-2.8-0.9c-0.8,0-1.6,0.1-2.4,0.3
		c-1.5,0.3-3,0.8-4.5,1.4c-0.9,0.4-1.6,1.1-2,2c-0.4,0.5-0.6,1.1-0.8,1.8c-0.1,0.7,0.1,1.4,0.4,2c-0.3-0.6-0.4-1.3-0.3-2
		c0.1-0.6,0.2,0.4,0.3,0.7c0,0.1-0.2,0.4-0.1,0.5c0.1,0.3,0.2,0.6,0.4,0.8c0.1,0.1-0.1,0.2-0.1,0.2c0.2,0.4,0.6,0.6,0.7,0.8
		c0.1,0.2,0.1,0.4,0.2,0.5c0,0.1,0.1,0.2,0.2,0.3l0.2,0.1c0-0.1,0.1-0.2,0.1-0.2c0.1,0.1,0.1,0.2,0.2,0.3c-0.1-0.1-0.1-0.2-0.2-0.3
		c-0.1,0.1-0.1,0.1-0.1,0.2c0.5,0.4,1,0.7,1.5,1l0,0c-0.3-0.2-0.5-0.4-0.7-0.8c0.1,0.1,0,0.2-0.1,0.1v-0.2c0.2,0.2,0.5,0.3,0.6,0.6
		l0.2,0c0,0.1,0,0.1,0,0.2l0.2,0.1c0-0.1-0.1-0.2-0.2-0.3L618,464.7z"/>
	<path class="st2" d="M616.2,462.1l0.1,0.1c-0.1-0.2-0.1-0.4-0.1-0.6C616,461.7,616.1,461.9,616.2,462.1z"/>
</g>
</svg>
