<?xml version="1.0" encoding="utf-8"?>
<!-- Generator: Adobe Illustrator 25.0.0, SVG Export Plug-In . SVG Version: 6.00 Build 0)  -->
<svg version="1.1" id="Layer_1" xmlns="http://www.w3.org/2000/svg" xmlns:xlink="http://www.w3.org/1999/xlink" x="0px" y="0px"
	 viewBox="0 0 841.9 841.9" style="enable-background:new 0 0 841.9 841.9;" xml:space="preserve">
<style type="text/css">
	.st0{fill:#EDC4B3;}
	.st1{opacity:0.85;}
	.st2{fill:#211F1E;}
	.st3{fill:#1F2020;}
</style>
<rect class="st0" width="841.9" height="841.9"/>
<g class="st1">
	<path class="st2" d="M179.7,479.6c0.6,0.1,1.1,0.2,1.7,0.4c-0.3-0.1-0.5-0.2-0.8-0.4C180.3,479.5,180,479.5,179.7,479.6z"/>
	<path class="st2" d="M182.9,480.6l0.3,0.1l0.3,0.1L182.9,480.6z"/>
	<path class="st2" d="M185.6,482c-0.4-0.3-0.9-0.6-1.4-0.8l0.6,0.4C185.1,481.7,185.3,481.9,185.6,482z"/>
	<path class="st2" d="M183.5,480.6c0.1,0.2,0.2,0.3-0.1,0.2l0,0l0.8,0.4C184,481,183.8,480.8,183.5,480.6z"/>
	<path class="st2" d="M183.5,480.6c-0.1-0.1-0.3-0.3-0.5-0.4C183.2,480.4,183.4,480.5,183.5,480.6z"/>
	<path class="st2" d="M185,479.5c0.3,0.1,0,0.5,0.7,0.7s1.3,0.7,1.9,1c0.6,0.4,1.2,0.7,1.8,1.2c0.6,0.3,1,1.4,1.6,1.7
		c1.2,0.9,4.5,2.9,2.8,1.4c-2.2-1.9-4.6-3.6-7.1-5.2c-2.3-1.3-4.8-2.1-7.4-2.3c-0.7-0.1-1.4-0.1-2.1-0.2c1,0.1,1.9,0.3,2.8,0.5
		c0.7,0.2,1.5,0.3,2.3,0.4C183.2,478.8,184.1,479.1,185,479.5z"/>
	<path class="st2" d="M166.7,480.8l0.9-0.4c0.7,0,1.4-0.1,2.1-0.3c0.7-0.2,1.4-0.4,2.1-0.6l-0.7-0.1c-0.8,0.2-0.9,0.4-0.1,0.3
		c-1.7,0.1-3.4,0.4-5,0.9C166.2,480.7,166.2,480.8,166.7,480.8z"/>
	<path class="st2" d="M165.1,480.9l0.9-0.3l0,0L165.1,480.9L165.1,480.9z"/>
	<path class="st2" d="M191.1,485.7c3.2,2.7,6.1,5.4,9.1,7.9c0.3,0.1,0.6,0.2,0.8,0.5c0.2,0.2,0.4,0.5,0.6,0.7l1.3,1.1l0.5,0.3l0,0
		c0.3,0.2,0.2,0,0.1-0.1c-0.1-0.2-0.2-0.3-0.4-0.5c0.1,0.1,0.2,0.3,0.4,0.5c0.2,0.2,0.4,0.5,0.6,0.7c0.4,0.3,0.9,0.6,1.3,1
		c-0.5-0.3-0.9-0.6-1.3-1l-0.8-0.5l-0.2-0.1l3,2.5l0.6,0.5c0.7,0.4,1.3,1,1.8,1.6l0.5,0.5l-0.1-0.1l0.2,0.2c0.7,0.6,1.4,1.3,2.1,2
		c0.5,0.4,1,0.8,1.5,1.2c0,0,0.2,0.4,0.3,0.6c0.3,0.2,0.6,0.4,0.9,0.7c-0.2-0.5-0.4-0.9-0.6-1.4c-0.3-0.7-1.4-0.7-1.6-1.6
		c0.2,0.9,1.3,0.9,1.6,1.6c0.2,0.4,0.5,0.9,0.6,1.4c0.7,0.7,1.2,1.6,1.5,2.6c-0.6-0.8-1.1-1.7-1.5-2.6c-0.3-0.3-0.6-0.5-0.9-0.7
		c-0.1-0.2-0.3-0.6-0.3-0.6c-0.5-0.4-1-0.8-1.5-1.2c1.4,1.3,2.6,2.8,3.6,4.4c0.8,1.3,1.4,2.7,1.7,4.1c0.2,1.4,0.1,2.9-0.3,4.2
		c-1,2.8-2.7,5.3-4.9,7.3c-1,1.1-2.2,2.1-3.3,3c-0.6,0.5-1.2,0.9-1.9,1.3l-0.9,0.6l-1,0.5c-2.7,1.6-5.6,2.7-8.7,3.3
		c-3.3,0.7-6.7,0.9-10.1,0.4c-3.2-0.4-6.3-1.4-9.2-2.8c-2.8-1.4-5.3-3.2-7.6-5.2c-2.2-2.1-4.1-4.4-5.7-7c-3.3-5.3-5.1-11.4-5.3-17.6
		c-0.2-2.9,0.1-5.9,0.9-8.7c0.6-2.5,2.2-4.7,4.3-6.1c1-0.9,1.7-1.4,2.1-1.8c0.3-0.3,0.5-0.7,0.4-1.1c-0.2-0.6-1.3-0.8-1.4-0.8
		c-2.3-0.1-4.5,0.9-6.1,2.6c-1.8,1.9-3.5,4.7-4.7,9.1c0.4-1.5,0.7-1.9,0.7-1.7c0,0.8-0.1,1.6-0.2,2.5c-0.3,2.6-0.3,6.5-0.4,9.4
		c-0.2,4.2,1.3,9.2,3.8,13.8c2.6,4.7,6,9,10.1,12.5c0.5,0.4,1,0.9,1.6,1.3l1.8,1.1c1.3,0.8,2.6,1.5,3.9,2.1
		c7.3,3.5,15.6,4.2,23.4,1.9c3.9-1.1,7.5-2.9,10.8-5.2l1.2-0.9c0.4-0.3,0.8-0.7,1.2-1c0.8-0.7,1.6-1.3,2.3-2.1
		c0.7-0.8,1.4-1.5,2.1-2.3c0.7-0.8,1.4-1.7,2-2.6c1.3-2,2.1-4.3,2.4-6.6c0.1-2.2-0.3-4.5-1.4-6.5c-1.2-2.5-2.7-4.7-4.6-6.7
		c-2.1-2.1-4.5-4-7-5.7c2.4,1.7,4.7,3.6,6.8,5.6c1.7,1.7-1.6-0.8-2.8-1.6c-0.6-0.3-1-1.4-1.6-1.8c-1.1-0.9-2.3-1.6-3.4-2.4
		c-0.6-0.3-0.2-0.6-0.5-0.8c-1.7-1.2-3.3-1.7-4.2-2.6c-0.7-0.7-1.3-1.3-1.9-1.9c-0.4-0.4-0.8-0.7-1.2-1.1l-0.9-0.6
		c0.1,0.2,0.1,0.5,0,0.7c-0.4-0.4-0.9-1-1.3-1.3c0.4,0.4,0.9,1,1.3,1.3c0.1-0.2,0.1-0.5,0-0.7c-2.2-1.5-4.7-3.4-7-5.1v0.1
		c1.3,1,2.6,2.2,3.6,3.5c-0.5-0.6-0.3-0.6,0.3-0.1l0.3,0.6c-1.2-0.8-2.3-1.8-3.3-2.9l-0.8-0.5c-0.3-0.4-0.2-0.5-0.2-0.6l-0.8-0.6
		c0.3,0.5,0.7,0.9,1.1,1.4L191.1,485.7z"/>
	<path class="st2" d="M204.3,496.8l-0.6-0.5c0.8,0.7,1.6,1.4,2.5,2.1C205.6,497.7,205,497.2,204.3,496.8z"/>
</g>
<path class="st3" d="M189.3,513.3c-0.3,5.8-5.2,10.3-11,10c-5.4-0.2-9.8-4.6-10-10c0-5.8,5.4-13.2,10.5-10.5
	C186.4,506.9,189.3,507.5,189.3,513.3z"/>
<g class="st1">
	<path class="st2" d="M187.9,508c-0.1-0.2-0.3-0.3-0.5-0.5c0.1,0.1,0.1,0.2,0.2,0.3C187.7,507.9,187.8,508,187.9,508z"/>
	<polygon class="st2" points="187,507.1 186.9,507 186.8,507 	"/>
	<path class="st2" d="M186,506.4l0.5,0.3C186.4,506.6,186.2,506.5,186,506.4z"/>
	<path class="st2" d="M186.7,507C186.7,506.9,186.7,506.9,186.7,507L186.7,507l-0.2-0.3C186.6,506.8,186.7,506.9,186.7,507z"/>
	<path class="st2" d="M186.7,507c0,0.1,0.1,0.1,0.1,0.2C186.8,507.1,186.8,507.1,186.7,507z"/>
	<path class="st2" d="M186,507.5c-0.1,0,0.1-0.2-0.1-0.3c-0.5-0.2-0.9-0.4-1.3-0.6c-0.2-0.1-0.4-0.5-0.6-0.5
		c-0.5-0.2-1.9-0.5-1.1-0.2c1.1,0.5,1.8,0.9,2.7,1.4c0.8,0.4,1.5,0.8,2.1,1.4c0.1,0.2,0.3,0.4,0.4,0.6c-0.1-0.3-0.3-0.6-0.5-0.8
		C187.2,508,186.6,507.9,186,507.5z"/>
	<path class="st2" d="M189.4,512.7l-0.1-0.3c0.1-0.5,0-1.1-0.2-1.6l-0.1,0.3c0.1,0.3,0.1,0.3,0.1,0c0,0.6,0,1.2,0,1.8
		C189.3,512.9,189.4,512.9,189.4,512.7z"/>
	<path class="st2" d="M189.3,513.3V513l0,0V513.3z"/>
	<path class="st2" d="M183.8,505.4l-3.9-2.1c-0.1,0-0.2,0-0.3-0.1c-0.1-0.1-0.2-0.2-0.2-0.2l-0.5-0.3l-0.2-0.1l0,0
		c-0.1,0-0.1,0-0.1,0.1l0.2,0.2l-0.2-0.2c-0.1-0.1-0.2-0.1-0.3-0.2c-0.2,0-0.4-0.1-0.6-0.2c0.2,0,0.4,0.1,0.6,0.2l0.3,0.1h0.1
		c-0.4-0.2-0.9-0.4-1.4-0.5H177c-0.3,0-0.6,0-0.9-0.1c-0.1,0-0.2,0-0.3,0l0,0c-0.4,0.1-0.7,0.1-1.1,0.2l-0.6,0.4h-0.3
		c-0.1,0.1-0.2,0.2-0.3,0.3c0.2,0,0.4-0.1,0.6-0.1s0.4-0.4,0.7-0.3c-0.3-0.1-0.5,0.3-0.7,0.3s-0.4,0.1-0.6,0.1
		c-0.3,0.2-0.6,0.4-1,0.6c0.2-0.3,0.6-0.5,1-0.6c0.1-0.1,0.2-0.2,0.3-0.3h0.3l0.6-0.4c-0.7,0.2-1.3,0.6-1.9,1
		c-1.8,1.4-3.3,3.4-4.1,5.5c-0.4,1.1-0.7,2.2-0.9,3.4c-0.4,4,1.3,7.8,4.4,10.3c2.1,1.6,4.6,2.4,7.2,2.2c2.7-0.2,5.2-1.1,7.3-2.7
		c1.1-0.9,2-2,2.6-3.2c0.6-1.2,1-2.5,1.2-3.9c0-1.4-0.4-1.7-0.7-1.7c-0.3,0.1-0.5,0.2-0.6,0.4c-0.2,0.3-0.4,0.7-0.5,1
		c-0.1,0.3-0.2,0.7-0.4,1.1c-0.3,1-0.8,2-1.6,2.8c0.6-0.7,0.6-0.4,0.1,0.3c-0.6,0.9-1.4,1.6-2.3,1.9c-1.4,0.5-2.8,1-4.2,1.3
		c-1.6,0.4-3.2,0.3-4.7-0.3c-0.8-0.3-1.5-0.7-2.2-1.2c-1.8-1.4-3.1-3.4-3.6-5.7c-0.3-1.1-0.3-2.3-0.1-3.5c0.2-1.2,0.6-2.4,1.2-3.5
		c0.5-1.1,1.2-2.2,1.9-3.2c0.6-0.5,1.2-0.9,1.9-1.2c0.8-0.4,1.6-0.5,2.5-0.4l-0.6-0.1l-0.6,0.1c-0.2,0-0.4,0.1-0.6,0.1
		c-0.2,0.1-0.4,0.1-0.6,0.2c-0.6,0.3,0.3-0.5,0.8-0.6c0.2-0.1,0.5,0.2,0.7,0.1c0.1,0,0.2,0,0.3,0h0.3c0.2,0,0.4,0,0.6,0
		c0.2,0,0.1,0.2,0.2,0.3c0.1,0,0.3,0.1,0.4,0.1l0.5,0.1c0.3,0,0.5,0.1,0.8,0.3l0.8,0.6c0.2,0.1,0.3,0.2,0.5,0.3l0.4,0.1
		c0-0.1,0-0.2,0-0.3l0.6,0.4l-0.6-0.4c0,0.1,0,0.2,0,0.3c0.9,0.3,2,0.7,2.9,1.1l0,0c-0.6-0.3-1.1-0.6-1.5-1c0.2,0.2,0.2,0.2-0.1,0.1
		l-0.2-0.2c0.5,0.1,1,0.4,1.4,0.8l0.3,0.1c0.1,0.1,0.1,0.2,0.1,0.2l0.3,0.2C184.4,505.8,184.1,505.6,183.8,505.4z"/>
	<path class="st2" d="M178.2,502.5l0.3,0.1c-0.4-0.2-0.7-0.3-1.1-0.4C177.6,502.3,177.9,502.4,178.2,502.5z"/>
</g>
<g class="st1">
	<path class="st2" d="M85.6,339.8c0,2.3,0.1,4.7,0.1,7c0-1.2,0.1-2.4,0.2-3.5C86,342.1,85.9,340.9,85.6,339.8z"/>
	<path class="st2" d="M86,353.2v1.2l0.1,1.1L86,353.2z"/>
	<path class="st2" d="M86.9,365.4c-0.1-2.1-0.3-4.2-0.4-6.2C86.5,361.3,86.6,363.3,86.9,365.4z"/>
	<path class="st2" d="M86.6,355.7c-0.1,0.8-0.2,1.1-0.4-0.1v0c0.1,1.2,0.2,2.4,0.3,3.7C86.4,357.9,86.5,356.7,86.6,355.7z"/>
	<path class="st2" d="M86.6,355.7c0.1-0.7,0.2-1.9,0.2-2.3C86.7,354.1,86.6,354.8,86.6,355.7z"/>
	<path class="st2" d="M90.1,358.6c0.2,1.2-0.8,1-0.4,3.4c0.6,5.6,1.4,10.4,1.9,15.7c0.4,2.4-0.2,6.3,0.3,8.6
		c0.8,5.6,4.3,19.8,3,11.3c-1.9-12.7-3-21-4-32.4c-1-9.3-1.9-18.3-2.3-27.9c-0.1-2.7,0-5.2,0-7.7c-0.1,3.3-0.2,6.7-0.3,10.4
		C88.1,345,89.5,350.9,90.1,358.6z"/>
	<path class="st2" d="M87.7,288.3c0,1.2,0,3.7,0,3.7c-1.1,5.4-1.1,11.1-1.1,16.8c0.2-0.8,0.4-1.7,0.6-2.5c0.1-3.2-0.2-3.6-0.5-0.8
		c0.9-6.6,1.3-12.8,1.8-19.2C88.2,286.6,88,286.5,87.7,288.3z"/>
	<path class="st2" d="M88.8,282.5c-0.1,1.3-0.2,2.5-0.3,3.8c0,0,0.1-0.1,0.1-0.1c0.1-1.3,0.1-2.5,0.2-3.8L88.8,282.5z"/>
	<path class="st2" d="M90.2,391c1.9,15.3,4.7,30.5,8.4,45.5c0.5,1,0.9,2.1,1.2,3.3c0.2,1.2,0.4,2.3,0.6,3.5c0.6,2.1,1.2,4.2,1.8,6.2
		c0.2,0.7,0.5,1.4,0.8,2.2v0c0.5,1.1,0.5,0.7,0.4,0c-0.2-0.7-0.3-1.5-0.3-2.3c0,0.4,0.2,1.5,0.3,2.3c0.2,1,0.5,2.1,0.8,3.4
		c0.6,1.9,1.4,3.8,2,5.8c-0.8-1.9-1.5-3.9-2-5.8c-0.4-1.2-0.8-2.3-1.3-3.4l-0.4-1c0.8,2.4,1.5,4.7,2.2,7.1s1.6,4.7,2.4,7
		c0.4,1,0.8,2.1,1.2,2.9c0.7,1.7,1.4,3.3,2.1,4.8c0.5,1.3,1,2.6,1.3,4l1.1,2.4c0-0.2-0.1-0.3-0.1-0.5l0.3,0.9
		c0.7,1.7,1.6,3.4,2.4,5.1s1.6,3.4,2.5,5c0.7,1,1.3,2.1,2,3.1l2.1,3.1c0,0,0.6,1.6,0.9,2.4c1,1,1.8,2.1,2.6,3.3
		c-0.8-1.9-1.6-3.6-2.2-5.2c-0.6-1.3-1.3-2.4-2.2-3.5c-1-1.2-1.6-2.5-2-4c0.4,1.5,1,2.8,2,4c0.9,1,1.7,2.2,2.2,3.5
		c0.7,1.6,1.4,3.3,2.2,5.2c0.5,0.7,1,1.5,1.6,2.4s1.1,1.7,1.7,2.5s1.1,1.8,1.6,2.6s1,1.7,1.5,2.5c-1.5-1.6-2.7-3.3-3.8-5.1
		c-0.5-0.8-1-1.7-1.4-2.5s-0.8-1.6-1.1-2.4c-0.8-1.2-1.7-2.3-2.6-3.3c-0.3-0.8-0.9-2.4-0.9-2.4l-2.1-3.1c-0.7-1-1.3-2.1-2-3.1
		c3.4,6.7,7.2,13.1,11.5,19.2c6.9,10,15.1,18.9,24.5,26.6c9.3,7.6,19.7,13.7,30.8,18.1c11.3,4.3,23.1,7.1,35.1,8.3
		c12.4,1.3,25,1,37.3-1c6.8-1.2,13.5-3,20-5.4c6.4-2.5,12.5-5.5,18.3-9.2c5.7-3.6,11-7.8,15.9-12.4c2.5-2.3,4.7-4.7,7-7.2l3.2-3.8
		c1.1-1.3,2-2.6,3.1-3.9c7.7-10.4,14-21.7,18.8-33.7c2.4-5.9,4.5-11.8,6.4-17.8c1.9-6,3.5-12,4.9-18.1s2.6-12.2,3.8-18.3
		s2.1-12.4,2.9-18.6c1.7-12.5,3-25.2,4.1-38.3c0.8-12.9,1-25.8,0.5-38.7c-0.5-14.3-1.7-28.4-2.7-38c-2.1-12.9-4.1-15.8-5.3-15.4
		s-1.8,4.2-1.9,4.8c-0.8,8-0.5,15,0,24.1c0.8,12,0.9,24.1,0.3,36.2c0.2-5.5,0.4-7.2,0.7-6.4c0.4,2.9,0.6,5.9,0.6,8.8
		c0.1,4.7,0,10.7-0.3,16.8c-0.3,5.8-0.9,11.7-1.9,17.4c-2.6,14.7-4.5,32.5-7.8,51c-1.6,9.3-3.7,18.6-6.2,27.7
		c-2.5,8.9-5.8,17.6-9.7,26l-1.5,3l-1.6,3.1c-1,2.1-2.2,4.1-3.3,6.2c-0.5,1.1-1.2,2.1-1.8,3.1s-1.3,2.1-1.9,3.2l-2.1,3.2l-1.1,1.6
		l-1.2,1.6c-7.9,10.8-17.9,20-29.2,27l-2.1,1.2c-0.7,0.4-1.4,0.8-2.1,1.2l-4.4,2.2l-4.5,2c-0.7,0.3-1.5,0.6-2.3,0.9l-2.3,0.8
		c-0.8,0.3-1.5,0.6-2.3,0.8l-2.4,0.7c-1.6,0.4-3.1,1-4.8,1.3l-4.8,1.1l-4.9,0.8c-6.6,1-13.4,1.4-20.1,1.2h-2.6
		c-0.9,0-1.7-0.1-2.6-0.1l-5.1-0.3l-5.1-0.6c-0.9-0.1-1.7-0.2-2.6-0.3l-2.5-0.4c-1.7-0.3-3.4-0.5-5.1-0.9l-5.1-1.2
		c-1.7-0.4-3.3-1-5-1.4c-0.8-0.3-1.7-0.5-2.5-0.8l-2.5-0.9c-6.7-2.3-13.1-5.3-19.2-9c-6.2-3.7-12.1-7.8-17.7-12.3
		c-5.2-4.2-10-8.8-14.4-13.9c-0.4-0.5-0.8-0.9-1.2-1.4l-1.1-1.4l-2.2-2.9c-1.4-2-2.7-4-4-6s-2.4-4-3.5-5.9s-2.1-3.7-3.1-5.4
		c-5.3-9.6-10.1-19.6-14.2-29.8c1,2.7,2,5.1,3,7.5s2,4.6,3.1,7s2.2,4.6,3.4,7c0.6,1.2,1.3,2.5,1.9,3.8s1.4,2.6,2.2,4
		c1,1.9,1.3,2.5,1.1,2.3c-0.7-0.7-1.3-1.5-1.8-2.4c-2.1-3-4-6.2-5.8-9.4c-1.2-2.1-1.8-6-2.9-8.1c-0.5-1.2-1-2.4-1.6-3.5
		s-1-2.3-1.5-3.5c-1.1-2.3-2.1-4.7-3.1-7.3c-1-2.2,0-2.3-0.4-3.4c-2.6-7.2-5.3-12.6-6.3-17.4l-1.1-5.2c-0.3-1.7-0.6-3.3-0.9-5
		c-0.4-2-0.8-4.1-1.3-6.2c-0.4-1.3-0.7-2.7-1-4.1c0,0.7-0.2,1.5-0.6,2.1c-0.3-2-0.7-4.9-1-6.9c0.3,2,0.6,4.9,1,6.9
		c0.4-0.6,0.6-1.3,0.6-2.1c-2.5-9.9-4.7-21.4-6.2-32.2l-0.1,0.2c0.8,6.3,1.5,12.5,1.9,19.2c-0.2-2.9,0.1-2.6,0.6,0.7L93,406
		c-1.2-5.6-2.2-11.2-2.2-16.6l-0.8-3.6c-0.1-1.8,0.2-1.8,0.5-2.2c-0.2-1.2-0.3-2.5-0.5-3.7c-0.1,1.3-0.1,4.1,0,6.6
		S90.2,391,90.2,391z"/>
	<path class="st2" d="M104.2,455.3l-1-2.9c1.2,4,2.5,7.9,3.9,11.8c-0.3-1.4-0.6-2.7-1.1-4C105.4,458.6,104.8,457,104.2,455.3z"/>
</g>
<g class="st1">
	<path class="st2" d="M752.5,338c0.3,2.2,0.6,4.4,0.8,6.6c0-1.1-0.1-2.2-0.1-3.4C753.1,340.1,752.9,339,752.5,338z"/>
	<path class="st2" d="M753.8,350.7l0.1,1.2l0.2,1C754,352.1,753.9,351.4,753.8,350.7z"/>
	<path class="st2" d="M755,362.2c-0.1-2-0.2-4-0.5-5.9C754.6,358,754.7,359.9,755,362.2z"/>
	<path class="st2" d="M754.5,353c-0.1,0.7-0.2,1.1-0.4-0.1v0c0.1,1.1,0.3,2.3,0.4,3.5C754.5,355.1,754.5,353.9,754.5,353z"/>
	<path class="st2" d="M754.5,353c0.1-0.7,0.1-1.8,0.1-2.2C754.6,351.4,754.6,352.2,754.5,353z"/>
	<path class="st2" d="M758.2,355.6c0.2,1.2-0.8,1-0.4,3.3c0.7,5.4,1.2,10.1,1.4,15.2c0.2,2.3-0.8,6-0.6,8.3
		c0.3,5.5,0.6,19.6,1.1,11.3c0.3-6.2,0.3-11.4,0.2-16.4s-0.4-9.8-0.8-15.4c-0.9-9-2.2-17.6-3.9-26.7c-0.4-2.5-0.7-4.9-1-7.4
		c0.4,3.1,0.7,6.4,1.1,10C755.4,342.6,757.3,348.2,758.2,355.6z"/>
	<path class="st2" d="M742.9,290.1l1.3,3.2c0.9,5.3,2.2,10.4,3.8,15.5c0-0.8,0-1.6-0.1-2.5c-0.8-3-1.1-3.3-0.7-0.6
		c-0.9-6.1-2.3-12-4.2-17.9C742.9,288.4,742.6,288.4,742.9,290.1z"/>
	<path class="st2" d="M741.8,284.6c0.4,1.1,0.8,2.3,1.2,3.4c0,0,0-0.1,0-0.1c-0.4-1.1-0.8-2.3-1.2-3.4L741.8,284.6z"/>
	<path class="st2" d="M756.2,386.7c-0.4,14.7-2.3,29.3-5.8,43.5c0,1.1-0.2,2.2-0.5,3.3c-0.5,1-0.8,2.1-1.2,3.1
		c-0.6,2-1.2,3.9-1.8,5.9c-0.2,0.7-0.4,1.4-0.6,2.1v0.1c-0.3,1.1,0,0.9,0.3,0.2s0.7-1.4,1-1.9c-0.2,0.4-0.7,1.3-1,1.9
		c-0.4,0.9-0.9,1.9-1.3,3.1c-0.6,1.8-1.3,3.6-2.1,5.5c0.7-2.1,1.4-4,2.1-5.5c0.4-1.1,0.7-2.2,1-3.3c0.1-0.3,0.2-0.6,0.2-1l-1.2,3.3
		c-0.4,1.1-0.8,2.2-1.3,3.3s-0.8,2.2-1.3,3.3l-1.4,3.2c-0.4,1-0.8,2-1.1,2.7c-0.7,1.6-1.3,3.1-2,4.5c-0.6,1.2-1.3,2.3-2.1,3.3
		c-0.4,0.7-0.8,1.5-1.2,2.2c0.1-0.1,0.2-0.3,0.3-0.4l-0.6,0.8l-2.8,4.5l-3,4.4c-1.2,2-2.4,4-3.7,6l-1.9,1.6
		c-0.6,1.2-1.3,2.3-2.1,3.4c1.5-1.3,2.8-2.5,4-3.6c0.9-0.9,1.7-2,2.2-3.3c0.6-1.3,1.5-2.5,2.6-3.4c-1.1,0.9-2,2.1-2.6,3.4
		c-0.5,1.2-1.3,2.3-2.2,3.3c-1.2,1.1-2.5,2.4-4,3.6c-1,1.3-2.3,2.8-3.7,4.2s-2.9,2.6-4.3,3.7c1.3-1.6,2.6-3,4.1-4.4
		c1.3-1.3,2.6-2.5,3.8-3.5c0.8-1,1.5-2.2,2.1-3.4l1.9-1.6c1.3-2,2.5-4,3.7-6c-4,5.7-8.5,11.2-13.4,16.2c-1,1-2,2-3,3l-3.2,2.9
		l-1.6,1.4l-1.6,1.4l-3.3,2.7c-4.4,3.5-9,6.7-13.8,9.6c-9.5,5.8-19.6,10.6-30.1,14.3c-10.6,3.8-21.5,6.7-32.6,8.7
		c-11.2,2-22.8,3.8-34.5,3.1c-3.1-0.2-6.2-0.6-9.3-1.3c-0.8-0.2-1.5-0.4-2.2-0.6s-1.5-0.3-2.2-0.6c-1.5-0.5-2.9-0.9-4.3-1.6
		c-5.6-2.4-11-5.6-15.8-9.3l-3.7-2.8l-3.6-2.9c-1.2-1-2.3-2-3.4-3s-2.2-2-3.3-3.1c-4.2-4.3-8.1-8.9-11.6-13.8
		c-6.8-9.6-12.6-19.8-17.5-30.6c-4.8-10.5-8.9-21.4-12.4-32.5c-7-22.6-11.7-45.9-14.1-69.5c-1-9.4-2.7-22.7-4-36s-2.3-26.5-2.7-35.5
		c-1.3-12.1-2.6-15-3.9-14.7s-2.3,3.7-2.4,4.3c-1.6,7.6-1.7,14.3-1.4,23s1.1,19.3,1.8,34.8c-0.5-10.5,0.4-6.7,1.5,2.2
		s2.7,22.9,3.2,32.9c0.6,14.5,3.9,31.8,9.1,49.5c5.3,17.9,12,35.3,20,52.1c2,4.2,4.3,8.4,6.7,12.4c2.6,4.2,5.4,8.5,8.7,12.9
		c4.1,5.8,8.7,11.3,13.9,16.2c1.3,1.2,2.6,2.5,4,3.6l2,1.7c0.7,0.6,1.4,1.1,2,1.6c1.3,1.1,2.7,2.1,4.1,3.1l2.1,1.5l2.2,1.5
		c2.9,2,6,3.9,9.2,5.5l2.5,1.2l1.2,0.6l1.3,0.5l2.6,1c0.9,0.3,1.8,0.6,2.6,0.9c7,2.1,14.2,3.1,21.5,2.9c7-0.1,14-0.8,20.8-1.9
		c3.4-0.6,6.8-1.1,10.2-1.8l5.1-1.1c1.7-0.3,3.4-0.7,5.1-1.2c3.4-0.9,6.8-1.7,10.2-2.7l5.1-1.5l5.1-1.7l2.6-0.9l2.5-1l5.1-2l5-2.2
		l2.5-1.1l2.5-1.2c6.7-3.3,13.1-7.1,19.1-11.6c5.5-4.1,10.7-8.5,15.5-13.4c1.7-1.7,3.5-3.3,5.2-5.1l2.6-2.6l2.4-2.7
		c0.8-0.9,1.6-1.7,2.4-2.6s1.5-1.8,2.2-2.6c1.5-1.7,2.7-3.4,3.8-5c0.5-0.6,0.9-1.2,1.3-1.9s0.8-1.3,1.2-1.9l2.4-3.7
		c1.4-2.5,2.9-4.9,4-7.4l1.8-3.6l1.6-3.6l0.8-1.8c0.2-0.6,0.5-1.2,0.7-1.8c0.5-1.2,0.9-2.4,1.4-3.6c-1.1,2.6-2,5.1-3.1,7.4
		c-0.5,1.2-1.1,2.3-1.6,3.5l-1.7,3.4c-1.1,2.3-2.4,4.5-3.8,6.9c-0.7,1.2-1.5,2.4-2.2,3.6s-1.6,2.5-2.5,3.8c-2.5,3.5-1.8,2.1-0.2-0.7
		s3.9-7.2,5.2-9.7c1.1-2.1,3.7-4.9,4.6-7.1c2.3-4.6,4.2-9.4,5.7-14.3c0.7-2.3,1.5-1.7,1.8-2.8c2.4-7.2,2.7-13.1,4.1-17.7l1.4-5
		c0.4-1.6,0.8-3.2,1.2-4.8c0.5-2,0.8-4,1.1-6.1c0.2-1.3,0.2-2.7,0.3-4.1c-0.2,0.7-0.7,1.3-1.2,1.7c0.3-1.9,0.9-4.7,1.2-6.6
		c-0.2,2-0.9,4.7-1.2,6.6c0.6-0.4,1-1,1.2-1.7c0.8-10.5,1.1-21.1,0.7-31.6l-0.1,0.1c0.1,6.2-0.3,12.3-1.3,18.4
		c0.4-2.7,0.7-2.4,0.5,0.8c-0.2,0.8-0.5,1.6-0.7,2.4c0.2-5.5,0.2-10.9,1.1-16c0,0-0.2-2.3-0.3-3.5c0.2-1.7,0.5-1.6,0.7-2l-0.1-3.6
		c-0.2,1.3-0.5,3.9-0.8,6.2c-0.1,1.1-0.2,2.2-0.3,3L756.2,386.7z"/>
	<path class="st2" d="M745.1,448c0.3-0.8,0.6-1.8,0.9-2.8c-0.6,1.9-1.4,3.7-2.1,5.5s-1.5,3.6-2.3,5.4c0.7-1.1,1.4-2.3,1.8-3.5
		C744,451.2,744.5,449.6,745.1,448z"/>
</g>
<g class="st1">
	<path class="st2" d="M601.5,536.8l0.9-0.2c-0.2,0-0.4-0.1-0.6-0.2C601.6,536.4,601.6,536.6,601.5,536.8z"/>
	<path class="st2" d="M603.3,536.4h0.2l0.1-0.1L603.3,536.4z"/>
	<path class="st2" d="M604.8,535.6c-0.3,0.1-0.6,0.2-0.8,0.3C604.3,535.9,604.6,535.8,604.8,535.6z"/>
	<path class="st2" d="M603.5,535.8c0.1,0.1,0.2,0.2,0.1,0.4l0,0l0.4-0.2C603.8,536,603.6,535.9,603.5,535.8z"/>
	<path class="st2" d="M603.5,535.8c-0.1-0.1-0.3-0.2-0.4-0.2C603.2,535.7,603.3,535.8,603.5,535.8z"/>
	<path class="st2" d="M602.8,532.5c0.1-0.2,0.4,0.8,0.6,0.5c0.5-0.5,1.1-1,1.8-1.4c0.2-0.3,1.1,0.5,1.3,0.2c0.6-0.5,2-2.4,1-1.9
		c-1.6,0.7-2.6,1.3-4,2c-1.1,0.8-2.1,1.6-3.2,2.3c-0.3,0.1-0.7,0.2-1,0.2c0.5,0,1,0,1.5,0C601.5,534.4,601.9,533,602.8,532.5z"/>
	<path class="st2" d="M594.6,538.3l0.4-0.5c0.9,0.5,1.6,0,2.2-0.5l-0.5-0.4c-0.4,0.2-0.4,0.5,0,0.5c-0.9-0.3-1.8-0.2-2.7,0.2
		C594.3,538,594.3,538.2,594.6,538.3z"/>
	<path class="st2" d="M593.7,537.9l0.5-0.2v-0.1L593.7,537.9L593.7,537.9z"/>
	<path class="st2" d="M607.8,533.7c2.1-0.8,4-1.3,6-2c0.1-0.2,0.1-0.5,0.3-0.5c0.2,0.1,0.4,0.1,0.6,0.2l0.8-0.3l0.3-0.2l0,0
		c0.1-0.2,0-0.3-0.1-0.4c-0.1-0.1-0.3-0.1-0.4-0.2c0.1,0,0.3,0.1,0.4,0.2c0.2,0.1,0.4,0.1,0.5,0.1c0.2-0.2,0.5-0.3,0.8-0.3
		c-0.2,0.2-0.5,0.3-0.8,0.3l-0.4,0.3l-0.1,0.1l1.9-0.6l0.4-0.2c0.4-0.3,0.8-0.6,1.3-0.3l0.3-0.1l-0.1-0.1h0.2l1.5-0.5
		c0.2-0.3,0.5-0.6,0.7-0.9l0.5,0.3c0-0.3,0.1-0.5,0.3-0.7c-0.4-0.2-0.7-0.3-1-0.4c-0.5-0.3-0.3,1.2-1,0.5c0.7,0.7,0.5-0.8,1-0.5
		c0.3,0.1,0.6,0.3,1,0.4c0.5-0.4,1.1-0.5,1.7-0.2c-0.4,0.6-1,0.5-1.7,0.2c-0.2,0.2-0.3,0.4-0.3,0.7l-0.5-0.3
		c-0.3,0.3-0.5,0.6-0.7,0.9c1-0.3,1.9-0.7,2.9-1c3.1-1,6.1-2.2,9.1-3.6l4.5-2c1.5-0.7,3-1.5,4.6-2.2l2.6-1.1l2.5-1.1
		c1.7-0.8,3.4-1.4,5-2.1c1.6-0.7,3.2-1.5,4.7-2.4c1.5-0.9,2.9-1.8,4.3-2.7c2.9-2,6.1-3.6,9.4-4.9c1.7-0.8,3.2-1.8,4.5-3
		c1.5-1.3,3-2.7,4-3.7c0.8-1.4,0.5-3.1-0.7-4.1c-0.6-0.6-1.4-1-2.2-1.3c-1.3-0.5-2.8-0.4-4,0.4c-1.4,1-2.9,1.7-4.5,2.1
		c1.5-0.5,1.5,0.3,0.5,1.2c-1.2,1.2-2.8,1.8-4.5,1.7c-2.7-0.2-4.7,1-6.7,2.6s-3.9,3.5-6.2,4.4c-1.2,0.6-2.3,1.3-3.5,2
		c-1.7,0.7-3.4,1.5-5.1,2.5c-0.8,0.4-1.6,0.9-2.4,1.4s-1.6,0.9-2.4,1.4c-1.6,1-3.1,2-4.8,2.9s-3.4,1.8-5.2,2.6
		c-1.7,1-3.3,2.3-4.7,3.7c-1.2,0.5-2.3,0.9-3.6,1.2c-1.4,0.6-2.7,1.4-3.9,2.4c1.4-0.7,2.3-1.4,3.9-2.2c0.5-0.3,0.5,0.1,0.2,0.6
		c-0.3,0.5-0.6,1-1.1,1.4c-0.2,0.3-1.1-0.5-1.3-0.2c-0.6,0.4-1.2,0.9-1.7,1.4c-0.2,0.3-0.5-0.6-0.7-0.4c-0.9,0.6-1.2,2-1.9,2
		c-0.5,0-1,0.1-1.5,0.1c-0.3,0-0.6,0.1-0.8,0.2l-0.5,0.4c0.2,0.3,0.4,0.5,0.6,0.9c-0.3,0-0.7,0-1,0c0.3,0,0.7,0,1,0
		c-0.2-0.3-0.4-0.6-0.6-0.9c-1.2,1-2.4,2-3.7,2.9v0.1c0.8-0.4,1.8-0.5,2.7-0.3c-0.4-0.1-0.5-0.3-0.1-0.5l0.5,0.3
		c-0.6,0.5-1.3,1-2.2,0.6l-0.4,0.5c-0.3,0-0.4-0.3-0.5-0.6l-0.5,0.2C606.6,533.4,607.2,533.6,607.8,533.7z"/>
	<path class="st2" d="M616.2,530.6c-0.1,0.1-0.2,0.2-0.4,0.2l1.6-0.5C617,530,616.6,530.3,616.2,530.6z"/>
</g>
</svg>
