<?xml version="1.0" encoding="utf-8"?>
<!-- Generator: Adobe Illustrator 25.0.0, SVG Export Plug-In . SVG Version: 6.00 Build 0)  -->
<svg version="1.1" id="Layer_1" xmlns="http://www.w3.org/2000/svg" xmlns:xlink="http://www.w3.org/1999/xlink" x="0px" y="0px"
	 viewBox="0 0 841.9 841.9" style="enable-background:new 0 0 841.9 841.9;" xml:space="preserve">
<style type="text/css">
	.st0{fill:#B07D62;}
	.st1{opacity:0.85;}
	.st2{fill:#211F1E;}
	.st3{fill:#1F2020;}
</style>
<rect y="0.1" class="st0" width="841.9" height="841.9"/>
<g class="st1">
	<path class="st2" d="M221.4,499.6l0.8-0.2c-0.1,0-0.3,0-0.4,0C221.6,499.4,221.5,499.5,221.4,499.6z"/>
	<path class="st2" d="M222.9,499.2h0.1l0.1-0.1L222.9,499.2z"/>
	<path class="st2" d="M224.3,498.9c-0.2,0-0.5,0-0.7,0.1C223.8,499,224.1,498.9,224.3,498.9z"/>
	<path class="st2" d="M223.1,498.9c0.1,0,0.2,0.1,0,0.2l0,0l0.4-0.1C223.4,499,223.3,499,223.1,498.9z"/>
	<path class="st2" d="M223.1,498.9c-0.1,0-0.2-0.1-0.3-0.1C223,498.9,223,498.9,223.1,498.9z"/>
	<path class="st2" d="M223.2,497.2c0.1-0.1,0.2,0.4,0.5,0.2l1-0.4c0.3-0.1,0.7-0.1,1-0.2c0.3-0.1,0.8,0.5,1.1,0.4
		c0.7-0.1,2.8-0.4,1.6-0.6c-1.5-0.2-3-0.1-4.4,0.2c-1.2,0.4-2.3,0.8-3.4,1.5c-0.3,0.1-0.6,0.3-0.9,0.4c0.4-0.1,0.8-0.2,1.3-0.3
		c0.4-0.1,0.7-0.3,0.9-0.5C222.3,497.6,222.7,497.3,223.2,497.2z"/>
	<path class="st2" d="M216.4,502.6l0.2-0.4c0.3-0.1,0.6-0.3,0.9-0.5c0.2-0.2,0.4-0.5,0.7-0.7h-0.4c-0.3,0.3-0.2,0.4,0.1,0.3
		c-0.7,0.3-1.4,0.7-1.9,1.3C216.1,502.6,216.2,502.7,216.4,502.6z"/>
	<path class="st2" d="M215.6,502.9l0.3-0.4l0,0L215.6,502.9L215.6,502.9z"/>
	<path class="st2" d="M227.3,498.4c1.8,0.2,3.6,0.8,5.1,1.8c0.2,0,0.3,0,0.4,0.1c0.1,0.1,0.2,0.3,0.3,0.4c0.2,0.1,0.4,0.3,0.6,0.5
		l0.2,0.1l0,0c0.1,0,0.2,0,0.1-0.1c0-0.1-0.1-0.2-0.1-0.3c0,0.1,0.1,0.2,0.1,0.3c0.1,0.1,0.1,0.3,0.2,0.4c0.2,0.1,0.4,0.3,0.5,0.5
		c-0.2-0.1-0.4-0.3-0.5-0.5l-0.4-0.2l-0.1,0c0.4,0.4,0.9,0.8,1.2,1.2c0.1,0.1,0.2,0.2,0.3,0.2c0.3,0.3,0.6,0.6,0.6,0.9l0.2,0.3v-0.1
		c0,0,0,0.1,0,0.1c0.2,0.4,0.5,0.7,0.6,1.1c0.2,0.2,0.5,0.4,0.7,0.6c0,0-0.1,0.2-0.1,0.4c0.2,0.1,0.3,0.2,0.4,0.4
		c0-0.3,0.1-0.5,0.1-0.8c0.1-0.4-0.7-0.4-0.5-0.9c-0.2,0.5,0.6,0.5,0.5,0.9c0,0.2-0.1,0.5-0.1,0.8c0.3,0.4,0.3,0.9,0.2,1.4
		c-0.3-0.4-0.4-0.9-0.2-1.4c-0.1-0.2-0.2-0.3-0.4-0.4c0-0.1,0.1-0.4,0.1-0.4c-0.2-0.2-0.4-0.4-0.7-0.6c0.4,0.8,0.7,1.6,0.9,2.4
		c0.7,2.6,0.6,5.4-0.3,8c-0.9,2.6-2.7,4.8-5,6.2c-2.4,1.6-5.4,2.1-8.2,1.6c-2.5-0.5-4.9-1.7-6.7-3.5c-0.9-0.9-1.6-2-2-3.2
		c-0.4-1.2-0.6-2.5-0.4-3.7c0.1-1.2,0.3-2.4,0.5-3.5c0.3-1.1,0.7-2.2,1.3-3.2c0.4-1.2,0.1-1.9-0.4-2.3c-0.4-0.3-0.8-0.4-1.3-0.4
		c-0.6,0.1-1.1,0.3-1.6,0.6c-0.4,0.3-0.8,0.8-1.1,1.2c-0.8,1.4-1.5,2.9-2,4.4c0.6-1.4,0.7-0.8,0.6,0.4c-0.1,1.5-0.3,3.1-0.6,4.6
		c-0.5,2.2,0.4,4.9,2.2,7c1.9,2.1,4.1,3.7,6.7,4.9c1.3,0.6,2.8,1,4.2,1.1c4.1,0.7,8.4-0.5,11.6-3.1c3.3-2.7,5.5-6.5,6.2-10.6
		c0.2-2.1-0.1-4.2-0.9-6.1c-0.3-1.3-0.7-2.5-1.2-3.8c-0.7-1.4-1.8-2.6-3.1-3.5c1.2,1,2.2,2.1,3,3.5c0.6,1-0.9-0.5-1.5-1
		c-0.3-0.2-0.1-1-0.4-1.1c-0.2-0.3-0.5-0.5-0.8-0.7l-0.9-0.6c-0.3-0.1,0.1-0.5-0.1-0.5c-0.4-0.2-0.9-0.4-1.3-0.5
		c-0.4,0-0.7-0.2-1-0.4c-0.4-0.3-0.7-0.6-1.1-0.8c-0.2-0.2-0.5-0.3-0.8-0.4l-0.6-0.1c0.1,0.2,0.1,0.4,0.1,0.6
		c-0.2-0.1-0.5-0.4-0.8-0.5c0.2,0.1,0.6,0.3,0.8,0.5c0-0.2,0-0.4-0.1-0.6c-1.4-0.2-2.8-0.2-4.2-0.1v0c0.8,0,1.6,0.2,2.3,0.6
		c-0.3-0.2-0.2-0.3,0.1-0.2l0.2,0.3c-0.4,0-0.7,0-1-0.1c-0.4,0-0.7-0.2-1-0.4l-0.5,0.1c-0.2-0.1-0.2-0.2-0.2-0.4c-0.2,0-0.3,0-0.5,0
		C226.4,498,226.8,498.2,227.3,498.4z"/>
	<path class="st2" d="M234.3,501.5l-0.3-0.2c0.4,0.3,0.7,0.6,1,1C235,502,234.7,501.7,234.3,501.5z"/>
</g>
<circle class="st3" cx="225.5" cy="511.8" r="6.1"/>
<g class="st1">
	<path class="st2" d="M231.1,508.6l-0.2-0.4c0,0.1,0,0.1,0,0.2C231,508.6,231.1,508.6,231.1,508.6z"/>
	<polygon class="st2" points="230.7,507.9 230.7,507.9 230.6,507.9 	"/>
	<path class="st2" d="M230.2,507.4c0.1,0.1,0.2,0.2,0.2,0.3C230.4,507.6,230.3,507.5,230.2,507.4z"/>
	<path class="st2" d="M230.5,507.9C230.5,507.9,230.5,507.8,230.5,507.9L230.5,507.9l-0.1-0.1C230.5,507.8,230.5,507.8,230.5,507.9z
		"/>
	<path class="st2" d="M230.5,507.9c0,0.1,0,0.1,0,0.2C230.5,508,230.5,508,230.5,507.9z"/>
	<path class="st2" d="M229.8,508.3c-0.1,0,0.1-0.2,0-0.2c-0.2-0.1-0.5-0.3-0.7-0.4c-0.1,0-0.1-0.4-0.2-0.4s-1-0.2-0.7,0
		c0.5,0.2,0.9,0.5,1.3,0.9c0.4,0.3,0.8,0.6,1.1,1c0.1,0.1,0.1,0.2,0.1,0.4c0-0.2-0.1-0.4-0.1-0.5
		C230.5,508.6,230.1,508.6,229.8,508.3z"/>
	<path class="st2" d="M231.8,511.5l-0.1-0.2c0.1-0.3,0.1-0.7-0.1-0.9l-0.1,0.2c0,0.2,0.1,0.2,0.1,0c-0.1,0.4-0.1,0.7,0,1.1
		C231.7,511.5,231.8,511.5,231.8,511.5z"/>
	<path class="st2" d="M231.7,511.8v-0.2l0,0C231.7,511.6,231.7,511.7,231.7,511.8L231.7,511.8z"/>
	<path class="st2" d="M229,506.6c-0.7-0.5-1.5-0.8-2.4-1c-0.1,0-0.1,0.1-0.2,0c-0.1,0-0.1-0.1-0.2-0.1c-0.1,0-0.2,0-0.4,0h-0.1
		c-0.1,0,0,0.1,0,0.1c0,0,0.1,0.1,0.1,0.1l-0.1-0.1l-0.2-0.1c-0.1,0-0.2,0-0.3,0c0.1,0,0.2,0,0.3,0h0.2h0.1c-0.3,0-0.6,0-0.8,0h-0.2
		c-0.2,0.1-0.4,0.1-0.5,0h-0.1l0,0c-0.2,0-0.4,0.1-0.6,0.1s-0.2,0.2-0.3,0.3l-0.2,0c0,0.1-0.1,0.2-0.2,0.2c0.1,0,0.2,0,0.4,0
		c0.2,0.1,0.2-0.3,0.4-0.2c-0.2-0.1-0.3,0.2-0.4,0.2c-0.1,0-0.2,0-0.4,0c-0.2,0.1-0.4,0.2-0.6,0.2c0.2-0.2,0.4-0.3,0.6-0.2
		c0.1,0,0.1-0.1,0.2-0.2l0.2,0c0.1-0.1,0.2-0.2,0.3-0.3c-0.4,0.1-0.8,0.3-1.2,0.5c-2.6,1.4-3.9,4.3-3.2,7.2c0.4,1.6,1.2,3,2.5,4.1
		c1.3,1,2.8,1.5,4.4,1.4c1.7-0.1,3.2-0.7,4.6-1.6c0.7-0.5,1.3-1.2,1.7-2c0.4-0.8,0.7-1.6,0.7-2.5c-0.1-0.9-0.5-1.1-0.8-1.1
		c-0.2,0-0.4,0.1-0.6,0.2c-0.3,0.3-0.6,0.7-0.8,1.2c-0.2,0.6-0.5,1.1-1,1.5c0.4-0.4,0.4-0.1,0.2,0.3c-0.3,0.5-0.8,0.9-1.4,1
		c-0.8,0.1-1.5,0.3-2.3,0.5c-0.8,0.2-1.6,0.2-2.4-0.1c-0.4-0.2-0.8-0.4-1.1-0.6c-0.9-0.8-1.5-1.8-1.9-2.9c-0.3-1.2-0.1-2.5,0.6-3.5
		c0.3-0.6,0.7-1.1,1.1-1.6c0.4-0.2,0.7-0.4,1.2-0.5c0.5-0.2,1-0.4,1.5-0.5c-0.5,0.1-1,0.2-1.4,0.5c-0.4,0.1,0.1-0.4,0.4-0.5
		c0.1-0.1,0.3,0.1,0.4,0.1c0.2,0,0.5-0.2,0.8-0.2c0.1-0.1,0.1,0.2,0.2,0.1c0.4,0,0.7-0.3,0.9-0.2c0.2,0.1,0.3,0.1,0.5,0.2l0.3,0.1
		h0.2c0-0.1,0-0.2,0-0.3l0.3,0.2l-0.3-0.2c0,0.1,0,0.2,0,0.3c0.6,0.1,1.1,0.2,1.6,0.5l0,0c-0.3-0.2-0.6-0.4-0.8-0.7
		c0.1,0.1,0.1,0.2-0.1,0.1l-0.1-0.2c0.3,0,0.6,0.2,0.8,0.5l0.2,0c0.1,0.1,0,0.1,0,0.2l0.2,0.1C229.2,507,229.1,506.8,229,506.6z"/>
	<path class="st2" d="M225.5,505.6h0.2c-0.2,0-0.5,0-0.7,0C225.1,505.7,225.3,505.6,225.5,505.6z"/>
</g>
<g class="st1">
	<path class="st2" d="M608.7,499.6l0.8-0.2c-0.1,0-0.3,0-0.4,0C608.8,499.4,608.8,499.5,608.7,499.6z"/>
	<path class="st2" d="M610.1,499.2h0.1l0.1-0.1L610.1,499.2z"/>
	<path class="st2" d="M611.5,498.9c-0.2,0-0.5,0-0.7,0.1C611,499,611.3,498.9,611.5,498.9z"/>
	<path class="st2" d="M610.4,498.9c0.1,0,0.2,0.1,0,0.2l0,0l0.4-0.1C610.6,499,610.5,499,610.4,498.9z"/>
	<path class="st2" d="M610.4,498.9c-0.1,0-0.2-0.1-0.3-0.1C610.2,498.9,610.3,498.9,610.4,498.9z"/>
	<path class="st2" d="M610.4,497.2c0.2-0.1,0.2,0.4,0.5,0.2l1-0.4c0.3-0.1,0.7-0.1,1-0.2c0.3-0.1,0.8,0.5,1.1,0.4
		c0.7-0.1,2.8-0.4,1.6-0.6c-1.5-0.2-3-0.1-4.4,0.2c-1.2,0.3-2.3,0.8-3.4,1.5c-0.3,0.1-0.6,0.3-0.9,0.4c0.4-0.1,0.8-0.2,1.3-0.3
		c0.4-0.1,0.7-0.3,0.9-0.5C609.5,497.6,610,497.3,610.4,497.2z"/>
	<path class="st2" d="M603.6,502.6l0.2-0.4c0.3-0.1,0.6-0.3,0.9-0.5c0.2-0.2,0.5-0.5,0.7-0.7h-0.4c-0.3,0.3-0.2,0.4,0.1,0.3
		c-0.7,0.3-1.4,0.7-1.9,1.3C603.3,502.6,603.4,502.7,603.6,502.6z"/>
	<path class="st2" d="M602.9,502.9l0.3-0.4l0,0L602.9,502.9L602.9,502.9z"/>
	<path class="st2" d="M614.5,498.4c1.8,0.2,3.6,0.8,5.2,1.8c0.2,0,0.3,0,0.4,0.1c0.1,0.1,0.2,0.3,0.3,0.4c0.2,0.1,0.4,0.3,0.6,0.5
		l0.2,0.1l0,0c0.2,0,0.2,0,0.1-0.1c0-0.1-0.1-0.2-0.1-0.3c0,0.1,0.1,0.2,0.1,0.3c0.1,0.1,0.1,0.3,0.2,0.4c0.2,0.1,0.4,0.3,0.5,0.5
		c-0.2-0.1-0.4-0.3-0.5-0.5l-0.4-0.2l-0.1,0c0.4,0.4,0.9,0.8,1.2,1.2c0.1,0.1,0.2,0.2,0.3,0.2c0.3,0.3,0.6,0.6,0.6,0.9l0.2,0.3v-0.1
		c0,0,0,0.1,0,0.1c0.2,0.4,0.5,0.7,0.7,1.1c0.2,0.2,0.5,0.4,0.7,0.6l-0.1,0.4c0.2,0.1,0.3,0.2,0.4,0.4c0-0.3,0.1-0.5,0.1-0.8
		c0.1-0.4-0.7-0.4-0.5-0.9c-0.2,0.5,0.6,0.5,0.5,0.9c0,0.2-0.1,0.5-0.1,0.8c0.3,0.4,0.3,0.9,0.2,1.4c-0.3-0.4-0.4-0.9-0.2-1.4
		c-0.1-0.2-0.2-0.3-0.4-0.4l0.1-0.4c-0.2-0.2-0.5-0.4-0.7-0.6c0.4,0.8,0.7,1.6,0.9,2.4c0.7,2.6,0.6,5.4-0.3,8
		c-0.9,2.6-2.7,4.8-5,6.2c-2.4,1.6-5.4,2.1-8.2,1.6c-2.5-0.5-4.9-1.7-6.7-3.5c-0.9-0.9-1.6-2-2-3.2c-0.4-1.2-0.6-2.5-0.4-3.7
		c0.1-1.2,0.3-2.4,0.5-3.5c0.3-1.1,0.7-2.2,1.3-3.2c0.3-1.2,0.1-1.9-0.4-2.3c-0.4-0.3-0.8-0.4-1.3-0.4c-0.6,0.1-1.1,0.3-1.5,0.6
		c-0.4,0.3-0.8,0.8-1.1,1.2c-0.8,1.4-1.5,2.9-2,4.4c0.5-1.4,0.7-0.8,0.6,0.4c-0.1,1.5-0.3,3.1-0.5,4.6c-0.5,2.2,0.4,4.9,2.2,7
		c1.9,2.1,4.2,3.7,6.7,4.9c1.3,0.6,2.8,1,4.2,1.1c4.1,0.7,8.4-0.5,11.6-3.1c3.3-2.7,5.5-6.5,6.2-10.6c0.2-2.1-0.1-4.2-0.9-6.1
		c-0.3-1.3-0.7-2.5-1.2-3.8c-0.7-1.4-1.8-2.6-3.1-3.5c1.2,1,2.2,2.1,3,3.5c0.6,1-0.9-0.5-1.5-1c-0.3-0.2-0.1-1-0.4-1.1
		c-0.2-0.3-0.5-0.5-0.8-0.7l-0.9-0.6c-0.3-0.1,0-0.5-0.1-0.5c-0.4-0.2-0.9-0.4-1.3-0.5c-0.4,0-0.7-0.2-1-0.4
		c-0.4-0.3-0.7-0.6-1.1-0.8c-0.2-0.2-0.5-0.3-0.8-0.4l-0.6-0.1c0.1,0.2,0.1,0.4,0,0.6c-0.2-0.1-0.5-0.4-0.8-0.5
		c0.2,0.1,0.6,0.3,0.8,0.5c0-0.2,0-0.4,0-0.6c-1.4-0.2-2.8-0.2-4.3-0.1v0c0.8,0,1.6,0.2,2.3,0.6c-0.3-0.2-0.2-0.3,0.2-0.2l0.2,0.3
		c-0.3,0-0.7,0-1-0.1c-0.4,0-0.7-0.2-1-0.4l-0.5,0.1c-0.2-0.1-0.2-0.2-0.2-0.4c-0.2,0-0.3,0-0.5,0C613.6,498,614,498.2,614.5,498.4z
		"/>
	<path class="st2" d="M621.5,501.5l-0.3-0.2c0.4,0.3,0.7,0.6,1,1C622.2,502,621.9,501.7,621.5,501.5z"/>
</g>
<circle class="st3" cx="612.7" cy="511.8" r="6.1"/>
<g class="st1">
	<path class="st2" d="M618.3,508.6l-0.2-0.4c0,0.1,0,0.1,0,0.2C618.2,508.6,618.3,508.6,618.3,508.6z"/>
	<polygon class="st2" points="617.9,507.9 617.9,507.9 617.8,507.9 	"/>
	<path class="st2" d="M617.4,507.4c0.1,0.1,0.2,0.2,0.2,0.3C617.6,507.6,617.5,507.5,617.4,507.4z"/>
	<path class="st2" d="M617.8,507.9C617.8,507.9,617.8,507.8,617.8,507.9L617.8,507.9l-0.1-0.1C617.7,507.8,617.7,507.8,617.8,507.9z
		"/>
	<path class="st2" d="M617.8,507.9v0.2C617.8,508,617.8,508,617.8,507.9z"/>
	<path class="st2" d="M617,508.3c-0.1,0,0.1-0.2,0-0.2s-0.5-0.3-0.7-0.4s-0.1-0.4-0.2-0.4c-0.3-0.1-1-0.2-0.7,0
		c0.5,0.2,0.9,0.5,1.3,0.9c0.4,0.3,0.8,0.6,1.1,1c0.1,0.1,0.1,0.2,0.2,0.4c0-0.2-0.1-0.4-0.2-0.5C617.7,508.6,617.3,508.6,617,508.3
		z"/>
	<path class="st2" d="M619,511.5l-0.1-0.2c0.1-0.3,0.1-0.7-0.1-0.9l-0.1,0.2c0,0.2,0.1,0.2,0.1,0c-0.1,0.4-0.1,0.7,0,1.1
		C618.9,511.5,619,511.5,619,511.5z"/>
	<path class="st2" d="M618.9,511.8v-0.2l0,0C618.9,511.6,618.9,511.7,618.9,511.8L618.9,511.8z"/>
	<path class="st2" d="M616.2,506.6c-0.7-0.5-1.5-0.8-2.4-1c-0.1,0-0.1,0.1-0.2,0c-0.1,0-0.1-0.1-0.2-0.1c-0.1,0-0.2,0-0.4,0h-0.1
		c-0.1,0,0,0.1,0,0.1c0,0,0.1,0.1,0.1,0.1c0,0-0.1-0.1-0.1-0.1c-0.1,0-0.1-0.1-0.2-0.1c-0.1,0-0.2,0-0.3,0c0.1,0,0.2,0,0.3,0h0.2
		h0.1c-0.3,0-0.6,0-0.8,0H612c-0.2,0.1-0.4,0.1-0.5,0h-0.2l0,0c-0.2,0-0.4,0.1-0.6,0.1c-0.1,0.1-0.2,0.2-0.3,0.3l-0.2,0
		c0,0.1-0.1,0.2-0.2,0.2c0.1,0,0.2,0,0.4,0c0.2,0.1,0.2-0.3,0.4-0.2c-0.2-0.1-0.3,0.2-0.4,0.2c-0.1,0-0.2,0-0.4,0
		c-0.2,0.1-0.4,0.2-0.6,0.2c0.1-0.2,0.4-0.3,0.6-0.2c0.1,0,0.1-0.1,0.2-0.2l0.2,0c0.1-0.1,0.2-0.2,0.3-0.3c-0.4,0.1-0.8,0.3-1.2,0.5
		c-2.6,1.4-3.9,4.3-3.2,7.2c0.3,1.6,1.2,3,2.5,4.1c1.3,1,2.8,1.5,4.5,1.4c1.7-0.1,3.2-0.7,4.6-1.6c0.7-0.5,1.3-1.2,1.7-2
		c0.4-0.8,0.6-1.6,0.7-2.5c-0.1-0.9-0.5-1.1-0.8-1.1c-0.2,0-0.4,0.1-0.6,0.2c-0.3,0.3-0.6,0.7-0.8,1.2c-0.2,0.6-0.5,1.1-1,1.5
		c0.4-0.4,0.4-0.1,0.2,0.3c-0.3,0.5-0.8,0.9-1.4,1c-0.8,0.1-1.5,0.3-2.3,0.5c-0.8,0.2-1.6,0.2-2.4-0.1c-0.4-0.2-0.8-0.4-1.1-0.6
		c-0.9-0.8-1.5-1.8-1.9-2.9c-0.3-1.2-0.1-2.5,0.5-3.5c0.3-0.6,0.7-1.1,1.1-1.6c0.4-0.2,0.8-0.4,1.2-0.5c0.5-0.2,1-0.4,1.5-0.5
		c-0.5,0.1-1,0.2-1.5,0.5c-0.4,0.1,0.1-0.4,0.4-0.5c0.1-0.1,0.3,0.1,0.4,0.1s0.5-0.2,0.7-0.2c0.1-0.1,0.1,0.2,0.2,0.1
		c0.4,0,0.7-0.3,0.9-0.2c0.2,0.1,0.3,0.1,0.5,0.2l0.3,0.1h0.2c0-0.1,0-0.2,0-0.3c0.1,0.1,0.2,0.1,0.3,0.2c-0.1-0.1-0.2-0.1-0.3-0.2
		c0,0.1,0,0.2,0,0.3c0.6,0.1,1.1,0.2,1.7,0.5l0,0c-0.3-0.2-0.6-0.4-0.8-0.7c0.1,0.1,0.1,0.2-0.1,0.1l-0.1-0.2c0.3,0,0.6,0.2,0.8,0.5
		l0.2,0c0.1,0.1,0,0.1,0,0.2l0.2,0.1C616.4,507,616.3,506.8,616.2,506.6z"/>
	<path class="st2" d="M612.7,505.6h0.2c-0.2,0-0.5,0-0.7,0C612.3,505.7,612.5,505.6,612.7,505.6z"/>
</g>
<g class="st1">
	<path class="st2" d="M233.7,562.2c-1.1-0.2-2.3-0.6-3.4-0.9c0.6,0.2,1.1,0.5,1.6,0.8C232.5,562.3,233.1,562.3,233.7,562.2z"/>
	<path class="st2" d="M227.2,560.4l-0.6-0.2h-0.5L227.2,560.4z"/>
	<path class="st2" d="M221.3,558.7c1,0.4,2,0.7,3,1C223.4,559.3,222.4,558.9,221.3,558.7z"/>
	<path class="st2" d="M225.9,560.5c-0.3-0.2-0.4-0.4,0.2-0.4l0,0c-0.6-0.1-1.2-0.3-1.8-0.5C224.8,559.9,225.4,560.2,225.9,560.5z"/>
	<path class="st2" d="M225.9,560.5c0.3,0.2,0.8,0.5,1,0.6C226.6,560.9,226.2,560.7,225.9,560.5z"/>
	<path class="st2" d="M223.4,563.2c-0.6-0.1-0.2-1-1.4-1.2c-1.4-0.4-2.8-0.6-4.1-1s-2.6-0.8-3.9-1.3c-1.3-0.2-2.6-2.1-3.8-2.5
		c-0.7-0.3-1.7-0.6-2.7-0.9s-2-0.8-2.9-1c-1.7-0.6-2.5-0.7-0.5,0.4c2.6,1.4,5.3,2.7,8.1,3.9c1.3,0.5,2.5,0.9,3.8,1.4s2.6,1,4.1,1.4
		c2.4,0.6,4.7,1.2,7.1,1.6s4.7,0.9,7.2,1.2c1.4,0.2,2.6,0.6,3.9,1l-5.1-1.7c-1.4-0.4-2.8-0.6-4.2-0.7c-0.8-0.1-1.7-0.1-2.6-0.2
		l-1.4-0.2C224.3,563.5,223.9,563.4,223.4,563.2z"/>
	<path class="st2" d="M259.3,566.5l-1.9,0.2c-1.3-0.4-2.7-0.7-4.1-0.8c-1.4-0.2-2.9-0.2-4.3-0.2l1.2,0.6c1.6,0.1,1.9-0.1,0.4-0.5
		c3.1,0.9,6.4,1.4,9.7,1.5C260.1,567.1,260.2,566.8,259.3,566.5z"/>
	<path class="st2" d="M262.2,567.4l-1.9-0.1c0,0,0,0.1,0.1,0.1L262.2,567.4L262.2,567.4z"/>
	<path class="st2" d="M209.1,554.3c-7-3.5-13.3-8.3-18.6-14c-0.6-0.2-1-0.6-1.4-1.1c-0.3-0.5-0.6-1-0.9-1.5c-0.7-0.8-1.3-1.7-2-2.6
		l-0.8-0.9l0,0c-0.5-0.4-0.5-0.2-0.4,0.2c0.2,0.4,0.3,0.7,0.4,1.1c-0.1-0.2-0.3-0.8-0.4-1.1s-0.5-1-0.8-1.6
		c-0.6-0.8-1.2-1.7-1.7-2.6c0.7,0.8,1.2,1.7,1.7,2.6c0.4,0.5,0.8,1,1.2,1.4l0.4,0.4l-1.1-1.5l-1-1.6c-0.6-1.1-1.4-2.1-1.9-3.2
		c-0.3-0.5-0.6-1-0.8-1.3c-0.5-0.8-1-1.5-1.4-2.2c-0.3-0.6-0.5-1.3-0.6-2c-0.2-0.4-0.4-0.8-0.5-1.2v0.3c-0.1-0.2-0.1-0.3-0.1-0.5
		c-0.8-1.7-1.3-3.5-1.9-5.3c-0.6-1.1-1.2-2.2-1.7-3.4c0,0,0.1-0.9,0.1-1.4c-0.5-0.6-0.8-1.2-1-1.9c0,1.1,0,2,0,2.9
		c-0.1,1.4,1.7,2.5,1.4,4.2c0.3-1.7-1.4-2.8-1.4-4.2c0-0.9,0-1.9,0-2.9c-0.6-1.9-0.9-3.9-0.8-5.9c0.4,1,0.6,2,0.7,3.1
		c0.1,0.9,0.1,1.9,0,2.8c0.2,0.7,0.5,1.3,1,1.9c0,0.4-0.1,1.3-0.1,1.3c0.5,1.2,1,2.3,1.7,3.4l-0.4-1.3l-0.4-1.3l-0.7-2.7
		c-0.3-0.9-0.4-1.8-0.6-2.7s-0.4-1.8-0.6-2.8c-1-5.9-1.5-11.9-1.7-17.9c-0.1-5.9,0.2-11.8,0.8-17.7c0.2-1.5,0.3-2.9,0.5-4.4l0.3-2.2
		l0.3-2.2c0.2-1.5,0.4-3,0.7-4.5l0.8-4.5l0.4-2.2l0.5-2.2c0.3-1.5,0.6-3,1-4.5c0.8-3,1.4-6.1,2.3-9.1l1.4-5c0.4-1.7,0.9-3.4,1.4-5
		l0.7-2.5c0.2-0.8,0.4-1.7,0.6-2.5c0.4-1.7,0.8-3.3,1.1-5c0.6-3.3,1.4-6.6,1.8-10c0.2-1.7,0.6-3.3,0.8-5l0.6-5
		c0.8-6.4,1.1-12.9,1.1-19.4c0-3.2-0.1-6.4-0.2-9.6s-0.3-6.4-0.6-9.5c-0.5-6.3-1.2-12.6-2.1-19s-1.7-12.9-2.7-19.5
		c-1.1-6.5-2.7-13-4.7-19.3c-2.2-7-4.8-13.8-6.6-18.5c-3.2-6-5.3-6.9-6.4-6.2s-1.3,2.8-1.3,3.1c0,4.4,0.9,7.8,2.2,12.2
		c1.9,5.8,3.4,11.7,4.4,17.8c-1-5.4,0.1-3.7,1.6,0.8c1.7,5.6,2.7,11.3,2.8,17.1c-0.2,7.7,1.2,16.6,2.5,26s2.4,19.3,1.9,28.4
		c-0.2,2.3-0.2,4.6-0.3,7.1s-0.2,5-0.4,7.8c-0.8,7-1.9,13.9-3.2,20.6l-1,5c-0.3,1.7-0.8,3.3-1.2,5l-2.5,10.4
		c-3.4,14.7-5.5,29.6-6.2,44.6c-0.1,7.7,0.8,15.3,2.6,22.8c0.2,1.3,0.5,2.6,0.7,3.9s0.5,2.6,0.8,3.9c0.1,0.6,0.2,1.3,0.4,1.9
		s0.3,1.2,0.4,1.8c0.3,1.2,0.6,2.3,0.9,3.3c1.9,5.8,4.7,11.2,8.3,16.1c-0.9-1.3-1.6-2.5-2.3-3.7l-1.1-1.8c-0.4-0.6-0.6-1.2-1-1.8
		c-0.6-1.2-1.3-2.5-1.9-3.9s-1.1-2.9-1.8-4.5c-0.7-2.2-0.2-1.5,0.7,0c0.5,0.8,1,1.8,1.5,2.7s1,1.9,1.4,2.5c0.7,1.1,0.6,3.4,1.3,4.5
		c0.7,1.2,1.4,2.4,2.2,3.5l0.6,0.9c0.2,0.3,0.4,0.5,0.7,0.8c0.4,0.6,0.9,1.1,1.4,1.7c0.9,1,0,1.4,0.4,1.9c1.2,1.4,2.6,2.7,4,3.9
		c1.2,0.9,2.3,1.9,3.2,3c0.6,0.8,1.2,1.5,1.9,2.2l1.8,2c0.8,0.8,1.6,1.6,2.5,2.2l1.9,1.2c-0.2-0.4-0.3-1-0.1-1.4
		c0.4,0.3,0.9,0.8,1.3,1.3s1,0.8,1.4,1.2c-0.4-0.3-0.9-0.7-1.4-1.2s-0.9-0.9-1.3-1.3c-0.1,0.5-0.1,1,0.1,1.4l0.9,0.5l0.9,0.5l1.9,1
		c1.2,0.7,2.5,1.4,3.8,2s2.6,1.3,3.9,1.9l4,1.6V557c-1.5-0.7-3-1.4-4.4-2.2c-1.4-0.9-2.7-1.9-4-3c1.2,0.9,0.9,1.1-0.6,0.2l-0.8-1.1
		c1.2,0.8,2.6,1.3,3.8,2c1.2,0.7,2.4,1.5,3.5,2.4l1.8,0.5c0.8,0.5,0.6,0.8,0.7,1.1c0.6,0.2,1.2,0.5,1.8,0.8
		c-0.5-0.5-1.7-1.4-2.7-2.1L209.1,554.3z"/>
	<path class="st2" d="M184.2,532.8c0.3,0.4,0.6,0.8,1,1.2c-0.6-0.8-1.1-1.7-1.7-2.6s-1.1-1.8-1.6-2.7
		C182,529.9,183.1,531.3,184.2,532.8z"/>
</g>
<g class="st1">
	<path class="st2" d="M607.9,565.5c1.2-0.2,2.3-0.5,3.5-0.8c-0.6,0.1-1.2,0.1-1.8,0.2C609,564.9,608.4,565.2,607.9,565.5z"/>
	<path class="st2" d="M614.6,563.8l0.6-0.2l0.5-0.2L614.6,563.8z"/>
	<path class="st2" d="M620.5,561.7c-1,0.3-2,0.7-3,1.1C618.5,562.5,619.5,562.1,620.5,561.7z"/>
	<path class="st2" d="M615.7,563c0.4,0,0.6,0.1,0.1,0.4l0,0c0.6-0.2,1.2-0.5,1.8-0.7C616.9,562.9,616.3,563,615.7,563z"/>
	<path class="st2" d="M615.7,563c-0.4,0-1,0-1.2,0C614.9,563.1,615.3,563.1,615.7,563z"/>
	<path class="st2" d="M616.2,559.3c0.5-0.3,0.7,0.7,1.8,0.1c1.3-0.6,2.5-1.1,3.6-1.8c1.1-0.6,2.3-1.2,3.5-1.7c1-0.6,3.2-0.5,4.2-1.2
		c0.6-0.4,1.4-0.9,2.3-1.5s1.6-1.3,2.2-1.9c1.2-1.1,1.7-1.7-0.1-0.7c-2.6,1.7-5,2.8-7.2,4.1c-1.1,0.6-2.3,1.1-3.5,1.6
		s-2.4,1.1-3.7,1.6c-2.2,0.9-4.2,1.9-6.4,2.7s-4.4,1.7-6.7,2.3c-1.3,0.3-2.6,0.5-3.8,0.8l5.2-0.7c1.4-0.2,2.7-0.7,3.9-1.4
		c0.7-0.3,1.4-0.7,2.2-1.1l1.2-0.5L616.2,559.3z"/>
	<path class="st2" d="M581.9,568.8l1.8-0.5c1.4,0.2,2.8,0.2,4.2,0.1c1.4-0.2,2.8-0.5,4.3-0.8l-1.3-0.3c-1.6,0.2-1.8,0.5-0.3,0.6
		c-3.3-0.1-6.6,0-9.8,0.4C581,568.4,580.9,568.7,581.9,568.8z"/>
	<path class="st2" d="M578.8,568.4l1.9-0.2l-0.1-0.1L578.8,568.4L578.8,568.4z"/>
	<path class="st2" d="M632.2,555.6c7-3.6,13.4-8.4,18.9-14c0.2-0.6,0.5-1.1,1-1.5c0.5-0.3,1-0.7,1.5-1.1c0.8-0.8,1.4-1.7,2.1-2.6
		l0.7-1l0,0c0.3-0.6,0.1-0.5-0.3-0.3c-0.3,0.3-0.6,0.5-1,0.7c0.2-0.1,0.6-0.5,1-0.7c0.5-0.4,0.9-0.8,1.3-1.3
		c0.5-0.9,1.1-1.8,1.7-2.7c-0.5,0.9-1.1,1.8-1.7,2.7c-0.3,0.6-0.7,1.1-1,1.6l-0.3,0.5l1.2-1.5l1.1-1.6c0.7-1.1,1.5-2.1,2.1-3.2
		c0.3-0.5,0.5-1,0.7-1.4c0.4-0.8,0.8-1.7,1.2-2.4c0.3-0.7,0.7-1.3,1.2-1.8c0.2-0.4,0.4-0.8,0.6-1.2l-0.2,0.2l0.3-0.4
		c0.9-1.7,1.5-3.5,2.2-5.3c0.3-1.2,0.4-2.5,0.6-3.8l0.8-1.1c-0.1-0.7,0-1.5,0.1-2.2c-0.5,0.9-1.1,1.7-1.5,2.5
		c-0.8,1.1,0.2,3-1.2,4.2c1.4-1.1,0.4-3.1,1.2-4.2c0.4-0.8,1-1.6,1.5-2.5c0.1-1,0.4-2,0.7-2.9c0.3-1,0.7-2,1.1-2.9
		c0,1.1-0.2,2.2-0.5,3.2c-0.3,0.9-0.7,1.8-1.2,2.6c-0.1,0.7-0.2,1.5-0.1,2.2l-0.8,1.1c-0.2,1.3-0.3,2.6-0.6,3.8l0.5-1.3l0.4-1.3
		c0.3-0.9,0.6-1.8,0.9-2.7s0.5-1.8,0.8-2.8l0.7-2.8c1.3-6,2.1-12.1,2.4-18.3c0.2-6,0.1-12.1-0.4-18.1c-0.1-1.5-0.3-3-0.4-4.5
		l-0.2-2.3l-0.3-2.3c-0.2-1.5-0.4-3-0.6-4.5s-0.5-3-0.7-4.5c-0.1-0.8-0.2-1.5-0.4-2.3s-0.3-1.5-0.4-2.3c-0.3-1.5-0.6-3.1-0.9-4.6
		c-0.7-3.1-1.3-6.2-2-9.3c-0.4-1.7-0.8-3.4-1.2-5.1l-1.1-5c-0.2-0.8-0.3-1.6-0.5-2.5l-0.4-2.5c-0.3-1.6-0.6-3.3-0.8-4.9
		c-0.4-3.3-0.9-6.5-1.1-9.8c-0.1-1.6-0.3-3.2-0.4-4.9s-0.2-3.2-0.2-4.8c-0.2-6.4-0.3-12.7-0.1-18.9c0-3.1,0.2-6.2,0.4-9.3
		s0.4-6.1,0.8-9.2c0.6-6.2,1.5-12.3,2.8-18.3c1.2-6.2,2.9-12.4,4.9-18.4c1.5-4.7,3.4-11.5,5.5-18.2s4.3-13.3,6-17.8
		c1.6-6.2,1-8.1-0.2-8.5s-2.9,0.8-3.2,1.1c-3.2,3-4.9,6.3-6.7,10.6s-3.6,9.7-6.9,17.4c2.1-5.2,2.1-3.1,0.9,1.6
		c-1.4,5.7-3.3,11.4-5.7,16.8c-3.5,7.1-5.4,16.4-6.4,26.3s-1.2,20.2-1.6,29.8c-0.1,2.4-0.1,4.9,0,7.5s0.2,5.3,0.5,8.2
		c0.3,7.4,1,14.7,2.4,22l1.1,5.4c0.4,1.8,0.9,3.6,1.3,5.3l0.7,2.7l0.7,2.5c0.4,1.7,0.9,3.4,1.3,5c3.4,13.5,6.2,27.4,6.5,42.1
		c0.2,7.8,0.7,14.6,0.2,21.2c-0.2,1.2-0.3,2.4-0.6,3.6s-0.6,2.3-0.9,3.5c-0.2,0.6-0.3,1.1-0.5,1.7s-0.4,1.1-0.5,1.6
		c-0.3,1-0.7,2-0.9,2.9c-1.7,5.1-3.7,10.1-6.1,14.9c0.7-1.1,1.3-2.3,1.8-3.5c0.3-0.6,0.5-1.1,0.8-1.7s0.5-1.1,0.7-1.7
		c0.5-1.2,1-2.3,1.4-3.6s0.9-2.6,1.4-4.1c0.6-2,0.7-1.2,0.5,0.4c-0.1,0.8-0.3,1.8-0.5,2.8c-0.1,0.9-0.4,1.8-0.6,2.6
		c-0.3,1.2-2,2.4-2.3,3.6c-0.6,1.1-1.1,2.3-1.6,3.4c-0.1,0.3-0.2,0.6-0.3,0.9s-0.3,0.6-0.4,0.9l-0.9,1.8c-0.5,1.1-1.2,0.5-1.4,1
		c-0.9,1.4-1.7,2.9-2.4,4.5c-0.6,1.2-1.4,2.3-2.4,3.3c-0.6,0.6-1.3,1.2-2,1.7l-2,1.5c-0.8,0.7-1.6,1.2-2.4,2l-1.5,1.5
		c0.5-0.1,0.9,0,1.4,0.2c-0.4,0.3-0.9,0.6-1.5,1s-1.1,0.6-1.5,0.9c0.4-0.3,1-0.5,1.5-0.9s1-0.7,1.5-1c-0.4-0.2-0.9-0.3-1.4-0.2
		l-0.7,0.7l-0.7,0.6l-1.5,1.3c-1,0.9-2.1,1.8-3.2,2.5c-1.1,0.8-2.3,1.6-3.5,2.4l-3.6,2.1h0.1c1.4-0.8,2.9-1.4,4.3-2.1
		c1.5-0.8,3-1.4,4.5-2c-1.4,0.5-1.3,0.2,0-0.7l1.3-0.3c-1.1,0.9-2.3,1.8-3.5,2.5c-1.2,0.8-2.5,1.3-3.9,1.6l-1.5,1.1
		c-0.9,0.3-1,0-1.3-0.2c-0.6,0.3-1.1,0.6-1.7,0.9c1.1-0.2,2.2-0.4,3.3-0.8L632.2,555.6z"/>
	<path class="st2" d="M657.4,533.9c-0.3,0.5-0.5,0.9-0.9,1.3c0.7-0.8,1.3-1.7,1.8-2.6c0.6-0.9,1.2-1.8,1.8-2.7
		C659,531.1,658,532.4,657.4,533.9z"/>
</g>
</svg>
