<?xml version="1.0" encoding="utf-8"?>
<!-- Generator: Adobe Illustrator 25.0.0, SVG Export Plug-In . SVG Version: 6.00 Build 0)  -->
<svg version="1.1" id="Layer_1" xmlns="http://www.w3.org/2000/svg" xmlns:xlink="http://www.w3.org/1999/xlink" x="0px" y="0px"
	 viewBox="0 0 841.9 841.9" style="enable-background:new 0 0 841.9 841.9;" xml:space="preserve">
<style type="text/css">
	.st0{fill:#E6B8A2;}
	.st1{opacity:0.85;}
	.st2{fill:#211F1E;}
	.st3{fill:#262524;}
</style>
<rect class="st0" width="841.9" height="841.9"/>
<g class="st1">
	<path class="st2" d="M166.4,372.4c-1.6,1.1-3.1,2.4-4.7,3.6c0.8-0.6,1.6-1.1,2.5-1.6C165.1,373.8,165.8,373.2,166.4,372.4z"/>
	<path class="st2" d="M157.5,379.4l-0.8,0.7l-0.6,0.6L157.5,379.4z"/>
	<path class="st2" d="M150,386.4c1.4-1.2,2.6-2.4,3.9-3.5C152.5,384,151.2,385.2,150,386.4z"/>
	<path class="st2" d="M156.2,381.1c-0.6,0.3-0.9,0.4-0.2-0.4l0,0c-0.8,0.7-1.5,1.4-2.2,2.1C154.6,382.3,155.4,381.7,156.2,381.1z"/>
	<path class="st2" d="M156.2,381.1c0.6-0.3,1.4-0.8,1.7-1C157.4,380.4,156.9,380.8,156.2,381.1z"/>
	<path class="st2" d="M156.5,385.4c-0.7,0.8-1.1-0.1-2.5,1.4c-1.7,1.7-3.1,3.3-4.6,4.9s-2.9,3.2-4.4,4.8c-0.8,0.9-1.7,1.7-2.7,2.4
		c-1,0.7-1.9,1.5-2.6,2.5c-3.1,3.7-9.2,14-5,8.4c1.6-2.1,3.1-4,4.5-5.8s2.9-3.4,4.3-5s2.8-3.2,4.3-4.7l2.3-2.4l2.5-2.4
		c5.4-5.6,11.2-10.9,17.2-15.9l1.3-1l0.7-0.5c0.1-0.1,0.3-0.2,0.4-0.3l0.3-0.3l2.5-2l-1.7,1.3c-0.6,0.4-1.1,0.9-1.8,1.3l-3.7,2.5
		c-1.9,1.4-3.6,2.9-5.2,4.6l-2.8,3C158.8,383.2,157.7,384.3,156.5,385.4z"/>
	<path class="st2" d="M198.6,343.8c-0.6,0.8-1.8,2.5-1.8,2.5c-3.6,3-7,6.2-10.1,9.7l1.9-1.1c1.9-1.9,2-2.3,0.1-0.8
		c4.3-3.3,8.2-7,11.8-11.1C199.9,343,199.7,342.8,198.6,343.8z"/>
	<path class="st2" d="M202.3,340.5l-2,2.5h0.1l2-2.5L202.3,340.5z"/>
	<path class="st2" d="M135.6,402.8c-8.7,10.5-15.7,21.4-20.2,33.1c-0.1,1-0.3,2-0.7,2.9c-0.5,0.9-0.9,1.8-1.2,2.7
		c-0.6,1.8-1,3.5-1.4,5.3c-0.1,0.6-0.2,1.3-0.3,1.9v0c-0.1,1,0.1,0.8,0.4,0.2s0.5-1.3,0.7-1.8c-0.2,0.3-0.4,1.2-0.7,1.8
		c-0.1,0.4-0.3,0.9-0.4,1.3c-0.1,0.5-0.2,1-0.3,1.5c-0.2,1.7-0.3,3.4-0.5,5.2c0-1,0.1-1.9,0.1-2.8s0.2-1.6,0.4-2.4l0.2-1.5
		c0.1-0.5,0.2-1,0.2-1.5c0-0.3,0-0.6,0.1-0.9c-0.9,4.1-1.4,8.3-1.4,12.5c0,1,0.1,1.9,0.1,2.6s0.1,1.5,0.2,2.2s0.2,1.5,0.2,2.1
		c0.2,1.2,0.2,2.4,0.2,3.5c0.1,0.7,0.3,1.5,0.4,2.2v-0.5c0,0.3,0.1,0.6,0.1,0.9c0.7,3.1,1.6,6.2,2.8,9.1c1,1.8,2.1,3.6,3.3,5.4
		c0,0,0.1,0.4,0.2,0.8l0.4,1.3c0.4,0.4,0.7,0.7,1.1,1.2c0.4,0.5,0.8,1,1.3,1.5c-0.8-1.5-1.3-3-1.9-4.4c-0.4-1.1-1.1-2.1-1.8-2.9
		c-0.8-1-1.3-2.2-1.4-3.5c0.1,1.3,0.6,2.5,1.4,3.5c0.8,0.9,1.4,1.9,1.8,2.9c0.6,1.3,1.1,2.8,1.9,4.4c0.9,1.2,2,2.5,3,3.9
		c0.5,0.7,1.1,1.4,1.6,2.1l1.5,2c-1.4-1.1-2.6-2.5-3.7-3.9c-0.9-1.3-1.7-2.6-2.3-4c-0.4-0.6-0.9-1.1-1.3-1.5
		c-0.3-0.4-0.7-0.8-1.1-1.2l-0.4-1.3c-0.1-0.4-0.2-0.8-0.2-0.8c-1.2-1.8-2.3-3.6-3.3-5.4c2.4,5.9,5.8,11.3,10,16.1
		c6.8,7.7,15.2,13.8,24.6,18c9.2,4.1,18.9,6.9,28.9,8.3c10,1.5,20.2,2,30.3,1.5c10.4-0.5,20.8-1.8,31.1-3.9
		c5.7-1.2,11.2-2.7,16.7-4.6c5.4-1.9,10.6-4,15.8-6.5c10-4.9,19.5-10.9,28.3-17.7c8.5-6.6,16.4-14,23.6-22.1c3.6-3.9,7-8,10.2-12.1
		c3.3-4.1,6.4-8.4,9.4-12.7c12-17.2,22.3-35.5,32.5-55.1c4.8-9.7,9.1-19.8,12.8-30c4.1-11.3,7.6-22.7,9.8-30.6
		c2.2-10.8,1.3-13.8,0.1-13.8s-3.1,2.7-3.3,3.1c-3.4,6-5.4,11.5-7.8,18.7c-3.2,9.6-6.9,19-11.3,28.2c3.8-8.3,3.2-5,0.4,2.4
		c-1.4,3.7-3.4,8.3-5.6,12.9c-2.1,4.4-4.5,8.7-7.2,12.9c-7,10.5-14.1,23.7-22.5,37s-17.9,26.8-28.6,37.5c-5.7,5.9-11.7,11.5-18,16.7
		c-18.4,14.2-38.6,24.5-60.8,28.8c-11.3,2.3-22.8,3.6-34.3,3.7c-17.9,0.3-35.6-3.4-51.9-10.7c-5-2.3-9.7-5.1-14-8.5
		c-3-2.5-5.6-5.4-7.8-8.5c-2-2.8-3.8-5.9-5.2-9c-3.8-7.9-5.7-16.6-5.6-25.4c-0.2,4.2,0.2,8.4,1,12.5c0.9,4.3,2.3,8.5,4.2,12.4
		c0.7,1.5,0.9,2,0.7,1.9c-0.6-0.6-1.1-1.3-1.4-2c-1.6-2.5-2.8-5.2-3.8-8c-0.8-1.8-0.2-5-0.7-6.9c-0.6-4.2-0.9-8.4-0.8-12.6
		c0-2,1-1.6,1-2.6c0-0.4,0.1-0.8,0.1-1.1s0.1-0.8,0.1-1.1c0.1-0.7,0.2-1.4,0.2-2.1c0.2-1.4,0.3-2.7,0.5-4s0.4-2.4,0.7-3.5
		c0.3-1,0.6-2,1-3c0.6-1.4,1.2-2.7,1.8-4s1.3-2.5,1.9-3.7c0.8-1.5,1.6-3,2.5-4.6c0.5-1,1-2.1,1.5-3.1c-0.5,0.4-1,0.7-1.7,0.9
		c0.9-1.5,2.3-3.4,3.3-4.8c-0.9,1.4-2.4,3.3-3.3,4.8c0.6-0.1,1.2-0.4,1.7-0.9c2-4,4.3-7.8,6.8-11.5c2.6-3.9,5.5-7.6,8.4-11.2h-0.1
		c-3.5,4-6.9,8-10.6,12.2c1.6-1.8,1.6-1.4,0.1,0.8l-1.6,1.4c2.4-4.1,5.3-7.8,8.7-11c0,0,0.3-0.4,0.7-0.9s0.8-1.1,1.1-1.6
		c1.1-1,1.3-0.8,1.7-0.9c0.7-0.8,1.4-1.6,2.1-2.4c-0.5,0.3-1.2,0.9-1.9,1.5s-1.6,1.4-2.3,2.1C136.8,401.5,135.6,402.8,135.6,402.8z"
		/>
	<path class="st2" d="M111.4,451.9c0.1-0.7,0.2-1.6,0.3-2.6c-0.7,3.4-1.1,6.9-1.2,10.5C111.1,457.9,111.1,454.9,111.4,451.9z"/>
</g>
<g class="st1">
	<path class="st2" d="M146.1,507.4l0.2-0.6c-0.1,0.1-0.2,0.2-0.4,0.2C145.9,507.1,146,507.2,146.1,507.4z"/>
	<path class="st2" d="M146.5,506.2v-0.1V506C146.5,506.1,146.5,506.1,146.5,506.2z"/>
	<path class="st2" d="M146.7,505.1c-0.1,0.2-0.1,0.4-0.1,0.6C146.7,505.5,146.7,505.3,146.7,505.1z"/>
	<path class="st2" d="M146.2,505.9c0.1,0,0.2,0,0.3,0.1l0,0v-0.4C146.5,505.7,146.4,505.8,146.2,505.9z"/>
	<path class="st2" d="M146.2,505.9c-0.1,0-0.2,0.1-0.3,0.1C146,506,146.2,505.9,146.2,505.9z"/>
	<path class="st2" d="M143.9,504.9c0-0.1,0.6,0.1,0.6-0.2c0-0.5-0.3-1-0.2-1.5c-0.1-0.2,0.7-0.4,0.6-0.6c-0.1-0.5-0.8-2-0.9-1.2
		c-0.1,1.1-0.1,1.9-0.2,2.9c0,0.9,0.1,1.7,0.1,2.6c-0.1,0.2-0.1,0.4-0.3,0.6c0.2-0.2,0.4-0.5,0.6-0.8S143.8,505.6,143.9,504.9z"/>
	<path class="st2" d="M144.1,511.8c0-0.1-0.1-0.4-0.1-0.4c0.7-0.3,0.7-0.8,0.7-1.4l-0.4,0.1c-0.1,0.3,0.1,0.4,0.3,0.2
		c-0.5,0.4-0.9,0.9-1,1.5C143.7,511.8,143.9,511.9,144.1,511.8z"/>
	<path class="st2" d="M143.4,512.1c0-0.1,0.1-0.2,0.1-0.3h-0.1L143.4,512.1L143.4,512.1z"/>
	<path class="st2" d="M146.6,502.6c0.1-0.4,0.1-0.7,0.2-1.1l0.1-1.1c0.1-0.7,0.2-1.4,0.3-2.1c-0.1-0.1-0.3-0.2-0.2-0.3
		c0.1-0.1,0.2-0.2,0.3-0.3l0.1-0.6c0-0.1,0-0.1,0-0.2l0,0c-0.1-0.1-0.2-0.1-0.3,0c-0.1,0.1-0.2,0.1-0.3,0.2c0.1,0,0.2-0.1,0.3-0.2
		c0.1-0.1,0.2-0.2,0.2-0.3c0-0.2,0-0.4,0-0.6c0.1,0.2,0.1,0.4,0,0.6l0.1,0.3l0.1,0.1l0.2-1.4c0-0.1-0.1-0.2-0.1-0.3
		c-0.1-0.3-0.2-0.7,0.1-0.9v-0.2l-0.1,0l0.1-0.1c0-0.4,0-0.7,0-1.1c-0.1-0.2-0.4-0.4-0.5-0.6l0.3-0.3c-0.2-0.1-0.3-0.2-0.4-0.3
		c-0.2,0.2-0.4,0.4-0.5,0.6c-0.3,0.3,0.8,0.4,0.2,0.8c0.7-0.4-0.5-0.5-0.2-0.8c0.1-0.2,0.3-0.4,0.5-0.6c-0.2-0.4-0.1-0.8,0.1-1.2
		c0.4,0.4,0.1,0.8-0.1,1.2c0.1,0.2,0.3,0.3,0.4,0.3l-0.3,0.3c0.1,0.2,0.4,0.4,0.5,0.6c0-0.7-0.1-1.4-0.2-2.1c-0.3-2.3-1-4.5-2.1-6.5
		c-1.2-2.1-2.6-4-4.4-5.6c-1.9-1.8-3.9-3.5-6.1-5c-2.1-1.3-4.3-2.4-6.7-3c-2.4-0.7-4.7-1.6-6.9-2.7c-1.8-0.9-5.5-1-7.4-0.9
		c-1.1,0.4-1.7,1.5-1.6,2.6c0,0.6,0.2,1.3,0.4,1.9c0.4,0.9,1.2,1.6,2.1,1.8c1.1,0.2,2.2,0.6,3.1,1.2c-1.9-1.1,1.7-1.6,3.2,0.5
		c1,1.3,2.5,2.2,4.1,2.3c1.6,0.3,3.3,0.4,4.6,1.3c0.3,0.2,0.7,0.4,1.1,0.5c0.4,0.2,0.8,0.3,1.2,0.5c1.9,1.4,3.7,2.5,5.3,3.8
		c1.7,1.2,3.1,2.8,4,4.8c0.2,0.5,0.6,1,1,1.4c0.4,0.4,0.8,0.9,1.1,1.3c0.3,0.7,0.1,1.6,0.2,2.2c0.1,0.9,0.4,1.8,0.7,2.7
		c-0.1-1-0.4-1.6-0.6-2.6c-0.1-0.3,0.2-0.2,0.5,0c0.3,0.3,0.5,0.5,0.7,0.9c0.2,0.2-0.6,0.6-0.4,0.8c0.1,0.5,0.3,0.9,0.6,1.3
		c0.1,0.2-0.6,0.2-0.5,0.3c0.1,0.6,1,1.2,0.8,1.6c-0.1,0.3-0.3,0.6-0.4,0.9c-0.1,0.2-0.1,0.4-0.1,0.5c0,0.1,0.1,0.3,0.1,0.4
		c0.3-0.1,0.5-0.1,0.8-0.1c-0.1,0.2-0.2,0.4-0.3,0.6c0.1-0.2,0.2-0.4,0.3-0.6c-0.3,0-0.5,0-0.8,0.1c0.2,0.5,0.3,1,0.4,1.5
		c0.1,0.5,0.1,1,0.2,1.6h0.1c0-0.6,0.3-1.2,0.8-1.6c-0.2,0.2-0.4,0.2-0.4-0.1l0.4-0.2c0.2,0.5,0.1,1.2-0.4,1.5l0.2,0.4
		c-0.1,0.1-0.4,0.1-0.6,0.1c0,0.1,0,0.2,0,0.4C146,503.2,146.3,502.9,146.6,502.6z"/>
	<path class="st2" d="M147.3,496.5c0,0.1,0,0.2,0,0.3l0.1-1.2C147.1,495.9,147.2,496.2,147.3,496.5z"/>
</g>
<path class="st3" d="M131.3,492.3c0.8,3.4-0.6,6.7-3.2,7.4s-6,0-6.9-3.4s-1.1-7.8,1.5-8.5S130.4,488.9,131.3,492.3z"/>
<g class="st1">
	<path class="st2" d="M129.8,489.5c-0.1-0.1-0.2-0.2-0.3-0.2c0.1,0,0.1,0.1,0.1,0.2C129.7,489.6,129.8,489.5,129.8,489.5z"/>
	<path class="st2" d="M129.2,489.1L129.2,489.1h-0.1H129.2z"/>
	<path class="st2" d="M128.6,488.8c0.1,0.1,0.2,0.1,0.3,0.2C128.9,488.8,128.8,488.8,128.6,488.8z"/>
	<path class="st2" d="M129.1,489.1C129.1,489.1,129.1,489,129.1,489.1L129.1,489.1l-0.1-0.2C129,489,129,489,129.1,489.1z"/>
	<path class="st2" d="M129.1,489.1c0,0.1,0,0.1,0.1,0.1C129.1,489.2,129.1,489.1,129.1,489.1z"/>
	<path class="st2" d="M128.5,489.7c-0.1,0,0.1-0.2-0.1-0.2c-0.3-0.1-0.5-0.1-0.8-0.2s-0.2-0.3-0.3-0.3c-0.3-0.1-1.1,0-0.7,0.1
		c0.5,0.1,1,0.3,1.5,0.5c0.5,0.1,0.9,0.3,1.3,0.6c0.1,0.1,0.2,0.2,0.3,0.3c-0.1-0.2-0.2-0.3-0.3-0.4
		C129.2,489.8,128.8,489.9,128.5,489.7z"/>
	<path class="st2" d="M131.4,492l-0.1-0.2c0-0.3-0.1-0.6-0.4-0.8c0,0.1,0,0.1,0,0.2c0.1,0.1,0.2,0.1,0.1,0c0.1,0.3,0.2,0.7,0.3,1
		C131.3,492.1,131.4,492.1,131.4,492z"/>
	<path class="st2" d="M131.3,492.3c0-0.1,0-0.1-0.1-0.2l0,0C131.3,492.2,131.3,492.2,131.3,492.3L131.3,492.3z"/>
	<path class="st2" d="M127.3,488.3c-0.8-0.3-1.6-0.5-2.4-0.7c-0.1,0-0.1,0.1-0.2,0.1c-0.1,0-0.1-0.1-0.2-0.1h-0.4H124l0,0
		c-0.1,0,0,0.1,0,0.1c0,0,0.1,0.1,0.1,0.1l-0.1-0.1c-0.1,0-0.1-0.1-0.2-0.1c-0.1,0-0.2,0-0.3,0c0.1,0,0.2,0,0.3,0h0.2h0.1
		c-0.3,0-0.5,0-0.8,0h-0.2c-0.2,0.1-0.4,0.1-0.5,0h-0.2l0,0h-0.1l-0.3,0.1l-0.3,0.2c-0.1,0.1-0.2,0.2-0.2,0.4h-0.2
		c0,0.1,0,0.2-0.1,0.3c0.1,0,0.2-0.1,0.3-0.1c0.2,0,0-0.4,0.3-0.3c-0.3-0.1-0.2,0.3-0.3,0.3c-0.1,0-0.2,0-0.3,0.1
		c-0.1,0.2-0.3,0.4-0.4,0.5c0-0.2,0.2-0.4,0.4-0.5c0-0.1,0.1-0.2,0.1-0.3h0.2c0.1-0.1,0.2-0.3,0.2-0.4c-0.4,0.2-0.7,0.5-0.9,0.9
		c-0.6,1.2-0.9,2.6-0.7,3.9c0.1,1.3,0.3,2.7,0.6,4c0.2,0.8,0.6,1.5,1.1,2.2c0.5,0.6,1.2,1.1,1.9,1.5c1.4,0.6,3,0.7,4.5,0.3
		c1.7-0.4,3.1-1.5,4-3c0.4-0.7,0.7-1.5,0.8-2.4c0.1-0.8,0.1-1.6-0.1-2.4c-0.7-1.5-1.5-0.4-1.6-0.4c-0.3,0.4-0.4,0.8-0.4,1.3
		c0,0.6-0.1,1.2-0.4,1.7c0.2-0.5,0.4-0.3,0.3,0.2c-0.1,0.6-0.4,1.1-0.9,1.4c-0.7,0.3-1.2,0.8-1.8,1c-0.2,0.1-0.3,0.1-0.5,0.2
		c-0.2,0.1-0.4,0.1-0.6,0.1c-0.4,0.1-0.8,0.1-1.2,0c-0.4-0.1-0.8-0.1-1.2-0.3c-0.9-0.4-1.6-1.3-1.9-2.3c-0.4-1.4-0.7-2.8-0.7-4.2
		c0-0.7-0.1-1.4,0-1.9c0.1-0.3,0.3-0.5,0.6-0.7c0.1,0,0.1-0.1,0.2-0.1c0.1,0,0.2-0.1,0.2-0.1c0.2-0.1,0.4-0.2,0.7-0.2
		c-0.2,0-0.4,0.1-0.7,0.2c-0.1,0.1-0.3,0.2-0.4,0.3c-0.2,0.2-0.1-0.4,0.2-0.5c0.1-0.1,0.3,0.1,0.4,0.1s0.4-0.2,0.7-0.3
		s0.1,0.2,0.2,0.2c0.4,0,0.7-0.3,0.9-0.2c0.2,0.1,0.3,0.1,0.5,0.2l0.3,0.1h0.2c0-0.1,0-0.2,0-0.3c0.1,0,0.2,0.1,0.3,0.2
		c-0.1,0-0.2-0.1-0.3-0.2c0,0.1,0,0.2,0,0.3c0.6,0,1.2,0.1,1.7,0.2l0,0c-0.3-0.1-0.6-0.3-0.9-0.5c0.1,0.1,0.1,0.2-0.1,0.1l-0.1-0.2
		c0.3,0,0.6,0.1,0.8,0.3h0.2c0.1,0.1,0,0.1,0,0.2l0.2,0.1C127.6,488.6,127.5,488.5,127.3,488.3z"/>
	<path class="st2" d="M123.8,487.6h0.2c-0.2,0-0.4,0-0.7,0C123.4,487.7,123.6,487.7,123.8,487.6z"/>
</g>
<path class="st3" d="M711.5,493.4c-0.8,3.4,0.6,6.7,3.2,7.4s6,0,6.9-3.4s1.1-7.8-1.5-8.5S712.3,490,711.5,493.4z"/>
<g class="st1">
	<path class="st2" d="M713.4,491.1c0.1-0.1,0.2-0.1,0.3-0.2h-0.2C713.4,491,713.4,491.1,713.4,491.1z"/>
	<polygon class="st2" points="713.9,490.7 714,490.7 714,490.6 	"/>
	<path class="st2" d="M714.4,490.4c-0.1,0-0.2,0.1-0.3,0.2C714.3,490.5,714.3,490.4,714.4,490.4z"/>
	<path class="st2" d="M714,490.6C714,490.6,714.1,490.6,714,490.6L714,490.6c0,0,0.1,0,0.1,0L714,490.6z"/>
	<path class="st2" d="M714,490.6L714,490.6z"/>
	<path class="st2" d="M713.6,489.8c0-0.1,0.2,0.1,0.2,0c0.2-0.2,0.4-0.4,0.7-0.6c0.1-0.1,0.4,0,0.5-0.1c0.3-0.2,1-0.8,0.5-0.6
		c-0.6,0.3-1.1,0.6-1.7,0.9c-0.4,0.4-0.8,0.7-1.1,1.2c-0.1,0.1-0.2,0.2-0.3,0.3c0.2-0.1,0.3-0.2,0.5-0.3S713.3,490.1,713.6,489.8z"
		/>
	<path class="st2" d="M711.8,493.2V493c0.2-0.2,0.4-0.5,0.4-0.8H712c-0.1,0.2,0,0.2,0.1,0.1c-0.3,0.2-0.5,0.5-0.5,0.9
		C711.6,493.2,711.7,493.2,711.8,493.2z"/>
	<path class="st2" d="M711.5,493.4c0-0.1,0-0.1,0-0.2l0,0V493.4L711.5,493.4z"/>
	<path class="st2" d="M715.5,489.6c0.8-0.3,1.6-0.5,2.4-0.6c0.1,0,0.1-0.1,0.2-0.1l0.2,0.1c0.1,0,0.2,0,0.3,0h0.1l0,0
		c0.1,0,0-0.1,0-0.1l-0.1-0.1c0,0,0.1,0.1,0.1,0.1c0.1,0,0.1,0,0.2,0.1c0.1,0,0.2,0,0.3,0c-0.1,0-0.2,0-0.3,0h-0.2l0,0
		c0.3,0,0.5,0,0.8,0h0.2c0.2,0,0.4,0,0.5,0.1l0.1,0l0,0l0,0l0.2,0.1l0.2,0.2c0.1,0,0.3,0.1,0.4,0.1v0.2c0.1,0,0.2,0,0.2,0.1
		c0-0.1,0-0.2,0-0.4c0-0.2-0.4,0-0.4-0.3c0,0.2,0.3,0.1,0.4,0.3c0,0.1,0,0.2,0,0.4c0.2,0.1,0.2,0.4,0.2,0.6
		c-0.2-0.2-0.2-0.4-0.2-0.6c-0.1-0.1-0.1-0.1-0.2-0.1v-0.2c-0.1-0.1-0.2-0.1-0.4-0.1c0.3,0.2,0.5,0.5,0.7,0.8
		c0.4,1.1,0.5,2.4,0.4,3.6c-0.1,1.3-0.3,2.5-0.7,3.7c-0.4,1.2-1.3,2.1-2.6,2.3c-1.1,0.3-2.3,0.2-3.4,0c-1-0.3-1.7-1.1-1.9-2.2
		c-0.1-0.4-0.2-1-0.3-1.6c-0.1-0.5-0.1-1.1,0-1.6c0-0.5-0.4-0.9-1-0.9c-0.1,0-0.3,0-0.4,0.1c-0.4,0.3-0.7,0.7-0.8,1.2
		c-0.1,0.5-0.1,1.1-0.2,2.1c0-0.7,0.2-0.4,0.3,0.1c0.2,0.7,0.3,1.4,0.4,2c0.2,1.2,1.1,2.3,2.3,2.7c0.3,0.1,0.7,0.2,1,0.3
		c0.3,0,0.6,0.1,0.9,0.1c0.6,0,1.2,0.1,1.8,0.1c0.7,0,1.3-0.1,1.9-0.4c1-0.3,1.9-0.8,2.5-1.5c0.6-0.8,1.1-1.7,1.3-2.6
		c0.3-1.6,0.5-3.3,0.5-5c0-0.9-0.3-1.8-0.8-2.6c-0.2-0.7-0.6-1.3-1.1-1.8c-0.2-0.1-0.4-0.3-0.6-0.4l-0.7-0.2c-0.3,0-0.7,0-1,0
		c0.3,0,0.7,0,1,0.1c0.4,0.1,0.9,0.2,1.2,0.5c0.5,0.4-0.5-0.1-1-0.1c-0.2,0-0.4-0.4-0.5-0.3c-0.3,0-0.7,0-1,0.1
		c-0.1,0-0.1-0.2-0.2-0.2c-0.5,0.1-0.8,0.4-1.1,0.4s-0.4,0-0.6,0c-0.1,0-0.2,0-0.4,0.1l-0.2,0.1c0.1,0.1,0.1,0.1,0.2,0.2
		c-0.1,0-0.3,0-0.4,0c0.1,0,0.3,0,0.4,0c0-0.1-0.1-0.2-0.2-0.2c-0.5,0.3-1.1,0.6-1.6,0.9l0,0c0.3-0.2,0.7-0.3,1-0.2
		c-0.2,0-0.2-0.1,0-0.1l0.2,0.1c-0.2,0.2-0.6,0.3-0.9,0.3l-0.2,0.1c-0.1,0-0.1-0.1-0.2-0.1l-0.2,0.1
		C715.1,489.5,715.3,489.5,715.5,489.6z"/>
	<path class="st2" d="M718.9,488.9h-0.2c0.2,0,0.4,0,0.7,0C719.3,488.8,719.1,488.8,718.9,488.9z"/>
</g>
<g class="st1">
	<path class="st2" d="M673.8,374.5c1.5,1.2,3,2.4,4.6,3.6c-0.7-0.7-1.4-1.4-2.1-2.1C675.6,375.4,674.8,374.8,673.8,374.5z"/>
	<path class="st2" d="M682.5,381.6l0.8,0.7l0.7,0.5L682.5,381.6z"/>
	<path class="st2" d="M690.3,388.2c-1.2-1.2-2.5-2.4-3.9-3.4C687.5,385.8,688.8,386.9,690.3,388.2z"/>
	<path class="st2" d="M684.4,382.6c0.4,0.5,0.5,0.8-0.3,0.2l0,0c0.8,0.6,1.6,1.3,2.4,1.9C685.6,384,685,383.2,684.4,382.6z"/>
	<path class="st2" d="M684.4,382.6c-0.4-0.5-1-1.2-1.2-1.5C683.5,381.5,683.9,382,684.4,382.6z"/>
	<path class="st2" d="M688.6,381.7c0.8,0.6,0,1.2,1.7,2.4l5.3,4.4c1.7,1.5,3.3,2.9,4.9,4.5c0.9,0.9,1.7,1.9,2.3,2.9
		c0.6,1.1,1.4,2.1,2.2,3l1.5,1.5l1.8,1.8l1.8,1.8l1.6,1.7c2,2,3,2.9,0.8,0c-1.7-2.2-3.4-4.1-4.9-5.9s-3.1-3.4-4.7-5
		s-3.1-3.1-4.7-4.6l-2.5-2.4l-2.7-2.4c-6.1-5.2-12.3-9.7-19-14.4l-1.3-1l-0.7-0.5l-0.2-0.2l-0.3-0.3l-2.4-2.1l1.5,1.4
		c0.5,0.5,1,1,1.5,1.4l3.5,2.9c1.8,1.5,3.7,2.8,5.8,4c1.1,0.7,2.3,1.5,3.5,2.3C686.2,379.8,687.4,380.7,688.6,381.7z"/>
	<path class="st2" d="M642.2,344.8c0.8,0.7,2.3,2,2.3,2c2.7,3.8,6.3,7,10,10l-1.2-1.8c-2-1.9-2.4-1.9-0.8,0c-3.6-4.3-7.3-8-11-12
		C641.6,343.5,641.3,343.6,642.2,344.8z"/>
	<path class="st2" d="M639.4,340.7l2.1,2.4c0,0,0-0.1,0-0.1c-0.7-0.8-1.5-1.5-2.2-2.3L639.4,340.7z"/>
	<path class="st2" d="M705.8,403.1c8.7,10.4,15.6,21.4,19.9,33c0.6,0.8,1,1.7,1.2,2.7c0.2,1,0.3,2,0.5,2.9c0.5,1.7,0.9,3.5,1.3,5.3
		c0.1,0.6,0.3,1.2,0.4,1.9l0,0c0.3,1,0.4,0.7,0.4,0s0-1.4,0-1.9c0,0.4,0,1.3,0,1.9c0.1,0.9,0.1,1.8,0.2,2.9c0.3,1.7,0.5,3.4,0.6,5.1
		c-0.1-1-0.2-1.9-0.3-2.8s-0.2-1.6-0.2-2.4l-0.3-1.5l-0.4-1.5c-0.1-0.3-0.2-0.6-0.2-0.9c0.8,4,1.2,8.1,1.2,12.3c0,0.9,0,1.8,0,2.6
		c0,0.7,0,1.5,0,2.2c0,0.7-0.1,1.4-0.1,2.1c-0.1,1.2-0.4,2.3-0.8,3.4c-0.2,0.7-0.3,1.4-0.5,2.1l0.2-0.4c-0.1,0.3-0.2,0.6-0.2,0.8
		c-0.7,3-1.7,5.9-2.9,8.8c-0.6,2-1.3,3.9-2.2,5.8c0,0-0.2,0.3-0.5,0.6l-0.9,1c-0.1,0.5-0.3,1-0.5,1.5c-0.3,0.6-0.6,1.2-1,1.7
		c1.1-1.1,2.2-2.3,3.2-3.5c0.7-0.9,1.2-2,1.5-3.1c0.3-1.2,0.9-2.4,1.7-3.4c-0.8,1-1.4,2.1-1.7,3.4c-0.3,1.1-0.8,2.2-1.5,3.1
		c-1,1.2-2.1,2.4-3.2,3.5c-0.9,1.4-1.9,2.7-3,3.9c-0.6,0.6-1.2,1.2-1.8,1.8c-0.6,0.5-1.2,1.1-1.9,1.5c1.2-1.5,2.3-2.8,3.5-4
		s2.2-2.2,3.2-3.3c0.4-0.5,0.7-1.1,1-1.7c0.2-0.5,0.4-1,0.5-1.5l0.9-1c0.3-0.3,0.5-0.6,0.5-0.6c0.9-1.9,1.6-3.8,2.2-5.8
		c-2.5,5.6-5.8,10.8-10,15.3c-6.8,7.2-15,12.9-24.1,16.8c-9,3.9-18.4,6.5-28.1,7.8c-9.8,1.4-19.7,1.7-29.6,1.1
		c-10.2-0.6-20.4-2.1-30.3-4.3c-5.4-1.3-10.8-2.9-16-4.9c-5.1-1.9-10.2-4.2-15-6.8c-9.5-5.1-18.3-11.2-26.5-18.2
		c-15.6-13.5-29.3-29.1-40.8-46.2c-11.7-17.2-21.4-35.7-28.9-55.2c-3-7.7-7.5-18.6-11.5-29.6s-7.7-22-9.9-29.7
		c-3.7-10-5.5-12.2-6.7-11.6s-1.5,3.7-1.5,4.2c0,6.9,1.2,12.7,3.3,20.1s5,16.3,9,29.4c-2.8-8.9-1-5.9,1.9,1.5
		c1.5,3.7,3.4,8.4,5.2,13.2s3.7,9.8,5.1,14c3.8,12.3,10.9,26.2,19.8,39.8c9.1,13.7,19.2,26.7,30.2,38.9c5.8,6.4,12.2,12.4,18.9,17.9
		c4.7,4,9.6,7.8,14.8,11.2c5.1,3.4,10.5,6.5,16,9.2c11,5.4,22.7,9.3,34.8,11.5c12.1,2.2,24.3,3.4,36.6,3.3c12.9,0,25.7-1.7,38.1-5.1
		c12.5-3.6,23.9-10.1,33.3-19c3.3-3,6.4-6.2,9.1-9.7c2.5-3.2,4.7-6.6,6.5-10.3c2.3-4.8,3.9-10,4.7-15.3c0.7-4.8,0.8-9.6,0.2-14.4
		c0.4,4.8,0.2,9.5-0.5,14.3c-0.8,5.1-2.2,10-4.3,14.7c-0.8,1.8-1.2,2.3-1.2,2c0.2-0.9,0.5-1.8,0.8-2.7c1-3.2,1.9-6.4,2.5-9.7
		c0.4-2.1,2-5.3,2.1-7.5c0.4-4.7,0.2-9.4-0.6-14c-0.5-2.1,0.5-2,0.3-3c-0.1-0.4-0.2-0.8-0.2-1.2l-0.3-1.2c-0.2-0.8-0.4-1.5-0.6-2.3
		c-0.5-1.5-1-2.8-1.5-4s-1-2.4-1.4-3.5c-0.5-1-0.8-2.1-1.2-3.2c-0.5-1.5-1-3-1.5-4.4l-1.6-4.1c-0.8-1.6-1.5-3.3-2.5-4.9
		c-0.7-1-1.3-2-2-3c0.2,0.6,0.2,1.3-0.1,1.9c-0.8-1.5-1.9-3.7-2.8-5.2c0.9,1.5,2,3.7,2.8,5.2c0.2-0.6,0.3-1.3,0.1-1.9
		c-2.5-3.6-5.3-7.4-8.4-11s-6.3-7.2-9.6-10.5c0,0,0,0.1,0,0.1c3.8,3.9,7.1,8.3,9.8,13c-1.2-2.1-0.8-2,0.8,0.2c0.3,0.7,0.6,1.3,0.8,2
		c-3-3.8-6.1-7.4-8.5-11.3c0,0-0.4-0.4-0.8-0.8l-1.4-1.3c-0.9-1.2-0.6-1.4-0.7-1.8c-0.7-0.8-1.5-1.5-2.2-2.3c0.3,0.5,0.8,1.2,1.4,2
		l1.8,2.5C704.8,401.7,705.8,403.1,705.8,403.1z"/>
	<path class="st2" d="M729.8,452c-0.1-0.7-0.2-1.6-0.5-2.5c0.6,3.4,0.9,6.9,0.9,10.3C730.6,457.2,730.4,454.5,729.8,452z"/>
</g>
<g class="st1">
	<path class="st2" d="M697.7,506.8l-0.2-0.6c0,0.1-0.1,0.3-0.2,0.4C697.4,506.7,697.5,506.7,697.7,506.8z"/>
	<path class="st2" d="M697.4,505.6v-0.1l-0.1-0.1L697.4,505.6z"/>
	<path class="st2" d="M696.9,504.6c0,0.2,0.1,0.4,0.2,0.5C697.1,504.9,697,504.8,696.9,504.6z"/>
	<path class="st2" d="M697,505.5c0.1-0.1,0.2-0.2,0.3-0.1l0,0l-0.2-0.3C697.1,505.3,697.1,505.4,697,505.5z"/>
	<path class="st2" d="M697,505.5c-0.1,0.1-0.1,0.2-0.2,0.3C696.9,505.7,696.9,505.6,697,505.5z"/>
	<path class="st2" d="M694.5,505.9c-0.1-0.1,0.6-0.3,0.4-0.4c-0.4-0.4-0.7-0.8-0.9-1.3c-0.2-0.2,0.5-0.7,0.3-0.9
		c-0.3-0.5-1.6-1.7-1.3-0.9c0.4,1.2,0.7,2,1.1,3c0.5,0.8,1.1,1.5,1.6,2.3c0.1,0.2,0.1,0.5,0.2,0.7c0-0.3,0-0.7,0-1
		S694.8,506.6,694.5,505.9z"/>
	<path class="st2" d="M698.9,511.3l-0.3-0.2c0.3-0.7-0.1-1.1-0.5-1.5l-0.2,0.3c0.2,0.3,0.3,0.2,0.4-0.1c-0.2,0.6-0.1,1.3,0.2,1.8
		C698.6,511.6,698.8,511.5,698.9,511.3z"/>
	<path class="st2" d="M698.7,512l-0.2-0.3h0C698.5,511.8,698.6,511.9,698.7,512L698.7,512z"/>
	<path class="st2" d="M695.8,502.5c-0.1-0.4-0.2-0.7-0.2-1.1s-0.1-0.7-0.1-1.1c-0.1-0.7-0.2-1.4-0.2-2.1c-0.2-0.1-0.3-0.1-0.2-0.3
		c0.1-0.1,0.2-0.2,0.2-0.3v-0.6c0-0.1,0-0.1-0.1-0.2l0,0c-0.1-0.1-0.2-0.1-0.3,0c-0.1,0.1-0.2,0.2-0.2,0.2c0.1,0,0.2-0.1,0.2-0.2
		c0.1-0.1,0.2-0.2,0.2-0.3c0-0.2,0-0.4,0-0.6c0.1,0.2,0.1,0.4,0,0.6l0.1,0.3l0.1,0.1l0.1-1.3c0-0.1,0-0.2,0-0.3
		c-0.1-0.3-0.2-0.7,0.2-0.8v-0.2h-0.1l0.1-0.1l0.2-1c-0.1-0.2-0.2-0.5-0.3-0.7l0.4-0.2c-0.1-0.1-0.2-0.3-0.3-0.4
		c-0.2,0.1-0.5,0.3-0.7,0.4c-0.4,0.2,0.6,0.6-0.1,0.8c0.7-0.2-0.3-0.6,0.1-0.8c0.2-0.2,0.5-0.3,0.7-0.4c0-0.4,0.2-0.8,0.5-1
		c0.2,0.5-0.1,0.7-0.5,1c0,0.2,0.1,0.3,0.3,0.4l-0.4,0.2c0.1,0.2,0.2,0.5,0.3,0.7c0.1-0.6,0.3-1.3,0.5-1.9c0.6-2,1.5-3.9,2.6-5.6
		c1.1-1.8,2.6-3.3,4.2-4.5c1.9-1.3,4-2.3,6.2-2.8c2.1-0.6,4.1-1.3,6.2-1.8c2.1-0.6,4.4-0.6,6.6-0.2c1.8,0.4,4.9-0.3,6.5-0.4
		c0.9-0.6,1.4-1.6,1.3-2.6c0-0.6-0.1-1.3-0.4-1.9c-0.4-0.9-1.3-1.6-2.3-1.7c-1.2,0-2.4-0.3-3.5-0.7c2.2,0.7-1.3,1.8-3.5,0.4
		c-1.7-1.1-3.5-0.9-5.3-0.3c-1.8,0.7-3.6,1.4-5.5,1.9c-0.5,0.1-1,0.3-1.4,0.5c-0.5,0.2-0.9,0.5-1.5,0.7c-2.9,0.9-5.5,2.5-7.6,4.6
		c-2.3,2.3-4.2,4.9-5.6,7.8c-0.3,0.8-0.6,1.6-0.6,2.5c0,0.8,0,1.6,0,2.3c-0.1,1-0.6,2-0.8,2.9c-0.1,1.2,0,2.4,0.3,3.6
		c-0.1-1.1-0.2-2.3-0.2-3.4c0.1-0.5,0.3-0.3,0.5,0.1c0.2,0.4,0.4,0.8,0.6,1.2c0.2,0.2-0.7,0.6-0.5,0.8c0,0.6,0.2,1.1,0.5,1.6
		c0.2,0.2-0.5,0.2-0.5,0.3c0.2,0.8,1.1,1.3,1,1.8s-0.1,0.7-0.2,1c0,0.2,0,0.4,0,0.6c0.1,0.1,0.2,0.2,0.2,0.4
		c0.2-0.1,0.5-0.2,0.7-0.3c0,0.2-0.1,0.5-0.1,0.7c0-0.2,0.1-0.5,0.1-0.7c-0.3,0.1-0.5,0.1-0.7,0.3c0.3,0.5,0.5,1,0.8,1.4
		s0.6,1,0.8,1.4h0.1c-0.3-0.6-0.3-1.2,0-1.8c-0.1,0.3-0.3,0.3-0.4,0l0.3-0.3c0.2,0.5,0.6,1,0.2,1.5l0.3,0.3
		c-0.1,0.2-0.3,0.2-0.5,0.3c0,0.1,0.1,0.2,0.1,0.3C695.4,503.3,695.6,502.9,695.8,502.5z"/>
	<path class="st2" d="M695.1,496.5c0,0.1,0.1,0.2,0.1,0.3l0.1-1.1C694.9,495.9,695,496.2,695.1,496.5z"/>
</g>
</svg>
