<?xml version="1.0" encoding="utf-8"?>
<!-- Generator: Adobe Illustrator 25.0.0, SVG Export Plug-In . SVG Version: 6.00 Build 0)  -->
<svg version="1.1" id="Layer_1" xmlns="http://www.w3.org/2000/svg" xmlns:xlink="http://www.w3.org/1999/xlink" x="0px" y="0px"
	 viewBox="0 0 841.9 841.9" style="enable-background:new 0 0 841.9 841.9;" xml:space="preserve">
<style type="text/css">
	.st0{fill:#EEE2DE;}
	.st1{opacity:0.85;}
	.st2{fill:#090A0A;}
	.st3{fill:#040505;}
</style>
<rect class="st0" width="841.9" height="841.9"/>
<g class="st1">
	<path class="st2" d="M160.9,628.3c-0.3,0.2-0.6,0.5-0.9,0.7c0.2-0.1,0.4-0.2,0.6-0.2S160.9,628.5,160.9,628.3z"/>
	<path class="st2" d="M159.2,629.6l-0.2,0.1l-0.1,0.1C159,629.7,159.1,629.7,159.2,629.6z"/>
	<path class="st2" d="M157.5,630.4c0.3-0.1,0.6-0.2,0.9-0.4c-0.1,0-0.3,0.1-0.4,0.2C157.8,630.3,157.6,630.4,157.5,630.4z"/>
	<path class="st2" d="M159,630c-0.1,0-0.2-0.1-0.1-0.2l0,0l-0.5,0.3C158.6,630.1,158.8,630,159,630z"/>
	<path class="st2" d="M159,630c0.1,0,0.3,0,0.4,0C159.2,630,159.1,630,159,630z"/>
	<path class="st2" d="M159.2,631.7c-0.2,0.2-0.3-0.3-0.7,0s-0.9,0.5-1.4,0.6c-0.5,0.2-1,0.3-1.5,0.3c-0.5,0.1-1.2-0.4-1.6-0.3
		s-1.5,0.2-2.1,0.2s-0.9,0.2-0.1,0.3c2.1,0.3,4.3,0.2,6.3-0.5c1.7-0.7,3.1-1.8,4.2-3.2c0.3-0.4,0.6-0.7,1-1c-0.5,0.4-1,0.8-1.5,1.2
		c-0.4,0.3-0.7,0.7-1.1,1.1c-0.2,0.2-0.4,0.5-0.6,0.7C159.8,631.4,159.5,631.6,159.2,631.7z"/>
	<path class="st2" d="M165.9,621.3c0,0.2-0.1,0.6-0.1,0.6c-0.6,0.7-1.1,1.6-1.4,2.5c0.1-0.1,0.3-0.2,0.4-0.2
		c0.2-0.5,0.1-0.6-0.2-0.2c0.4-0.4,0.7-0.9,1-1.3c0.3-0.5,0.5-1,0.7-1.5C166.2,621.1,166.1,621.1,165.9,621.3z"/>
	<path class="st2" d="M166.6,620.5l-0.2,0.6l0,0C166.4,620.9,166.5,620.7,166.6,620.5L166.6,620.5z"/>
	<path class="st2" d="M153.3,631.2c-2.6-0.3-5.2-1.1-7.6-2.2c-0.2,0.1-0.4,0-0.6-0.1c-0.1-0.2-0.3-0.3-0.5-0.4l-1-0.5l-0.4-0.1l0,0
		c-0.2,0-0.2,0-0.1,0.2c0.1,0.1,0.2,0.2,0.3,0.3c0-0.1-0.2-0.2-0.3-0.3c-0.1-0.1-0.3-0.3-0.4-0.4c-0.3-0.2-0.6-0.3-0.9-0.5
		c0.3,0.1,0.6,0.3,0.9,0.5c0.2,0.1,0.4,0.2,0.6,0.2h0.2c-0.7-0.4-1.4-0.9-2.1-1.3l-0.4-0.3c-0.5-0.3-1-0.6-1.2-1
		c-0.1-0.1-0.2-0.2-0.3-0.3v0.1l-0.1-0.2c-0.4-0.5-0.9-0.9-1.3-1.4c-0.3-0.2-0.7-0.5-1-0.8l-0.1-0.5c-0.2-0.1-0.5-0.2-0.6-0.4
		c0.1,0.3,0.2,0.7,0.3,1c0.1,0.5,1,0.4,1,1.1c0-0.7-0.9-0.6-1-1.1c-0.1-0.3-0.2-0.7-0.3-1c-0.5-0.5-0.8-1.1-0.9-1.8
		c0.5,0.5,0.8,1.1,0.9,1.8c0.2,0.2,0.4,0.3,0.6,0.4l0.1,0.5c0.3,0.3,0.7,0.5,1,0.8l-1.2-1.4l-1-1.6c-2-3.4-3.1-7.3-3.2-11.2
		c0-1,0-2,0.1-2.9c0.1-0.5,0.2-1,0.2-1.5l0.1-0.7l0.2-0.7c0.1-0.5,0.3-1,0.4-1.4s0.4-0.9,0.6-1.4c0.2-0.5,0.4-0.9,0.6-1.4
		c0.2-0.5,0.5-0.9,0.7-1.3c1-1.8,2.6-3.3,4.5-4.1c1.8-0.6,3.8-0.6,5.7,0c3.9,1.3,7.6,3,11.1,5.2c1.8,1,3.4,2.2,5,3.5
		c1.4,1.2,2.6,2.7,3.3,4.5c0.6,1.5,0.9,3.1,0.8,4.8c-0.1,1.9-0.5,3.7-1.1,5.5c-0.4,2,0.1,2.8,0.7,3c0.5,0.1,1,0,1.4-0.2
		c1.2-0.9,2.1-2.1,2.5-3.6c0.1-0.4,0.3-0.8,0.4-1.2s0.2-1,0.4-1.5c0.3-1.3,0.5-2.6,0.6-3.9c-0.1,1.1-0.2,1.4-0.4,1.3
		c-0.2-0.5-0.3-1.1-0.3-1.7c-0.2-1.1-0.4-2.1-0.7-3.1c-0.4-1.1-0.8-2.3-1.2-3.2c-0.3-0.7-0.6-1.4-1.1-2.1c-0.2-0.3-0.5-0.7-0.8-1
		s-0.6-0.6-0.9-0.9c-1.3-1.2-2.6-2.2-4.1-3c-1.5-0.9-3.1-1.6-4.6-2.4l-4.6-2.3c-1.7-0.8-3.5-1.5-5.4-1.8c-0.7-0.2-1.4-0.3-2.1-0.4
		l-1.1-0.1c-0.4,0-0.8,0-1.2,0c-0.8,0-1.6,0.1-2.4,0.3c-0.4,0.1-0.8,0.2-1.2,0.4c-0.4,0.2-0.8,0.3-1.1,0.5c-1.4,0.8-2.6,1.8-3.6,3
		c-0.5,0.5-0.9,1.1-1.3,1.8c-0.4,0.6-0.7,1.2-1,1.8c-1.2,2.5-2,5.1-2.4,7.8c-0.4,2.8-0.4,5.7,0,8.5c0.6,2.7,1.7,5.3,3.4,7.5
		c0.2,0.4,0.5,0.8,0.7,1.2l0.8,1.2c0.4,0.7,0.9,1.4,1.5,2.1c0.4,0.4,0.8,0.9,1.2,1.2c0.4,0.4,0.8,0.7,1.2,1c0.8,0.6,1.7,1.1,2.6,1.6
		l-0.7-0.4l-0.6-0.4l-1.2-0.8c-0.4-0.3-0.8-0.6-1.1-1c-0.4-0.4-0.8-0.8-1.2-1.2c-0.5-0.6-0.2-0.5,0.3-0.1s1.4,0.8,1.8,1.2
		c0.2,0.2,0.4,0.4,0.5,0.7c0.1,0.3,0.3,0.5,0.5,0.6c0.4,0.3,0.8,0.6,1.2,0.8c0.4,0.2,0.9,0.4,1.4,0.6s0.1,0.5,0.4,0.6
		c0.6,0.3,1.2,0.4,1.9,0.5c0.5,0.1,1,0.2,1.4,0.4l1.6,0.9c0.3,0.2,0.7,0.3,1.1,0.4l0.7,0.1c-0.1-0.2-0.2-0.4-0.2-0.6
		c0.4,0.2,0.7,0.4,1.1,0.5c-0.4-0.1-0.8-0.3-1.1-0.5c0,0.2,0,0.4,0.2,0.6c2,0.3,3.9,0.4,5.9,0.3l0,0c-1.1,0.1-2.3-0.2-3.3-0.7
		c0.5,0.2,0.4,0.3-0.2,0.2c-0.1-0.1-0.2-0.2-0.4-0.3c1,0,2,0.2,2.9,0.5c0.2,0,0.4-0.1,0.6-0.1c0.3,0.1,0.3,0.2,0.4,0.3h0.7
		c-0.4-0.1-0.8-0.3-1.1-0.3L153.3,631.2z"/>
	<path class="st2" d="M142.7,627.6c0.1,0.1,0.3,0.2,0.5,0.2l-1.8-1.2C141.6,627,142.1,627.3,142.7,627.6z"/>
</g>
<path class="st3" d="M144.3,622.6c-4.3-0.9-7.1-5.2-6.1-9.5c0.9-4.3,4.1-4.2,8.4-3.2s8.1,2.3,7.2,6.6
	C152.9,620.8,148.7,623.5,144.3,622.6z"/>
<g class="st1">
	<path class="st2" d="M148.2,622.8c0.2,0,0.3-0.1,0.5-0.1h-0.3C148.4,622.7,148.3,622.8,148.2,622.8z"/>
	<polygon class="st2" points="149.1,622.6 149.2,622.5 149.3,622.5 	"/>
	<path class="st2" d="M149.9,622.2c-0.1,0.1-0.3,0.1-0.4,0.2C149.6,622.3,149.8,622.2,149.9,622.2z"/>
	<path class="st2" d="M149.2,622.4C149.3,622.4,149.3,622.4,149.2,622.4L149.2,622.4l0.2,0C149.4,622.4,149.3,622.4,149.2,622.4z"/>
	<path class="st2" d="M149.2,622.4h-0.2H149.2z"/>
	<path class="st2" d="M149.1,621.5c0-0.1,0.1,0.2,0.3,0.1c0.3-0.2,0.5-0.5,0.8-0.7c0.1-0.1,0.4,0,0.5-0.2c0.3-0.3,0.7-1.1,0.3-0.8
		c-0.5,0.5-1,0.9-1.5,1.3c-0.5,0.4-1,0.7-1.5,0.9c-0.2,0-0.3,0.1-0.5,0.1c0.2,0,0.4,0,0.7,0S148.7,621.8,149.1,621.5z"/>
	<path class="st2" d="M144.7,622.9h0.3c0.4,0.2,0.8,0.2,1.1,0.1l-0.2-0.1c-0.2,0-0.2,0.1-0.1,0.1c-0.4-0.1-0.8-0.2-1.3-0.3
		C144.6,622.8,144.6,622.8,144.7,622.9z"/>
	<path class="st2" d="M144.3,622.7h0.2l0,0H144.3z"/>
	<path class="st2" d="M151.2,621c0.8-0.7,1.5-1.5,2-2.4c0-0.1,0-0.2,0-0.2c0.1,0,0.1-0.1,0.2-0.2c0.1-0.1,0.1-0.3,0.2-0.4v-0.2l0,0
		c0-0.1,0-0.1-0.1,0c0,0-0.1,0.1-0.1,0.1l0.1-0.1c0.1-0.1,0.1-0.1,0.1-0.2c0-0.1,0.1-0.3,0.1-0.4c0,0.1,0,0.3-0.1,0.4l-0.1,0.2v0.1
		c0.1-0.3,0.2-0.6,0.3-1v-0.2c0-0.2,0-0.4,0.1-0.6v-0.2l0,0v-0.1c0-0.3,0-0.5,0-0.8s-0.1-0.3-0.2-0.5c0-0.1,0.1-0.1,0.1-0.2
		c-0.1-0.1-0.2-0.1-0.2-0.2c0,0.2-0.1,0.3-0.1,0.4s0.3,0.3,0.1,0.6c0.2-0.2-0.2-0.4-0.1-0.6s0.1-0.2,0.1-0.4
		c-0.1-0.3-0.2-0.5-0.2-0.8c0.2,0.2,0.3,0.5,0.2,0.8c0,0.1,0.1,0.2,0.2,0.2c0,0.1,0,0.1-0.1,0.2c0.1,0.2,0.1,0.3,0.2,0.5
		c0-0.5-0.1-1.1-0.4-1.5c-0.4-0.8-0.9-1.4-1.7-1.9c-0.7-0.5-1.4-0.8-2.2-1.1c-1.6-0.5-3.2-1-4.8-1.3c-0.9-0.2-1.9-0.3-2.8-0.4
		c-1-0.1-2,0.2-2.9,0.7c-0.9,0.6-1.5,1.4-1.9,2.4c-0.3,0.9-0.5,1.8-0.6,2.7c-0.1,1.9,0.3,3.9,1.2,5.6c0.5,0.9,1.2,1.7,2,2.3
		c0.8,0.6,1.7,1.1,2.6,1.4c1,0.1,1.3-0.2,1.4-0.5c0-0.2,0-0.5-0.2-0.7c-0.3-0.4-0.8-0.8-1.3-1.1c-0.7-0.3-1.2-0.9-1.6-1.5
		c0.4,0.6,0.1,0.5-0.3,0.1c-0.6-0.5-0.9-1.1-1-1.9c0-1-0.3-1.9-0.4-3c-0.1-0.5-0.1-1.1,0-1.6c0.1-0.5,0.2-1,0.5-1.5
		c0.2-0.4,0.5-0.7,0.8-1c0.9-0.5,2.7-0.4,4.4-0.1c1.8,0.2,3.6,0.7,5.2,1.4c0.7,0.3,1.4,0.6,2,1.1c0.3,0.4,0.4,0.8,0.4,1.3
		c0.1,0.6,0.1,1.2,0,1.8c0.1-0.6,0.1-1.2,0.1-1.8c-0.1-0.4,0.4,0.3,0.4,0.6c0.1,0.1-0.2,0.3-0.2,0.5c0,0.3,0,0.6,0,1
		c0,0.2-0.2,0.1-0.2,0.2c-0.1,0.5,0,0.9-0.2,1.2c-0.1,0.2-0.3,0.4-0.4,0.5c-0.1,0.1-0.2,0.2-0.2,0.3l-0.1,0.2c0.1,0,0.2,0,0.3,0.1
		c-0.1,0.1-0.2,0.2-0.3,0.3c0.1-0.1,0.2-0.2,0.3-0.3c-0.1,0-0.2-0.1-0.3-0.1c-0.3,0.6-0.7,1.2-1.2,1.7l0,0c0.3-0.3,0.6-0.5,1-0.7
		c-0.2,0.1-0.2,0-0.1-0.1h0.2c-0.2,0.3-0.5,0.6-0.8,0.7c0,0.1-0.1,0.2-0.1,0.2c-0.1,0-0.2,0-0.2-0.1l-0.2,0.2c0.2,0,0.3,0,0.4-0.1
		C150.9,621.1,151.1,621.1,151.2,621z"/>
	<path class="st2" d="M153.7,617.4c0,0.1,0,0.1-0.1,0.2c0.1-0.3,0.2-0.5,0.3-0.8C153.8,616.9,153.7,617.1,153.7,617.4z"/>
</g>
<g class="st1">
	<path class="st2" d="M681.8,622.3c0.3,0.3,0.6,0.6,1,0.8c-0.2-0.2-0.3-0.3-0.4-0.5C682.2,622.5,682,622.4,681.8,622.3z"/>
	<path class="st2" d="M683.7,623.8c0.1,0,0.1,0.1,0.2,0.1h0.2C683.9,623.9,683.8,623.9,683.7,623.8z"/>
	<path class="st2" d="M685.8,624.6c-0.4-0.1-0.7-0.2-1.1-0.4c0.2,0.1,0.3,0.2,0.5,0.2C685.4,624.5,685.6,624.6,685.8,624.6z"/>
	<path class="st2" d="M684.2,623.8c0.1,0.1,0.1,0.2-0.1,0.2l0,0l0.6,0.2C684.5,624.1,684.4,624,684.2,623.8z"/>
	<path class="st2" d="M684.2,623.8c-0.1-0.1-0.2-0.2-0.3-0.3C684,623.6,684.1,623.8,684.2,623.8z"/>
	<path class="st2" d="M685.4,622.5c0.2,0,0,0.5,0.3,0.5s0.9,0.1,1.2,0.1c0.4,0,0.8,0,1.2,0c0.4-0.1,1,0.4,1.3,0.3
		c0.6-0.1,1.2-0.4,1.7-0.7c0.5-0.3,0.7-0.5,0-0.3c-1.6,0.4-3.3,0.5-4.9,0.1c-1.4-0.2-2.8-0.8-3.9-1.7c-0.3-0.3-0.6-0.7-0.8-1
		c0.3,0.5,0.6,0.9,1,1.4c0.3,0.3,0.7,0.6,1.2,0.7c0.2,0.1,0.5,0.1,0.8,0.2C684.8,622.3,685.1,622.4,685.4,622.5z"/>
	<path class="st2" d="M677,614.7l0.4,0.5c0.2,1,0.6,1.9,1.3,2.6c0-0.2,0-0.3,0-0.5c-0.3-0.5-0.4-0.5-0.3,0c-0.1-0.6-0.3-1.1-0.5-1.6
		c-0.2-0.5-0.4-1-0.7-1.5C677.1,614.3,677,614.4,677,614.7z"/>
	<path class="st2" d="M676.9,613.6l0.3,0.6l0,0L676.9,613.6L676.9,613.6z"/>
	<path class="st2" d="M690.4,624.6c2.6-0.4,5.2-1.1,7.7-2.1c0.2-0.2,0.2-0.3,0.5-0.4c0.2,0,0.4,0,0.6-0.1l1-0.5l0.3-0.2l0,0
		c0.2-0.1,0.1-0.2-0.1-0.2c-0.1,0-0.3,0-0.4,0h0.4c0.2,0,0.4-0.1,0.6-0.2c0.3-0.2,0.6-0.4,0.9-0.6c-0.3,0.2-0.6,0.4-0.9,0.6
		c-0.2,0.1-0.3,0.3-0.5,0.4l-0.1,0.1c0.8-0.4,1.5-0.8,2.2-1.3l0.4-0.4c0.3-0.4,0.8-0.8,1.3-0.9c0.1-0.1,0.2-0.2,0.3-0.3h-0.1
		l0.2-0.1c0.5-0.4,1-0.9,1.5-1.3c0.2-0.4,0.4-0.8,0.6-1.2l0.5-0.2c0-0.3,0.1-0.5,0.2-0.7c-0.3,0.2-0.6,0.4-0.9,0.5
		c-0.5,0.2-0.3,1-0.9,1.1c0.7-0.1,0.5-1,0.9-1.1c0.3-0.2,0.6-0.3,0.9-0.5c0.4-0.6,0.8-1.1,1.3-1.6c-0.2,0.7-0.7,1.2-1.3,1.6
		c-0.1,0.2-0.2,0.5-0.2,0.7l-0.5,0.2c-0.2,0.4-0.4,0.8-0.6,1.2l1.3-1.4l1.2-1.6c2.4-3.5,3.8-7.6,4-11.8c0-1.1,0-2.1-0.1-3.2
		c-0.1-0.5-0.2-1-0.2-1.6l-0.1-0.8l-0.2-0.8c-0.1-0.5-0.2-1-0.4-1.6l-0.5-1.5c-0.2-0.5-0.4-1-0.6-1.5c-0.2-0.5-0.5-1-0.7-1.5
		c-1.1-2.3-3-4.2-5.2-5.4c-2.3-1.1-4.9-1.4-7.5-0.9c-2.3,0.4-4.5,1.1-6.6,2c-2,0.9-3.9,1.9-5.8,2.9c-2,1.1-3.9,2.2-5.7,3.5
		c-2.1,1.4-3.9,3.1-5.5,5.2c-0.3,0.5-0.6,1-0.9,1.5c-0.3,0.6-0.5,1.3-0.7,1.9c-0.2,0.7-0.3,1.5-0.4,2.2c-0.1,0.7-0.1,1.5,0,2.2
		c0.2,2.4,0.8,4.9,1.7,7.1c1.2,2.1,2.1,2.3,2.7,2c0.4-0.3,0.7-0.7,0.8-1.2c0.2-1.4,0.2-2.8-0.2-4.2c-0.1-0.4-0.2-0.8-0.2-1.2
		s-0.1-0.9-0.2-1.3c-0.1-1.1,0-2.2,0.3-3.2c-0.3,1.6-0.7,1-0.6-0.4c0.1-0.9,0.3-1.7,0.8-2.4c0.4-0.8,1.1-1.5,1.8-2
		c2.1-1.2,4.2-2.8,6.8-4.5c2.6-1.8,5.4-3.3,8.3-4.5c1.4-0.6,2.9-1,4.4-1.4c1.7-0.3,3.5-0.1,5.1,0.6c1.5,1,2.7,2.4,3.5,4
		c1,1.9,1.8,3.9,2.1,6c0.4,2.2,0.4,4.4,0,6.6c-0.3,2.2-0.8,4.4-1.6,6.5c-0.2,0.3-0.4,0.7-0.6,1s-0.5,0.6-0.7,0.9
		c-0.5,0.6-1,1.1-1.4,1.6c-0.3,0.4-0.6,0.7-1,1c-0.3,0.3-0.6,0.7-0.9,1c-0.7,0.6-1.2,1.2-1.8,1.7l0.5-0.4l0.5-0.4l0.9-0.8
		c0.3-0.3,0.6-0.6,0.9-0.9c0.3-0.3,0.6-0.6,0.9-1c0.8-1-0.1,1.1-0.8,1.8c-0.2,0.2-0.4,0.3-0.6,0.4c-0.2,0-0.5,0.1-0.7,0.3
		c-0.3,0.3-0.6,0.5-0.9,0.8c-0.3,0.3-0.6,0.6-1,0.9s-0.5-0.1-0.6,0c-0.5,0.3-0.9,0.7-1.3,1.1c-0.3,0.4-0.7,0.6-1.2,0.8
		c-0.6,0.2-1.2,0.3-1.7,0.5c-0.3,0.1-0.7,0.2-1,0.3l-0.6,0.3c0.2,0.1,0.3,0.2,0.5,0.4c-0.3,0.1-0.8,0.1-1.2,0.2
		c0.3-0.1,0.8-0.1,1.2-0.2c-0.1-0.2-0.3-0.3-0.5-0.4c-1.6,0.8-3.4,1.4-5.2,1.7l0,0c1.1,0,2.1-0.2,3.3-0.1c-0.5,0-0.5-0.2,0.1-0.3
		c0.2,0,0.3,0.1,0.5,0.2c-0.9,0.4-1.9,0.6-2.8,0.4c0,0-0.4,0.2-0.6,0.2s-0.3-0.2-0.4-0.3h-0.6c0.4,0.2,0.7,0.3,1.1,0.4L690.4,624.6z
		"/>
	<path class="st2" d="M701.1,620.9c-0.1,0.1-0.3,0.2-0.4,0.3l1.9-1.1C702,620.3,701.5,620.5,701.1,620.9z"/>
</g>
<path class="st3" d="M699.2,615.7c4.3-0.9,7.1-5.2,6.1-9.5c-0.9-4.3-4.1-4.2-8.4-3.2s-8.1,2.3-7.2,6.6
	C690.7,613.8,694.9,616.6,699.2,615.7z"/>
<g class="st1">
	<path class="st2" d="M695.5,615.2c-0.1,0-0.3-0.1-0.4-0.2l0.2,0.2C695.4,615.3,695.5,615.3,695.5,615.2z"/>
	<polygon class="st2" points="694.7,614.9 694.7,614.9 694.6,614.9 	"/>
	<path class="st2" d="M694,614.7c0.1,0.1,0.2,0.1,0.4,0.2C694.3,614.8,694.1,614.7,694,614.7z"/>
	<path class="st2" d="M694.5,615C694.5,615,694.5,614.9,694.5,615L694.5,615l-0.2-0.2C694.4,614.9,694.5,614.9,694.5,615z"/>
	<path class="st2" d="M694.5,615l0.1,0.1L694.5,615z"/>
	<path class="st2" d="M694,615.7c-0.1,0,0-0.2-0.2-0.2c-0.4-0.1-0.7-0.2-1.1-0.4c-0.2,0-0.2-0.4-0.4-0.5c-0.4-0.2-1.3-0.7-0.9-0.3
		c0.6,0.5,1.3,0.9,2,1.3c0.6,0.2,1.3,0.4,2,0.4c0.2,0,0.4,0.1,0.5,0.2l-0.7-0.3C695,615.7,694.5,615.9,694,615.7z"/>
	<path class="st2" d="M698.8,615.5l-0.2,0.1c-0.4-0.1-0.7-0.1-1.1,0l0.2,0.1c0.2,0,0.2-0.1,0-0.1c0.4,0.1,0.9,0.1,1.3,0
		C699,615.6,699,615.6,698.8,615.5z"/>
	<path class="st2" d="M699.2,615.6l-0.2,0.1l0,0L699.2,615.6L699.2,615.6z"/>
	<path class="st2" d="M692.5,613.9c-0.8-0.7-1.4-1.5-1.9-2.4c-0.1,0-0.1-0.1-0.2-0.2c0-0.1,0-0.2,0-0.2c-0.1-0.1-0.1-0.3-0.2-0.4
		l-0.1-0.1l0,0c-0.1-0.1-0.1,0-0.1,0c0,0.1,0,0.1,0,0.2c0,0,0-0.1,0-0.2c0-0.1,0-0.2,0-0.2c-0.1-0.1-0.1-0.3-0.1-0.4
		c0.1,0.1,0.1,0.3,0.1,0.4l0.1,0.2v0.1c-0.1-0.3-0.2-0.6-0.2-0.9l-0.1-0.2c-0.1-0.2-0.1-0.4,0-0.6c0,0,0-0.1,0-0.2l0,0
		c0,0,0,0,0-0.1c0-0.2,0-0.5,0-0.7s-0.1-0.3-0.1-0.5l0.2-0.1c0-0.1,0-0.2,0-0.3c-0.1,0.1-0.2,0.2-0.3,0.3c-0.1,0.2,0.2,0.4-0.1,0.6
		c0.2-0.2-0.1-0.4,0.1-0.6c0.1-0.1,0.2-0.2,0.3-0.3c0-0.3,0.2-0.5,0.4-0.7c0,0.3-0.2,0.5-0.4,0.7c0,0.1,0,0.2,0,0.3l-0.2,0.1
		c0,0.2,0,0.3,0.1,0.5c0-0.5,0.2-0.9,0.4-1.3c0.9-1.2,2.1-2.1,3.6-2.5c1.5-0.5,3.1-0.8,4.7-1c0.8-0.1,1.7-0.2,2.6-0.1
		c0.7,0,1.4,0.3,2,0.8c1.9,2.2,1.9,5.5-0.1,7.7c-0.5,0.5-1,1-1.5,1.4c-0.5,0.4-1.1,0.8-1.8,1c-0.6,0.4-0.7,0.8-0.6,1.1
		c0.1,0.2,0.2,0.4,0.4,0.5c0.6,0.3,1.2,0.3,1.8,0c0.8-0.4,1.6-0.8,2.4-1.2c-0.7,0.5-0.6,0.1-0.1-0.3s1.2-1.2,1.8-1.8
		c1-0.9,1.6-2.3,1.6-3.7c0-0.8,0-1.5-0.2-2.2c-0.1-0.7-0.4-1.5-0.6-2.2c-0.3-0.8-0.9-1.6-1.7-2.1c-1-0.7-2.2-1.1-3.5-1.1
		c-1,0-2.1,0.1-3.1,0.3c-2,0.4-4,1-5.9,1.8c-1.1,0.5-1.9,1.4-2.5,2.4c-0.5,0.7-0.8,1.4-0.9,2.2c-0.1,0.9,0.1,1.8,0.4,2.6
		c-0.3-0.8-0.4-1.7-0.4-2.5c0.1-0.7,0.2,0.5,0.3,0.9c0,0.2-0.2,0.5-0.1,0.7c0.1,0.4,0.2,0.8,0.4,1.1c0.1,0.2-0.1,0.2-0.1,0.3
		c0.2,0.5,0.7,0.8,0.8,1.1c0.1,0.2,0.2,0.5,0.3,0.7c0.1,0.1,0.1,0.3,0.2,0.4l0.2,0.2c0-0.1,0.1-0.2,0.1-0.3c0.1,0.1,0.2,0.3,0.2,0.4
		c-0.1-0.1-0.2-0.3-0.2-0.4c-0.1,0.1-0.1,0.2-0.1,0.3c0.6,0.5,1.2,1,1.9,1.3l0,0c-0.4-0.2-0.7-0.6-0.9-1c0.1,0.2,0,0.2-0.1,0v-0.2
		c0.3,0.2,0.6,0.5,0.8,0.8l0.2,0.1c0.1,0.1,0,0.2,0,0.2l0.2,0.1c-0.1-0.1-0.2-0.3-0.2-0.4L692.5,613.9z"/>
	<path class="st2" d="M690.1,610.3l0.1,0.2c-0.1-0.3-0.2-0.5-0.2-0.8C689.9,609.9,689.9,610.2,690.1,610.3z"/>
</g>
<g class="st1">
	<path class="st2" d="M336.8,576l-2.5,2.8l-1.2,1.4c-0.4,0.5-0.9,0.9-1.3,1.3l2.8-2.5C335.4,578.1,336.2,577.1,336.8,576z"/>
	<path class="st2" d="M326.9,586.4l-1,0.9l-0.8,0.8L326.9,586.4z"/>
	<path class="st2" d="M317.2,595.1c1.8-1.4,3.5-2.8,5.1-4.2C320.9,592,319.1,593.3,317.2,595.1z"/>
	<path class="st2" d="M325.3,588.5c-0.7,0.4-1.1,0.6-0.2-0.4l0,0l-2.8,2.8C323.4,589.9,324.4,589.1,325.3,588.5z"/>
	<path class="st2" d="M325.3,588.5c0.7-0.4,1.6-1.2,2-1.4C326.7,587.5,326,588,325.3,588.5z"/>
	<path class="st2" d="M325.1,593.3c-0.9,1-1.3,0-3.2,1.9l-3.4,3c-1.1,1-2.2,1.8-3.3,2.8s-2.2,1.8-3.3,2.6s-2.4,1.6-3.6,2.4
		c-0.6,0.4-1.2,0.8-1.9,1.2c-0.7,0.4-1.5,0.8-2.3,1.1c-1.5,0.5-2.9,1.2-4.3,2c-5.2,3.5-19.5,10.6-10.9,6.9c3.2-1.4,6.1-2.8,8.9-4.3
		s5.2-3,7.6-4.4c2.4-1.6,4.7-3.1,7.1-4.8l3.5-2.7c1.2-0.9,2.5-1.8,3.6-2.8c7.8-6.7,14.8-14.2,21-22.3c0.9-1.2,1.8-2.3,2.7-3.4
		l1.3-1.6l1.2-1.7c-1.1,1.5-2.3,2.8-3.5,4.3s-2.5,3-3.9,4.4c-1.9,1.9-3.6,4.4-5.8,6.9c-1.1,1.3-2.1,2.7-3.5,4.1
		S326.6,591.8,325.1,593.3z"/>
	<path class="st2" d="M362.9,528.2l-0.7,3.8c-2.3,5.4-4.1,11.1-6.6,16.7l1.6-2.2c0.5-0.9,0.8-1.8,1-2.7c0-0.2-0.4,0.4-1.1,1.8
		c3.3-6.1,5.7-12.7,7-19.5C363.6,526.5,363.4,526.4,362.9,528.2z"/>
	<path class="st2" d="M364.7,522.2c-0.2,1.3-0.5,2.7-0.7,4l0.1-0.1c0.2-1.3,0.4-2.7,0.6-4L364.7,522.2z"/>
	<path class="st2" d="M294.4,610.6c-7.6,3.6-15.5,6.9-23.4,9.6c-7.8,2.8-15.5,5.2-23.2,7.4c-1.1,0.6-2.3,1-3.5,1.3
		c-1.2,0.2-2.5,0.4-3.7,0.7c-2.3,0.6-4.5,1.2-6.8,1.7l-2.4,0.7h-0.1c-1.2,0.4-0.8,0.5,0,0.4s1.7-0.2,2.5-0.2c-0.5,0-1.7,0.2-2.5,0.2
		c-1.1,0.2-2.3,0.3-3.7,0.6c-2.1,0.5-4.2,1-6.5,1.5c2.5-0.6,4.6-1.1,6.5-1.5c1.3-0.3,2.6-0.7,3.8-1l1.1-0.3
		c-5.2,1.2-10.4,2.3-15.6,3.3l-3.3,0.7c-1.9,0.4-3.8,0.8-5.5,1.1c-1.5,0.3-3,0.4-4.5,0.4c-0.9,0.1-1.9,0.2-2.8,0.4h0.6l-1.1,0
		l-3,0.4l-3,0.3c-2,0.2-4,0.4-6,0.5c-1.3,0.2-2.6,0.4-3.9,0.6s-2.7,0.4-4,0.5l-2.7-0.4c-1.5,0.3-3,0.5-4.5,0.5l3.1,0.4
		c1,0.1,2,0.2,2.9,0.3c1.5,0.1,3,0,4.4-0.4c1.6-0.4,3.2-0.4,4.8-0.2c-1.6-0.2-3.2-0.2-4.8,0.2c-1.4,0.4-2.9,0.5-4.4,0.4
		c-0.9-0.1-1.9-0.2-2.9-0.3l-3.1-0.4c-2.1,0.1-4.2,0-6.3-0.2c-1.1-0.1-2.2-0.2-3.3-0.4c-1-0.1-2.1-0.3-3.1-0.6
		c4.2,0.1,8.4,0.5,12.6,1.1c1.5,0,3-0.2,4.5-0.5l2.7,0.4c1.3-0.1,2.7-0.3,4-0.5s2.6-0.4,3.9-0.6c-7.9,0.6-15.9,0.6-23.8,0l-2.4-0.2
		l-2.4-0.3c-0.8-0.1-1.6-0.2-2.4-0.3l-2.4-0.4c-1.6-0.2-3.1-0.6-4.7-1s-3.1-0.8-4.7-1.2c-3.1-0.8-6.3-1.5-9.3-2.2
		c-3-0.6-5.8-1.7-8.4-3.3c-1.2-0.8-2.2-1.8-3.1-2.9c-0.9-1.2-1.7-2.5-2.3-3.8c-1.3-2.8-2.4-5.7-3.4-8.6c-1.9-6-3.6-12.1-5.2-18.2
		l-1.2-4.6l-1.1-4.6l-1.1-4.6c-0.4-1.5-0.6-3.1-0.9-4.7l-0.8-4.7c-0.2-0.8-0.3-1.6-0.3-2.4l-0.3-2.4c-0.2-1.6-0.4-3.2-0.6-4.8
		s-0.2-3.2-0.3-4.8s-0.2-3.2-0.2-4.8s0-3.2,0.1-4.8v-2.4c0-0.8,0.1-1.6,0.2-2.4l0.4-4.8c0.1-0.8,0.2-1.6,0.3-2.4l0.4-2.4l0.4-2.4
		l0.2-1.2l0.3-1.2c0.4-1.6,0.8-3.2,1.1-4.8l0.3-1.2l0.4-1.2l0.7-2.4c0.5-1.7,1-3.5,1.7-5.1s1.3-3.4,1.9-5s1.5-3.3,2.2-4.9l0.6-1.2
		l0.6-1.2l1.2-2.4l1.2-2.4c0.4-0.8,0.9-1.5,1.3-2.3c0.9-1.5,1.8-3.1,2.7-4.6l2.9-4.5c0.9-1.5,2-2.9,3-4.4c4-5.8,8.3-11.3,12.7-16.7
		s8.9-10.7,13.3-16.1c8.9-10.4,17.1-21.4,24.6-32.9c7.3-11.5,13.3-23.8,17.6-36.7l1.5-4.9c0.5-1.6,1-3.2,1.4-4.9l1.2-5
		c0.4-1.7,0.6-3.4,1-5.1l0.5-2.5c0.1-0.9,0.2-1.7,0.4-2.5l0.7-5.1c0.2-3.4,0.7-6.9,0.7-10.3c0.5-14-0.3-28.1-2.3-42
		c-0.8-5.4-2.1-12-3.8-19s-4-14.5-6.4-21.8c-4.5-13.1-9.7-25.8-15.7-38.2c-3.4-6.2-5.9-9.8-7.7-11.8s-2.8-2.4-3.2-1.9
		c-0.9,0.9,0,4.9,0.2,5.5c2.4,8.4,5.2,15.3,8.9,24.3c5,12,9,24.3,12,36.9c-0.7-2.8-1.1-4.7-1.3-5.8s-0.1-1.4,0.1-1
		c0.5,0.9,0.9,1.9,1.2,2.9c0.5,1.5,1.2,3.6,2,6c1.7,5.8,3.1,11.6,4.2,17.5c0.3,1.6,0.6,3.2,0.8,4.9s0.5,3.2,0.6,4.8
		c0.3,3.2,0.6,6.2,0.6,9c0.2,8,0.4,16.7,0.1,25.9c-0.3,9.5-1.4,19.1-3.3,28.4c-2.1,9.8-5.2,19.3-9.2,28.5
		c-4.1,9.1-9.1,17.7-14.9,25.8c-5.6,7.9-11.9,16.3-19.3,25.5c-9.8,11.8-19.7,23.6-28.3,36.5c-4.3,6.5-8.1,13.3-11.5,20.4
		c-3.3,7.2-5.9,14.7-7.8,22.4c-0.4,1.9-0.8,3.9-1.3,5.8s-0.6,3.9-0.9,5.9c-0.1,1-0.3,2-0.4,3l-0.2,3c-0.1,2-0.3,4-0.4,6
		c0,4-0.1,8,0.2,12l0.2,3c0.1,1,0.1,2,0.3,3c0.3,2,0.5,4,0.8,6c0.1,1,0.2,2,0.4,3l0.6,3c0.4,2,0.8,4,1.1,5.9
		c0.9,3.9,1.9,7.9,2.9,11.7c2.1,7.6,4.2,15.3,6.8,23.4c0.7,2.1,1.5,4.2,2.5,6.3c1,2.2,2.2,4.4,3.6,6.3c1.6,2.2,3.7,4,6,5.4
		c2.1,1.2,4.3,2.1,6.7,2.7c4.2,1.1,7.9,1.6,11.5,2.3l5.4,1c1.9,0.3,3.8,0.7,5.7,0.9c10.4,1.6,20.9,2.1,31.4,1.5
		c12.3-0.9,24.4-2.9,36.4-5.9c-6.1,1.3-11.5,2.5-17.1,3.4s-11.4,1.8-18.4,2.3c-4.7,0.3-3.1-0.1,0.5-0.7l6.2-1.1l5.9-1
		c1.6-0.3,3.1-0.4,4.7-0.3c1.6,0,3.2-0.1,4.7-0.4c5.7-1,10.8-2.4,16.8-3.9c2.5-0.8,2.4,0.2,3.7-0.2c8.2-2.1,14.1-5,19.3-6.2
		c4-1,7.5-1.9,11-2.8c2.2-0.6,4.3-1.3,6.6-2.1l4.2-1.7c-0.8,0.1-1.6,0-2.3-0.3c2.1-0.7,5.1-1.5,7.2-2.2c-2.1,0.7-5.1,1.6-7.2,2.2
		c0.7,0.3,1.5,0.4,2.3,0.3c5.1-2.1,10.6-4.4,16.1-7c2.8-1.3,5.5-2.6,8.2-4s5.3-3,7.8-4.5H302l-4.5,2.5c-1.5,0.8-3.1,1.5-4.7,2.2
		c-3.2,1.4-6.5,2.6-9.9,3.7c3-1,2.7-0.6-0.6,0.8c-0.9,0.2-1.8,0.4-2.7,0.5c5.6-2.5,11.1-5.1,16.7-7.1c0,0,0.6-0.3,1.3-0.8l2-1.4
		c1.8-0.8,1.8-0.5,2.3-0.5c1.2-0.7,2.4-1.3,3.5-2.1c-0.3,0.1-0.8,0.3-1.2,0.6s-1,0.5-1.6,0.7l-3.6,1.6c-1.2,0.5-2.3,1.1-3.1,1.4
		L294.4,610.6z"/>
	<path class="st2" d="M227.4,632.9l3.2-0.8c-2.2,0.5-4.4,1-6.5,1.4s-4.4,0.9-6.6,1.3C219.9,634.8,223.6,633.9,227.4,632.9z"/>
</g>
<g class="st1">
	<path class="st2" d="M503.1,575.9l2.5,2.9l1.2,1.4c0.4,0.5,0.9,0.9,1.3,1.4c-0.4-0.5-0.8-1-1.2-1.5s-0.8-1-1.1-1.6
		C505,577.6,504.1,576.7,503.1,575.9z"/>
	<path class="st2" d="M513,586.7l1,0.9l0.9,0.7L513,586.7z"/>
	<path class="st2" d="M523.2,595.1c-1.8-1.5-3.5-2.9-5.2-4.2C519.4,592.2,521.1,593.6,523.2,595.1z"/>
	<path class="st2" d="M515.3,588.1c0.5,0.7,0.7,1-0.4,0.2l0,0l3,2.6C517,589.9,516.1,588.9,515.3,588.1z"/>
	<path class="st2" d="M515.3,588.1c-0.5-0.6-1.3-1.6-1.6-1.9C514.2,586.8,514.7,587.4,515.3,588.1z"/>
	<path class="st2" d="M520,587.8c1,0.8,0.2,1.3,2.3,2.8l3.5,2.6c1.2,0.8,2.3,1.5,3.5,2.3l3.4,2.3c1.2,0.7,2.3,1.4,3.5,2.2
		c0.6,0.4,1.2,0.8,1.8,1.2c0.6,0.5,1.2,1,1.9,1.5c1.2,1,2.5,1.8,3.9,2.5c5.3,2.9,20.2,7.5,11.8,4c-3.1-1.3-6-2.6-8.6-3.9
		s-5-2.7-7.4-3.9c-2.3-1.4-4.6-2.8-6.9-4.3l-3.5-2.4c-1.2-0.8-2.4-1.6-3.6-2.6c-8.1-5.8-15.4-12.5-22-20c-0.9-1.1-1.8-2.2-2.6-3.3
		l-1.2-1.6c-0.4-0.5-0.8-1.1-1.1-1.7c0.9,1.5,2,2.9,3.1,4.4s2.2,3.1,3.5,4.6c1.9,2.3,4,4.4,6.3,6.2c1.3,1,2.5,2.2,4,3.4
		S518.5,586.5,520,587.8z"/>
	<path class="st2" d="M477.6,526.8l1.3,3.7c1.2,6,3.3,11.7,6.4,17c-0.2-0.9-0.5-1.8-0.8-2.7c-0.4-0.9-0.8-1.7-1.3-2.6
		c-0.1-0.1,0,0.6,0.5,2.1c-2.4-6.6-4.4-13.2-6-20C477.6,524.9,477.2,524.9,477.6,526.8z"/>
	<path class="st2" d="M476.9,520.4c0.3,1.3,0.6,2.7,0.8,4c0-0.1,0-0.1,0.1-0.2c-0.3-1.3-0.6-2.7-0.9-4L476.9,520.4z"/>
	<path class="st2" d="M547.2,609.3c7.7,3.6,15.5,6.8,23.5,9.7c7.8,2.8,15.5,5.3,23.2,7.6c1.3,0.1,2.5,0.3,3.7,0.7
		c1.2,0.5,2.3,0.9,3.5,1.3c2.3,0.6,4.5,1.2,6.8,1.8l2.4,0.5h0.1c1.3,0.2,1,0,0.2-0.4s-1.6-0.6-2.3-0.9c0.4,0.2,1.6,0.6,2.3,0.9
		c1.2,0.4,2.4,0.8,3.6,1.1c2.1,0.4,4.3,0.9,6.5,1.4c-2.2-0.3-4.4-0.8-6.5-1.4c-1.3-0.2-2.6-0.5-3.9-0.8l-1.1-0.2
		c5.2,1.3,10.4,2.5,15.6,3.5l3.3,0.6c1.9,0.3,3.8,0.5,5.5,0.8c1.5,0.2,3,0.5,4.4,1c0.9,0.2,1.9,0.3,2.8,0.4l-0.5-0.2l1.1,0.2l3,0.4
		l3,0.4c2,0.3,4,0.5,6,0.6c1.3,0,2.7,0,4,0s2.7,0,4,0l2.7,0.6c1.5-0.2,3-0.4,4.5-0.4l-3.1-0.4c-1-0.2-1.9-0.3-2.9-0.5
		c-1.5-0.2-3-0.2-4.4,0c-1.6,0.2-3.2,0-4.8-0.5c1.5,0.5,3.2,0.7,4.8,0.5c1.5-0.2,3-0.2,4.4,0c0.9,0.1,1.9,0.3,2.9,0.5l3.1,0.4
		c1.9,0,4.1-0.2,6.3-0.2c1.1,0,2.2-0.1,3.3,0h3.2c-4.2,0.8-8.5,0.8-12.8,0.2c-1.5,0.1-3,0.2-4.5,0.4l-2.7-0.6c-1.3,0-2.7,0-4,0
		s-2.7,0-4,0c8,0.8,16.1,1,24.1,0.5l2.5-0.2l2.5-0.3c0.8-0.1,1.6-0.2,2.5-0.3l2.4-0.4c1.6-0.2,3.2-0.6,4.8-0.9s3.2-0.7,4.7-1.1
		c3.1-0.7,6.3-1.3,9.4-2.1c3.3-0.7,6.5-1.9,9.4-3.6c1.5-1,2.7-2.2,3.8-3.6c1-1.3,1.9-2.8,2.7-4.3c1.4-2.9,2.6-5.9,3.6-9
		c2-6.1,3.7-12.2,5.5-18.3l1.3-4.6l1.2-4.7l1.2-4.7c0.4-1.6,0.6-3.2,1-4.8l0.9-4.8c0.2-0.8,0.3-1.6,0.4-2.4l0.3-2.4l0.6-4.9
		c0.2-1.6,0.2-3.3,0.3-4.9s0.2-3.3,0.3-4.9v-5v-2.5c0-0.8-0.1-1.7-0.2-2.5c-0.1-1.7-0.2-3.3-0.4-5c-0.1-0.8-0.1-1.7-0.3-2.5
		l-0.4-2.5l-0.4-2.5l-0.2-1.3l-0.3-1.2c-0.4-1.7-0.7-3.3-1.1-5l-0.3-1.3l-0.4-1.2l-0.7-2.5c-0.5-1.8-1-3.6-1.7-5.4s-1.2-3.5-1.9-5.2
		s-1.5-3.4-2.2-5.1l-0.5-1.3l-0.6-1.2l-1.2-2.5L725,494c-0.4-0.8-0.9-1.6-1.3-2.4c-0.9-1.6-1.7-3.2-2.7-4.8s-1.9-3.1-2.8-4.6
		s-2-3-2.9-4.5c-4-6-8.1-11.8-12.4-17.4s-8.5-11.1-12.7-16.6c-8.4-10.9-16.4-21.6-23.3-32.8c-6.9-11-12.4-22.8-16.5-35.1
		c-8-24.5-7.5-51.2-1.4-77.8c1.2-5.1,2.6-11.3,4.4-18s4-13.8,6.3-20.9c4.2-12.6,9.2-25,14.8-37.1c1.8-4.2,3.3-8.5,4.5-12.8
		c0.6-2.5,0.4-3.4-0.2-3.6c-1.2-0.4-4,2.5-4.4,3c-5.5,6.8-9.1,13.5-13.2,22.5s-8.6,20.2-14.6,36.7c1-2.8,1.7-4.7,2.2-5.7
		s0.7-1.2,0.6-0.8c-0.2,1.1-0.4,2.1-0.7,3.2c-0.4,1.6-1,3.7-1.7,6.2c-1.3,4.9-3.1,11.2-4.7,17.7c-0.4,1.6-0.8,3.2-1.2,4.9
		s-0.8,3.2-1.2,4.8c-0.7,3.2-1.5,6.2-2.1,9c-2.2,8.8-3.4,17.8-3.5,26.9c-0.2,10.3,0.8,20.6,3,30.7c2.4,10.5,6,20.8,10.6,30.5
		c4.5,9.5,9.7,18.7,15.5,27.5c5.5,8.6,12.2,17,19.6,26.4c9.4,12.3,18.8,24,26.8,36.2c4,6,7.5,12.3,10.7,18.8
		c3,6.5,5.4,13.2,7.2,20.1l1.2,5.2c0.3,1.8,0.6,3.5,0.9,5.3c0.1,0.9,0.3,1.8,0.4,2.7l0.2,2.7c0.1,1.8,0.4,3.6,0.4,5.4
		c0,3.6,0.2,7.3-0.1,10.9l-0.1,2.8c0,0.9-0.1,1.8-0.2,2.8c-0.2,1.8-0.4,3.7-0.6,5.5c-0.1,0.9-0.2,1.8-0.3,2.8l-0.5,2.8
		c-0.3,1.8-0.7,3.7-1,5.6c-0.4,1.8-0.9,3.7-1.3,5.5s-0.9,3.7-1.4,5.6c-2.1,7.6-4.2,15.3-6.7,22.7c-1,3.5-2.5,6.8-4.4,10
		c-0.7,1.1-1.6,2.1-2.7,2.8c-1.3,0.8-2.6,1.5-4.1,1.9c-3.2,1.1-7,2-10.6,3l-5.4,1.5c-1.7,0.4-3.3,0.9-5,1.2
		c-9.9,1.9-21,1.3-29.4,0.8c-11.9-0.8-23.7-2.2-35.4-4.3c6,1.2,11.3,2,16.8,2.7s11.1,1.3,17.8,1.7c4.5,0.2,2.9,0.5-0.5,0.6
		c-1.7,0-4,0-6.1,0s-4.3-0.2-5.8-0.3c-1.5-0.2-3.1-0.5-4.5-0.9c-1.5-0.5-3-0.8-4.5-1c-5.6-0.9-10.7-1.5-16.7-2.5
		c-2.6-0.4-2.1-1.2-3.4-1.4c-8.1-1.6-14.6-2.1-19.6-3.8c-3.8-1.2-7.3-2.4-10.6-3.7c-2.1-0.7-4.2-1.5-6.5-2.2l-4.3-1.2
		c0.7,0.4,1.2,0.9,1.6,1.6c-2.1-0.8-4.9-2-7-2.8c2,0.8,4.9,2.1,7,2.8c-0.4-0.7-0.9-1.2-1.6-1.6c-5.2-1.5-10.8-3.4-16.5-5.5
		c-2.8-1-5.6-2.1-8.4-3.3s-5.4-2.6-8-3.9c0,0,0.1,0.1,0.1,0.2l4.5,2.5c1.5,0.8,3,1.5,4.5,2.3l9.4,4.7c-2.8-1.4-2.3-1.5,1-0.2
		l2.3,1.4c-5.8-2-11.6-4.1-16.5-7.4c0,0-0.6-0.2-1.4-0.6l-2.2-1c-1.6-1.1-1.4-1.3-1.6-1.7c-1.2-0.6-2.4-1.2-3.5-2
		c0.3,0.2,0.6,0.5,1,0.9s0.9,0.7,1.4,1l3.3,2.2c1.1,0.7,2.1,1.4,2.9,1.9L547.2,609.3z"/>
	<path class="st2" d="M614.4,631.7c-0.9-0.2-2-0.4-3.2-0.7c2.2,0.5,4.3,1,6.5,1.6s4.4,1,6.6,1.4C622,633.1,618.2,632.5,614.4,631.7z
		"/>
</g>
</svg>
