<?xml version="1.0" encoding="utf-8"?>
<!-- Generator: Adobe Illustrator 25.0.0, SVG Export Plug-In . SVG Version: 6.00 Build 0)  -->
<svg version="1.1" id="Layer_1" xmlns="http://www.w3.org/2000/svg" xmlns:xlink="http://www.w3.org/1999/xlink" x="0px" y="0px"
	 viewBox="0 0 850.4 850.4" style="enable-background:new 0 0 850.4 850.4;" xml:space="preserve">
<style type="text/css">
	.st0{fill:#DC9DB5;}
	.st1{opacity:0.47;fill:#9E537F;enable-background:new    ;}
	.st2{fill:#F6AAC4;stroke:#231F20;stroke-width:4;stroke-miterlimit:10;}
	.st3{fill:#F294BA;stroke:#231F20;stroke-width:3;stroke-miterlimit:10;}
	.st4{fill:#9E537F;}
	.st5{fill:#D96A94;stroke:#231F20;stroke-width:3;stroke-miterlimit:10;}
</style>
<rect class="st0" width="850.4" height="850.4"/>
<path class="st1" d="M312.5,558.6l-28.8,11.8c-21.5,8.8-45.4,9.8-67.6,2.7l-29.7-9.5c-22.1-7.1-41.1-21.7-53.4-41.4l-16.6-26.3
	c-12.4-19.7-17.5-43-14.4-66.1l4.2-30.8c3.1-23,14.3-44.2,31.5-59.9l23-20.9c17.2-15.6,39.4-24.7,62.6-25.6l31.1-1.2
	c23.2-0.9,46,6.4,64.4,20.6l24.6,19c18.4,14.2,31.2,34.5,36.1,57.2l6.6,30.4c4.9,22.7,1.7,46.4-9.1,67l-14.5,27.6
	C351.7,533.7,334,549.8,312.5,558.6z"/>
<path class="st2" d="M312.5,540l-28.8,11.8c-21.5,8.8-45.4,9.8-67.6,2.7l-29.7-9.5c-22.1-7.1-41-21.7-53.4-41.4l-16.6-26.3
	c-12.4-19.7-17.5-43-14.4-66.1l4.2-30.9c3.1-23,14.3-44.2,31.5-59.9l23-21c17.2-15.6,39.4-24.7,62.6-25.6l31.1-1.2
	c23.2-0.9,46,6.4,64.4,20.6l24.6,19.1c18.4,14.2,31.2,34.5,36.1,57.2l6.6,30.4c4.9,22.7,1.7,46.4-9.1,67l-14.5,27.6
	C351.7,515.1,334,531.2,312.5,540z"/>
<path class="st3" d="M243.3,381.5l-18,6.5c-3.5,1.3-6.4,3.7-8.2,6.9l-9.6,16.6c-1.8,3.2-2.5,6.9-1.9,10.5l3.4,18.9
	c0.6,3.6,2.5,6.9,5.3,9.3l14.7,12.3c2.8,2.3,6.3,3.6,10,3.7h19.1c3.7,0,7.2-1.3,10-3.7l14.7-12.3c2.8-2.4,4.7-5.6,5.4-9.3l3.4-18.9
	c0.6-3.6,0-7.4-1.9-10.5l-9.6-16.6c-1.8-3.2-4.7-5.6-8.1-6.9l-18-6.5C250.5,380.2,246.7,380.2,243.3,381.5z"/>
<path class="st4" d="M243.4,402.8l-6.6,2.4c-3.4,1.2-6.2,3.6-8,6.7l-3.5,6.1c-1.8,3.1-2.4,6.8-1.8,10.3l1.2,6.9
	c0.6,3.5,2.5,6.8,5.2,9.1l5.4,4.5c2.8,2.3,6.2,3.6,9.9,3.6h7c3.6,0,7.1-1.3,9.8-3.6l5.4-4.5c2.8-2.3,4.6-5.5,5.2-9.1l1.2-6.9
	c0.6-3.5,0-7.2-1.8-10.3l-3.5-6.1c-1.8-3.1-4.6-5.5-8-6.7l-6.6-2.4C250.5,401.5,246.8,401.5,243.4,402.8z"/>
<path class="st5" d="M243.5,401.4l-6.4,2.3c-3.1,1.1-5.8,3.4-7.4,6.2l-3.4,5.9c-1.7,2.9-2.3,6.3-1.7,9.6l1.2,6.7
	c0.6,3.3,2.3,6.3,4.9,8.4l5.2,4.4c2.6,2.2,5.8,3.3,9.1,3.3h6.9c3.3,0,6.6-1.2,9.1-3.3l5.2-4.4c2.6-2.1,4.3-5.1,4.9-8.4l1.2-6.7
	c0.6-3.3,0-6.7-1.7-9.6l-3.4-5.9c-1.7-2.9-4.3-5.1-7.4-6.2l-6.4-2.3C250.1,400.3,246.7,400.2,243.5,401.4z"/>
<path class="st1" d="M673.5,558.6l-28.8,11.8c-21.5,8.8-45.4,9.8-67.6,2.7l-29.7-9.5c-22.1-7.1-41.1-21.7-53.5-41.4l-16.6-26.3
	c-12.4-19.7-17.5-43-14.4-66.1l4.2-30.8c3.1-23,14.3-44.2,31.5-59.9l23-20.9c17.2-15.6,39.4-24.7,62.6-25.6l31.1-1.2
	c23.2-0.9,46,6.4,64.4,20.6l24.6,19c18.4,14.2,31.2,34.5,36.1,57.2l6.6,30.4c4.9,22.7,1.7,46.4-9.1,67l-14.5,27.6
	C712.7,533.7,694.9,549.8,673.5,558.6z"/>
<path class="st2" d="M673.5,540l-28.8,11.8c-21.5,8.8-45.4,9.8-67.6,2.7l-29.7-9.5c-22.1-7.1-41.1-21.7-53.5-41.4l-16.6-26.3
	c-12.4-19.7-17.5-43-14.4-66.1l4.2-30.9c3.1-23,14.3-44.2,31.5-59.9l23-21c17.2-15.6,39.4-24.7,62.6-25.6l31.1-1.2
	c23.2-0.9,46,6.4,64.4,20.6l24.6,19.1c18.4,14.2,31.2,34.5,36.1,57.2l6.6,30.4c4.9,22.7,1.7,46.4-9.1,67l-14.5,27.6
	C712.7,515.1,695,531.2,673.5,540z"/>
<path class="st3" d="M604.2,381.5l-18,6.5c-3.5,1.3-6.4,3.7-8.2,6.9l-9.6,16.6c-1.8,3.2-2.5,6.9-1.8,10.5l3.3,18.9
	c0.6,3.6,2.5,6.9,5.3,9.3l14.7,12.3c2.8,2.4,6.3,3.6,10,3.7h19.1c3.7,0,7.2-1.3,10-3.7l14.7-12.3c2.8-2.4,4.7-5.6,5.3-9.3l3.3-18.9
	c0.6-3.6,0-7.4-1.8-10.5l-9.6-16.6c-1.8-3.2-4.7-5.6-8.2-6.9l-18-6.5C611.5,380.2,607.7,380.2,604.2,381.5z"/>
<path class="st4" d="M604.3,402.8l-6.6,2.4c-3.4,1.2-6.2,3.6-8,6.7l-3.5,6.1c-1.8,3.1-2.4,6.8-1.8,10.3l1.2,6.9
	c0.6,3.5,2.5,6.8,5.2,9.1l5.4,4.5c2.8,2.3,6.2,3.6,9.8,3.6h7c3.6,0,7.1-1.3,9.8-3.6l5.4-4.5c2.8-2.3,4.6-5.5,5.2-9.1l1.2-6.9
	c0.6-3.5,0-7.2-1.8-10.3l-3.5-6.1c-1.8-3.1-4.6-5.5-8-6.7l-6.6-2.4C611.4,401.6,607.7,401.5,604.3,402.8z"/>
<path class="st5" d="M604.5,401.4l-6.4,2.3c-3.1,1.2-5.8,3.4-7.5,6.3l-3.4,5.9c-1.7,2.9-2.3,6.3-1.7,9.6l1.2,6.7
	c0.6,3.3,2.3,6.3,4.9,8.4l5.2,4.4c2.6,2.2,5.8,3.3,9.1,3.3h6.8c3.3,0,6.6-1.2,9.1-3.4l5.2-4.4c2.6-2.1,4.3-5.1,4.9-8.4l1.2-6.7
	c0.6-3.3,0-6.7-1.7-9.6l-3.4-5.9c-1.7-2.9-4.3-5.1-7.4-6.2l-6.4-2.3C611.1,400.3,607.6,400.2,604.5,401.4z"/>
</svg>
