<?xml version="1.0" encoding="utf-8"?>
<!-- Generator: Adobe Illustrator 25.0.0, SVG Export Plug-In . SVG Version: 6.00 Build 0)  -->
<svg version="1.1" id="Layer_1" xmlns="http://www.w3.org/2000/svg" xmlns:xlink="http://www.w3.org/1999/xlink" x="0px" y="0px"
	 viewBox="0 0 850.4 850.4" style="enable-background:new 0 0 850.4 850.4;" xml:space="preserve">
<style type="text/css">
	.st0{fill:#F9C3D5;}
	.st1{opacity:0.47;fill:#9E537F;enable-background:new    ;}
	.st2{fill:#ED95BF;stroke:#231F20;stroke-width:4;stroke-miterlimit:10;}
	.st3{fill:#E772AC;stroke:#231F20;stroke-width:2;stroke-miterlimit:10;}
	.st4{fill:#9E537F;}
	.st5{fill:#E661A4;stroke:#231F20;stroke-width:2;stroke-miterlimit:10;}
	.st6{fill:#9E537F;stroke:#231F20;stroke-width:3;stroke-miterlimit:10;}
</style>
<rect class="st0" width="850.4" height="850.4"/>
<path class="st1" d="M308.5,292.1H190.7c-11.6,0-22.4,6.2-28.2,16.3l-58.9,102c-5.8,10.1-5.8,22.5,0,32.6l58.9,102
	c5.8,10.1,16.6,16.3,28.2,16.3h117.8c11.6,0,22.4-6.2,28.2-16.3l58.9-102c5.8-10.1,5.8-22.5,0-32.6l-58.9-102
	C330.9,298.3,320.2,292.1,308.5,292.1z"/>
<path class="st2" d="M307,287.1H192.2c-11.6,0-22.4,6.2-28.2,16.3l-57.4,99.4c-5.8,10.1-5.8,22.5,0,32.6l57.4,99.4
	c5.8,10.1,16.6,16.3,28.2,16.3H307c11.6,0,22.4-6.2,28.2-16.3l57.4-99.4c5.8-10.1,5.8-22.5,0-32.6l-57.4-99.4
	C329.4,293.3,318.6,287.1,307,287.1z"/>
<path class="st3" d="M273.1,370.6h-46.9c-2.8,0-5.4,1.5-6.8,3.9l-23.5,40.6c-1.4,2.4-1.4,5.4,0,7.8l23.5,40.6c1.4,2.4,4,3.9,6.8,3.9
	h46.9c2.8,0,5.4-1.5,6.8-3.9l23.5-40.7c1.4-2.4,1.4-5.4,0-7.8l-23.5-40.6C278.5,372.1,275.9,370.6,273.1,370.6z"/>
<path class="st4" d="M260.6,395.6h-22c-2.7,0-5.3,1.5-6.6,3.8l-11,19.1c-1.4,2.4-1.4,5.3,0,7.6l11,19.1c1.4,2.4,3.9,3.8,6.6,3.8h22
	c2.7,0,5.3-1.5,6.6-3.8l11-19.1c1.4-2.4,1.4-5.3,0-7.6l-11-19.1C265.9,397.1,263.4,395.6,260.6,395.6z"/>
<path class="st5" d="M260.2,393.2h-21.1c-2.7,0-5.3,1.5-6.6,3.8L222,415.3c-1.4,2.4-1.4,5.3,0,7.7l10.5,18.2
	c1.4,2.4,3.9,3.8,6.6,3.8h21c2.7,0,5.3-1.5,6.6-3.8l10.5-18.2c1.4-2.4,1.4-5.3,0-7.7L266.8,397C265.4,394.6,262.9,393.2,260.2,393.2
	z"/>
<path class="st6" d="M475.1,419.4h201.5c2.1,0,3.8,1.7,3.8,3.8v4c0,2.1-1.7,3.8-3.8,3.8H475.1c-2.1,0-3.8-1.7-3.8-3.8v-4
	C471.3,421.1,473,419.4,475.1,419.4z"/>
</svg>
