<svg id="Layer_1" data-name="Layer 1" xmlns="http://www.w3.org/2000/svg" viewBox="0 0 850.39 850.39"><defs><style>.cls-1{fill:#dd5da2;}.cls-2,.cls-5{fill:#3f2a37;}.cls-2{opacity:0.44;}.cls-3{fill:#e27cb2;stroke-width:4px;}.cls-3,.cls-4,.cls-6,.cls-7{stroke:#231f20;stroke-miterlimit:10;}.cls-4{fill:#e681b4;}.cls-4,.cls-6,.cls-7{stroke-width:3px;}.cls-6{fill:#e661a4;}.cls-7{fill:#9e537f;}</style></defs><rect class="cls-1" width="850.39" height="850.39"/><path class="cls-2" d="M369.38,356.83H329.14a12,12,0,0,1-12-12V304.6a12,12,0,0,0-12-12H177.76a12,12,0,0,0-12,12v40.25a12,12,0,0,1-12,12H113.55a12,12,0,0,0-12,12V496.23a12,12,0,0,0,12,12H153.8a12,12,0,0,1,12,12v40.25a12,12,0,0,0,12,12H305.18a12,12,0,0,0,12-12V520.18a12,12,0,0,1,12-12h40.24a12,12,0,0,0,12-12V368.81A12,12,0,0,0,369.38,356.83Z"/><path class="cls-3" d="M369.38,344.16H329.14a12,12,0,0,1-12-12V291.94a12,12,0,0,0-12-12H177.76a12,12,0,0,0-12,12v40.24a12,12,0,0,1-12,12H113.55a12,12,0,0,0-12,12V483.56a12,12,0,0,0,12,12H153.8a12,12,0,0,1,12,12v40.24a12,12,0,0,0,12,12H305.18a12,12,0,0,0,12-12V507.52a12,12,0,0,1,12-12h40.24a12,12,0,0,0,12-12V356.14A12,12,0,0,0,369.38,344.16Z"/><circle class="cls-4" cx="241.47" cy="426.18" r="41.75"/><circle class="cls-5" cx="241.47" cy="428.06" r="18.74"/><circle class="cls-6" cx="241.47" cy="424.31" r="18.74"/><rect class="cls-7" x="498.07" y="422.28" width="209.04" height="11.55" rx="3.78"/></svg>