<?xml version="1.0" encoding="utf-8"?>
<!-- Generator: Adobe Illustrator 25.0.0, SVG Export Plug-In . SVG Version: 6.00 Build 0)  -->
<svg version="1.1" id="Layer_1" xmlns="http://www.w3.org/2000/svg" xmlns:xlink="http://www.w3.org/1999/xlink" x="0px" y="0px"
	 viewBox="0 0 850.4 850.4" style="enable-background:new 0 0 850.4 850.4;" xml:space="preserve">
<style type="text/css">
	.st0{fill:#F49ABE;}
	.st1{opacity:0.47;fill:#3F2A37;enable-background:new    ;}
	.st2{fill:#F27CAD;stroke:#231F20;stroke-width:4;stroke-miterlimit:10;}
	.st3{fill:#E681B4;stroke:#231F20;stroke-width:3;stroke-miterlimit:10;}
	.st4{fill:#3F2A37;}
	.st5{fill:#E661A4;stroke:#231F20;stroke-width:3;stroke-miterlimit:10;}
</style>
<rect class="st0" width="850.4" height="850.4"/>
<path class="st1" d="M405.5,430.3L405.5,430.3c9.3-18.2,5.8-40.4-8.7-54.9l-0.5-0.5c-0.3-0.3-0.5-0.8-0.5-1.3v-0.6
	c0-20.5-13.2-38.6-32.6-44.9l0,0c-0.5-0.2-0.9-0.6-1.1-1.1l-0.4-1.3c-6.1-18.7-23.5-31.4-43.2-31.4h-2c-0.5,0-0.9-0.2-1.3-0.5
	l-0.5-0.5c-14.5-14.5-36.6-18-54.9-8.7l0,0c-0.5,0.3-1.1,0.3-1.6,0l-1.2-0.6c-17.5-8.9-38.8-5.6-52.8,8.4l-1.4,1.4
	c-0.3,0.3-0.8,0.5-1.3,0.5h-2c-19.7,0-37.1,12.7-43.2,31.4l-0.4,1.3c-0.2,0.6-0.6,1-1.2,1.2l-1.3,0.4c-18.7,6.1-31.4,23.5-31.4,43.2
	v2c0,0.5-0.2,0.9-0.5,1.3l-1.4,1.4c-13.9,13.9-17.3,35.2-8.3,52.8l0.6,1.2c0.3,0.5,0.3,1.1,0,1.6l0,0c-9.3,18.2-5.8,40.4,8.7,54.9
	l0.4,0.5c0.3,0.3,0.5,0.8,0.5,1.3v2c0,19.7,12.7,37.1,31.4,43.2l1.3,0.4c0.6,0.2,1,0.6,1.2,1.2l0.4,1.3
	c6.1,18.7,23.5,31.4,43.2,31.4h2c0.5,0,0.9,0.2,1.3,0.5l1.4,1.4c13.9,13.9,35.2,17.3,52.7,8.3l1.2-0.6c0.5-0.3,1.1-0.3,1.6,0
	l1.2,0.6c17.5,8.9,38.8,5.6,52.8-8.3l1.4-1.4c0.3-0.3,0.8-0.5,1.3-0.5h2c19.7,0,37.1-12.7,43.2-31.4l0.4-1.3c0.2-0.6,0.6-1,1.2-1.2
	l1.3-0.4c18.7-6.1,31.4-23.5,31.4-43.2v-2c0-0.5,0.2-0.9,0.5-1.3l0.5-0.5c14.5-14.5,18-36.7,8.6-54.9l0,0
	C405.2,431.5,405.2,430.8,405.5,430.3z"/>
<path class="st2" d="M405.5,417.4L405.5,417.4c9.3-18.2,5.8-40.4-8.7-54.9l-0.5-0.5c-0.3-0.3-0.5-0.8-0.5-1.3v-0.6
	c0-20.5-13.2-38.6-32.6-44.9l0,0c-0.6-0.2-1-0.6-1.2-1.2l-0.4-1.3c-6.1-18.7-23.5-31.4-43.2-31.4h-2c-0.5,0-0.9-0.2-1.3-0.5
	l-0.5-0.5c-14.5-14.5-36.6-18-54.9-8.7l0,0c-0.5,0.3-1.1,0.3-1.6,0l-1.2-0.6c-17.5-8.9-38.8-5.6-52.8,8.4l-1.4,1.4
	c-0.3,0.3-0.8,0.5-1.3,0.5h-2c-19.7,0-37.1,12.7-43.2,31.4l-0.4,1.3c-0.2,0.6-0.6,1-1.2,1.2l-1.3,0.4c-18.7,6.1-31.4,23.5-31.4,43.2
	v2c0,0.5-0.2,0.9-0.5,1.3l-1.4,1.4c-13.9,13.9-17.3,35.2-8.3,52.8l0.6,1.2c0.3,0.5,0.3,1.1,0,1.6l0,0c-9.3,18.2-5.8,40.4,8.7,54.9
	l0.4,0.5c0.3,0.3,0.5,0.8,0.5,1.3v2c0,19.7,12.7,37.1,31.4,43.2l1.3,0.4c0.6,0.2,1,0.6,1.2,1.2l0.4,1.3
	c6.1,18.7,23.5,31.4,43.2,31.4h2c0.5,0,0.9,0.2,1.3,0.5l1.4,1.4c13.9,13.9,35.2,17.3,52.8,8.4l1.2-0.6c0.5-0.3,1.1-0.3,1.6,0
	l1.2,0.6c17.6,8.9,38.9,5.5,52.8-8.4l1.4-1.4c0.3-0.3,0.8-0.5,1.3-0.5h2c19.7,0,37.1-12.7,43.2-31.4l0.4-1.3c0.2-0.6,0.6-1,1.2-1.2
	l1.3-0.4c18.7-6.1,31.4-23.5,31.4-43.2v-2c0-0.5,0.2-1,0.5-1.3l0.5-0.5c14.5-14.5,18-36.6,8.7-54.9l0,0
	C405.2,418.5,405.2,417.9,405.5,417.4z"/>
<circle class="st3" cx="258.7" cy="424.7" r="28.7"/>
<circle class="st4" cx="258.7" cy="426" r="12.9"/>
<circle class="st5" cx="258.7" cy="423.4" r="12.9"/>
<path class="st1" d="M738.9,430.3L738.9,430.3c9.3-18.2,5.8-40.4-8.7-54.9l-0.5-0.5c-0.3-0.3-0.5-0.8-0.5-1.3v-0.6
	c0-20.5-13.2-38.6-32.7-44.9l0,0c-0.6-0.2-1-0.6-1.2-1.2l-0.4-1.3c-6.1-18.7-23.5-31.4-43.2-31.4h-2c-0.5,0-0.9-0.2-1.3-0.5
	l-0.5-0.5c-14.5-14.5-36.6-18-54.9-8.7l0,0c-0.5,0.3-1.1,0.3-1.7,0l-1.2-0.6c-17.5-8.9-38.8-5.6-52.8,8.4l-1.4,1.4
	c-0.3,0.3-0.8,0.5-1.3,0.5h-2c-19.7,0-37.1,12.7-43.2,31.4l-0.3,1.3c-0.2,0.6-0.6,1-1.2,1.2l-1.3,0.4c-18.7,6.1-31.4,23.5-31.4,43.2
	v2c0,0.5-0.2,0.9-0.5,1.3l-1.4,1.4c-13.9,13.9-17.3,35.2-8.4,52.8l0.6,1.2c0.3,0.5,0.3,1.1,0,1.6l0,0c-9.3,18.2-5.8,40.4,8.7,54.9
	l0.5,0.5c0.3,0.3,0.5,0.8,0.5,1.3v2c0.1,19.6,12.7,37,31.4,43.1l1.3,0.4c0.6,0.2,1,0.6,1.2,1.2l0.4,1.3
	c6.1,18.7,23.5,31.4,43.2,31.4h2c0.5,0,0.9,0.2,1.3,0.5l1.4,1.4c13.9,13.9,35.2,17.3,52.8,8.3l1.2-0.6c0.5-0.3,1.1-0.3,1.7,0
	l1.2,0.6c17.5,8.9,38.8,5.6,52.8-8.3l1.4-1.4c0.3-0.3,0.8-0.5,1.3-0.5h2c19.7,0,37.1-12.7,43.1-31.4l0.4-1.3c0.2-0.6,0.6-1,1.2-1.2
	l1.3-0.4c18.7-6.1,31.4-23.5,31.4-43.2v-2c0-0.5,0.2-0.9,0.5-1.3l0.5-0.5c14.5-14.5,18-36.6,8.7-54.8l0,0
	C738.7,431.5,738.7,430.8,738.9,430.3z"/>
<path class="st2" d="M738.9,417.4L738.9,417.4c9.3-18.2,5.8-40.4-8.7-54.9l-0.5-0.5c-0.3-0.3-0.5-0.8-0.5-1.3v-0.6
	c0-20.5-13.2-38.6-32.7-44.9l0,0c-0.6-0.2-1-0.6-1.2-1.2l-0.4-1.3c-6.1-18.7-23.5-31.4-43.2-31.4h-2c-0.5,0-0.9-0.2-1.3-0.5
	l-0.5-0.5c-14.5-14.5-36.6-18-54.9-8.7l0,0c-0.5,0.3-1.1,0.3-1.7,0l-1.2-0.6c-17.5-8.9-38.8-5.6-52.8,8.4l-1.4,1.4
	c-0.3,0.3-0.8,0.5-1.3,0.5h-2c-19.7,0-37.1,12.7-43.2,31.4l-0.4,1.3c-0.2,0.6-0.6,1-1.2,1.2l-1.3,0.4c-18.7,6.1-31.4,23.5-31.4,43.2
	v2c0,0.5-0.2,0.9-0.5,1.3l-1.4,1.4c-13.9,13.9-17.3,35.2-8.4,52.8l0.6,1.2c0.3,0.5,0.3,1.1,0,1.6l0,0c-9.3,18.2-5.8,40.4,8.7,54.9
	l0.5,0.5c0.3,0.3,0.5,0.8,0.5,1.3v2c0.1,19.7,12.8,37.1,31.5,43.1l1.3,0.4c0.6,0.2,1,0.6,1.2,1.2l0.4,1.3
	c6.1,18.7,23.5,31.4,43.2,31.4h2c0.5,0,0.9,0.2,1.3,0.5l1.4,1.4c13.9,13.9,35.2,17.3,52.8,8.4l1.2-0.6c0.5-0.3,1.1-0.3,1.7,0
	l1.2,0.6c17.5,8.9,38.8,5.6,52.7-8.4l1.4-1.4c0.3-0.3,0.8-0.5,1.3-0.5h2c19.7,0,37.1-12.7,43.1-31.4l0.4-1.3c0.2-0.6,0.6-1,1.2-1.2
	l1.3-0.4c18.7-6.1,31.4-23.5,31.4-43.2v-2c0-0.5,0.2-0.9,0.5-1.3l0.5-0.5c14.5-14.5,18-36.6,8.7-54.9l0,0
	C738.7,418.5,738.7,417.9,738.9,417.4z"/>
<circle class="st3" cx="592.2" cy="424.7" r="28.7"/>
<circle class="st4" cx="592.2" cy="426" r="12.9"/>
<circle class="st5" cx="592.2" cy="423.4" r="12.9"/>
</svg>
