<?xml version="1.0" encoding="utf-8"?>
<!-- Generator: Adobe Illustrator 25.0.0, SVG Export Plug-In . SVG Version: 6.00 Build 0)  -->
<svg version="1.1" id="Layer_1" xmlns="http://www.w3.org/2000/svg" xmlns:xlink="http://www.w3.org/1999/xlink" x="0px" y="0px"
	 viewBox="0 0 850.4 850.4" style="enable-background:new 0 0 850.4 850.4;" xml:space="preserve">
<style type="text/css">
	.st0{fill:#E086B7;}
	.st1{opacity:0.47;fill:#3F2A37;enable-background:new    ;}
	.st2{fill:#E69CC4;stroke:#000000;stroke-width:4;stroke-miterlimit:10;}
	.st3{fill:#E681B4;stroke:#231F20;stroke-width:3;stroke-miterlimit:10;}
	.st4{fill:#3F2A37;}
	.st5{fill:#E661A4;stroke:#231F20;stroke-width:3;stroke-miterlimit:10;}
	.st6{fill:#9E537F;stroke:#231F20;stroke-width:3;stroke-miterlimit:10;}
</style>
<rect class="st0" width="850.4" height="850.4"/>
<path class="st1" d="M408.1,437.2c0-31.2-33.1-58.3-81.7-71.9c-13.7-48.6-40.8-81.7-71.9-81.7s-58.3,33.1-71.9,81.7
	c-48.6,13.7-81.7,40.8-81.7,71.9s33.1,58.3,81.7,71.9c13.7,48.6,40.8,81.7,71.9,81.7s58.3-33.1,71.9-81.7
	C375,495.4,408.1,468.4,408.1,437.2z"/>
<path class="st2" d="M408.1,422.4c0-31.2-33.1-58.3-81.7-72c-13.7-48.6-40.8-81.7-71.9-81.7s-58.3,33.1-71.9,81.7
	c-48.6,13.7-81.7,40.8-81.7,72s33.1,58.3,81.7,71.9c13.7,48.6,40.8,81.6,71.9,81.6s58.3-33.1,71.9-81.7
	C375,480.7,408.1,453.6,408.1,422.4z"/>
<ellipse transform="matrix(0.1602 -0.9871 0.9871 0.1602 -203.2432 605.9962)" class="st3" cx="254.5" cy="422.4" rx="41" ry="41"/>
<ellipse transform="matrix(0.1602 -0.9871 0.9871 0.1602 -205.0595 607.5415)" class="st4" cx="254.5" cy="424.3" rx="18.4" ry="18.4"/>
<ellipse transform="matrix(0.1602 -0.9871 0.9871 0.1602 -201.4171 604.4426)" class="st5" cx="254.5" cy="420.6" rx="18.4" ry="18.4"/>
<path class="st6" d="M498,431.4h201.5c2.1,0,3.8,1.7,3.8,3.8v4c0,2.1-1.7,3.8-3.8,3.8H498c-2.1,0-3.8-1.7-3.8-3.8v-4
	C494.2,433.1,495.9,431.4,498,431.4z"/>
</svg>
