<?xml version="1.0" encoding="utf-8"?>
<!-- Generator: Adobe Illustrator 25.0.0, SVG Export Plug-In . SVG Version: 6.00 Build 0)  -->
<svg version="1.1" id="Layer_1" xmlns="http://www.w3.org/2000/svg" xmlns:xlink="http://www.w3.org/1999/xlink" x="0px" y="0px"
	 viewBox="0 0 850.4 850.4" style="enable-background:new 0 0 850.4 850.4;" xml:space="preserve">
<style type="text/css">
	.st0{fill:#EC79A9;}
	.st1{opacity:0.47;fill:#3F2A37;enable-background:new    ;}
	.st2{fill:#F6AAC4;stroke:#231F20;stroke-width:4;stroke-miterlimit:10;}
	.st3{fill:#E681B4;stroke:#231F20;stroke-width:3;stroke-miterlimit:10;}
	.st4{fill:#3F2A37;}
	.st5{fill:#E661A4;stroke:#231F20;stroke-width:3;stroke-miterlimit:10;}
	.st6{fill:#9E537F;stroke:#231F20;stroke-width:3;stroke-miterlimit:10;}
</style>
<rect class="st0" width="850.4" height="850.4"/>
<path class="st1" d="M667.7,560.8L667.7,560.8c-15.3-9.8-35.8-5.4-45.6,10c-0.6,0.9-1.1,1.9-1.6,2.8l0,0c-14,27.7-55,22.4-61.6-7.9
	l0,0c-3.9-17.8-21.5-29.1-39.3-25.2c-1.1,0.2-2.1,0.5-3.2,0.9l0,0c-29.5,9.6-54.7-23.1-38-49.2l0,0c9.8-15.3,5.4-35.8-10-45.6
	c-0.9-0.6-1.9-1.1-2.8-1.6l0,0c-27.6-14-22.4-55,7.9-61.6l0,0c17.8-3.9,29.1-21.5,25.2-39.3c-0.2-1.1-0.5-2.1-0.9-3.2l0,0
	c-9.6-29.5,23.1-54.7,49.2-38l0,0c15.3,9.8,35.8,5.4,45.6-10c0.6-0.9,1.1-1.9,1.6-2.8l0,0c14-27.7,55-22.4,61.6,7.9l0,0
	c3.9,17.8,21.5,29.1,39.3,25.2c1.1-0.2,2.1-0.5,3.2-0.9l0,0c29.5-9.6,54.7,23.1,38,49.2l0,0c-9.8,15.3-5.4,35.8,10,45.6
	c0.9,0.6,1.9,1.1,2.8,1.6l0,0c27.7,14,22.4,55-7.9,61.6l0,0c-17.8,3.9-29.1,21.5-25.2,39.3c0.2,1.1,0.5,2.1,0.9,3.2l0,0
	C726.4,552.3,693.7,577.5,667.7,560.8z"/>
<path class="st2" d="M667.7,546.4L667.7,546.4c-15.3-9.8-35.8-5.4-45.6,10c-0.6,0.9-1.1,1.9-1.6,2.8l0,0c-14,27.7-55,22.4-61.6-7.9
	l0,0c-3.9-17.8-21.5-29.1-39.3-25.2c-1.1,0.2-2.1,0.5-3.1,0.9l0,0c-29.5,9.6-54.7-23.1-38-49.2l0,0c9.8-15.3,5.4-35.8-10-45.6
	c-0.9-0.6-1.9-1.1-2.8-1.6l0,0c-27.6-14-22.4-55,7.9-61.6l0,0c17.8-3.9,29.1-21.5,25.2-39.3c-0.2-1.1-0.5-2.1-0.9-3.2l0,0
	c-9.6-29.5,23.1-54.7,49.2-38l0,0c15.3,9.8,35.8,5.4,45.6-10c0.6-0.9,1.1-1.9,1.6-2.8l0,0c14-27.6,55-22.4,61.6,7.9l0,0
	c3.9,17.8,21.5,29.1,39.3,25.2c1.1-0.2,2.1-0.5,3.2-0.9l0,0c29.5-9.6,54.7,23.1,38,49.2l0,0c-9.8,15.3-5.4,35.8,10,45.6
	c0.9,0.6,1.9,1.1,2.8,1.6l0,0c27.7,14,22.4,55-7.9,61.6l0,0c-17.8,3.9-29.1,21.5-25.2,39.3c0.2,1.1,0.5,2.1,0.9,3.2l0,0
	C726.4,538,693.7,563.2,667.7,546.4z"/>
<circle class="st3" cx="607.4" cy="420.1" r="52.1"/>
<circle class="st4" cx="607.4" cy="422.5" r="23.4"/>
<circle class="st5" cx="607.4" cy="417.8" r="23.4"/>
<path class="st6" d="M155.3,418.9h201.5c2.1,0,3.8,1.7,3.8,3.8v4c0,2.1-1.7,3.8-3.8,3.8H155.3c-2.1,0-3.8-1.7-3.8-3.8v-4
	C151.5,420.6,153.2,418.9,155.3,418.9z"/>
</svg>
