<?xml version="1.0" encoding="utf-8"?>
<!-- Generator: Adobe Illustrator 25.0.0, SVG Export Plug-In . SVG Version: 6.00 Build 0)  -->
<svg version="1.1" id="Layer_1" xmlns="http://www.w3.org/2000/svg" xmlns:xlink="http://www.w3.org/1999/xlink" x="0px" y="0px"
	 viewBox="0 0 850.4 850.4" style="enable-background:new 0 0 850.4 850.4;" xml:space="preserve">
<style type="text/css">
	.st0{fill:#F19EC0;}
	.st1{opacity:0.3;fill:#3F2A37;enable-background:new    ;}
	.st2{fill:#E57FB3;stroke:#231F20;stroke-width:4;stroke-miterlimit:10;}
	.st3{fill:#E06BA9;stroke:#231F20;stroke-width:3;stroke-miterlimit:10;}
	.st4{fill:#3F2A37;}
	.st5{fill:#E661A4;stroke:#231F20;stroke-width:3;stroke-miterlimit:10;}
	.st6{fill:#9E537F;stroke:#231F20;stroke-width:3;stroke-miterlimit:10;}
</style>
<rect class="st0" width="850.7" height="850.7"/>
<path class="st1" d="M223.2,575.2l2.2-29.8c0.2-2.6-1.7-4.8-4.3-5c-1.8-0.1-3.6,0.8-4.4,2.4l-14,26.3c-2.6,4.9-10.1,1.9-8.6-3.5
	l8.3-28.7c0.7-2.5-0.8-5-3.2-5.7c-1.7-0.5-3.6,0.1-4.8,1.4l-19.2,22.8c-3.6,4.3-10.3-0.3-7.7-5.2l14.1-26.3c1.3-2.2,0.5-5.1-1.8-6.3
	c-1.7-0.9-3.7-0.7-5.2,0.5l-23.5,18.4c-4.4,3.4-10-2.4-6.4-6.7l19.2-22.8c1.7-2,1.4-4.9-0.6-6.6c-1.4-1.2-3.4-1.4-5-0.6l-26.9,13
	c-5,2.5-9.3-4.4-4.9-7.9l23.6-18.3c2-1.6,2.4-4.5,0.9-6.5c-1.1-1.5-3.1-2.1-4.9-1.7l-29,7.2c-5.4,1.4-8.2-6.3-3.2-8.7l26.9-13
	c2.3-1.1,3.3-3.9,2.2-6.2c-0.8-1.7-2.5-2.7-4.4-2.6l-29.8,1c-5.6,0.2-6.7-7.8-1.3-9.2l29-7.1c2.5-0.6,4-3.1,3.4-5.6
	c-0.4-1.8-1.9-3.2-3.7-3.5l-29.4-5.2c-5.5-1-4.9-9,0.7-9.2l29.8-1c2.6-0.1,4.6-2.2,4.5-4.8c0-1.9-1.2-3.5-2.9-4.2l-27.7-11.2
	c-5.2-2.1-2.9-9.9,2.6-8.9l29.4,5.3c2.5,0.4,5-1.3,5.4-3.8c0.3-1.8-0.5-3.6-2-4.7L122,366.7c-4.6-3.1-0.8-10.3,4.4-8.2l27.6,11.3
	c2.4,1,5.1-0.2,6.1-2.6c0.7-1.7,0.3-3.6-1-5l-20.7-21.5c-3.9-4,1.3-10.2,6-7.1l24.6,16.8c2.1,1.4,5,0.9,6.5-1.2
	c1-1.5,1.1-3.5,0.1-5.1l-15.8-25.3c-3-4.7,3.4-9.7,7.3-5.7l20.7,21.5c1.8,1.9,4.7,1.9,6.6,0.2c1.3-1.3,1.8-3.2,1.2-5l-10.1-28.1
	c-1.9-5.3,5.4-8.8,8.3-4l15.8,25.4c1.3,2.2,4.2,2.9,6.4,1.5c1.6-1,2.4-2.8,2.2-4.6l-4.1-29.6c-0.8-5.5,7.1-7.5,9-2.2l10.1,28.1
	c0.9,2.4,3.6,3.6,6,2.8c1.7-0.6,2.9-2.2,3-4l2.1-29.8c0.4-5.6,8.5-5.8,9.2-0.3l4.1,29.6c0.3,2.5,2.7,4.3,5.2,4
	c1.8-0.2,3.3-1.6,3.9-3.3l8.2-28.7c1.5-5.4,9.5-4,9.1,1.6l-2.2,29.8c-0.2,2.6,1.8,4.8,4.3,5c1.8,0.1,3.5-0.8,4.4-2.4l14-26.4
	c2.6-4.9,10.1-1.9,8.6,3.5l-8.3,28.7c-0.7,2.5,0.8,5,3.2,5.7c1.7,0.5,3.6-0.1,4.8-1.4l19.2-22.9c3.6-4.3,10.3,0.3,7.7,5.2
	l-14.1,26.3c-1.2,2.2-0.4,5.1,1.8,6.3c1.7,0.9,3.7,0.7,5.2-0.5l23.5-18.4c4.4-3.4,10,2.4,6.4,6.7L343,356.1c-1.7,2-1.4,4.9,0.5,6.6
	c1.4,1.2,3.4,1.5,5.1,0.6l26.8-13.1c5-2.5,9.3,4.4,4.9,7.9l-23.6,18.3c-2,1.6-2.4,4.5-0.9,6.5c1.1,1.5,3.1,2.1,4.9,1.7l29-7.2
	c5.4-1.4,8.2,6.3,3.1,8.7l-26.9,13c-2.3,1.1-3.3,3.9-2.2,6.2c0.8,1.7,2.5,2.7,4.4,2.6l29.8-1c5.6-0.2,6.7,7.8,1.3,9.2l-29,7.1
	c-2.5,0.6-4,3.1-3.4,5.6c0.4,1.8,1.9,3.1,3.7,3.5l29.4,5.2c5.5,1,4.9,9-0.7,9.2l-29.8,1c-2.6,0-4.6,2.1-4.6,4.7c0,1.9,1.2,3.6,3,4.3
	l27.7,11.2c5.2,2.1,2.9,9.9-2.6,8.9l-29.4-5.3c-2.5-0.5-4.9,1.2-5.4,3.8c-0.3,1.8,0.5,3.6,2,4.7l24.8,16.6c4.6,3.1,0.8,10.3-4.4,8.2
	L353,493.5c-2.4-1-5.1,0.2-6.1,2.6c-0.7,1.7-0.3,3.6,1,5l20.7,21.5c3.9,4-1.3,10.2-6,7.1L338,512.9c-2.1-1.4-5-0.9-6.5,1.2
	c-1,1.5-1.1,3.5-0.1,5.1l15.8,25.3c3,4.8-3.4,9.7-7.3,5.7l-20.7-21.5c-1.8-1.9-4.7-1.9-6.6-0.2c-1.3,1.3-1.8,3.2-1.2,5l10.2,28.1
	c1.9,5.2-5.4,8.8-8.3,4l-15.8-25.3c-1.3-2.2-4.2-2.9-6.4-1.5c-1.6,1-2.4,2.8-2.2,4.6l4.1,29.6c0.8,5.5-7.1,7.5-9,2.2L274.1,547
	c-0.9-2.4-3.6-3.6-6-2.8c-1.7,0.6-2.9,2.2-3,4L263,578c-0.4,5.6-8.5,5.8-9.2,0.3l-4.1-29.6c-0.4-2.5-2.7-4.3-5.3-4
	c-1.8,0.3-3.3,1.5-3.8,3.3l-8.2,28.7C230.8,582.2,222.8,580.8,223.2,575.2z"/>
<path class="st2" d="M223.2,562.2l2.2-29.8c0.2-2.6-1.7-4.8-4.3-5c-1.8-0.1-3.6,0.8-4.4,2.4l-14,26.3c-2.6,4.9-10.1,1.9-8.6-3.5
	l8.3-28.7c0.7-2.5-0.8-5-3.2-5.7c-1.7-0.5-3.6,0.1-4.8,1.4l-19.2,22.8c-3.6,4.3-10.3-0.3-7.7-5.2l14.1-26.3c1.3-2.2,0.5-5.1-1.8-6.3
	c-1.7-0.9-3.7-0.7-5.2,0.5l-23.5,18.4c-4.4,3.4-10-2.4-6.4-6.7l19.2-22.8c1.7-2,1.4-4.9-0.6-6.6c-1.4-1.2-3.4-1.4-5-0.6l-26.8,13.1
	c-5,2.5-9.3-4.4-4.9-7.9l23.6-18.3c2-1.6,2.4-4.5,0.9-6.5c-1.1-1.5-3.1-2.1-4.9-1.7l-29,7.2c-5.4,1.4-8.2-6.3-3.2-8.7l26.9-13
	c2.3-1.1,3.3-3.9,2.2-6.2c-0.8-1.7-2.5-2.7-4.3-2.6l-29.8,1c-5.6,0.2-6.7-7.8-1.3-9.2l29-7.1c2.5-0.6,4-3.1,3.4-5.6
	c-0.4-1.8-1.9-3.2-3.7-3.5l-29.4-5.2c-5.5-1-4.9-9,0.7-9.2l29.8-1c2.6,0,4.6-2.1,4.6-4.7c0-1.9-1.2-3.6-3-4.3l-27.7-11.2
	c-5.2-2.1-2.9-9.9,2.6-8.9l29.4,5.3c2.5,0.4,5-1.3,5.4-3.8c0.3-1.8-0.5-3.6-2-4.7L122,353.8c-4.6-3.1-0.8-10.3,4.4-8.2l27.6,11.3
	c2.4,1,5.1-0.2,6.1-2.6c0.7-1.7,0.3-3.6-1-5l-20.7-21.5c-3.9-4,1.3-10.2,6-7.1l24.6,16.8c2.1,1.4,5,0.9,6.5-1.2
	c1-1.5,1.1-3.5,0.1-5.1l-15.8-25.3c-3-4.7,3.4-9.7,7.3-5.7l20.7,21.5c1.8,1.9,4.7,1.9,6.6,0.2c1.3-1.3,1.8-3.2,1.2-5l-10.2-28
	c-1.9-5.3,5.4-8.8,8.3-4l15.8,25.4c1.4,2.2,4.2,2.8,6.4,1.5c1.6-1,2.4-2.8,2.1-4.6l-4.1-29.6c-0.8-5.5,7.1-7.5,9-2.2l10.1,28.1
	c0.9,2.4,3.6,3.6,6,2.8c1.7-0.6,2.9-2.2,3-4l2.1-29.8c0.4-5.6,8.5-5.8,9.2-0.3l4.1,29.6c0.3,2.5,2.7,4.3,5.2,4
	c1.8-0.2,3.3-1.6,3.9-3.3l8.2-28.7c1.5-5.4,9.5-4,9.1,1.6l-2.1,29.8c-0.2,2.6,1.8,4.8,4.3,5c1.8,0.1,3.5-0.8,4.4-2.4l14-26.4
	c2.6-4.9,10.1-1.9,8.6,3.5l-8.3,28.7c-0.7,2.5,0.8,5,3.2,5.7c1.7,0.5,3.6-0.1,4.8-1.4l19.2-22.9c3.6-4.3,10.3,0.3,7.7,5.2
	l-14.1,26.3c-1.2,2.2-0.4,5.1,1.8,6.3c1.7,0.9,3.7,0.7,5.2-0.5l23.5-18.4c4.4-3.4,10,2.4,6.4,6.7l-19.3,22.8c-1.7,2-1.4,4.9,0.6,6.6
	c1.4,1.2,3.4,1.4,5,0.6l26.8-13.1c5-2.5,9.3,4.4,4.9,7.9l-23.6,18.3c-2,1.6-2.4,4.5-0.9,6.5c1.1,1.5,3.1,2.1,4.9,1.7l29-7.2
	c5.4-1.4,8.2,6.3,3.1,8.7l-26.9,13c-2.3,1.1-3.3,3.9-2.2,6.2c0.8,1.7,2.5,2.7,4.4,2.6l29.8-1c5.6-0.2,6.7,7.8,1.3,9.2l-29,7.1
	c-2.5,0.6-4,3.1-3.4,5.6c0.4,1.8,1.9,3.1,3.7,3.5l29.4,5.2c5.5,1,4.9,9-0.7,9.2l-29.8,1c-2.6,0-4.6,2.1-4.6,4.7c0,1.9,1.2,3.6,3,4.3
	l27.6,11.2c5.2,2.1,2.9,9.9-2.6,8.9l-29.4-5.3c-2.5-0.5-4.9,1.2-5.4,3.8c-0.3,1.8,0.5,3.6,2,4.7l24.7,16.7c4.6,3.1,0.8,10.3-4.4,8.2
	L353,480.6c-2.4-1-5.1,0.2-6.1,2.6c-0.7,1.7-0.3,3.6,1,5l20.7,21.5c3.9,4-1.3,10.2-6,7.1L338,500c-2.1-1.4-5-0.9-6.5,1.2
	c-1,1.5-1.1,3.5-0.1,5.1l15.8,25.3c3,4.8-3.4,9.7-7.3,5.7l-20.7-21.5c-1.8-1.9-4.7-1.9-6.6-0.2c-1.3,1.3-1.8,3.2-1.2,5l10.2,28.1
	c1.9,5.2-5.4,8.8-8.3,4l-15.7-25.4c-1.3-2.2-4.2-2.9-6.4-1.5c-1.6,1-2.4,2.8-2.2,4.6l4.1,29.6c0.8,5.5-7.1,7.5-9,2.2l-10.1-28.1
	c-0.9-2.4-3.6-3.6-6-2.8c-1.7,0.6-2.9,2.2-3,4l-2.1,29.8c-0.4,5.6-8.5,5.8-9.2,0.3l-4.1-29.6c-0.4-2.5-2.7-4.3-5.3-4
	c-1.8,0.3-3.3,1.5-3.8,3.3l-8.2,28.7C230.8,569.2,222.8,567.8,223.2,562.2z"/>
<circle class="st3" cx="253.6" cy="424.7" r="32.1"/>
<circle class="st4" cx="253.6" cy="426.2" r="14.4"/>
<circle class="st5" cx="253.6" cy="423.3" r="14.4"/>
<path class="st6" d="M527.4,427.7h158.2c2.1,0,3.8,1.7,3.8,3.8v4c0,2.1-1.7,3.8-3.8,3.8H527.4c-2.1,0-3.8-1.7-3.8-3.8v-4
	C523.6,429.4,525.3,427.7,527.4,427.7z"/>
</svg>
