<svg id="Layer_1" data-name="Layer 1" xmlns="http://www.w3.org/2000/svg" viewBox="0 0 850.39 850.39"><defs><style>.cls-1{fill:#e9a4c9;}.cls-2,.cls-5{fill:#3f2a37;}.cls-2{opacity:0.44;}.cls-3{fill:#dc7cb2;stroke-width:4px;}.cls-3,.cls-4,.cls-6{stroke:#231f20;stroke-miterlimit:10;}.cls-4{fill:#e681b4;}.cls-4,.cls-6{stroke-width:3px;}.cls-6{fill:#e661a4;}</style></defs><rect class="cls-1" width="850.39" height="850.39"/><path class="cls-2" d="M731.89,380.71l-87.32-87.33a11.41,11.41,0,0,0-16.13,0L602.93,318.9a11.41,11.41,0,0,1-16.13,0l-25.51-25.52a11.41,11.41,0,0,0-16.13,0l-87.32,87.33a11.4,11.4,0,0,0,0,16.12l25.51,25.52a11.4,11.4,0,0,1,0,16.13L457.84,464a11.41,11.41,0,0,0,0,16.13l87.32,87.32a11.41,11.41,0,0,0,16.13,0l25.51-25.52a11.41,11.41,0,0,1,16.13,0l25.51,25.52a11.41,11.41,0,0,0,16.13,0l87.32-87.32a11.4,11.4,0,0,0,0-16.13l-25.51-25.51a11.41,11.41,0,0,1,0-16.13l25.51-25.52A11.38,11.38,0,0,0,731.89,380.71Z"/><path class="cls-3" d="M731.89,370.28,644.57,283a11.4,11.4,0,0,0-16.13,0l-25.51,25.51a11.41,11.41,0,0,1-16.13,0L561.29,283a11.4,11.4,0,0,0-16.13,0l-87.32,87.32a11.41,11.41,0,0,0,0,16.13l25.51,25.51a11.4,11.4,0,0,1,0,16.13l-25.51,25.51a11.41,11.41,0,0,0,0,16.13L545.16,557a11.41,11.41,0,0,0,16.13,0L586.8,531.5a11.4,11.4,0,0,1,16.13,0L628.44,557a11.41,11.41,0,0,0,16.13,0l87.32-87.32a11.4,11.4,0,0,0,0-16.13l-25.51-25.51a11.41,11.41,0,0,1,0-16.13l25.51-25.51A11.4,11.4,0,0,0,731.89,370.28Z"/><circle class="cls-4" cx="594.87" cy="425.2" r="35.85"/><circle class="cls-5" cx="594.87" cy="426.81" r="16.09"/><circle class="cls-6" cx="594.87" cy="423.59" r="16.09"/><path class="cls-2" d="M392.55,380.71l-87.32-87.33a11.4,11.4,0,0,0-16.12,0L263.59,318.9a11.41,11.41,0,0,1-16.13,0L222,293.38a11.41,11.41,0,0,0-16.13,0L118.5,380.71a11.4,11.4,0,0,0,0,16.12L144,422.35a11.4,11.4,0,0,1,0,16.13L118.5,464a11.41,11.41,0,0,0,0,16.13l87.32,87.32a11.41,11.41,0,0,0,16.13,0l25.51-25.52a11.41,11.41,0,0,1,16.13,0l25.52,25.52a11.4,11.4,0,0,0,16.12,0l87.32-87.32a11.4,11.4,0,0,0,0-16.13L367,438.48a11.41,11.41,0,0,1,0-16.13l25.51-25.52A11.38,11.38,0,0,0,392.55,380.71Z"/><path class="cls-3" d="M392.55,370.28,305.23,283a11.38,11.38,0,0,0-16.12,0l-25.52,25.51a11.41,11.41,0,0,1-16.13,0L222,283a11.4,11.4,0,0,0-16.13,0L118.5,370.28a11.41,11.41,0,0,0,0,16.13L144,411.92a11.4,11.4,0,0,1,0,16.13L118.5,453.56a11.41,11.41,0,0,0,0,16.13L205.82,557A11.41,11.41,0,0,0,222,557l25.51-25.51a11.4,11.4,0,0,1,16.13,0L289.11,557a11.4,11.4,0,0,0,16.12,0l87.32-87.32a11.4,11.4,0,0,0,0-16.13L367,428.05a11.41,11.41,0,0,1,0-16.13l25.51-25.51A11.4,11.4,0,0,0,392.55,370.28Z"/><circle class="cls-4" cx="255.53" cy="425.2" r="35.85"/><circle class="cls-5" cx="255.53" cy="426.81" r="16.09"/><circle class="cls-6" cx="255.53" cy="423.59" r="16.09"/></svg>