<svg id="Layer_1" data-name="Layer 1" xmlns="http://www.w3.org/2000/svg" viewBox="0 0 850.39 850.39"><defs><style>.cls-1{fill:#ecb5d3;}.cls-2,.cls-5{fill:#3f2a37;}.cls-2{opacity:0.56;}.cls-3{fill:#eb9ac3;stroke-width:4px;}.cls-3,.cls-4,.cls-6{stroke:#231f20;stroke-miterlimit:10;}.cls-4{fill:#e681b4;}.cls-4,.cls-6{stroke-width:3px;}.cls-6{fill:#e661a4;}</style></defs><rect class="cls-1" width="850.39" height="850.39"/><path class="cls-2" d="M192.58,605.34,134.84,391.27a43.5,43.5,0,0,1-.51-20.6l17-78.17a43.55,43.55,0,0,1,23.26-29.78l62.43-30.83a43.55,43.55,0,0,1,37.79-.38l63,29.58a43.57,43.57,0,0,1,23.85,29.31l18.47,77.35a43.52,43.52,0,0,1-.32,21.48L321.54,604.92a43.55,43.55,0,0,1-41.6,32.17l-44.89.45A43.53,43.53,0,0,1,192.58,605.34Z"/><path class="cls-3" d="M192,590.8,134.28,376.74a43.54,43.54,0,0,1-.5-20.61l17-78.16a43.55,43.55,0,0,1,23.26-29.78l62.44-30.84a43.56,43.56,0,0,1,37.78-.37l63,29.58a43.57,43.57,0,0,1,23.85,29.31l18.47,77.34a43.56,43.56,0,0,1-.32,21.49L321,590.39a43.54,43.54,0,0,1-41.6,32.17L234.5,623A43.55,43.55,0,0,1,192,590.8Z"/><circle class="cls-4" cx="256.81" cy="548.73" r="41.6"/><circle class="cls-5" cx="256.81" cy="550.6" r="18.67"/><circle class="cls-6" cx="256.81" cy="546.86" r="18.67"/><path class="cls-2" d="M528.81,605.34,471.07,391.27a43.5,43.5,0,0,1-.51-20.6l17-78.17a43.56,43.56,0,0,1,23.27-29.78l62.43-30.83a43.55,43.55,0,0,1,37.79-.38l63,29.58A43.55,43.55,0,0,1,698,290.4l18.46,77.35a43.52,43.52,0,0,1-.32,21.48L657.76,604.92a43.53,43.53,0,0,1-41.6,32.17l-44.88.45A43.53,43.53,0,0,1,528.81,605.34Z"/><path class="cls-3" d="M528.25,590.8,470.51,376.74a43.54,43.54,0,0,1-.51-20.61L487,278a43.55,43.55,0,0,1,23.26-29.78l62.43-30.84a43.59,43.59,0,0,1,37.79-.37l63,29.58a43.55,43.55,0,0,1,23.86,29.31l18.47,77.34a43.56,43.56,0,0,1-.32,21.49L657.21,590.39a43.55,43.55,0,0,1-41.6,32.17l-44.89.45A43.54,43.54,0,0,1,528.25,590.8Z"/><circle class="cls-4" cx="593.04" cy="548.73" r="41.6"/><circle class="cls-5" cx="593.04" cy="550.6" r="18.67"/><circle class="cls-6" cx="593.04" cy="546.86" r="18.67"/></svg>