<?xml version="1.0" encoding="utf-8"?>
<!-- Generator: Adobe Illustrator 25.0.0, SVG Export Plug-In . SVG Version: 6.00 Build 0)  -->
<svg version="1.1" id="Layer_1" xmlns="http://www.w3.org/2000/svg" xmlns:xlink="http://www.w3.org/1999/xlink" x="0px" y="0px"
	 viewBox="0 0 850.4 850.4" style="enable-background:new 0 0 850.4 850.4;" xml:space="preserve">
<style type="text/css">
	.st0{fill:#E686B7;}
	.st1{fill:#9E537F;stroke:#231F20;stroke-width:3;stroke-miterlimit:10;}
</style>
<rect class="st0" width="850" height="850.3"/>
<path class="st1" d="M225.9,422.3h145.9c2.1,0,3.8,1.7,3.8,3.8v0.9c0,2.1-1.7,3.8-3.8,3.8H225.9c-2.1,0-3.8-1.7-3.8-3.8v-0.9
	C222.1,424,223.8,422.3,225.9,422.3z"/>
<path class="st1" d="M480.1,422.3H626c2.1,0,3.8,1.7,3.8,3.8v0.9c0,2.1-1.7,3.8-3.8,3.8H480.1c-2.1,0-3.8-1.7-3.8-3.8v-0.9
	C476.3,424,478,422.3,480.1,422.3z"/>
</svg>
