<svg id="Layer_1" data-name="Layer 1" xmlns="http://www.w3.org/2000/svg" viewBox="0 0 850.39 850.39"><defs><style>.cls-1,.cls-6{fill:#e661a4;}.cls-2,.cls-5{fill:#3f2a37;}.cls-2{opacity:0.47;}.cls-3{fill:#e58bba;}.cls-3,.cls-4,.cls-6,.cls-7{stroke:#231f20;stroke-miterlimit:10;stroke-width:3px;}.cls-4{fill:#e681b4;}.cls-7{fill:#9e537f;}</style></defs><rect class="cls-1" width="850.39" height="850.39"/><path class="cls-2" d="M341.12,560.82,276.3,514.09a12.85,12.85,0,0,0-15.11,0l-64.47,47.21c-10,7.35-23.62-2.45-19.82-14.3L201.31,471a12.85,12.85,0,0,0-4.72-14.35l-64.81-46.73c-10.1-7.28-5-23.22,7.46-23.27l79.91-.29a12.84,12.84,0,0,0,12.18-8.92l24.42-76.09c3.8-11.85,20.55-11.91,24.44-.09l25,75.91A12.85,12.85,0,0,0,317.41,386l79.9-.29c12.45-.05,17.68,15.86,7.64,23.21L340.48,456.1a12.84,12.84,0,0,0-4.62,14.38l25,75.9C364.72,558.2,351.21,568.1,341.12,560.82Z"/><path class="cls-3" d="M340,554.93l-64.82-46.74a12.85,12.85,0,0,0-15.1.06l-64.47,47.2c-10.05,7.36-23.63-2.44-19.83-14.29l24.42-76.08a12.86,12.86,0,0,0-4.72-14.35L130.67,404c-10.09-7.28-5-23.22,7.47-23.27l79.9-.29a12.85,12.85,0,0,0,12.19-8.92l24.41-76.09c3.81-11.85,20.55-11.91,24.44-.09l25,75.91a12.86,12.86,0,0,0,12.25,8.83l79.91-.29c12.44-.05,17.68,15.86,7.64,23.21l-64.48,47.2a12.85,12.85,0,0,0-4.61,14.38l25,75.91C363.62,552.31,350.11,562.2,340,554.93Z"/><circle class="cls-4" cx="270.68" cy="438.32" r="30.14"/><circle class="cls-5" cx="270.68" cy="439.67" r="13.53"/><circle class="cls-6" cx="270.68" cy="436.97" r="13.53"/><rect class="cls-7" x="497.86" y="434.14" width="151.3" height="8.36" rx="3.78"/></svg>