<svg id="Layer_1" data-name="Layer 1" xmlns="http://www.w3.org/2000/svg" viewBox="0 0 850.39 850.39"><defs><style>.cls-1{fill:#ea9bc3;}.cls-2,.cls-5{fill:#3f2a37;}.cls-2{opacity:0.56;}.cls-3{fill:#e783b5;stroke:#000;stroke-width:4px;}.cls-3,.cls-4,.cls-6{stroke-miterlimit:10;}.cls-4{fill:#e681b4;}.cls-4,.cls-6{stroke:#231f20;stroke-width:3px;}.cls-6{fill:#e661a4;}</style></defs><rect class="cls-1" width="850.39" height="850.39"/><path class="cls-2" d="M399.25,375.34,352.8,232.39A13.54,13.54,0,0,0,339.93,223H189.63a13.54,13.54,0,0,0-12.87,9.35l-46.44,143a13.52,13.52,0,0,0,4.91,15.12l40.17,29.19a13.52,13.52,0,0,1,0,21.89l-40.76,29.61a13.54,13.54,0,0,0-4.91,15.13l46.44,142.94A13.54,13.54,0,0,0,189,638.57h150.3a13.52,13.52,0,0,0,12.87-9.35l46.45-142.94a13.55,13.55,0,0,0-4.92-15.13L353.57,442a13.54,13.54,0,0,1,0-21.9l40.76-29.61A13.53,13.53,0,0,0,399.25,375.34Z"/><path class="cls-3" d="M399.25,364.11,352.8,221.17a13.53,13.53,0,0,0-12.87-9.35H189.63a13.53,13.53,0,0,0-12.87,9.35L130.32,364.11a13.53,13.53,0,0,0,4.91,15.13l40.17,29.18a13.53,13.53,0,0,1,0,21.9l-40.76,29.61a13.53,13.53,0,0,0-4.91,15.13L176.17,618A13.54,13.54,0,0,0,189,627.35h150.3A13.52,13.52,0,0,0,352.21,618l46.45-142.94a13.54,13.54,0,0,0-4.92-15.13l-40.17-29.18a13.54,13.54,0,0,1,0-21.9l40.76-29.61A13.54,13.54,0,0,0,399.25,364.11Z"/><circle class="cls-4" cx="264.49" cy="542.28" r="41.42"/><circle class="cls-5" cx="264.49" cy="544.14" r="18.59"/><circle class="cls-6" cx="264.49" cy="540.42" r="18.59"/><path class="cls-2" d="M720.66,375.34,674.22,232.39A13.54,13.54,0,0,0,661.35,223H511.05a13.54,13.54,0,0,0-12.87,9.35l-46.44,143a13.51,13.51,0,0,0,4.91,15.12l40.17,29.19a13.52,13.52,0,0,1,0,21.89l-40.76,29.61a13.54,13.54,0,0,0-4.91,15.13l46.44,142.94a13.54,13.54,0,0,0,12.87,9.35h150.3a13.53,13.53,0,0,0,12.87-9.35l46.45-142.94a13.55,13.55,0,0,0-4.92-15.13L675,442a13.54,13.54,0,0,1,0-21.9l40.76-29.61A13.51,13.51,0,0,0,720.66,375.34Z"/><path class="cls-3" d="M720.66,364.11,674.22,221.17a13.53,13.53,0,0,0-12.87-9.35H511.05a13.53,13.53,0,0,0-12.87,9.35L451.74,364.11a13.52,13.52,0,0,0,4.91,15.13l40.17,29.18a13.53,13.53,0,0,1,0,21.9l-40.76,29.61a13.53,13.53,0,0,0-4.91,15.13L497.59,618a13.54,13.54,0,0,0,12.87,9.35h150.3A13.53,13.53,0,0,0,673.63,618l46.45-142.94a13.54,13.54,0,0,0-4.92-15.13L675,430.75a13.54,13.54,0,0,1,0-21.9l40.76-29.61A13.52,13.52,0,0,0,720.66,364.11Z"/><circle class="cls-4" cx="585.91" cy="542.28" r="41.42"/><circle class="cls-5" cx="585.91" cy="544.14" r="18.59"/><circle class="cls-6" cx="585.91" cy="540.42" r="18.59"/></svg>