<?xml version="1.0" encoding="utf-8"?>
<!-- Generator: Adobe Illustrator 25.0.0, SVG Export Plug-In . SVG Version: 6.00 Build 0)  -->
<svg version="1.1" id="Layer_1" xmlns="http://www.w3.org/2000/svg" xmlns:xlink="http://www.w3.org/1999/xlink" x="0px" y="0px"
	 viewBox="0 0 850.4 850.4" style="enable-background:new 0 0 850.4 850.4;" xml:space="preserve">
<style type="text/css">
	.st0{fill:#E661A4;}
	.st1{opacity:0.47;fill:#3F2A37;enable-background:new    ;}
	.st2{fill:#E58BBA;stroke:#231F20;stroke-width:3;stroke-miterlimit:10;}
	.st3{fill:#E681B4;stroke:#231F20;stroke-width:3;stroke-miterlimit:10;}
	.st4{fill:#3F2A37;}
	.st5{fill:#E661A4;stroke:#231F20;stroke-width:3;stroke-miterlimit:10;}
</style>
<rect class="st0" width="850.4" height="850.4"/>
<path class="st1" d="M342.5,560.6l-64.8-46.7c-4.5-3.3-10.6-3.2-15.1,0.1l-64.5,47.2c-10,7.3-23.6-2.4-19.8-14.3l24.4-76.1
	c1.7-5.3-0.2-11.1-4.7-14.4l-64.8-46.7c-10.1-7.3-5-23.2,7.5-23.3l79.9-0.3c5.6,0,10.5-3.6,12.2-8.9l24.4-76.1
	c3.8-11.9,20.5-11.9,24.4-0.1l25,75.9c1.7,5.3,6.7,8.9,12.3,8.8l79.9-0.3c12.5,0,17.7,15.9,7.6,23.2l-64.5,47.2
	c-4.5,3.3-6.3,9.1-4.6,14.4l25,75.9C366.1,558,352.6,567.9,342.5,560.6z"/>
<path class="st2" d="M341.4,554.7L276.6,508c-4.5-3.3-10.6-3.2-15.1,0.1L197,555.2c-10,7.3-23.6-2.4-19.8-14.3l24.4-76.1
	c1.7-5.3-0.2-11.1-4.7-14.3l-64.8-46.7c-10.1-7.3-5-23.2,7.5-23.3l79.9-0.3c5.6,0,10.5-3.6,12.2-8.9l24.4-76.1
	c3.8-11.9,20.5-11.9,24.4-0.1l25,75.9c1.7,5.3,6.7,8.9,12.2,8.8l79.9-0.3c12.4,0,17.7,15.9,7.6,23.2L340.8,450
	c-4.5,3.3-6.4,9.1-4.6,14.4l25,75.9C365,552.1,351.5,562,341.4,554.7z"/>
<circle class="st3" cx="272.1" cy="438.1" r="30.1"/>
<circle class="st4" cx="272.1" cy="439.5" r="13.5"/>
<circle class="st5" cx="272.1" cy="436.8" r="13.5"/>
<path class="st1" d="M657.4,560.6l-64.8-46.7c-4.5-3.3-10.6-3.2-15.1,0.1L513,561.1c-10,7.3-23.6-2.4-19.8-14.3l24.4-76.1
	c1.7-5.3-0.2-11.1-4.7-14.4L448,409.7c-10.1-7.3-5-23.2,7.5-23.3l79.9-0.3c5.6,0,10.5-3.6,12.2-8.9l24.4-76.1
	c3.8-11.9,20.5-11.9,24.4-0.1l25,75.9c1.7,5.3,6.7,8.9,12.2,8.8l79.9-0.3c12.4,0,17.7,15.9,7.6,23.2l-64.5,47.2
	c-4.5,3.3-6.3,9.1-4.6,14.4l25,75.9C681,558,667.5,567.9,657.4,560.6z"/>
<path class="st2" d="M656.3,554.7L591.4,508c-4.5-3.3-10.6-3.2-15.1,0.1l-64.5,47.2c-10,7.3-23.6-2.4-19.8-14.3l24.4-76.1
	c1.7-5.3-0.2-11.1-4.7-14.3l-64.8-46.7c-10.1-7.3-5-23.2,7.5-23.3l79.9-0.3c5.6,0,10.5-3.6,12.2-8.9l24.4-76.1
	c3.8-11.9,20.5-11.9,24.4-0.1l25,75.9c1.7,5.3,6.7,8.9,12.2,8.8l79.9-0.3c12.5,0,17.7,15.9,7.6,23.2L655.6,450
	c-4.5,3.3-6.4,9.1-4.6,14.4l25,75.9C679.9,552.1,666.3,562,656.3,554.7z"/>
<circle class="st3" cx="586.9" cy="438.1" r="30.1"/>
<circle class="st4" cx="586.9" cy="439.5" r="13.5"/>
<circle class="st5" cx="586.9" cy="436.8" r="13.5"/>
</svg>
