<?xml version="1.0" encoding="utf-8"?>
<!-- Generator: Adobe Illustrator 25.0.0, SVG Export Plug-In . SVG Version: 6.00 Build 0)  -->
<svg version="1.1" id="Layer_1" xmlns="http://www.w3.org/2000/svg" xmlns:xlink="http://www.w3.org/1999/xlink" x="0px" y="0px"
	 viewBox="0 0 850.4 850.4" style="enable-background:new 0 0 850.4 850.4;" xml:space="preserve">
<style type="text/css">
	.st0{fill:#F38BB9;}
	.st1{opacity:0.47;fill:#3F2A37;enable-background:new    ;}
	.st2{fill:#DB65A6;stroke:#231F20;stroke-width:4;stroke-miterlimit:10;}
	.st3{fill:#E681B4;stroke:#231F20;stroke-width:3;stroke-miterlimit:10;}
	.st4{opacity:0.62;fill:#3F2A37;enable-background:new    ;}
	.st5{fill:#E661A4;stroke:#231F20;stroke-width:3;stroke-miterlimit:10;}
</style>
<rect class="st0" width="850.7" height="850.7"/>
<path class="st1" d="M388.4,429.9l-88.3,78.8c-18.5,16.5-46.2,17.2-65.5,1.8l-97.8-78.1c-37.5-29.9-16.4-90.3,31.5-90.5l186.1-0.6
	C401.1,341.1,423.3,398.8,388.4,429.9z"/>
<path class="st2" d="M388.4,420.9l-88.3,78.8c-18.5,16.5-46.2,17.2-65.5,1.8l-97.8-78.1c-37.5-29.9-16.4-90.3,31.5-90.5l186.1-0.6
	C401.1,332.1,423.3,389.8,388.4,420.9z"/>
<circle class="st3" cx="267.5" cy="455.7" r="26"/>
<circle class="st4" cx="267.5" cy="457.7" r="12.3"/>
<circle class="st5" cx="267.5" cy="454.5" r="11.6"/>
<path class="st1" d="M715.1,426.8l-88.3,78.8c-18.5,16.5-46.2,17.2-65.5,1.8l-97.8-78.1C426,399.3,447,338.9,495,338.7l186.1-0.6
	C727.8,338,750,395.7,715.1,426.8z"/>
<path class="st2" d="M715.1,417.8l-88.3,78.8c-18.5,16.5-46.2,17.2-65.5,1.8l-97.8-78.1C426,390.3,447,329.9,495,329.7l186.1-0.6
	C727.8,328.9,750,386.7,715.1,417.8z"/>
<circle class="st3" cx="594.3" cy="452.5" r="26"/>
<circle class="st4" cx="594.3" cy="454.6" r="12.3"/>
<circle class="st5" cx="594.3" cy="451.4" r="11.6"/>
</svg>
