<svg id="Layer_1" data-name="Layer 1" xmlns="http://www.w3.org/2000/svg" viewBox="0 0 850.39 850.39"><defs><style>.cls-1{fill:#edbfd9;}.cls-2,.cls-5{fill:#3f2a37;}.cls-2{opacity:0.47;}.cls-3{fill:#db80b4;stroke-width:4px;}.cls-3,.cls-4,.cls-6,.cls-7{stroke:#231f20;stroke-miterlimit:10;}.cls-4{fill:#e681b4;}.cls-4,.cls-6,.cls-7{stroke-width:3px;}.cls-6{fill:#e661a4;}.cls-7{fill:#9e537f;}</style></defs><rect class="cls-1" width="850.38" height="850.38"/><path class="cls-2" d="M571.89,652.24,468.61,549a16.8,16.8,0,0,1-4.06-17.2L567.83,221.91c5.11-15.32,26.79-15.32,31.89,0L703,531.76a16.8,16.8,0,0,1-4.07,17.2L595.66,652.24A16.8,16.8,0,0,1,571.89,652.24Z"/><path class="cls-3" d="M571.89,635.05,468.61,531.77a16.8,16.8,0,0,1-4.06-17.2L567.83,204.72c5.11-15.33,26.79-15.33,31.89,0L703,514.57a16.8,16.8,0,0,1-4.07,17.2L595.66,635.05A16.82,16.82,0,0,1,571.89,635.05Z"/><circle class="cls-4" cx="583.78" cy="565.24" r="34.87"/><circle class="cls-5" cx="583.78" cy="566.8" r="15.65"/><circle class="cls-6" cx="583.78" cy="563.67" r="15.65"/><rect class="cls-7" x="184.47" y="457.39" width="209.04" height="11.55" rx="3.78"/></svg>