<?xml version="1.0" encoding="utf-8"?>
<!-- Generator: Adobe Illustrator 25.0.0, SVG Export Plug-In . SVG Version: 6.00 Build 0)  -->
<svg version="1.1" id="Layer_1" xmlns="http://www.w3.org/2000/svg" xmlns:xlink="http://www.w3.org/1999/xlink" x="0px" y="0px"
	 viewBox="0 0 850.4 850.4" style="enable-background:new 0 0 850.4 850.4;" xml:space="preserve">
<style type="text/css">
	.st0{fill:#F2C0D9;}
	.st1{opacity:0.44;fill:#3F2A37;enable-background:new    ;}
	.st2{fill:#E19BC4;stroke:#231F20;stroke-width:4;stroke-miterlimit:10;}
	.st3{fill:#E681B4;stroke:#231F20;stroke-width:3;stroke-miterlimit:10;}
	.st4{fill:#3F2A37;}
	.st5{fill:#E661A4;stroke:#231F20;stroke-width:3;stroke-miterlimit:10;}
</style>
<rect class="st0" width="849.9" height="849.5"/>
<path class="st1" d="M217.8,249.7h102.9c43.7,0,79.1,35.4,79.1,79.1v209.4c0,43.7-35.4,79.1-79.1,79.1H217.8
	c-43.7,0-79.1-35.4-79.1-79.1V328.8C138.7,285.1,174.1,249.7,217.8,249.7z"/>
<path class="st2" d="M217.6,234.8h102.9c43.7,0,79.1,35.4,79.1,79.1v209.4c0,43.7-35.4,79.1-79.1,79.1H217.6
	c-43.7,0-79.1-35.4-79.1-79.1V313.9C138.5,270.2,173.9,234.8,217.6,234.8z"/>
<circle class="st3" cx="269.8" cy="519.8" r="46.9"/>
<circle class="st4" cx="269.8" cy="521.9" r="21"/>
<circle class="st5" cx="269.8" cy="517.7" r="21"/>
<path class="st1" d="M527.5,249.7h102.9c43.7,0,79.1,35.4,79.1,79.1v209.4c0,43.7-35.4,79.1-79.1,79.1H527.5
	c-43.7,0-79.1-35.4-79.1-79.1V328.8C448.5,285.1,483.9,249.7,527.5,249.7z"/>
<path class="st2" d="M527.3,234.8h102.9c43.7,0,79.1,35.4,79.1,79.1v209.4c0,43.7-35.4,79.1-79.1,79.1H527.3
	c-43.7,0-79.1-35.4-79.1-79.1V313.9C448.2,270.2,483.7,234.8,527.3,234.8z"/>
<circle class="st3" cx="579.6" cy="519.8" r="46.9"/>
<circle class="st4" cx="579.6" cy="521.9" r="21"/>
<circle class="st5" cx="579.6" cy="517.7" r="21"/>
</svg>
