<?xml version="1.0" encoding="utf-8"?>
<!-- Generator: Adobe Illustrator 25.0.0, SVG Export Plug-In . SVG Version: 6.00 Build 0)  -->
<svg version="1.1" id="Layer_1" xmlns="http://www.w3.org/2000/svg" xmlns:xlink="http://www.w3.org/1999/xlink" x="0px" y="0px"
	 viewBox="0 0 850.4 850.4" style="enable-background:new 0 0 850.4 850.4;" xml:space="preserve">
<style type="text/css">
	.st0{fill:#EDBFD9;}
	.st1{opacity:0.47;fill:#3F2A37;enable-background:new    ;}
	.st2{fill:#DB80B4;stroke:#231F20;stroke-width:4;stroke-miterlimit:10;}
	.st3{fill:#E681B4;stroke:#231F20;stroke-width:3;stroke-miterlimit:10;}
	.st4{fill:#3F2A37;}
	.st5{fill:#E661A4;stroke:#231F20;stroke-width:3;stroke-miterlimit:10;}
</style>
<rect class="st0" width="850.4" height="850.4"/>
<path class="st1" d="M254.7,652.2L151.4,549c-4.5-4.5-6.1-11.2-4.1-17.2l103.3-309.9c5.1-15.3,26.8-15.3,31.9,0l103.3,309.9
	c2,6,0.4,12.7-4.1,17.2L278.5,652.2C272,658.8,261.3,658.8,254.7,652.2C254.7,652.2,254.7,652.2,254.7,652.2z"/>
<path class="st2" d="M254.7,635L151.4,531.8c-4.5-4.5-6.1-11.2-4.1-17.2l103.3-309.9c5.1-15.3,26.8-15.3,31.9,0l103.3,309.9
	c2,6,0.4,12.7-4.1,17.2L278.5,635C271.9,641.6,261.3,641.6,254.7,635z"/>
<circle class="st3" cx="266.6" cy="565.2" r="34.9"/>
<circle class="st4" cx="266.6" cy="566.8" r="15.7"/>
<circle class="st5" cx="266.6" cy="563.7" r="15.7"/>
<path class="st1" d="M571.9,652.2L468.6,549c-4.5-4.5-6.1-11.2-4.1-17.2l103.3-309.9c5.1-15.3,26.8-15.3,31.9,0L703,531.8
	c2,6,0.5,12.7-4,17.2L595.7,652.2C589.1,658.8,578.5,658.8,571.9,652.2C571.9,652.2,571.9,652.2,571.9,652.2z"/>
<path class="st2" d="M571.9,635L468.6,531.8c-4.5-4.5-6.1-11.2-4.1-17.2l103.3-309.9c5.1-15.3,26.8-15.3,31.9,0L703,514.6
	c2,6,0.4,12.7-4.1,17.2L595.7,635C589.1,641.6,578.5,641.6,571.9,635z"/>
<circle class="st3" cx="583.8" cy="565.2" r="34.9"/>
<circle class="st4" cx="583.8" cy="566.8" r="15.7"/>
<circle class="st5" cx="583.8" cy="563.7" r="15.7"/>
</svg>
