<?xml version="1.0" encoding="utf-8"?>
<!-- Generator: Adobe Illustrator 25.0.0, SVG Export Plug-In . SVG Version: 6.00 Build 0)  -->
<svg version="1.1" id="Layer_1" xmlns="http://www.w3.org/2000/svg" xmlns:xlink="http://www.w3.org/1999/xlink" x="0px" y="0px"
	 viewBox="0 0 850.4 850.4" style="enable-background:new 0 0 850.4 850.4;" xml:space="preserve">
<style type="text/css">
	.st0{fill:#E19BC4;}
	.st1{opacity:0.56;fill:#3F2A37;enable-background:new    ;}
	.st2{fill:#DD73AD;stroke:#231F20;stroke-width:4;stroke-miterlimit:10;}
	.st3{fill:#E681B4;stroke:#231F20;stroke-width:3;stroke-miterlimit:10;}
	.st4{fill:#3F2A37;}
	.st5{fill:#E661A4;stroke:#231F20;stroke-width:3;stroke-miterlimit:10;}
	.st6{fill:#9E537F;stroke:#231F20;stroke-width:3;stroke-miterlimit:10;}
</style>
<rect class="st0" width="850.4" height="850.4"/>
<path class="st1" d="M520.4,555.8l-59.2-111.2c-16-30.1-10.3-67.1,14-91l62.7-61.5c30.3-29.7,79-29.3,108.7,1l60.8,61.9
	c24.2,24.7,29,62.5,11.6,92.4l-64.2,110.8C624.6,610.4,548.8,609,520.4,555.8z"/>
<path class="st2" d="M521.7,536.9l-59.2-111.2c-16-30.1-10.3-67.1,14-91l62.6-61.5c30.3-29.7,79-29.3,108.7,1l60.8,61.9
	c24.2,24.7,29,62.5,11.7,92.4l-64.2,110.8C625.8,591.5,550,590.1,521.7,536.9z"/>
<circle class="st3" cx="591.4" cy="525.8" r="42.8"/>
<circle class="st4" cx="591.4" cy="527.8" r="19.2"/>
<circle class="st5" cx="591.4" cy="523.9" r="19.2"/>
<path class="st6" d="M166.3,420.9h201.5c2.1,0,3.8,1.7,3.8,3.8v4c0,2.1-1.7,3.8-3.8,3.8H166.3c-2.1,0-3.8-1.7-3.8-3.8v-4
	C162.6,422.6,164.2,420.9,166.3,420.9z"/>
</svg>
