<?xml version="1.0" encoding="utf-8"?>
<!-- Generator: Adobe Illustrator 25.0.0, SVG Export Plug-In . SVG Version: 6.00 Build 0)  -->
<svg version="1.1" id="Layer_1" xmlns="http://www.w3.org/2000/svg" xmlns:xlink="http://www.w3.org/1999/xlink" x="0px" y="0px"
	 viewBox="0 0 850.4 850.4" style="enable-background:new 0 0 850.4 850.4;" xml:space="preserve">
<style type="text/css">
	.st0{fill:#F27CAD;}
	.st1{opacity:0.47;}
	.st2{fill:#3F2A37;}
	.st3{fill:#E99DC4;stroke:#231F20;stroke-width:4;stroke-miterlimit:10;}
	.st4{fill:#E681B4;stroke:#231F20;stroke-width:3;stroke-miterlimit:10;}
	.st5{fill:#E661A4;stroke:#231F20;stroke-width:3;stroke-miterlimit:10;}
	.st6{fill:#9E537F;stroke:#231F20;stroke-width:3;stroke-miterlimit:10;}
</style>
<rect class="st0" width="849.4" height="850.8"/>
<g class="st1">
	<path class="st2" d="M455.6,403.9L565,289.4c16.8-17.6,44.7-18.2,62.2-1.4l114.6,109.5c17.6,16.8,18.2,44.7,1.4,62.2L633.8,574.2
		c-16.8,17.6-44.7,18.2-62.2,1.4L457,466.2C439.4,449.4,438.8,421.5,455.6,403.9z"/>
</g>
<path class="st3" d="M454.6,390.8l109.5-114.6c16.8-17.6,44.7-18.2,62.2-1.4l114.6,109.5c17.6,16.8,18.2,44.7,1.4,62.2L632.8,561.1
	c-16.8,17.6-44.7,18.2-62.2,1.4L456,453C438.4,436.2,437.8,408.4,454.6,390.8z"/>
<circle class="st4" cx="598.9" cy="425.2" r="38.4"/>
<circle class="st2" cx="598.9" cy="426.9" r="17.2"/>
<circle class="st5" cx="598.9" cy="423.5" r="17.2"/>
<path class="st6" d="M147.1,417.7h201.5c2.1,0,3.8,1.7,3.8,3.8v4c0,2.1-1.7,3.8-3.8,3.8H147.1c-2.1,0-3.8-1.7-3.8-3.8v-4
	C143.3,419.4,145,417.7,147.1,417.7z"/>
</svg>
