<?xml version="1.0" encoding="utf-8"?>
<!-- Generator: Adobe Illustrator 25.0.0, SVG Export Plug-In . SVG Version: 6.00 Build 0)  -->
<svg version="1.1" id="Layer_1" xmlns="http://www.w3.org/2000/svg" xmlns:xlink="http://www.w3.org/1999/xlink" x="0px" y="0px"
	 viewBox="0 0 850.4 850.4" style="enable-background:new 0 0 850.4 850.4;" xml:space="preserve">
<style type="text/css">
	.st0{fill:#DD5DA2;}
	.st1{opacity:0.44;fill:#3F2A37;enable-background:new    ;}
	.st2{fill:#E27CB2;stroke:#231F20;stroke-width:4;stroke-miterlimit:10;}
	.st3{fill:#E681B4;stroke:#231F20;stroke-width:3;stroke-miterlimit:10;}
	.st4{fill:#3F2A37;}
	.st5{fill:#E661A4;stroke:#231F20;stroke-width:3;stroke-miterlimit:10;}
</style>
<rect class="st0" width="850.4" height="850.4"/>
<path class="st1" d="M369.4,356.3h-40.2c-6.6,0-12-5.4-12-12v-40.2c0-6.6-5.4-12-12-12H177.8c-6.6,0-12,5.4-12,12v40.2
	c0,6.6-5.4,12-12,12h-40.2c-6.6,0-12,5.4-12,12v127.4c0,6.6,5.4,12,12,12l0,0h40.2c6.6,0,12,5.4,12,12V560c0,6.6,5.4,12,12,12h127.4
	c6.6,0,12-5.4,12-12v-40.3c0-6.6,5.4-12,12-12h40.2c6.6,0,12-5.4,12-12V368.3C381.4,361.7,376,356.3,369.4,356.3
	C369.4,356.3,369.4,356.3,369.4,356.3z"/>
<path class="st2" d="M369.4,343.6h-40.2c-6.6,0-12-5.4-12-12v-40.2c0-6.6-5.4-12-12-12H177.8c-6.6,0-12,5.4-12,12v40.2
	c0,6.6-5.4,12-12,12h-40.2c-6.6,0-12,5.4-12,12V483c0,6.6,5.4,12,12,12h40.2c6.6,0,12,5.4,12,12v40.2c0,6.6,5.4,12,12,12h127.4
	c6.6,0,12-5.4,12-12V507c0-6.6,5.4-12,12-12h40.2c6.6,0,12-5.4,12-12V355.6C381.4,349,376,343.6,369.4,343.6
	C369.4,343.6,369.4,343.6,369.4,343.6z"/>
<circle class="st3" cx="241.5" cy="425.7" r="41.8"/>
<circle class="st4" cx="241.5" cy="427.5" r="18.7"/>
<circle class="st5" cx="241.5" cy="423.8" r="18.7"/>
<path class="st1" d="M736.8,354.3h-40.2c-6.6,0-12-5.4-12-12v-40.2c0-6.6-5.4-12-12-12H545.2c-6.6,0-12,5.4-12,12v40.2
	c0,6.6-5.4,12-12,12H481c-6.6,0-12,5.4-12,12v127.4c0,6.6,5.4,12,12,12h40.2c6.6,0,12,5.4,12,12V558c0,6.6,5.4,12,12,12h127.4
	c6.6,0,12-5.4,12-12v-40.3c0-6.6,5.4-12,12-12h40.2c6.6,0,12-5.4,12-12V366.3C748.9,359.7,743.5,354.3,736.8,354.3
	C736.9,354.3,736.8,354.3,736.8,354.3z"/>
<path class="st2" d="M736.8,341.7h-40.2c-6.6,0-12-5.4-12-12v-40.2c0-6.6-5.4-12-12-12H545.2c-6.6,0-12,5.4-12,12v40.2
	c0,6.6-5.4,12-12,12H481c-6.6,0-12,5.4-12,12v127.4c0,6.6,5.4,12,12,12h40.2c6.6,0,12,5.4,12,12v40.2c0,6.6,5.4,12,12,12h127.4
	c6.6,0,12-5.4,12-12V505c0-6.6,5.4-12,12-12l0,0h40.2c6.6,0,12-5.4,12-12V353.6C748.9,347,743.5,341.7,736.8,341.7
	C736.9,341.7,736.8,341.7,736.8,341.7z"/>
<circle class="st3" cx="608.9" cy="423.7" r="41.8"/>
<circle class="st4" cx="608.9" cy="425.6" r="18.7"/>
<circle class="st5" cx="608.9" cy="421.8" r="18.7"/>
</svg>
