<?xml version="1.0" encoding="utf-8"?>
<!-- Generator: Adobe Illustrator 25.0.0, SVG Export Plug-In . SVG Version: 6.00 Build 0)  -->
<svg version="1.1" id="Layer_1" xmlns="http://www.w3.org/2000/svg" xmlns:xlink="http://www.w3.org/1999/xlink" x="0px" y="0px"
	 viewBox="0 0 850.4 850.4" style="enable-background:new 0 0 850.4 850.4;" xml:space="preserve">
<style type="text/css">
	.st0{fill:#EC68A4;}
	.st1{opacity:0.47;fill:#3F2A37;enable-background:new    ;}
	.st2{fill:#E972A1;stroke:#231F20;stroke-width:4;stroke-miterlimit:10;}
	.st3{fill:#E8518F;stroke:#231F20;stroke-width:3;stroke-miterlimit:10;}
	.st4{fill:#492D3E;}
	.st5{fill:#E52E78;stroke:#231F20;stroke-width:3;stroke-miterlimit:10;}
</style>
<rect class="st0" width="850.4" height="850.4"/>
<polygon class="st1" points="164.3,285.4 350.5,284.9 408.5,461.8 258.3,571.6 107.3,462.6 "/>
<polygon class="st2" points="166.7,275.1 348.4,274.6 405,447.2 258.4,554.4 111.1,448.1 "/>
<polygon class="st3" points="234.9,387.9 280.8,387.8 295.1,431.4 258,458.5 220.8,431.6 "/>
<polygon class="st4" points="247.4,409 268.4,409 275,428.9 258,441.4 240.9,429 "/>
<polygon class="st5" points="248,406.9 267.8,406.9 274,425.8 258,437.5 241.9,425.8 "/>
<polygon class="st1" points="500.1,285.4 686.3,284.9 744.3,461.8 594,571.6 443.1,462.6 "/>
<polygon class="st2" points="502.5,275.1 684.2,274.6 740.8,447.2 594.2,554.4 446.9,448.1 "/>
<polygon class="st3" points="570.7,387.9 616.5,387.8 630.9,431.4 593.8,458.5 556.6,431.6 "/>
<polygon class="st4" points="583.2,409 604.2,409 610.7,428.9 593.8,441.4 576.7,429 "/>
<polygon class="st5" points="583.8,406.9 603.6,406.9 609.8,425.8 593.8,437.5 577.7,425.8 "/>
</svg>
