<?xml version="1.0" encoding="utf-8"?>
<!-- Generator: Adobe Illustrator 25.0.0, SVG Export Plug-In . SVG Version: 6.00 Build 0)  -->
<svg version="1.1" id="Layer_1" xmlns="http://www.w3.org/2000/svg" xmlns:xlink="http://www.w3.org/1999/xlink" x="0px" y="0px"
	 viewBox="0 0 850.4 850.4" style="enable-background:new 0 0 850.4 850.4;" xml:space="preserve">
<style type="text/css">
	.st0{fill:#E686B7;}
	.st1{fill:#9E537F;}
	.st2{fill:#F175A8;stroke:#231F20;stroke-width:4;stroke-miterlimit:10;}
	.st3{fill:#E1659E;stroke:#231F20;stroke-width:3;stroke-miterlimit:10;}
	.st4{fill:#EE4F9C;stroke:#231F20;stroke-width:3;stroke-miterlimit:10;}
</style>
<rect class="st0" width="850" height="850.3"/>
<path class="st1" d="M390.1,322c0,0-70.8,189.3-255.6,210.9C134.6,532.8,165.4,349.7,390.1,322z"/>
<path class="st2" d="M392.3,317c0,0-69.3,180.1-254,201.7C138.3,518.7,167.5,344.7,392.3,317z"/>
<circle class="st3" cx="169.8" cy="489.5" r="16.8"/>
<circle class="st1" cx="169.8" cy="492.9" r="9.6"/>
<circle class="st4" cx="168.3" cy="490.7" r="9.6"/>
<path class="st1" d="M459.5,322c0,0,70.8,189.3,255.6,210.9C715.1,532.8,684.3,349.7,459.5,322z"/>
<path class="st2" d="M457.4,317c0,0,69.3,180.1,254,201.7C711.4,518.7,682.2,344.7,457.4,317z"/>
<circle class="st3" cx="679.9" cy="489.5" r="16.8"/>
<circle class="st1" cx="679.9" cy="492.9" r="9.6"/>
<circle class="st4" cx="681.3" cy="490.7" r="9.6"/>
</svg>
