<?xml version="1.0" encoding="utf-8"?>
<!-- Generator: Adobe Illustrator 25.0.0, SVG Export Plug-In . SVG Version: 6.00 Build 0)  -->
<svg version="1.1" id="Layer_1" xmlns="http://www.w3.org/2000/svg" xmlns:xlink="http://www.w3.org/1999/xlink" x="0px" y="0px"
	 viewBox="0 0 850.4 850.4" style="enable-background:new 0 0 850.4 850.4;" xml:space="preserve">
<style type="text/css">
	.st0{fill:#F38BB9;}
	.st1{opacity:0.47;fill:#3F2A37;enable-background:new    ;}
	.st2{fill:#DB65A6;stroke:#231F20;stroke-width:4;stroke-miterlimit:10;}
	.st3{fill:#E681B4;stroke:#231F20;stroke-width:3;stroke-miterlimit:10;}
	.st4{opacity:0.62;fill:#3F2A37;enable-background:new    ;}
	.st5{fill:#E661A4;stroke:#231F20;stroke-width:3;stroke-miterlimit:10;}
	.st6{fill:#9E537F;stroke:#231F20;stroke-width:3;stroke-miterlimit:10;}
</style>
<rect class="st0" width="850.7" height="850.7"/>
<path class="st1" d="M388.7,429.8l-88.3,78.8c-18.5,16.5-46.2,17.2-65.5,1.8l-97.8-78.1c-37.5-29.9-16.4-90.3,31.5-90.5l186.1-0.6
	C401.5,340.9,423.6,398.7,388.7,429.8z"/>
<path class="st2" d="M388.7,420.8l-88.3,78.8c-18.5,16.5-46.2,17.2-65.5,1.8l-97.9-78.1c-37.5-29.9-16.4-90.3,31.5-90.5l186.1-0.6
	C401.5,331.9,423.6,389.6,388.7,420.8z"/>
<circle class="st3" cx="267.9" cy="455.5" r="26"/>
<circle class="st4" cx="267.9" cy="457.6" r="12.3"/>
<circle class="st5" cx="267.9" cy="454.4" r="11.6"/>
<path class="st6" d="M526.7,414.6H657c2.1,0,3.8,1.7,3.8,3.8l0,0c0,2.1-1.7,3.8-3.8,3.8H526.7c-2.1,0-3.8-1.7-3.8-3.8l0,0
	C522.9,416.3,524.6,414.6,526.7,414.6z"/>
</svg>
