<svg id="Layer_1" data-name="Layer 1" xmlns="http://www.w3.org/2000/svg" viewBox="0 0 850.39 850.39"><defs><style>.cls-1{fill:#e581b4;}.cls-2,.cls-5{fill:#3f2a37;}.cls-2{opacity:0.56;}.cls-3{fill:#ea456b;stroke-width:4px;}.cls-3,.cls-4,.cls-6,.cls-7{stroke:#231f20;stroke-miterlimit:10;}.cls-4{fill:#e23261;}.cls-4,.cls-6,.cls-7{stroke-width:3px;}.cls-6{fill:#e11c4f;}.cls-7{fill:#9e537f;}</style></defs><rect class="cls-1" width="850.39" height="850.39"/><path class="cls-2" d="M728.81,320.23c-30.81-17.79-81.54,11-119.57,65.27-38-54.3-88.75-83.06-119.56-65.27-34.41,19.86-31,90.25,7.71,157.22,31.79,55.06,77.49,90.67,111.85,90.54,34.37.13,80.07-35.48,111.86-90.54C759.77,410.48,763.22,340.09,728.81,320.23Z"/><path class="cls-3" d="M728.81,304.27c-30.81-17.79-81.54,11-119.57,65.27-38-54.3-88.75-83.06-119.56-65.27-34.41,19.86-31,90.26,7.71,157.22,31.79,55.07,77.49,90.67,111.85,90.55,34.37.12,80.07-35.48,111.86-90.55C759.77,394.53,763.22,324.13,728.81,304.27Z"/><circle class="cls-4" cx="609.24" cy="466.04" r="36.89"/><circle class="cls-5" cx="609.24" cy="467.7" r="16.56"/><circle class="cls-6" cx="609.24" cy="464.38" r="16.56"/><rect class="cls-7" x="174.94" y="419.42" width="209.04" height="11.55" rx="3.78"/></svg>