<?xml version="1.0" encoding="utf-8"?>
<!-- Generator: Adobe Illustrator 25.0.0, SVG Export Plug-In . SVG Version: 6.00 Build 0)  -->
<svg version="1.1" id="Layer_1" xmlns="http://www.w3.org/2000/svg" xmlns:xlink="http://www.w3.org/1999/xlink" x="0px" y="0px"
	 viewBox="0 0 850.4 850.4" style="enable-background:new 0 0 850.4 850.4;" xml:space="preserve">
<style type="text/css">
	.st0{fill:#EC68A4;}
	.st1{opacity:0.47;fill:#3F2A37;enable-background:new    ;}
	.st2{fill:#E972A1;stroke:#231F20;stroke-width:4;stroke-miterlimit:10;}
	.st3{fill:#E8518F;stroke:#231F20;stroke-width:3;stroke-miterlimit:10;}
	.st4{fill:#492D3E;}
	.st5{fill:#E52E78;stroke:#231F20;stroke-width:3;stroke-miterlimit:10;}
	.st6{fill:#9E537F;stroke:#231F20;stroke-width:3;stroke-miterlimit:10;}
</style>
<rect class="st0" width="850.4" height="850.4"/>
<polygon class="st1" points="193.8,287.5 379.9,287 438,463.8 287.7,573.7 136.8,464.7 "/>
<polygon class="st2" points="196.2,277.2 377.8,276.7 434.5,449.3 287.8,556.5 140.5,450.2 "/>
<polygon class="st3" points="264.3,390 310.2,389.9 324.5,433.5 287.4,460.5 250.2,433.7 "/>
<polygon class="st4" points="276.8,411.1 297.8,411 304.4,431 287.4,443.4 270.4,431.1 "/>
<polygon class="st5" points="277.4,409 297.2,409 303.5,427.8 287.4,439.5 271.3,427.9 "/>
<path class="st6" d="M508.4,416.9h201.5c2.1,0,3.8,1.7,3.8,3.8v4c0,2.1-1.7,3.8-3.8,3.8H508.4c-2.1,0-3.8-1.7-3.8-3.8v-4
	C504.6,418.6,506.3,416.9,508.4,416.9z"/>
</svg>
