<?xml version="1.0" encoding="utf-8"?>
<!-- Generator: Adobe Illustrator 25.0.0, SVG Export Plug-In . SVG Version: 6.00 Build 0)  -->
<svg version="1.1" id="Layer_1" xmlns="http://www.w3.org/2000/svg" xmlns:xlink="http://www.w3.org/1999/xlink" x="0px" y="0px"
	 viewBox="0 0 850.4 850.4" style="enable-background:new 0 0 850.4 850.4;" xml:space="preserve">
<style type="text/css">
	.st0{fill:#EA9BC3;}
	.st1{opacity:0.56;fill:#3F2A37;enable-background:new    ;}
	.st2{fill:#E783B5;stroke:#000000;stroke-width:4;stroke-miterlimit:10;}
	.st3{fill:#E681B4;stroke:#231F20;stroke-width:3;stroke-miterlimit:10;}
	.st4{fill:#3F2A37;}
	.st5{fill:#E661A4;stroke:#231F20;stroke-width:3;stroke-miterlimit:10;}
	.st6{fill:#9E537F;stroke:#231F20;stroke-width:3;stroke-miterlimit:10;}
</style>
<rect class="st0" width="850.4" height="850.4"/>
<path class="st1" d="M719.4,375.3L673,232.4c-1.8-5.6-7-9.4-12.9-9.4H509.8c-5.9,0-11,3.8-12.8,9.4l-46.5,143
	c-1.8,5.6,0.2,11.7,4.9,15.1l40.2,29.2c6,4.4,7.4,12.8,3,18.9c-0.8,1.2-1.9,2.2-3,3l-40.8,29.6c-4.7,3.4-6.7,9.6-4.9,15.1
	l46.5,142.9c1.8,5.6,7,9.4,12.9,9.3h150.3c5.9,0,11.1-3.8,12.9-9.3l46.4-142.9c1.8-5.6-0.2-11.7-4.9-15.1L673.8,442
	c-6-4.4-7.4-12.8-3-18.9c0.8-1.2,1.9-2.2,3-3l40.8-29.6C719.3,387,721.3,380.9,719.4,375.3z"/>
<path class="st2" d="M719.4,364.1L673,221.2c-1.8-5.6-7-9.4-12.9-9.4H509.8c-5.8,0-11,3.8-12.8,9.4l-46.5,142.9
	c-1.8,5.6,0.2,11.7,4.9,15.1l40.2,29.2c6,4.4,7.4,12.8,3,18.9c-0.8,1.2-1.9,2.2-3,3l-40.8,29.6c-4.7,3.4-6.7,9.6-4.9,15.1L496.4,618
	c1.8,5.6,7,9.4,12.9,9.3h150.3c5.9,0,11.1-3.8,12.9-9.3l46.4-142.9c1.8-5.6-0.2-11.7-4.9-15.1l-40.2-29.2c-6-4.4-7.4-12.8-3-18.9
	c0.8-1.2,1.9-2.2,3-3l40.8-29.6C719.3,375.8,721.3,369.7,719.4,364.1z"/>
<circle class="st3" cx="584.7" cy="542.3" r="41.4"/>
<circle class="st4" cx="584.7" cy="544.1" r="18.6"/>
<circle class="st5" cx="584.7" cy="540.4" r="18.6"/>
<path class="st6" d="M136.5,434.7H338c2.1,0,3.8,1.7,3.8,3.8v4c0,2.1-1.7,3.8-3.8,3.8H136.5c-2.1,0-3.8-1.7-3.8-3.8v-4
	C132.7,436.4,134.4,434.7,136.5,434.7z"/>
</svg>
