<?xml version="1.0" encoding="utf-8"?>
<!-- Generator: Adobe Illustrator 25.0.0, SVG Export Plug-In . SVG Version: 6.00 Build 0)  -->
<svg version="1.1" id="Layer_1" xmlns="http://www.w3.org/2000/svg" xmlns:xlink="http://www.w3.org/1999/xlink" x="0px" y="0px"
	 viewBox="0 0 850.4 850.4" style="enable-background:new 0 0 850.4 850.4;" xml:space="preserve">
<style type="text/css">
	.st0{fill:#E581B4;}
	.st1{opacity:0.56;fill:#3F2A37;enable-background:new    ;}
	.st2{fill:#EA456B;stroke:#231F20;stroke-width:4;stroke-miterlimit:10;}
	.st3{fill:#E23261;stroke:#231F20;stroke-width:3;stroke-miterlimit:10;}
	.st4{fill:#3F2A37;}
	.st5{fill:#E11C4F;stroke:#231F20;stroke-width:3;stroke-miterlimit:10;}
</style>
<rect class="st0" width="850.4" height="850.4"/>
<path class="st1" d="M373.5,328.2c-30.8-17.8-81.5,11-119.6,65.3c-38-54.3-88.8-83.1-119.6-65.3c-34.4,19.9-31,90.2,7.7,157.2
	c31.8,55.1,77.5,90.7,111.9,90.6c34.4,0.1,80.1-35.5,111.9-90.5C404.5,418.5,408,348.1,373.5,328.2z"/>
<path class="st2" d="M373.5,312.2c-30.8-17.8-81.5,11-119.6,65.3c-38-54.3-88.8-83.1-119.6-65.3c-34.4,19.9-31,90.3,7.7,157.2
	c31.8,55.1,77.5,90.7,111.9,90.5c34.4,0.1,80.1-35.5,111.9-90.5C404.5,402.5,408,332.1,373.5,312.2z"/>
<circle class="st3" cx="254" cy="474" r="36.9"/>
<circle class="st4" cx="254" cy="475.7" r="16.6"/>
<circle class="st5" cx="254" cy="472.4" r="16.6"/>
<path class="st1" d="M728.8,329.2c-30.8-17.8-81.5,11-119.6,65.3c-38-54.3-88.8-83.1-119.6-65.3c-34.4,19.9-31,90.2,7.7,157.2
	c31.8,55.1,77.5,90.7,111.9,90.5c34.4,0.1,80.1-35.5,111.9-90.5C759.8,419.5,763.2,349.1,728.8,329.2z"/>
<path class="st2" d="M728.8,313.3c-30.8-17.8-81.5,11-119.6,65.3c-38-54.3-88.8-83.1-119.6-65.3c-34.4,19.9-31,90.3,7.7,157.2
	c31.8,55.1,77.5,90.7,111.9,90.5c34.4,0.1,80.1-35.5,111.9-90.5C759.8,403.5,763.2,333.1,728.8,313.3z"/>
<circle class="st3" cx="609.2" cy="475" r="36.9"/>
<circle class="st4" cx="609.2" cy="476.7" r="16.6"/>
<circle class="st5" cx="609.2" cy="473.4" r="16.6"/>
</svg>
