<?xml version="1.0" encoding="utf-8"?>
<!-- Generator: Adobe Illustrator 25.0.0, SVG Export Plug-In . SVG Version: 6.00 Build 0)  -->
<svg version="1.1" id="Layer_1" xmlns="http://www.w3.org/2000/svg" xmlns:xlink="http://www.w3.org/1999/xlink" x="0px" y="0px"
	 viewBox="0 0 850.4 850.4" style="enable-background:new 0 0 850.4 850.4;" xml:space="preserve">
<style type="text/css">
	.st0{fill:#F383A1;}
	.st1{fill:#9E537F;stroke:#231F20;stroke-width:3;stroke-miterlimit:10;}
</style>
<rect class="st0" width="850.4" height="850.4"/>
<path class="st1" d="M151.3,421.7h201.5c2.1,0,3.8,1.7,3.8,3.8v4c0,2.1-1.7,3.8-3.8,3.8H151.3c-2.1,0-3.8-1.7-3.8-3.8v-4
	C147.6,423.4,149.2,421.7,151.3,421.7z"/>
<path class="st1" d="M496.6,422.5h201.5c2.1,0,3.8,1.7,3.8,3.8v4c0,2.1-1.7,3.8-3.8,3.8H496.6c-2.1,0-3.8-1.7-3.8-3.8v-4
	C492.8,424.2,494.5,422.5,496.6,422.5z"/>
</svg>
