<?xml version="1.0" encoding="utf-8"?>
<!-- Generator: Adobe Illustrator 25.0.0, SVG Export Plug-In . SVG Version: 6.00 Build 0)  -->
<svg version="1.1" id="Layer_1" xmlns="http://www.w3.org/2000/svg" xmlns:xlink="http://www.w3.org/1999/xlink" x="0px" y="0px"
	 viewBox="0 0 850.4 850.4" style="enable-background:new 0 0 850.4 850.4;" xml:space="preserve">
<style type="text/css">
	.st0{fill:#F6AAC4;}
	.st1{opacity:0.47;fill:#9E537F;enable-background:new    ;}
	.st2{fill:#9E537F;}
	.st3{fill:#F9C3D5;stroke:#231F20;stroke-width:4;stroke-miterlimit:10;}
	.st4{fill:#E4A5CA;stroke:#231F20;stroke-width:3;stroke-miterlimit:10;}
	.st5{opacity:0.8;fill:#9E537F;enable-background:new    ;}
	.st6{fill:#ED95BF;stroke:#231F20;stroke-width:3;stroke-miterlimit:10;}
	.st7{fill:#9E537F;stroke:#231F20;stroke-width:3;stroke-miterlimit:10;}
</style>
<rect class="st0" width="850.4" height="850.4"/>
<path class="st1" d="M470.6,299.4h247.9c17.6,0,16.9,20.4,8.1,35.7l-112.8,219c-6.3,10.9-20.3,14.7-31.3,8.4c-3.5-2-6.4-4.9-8.4-8.4
	l-108-221C457.5,317.9,453,299.4,470.6,299.4z"/>
<path class="st2" d="M561.4,435.2h66.4c3.4,0,6.1,2.7,6.1,6.1c0,1.1-0.3,2.1-0.8,3l-33.2,57.5c-1.7,2.9-5.4,3.9-8.3,2.2
	c-0.9-0.5-1.7-1.3-2.2-2.2l-33.2-57.5c-1.7-2.9-0.7-6.6,2.2-8.3C559.3,435.5,560.3,435.2,561.4,435.2z"/>
<path class="st2" d="M580.5,451.4h28.1c1.3,0,2.4,1.1,2.4,2.4c0,0.4-0.1,0.8-0.3,1.2l-14,24.3c-0.7,1.2-2.2,1.6-3.3,0.9
	c-0.4-0.2-0.7-0.5-0.9-0.9l-14-24.3c-0.7-1.2-0.3-2.6,0.9-3.3C579.8,451.5,580.2,451.4,580.5,451.4z"/>
<path class="st3" d="M453.2,284.8H735c6.4,0,11.5,5.1,11.5,11.5c0,2-0.5,4-1.5,5.8l-141,244c-3.2,5.5-10.2,7.4-15.7,4.2
	c-1.8-1-3.2-2.5-4.2-4.2l-140.9-244c-3.2-5.5-1.3-12.5,4.2-15.7C449.1,285.4,451.1,284.8,453.2,284.8z"/>
<path class="st4" d="M561.6,428.7h64.9c3.4,0,6.1,2.7,6.1,6.1c0,1.1-0.3,2.1-0.8,3L599.3,494c-1.7,2.9-5.4,3.9-8.3,2.2
	c-0.9-0.5-1.7-1.3-2.2-2.2l-32.5-56.2c-1.7-2.9-0.7-6.6,2.2-8.3C559.5,428.9,560.5,428.7,561.6,428.7z"/>
<path class="st5" d="M584.5,453.5h19.1c3.7,0,5.5-2.1,3.6,1.1l-9.8,20.5c-2.2,3.6-4.7,3.3-6.5,0.1l-9.6-20
	C579.4,452,580.7,453.5,584.5,453.5z"/>
<path class="st6" d="M580.3,444.6h27.5c1.3,0,2.4,1.1,2.4,2.4c0,0.4-0.1,0.9-0.3,1.2L596.2,472c-0.7,1.2-2.2,1.6-3.3,0.9
	c-0.4-0.2-0.7-0.5-0.9-0.9l-13.7-23.8c-0.7-1.2-0.2-2.7,0.9-3.3C579.5,444.7,579.9,444.6,580.3,444.6z"/>
<path class="st7" d="M172.6,407.9H374c2.1,0,3.8,1.7,3.8,3.8v4c0,2.1-1.7,3.8-3.8,3.8H172.6c-2.1,0-3.8-1.7-3.8-3.8v-4
	C168.8,409.6,170.5,407.9,172.6,407.9z"/>
</svg>
