<svg xmlns="http://www.w3.org/2000/svg" id="Layer_1" x="0" y="0" version="1.1" viewBox="0 0 842 842" xml:space="preserve"><defs/><style>.st1{opacity:.85}.st2{fill:#211f1e}</style><path fill="#feece1" d="M0-1h842v842H0z"/><g class="st1"><path d="M558 489l1 1-1-1zM561 491zM563 492l-1-1 1 1zM561 491h0zM561 491v-1 1zM563 490l2 1h1l2 1 2-1h-2-3l-1-1h-1l-2-1h-1l-1-1-1-1v1h1l2 1 2 1zM551 481h1c0 2 1 3 2 3h-1l-1-4-1 1zM551 480h1-1z" class="st2"/><path d="M569 493l9-1h2l1-1 1-1h0l-1 1 3-2 2-1v-1l2-1 1-1 1-1v-1l-1 1-1 1 1-1 1-1 2-2-2 2v1h-1l-1 2 2-2 1-2c3-4 5-9 5-14s-3-10-6-14a36 36 0 00-15-9 22 22 0 00-17 1l-6 6-4 8-2 8 1 9 1 2 1 1h1l1-2v-1-1-1-9c0 2-1 2 0 0a13 13 0 012-7l6-7 4-3h11l7 3 7 5 4 7v7l-2 8-1 1-1 1-1 2v1l-1 1v1l-2 1-1 1-1 1h-1l-2 1-1 1h-4v1h-1 1v-1l-7 1h2l2 1v-1h1l-2 1-2-1h-2 1l2 1z" class="st2"/><path d="M582 490l-1 1 3-2-2 1z" class="st2"/></g><circle cx="571" cy="471" r="8" fill="#1f2020"/><g class="st1"><path d="M576 476v0zM576 477zM575 477zM576 477h-1 1zM576 477zM576 478l-1 1h-2l2-1 2-1v-1 1l-1 1zM579 474l-1 1c0-1 0-1 0 0l1-2v1zM579 473v1-1z" class="st2"/><path d="M574 478h-5-1v-1h-1l-1-1v1h0v-1-1 1l1 1-1-1-2-5 1-4 4-3h5l3 3a8 8 0 010 5l1 1h1l1-2v-3h-1l-1-2c0-2-1-3-2-3l-5-2-2 1c-3 0-5 2-6 4l-1 7 2 3 2 2 2 1-2-1h1v1h5l2-1-1 1 1-1zM569 478h-1 1z" class="st2"/></g><g class="st1"><path d="M431 368v0zM431 380v1l1 1-1-2zM433 390l-1-5v2l1 3zM432 382c0 1 0 1 0 0v0zM432 382v-2 2zM436 384l-1 3 1 3 1 3 1 4 1 3 1 7 2 4 2 4c1 3 2 4 0 1a241 241 0 01-6-20l-1-6-3-23 1-7-1 4v5c-1 4 1 9 2 15zM439 326l1 2v1l-3 14 1-2 1-2-1 1 2-8c1-2 0-5-1-7v1zM438 322l1 2-1-3v1z" class="st2"/><path d="M439 411l4 10 1 4 2 5 4 9 4 8 2 3 1 2 2 5 1 2h1l-1-2 1 2 1 2 3 5-3-5-2-2v-1l3 6 3 5 2 2 4 7 1 1v1l3 4 3 3 2 2 3 3 1 2 3 2-3-4c-1-2-4-3-5-6 1 3 4 4 5 6l3 4 3 3 3 4-4-4-2-3-3-2-1-2-3-3-2-2 6 7 4 4 3 3c7 7 15 13 24 19l7 3 3 2 4 1 14 5a117 117 0 0078-8l15-7 15-9 3-2 3-3a164 164 0 0019-16l6-6 2-3 3-3 2-3 3-3 4-7a146 146 0 0026-76v-2-2-3l-1-8v-17l1-31 1-9v-1-1h-1-2l-1 1-1 1v1l-2 2-1 5-1 5-1 6-2 30 1-5 1 7v15l-1 14a276 276 0 01-12 41c-6 14-14 27-25 39l-17 17-7 6-7 5-7 4-7 5-8 4-8 3-7 3-9 3-16 3h-2l-2 1h-13a99 99 0 01-34-7l-17-8-7-5-4-2-3-3-16-16a257 257 0 01-1-1l2 2-2-1-7-7-3-6-4-6-4-5-1-3-5-7-4-6-3-8-2-5-2-3v2l-2-5 2 5v-2l-10-25 4 15c0-2 0-2 1 1v2c-2-4-4-9-4-14l-1-1-1-1 1-2-1-3v5l1 3v1z" class="st2"/><path d="M462 462l-1-3 5 9-4-6z" class="st2"/></g><g class="st1"><path d="M139 430h0zM144 430zM148 431l-2-1 2 1zM144 430c1 0 1 0 0 0h2-2zM144 430v-1 1zM146 427h6l3 1 4-1h-21l-2-1 3 1h7zM121 427h2l5 1v-1h-1l-6-1v1zM119 426h2-2z" class="st2"/><path d="M157 430l8 1h9l1 1h3v-1h-1 1l1 1h-1 14l3-1 1 1 1-1h-5 9-4l-1 1-1-1-3 1h8l12-1 13-1 3-1h3l6-2 6-1 7-2 7-2 6-2 7-2 6-3 24-12a410 410 0 0030-27l8-12c2-4 1-6-1-7l-2 1c-3 1-5 3-7 6l-8 9 2-1-1 2-2 3-2 2-5 3c-5 2-9 6-14 10l-2 2-2 1-4 3-8 5-5 2-4 2-27 10-7 2-3 1-4 1h-3l-4 1-8 1-2 1h-1l-4 1-7 1h-10l-11 1h11c2 0 1 0 0 0l-4 1h-10l-6 1-4-1h-3v1h-2 2v-1l-12 1 7 1c-1 0-1 0 0 0h1-7l-1-1h-1l4 1zM180 432h-2 5-3z" class="st2"/></g></svg>