<svg xmlns="http://www.w3.org/2000/svg" id="Layer_1" x="0" y="0" version="1.1" viewBox="0 0 841.9 841.9" xml:space="preserve"><defs/><style>.st1{opacity:.85}.st2{fill:#131413}</style><path fill="#d0b8ab" d="M-3 0h841.9v841.9H-3z"/><g class="st1"><path d="M371.7 426.8l-3.3 2.3c.6-.3 1.2-.6 1.9-.9.5-.3 1-.8 1.4-1.4zM365.3 431.3l-.6.4-.5.4 1.1-.8zM359.8 435.6c1-.7 1.9-1.4 2.9-2.1-1.1.6-2 1.3-2.9 2.1zM364.5 432.5c-.4.1-.7.1-.2-.4l-1.6 1.3c.5-.3 1.1-.6 1.8-.9zM364.5 432.5c.4-.1 1-.4 1.3-.5-.5.2-.9.3-1.3.5zM365 436.3c-.5.5-.9-.4-2 .6-2.5 2.1-4.5 4.1-7 5.9-1 1-3.4 1.4-4.4 2.4-2.5 2.1-8.6 8.1-4.6 5.2 6-4.5 9.7-7.5 15-11.6 4.2-3.5 8.1-6.9 12.4-10.5 1.2-1 2.5-1.7 3.7-2.5L373 429c-2.4 1.5-4.5 4.5-8 7.3zM396.1 409.9l-1.5 1.5c-2.9 1.5-5.6 3.3-8 5.6l1.5-.5c1.5-1.1 1.5-1.5 0-.7 3.3-1.7 6.4-3.8 9.4-6-.4-.1-.5-.4-1.4.1zM399.2 408.4l-1.7 1.3h.1c.5-.4 1.1-.8 1.6-1.3zM348.2 445a1199 1199 0 01-21.7 15.5 4 4 0 01-1.5 1.4l-1.8.9-3.1 2.1-1 .8c-.5.5-.3.5.2.4s.9-.3 1.3-.5c-.2.1-.9.3-1.3.5-.6.2-1.3.5-1.9.8-1 .7-2 1.3-3 1.9 1-.7 2-1.3 3-1.9l1.7-1.2.5-.4c-1.2.8-2.4 1.5-3.6 2.2s-2.5 1.4-3.7 2.1l-1.5.9c-.8.6-1.7 1.1-2.6 1.5-.7.4-1.5.6-2.3.8l-1.4.6h.3c-.2.1-.4.1-.5.1l-3 1.2-3 1.2c-1.2.7-2.5 1.4-3.8 2H293c-.6.5-1.4.9-2.1 1.2 1.2-.1 2.3-.1 3.3-.3 1.5 0 2.7-2.1 4.6-1.8-1.9-.2-3.1 1.8-4.6 1.8l-3.3.3c-1 .4-2.1.8-3.2 1-1.1.3-2.3.4-3.4.5 1.1-.5 2.3-.9 3.5-1.1 1.1-.2 2.2-.3 3.2-.4.8-.3 1.5-.7 2.1-1.2h1.5c1.3-.6 2.5-1.4 3.8-2-2 .7-3.9 1.5-6 2.1l-3 1-3.1.8c-13.1 3.4-26.7 4.7-40.2 3.7-13.7-1-27.2-4.4-39.7-10.2-13.6-6.3-25.7-15.3-35.7-26.4-1.2-1.3-2.4-2.7-3.6-4.1l-3.6-4.1-7.3-8-14.5-15.7c-9.6-10.4-19.2-21-28.5-32.7-7.2-9-22.2-24.2-29.8-32.2-11.3-9.7-9-1.3-8.7-.6 3.7 9 10 12.9 21.2 27.9-7.8-10 8 5.2 14.5 15.6 9.2 15.1 28.2 31.1 42.1 47.2 1.7 2 3.6 4 5.6 6.1l3 3.2 1.6 1.7 1.7 1.8a112.6 112.6 0 0041.7 28.7c16.2 6.4 33.6 9.5 51.1 9.2 9.7-.2 18-2.4 25.6-4.7l8.6-2.2c2.8-.8 5.5-1.6 7.7-2.5a86.6 86.6 0 0017.8-9.4l-4.2 2.5c-1.3.8-2.7 1.5-4 2.2s-2.8 1.4-4.3 2.1l-2.3 1.1-2.5 1.1c-4.8 1.9 2.9-2.4 5.8-4.1 1.2-.7 3.7-.8 4.9-1.7 1.4-.7 2.7-1.5 4-2.4 1.3-.9 2.6-1.8 3.9-2.8 1.1-.9 1.5 0 2-.5 1.7-1.2 3.2-2.5 4.7-4 1.1-1.2 2.3-2.2 3.7-3.1l5.1-3.2c1-.7 2-1.3 3-2.1l1.8-1.6c-.5.1-1 0-1.5-.2l3.5-2.1-3.5 2.1c.5.2 1 .3 1.5.2 4.4-3.9 9.6-8.3 14.5-12.3h-.1c-2.9 2.3-6.1 4.3-9.4 6 1.5-.8 1.5-.5 0 .7l-1.5.5c2.5-2.1 5-4.3 7.9-5.5l1.5-1.5c.9-.5 1.1-.2 1.4-.1l1.7-1.3c-2.4.9-4.4 1.9-6.3 2.9z" class="st2"/><path d="M317.3 467l1.5-1c-2.1 1.2-4 2.5-6.2 3.6.8-.2 1.5-.5 2.2-.9.8-.6 1.7-1.2 2.5-1.7z" class="st2"/></g><g class="st1"><path d="M225.1 462.4c-.2.2-.4.4-.6.5.1-.1.3-.1.4-.1.2-.1.2-.2.2-.4zM223.8 463.3l-.1.1-.1.1c.1-.1.2-.1.2-.2zM222.6 464c.2 0 .5-.1.7-.3-.3.1-.5.2-.7.3z" class="st2"/><path d="M223.7 463.7c-.1 0-.2-.1-.1-.2l-.4.2h.5zM223.7 463.7h.3-.3zM224.1 465.4c-.1.1-.3-.3-.6-.1s-.7.4-1.1.5l-1.1.3c-.4.1-.9-.4-1.3-.3s-1.1.2-1.6.2-.7.2-.1.3c1.6.2 3.3.1 4.9-.5 1.3-.6 2.4-1.5 3.2-2.6.2-.3.5-.5.8-.8-.4.3-.7.6-1.1.9s-.5.5-.8.9c-.4.5-.8.9-1.2 1.2zM228.8 457.3c0 .2-.1.5-.1.5-.5.5-.9 1.2-1 1.9l.4-.2c.2-.4.1-.5-.2-.2.6-.6 1.1-1.3 1.3-2.1-.1 0-.2-.1-.4.1z" class="st2"/><path d="M229.4 456.7l-.2.5h.1c.1-.2.1-.4.1-.5z" class="st2"/><path d="M219.5 464.7c-2-.2-3.9-.8-5.6-1.6-.2 0-.3.1-.5 0-.1-.1-.2-.2-.3-.4l-.7-.4-.3-.1c-.2 0-.2.1-.1.2s.1.2.2.3c0-.1-.1-.2-.2-.3-.1-.1-.2-.2-.3-.4-.2-.1-.5-.2-.7-.4.2.1.5.2.7.4.1.1.3.1.4.2h.1c-.6-.3-1-.7-1.6-1l-.3-.2c-.4-.2-.8-.5-.9-.8-.1-.1-.1-.2-.2-.2v.1l-.1-.1-1-1c-.3-.2-.6-.3-.8-.5v-.4c-.2 0-.4-.1-.5-.3 0 .3.1.5.1.8 0 .4.8.2.8.8.1-.6-.7-.4-.8-.8-.1-.3-.1-.5-.1-.8-.4-.4-.6-.8-.6-1.4.4.3.6.8.6 1.4.1.1.3.2.5.3v.4c.3.2.6.4.8.5l-.8-1.1c-.2-.4-.5-.8-.8-1.2-1.5-2.5-2.3-5.4-2.3-8.3 0-2.9.7-5.9 2.3-8.4.7-1.3 1.9-2.3 3.2-2.9 1.3-.4 2.7-.4 4 .1 2.9 1 5.6 2.3 8.2 3.9 1.3.7 2.5 1.6 3.6 2.6 1 .9 1.8 2 2.2 3.2.3 1 .5 2.1.4 3.2-.1 1.3-.4 2.6-.8 3.9-.1 1.5.3 2.2.9 2.4.4.1.9.1 1.4-.1 1-.5 1.8-1.5 2.1-2.6l.3-.9.3-1.1c.3-1 .5-2 .6-3-.2 1.7-.5 1-.7-.3-.1-.8-.3-1.6-.6-2.4-.2-.9-.6-1.8-.8-2.6-.2-.6-.4-1.2-.8-1.7-.2-.3-.4-.5-.6-.8-.2-.2-.4-.5-.7-.7-.9-.9-2-1.7-3.2-2.3-1.1-.6-2.3-1.2-3.5-1.8s-2.3-1.1-3.5-1.7c-1.3-.7-2.7-1.1-4.2-1.4-.6-.2-1.1-.3-1.7-.4l-.9-.1h-.9c-1.3 0-2.6.4-3.8 1-1.1.6-2.1 1.4-2.9 2.4-.7.9-1.3 1.8-1.8 2.8-1.9 3.9-2.5 8.3-1.8 12.6.5 2.1 1.4 4.1 2.8 5.8.2.3.4.6.5.9l.6.9c.3.6.7 1.1 1.1 1.6.3.3.6.7.9.9.3.3.6.5 1 .8.6.4 1.3.8 2 1.1-1.4-.8-2.7-1.7-3.8-2.9-.8-.9 1 .3 1.7.7.2.1.3.3.3.5.1.2.2.4.4.5l.9.6c.3.1.7.3 1.1.4s.1.5.2.5c1 .4 2 .2 2.6.6l1.2.7c.3.1.5.2.8.3l.6.1c-.1-.2-.1-.4-.1-.6l.8.4-.8-.4c0 .2 0 .4.1.6 1.5.2 3 .2 4.5 0-.9.1-1.7-.1-2.5-.6.4.2.3.3-.1.2l-.3-.3c.7 0 1.5.1 2.1.4.2 0 .3-.1.5-.1.2.1.2.2.3.3h.5c-.3-.1-.6-.3-.9-.4v-.1z" class="st2"/><path d="M211.6 462l.4.2-1.3-.9c.1.3.5.5.9.7z" class="st2"/></g><path d="M212.8 458.3c-3.2-.7-5.3-3.9-4.6-7.1.7-3.2 3.1-3.1 6.3-2.4s6.1 1.7 5.4 5c-.7 3.1-3.8 5.2-7.1 4.5z" class="st2"/><g class="st1"><path d="M215.8 458.5c.1 0 .2-.1.4-.1h-.2c-.2 0-.2.1-.2.1zM216.4 458.3zM217 458c-.1 0-.2.1-.3.1.1 0 .2 0 .3-.1zM216.5 458.2c.1 0 .1 0 0 0h.2-.2zM216.5 458.2h-.1.1zM216.3 457.3s.1.2.2.1c.2-.2.3-.4.5-.5.1-.1.4 0 .4-.1s.4-.9.1-.6c-.3.4-.7.7-1.1 1-.3.3-.7.5-1.1.7-.1 0-.2.1-.4.1h.5c.5-.1.6-.5.9-.7zM213.1 458.5h.2c.3.2.6.2.9.1l-.1-.1c-.2 0-.2.1 0 .1-.3-.1-.6-.2-.9-.2-.2 0-.2.1-.1.1zM212.8 458.3h.2-.2z" class="st2"/><path d="M218 457.1c.6-.5 1.1-1.1 1.5-1.8 0-.1-.1-.1 0-.2.1 0 .1-.1.2-.1 0-.1.1-.2.1-.3v-.1c0-.1 0-.1-.1 0l-.1.1.1-.1c.1 0 .1-.1.1-.1 0-.1 0-.2.1-.3 0 .1 0 .2-.1.3V454.8c.1-.2.2-.5.2-.7v-.2c0-.2 0-.4.1-.5v-.1-.6c-.1-.1-.1-.2-.2-.4 0-.1.1-.1.1-.2-.1 0-.1-.1-.2-.2 0 .1-.1.2-.1.3s.3.2.1.4c.2-.2-.2-.3-.1-.4s.1-.2.1-.3c-.1-.2-.2-.4-.1-.6.2.2.2.4.1.6 0 .1.1.1.2.2 0 .1 0 .1-.1.2.1.1.1.2.2.4 0-.4-.1-.8-.2-1.2-.6-1.1-1.7-2-2.9-2.3-1.2-.4-2.4-.7-3.6-1-.7-.2-1.4-.3-2.1-.3-.8-.1-1.6.1-2.3.5-.7.4-1.2 1.1-1.5 1.9-.3.7-.4 1.4-.5 2.1-.1 1.5.2 3 .8 4.4.4.7.9 1.3 1.5 1.8s1.3.9 2.1 1.1c.8.1 1.1-.3 1.1-.6 0-.2 0-.5-.1-.7-.2-.4-.5-.7-.9-.9-.5-.3-.9-.7-1.1-1.1.2.4 0 .4-.3.1-.4-.3-.6-.9-.6-1.4 0-.7 0-1.4-.1-2.1v-1.1c0-.4.1-.7.3-1 .1-.2.3-.4.5-.6 1-.2 2-.2 3 0 1.3.1 2.6.5 3.8 1 .5.2 1 .4 1.4.7.2.2.3.5.2.8.1.4.1.9.1 1.3.1-.4.1-.8 0-1.3-.1-.3.4.1.4.4.1.1-.2.2-.2.3v.7c0 .3-.2 0-.2.1-.1.3.1.7-.1.9-.1.1-.2.2-.3.4l-.2.2-.1.2c.1 0 .2 0 .3.1-.1.1-.2.1-.3.2s.2-.1.3-.2c-.1 0-.2-.1-.3-.1-.2.5-.5.9-.8 1.3.2-.2.5-.4.8-.5-.1.1-.2 0-.1-.1h.2c-.1.3-.3.5-.6.5l-.1.2c-.1 0-.1 0-.2-.1l-.1.1h.4c.3-.2.4-.2.5-.3z" class="st2"/><path d="M219.8 454.4v.2c.1-.2.2-.4.2-.6-.1 0-.1.2-.2.4z" class="st2"/></g><g class="st1"><path d="M462.6 436.7l3.2 2.4c-.5-.5-1-.9-1.5-1.5-.4-.4-1-.7-1.7-.9zM468.9 441.4c.2.1.4.3.6.4l.5.3-1.1-.7zM474.7 445.3c-.9-.7-1.9-1.4-2.9-2.1.9.8 1.9 1.4 2.9 2.1zM470.3 441.8c.3.4.4.6-.3.3l1.8 1.1c-.5-.4-1-.9-1.5-1.4zM470.3 441.8c-.3-.4-.7-.9-.9-1 .3.3.6.7.9 1zM473.7 440.1c.6.3-.1 1 1.2 1.7 2.8 1.7 5.3 3 7.8 4.8 1.3.6 2.4 2.8 3.7 3.4 2.8 1.7 10.4 5.6 6.4 2.7-6.1-4.2-10.2-6.9-15.7-10.6-4.6-2.9-9.1-5.5-13.8-8.5-1.3-.9-2.4-1.8-3.6-2.7l4.6 3.9c2.1 1.8 5.7 2.8 9.4 5.3zM438.9 418.9l1.9 1c2.3 2.3 4.9 4.3 7.8 5.8l-.9-1.2c-1.6-1-1.9-1-.7.2-2.7-2.6-5.6-4.9-8.7-7 .1.3-.2.5.6 1.2zM436.5 416.4l1.8 1.2v-.1l-1.8-1.1z" class="st2"/><path d="M487.3 453.2c7.6 5.4 14.7 10.6 21.6 15.7.7.2 1.3.5 1.8.9.4.5.9 1 1.4 1.5l3.1 2.2 1.1.7c.7.3.6 0 .3-.3s-.6-.6-.9-1c.2.2.6.7.9 1 .5.5 1 .9 1.6 1.3 1 .5 2 1.2 3.1 1.9-1.1-.5-2.1-1.1-3.1-1.9l-1.9-1-.5-.3 3.6 2.4c1.2.8 2.4 1.5 3.7 2.2l1.6.8c.9.5 1.9.9 2.7 1.3.7.3 1.4.8 2 1.4l1.4.7-.2-.2.5.3 2.9 1.4c1 .5 2 .9 3 1.3 1.4.3 2.8.7 4.2 1l1.2.9c.8 0 1.6.1 2.4.3-1-.6-1.9-1.3-2.8-1.8-1.2-.9-3.4-.2-4.6-1.7 1.3 1.5 3.4.8 4.6 1.7.9.5 1.8 1.1 2.8 1.8 1 .3 2.1.6 3.2 1s2.2.9 3.2 1.4c-1.2-.2-2.4-.5-3.6-.9-1-.4-2-.9-2.8-1.5-.8-.2-1.6-.3-2.4-.3l-1.2-.9c-1.4-.4-2.8-.7-4.2-1 2 .8 3.9 1.7 6 2.4l3.1 1.1 3.1 1c13.3 4 27.2 5.7 41.1 4.8 14.2-.9 28.1-4.2 41.2-9.8 14.4-6.1 27.6-14.7 38.9-25.5 1.4-1.3 2.7-2.6 4-3.9l3.8-3.9 7.5-7.8 14.7-15.4c9.8-10.3 19.8-20.4 30.9-30.5 8.5-7.8 22.7-23.6 30.2-31.8 9-11.9.7-9.1.1-8.8-8.8 4.2-12.3 10.8-26.5 22.9 9.5-8.4-4.8 8.4-14.7 15.4-14.5 10.1-29.3 30-44.5 45-1.9 1.9-3.8 3.9-5.8 6l-3 3.2-1.6 1.7-1.6 1.6c-5.6 5.3-11.7 10.2-18.1 14.5a118.8 118.8 0 01-42.3 18c-7.9 1.6-16 2.3-24.1 2-8.8-.1-16.5-.4-24-1.7-2.7-.6-5.3-1.3-7.9-2.2-2.5-1-4.9-1.8-7-2.7-6.5-2.5-12-4.9-17.2-7.4l4.1 2.1c1.3.7 2.6 1.2 3.9 1.8s2.7 1.1 4.1 1.7l2.2.9 2.4.9c4.5 1.7-3.6 0-6.6-1.2-1.4-.3-2.8-2.3-4.1-2.7-1.3-.6-2.6-1.2-4-1.8s-2.7-1.1-4.2-1.9c-1.3-.5-.6-1.3-1.3-1.5-1.9-1-3.7-1.9-5.3-2.6-1.5-.6-2.9-1.4-4.1-2.4l-4.6-3.9c-1-.8-1.9-1.5-3-2.2l-2.1-1.2c.3.4.4 1 .3 1.5-.9-.7-2.1-1.9-3.1-2.6.9.7 2.1 1.9 3.1 2.6.1-.5 0-1-.3-1.5-5.1-3-10.9-6.5-16.3-9.9v.1c3.1 2.1 6 4.4 8.7 7-1.2-1.1-.9-1.2.7-.2l.9 1.2c-2.8-1.7-5.6-3.4-7.8-5.8l-1.9-1c-.8-.7-.5-.9-.6-1.3l-1.8-1.2c1.5 1.7 3 3.2 4.7 4.6z" class="st2"/><path d="M518.2 475.3l-1.5-.9c2 1.3 4 2.6 6.1 3.8-.6-.6-1.2-1.1-1.9-1.5-.9-.5-1.8-.9-2.7-1.4z" class="st2"/></g><g class="st1"><path d="M609.8 471.1c.2.2.5.5.7.6-.1-.1-.2-.3-.3-.4 0-.1-.2-.1-.4-.2zM611.3 472.3l.2.1h.2c-.2 0-.3 0-.4-.1zM612.9 472.9c-.3-.1-.5-.2-.8-.3.2.2.5.3.8.3z" class="st2"/><path d="M611.7 472.3c.1.1.1.2-.1.2l.5.2c-.1-.2-.3-.3-.4-.4zM611.7 472.3c-.1-.1-.1-.2-.2-.3.1.1.1.2.2.3zM612.8 470.9c.1 0-.1.4.2.5h1.8c.3-.1.7.4 1 .3.4-.1.9-.3 1.2-.6.3-.2.5-.4 0-.3-1.1.3-2.3.4-3.5.2-1-.1-2-.5-2.9-1.1-.2-.2-.4-.5-.6-.7.2.4.4.7.7 1 .2.3.5.4.9.5.4.1.8.1 1.2.2zM606.3 465.3l.3.4c0 .8.4 1.5.9 2v-.4c-.2-.4-.4-.3-.3 0-.2-.8-.4-1.6-.8-2.4 0 .1-.1.2-.1.4zM606.3 464.5l.2.4c-.1-.1-.1-.2-.2-.4z" class="st2"/><path d="M616.4 472.7c2-.3 3.9-.8 5.8-1.6.1-.1.2-.3.4-.3h.5l.8-.4.2-.2c.1-.1 0-.2-.1-.2h-.3.3c.2 0 .3 0 .5-.1.2-.2.4-.3.7-.4-.2.2-.4.3-.7.4-.1.1-.2.2-.4.3l-.1.1c.6-.3 1.1-.6 1.7-.9l.3-.3c.3-.3.7-.7 1-.7.1-.1.2-.1.3-.2h-.1.1c.4-.3.8-.6 1.1-1 .2-.3.3-.6.4-.9l.4-.1c0-.2.1-.4.1-.6-.3.1-.5.2-.8.3-.4.1-.1.9-.7.9.6 0 .3-.8.7-.9.2-.1.5-.2.8-.3.3-.5.6-.9 1.1-1.1-.1.5-.5 1-1.1 1.1-.1.2-.1.4-.1.6l-.4.1c-.2.3-.3.6-.4.9l1-1.1.9-1.2c3.8-5.5 4.1-12.6.9-18.4-.8-1.8-2.3-3.3-4-4.2-1.8-.8-3.8-1.1-5.8-.8-1.7.3-3.4.8-5 1.5-1.5.7-3 1.4-4.4 2.2s-2.9 1.6-4.4 2.6c-1.7 1.1-3.1 2.4-4.4 4-.3.4-.5.8-.7 1.2l-.6 1.5-.3 1.8v1.8c.2 1.9.6 3.8 1.3 5.5 1 1.6 1.8 1.6 2.4 1.4.4-.2.7-.6.9-1 .3-1 .4-2.2.1-3.2 0-.3-.1-.5-.2-.9s-.1-.6-.1-1c0-.8.1-1.6.4-2.3-.3 1.1-.6.7-.6-.3 0-.6.2-1.2.6-1.7.4-.6.9-1 1.5-1.3 1.8-.8 3.5-1.8 5.1-3 1.9-1.4 4-2.5 6.1-3.3 1-.4 2.1-.7 3.2-1 1.1-.2 2.3 0 3.3.5 1 .7 1.8 1.6 2.3 2.6 1.6 2.7 2.1 5.9 1.6 8.9-.2 1.6-.5 3.2-.9 4.7-.1.2-.3.5-.4.7s-.3.4-.5.6c-.3.4-.7.8-1 1.1-.2.3-.4.5-.7.8l-.6.7c-.5.4-.8.9-1.3 1.3.5-.4.9-.8 1.4-1.2.4-.4.8-.9 1.2-1.4.6-.8 0 .9-.4 1.5-.1.1-.3.2-.5.2s-.4 0-.5.2l-.6.6c-.2.2-.4.5-.7.7s-.4-.2-.5-.1c-.7.5-1.1 1.4-1.7 1.5-.5.1-.9.2-1.3.3-.3.1-.5.1-.8.2l-.5.3c.2.1.3.2.4.4-.2.1-.6 0-.9.1.2 0 .6 0 .9-.1-.1-.2-.2-.3-.4-.4-1.2.7-2.4 1.2-3.8 1.4.8-.1 1.6-.1 2.4 0-.4 0-.4-.2 0-.3l.4.2c-.6.4-1.4.5-2.1.3 0 0-.3.1-.5.2s-.2-.2-.3-.4h-.5c.3.2.5.3.8.4.5.2.8.2.8.2z" class="st2"/><path d="M624.4 470c-.1.1-.2.2-.3.2l1.4-.8c-.4 0-.7.3-1.1.6z" class="st2"/></g><path d="M623 466c3.2-.7 5.3-3.9 4.6-7.1-.7-3.2-3.1-3.1-6.3-2.4s-6.1 1.7-5.4 5c.7 3.1 3.9 5.2 7.1 4.5z" class="st2"/><g class="st1"><path d="M620.3 465.6l-.3-.1c.1 0 .1.1.1.1.1.1.1.1.2 0zM619.7 465.4zM619.1 465.2c.1.1.2.1.3.1-.1 0-.2 0-.3-.1zM619.5 465.5c0-.1 0-.1 0 0l-.2-.1c.1 0 .2 0 .2.1zM619.5 465.5l.1.1-.1-.1zM619 466.2c-.1 0 0-.2-.1-.2-.3 0-.6-.1-.8-.3-.1 0-.2-.4-.3-.4s-1.1-.5-.7-.1c.5.4 1 .7 1.6 1l1.5.3c.1 0 .3.1.4.1l-.5-.2c-.2-.3-.6-.1-1.1-.2zM622.7 465.9l-.2.1c-.3-.1-.6-.1-.8 0l.1.1c.2 0 .2-.1 0-.1.3.1.7.2 1 0 0 0 0-.1-.1-.1zM623 466h-.2.2zM618 464.7c-.6-.5-1.1-1.1-1.4-1.8-.1 0-.1 0-.1-.1v-.2c0-.1-.1-.2-.1-.3l-.1-.1h-.1v-.2c0-.1-.1-.2-.1-.3 0 .1.1.2.1.3l.1.2c-.1-.2-.1-.5-.2-.7l-.1-.1c0-.2-.1-.3 0-.5v-.1-.5c0-.1-.1-.2-.1-.4l.1-.1c0-.1-.1-.1-.1-.2-.1.1-.2.1-.3.2-.1.1.2.3 0 .4.2-.1-.1-.3 0-.4.1-.1.2-.2.3-.2 0-.2.1-.4.3-.5 0 .2-.2.3-.3.5 0 .1 0 .2.1.2l-.1.1c0 .1 0 .2.1.4 0-.3.1-.7.3-1 .6-.9 1.6-1.5 2.7-1.8 1.1-.4 2.3-.6 3.5-.8 1.3-.2 2.7-.1 3.3.5.3.3.5.7.7 1.1.2.5.2 1 .3 1.5 0 1-.4 2-1.2 2.7-.3.3-.7.6-1.1 1-.4.3-.8.5-1.2.7-.3.2-.5.6-.4 1 .1.2.2.4.3.5.4.3.9.3 1.4.1.6-.3 1.3-.6 1.9-.9-.6.3-.5 0-.1-.3.4-.5.9-.9 1.5-1.3.9-.7 1.4-1.7 1.3-2.9 0-.6 0-1.1-.1-1.7-.1-.6-.3-1.2-.5-1.7-.3-.7-.8-1.3-1.4-1.7-.8-.6-1.8-.9-2.8-.9-.8 0-1.6.1-2.4.3-1.5.3-3 .8-4.5 1.4-.9.4-1.6 1.1-2 2-.4.5-.6 1.1-.8 1.8-.1.7.1 1.4.4 2-.3-.6-.4-1.3-.3-2 .1-.6.2.4.3.7 0 .1-.2.4-.1.5.1.3.2.6.4.8.1.1-.1.2-.1.2.2.4.6.6.7.8.1.2.1.4.2.5 0 .1.1.2.2.3l.2.1c0-.1.1-.2.1-.2.1.1.1.2.2.3-.1-.1-.1-.2-.2-.3-.1.1-.1.1-.1.2.5.4 1 .7 1.5 1-.3-.2-.5-.4-.7-.8.1.1 0 .2-.1.1v-.2c.2.2.5.3.6.6h.2v.2l.2.1c0-.1-.1-.2-.2-.3l-.1.2z" class="st2"/><path d="M616.2 462.1l.1.1c-.1-.2-.1-.4-.1-.6-.2.1-.1.3 0 .5z" class="st2"/></g></svg>