<svg xmlns="http://www.w3.org/2000/svg" id="Layer_1" viewBox="0 0 842 842"><defs/><defs><style>.cls-2{opacity:.85}.cls-3{fill:#fefefe}.cls-4{fill:#f4ecea}</style></defs><path fill="#3f372f" d="M0 0h842v842H0z"/><g class="cls-2"><path d="M244 526l2-1a7 7 0 01-1 0 2 2 0 00-1 1zM247 525h1zM250 524a13 13 0 00-1 1 11 11 0 001-1zM248 525h1a6 6 0 01-1 0zM248 525h-1a6 6 0 001 0z" class="cls-3"/><path d="M248 523h1l3-1a22 22 0 012 0l2 1h3c1 0 2-1 0-1a29 29 0 00-9 0 32 32 0 00-7 3l-2 1 3-1a9 9 0 002-1 19 19 0 012-1zM233 533v-1a15 15 0 002-1l1-1 1-1-1 1c-1 0-1 0 0 0a18 18 0 00-2 1 14 14 0 00-2 2h1zM231 534l1-1-1 1z" class="cls-3"/><path d="M257 524a28 28 0 0112 4 2 2 0 011 0 6 6 0 000 1l2 1v-1 1a8 8 0 001 1 14 14 0 011 1 10 10 0 01-1-1l-1-1a28 28 0 013 3 13 13 0 012 2v1a24 24 0 012 2l1 2v1a3 3 0 011 1l-1-2-1-2 1 2 1 2a7 7 0 010 3 10 10 0 010-3 3 3 0 00-1-1v-1l-1-2a22 22 0 011 3 23 23 0 011 3 30 30 0 010 18 29 29 0 01-12 14 28 28 0 01-19 5 30 30 0 01-13-5l-2-2-1-1a25 25 0 01-5-8 23 23 0 01-2-9 36 36 0 011-9 26 26 0 013-8l1-1v-1a6 6 0 000-1v-1h-2a8 8 0 00-2 2l-1 1-1 2a40 40 0 00-4 9c1-3 1-2 1 1v9c-1 5 1 10 5 14a36 36 0 0013 10l2 1 2 1h5a31 31 0 0023-6 34 34 0 0012-21 27 27 0 00-1-13v-2l-1-2a23 23 0 00-1-3 27 27 0 00-3-4 28 28 0 00-3-4 35 35 0 013 4 31 31 0 013 4h-1l-1-2-1-1a3 3 0 010-1 3 3 0 00-1-1 18 18 0 00-2-2l-1-1-1-1a23 23 0 00-2-1 10 10 0 01-2-1 28 28 0 00-3-2 8 8 0 00-1-1h-2a1 1 0 011 1l-2-1 2 1a1 1 0 00-1-1 32 32 0 00-9-1 14 14 0 015 1 1 1 0 011 0h-1-1a16 16 0 01-2-1h-2-1l2 1z" class="cls-3"/><path d="M273 531l-1-1 1 1h1l1 1a7 7 0 00-2-1z" class="cls-3"/></g><ellipse cx="253" cy="553" class="cls-3" rx="13" ry="12"/><g class="cls-2"><path d="M264 546v-1a2 2 0 010 1zM264 545h-1v-1zM263 544z" class="cls-4"/><path d="M263 545v-1a1 1 0 010 1zM263 545zM262 545l-2-1v-1h-2a12 12 0 013 2 10 10 0 012 2 4 4 0 011 1 7 7 0 00-1-1 1 1 0 000-1 4 4 0 01-1-1zM266 552v-1a2 2 0 000-1 3 3 0 000-1l-1 1h1a9 9 0 000 2zM266 553v-1 1z" class="cls-4"/><path d="M260 542a15 15 0 00-5-2 1 1 0 00-1 0h-1a3 3 0 01-1 0 2 2 0 011 0 14 14 0 00-1 0 3 3 0 00-1 0 1 1 0 01-1 0 11 11 0 00-2 0v1h-1 2-1-1a3 3 0 01-1 1 1 1 0 011-1h1v-1a13 13 0 00-8 7 13 13 0 00-1 9 15 15 0 006 8 14 14 0 009 3 20 20 0 009-3 11 11 0 004-4 14 14 0 001-5 3 3 0 000-2 1 1 0 00-1 0 2 2 0 00-1 0 7 7 0 00-1 1 3 3 0 00-1 1v1a6 6 0 01-2 3c1-1 1-1 0 0a4 4 0 01-3 2 32 32 0 00-4 1 8 8 0 01-6 0 20 20 0 01-2-1 12 12 0 01-4-6 9 9 0 011-8 19 19 0 013-3 8 8 0 012-1 33 33 0 013-1 11 11 0 00-3 1l1-1h1a4 4 0 001 0h1a4 4 0 001-1 1 1 0 011 0 6 6 0 011 1h1a9 9 0 013 1 8 8 0 01-1-1h-1a2 2 0 012 1h1a3 3 0 00-1 0 4 4 0 000-1z" class="cls-4"/><path d="M253 540a12 12 0 00-1 0h1z" class="cls-4"/></g><g class="cls-2"><path d="M158 290a299 299 0 010 4 15 15 0 000-4zM156 305v0zM153 318a61 61 0 002-7l-2 7zM156 308v-1l-1 4 1-3zM156 308l1-3-1 3z" class="cls-3"/><path d="M159 312l-2 3-1 5-1 2v3l-2 4-2 4-5 8-2 6-1 3-1 3a20 20 0 000 4l1-3a117 117 0 016-17l2-4 2-2 1-2 1-3v-2l2-4a122 122 0 003-16 239 239 0 001-14l-2 22zM160 232l1 4a172 172 0 000 19v-3-1a156 156 0 000-22l-1 3zM160 225l1 4-1-4z" class="cls-3"/><path d="M142 345a132 132 0 00-4 13l-2 7-2 6a213 213 0 00-3 26 16 16 0 010 4v4l-1 7v3h1v-3 3a44 44 0 000 11 68 68 0 010-7l-1-4v-2l1 17v4l1 10v4l2 13 2 8v3a35 35 0 011 4v-6l-2-10 2 10v6l3 14a53 53 0 01-3-14 35 35 0 00-1-4v-3l-2-8 5 25a259 259 0 0012 39l9 18a200 200 0 0010 17 155 155 0 0027 31 116 116 0 0037 22 107 107 0 0023 6h5l6 1h12a111 111 0 0022-4 102 102 0 0022-8 115 115 0 0034-28 165 165 0 0012-18 196 196 0 0011-19l9-19 7-20 12-42a382 382 0 007-44l3-43c0-15-2-19-3-18l-2 5-4 27a363 363 0 01-5 41c1-6 1-8 2-7a70 70 0 01-1 10c-2 10-5 27-9 38-5 16-11 35-19 55a220 220 0 01-14 29 128 128 0 01-19 25 134 134 0 01-12 10l-3 3-3 2-4 3-4 2a100 100 0 01-43 11h-14l-3-1h-6a99 99 0 01-21-6 113 113 0 01-38-26 164 164 0 01-28-39 296 296 0 01-19-45 462 462 0 01-11-45v-9l-2-18v-4-21l1-12 1-7 1-4a5 5 0 01-2 2l1-4 1-4-1 4-1 4a5 5 0 002-2c1-12 4-25 9-36l-8 20v1l-1 3c2-6 3-13 6-18l1-2 1-2 1-2 2-4a29 29 0 00-2 3l-1 2-1 2-1 3zM131 419v-4 4z" class="cls-3"/></g><g class="cls-2"><path d="M698 419h-1a3 3 0 011 0zM695 418zM693 418a6 6 0 001 0 4 4 0 00-1 0zM695 419v-1h-1a3 3 0 011 1zM695 419zM694 422l-1-1a18 18 0 01-4 0h-2c-1 0-4 0-2 1h13a8 8 0 012 0h-2a3 3 0 00-2 0 9 9 0 01-2 0zM710 422h-1a5 5 0 00-4-1l1 1v-1a10 10 0 004 2v-1zM711 423h-1 1zM687 418l-6-1h-5a3 3 0 00-1 0l-2-1v1a3 3 0 00-1-1 6 6 0 01-1 0 3 3 0 011 0h1-7v-1h-2l-2 1-1-1a2 2 0 01-1 1h2l2 1-2-1h-2a4 4 0 01-2-1 3 3 0 012 1 2 2 0 001-1l1 1 2-1h-5l-4-1h-12l-2-1h-33c-12-1-22 2-34 1l-18 2c-5 3-1 6-1 7 4 2 6 0 14 1-5-1 3-3 8-1h12l13-1h6l19-1h20l9-1 7 1a60 60 0 007-1h-7l3-1 2 1a18 18 0 003 0h1l4-1 2 1a8 8 0 002 0h1a2 2 0 010-1l1 1-1-1a2 2 0 000 1 73 73 0 017 0 10 10 0 01-4-2v1l-1-1a5 5 0 014 1h1v1h1a12 12 0 00-2-2z" class="cls-3"/><path d="M672 417h1l-3-1 2 1z" class="cls-3"/></g></svg>