<svg xmlns="http://www.w3.org/2000/svg" id="Layer_1" x="0" y="0" version="1.1" viewBox="0 0 842 842" xml:space="preserve"><defs/><style>.st1{opacity:.85}.st2{fill:#fefefe}.st3{fill:#edefef}</style><path fill="#593d2b" d="M1 0h842v842H1z"/><g class="st1"><path d="M143 566l-1 1 1-1zM141 568h-1 1zM138 569h1l1-1-1 1h-1zM140 568h-1 1zM140 568h0z" class="st2"/><path d="M140 570l-2 1h-7c-1 0-1 0 0 0l4 1 1-1h3l5-4 1-1-1 1h-1l-1 2h-1l-1 1zM149 558l-1 2-1 1c1 0 1-1 0 0l1-2 1-2v1zM150 557h-1 1z" class="st2"/><path d="M133 570l-9-3h-1l-1-1h-1c0-1 0 0 0 0l-1-1h-1 1l1 1-2-2h-1l-1-2h-1l-1-2-2-1-1-1 1 1 1 2-1-2-1-1-1-2 1 2 1 1 2 1-2-2-1-2c-3-4-4-9-4-13v-4-3l1-1v-1l1-2 1-2v-2l6-5h7l7 3a88 88 0 0113 8l5 5v2l1 1v4l-2 7 1 3h1c2-1 3-3 3-5l1-1v-2l1-5-1 2v-1-1l-1-4-2-4-1-2-1-1-1-1-5-4-6-3-5-3a30 30 0 00-10-3h-1-4l-2 1h-1a16 16 0 00-7 8 31 31 0 00-3 20l4 9 1 2 1 1 2 3 1 1 2 1 1 1 1 1h1-1l-1-1-1-1-1-1-2-1c-1-1 0-1 0 0l2 1 1 1h1l1 2h2v1l3 1h1l2 1 2 1v-1l2 1-2-1v1l8 1-4-1h-1 4l1 1-1-1h-1z" class="st2"/><path d="M120 565l1 1-3-2 2 1z" class="st2"/></g><path d="M122 559c-5-1-9-6-8-12h1c1-5 5-5 10-4s10 3 9 9c-1 5-7 8-12 7z" class="st3"/><g class="st1"><path d="M127 559h1-1zM128 559zM129 558l-1 1 1-1zM128 559zM128 559zM128 558l1-1h1v-1l-2 1-1 1-1 1 1-1h1zM123 559h1a48 48 0 00-1 0zM122 559z" class="st2"/><path d="M131 557l2-3v-1h1v-1-1-1-1c0-1 0 0 0 0v-1-1 0l-2-2-3-1a30 30 0 00-9-2 6 6 0 00-6 4l-1 3 2 7 2 2 3 2h2v-1l-2-1-2-2c1 1 0 1 0 0l-2-2v-4a7 7 0 010-4l2-1h5l7 1 2 2 1 2v1c1 0 0 0 0 0v3l-1 1v1-1l-2 2h1v-1c0 1 0 1 0 0h1l-1 1h-1v1l1-1c-1 0 0 0 0 0z" class="st2"/><path d="M134 553h-1l1-1v1z" class="st2"/></g><g class="st1"><path d="M381 519l-4 6 3-3 1-3zM373 530l-1 1v1l1-2zM365 539l4-5-4 5zM372 532l-1-1 1 1-3 2 3-2zM372 532l1-2-1 2zM372 536l-3 3-10 12-4 3-3 3-8 8a258 258 0 0041-46l5-7-3 4-4 5-11 15zM406 473l-1 3v1l-6 16 1-2c2-3 1-4 0-1 3-6 6-12 7-19l-1 2zM408 468l-1 3 1-3z" class="st2"/><path d="M347 558a197 197 0 01-41 29l-4 1-6 2-2 1v1l2-1-2 1h-4a54 54 0 014-1h1l-15 3-3 1-5 1h-7 1-1l-12 1-7 1-3-1-4 1 6 1 9-1-9 1-6-1h-12 19l7-1a242 242 0 01-58-3 206 206 0 01-52-15l-15-9-13-13a45 45 0 01-7-36l7-19c2-6 6-11 9-17l12-16a1267 1267 0 0063-95c6-12 10-25 12-39v-19l-3-21-2-11-3-10-5-17c-8-25-8-11-8-10 0 9 2 16 4 25l1 7a274 274 0 016 25v3l1 3a81 81 0 011 12v5c0 6-1 11-3 17a195 195 0 01-22 46c-10 17-21 34-32 49l-17 25-13 18-11 20c-3 7-5 14-6 22v12a56 56 0 002 9v1l1 2a55 55 0 0012 20l19 14a161 161 0 0067 19l21 1 30 1a176 176 0 001-1l11-2h9l16-4h4l10-4 8-4 2-2 3-1 4-2 6-4 4-3-3 1 6-4-6 4 3-1 25-22h-1c-4 4-9 9-15 12 3-1 3-1 0 1l-2 1 13-11 2-2 2-1 3-3-5 4-4 3z" class="st2"/><path d="M290 592l3-1a169 169 0 01-3 1z" class="st2"/></g><g class="st1"><path d="M698 567l1 1-1-1zM701 569zM703 570h-1 1zM701 569l1 1-1-1zM701 569zM703 568l2 1h3l2-1c1 0 1 0 0 0h-6l-5-2-1-1h1v1l2 1h1l1 1zM692 558h1v2l2 2-1-1c0-1 0-1 0 0l-1-2v-2l-1 1zM692 557h1-1z" class="st2"/><path d="M709 570l9-3h2l1-1h1l1-1-1 1h-1l3-1v-1l2-1 2-2 1-1v-1l1-1-1 1-1 2 1-2 1-1 1-2-1 2-1 1v1l-1 1 2-2 1-2c3-4 5-9 5-14v-4-3l-1-1v-2l-1-2-1-2-1-2c-1-3-3-5-6-6-3-2-6-2-9-1l-8 2a97 97 0 00-14 8l-7 6-1 2v2l-1 3v3l2 8c1 3 2 3 3 3l1-2-1-5v-1-2-4-3l3-3 8-6 5-3 5-2 6-2c2-1 5 0 7 1l5 5 2 7v9l-2 8-1 1-1 1-1 2-1 1v1l-2 1-1 1v1h-1 1v-1l1-1 2-1 1-1c0-1 0-1 0 0l-1 2h-1l-1 1-1 1-1 1h-1l-2 1-1 1-2 1h-2v1h-1 1v-1l-7 2h5-4v1l-1-1h-1l2 1h1zM722 566l2-1-2 1z" class="st2"/></g><path d="M720 559c5-1 8-6 7-12-1-5-5-5-10-4s-10 3-9 9c1 5 6 8 12 7z" class="st3"/><g class="st1"><path d="M715 559v-1 1zM714 558zM713 558h0zM714 558zM714 558zM713 559l-1-1h-1l-1-1 3 2h2l1 1-1-1h-2zM719 559h-1 1zM720 559h-1 1zM711 557l-2-3v-1h-1v-1l1 1-1-1v-1-1-1-1 0l1-1-1 1v1l1-1c1-2 2-3 4-3l6-2h3l3 1 1 2 1 3-2 5-2 2-2 1-1 1v1h2l3-2c-1 1 0 0 0 0l2-3 2-4v-3l-1-2-2-3-4-1h-4l-7 2-3 3-1 3v2l1 1h-1l1 1v1l1 1h1-1l3 2-1-1h-1l1 1h1-1zM708 553v-1 1z" class="st2"/></g><g class="st1"><path d="M458 521zM467 531v1l1 1-1-2zM475 541l-4-5 4 5zM469 533h-1l3 3-2-3zM469 533l-2-2 2 2zM473 533c1 1 0 2 2 3l12 11 3 4 3 3 4 3a328 328 0 005 3 259 259 0 01-47-50l3 4 3 5c2 5 7 9 12 14zM435 474v2l1 1c1 6 3 11 6 16v-2c-2-3-2-4-1-1-3-6-5-12-6-19v3zM434 468l1 3c0 1 0 0 0 0l-1-3z" class="st2"/><path d="M495 559a208 208 0 0041 28l2 1 1 1a66 66 0 009 3c1 0 1 0 0 0l-2-1 2 1 3 1 7 1-7-1-3-1h-1l14 4h3a73 73 0 0110 2h3-1 1l12 1h7l3 1 4-1-6-1h-8 8l6 1a120 120 0 01-4 1l-3-1h-7a285 285 0 0094-10 146 146 0 0033-16 50 50 0 0022-53l-6-20-9-18-11-16-43-63c-6-11-13-21-18-33a100 100 0 01-8-52l3-21 2-10c0-4 2-7 3-10l4-17c5-25-2-13-3-12-4 7-6 14-8 23l-2 7c0 3-2 5-3 8a628 628 0 00-3 20l-1 4-1 8v9l1 19c0 8 3 17 6 25l13 26 33 49 17 25 12 18c4 5 7 11 10 18l5 19v9l-1 5v2l-1 1v1a44 44 0 01-10 16c-4 5-10 9-15 12-12 7-26 12-41 15-14 3-28 6-43 7h-28a314 314 0 01-1 1h-12l-8-2-16-2-3-2-10-2-8-3-2-2-2-1-4-3-6-3-3-2 1 1-6-4 6 4-1-1c-10-6-19-13-27-20l15 13c-3-2-2-2 0 0l2 2-13-11-3-2-1-2-3-3a72 72 0 007 8l1 1z" class="st2"/><path d="M551 593l-3-1 13 3-10-2z" class="st2"/></g></svg>