<svg xmlns="http://www.w3.org/2000/svg" id="Layer_1" x="0" y="0" version="1.1" viewBox="0 0 842 842" xml:space="preserve"><defs/><style>.st1{opacity:.85}.st2{fill:#fefefe}</style><path fill="#7f563a" d="M0 0h842v842H0z"/><g class="st1"><path d="M126 384l2 5-1-2-1-3zM129 393v1l1 1-1-2zM132 401l-2-4 2 4zM130 395v0zM130 395zM134 395v3l2 5 3 4 1 3 1 3 2 3 2 3c1 2 2 2 1 0l-3-5-3-5-4-9-7-18-1-5 1 7 2 5 3 6zM122 350v8l1 3v3-2-1-6-4-3l-1 2zM123 346v0z" class="st2"/><path d="M140 416a156 156 0 0019 28l2 2 3 3 1 1c0 1 0 1 0 0l-1-1 1 1 2 2-2-2h-1l7 7 2 1 5 5 1 1 3 2 3 3 5 2 1 1 2 2-2-3c-1-1-4-1-5-3 1 2 4 2 5 3l2 3 2 1 2 1 3 2-4-2-1-1-1-1-3-2-1-1-5-2 3 2 3 2 4 2 3 2a149 149 0 0045 18 160 160 0 00124-27l5-4 5-4 5-5 4-4a195 195 0 0030-43 121 121 0 0013-52v-3-2l-1-4-2-2-2 3-1 4-1 4-1 4-1 4-6 24c3-7 3-4 1 2l-4 10-1 3a60 60 0 01-5 7l-20 28-6 7-3 3-4 4-3 3-4 3-7 5-17 11c-16 8-34 13-52 15-19 2-38 1-56-5-10-2-19-5-27-9l-2-1-2-1-4-3-4-2-2-1-2-2a246 246 0 01-1 0l-3-1-3-2-4-4-5-4-4-3-1-2-5-4-4-4-2-3-2-3-3-4-1-2-1 2-2-4 2 4 1-2c-5-5-9-11-13-18l3 6 3 6c-1-2-1-2 1 0v2a40 40 0 01-5-10l-2-2v-3l-1-1 1 4 1 3z" class="st2"/><path d="M167 452l-2-1 2 1 1 2 3 3-4-5z" class="st2"/></g><g class="st1"><path d="M257 444l1 1-1-1zM259 445l1 1-1-1zM262 447l-1-1 1 1zM260 445v1h1l-1-1zM260 445zM262 443l1 1h3l2 1 2-1c1 0 1 0 0 0h-1l-2-1h-3l-2-1h-1l-2-1h-1l-1-1v1h1l2 1 2 1zM249 434h1v2l2 2v-1h-1l-2-4v1zM249 432v1h1l-1-1z" class="st2"/><path d="M268 447h9l2-1h2l1-1h1v-1h-1 1l2-1-2 1v1l3-2 2-1 1-1 2-2 1-1v-1l1-1-2 1-1 1 1-1 2-1 2-2-2 2-1 1v1l-1 1 4-4c3-4 5-10 5-16l-2-9-2-4-2-2-1-2a44 44 0 00-17-10l-10-2a24 24 0 00-18 10l-5 9a26 26 0 00-2 13v6l1 2 1 1v1l2 1h2l2-2v-2-1-2-1-3l1-5c0 2-1 2-1 0l1-4 2-3 7-7 4-3h3l1-1 1 1h6a52 52 0 0114 9l4 6 1 7-2 9-1 1-1 1-1 2v1l-1 1v1l-2 1-1 1-1 1h-1l-2 2-1 1h-3-2l1 1h-1-1 2l-1-1-7 2h2l2 1 1-1v1h-2l-2-1-1 1v-1h-1l2 1zM284 444l-1 1 1-1 1-1-1 1z" class="st2"/></g><circle cx="272" cy="421" r="9" fill="#e0caca"/><g class="st1"><path d="M277 426h-1l1 1v-1zM276 427zM275 427h0zM276 427zM276 427zM278 430h-1l-1 1h-1l-1 1v1l3-2 2-3-1 1v1zM279 424v1l1-1h-1zM280 423v1-1z" class="st2"/><path d="M274 429h-5l-1-1v-1 0h-1-1v1s1-1 0 0c1-1 0 0 0 0v-1-1 1h1l-1-1-1-5 1-4c1-1 3-2 4-1h3l1 1v4l4 2h4l1-2v-4c0 2-1 1-1 1v-4c0-3-1-5-4-6l-7-1h-4c-3 1-7 3-8 7-2 3-2 7-1 11 0 2 2 3 3 4l2 2 4 2-4-2h2l1 1h2v1l1-1h3v-1 1l3-2h-2 1v-1l1 1-1-1zM269 429l-1-1 1 1z" class="st2"/></g><g class="st1"><path d="M703 379h-2 2zM700 379h-1 1zM696 380h2-2zM699 380v-1l-1 1h1zM699 380h1-1zM699 383h-1l-5 1h-2c-2 0-6 2-3 2l9-2 7-3h3-3l-5 2zM717 376l-1 1h-2l-2 1h1c1 0 1 0 0 0l3-1h2l-1-1zM719 376l-1 1 1-1zM689 382l-13 1v1l-1-1-2 1h-1-1-2 3-11l-2 1h-1-1l2 1h2-2l-2-1h-3 5l2-1-6 1-40 3h-22c-14 0-27 2-42 1-5-1-16 1-21 1-7 2-3 6-3 6 5 3 8 1 17 3-6-1 5-3 11-1 8 3 20-1 30 0l9-1c16 0 30-3 47-4l12-2 8-1 9-2-9 2c-2 0 1-2 3-2h3l4-1 1 1 5-2h5l1-1h-1 2-2 1l9-2h-6c1 0 1 0 0 0h-1 5l1-1 1 1h1l-4-1zM671 384h1-4 3z" class="st2"/></g></svg>