<svg xmlns="http://www.w3.org/2000/svg" id="Layer_1" x="0" y="0" version="1.1" viewBox="0 0 841.9 841.9" xml:space="preserve"><defs/><style>.st1{opacity:.85}.st2{fill:#fefefe}</style><path fill="#423228" d="M0 0h841.9v841.9H0z"/><g class="st1"><path d="M431.9 370.3l-.5 2.6-.6 2.6c.3-.9.6-1.7.9-2.6.2-.8.3-1.7.2-2.6zM429.7 380.3c-.1.3-.1.6-.2.9s-.1.6-.1.8c.1-.5.2-1.1.3-1.7zM427.6 389.4c.5-1.6.8-3.1 1.2-4.6-.5 1.5-.8 3.1-1.2 4.6zM429.8 382.3c-.3.5-.5.8-.4-.2-.2.9-.4 1.8-.6 2.8.3-1 .6-1.9 1-2.6zM429.8 382.3c.3-.5.6-1.3.7-1.6-.3.4-.5 1-.7 1.6zM432.5 385.4c-.1 1-1 .5-1.3 2.4l-.6 3.2c-.2 1.1-.5 2-.7 3-.5 2-.9 3.9-1.5 5.9-.4 1.9-2.4 4.3-2.9 6.2-.5 2.2-1.8 5.9-2.4 8.5s-.8 3.7.4.6l2.5-6.6c.8-2.1 1.3-4 2-6l.9-2.9c.3-1 .5-1.9.8-2.9.5-2 1.2-4 1.7-6.2.4-1.8.7-3.6 1.1-5.4l.5-2.7.4-2.7.9-5.4c.3-1.8.5-3.7.7-5.5.3-2.1.8-4 1.1-5.9-.5 2.5-1.1 5.1-1.8 8-.4 2.1-.7 4.3-.9 6.4 0 2.7-.4 5.3-.9 8zM435.9 331l.3 2.8c-.3 2.1-.5 4.2-.6 6.4-.1 2.1 0 4.4 0 6.5.2-.6.4-1.3.6-1.9 0-2.5-.2-2.8-.5-.6.4-2.5.7-5 .9-7.5s.1-4.9.1-7.4c-.3.4-.6.3-.8 1.7z" class="st2"/><path d="M436.5 326.5c0 1 0 1.9.1 2.9l.1-.1c0-1-.1-2-.1-2.9l-.1.1zM422.2 408.5c-4.3 11.1-9.6 21.8-15.9 31.8-.2.9-.6 1.7-1.2 2.4s-1.2 1.4-1.7 2.1c-.9 1.4-1.9 2.7-2.9 4.1l-.9 1.5c-.4.8-.2.7.3.3s.9-.9 1.3-1.2c-.3.2-.9.9-1.3 1.2-.6.6-1.1 1.3-1.8 2-.9 1.2-1.8 2.5-2.9 3.8.9-1.3 1.8-2.6 2.9-3.8.6-.8 1-1.6 1.5-2.4.1-.2.2-.5.4-.7l-1.7 2.3-1.8 2.2-3.5 4.5-1.5 1.9c-1.7 2.2-3.3 4.4-4.8 5.3l-1.4 1.5.3-.2c-.2.2-.4.4-.6.5l-3 3.1-3.1 3c-1.2 1.4-2.4 3-3.8 4.3l-1.8.9c-.6.9-1.3 1.7-2.1 2.5 1.4-.8 2.6-1.5 3.7-2.2.9-.6 1.7-1.4 2.2-2.3a6.4 6.4 0 000 0c-.6.9-1.4 1.7-2.2 2.3-1.1.7-2.4 1.4-3.7 2.2a35.6 35.6 0 01-7.4 5.3c2.2-2.1 4.7-3.9 7.4-5.3.8-.7 1.5-1.6 2.1-2.5l1.8-.9c1.4-1.4 2.6-2.9 3.8-4.3-1 1-2 2-3.1 2.9l-3.2 2.8c-2.1 1.9-4.4 3.6-6.7 5.4-7.3 5.5-15.1 10.4-23.2 14.6a132 132 0 01-25.1 9.8c-17.8 5-36.4 6.2-54.7 3.3a132 132 0 01-55.1-22.5c-15.5-10.8-29.1-24-40.3-39.1-5.6-7.5-10.5-15.5-14.7-23.8-4.3-8.6-7.8-17.5-10.5-26.7-2.2-7.1-5.2-17.4-7.4-27.7-2-9.2-3.4-18.6-4.2-28-.4-2.4-.7-4.3-1.1-5.9-.2-1.2-.6-2.4-1-3.6-.7-1.8-1.4-2.3-2-2.2-1.2.2-2.2 3.1-2.3 3.5-.8 3-1.2 6-1.3 9-.1 3.2 0 6.5.4 9.7.2 1.8.4 3.6.6 5.6s.6 4.1.9 6.4c.2 1.1.3 2.3.5 3.6s.4 2.5.6 3.9c.4 2.7.8 5.6 1.4 8.7-.8-4.2-.7-5.6-.4-5.1.3.7.6 1.4.8 2.2.4 1.1.8 2.6 1.3 4.4.9 3.5 2.3 8 3.5 12.7 1.4 4.6 2.6 9.4 3.7 13.3 2.7 11.6 9 24.8 17.6 37.3l3.3 4.7c1.1 1.6 2.3 3 3.5 4.6 2.3 3.1 4.9 6 7.4 8.9 5.1 5.7 10.4 11.2 15.8 16.3 2.6 2.6 5.6 5 8.7 7.5 1.6 1.2 3.2 2.4 4.9 3.6.9.6 1.7 1.3 2.6 1.9l2.7 1.8c18.6 13.1 40.2 21.2 62.8 23.7 11.3 1.2 22.8 1 34.1-.6 11.7-1.6 23.2-4.7 34.1-9.2 11.9-4.9 21.2-11.4 29.6-17.9 1.5-1.2 3.2-2.3 4.7-3.5l4.6-3.6c1.5-1.1 2.9-2.4 4.3-3.5s2.7-2.2 3.8-3.4c6.4-6.1 12.2-12.9 17.3-20.2-.7.9-1.3 1.8-2 2.7l-2 2.5-1.9 2.4c-.6.8-1.3 1.6-2 2.4L386 474c-1.5 1.6-3.2 3.2-5 5.1-2.4 2.4-1.8 1.3-.2-.7s4.2-5.1 5.6-6.9c.7-.9 1.6-1.6 2.5-2.3 1-.6 1.8-1.4 2.5-2.3 1.3-1.6 2.5-3.2 3.8-4.8s2.3-3.4 3.5-5.3c1-1.6 1.6-.9 2.1-1.7 1.7-2.5 2.9-5 4-7.1.9-2 1.9-3.9 3.1-5.7 1.7-2.4 3.1-4.6 4.5-6.8.9-1.4 1.7-2.9 2.5-4.4.4-1 .9-2 1.3-3-.4.5-1 .8-1.6.9.8-1.4 2-3.3 2.7-4.7-.7 1.4-2 3.3-2.7 4.7.6-.1 1.2-.4 1.6-.9.4-.9.8-1.9 1.2-2.8s.8-2 1.1-2.9l2.3-6c1.4-4.1 2.9-8.3 4.1-12.4l-.1.1c-.4 1.2-.8 2.3-1.2 3.5s-.9 2.3-1.4 3.4-1 2.3-1.6 3.4l-.9 1.7c-.3.6-.6 1.1-1 1.7 1.1-1.9 1.2-1.6.2.8-.4.5-.8 1.1-1.2 1.6 1.7-4.1 2.9-8.3 5.2-11.9l.6-2.8c.6-1.3.9-1.1 1.2-1.3.3-.9.6-1.9.9-2.8-.6.9-1.5 2.8-2.4 4.5l-1.1 2.2.1.4z" class="st2"/><path d="M398 452.9c.4-.5.8-1.2 1.3-2-.9 1.3-1.9 2.5-2.9 3.8s-2 2.5-3 3.8c1.5-1.1 3.1-3.3 4.6-5.6z" class="st2"/></g><g class="st1"><path d="M252.1 437.2v-1.6c-.1.3-.2.6-.4.8-.1.4.1.6.4.8zM252.2 434.1v-.5.5zM252.3 431.3c-.1.5-.2 1-.2 1.4.2-.4.2-.9.2-1.4zM251.8 433.5c.2-.2.3-.2.4.1v-.9c-.2.3-.3.6-.4.8zM251.8 433.5c-.1.2-.3.3-.4.5.1-.2.2-.3.4-.5zM248.5 432.3c-.1-.4.9-.1.8-.8s0-1.5 0-2.2c0-.7.1-1.4.3-2.1 0-.7 1.3-1.3 1.4-2s.4-2.1.5-3.1.1-1.5-.5-.4c-.4.7-.7 1.5-1 2.3-.3.7-.5 1.4-.7 2.1-.2.7-.4 1.4-.5 2.1s-.2 1.4-.4 2.2 0 1.4.1 1.9c0 .7 0 1.3.1 2 .1.6.1 1.2.2 1.9s.2 1.2.4 1.9.1 1.4.1 2v-1.3l.1-1.4c0-.7-.1-1.5-.4-2.1-.3-1.1-.5-2-.5-3zM255 448.9l-.7-.6c0-.7-.2-1.4-.5-2-.3-.6-.7-1.2-1-1.8-.1.2-.2.5-.2.7.3.7.6.7.6 0 .1 1.6.6 3.1 1.6 4.4 0-.1.3-.2.2-.7zM255.2 450.5c-.2-.2-.4-.5-.5-.8l-.1.1.6.7z" class="st2"/><path d="M253.4 425.2c.4-.9.9-1.7 1.4-2.6.5-.8 1.1-1.5 1.6-2.3s1.2-1.4 1.9-2 1.3-1.2 2.1-1.8c.1-.3.1-.6.5-.7.3 0 .6-.1.9-.2.4-.3.9-.6 1.4-.8l.4-.3c.2-.2 0-.3-.2-.4h-.7.7c.3 0 .6-.1.9-.2.4-.3.9-.5 1.3-.7-.4.3-.9.5-1.3.7-.2.2-.5.4-.7.6l-.2.2c1-.6 2.1-1.1 3.2-1.5.2-.1.5-.2.7-.3.8-.4 1.5-.9 2.2-.6l.6-.1-.1-.2h.2c.9-.2 1.7-.4 2.6-.5.5-.3 1.1-.6 1.7-.9l.7.4c.3-.3.6-.5 1-.6-.5-.2-1-.5-1.5-.6-.7-.4-1.2 1.2-2.1.4.9.8 1.4-.9 2.1-.4l1.5.6c1-.3 2-.1 2.9.3-1 .3-2 .2-2.9-.3-.4.1-.7.3-1 .6l-.7-.4c-.6.3-1.1.5-1.7.9l2.6-.3c.9-.1 1.8-.1 2.7-.1 5.5 0 10.9 1.7 15.5 4.9 4.4 3.4 7.3 8.4 8 13.9.9 6 0 12.1-2.5 17.7-1.1 2.5-2.5 4.8-4.2 6.9-1.5 1.9-3.4 3.5-5.6 4.6-4.8 2-10.2 1.6-14.6-1-1.8-1-4.4-2.2-6.9-3.7-2.2-1.3-4.2-2.9-5.9-4.7-.3-.2-.6-.3-.8-.4-.2-.1-.5-.2-.7-.3-.4-.2-.8-.3-1.3-.3-.7 0-1.4.2-2 .6-.7.6-1.2 1.4-1.4 2.2-.1.6-.1 1.2 0 1.8.1.5.2 1.1.5 1.6.2.5.5 1 .8 1.4.3.4.7.9 1.1 1.3 1.6 1.8 3.9 3.6 7.2 6.6-2.3-2-1-1.9 1.2-.8 1.1.4 2.5 1.2 4 1.9s2.9 1.6 4.2 2.5c3.6 2.7 9.5 3.3 15.1 1.4 2.9-1 5.6-2.5 7.9-4.5 1.1-1 2.2-2 3.2-3.1.5-.5.9-1.1 1.4-1.6s1-1.1 1.3-1.6c.9-1.1 1.6-2.3 2.2-3.6.3-.7.6-1.3.9-2l.8-2.2c1.6-3.7 2.5-7.7 2.8-11.7.3-4-.1-8.1-1.1-12-1.1-4.2-3-8.1-5.7-11.5-2.9-3.5-6.5-6.3-10.6-8.2-2.1-.9-4.3-1.4-6.5-1.6-2-.1-4-.1-5.9.1h-2.1c-.7 0-1.4-.1-2.1 0-1.3 0-2.5.1-3.7.3-3.1.5-6.1 1.7-8.7 3.5 2.7-1.5 5.5-2.6 8.5-3.3 1.2-.2.8.1 0 .6-.4.2-.9.5-1.4.8s-1 .6-1.3.7c-.6.4-1.9-.4-2.4.1-.7.3-1.3.6-1.9 1l-1.8 1.3c-.5.5-.9-.4-1.1-.2-.8.6-1.4 1.3-2 2.1-.4.7-.9 1.2-1.5 1.7-.9.5-1.6 1-2.4 1.5-.5.3-.9.8-1.2 1.2l-.6 1c.4 0 .8.1 1.1.3-.2.2-.5.4-.7.6-.2.2-.5.4-.7.6.2-.2.4-.4.7-.6.3-.2.5-.4.7-.6-.3-.2-.7-.3-1.1-.3a34.7 34.7 0 00-3.1 8.1h.1c.3-.8.6-1.5 1-2.2.5-.7 1-1.3 1.7-1.9-.5.5-.7.3-.4-.5.2-.1.5-.2.8-.3-.3.6-.5 1.4-.9 2-.3.6-.8 1.2-1.3 1.6l-.1 1c-.3.4-.6.2-.8.2-.1.3-.2.6-.2.9.4-.4.9-.8 1.2-1.3.3 0 .6-.4.6-.4z" class="st2"/><path d="M264.3 413.9l-.6.4c.4-.2.9-.5 1.4-.6l1.4-.6c-.7-.2-1.5.3-2.2.8z" class="st2"/></g><circle cx="277.9" cy="437.2" r="9.2" fill="#ddd9d9"/><g class="st1"><path d="M275.3 427l-.6.1c.2 0 .3.1.4.2.1.2.2-.1.2-.3zM274.1 427.3h-.1l-.1.1.2-.1zM273.1 428c.2 0 .4-.2.5-.3-.2 0-.4.1-.5.3z" class="st2"/><path d="M274 427.9c-.1-.1-.2-.2-.1-.4l-.3.2c.1 0 .3.1.4.2zM274 427.9c.1.1.3.2.3.2-.1-.1-.2-.2-.3-.2zM275.2 431c0 .1-.4-.8-.5-.5-.2.4-.3.9-.5 1.1 0 .2-.8-.5-.8-.2-.1.4-.1.8.1 1.1.1.4.3.6.4.5.3-.6.7-1.1 1.1-1.5.3-.7.7-1.2 1.2-1.7.2-.1.4-.1.5 0-.3-.1-.5-.2-.8-.3-.2-.1-.3.2-.4.5 0 .4-.2.8-.3 1zM280 427.5l-.4.2c-.4-.8-.9-.6-1.4-.3l.2.5c.3 0 .3-.3.1-.5.4.5.9.8 1.5.8.1-.2.1-.5 0-.7zM280.4 428.2h-.4v.1l.4-.1z" class="st2"/><path d="M271.7 430c-1 .9-1.8 1.9-2.5 3.1.1.2.3.3.1.4-.2 0-.3.1-.4.1-.1.2-.2.4-.2.5v.2c.1.1.2.1.4.1.1 0 .3-.1.4-.1-.1 0-.3.1-.4.1-.1 0-.3.1-.4.2 0 .2 0 .4-.1.5-.1-.2 0-.4.1-.5v-.4c-.2.4-.3.8-.5 1.2v.3c.1.3.2.6-.3.8v.2h.1l-.1.1c-.1.3-.1.7-.1 1l.6.6-.4.3c.2 0 .4.1.5.3.2-.2.5-.4.7-.6.5-.2-1-.4-.1-.7-.9.3.6.4.1.7-.2.2-.5.4-.7.6.2.3.1.7-.2 1.1-.5-.3-.2-.8.2-1.1-.1-.2-.3-.2-.5-.3l.4-.3-.6-.6c-.2 3 1.1 6 3.4 7.9 1.9 1.6 4.2 2.5 6.6 2.7 2.9.3 5.7-.3 8.2-1.7a11 11 0 004.9-7c.7-3.1.7-6.3.2-9.4-.4-1.7-1.4-3.3-2.7-4.4-1.3-1.2-2.8-2-4.4-2.6-1.5 0-2.8 1.2-2.9 2.7-.2.8-.3 1.7-.3 2.5 0 .7.1 1.3.2 2 .1.3.2.6.4.9.6.6.9 1.4.8 2.2 0-.8.6-1.1 1-.7s.7 1.4-.2 2.3c-1.5 1.4-1.6 1.7-1.5 2.3s.3 1.6-.5 1.8c-.4.1-.5.4-.8.6-.8.1-1.7.3-2.5.5-.9.2-1.9-.1-2.5-.8-.3-.4-1.4-.3-2-.7-.3-.4 0-1 0-1.3-.1-.6-.4-1.1-.7-1.6.1.5.2 1.1.5 1.6 0 .2-.3.2-.6 0-.3-.1-.6-.3-.9-.6-.2-.2.9-.3.7-.4 0-.3-.4-.6-.5-1-.2-.2.8.1.7 0s-.3-.5-.5-.8-.4-.5-.2-.6c.2-.1.4-.3.7-.4.1-.1.2-.2.2-.3v-.3c-.3-.1-.6-.3-.9-.5.1-.1.4-.1.5-.2-.1.1-.4.1-.5.2.3.2.6.3.9.5-.1-.9.1-1.8.5-2.6l-.1-.1c-.4.4-.9.6-1.5.6.3 0 .5.2.4.4l-.5-.2c.1-.5.3-1.1 1-.8v-.4c.2 0 .4.3.5.4l.2-.2c-.3-.1-.5-.2-.8-.3h-.6z" class="st2"/><path d="M268.8 434.7v-.3c-.1.3-.3.7-.4 1 .5-.1.4-.4.4-.7z" class="st2"/></g><g class="st1"><path d="M703.7 398h-1.8l.9.3c.4.1.6-.1.9-.3zM700.3 397.9h-.3l-.3.1.6-.1zM697.3 398.1c.5.1 1 .1 1.5 0-.5-.1-1-.1-1.5 0zM699.7 398.4c-.2-.1-.3-.3 0-.4l-.9.1c.3 0 .6.1.9.3zM699.7 398.4c.2.1.5.3.6.4-.2-.2-.4-.3-.6-.4zM698.9 401.8c-.3.1-.2-.9-.8-.6-1.3.4-2.6.6-4 .7-.6.2-1.6-.9-2.2-.6-1.4.3-5.1 1.6-2.9 1.5 3.2-.1 5.3-.4 8.2-.6 2.4-.4 4.6-.8 7-1.2.6 0 1.3 0 1.9.1-.8-.1-1.7-.3-2.6-.4-1.1-.4-2.6.8-4.6 1.1zM716.6 398.6l-.9.3c-1.3-.5-2.8-.6-4.2-.1l.6.5c.8 0 .9-.3.2-.5 1.6.5 3.2.7 4.8.6-.1-.4-.1-.7-.5-.8zM718 399.2c-.3 0-.6.1-.9.1v.1l.9-.2zM690.8 399c-4 0-7.9 0-11.6-.1-.3.2-.5.4-.9.3-.3-.2-.6-.3-.9-.4h-1.6l-.6.1c-.3.1-.2.3 0 .4.2.1.4.2.6.4-.1-.1-.4-.2-.6-.4l-.9-.3c-.5.1-1 .1-1.5 0 .5-.1 1-.1 1.5 0l.9-.1.3-.1-3.7-.1-.8.1c-.8.3-1.6.2-2.3-.2h-.7l.1.1-.2-.1-2.8-.1c-.6.2-1.2.4-1.9.5l-.6-.5c-.3.3-.6.4-1 .5.5.3 1 .6 1.4.8.6.5 1.4-1 2.2-.1-.7-.9-1.5.5-2.2.1-.4-.2-.9-.5-1.4-.8-1 .2-2.1 0-3-.5 1-.3 2.1-.1 3 .5.4-.1.7-.2 1-.5l.6.5c.6-.1 1.3-.4 1.9-.5l-5.6-.2c-12.2-.6-23.4-.5-36-1-6.8-.3-13.4-.7-19.9-1.2-12.8-1.1-24.6.2-37.6-2.2-5-.9-14.2-.4-19-.3-6.4 1.6-3.1 5.7-2.8 5.9 4 3.5 7.1 1.6 15.1 3.6-5.5-1.2 4.1-2.3 9.2.1 7.5 3.7 18.2.7 27.5 1.7 2.3.2 4.8.1 7.5.1 14.3 1.2 27.7-.3 42.8 0 4 0 7.5-.9 10.9-1.4 2.5-.2 5.1.3 7.1.3 2.8 0 5.7-.3 8.4-.8-2.9.2-5 .4-8.2.6-2.2.1 1.5-1.2 2.9-1.5.6-.2 1.6.9 2.2.6 1.4-.1 2.7-.3 4-.7.6-.2.5.8.8.6 2-.2 3.4-1.5 4.7-1.2 1 .1 1.8.3 2.6.4.5.1 1.1.1 1.6 0l1.1-.2c-.2-.3-.4-.6-.5-1 .5 0 1.2.3 1.8.3-.5-.1-1.2-.3-1.8-.3.1.4.2.7.5 1 2.6-.6 5.5-1.1 8.2-1.5v-.1c-1.6.1-3.3 0-4.8-.6.7.2.6.5-.2.5l-.6-.5c1.4-.3 2.8-.5 4.2.1l.9-.3c.5.1.4.4.5.7.3 0 .6 0 .9-.1-.7-.3-1.7-.6-2.7-.9z" class="st2"/><path d="M674.3 399l.8-.1-3.1-.1c.7.4 1.6.5 2.3.2z" class="st2"/></g></svg>