<svg xmlns="http://www.w3.org/2000/svg" id="Layer_1" x="0" y="0" version="1.1" viewBox="0 0 842 842" xml:space="preserve"><defs/><style>.st1{opacity:.85}.st2{fill:#161315}.st3{fill:#211f1e}</style><path fill="#fad5e5" d="M0 1h842v842H0z"/><g class="st1"><path d="M392 359l-3 3 1-1 2-2zM386 365l-1 1 1-1zM382 370l2-3-2 3zM386 366h-1l-1 1 2-1zM386 366l1-1-1 1zM387 370h-2l-6 7-4 3c-2 3-7 9-3 6l12-14 11-12 3-3-5 4-6 9zM413 339l-2 2-6 6h1v-1l8-7h-1zM416 337l-2 2 2-2zM372 381l-19 18-1 2-2 1-2 3-1 1c-1 0 0 0 0 0l1-1-1 1-2 1-2 3 2-3 2-2-6 6-1 1-4 4-1 1v-1 1l-5 4-2 1-1 2h-1l-2 2 3-1c1-1 2-3 4-3-2 0-3 2-4 3l-3 1-1 1-2 1-3 1 6-3 1-2h2l1-2 2-1-5 3-3 2-3 2-4 2-4 3-3 1-2 1-4 2-5 2-2 1h-3l-4 2-5 1-3 1h-2l-5 1-5 1h-5l-5 1h-5l-5-1h-6c-14-1-28-6-41-12l-5-3-5-3-2-1-2-1-4-3-8-6-2-2-1-1-1-1-4-3a101 101 0 01-17-25l-3-5-1-2-1-2-8-20-8-20c-7-13-8-4-8-3 0 9 5 15 10 32-2-6-1-4 1 1l2 4 2 5 2 5v1l1 2v2c3 8 9 18 16 26s17 16 26 22l4 2 4 3 4 2 4 2a123 123 0 0048 13h12l3-1h7l3-1a97 97 0 0048-18l7-4 7-5 4-3 2-2 1-2 7-6-7 6-1 2-2 1-4 4h-1l1-1 4-5 2-1 2-2 3-3 3-4 2-1 7-8 4-4 3-2 1-2h-1l3-3-3 3h1l12-14-8 7c2-1 2-1 0 1h-1l7-6 1-2h1l2-2-5 4z" class="st2"/><path d="M345 407l2-1-6 4c2 0 3-1 4-3z" class="st2"/></g><g class="st1"><path d="M453 369l3 3-1-2-2-1zM460 376l1 1-1-1zM466 381l-3-3 3 3zM461 376v1l2 1-2-2zM461 376l-1-1 1 1zM465 375l1 2 8 8 4 4 7 5-17-16-14-12-4-4 5 5c2 3 6 5 10 8zM429 344l2 1 8 8-1-1c-2-2-2-2-1 0l-9-10 1 2zM426 340l2 2-2-2z" class="st2"/><path d="M479 393a2317 2317 0 0125 26l3 3 2 1-1-2 1 2a32 32 0 002 2l-2-2-1-1 7 8 2 1 4 5 1 1v1l6 5 4 3 1 2 2 1-2-3c-1-2-4-2-4-4 0 2 3 2 4 4l2 3 5 6c-2-1-4-3-5-6l-2-1-1-2-4-3 10 11 34 35 9 8 4 5 3 2 2 2c7 5 16 8 25 8 19 1 38-10 46-28 14-32 26-62 42-93l20-48c6-17-2-10-2-9-8 8-9 17-20 36 7-13-2 11-9 23-12 18-20 46-31 69l-8 19-7 10c-9 10-21 14-34 13-8-1-16-4-22-10l-1-1h-1l-1-2-3-2-5-5-11-11c-7-8-15-14-22-20l-13-14-17-16 16 16-6-5-4-5-8-7-2-2-9-8-5-5-3-4-2-1v1l-3-3 3 3v-1l-17-15 8 9h1l1 2-8-8-2-2v-1l-2-2 5 6z" class="st2"/><path d="M511 425l-2-2 6 7-4-5z" class="st2"/></g><g class="st1"><path d="M605 499h0zM607 500zM609 500h-1 1zM608 500h-1 1zM608 500l-1-1 1 1zM609 498v1h2l1 1 2-1h-4l-4-2-1-1 1 1 1 1h2zM600 492l1 1 1 2v-1l-2-2zM600 491l1 1-1-1z" class="st3"/><path d="M613 501l7-1h2v-1 0h1-1v1l2-1v-1l2-1 1-1 1-1v-1l-1 1 1-1 2-1-2 1v1l-1 1 1-1 2-2c2-3 3-7 3-10 0-4-2-8-5-11a25 25 0 00-10-7l-7-1-6 2-5 5-3 5-1 7v6l2 2h1l1-1v-2-1l1-6c-1 2-1 1-1 0l2-5 4-5 3-1 2-1h4l1 1a27 27 0 0110 5 11 11 0 013 10l-1 5-1 2-1 1a33 33 0 010 1c0-1 0-1 0 0l-1 1-1 1-1 1h-1l-2 1-1 1h-1-1l-1 1h1-1 0-4 1l1 1 1-1v1l-3-1h-1 1l1 1z" class="st3"/><path d="M623 499h-1l2-1-1 1z" class="st3"/></g><circle cx="615" cy="485" r="6" fill="#1f2020"/><g class="st1"><path d="M619 489h-1 1zM618 489zM618 490v-1 1zM618 489zM618 489zM618 490l-1 1h-1l2-1 1-1h1-1l-1 1zM620 487v0zM620 487z" class="st3"/><path d="M617 490h-3c-1 0-1 0 0 0h-1 1-1l-1-1h-1 0v-1 1h1l-1-1c-1-2-2-4 0-6l3-2h3l2 2v3l1 1h1l1-1v-2h-1v-2l-2-3h-4-2c-2 0-3 1-4 3l-1 5 2 3 1 1 2 1-2-1h1l1 1c1 0 0 0 0 0h3l1-1h-1c1 0 1 0 0 0h2-1zM613 490z" class="st3"/></g><g class="st1"><path d="M204 413h0zM206 413zM208 414l-1-1 1 1zM206 413h0zM206 413zM207 412h1l2 1h3l-5-1h-2l-2-1h-1 1l3 1zM196 410h1l2 1v-1s-1 0 0 0l-3-1v1zM196 409zM212 414a346 346 0 007 2h1l1 1v-1l1 1h1-2 4l1 1h4-1l-2-1 2 1h1l1 1-1-1h-3l4 1 22 1h13l23-4 12-3c2-1 2-2 2-3l-2-1c-2-1-4 1-9 2l-5 1c-5-1-11 2-17 3h-5c-9 1-17 2-26 1h-7l-4-1h-5l5 1h-2-1l-3-1h-5l-1-1v1h-1 1v-1h-5l2 1h1l-3-1h-1 2zM222 417h-1 1z" class="st3"/></g></svg>