<svg xmlns="http://www.w3.org/2000/svg" id="Layer_1" x="0" y="0" version="1.1" viewBox="0 0 842 842" xml:space="preserve"><defs/><style>.st1{opacity:.85}.st2{fill:#211f1e}.st3{fill:#1f2020}</style><path fill="#f3d8c7" d="M0 0h842v842H0z"/><g class="st1"><path d="M272 498l-1 1 1-1zM271 499h-1 1zM269 500l1-1-1 1zM271 499h-1 1zM271 499zM271 501h-1l-1 1h-1-1l-1 1h-1l5-1 3-3 1-1-1 1-1 1-1 1zM277 493l-1 1-1 1h1l1-2zM278 492l-1 1 1-1z" class="st2"/><path d="M266 501h-9 0v-1h-1 1l1 1-2-1-1-1h-1v-1 1-1l-1-1h-1l-1-1 1 1v0l-1-1v-1 1l1 1h1l-2-2-3-9 4-9c2-3 5-4 9-5 3 0 6 0 9 2l3 3 2 4 1 4v4l1 3h1l1-2 1-2 1-5c0 2-1 1-1 0l-1-6c0-2-2-5-5-7l-9-3-5 1c-5 1-9 3-12 7-2 4-3 9-3 14l3 6 3 4 2 2 3 1-5-3h1l1 1 1 1h1l1 1h4l1 1h2l-1-1 1 1-1-1 1 1 4-1h-3 2l1-1v1l1-1h-2zM257 501l-1-1 1 1z" class="st2"/></g><circle cx="262" cy="487" r="6" class="st3"/><g class="st1"><path d="M258 492h0zM259 492zM260 493l-1-1 1 1zM259 492zM259 492zM260 492h1s1 0 0 0h-1l-1-1 1 1zM257 489l1 1h-1v-1zM257 489z" class="st2"/><path d="M261 493h4v-1h1v-1 0h0v1c3-2 3-5 2-8l-4-3h-4l-4 3-1 2 1 2 1 1 1-2v-1l1-1 2-1 2-1h1l2 2 1 3-1 2-1 1-1 1 1-1c1 0 0 0 0 0l-1 1h-2-1v1h1l-1-1h-1l1 1zM264 493h0z" class="st2"/></g><g class="st1"><path d="M387 434l-1 2-2 2 2-2 1-2zM382 441v1h-1l1-1zM378 448zM382 443h-1l-1 2 2-2zM382 443l1-1-1 1zM383 446l-2 2-2 4-3 4-4 4-4 6c-1 2-2 3 0 1l13-17 5-8 2-3 2-4 3-5-4 6-3 4-3 6zM403 406l-1 2-5 10 2-1c1-2 0-3-1-1l7-11-2 1zM405 403l-1 2 1-2zM368 461a149 149 0 01-23 22l-2 1-3 2-1 1c-1 0 0 0 0 0h2-2l-2 1-3 3 3-3 2-1 1-1-4 3-4 2-2 1-3 2-2 1-2 1h1-1l-3 1-3 2-5 2h-1l-2 1h3l5-2-5 2h-3a21 21 0 01-8 2l4-1 4-1 2-1h1l5-2-7 2-7 2a126 126 0 01-88-6 152 152 0 01-56-45l-4-4-3-5a93 93 0 01-8-20l-2-11v-3l1-2v-4l1-1v-2-6a129 129 0 00-5-31l-6-23c-3-8-5-10-6-9l-2 3 2 15 4 23c-1-7 0-4 2 1s3 15 2 22v3l-1 3v1l-1 1v2l-1 5c0 6 1 13 3 19l8 18a154 154 0 0025 29 140 140 0 0047 29c18 7 37 11 56 10 10 0 20-3 28-5l18-6c6-3 13-6 19-11l-5 3-4 3-10 5c-3 1-2 0 0-1l6-4 6-2 4-2 2-2 2-2h2l2-1 1-2 2-2 4-3 3-2 3-2 3-3 2-2h-2l4-3-4 3h2l3-4 4-4 1-2 2-2 3-4c-3 3-5 6-9 8 2-1 2 0 0 1l-1 1 3-4 4-4 2-2h1l1-2-1 1-2 1-2 3z" class="st2"/><path d="M337 488l1-1-3 2-3 2 5-3z" class="st2"/></g><g class="st1"><path d="M569 499l1 1-1-1zM571 500zM572 501l-1-1 1 1zM571 500v0zM571 500zM572 499l1 1h4s1 0 0 0l-4-1-4-1v-1l1 1 1 1h1zM564 493l1 1v1l1 1v-1l-1-2h-1zM564 492l1 1-1-1z" class="st2"/><path d="M576 502h6l1-1h1c1 0 1 0 0 0h1l1-1-1 1h-1l2-1h1l1-1 1-1 1-1h1-1l-1 1 1-1h1l1-2-1 2h-1l-1 1 3-2a18 18 0 00-10-27c-4-1-8-1-12 1l-9 8-1 7 1 6 1 2h1l1-1v-2-2l1-5c-1 2-1 1-1 0l2-4 5-4 6-2h4c3 1 6 3 8 6 2 2 2 6 2 9l-1 5-2 3-2 1-2 2 4-3-1 1v1h-1l-1 1h-1c0 1 0 0 0 0l-1 1-1 1h-3-1 1-4l2 1v-1l1 1h-2l-1-1h-1l2 1zM585 501l1-1-1 1z" class="st2"/></g><circle cx="580" cy="487" r="6" class="st3"/><g class="st1"><path d="M583 491zM583 492zM582 492zM583 492s-1 0 0 0h-1 1zM583 492zM583 493h-1-1v1l2-1 1-1v-1 1l-1 1zM585 489v1h-1c1 0 0 0 0 0l1-1zM585 489z" class="st2"/><path d="M581 493h-2-1l-1-1 1 1-1-1h-1v-1 0h-1 1v1l-1-1v-6l3-2h3l2 2 1 2v2h1l1-1v-3c0 1 0 1 0 0l-1-1c0-2-1-2-2-3l-3-1-2 1c-2 0-4 1-5 3v5l1 2 1 2h4v1h1v-1 1l2-1h-2 1zM578 493l-1-1 1 1z" class="st2"/></g><g class="st1"><path d="M453 436l1 2 1 1-1-2-1-1zM458 443v1h1l-1-1zM462 449l-2-3 2 3zM459 444h-1 1l1 2-1-2zM459 444l-1-2 1 2zM463 444l1 2 3 3 3 4 3 5 5 4a200 200 0 01-19-22l-2-3-2-4-3-4 3 6 3 4 5 5zM437 407l2 2 4 9v-1l-1-1-4-11-1 2zM436 403l1 2-1-2z" class="st2"/><path d="M473 461a195 195 0 0025 23l3 3 2 1v-1l-1-1 1 1 2 2 3 2-3-2-2-2h-1l4 3 4 2 2 1a77 77 0 015 3l1 1h1l3 2 3 2 5 1 1 1h3l-3-2c-2-1-4 0-5-2 1 2 3 1 5 2l3 2 3 2 4 1-4-1-3-2h-3l-1-1-5-1 7 2 6 3a144 144 0 0090-5c17-6 31-15 45-26a109 109 0 0034-50l2-13v-6l-1-4v-1-1l1-5 1-6 5-23 6-23c1-8 0-10-1-11s-3 2-3 2c-3 5-5 9-6 15l-7 22c2-7 2-4 1 2a268 268 0 01-6 25v12a79 79 0 01-19 45 144 144 0 01-135 47 281 281 0 01-35-15l4 3 5 2a155 155 0 009 5l-7-2-4-3-5-2-2-2-2-1-2-1-1-1-2-1-2-2-5-2-2-3-2-2-3-3-3-1 1 1-3-3 3 3-1-1-3-3-4-4-2-2-2-1-4-4a118 118 0 019 11l-4-4-3-4-2-1v-2l-2-2 1 2 2 2 1 2z" class="st2"/><path d="M505 489l-2-1 3 2 4 2-5-3z" class="st2"/></g></svg>