<svg xmlns="http://www.w3.org/2000/svg" id="Layer_1" x="0" y="0" version="1.1" viewBox="0 0 841.9 841.9" xml:space="preserve"><defs/><style>.st1{opacity:.85}.st2{fill:#090a0a}.st3{fill:#131413}.st4{fill:#211f1e}</style><path fill="#fce2e4" d="M0 0h841.9v841.9H0z"/><g class="st1"><path d="M153.3 401l2.2.3c-.4-.1-.7-.2-1.1-.4-.4 0-.8 0-1.1.1zM157.5 401.6h.7-.7zM161.3 401.8c-.6-.1-1.3-.1-1.9-.1.6 0 1.2.1 1.9.1zM158.3 401.3c.2.1.3.2-.1.3h1.1l-1-.3zM158.3 401.3c-.2-.1-.6-.3-.7-.3.2.1.4.2.7.3zM159.5 398.9c.4 0 .2.7 1 .6 1.8 0 3.3-.2 5-.1.8-.1 1.9.8 2.7.7 1.8 0 6.4-.7 3.7-.9-4-.2-6.7-.1-10.3-.4h-4.4c-1.5 0-2.9 0-4.4-.1-.8-.1-1.6-.2-2.4-.4 1 .3 2.1.5 3.2.7 1.5.5 3.5-.2 5.9-.1zM137.4 398h1.2c1.5.9 3.4 1 5.2 1.1l-.7-.5c-1-.1-1.2 0-.3.4a33.2 33.2 0 00-5.8-1.7c-.1.2-.2.5.4.7zM135.7 397.1l1.2.2v-.1l-1.2-.1zM169.4 401.7l14.5.9c.3-.2.7-.2 1.1-.2.3.1.7.2 1.1.3l2 .1h.7c.4-.1.3-.2.1-.3-.2-.1-.5-.2-.7-.3.1.1.5.2.7.3.4.1.7.2 1.1.2h1.9c-.6.1-1.3.1-1.9 0h-1.1l-.3.1 4.6.3h1c1-.1 2-.1 2.9.3h.8l-.2-.1.3.1 3.5.2c.8-.1 1.6-.3 2.3-.3l.8.4c.4-.2.9-.3 1.3-.3-.6-.2-1.2-.5-1.7-.6-.8-.4-1.8.7-2.7 0 .9.7 1.9-.4 2.7 0 .5.2 1.1.4 1.7.6 1.2-.1 2.5 0 3.7.4-1.2.2-2.5.1-3.7-.4-.5 0-.9.1-1.3.3l-.8-.4-2.3.3c2.3.1 4.6.2 7 .4 15.2.8 29.3.8 45.1 1 8.6.2 16.8.4 24.9.7 16.1.6 30.8-.7 47.1.7 6.3.5 17.8-.3 23.9-.6 8-1.5 3.7-4.4 3.3-4.6-5-2.4-8.9-.8-19-2 6.9.7-5 1.9-11.5.2-9.5-2.5-22.8 0-34.4-.5-2.9-.1-6 0-9.4 0-17.9-.7-34.6.6-53.4.2-5-.1-9.4.6-13.6.8-3.1.1-6.4-.4-8.8-.4-3.9-.1-7.3 0-10.5.2l10.3-.1c2.7 0-1.9.9-3.7 1-.8.1-1.9-.7-2.7-.6-1.7 0-3.3.1-5 .3-.8.1-.6-.6-1-.5-2.4.1-4.3.9-5.9.6l-3.2-.5c-.6-.1-1.3-.1-2-.1l-1.3.1c.3.2.5.5.6.8-.6-.1-1.5-.3-2.2-.4.6.1 1.5.3 2.2.4-.1-.3-.3-.6-.6-.8-3.2.2-6.9.4-10.4.4v.1c2 .1 4 .3 6 .9-.9-.2-.8-.4.3-.4l.8.4c-1.8.2-3.5.1-5.2-.5l-1.2.2c-.6-.1-.5-.4-.6-.6h-1.2a7 7 0 003.2 1.3z" class="st2"/><path d="M190 402.9h-1l3.9.2c-.9-.3-1.9-.4-2.9-.2z" class="st2"/></g><g class="st1"><path d="M437.5 463l4.7 1.2c-.8-.2-1.5-.5-2.3-.8-.8-.2-1.6-.3-2.4-.4zM446.5 465.3l.8.2.7.1-1.5-.3zM454.7 467.1c-1.4-.4-2.8-.7-4.2-1 1.3.4 2.6.7 4.2 1zM448.3 465.4c.5.2.7.3-.1.2l2.5.5c-1-.2-1.8-.4-2.4-.7zM448.3 465.4l-1.5-.5c.4.2.9.3 1.5.5zM450.7 464.3c.8.1.5.6 2.2.9 3.9.8 7.2 1.4 10.8 2.3 1.6.3 4.1 1.4 5.7 1.7 3.9.8 13.8 2.6 8 1.2l-22.1-5.2-19-4.1c-1.8-.4-3.5-.9-5.2-1.3l7 1.9c3.2 1 7.4 1.4 12.6 2.6zM403.1 454.2l2.5.4c3.7 1.2 7.5 2.1 11.3 2.9l-1.6-.6c-2.2-.5-2.5-.4-.6.1-4.4-1.4-8.6-2.5-12.9-3.5.2.2.1.3 1.3.7zM399.2 452.9l2.5.6-.1-.1-2.4-.5z" class="st3"/><path d="M472.1 471l31 7.7c.8.1 1.6.2 2.4.4.8.3 1.5.5 2.3.7l4.4 1.1 1.5.3c.8.1.6 0 .1-.2s-1-.4-1.5-.5l1.5.5c.7.2 1.4.5 2.3.7 1.3.3 2.7.6 4.2 1-1.6-.3-3-.7-4.2-1l-2.5-.5-.7-.1 9.9 2.5 2.1.5c2.1.4 4.2.9 6.2 1.6l1.8.5-.3-.1.7.2 7.5 1.9c1.7.3 3.3.6 5 1l1.6.6c1 .1 1.9.2 2.8.5-1.3-.5-2.5-.9-3.6-1.3-1.6-.6-3.9-.5-5.8-1.4 1.9.9 4.1.8 5.8 1.4 1.1.4 2.3.8 3.6 1.3 2.7.6 5.3 1.3 7.9 2.2-2.7-.5-5.3-1.2-7.9-2.2-.9-.2-1.9-.4-2.8-.5l-1.6-.6c-1.7-.4-3.4-.6-5-1l14.9 3.8c16.3 4.2 31.9 8.1 47.8 12 7.9 2 15.8 4 23.9 6l12.2 3.1 6.2 1.6c1.1.2 2.1.5 3.2.7s2.2.4 3.3.5c4.8.5 9.6.3 14.3-.6 4.6-.9 9.1-2.5 13.3-4.8 8.2-4.4 15.1-11.1 19.7-19.2 4.5-7.9 6.5-17 6-26.1-.1-2.2-.4-4.4-.8-6.6-.4-2.1-.9-4.2-1.3-6.3-.9-4.2-1.8-8.3-2.6-12.5-3.5-16.6-6.9-33.3-10.1-51-2.5-13.5-8-38.5-10.9-51.4-4.5-17.2-4.6-7.8-4.5-6.9.6 11 3.3 19.2 7 41.2-2.6-15 3.5 10.7 5.3 25 1.3 10.3 3.8 22.6 6.6 35.5 1.4 6.4 2.9 13 4.3 19.5.4 1.6.7 3.3 1.1 4.9.2.8.3 1.6.5 2.4l.4 2.3c.5 3 .6 6.1.4 9.2-.4 6.5-2.2 12.9-5.3 18.7a45.54 45.54 0 01-19.7 18.5c-4.1 2-8.4 3.3-12.9 4-4.5.6-9 .6-13.5-.1-1.1-.2-2.2-.4-3.3-.7l-3.5-.9-7.1-1.7-14.3-3.5c-9.6-2.3-19.5-4.7-29.6-7.2-10.7-2.6-20.2-4.5-29.3-6.5-6.6-1.5-13.6-3.5-19-4.8-8.4-2.1-15.7-3.7-22.7-5.2l22.2 5.1c5.8 1.4-4.2-.4-8-1.2-1.7-.3-4.1-1.4-5.8-1.7-3.5-.9-6.9-1.5-10.7-2.3-1.7-.3-1.4-.7-2.2-.9-5.2-1.2-9.4-1.6-12.7-2.5l-7-1.9c-1.4-.4-2.8-.7-4.3-1.1l-2.9-.6c.4.2.8.4 1.2.8l-4.6-1.3 4.6 1.3c-.3-.4-.7-.6-1.2-.8-6.9-1.4-14.9-3.1-22.3-4.7l.1.1c4.3 1 8.5 2.1 12.9 3.5-1.9-.6-1.6-.6.6-.1l1.6.6c-3.8-.7-7.6-1.7-11.3-2.9l-2.5-.5c-1.2-.4-1.1-.5-1.3-.7l-2.5-.6 7.4 2.3z" class="st3"/><path d="M516.3 481.9l-2.1-.5 8.3 2.1c-2-.7-4.1-1.2-6.2-1.6z" class="st3"/></g><g class="st1"><path d="M695.2 474.6l-.6-.4c.1.1.2.2.2.4h.4zM694 473.8l-.1-.1h-.1l.2.1zM692.7 473.4c.2.1.4.2.6.2-.2-.1-.4-.2-.6-.2zM693.6 473.9c0-.1 0-.2.1-.2l-.4-.1.3.3zM693.6 473.9c0 .1.1.2.1.3 0-.1 0-.2-.1-.3zM692.7 475.3c-.1 0 .1-.4-.2-.4-.5-.1-1 0-1.5-.1-.2.1-.5-.5-.7-.5-.6 0-1.9.6-1.1.6 1 0 1.9 0 2.9.2.9.1 1.7.3 2.5.6.2.1.4.3.5.5-.2-.3-.4-.5-.6-.8-.2-.2-.5-.3-.8-.2-.4.2-.7.2-1 .1zM698.4 478.9l-.3-.3c0-.6-.3-1.2-.8-1.5v.4c.2.2.3.2.3-.1.1.7.4 1.3.7 1.9 0-.1.1-.2.1-.4zM698.4 479.6l-.2-.3.2.3z" class="st4"/><path d="M690 473.3c-1.6-.1-3.1-.1-4.7.1-.1.1-.2.2-.3.2-.1-.1-.2-.1-.4-.1l-.7.1c-.1 0-.2 0-.2.1-.1.1 0 .1 0 .2.1 0 .2.1.3.1 0 0-.2-.1-.3-.1-.1 0-.3-.1-.4 0-.2.1-.4.1-.6.2.2-.1.4-.2.6-.2l.3-.1.1-.1-1.5.3-.3.1c-.3.1-.7.3-.9.2l-.3.1h.1-.1l-1.1.3c-.2.2-.4.4-.6.5l-.3-.1c-.1.2-.2.3-.3.4.2.1.5.1.7.2s.4-.6.8-.3c-.4-.3-.5.5-.8.3s-.4-.1-.7-.2c-.4.2-.8.3-1.2.2.3-.3.8-.4 1.2-.2.1-.1.3-.2.3-.4l.3.1c.2-.1.4-.4.6-.5-.7.2-1.4.4-2.2.7-2.3.8-4.5 1.7-6.7 2.8-2.3 1.1-4.4 2.4-6.4 4-2.2 1.8-4.1 3.9-5.7 6.2-1.5 2.2-2.6 4.7-3.2 7.4-.7 2.6-1.1 5.2-1.7 8.1-.2 1.4-.1 2.9.2 4.3.1.8.3 1.5.6 2.3l.6 1.8c.9 1.2 1.7 1.3 2.2 1 .4-.2.8-.5 1-.9.4-.8.5-1.7.3-2.6-.1-.4-.2-.9-.2-1.5 0-.7 0-1.3.1-2-.1 1.1-.5.7-.7-.1-.2-1.1 0-2.3.5-3.3.2-.3.4-.7.5-1.1.2-.4.3-.8.4-1.1.2-.8.3-1.6.4-2.5s.3-1.7.5-2.6c.2-.8.6-1.7 1-2.4.5-.7.7-1.6 1.3-2.4 1.4-2 3-3.9 4.8-5.7l1.4-1.2c.5-.4 1-.7 1.5-1.1 1.2-.7 2.5-1.4 3.8-2 1.2-.7 2.4-1.5 3.6-2.4.8-.4 1.7-.6 2.6-.9 1-.4 2-.8 3-1.3-1 .4-1.8.7-2.9 1.2-.8.3.3-.8.8-1.1.2-.2.7.2.9 0 .5-.2.9-.4 1.4-.7.2-.2.3.3.4.2.7-.3 1.1-1 1.6-.9.3 0 .7 0 1 .1h.6l.4-.1c-.1-.2-.2-.3-.2-.5.2 0 .5.1.7.1-.2 0-.5-.1-.7-.1 0 .2.1.3.2.5 1-.4 2.1-.6 3.2-.6-.6 0-1.3-.2-1.9-.5.3.1.2.2-.1.3l-.2-.2c.5-.2 1.2-.2 1.7.2l.4-.1c.2.1.1.2.2.4h.4c-.2-.7-.6-.9-1-1.1z" class="st4"/><path d="M683.3 473.9l.3-.1c-.4.1-.8.1-1.2.2.3.1.6 0 .9-.1z" class="st4"/></g><path fill="#1f2020" d="M680.5 499.2c4.2-.9 6.8-5 5.9-9.2-.9-4.2-4-4-8.1-3.1s-7.9 2.2-7 6.4c.9 4.2 5 6.8 9.2 5.9z"/><g class="st1"><path d="M676.9 498.8c-.1 0-.3-.1-.4-.1.1 0 .1.1.2.1.1.1.1 0 .2 0zM676.1 498.5h-.1.1zM675.4 498.2c.1.1.2.1.3.1 0 0-.1 0-.3-.1zM676 498.5l-.2-.1c.1 0 .1.1.2.1zM676 498.5l.1.1s-.1 0-.1-.1zM675.4 499.2c-.1 0 0-.2-.1-.2a3 3 0 01-1-.4c-.2 0-.2-.4-.4-.5-.3-.2-1.3-.7-.9-.2.6.5 1.3.9 2 1.2.6.2 1.3.3 1.9.4.2 0 .3.1.5.1l-.7-.3c-.3-.1-.8.1-1.3-.1zM680.1 499.1l-.2.1c-.4-.1-.7-.1-1.1 0l.2.1c.2 0 .2-.1 0-.1.4.1.8.1 1.2 0 0 0 0-.1-.1-.1zM680.5 499.2l-.2.1.2-.1z" class="st4"/><path d="M674 497.5c-.8-.6-1.4-1.4-1.8-2.3-.1 0-.1-.1-.2-.2v-.2c-.1-.1-.1-.3-.1-.4l-.1-.1c0-.1-.1 0-.1 0v-.2c-.1-.1-.1-.2-.1-.4.1.1.1.2.1.4l.1.2v.1c-.1-.3-.2-.6-.2-.9l-.1-.2c-.1-.2-.1-.4 0-.6v-.2-.1-.7c0-.2-.1-.3-.1-.5 0 0 .1-.1.2-.1v-.3l-.3.3c-.1.1.2.4-.1.6.2-.2-.1-.4.1-.6l.3-.3c0-.3.2-.5.4-.6 0 .3-.2.5-.4.6v.3c-.1 0-.1.1-.2.1 0 .2 0 .3.1.5 0-.4.2-.9.4-1.3.8-1.2 2.1-2 3.5-2.4 1.5-.5 3-.8 4.5-1 1.7-.2 3.5-.2 4.4.6.9 1 1.4 2.3 1.3 3.6.1 1.4-.5 2.8-1.5 3.8-.5.5-.9.9-1.5 1.4-.5.4-1.1.8-1.7 1-.6.4-.7.8-.6 1.1.1.2.2.4.4.5.5.3 1.2.3 1.7 0 .8-.3 1.6-.7 2.3-1.2-.7.4-.5.1-.1-.4s1.2-1.2 1.8-1.7c1-.9 1.5-2.2 1.5-3.5 0-.7 0-1.5-.2-2.2-.1-.7-.4-1.4-.6-2.1-.3-.8-.9-1.5-1.7-2-1-.7-2.2-1.1-3.4-1.1-1 0-2 .1-3 .3-2 .4-3.9 1-5.7 1.7-1 .5-1.9 1.3-2.4 2.4-.5.6-.8 1.4-.9 2.2-.1.9.1 1.7.4 2.5-.3-.8-.4-1.6-.4-2.5.1-.7.2.5.3.9 0 .2-.2.5-.1.6.1.4.2.7.4 1.1.1.1-.1.2-.1.3.2.5.7.8.8 1.1s.2.5.3.7c.1.1.1.3.2.4l.2.2c0-.1.1-.2.1-.3.1.1.2.3.2.4-.1-.1-.2-.3-.2-.4-.1.1-.1.2-.1.3.6.5 1.2.9 1.8 1.3-.4-.2-.7-.5-.9-.9.1.2 0 .2-.1.1v-.2c.3.2.6.5.8.8l.2.1v.2l.2.1c-.1-.1-.1-.3-.2-.4l.2-.3z" class="st4"/><path d="M671.6 494.1l.1.2c-.1-.3-.2-.5-.2-.8 0 .2 0 .4.1.6z" class="st4"/></g></svg>