<svg xmlns="http://www.w3.org/2000/svg" id="Layer_1" x="0" y="0" version="1.1" viewBox="0 0 841.9 841.9" xml:space="preserve"><defs/><style>.st2{opacity:.85}.st3{fill:#211f1e}</style><path fill="#e6b8a2" d="M0 0h841.9v841.9H0z"/><path fill="#262524" d="M134.8 491.7c.8 3.4-.6 6.7-3.2 7.4s-6 0-6.9-3.4-1.1-7.8 1.5-8.5c2.6-.6 7.8 1.1 8.6 4.5z"/><g class="st2"><path d="M133.4 488.9l-.3-.3c0 .1.1.1.1.2s.1.1.2.1zM132.8 488.4zM132.2 488.1c.1.1.2.1.3.2-.1-.1-.2-.2-.3-.2zM132.6 488.4l-.1-.2c0 .1.1.2.1.2zM132.6 488.4v0zM132 489.1c-.1 0 .1-.2-.1-.2-.3-.1-.5-.1-.8-.2-.1 0-.2-.3-.3-.3-.3-.1-1.1 0-.7.1.5.1 1 .3 1.5.5.5.1.9.3 1.3.6l.3.3c-.1-.2-.2-.3-.3-.4-.1-.3-.5-.3-.9-.4zM134.9 491.3l-.1-.2c0-.3-.1-.6-.4-.8v.2c.1.1.2.1.1 0l.3 1s.1-.1.1-.2zM134.9 491.7c0-.1-.1-.1-.1-.2 0 .1 0 .1.1.2z" class="st3"/><path d="M130.8 487.7c-.8-.3-1.6-.5-2.4-.6-.1 0-.1.1-.2 0-.1 0-.1-.1-.2-.1h-.4c-.1 0 0 .1 0 .1s.1 0 .1.1l-.1-.1c-.1 0-.1-.1-.2-.1h-.3.6-1c-.2.1-.4.1-.5 0h-.2l-.3.1-.3.2c-.1.1-.2.2-.2.4h-.2c0 .1 0 .2-.1.3.1 0 .2-.1.3-.1.2 0 .1-.4.3-.3-.3-.1-.2.3-.3.3-.1 0-.2 0-.3.1-.1.2-.3.4-.4.5 0-.2.2-.4.4-.5 0-.1 0-.2.1-.3h.2c.1-.1.1-.3.2-.4-.4.2-.7.5-.9.9-.6 1.2-.9 2.6-.7 3.9.1 1.3.2 2.7.6 4 .2.8.6 1.5 1.1 2.2a7 7 0 001.9 1.5c1.4.6 3 .7 4.5.3a6.38 6.38 0 004.8-5.4c.1-.8.1-1.6-.1-2.4-.7-1.5-1.5-.4-1.6-.4-.3.4-.4.8-.4 1.3 0 .6-.2 1.3-.5 1.8.2-.5.4-.3.3.2-.1.6-.4 1.1-.9 1.4-.7.3-1.2.8-1.8 1-.2.1-.3.1-.5.2s-.4.1-.6.2c-.4.1-.8.1-1.3 0l-1.2-.3c-.9-.4-1.6-1.3-1.9-2.3-.4-1.4-.6-2.8-.7-4.2v-1.9c.1-.3.3-.5.6-.7.1 0 .1-.1.2-.1l.2-.1c.2-.1.4-.2.7-.2-.2 0-.5.1-.7.2-.1.1-.3.2-.4.3-.2.2-.1-.4.2-.5s.3.1.4.1.4-.2.7-.3c.1-.1.1.2.2.2.4 0 .7-.3.9-.2.2.1.3.1.5.2l.3.1h.2v-.3c.1 0 .2.1.3.2-.1 0-.2-.1-.3-.2v.3c.6 0 1.2.1 1.7.2-.3-.1-.6-.3-.9-.5.1.1.1.2-.1.1l-.1-.2c.3 0 .6.1.8.3h.1c.1.1 0 .1 0 .2l.2.1c-.1-.4-.2-.6-.4-.8z" class="st3"/><path d="M127.4 487h.2-.7c.1.1.3 0 .5 0z" class="st3"/></g><g class="st2"><path d="M170.3 372.4c-1.6 1.1-3.1 2.4-4.7 3.6.8-.6 1.6-1.1 2.5-1.6.9-.6 1.6-1.2 2.2-2zM161.4 379.4l-.8.7-.6.6 1.4-1.3zM153.9 386.4c1.4-1.2 2.6-2.4 3.9-3.5-1.4 1.1-2.7 2.3-3.9 3.5zM160.1 381.1c-.6.3-.9.4-.2-.4-.8.7-1.5 1.4-2.2 2.1.8-.5 1.6-1.1 2.4-1.7z" class="st3"/><path d="M160.1 381.1c.6-.3 1.4-.8 1.7-1-.5.3-1 .7-1.7 1zM160.4 385.4c-.7.8-1.1-.1-2.5 1.4-1.7 1.7-3.1 3.3-4.6 4.9s-2.9 3.2-4.4 4.8c-.8.9-1.7 1.7-2.7 2.4-1 .7-1.9 1.5-2.6 2.5-3.1 3.7-9.2 14-5 8.4 1.6-2.1 3.1-4 4.5-5.8s2.9-3.4 4.3-5 2.8-3.2 4.3-4.7l2.3-2.4 2.5-2.4c5.4-5.6 11.2-10.9 17.2-15.9l1.3-1 .6-.5c.1-.1.3-.2.4-.3l.3-.3 2.5-2-1.7 1.3c-.6.4-1.1.9-1.8 1.3l-3.7 2.5c-1.9 1.4-3.6 2.9-5.2 4.6l-2.8 3c-.9 1-2 2.1-3.2 3.2zM202.5 343.8c-.6.8-1.8 2.5-1.8 2.5-3.6 3-7 6.2-10.2 9.7l1.9-1.1c1.9-1.9 2-2.3.1-.8 4.3-3.3 8.2-7 11.8-11.1-.5 0-.7-.2-1.8.8z" class="st3"/><path d="M206.2 340.5l-2 2.5h.1c.7-.9 1.3-1.7 1.9-2.5zM139.5 402.8c-8.7 10.5-15.7 21.4-20.2 33.1-.1 1-.3 2-.7 2.9-.5.9-.9 1.8-1.2 2.7-.6 1.8-1 3.5-1.4 5.3l-.3 1.9c-.1 1 .1.8.4.2s.5-1.3.7-1.8c-.1.3-.4 1.2-.7 1.8-.1.4-.3.9-.4 1.3s-.2 1-.3 1.5c-.2 1.7-.3 3.4-.5 5.2 0-1 .1-1.9.1-2.8s.2-1.6.4-2.4l.2-1.5c.1-.5.2-1 .2-1.5 0-.3.1-.6.1-.9-.9 4.1-1.4 8.3-1.4 12.5 0 1 .1 1.9.1 2.6s.1 1.5.2 2.2.2 1.5.2 2.1c.2 1.2.2 2.4.2 3.5.1.7.3 1.5.4 2.2v-.5c0 .3.1.6.1.9.7 3.1 1.6 6.2 2.8 9.1 1 1.8 2.1 3.6 3.3 5.4l.2.8c.1.4.3.9.4 1.3.4.4.7.7 1.1 1.2.4.5.8 1 1.3 1.5-.8-1.5-1.3-3-1.9-4.4-.4-1.1-1-2.1-1.8-2.9.8.9 1.4 1.9 1.8 2.9.6 1.3 1.1 2.8 1.9 4.4.9 1.2 2 2.5 3 3.9.5.7 1.1 1.4 1.6 2.1l1.5 2a22.8 22.8 0 01-3.7-3.9c-.9-1.3-1.7-2.6-2.3-4-.4-.6-.9-1.1-1.3-1.5-.3-.4-.7-.8-1.1-1.2-.1-.4-.3-.9-.4-1.3l-.2-.8c-1.2-1.8-2.3-3.6-3.3-5.4 2.4 5.9 5.8 11.3 10 16.1 6.8 7.7 15.2 13.8 24.6 18 9.2 4.2 18.9 7 28.9 8.4 10 1.5 20.2 2 30.3 1.5 10.4-.5 20.8-1.8 31.1-3.9a133 133 0 0016.7-4.7c5.4-1.9 10.6-4 15.8-6.5 10-4.9 19.5-10.8 28.3-17.7 8.5-6.6 16.4-14 23.6-22.1 3.6-3.9 6.9-8 10.2-12.1 3.3-4.1 6.4-8.4 9.4-12.7 12-17.2 22.3-35.5 32.5-55.1 4.8-9.7 9.1-19.8 12.8-30 4.1-11.3 7.6-22.7 9.8-30.6 2.2-10.8 1.3-13.8.1-13.8s-3.1 2.6-3.3 3.1c-3.4 6-5.4 11.5-7.8 18.7-3.2 9.6-6.9 19-11.3 28.2 3.8-8.3 3.2-5 .4 2.4-1.4 3.7-3.3 8.3-5.6 12.9-2.1 4.4-4.5 8.7-7.2 12.9-7 10.5-14.1 23.7-22.5 37s-17.9 26.8-28.6 37.5c-5.7 5.9-11.7 11.5-18 16.7-18.4 14.2-38.6 24.5-60.8 28.8-11.3 2.3-22.8 3.6-34.3 3.7-17.9.3-35.6-3.4-51.9-10.7-5-2.3-9.7-5.1-14-8.5-3-2.5-5.6-5.4-7.8-8.5-2-2.8-3.8-5.9-5.2-9a57.1 57.1 0 01-5.6-25.4c-.2 4.2.2 8.4 1 12.5.8 4.3 2.2 8.5 4.1 12.4.7 1.5.9 2 .7 1.9-.6-.6-1-1.3-1.4-2-1.6-2.5-2.8-5.2-3.8-8-.7-1.8-.2-5-.7-6.9-.6-4.2-.8-8.4-.8-12.6 0-2 1-1.6 1-2.6 0-.4.1-.8.1-1.1s.1-.8.1-1.1c.1-.7.2-1.4.2-2.1.2-1.4.3-2.7.5-4s.4-2.4.7-3.5c.3-1 .6-2 1-3 .6-1.4 1.2-2.7 1.8-4l1.9-3.7c.8-1.5 1.6-3 2.5-4.6.5-1 .9-2.1 1.5-3.1-.5.4-1 .7-1.7.9.9-1.5 2.3-3.4 3.3-4.8-.9 1.4-2.4 3.3-3.3 4.8.6-.1 1.2-.4 1.7-.9 2-4 4.3-7.8 6.8-11.5 2.6-3.9 5.4-7.6 8.4-11.2h-.1c-3.5 4-6.9 8-10.6 12.2 1.6-1.8 1.6-1.4.1.8l-1.6 1.4c2.4-4.1 5.3-7.8 8.7-11l.7-.9 1.1-1.6c1.1-1 1.3-.8 1.7-.9l2.1-2.4c-.5.3-1.1.9-1.9 1.5s-1.6 1.4-2.3 2.1c-1.9 1.4-3.2 2.7-3.2 2.7z" class="st3"/><path d="M115.3 451.9c.1-.7.1-1.6.3-2.6-.7 3.4-1 6.9-1.2 10.5.6-1.9.6-4.9.9-7.9z" class="st3"/></g><g class="st2"><path d="M150 507.4l.2-.6c-.1.1-.2.2-.3.2-.1.1 0 .2.1.4zM150.4 506.2v-.2.2zM150.6 505.1c-.1.2-.1.4-.1.6.1-.2.1-.4.1-.6zM150.2 505.9c.1 0 .2 0 .3.1v-.4l-.3.3zM150.2 505.9c-.1 0-.2.1-.3.1.1 0 .2-.1.3-.1zM147.8 504.9c-.1-.1.6.1.6-.2 0-.5-.3-1-.2-1.5-.1-.2.7-.4.6-.6-.1-.5-.8-2-.9-1.2-.1 1.1-.1 1.9-.2 2.9 0 .9.1 1.7.1 2.6 0 .2-.1.4-.3.6.2-.2.4-.5.6-.8s-.3-1.1-.3-1.8zM148 511.8c0-.1-.1-.4-.1-.4.7-.3.7-.8.7-1.4l-.4.1c-.1.3.1.4.4.2-.5.3-.9.9-1 1.5 0 0 .2.1.4 0zM147.3 512.1c0-.1 0-.2.1-.3h-.1v.3z" class="st3"/><path d="M150.5 502.6c.1-.4.2-.7.2-1.1l.1-1.1.3-2.1c-.1-.1-.3-.2-.2-.3l.3-.3.1-.6v-.2c-.1-.1-.2-.1-.3 0-.1.1-.2.1-.3.2.1 0 .2-.1.3-.2.1-.1.2-.2.2-.3v-.6c.1.2.1.4 0 .6l.1.3.1.1.1-1.4c0-.1-.1-.2-.1-.3-.1-.3-.2-.7.1-.9v-.2h-.1l.1-.1V493c-.1-.2-.4-.4-.5-.6l.3-.3c-.2-.1-.3-.2-.4-.3-.2.2-.4.4-.5.6-.3.3.8.4.2.8.7-.4-.5-.5-.2-.8.1-.2.3-.4.5-.6-.2-.4-.1-.8.1-1.2.4.4.2.8-.1 1.2.1.2.3.3.4.3l-.3.3c.1.2.4.4.5.6 0-.7-.1-1.4-.2-2.1-.3-2.3-1-4.5-2.1-6.5-1.2-2.1-2.7-4-4.4-5.6a49.2 49.2 0 00-6.1-5c-2.1-1.3-4.3-2.4-6.7-3-2.4-.7-4.8-1.6-7-2.7-1.8-.9-5.5-1-7.4-.9a2.5 2.5 0 00-1.6 2.6c0 .6.2 1.3.4 1.9.4.9 1.1 1.6 2.1 1.8 1.1.2 2.2.6 3.1 1.2-1.9-1.1 1.7-1.6 3.2.5 1 1.3 2.5 2.2 4.1 2.3 1.6.3 3.3.4 4.6 1.3.3.2.7.4 1.1.5.4.2.8.3 1.2.5 1.9 1.4 3.7 2.5 5.3 3.8 1.7 1.2 3.1 2.8 4 4.8.3.5.6 1 1 1.4.4.4.8.9 1.1 1.3.2.7.2 1.5.2 2.2.1.9.4 1.8.7 2.7-.1-1-.4-1.6-.6-2.6-.1-.3.2-.2.5 0s.5.5.7.9c.2.2-.6.6-.4.8 0 .4.4.8.6 1.3.1.2-.6.2-.5.3.1.6 1 1.2.8 1.6-.1.3-.3.6-.4.9-.1.2-.1.4-.1.5 0 .1.1.3.1.4.3-.1.5-.1.8-.1-.1.2-.3.4-.3.6l.3-.6c-.3 0-.5 0-.8.1.2.5.3 1 .4 1.5.1.5.1 1 .2 1.6h.1c0-.6.3-1.2.8-1.6-.2.2-.4.2-.4-.1l.4-.2c.3.5.1 1.2-.4 1.5l.2.4c-.1.1-.4.1-.6.1v.4c.3-.5.7-.8 1-1.1z" class="st3"/><path d="M151.2 496.5v.3l.1-1.2c-.3.3-.2.6-.1.9z" class="st3"/></g><g class="st2"><path d="M685.7 375.5l4.3 3.4c-.7-.6-1.4-1.3-2-2a7.9 7.9 0 00-2.3-1.4zM693.8 382.1c.2.2.5.4.7.6l.7.5-1.4-1.1zM701.1 388.1c-1.1-1.1-2.3-2.2-3.6-3.2 1 1 2.2 2 3.6 3.2zM695.6 383c.3.5.5.8-.3.2l2.2 1.8c-.7-.6-1.3-1.3-1.9-2zM695.6 383c-.3-.5-1-1.1-1.1-1.4.3.4.7.9 1.1 1.4zM699.6 382c.8.6 0 1.1 1.6 2.2 1.8 1.4 3.4 2.7 5 4s3.1 2.7 4.6 4.2c1.5 1.3 2.8 4.2 4.1 5.6.8.8 1.9 2 3 3.2l1.7 1.8c.5.6 1 1.2 1.5 1.7.5.7 1.1 1.3 1.8 1.9.2.1 0-.4-1-1.9a80.4 80.4 0 00-8.7-10.6l-2.2-2.2-2.2-2.1c-1.5-1.5-3.1-2.9-4.8-4.4-1.4-1.2-2.9-2.3-4.3-3.5l-2.2-1.7-2.2-1.6c-1.5-1.1-3-2.2-4.5-3.2l-4.5-3.2c-1.6-1.3-3-2.7-4.5-4l2.8 2.8 1.5 1.4c.2.2.5.4.7.7l.8.7c2.8 2.4 7.2 4.3 12 8.2zM656.8 347.2l1.3 1.2.8.7c2.4 3.6 5.7 6.6 9.1 9.5l-1.1-1.7c-1.9-1.7-2.3-1.8-.8 0-3.3-4.1-6.7-7.6-10-11.4.1.4-.1.5.7 1.7zM654.3 343.3c.7.8 1.3 1.5 2 2.2v-.1l-2-2.1z" class="st3"/><path d="M715.5 402.2a57.1 57.1 0 019.1 15.9c1 2.8 1.6 5.7 1.9 8.6.2 2.9 0 5.8-.5 8.7.1.9 0 1.8-.3 2.7-.4.8-.7 1.7-1.1 2.5s-.6 1.6-.9 2.4-.7 1.5-1 2.3c-.2.5-.5 1.1-.7 1.6-.3.9-.1.7.3.2s.7-1 1.1-1.5c-.2.3-.7 1-1.1 1.5-.5.7-1 1.4-1.5 2.3-.7 1.4-1.5 2.9-2.4 4.2.8-1.6 1.7-3 2.4-4.2.4-.9.8-1.7 1.2-2.6l.3-.8c-1.7 3.5-3.6 6.8-5.8 10l-1.2 2.1c-1.5 2.4-2.9 4.8-4.3 5.9l-1.2 1.7.3-.3c-.2.2-.4.4-.5.6l-2.5 3.6c-.4.6-.8 1.2-1.3 1.8-.4.6-.8 1.3-1.2 2-.7 1.8-1.3 3.7-1.9 5.6l-1.2 1.6c-.2 1.1-.5 2.2-.9 3.2.9-1.3 1.8-2.5 2.5-3.7 1.2-1.6.8-4.5 2.7-6.1-1.9 1.7-1.5 4.5-2.7 6.1-.7 1.2-1.6 2.4-2.5 3.7-1.2 2.9-2.8 5.5-4.8 7.8 1.3-2.8 2.9-5.4 4.8-7.8.4-1 .7-2.1.9-3.2l1.2-1.6c.6-1.9 1.2-3.8 1.9-5.6-1.4 2.6-2.4 5.3-3.6 7.9-1.2 2.6-2.5 5.2-4 7.7-2.4 4-5.1 7.8-8.1 11.3-3 3.4-6.3 6.6-9.9 9.4a62.7 62.7 0 01-24.2 11.4c-8.9 1.9-18.1 2.3-27.1 1-4.6-.7-9.2-1.6-13.8-2.8l-3.4-1-1.7-.5-1.7-.6-3.4-1.2-3.4-1.3c-19.6-7.7-36.2-20-50.1-34.1-3.5-3.5-6.8-7.1-10-10.8s-6.2-7.4-9.1-11.2a271.18 271.18 0 01-41.3-75.8c-2.6-7.2-6.5-17.5-10.1-27.8s-6.8-20.7-8.8-27.8c-3.3-9.4-5.1-11.4-6.3-10.9s-1.6 3.5-1.6 4c-.2 6.4.9 11.9 2.7 18.8s4.4 15.3 7.8 27.6c-2.4-8.3-.8-5.5 1.9 1.4 1.4 3.4 3 7.9 4.6 12.4s3.2 9.3 4.3 13.3c3.1 11.6 9.3 24.7 17.1 37.7 8 13 16.8 25.6 26.3 37.6 5 6.3 10.5 12.3 16.3 17.9 16.1 16.5 35.5 29.3 57.2 36.6 5.5 1.8 11 3.3 16.7 4.5 5.8 1.2 11.7 1.8 17.6 2 6.1.2 12.2-.3 18.2-1.5a71.2 71.2 0 0017.9-6c3-1.5 5.8-3.2 8.4-5.2 2.5-1.8 4.9-3.9 7.1-6.1 2.1-2.1 4.1-4.3 5.9-6.6 1.7-2.2 3.4-4.5 4.9-6.9 2.3-3.4 4.4-6.9 6.3-10.5 1.9-3.5 3.4-7.1 4.5-9.7.5-1 .9-2 1.4-2.8l.3-.6.2-.3.2-.4 1-1.4 3.7-5.6c2.4-3.7 4.6-7.3 6.6-11-2.4 4-4.5 7.4-6.8 10.8l-3.5 5.2c-.3.5-.6.9-.9 1.4l-.5.7-.4.6c-.5.9-1 1.8-1.4 2.8-.6 1.4-.9 1.9-.9 1.7.1-.8.2-1.5.5-2.3l.6-1.8c.1-.3.2-.6.4-.9l.2-.4.3-.5c.8-1.4 1.5-2.7 2.1-3.7.9-1.7 3.5-3.5 4.4-5.2 2.3-3.5 4.4-7.2 6.2-11 .8-1.8 1.5-1.2 1.9-2.1.7-1.4 1.2-2.8 1.7-4.2.4-1.4.8-2.7 1.1-3.9.1-.6.3-1.2.4-1.8s.2-1.2.3-1.7c.3-1.1.4-2.2.7-3.2.2-.7.3-1.5.4-2.2.1-.7.3-1.5.3-2.2.1-.7.1-1.4.2-2.1s0-1.4 0-2.1c0-.9-.1-1.8-.2-2.6l-.2-1.3-.3-1.4c-.1-.5-.3-1.1-.5-1.7s-.4-1.1-.6-1.7c0 .6-.1 1.3-.5 1.8-.2-.8-.5-1.8-.7-2.8s-.6-1.9-.9-2.7c.3.8.6 1.7.9 2.7s.5 2 .7 2.8c.4-.5.6-1.1.5-1.8-1.6-4.1-3.7-8-6.3-11.6-2.6-3.6-5.5-7-8.6-10.2v.1c3.5 3.7 6.4 8 8.5 12.6-1-2.1-.6-2 .8.3.2.7.4 1.3.5 2-2.3-3.9-5.1-7.3-7.2-11.1l-2.1-2c-.8-1.2-.5-1.3-.5-1.7l-2.1-2.1c.5.9 1.8 2.7 2.9 4.3.5.8 1 1.5 1.4 2.1l.6.8z" class="st3"/><path d="M720.7 449.5c.3-.6.7-1.3 1-2.2-1.5 2.9-3.1 5.6-4.9 8.3.8-.8 1.4-1.6 2-2.6.7-1 1.4-2.2 1.9-3.5z" class="st3"/></g><g class="st2"><path d="M699 440.4l-.1.6c0-.1.1-.2.2-.3.1-.1-.1-.2-.1-.3zM698.8 441.5v.2-.2zM698.7 442.6c.1-.2.1-.4.1-.5-.1.1-.1.3-.1.5zM699 441.8c-.1.1-.2.1-.2 0v.3c0-.1.1-.2.2-.3zM699 441.8l.2-.2-.2.2zM700.6 442.3c0 .1-.4 0-.4.3.1.5.1 1 .1 1.5.1.2-.5.5-.5.7 0 .5.3 2 .5 1.2.2-1.2.3-2 .4-3.1 0-.9-.1-1.8-.2-2.7 0-.2 0-.5.1-.7-.1.3-.2.6-.3 1s.3 1.1.3 1.8zM699.3 435.9l.2.3c-.3.5-.1 1 0 1.5l.2-.2c0-.3-.2-.3-.3-.1.2-.5.3-1.2.2-1.7-.1 0-.2 0-.3.2zM699.6 435.3l.1.3c0-.1-.1-.2-.1-.3zM698.6 445c-.3 1.4-.7 2.7-1.2 4 .1.1.1.2 0 .3-.1.1-.2.1-.3.2l-.2.5v.2c0 .1.1.1.2.1.1-.1.2-.1.2-.1-.1 0-.2.1-.2.1l-.2.2c0 .2-.1.4-.2.5 0-.2.1-.4.2-.5v-.4l-.5 1.2c0 .1 0 .2-.1.3-.1.3-.1.6-.4.7l-.1.2h.1l-.1.1-.5.9v.7l-.3.1c.1.1.1.3.1.4l.6-.3c.3-.1-.2-.7.3-.7-.5.1 0 .6-.3.7l-.6.3c-.1.4-.3.7-.7.9 0-.4.3-.7.7-.9 0-.1 0-.3-.1-.4l.3-.1v-.7l-.9 1.8c-2.1 3.8-4 7.3-6.6 11-1.4 1.9-2.8 3.8-4.4 5.6-3 3.5-5 7.2-8.9 10.1-1.4 1.1-3.3 3.8-4.4 5.1-.4.9 0 2.1.9 2.5.2.1.5.2.7.2 2.3.1 2.3-1.4 4.9-3-1.7 1.2 0-1.8 2.2-2.6 3.1-1 4.3-5 6.7-7.5.6-.7 1.1-1.4 1.6-2.2 3.5-4 5.5-8.5 8.2-13.4.6-1.2 1-2.5 1.2-3.9.3-.9 1-1.6 1.2-2.3.4-1 .7-2 .9-3-.3 1-.5 1.8-.9 2.9-.3.7-.3-.8-.3-1.3 0-.2.6-.4.6-.6.1-.5.2-1 .2-1.5 0-.2.4 0 .4-.2.2-.7-.2-1.4 0-1.8l.5-.8c.1-.2.2-.4.2-.5v-.4h-.5l.3-.6-.3.6h.5c0-1 .1-2.1.1-3.1-.1.6-.3 1.2-.7 1.6.2-.2.3-.1.2.1l-.3.1c-.1-.5.1-1.1.5-1.5 0 0-.1-.2-.1-.4s.2-.1.4-.1 0-.2 0-.4c-.3.5-.6.7-.8 1z" class="st3"/><path d="M696.8 450.6c0-.1 0-.2.1-.3l-.5 1c.3-.1.4-.4.4-.7z" class="st3"/></g></svg>