<svg xmlns="http://www.w3.org/2000/svg" id="Layer_1" viewBox="0 0 842 842"><defs/><defs><style>.cls-2{opacity:.85}.cls-3{fill:#090a0a}.cls-4{fill:#211f1e}</style></defs><path fill="#f9dec9" d="M0 0h842v842H0z"/><g class="cls-2"><path d="M451 385l2 3a11 11 0 01-1-2 4 4 0 00-1-1zM454 391h1v1l-1-1zM458 396a32 32 0 00-2-3 18 18 0 002 3zM455 392l1 2a12 12 0 01-1-2z" class="cls-3"/><path d="M455 392v-1a10 10 0 000 1zM459 392v1l5 7 2 5c1 2 6 8 4 4l-9-15-8-12-2-4 2 5 6 9zM439 361l1 1a27 27 0 004 8v-1l-1-1a51 51 0 00-4-9v2zM438 358l1 1-1-2z" class="cls-3"/><path d="M465 408l11 21a4 4 0 011 2 12 12 0 001 1l2 3v1h1a10 10 0 01-1-1l1 1a12 12 0 000 2l2 3a15 15 0 01-2-3l-1-2 2 3 2 4a14 14 0 001 1 16 16 0 012 4l1 2v-1 1l1 1 1 1 2 2 3 3 1 1a7 7 0 012 1l-2-2c0-2-3-2-3-4 0 2 3 2 3 4l2 2a26 26 0 014 5 12 12 0 01-4-5 7 7 0 00-2-1l-1-1-3-3a86 86 0 008 9 97 97 0 0033 18 111 111 0 0039 6 101 101 0 0021-3 86 86 0 0020-8l2-1 2-2 4-3 8-5 16-12 33-22 32-24c10-9 2-8 1-8-9 2-13 8-27 16 10-6-6 7-16 11-15 7-31 23-47 33l-6 5-4 2-1 1-2 1-2 2-2 1h-2l-1 1-2 1-5 1-5 2a97 97 0 01-62-5l-20-10a64 64 0 01-10-9 107 107 0 01-11-13l1 2 2 1 2 3a84 84 0 006 7h-1a25 25 0 01-2-2 26 26 0 01-2-2l-2-4a36 36 0 00-3-3l-2-3-1-2-5-8-3-5-1-3-1-2a2 2 0 01-1 2l-1-4 1 4a2 2 0 001-2l-10-14a51 51 0 014 9h1v2a27 27 0 01-4-8l-1-2v-1l-1-2a54 54 0 002 6z" class="cls-3"/><path d="M481 438l-1-1 2 3 2 3-3-5z" class="cls-3"/></g><g class="cls-2"><path d="M553 466zM552 466zM551 467a3 3 0 001-1 2 2 0 00-1 1zM552 467v-1a1 1 0 010 1zM552 467zM552 468a12 12 0 01-2 1h-1l-1 1a18 18 0 002-1h1l1-1h1a6 6 0 001-1 1 1 0 001 0 7 7 0 000-1 2 2 0 01-1 1l-1 1a5 5 0 01-1 0zM554 460v1a3 3 0 000 2v-1a7 7 0 001-2h-1zM555 460z" class="cls-4"/><path d="M548 468a15 15 0 01-5 1h-1a1 1 0 000-1 6 6 0 01-1 0v1a1 1 0 00-1-1h1a11 11 0 01-2 0 1 1 0 01-1-1h-1a8 8 0 01-1 0 7 7 0 01-1 0v-1 1h0v-1a2 2 0 01-1-1 2 2 0 011 1v1a7 7 0 001 0 17 17 0 01-2-2 17 17 0 01-5-6v-1l-1-1a13 13 0 010-2 5 5 0 010-3l4-2a34 34 0 014 0 44 44 0 005-1h2a17 17 0 012 0 9 9 0 013 0 5 5 0 013 2 10 10 0 011 3 11 11 0 010 3c0 2 1 2 2 2a2 2 0 001 0 4 4 0 001-3 23 23 0 000-5v1a5 5 0 010-1l-1-1-1-1v-1l-1-1a6 6 0 00-3-2 12 12 0 00-2-1 15 15 0 00-2 0 21 21 0 00-4 0h-2a13 13 0 01-1 1h-4a26 26 0 00-5 1 16 16 0 00-2 1 9 9 0 00-1 0l-1 1-1 1a7 7 0 00-1 2v1a6 6 0 000 1v1a16 16 0 000 2v2a25 25 0 003 5 14 14 0 005 4 29 29 0 003 2h1l1 1a13 13 0 002 0h-2l-1-1h1l1 1a8 8 0 002 0 4 4 0 001 0 2 2 0 012 0 12 12 0 001 0 6 6 0 001 0 1 1 0 010-1h0a1 1 0 000 1 33 33 0 004-2 5 5 0 01-2 1h-1a3 3 0 012-1h2a6 6 0 00-2 0z" class="cls-4"/><path d="M540 468h1-2a1 1 0 001 0z" class="cls-4"/></g><path fill="#1f2020" d="M545 465a6 6 0 01-9-3c-1-3 1-4 4-6s5-2 7 1a6 6 0 01-2 8z"/><g class="cls-2"><path d="M547 463zM547 462zM548 462a1 1 0 00-1 0 1 1 0 001 0zM547 462zM547 462zM547 462a6 6 0 010-1v-1a6 6 0 010 1 5 5 0 01-1 2l1-1zM545 465a1 1 0 001-1c-1 0-1 0 0 0a3 3 0 00-1 1zM545 465z" class="cls-4"/><path d="M548 460a7 7 0 000-2l-1-1v-1l-1-1c-1-1 0 0 0 0v0a1 1 0 01-1 0 1 1 0 011 0 3 3 0 00-1 0 5 5 0 00-3 0 28 28 0 00-4 1 12 12 0 00-2 2 4 4 0 00-1 1 4 4 0 000 3 7 7 0 001 2 10 10 0 004 3 5 5 0 002 0 7 7 0 002-1l1-1a1 1 0 00-1 0 2 2 0 00-1 0 3 3 0 01-2 0c1 0 1 0 0 0a2 2 0 01-1-1 8 8 0 00-2-1 5 5 0 010-1 2 2 0 01-1-1 2 2 0 010-1 7 7 0 012-2 13 13 0 014-2 8 8 0 012 0 8 8 0 011 1 3 3 0 00-1-1h1v1c1 0 0 0 0 0l1 1a2 2 0 010 1 4 4 0 010 2 3 3 0 010-1v1a2 2 0 001-1zM547 457z" class="cls-4"/></g><g class="cls-2"><path d="M186 427h1-1zM189 428h1zM192 428a9 9 0 00-1 0 5 5 0 001 0zM190 427v1h1a4 4 0 01-1-1zM190 427h-1a3 3 0 001 0zM191 424l1 1a25 25 0 014 0l3 1 3-1-9-1h-8a12 12 0 01-2 0l3 1 5-1zM172 424h1a7 7 0 004 1v0a14 14 0 00-5-2v1zM171 423h1-1z" class="cls-4"/><path d="M199 428l13 2h1a4 4 0 001 0h2a4 4 0 010-1v1a3 3 0 001 0 8 8 0 012 0 5 5 0 01-2 0h-1l4 1h1a4 4 0 012 0h1l3 1h3a2 2 0 011 0l-2-1h-2 2l2 1a6 6 0 013 0 4 4 0 01-3 0 2 2 0 00-1 0h-3l6 1 39 3h22a114 114 0 0020-2l21-4a30 30 0 005-2l3-2 2-1a30 30 0 009-10 8 8 0 000-5 3 3 0 000-1 1 1 0 00-1 0 10 10 0 00-3 1 25 25 0 00-3 2l-2 2a18 18 0 01-8 4h2l-2 2a14 14 0 01-1 1h-3a14 14 0 01-4 1l-14 2c-5 1-9 3-14 3h-25l-5 1h-12l-6-1h-5a40 40 0 00-7 0l-5 1-8-1a59 59 0 00-9-1l9 1-3 1-2-1a25 25 0 00-5 0h-6l-2-1a10 10 0 00-2 0h-1a2 2 0 010 1h-2 2a2 2 0 000-1h-9a15 15 0 015 2v-1l1 1a7 7 0 01-5-1h-1v-1h-1a16 16 0 002 2z" class="cls-4"/><path d="M217 430h-1l4 1a3 3 0 00-3-1z" class="cls-4"/></g></svg>