<svg xmlns="http://www.w3.org/2000/svg" id="Layer_1" x="0" y="0" version="1.1" viewBox="0 0 841.9 841.9" xml:space="preserve"><defs/><style>.st1{opacity:.85}.st2{fill:#211f1e}.st3{fill:#131413}</style><path fill="#fbdfe9" d="M0 0h841.9v841.9H0z"/><g class="st1"><path d="M538.1 395.4l1.2.9c-.2-.2-.3-.4-.5-.6-.1-.3-.4-.3-.7-.3zM540.4 397.1l.2.2.2.1-.4-.3zM542.6 398.4c-.3-.3-.7-.5-1.1-.7.3.3.7.6 1.1.7zM541 397.1c.1.2.1.3-.2.2l.7.4c-.2-.2-.4-.4-.5-.6z" class="st2"/><path d="M541 397.1c-.1-.2-.2-.4-.2-.5 0 .2.1.4.2.5zM543 395.4c.2.1-.2.6.3.8 1 .4 2 .9 3 1.5.5.1.7 1.2 1.2 1.4 1.1.5 4.2 1.4 2.7.4-2.3-1.4-3.9-2.2-5.9-3.5-1.8-.9-3.5-1.7-5.3-2.7-.5-.3-.9-.6-1.3-1 .5.5 1 1 1.6 1.5.8.8 2.3.8 3.7 1.6zM529.7 388.6l.8.3c.7 1 1.6 1.8 2.8 2.2l-.2-.6c-.6-.4-.8-.3-.4.2-.8-1.1-1.8-2.1-3-2.8-.1.2-.3.4 0 .7zM529 387.5l.7.4v-.1l-.7-.3z" class="st2"/><path d="M547.5 401c2.8 1.9 5.5 3.6 8.1 5.4.3 0 .5 0 .7.2.1.2.3.4.5.6l1.2.7.5.2c.3.1.2-.1.2-.2-.1-.1-.2-.3-.3-.5 0 .1.2.3.3.5.2.2.3.4.5.5.4.2.8.4 1.1.6-.4-.2-.8-.4-1.1-.6l-.7-.3-.2-.1 2.6 1.7.6.3c.7.3 1.4.6 1.6 1.1l.5.3-.1-.1.2.2 2 1.2c.5.1 1 .2 1.6.4l.3.6c.3-.1.6 0 .9.1-.3-.4-.5-.8-.8-1.1-.3-.6-1.4.1-1.6-.8.2.9 1.3.3 1.6.8.2.3.5.7.8 1.1.8.3 1.5.8 2.1 1.4-.9-.2-1.6-.7-2.1-1.4-.3-.1-.6-.2-.9-.1l-.3-.6c-.5-.2-1-.3-1.6-.4 1.3.8 2.7 1.6 4.1 2.4 8.9 5 18.4 8.9 28.3 11.5 5.5 1.5 11.2 2.5 16.9 2.9 5.5.3 11-.2 16.3-1.5 5.3-1.2 10.4-2.8 15.9-4.1 2.6-.8 5.2-1.7 7.6-2.9 2.7-1.2 5.3-2.4 7.1-3.2 4.4-3 .9-4.9.6-5-4.1-1.3-6 1.1-12.8 2.4 4.6-1.1-2.5 3-7.1 2.9-3.4-.1-6.8 1-10.5 2.2s-7.5 2.3-11.1 2.3c-1.8 0-3.8.2-5.9.2-5.5-.4-11.1-1.2-16.5-2.3-5.7-1.2-11.3-2.9-16.6-5.3-3-1.3-5.9-1.9-8.5-2.8-1.8-.9-3.5-1.8-5.1-2.9-2.3-1.2-4.4-2.1-6.4-2.9 2.1 1.1 3.8 1.8 6.2 3 1.6.8-1.5.2-2.7-.2-.5-.1-.8-1.2-1.4-1.3-1-.5-2-.9-3.1-1.2-.5-.1-.1-.7-.4-.8-1.5-.7-3-.5-3.8-1.2l-1.7-1.5c-.3-.3-.7-.5-1.1-.8l-.8-.3c.1.3 0 .6-.1.9-.3-.3-.8-.7-1.1-1 .3.3.8.7 1.1 1 .1-.3.1-.6.1-.9-2-.8-4.3-1.9-6.4-2.9v.1c1.2.7 2.3 1.6 3.1 2.6-.4-.5-.2-.6.3-.2l.2.6c-1.1-.4-2.1-1.1-2.9-2.1l-.8-.2c-.3-.3-.1-.5-.1-.7l-.6-.5c.4.7.9 1.4 1.5 2z" class="st2"/><path d="M559.2 408.4l-.6-.3 2.2 1.4c-.2-.5-.9-.8-1.6-1.1z" class="st2"/></g><g class="st1"><path d="M100.9 381.8l.5 2.1.6 2.1-.3-2.2c-.2-.7-.4-1.4-.8-2zM103 390c.1.3.1.5.2.8s.2.4.3.6c-.2-.4-.4-.9-.5-1.4zM105.6 397.2c-.4-1.3-.8-2.5-1.3-3.7.4 1.3.8 2.5 1.3 3.7zM103.9 391.4c0 .5-.1.8-.4 0l.9 2.1c-.3-.6-.4-1.4-.5-2.1zM103.9 391.4c0-.5-.1-1.2-.1-1.5 0 .5 0 1 .1 1.5zM107.7 392.2c.3.7-.6.8.1 2.2l1 2.4c.3.8.7 1.5 1.1 2.2.7 1.4 1.4 2.9 2 4.4.8 1.3.8 3.9 1.6 5.1 1.1 2 2.4 4 3.8 5.8 1.2 1.6 1.9 2.3.7 0-.9-1.8-1.8-3.3-2.6-4.8l-2.2-4.4c-.7-1.4-1.3-2.8-2-4.3s-1.3-3-2-4.6l-1.7-4-.8-2-.7-2-1.5-4.1c-.5-1.4-.9-2.8-1.3-4.2-.4-1.6-.7-3.1-.9-4.7.2 2 .6 4.1 1 6.4.3 1.7.9 3.3 1.7 4.9 1 1.5 1.8 3.5 2.7 5.7zM97.2 349.7c.1.8.4 2.3.4 2.3-.3 1.7-.3 3.5-.1 5.2.1 1.8.4 3.5.7 5.3l.3-1.6c-.2-2-.5-2.2-.6-.4.1-2.1.1-4.1.1-6.1s0-4-.2-6c-.2.2-.5.2-.6 1.3zM97.7 346c.1.8.1 1.6.1 2.4l.1-.1c0-.8-.1-1.6-.2-2.3z" class="st3"/><path d="M112.7 411.8c4.3 8.7 9.3 17 15 24.8.6.4 1.2.9 1.6 1.5.3.7.7 1.3 1.1 1.9.8 1.1 1.6 2.2 2.5 3.2l1 1c.6.5.6.2.4-.2-.2-.4-.5-.9-.7-1.3.1.2.5.9.7 1.3.4.6.8 1.3 1.2 1.8l1.3 1.4c.4.5.9.9 1.3 1.4-.6-.5-1.1-1-1.5-1.4-.4-.5-.8-1-1.1-1.4l-1.5-1.6-.5-.5 3 3.6 3.1 3.4 1.4 1.4c1.7 1.5 3.4 2.9 4.1 4.2l1.2 1.2-.2-.3c.2.2.3.4.4.5l5.2 4.7c1.3.8 2.7 1.6 4 2.5l.9 1.4c.8.3 1.6.7 2.4 1.2-.9-1-1.6-1.9-2.3-2.8-.9-1.4-3.4-1.4-4.2-3.3.9 1.9 3.3 1.9 4.2 3.3.7.8 1.4 1.8 2.3 2.8 1 .6 2 1.3 3 2.1s2 1.7 2.8 2.5c-1.2-.6-2.3-1.3-3.4-2.2-.9-.8-1.7-1.6-2.5-2.4-.8-.5-1.6-.9-2.4-1.2l-.9-1.4c-1.3-.9-2.7-1.6-4-2.5 1.8 1.5 3.6 2.9 5.4 4.4s3.8 2.8 5.7 4.2c6.2 4.4 12.6 8.3 19.4 11.7 6.7 3.3 13.6 6.1 20.7 8.4 7.2 2.3 14.5 4 21.9 5.3 7.7 1.2 15.5 1.9 23.3 2.1 17.2.2 34-1.1 50-5.6a91.1 91.1 0 0041.4-24.6c5.6-5.9 10.4-12.4 14.5-19.4 4.1-7.2 7.7-14.7 10.5-22.5 2.7-7.8 4.6-15.9 5.7-24.1 1-8 1.6-16.1 1.7-24.2-.1-2.8-.5-5.5-1.4-8.2-.6-1.5-1.3-1.9-1.9-1.9-1.3.2-2.4 2.5-2.5 2.8-.8 2.3-1.5 4.7-1.9 7.2-.5 2.4-.7 4.9-1 7.7-.1 1.4-.3 2.9-.5 4.5s-.5 3.3-.7 5.1-.7 3.7-1.1 5.8-1 4.3-1.7 6.7c1.8-6.5 1.9-4 1 1.7-.2 1.4-.6 3-1 4.8-.2.9-.4 1.8-.7 2.6s-.6 1.8-.8 2.7-.6 1.8-.9 2.7-.7 1.7-1.1 2.6c-.7 1.6-1.4 3.2-2.3 4.6-.6 1-1.2 2-1.8 3.1l-1.8 3.2c-1.1 2.2-2.5 4.4-3.7 6.6-2.7 4.7-5.7 9.2-8.9 13.6-3.4 4.5-7.3 8.7-11.5 12.4-2.1 1.8-4.4 3.6-6.7 5.1l-3.6 2.2c-1.2.7-2.5 1.3-3.7 1.9-5.3 2.7-10.8 5-16.5 6.8-8.2 2.3-16.5 3.9-24.9 4.8-8.4.9-16.9 1.4-25.3 1.3-17.4 0-34.6-3.4-50.8-10-8.9-3.6-16.8-6.8-24-10.7-1.3-.8-2.6-1.6-3.8-2.4s-2.4-1.8-3.6-2.7c-2.4-1.7-4.4-3.6-6.4-5.1-1.5-1.1-2.9-2.4-4.3-3.5l-2-1.7c-.7-.5-1.3-1.1-1.9-1.7l-3.8-3.3-3.5-3.3 3.6 3.5 3.5 3.1 1.8 1.6 1.9 1.6c1.3 1 2.7 2.2 4.2 3.4 2.1 1.6 1.2 1.3-.6.3-2-1.2-3.9-2.4-5.8-3.8-1.3-.8-2.2-3.3-3.5-4.1-.6-.6-1.2-1.1-1.8-1.6l-1.8-1.6-3.8-3.3c-1.1-1-.3-1.5-.9-2-.8-.9-1.6-1.6-2.4-2.3l-2.3-2c-1.3-1.1-2.5-2.4-3.5-3.8-1.3-1.9-2.3-3.8-3.4-5.5-.7-1.1-1.3-2.2-2.1-3.3l-1.6-2.1c.1.5 0 1.1-.2 1.5-.6-1.1-1.5-2.7-2-3.8.6 1.1 1.4 2.7 2 3.8.3-.5.3-1 .2-1.5-1-1.2-1.9-2.6-2.9-4s-2-2.8-2.8-4.3-1.8-3-2.7-4.5-1.7-3-2.5-4.5v.1c1.7 3.6 3.4 7.1 4.8 11-.4-.8-.4-1.2-.3-1.2.4.4.7.9 1 1.4l.4 1.6-1.5-2.2c-.5-.8-.9-1.5-1.3-2.3-.8-1.5-1.5-3.1-2-4.8l-1.2-1.9c-.3-1.1-.1-1.2.1-1.5-.3-.7-.7-1.4-1-2.1a46.74 46.74 0 001.6 5.9c.2.5.7.9.7.9z" class="st3"/><path d="M135.6 446c-.4-.4-.8-.9-1.3-1.4l2.5 3 2.6 2.9c-.4-.8-.9-1.5-1.6-2.1-.4-.4-.7-.8-1.1-1.1s-.7-.9-1.1-1.3z" class="st3"/></g><g class="st1"><path d="M232.1 443.5c.4.4.9.7 1.4 1-.2-.2-.5-.4-.6-.6-.3-.3-.5-.4-.8-.4zM234.8 445.2l.3.1c.1 0 .2.1.2.1-.2 0-.3-.1-.5-.2zM237.5 446.4c-.5-.2-.9-.4-1.4-.6.5.2.9.4 1.4.6zM235.4 445.3c.1.1.2.2-.1.2l.8.3c-.2-.2-.4-.3-.7-.5zM235.4 445.3l-.4-.4c.1.2.3.3.4.4zM236.8 444.1c.3.1 0 .5.6.6.6.2 1.2.3 1.8.5.6.1 1.1.3 1.7.4s1.2.8 1.8.7c1.3.2 4.6-.4 2.7-.4-.7 0-1.3-.1-2-.1-.6 0-1.2-.1-1.7-.2-.6-.1-1.1-.2-1.7-.4l-1.7-.5c-.6-.3-1.1-.5-1.5-.6-.6-.2-1.1-.4-1.5-.6l-1.4-.7-1.4-.8c-.5-.3-.9-.7-1.3-1.2l.8.9.9.8c.5.4 1.1.7 1.7.9l2.2.7zM224.4 433.9l.5.7c.2.6.5 1.3.8 1.8.3.6.8 1.1 1.2 1.6-.1-.2-.1-.4-.2-.6-.5-.6-.7-.6-.3 0-.7-1.5-1.4-2.7-2.1-4.1 0 .2 0 .4.1.6zM224.1 432.5l.4.8a3 3 0 01-.4-.8z" class="st2"/><path d="M243.6 447.5c.9.1 1.9.2 2.8.2.9 0 1.9-.1 2.8-.1s1.8-.2 2.7-.4 1.7-.4 2.6-.7c.2-.2.5-.4.7-.4.3 0 .6-.1.8-.1.5-.2 1-.4 1.4-.6l.5-.3c.2-.2.1-.2-.1-.2s-.4.1-.6.1c.1 0 .4-.1.6-.1.3-.1.5-.1.8-.2.4-.3.8-.5 1.2-.8-.4.3-.8.6-1.2.8l-.7.4-.2.1c1.1-.5 2.1-1.1 3.1-1.7.2-.1.4-.3.6-.5.5-.5 1.2-1 1.8-1.2l.5-.4h-.1l.2-.1c.7-.6 1.4-1.1 2-1.8l1-1.5.6-.3c.1-.3.2-.6.4-.9-.4.3-.8.5-1.1.8-.5.3-.5 1.3-1.3 1.5.8-.2.8-1.2 1.3-1.5.3-.2.7-.5 1.1-.8.5-.8 1.1-1.5 1.8-2.1-.4.9-1 1.6-1.8 2.1-.2.3-.4.6-.4.9l-.6.3-1 1.5c.6-.6 1.2-1.2 1.8-1.9.6-.7 1.2-1.4 1.7-2.1 3.5-4.6 5.4-10.3 5.4-16.1-.3-6-2.9-11.6-7.3-15.8-2.3-2.3-4.9-4.3-7.7-6-2.8-1.6-5.7-2.9-8.8-3.8-3-.9-6.2-1.3-9.4-1.1-3.2.2-6.3 1.1-9.1 2.7a24.2 24.2 0 00-7.1 6.4c-2 2.6-3.5 5.5-4.7 8.5a28.55 28.55 0 00-1.6 12.3l.3 2.6c.1.8.3 1.6.4 2.3s.4 1.4.5 2c.2.4.3.7.4 1 .2.3.3.6.5.8.2.4.5.7.8 1 .5.4.9.5 1.1.3.4-.4.7-.9.8-1.5v-1.5-1.4c0-.5-.1-.9-.2-1.4 0-.5-.1-1-.1-1.5-.4-2.7-.3-5.5.4-8.1-.5 2.4-.7 1.5-.6-.6.1-1.3.4-2.5.8-3.7.4-1.3 1-2.5 1.7-3.6 2-2.8 4-6 6.9-8.5 1.5-1.3 3.2-2.3 5-2.9.9-.3 1.9-.6 2.8-.7.5-.1 1-.1 1.5-.1h1.5c1 .1 2 .1 3 .3.5.1 1.1.1 1.6.2l1.7.4c2.9.9 5.7 2.1 8.4 3.6 2.6 1.5 5 3.3 7.1 5.4 2.1 2.1 3.7 4.5 4.8 7.3 1 2.8 1.3 5.9.7 8.9-.4 3.1-1.3 6.1-2.6 8.9-.2.5-.5.9-.9 1.4-.3.4-.6.9-1 1.3-.7.8-1.4 1.6-2 2.2-1.7 1.8-3.5 3.5-5.4 5 2-1.4 3.8-3 5.4-4.8.6-.7.5-.4.2.3-.2.3-.5.7-.7 1.1-.2.3-.5.6-.8.9-.3.4-1.3.6-1.7 1-.5.3-.9.7-1.3 1.1-.4.4-.9.7-1.4 1.1s-.6-.1-.8.1c-.7.4-1.3.9-1.9 1.4-.5.4-1.1.6-1.7.8-.8.2-1.5.3-2.3.4-.4.1-.9.1-1.4.2l-.9.2c.2.1.4.2.5.4h-1.6 1.6c-.1-.2-.3-.3-.5-.4-2.4.6-5 .7-7.5.4.7.1 1.5.2 2.2.4s1.5.2 2.2.4c-.7-.1-.6-.3.2-.3.2.1.4.1.6.2-.7.1-1.3.1-2 .1s-1.3-.2-1.9-.4h-.9c-.4-.1-.4-.3-.4-.4l-.9-.2c.4.3.9.5 1.4.7l1 .8z" class="st2"/><path d="M258.6 444.7c-.2.1-.4.2-.6.4.4-.2.9-.4 1.3-.7l1.3-.7c-.8.1-1.4.5-2 1z" class="st2"/></g><circle cx="246.8" cy="421.1" r="8.8" fill="#1f2020"/><g class="st1"><path d="M252.5 427.4l-.4.3c.1 0 .2-.1.3-.1 0-.1.1-.1.1-.2zM251.7 428h-.1v.1zM250.9 428.5c.1-.1.3-.1.4-.2-.1.1-.2.1-.4.2zM251.6 428.2c-.1 0-.1 0 0 0l-.3.1c.1 0 .2-.1.3-.1zM251.6 428.2h.2-.2zM251.9 429c-.1.1-.2-.1-.3 0-.3.3-.7.6-1.1.8-.2.1-.6 0-.7.1-.4.2-1.6.8-.9.6.9-.2 1.8-.6 2.6-1.1.6-.5 1.2-1 1.7-1.6.1-.2.3-.3.5-.4-.2.2-.4.4-.7.5-.2.1-.3.3-.4.5-.3.2-.5.4-.7.6zM254.8 424.2v.3c-.3.3-.5.7-.6 1.1l.2-.1c.1-.2.1-.3-.1-.1.4-.4.6-.8.8-1.3-.2 0-.2 0-.3.1z" class="st2"/><path d="M255.1 423.8c0 .1 0 .2-.1.3 0-.1.1-.2.1-.3z" class="st2"/><path d="M249.2 429.5c-1.2.3-2.4.4-3.6.2-.1 0-.2.1-.3 0-.1-.1-.2-.1-.3-.1-.2 0-.3-.1-.5-.1h-.2c-.1 0-.1 0 0 .1l.1.1c-.1 0-.1-.1-.1-.1-.1-.1-.2-.1-.2-.1-.2 0-.3-.1-.5-.2.2 0 .3.1.5.2h.4c-.4-.1-.7-.2-1.1-.4l-.2-.1c-.2-.1-.5-.2-.6-.4l-.2-.1-.1-.1c-.2-.2-.5-.3-.7-.5l-.5-.2-.1-.2c-.1 0-.2-.1-.3-.1.1.2.1.3.2.5s.5.1.5.4c0-.3-.5-.2-.5-.4s-.1-.3-.2-.5c-.3-.2-.4-.5-.5-.8.3.2.4.5.5.8.1.1.2.1.3.1l.1.2.5.2-1.2-1.2a8.87 8.87 0 01-2-4.9c-.1-1.8.4-3.6 1.4-5.1 1.1-1.6 2.8-2.8 4.7-3.2 1.7-.4 3.5-.3 5.2.4 1.6.6 2.9 2 3.5 3.6.3.8.6 1.6.7 2.4.1.8.1 1.6 0 2.5 0 .9.3 1.2.6 1.3.2 0 .5 0 .7-.1.3-.2.5-.5.6-.8l.3-1c.1-1 .1-2.1 0-3.1.1 1-.1.6-.4-.1s-.7-1.9-1-2.8c-.5-1.5-1.7-2.8-3.1-3.4-1.6-.8-3.3-1.2-5.1-1.2-.9 0-1.8.1-2.7.4a9.3 9.3 0 00-6 4.6c-1.3 2.4-1.6 5.1-.9 7.7.4 1.3 1.1 2.4 2 3.3.5.7 1.1 1.3 1.7 1.8.8.6 1.7 1.1 2.7 1.3-.9-.3-1.8-.7-2.6-1.3-.6-.5.6.1 1 .3.2.1.3.5.6.5.4.2.9.3 1.3.4.2 0 .1.2.2.2h1.6c.3.1.6.1.9.2h.6l.4-.1c-.1-.1-.1-.2-.2-.2.2 0 .4.1.6 0h-.6c0 .1.1.2.2.2.9-.2 1.8-.5 2.6-.9-.5.2-1 .3-1.5.3.2 0 .2.1 0 .1l-.2-.1c.4-.2.9-.3 1.3-.2l.2-.2c.1 0 .2.1.2.1l.3-.1c-.4-.1-.7 0-1 0z" class="st2"/><path d="M244.1 429.4h.2c-.3-.1-.6-.2-.9-.4.2.3.4.4.7.4z" class="st2"/></g><g class="st1"><path d="M739.1 378.5c-.3 1.3-.6 2.6-1 3.9.3-.6.5-1.2.8-1.9.2-.7.3-1.4.2-2zM737 385.9c-.1.2-.1.5-.2.7s-.1.4-.1.6c.1-.5.2-.9.3-1.3zM735.1 392.5c.5-1.1.8-2.3 1.1-3.4-.4 1.1-.8 2.3-1.1 3.4zM737.1 387.4c-.3.4-.5.5-.4-.2-.1.7-.3 1.4-.5 2 .3-.7.6-1.3.9-1.8zM737.1 387.4c.2-.4.5-1 .7-1.1-.3.3-.5.7-.7 1.1zM739.8 390.1c-.1.7-1 .2-1.3 1.6-.4 1.6-.7 3.1-1.2 4.6s-.9 2.9-1.5 4.3c-.3 1.4-2.3 3-2.7 4.4l-1.1 3c-.4 1.1-.9 2.3-1.2 3.2-.6 1.9-.8 2.8.4.6 1.9-3.4 3.1-6.3 4.3-9.1.6-1.4 1.1-2.8 1.7-4.3.3-.7.6-1.5.8-2.2s.5-1.5.8-2.4c.4-1.3.7-2.7 1.1-4s.6-2.7.9-4 .6-2.7.8-4 .4-2.7.7-4.1c.2-.8.3-1.5.5-2.2s.3-1.5.5-2.2c-.5 1.9-1 3.8-1.7 5.9-.9 2.8-.7 6.4-1.8 10.9zM743.2 349.4l.3 2.1c-.2.8-.3 1.6-.4 2.3l-.3 2.4c-.1 1.6-.1 3.2-.1 4.9.2-.5.4-.9.6-1.4.1-1.9-.2-2.1-.5-.5.4-1.8.7-3.7 1-5.5.1-1.8.2-3.7.2-5.5-.3.2-.6.1-.8 1.2zM743.9 346v2.2l.1-.1c0-.7 0-1.5-.1-2.1zM730 406.4c-4 7.9-9.1 15.3-15 21.9-.2.6-.6 1.2-1.1 1.7-.6.4-1.1.8-1.6 1.3-.8.9-1.7 1.8-2.6 2.6l-.9 1c-.4.6-.2.5.2.3.4-.3.8-.5 1.2-.7-.2.1-.8.5-1.2.7-.6.4-1.1.8-1.6 1.2-.8.9-1.7 1.7-2.6 2.4.9-1 1.9-1.7 2.6-2.4l1.4-1.6c.1-.2.2-.3.4-.5-1 1-2 2-3.1 2.9l-3.3 2.8c-.5.4-.9.9-1.3 1.2-1.5 1.4-3.1 2.7-4.3 3.1l-1.2.9.3-.1-.5.2-2.7 1.8-2.7 1.8c-1.1.9-2.2 1.9-3.3 2.7 0 0-1 .3-1.5.3a9 9 0 01-1.8 1.6c1.2-.3 2.2-.6 3.2-.9 1.5-.4 2.2-2.5 4.2-2.7-1.9.1-2.7 2.3-4.2 2.7-1 .3-2 .6-3.2.9-.9.6-1.9 1.2-2.9 1.7-1.1.5-2.2.8-3.3 1.1 1-.7 2.1-1.3 3.2-1.7 1-.4 2-.7 3-1 .7-.4 1.3-1 1.8-1.6l1.5-.3c1.2-.9 2.2-1.8 3.3-2.7-1.8 1.1-3.6 2.2-5.4 3.2s-3.7 2.1-5.7 3c-12.2 6-25.1 10.4-38.4 13.1-6.7 1.4-13.4 2.4-20.1 3.1-7 .7-14 1-21.1.9-15.7-.2-30.8-1.1-45.2-3.7-7-1.2-13.9-2.8-20.7-4.8-6.5-1.9-12.7-4.7-18.5-8.2-5.7-3.5-10.6-8-14.6-13.4-4-5.6-6.9-11.8-8.6-18.4-1.9-6.7-3.4-13.5-4.5-20.4-1.1-6.9-1.7-13.9-2.1-21-1-7.2-2.4-9-3.6-8.8s-2.3 2.2-2.4 2.6c-1.7 4.6-2 8.7-1.8 14 .1 2.6.2 5.6.5 9.1 0 .9.1 1.8.2 2.7s.2 1.9.2 2.9.1 2.1.2 3.2.2 2.2.3 3.5c-.4-3.2-.2-4.3.1-3.9.6 1.6 1.1 3.3 1.5 5 .3 1.4.7 2.9 1.1 4.5l.6 2.5c.2.8.5 1.7.7 2.6l.6 2.7c.2.9.5 1.8.7 2.6s.4 1.7.6 2.6.4 1.6.6 2.4c1.2 5 3.2 9.7 6.1 13.9 3.2 4.9 7.3 9.1 12 12.6 4.8 3.6 10.1 6.6 15.6 8.9 5.3 2.3 10.8 4.2 16.3 5.8 5.8 1.6 11.7 2.8 17.6 3.6 8.2 1.4 16.5 2.3 24.9 2.6 4.1.2 8.2.3 12.2.4s8.1 0 12.3-.1c17.1-.5 34.1-3.1 50.7-7.6 9.2-2.6 16.7-6.5 23.7-10.3 1.3-.7 2.6-1.4 3.9-2l2-1 1.9-1 3.7-1.9c1.2-.7 2.3-1.3 3.3-2 5.7-3.6 10.9-7.8 15.6-12.6-4.8 4.5-9.9 8.7-15.4 12.3-4.3 2.8 2.4-2.9 4.9-5.1.7-.5 1.5-1 2.3-1.2a8 8 0 002.2-1.3c1.2-.9 2.4-2 3.4-3.1l3.3-3.5c.9-1.1 1.4-.3 1.9-.9 1.4-1.5 2.7-3.2 3.8-4.9.8-1.4 1.8-2.7 3-3.9 1.6-1.6 2.9-3.1 4.3-4.5.8-.9 1.6-1.9 2.3-3 .4-.7.8-1.4 1.3-2.2-.4.3-1 .4-1.5.3.7-.9 1.9-2.2 2.6-3.2-.7 1-1.8 2.2-2.6 3.2.5.1 1 0 1.5-.3 3.2-5.6 6-11.4 8.3-17.4h-.1c-.7 1.7-1.6 3.3-2.5 5-1 1.6-2.1 3.2-3.2 4.7 1-1.4 1.2-1 .2.6l-1.2 1c.8-1.4 1.5-3 2.2-4.4.8-1.4 1.7-2.7 2.7-4 0 0 .4-1.4.6-2 .6-.9.8-.7 1.2-.8.3-.7.6-1.3.9-2-.5.6-1.5 1.9-2.3 3.1l-1.5 2z" class="st3"/><path d="M707.2 436.4l1.2-1.3a60.6 60.6 0 01-5.4 4.7c1.7-.8 3.1-2 4.2-3.4z" class="st3"/></g></svg>