<svg xmlns="http://www.w3.org/2000/svg" id="Layer_1" viewBox="0 0 842 842"><defs/><defs><style>.cls-2{opacity:.85}.cls-3{fill:#211f1e}.cls-4{fill:#1f2020}</style></defs><path fill="#d69f7e" d="M0 0h842v842H0z"/><g class="cls-2"><path d="M250 521h2a5 5 0 01-1 0 1 1 0 00-1 0zM253 520h1zM256 520a12 12 0 00-2 0 7 7 0 002 0zM254 520zM254 520h-1a3 3 0 001 0z" class="cls-3"/><path d="M254 518h3a16 16 0 012 0h5a25 25 0 00-8 0 28 28 0 00-7 2l-1 1 2-1a6 6 0 002-1 15 15 0 012-1zM241 527a11 11 0 002-1l1-2h-1v1a15 15 0 00-2 1 12 12 0 00-1 1 1 1 0 001 0zM239 528l1-1-1 1zM262 519a24 24 0 0110 4 5 5 0 001 1l1 1h1a3 3 0 01-1-1l1 1a10 10 0 011 1 8 8 0 01-1-1h-1a26 26 0 013 2 6 6 0 010 1 5 5 0 012 1v1a21 21 0 011 2l1 1v1a3 3 0 011 1v-2l-1-1 1 1v2a6 6 0 011 2 7 7 0 01-1-2 3 3 0 00-1-1v-1l-1-1a22 22 0 011 2 19 19 0 011 3 26 26 0 010 15 25 25 0 01-10 13 24 24 0 01-16 4 27 27 0 01-8-3 22 22 0 01-6-4 21 21 0 01-5-7 19 19 0 01-1-8 32 32 0 011-7 23 23 0 013-7v-1-1a5 5 0 001-1 1 1 0 00-1-1 2 2 0 00-1 0 7 7 0 00-3 2l-1 1v1a37 37 0 00-4 8c1-2 1-1 1 1l-1 8c0 4 2 9 5 13a32 32 0 0012 8l1 1h2l1 1h3a27 27 0 0020-6 30 30 0 0011-18 23 23 0 00-1-11v-2l-1-2a20 20 0 00-1-3 23 23 0 00-2-3 24 24 0 00-3-3 32 32 0 013 3 25 25 0 012 3c0 1 0 1 0 0l-1-1-1-1a3 3 0 01-1-1 2 2 0 000-1 13 13 0 00-2-1l-1-1-1-1a17 17 0 00-2-1 7 7 0 01-2-1 23 23 0 00-2-2 7 7 0 00-1 0l-1-1a1 1 0 010 1l-1-1 1 1a1 1 0 000-1 28 28 0 00-8 0 12 12 0 015 0h-1 1v1l-1-1h-1a10 10 0 01-2 0h-1a9 9 0 00-1 0h2z" class="cls-3"/><path d="M275 525l1 1 1 1a5 5 0 00-2-2z" class="cls-3"/></g><circle cx="258" cy="545" r="12" class="cls-4"/><g class="cls-2"><path d="M269 539h-1a2 2 0 011 0zM268 538zM267 537a5 5 0 001 0 3 3 0 00-1 0zM268 538zM268 538zM267 538l-1-1-1-1h-1a11 11 0 012 2 11 11 0 012 2 8 8 0 011 1 9 9 0 00-1-1 2 2 0 000-1 6 6 0 01-1-1zM270 545v-1a3 3 0 000-2v3zM270 545z" class="cls-3"/><path d="M265 535a13 13 0 00-5-1 2 2 0 000-1h-1a2 2 0 010 1v-1a2 2 0 00-1 0h1a14 14 0 00-2 0 2 2 0 01-1 1h-3a2 2 0 010 1h1l1-1-1 1h-1a6 6 0 01-1 0 2 2 0 011 0 2 2 0 000-1h1a12 12 0 00-7 6 12 12 0 00-1 8 13 13 0 005 8 12 12 0 008 2 15 15 0 008-3 11 11 0 003-4 13 13 0 001-4v-2a1 1 0 00-1 1 9 9 0 00-1 1v1a8 8 0 01-2 3v1a6 6 0 01-2 2 33 33 0 01-5 1 9 9 0 01-5 0 13 13 0 01-2-1 11 11 0 01-5-7 10 10 0 012-7 14 14 0 012-3 8 8 0 013-2 14 14 0 013-1 10 10 0 00-3 1h2a5 5 0 000-1h1a6 6 0 001 0 2 2 0 011 0 6 6 0 011 1h2-1a10 10 0 013 1l-1-1h-1a3 3 0 012 1h1a9 9 0 00-1-1z" class="cls-3"/><path d="M258 533h1a10 10 0 00-2 0 2 2 0 001 0z" class="cls-3"/></g><g class="cls-2"><path d="M602 534l1 1a5 5 0 01-1 0 1 1 0 000-1zM604 536v1zM605 539a9 9 0 00-1-2 8 8 0 001 2zM604 537zM604 537v-1a3 3 0 000 1z" class="cls-3"/><path d="M606 536v1l1 2a17 17 0 011 1l1 2v2l1 1c0 1 0 1 0 0a25 25 0 00-3-7 28 28 0 00-5-5l-1-2 2 2a7 7 0 001 2 15 15 0 012 1zM592 528h1a11 11 0 002 1h1c-1 0-1 0 0 0a14 14 0 00-2-1 12 12 0 00-2-1v1zM591 527h1-1z" class="cls-3"/><path d="M608 544a24 24 0 011 10 1 1 0 010 1 5 5 0 000 1 14 14 0 01-1 1v1a5 5 0 011-1l-1 1a5 5 0 000 1 11 11 0 01-1 1 7 7 0 011-1v-1a24 24 0 01-1 3 10 10 0 01-1 2l-1 1a18 18 0 01-1 2l-1 1-1 1h1l1-2-1 2h-1a6 6 0 01-2 2 7 7 0 012-2l1-1 1-1a17 17 0 01-2 2 18 18 0 01-2 1 26 26 0 01-14 6 25 25 0 01-16-4 24 24 0 01-10-13 26 26 0 010-8 22 22 0 011-8 21 21 0 014-6 19 19 0 017-5 33 33 0 017-2 23 23 0 018 0h2a5 5 0 001 0l1-1-1-2a7 7 0 00-2-1h-2l-1-1a37 37 0 00-9 1h-1c-3 0-5 2-7 3-4 2-8 5-10 9a32 32 0 00-3 15v4l1 1v2a27 27 0 0013 17 30 30 0 0022 2 23 23 0 009-5l2-1 1-1a20 20 0 002-3 22 22 0 003-3 24 24 0 001-4 34 34 0 01-1 3 27 27 0 01-2 4h-1l1-2 1-1a3 3 0 010-1 2 2 0 001 0 14 14 0 001-2v-2l1-1a17 17 0 000-2 7 7 0 010-2 25 25 0 000-3 6 6 0 000-1v-1-2 2a28 28 0 00-2-8 12 12 0 011 4v1-1-1a11 11 0 01-1-2 1 1 0 010-1v-1 3z" class="cls-3"/><path d="M608 559v-1 1l-1 2a5 5 0 001-2z" class="cls-3"/></g><circle cx="583" cy="551" r="12" class="cls-4"/><g class="cls-2"><path d="M593 558zM593 557zM594 556zM593 557s1 0 0 0l1-1a2 2 0 01-1 1zM593 557zM593 556l1-2v-1-1a10 10 0 01-1 3 11 11 0 01-1 3 8 8 0 01-1 1 11 11 0 001-1 3 3 0 000-1 6 6 0 011-1zM588 562l1-1a3 3 0 001-1v1l-2 1zM588 562z" class="cls-3"/><path d="M595 553a13 13 0 00-1-5v-1a2 2 0 000-1 6 6 0 01-1 0 3 3 0 011 0v1a12 12 0 00-1-2 2 2 0 010-1 10 10 0 00-1-1l-1-1v1h1-1v-1a5 5 0 01-1-1 2 2 0 011 1l1 1a11 11 0 00-2-2 12 12 0 00-7-2 13 13 0 00-8 2 13 13 0 00-4 8 12 12 0 001 8 15 15 0 006 6 11 11 0 004 1 12 12 0 004 0l2-2a1 1 0 00-1 0 8 8 0 00-1 0h-1a8 8 0 01-4 0c1 0 1 0 0 0a6 6 0 01-3-2 31 31 0 01-4-3 9 9 0 01-1-5 13 13 0 010-3 11 11 0 014-6 10 10 0 018-2 13 13 0 014 1 9 9 0 012 2 15 15 0 012 2 10 10 0 00-2-2h1v2h1v1a5 5 0 000 1 2 2 0 011 0 7 7 0 010 1v1a10 10 0 010 4v-3a3 3 0 010 2v1a8 8 0 001-1z" class="cls-3"/><path d="M594 546v1l-1-2a2 2 0 001 1z" class="cls-3"/></g><g class="cls-2"><path d="M148 297v4a20 20 0 000-4zM148 313v2a133 133 0 000-2zM149 329zM149 317c-1 0-1 1-1-1v5l1-4zM149 317v-3 3zM152 320l-1 4 2 20v11l2 14a1347 1347 0 01-4-72c-1 6 1 14 1 23zM150 233v4l-1 21 1-3a390 390 0 001-25l-1 3zM151 225v0z" class="cls-3"/><path d="M151 361l4 57a19 19 0 011 4v5l1 8 1 3c0 1 0 1 0 0v-3 3l1 4 1 8-1-8-1-4v-2a681 681 0 003 22l2 12v2l1 2 2 13 3 9v3a39 39 0 012 5l-1-7-2-10 2 10 1 7 2 7 2 8a65 65 0 01-4-15 39 39 0 00-2-5v-3l-3-9a491 491 0 0023 69 178 178 0 0011 20 125 125 0 0013 17 82 82 0 0018 15 70 70 0 0021 8 68 68 0 0023 1 59 59 0 0023-8 78 78 0 0019-17 127 127 0 0014-21l3-5 3-6 2-6 3-5 7-24c10-31 14-61 17-92l6-94v-48c1-33-1-35-2-47-2-16-3-20-5-19s-2 5-2 6v30a385 385 0 011 48l-1 43c-3 18-4 41-5 64s-4 48-9 71c-2 11-4 23-8 36l-8 24a189 189 0 01-11 23 107 107 0 01-14 21 63 63 0 01-19 14l-1 1h-2l-3 1-2 1-3 1h-3a20 20 0 01-3 1h-6a63 63 0 01-24-5 69 69 0 01-21-14 108 108 0 01-16-20 229 229 0 01-13-24 251 251 0 01-10-23l-9-34a964 964 0 01-2-1l-2-7-1-7a32 32 0 01-1-5 32 32 0 00-1-5l-4-20v-4l-4-23a622 622 0 01-2-21v-5a5 5 0 01-1 3v-9 9a5 5 0 001-3l-4-41v1a393 393 0 010 7l-1-5 1-3-1-4v14z" class="cls-3"/><path d="M159 442a918 918 0 001 12l-1-12z" class="cls-3"/></g><g class="cls-2"><path d="M691 297v8l1-4a18 18 0 00-1-4zM691 313v0zM691 329zM691 316c0 1 0 2 0 0v0zM691 316l1-2-1 2zM695 320l-1 5v19l-1 11c0 7 0 26 1 15l1-41-1-35v-10 13l1 23zM691 233v4a176 176 0 001 21 385 385 0 00-1-4 223 223 0 000-24v3zM691 225v0zM690 361l-4 57a19 19 0 01-1 4v5l-2 8v3c0 1 0 1 0 0l1-3-1 3a72 72 0 000 4v-5-1l-3 18v4a65 65 0 01-2 12l-1 3v-1 1l-3 14-2 9-1 3a37 37 0 01-1 5l3-6c1-3 0-7 2-11-2 4-1 8-2 11l-3 6-2 7-2 7a93 93 0 014-14 37 37 0 001-5l1-3 2-9a452 452 0 01-24 68 176 176 0 01-10 19 123 123 0 01-14 17 72 72 0 01-37 21 64 64 0 01-22 1 54 54 0 01-21-7 72 72 0 01-18-17 120 120 0 01-13-20l-2-6-3-5-2-6-2-5-7-23c-8-31-12-61-15-92a775 775 0 01-3-93 45763 45763 0 001-114c-2 1-3 5-3 6-3 9-4 18-4 30l-3 45c1-14 1-9 1 3l-1 43a945 945 0 0010 137 367 367 0 008 37 250 250 0 008 26 184 184 0 0012 24 114 114 0 0015 23 74 74 0 0023 17h2l1 1 4 1 3 1 4 1 3 1a29 29 0 004 0l3 1h4a74 74 0 0028-6 82 82 0 0024-16 124 124 0 0018-23 158 158 0 0014-26l8-25 10-34a389 389 0 007-42l-3 20-2 10-2 11v-1l1-7 1-7a35 35 0 011-5 32 32 0 001-5l3-20 1-4 2-23 2-13 1-8v-5a5 5 0 01-1 2l1-9-1 9a5 5 0 001-2l1-42v1a225 225 0 01-2 24c1-4 1-3 1 1l-1 3a175 175 0 011-21v-5l1-2v-5l-1 8-1 6z" class="cls-3"/><path d="M683 442v-4l-2 16 2-12z" class="cls-3"/></g></svg>