<svg xmlns="http://www.w3.org/2000/svg" id="Layer_1" x="0" y="0" version="1.1" viewBox="0 0 842 842" xml:space="preserve"><defs/><style>.st1{opacity:.85}.st2{fill:#131413}</style><path fill="#d0b8ab" d="M-3 0h842v842H-3z"/><g class="st1"><path d="M372 427l-4 2 2-1 2-1zM365 431v1h-1l1-1zM360 436l3-2-3 2zM365 433l-1-1-1 1h2zM365 433l1-1-1 1zM365 436l-2 1-7 6-4 2-5 5 15-11 12-11 4-2-5 3c-2 2-4 5-8 7zM396 410l-1 1-8 6h1c2-2 2-2 0-1l10-6h-2zM399 408l-2 2h1l1-2zM348 445a1199 1199 0 01-23 17l-2 1-3 2-1 1h2-2l-2 1 2-1 1-1-4 3-4 2-1 1-3 1-2 1h-2 1l-1 1-3 1-3 1-4 2h-1l-2 1h3l5-2-5 2a202 202 0 01-6 1l-4 1 4-1 3-1 2-1h2l3-2-6 2-3 1-3 1a124 124 0 01-80-7c-13-6-25-15-35-26l-4-4-3-4-8-8-14-16-29-33c-7-9-22-24-30-32-11-10-9-1-8 0 3 9 10 12 21 27-8-10 8 6 14 16 10 15 29 31 43 47l5 6 3 4 2 1 1 2c12 13 26 22 42 29 16 6 34 9 51 9 10 0 18-2 26-5l8-2a78 78 0 0026-12l-4 3-4 2-5 2-2 1-2 1c-5 2 3-2 5-4l5-2 4-2 4-3h2l5-4c1-2 2-3 4-3l5-4 3-2 2-1-2-1 4-2-4 2 2 1 14-13-9 6v1l-2 1 8-6 1-1 2-1 2-1-7 3z" class="st2"/><path d="M317 467l2-1-6 4 2-1 2-2z" class="st2"/></g><g class="st1"><path d="M225 462l-1 1h1v-1zM224 463v0zM223 464zM224 464v-1 1h-1 1zM224 464z" class="st2"/><path d="M224 465h-1l-1 1h-1-1-2c-1 0 0 0 0 0h5l3-3 1-1-1 1-1 1-1 1zM229 457v1l-1 2v-1l1-2zM229 457z" class="st2"/><path d="M220 465l-6-2h-1l-1-1v0h-1 1l-1-1h-1l-1-1-1-1h-1v-1 1h0v-1l-1-2 1 2v1h1l-1-1-1-1a16 16 0 010-17l4-3h4a41 41 0 0111 7 8 8 0 013 6l-1 4 1 2h2l2-2v-2l1-3c0 1-1 1-1-1v-2l-1-3-1-1-1-1v-1l-4-2-3-2-4-2-4-1h-1l-1-1h-1l-4 1-3 3-2 3c-2 4-2 8-2 12l3 6 1 1v1l1 1 1 1 1 1 2 1-3-3 1 1 1 1 1 1h1v1h3l1 1h6-3c1 0 1 0 0 0h3zM212 462l-1-1 1 1z" class="st2"/></g><path d="M213 458c-3 0-5-4-5-7 1-3 3-3 7-2s6 2 5 5-4 5-7 4z" class="st2"/><g class="st1"><path d="M216 459v-1 1zM216 458zM217 458zM217 458zM217 458h-1 1zM216 457h1l1-1-2 1-1 1 1-1zM213 459h1l-1-1v1zM213 458z" class="st2"/><path d="M218 457l2-2s-1 0 0 0c0-1 0-1 0 0v-1-1-1-1 0l-3-2-4-1h-4l-2 2v2l1 5 1 2 2 1 1-1v-1l-1-1-1-1c1 1 0 1 0 0l-1-1v-2-1l1-1v-1h3a13 13 0 015 2l1 1v0c0-1 0 0 0 0v2l-1 1-1 1h1-1 1zM220 454v0z" class="st2"/></g><g class="st1"><path d="M463 437l3 2-2-1-1-1zM469 441v1h1l-1-1zM475 445l-3-2 3 2zM470 442c1 0 1 0 0 0l2 1-2-1zM470 442l-1-1 1 1zM474 440l1 2 8 5 3 3c3 2 11 6 7 3l-16-11-14-8-3-3 4 4 10 5zM439 419l2 1 8 6-1-2c-2 0-2 0-1 1l-9-7 1 1zM437 416l1 2v-1l-1-1z" class="st2"/><path d="M487 453a1407 1407 0 0125 18l3 2 1 1h1l-1-1 1 1 1 1 3 2-3-2-2-1 3 2 4 2 2 1 2 2 2 1 2 1v-1 1l3 1 3 1 4 1 1 1 3 1-3-2c-1-1-3 0-5-2 2 2 4 1 5 2l3 2 3 1 3 1-3-1-3-1-3-1-1-1-4-1 6 3 3 1 3 1a117 117 0 0083-5c14-6 27-15 38-26l4-3 4-4 8-8 14-16 31-30 31-32c9-12 0-9 0-9-9 5-13 11-27 23 10-8-5 9-15 16-14 10-29 30-44 45l-6 6-3 3-1 2-2 1a140 140 0 01-38 26 115 115 0 01-47 9l-24-2-7-2-7-3-18-7 4 2 4 2 4 1 3 1 2 1c5 2-4 0-7-1l-4-3-4-2-4-2-1-1-5-3-5-2-4-4-3-2-2-1v1l-3-2 3 2v-1l-17-10 9 7h1l1 1c-3-2-6-3-8-6l-2-1-1-1-1-1 4 4z" class="st2"/><path d="M518 475l-1-1a125 125 0 004 3l-3-2z" class="st2"/></g><g class="st1"><path d="M610 471v0zM611 472h0zM613 473h-1 1zM612 472v0zM612 472zM613 471h2l1 1 1-1s1 0 0 0h-3l-3-1-1-1 1 1 1 1h1zM606 465l1 1v2-1l-1-2zM606 465h1-1z" class="st2"/><path d="M616 473l6-2h1l1-1 1-1-1 1 2-1 1-1 1-1 1-1h-1v0h1l1-1-1 1-1 1 1-1 1-1c4-6 4-13 1-18l-4-5h-6l-5 1-4 2-4 3-5 4-1 1v5l1 6 2 1 1-1v-3-1-1-2-1-1l2-2c2 0 3-1 5-3l6-3 3-1 4 1 2 2c1 3 2 6 1 9v5h-1v1l-1 1-1 1-1 1-1 1 1-1 2-2-1 2h-1v1l-1 1-1-1-1 2h-2l-1 1h1-1 1-1l-4 1h3c-1 0-1 0 0 0h-2v1l-1-1 1 1zM624 470l2-1-2 1z" class="st2"/></g><path d="M623 466c3-1 5-4 5-7-1-3-3-3-7-3s-6 2-5 6c1 3 4 5 7 4z" class="st2"/><g class="st1"><path d="M620 466zM620 465zM619 465zM620 466c0-1 0-1 0 0l-1-1 1 1zM620 466zM619 466h-1v-1h-1l2 1h1l1 1-1-1h-1zM623 466h-1 1zM623 466z" class="st2"/><path d="M618 465l-1-2-1-1v-1-1c-1 0 0 0 0 0s-1 0 0 0v-1 0l3-2h7v1l1 2-1 2-2 1-1 1v2h2l1-1 2-2 1-3v-1-2l-2-2-3-1-2 1-5 1-2 2v4l1 1v1h1l1 1-1-1 1 1zM616 462z" class="st2"/></g></svg>