<svg xmlns="http://www.w3.org/2000/svg" id="Layer_1" viewBox="0 0 841.89 841.89"><defs/><defs><style>.cls-2{opacity:.85}.cls-3{fill:#211f1e}</style></defs><path fill="#b07d62" d="M0 .07h841.89v841.89H0z"/><g class="cls-2"><path d="M221.88 499.61l.77-.22a1.36 1.36 0 01-.44 0c-.21-.04-.21.09-.33.22zM223.37 499.23h.14l.11-.07zM224.71 498.86a2.7 2.7 0 00-.7.12 1.87 1.87 0 00.7-.12zM223.59 498.93c.1.05.16.12 0 .2l.41-.13a1.42 1.42 0 01-.41-.07zM223.59 498.93c-.09-.05-.24-.08-.29-.11a1.45 1.45 0 00.29.11zM223.64 497.18c.14-.09.19.4.48.25l1-.35a4.93 4.93 0 011-.16c.32-.13.8.45 1.11.36.72-.14 2.76-.38 1.63-.56a13.11 13.11 0 00-4.41.17 16.18 16.18 0 00-3.39 1.45 5.43 5.43 0 01-.92.35c.42-.09.83-.23 1.31-.31a1.92 1.92 0 00.93-.52 4.93 4.93 0 011.26-.68zM216.79 502.6l.19-.43a2.38 2.38 0 00.87-.48c.24-.22.45-.49.69-.73h-.38c-.3.26-.24.4.09.26a4 4 0 00-1.88 1.34c.13.04.23.15.42.04zM216.08 502.89l.29-.35-.27.38z" class="cls-3"/><path d="M227.72 498.4a11.76 11.76 0 015.14 1.78c.17 0 .3-.05.43.1a1.38 1.38 0 00.26.36 6.86 6.86 0 01.59.48l.24.14c.15.05.16 0 .13-.15a1.76 1.76 0 01-.1-.3c0 .06.08.19.1.3a1.56 1.56 0 00.25.36 3.14 3.14 0 01.54.5 2 2 0 01-.54-.5l-.39-.21-.12-.05a13 13 0 011.24 1.22c.11.08.2.17.28.24.31.28.64.56.62.9l.16.27v-.08a.35.35 0 010 .12 10.63 10.63 0 01.65 1.13c.21.21.45.41.65.64l-.1.37a.88.88 0 01.41.36c0-.27.1-.54.11-.78.09-.39-.75-.38-.51-.91-.24.53.6.52.51.91 0 .24-.07.51-.11.78a1.77 1.77 0 01.23 1.38 1.71 1.71 0 01-.23-1.38.88.88 0 00-.41-.36c0-.12.1-.37.1-.37-.2-.23-.44-.43-.65-.64a11.76 11.76 0 01.91 2.4 13.47 13.47 0 01-.31 8 12.45 12.45 0 01-5 6.25 11.23 11.23 0 01-8.25 1.56 12.61 12.61 0 01-6.7-3.51 9.18 9.18 0 01-2-3.15 7.69 7.69 0 01-.39-3.72 28.26 28.26 0 01.51-3.55 11 11 0 011.32-3.25c.35-1.21.08-1.94-.43-2.33a1.86 1.86 0 00-1.27-.38 3.08 3.08 0 00-1.55.64 4.09 4.09 0 00-1.06 1.25 31.44 31.44 0 00-2.06 4.41c.56-1.42.72-.79.59.41a43.53 43.53 0 01-.55 4.62c-.53 2.19.39 4.93 2.19 7a20 20 0 006.69 4.88 13.32 13.32 0 004.23 1.1 14.6 14.6 0 0011.6-3.12 17.56 17.56 0 006.17-10.62 11.71 11.71 0 00-.88-6.1 20.11 20.11 0 00-1.24-3.75 10 10 0 00-3.11-3.51 13.45 13.45 0 013 3.45c.58 1.05-.89-.48-1.47-1-.26-.21-.13-1-.45-1.13a4.36 4.36 0 00-.77-.72l-.94-.59c-.31-.14.05-.48-.12-.55a5.61 5.61 0 00-1.33-.55 2.16 2.16 0 01-1-.41c-.37-.34-.76-.57-1.11-.84a3 3 0 00-.76-.37l-.57-.08a1 1 0 01.06.56c-.24-.11-.54-.36-.79-.45.25.09.55.34.79.45a1 1 0 00-.06-.56 16.86 16.86 0 00-4.26-.09v.05a4.09 4.09 0 012.31.58c-.32-.17-.25-.31.15-.23l.24.31c-.35 0-.7 0-1-.08a2.38 2.38 0 01-1-.35l-.46.13c-.21-.08-.2-.23-.24-.36a3.73 3.73 0 00-.47 0 8.64 8.64 0 001.36.69z" class="cls-3"/><path d="M234.77 501.49l-.31-.19a11.23 11.23 0 011 1c.02-.3-.34-.56-.69-.81z" class="cls-3"/></g><circle cx="225.96" cy="511.79" r="6.11" fill="#1f2020"/><g class="cls-2"><path d="M231.56 508.61l-.2-.35a.73.73 0 010 .22c.06.08.13.1.2.13zM231.15 507.94l-.04-.06-.05-.03.09.09zM230.66 507.44a1.54 1.54 0 00.25.26 1 1 0 00-.25-.26zM231 507.9s0-.09.09 0l-.15-.15a.89.89 0 01.06.15zM231 507.9a1 1 0 010 .16.92.92 0 000-.16zM230.21 508.3c-.06 0 .14-.17 0-.23s-.49-.26-.69-.44-.11-.35-.24-.39-1-.19-.68 0a6.16 6.16 0 011.32.87 5.36 5.36 0 011.06 1 1.69 1.69 0 01.15.37 3.87 3.87 0 00-.15-.53c-.06-.3-.49-.39-.77-.65zM232.24 511.45l-.09-.2a1.06 1.06 0 00-.11-.93l-.09.16c.06.17.12.18.14 0a4 4 0 000 1.09c.05-.02.13-.02.15-.12zM232.11 511.78v-.2.21z" class="cls-3"/><path d="M229.41 506.65a6.86 6.86 0 00-2.36-1c-.07 0-.13.08-.21 0a.42.42 0 00-.18-.11 2.2 2.2 0 00-.36 0h-.13c-.07 0 0 .06 0 .1a.4.4 0 01.12.1l-.12-.1-.19-.08a1.34 1.34 0 01-.35 0 1.13 1.13 0 01.35 0h.26-1c-.2.06-.39.13-.53 0h-.15c-.2.05-.42.08-.62.15s-.22.19-.34.27l-.18-.05a.46.46 0 01-.16.21 2.8 2.8 0 00.36 0c.17.06.2-.33.43-.18-.23-.15-.26.24-.43.18a2.8 2.8 0 01-.36 0 1.2 1.2 0 01-.64.23.64.64 0 01.64-.23.46.46 0 00.16-.21l.18.05c.12-.08.23-.18.34-.27a6 6 0 00-1.18.48 6.44 6.44 0 00-3.19 7.19 7.28 7.28 0 002.48 4.06 6.48 6.48 0 004.44 1.37 9.21 9.21 0 004.61-1.58 5.36 5.36 0 001.68-2 7.13 7.13 0 00.74-2.47c-.1-.9-.49-1.09-.79-1.07a1.23 1.23 0 00-.63.25 2.59 2.59 0 00-.76 1.15 3 3 0 01-1 1.47c.39-.37.43-.14.2.27a2 2 0 01-1.39 1 13.49 13.49 0 00-2.28.53 3.5 3.5 0 01-2.41-.13 7.35 7.35 0 01-1.13-.6 6 6 0 01-1.85-2.92 4.34 4.34 0 01.54-3.5 9.79 9.79 0 011.07-1.61 3.51 3.51 0 011.16-.53c.53-.2 1-.37 1.46-.5a5.32 5.32 0 00-1.44.45c-.36.15.14-.41.41-.52.11-.09.34.13.44.07s.46-.18.74-.25c.12-.06.11.18.17.15.36 0 .69-.32.93-.21a4.3 4.3 0 01.48.22l.3.11h.21a.62.62 0 010-.27l.3.2-.3-.2a.61.61 0 000 .27 4.43 4.43 0 011.64.5 3.53 3.53 0 01-.79-.68c.11.11.06.16-.1.1l-.07-.17a1 1 0 01.77.49l.2.05c.06.09 0 .15 0 .21l.17.1a2.54 2.54 0 00-.36-.54z" class="cls-3"/><path d="M226 505.6h.17a5.3 5.3 0 00-.69 0c.09.08.28.04.52 0z" class="cls-3"/></g><g class="cls-2"><path d="M234.14 562.19c-1.14-.24-2.26-.58-3.38-.91a12.15 12.15 0 011.62.8 3.08 3.08 0 001.76.11zM227.64 560.36l-.59-.18h-.54zM221.77 558.7a28.34 28.34 0 003 1 18 18 0 00-3-1zM226.31 560.49c-.32-.25-.45-.44.17-.37-.6-.13-1.18-.3-1.78-.46a13.52 13.52 0 011.61.83zM226.31 560.49c.31.23.83.51 1 .63a9.69 9.69 0 00-1-.63zM223.8 563.23c-.63-.11-.19-1-1.44-1.17-1.43-.37-2.8-.58-4.1-1a39.69 39.69 0 01-3.85-1.31c-1.28-.25-2.61-2.13-3.82-2.48-.7-.27-1.68-.6-2.71-.93s-2-.78-2.86-1c-1.67-.57-2.52-.71-.54.41a80.19 80.19 0 008.05 3.89c1.26.5 2.52.93 3.8 1.42s2.61 1 4.06 1.39c2.39.6 4.7 1.25 7.09 1.63s4.73.93 7.2 1.25c1.36.25 2.61.6 3.87 1l-5.15-1.59a20.49 20.49 0 00-4.23-.67c-.8-.07-1.66-.13-2.56-.23l-1.38-.19c-.47-.17-.94-.29-1.43-.42zM259.71 566.55l-1.87.18a19.31 19.31 0 00-4.14-.8c-1.41-.16-2.86-.2-4.31-.25l1.22.64c1.64.14 1.86-.1.43-.49a37.08 37.08 0 009.69 1.5c-.18-.27-.12-.57-1.02-.78zM262.64 567.41l-1.91-.08a.47.47 0 00.06.09h1.92zM209.51 554.34a66.23 66.23 0 01-18.6-14 3.23 3.23 0 01-1.39-1.11 11.13 11.13 0 00-.93-1.53c-.73-.81-1.33-1.74-2-2.6l-.76-.87c-.47-.42-.48-.19-.36.2a10.1 10.1 0 01.43 1.12c-.07-.22-.31-.75-.43-1.12s-.52-1-.82-1.59a28.81 28.81 0 01-1.73-2.61 17.44 17.44 0 011.73 2.61 16.49 16.49 0 001.2 1.41l.39.37-1.11-1.5-1-1.58c-.64-1.07-1.35-2.09-1.93-3.19-.3-.48-.58-1-.81-1.33-.49-.76-1-1.52-1.36-2.24a5 5 0 01-.58-2l-.52-1.22v.27l-.13-.5c-.78-1.69-1.31-3.5-1.94-5.27a29.52 29.52 0 01-1.65-3.39l.11-1.35a5.51 5.51 0 01-1-1.9c-.05 1.06-.05 2 0 2.93-.08 1.37 1.67 2.47 1.38 4.15.29-1.68-1.46-2.78-1.38-4.15v-2.93a16.64 16.64 0 01-.79-5.92 15 15 0 01.74 3.11 16.64 16.64 0 01.05 2.81 5.51 5.51 0 001 1.9c0 .44-.11 1.35-.11 1.35a29.52 29.52 0 001.69 3.33l-.44-1.31-.36-1.33-.72-2.69c-.26-.89-.43-1.81-.62-2.73l-.56-2.77a122.61 122.61 0 01-1.66-17.9 169.43 169.43 0 01.76-17.74l.5-4.42.26-2.22.33-2.22.67-4.45c.22-1.45.55-3 .82-4.46l.41-2.25.48-2.24c.33-1.5.65-3 1-4.52.75-3 1.43-6.07 2.29-9.13l1.38-4.95 1.35-5 .67-2.5.58-2.5 1.14-5c.62-3.34 1.35-6.64 1.82-10 .25-1.66.56-3.31.77-5l.63-5a160.86 160.86 0 001.06-19.49c0-3.21-.13-6.39-.22-9.57s-.33-6.35-.64-9.51c-.49-6.33-1.25-12.64-2.06-19s-1.72-12.87-2.69-19.54a140.4 140.4 0 00-4.74-19.27c-2.17-7-4.78-13.81-6.65-18.45-3.22-5.95-5.31-6.85-6.38-6.21s-1.32 2.8-1.31 3.13c0 4.38.87 7.79 2.24 12.17a112.54 112.54 0 014.39 17.75c-1-5.44.14-3.67 1.56.84a62.54 62.54 0 012.84 17.13c-.19 7.72 1.23 16.61 2.5 26s2.39 19.27 1.88 28.44c-.17 2.29-.21 4.64-.28 7.11s-.19 5.05-.45 7.77c-.8 7-1.92 13.87-3.17 20.63l-1 5c-.34 1.68-.78 3.33-1.16 5l-2.49 10.39a248.28 248.28 0 00-6.12 44.61 90.26 90.26 0 002.64 22.79c.25 1.28.46 2.58.66 3.88s.5 2.6.75 3.86l.35 1.88c.12.61.3 1.21.45 1.8.3 1.17.6 2.29.9 3.31a57.92 57.92 0 008.29 16.07c-.93-1.26-1.6-2.54-2.33-3.74l-1.06-1.8c-.36-.6-.63-1.23-1-1.84-.6-1.25-1.28-2.5-1.87-3.87l-1.77-4.47c-.69-2.19-.19-1.5.68 0 .47.77 1 1.75 1.54 2.7s1 1.89 1.39 2.54c.72 1.07.57 3.38 1.32 4.47s1.42 2.38 2.2 3.52l.59.86.68.82 1.37 1.72c.88 1 0 1.38.45 1.87a35.54 35.54 0 004 3.93 17.1 17.1 0 013.22 3 25.3 25.3 0 001.85 2.17l1.79 2a17.56 17.56 0 002.53 2.22l1.88 1.21a2.09 2.09 0 01-.16-1.43c.4.35.86.81 1.32 1.26s1 .84 1.39 1.17c-.42-.33-.92-.72-1.39-1.17s-.92-.91-1.32-1.26a2.09 2.09 0 00.16 1.43l.85.55.91.5 1.85 1c1.24.69 2.49 1.42 3.82 2s2.63 1.27 4 1.86l4 1.6v-.11a43.7 43.7 0 01-4.37-2.22 42.52 42.52 0 01-4-3c1.16.91.86 1.06-.62.25l-.8-1.13c1.25.75 2.62 1.3 3.85 2a27.43 27.43 0 013.49 2.42l1.81.53c.77.53.6.78.67 1.1.59.25 1.16.55 1.78.76a39.53 39.53 0 00-2.7-2.1z" class="cls-3"/><path d="M184.62 532.76c.26.36.6.78 1 1.22a30.29 30.29 0 01-1.72-2.62c-.54-.9-1.11-1.77-1.63-2.68.15 1.19 1.27 2.63 2.35 4.08z" class="cls-3"/></g><g class="cls-2"><path d="M616.43 461.49h-1.31a1.92 1.92 0 01.68.3c.29.13.43-.09.63-.3zM613.91 461.55h-.23l-.19.1zM611.65 461.89a3.72 3.72 0 001.16-.07 2.78 2.78 0 00-1.16.07zM613.47 462.06c-.14-.14-.22-.28 0-.4l-.68.17a1.92 1.92 0 01.68.23zM613.47 462.06c.14.13.37.24.44.32a2.07 2.07 0 00-.44-.32zM613 465.48c-.23.12-.21-.84-.66-.62a13 13 0 01-3 .76c-.46.23-1.21-.82-1.66-.6-1.08.29-3.86 1.63-2.22 1.54 2.47-.19 4.08-.48 6.28-.69 1.79-.41 3.5-1 5.31-1.48a6.75 6.75 0 011.49 0l-2-.31c-.96-.21-2.03 1.09-3.54 1.4zM626.06 461.13l-.63.4a3.63 3.63 0 00-3.15.24l.52.42c.61-.13.65-.41.08-.55a6.91 6.91 0 003.68.13c-.11-.25-.14-.55-.5-.64zM627.26 461.6l-.7.17v.08l.69-.23zM606.81 462.86c-3 .14-5.92 0-8.72-.14-.22.18-.37.4-.66.28a2 2 0 00-.65-.35l-1.22-.06-.44.06c-.23.1-.17.25 0 .4a2.1 2.1 0 01.42.36c-.08-.08-.28-.22-.42-.36a2.16 2.16 0 00-.65-.3 3.82 3.82 0 01-1.17 0 2.55 2.55 0 011.17 0l.69-.1.2-.08-2.78-.24c-.22 0-.42 0-.59.06-.68.1-1.35.2-1.75-.28h-.5l.09.09-.18-.1-2.11-.2a14 14 0 01-1.42.49l-.45-.5a1.37 1.37 0 01-.81.43c.37.31.7.65 1 .86.46.51 1.11-.92 1.63 0-.52-.93-1.17.5-1.63 0-.31-.21-.64-.55-1-.86a2.9 2.9 0 01-2.2-.58 2.07 2.07 0 012.2.58 1.37 1.37 0 00.81-.43l.45.5a14 14 0 001.42-.49c-1.37-.12-2.76-.3-4.18-.45-9.11-1-17.55-1.55-27-2.66-5.12-.65-10-1.4-14.86-2.3a131.36 131.36 0 00-14.18-1.49 82.25 82.25 0 01-14.32-2.11 21.53 21.53 0 00-3.44-.39 30.84 30.84 0 00-4.08 0 62.88 62.88 0 00-7.66.85c-2.59 1.17-2.9 2.66-2.6 3.89a5.32 5.32 0 001.33 2.29 6.32 6.32 0 004.71 1.74 23.46 23.46 0 016.72.94c-4.12-1.12 3-2.33 6.82.13 5.47 3.77 13.5 1.17 20.41 2.57 1.72.34 3.56.29 5.64.51 10.66 2 20.8 1.2 32.19 2.19 3 .19 5.74-.57 8.32-.92 1.87-.07 3.83.51 5.35.57a30.14 30.14 0 006.44-.53c-2.2.09-3.82.29-6.28.35-1.64 0 1.19-1.19 2.28-1.42.47-.2 1.16.89 1.63.69a12.83 12.83 0 003-.59c.46-.2.38.76.62.66 1.48-.15 2.65-1.4 3.58-1.12.71.15 1.36.31 2 .47a5.49 5.49 0 001.22.07l.8-.23a2.59 2.59 0 01-.36-1c.39.06.94.28 1.33.34-.39-.06-.94-.28-1.33-.34a2.59 2.59 0 00.36 1 154.9 154.9 0 016.25-1.52V464a6.85 6.85 0 01-3.66-.51c.55.21.48.47-.14.54l-.47-.48c1.08-.26 2.14-.58 3.17.1l.69-.33c.34.12.33.43.41.68.24 0 .48-.05.71-.09a9.18 9.18 0 00-2.15-1.05z" class="cls-3"/><path d="M594.4 462.72l.59-.05-2.34-.22c.4.48 1.07.38 1.75.27z" class="cls-3"/></g></svg>