<svg xmlns="http://www.w3.org/2000/svg" id="Layer_1" x="0" y="0" version="1.1" viewBox="0 0 841.9 841.9" xml:space="preserve"><defs/><style>.st1{opacity:.85}.st2{fill:#090a0a}.st3{fill:#211f1e}.st4{fill:#1f2020}</style><path fill="#f9dec9" d="M0-.1h841.9v841.9H0z"/><g class="st1"><path d="M387.8 383c-.6 1-1.2 2.1-1.8 3.2.4-.5.7-1 1.2-1.5.3-.5.5-1.1.6-1.7zM384.3 389.1l-.3.6c-.1.2-.1.4-.2.5.2-.4.4-.7.5-1.1zM381.5 394.8c.6-.9 1.1-1.9 1.5-2.9-.5 1-1 1.9-1.5 2.9zM384.1 390.5c-.3.3-.5.4-.3-.2l-.8 1.7c.4-.6.7-1.1 1.1-1.5zM384.1 390.5l.9-.9-.9.9zM386.4 393.5c-.2.6-1 0-1.4 1.2-1.2 2.7-2 5.2-3.3 7.6-.4 1.2-2.3 2.5-2.7 3.7-1.2 2.7-3.7 10-1.6 6.1 3.1-6 4.9-10 7.7-15.4 2-4.5 3.8-8.9 5.9-13.4.6-1.3 1.3-2.4 2-3.5-.9 1.5-1.9 2.9-3 4.6-1.5 2.1-1.9 5.4-3.6 9.1zM401 359.7l-.6 1.8c-2 2.1-3.1 4.9-4.3 7.6l1-.9c.8-1.5.6-1.8-.3-.6 2-2.7 3.8-5.5 5.3-8.6-.2.1-.5-.1-1.1.7zM403 357.3l-.9 1.8h.1c.4-.6.6-1.2.8-1.8zM375.9 407c-4 7.4-7.8 14.4-11.6 21.1 0 .6-.2 1.2-.6 1.7-.4.4-.8.9-1.2 1.4-.5 1-1.1 2-1.7 3-.2.4-.3.7-.5 1.1-.2.6 0 .5.3.2l.9-.9-.9.9c-.4.5-.8 1-1.1 1.5-.4 1-1 1.9-1.5 2.8.4-1 1-1.9 1.5-2.8l.8-1.7c.1-.2.1-.4.2-.5-1.3 2.3-2.5 4.5-3.9 6.7-.3.5-.5 1-.8 1.4-.9 1.6-1.8 3.3-2.8 3.9l-.8 1.1.2-.2-.4.4c-1.1 1.6-2.4 3-3.6 4.5-.6 1.1-1.4 2.2-2.1 3.2l-1.2.6c-.3.7-.7 1.3-1.2 1.9.9-.5 1.9-1 2.6-1.5 1.2-.7 1.3-2.8 2.9-3.4-1.7.6-1.7 2.7-2.9 3.4-.7.5-1.7 1-2.6 1.5-1.3 1.6-3 2.8-4.8 3.8 1.3-1.6 3-2.9 4.8-3.8.5-.6.9-1.2 1.2-1.9l1.2-.6c.8-1.1 1.5-2.1 2.1-3.2-2.5 2.9-5.3 5.5-8.2 8a84.39 84.39 0 01-31.9 17.1c-5.8 1.7-11.8 2.7-17.9 3-6.3.4-12.5 0-18.7-1.1a80.8 80.8 0 01-19.3-6.3c-3-1.4-5.9-3.1-8.6-4.9-2.7-1.7-5.5-3.8-8.2-5.7-21.9-15.4-43.1-27.5-64.5-44.2-8.3-6.2-24.7-16.2-33.2-21.5-12.1-5.9-8.5 1.3-8.1 1.9 5 7.4 11.5 9.3 24.5 20.1-9-7.2 8.3 2.7 16.1 10.5 11.1 11.5 31.5 21.1 47.2 32.3 3.9 2.8 8.3 5.4 13.1 8.6 3.1 2.1 6 4.2 9.4 6.4 1.7 1 3.4 2 5.1 2.9l2.6 1.3 1.3.6 1.4.6c7.2 3.1 14.8 5.1 22.6 6l2.9.3 2.9.2c2 .2 3.9.1 5.9.1 4-.1 7.9-.4 11.8-.9 8.1-1.2 16-3.3 23.5-6.5 7.3-3.3 14-7.9 19.8-13.4 4.1-3.5 8.6-7.1 11.4-10.5 4.1-4.6 7.4-9.9 10-15.5-1.5 2.8-2.9 5.1-4.4 7.5-.8 1.2-1.6 2.4-2.5 3.6s-1.9 2.5-3 3.9c-1.6 1.8-1.2 1-.3-.6.5-.8 1-1.8 1.6-2.7s1.1-1.9 1.5-2.5c.6-1.2 2.7-2.2 3.2-3.5.8-1.2 1.5-2.4 2-3.7.6-1.3 1.1-2.6 1.8-4 .4-1.2 1.2-.6 1.4-1.2 1.7-3.7 2.1-7 3.6-9.1 1.1-1.6 2-3.1 3-4.6.6-.9 1.1-1.9 1.6-2.9.3-.7.5-1.4.8-2-.4.3-.9.4-1.4.4.5-.9 1.5-2.1 2-3-.5.9-1.5 2.1-2 3 .5 0 .9-.1 1.3-.4 2-4.9 4.5-10.6 6.9-15.8h-.1c-1.5 3-3.2 5.9-5.3 8.6.9-1.2 1-.9.3.6l-1 .9c1-2.8 2.5-5.3 4.3-7.6l.6-1.8c.6-.8.8-.6 1.1-.6l.9-1.8c-.9 1.2-2.1 2.7-3.3 4.3z" class="st2"/><path d="M359.6 437.2l.7-1.5-1.6 2.8-1.7 2.8c1.1-1.2 2-2.6 2.6-4.1z" class="st2"/></g><g class="st1"><path d="M289.5 473.1c.2.2.5.4.8.5-.1-.1-.3-.2-.3-.3-.2-.1-.4-.1-.5-.2zM291.2 473.9h.4-.4zM292.7 474.1c-.2-.1-.5-.1-.7-.1.2.1.5.1.7.1zM291.6 473.8c.1.1.1.2-.1.2h.5c-.1-.1-.3-.1-.4-.2zM291.6 473.8l-.2-.2.2.2zM292.4 472.2c.1 0 0 .4.3.4.7 0 1.3 0 2 .1.3 0 .6.6.9.6.8.1 2.4-.2 1.5-.4-.6-.1-1.3-.3-1.9-.4s-1.2-.2-1.9-.4l-.9.1h-1.2c-.2 0-.4-.1-.6-.3-.1-.2-.1-.5 0-.7-.1.3-.1.7 0 1 .1.2.5.2.8.1.3 0 .6-.1 1-.1zM288.7 466.7l.2.4c-.1.7-.1 1.4.2 2l.2-.3c-.1-.4-.2-.4-.3-.1.2-.8.1-1.6-.1-2.3 0 .1-.2.1-.2.3zM288.9 466c0 .1.1.3.1.4l-.1-.4z" class="st3"/><path d="M295.8 474.5c1.8.5 3.6.8 5.5.8.1-.1.2-.2.4-.2.1.1.3.1.4.1.3 0 .5 0 .8-.1l.3-.1c.1-.1.1-.1 0-.2-.1 0-.2-.1-.3-.1.1 0 .2.1.3.1.1 0 .3.1.4.1l.7-.2c-.2.1-.5.2-.7.2l-.4.1-.1.1c.6-.1 1.2-.1 1.8-.3l.4-.1c.4-.1.8-.4 1.1-.2l.3-.1h-.1.1c.4-.1.9-.3 1.3-.5.2-.2.5-.4.7-.6l.4.1c.1-.2.2-.3.3-.5h-.8c-.3 0-.4.7-.9.5.5.2.5-.5.9-.5h.8c.4-.3.8-.5 1.3-.6-.3.4-.8.7-1.3.6-.1.1-.3.3-.3.5l-.4-.1c-.2.2-.5.4-.7.6.8-.4 1.7-.8 2.5-1.2 2.5-1.6 4.6-3.8 6-6.4l.5-1c.2-.3.3-.7.4-1 .3-.7.5-1.4.7-2.2.1-.4.2-.8.2-1.2l.1-.6v-1.2c0-.2-.1-.4-.1-.7 0-.2-.1-.5-.2-.7l-.3-.6c-.2-.5-.6-.9-.9-1.2l-1.2-.9c-.8-.4-1.6-.8-2.4-1.1-1.6-.5-3.2-.9-4.7-1.3s-3-.7-4.4-1l-1-.2-1.2-.2-2.4-.3c-1.7-.1-3.4 0-5.1.4-1.9.4-3.7 1.3-5.3 2.4a9.05 9.05 0 00-3.1 5.2c-.4 1.8-.5 3.7-.2 5.6.7 1.7 1.5 2 2.1 1.8.4-.2.8-.4 1.1-.8.6-.9.9-1.8.9-2.9 0-1.3.4-2.6 1.2-3.6-.3.4-.5.6-.6.5-.1-.3-.1-.7.1-.9.1-.3.2-.5.4-.7.2-.2.4-.5.6-.7.2-.2.5-.4.8-.5.3-.1.6-.2.9-.2l2.3-.3c.4 0 .8-.1 1.2-.2s.9-.1 1.3-.2c1-.1 1.9-.1 2.9 0 .5.1 1 .1 1.5.2s1.1.3 1.7.4c1.1.3 2.3.4 3.6.6 1.6.4 3.2.7 4.5 1.1l.9.3c.3.1.5.2.6.3l.2.1.1.1c.1.1.1.2.2.2.3 1 .2 2-.1 3-.4 1.4-1 2.8-1.9 4-.8 1.3-1.6 2.5-2.5 3.7-.8.6-1.6 1.1-2.6 1.4-.3.1-.6.3-.8.4l-.8.4c-.5.3-1 .5-1.5.7.5-.2 1.1-.4 1.6-.6l.8-.4.8-.5c.8-.4-.3.8-.8 1.2-.2.2-.8-.2-1 0-.5.2-1.1.5-1.6.8-.2.1-.3-.3-.4-.3-.4.1-.7.3-1.1.5-.3.2-.6.3-.9.2-.4 0-.8-.1-1.2-.2-.2 0-.5-.1-.7-.1-.2 0-.3.1-.5.1.1.2.1.4.1.5-.2-.1-.5-.2-.8-.3.2.1.5.2.8.3 0-.2-.1-.4-.1-.5-1.3.1-2.6.1-3.8-.1.8.2 1.5.5 2.1.9-.3-.2-.2-.3.1-.2l.2.3c-.7.1-1.4-.1-1.9-.6h-.5c-.2-.1-.1-.3-.1-.4l-.4-.1c.1.8.5 1.1.9 1.3z" class="st3"/><path d="M303.6 475l-.4.1.7-.1.7-.2c-.1-.1-.5.1-1 .2z" class="st3"/></g><path d="M299.3 471.1c2.9 1.6 6.6.5 8.1-2.4 1.6-2.9-.3-4.4-3.2-6s-5.8-2.7-7.4.3a6.1 6.1 0 002.5 8.1z" class="st4"/><g class="st1"><path d="M297.5 469c-.1-.1-.1-.2-.2-.3v.2c0 .1.1.1.2.1zM297.2 468.4h-.1v-.1zM296.9 467.9c0 .1.1.2.1.3 0-.1-.1-.2-.1-.3zM297 468.4c0-.1 0-.1 0 0v-.1.1zM297 468.4v.1-.1zM296.2 468.6c-.1 0 .2-.1.1-.2-.2-.2-.3-.5-.5-.8-.1-.1.1-.4 0-.5-.1-.3-.5-1.1-.5-.6.1.6.3 1.2.6 1.8.3.4.6.8 1 1.2.1.1.2.2.2.4l-.2-.5c0-.3-.5-.4-.7-.8zM299.2 470.8h-.2c-.1-.2-.4-.4-.6-.5v.2c.1.1.2 0 .1-.1.2.3.4.5.7.7v-.3zM299.3 471.1l-.2-.1.2.1z" class="st3"/><path d="M296.3 466.8c-.1-.8-.1-1.5.1-2.3 0-.1-.1-.1 0-.2.1 0 .1-.1.1-.1 0-.1.1-.2.1-.3v-.1c0-.1 0-.1-.1 0l-.1.1.1-.1.1-.1c0-.1.1-.2.1-.3 0 .1-.1.2-.1.3V464c.1-.2.2-.4.3-.7v-.1c.1-.2.1-.3.3-.4l.1-.1c.1-.1.2-.3.4-.4.1-.1.1-.2.2-.3h.2c0-.1 0-.2.1-.2h-.4c-.2 0 0 .4-.3.3.3.1.1-.3.3-.3h.4c.1-.1.4-.2.5-.1-.1.2-.4.1-.5.1-.1.1-.1.1-.1.2h-.2c-.1.1-.1.2-.2.3.3-.2.6-.4.9-.5 1.1-.3 2.2-.1 3.2.4 1.1.5 2.1 1 3.1 1.7 1.1.7 2.1 1.6 2.2 2.5 0 .5-.1.9-.2 1.3-.2.5-.5.9-.8 1.3-.6.8-1.6 1.3-2.7 1.3-.4 0-.9.1-1.5 0-.5 0-.9-.1-1.4-.2-.4 0-.8.2-1 .5-.1.2-.1.4-.1.6.1.5.5.9 1 1 .7.2 1.3.4 2 .5-.6-.1-.4-.3.1-.3.7-.1 1.3-.1 2-.1 1.1 0 2.2-.4 2.9-1.3.4-.4.7-.9 1-1.5.3-.5.5-1.1.8-1.6.2-.7.3-1.5.1-2.2-.2-1-.7-1.9-1.5-2.5-.6-.5-1.3-1-2-1.3-1.4-.8-2.8-1.4-4.3-1.9-1.5-.2-3.1.2-4.4 1-.5.5-.9 1.1-1.1 1.8.2-.6.6-1.2 1-1.7.4-.4-.1.5-.2.8 0 .1-.4.2-.4.3l-.3.9c0 .1-.2 0-.2.1-.1.4.1.8 0 1.1-.1.2-.2.4-.2.5 0 .1-.1.2-.1.4v.2c.1-.1.2-.1.2-.1 0 .1-.1.3-.1.4 0-.1.1-.3.1-.4-.1 0-.2 0-.2.1.1.6.3 1.2.5 1.7-.1-.3-.1-.7 0-1 0 .1-.1.1-.1 0l.1-.1c.1.3.1.6.1.9 0 .1.1.1.1.2s-.1.1-.1.1l.1.2c.1-.1.1-.2.1-.4-.1-.1-.1-.2-.1-.2z" class="st3"/><path d="M296.7 463.6v.1c.1-.2.2-.4.3-.5-.2 0-.3.2-.3.4z" class="st3"/></g><g class="st1"><path d="M451.9 384.5l1.7 3.2-.6-1.8a3 3 0 00-1.1-1.4zM455.2 390.7l.3.6.3.5-.6-1.1zM458.4 396.2c-.5-1-1-1.9-1.6-2.8.5 1 1 1.9 1.6 2.8zM456.2 391.6c.1.4 0 .6-.4.1.3.5.7 1.1 1 1.6-.2-.5-.4-1.1-.6-1.7zM456.2 391.6c-.1-.4-.2-1-.3-1.2l.3 1.2zM460 391.4c.4.5-.5.8.3 1.9 1.7 2.5 3.3 4.5 4.6 7 .8 1 .8 3.3 1.6 4.3 1.7 2.5 6.5 8.6 4.2 4.7-3.4-5.9-5.7-9.7-8.7-14.9-2.7-4.2-5.4-8.1-8.1-12.4-.7-1.2-1.3-2.4-1.9-3.6l2.2 5c1 2.4 3.6 4.6 5.8 8zM439.5 360.4l1.2 1.5c.9 2.8 2.3 5.5 4.1 7.8-.1-.5-.1-.9-.2-1.4-.9-1.5-1.2-1.5-.6-.1-1.1-3.2-2.6-6.3-4.3-9.2-.2.4-.5.5-.2 1.4zM438.6 357.4c.3.6.7 1.1 1 1.7v-.1l-1-1.6z" class="st2"/><path d="M465.6 407.7c4.1 7.5 7.9 14.5 11.5 21.4.5.4.9.9 1.1 1.5.1.6.3 1.2.6 1.8l1.6 3 .6 1c.4.5.4.3.4-.1l-.3-1.2c0 .2.2.8.3 1.2.2.6.4 1.2.6 1.7.5.9 1.1 1.8 1.6 2.8-.6-.9-1.2-1.8-1.6-2.8l-1-1.6-.3-.4 1.8 3.5 1.9 3.4c.3.5.6.9 1 1.3 1.1 1.2 2 2.7 2.7 4.2l.8 1.1c0-.1-.1-.2-.1-.3.1.2.2.3.2.5l.9 1.2 1 1.1 1.9 2.3c1 .8 2.1 1.6 3.1 2.5 0 0 .4.9.6 1.3.7.3 1.4.7 2 1.1-.6-.9-1.1-1.8-1.6-2.6-.6-1.3-2.8-1.4-3.2-3.2.4 1.8 2.6 1.9 3.2 3.2.5.8 1 1.6 1.6 2.6 1.6 1.3 3.1 2.8 4.4 4.4-1.8-1.1-3.4-2.6-4.4-4.4-.6-.5-1.2-.9-2-1.1-.2-.4-.6-1.3-.6-1.3-1-.9-2.1-1.6-3.1-2.5 2.6 3 5.4 5.7 8.4 8.3 9.7 8.2 20.9 14.5 33 18.4 12.3 4.1 25.3 6 38.2 5.6 7.2-.2 14.4-1.2 21.5-2.9 6.9-1.7 13.6-4.4 19.8-7.8.8-.4 1.6-.9 2.3-1.3l2.1-1.4 4.1-2.9 8-5.7 15.7-11.5c10.5-7.6 21-15.1 32.7-22.2 8.9-5.5 24.2-17.5 32.3-23.6 9.9-9.3 1.8-8.5 1.2-8.3-8.8 2.1-12.8 7.6-27.6 16 9.9-5.9-5.5 6.9-15.6 11.4-14.8 6.4-31.1 22.1-47.2 32.9-2 1.4-4 2.8-6.1 4.4l-3.2 2.4c-.5.4-1.1.8-1.7 1.2l-1.6 1c-.8.4-1.4.8-2.2 1.2l-2.3 1.1-1.2.6-1.2.5-2.4 1c-1.6.6-3.2 1.2-4.8 1.7s-3.2 1-4.9 1.4a96.68 96.68 0 01-62.3-4.9c-7.3-3.1-13.8-5.9-19.5-9.5-3.8-2.8-7.3-6-10.4-9.5-3.9-4-7.4-8.3-10.6-12.9l1.1 1.8c.4.6.8 1.1 1.2 1.6.8 1 1.5 2.1 2.3 3.1 1.6 2 3.4 4 5.6 6.3 1.5 1.5.8 1.2-.6.2-.8-.6-1.6-1.2-2.3-1.8-.7-.6-1.4-1.2-2-1.9-.9-.9-1.3-3-2.1-3.9-.7-1.1-1.5-2.1-2.4-3.1-.8-1-1.6-2.1-2.4-3.3-.8-1 .1-1.4-.3-1.9-2.1-3.5-4.7-5.6-5.7-8.1l-2.2-5-1.5-3-1.3-1.8c0 .5-.1 1-.4 1.4-.5-1-1-2.4-1.5-3.4.5 1 1 2.4 1.5 3.4.3-.4.4-.9.4-1.4a526 526 0 01-9.5-14.5v.1c1.7 2.9 3.2 6 4.3 9.2-.5-1.4-.2-1.4.7.1.1.5.1.9.2 1.4-1.8-2.4-3.1-5-4.1-7.8l-1.2-1.5c-.3-.9 0-1 .1-1.3-.3-.6-.7-1.1-1-1.7.2 1.8.8 3.7 1.4 5.5z" class="st2"/><path d="M482.1 438.1l-.8-1.4c.5 1 1 1.9 1.5 2.9l1.6 2.9c-.2-1.3-1.3-2.8-2.3-4.4z" class="st2"/></g><g class="st1"><path d="M554.2 465.8l-.6.3h.5c.1-.1.1-.2.1-.3zM553 466.1h-.1l-.1.1.2-.1zM551.7 466.5c.3 0 .5-.1.7-.2-.2.1-.5.1-.7.2z" class="st3"/><path d="M552.8 466.4c-.1 0-.2-.1-.1-.2l-.3.1c.2 0 .3.1.4.1zM552.8 466.4c.1 0 .2.1.3.1-.1 0-.2-.1-.3-.1zM552.9 468.1c-.1.1-.2-.4-.5-.2-.5.3-1.1.6-1.7.8-.2.2-.8-.2-1.1 0-.5.3-2.3 1.4-1.2 1.1.7-.2 1.3-.4 2-.7.6-.2 1.1-.4 1.7-.6l.8-.4c.4-.1.8-.2 1.1-.4.3-.1.6-.3.9-.5.3-.2.5-.4.7-.8.1-.3.2-.7.3-1.1-.1.5-.3.9-.6 1.3-.3.2-.5.4-.9.7-.5.4-1 .7-1.5.8zM555.3 460.1c0 .1.1.5.1.5-.4.6-.5 1.3-.4 2l.3-.3c0-.4-.1-.5-.2-.1.4-.7.6-1.5.7-2.2-.3 0-.4 0-.5.1zM555.7 459.5v0z" class="st3"/><path d="M548.8 467.8c-1.7.5-3.6.8-5.4.7-.1.1-.2.2-.4.1-.1-.1-.3-.2-.4-.2-.3 0-.5-.1-.8-.1h-.3c-.2 0-.1.1 0 .2l.2.2s-.2-.1-.2-.2c-.1-.1-.3-.2-.4-.2-.2 0-.5 0-.7-.1.2 0 .5.1.7.1h.5c-.6-.1-1.1-.2-1.7-.4h-.4c-.4 0-.8-.1-1-.4l-.3-.1v.1l-.1-.1-1.2-.6c-.3 0-.6-.1-.9-.1 0 0-.1-.2-.1-.4-.2.1-.4.1-.5 0 .1.2.2.5.4.7.2.4.8-.1.9.4-.1-.6-.8 0-.9-.4-.1-.2-.3-.5-.4-.7-.5-.2-.8-.5-1-1 .5.2.8.5 1 1 .2.1.4.1.5 0 0 .1.1.4.1.4.3.1.6.1.9.1-.8-.4-1.5-.9-2.2-1.4-2.2-1.6-3.9-3.8-5.1-6.2l-.4-.9c-.1-.3-.2-.6-.3-1-.2-.6-.4-1.3-.5-1.9-.3-1.2-.2-2.4.4-3.5.6-1 2-1.5 3.4-1.8 1.5-.3 3-.4 4.5-.5 1.5-.1 3.1-.3 4.6-.5l1.1-.2 1-.1c.7-.1 1.3-.2 2-.2 1.3 0 2.5.2 3.7.6 1.1.4 1.9 1.2 2.5 2.1.5.8 1 1.8 1.2 2.8.3 1.1.4 2.3.3 3.4.2 1.3.8 1.8 1.5 1.9.5.1.9 0 1.3-.3.9-.7 1.5-1.7 1.5-2.8.1-1.7 0-3.3-.3-4.9.2.8 0 1-.1 1s-.3-.5-.6-1c-.2-.3-.3-.6-.5-1s-.4-.7-.6-1.1-.5-.7-.7-1.1-.5-.7-.7-1.1c-.7-1.1-1.7-1.9-2.8-2.5-.6-.3-1.3-.5-1.9-.6-.7-.1-1.3-.2-2-.2-1.3 0-2.7.1-4 .3l-1.9.3c-.5.1-1.1.2-1.6.2-1.1.1-2.2.3-3.5.5-1.8.1-3.6.4-5.4.9-.5.2-1 .3-1.5.5s-1.1.5-1.6.9c-.3.2-.5.4-.8.6s-.5.5-.8.8c-.5.6-.9 1.2-1.2 1.9l-.3 1c-.1.3-.2.7-.2 1v1.4l.1.4c.1.5.1 1.1.3 1.6l.4 1.5c.7 1.9 1.6 3.8 2.7 5.5 1.2 1.6 2.8 2.9 4.5 3.8 1 .8 2 1.5 3.1 2.2.4.2.8.4 1.1.5s.8.2 1.1.3c.7.2 1.4.3 2.1.3-.7-.1-1.4-.3-2.1-.5l-1-.3c-.3-.1-.7-.3-1.1-.5-1-.5 1-.2 1.7 0 .3 0 .6.7 1 .7.7.2 1.4.2 2.1.2.3 0 .2.4.4.4.5 0 .9-.1 1.4-.2.3-.1.7-.2 1.1-.1.4.1.9.2 1.3.2h.8l.5-.2c-.1-.1-.2-.3-.3-.5h.9-.9c.1.2.2.3.3.5 1.3-.5 2.6-1 3.8-1.6-.7.3-1.5.4-2.3.3.4 0 .4.2 0 .3l-.3-.2c.6-.4 1.3-.5 2-.4l.4-.3c.2 0 .3.1.3.3l.4-.2c-.2-.2-.8-.3-1.4-.3z" class="st3"/><path d="M541.1 468.3h.4l-.7-.1-.7-.2c.2.2.6.3 1 .3z" class="st3"/></g><path d="M545.4 464.6c-2.9 1.6-6.6.5-8.1-2.4-1.6-2.9.3-4.4 3.2-6s5.8-2.7 7.4.3c1.5 2.9.4 6.5-2.5 8.1z" class="st4"/><g class="st1"><path d="M547.8 462.9c.1-.1.1-.2.2-.3 0 0-.1.1-.2.1v.2zM548.2 462.3v-.1.1zM548.4 461.7c0 .1-.1.2-.1.3 0-.1.1-.2.1-.3zM548.1 462.1s.1 0 0 0l.1-.1c0 .1 0 .1-.1.1zM548.1 462.1l-.1.1.1-.1zM547.4 461.6c0-.1.2 0 .2-.1 0-.3 0-.5.1-.8 0-.1.3-.2.2-.3 0-.3-.3-1-.3-.6 0 .5-.1 1-.2 1.4-.1.4-.2.9-.4 1.3-.1.1-.1.2-.2.3l.4-.3c.2-.1.1-.5.2-.9zM545.7 464.6l.1-.2c.3 0 .6-.2.7-.5h-.2c-.1.1-.1.2.1.1-.3.1-.6.2-.9.4.1.2.1.3.2.2zM545.4 464.7l.2-.1-.2.1z" class="st3"/><path d="M548.5 460.4c.1-.8.1-1.6 0-2.4-.1 0-.1-.1-.1-.1v-.2c0-.1-.1-.2-.1-.3l-.1-.1h-.1v-.2c-.1-.1-.1-.2-.1-.3.1.1.1.2.1.3l.1.2c-.1-.2-.2-.5-.3-.7l-.1-.1c-.1-.1-.2-.3-.2-.4l-.1-.1c-.1-.2-.2-.3-.4-.5l-.4-.2v-.2h-.2l.1.3c0 .2.4 0 .3.3 0-.3-.3-.1-.3-.3l-.1-.3c-.2-.1-.4-.2-.5-.4.2 0 .4.2.5.4h.2v.2l.4.2c-.3-.3-.6-.6-1-.7a5 5 0 00-3.8.1c-1.2.5-2.3 1-3.4 1.6-.6.3-1.2.7-1.8 1.1-.6.5-1.1 1.1-1.4 1.9-.2.8-.2 1.6.1 2.4.2.7.6 1.3 1 1.9.9 1.2 2.1 2.2 3.5 2.8a6.37 6.37 0 004.7-.1c.7-.5.6-.9.5-1.2-.1-.2-.3-.3-.5-.5-.4-.2-.8-.2-1.3-.1s-1.1.1-1.6-.1c.5.2.3.3-.1.3-.5 0-1.1-.2-1.4-.7-.4-.6-.9-1.1-1.5-1.5-.3-.2-.5-.5-.8-.8-.2-.3-.4-.6-.4-1-.1-.3-.1-.5 0-.8.6-.8 1.4-1.5 2.3-2 1.1-.8 2.3-1.3 3.6-1.8.5-.2 1-.3 1.5-.4.3.1.6.2.7.5l.9.9c-.2-.4-.5-.7-.8-1-.2-.2.4-.1.6.1s0 .3.1.4c.1.2.3.4.5.5.1.1-.1.2-.1.2.2.3.5.5.5.7v.8l.1.2c.1-.1.2-.1.2-.1 0 .1-.1.2-.1.3 0-.1.1-.2.1-.3-.1 0-.2 0-.2.1.2.5.3 1 .2 1.6 0-.3.1-.6.3-.9-.1.1-.1.1-.1 0l.1-.1c.1.3.1.6-.1.8v.2c0 .1-.1.1-.2.1v.2l.3-.3c.1-.3.2-.4.2-.4z" class="st3"/><path d="M548.2 457c0 .1 0 .1.1.1-.1-.2-.1-.4-.2-.6-.1.3 0 .4.1.5z" class="st3"/></g></svg>