<svg xmlns="http://www.w3.org/2000/svg" id="Layer_1" x="0" y="0" version="1.1" viewBox="0 0 841.9 841.9" xml:space="preserve"><defs/><style>.st1{opacity:.85}.st2{fill:#fefefe}.st3{fill:#e0caca}</style><path fill="#7f563a" d="M-.1 0h841.9v841.9H-.1z"/><g class="st1"><path d="M85.1 384.5l1.2 4.6-.3-2.4c-.2-.8-.5-1.5-.9-2.2zM87.6 393.3l.3.8c.1.2.2.5.3.7l-.6-1.5zM90.6 401c-.5-1.4-1.1-2.7-1.6-3.9.5 1.4 1 2.7 1.6 3.9zM88.6 394.8c0 .5 0 .8-.4 0 .3.8.6 1.5.9 2.3-.2-.7-.4-1.5-.5-2.3zM88.6 394.8c0-.5-.2-1.3-.2-1.6 0 .5.1 1.1.2 1.6zM92.4 395.6c.4.7-.6.9.2 2.3l2.4 4.9c.8 1.5 1.6 3 2.3 4.6.4.9.7 1.8.9 2.8.2.9.5 1.9 1 2.7.5.8 1.2 1.9 2 3.1s1.7 2.2 2.3 3.1c1.4 1.7 2.1 2.4.7 0-1.1-1.8-2.1-3.5-3-5.1s-1.7-3.1-2.5-4.6c-1.5-3.1-3-6-4.5-9.6-2.7-5.7-5-11.5-6.9-17.5-.5-1.8-.8-3.4-1.1-5.1.4 2.2.7 4.5 1.2 6.9.4 1.8 1.1 3.6 1.9 5.2 1.1 1.9 2.2 3.9 3.1 6.3zM80.7 349.8l.4 2.5c-.2.9-.2 1.9-.2 2.8 0 .9 0 1.9.1 2.9l.3 2.9c.1 1 .3 1.9.5 2.9l.3-1.8c-.3-2.2-.6-2.4-.6-.4.1-2.3.1-4.5 0-6.6-.1-1.1-.1-2.2-.1-3.2s-.1-2.2-.1-3.2c-.2 0-.5 0-.6 1.2zM81.2 345.8c0 .9.1 1.7.1 2.5l.1-.1c0-.8-.1-1.7-.2-2.4z" class="st2"/><path d="M98.8 416.6c4.9 9.2 10.8 17.9 17.5 26 .7.4 1.3 1 1.8 1.6.4.7.8 1.4 1.3 2 .9 1.1 2 2.2 3 3.3l1.1 1.1c.7.5.6.2.3-.2s-.6-.9-.8-1.4c.1.3.6.9.8 1.4.4.7.9 1.3 1.4 1.9 1 .9 2 1.8 3.1 2.9-1.1-.9-2.1-1.8-3.1-2.9l-1.8-1.7-.6-.5c2.2 2.5 4.7 4.8 7.1 7.1.6.5 1.2 1 1.6 1.3 1.7 1.2 3.3 2.7 4.7 4.3l1.4 1.1c-.1-.1-.1-.2-.2-.3l.5.5 3 2.4c1 .8 2 1.5 3.1 2.3 1.5.8 2.9 1.6 4.4 2.4l1.2 1.3c.9.3 1.8.6 2.6 1.1l-2.7-2.7c-1.2-1.3-3.7-1.4-4.8-3.2 1.1 1.9 3.6 2 4.8 3.2.9.8 1.7 1.7 2.7 2.7.5.3 1.1.6 1.6 1s1.2.7 1.8 1.1c1.1.7 2.2 1.6 3.3 2.4-1.3-.6-2.6-1.2-3.8-2.1-.6-.4-1.1-.8-1.6-1.2s-.9-.8-1.3-1.2c-.8-.5-1.7-.9-2.6-1.1l-1.2-1.3c-1.5-.8-3-1.6-4.4-2.4l3 2.2c1 .7 2.1 1.4 3.1 2.1l3.2 2.1 3.3 2c7 4.2 14.4 7.8 22 10.8 40.7 15.2 85.9 12.9 124.9-6.1 7.9-3.9 15.3-8.4 22.3-13.7 1.7-1.3 3.4-2.6 5.1-4l4.9-4.2 4.7-4.4c1.5-1.5 3-3 4.5-4.6 5.9-6.3 11.3-13 16.3-20 5.1-7.3 9.7-14.9 13.8-22.8 4-8.1 7-16.5 9.1-25.3 2.1-8.6 3.4-17.4 3.9-26.3 0-1.1 0-2.2-.1-3.1s-.2-1.8-.3-2.5c-.2-1.2-.4-2.3-.8-3.4-.6-1.6-1.2-2.1-1.9-2-1.3.2-2.4 2.6-2.5 3-.5 1.3-.8 2.6-1.2 3.9-.3 1.3-.7 2.5-.9 3.8s-.5 2.6-.7 4-.5 2.8-.7 4.3a99 99 0 01-6.2 23.3c2.5-6.8 2.4-4.1.8 1.9-1.1 3.6-2.4 7.1-4 10.5-.4.9-.9 1.9-1.3 2.8s-1 1.8-1.5 2.6c-.9 1.6-1.9 3.2-3 4.7-6 8-12.3 18-20.1 27.6-2 2.4-4 4.8-6.1 7.1-1.1 1.1-2.1 2.4-3.2 3.5l-3.4 3.3c-1.1 1.1-2.3 2.1-3.5 3.2s-2.3 2.1-3.6 3c-2.4 1.9-4.9 3.7-7.4 5.4-5.4 3.7-11 7.1-16.8 10.2-16.4 8.1-34.1 13.3-52.3 15.5-18.7 2.2-37.7.7-55.8-4.6-10-2.9-18.8-5.6-26.9-9.3l-2.2-1.1-2.1-1.2c-1.4-.8-2.8-1.7-4.2-2.5l-3.8-2.6-1.8-1.2-1.7-1.2c-6.8-4.7-12.4-9-17.7-13.4 5.4 4.8 11.1 9.3 17.1 13.2 2.3 1.6 1.4 1.3-.6.3-1-.5-2.2-1.1-3.4-1.8s-2.3-1.4-3.1-1.9c-1.4-.9-2.8-3.2-4.1-4.1-1.3-1.1-2.7-2.2-4.1-3.2s-2.7-2.1-4.2-3.4c-1.3-1-.5-1.5-1.2-2-1.7-1.6-3.5-3.1-5.3-4.5a28.74 28.74 0 01-6-6.8l-1.9-2.8c-.8-1.1-1.6-2.3-2.5-3.5l-1.8-2.2c.2.5.1 1.1-.1 1.6-.8-1.1-1.7-2.8-2.4-4 .7 1.2 1.6 2.9 2.4 4 .2-.5.2-1.1.1-1.6-4.7-5.7-8.8-11.8-12.4-18.2v.1c1 1.9 2 3.8 2.9 5.7s1.9 3.9 2.8 6c-.8-1.8-.4-1.7.7.2l.5 1.7c-1.2-1.5-2.2-3.1-3.2-4.8-1-1.6-1.8-3.3-2.3-5.2l-1.4-2c-.4-1.1-.1-1.2 0-1.6l-.6-1.1-.6-1.1c.3 1.5.8 2.9 1.3 4.3l1 3.2z" class="st2"/><path d="M125.2 452.4l-1.5-1.5 1.5 1.5 1.4 1.6 3 3c-.7-1.5-2.5-3.1-4.4-4.6z" class="st2"/></g><g class="st1"><path d="M215.2 443.8c.4.4.9.7 1.4 1-.2-.2-.4-.5-.6-.8-.2-.3-.5-.2-.8-.2zM217.9 445.7l.3.2h.3c-.2-.1-.4-.2-.6-.2zM220.8 446.7c-.5-.2-.9-.4-1.4-.6.4.3.8.5 1.4.6z" class="st2"/><path d="M218.7 445.5c.1.2.1.4-.2.4l.9.3c-.3-.2-.5-.4-.7-.7zM218.7 445.5c-.1-.2-.3-.4-.3-.6 0 .3.1.4.3.6zM220.8 442.8c.3 0-.2.9.4.9.6.1 1.2.2 1.8.2.6.1 1.1.1 1.7.2.5-.1 1.1 1.2 1.7 1 .8 0 1.7-.2 2.5-.6.7-.3 1-.6.1-.6-.6 0-1.2 0-1.8-.1-.5 0-1.1-.1-1.6-.2s-1.1-.1-1.6-.2l-1.7-.4-1.5-.3c-.5-.1-1-.2-1.5-.4l-1.5-.5-1.4-.7c-.5-.3-.9-.7-1.2-1.2.2.3.4.6.7.9l.8.9c.5.4 1.1.7 1.8.7.8 0 1.6.2 2.3.4zM207.5 433.9l.7.6c0 .7.3 1.4.7 1.9.4.6.9 1.1 1.4 1.5v-.8c-.5-.6-.8-.5-.5.2-.4-1.5-1-2.9-1.8-4.3-.2.3-.5.4-.5.9z" class="st2"/><path d="M207.5 432.4l.5.8.1-.1-.6-.7z" class="st2"/><path d="M227 447.5c.9.1 1.9.2 2.8.2.9 0 1.9-.1 2.8-.1s1.8-.2 2.7-.4 1.8-.4 2.6-.7c.2-.3.3-.5.7-.6h.9c.5-.2 1-.4 1.4-.6l.5-.3c.2-.2.1-.3-.2-.4-.2 0-.4 0-.6-.1.1 0 .4 0 .6.1.3 0 .6 0 .9-.1.4-.3.8-.6 1.2-.8-.4.3-.8.6-1.2.8l-.7.5-.2.2c1.1-.5 2.1-1 3.2-1.6.2-.2.4-.3.6-.5.5-.6 1.2-1.1 1.9-1.2l.5-.4h-.1l.2-.1c.7-.6 1.4-1.1 2.1-1.8.3-.5.5-1.1.8-1.7l.8-.1c0-.4.1-.8.3-1.1-.5.2-1.1.3-1.4.5-.7.1-.2 1.6-1.3 1.5 1.1.1.6-1.4 1.3-1.5.4-.2.9-.3 1.4-.5.5-.8 1.2-1.5 2-2-.3 1-1 1.7-2 2-.2.3-.3.7-.3 1.1l-.8.1c-.3.5-.6 1.1-.8 1.7.7-.6 1.3-1.2 1.9-1.9l1.8-2.1c3.7-4.7 5.7-10.5 5.7-16.5-.1-3.1-.8-6.1-2.1-8.8-.7-1.4-1.4-2.7-2.3-4l-1.5-1.9c-.5-.6-1-1.2-1.6-1.8a41.4 41.4 0 00-16.8-10.7c-3.2-1.1-6.6-1.6-9.9-1.4-3.5.2-6.9 1.2-10 2.9-3 1.8-5.7 4.1-7.9 6.9-2.2 2.8-4.1 5.8-5.6 9-1.4 3.3-2.1 6.8-2.1 10.4 0 1 0 2 .1 2.9l.3 2.8c.1.9.3 1.8.5 2.5l.6 2.2c.2.4.4.7.6 1.1.2.3.4.6.7.8.4.4.8.7 1.3 1 .6.3 1.4.3 2 0 .8-.5 1.5-1.2 1.9-2 .2-.5.4-1.1.6-1.6l.3-1.4v-1.4-1.4c-.1-1.1-.1-2.2-.1-3.4.1-1.5.5-3 1.1-4.4-.8 2.3-1.3 1.4-1.2-.7.1-1.2.4-2.4.9-3.6.5-1.2 1.2-2.3 2.2-3.2 2.8-2.2 4.6-4.8 7-7 1.2-1.1 2.5-2 4-2.6.8-.3 1.6-.5 2.4-.6.4 0 .9-.1 1.3-.1s.9 0 1.3.1c.9.2 1.7.1 2.7.3.5.1 1 .1 1.4.2l1.5.4c2.6 1 5.1 2.2 7.5 3.5 2.4 1.3 4.5 3 6.5 4.9 1.8 1.7 3.3 3.8 4.3 6.1.9 2.4 1.1 5 .6 7.5-.4 2.8-.6 5.7-1.6 8.3-.2.5-.5.9-.8 1.3-.3.4-.6.8-1 1.2-.7.7-1.3 1.4-1.9 1.9-1.7 1.9-3.2 3.5-4.8 4.9 1.8-1.3 3.4-2.9 4.8-4.7.6-.6.6-.2.4.5-.1.4-.3.8-.5 1.2-.2.3-.4.7-.6 1-.3.5-1.5.2-1.8.7-.4.3-.8.7-1.2 1.2-.4.4-.8.8-1.2 1.3s-.8-.4-.9-.2c-.6.5-1.2 1-1.6 1.6-.4.5-.9.8-1.5 1-.7.1-1.5.2-2.2.2-.4.1-.9.1-1.3.2l-.8.4c.2.3.4.6.5 1h-.8c-.3 0-.6-.1-.8-.1.2 0 .5.1.8.1h.8c-.1-.4-.3-.7-.5-1-2.3.9-4.8 1.2-7.2 1.1v.1c.7.1 1.4.2 2.1.4.8.2 1.5.4 2.2.7-.7-.2-.6-.5.2-.5.2.2.4.3.6.5-.7.2-1.3.2-2 .2s-1.3-.2-1.9-.6l-.9.2c-.4-.2-.3-.5-.3-.8-.3-.1-.6-.1-.9-.1.4.4.8.7 1.3 1 .3.4.8.7.8.7z" class="st2"/><path d="M242.1 444.6c-.2.1-.4.3-.6.4.5-.2.9-.4 1.3-.7l1.3-.7c-.6-.1-1.3.5-2 1z" class="st2"/></g><circle cx="230.2" cy="420.9" r="8.8" class="st3"/><g class="st1"><path d="M235.3 426.4l-.4.3c.1 0 .3 0 .4.1.2 0 .1-.2 0-.4zM234.5 426.9l-.1.1c.1 0 .1 0 .1-.1zM234 427.6c.1 0 .3-.1.4-.2-.2-.1-.3 0-.4.2zM234.7 427.4c-.1-.1-.2-.2-.2-.3 0 .1-.1.2-.1.2s.2.1.3.1zM234.7 427.4c.1.1.3.1.3.2l-.3-.2zM236.3 430.4c-.1.2-.5-.7-.6-.4-.3.5-.6 1.1-1.1 1.3-.1.3-.9-.6-1-.3-.3.4-.6.7-.9 1.1-.2.4-.4.8.1.6 1.1-.4 2.2-1 3.1-1.8.6-.8 1.1-1.7 1.5-2.6.1-.2.3-.3.5-.5-.3.1-.6.3-1 .4s-.3.4-.3.8c.1.6 0 1-.3 1.4zM237.8 423.8l.2.4c-.8.1-.7.5-.7 1l.5.1c.1-.2-.1-.4-.4-.3.6-.1 1-.5 1.1-1.1-.3 0-.6-.2-.7-.1zM238.5 423.6v.3h.1l-.1-.3z" class="st2"/><path d="M232.6 429.1c-1.1.4-2.3.4-3.5.1-.1.2-.2.4-.3.2 0-.1-.1-.3-.2-.4-.2 0-.3-.1-.5-.2h-.1c-.1.1-.1.2-.1.4 0 .1.1.3.1.4 0-.1-.1-.2-.1-.4 0-.1-.1-.2-.2-.3-.2 0-.3 0-.4-.1.2 0 .3 0 .4.1h.3l.1-.1c-.3-.1-.7-.3-1-.5h-.2c-.3 0-.6 0-.5-.5l-.1-.1v0c-.2-.2-.4-.3-.6-.5-.3.1-.5.1-.8.1 0 0 .1-.3.2-.5-.2.1-.4.2-.6.1-.1.3-.2.6-.2.9-.1.5 1-.5.6.4.4-.9-.7.1-.6-.4.1-.3.1-.6.2-.9-.3 0-.4-.5-.2-1 .5 0 .4.4.2 1 .2 0 .4 0 .6-.1-.1.2-.2.5-.2.5.3 0 .5 0 .8-.1-.4-.4-.7-.8-1-1.2a9.9 9.9 0 01-1.4-4.4c0-1.5.5-3 1.4-4.2 1-1.2 2.5-1.8 4.1-1.6.7.1 1.2.2 1.8.3.5.1 1.1.2 1.5.5.5.2.9.6 1.1 1.1.2.6.2 1.2-.1 1.8-.2.3-.2.7-.1 1.1.1.3.2.6.2.9 1 .6 2.1 1.1 3.2 1.5.8.3 1.6.4 2.4.4.7 0 1.4-.2 1.9-.6.4-.3.6-.7.7-1.1.3-.9.3-2 .8-4-.3 1.3-.9 1-1.3.1-.5-1.2-.6-2.6-.3-3.9.6-2.5-1.2-4.5-3.5-5.5s-4.8-1.2-7.2-1.5c-1.3-.1-2.6 0-3.8.5-3.8.6-7 3-8.6 6.4-1.6 3.4-2 7.3-1.1 11 .6 2 2.2 3.2 3.5 4.2.8.8 1.3 2 2.1 2.6 1.1.8 2.4 1.3 3.8 1.3-1.3-.2-2.5-.7-3.6-1.4-.4-.3-.1-.4.4-.5h1.5c.3 0 .1 1.1.5 1 .6.2 1.2.2 1.8 0 .3-.1 0 .8.1.7.5 0 .9-.2 1.3-.5.4-.2.7-.4.9-.3s.7.4 1 .5c.2.1.4.1.7.1l.4-.3c-.1-.3-.2-.7-.2-1 .2 0 .5.2.7.3-.2 0-.5-.2-.7-.3 0 .3.1.7.2 1 1-.6 1.9-1.2 2.7-2v-.1c-.5.3-1.2.3-1.7-.1.3.2.3.4 0 .5l-.3-.4c.4-.3.8-.7 1.4-.1l.2-.4c.2.1.3.4.4.6.1-.1.2-.1.3-.2-.2-.2-.5-.4-.8-.5l-.4-.4z" class="st2"/><path d="M227.6 429h.2c-.3-.1-.6-.3-.8-.4 0 .4.4.4.6.4z" class="st2"/></g><g class="st1"><path d="M754.3 383.8c-.4 1.5-.9 3-1.3 4.5.3-.7.6-1.5 1-2.2.2-.7.3-1.5.3-2.3zM751.6 392.4c-.1.3-.2.5-.3.8s-.1.5-.1.7l.4-1.5zM749.1 400.2c.6-1.3 1-2.6 1.5-3.9-.5 1.1-1.1 2.3-1.5 3.9zM751.5 394.2c-.3.4-.5.6-.3-.2l-.7 2.4c.3-.8.6-1.5 1-2.2zM751.5 394.2c.3-.4.7-1.1.8-1.3-.3.4-.5.8-.8 1.3zM754 397.2c-.2.8-1 .3-1.4 2l-1.7 5.3c-.6 1.7-1.2 3.4-2 5-.4.9-.9 1.8-1.5 2.6-.7.8-1.2 1.6-1.6 2.5-.4.9-.9 2.2-1.4 3.5s-1.1 2.6-1.5 3.7c-.8 2.1-1.1 3.2.4.6 1.1-2 2.1-3.7 2.9-5.5s1.6-3.4 2.4-5c1.4-3.3 2.8-6.5 4.1-10.2 2-6.1 3.6-12.4 4.8-18.7.4-1.8.8-3.5 1.3-5.1-.7 2.2-1.3 4.4-2.1 6.9-.6 1.8-1 3.7-1.2 5.6-.3 2.2-.8 4.6-1.5 6.8zM759.7 349.8l.3 2.5c-.2.9-.4 1.8-.5 2.8l-.3 2.8c-.1.9-.1 1.9-.1 2.9s-.1 1.9-.2 2.9c.2-.5.5-1.1.7-1.6.2-2.2-.1-2.5-.5-.5.4-2.2.8-4.3 1-6.5.1-1.1.2-2.1.2-3.2v-3.2c-.1-.1-.5-.2-.6 1.1zM760.4 345.8v2.5l.1-.1c0-.8 0-1.7-.1-2.4zM742.6 416.3c-4.9 9.2-10.8 17.9-17.5 25.8-.3.8-.7 1.4-1.3 2l-1.8 1.5c-1 1.1-2 2.1-3 3.2l-1 1.2c-.5.7-.2.6.2.3s.9-.6 1.3-.9c-.3.1-.9.6-1.3.9l-1.8 1.5c-.9 1-1.9 2-3 2.9.9-1 1.9-2 3-2.9l1.6-1.9.4-.6c-2.3 2.5-4.8 4.6-7.2 6.9-.5.5-1.1 1-1.5 1.4-1.7 1.7-3.5 3.4-4.9 3.9l-1.4 1.1.3-.1-.6.3-3 2.3c-1 .8-2.1 1.4-3.1 2.2-1.2 1.1-2.4 2.3-3.8 3.3l-1.7.5c-.6.7-1.3 1.4-2.1 1.9 1.3-.5 2.5-.9 3.6-1.4 1.7-.5 2.6-2.9 4.8-3.4-2.2.4-3 2.9-4.8 3.4-1.1.5-2.3.9-3.6 1.4-.5.4-1 .7-1.6 1.1s-1.2.7-1.8 1c-1.2.6-2.4 1.1-3.7 1.6 1.1-.9 2.4-1.6 3.7-2.2.6-.3 1.2-.5 1.8-.8.6-.2 1.1-.5 1.7-.7.8-.5 1.5-1.2 2.1-1.9l1.7-.5c1.4-1 2.6-2.2 3.8-3.3l-3.1 2.1c-1 .7-2.1 1.3-3.2 2l-3.2 2-3.3 1.8c-7 3.9-14.3 7.2-21.9 10-7.4 2.7-15 4.8-22.8 6.3-15.9 3.1-32.2 3.5-48.3 1.3-17.5-2.4-34.3-8.2-49.6-16.9-7.2-4.1-14.2-8.7-20.7-13.9-1.6-1.3-3.2-2.5-4.8-3.9l-4.6-4-4.4-4.3c-1.5-1.4-2.8-2.9-4.2-4.4-5.5-6-10.5-12.5-14.8-19.4-4.4-7.1-8.1-14.6-10.8-22.4-2.9-7.8-5.4-15.7-7.5-23.7-2-7.9-3.3-16-4-24.2-.2-1-.4-2-.5-2.8s-.3-1.6-.4-2.3c-.2-1.1-.5-2.1-1-3.2-.6-1.5-1.3-2-2-1.9-1.2.2-2.3 2.6-2.4 3-.4 1.3-.7 2.7-1 4-.2 1.3-.4 2.7-.4 4-.1 1.3-.1 2.7-.1 4.1s.2 2.9.3 4.4c.9 8.3 2.3 16.5 4.1 24.6-1.5-7.5-.2-4.9 1.7 1.3 1.1 3 2.3 7 3.7 11l1 3 1 3c.7 1.9 1.2 3.9 1.8 5.6 3 10.1 9.6 21.3 18.2 31.5 8.9 10.1 18.8 19.2 29.6 27.2 5.1 4 11.1 7.5 17.9 11.2a139.7 139.7 0 0056.2 17.4c20.2 1.8 40.6-.2 60.1-5.7 10.8-3.2 19.5-7.8 27.6-12.6l2.3-1.2 2.3-1.3 4.5-2.5 4.2-2.5 2-1.2 1.8-1.2c6.4-4.5 12.3-9.6 17.6-15.4-5.4 5.4-11.1 10.4-17.3 14.9-2.4 1.8-1.8.9-.1-.7.8-.8 1.9-1.8 2.9-2.7s2-1.9 2.8-2.6c1.2-1.2 4-2 5.1-3.3 1.4-1.2 2.7-2.4 3.9-3.7l3.7-4.2c1.1-1.3 1.6-.5 2.1-1.2 1.6-1.8 3-3.7 4.4-5.7 1-1.6 2.1-3.2 3.4-4.6.9-.9 1.7-1.9 2.5-2.7l2.3-2.6c1-1.1 1.8-2.3 2.7-3.5l1.5-2.5c-.5.3-1 .5-1.6.5.9-1.1 2.2-2.6 3-3.8-.8 1.2-2.1 2.6-3 3.8.6 0 1.1-.1 1.6-.5 3.8-6.5 7.2-13.2 10.1-20.2l-.1.1c-1 2-1.9 3.9-3 5.8s-2.4 3.7-3.8 5.5c1.2-1.6 1.3-1.2.2.7l-1.3 1.2c1-1.7 1.8-3.4 2.7-5.1.9-1.6 2-3.2 3.1-4.7l.8-2.4c.7-1 .9-.9 1.3-1 .2-.4.4-.8.5-1.2l.5-1.2c-.6.7-1.7 2.3-2.6 3.6l-1.7 3.1z" class="st2"/><path d="M716.2 451.9l1.4-1.6-1.4 1.6-1.6 1.4-3.1 2.9c1.4-.8 3.1-2.6 4.7-4.3z" class="st2"/></g><g class="st1"><path d="M625.2 441.6c-.4.3-.9.6-1.3.8.3-.1.6-.1.8-.1.3-.1.4-.4.5-.7zM622.6 443.1l-.2.1-.2.2c.1 0 .3-.1.4-.3zM620.3 444.5c.4-.1.9-.3 1.2-.6-.4.2-.9.4-1.2.6z" class="st2"/><path d="M622.3 443.8c-.2-.1-.4-.2-.2-.4l-.7.5c.4 0 .7-.1.9-.1zM622.3 443.8c.2 0 .4.1.6.1-.1 0-.4-.1-.6-.1zM623.2 447.2c-.2.2-.6-.7-1-.2s-1.2.8-1.8 1.2c-.6.4-1.2.7-1.8.8-.6.4-1.8-.4-2.3-.1s-1.9.9-2.8 1.2-1.2.7-.1.6c.8-.1 1.6-.2 2.4-.4.7-.1 1.3-.3 2-.5s1.3-.4 1.9-.7l2-.9c.6-.3 1-.7 1.5-1 .6-.3 1.1-.7 1.5-1.1l1.4-1.2 1.3-1.3c.5-.4 1-.8 1.6-1.2l-1.1.7-1.2.6c-.6.4-1.1.9-1.5 1.5-.6.8-1.3 1.5-2 2zM633 433.2c0 .3-.1.9-.1.9-.6.4-1 .8-1.4 1.4l-.9 1.8.7-.2c.4-.6.2-.9-.3-.5a7.7 7.7 0 002.8-3.6c-.2 0-.5-.1-.8.2zM634.2 432.3l-.3.8h.1c0-.3.1-.6.2-.8zM614.8 446.9c-.9.1-1.8.2-2.8.2-.9 0-1.8-.1-2.7-.1s-1.8-.3-2.6-.5-1.7-.4-2.5-.8c-.3.1-.5.2-.8 0l-.6-.6c-.5-.2-.9-.4-1.3-.7l-.5-.2c-.3 0-.3.1-.2.3.1.2.2.4.3.5 0-.1-.2-.4-.3-.5l-.6-.6c-.4-.2-.9-.4-1.2-.7.5.2.9.4 1.2.7.3.1.5.2.8.3h.3c-1-.5-2-1.1-2.9-1.8-.2-.1-.4-.3-.6-.4-.7-.4-1.5-.8-1.6-1.5l-.4-.4v.1c0-.1-.1-.1-.1-.2l-1.8-1.8c-.5-.3-1.1-.5-1.6-.9v-.8c-.4 0-.7-.2-1-.4 0 .5.1 1 .2 1.5 0 .8 1.6.3 1.4 1.5.2-1.1-1.4-.6-1.4-1.5-.1-.5-.2-1-.2-1.5-.7-.6-1.1-1.5-1.2-2.5.8.6 1.2 1.5 1.2 2.5.3.2.6.4 1 .4v.8c.5.3 1 .6 1.6.9-.6-.6-1.1-1.3-1.6-2s-1-1.4-1.4-2.1c-2.9-4.5-4.4-9.7-4.2-15 .4-5.3 2.9-10.2 7-13.6 2.2-1.9 4.7-3.6 7.4-4.8 2.6-1.2 5.3-1.9 8.1-2.4 2.5-.4 5.1-.5 7.7-.2 2.3.2 4.5.9 6.5 2.1 4.1 2.7 6.6 7.3 6.7 12.1.1 2 .5 4.7.6 7.4.1 2.4-.1 4.8-.7 7.1 0 .3.1.6.1.9 0 .2.1.5.1.7.1.4.3.8.5 1.2.4.6.9 1 1.6 1.3.8.3 1.8.3 2.6 0 .5-.3 1-.6 1.5-1a4 4 0 001-1.2c.3-.4.5-.9.8-1.4.2-.5.3-1 .5-1.6.6-2.3.9-5 1.6-9.2-.4 2.9-1 1.8-1.3-.5-.2-1.2-.3-2.7-.5-4.2-.2-1.6-.2-3.1-.2-4.7.3-4.4-2.3-9.4-6.8-13-2.3-1.8-5-3.2-7.8-4-1.4-.4-2.8-.8-4.2-1l-2-.3c-.6-.1-1.4-.2-2-.2-1.4-.1-2.7-.1-4.1.1l-2.1.3-2.2.5a34.82 34.82 0 00-19.9 11.1c-2.8 3.1-4.9 6.7-6.3 10.6-1.3 4.2-1.7 8.6-1 12.9.4 2.1 1.1 4.2 2.2 6.1 1 1.7 2.1 3.2 3.3 4.7l1.1 1.7c.4.5.7 1.1 1 1.7.6 1 1.4 2 2.2 2.9 2.1 2.2 4.6 4 7.4 5.1-2.6-1.3-5-3.1-7.1-5.1-.8-.8-.3-.7.5-.3.5.2 1 .5 1.4.7.5.2 1 .5 1.3.7.6.2.7 1.7 1.3 1.9.6.4 1.2.7 1.8 1l2 .7c.6.1.1.9.4 1 .9.3 1.8.5 2.8.5.7-.1 1.5.1 2.2.4.8.5 1.7.8 2.5 1.1.5.2 1.1.3 1.6.4l1.1-.1c-.2-.3-.3-.7-.3-1.1.3.1.6.2.8.3.3.1.6.2.9.2-.3 0-.6-.1-.9-.2-.3-.1-.6-.2-.8-.3 0 .4.1.8.3 1.1 2.8-.3 5.5-.9 8.2-1.8v-.1c-.8.2-1.5.3-2.3.3-.8 0-1.6-.1-2.4-.4.7.2.6.5-.2.5-.2-.1-.4-.3-.6-.5.7-.1 1.3-.3 2-.4.7-.1 1.4 0 2 .2l.8-.5c.4.1.5.4.6.6l.9-.3c-.6-.2-1.1-.3-1.7-.4-.9.5-1.4.5-1.4.5z" class="st2"/><path d="M600 444l.7.2c-.4-.2-.8-.5-1.2-.8l-1.2-.8c.2.8 1 1.1 1.7 1.4z" class="st2"/></g><circle cx="611.6" cy="420.9" r="8.8" class="st3"/><g class="st1"><path d="M604.8 428.4l.5.5v-.5c-.1-.2-.3-.1-.5 0zM605.7 429.2l.2.1-.2-.1zM606.8 429.6c-.1-.1-.3-.2-.5-.2.1.1.3.2.5.2zM606.2 429c0 .1-.1.3-.2.3l.3.1c-.1-.1-.1-.3-.1-.4zM606.2 429v-.4c-.1.1-.1.3 0 .4zM608.2 426.3c.1 0-.4.8-.2.6.4 0 .9-.3 1.2-.2.2-.1 0 .9.3.8.3-.2.6-.4.9-.7.2-.3.4-.6.2-.6-.6.1-1.2 0-1.8-.1-.7.1-1.3.1-2 0-.1-.1-.2-.3-.3-.4 0 .3.1.5.2.8 0 .2.3.1.7 0 .2-.1.5-.2.8-.2zM602.8 424.4l.4.2c-.4.7 0 1.1.5 1.3l.3-.4c-.2-.2-.4-.1-.5.2a2 2 0 00-.1-1.7c-.3.1-.6.2-.6.4zM603.2 423.7c.1.1.1.2.2.2h.1l-.3-.2z" class="st2"/><path d="M609.1 429.7c1.2.3 2.5.4 3.8.4.1-.2.1-.4.2-.3l.3.3.5-.1.2-.1c.1-.1 0-.3-.1-.4l-.3-.3.3.3c.1.1.2.2.3.2.1-.1.3-.2.5-.2-.1.1-.3.2-.5.2l-.2.2-.1.1 1.2-.3.2-.2c.2-.2.4-.5.8-.2l.2-.1h-.1.1c.3-.1.6-.3.9-.4.1-.3.1-.6.2-.8l.5.2c-.1-.2-.1-.4-.1-.6l-.9-.3c-.4-.2.3 1-.5.5.7.6 0-.7.5-.5.2.1.5.2.9.3.1-.3.5-.5 1-.4 0 .6-.5.6-1 .4 0 .2 0 .4.1.6l-.5-.2c-.1.2-.1.5-.2.8.6-.3 1.1-.7 1.6-1.2 1.7-1.5 2.7-3.5 3-5.7.3-2.3-.2-4.7-1.2-6.8-1.3-2.5-3.3-4.5-5.7-5.8-2.6-1.2-5.6-1.3-8.3-.2a24.2 24.2 0 00-7.8 4.8 8.99 8.99 0 00-2.2 4.6c-.2 1.7-.2 3.4.2 5 .9 1.2 2.5 1.6 3.8.9.8-.3 1.5-.7 2.2-1.1.5-.4 1.1-.7 1.5-1.2.2-.2.4-.5.5-.8.1-.8.7-1.5 1.5-1.7-.7.4-1.2.1-1.2-.5s.8-1.3 2-1c1.9.5 2.2.5 2.6.1s1-1.1 1.6-.6c.3.2.5.1.8.3.4.6 1 1.2 1.5 1.6.6.5.9 1.4.6 2.2-.1.4.5 1.2.6 2-.1.4-.8.4-1 .6-.4.4-.6.9-.8 1.4.4-.3.7-.7.9-1.2.1-.1.3.1.4.5.1.3.1.7 0 1 0 .3-.7-.6-.7-.3-.2.1-.3.6-.5 1-.1.2-.3-.7-.4-.5-.2.3-.3.6-.3.9-.1.3-.2.6-.4.5-.2-.1-.4-.2-.6-.4-.1 0-.2-.1-.3 0l-.2.2c0 .3.1.7.1 1-.1-.1-.3-.3-.4-.3.1.1.3.3.4.3 0-.3 0-.7-.1-1-.7.6-1.5.9-2.3 1v.1c.5.1 1 .4 1.2.9-.2-.2-.1-.5.1-.5l.1.5c-.5.2-1 .4-1.2-.4l-.4.2c-.1-.2 0-.5.1-.7h-.3c0 .3.1.6.2.9.4-.1.5.1.6.3z" class="st2"/><path d="M614.4 429.6c-.1.1-.1.1-.2.1.3 0 .7-.1 1-.2-.3-.3-.5-.1-.8.1z" class="st2"/></g></svg>