<svg xmlns="http://www.w3.org/2000/svg" id="Layer_1" x="0" y="0" version="1.1" viewBox="0 0 842 842" xml:space="preserve"><defs/><style>.st1{opacity:.85}.st2{fill:#fefefe}</style><path fill="#5e503f" d="M-1 0h842v842H-1z"/><g class="st1"><path d="M157 376v-2 2zM158 372h-1 1zM158 369l-1 2 1-2zM157 372c0-1 0-1 0 0h1v-1l-1 1zM157 372zM154 371l1-1-1-2v-2l1-2-1-3c0-1 0-1 0 0v17l1-3-1-4zM154 388v-1l1-4-1 1h1l-2 5 1-1zM153 390v-1 1zM157 363v-6-3-3-1-2-1-1-1-1-1-3-1-2-3l-1-1v2 0l1-2v-3l-1 3 1 1v-3a241 241 0 00-11-56l-5-18-6-18-4-9-5-9c-2-2-4-2-5-2l-1 2c-2 6 2 7 3 16-1-6 4 2 4 8l3 13 6 13 2 7 5 20a164 164 0 017 26l1 5 1 7 1 9v-4l-1-4c0-3 1 1 2 2l-1 3 1 3v1l1 5v5h1l-1 1 1-1h-1v4l1 4 1-4-1-1h1v2l-1 2 1 1h-1v1l1-2zM157 346l1 1v-3l-1 2z" class="st2"/></g><g class="st1"><path d="M650 621l1 1-1-1zM652 623h1-1zM654 624l-1-1 1 1zM653 623zM653 623h-1 1zM654 622h3l1 1 2-1v-1l-5 1-4-2-1-1 1 1 1 1h1l1 1zM645 614h1l1 3v-1l-1-1-1-2v1zM645 613h1-1z" class="st2"/><path d="M659 624l8-2v-1h2v-1h1l1-1-1 1h-1l2-1h1l1-1 1-1h-1 1l1-1 1-1v-1h1-1l-1 1 1-1h1l1-2-1 2h-1v1l-1 1 1-2 2-1 4-12v-4l-1-1v-2-1l-1-2-1-2v-1c-2-3-3-5-6-6l-7-1-7 2a67 67 0 00-12 7l-6 5-1 2v2l-1 2v2l2 8c1 2 2 2 3 2l1-2-1-4v-1-1-4c0 2 0 1 0 0v-3l2-2 7-4a47 47 0 0113-6h6l3 4a19 19 0 013 13l-2 7-1 1v1l-2 2-1 1-1 1-1 1h1l1-1v-1l1-1v2h-1l-1 1h-1l-1 1c-1 0 0 0 0 0l-1 1-2 1-1 1h-2v1h-1 1v-1l-5 2h3c-1 0-1 0 0 0h1-3-2 1l1 1zM670 620l1-1-1 1z" class="st2"/></g><path fill="#edefef" d="M668 615c5-1 7-6 6-10-1-5-4-5-8-4s-9 3-8 7c1 5 6 8 10 7z"/><g class="st1"><path d="M664 614zM664 614h-1zM663 614zM663 614zM663 614zM663 615v-1h-2v-1h-1a7 7 0 004 2h1-1-1zM668 614l-2 1h2v-1zM668 615z" class="st2"/><path d="M661 613l-2-3v-1 0h-1v-1-1-1h1-1v0h1v-1l-1 1h1-1v1l1-2 3-2 5-1h5c2 3 2 6 0 8l-2 2-1 1-1 1v1h2l2-2c0 1 0 0 0 0l2-2 2-4v-2l-1-2-2-2-3-1h-3l-6 2-3 2-1 3v2l1 1h-1l1 1 1 1v1-1 1l2 1-1-1 1 1v-1zM659 609z" class="st2"/></g><g class="st1"><path d="M482 579l5 6-3-3-2-3zM492 590l1 1h1l-2-1zM502 599l-5-5 5 5zM494 591v1l3 2-3-3zM494 591l-2-2 2 2zM499 591l2 3 7 5 4 2 3 2 4 3 4 3 11 5s5 1 1-1l-9-4-7-4-4-2-3-2-4-3-2-1-1-2a135 135 0 01-25-23l-2-2-1-2 2 3 1 2 2 2 1 1 1 1 3 4 3 3 4 3 5 4zM456 529l1 4 1 4 2 4 1 5 1 2 1 2v-3c-2-3-2-3-1 0l-6-21v3zM455 522l1 4-1-4z" class="st2"/><path d="M526 613a393 393 0 0054 23l7 3h2c1 0 1 0 0 0l-2-1 2 1 4 1 7 2-7-2-4-1h-1a173 173 0 0019 4l10 2h16l8-1h3l5-1h-6l-5 1 5-1h6l12-3-12 3-5 1h-3l-8 1c9 0 17-1 25-4l4-1 5-2a75 75 0 0024-18c9-10 16-21 20-33 3-6 5-13 6-19l3-10 2-9c2-14 3-28 2-41a105 105 0 00-14-43c-8-12-18-23-27-34l-28-31-12-15-3-4-1-2-1-3-3-4-3-4-1-2-1-2-1-2-1-3c-1-2-3-5-3-9a100 100 0 012-59 382 382 0 0136-88v-4c-2 0-5 2-5 3-6 7-10 13-15 22l-7 16-9 21 3-7-3 10-6 17-5 19c-3 9-4 19-4 28a87 87 0 009 39l4 7 5 7 2 4 2 3 20 25 23 24a481 481 0 0127 36c8 12 12 26 13 41l-1 22-1 11-1 6-1 5-2 6-1 5-2 6-2 5a116 116 0 01-24 40l-8 7-5 3-4 3-15 5-14 2a144 144 0 012 0l-3 1-12 1-9-2-17-2-3-2-20-4-11-5-6-2-4-2 1 2-7-4 7 4-1-2-17-7-8-4-8-4 19 11c-3-2-3-2 1 0l2 1-17-8-3-2-2-2-2-1-1-1 2 2 3 3 3 1 1 1z" class="st2"/><path d="M593 640a144 144 0 0110 2l-10-2z" class="st2"/></g><g class="st1"><path d="M186 476h2-2zM189 477h1-1zM192 477h-2 2zM190 476l-1 1h1v-1zM190 476h-1 1zM191 473l1 1h3l2 2 3-1-7-2h-7l-1-1 2 1h4zM175 470h1l3 2c-1-1-1-1 0 0l-4-3v1zM174 469h1c0 1 0 0 0 0h-1z" class="st2"/><path d="M198 478l5 1 5 1h5-1l3 1h4l2 1 2-1 1 1h1l-1-1h-2 2l1 1h2-4-2 6l8 1h44c12-1 23-4 35-4l18-3c5-4 1-7 1-7-5-2-7 0-15 0 6 0-3 3-8 1-8-2-17 3-25 3l-7 1-19 1-20 1-10 1h-14 7c1 0 1 0 0 0l-2 1-2-1h-11l-2-1h-1v2l-1-1 1 1v-2h-7l4 2v-1l1 1-4-1h-1v-1h-1l1 1 1 1zM213 481h-1 1z" class="st2"/></g></svg>