<svg xmlns="http://www.w3.org/2000/svg" id="Layer_1" x="0" y="0" version="1.1" viewBox="0 0 841.9 841.9" xml:space="preserve"><defs/><style>.st1{opacity:.85}.st2{fill:#131413}.st3{fill:#211f1e}.st4{fill:#1f2020}</style><path fill="#fce2e4" d="M0 0h841.9v841.9H0z"/><g class="st1"><path d="M373.5 460.6l-4.7 1.1c.8-.2 1.6-.3 2.4-.4.8-.1 1.6-.3 2.3-.7zM364.5 462.8l-.8.2-.7.2 1.5-.4zM356.3 464.9c1.5-.3 2.8-.7 4.1-1-1.1.2-2.5.6-4.1 1zM362.9 463.5c-.5 0-.8 0 0-.2l-2.5.7c1-.3 1.8-.4 2.5-.5zM362.9 463.5l1.6-.2c-.5 0-1.1.1-1.6.2zM361.2 465.6c-.8.3-.7-.3-2.3.2-3.8 1.1-7 2.1-10.6 3-1.6.5-4.3.6-5.9 1.1-3.8 1.1-13.4 4.1-7.7 2.7l22-5.7 18.7-5.2c1.8-.5 3.5-.9 5.2-1.2l-7.1 1.5c-3.3.6-7.1 2.2-12.3 3.6zM408.1 452.4l-2.4.8c-3.8.7-7.6 1.6-11.3 2.7l1.8-.2c2.2-.6 2.4-.8.4-.4 4.5-.8 8.7-1.8 13-2.9-.3-.1-.3-.2-1.5 0zM412.1 451.7l-2.5.7h.1l2.5-.7h-.1zM339.1 469.6l-31.1 7.6c-.7.3-1.5.6-2.3.7-.8.1-1.6.2-2.4.4l-4.4 1-1.5.4c-.8.2-.5.3 0 .2s1.1-.2 1.6-.2l-1.6.2c-.7.1-1.5.2-2.4.4-1.3.4-2.7.7-4.1 1 1.6-.5 3-.8 4.1-1l2.5-.7.7-.2-10 2.4-2.1.5c-2.1.6-4.2 1.1-6.3 1.4l-1.8.4h.4l-.7.1-7.5 1.8-4.9 1.5-1.7.2c-.9.4-1.8.7-2.8.9 1.4-.2 2.7-.3 3.8-.5 1.7-.2 3.6-1.4 5.8-1.5-2.1 0-4 1.3-5.8 1.5-1.2.2-2.5.3-3.8.5-2.6.7-5.3 1.3-8 1.7 2.6-.8 5.3-1.4 8-1.7.9-.3 1.9-.6 2.8-.9l1.7-.2c1.7-.5 3.3-1 4.9-1.5l-15 3.6c-16.3 3.9-32 7.7-47.9 11.5l-24 5.8-12.3 3-6.2 1.5c-1 .2-2.1.5-3.1.6s-2.1.3-3.2.4c-4.6.4-9.1.1-13.6-.8-4.4-1-8.5-2.6-12.4-4.8a45.42 45.42 0 01-23.1-42.7c.1-2 .4-4.1.8-6.1s.9-4.2 1.3-6.2l2.7-12.5c3.6-16.6 7.3-33.3 11.7-50.7 3.3-13.4 8.4-38.4 11.1-51.4 2.9-17.5-1-9-1.3-8.2-4 10.3-4.8 18.9-10.5 40.4 3.8-14.7-1.2 11.2-5.4 24.9-3.1 9.9-5.8 22.2-8.5 35.1-1.3 6.5-2.7 13-4 19.6-.3 1.6-.7 3.3-1 4.9l-.5 2.4c-.2.9-.3 1.7-.5 2.6-.5 3.4-.8 6.8-.7 10.3.3 7.4 2.3 14.6 5.8 21.1 2.4 4.6 5.6 8.8 9.3 12.4 3.7 3.6 8 6.6 12.6 8.9 4.6 2.3 9.6 3.8 14.7 4.5 5.1.7 10.3.6 15.4-.3 1.3-.2 2.5-.5 3.8-.8l3.5-.9 7.1-1.8 14.3-3.6c9.6-2.4 19.4-4.9 29.6-7.3 10.7-2.6 20-5.4 29-7.9 6.6-1.7 13.7-3.2 19-4.5 8.4-2.1 15.6-4 22.5-5.9l-22 5.7c-5.8 1.5 3.9-1.6 7.6-2.7 1.6-.5 4.3-.6 5.9-1.1 3.5-.9 6.8-1.9 10.5-3 1.6-.5 1.5 0 2.4-.2 5.2-1.4 9-3 12.4-3.7l7.1-1.5c1.4-.3 2.8-.6 4.3-1l2.8-.8c-.5.1-1 0-1.4-.2l4.7-1-4.7 1c.4.2.9.2 1.4.2 6.8-2 14.6-4.1 21.9-6.2h-.1c-4.3 1.1-8.5 2.1-13 2.9 2-.4 1.8-.2-.4.4l-1.7.2c3.7-1.1 7.5-2 11.3-2.7l2.4-.8c1.2-.2 1.2-.1 1.5 0l2.5-.7c-1.8.6-7.5 1.7-7.5 1.7z" class="st2"/><path d="M295 480.5l2-.5-8.4 2c2.2-.3 4.3-.8 6.4-1.5z" class="st2"/></g><g class="st1"><path d="M116.9 474.6l.6-.3h-.4c-.1 0-.1.2-.2.3zM118 474h.1l.1-.1-.2.1zM119 473.4c-.2.1-.4.1-.5.2.2 0 .3 0 .5-.2zM118.1 473.7c.1 0 .2.1.1.2.1-.1.2-.1.3-.2h-.4zM118.1 473.7c-.1 0-.2 0-.3-.1.2.1.2.1.3.1zM117.7 472c.1-.1.3.4.5.2.5-.4 1-.7 1.6-.8.2-.2.8.3 1 .1.6-.2 2.2-.9 1.2-.9-1.3.1-2.5.5-3.6 1-.9.5-1.8 1.2-2.5 2-.2.2-.5.3-.7.5.3-.2.7-.3 1-.5s.4-.3.7-.6c.2-.5.5-.8.8-1zM113.6 478.2v-.4c.6-.3.7-.8.9-1.4l-.3.1c-.2.3-.1.4.2.2-.6.4-1 .9-1.2 1.5.2 0 .3.1.4 0zM113.1 478.6l.1-.4-.1.4zM121.4 472.5c1.5-.2 3.1-.1 4.6.3.1-.1.2-.2.4-.1.1.1.2.2.3.2l.6.2h.2c.1 0 .1-.1 0-.2l-.2-.2.2.2c.1.1.2.2.3.2.2 0 .4.1.6.1-.2 0-.4 0-.6-.1h-.5c.5.1 1 .3 1.4.4h.3c.4 0 .7.1.9.4l.2.1s.1 0 .1.1l1 .4h.8l.1.3c.1-.1.3-.1.5-.1-.1-.2-.2-.4-.4-.6-.2-.3-.7.2-.8-.3.1.5.7 0 .8.3.1.2.3.4.4.6.4.1.8.3 1 .6-.4 0-.8-.3-1-.6-.2 0-.3 0-.5.1l-.1-.3h-.8c.7.3 1.4.6 2 .9 2.2 1 4.3 2.1 6.3 3.3 2.1 1.1 4.1 2.4 5.8 4 1.8 1.8 3.2 3.9 4.2 6.3 1 2.1 1.7 4.4 2.3 6.6.5 2.3.5 4.7-.1 7-.3.9-.4 2.1-.6 3.4-.1.6-.2 1.2-.4 1.8-.1.5-.2 1-.4 1.5-.1.8.3 1.7 1.1 2 .4.2.9.2 1.3.1.9-.3 1.6-1.1 1.9-2 .2-.5.3-1 .6-1.5.2-.7.5-1.4.9-2.1-.5 1.1-.7.6-.6-.3.1-1.3.4-2.5.9-3.6.2-.4.4-.8.5-1.3.1-.5.2-.9.2-1.4 0-1-.1-2-.3-3-.2-1-.6-2-.9-3.1s-.7-2-1-3c-.4-1-.8-2-1.4-3-1.3-2.9-3.3-5.5-5.8-7.5l-1.9-1.4-2.1-1.2c-1.4-.8-2.7-1.4-4.1-2.1-1.4-.6-2.9-1-4.4-1.3-1-.3-1.9-.9-2.7-1.2-1.1-.4-2.3-.6-3.5-.7 1.2.2 2.3.4 3.4.8.9.3-.8.4-1.4.3-.3 0-.5-.6-.8-.6-.6-.1-1.1-.1-1.7-.1-.3 0-.1-.4-.3-.4-.8-.1-1.6.4-2.1.2s-.7-.3-1.1-.4c-.2-.1-.4-.1-.7-.1l-.5.1c.1.2.2.3.2.5-.2 0-.5-.2-.7-.2.2 0 .5.2.7.2 0-.2-.1-.4-.2-.5-1.2.2-2.3.5-3.5.9.7-.2 1.4-.1 2 .1-.3-.1-.3-.2.1-.3l.2.2c-.6.2-1.2.2-1.7 0l-.3.2c-.2 0-.2-.2-.3-.3l-.4.1c.6-.1 1.1 0 1.5.1z" class="st3"/><path d="M127.9 473.1h-.3c.4.1.8.2 1.2.4-.1-.4-.5-.4-.9-.4z" class="st3"/></g><path d="M130.8 498.1c-4.2-.9-6.8-5-5.9-9.2.9-4.2 4-4 8.1-3.1s7.9 2.2 7 6.4c-.8 4.2-4.9 6.9-9.2 5.9.1.1.1.1 0 0z" class="st4"/><g class="st1"><path d="M134.6 498.4c.2 0 .3-.1.4-.1h-.2c-.1-.1-.1 0-.2.1zM135.5 498.1h.1v-.1zM136.2 497.7l-.4.2c.2-.1.3-.1.4-.2zM135.6 497.9c.1 0 .1 0 0 .1l.2-.1h-.2zM135.6 497.9zM135.4 497.1c.1-.1.1.2.2.1.3-.2.5-.5.7-.6.1-.1.4 0 .5-.2s.6-1.1.3-.7c-.4.5-.9.9-1.5 1.2-.4.4-.9.6-1.5.9-.2 0-.3.1-.5.1h.7c.5-.2.7-.6 1.1-.8zM131.2 498.4h.2c.3.2.7.2 1.1.1l-.2-.1c-.2 0-.2.1 0 .1l-1.2-.3c0 .1 0 .2.1.2zM130.9 498.2h.2-.2z" class="st3"/><path d="M137.5 496.6c.8-.7 1.4-1.4 1.9-2.3v-.2c.1 0 .1-.1.2-.2s.1-.3.2-.4v-.1c0-.1 0-.1-.1 0l-.1.1.1-.1c.1-.1.1-.1.1-.2s.1-.3.1-.4c0 .1 0 .3-.1.4l-.1.2v.1l.3-.9v-.2c0-.2 0-.4.1-.6V491.5v-.8c-.1-.2-.1-.3-.2-.5 0 0 .1-.1.1-.2-.1-.1-.2-.1-.2-.2 0 .1-.1.3-.1.4s.3.3.1.5c.2-.2-.2-.4-.1-.5s.1-.2.1-.4c-.1-.2-.2-.5-.2-.8.2.2.3.5.2.8 0 .1.1.2.2.2 0 .1-.1.2-.1.2.1.2.1.3.2.5 0-.5-.1-1-.3-1.5-.4-.8-.9-1.4-1.6-1.9-.7-.4-1.4-.8-2.1-1.1-1.5-.5-3-.9-4.6-1.2-.9-.2-1.8-.3-2.7-.4-1-.1-2 .2-2.8.7-.9.5-1.5 1.3-1.8 2.3-.3.8-.5 1.7-.6 2.6-.1 1.9.3 3.7 1.1 5.4a8.16 8.16 0 004.5 3.6c1 .1 1.3-.2 1.4-.5 0-.2 0-.5-.2-.7-.3-.4-.7-.8-1.2-1.1-.6-.3-1.2-.8-1.6-1.5.3.5.1.5-.3.1-.5-.5-.9-1.1-.9-1.8 0-1-.3-1.8-.4-2.9-.1-.5-.1-1 0-1.5s.2-1 .4-1.4c.2-.4.5-.7.8-.9.9-.5 2.5-.4 4.2-.1 1.7.2 3.4.6 5 1.3.7.3 1.3.6 1.9 1 .3.4.4.8.4 1.2.1.6.1 1.2 0 1.8.1-.6.1-1.2.1-1.7-.1-.4.4.2.4.6.1.1-.2.3-.2.5v.9c0 .1-.2.1-.2.1-.1.4 0 .9-.2 1.1-.1.2-.3.3-.4.5-.1.1-.2.2-.2.3l-.1.2c.1 0 .2 0 .3.1l-.3.3.3-.3c-.1 0-.2-.1-.3-.1-.3.6-.7 1.2-1.2 1.7.3-.3.6-.5 1-.7-.2.1-.2 0-.1-.1h.2c-.2.3-.5.6-.8.7 0 0-.1.1-.1.2s-.1 0-.2-.1l-.2.1c.2 0 .3 0 .4-.1.3.3.4.2.6.2z" class="st3"/><path d="M139.9 493.1s0 .1-.1.2c.1-.2.2-.5.3-.8-.2.1-.2.3-.2.6z" class="st3"/></g><g class="st1"><path d="M470.7 463.7l4.7 1.2c-.8-.2-1.5-.5-2.3-.8-.8-.2-1.6-.4-2.4-.4zM479.7 465.9l.8.2.7.1-1.5-.3zM487.9 467.8c-1.4-.4-2.8-.7-4.2-1 1.2.3 2.6.7 4.2 1zM481.5 466.1c.5.2.7.3-.1.2l2.5.5c-1-.2-1.8-.5-2.4-.7zM481.5 466.1l-1.5-.5c.4.1.9.3 1.5.5zM483.9 465c.8.1.5.6 2.2.9 3.9.8 7.2 1.4 10.8 2.3 1.6.3 4.1 1.4 5.7 1.7 3.9.8 13.8 2.6 8 1.2l-22.2-5.2-19-4.1c-1.8-.4-3.5-.9-5.2-1.3l7 1.9c3.3 1 7.5 1.4 12.7 2.6zM436.3 454.9l2.5.4c3.7 1.2 7.4 2.1 11.2 2.9l-1.6-.6c-2.2-.5-2.5-.4-.6.1-4.4-1.4-8.6-2.5-12.9-3.5.3.2.2.3 1.4.7zM432.4 453.6l2.5.6-.1-.1-2.4-.5z" class="st2"/><path d="M505.3 471.7l31 7.7c.8.1 1.6.2 2.4.4.8.3 1.5.5 2.3.7l4.3 1.1 1.5.3c.8.1.6 0 .1-.2s-1.1-.4-1.5-.5l1.5.5c.7.2 1.4.5 2.3.7 1.3.3 2.7.6 4.2 1-1.6-.3-3-.7-4.2-1l-2.5-.5-.7-.1 9.9 2.5 2.1.5c2.1.4 4.2.9 6.2 1.6l1.8.5-.3-.1.7.2 7.5 1.9c1.7.3 3.3.6 5 1l1.6.6c1 .1 1.9.2 2.9.5-1.3-.5-2.5-.9-3.7-1.3-1.6-.6-3.9-.5-5.8-1.4 1.9.9 4.1.8 5.8 1.4 1.1.4 2.3.8 3.7 1.3 2.7.6 5.3 1.3 7.9 2.2-2.7-.5-5.3-1.2-7.9-2.2a25 25 0 00-2.9-.5l-1.6-.6c-1.7-.4-3.4-.6-5-1l14.9 3.8c16.3 4.2 31.9 8.1 47.8 12l23.9 6 12.2 3.1 6.2 1.6c1.1.2 2.2.5 3.2.7s2.2.4 3.3.5c4.8.5 9.6.3 14.3-.6 4.6-.9 9.1-2.5 13.3-4.8 8.2-4.4 15.1-11.1 19.7-19.2 4.5-7.9 6.6-17 6-26.1-.1-2.2-.4-4.4-.8-6.6-.4-2.1-.9-4.2-1.3-6.3l-2.6-12.5c-3.5-16.6-6.9-33.3-10.1-51-2.5-13.5-8-38.5-10.8-51.4-4.5-17.2-4.6-7.8-4.5-6.9.6 11 3.3 19.2 7 41.2-2.6-15 3.5 10.7 5.3 25 1.3 10.3 3.8 22.6 6.6 35.5 1.4 6.4 2.9 13 4.3 19.5.4 1.6.7 3.3 1.1 4.9.2.8.3 1.6.5 2.4s.3 1.5.4 2.3c.5 3 .6 6.1.4 9.2-.4 6.5-2.2 12.9-5.3 18.7a45.54 45.54 0 01-19.7 18.5c-4.1 2-8.4 3.3-12.9 4-4.5.6-9 .6-13.5-.1-1.1-.2-2.2-.4-3.3-.7l-3.5-.9-7.1-1.7-14.4-3.5c-9.6-2.3-19.5-4.7-29.6-7.2-10.7-2.6-20.2-4.5-29.3-6.5-6.6-1.5-13.6-3.5-19-4.8-8.4-2.1-15.7-3.7-22.7-5.2l22.2 5.1c5.8 1.4-4.2-.4-8-1.2-1.7-.3-4.1-1.4-5.8-1.7-3.6-.9-6.9-1.5-10.7-2.3-1.7-.3-1.4-.7-2.2-.9-5.2-1.2-9.4-1.6-12.7-2.5l-7-1.9c-1.4-.4-2.8-.7-4.3-1.1l-2.9-.6c.4.2.8.4 1.2.8l-4.5-1.3 4.7 1.3c-.3-.4-.7-.6-1.2-.8-6.9-1.4-14.9-3.1-22.3-4.7l.1.1c4.3 1 8.5 2.1 12.9 3.5-1.9-.6-1.6-.6.6-.1l1.6.6c-3.8-.7-7.6-1.7-11.3-2.8l-2.5-.5c-1.2-.4-1.1-.5-1.3-.7l-2.6-.6c1.9.5 7.4 2.2 7.4 2.2z" class="st2"/><path d="M549.5 482.5l-2.1-.5 8.3 2.1c-2-.6-4.1-1.2-6.2-1.6z" class="st2"/></g><g class="st1"><path d="M728.4 475.2l-.6-.4c.1.1.2.2.2.4.1.1.2 0 .4 0zM727.1 474.5l-.1-.1h-.1l.2.1zM725.9 474.1c.2.1.4.2.6.2-.2-.1-.4-.2-.6-.2zM726.8 474.6c0-.1 0-.2.1-.2l-.4-.1c.1 0 .2.1.3.3zM726.8 474.6c0 .1.1.2.1.3 0-.2 0-.3-.1-.3zM725.8 476c-.1 0 .1-.4-.2-.4-.5-.1-1 0-1.5-.1-.2.1-.5-.5-.7-.5-.6 0-1.9.6-1.1.6 1 0 1.9 0 2.9.2.9.1 1.7.3 2.5.6.2.1.4.3.5.5-.2-.3-.4-.5-.6-.8-.2-.2-.5-.3-.8-.2-.3.2-.6.2-1 .1zM731.6 479.6l-.3-.3c0-.6-.3-1.2-.8-1.5v.4c.2.2.3.2.3-.1.1.7.4 1.3.7 1.9 0-.1.1-.2.1-.4zM731.5 480.3l-.2-.3.2.3z" class="st3"/><path d="M723.2 473.9c-1.6-.1-3.1-.1-4.7.1-.1.1-.2.2-.3.2-.1-.1-.2-.1-.4-.1l-.7.1c-.1 0-.2.1-.2.1-.1.1 0 .1 0 .2.1 0 .2.1.3.1 0 0-.2-.1-.3-.1-.1 0-.3-.1-.4 0-.2.1-.4.1-.6.2.2-.1.4-.2.6-.2l.3-.1.1-.1-1.5.3-.3.1c-.3.1-.7.3-.9.2l-.2.1h.1-.1l-1.1.3c-.2.2-.4.4-.6.5l-.3-.1c-.1.2-.2.3-.3.4.2.1.5.1.7.2s.4-.6.8-.3c-.4-.3-.5.5-.8.3s-.4-.1-.7-.2c-.4.2-.8.3-1.2.2.3-.3.8-.4 1.2-.2.1-.1.3-.2.3-.4l.3.1c.2-.1.4-.4.6-.5-.7.2-1.4.4-2.2.7-2.3.8-4.5 1.7-6.7 2.8-2.3 1.1-4.4 2.4-6.4 4-2.2 1.8-4.1 3.9-5.7 6.2-1.5 2.2-2.6 4.7-3.2 7.4-.7 2.6-1.1 5.2-1.7 8.1-.1 1.4-.1 2.9.2 4.3.1.8.3 1.5.6 2.3.2.6.4 1.2.6 1.9.9 1.2 1.7 1.3 2.2 1 .4-.2.8-.5 1-.9.4-.8.5-1.7.3-2.6-.1-.4-.2-.9-.2-1.5 0-.7 0-1.3.1-2-.1 1.1-.5.7-.7-.1-.2-1.1 0-2.3.5-3.3.2-.3.4-.7.5-1.1.2-.4.3-.8.4-1.1.2-.8.3-1.6.4-2.5s.3-1.7.5-2.6c.2-.8.6-1.7 1-2.4.5-.7.7-1.6 1.3-2.4 1.4-2 3-3.9 4.8-5.7l1.4-1.2c.5-.4 1-.7 1.5-1.1 1.2-.7 2.5-1.4 3.8-2 1.2-.7 2.4-1.5 3.5-2.4.8-.4 1.7-.6 2.6-.9 1-.4 2-.8 3-1.3-1 .4-1.8.7-2.9 1.2-.8.3.3-.8.8-1.1.2-.2.7.2.9 0 .5-.2.9-.4 1.4-.7.2-.2.3.3.4.2.7-.3 1.1-1 1.6-.9s.7 0 1 .1h.6l.4-.1c-.1-.1-.2-.3-.2-.5.2 0 .5.1.7.1-.2 0-.5-.1-.7-.1 0 .2.1.4.2.5 1-.4 2.1-.6 3.2-.6-.6 0-1.3-.2-1.9-.5.3.1.2.2-.1.3l-.2-.2c.5-.2 1.2-.2 1.7.2l.4-.1c.2.1.1.2.2.4h.4c-.2-.7-.6-1-1-1.2z" class="st3"/><path d="M716.5 474.5l.3-.1c-.4.1-.8.1-1.2.2.2.2.6.1.9-.1z" class="st3"/></g><path d="M713.7 499.9c4.2-.9 6.8-5 5.9-9.2-.9-4.2-4-4-8.1-3.1s-7.9 2.2-7 6.4c.9 4.1 5 6.8 9.2 5.9z" class="st4"/><g class="st1"><path d="M710.1 499.5c-.1 0-.3-.1-.4-.1.1 0 .1.1.2.1h.2zM709.3 499.2h-.1.1zM708.6 498.9c.1.1.2.1.4.1-.1 0-.3 0-.4-.1zM709.1 499.2s0-.1 0 0l-.2-.1.2.1zM709.1 499.2c0 .1.1.1.1.1l-.1-.1zM708.6 499.9c-.1 0 0-.2-.1-.2a3 3 0 01-1-.4c-.2 0-.2-.4-.4-.5-.3-.2-1.3-.7-.9-.2a6.46 6.46 0 003.9 1.6c.2 0 .3.1.5.1l-.7-.3c-.3-.1-.8.1-1.3-.1zM713.3 499.8l-.2.1c-.4-.1-.7-.1-1.1 0l.2.1c.2 0 .2-.1 0-.1.4.1.8.1 1.2 0 0 0 0-.1-.1-.1zM713.7 499.9l-.2.1.2-.1z" class="st3"/><path d="M707.2 498.2c-.8-.6-1.4-1.4-1.8-2.3-.1 0-.1-.1-.2-.2v-.2c-.1-.1-.1-.3-.2-.4l-.1-.1c0-.1-.1 0-.1 0v-.2c-.1-.1-.1-.2-.1-.4.1.1.1.2.1.4l.1.2v.1c-.1-.3-.2-.6-.2-.9l-.1-.2c-.1-.2-.1-.4 0-.6s0-.1 0-.2v-.1-.7c0-.2-.1-.3-.1-.5l.2-.1v-.3l-.3.3c-.2.1.2.4-.1.6.2-.2-.1-.4.1-.6l.3-.3c0-.3.2-.5.4-.6 0 .3-.2.5-.4.6v.3l-.2.1c0 .2 0 .3.1.5.1-.4.2-.9.4-1.3.8-1.2 2.1-2 3.5-2.4 1.5-.5 3-.8 4.5-1 1.7-.2 3.5-.2 4.4.6.9 1 1.4 2.3 1.3 3.6.1 1.4-.5 2.8-1.5 3.8-.5.5-.9.9-1.5 1.4-.5.4-1.1.8-1.7 1-.6.4-.7.8-.6 1.1.1.2.2.4.4.5.5.3 1.2.3 1.7 0 .8-.3 1.6-.7 2.3-1.2-.7.4-.5.1-.1-.4s1.2-1.2 1.8-1.7c1-.9 1.6-2.2 1.5-3.6 0-.7 0-1.5-.2-2.2-.1-.7-.4-1.4-.6-2.1-.3-.8-.9-1.5-1.7-2-1-.7-2.2-1.1-3.4-1.1-1 0-2 .1-3 .3-2 .4-3.9 1-5.7 1.7-1 .5-1.9 1.3-2.4 2.4-.5.6-.8 1.4-.9 2.2-.1.9 0 1.7.4 2.5-.3-.8-.4-1.6-.4-2.5.1-.7.2.5.3.9 0 .2-.2.5-.1.6.1.4.2.7.4 1.1.1.1-.1.2-.1.3.2.5.7.8.8 1.1s.2.5.3.7c.1.1.1.3.2.4l.2.2c0-.1.1-.2.1-.3.1.1.2.3.2.4-.1-.1-.2-.3-.2-.4-.1.1-.1.2-.1.3.6.5 1.2.9 1.8 1.3-.4-.2-.7-.5-.9-.9.1.2 0 .2-.1.1v-.2c.3.2.6.5.8.8l.2.1c.1.1 0 .2 0 .2l.2.1c-.1-.1-.1-.3-.2-.4l.3-.2z" class="st3"/><path d="M704.8 494.8l.1.2c-.1-.3-.2-.5-.2-.8 0 .2 0 .4.1.6z" class="st3"/></g></svg>