<svg xmlns="http://www.w3.org/2000/svg" id="Layer_1" x="0" y="0" version="1.1" viewBox="0 0 841.9 841.9" xml:space="preserve"><defs/><style>.st1{opacity:.85}.st2{fill:#211f1e}</style><path fill="#d69f7e" d="M0-.4h841.9v841.9H0z"/><g class="st1"><path d="M203.4 419l1.7-.2c-.3 0-.6-.1-.9-.2-.4 0-.5.2-.8.4zM206.7 418.7h.3l.2-.1-.5.1zM209.6 418.2c-.5 0-1 .1-1.5.2.5 0 1-.1 1.5-.2zM207.2 418.2c.2.1.3.3 0 .4l.9-.2c-.3-.1-.6-.1-.9-.2zM207.2 418.2c-.2-.1-.5-.2-.6-.3l.6.3zM207.6 414.7c.3-.1.3.8.9.5 1.2-.5 2.5-.9 3.9-1.1.6-.3 1.6.7 2.2.4 1.4-.4 4.9-2 2.8-1.7-3.2.4-5.3.9-8.1 1.3-2.3.6-4.5 1.4-6.8 2-.6.1-1.3.2-1.9.2l2.6.1c1.2.2 2.5-1.2 4.4-1.7zM190.9 420.6l.8-.5c.7.2 1.4.2 2.1 0 .7-.2 1.4-.4 2-.6l-.7-.4c-.8.2-.8.5-.1.5-1.6-.2-3.2-.1-4.8.4.2.2.2.5.7.6zM189.3 420.3l.9-.3s0-.1-.1-.1l-.8.4zM215.9 416.7c2-.2 3.9-.4 5.8-.5l5.6-.3c.3-.2.4-.4.8-.4l.9.3h1.6l.6-.1c.3-.1.2-.3 0-.4l-.6-.3c.1.1.4.2.6.3.3.1.6.2.9.2.5-.1 1-.1 1.5-.1-.5.1-1 .2-1.5.1l-.9.2-.3.1h3.7c.3 0 .5-.1.8-.1.9-.2 1.7-.3 2.3.1h.7l-.1-.1.2.1h2.8c.6-.2 1.2-.5 1.8-.6l.6.5c.3-.3.6-.4 1-.5-.5-.3-1-.6-1.4-.8-.6-.5-1.4 1-2.1.1.8.9 1.5-.6 2.1-.1.4.2.9.5 1.4.8 1-.2 2-.1 2.9.4-1 .3-2.1.2-2.9-.4-.4.1-.7.2-1 .5l-.6-.5-1.8.6 5.5.1c12 .2 23 0 35.5.3 6.7.2 13.2.5 19.6 1s12.4.3 18.5.2c6.3-.2 12.6.1 18.8.7 3.2.2 6.5.1 9.7-.4 3.6-.4 7.2-1.1 9.7-1.6 3.2-1.5 3.6-3.1 3.3-4.3-.3-.9-.9-1.6-1.7-2.1a9.68 9.68 0 00-6.2-1.2c-3 .3-5.9.3-8.9-.2 5.4.6-3.7 2.7-9 .5-7.5-3.2-17.8.1-26.9-.7-2.3-.2-4.7 0-7.4 0-14.1-1-27.2.6-42.1.6-4 .1-7.4 1.1-10.7 1.6-2.4.2-5-.2-7-.1-2.8.1-5.6.5-8.3 1.1 2.9-.3 4.9-.7 8.1-.9 2.1-.1-1.4 1.3-2.8 1.6-.6.2-1.6-.8-2.2-.5-1.3.2-2.6.5-3.9.9-.6.2-.6-.7-.9-.6-1.9.3-3.3 1.6-4.6 1.4l-2.6-.3c-.5 0-1.1 0-1.6.1l-1 .3c.3.3.5.6.5 1-.5 0-1.2-.2-1.7-.2.5 0 1.2.2 1.7.2-.1-.4-.3-.7-.5-1-2.5.7-5.4 1.5-8 2.1v.1c1.6-.3 3.2-.2 4.8.2-.7-.1-.7-.4.1-.5l.7.4c-1.4.4-2.8.8-4.1.2l-.9.4c-.4-.1-.5-.4-.6-.6l-.9.2c.6.5 1.6.7 2.6.9z" class="st2"/><path d="M232.1 415.6c-.2 0-.5.1-.8.1h3.1c-.8-.3-1.6-.4-2.3-.1z" class="st2"/></g><g class="st1"><path d="M637.8 427.2l-1.7-.3c.3.1.6.3.8.5.4.1.6 0 .9-.2zM634.5 426.6l-.3-.1h-.3l.6.1zM631.4 426.5c.5.1 1 .2 1.6.1-.6-.1-1.1-.2-1.6-.1zM633.8 427c-.2-.2-.2-.3.1-.4h-.9c.2.1.5.2.8.4zM633.8 427c.2.2.4.3.5.4-.2-.1-.3-.3-.5-.4zM632.6 430.3c-.3.1-.1-.9-.8-.7-1.3.2-2.7.3-4 .2-.6.1-1.5-1-2.1-.9-1.5.1-5.2 1.1-3 1.2 1.6.1 2.9.1 4.2.1s2.5.1 4 .2c2.4-.1 4.7-.2 7.1-.2.6.1 1.3.2 1.9.4-.8-.3-1.6-.6-2.5-.9-1.2-.4-2.9.6-4.8.6zM650.5 430.4l-1 .1c-.6-.5-1.2-.8-1.9-1-.7-.1-1.4-.2-2.2-.2l.5.6c.8.1 1-.1.3-.5 1.4.8 3 1.4 4.6 1.7 0-.1.1-.4-.3-.7zM651.8 431.4l-.9-.2v.1l.9.1zM624.8 426.6l-11.6-1c-.3.2-.5.4-.9.2-.3-.2-.6-.3-.9-.4l-1.6-.1h-.6c-.3.1-.2.2 0 .4.2.1.4.2.5.4-.1-.1-.4-.2-.5-.4l-.9-.3c-.5.1-1 .1-1.6 0 .5-.1 1-.1 1.6 0l.9-.1.3-.1-3.7-.3h-.8c-.9.1-1.8.2-2.3-.3h-.7l.1.1-.2-.1-2.8-.2c-.6.2-1.2.4-1.9.5l-.6-.5c-.3.2-.7.4-1.1.5.5.3 1 .6 1.4.8.6.5 1.4-.9 2.2 0-.7-.9-1.5.5-2.2 0-.4-.2-.9-.5-1.4-.8-1 .1-2.1-.1-3-.5 1-.3 2.1-.1 3 .5.4-.1.8-.2 1.1-.5l.6.5c.6-.1 1.3-.3 1.9-.5-1.8-.2-3.7-.3-5.6-.4-12.2-1-23.5-.9-36.2-1.4-6.9-.3-13.5-.7-19.9-1.3s-12.6-.6-18.7-.9c-6.3-.1-12.5-1-18.5-2.5-3-.6-6.1-1.1-9.2-1.5l-2.5-.3-2.4-.4c-1.5-.2-2.8-.5-3.9-.7-3 0-4.1 1.2-4.4 2.4-.2.9-.1 1.8.3 2.7 1.4 2.3 3.2 3.1 5.4 3.7l3.9 1c1.8.5 3.5 1 5.2 1.6-5.4-1.8 4.3-1.7 9.4 1 3.7 2.1 8.4 2.5 13.2 2.5s9.9-.4 14.6.1c2.3.3 4.8.1 7.6.2 14.5 1.4 27.9-.2 43 .2 4 0 7.5-.8 10.9-1.2 2.5-.1 5.1.5 7.1.5 2.8.1 5.6-.1 8.5-.4-2.9 0-5 .2-8.2.2-2.2 0 1.5-1.2 3-1.4.6-.2 1.5.9 2.2.7 1.3 0 2.7-.2 4-.5.6-.2.5.8.8.7 1.9-.1 3.5-1.2 4.7-.9.9.2 1.8.4 2.6.6.5.1 1 .2 1.6.2l1.1-.2c-.2-.3-.4-.6-.4-1 .5.1 1.2.4 1.7.5-.5-.1-1.2-.4-1.7-.5 0 .4.2.7.4 1 2.6-.4 5.6-.6 8.3-.7-1.6 0-3.3-.3-4.8-1 .7.3.6.5-.2.5l-.6-.5c1.4-.3 2.9-.1 4.2.5l.9-.2c.4.2.4.5.5.7h1c-1.2-.6-2.2-1-3.2-1.4z" class="st2"/><path d="M608.3 425.4h.8l-3.1-.3c.5.4 1.4.3 2.3.3z" class="st2"/></g></svg>