<svg xmlns="http://www.w3.org/2000/svg" id="Layer_1" x="0" y="0" version="1.1" viewBox="0 0 841.9 841.9" xml:space="preserve"><defs/><style>.st1{opacity:.85}.st2{fill:#090a0a}.st3{fill:#040505}</style><path fill="#eee2de" d="M0 0h841.9v841.9H0z"/><g class="st1"><path d="M160.9 628.3c-.3.2-.6.5-.9.7.2-.1.4-.2.6-.2s.3-.3.3-.5zM159.2 629.6l-.2.1-.1.1c.1-.1.2-.1.3-.2zM157.5 630.4c.3-.1.6-.2.9-.4-.1 0-.3.1-.4.2-.2.1-.4.2-.5.2z" class="st2"/><path d="M159 630c-.1 0-.2-.1-.1-.2l-.5.3c.2 0 .4-.1.6-.1zM159 630h.4-.4z" class="st2"/><path d="M159.2 631.7c-.2.2-.3-.3-.7 0s-.9.5-1.4.6c-.5.2-1 .3-1.5.3-.5.1-1.2-.4-1.6-.3s-1.5.2-2.1.2-.9.2-.1.3c2.1.3 4.3.2 6.3-.5 1.7-.7 3.1-1.8 4.2-3.2.3-.4.6-.7 1-1l-1.5 1.2c-.4.3-.7.7-1.1 1.1-.2.2-.4.5-.6.7-.3.3-.6.5-.9.6zM165.9 621.3c0 .2-.1.6-.1.6-.6.7-1.1 1.6-1.4 2.5.1-.1.3-.2.4-.2.2-.5.1-.6-.2-.2.4-.4.7-.9 1-1.3.3-.5.5-1 .7-1.5-.1-.1-.2-.1-.4.1zM166.6 620.5l-.2.6c0-.2.1-.4.2-.6z" class="st2"/><path d="M153.3 631.2c-2.6-.3-5.2-1.1-7.6-2.2-.2.1-.4 0-.6-.1-.1-.2-.3-.3-.5-.4l-1-.5-.4-.1c-.2 0-.2 0-.1.2l.3.3c0-.1-.2-.2-.3-.3l-.4-.4c-.3-.2-.6-.3-.9-.5.3.1.6.3.9.5.2.1.4.2.6.2h.2c-.7-.4-1.4-.9-2.1-1.3l-.4-.3c-.5-.3-1-.6-1.2-1l-.3-.3v.1l-.1-.2c-.4-.5-.9-.9-1.3-1.4a7 7 0 01-1-.8l-.1-.5c-.2-.1-.5-.2-.6-.4l.3 1c.1.5 1 .4 1 1.1 0-.7-.9-.6-1-1.1l-.3-1c-.5-.5-.8-1.1-.9-1.8.5.5.8 1.1.9 1.8.2.2.4.3.6.4l.1.5c.3.3.7.5 1 .8l-1.2-1.4-1-1.6c-2-3.4-3.1-7.3-3.2-11.2 0-1 0-2 .1-2.9.1-.5.2-1 .2-1.5l.1-.7.2-.7c.1-.5.3-1 .4-1.4s.4-.9.6-1.4c.2-.5.4-.9.6-1.4.2-.5.5-.9.7-1.3 1-1.8 2.6-3.3 4.5-4.1 1.8-.6 3.8-.6 5.7 0 3.9 1.3 7.6 3 11.1 5.2 1.8 1 3.4 2.2 5 3.5 1.4 1.2 2.6 2.7 3.3 4.5.6 1.5.9 3.1.8 4.8-.1 1.9-.5 3.7-1.1 5.5-.4 2 .1 2.8.7 3 .5.1 1 0 1.4-.2a6.6 6.6 0 002.5-3.6c.1-.4.3-.8.4-1.2s.2-1 .4-1.5c.3-1.3.5-2.6.6-3.9-.1 1.1-.2 1.4-.4 1.3-.2-.5-.3-1.1-.3-1.7-.2-1.1-.4-2.1-.7-3.1-.4-1.1-.8-2.3-1.2-3.2-.3-.7-.6-1.4-1.1-2.1-.2-.3-.5-.7-.8-1l-.9-.9a19.6 19.6 0 00-4.1-3c-1.5-.9-3.1-1.6-4.6-2.4l-4.6-2.3c-1.7-.8-3.5-1.5-5.4-1.8-.7-.2-1.4-.3-2.1-.4l-1.1-.1h-1.2a9.86 9.86 0 00-3.6.7c-.4.2-.8.3-1.1.5-1.4.8-2.6 1.8-3.6 3-.5.5-.9 1.1-1.3 1.8-.4.6-.7 1.2-1 1.8-1.2 2.5-2 5.1-2.4 7.8-.4 2.8-.4 5.7 0 8.5.6 2.7 1.7 5.3 3.4 7.5.2.4.5.8.7 1.2l.8 1.2c.4.7.9 1.4 1.5 2.1.4.4.8.9 1.2 1.2.4.4.8.7 1.2 1 .8.6 1.7 1.1 2.6 1.6l-.7-.4-.6-.4-1.2-.8c-.4-.3-.8-.6-1.1-1l-1.2-1.2c-.5-.6-.2-.5.3-.1s1.4.8 1.8 1.2c.2.2.4.4.5.7.1.3.3.5.5.6.4.3.8.6 1.2.8.4.2.9.4 1.4.6s.1.5.4.6c.6.3 1.2.4 1.9.5.5.1 1 .2 1.4.4l1.6.9c.3.2.7.3 1.1.4l.7.1c-.1-.2-.2-.4-.2-.6.4.2.7.4 1.1.5-.4-.1-.8-.3-1.1-.5 0 .2 0 .4.2.6 2 .3 3.9.4 5.9.3-1.1.1-2.3-.2-3.3-.7.5.2.4.3-.2.2-.1-.1-.2-.2-.4-.3 1 0 2 .2 2.9.5.2 0 .4-.1.6-.1.3.1.3.2.4.3h.7c-.4-.1-.8-.3-1.1-.3l-1-.8z" class="st2"/><path d="M142.7 627.6c.1.1.3.2.5.2l-1.8-1.2c.2.4.7.7 1.3 1z" class="st2"/></g><path d="M144.3 622.6c-4.3-.9-7.1-5.2-6.1-9.5.9-4.3 4.1-4.2 8.4-3.2s8.1 2.3 7.2 6.6c-.9 4.3-5.1 7-9.5 6.1z" class="st3"/><g class="st1"><path d="M148.2 622.8c.2 0 .3-.1.5-.1h-.3s-.1.1-.2.1zM149.1 622.6l.1-.1h.1zM149.9 622.2c-.1.1-.3.1-.4.2.1-.1.3-.2.4-.2zM149.2 622.4c.1 0 .1 0 0 0h0zM149.2 622.4h-.2.2zM149.1 621.5c0-.1.1.2.3.1.3-.2.5-.5.8-.7.1-.1.4 0 .5-.2.3-.3.7-1.1.3-.8-.5.5-1 .9-1.5 1.3s-1 .7-1.5.9c-.2 0-.3.1-.5.1h.7c.3 0 .5-.4.9-.7zM144.7 622.9h.3c.4.2.8.2 1.1.1l-.2-.1c-.2 0-.2.1-.1.1-.4-.1-.8-.2-1.3-.3l.2.2zM144.3 622.7h.2-.2z" class="st2"/><path d="M151.2 621c.8-.7 1.5-1.5 2-2.4v-.2c.1 0 .1-.1.2-.2s.1-.3.2-.4v-.2c0-.1 0-.1-.1 0l-.1.1.1-.1c.1-.1.1-.1.1-.2s.1-.3.1-.4c0 .1 0 .3-.1.4l-.1.2v.1c.1-.3.2-.6.3-1v-.2c0-.2 0-.4.1-.6V615.6v-.8c0-.3-.1-.3-.2-.5 0-.1.1-.1.1-.2-.1-.1-.2-.1-.2-.2 0 .2-.1.3-.1.4s.3.3.1.6c.2-.2-.2-.4-.1-.6s.1-.2.1-.4c-.1-.3-.2-.5-.2-.8.2.2.3.5.2.8 0 .1.1.2.2.2 0 .1 0 .1-.1.2.1.2.1.3.2.5 0-.5-.1-1.1-.4-1.5-.4-.8-.9-1.4-1.7-1.9-.7-.5-1.4-.8-2.2-1.1-1.6-.5-3.2-1-4.8-1.3-.9-.2-1.9-.3-2.8-.4a5 5 0 00-2.9.7 5 5 0 00-1.9 2.4c-.3.9-.5 1.8-.6 2.7-.1 1.9.3 3.9 1.2 5.6.5.9 1.2 1.7 2 2.3.8.6 1.7 1.1 2.6 1.4 1 .1 1.3-.2 1.4-.5 0-.2 0-.5-.2-.7-.3-.4-.8-.8-1.3-1.1-.7-.3-1.2-.9-1.6-1.5.4.6.1.5-.3.1-.6-.5-.9-1.1-1-1.9 0-1-.3-1.9-.4-3-.1-.5-.1-1.1 0-1.6s.2-1 .5-1.5c.2-.4.5-.7.8-1 .9-.5 2.7-.4 4.4-.1 1.8.2 3.6.7 5.2 1.4.7.3 1.4.6 2 1.1.3.4.4.8.4 1.3.1.6.1 1.2 0 1.8.1-.6.1-1.2.1-1.8-.1-.4.4.3.4.6.1.1-.2.3-.2.5v1c0 .2-.2.1-.2.2-.1.5 0 .9-.2 1.2-.1.2-.3.4-.4.5-.1.1-.2.2-.2.3l-.1.2c.1 0 .2 0 .3.1l-.3.3.3-.3c-.1 0-.2-.1-.3-.1-.3.6-.7 1.2-1.2 1.7.3-.3.6-.5 1-.7-.2.1-.2 0-.1-.1h.2c-.2.3-.5.6-.8.7 0 .1-.1.2-.1.2-.1 0-.2 0-.2-.1l-.2.2c.2 0 .3 0 .4-.1.4.1.6.1.7 0z" class="st2"/><path d="M153.7 617.4c0 .1 0 .1-.1.2.1-.3.2-.5.3-.8-.1.1-.2.3-.2.6z" class="st2"/></g><g class="st1"><path d="M681.8 622.3c.3.3.6.6 1 .8-.2-.2-.3-.3-.4-.5l-.6-.3zM683.7 623.8c.1 0 .1.1.2.1h.2c-.2 0-.3 0-.4-.1zM685.8 624.6c-.4-.1-.7-.2-1.1-.4.2.1.3.2.5.2.2.1.4.2.6.2zM684.2 623.8c.1.1.1.2-.1.2l.6.2c-.2-.1-.3-.2-.5-.4zM684.2 623.8l-.3-.3c.1.1.2.3.3.3zM685.4 622.5c.2 0 0 .5.3.5s.9.1 1.2.1h1.2c.4-.1 1 .4 1.3.3.6-.1 1.2-.4 1.7-.7.5-.3.7-.5 0-.3-1.6.4-3.3.5-4.9.1-1.4-.2-2.8-.8-3.9-1.7a7 7 0 01-.8-1c.3.5.6.9 1 1.4.3.3.7.6 1.2.7.2.1.5.1.8.2.3.2.6.3.9.4zM677 614.7l.4.5c.2 1 .6 1.9 1.3 2.6v-.5c-.3-.5-.4-.5-.3 0-.1-.6-.3-1.1-.5-1.6s-.4-1-.7-1.5c-.1.1-.2.2-.2.5zM676.9 613.6l.3.6-.3-.6z" class="st2"/><path d="M690.4 624.6c2.6-.4 5.2-1.1 7.7-2.1.2-.2.2-.3.5-.4.2 0 .4 0 .6-.1l1-.5.3-.2c.2-.1.1-.2-.1-.2h-.4.4c.2 0 .4-.1.6-.2l.9-.6-.9.6c-.2.1-.3.3-.5.4l-.1.1c.8-.4 1.5-.8 2.2-1.3l.4-.4c.3-.4.8-.8 1.3-.9l.3-.3h-.1l.2-.1c.5-.4 1-.9 1.5-1.3l.6-1.2.5-.2c0-.3.1-.5.2-.7-.3.2-.6.4-.9.5-.5.2-.3 1-.9 1.1.7-.1.5-1 .9-1.1.3-.2.6-.3.9-.5.4-.6.8-1.1 1.3-1.6-.2.7-.7 1.2-1.3 1.6-.1.2-.2.5-.2.7l-.5.2-.6 1.2 1.3-1.4 1.2-1.6c2.4-3.5 3.8-7.6 4-11.8 0-1.1 0-2.1-.1-3.2-.1-.5-.2-1-.2-1.6l-.1-.8-.2-.8c-.1-.5-.2-1-.4-1.6l-.5-1.5-.6-1.5c-.2-.5-.5-1-.7-1.5-1.1-2.3-3-4.2-5.2-5.4-2.3-1.1-4.9-1.4-7.5-.9-2.3.4-4.5 1.1-6.6 2-2 .9-3.9 1.9-5.8 2.9-2 1.1-3.9 2.2-5.7 3.5-2.1 1.4-3.9 3.1-5.5 5.2l-.9 1.5c-.3.6-.5 1.3-.7 1.9-.2.7-.3 1.5-.4 2.2-.1.7-.1 1.5 0 2.2.2 2.4.8 4.9 1.7 7.1 1.2 2.1 2.1 2.3 2.7 2 .4-.3.7-.7.8-1.2.2-1.4.2-2.8-.2-4.2-.1-.4-.2-.8-.2-1.2s-.1-.9-.2-1.3c-.1-1.1 0-2.2.3-3.2-.3 1.6-.7 1-.6-.4.1-.9.3-1.7.8-2.4.4-.8 1.1-1.5 1.8-2 2.1-1.2 4.2-2.8 6.8-4.5 2.6-1.8 5.4-3.3 8.3-4.5 1.4-.6 2.9-1 4.4-1.4 1.7-.3 3.5-.1 5.1.6 1.5 1 2.7 2.4 3.5 4 1 1.9 1.8 3.9 2.1 6 .4 2.2.4 4.4 0 6.6-.3 2.2-.8 4.4-1.6 6.5-.2.3-.4.7-.6 1s-.5.6-.7.9c-.5.6-1 1.1-1.4 1.6-.3.4-.6.7-1 1-.3.3-.6.7-.9 1-.7.6-1.2 1.2-1.8 1.7l.5-.4.5-.4.9-.8.9-.9c.3-.3.6-.6.9-1 .8-1-.1 1.1-.8 1.8-.2.2-.4.3-.6.4-.2 0-.5.1-.7.3-.3.3-.6.5-.9.8-.3.3-.6.6-1 .9s-.5-.1-.6 0c-.5.3-.9.7-1.3 1.1-.3.4-.7.6-1.2.8-.6.2-1.2.3-1.7.5l-1 .3-.6.3c.2.1.3.2.5.4-.3.1-.8.1-1.2.2.3-.1.8-.1 1.2-.2-.1-.2-.3-.3-.5-.4-1.6.8-3.4 1.4-5.2 1.7 1.1 0 2.1-.2 3.3-.1-.5 0-.5-.2.1-.3.2 0 .3.1.5.2-.9.4-1.9.6-2.8.4 0 0-.4.2-.6.2s-.3-.2-.4-.3h-.6c.4.2.7.3 1.1.4l1 .1z" class="st2"/><path d="M701.1 620.9c-.1.1-.3.2-.4.3l1.9-1.1c-.6.2-1.1.4-1.5.8z" class="st2"/></g><path d="M699.2 615.7c4.3-.9 7.1-5.2 6.1-9.5-.9-4.3-4.1-4.2-8.4-3.2s-8.1 2.3-7.2 6.6c1 4.2 5.2 7 9.5 6.1z" class="st3"/><g class="st1"><path d="M695.5 615.2c-.1 0-.3-.1-.4-.2l.2.2c.1.1.2.1.2 0zM694.7 614.9h-.1zM694 614.7c.1.1.2.1.4.2-.1-.1-.3-.2-.4-.2zM694.5 615s0-.1 0 0l-.2-.2c.1.1.2.1.2.2zM694.5 615l.1.1-.1-.1zM694 615.7c-.1 0 0-.2-.2-.2-.4-.1-.7-.2-1.1-.4-.2 0-.2-.4-.4-.5-.4-.2-1.3-.7-.9-.3.6.5 1.3.9 2 1.3.6.2 1.3.4 2 .4.2 0 .4.1.5.2l-.7-.3c-.2-.2-.7 0-1.2-.2zM698.8 615.5l-.2.1c-.4-.1-.7-.1-1.1 0l.2.1c.2 0 .2-.1 0-.1.4.1.9.1 1.3 0l-.2-.1zM699.2 615.6l-.2.1.2-.1z" class="st2"/><path d="M692.5 613.9c-.8-.7-1.4-1.5-1.9-2.4-.1 0-.1-.1-.2-.2v-.2c-.1-.1-.1-.3-.2-.4l-.1-.1c-.1-.1-.1 0-.1 0v-.2c-.1-.1-.1-.3-.1-.4.1.1.1.3.1.4l.1.2v.1c-.1-.3-.2-.6-.2-.9l-.1-.2c-.1-.2-.1-.4 0-.6v-.2-.1-.7c0-.2-.1-.3-.1-.5l.2-.1v-.3l-.3.3c-.1.2.2.4-.1.6.2-.2-.1-.4.1-.6l.3-.3c0-.3.2-.5.4-.7 0 .3-.2.5-.4.7v.3l-.2.1c0 .2 0 .3.1.5 0-.5.2-.9.4-1.3a6.6 6.6 0 013.6-2.5c1.5-.5 3.1-.8 4.7-1 .8-.1 1.7-.2 2.6-.1.7 0 1.4.3 2 .8a5.8 5.8 0 01-.1 7.7c-.5.5-1 1-1.5 1.4-.5.4-1.1.8-1.8 1-.6.4-.7.8-.6 1.1.1.2.2.4.4.5.6.3 1.2.3 1.8 0l2.4-1.2c-.7.5-.6.1-.1-.3s1.2-1.2 1.8-1.8c1-.9 1.6-2.3 1.6-3.7 0-.8 0-1.5-.2-2.2-.1-.7-.4-1.5-.6-2.2-.3-.8-.9-1.6-1.7-2.1-1-.7-2.2-1.1-3.5-1.1-1 0-2.1.1-3.1.3-2 .4-4 1-5.9 1.8a5.8 5.8 0 00-2.5 2.4c-.5.7-.8 1.4-.9 2.2-.1.9.1 1.8.4 2.6-.3-.8-.4-1.7-.4-2.5.1-.7.2.5.3.9 0 .2-.2.5-.1.7.1.4.2.8.4 1.1.1.2-.1.2-.1.3.2.5.7.8.8 1.1.1.2.2.5.3.7.1.1.1.3.2.4l.2.2c0-.1.1-.2.1-.3.1.1.2.3.2.4-.1-.1-.2-.3-.2-.4-.1.1-.1.2-.1.3.6.5 1.2 1 1.9 1.3-.4-.2-.7-.6-.9-1 .1.2 0 .2-.1 0v-.2c.3.2.6.5.8.8l.2.1c.1.1 0 .2 0 .2l.2.1c-.1-.1-.2-.3-.2-.4v-.2z" class="st2"/><path d="M690.1 610.3l.1.2c-.1-.3-.2-.5-.2-.8-.1.2-.1.5.1.6z" class="st2"/></g><g class="st1"><path d="M336.8 576l-2.5 2.8-1.2 1.4c-.4.5-.9.9-1.3 1.3l2.8-2.5c.8-.9 1.6-1.9 2.2-3zM326.9 586.4l-1 .9-.8.8 1.8-1.7zM317.2 595.1c1.8-1.4 3.5-2.8 5.1-4.2-1.4 1.1-3.2 2.4-5.1 4.2zM325.3 588.5c-.7.4-1.1.6-.2-.4l-2.8 2.8c1.1-1 2.1-1.8 3-2.4zM325.3 588.5c.7-.4 1.6-1.2 2-1.4-.6.4-1.3.9-2 1.4z" class="st2"/><path d="M325.1 593.3c-.9 1-1.3 0-3.2 1.9l-3.4 3c-1.1 1-2.2 1.8-3.3 2.8s-2.2 1.8-3.3 2.6-2.4 1.6-3.6 2.4c-.6.4-1.2.8-1.9 1.2-.7.4-1.5.8-2.3 1.1-1.5.5-2.9 1.2-4.3 2-5.2 3.5-19.5 10.6-10.9 6.9 3.2-1.4 6.1-2.8 8.9-4.3s5.2-3 7.6-4.4c2.4-1.6 4.7-3.1 7.1-4.8l3.5-2.7c1.2-.9 2.5-1.8 3.6-2.8 7.8-6.7 14.8-14.2 21-22.3.9-1.2 1.8-2.3 2.7-3.4l1.3-1.6 1.2-1.7c-1.1 1.5-2.3 2.8-3.5 4.3s-2.5 3-3.9 4.4c-1.9 1.9-3.6 4.4-5.8 6.9-1.1 1.3-2.1 2.7-3.5 4.1s-2.5 2.9-4 4.4zM362.9 528.2l-.7 3.8c-2.3 5.4-4.1 11.1-6.6 16.7l1.6-2.2c.5-.9.8-1.8 1-2.7 0-.2-.4.4-1.1 1.8 3.3-6.1 5.7-12.7 7-19.5-.5.4-.7.3-1.2 2.1z" class="st2"/><path d="M364.7 522.2c-.2 1.3-.5 2.7-.7 4l.1-.1.6-4v.1zM294.4 610.6c-7.6 3.6-15.5 6.9-23.4 9.6-7.8 2.8-15.5 5.2-23.2 7.4-1.1.6-2.3 1-3.5 1.3-1.2.2-2.5.4-3.7.7-2.3.6-4.5 1.2-6.8 1.7l-2.4.7h-.1c-1.2.4-.8.5 0 .4s1.7-.2 2.5-.2c-.5 0-1.7.2-2.5.2-1.1.2-2.3.3-3.7.6-2.1.5-4.2 1-6.5 1.5 2.5-.6 4.6-1.1 6.5-1.5 1.3-.3 2.6-.7 3.8-1l1.1-.3c-5.2 1.2-10.4 2.3-15.6 3.3l-3.3.7c-1.9.4-3.8.8-5.5 1.1-1.5.3-3 .4-4.5.4-.9.1-1.9.2-2.8.4h.6-1.1l-3 .4-3 .3c-2 .2-4 .4-6 .5l-3.9.6c-1.3.2-2.7.4-4 .5l-2.7-.4c-1.5.3-3 .5-4.5.5l3.1.4 2.9.3a12.93 12.93 0 010 0l-2.9-.3-3.1-.4c-2.1.1-4.2 0-6.3-.2-1.1-.1-2.2-.2-3.3-.4-1-.1-2.1-.3-3.1-.6 4.2.1 8.4.5 12.6 1.1 1.5 0 3-.2 4.5-.5l2.7.4c1.3-.1 2.7-.3 4-.5l3.9-.6c-7.9.6-15.9.6-23.8 0l-2.4-.2-2.4-.3-2.4-.3-2.4-.4c-1.6-.2-3.1-.6-4.7-1l-4.7-1.2c-3.1-.8-6.3-1.5-9.3-2.2-3-.6-5.8-1.7-8.4-3.3-1.2-.8-2.2-1.8-3.1-2.9-.9-1.2-1.7-2.5-2.3-3.8-1.3-2.8-2.4-5.7-3.4-8.6-1.9-6-3.6-12.1-5.2-18.2l-1.2-4.6-1.1-4.6-1.1-4.6c-.4-1.5-.6-3.1-.9-4.7l-.8-4.7c-.2-.8-.3-1.6-.3-2.4l-.3-2.4-.6-4.8c-.2-1.6-.2-3.2-.3-4.8s-.2-3.2-.2-4.8 0-3.2.1-4.8v-2.4c0-.8.1-1.6.2-2.4l.4-4.8.3-2.4.4-2.4.4-2.4.2-1.2.3-1.2c.4-1.6.8-3.2 1.1-4.8l.3-1.2.4-1.2.7-2.4c.5-1.7 1-3.5 1.7-5.1s1.3-3.4 1.9-5 1.5-3.3 2.2-4.9l.6-1.2.6-1.2 1.2-2.4 1.2-2.4c.4-.8.9-1.5 1.3-2.3.9-1.5 1.8-3.1 2.7-4.6l2.9-4.5c.9-1.5 2-2.9 3-4.4 4-5.8 8.3-11.3 12.7-16.7s8.9-10.7 13.3-16.1c8.9-10.4 17.1-21.4 24.6-32.9 7.3-11.5 13.3-23.8 17.6-36.7l1.5-4.9c.5-1.6 1-3.2 1.4-4.9l1.2-5c.4-1.7.6-3.4 1-5.1l.5-2.5c.1-.9.2-1.7.4-2.5l.7-5.1c.2-3.4.7-6.9.7-10.3.5-14-.3-28.1-2.3-42-.8-5.4-2.1-12-3.8-19s-4-14.5-6.4-21.8c-4.5-13.1-9.7-25.8-15.7-38.2-3.4-6.2-5.9-9.8-7.7-11.8s-2.8-2.4-3.2-1.9c-.9.9 0 4.9.2 5.5 2.4 8.4 5.2 15.3 8.9 24.3 5 12 9 24.3 12 36.9-.7-2.8-1.1-4.7-1.3-5.8s-.1-1.4.1-1c.5.9.9 1.9 1.2 2.9l2 6c1.7 5.8 3.1 11.6 4.2 17.5.3 1.6.6 3.2.8 4.9s.5 3.2.6 4.8c.3 3.2.6 6.2.6 9 .2 8 .4 16.7.1 25.9-.3 9.5-1.4 19.1-3.3 28.4-2.1 9.8-5.2 19.3-9.2 28.5-4.1 9.1-9.1 17.7-14.9 25.8-5.6 7.9-11.9 16.3-19.3 25.5-9.8 11.8-19.7 23.6-28.3 36.5-4.3 6.5-8.1 13.3-11.5 20.4-3.3 7.2-5.9 14.7-7.8 22.4-.4 1.9-.8 3.9-1.3 5.8s-.6 3.9-.9 5.9c-.1 1-.3 2-.4 3l-.2 3c-.1 2-.3 4-.4 6 0 4-.1 8 .2 12l.2 3c.1 1 .1 2 .3 3 .3 2 .5 4 .8 6 .1 1 .2 2 .4 3l.6 3c.4 2 .8 4 1.1 5.9.9 3.9 1.9 7.9 2.9 11.7 2.1 7.6 4.2 15.3 6.8 23.4.7 2.1 1.5 4.2 2.5 6.3 1 2.2 2.2 4.4 3.6 6.3 1.6 2.2 3.7 4 6 5.4 2.1 1.2 4.3 2.1 6.7 2.7 4.2 1.1 7.9 1.6 11.5 2.3l5.4 1c1.9.3 3.8.7 5.7.9 10.4 1.6 20.9 2.1 31.4 1.5 12.3-.9 24.4-2.9 36.4-5.9-6.1 1.3-11.5 2.5-17.1 3.4s-11.4 1.8-18.4 2.3c-4.7.3-3.1-.1.5-.7l6.2-1.1 5.9-1c1.6-.3 3.1-.4 4.7-.3 1.6 0 3.2-.1 4.7-.4 5.7-1 10.8-2.4 16.8-3.9 2.5-.8 2.4.2 3.7-.2 8.2-2.1 14.1-5 19.3-6.2 4-1 7.5-1.9 11-2.8 2.2-.6 4.3-1.3 6.6-2.1l4.2-1.7c-.8.1-1.6 0-2.3-.3 2.1-.7 5.1-1.5 7.2-2.2-2.1.7-5.1 1.6-7.2 2.2.7.3 1.5.4 2.3.3 5.1-2.1 10.6-4.4 16.1-7 2.8-1.3 5.5-2.6 8.2-4s5.3-3 7.8-4.5h-.1l-4.5 2.5c-1.5.8-3.1 1.5-4.7 2.2-3.2 1.4-6.5 2.6-9.9 3.7 3-1 2.7-.6-.6.8-.9.2-1.8.4-2.7.5 5.6-2.5 11.1-5.1 16.7-7.1 0 0 .6-.3 1.3-.8l2-1.4c1.8-.8 1.8-.5 2.3-.5 1.2-.7 2.4-1.3 3.5-2.1-.3.1-.8.3-1.2.6s-1 .5-1.6.7L299 609c-1.2.5-2.3 1.1-3.1 1.4l-1.5.2z" class="st2"/><path d="M227.4 632.9l3.2-.8c-2.2.5-4.4 1-6.5 1.4s-4.4.9-6.6 1.3c2.4 0 6.1-.9 9.9-1.9z" class="st2"/></g><g class="st1"><path d="M503.1 575.9l2.5 2.9 1.2 1.4c.4.5.9.9 1.3 1.4l-1.2-1.5c-.4-.5-.8-1-1.1-1.6-.8-.9-1.7-1.8-2.7-2.6zM513 586.7l1 .9.9.7-1.9-1.6zM523.2 595.1c-1.8-1.5-3.5-2.9-5.2-4.2 1.4 1.3 3.1 2.7 5.2 4.2zM515.3 588.1c.5.7.7 1-.4.2l3 2.6c-.9-1-1.8-2-2.6-2.8zM515.3 588.1c-.5-.6-1.3-1.6-1.6-1.9l1.6 1.9zM520 587.8c1 .8.2 1.3 2.3 2.8l3.5 2.6 3.5 2.3 3.4 2.3c1.2.7 2.3 1.4 3.5 2.2l1.8 1.2c.6.5 1.2 1 1.9 1.5 1.2 1 2.5 1.8 3.9 2.5 5.3 2.9 20.2 7.5 11.8 4-3.1-1.3-6-2.6-8.6-3.9s-5-2.7-7.4-3.9c-2.3-1.4-4.6-2.8-6.9-4.3l-3.5-2.4c-1.2-.8-2.4-1.6-3.6-2.6-8.1-5.8-15.4-12.5-22-20-.9-1.1-1.8-2.2-2.6-3.3l-1.2-1.6c-.4-.5-.8-1.1-1.1-1.7.9 1.5 2 2.9 3.1 4.4s2.2 3.1 3.5 4.6a41 41 0 006.3 6.2c1.3 1 2.5 2.2 4 3.4s2.9 2.4 4.4 3.7zM477.6 526.8l1.3 3.7c1.2 6 3.3 11.7 6.4 17-.2-.9-.5-1.8-.8-2.7-.4-.9-.8-1.7-1.3-2.6-.1-.1 0 .6.5 2.1-2.4-6.6-4.4-13.2-6-20-.1.6-.5.6-.1 2.5z" class="st2"/><path d="M476.9 520.4c.3 1.3.6 2.7.8 4 0-.1 0-.1.1-.2l-.9-4v.2zM547.2 609.3c7.7 3.6 15.5 6.8 23.5 9.7 7.8 2.8 15.5 5.3 23.2 7.6 1.3.1 2.5.3 3.7.7 1.2.5 2.3.9 3.5 1.3l6.8 1.8 2.4.5h.1c1.3.2 1 0 .2-.4s-1.6-.6-2.3-.9c.4.2 1.6.6 2.3.9 1.2.4 2.4.8 3.6 1.1 2.1.4 4.3.9 6.5 1.4-2.2-.3-4.4-.8-6.5-1.4-1.3-.2-2.6-.5-3.9-.8l-1.1-.2c5.2 1.3 10.4 2.5 15.6 3.5l3.3.6c1.9.3 3.8.5 5.5.8 1.5.2 3 .5 4.4 1 .9.2 1.9.3 2.8.4l-.5-.2 1.1.2 3 .4 3 .4c2 .3 4 .5 6 .6h8l2.7.6c1.5-.2 3-.4 4.5-.4l-3.1-.4c-1-.2-1.9-.3-2.9-.5a16.2 16.2 0 010 0c.9.1 1.9.3 2.9.5l3.1.4c1.9 0 4.1-.2 6.3-.2 1.1 0 2.2-.1 3.3 0h3.2c-4.2.8-8.5.8-12.8.2-1.5.1-3 .2-4.5.4l-2.7-.6h-8c8 .8 16.1 1 24.1.5l2.5-.2 2.5-.3 2.5-.3 2.4-.4c1.6-.2 3.2-.6 4.8-.9s3.2-.7 4.7-1.1c3.1-.7 6.3-1.3 9.4-2.1 3.3-.7 6.5-1.9 9.4-3.6 1.5-1 2.7-2.2 3.8-3.6 1-1.3 1.9-2.8 2.7-4.3 1.4-2.9 2.6-5.9 3.6-9 2-6.1 3.7-12.2 5.5-18.3l1.3-4.6 1.2-4.7 1.2-4.7c.4-1.6.6-3.2 1-4.8l.9-4.8c.2-.8.3-1.6.4-2.4l.3-2.4.6-4.9c.2-1.6.2-3.3.3-4.9l.3-4.9v-7.5c0-.8-.1-1.7-.2-2.5-.1-1.7-.2-3.3-.4-5-.1-.8-.1-1.7-.3-2.5l-.4-2.5-.4-2.5-.2-1.3-.3-1.2c-.4-1.7-.7-3.3-1.1-5l-.3-1.3-.4-1.2-.7-2.5c-.5-1.8-1-3.6-1.7-5.4s-1.2-3.5-1.9-5.2-1.5-3.4-2.2-5.1l-.5-1.3-.6-1.2-1.2-2.5-1-1.9c-.4-.8-.9-1.6-1.3-2.4-.9-1.6-1.7-3.2-2.7-4.8s-1.9-3.1-2.8-4.6-2-3-2.9-4.5c-4-6-8.1-11.8-12.4-17.4s-8.5-11.1-12.7-16.6c-8.4-10.9-16.4-21.6-23.3-32.8a163 163 0 01-16.5-35.1c-8-24.5-7.5-51.2-1.4-77.8 1.2-5.1 2.6-11.3 4.4-18s4-13.8 6.3-20.9c4.2-12.6 9.2-25 14.8-37.1 1.8-4.2 3.3-8.5 4.5-12.8.6-2.5.4-3.4-.2-3.6-1.2-.4-4 2.5-4.4 3-5.5 6.8-9.1 13.5-13.2 22.5s-8.6 20.2-14.6 36.7c1-2.8 1.7-4.7 2.2-5.7s.7-1.2.6-.8c-.2 1.1-.4 2.1-.7 3.2-.4 1.6-1 3.7-1.7 6.2-1.3 4.9-3.1 11.2-4.7 17.7-.4 1.6-.8 3.2-1.2 4.9s-.8 3.2-1.2 4.8c-.7 3.2-1.5 6.2-2.1 9-2.2 8.8-3.4 17.8-3.5 26.9-.2 10.3.8 20.6 3 30.7 2.4 10.5 6 20.8 10.6 30.5 4.5 9.5 9.7 18.7 15.5 27.5 5.5 8.6 12.2 17 19.6 26.4 9.4 12.3 18.8 24 26.8 36.2 4 6 7.5 12.3 10.7 18.8 3 6.5 5.4 13.2 7.2 20.1l1.2 5.2.9 5.3c.1.9.3 1.8.4 2.7l.2 2.7c.1 1.8.4 3.6.4 5.4 0 3.6.2 7.3-.1 10.9l-.1 2.8c0 .9-.1 1.8-.2 2.8l-.6 5.5-.3 2.8-.5 2.8c-.3 1.8-.7 3.7-1 5.6-.4 1.8-.9 3.7-1.3 5.5s-.9 3.7-1.4 5.6c-2.1 7.6-4.2 15.3-6.7 22.7-1 3.5-2.5 6.8-4.4 10-.7 1.1-1.6 2.1-2.7 2.8-1.3.8-2.6 1.5-4.1 1.9-3.2 1.1-7 2-10.6 3l-5.4 1.5c-1.7.4-3.3.9-5 1.2-9.9 1.9-21 1.3-29.4.8-11.9-.8-23.7-2.2-35.4-4.3 6 1.2 11.3 2 16.8 2.7s11.1 1.3 17.8 1.7c4.5.2 2.9.5-.5.6h-6.1c-2.1 0-4.3-.2-5.8-.3-1.5-.2-3.1-.5-4.5-.9-1.5-.5-3-.8-4.5-1-5.6-.9-10.7-1.5-16.7-2.5-2.6-.4-2.1-1.2-3.4-1.4-8.1-1.6-14.6-2.1-19.6-3.8-3.8-1.2-7.3-2.4-10.6-3.7-2.1-.7-4.2-1.5-6.5-2.2l-4.3-1.2c.7.4 1.2.9 1.6 1.6-2.1-.8-4.9-2-7-2.8 2 .8 4.9 2.1 7 2.8-.4-.7-.9-1.2-1.6-1.6-5.2-1.5-10.8-3.4-16.5-5.5-2.8-1-5.6-2.1-8.4-3.3s-5.4-2.6-8-3.9c0 0 .1.1.1.2l4.5 2.5c1.5.8 3 1.5 4.5 2.3l9.4 4.7c-2.8-1.4-2.3-1.5 1-.2l2.3 1.4c-5.8-2-11.6-4.1-16.5-7.4 0 0-.6-.2-1.4-.6l-2.2-1c-1.6-1.1-1.4-1.3-1.6-1.7-1.2-.6-2.4-1.2-3.5-2 .3.2.6.5 1 .9s.9.7 1.4 1l3.3 2.2c1.1.7 2.1 1.4 2.9 1.9l1.2.4zM614.4 631.7c-.9-.2-2-.4-3.2-.7 2.2.5 4.3 1 6.5 1.6s4.4 1 6.6 1.4c-2.3-.9-6.1-1.5-9.9-2.3z" class="st2"/></g></svg>