<svg xmlns="http://www.w3.org/2000/svg" id="Layer_1" x="0" y="0" version="1.1" viewBox="0 0 841.9 841.9" xml:space="preserve"><defs/><style>.st1{opacity:.85}.st2{fill:#211f1e}.st3{fill:#1f2020}</style><path fill="#fde8ea" d="M0-2.3h841.9v841.9H0z"/><g class="st1"><path d="M271.4 498.4l-.8.5c.2-.1.3-.1.5-.1s.2-.2.3-.4zM269.8 499.4l-.1.1-.1.1.2-.2zM268.4 500.3c.3-.1.5-.2.8-.4a3 3 0 00-.8.4zM269.7 499.8c-.1 0-.2 0-.1-.2l-.4.3c.1 0 .3-.1.5-.1zM269.7 499.8h.4-.4zM270.1 501.5c-.1.1-.3-.3-.6-.1l-1 .7c-.3.2-.7.4-1.1.5-.3.2-1-.1-1.4 0s-.5.2-.8.4-.6.3-.8.4c-.5.2-.7.4 0 .3 1.7-.3 3.3-.9 4.8-1.7 1.2-.8 2.3-1.7 3.3-2.8.3-.3.6-.5.9-.7-.4.3-.8.6-1.3.8-.4.2-.7.5-.9.9-.3.6-.7 1-1.1 1.3zM276 493.2c0 .2-.1.5-.1.5-.3.3-.6.6-.8.9-.2.3-.4.7-.5 1.1l.4-.1c.2-.4.1-.5-.1-.2.7-.6 1.3-1.4 1.6-2.2-.2-.2-.3-.2-.5 0zM276.7 492.5c-.1.2-.1.3-.2.5l.2-.5z" class="st2"/><path d="M265.2 501.9c-2.1.4-4.3.4-6.5-.1-.2.1-.3.1-.5 0-.1-.1-.3-.2-.4-.3l-.9-.3-.3-.1c-.2 0-.2.1-.1.2s.2.2.2.3c0-.1-.2-.2-.2-.3-.1-.1-.3-.2-.4-.3a3 3 0 01-.8-.4c.3.1.6.2.8.4l.5.1h.2c-.6-.3-1.3-.6-1.9-.9-.1 0-.3-.1-.4-.2-.5-.2-.9-.4-1.1-.8l-.3-.2v.1l-.1-.1c-.4-.3-.8-.6-1.2-1-.3-.2-.6-.3-.9-.5 0 0 0-.3-.1-.4-.2 0-.4-.1-.6-.3.1.3.1.6.2.9.1.5.9.2.9.9 0-.6-.8-.4-.9-.9-.1-.2-.1-.6-.2-.9-.4-.4-.7-.9-.8-1.5.4.4.7.9.8 1.5l.6.3c0 .1.1.4.1.4.3.2.6.4.9.5-.7-.7-1.4-1.5-1.9-2.4a15.5 15.5 0 01.7-18.2c2.2-2.7 5.4-4.5 8.8-4.9 3.1-.5 6.3.1 9.1 1.5 1.3.7 2.5 1.7 3.5 2.9s1.7 2.6 2 4.1c.4 1.4.7 2.9.8 4.4.1 1.5 0 2.9-.4 4.3 0 1.5.4 2.2 1 2.4.5.2 1 .2 1.4 0 .6-.3 1-.8 1.4-1.3.3-.5.6-1.1.7-1.8.4-1.9.6-3.7.6-5.6-.1 1.8-.4 1.1-.7-.3s-.9-3.5-1.1-5.3c-.3-2.5-2.3-5.2-5-6.9-2.8-1.6-5.9-2.7-9.1-3-1.7-.2-3.4-.1-5 .3-4.8.8-9 3.5-11.6 7.5-2.7 4.1-3.8 9-3.1 13.8.4 2.4 1.5 4.6 3 6.4.8 1.3 1.7 2.5 2.7 3.7.7.7 1.5 1.3 2.3 1.8.8.4 1.5.8 2.4 1.1-1.6-.7-3.2-1.6-4.5-2.8-.5-.5-.2-.4.3-.2l.8.4c.3.1.5.2.8.4.4.1.5 1 .9 1 .4.2.7.4 1.1.5l1.2.4c.4.1.1.5.4.5.5.1 1.1.2 1.7.2.4 0 .9 0 1.3.1.5.2 1 .3 1.5.5.3.1.7.1 1 .1l.6-.1c-.1-.1-.2-.3-.3-.5.3 0 .7.2 1 .2-.3 0-.7-.2-1-.2 0 .2.1.4.3.5 1.7-.2 3.3-.7 4.8-1.3-.9.3-1.9.4-2.8.2.4.1.4.2-.1.3l-.4-.2 1.2-.3c.4-.1.8-.1 1.2 0l.5-.3c.3 0 .3.1.4.3.2 0 .4-.1.5-.2-.4-.1-1-.1-1.5-.1z" class="st2"/><path d="M256.1 500.9l.4.1c-.5-.2-1.1-.5-1.6-.8.2.4.7.6 1.2.7z" class="st2"/></g><circle cx="261.5" cy="487.7" r="5.7" class="st3"/><g class="st1"><path d="M257.5 492.1l.3.2c0-.1-.1-.1-.1-.2h-.2zM258 492.6h.1-.1zM258.6 492.9c-.1-.1-.2-.1-.3-.2.1.1.2.2.3.2zM258.2 492.6s0 .1 0 0l.1.2c-.1-.1-.1-.2-.1-.2zM258.2 492.6v-.1c-.1 0 0 0 0 .1zM258.8 492c.1 0-.1.2 0 .2s.5.1.7.2.2.3.3.3c.3 0 1-.2.6-.2-.5-.1-1-.2-1.4-.4-.4-.1-.8-.3-1.2-.5-.1-.1-.2-.2-.2-.3.1.1.2.3.3.4.1.2.6.1.9.3zM256 489.8l.1.1c0 .3.1.6.4.8v-.2c-.1-.1-.2-.1-.1 0 0-.3-.1-.7-.3-1 0 .2-.1.2-.1.3zM256.1 489.5l.1.2-.1-.2z" class="st2"/><path d="M259.9 493.2c.8.2 1.6.3 2.4.2 0 0 .1-.1.2-.1s.1 0 .2.1l.3-.1h.1v-.1h-.1H263.3c.1-.1.2-.1.3-.1-.1.1-.2.1-.3.1l-.2.1c.3-.1.5-.1.7-.2l.1-.1c.2-.1.3-.2.5-.2l.1-.1c.2-.1.3-.2.5-.3.1-.1.1-.2.2-.3h.2c0-.1 0-.2.1-.2h-.3c-.2 0-.1.4-.3.3.3.1.2-.3.3-.3h.3c.1-.2.3-.3.5-.4-.1.2-.3.4-.5.4 0 .1-.1.2-.1.2h-.2c-.1.1-.2.2-.2.3a6.05 6.05 0 001.7-8.1c-.8-1.3-1.9-2.4-3.4-2.9-1.4-.5-3-.5-4.4 0-1.4.6-2.7 1.5-3.7 2.7-.5.7-.8 1.4-.9 2.3-.1.8-.1 1.6.1 2.4.4.8.8.8 1.1.7.2-.1.4-.2.5-.4.2-.4.4-.8.4-1.2 0-.6.2-1.1.5-1.6-.2.4-.4.2-.3-.2.1-.5.5-1 1-1.2.7-.3 1.3-.6 1.9-1.1a3.6 3.6 0 013.2-.4c1 .4 1.8 1.1 2.4 2 .6.9.8 2.1.5 3.2-.1.6-.2 1.2-.5 1.7-.2.3-.5.6-.9.8-.4.3-.8.6-1.1.9.4-.2.8-.5 1.1-.8.3-.2 0 .4-.2.6-.1.1-.3 0-.4 0s-.4.3-.6.4-.1-.1-.2-.1c-.3.1-.5.5-.8.5-.2 0-.3 0-.5-.1h-.5c0 .1.1.2.1.3-.1 0-.2-.1-.3-.1.1 0 .2.1.3.1 0-.1 0-.2-.1-.3-.5.1-1.1.1-1.6 0 .3.1.6.2.9.4-.1-.1-.1-.1.1-.1l.1.1c-.3.1-.6 0-.8-.2h-.2c-.1-.1 0-.1 0-.2h-.2c.4.4.5.6.6.7z" class="st2"/><path d="M263.3 493.2l-.1.1c.2 0 .4-.1.6-.2-.2-.1-.4 0-.5.1z" class="st2"/></g><g class="st1"><path d="M386.6 434.3l-1.2 1.9-1.3 1.8c.5-.6 1-1.1 1.5-1.7.5-.6.8-1.2 1-2zM381.8 441.4l-.5.6-.3.6.8-1.2zM377.4 447.7c.9-1.1 1.6-2.1 2.3-3.2-.8 1.1-1.6 2.1-2.3 3.2z" class="st2"/><path d="M381.3 442.9c-.4.3-.6.4-.3-.3-.4.7-.8 1.3-1.2 2 .5-.7 1-1.2 1.5-1.7zM381.3 442.9c.4-.3.9-.8 1.1-1-.4.3-.8.6-1.1 1zM382.9 446.5c-.4.7-1 0-1.8 1.4l-2.7 4.5c-.9 1.4-1.9 2.7-3 4.1-.8 1.4-3.2 2.6-4.1 3.9-1.1 1.5-2.9 4.2-4.1 6s-1.7 2.7.2.7c4.7-5.3 9.1-10.9 13.2-16.8 1.7-2.5 3.3-5.1 4.8-7.7l2.3-3.9c.8-1.3 1.5-2.7 2.2-4 .9-1.5 1.8-2.8 2.7-4.2l-4 5.5c-1 1.5-1.9 3-2.6 4.7-.9 1.9-2 3.9-3.1 5.8zM403 406.1c-.2.7-.7 2.2-.7 2.2-2 2.9-3.7 6.1-5.1 9.4l1.2-1.2c.9-1.9.8-2.2-.2-.7 2.4-3.3 4.4-6.9 6.1-10.7-.4.2-.6 0-1.3 1zM405.3 403c-.3.7-.7 1.5-1 2.2h.1c.3-.8.6-1.5.9-2.2zM367.8 461c-6.5 7.4-13.6 14.2-21.3 20.2-.4.6-.9 1.2-1.5 1.6-.7.3-1.3.7-2 1.1l-3.4 2.4-1.1.9c-.6.5-.3.5.2.4.4-.2.9-.4 1.4-.6-.3.1-.9.4-1.4.6-.7.3-1.4.6-2 1-1 .7-2.1 1.5-3.3 2.2 1-.8 2.1-1.5 3.3-2.2.6-.5 1.3-.9 1.9-1.4l.5-.5c-1.3.9-2.6 1.7-4 2.5s-2.6 1.7-4 2.4l-1.7 1.1c-1 .6-1.9 1.3-2.8 1.8-.8.4-1.6.7-2.5.9l-1.5.8.3-.1-.6.2c-1 .5-2.1 1-3.2 1.5l-3.2 1.4c-1.3.8-2.7 1.5-4.1 2.3l-1.6.1c-.7.6-1.5 1-2.3 1.3 1.2-.1 2.4-.2 3.6-.5 1.7-.2 3-2.2 5.1-2.1-2.1-.1-3.4 2-5.1 2.1-1.2.2-2.4.4-3.6.5-1.1.5-2.3.9-3.5 1.2-1.2.3-2.5.5-3.8.6 1.2-.5 2.5-1 3.8-1.2 1.1-.3 2.3-.5 3.5-.6.8-.3 1.6-.8 2.3-1.3l1.6-.1c1.4-.7 2.8-1.5 4.1-2.3-2.1.9-4.3 1.7-6.5 2.5s-4.5 1.5-6.8 2.1c-14.4 4.1-29.5 5.7-44.4 4.6-15.2-1.1-30.1-4.8-44.1-10.9-7.7-3.4-15.1-7.4-22.2-12-6.8-4.5-13.2-9.6-19.1-15.2-5.7-5.4-10.9-11.2-15.7-17.4-1.2-1.5-2.2-3.1-3.4-4.6s-2.1-3.1-3.1-4.8c-2-3.2-3.7-6.6-5.2-10-1.5-3.4-2.6-6.9-3.5-10.5-.8-3.5-1.3-7.2-1.3-10.8 0-.9 0-1.8.1-2.7l.3-2.7c.1-.9.4-1.7.5-2.6l.1-.7.2-1a51.45 51.45 0 00.3-8.7c-.1-2.2-.2-4.3-.4-6.5-.9-8.3-2.4-16.4-4.4-24.5-2.1-8.9-4.5-17.5-6.2-23.5-2.9-7.8-4.9-9.3-6.1-8.8s-1.6 3-1.6 3.5c-.3 5.3.5 9.7 1.7 15.4 1.8 7.5 3.2 15.1 4.2 22.7-.9-6.9.2-4.5 1.6 1.2s2.9 15.1 2.2 21.5c-.1 1.1-.3 2.3-.4 3.4-.1 1-.3 2-.6 3-.1.2-.1.3-.2.7l-.3 1.1-.5 2.2-.6 4.6c-.3 6.5.6 13 2.7 19.1 2.1 6.2 4.9 12.2 8.4 17.8 3.4 5.4 7 10.6 11 15.6 4.2 5.2 8.8 10 13.8 14.4 6.8 6.4 14.3 12.1 22.3 17 7.9 4.9 16.2 9 24.9 12.2 17.9 6.8 37 10.2 56.2 9.8 10.6-.3 19.8-2.7 28.3-5.3 6.2-1.8 12.9-3.6 17.8-5.6 6.8-2.9 13.3-6.5 19.3-10.9-1.6 1-3.1 2-4.6 2.9s-2.9 1.8-4.4 2.6c-2.9 1.7-6.1 3.3-10 5-2.6 1.1-1.8.4 0-.7s4.7-2.9 6.3-3.8c1.3-.9 4-1.1 5.3-2.1 1.5-.8 2.9-1.8 4.3-2.8l2.1-1.5 2.1-1.7c1.2-1 1.6-.1 2.2-.7.5-.4 1-.7 1.5-1.1s.9-.8 1.3-1.2c.8-.8 1.6-1.5 2.3-2.2 1.2-1.3 2.6-2.5 4-3.6l2.9-2c.9-.6 1.8-1.3 2.6-2 1-.9 2.1-1.7 3.1-2.7.6-.6 1.2-1.4 1.8-2-.5.2-1.1.3-1.6.1 1-.9 2.5-2 3.5-2.9-1 .9-2.5 2-3.5 2.9.5.2 1.1.1 1.6-.1l3.4-3.8 3.4-4.1 1.7-2.1 1.7-2.1 3.3-4.2h-.1c-2.6 3.3-5.5 6.2-8.7 8.8 1.4-1.2 1.5-.8 0 .7l-1.5.8c1.2-1.4 2.3-2.8 3.5-4.1 1.2-1.3 2.5-2.5 3.9-3.6l1.3-2c.9-.8 1.1-.5 1.4-.6.5-.6 1-1.3 1.5-1.9-.5.4-1 .8-1.4 1.2l-1.7 1.6-1.9 2.1z" class="st2"/><path d="M336.5 488.6l1.6-1.1-3.3 2.1c-1.1.7-2.2 1.4-3.4 2 1.4-.2 3.2-1.6 5.1-3z" class="st2"/></g><g class="st1"><path d="M569.7 499.5l.8.6c-.1-.1-.2-.3-.3-.5-.1-.1-.3-.1-.5-.1zM571.3 500.6l.2.1h.2l-.4-.1zM573 501.4c-.3-.1-.5-.3-.8-.4.2.2.5.3.8.4zM571.8 500.6c.1.1.1.2-.1.2l.5.2c-.2-.1-.3-.2-.4-.4zM571.8 500.6c-.1-.1-.2-.2-.2-.3 0 .1.1.2.2.3zM573 499.4c.2 0-.1.4.2.5s.7.2 1.1.2c.3 0 .7.1 1 .2.3 0 .7.6 1 .6.5 0 1 0 1.5-.1s.7-.2.1-.3c-2.7-.3-5.2-1.1-7.6-2.4-.3-.2-.5-.5-.8-.7.3.4.6.7.9 1.1.3.3.6.4 1 .5.6.1 1.1.2 1.6.4zM565.2 493.5l.4.4c0 .4.2.8.4 1.1.2.3.5.7.8.9v-.4c-.3-.4-.4-.3-.3.1-.3-.9-.7-1.7-1.1-2.5-.1.1-.2.1-.2.4zM565.1 492.6l.3.5-.3-.5z" class="st2"/><path d="M576.7 502.2c2.2.4 4.4.4 6.6 0 .1-.1.2-.3.5-.3h.5l.9-.3.3-.1c.1-.1.1-.2-.1-.2h-.4.9c.3-.2.5-.3.8-.4-.2.2-.5.3-.8.4l-.5.2-.1.1c.7-.2 1.4-.5 2-.8.1-.1.3-.2.4-.3.3-.3.7-.6 1.2-.6l.3-.2h-.1l.1-.1c.5-.3.9-.6 1.3-1l.6-.9.4-.1c0-.2.1-.4.2-.6-.3.1-.6.2-.8.3-.4.1-.2.9-.8.9.6 0 .5-.8.8-.9.2-.1.5-.2.8-.3.3-.5.7-.9 1.2-1.2-.2.6-.6 1-1.2 1.2-.1.2-.2.4-.2.6l-.4.1-.6.9a16.04 16.04 0 005.7-12.3c0-3.7-1.2-7.3-3.4-10.2-2.4-3.4-5.8-5.8-9.8-7-3.9-1.1-8-.6-11.6 1.2-3.7 1.9-6.7 4.8-8.8 8.4-1 1.9-1.6 4-1.8 6.2-.1 2.1.1 4.3.8 6.3.3.7.8 1.3 1.4 1.8.3.2.7.2 1 .1.4-.3.7-.6.9-1.1.2-.6.3-1.2.3-1.8v-1.7c-.2-1.6 0-3.2.6-4.7-.5 1.3-.7.8-.6-.4.2-1.5 1-2.9 2.2-3.9 1.7-1.2 3-2.7 4.8-4 1.8-1.4 4-2.2 6.2-2.2 1.2 0 2.3.1 3.5.3 3.1.9 5.9 2.8 7.9 5.4 2.1 2.7 2.9 6.2 2.4 9.6-.2 1.7-.5 3.5-1.1 5.1-.6 1-1.4 1.9-2.3 2.6-.5.5-1.1 1-1.6 1.5s-1 .9-1.6 1.2c1.2-.7 2.2-1.6 3.2-2.6.4-.4.3-.1.2.3-.1.2-.2.5-.4.7-.1.2-.3.4-.4.6-.2.3-.9.1-1.1.4-.3.2-.5.4-.8.6-.3.2-.5.4-.8.7s-.4-.2-.5-.1c-.4.2-.8.5-1.1.8-.3.2-.6.4-1 .5h-1.4l-.8.1-.5.1c.1.1.2.3.3.5-.3 0-.7-.1-.9-.1.3 0 .7.1.9.1 0-.2-.1-.4-.3-.5-1.5.4-3 .4-4.5.2.9.2 1.8.4 2.6.8-.4-.1-.3-.3.1-.3l.3.3c-.4.1-.8.1-1.2 0-.4 0-.8-.2-1.1-.4h-.4c-.2-.1-.2-.3-.2-.4l-.5-.1c.4.3.9.7 1.4 1z" class="st2"/><path d="M586 501.2l-.4.2c.6-.2 1.1-.4 1.7-.7-.5 0-1 .2-1.3.5z" class="st2"/></g><circle cx="580.4" cy="487.7" r="5.7" class="st3"/><g class="st1"><path d="M584 491.6l-.3.2h.2c.1 0 .1-.1.1-.2zM583.5 492h-.1v.1zM583 492.4c.1 0 .2-.1.3-.2-.1.1-.2.1-.3.2zM583.5 492.2c-.1 0-.1 0 0 0h-.2.2zM583.5 492.2zM583.8 493c0 .1-.2-.1-.2 0-.2.2-.4.4-.7.6-.1.1-.4-.1-.5 0s-1 .7-.5.5c.6-.2 1.2-.4 1.7-.8.4-.4.8-.7 1.1-1.2l.3-.3c-.2.1-.3.2-.5.3s-.4.6-.7.9zM585.5 489.7v.2c-.2.2-.4.4-.4.7h.2c.1-.1 0-.2-.1-.1.3-.2.5-.5.5-.8-.1-.1-.1-.1-.2 0zM585.8 489.4v.2c-.1 0-.1-.1 0-.2z" class="st2"/><path d="M581.9 493.1c-.7.2-1.5.3-2.3.1-.1 0-.1.1-.2 0 0 0-.1-.1-.2-.1l-.2-.1h-.1c-.1 0-.1 0 0 .1l.1.1-.1-.1s-.1-.1-.2-.1-.2-.1-.3-.1c.1 0 .2 0 .3.1h.2c-.2-.1-.5-.2-.7-.3h-.2c-.2 0-.3-.1-.4-.2l-.1-.1c-.1-.1-.3-.2-.4-.3s-.2-.1-.4-.1 0-.1 0-.2h-.2c0 .1 0 .2.1.3 0 .2.4 0 .3.3 0-.3-.3-.1-.3-.3 0-.1-.1-.2-.1-.3-.2-.1-.3-.3-.3-.5.2.1.3.3.3.5.1 0 .2.1.2 0v.2s.2.1.4.1c-.3-.2-.5-.5-.8-.8a5.26 5.26 0 01-.4-6.3c.7-1 1.8-1.7 3-1.9 1-.2 2.1-.1 3.1.3s1.7 1.2 2 2.2c.1.4.3.9.4 1.4.1.5.1.9 0 1.4 0 .4.3.7.7.8.2.1.4.1.6 0 .5-.2.8-.7.8-1.2.1-.7.1-1.4.1-2.1 0 .7-.2.5-.3 0-.2-.6-.4-1.3-.5-1.9-.2-1.1-1-2-2.1-2.5s-2.3-.8-3.5-.8c-.6 0-1.3.1-1.9.3-1.8.4-3.3 1.6-4.2 3.2-.9 1.6-1.1 3.6-.6 5.4.3.9.8 1.7 1.5 2.3.3.5.7.9 1.1 1.3.5.4 1.2.7 1.8.8-.6-.2-1.2-.5-1.8-.8-.4-.3.5 0 .8.1.1 0 .2.4.4.4.3.1.6.2.9.2.2 0 .1.2.1.2.5.1.8-.2 1.1-.1.2.1.4.1.6.2h.4l.2-.1c-.1-.1-.1-.2-.1-.2.1 0 .3.1.4.1-.1 0-.3 0-.4-.1 0 .1.1.2.1.2.6-.2 1.2-.4 1.7-.7-.3.1-.7.2-1 .1.2 0 .2.1 0 .1l-.2-.1c.3-.1.6-.2.9-.1l.2-.1c.1 0 .1.1.2.1l.2-.1c-.2-.1-.4-.2-.7-.2z" class="st2"/><path d="M578.7 493h.2c-.2-.1-.4-.2-.6-.2 0 .2.2.2.4.2z" class="st2"/></g><g class="st1"><path d="M453.1 435.8l1.2 1.9 1.2 1.9c-.4-.6-.7-1.3-1-2-.3-.8-.8-1.4-1.4-1.8zM457.8 443l.4.7.5.5-.9-1.2zM462.6 449.2c-.8-1.2-1.6-2.2-2.4-3.2.7 1.1 1.5 2.2 2.4 3.2zM459.1 444c.1.5.2.8-.4.2l1.5 1.8c-.4-.6-.8-1.3-1.1-2zM459.1 444c-.1-.5-.5-1.1-.5-1.4.1.5.3.9.5 1.4zM463 443.6c.5.6-.3 1 .8 2.1l3.4 3.8c1.1 1.2 2.2 2.4 3.3 3.7 1.1 1.1 1.8 3.6 3 4.6 1.7 1.7 3.5 3.2 5.3 4.7 1.7 1.2 2.5 1.7.7-.2-4.8-4.9-9.4-10.1-13.6-15.5-1.9-2.3-3.9-4.5-5.6-6.8l-2.8-3.5-2.7-3.6c-1-1.4-1.7-2.8-2.5-4.2 1 1.9 2 3.7 3.2 5.8.9 1.5 2 2.9 3.2 4.2 1.3 1.4 2.7 3 4.3 4.9zM437.5 406.8l1.3 1.9c.9 3.4 2.9 6.5 4.8 9.6l-.3-1.6c-1-1.8-1.4-1.9-.7-.2-1.5-3.8-3.2-7.6-5.1-11.2-.1.3-.4.4 0 1.5zM436.4 403.1l1.1 2.1v-.1l-1.2-2.1.1.1z" class="st2"/><path d="M473.6 461.4c6.5 7.4 13.7 14.2 21.3 20.5.7.2 1.4.6 1.9 1.2s1 1.1 1.6 1.6l3.3 2.5 1.2.8c.7.4.6.1.3-.3s-.7-.8-1-1.1c.2.2.7.7 1 1.1.5.5 1.1 1 1.7 1.5 1.1.6 2.2 1.3 3.3 2.1-1.2-.6-2.3-1.3-3.3-2.1-.7-.4-1.4-.8-2-1.2l-.6-.3c1.3 1 2.6 1.8 3.9 2.7s2.6 1.8 4 2.6l1.8.9c1 .5 2 1.1 2.9 1.5.8.4 1.5.9 2.2 1.5l1.5.8-.2-.2.5.4c1 .6 2.1 1.1 3.2 1.6l3.2 1.6c1.5.5 3.1.8 4.6 1.3l1.3 1c.9.1 1.8.2 2.7.5-1.1-.7-2.1-1.4-3.1-2-1.3-1.1-3.7-.4-5.1-2 1.4 1.6 3.8 1 5.1 2 .9.6 1.9 1.3 3.1 2 1.2.3 2.4.7 3.5 1.2 1.2.4 2.4 1 3.5 1.5-1.4-.2-2.7-.5-3.9-1.1-1.1-.5-2.1-1-3.1-1.7-.9-.2-1.8-.4-2.7-.5l-1.3-1c-1.5-.5-3.1-.8-4.6-1.3 2.1 1 4.3 1.9 6.5 2.8s4.5 1.7 6.8 2.4c14.6 4.8 30 6.8 45.3 5.8 15.6-1 31-4.5 45.6-10.4 16-6.3 30.9-15.2 44.1-26.1 12.8-10.8 23.3-23.6 30.2-38.6 1.7-3.8 3.1-7.7 4.2-11.7 1.1-4.1 1.8-8.4 2.1-12.6 0-1.1.1-2.2.1-3.3s-.1-2.2-.1-3.3-.2-2.2-.4-3.3c0-.2-.1-.6-.1-.8v-.5-1.1c.1-1.8.2-3.6.5-5.4.3-1.9.7-3.8 1.1-5.8 1.3-6 3.2-14.7 5.2-23.4s4.1-17.3 5.7-23.2c1.4-8.1.6-10.3-.7-10.5s-2.9 1.8-3.2 2.1c-3 4.4-4.6 8.6-6.3 14.2s-3.5 12.5-6.7 22.3c2.1-6.8 2.1-4.1.9 1.8s-3.3 15-5.1 21.8c-.4 1.3-.6 2.6-.9 3.9-.3 1.5-.3 3.1-.3 4.6 0 .4.1 1 .1 1.2v.9c0 .6.1 1.2.1 1.8v3.6c-.2 5.3-1.1 10.5-2.6 15.5a79.2 79.2 0 01-16.9 29.7c-4.1 4.6-8.4 9-13 13.1a176.1 176.1 0 01-21.2 15c-7.3 4.5-14.9 8.3-22.9 11.5-15.9 6.4-33.2 10.3-51.6 9.7-9.7-.3-18.3-.7-26.5-2.3-5.6-1.5-11.1-3.4-16.4-5.8-7.1-3-13.1-5.9-18.8-8.9 1.5.9 3 1.7 4.5 2.5s2.8 1.5 4.3 2.2c2.8 1.4 5.9 2.7 9.6 4.2 2.5 1 1.5.9-.5.5s-5-1.5-6.7-2.1c-1.5-.5-3.1-2.6-4.5-3.1-1.5-.8-2.8-1.5-4.3-2.2l-2.2-1.1-2.3-1.2c-1.4-.6-.7-1.4-1.4-1.7l-1.5-.9c-.5-.3-1-.6-1.5-.8-1-.5-1.9-1-2.8-1.4-1.6-.7-3.1-1.7-4.4-2.8l-2.5-2.3c-.8-.7-1.5-1.5-2.3-2.2-1-.9-1.9-1.8-3-2.7-.7-.5-1.4-1.1-2.1-1.6.2.5.3 1 .2 1.6-.9-.9-2.1-2.4-3-3.3.9.9 2.1 2.4 3 3.3.1-.5.1-1.1-.2-1.6l-3.5-3a123 123 0 01-3.9-3.5l-2-1.8c-.6-.6-1.3-1.2-1.9-1.9l-3.7-3.8v.1c2.8 3 5.4 6.2 7.8 9.5-1.1-1.5-.8-1.5.7 0l.8 1.5c-1.4-1.2-2.7-2.4-4-3.7a25.9 25.9 0 01-3.2-4.2l-1.8-1.5c-.6-1-.4-1.1-.4-1.5l-1.6-1.8c.2.4.5 1 .9 1.6s.8 1.4 1.3 2l1.6 2.4z" class="st2"/><path d="M505.1 489.2l-1.7-1 3.3 2.2c1.1.7 2.2 1.5 3.3 2.2-1.5-1.4-3.1-2.5-4.9-3.4z" class="st2"/></g></svg>