<svg xmlns="http://www.w3.org/2000/svg" id="Layer_1" x="0" y="0" version="1.1" viewBox="0 0 842 842" xml:space="preserve"><defs/><style>.st1{opacity:.85}.st2{fill:#161315}.st3{fill:#211f1e}.st4{fill:#1f2020}</style><path fill="#fad5e5" d="M0 0h842v842H0z"/><g class="st1"><path d="M387 364l-3 3 2-2 1-1zM380 370v1h-1l1-1zM375 376l3-3-3 3zM380 372l-1-1-1 2 2-1zM380 372l1-1-1 1zM381 375l-3 2-7 8-4 3-5 7 15-16 13-15 4-3-5 5-8 9zM412 339l-1 2-9 8 2-1c2-1 2-2 0 0l10-9h-2zM416 337l-2 2 2-2zM363 389a4574 4574 0 01-24 24l-2 2-3 3-1 1c-1 1 0 1 0 0l1-1-1 1a32 32 0 00-2 2l2-2v-1l-7 7-1 2-5 4-1 2v-1l-1 1-5 5-3 4-2 1-2 2 4-2 4-4-4 4-4 2-6 6 6-6 2-2 2-1 3-4-11 11-35 34-8 8-5 4-2 2-2 2a42 42 0 01-63-19c-12-33-26-62-38-96-4-13-14-36-20-48-8-15-8-5-8-4 1 11 6 18 13 39-5-14 6 9 10 23 4 21 18 46 27 70l8 19 8 14 13 11c19 11 44 8 60-8l11-10 10-11 21-22 13-14 16-16-15 16c-5 4 2-4 4-7l5-4 7-8 2-1 8-10 6-5 3-3 2-2h-2l4-3-4 3h2l15-17-10 9v1l-2 1 9-8 1-2 2-1 1-2-6 5z" class="st2"/><path d="M331 421l1-2-6 6c2 0 3-2 5-4z" class="st2"/></g><g class="st1"><path d="M236 494h-1 1zM234 495zM233 496v-1 1zM234 495h-1 1zM234 495zM234 497l-1 1h-2-1l-2 1 6-1 3-3 1-1v1h-1l-1 1-2 1zM241 488v1l-1 2c0-1 0-1 0 0l2-3h-1zM242 488h-1 1z" class="st3"/><path d="M229 497c-2 1-5 0-7-1l-1 1v-1h-1l-1-1 1 1-2-2-1-1h-1l-1-1-1-1-1-1 1 1v0l-1-1-1-1 1 1 1 1 1 1-1-1-1-2c-2-3-3-6-3-10 0-3 2-7 5-9l4-3 6-2 9 1c3 2 5 5 5 9l1 5-1 4 1 2v1h2l1-2 1-1v-1l1-5c0 1-1 1-1-1v-5c0-3-2-6-5-8a15 15 0 00-7-4h-7l-1 1c-5 1-9 3-13 7a17 17 0 00-4 14c0 3 1 5 3 7l2 2 1 2c1 1 3 3 5 3l-5-3h1l1 1 1 1 1 1h1l1 1h1l2 1h3l5-1-1 1-2-1v1l2-1h1v1l1-1h-2z" class="st3"/><path d="M219 495l1 1-2-1h1z" class="st3"/></g><circle cx="227" cy="481" r="6" class="st4"/><g class="st1"><path d="M223 486zM223 486h1-1zM224 487v-1 1zM224 486zM224 486h-1 1zM224 486h2-2l-1-1 1 1zM221 483h1v0h-1zM222 483z" class="st3"/><path d="M225 487h4-1 1-1 1l1-1h1-1 1v-1 1h-1l1-1c2-2 3-5 1-7l-3-3h-5l-3 3-1 2v2l1 1 1-1v-2l1-1 2-2h3l2 2 1 3v2l-1 1-2 1 2-1h-1v1h-1-2l1 1-1-1v0h-1l1 1-1-1v1zM229 487z" class="st3"/></g><g class="st1"><path d="M453 369l4 3-2-2-2-1zM460 375v1h1l-1-1zM466 381l-3-3 3 3zM461 376s0 1 0 0l2 2-2-2zM461 376l-1-1 1 1zM465 375l1 2 8 7 4 5 7 5-17-16-14-13-4-3 5 5 10 8zM429 343l2 2 8 8-1-2h-1l-9-9 1 1zM426 340l2 2-2-2z" class="st2"/><path d="M479 393a4574 4574 0 0125 25l3 4 2 1v-1l-1-1 1 1a32 32 0 002 2l-2-1-1-1 7 7 2 2 4 4 1 2v-1 1l6 5 4 4 1 1 2 2-2-3c-1-2-4-2-4-5 0 3 3 3 4 5l2 3 5 6-5-6-2-2-1-1-4-4 10 11 34 35 9 9 4 4 3 2 2 2c7 5 16 8 25 9 19 1 38-10 46-28 15-32 26-62 42-94l20-48c6-16-2-10-2-9-8 9-9 17-19 37 6-14-3 11-10 23-12 17-20 45-31 68l-8 19-7 11c-9 9-21 14-34 13-8-1-16-5-22-11h-1l-1-1-1-1-3-3-5-5-11-11-22-20-13-14-17-15 16 15-6-4-4-5-8-7c-2-1-1-2-1-2l-10-9-5-5-3-3-2-2v2l-3-4 3 4v-2l-17-15 9 10c-1-2-1-2 1 0l1 1-8-8-2-1-1-2-2-2 5 7z" class="st2"/><path d="M511 424l-2-1 6 6-4-5z" class="st2"/></g><g class="st1"><path d="M605 498l1 1v-1h-1zM607 499h1-1zM609 500l-1-1 1 1zM608 499v0zM608 499h-1 1zM609 498l1 1h4l-4-1-4-1-1-1h1v1l1 1h2zM600 492h1l1 2c0-1 0-1 0 0l-2-3v1zM600 491h1-1z" class="st3"/><path d="M613 501l7-1h1l1-1h1v-1 1h-1l2-1 2-1v-1l1-1 1-1 1-1-1 1-1 1 1-1 1-1 1-1-1 1-1 1-1 1 2-1 1-1c2-3 3-7 3-11s-2-8-4-10a25 25 0 00-11-7l-7-1-6 2-5 4-3 6-1 6 1 7 1 2h1l1-1v-2-1-1l1-5c-1 2-1 1-1 0l2-5 4-5a8 8 0 017-2h3a27 27 0 0110 6 11 11 0 013 10l-1 5-1 2-1 1v1h-1v1l-1 1h-1l-1 1c0 1 0 0 0 0l-1 1-1 1h-2-1v1h-1 1l-1-1-4 1h3c-1 0-1 0 0 0h-4 1l1 1z" class="st3"/><path d="M623 499h-1l2-1-1 1z" class="st3"/></g><circle cx="615" cy="484" r="6" class="st4"/><g class="st1"><path d="M619 488l-1 1h1v-1zM618 489zM618 489zM618 489zM618 489zM619 490h-2v1l1-1 1-1h1-1v1zM620 486v0zM621 486z" class="st3"/><path d="M617 490h-3c-1 0-1 0 0 0h-1v-1h-1-1v-1 1h0v-1 1h1l-1-1c-2-2-2-5 0-7l3-1h3l2 2v3l1 1h1v-1l1-2h-1v-2l-2-3-4-1-2 1c-2 0-3 1-4 3l-1 5 2 2 1 2 2 1-2-1h2v1l1-1 1 1h1v-1 1l1-1h-1c1 0 1 0 0 0h2-1zM613 490v-1 1z" class="st3"/></g></svg>