<svg xmlns="http://www.w3.org/2000/svg" id="Layer_1" x="0" y="0" version="1.1" viewBox="0 0 842 842" xml:space="preserve"><defs/><style>.st1{opacity:.85}.st2{fill:#060707}</style><path fill="#9d6b53" d="M0 0h842v842H0z"/><g class="st1"><path d="M498 421h1-1zM502 422v-1 1zM505 421h-2 2zM502 421c1 0 1 0 0 0h0zM502 421zM503 418h6l2 1 4-1h-20l3 1 5-1zM483 420l1-1 5 1-1-1v1l-5-1v1zM482 419h1-1zM513 421l13 1 1-1 1 1h2c1 0 1 0 0 0v-1 1h3-3 5l3 1h1-1 8l-2-1h-2 2l2 1h3l-3-1-1 1-1-1-2 1h6l41 2 23 1h48l6-1a58 58 0 009-2l2-1 2-1 2-1v-1-1-1l-3-1-7-1-4 1h-6 2l-2 1h-10l-7-1h-8l-8 1h-65l-12 1-8-1-10 1h10l-4 1-2-1-5 1-1-1-5 1-3-1h-2l-1 1v1l-2-1 2 1v-1l-9 1h5c-1 0-1 0 0 0h1-6-2l4 1zM531 422h-1 4-3z" class="st2"/></g><g class="st1"><path d="M352 417h-3 3zM348 417h-1 1zM344 417h2-2zM347 417h-1 1zM347 417h1-1zM346 420h-1l-5 1-2-1-4 2 10-1 8-2h-1l-5 1zM367 417h-6v1l1-1h5zM368 417h-1 1zM336 418a327 327 0 01-14 1l-1-1h-3v1h0l-1-1-2 1h2l1-1h-9 1-4l-2 1-1-1-1 1 2 1h2-2l-2-1-4-1 4 1 1-1 1 1 2-1h-28l-21 1-24-1c-15 0-29 2-44 0l-23 2-4 2v2l1 2c3 2 5 2 8 2h10c-6 0 5-2 11 0 9 3 22-1 33 0l9-1c16 1 32-1 50-2l13-1h8l10-2-10 1 4-1h2l5-1 1 1c2 0 4-2 6-1h6l-1-1h0l1 1 9-2h-5c1 0 1 0 0 0h-1 5l1-1v1h2l-4-1zM317 418h1-4 3z" class="st2"/></g></svg>