<svg xmlns="http://www.w3.org/2000/svg" id="Layer_1" x="0" y="0" version="1.1" viewBox="0 0 842 842" xml:space="preserve"><defs/><style>.st1{opacity:.85}.st2{fill:#fefefe}.st3{fill:#e0caca}</style><path fill="#784936" d="M0 1h842v842H0z"/><g class="st1"><path d="M222 449v-1 1zM221 448v-1 1zM220 446l1 1-1-1zM221 448v-1 1zM221 448h-1 1zM217 449l1-1-1-1-1-1v-2l-1-1v-1h-1l3 6 4 3v0l-2-1-2-1zM228 454l-1-1h-1v0c1 1 1 2 3 2l-1-1zM229 455h-1 1z" class="st2"/><path d="M218 443v-7-1-1-1h-1 1v-1l1-1-1 1v1l1-2 1-2h1-1 1l1-1v-2l1 1v-1h-1l-1 1 1-1h1l2-1-2 1v1l-1-1v2l1-1 1-1c3-2 7-4 10-4 4 0 7 2 10 4s5 5 5 9v5l-1 4-3 4-4 2h-8l-3 3-1 3a4 4 0 003 2l1 1 7 1c-2-1-2-1 0-2l7-1c3 0 6-2 8-6l4-12v-1-2l-1-1v-2c-1-6-5-11-10-14-6-3-12-4-18-3-3 0-6 3-8 4l-1 1-1 1-2 2a12 12 0 00-3 6l3-6v3l-2 1v3h-1v4l-1 2v2h1v0h-1l3 5v-3h-1 1v4l1-1v-1zM218 433l1-2-1 2z" class="st2"/></g><circle cx="235" cy="439" r="8" class="st3"/><g class="st1"><path d="M228 433zM227 433v0zM227 435v-1 1zM228 434h-1 1zM228 434zM230 436c1 0 0-1 0 0v1h-1l1 1h1v-4h-1v2zM232 431h-1v0h1zM233 431h-1 1z" class="st2"/><path d="M227 437v4h1-1l1 1-1-1v1l1 1v1l1 1 1-1h-1 1l-1 1 1 1-1-1-1-1 1 2 6 3 6-2c3-1 4-3 6-6 1-2 1-5-1-8l-4-7-5-2-5 1v3l1 3 1 1 1 1 1 1 1-1 1 2v4l-1 1-2 1-2 1v-1l-2-1 1 1v1h-1v-1h-1l1-1h-1-1l1-1h-1v-1 1h1l-2-3-1 2h1-1l1-1-1-1 1 1v-1h-1v1z" class="st2"/><path d="M227 442v-1l1 2-1-1z" class="st2"/></g><g class="st1"><path d="M620 418l1 1-1-1zM622 419zM623 420v-1 1zM622 419h1-1zM622 419v-1 1zM624 416v1h3l1 2h1l1 1 1-1-6-3-5-1h-1l1 1h4zM612 417h3v0h-4 1zM611 417h1-1zM627 421c2 2 4 4 4 6h1v2h1v1l-1-1a18 18 0 011 3v2l-1 2 1 1h-1l1 1 1-1v0l-1 1-1 1 1-1-1-1h1l-1-1v3l-7 8c-3 2-6 3-10 3s-7-2-10-5l-2-4-2-4 1-5 2-4 3-3 4-2v-4l-1-2-2-1h-1l-1 1-7 3c2-1 2 0 1 1l-5 5c-3 2-4 6-3 10l4 11v1l1 2 1 1 2 1c4 4 10 7 16 6s12-3 16-8c3-2 4-5 4-8l1-1v-2l1-2a14 14 0 00-1-7l1 7-1-1v-1l-1-1 1-1-1-2v-1-1l-1-2-1-1v-2l-1-1h-1l-1-1 1 1-5-4 2 3h1-1-1v-2h-1v-1 2z" class="st2"/><path d="M633 430l-1-1 1 2v-1z" class="st2"/></g><circle cx="615" cy="434" r="8" class="st3"/><g class="st1"><path d="M625 435h-1 1zM625 434zM624 433v0zM624 434h1-1zM624 434zM621 434s1 0 0 0v-2h-1s-1 0 0 0l1 2 1 1v-1h-1zM623 439v-1l-1 1h1zM622 439z" class="st2"/><path d="M623 431l-2-3-1-1v0h-1 0v-1h-1-1-1l1 1s0-1 0 0c0-1 0 0 0 0l-1-1-1-1 1 1h1l-1-1-6 1-5 5-1 8c1 2 2 5 5 6 2 2 5 3 8 3l5-1 3-3c1-2 0-3-1-3l-2-2h-2-3v1l-2-1-1-2-1-1v-1-1l1-2 1-2 1 1h0v-1l1-1v1h2v1h1l1-1v0l-1 1 2 1v-1 1h1v-1zM620 427h-1 1z" class="st2"/></g><g class="st1"><path d="M379 412l-3 2 1-1 2-1zM373 416v1h-1l1-1zM368 420l3-2-3 2zM372 417l-1 1 1-1zM372 417h0zM373 421l-2 1-6 5-4 2-5 4c-1 1-1 2 1 1l13-11 6-4 5-5 4-3-5 3-3 3-4 4zM400 396l-2 1-6 6 1-1v-1l8-6-1 1zM402 394l-1 1 2-1h-1zM358 429l-3 1-3 2-5 3c-3 3-6 4-10 6l-1 2h-2l-3 2h-1v1l1-1-1 1h-2l-2 2 2-2 2-1-3 2-3 1-2 1-4 2-1 1h-1l-5 2-3 2h-2l-1 1h3l4-2-4 2h-3l-6 2 6-2 1-1h2l3-2-11 4-4 2-4 1-9 3-5 1-4 1h-5l-4 1-5 1h-4l-9 1-19-1c-14-2-27-6-39-12-11-5-22-12-31-20-10-8-19-18-26-28l-11-16-10-17c-3-5-5-6-6-5l-2 3 4 12 9 17c-2-5-1-4 2 0l10 16c4 7 11 14 18 21s17 12 25 18l15 7a120 120 0 0067 12l23-3 22-8 7-3 7-2 8-4 8-5-8 4-3 2-2 1-3 1 5-4 5-1 7-4 2-1 8-5 5-3 3-1 1-2h-1l3-2-3 2h1l7-5 7-6-9 6c1-1 1-1 0 0l-1 1 3-3 4-2 2-1h1l1-2-5 3z" class="st2"/><path d="M329 446l1-1-6 3 5-2z" class="st2"/></g><g class="st1"><path d="M461 416l3 2-2-1-1-1zM466 420l1 1-1-1zM471 424l-2-2 2 2zM468 421h-1l2 1-1-1zM468 421l-1-1 1 1zM471 419l1 1 7 4 3 3 5 3c2 0 3 1 1-1l-14-9-6-3-6-4-4-3 4 4 4 2 5 3zM440 398l2 1 7 6-1-1h-1l-7-7v1zM439 396l1 1-1-1z" class="st2"/><path d="M483 431l2 1 3 2 5 3 10 7h2l1 1 3 2 1 1 1-1-1-1 1 1 1 1 3 2-3-2h-2v-1l3 2 4 2 1 1 4 2 2 1h-1 1l5 2 4 1 1 1 2 1-2-2c-1-1-3 0-4-2 1 2 3 1 4 2l2 2 6 2-6-2-2-1-1-1-4-1 11 5 4 2 5 1 8 3 5 1 4 1 5 1 5 1 4 1h5l9 1h20a137 137 0 0075-30 310 310 0 0041-44l10-18c3-6 2-8 1-9s-3 1-3 1c-4 3-6 6-8 10-3 6-7 11-11 15 3-4 3-2 0 2s-8 10-12 13l-20 18c-7 7-15 12-23 17l-13 7a152 152 0 01-62 10l-22-3-21-5-7-2-6-3-16-7 7 4 4 1 2 1 2 1c4 2-3 0-6-1l-4-3-7-3-1-1c-4-2-7-2-9-4l-5-3-3-1-2-1 1 1-3-2 3 2-1-1-7-4-8-4c3 1 6 3 8 6h1l1 1-4-2-3-3-2-1-1-1-1-1 4 4z" class="st2"/><path d="M512 448h-1l5 3-4-3z" class="st2"/></g></svg>