<svg xmlns="http://www.w3.org/2000/svg" id="Layer_1" x="0" y="0" version="1.1" viewBox="0 0 842 842" xml:space="preserve"><defs/><style>.st1{opacity:.85}.st2{fill:#020202}.st3{fill:#040505}.st4{fill:#090a0a}.st5{fill:#060707}</style><path fill="#9d6b53" d="M0 0h842v842H0z"/><g class="st1"><path d="M240 397c0 1 0 0 0 0zM239 397h-1 1zM237 397h0zM238 397zM238 397zM238 399l-1-1-1 1h-2-1v1l2-1h6l-1-1-2 1zM246 401l-1-1-1-1v0l1 2h1zM247 402l-1-1 1 1z" class="st2"/><path d="M234 398l-6 2h-1v1h-1 1-1l-1 1 1-1h1l-2 1-1 1h-1 1-1v1l-1 1v1l1-1-1 1c-1 1 0 0 0 0l-1 1 1-1v-2 1l-1 2-1 4 1 5 2 4 4 3c3 2 7 3 11 3a24 24 0 007-3h1l1-1 4-4 3-6-1-5-3-5c-1-2-2-2-3-1v1l1 3 1 4c0-1 0-1 0 0v4l-4 4-1 1-1 1-3 1-3 1-9-1-3-3-2-4v-4l1-3v-1l1-1h1v-1l1-1c0-1 0 0 0 0l2-1 1-1h1v-1h1-1v1l4-2h-3v1-1h2zM226 401l-1 1 1-1z" class="st2"/></g><ellipse cx="235" cy="409" class="st3" rx="8" ry="6"/><g class="st1"><path d="M229 406zM230 406zM230 405zM230 406v-1 1zM230 406h-1 1zM229 405l1-1h1v-1l-1 1-2 2h1v-1zM228 409v-1 1zM228 409z" class="st4"/><path d="M231 404l3-1h2v1h2l-1-1h1v1h1-2 1l3 3 1 4-3 3h-4l-4-1-1-2-1-1-1-1v1l-1 1 1 2h1l1 2 4 2 4-1h2l4-5c0-2 0-4-2-6l-3-2h-1l-3-1 2 1c1 0 0 0 0 0h-1-3-1l-2 1h2-1l-1 1v-1h1zM235 403h0z" class="st4"/></g><g class="st1"><path d="M608 401h1-1zM609 401h1-1zM611 400h-1 1zM610 400v1-1zM610 400h-1 1zM610 399h5c1 0 1 0 0 0l-2-1h-2l-2 1h-2l-1 1 2-1h2zM602 404v-1h1l1-1c-1 0-1 0 0 0l-1 1-1 1zM602 404v-1 1z" class="st2"/><path d="M614 400l6 2v1h1c1 0 1 0 0 0l1 1-1-1 2 2 1 1 1 1 1 1-1-1 1 1 1 2-1-2-1-1 1 1v1l1 4-1 4a15 15 0 01-6 7h-9l-4-1-2-1-1-1h-1c-2-1-3-4-3-7l1-3 2-4-1-2-1-1-3 2v1l-1 1v1l-1 2c1-2 1-1 0 0v5 4l1 1v1l2 1 2 2 1 1 4 1 4 1 6 1 6-2c4-3 7-7 8-11a9 9 0 00-1-7l-2-4-3-3 3 3h-2v-1l-1-1-1-1-3-1-1-1h-2 1l-5-1 3 1c-1 0-1 0 0 0h-3v-1 1h1z" class="st2"/><path d="M622 404l-1-1 2 1h-1z" class="st2"/></g><ellipse cx="613" cy="411" class="st3" rx="8" ry="6"/><g class="st1"><path d="M619 408zM619 407zM618 407zM619 407h-1 1zM619 407v0zM618 408l-1-1h-1l2 1 1 1-1-1zM620 411v-1 1zM620 411z" class="st4"/><path d="M617 406l-3-1h-1-1-2v1h-1 1c0-1 0 0 0 0h-1 1v-1l-1 1c-2 0-3 1-4 3v4l3 4 5 1 5-1 2-2 2-2-1-2-1 1-1 1-1 1v1l-2 1h-5l-2-1c-1 0-2-1-2-3-1-1 0-2 1-3l1-2h2l1-1-1 1v-1h4l2 1-1-1h1v0zM613 405h-1 1z" class="st4"/></g><g class="st1"><path d="M480 416l2 1-1-1h-1zM484 418l1 1-1-1zM489 420l-2-1 2 1zM486 418l-1 1h2l-1-1zM486 418h-1 1zM488 416l1 1 6 2 3 2 5 1c1 0 2 0 0-1l-12-4-3-1-2-1-6-2-3-2 4 2c2 2 4 2 7 3zM461 405h2l6 4-1-1c-1-1-1 0 0 0l-7-4v1zM460 403l1 1-1-1z" class="st5"/><path d="M499 424l5 2 4 1 9 4h1l1 1 3 1h1v-1h-1a8 8 0 002 1h-2l3 1 3 1h1l4 1 1 1v-1 1l5 1h3l1 1h1l-2-2h-3 3l2 2 5 1-5-1h-1l-1-1h-3l9 2c4 2 9 2 14 3l7 1 7 1a271 271 0 0094-7l30-9 6-2 8-4 14-8c4-4 4-6 4-7l-3-1c-4 0-7 2-10 3-4 3-9 5-13 6h2l-2 2a85 85 0 01-7 2l-7 2-10 2-5 2-2 1-3 1-22 6-6 1h-3l-3 1h-4l-5 1-8 1h-13l-4 1c-11 0-23 0-34-2h-5l-4-1h-9l-11-3-13-3 13 3c2 1 1 1 0 1l-5-1-3-1-3-1h-4l-1-1-7-1-4-2-3-1-1-1v2l-2-2 2 2v-2l-13-3 3 1 4 2c-1 0-1 0 0 0l1 1c-2-1-5-1-6-3h-2v-1l-2-1 4 3z" class="st5"/><path d="M524 433h-1l5 2-4-2z" class="st5"/></g><g class="st1"><path d="M361 409l-2 2 1-1 1-1zM356 412h-1 1zM352 414l2-1-2 1zM355 413v-1l-1 1h1zM355 413h0zM356 416h-2l-5 4-4 1-4 2v1l4-2 3-1 6-3 2-2 2-1 5-4 3-1-4 2-6 4zM380 400l-1 1c-3 0-5 1-6 3h1v-1l7-3h-1zM382 399l-1 1 1-1zM343 419l-5 2-4 2-9 3-1 1h-2l-2 1h-1c-1 0 0 0 0 0h0l-2 1h-2 2l2-1-3 1h-3l-1 1-3 1h-2l-4 1-3 1h-1l-2 1h3l3-1-3 1h-7 4l2-1h1l3-1-9 2-14 2-7 1-8 1a223 223 0 01-61-4l-29-7c-10-3-19-7-28-12l-6-4-8-3-13-7c-4-2-6-2-7-1v3c2 3 4 5 8 7l12 9-2-2 4 1 3 1 3 2 6 4 9 5 5 2 3 1 3 1 23 6 6 2h3l4 1 4 1h4l9 2h18c12 0 24 0 36-2l5-1 4-1 9-2 11-2 14-5-13 4c-2 1-2 0 0 0l4-2 3-1 3-1h2l2-1h1l7-4 4-1h3l1-1-1-1 3-1-3 1 1 1 12-7-3 2-4 1c1 0 1 0 0 0h-2l7-2 1-1h1l2-1-5 1z" class="st5"/><path d="M317 429l2-1-5 2 3-1z" class="st5"/></g></svg>