<svg xmlns="http://www.w3.org/2000/svg" id="Layer_1" x="0" y="0" version="1.1" viewBox="0 0 841.9 841.9" xml:space="preserve"><defs/><style>.st1{opacity:.85}.st2{fill:#211f1e}.st3{fill:#1f2020}</style><path fill="#feece1" d="M0 .3h841.9v841.9H0z"/><g class="st1"><path d="M282 486.7l-1.1.8c.2-.1.4-.1.7-.2.1-.1.3-.3.4-.6zM279.7 488.1l-.2.1-.2.1c.2 0 .3-.1.4-.2zM277.6 489.2c.4-.1.8-.3 1.1-.5-.3.2-.7.3-1.1.5zM279.4 488.6c-.2 0-.3 0-.1-.2l-.6.4c.3-.1.5-.2.7-.2zM279.4 488.6c.2 0 .3 0 .5-.1l-.5.1zM279.6 490.3c-.2.2-.4-.3-.8 0s-1 .6-1.5.8c-.5.3-1 .5-1.6.6-.5.2-1.4 0-1.9.1-1.1.4-4.3 1.2-2.4 1 .7 0 1.3-.1 1.9-.3.6-.1 1.1-.2 1.7-.4.5-.2 1.1-.3 1.6-.5l1.6-.7c.6-.1 1-.4 1.4-.6.5-.3.9-.6 1.3-.9l1.2-.9 1.1-1c.5-.3.9-.7 1.3-1l-.9.6-1 .6c-.5.3-.9.7-1.3 1.1-.5.7-1 1.1-1.7 1.5zM288.7 479.3c-.1.2-.2.7-.2.7-.8.8-1.4 1.8-1.9 2.8l.5-.3c.4-.5.3-.7-.1-.3 1-.9 1.7-2 2.2-3.2-.2 0-.3 0-.5.3zM289.5 478.3l-.3.7.3-.7z" class="st2"/><path d="M272.8 491c-3.1.5-6.2.2-9.1-.9-.2.1-.5 0-.7-.1-.2-.2-.4-.3-.6-.4l-1.2-.6-.4-.2c-.2-.1-.2 0-.1.2.1.1.2.2.3.4-.1-.1-.2-.2-.3-.4-.2-.2-.4-.3-.6-.4-.4-.2-.7-.4-1.1-.6.4.2.7.4 1.1.6l.7.3h.2c-.9-.5-1.7-1-2.5-1.5-.2-.1-.4-.2-.5-.3-.6-.4-1.2-.7-1.4-1.2l-.4-.4v.1l-.1-.2c-.6-.5-1.1-1-1.6-1.6l-1.2-.9s-.1-.4-.1-.5c-.3-.1-.5-.3-.7-.5.1.4.3.8.4 1.1.1.6 1.1.5 1.2 1.3-.1-.8-1.1-.7-1.2-1.3-.1-.3-.3-.7-.4-1.1-.6-.6-1-1.3-1.2-2 .6.6 1 1.3 1.2 2 .2.2.4.4.7.5 0 .2.1.5.1.5l1.2.9c-.5-.5-1-1.1-1.4-1.7-.5-.6-.9-1.2-1.3-1.8-2.6-3.9-4-8.4-3.9-13.1.3-4.7 2.5-9.1 6.1-12.2 1.9-1.8 4.1-3.2 6.4-4.4 2.3-1.1 4.6-1.9 7.1-2.4 2.3-.5 4.7-.6 7-.4 2.2.2 4.3.8 6.2 2 3.8 2.5 6.4 6.6 7 11.1.4 2.3.7 4.6.8 6.9.1 2.3-.2 4.5-.7 6.7 0 .6-.1 1.1-.1 1.5 0 .3 0 .7.1 1 .1.4.3.7.7.9.5.1 1 0 1.5-.4l.9-.9c.2-.3.5-.7.6-1.1.2-.4.4-.8.5-1.2s.3-.8.3-1.3c.5-2.5.8-5.1.9-7.7-.1 2.4-.5 1.5-.7-.5s-.8-5-1-7.3c-.3-3.4-2.4-7.2-5.9-10.1-1.8-1.4-3.8-2.5-6-3.2-1.1-.3-2.2-.6-3.3-.8-.5-.1-1.1-.1-1.6-.2s-1.1-.1-1.6-.1c-1.1-.1-2.2 0-3.2.1-.5.1-1.1.1-1.7.2l-1.8.4c-3.1.6-6 1.7-8.8 3.3-2.7 1.5-5.2 3.5-7.3 5.8-2.2 2.4-3.9 5.2-5 8.3-1.1 3.3-1.3 6.7-.8 10.1.6 3.2 2 6.2 4 8.8.3.5.6.9.9 1.4s.6.9.9 1.4c.6.8 1.2 1.6 1.8 2.3 1.7 1.8 3.7 3.3 5.9 4.4-2.1-1.2-4-2.6-5.7-4.3-.7-.7-.3-.5.3-.1.3.2.7.5 1.1.7s.7.5 1 .6c.5.2.7 1.2 1.2 1.4.5.3.9.6 1.4.9l1.6.7c.5.2.2.6.5.6.7.3 1.4.5 2.2.6.6 0 1.2.2 1.7.4.7.4 1.4.5 2.1.8l1.3.3h.9c-.2-.1-.3-.3-.3-.6 0 .2.2.4.3.6 2.3 0 4.6-.4 6.9-1l-2 .3c-.7 0-1.3 0-2-.1.6.1.5.2-.1.3-.2-.1-.4-.2-.5-.2.6 0 1.2-.2 1.7-.2h1.7l.7-.3c.2 0 .4.1.5.3l.7-.2c-.3-.1-.9 0-1.4-.1h-1z" class="st2"/><path d="M260.1 488.5l.6.2c-.8-.4-1.4-.9-2.1-1.3.3.6.9.9 1.5 1.1z" class="st2"/></g><circle cx="270.1" cy="470" r="7.5" class="st3"/><g class="st1"><path d="M264.8 475.8l.4.3c-.1-.1-.1-.1-.1-.2-.2-.1-.2-.1-.3-.1zM265.5 476.4l.1.1zM266.2 476.8c-.1-.1-.2-.2-.4-.2.2.1.3.1.4.2zM265.7 476.4s0 .1 0 0l.2.2c-.1-.1-.2-.1-.2-.2zM265.7 476.4l-.1-.2.1.2zM266.3 475.8c.1 0-.1.2.1.2l1 .3c.1 0 .3.3.5.3.4.1 1.3-.1.8-.2-1.2-.3-2.4-.7-3.5-1.4-.1-.1-.2-.2-.3-.4.1.2.3.4.4.6.1.4.6.4 1 .6zM262.9 472.7l.2.2c0 .4.2.8.5 1v-.2c-.1-.2-.2-.2-.1 0-.1-.4-.2-.9-.4-1.3-.2.2-.2.2-.2.3z" class="st2"/><path d="M262.9 472.3c0 .1.1.2.1.2l-.1-.2z" class="st2"/><path d="M268 477.3c1 .3 2.1.4 3.1.2.1-.1.1-.1.2-.1h.2c.1 0 .3-.1.4-.1l.1-.1c.1 0 0-.1 0-.1h.4c.1-.1.3-.1.4-.2-.1.1-.3.1-.4.2l-.2.1h-.1l1-.3.2-.1c.2-.1.4-.3.6-.2l.2-.1h.1c.2-.1.5-.2.7-.4l.3-.4h.2c0-.1.1-.2.1-.3l-.4.1c-.2 0-.1.4-.5.4.3.1.2-.4.5-.4l.4-.1c.2-.2.4-.4.6-.5-.1.3-.4.5-.6.5-.1.1-.1.2-.1.3h-.2l-.3.4a7.56 7.56 0 003.3-5.5c.2-1.7-.2-3.5-1.1-5-1-1.7-2.6-3-4.4-3.7-1.8-.7-3.8-.6-5.6.1-1.8.7-3.4 1.9-4.6 3.5-.6.9-1 1.8-1.1 2.9-.2 1-.2 2.1.1 3.1.4 1 .8 1.1 1.1 1 .2-.1.4-.3.5-.5.2-.5.3-1.1.3-1.6 0-.8.2-1.5.5-2.2-.3.6-.4.4-.3-.2.2-.7.6-1.3 1.2-1.7.9-.5 1.6-1.1 2.5-1.6.9-.6 2-.9 3-.8.6 0 1.1.1 1.6.3 1.4.6 2.7 1.6 3.5 2.9.9 1.4 1.1 3 .7 4.6-.2.8-.4 1.6-.8 2.4-.3.4-.7.8-1.2 1.1-.5.4-1.1.8-1.6 1.1.6-.3 1.1-.6 1.6-1.1.4-.3-.1.5-.4.7-.1.1-.4 0-.5.1-.3.1-.5.4-.8.5-.1.1-.2-.1-.2-.1-.4.2-.7.6-1 .5h-1.5c.1.1.1.2.1.3l-.5-.1.5.1c0-.1-.1-.2-.1-.3-.7.1-1.4.1-2.1 0 .4.1.8.3 1.2.5-.2-.1-.1-.1.1-.1l.1.1c-.4.1-.8 0-1.1-.3h-.3c-.1-.1-.1-.1-.1-.2l-.2-.1c.2.2.5.3.7.5zM272.4 477.2l-.2.1c.3-.1.5-.2.8-.3-.2 0-.4.1-.6.2z" class="st2"/></g><g class="st1"><path d="M402.8 371.2c0 .9.1 1.9.1 2.8v2.8l.3-2.8c.1-1-.1-1.9-.4-2.8zM402.5 382c0 .3-.1.7-.1 1v.9l.1-1.9zM401.5 391.7c.2-.8.3-1.7.5-2.5s.2-1.6.3-2.4c-.1.7-.2 1.5-.4 2.3s-.3 1.6-.4 2.6zM402.8 384c-.2.6-.4.9-.4-.1 0 1-.1 1.9-.2 2.9.2-1.1.5-2 .6-2.8z" class="st2"/><path d="M402.8 384c.2-.6.4-1.5.5-1.8-.2.6-.3 1.2-.5 1.8z" class="st2"/><path d="M405.9 386.9c0 1-1 .7-1 2.7-.1 1.2-.2 2.3-.4 3.4s-.2 2.2-.4 3.2-.3 2.1-.5 3.2-.5 2.1-.7 3.2c-.2 2-2.2 4.8-2.5 6.7-.2 1.2-.7 2.7-1 4.4s-.7 3.3-1 4.6c-.6 2.7-.7 3.9.5.6 1.8-5 3-9.3 4-13.4.5-2.1 1-4.1 1.4-6.3s.9-4.3 1.2-6.7c1-7.8 1.1-15.6.1-23.4-.2-2.2-.4-4.3-.7-6.4.2 1.4.2 2.8.4 4.2s.2 2.9.1 4.5c-.1 4 1.1 9 .5 15.5zM396.3 330.1c-.1.6-.1 1.3-.1 1.9v1.1c-.5 2.3-.4 4.6.1 6.9a40 40 0 002.1 6.7c0-.7-.1-1.4-.1-2.1-.2-.7-.4-1.4-.8-2-.1-.1-.1.4.1 1.6-.5-2.6-.8-5.3-1-7.9a25 25 0 01.9-7.7c-.4.2-.8 0-1.2 1.5zM398.4 325.6c-.3 1-.8 1.9-1 2.9l.1-.1c.3-1 .6-2 1-2.9l-.1.1z" class="st2"/><path d="M397.2 412.1c-1 3.1-2.1 6.2-3.2 9.2-.6 1.5-1.2 3-1.8 4.4-.6 1.5-1.2 2.9-1.8 4.4-1.3 2.9-2.4 5.7-3.8 8.5s-2.6 5.5-4 8.2c-.2.9-.5 1.8-1 2.6-.6.8-1.1 1.6-1.6 2.4-.8 1.6-1.7 3.1-2.6 4.6l-.9 1.6c-.4.9-.1.7.3.3s.8-1 1.2-1.4c-.2.3-.8 1-1.2 1.4-.6.7-1.1 1.5-1.6 2.3-.8 1.4-1.6 2.9-2.6 4.3.9-1.7 1.8-3.1 2.6-4.3.5-.9.9-1.8 1.4-2.6.1-.3.2-.5.4-.8-1 1.7-2 3.5-3.1 5.2l-3.2 5.1c-.5.8-1 1.5-1.3 2.1-1.5 2.5-3 5-4.5 6.1l-1.3 1.7.3-.3-.5.6c-.9 1.2-1.8 2.4-2.8 3.6l-2.9 3.5c-.6.8-1.1 1.7-1.7 2.5l-1.8 2.4-1.7 1.2c-.5 1-1.2 2-2 2.8 1.4-.9 2.6-1.9 3.7-2.8 1.7-1.2 2.4-4 4.5-5.3-2.2 1.3-2.8 4.1-4.5 5.3-1.1.9-2.3 1.8-3.7 2.8-1 1.1-2.1 2.2-3.3 3.4-1.2 1.1-2.5 2-3.9 2.9a41.73 41.73 0 017.2-6.3c.8-.8 1.5-1.8 2-2.8l1.7-1.2 1.8-2.4c.6-.8 1.1-1.7 1.7-2.5-1.9 2.3-4 4.4-6 6.6-1 1.1-2.1 2.1-3.2 3.2s-2.1 2.2-3.3 3.1a124.8 124.8 0 01-23.3 16.9c-2 1.2-4.2 2.2-6.3 3.3-1 .6-2.1 1-3.2 1.5s-2.2.9-3.3 1.4c-4.4 1.7-8.9 3.1-13.5 4.2-18.3 4.5-38 3.5-57.3-2.5-5.2-1.6-10.2-3.6-15.2-5.8-4.8-2.2-9.5-4.7-14.1-7.5a162 162 0 01-24.9-18.7c-7.4-6.8-14.3-14.1-20.5-22-.8-1-1.5-2-2.2-2.9s-1.5-2-2.2-3c-1.4-2-2.8-4-4.1-6.1-2.7-4.1-5.1-8.3-7.4-12.6-2.2-4.3-4.2-8.8-6-13.3-1.7-4.6-3.2-9.2-4.3-14-1.2-4.8-1.9-9.6-2.3-14.5-.4-4.9-.4-9.8.1-14.7.2-2 .4-4.2.6-6.6s.4-5 .6-7.7c.2-5.4.5-11.2.5-17 .1-11.7-.5-23.3-2-31.7-1.3-5.5-3.1-9.1-5.4-11.4-.3-.3-.5-.5-.8-.7-.3-.2-.7-.4-1-.6l-.4-.2-.1.1-.3.1c-.3.2-.6.4-.9.7-.2.2-.3.5-.3.8.1.5.2 1 .4 1.4.1.5.2 1 .3 1.4s.1.7.1.8c.1.4.2.8.2 1.2l.1 1.2c.1.8.1 1.6.2 2.3.1 1.5.1 3.1.3 4.6.2 3.1.3 6.3.5 10 .4 9.8.1 19.6-.9 29.3.4-4.4.7-5.8.9-5.2.3 2.4.4 4.8.3 7.2 0 1.9-.1 4.1-.2 6.4s-.3 4.8-.6 7.3c-.5 4.9-1.1 10.2-1.5 14.6-.6 7-.2 14 1.3 20.9 1.6 7.7 4.1 15.1 7.3 22.3 6.6 14.8 16.3 28.6 26.1 40.6 5.4 6.5 11.3 12.5 17.7 18 2.2 2.1 4.5 4 6.8 5.9s4.7 3.7 7.1 5.4 4.9 3.4 7.4 5 5 3.1 7.6 4.5 5.2 2.8 7.9 4.1 5.4 2.5 8.1 3.6 5.5 2.1 8.3 3.1 5.7 1.8 8.6 2.5c5.8 1.5 11.7 2.6 17.7 3.2.8.1 1.5.2 2.2.2l2.4.2c1.5.1 3 .2 4.5.2l4.6.1 4.6-.2c6.2-.3 12.4-1.1 18.5-2.4 6.2-1.4 12.3-3.3 18.2-5.6 6-2.5 11.6-5.6 16.9-9.3 2.5-1.8 4.9-3.5 7.1-5.4 1.1-.9 2.3-1.8 3.3-2.8l3.2-2.9c6-5.1 11.7-10.6 17-16.5 6.1-7.1 11.4-14.9 15.9-23.1-4.6 7.9-9.8 15.4-15.6 22.5-1.1 1.4-1.6 1.8-1.6 1.5.4-.8.8-1.5 1.3-2.2 1.5-2.4 3.9-5.8 5.1-7.8 1-1.8 3.8-3.6 4.8-5.5 1.2-1.8 2.3-3.6 3.4-5.5l3.1-5.9c.9-1.8 1.6-1.1 2-2.1 1.3-2.5 2.5-5.2 3.5-7.8.7-2.2 1.7-4.2 2.8-6.2 1.5-2.7 2.8-5.2 4.1-7.5.4-.8.8-1.5 1.2-2.3s.7-1.6 1-2.4l1.1-3.3c-.4.5-.9.8-1.5 1 .7-1.5 1.9-3.6 2.5-5.1-.7 1.5-1.8 3.6-2.5 5.1.6-.2 1.2-.5 1.5-1 3.1-8.5 5.7-17.1 7.9-25.9l-.1.1c-1.3 5.1-3.2 10-5.5 14.7 1-2.1 1.2-1.8.3.8l-1.2 1.7c1.5-4.4 2.7-8.9 4.8-12.9l.2-1.1c.1-.6.2-1.4.3-1.8.5-1.4.8-1.2 1.1-1.5.3-1 .6-2 .8-3-.5 1-1.4 3.1-2.2 4.9-.4.9-.8 1.8-1 2.4l-.5.9z" class="st2"/><path d="M375.1 460.7l1.2-2.2c-1.6 2.9-3.5 5.7-5.3 8.6 1.6-2 3-4.1 4.1-6.4z" class="st2"/></g><g class="st1"><path d="M559.2 486.7c.4.3.8.6 1.2.8-.2-.1-.4-.3-.5-.5-.3-.2-.5-.3-.7-.3zM561.5 488.3l.2.1h.2c-.1 0-.3-.1-.4-.1zM563.8 489.2c-.4-.2-.8-.4-1.2-.5.4.2.8.4 1.2.5zM562 488.3c.1.1.1.2-.1.2l.7.3c-.2-.2-.4-.3-.6-.5zM562 488.3c-.1-.1-.2-.2-.3-.4.1.2.2.3.3.4zM563.3 487c.2 0 0 .5.5.6.5.2 1 .3 1.5.4l1.5.3c.5 0 1 .7 1.5.7 1.1.1 3.9-.4 2.3-.5-.6 0-1.1 0-1.7-.1-.5 0-1-.1-1.5-.2s-1-.2-1.4-.3l-1.5-.5c-.3-.2-.8-.3-1.2-.4-.5-.2-.9-.3-1.3-.5l-1.2-.5-1.2-.7c-.4-.3-.8-.6-1.1-1l.7.7.8.7c.4.4.9.6 1.5.7.5.2 1.2.4 1.8.6zM552.6 478.5l.5.6c.3 1.1.9 2.1 1.8 2.9l-.1-.5c-.4-.5-.6-.5-.3 0-.5-1.3-1.1-2.4-1.7-3.5-.3 0-.3.3-.2.5zM552.3 477.3l.4.7-.4-.7z" class="st2"/><path d="M569 490.1c3.1.4 6.3.2 9.3-.8.2-.2.4-.3.6-.3.2 0 .5 0 .7-.1.4-.2.8-.3 1.2-.5.1-.1.3-.2.4-.2.2-.2.1-.2-.1-.2h-.5.5c.2 0 .5-.1.7-.2.3-.3.7-.5 1.1-.7-.3.3-.7.5-1.1.7l-.6.4-.2.1c.9-.4 1.8-.9 2.7-1.4.2-.1.3-.3.5-.4.4-.5 1-.8 1.6-1.1l.4-.4h-.1l.2-.1c.6-.5 1.2-1 1.7-1.5l.8-1.3.5-.2c.1-.3.2-.6.4-.8-.4.2-.7.4-1 .6-.5.2-.4 1.2-1.2 1.3.7-.1.7-1 1.2-1.3.3-.2.6-.4 1-.6.4-.7 1-1.3 1.6-1.8-.3.8-.9 1.4-1.6 1.8-.2.2-.3.5-.4.8l-.5.2-.8 1.3c.6-.5 1.1-1.1 1.6-1.6l1.5-1.8c3-4 4.7-8.9 4.7-13.9-.3-5.2-2.5-10.1-6.3-13.6-2-2-4.2-3.8-6.6-5.2-2.4-1.4-4.9-2.5-7.6-3.3a20.47 20.47 0 00-16.1 1.3c-2.4 1.4-4.5 3.3-6.2 5.6-1.7 2.3-3.1 4.8-4.2 7.4a24 24 0 00-1.5 8.4c0 2.8.3 5.7 1.2 8.4.2.6.5 1.1.9 1.6.2.3.5.6.8.9.3.3.7.4 1.1.2.4-.3.7-.8.8-1.3.1-.4.1-.8.1-1.3V474c0-.4 0-.8-.1-1.2 0-.4-.1-.8-.1-1.2-.3-2.3-.2-4.7.4-7-.4 2-.7 1.3-.6-.5.2-2.2.9-4.4 2.2-6.2 1.8-2.3 3.5-5 6-7.1 1.2-1.1 2.6-1.9 4.1-2.5.8-.3 1.6-.5 2.4-.6.4-.1.8-.1 1.2-.1h1.2c.8.1 1.7.1 2.5.2.5.1.9.1 1.4.2l1.4.3c2.5.8 4.8 1.8 7.1 3.1 2.2 1.2 4.2 2.8 6 4.6 1.7 1.7 3.1 3.8 4 6.1.9 2.4 1.1 4.9.6 7.4-.3 2.6-1 5.1-2.1 7.5-.2.4-.4.8-.7 1.2-.3.4-.5.8-.8 1.1-.6.7-1.2 1.3-1.7 1.8-1.4 1.5-2.9 3-4.6 4.3 1.7-1.2 3.2-2.5 4.5-4.1.5-.6.5-.3.2.3-.2.3-.4.6-.6 1-.2.3-.4.6-.7.8-.3.4-1.2.5-1.5.8-.4.3-.8.6-1.1 1-.4.3-.8.6-1.2 1s-.5-.1-.7 0c-.6.4-1.1.8-1.6 1.2-.4.3-.9.6-1.4.7-.7.1-1.3.3-2 .3-.4.1-.8.1-1.2.2l-.8.2c.2.1.3.3.4.5h-1.4 1.4c-.1-.2-.2-.4-.4-.5-2.1.5-4.2.7-6.4.5.6.1 1.2.2 1.9.3s1.3.2 1.9.4c-.6-.1-.5-.3.2-.3.2.1.3.2.5.2-.6.1-1.1.1-1.7.1-.6 0-1.1-.1-1.6-.4h-.8c-.3-.1-.3-.3-.3-.4l-.7-.1c.4.3.8.5 1.2.6l.9.4z" class="st2"/><path d="M582 487.7c-.2.1-.4.2-.5.3.8-.3 1.5-.8 2.2-1.2-.6.2-1.2.5-1.7.9z" class="st2"/></g><circle cx="571.8" cy="468.9" r="7.5" class="st3"/><g class="st1"><path d="M576.7 474.2l-.3.3c.1 0 .1-.1.2-.1.1-.1.1-.2.1-.2zM576 474.7h-.1v.1zM575.4 475.2c.1-.1.2-.1.3-.2-.1 0-.2.1-.3.2zM575.9 474.9s-.1 0 0 0l-.2.1c.1-.1.2-.1.2-.1zM575.9 474.9h.2-.2zM576.2 475.7c-.1.1-.2-.1-.3 0-.3.3-.6.5-.9.7-.2.1-.5 0-.7.1-.3.2-1.4.7-.7.6.8-.2 1.6-.5 2.2-1 .5-.4 1-.9 1.5-1.4l.4-.4c-.2.1-.4.3-.6.5s-.4.5-.9.9zM578.7 471.5v.2c-.3.3-.4.6-.5 1l.2-.1c.1-.2 0-.2-.1-.1.3-.3.5-.7.7-1.1-.2 0-.2 0-.3.1z" class="st2"/><path d="M579 471.2c0 .1 0 .2-.1.2 0-.1 0-.2.1-.2z" class="st2"/><path d="M573.9 476c-1 .3-2 .4-3.1.2-.1 0-.2.1-.2 0-.1-.1-.1-.1-.2-.1s-.3-.1-.4-.1h-.2c-.1 0-.1 0 0 .1l.1.1-.1-.1c-.1-.1-.1-.1-.2-.1s-.3-.1-.4-.1c.1 0 .3.1.4.1H569.9c-.3-.1-.6-.2-.9-.4-.1 0-.1 0-.2-.1-.2-.1-.5-.2-.5-.3l-.1-.1c-.2-.1-.4-.3-.6-.4-.2-.1-.3-.1-.5-.2v-.2c-.1 0-.2 0-.3-.1 0 .1.1.3.1.4 0 .2.5 0 .5.4 0-.3-.4-.1-.5-.4-.1-.1-.1-.3-.1-.4-.2-.2-.4-.4-.5-.7.2.2.4.4.5.7.1.1.2.1.3.1v.2c.2.1.3.1.5.2a7.4 7.4 0 01-2.7-5.2c-.1-1.6.3-3.1 1.2-4.4.9-1.4 2.4-2.3 4-2.7 1.5-.3 3-.2 4.4.4 1.4.5 2.4 1.7 2.9 3.1.3.6.4 1.3.6 2 .1.7.1 1.3 0 2 .1.7.3 1 .6 1.1.2.1.5 0 .7-.1.5-.4.8-.9.8-1.6.1-.9.1-1.8 0-2.7 0 .9-.2.6-.4-.1s-.6-1.6-.8-2.5c-.4-1.3-1.4-2.4-2.7-3-1.4-.6-2.9-1-4.4-1-.8 0-1.6.1-2.4.3-2.3.5-4.2 2-5.3 4.1a9.45 9.45 0 00-.8 6.8c.3 1.1 1 2.1 1.8 2.9.4.6.9 1.1 1.5 1.6-.5-.4.5.1.9.2.2 0 .3.4.5.5.4.2.8.3 1.2.3.2 0 .1.2.2.2.6.1 1.1-.1 1.4 0s.5.1.8.2h.5l.3-.1c-.1-.1-.1-.2-.2-.2h.5-.5c0 .1.1.2.2.2.8-.2 1.5-.5 2.2-.8-.4.2-.9.3-1.3.2.2 0 .2.1 0 .1l-.2-.1c.4-.2.7-.2 1.1-.2l.2-.2c.1 0 .2.1.2.1l.2-.1h-.9z" class="st2"/><path d="M569.5 476h.2c-.3-.1-.5-.2-.8-.3.2.2.4.2.6.3z" class="st2"/></g><g class="st1"><path d="M436.5 370c0 1-.1 1.9-.1 2.9v2.9l.3-2.9c.1-1 0-2-.2-2.9zM436.5 381.1c0 .3.1.7.1 1l.2.9c-.1-.7-.2-1.3-.3-1.9zM438 391l-.8-5c.1.7.1 1.5.3 2.3s.3 1.7.5 2.7zM437.2 383c-.1.6-.2 1-.4-.1.1 1 .3 2 .5 3-.2-.9-.2-1.9-.1-2.9zM437.2 383c.1-.6.1-1.5.2-1.9-.1.6-.2 1.3-.2 1.9zM440.8 385.1c.2 1-.8.9-.3 2.8.2 1.1.5 2.2.8 3.2s.5 2 .8 3 .6 2 .8 3 .6 2 .9 3c.6 1.8.5 5.1 1.3 6.9.4 1.1 1 2.6 1.7 4.1s1.4 3 2 4.2c1.2 2.4 1.9 3.4.7.2-1.8-4.8-3.2-8.9-4.4-12.8-.6-2-1.1-3.9-1.7-6s-1-4.1-1.4-6.4c-1.8-7.2-2.6-14.7-2.5-22.1.1-2.1.4-4.1.9-6.1-.3 1.3-.5 2.6-.8 4s-.4 2.8-.5 4.3c-.5 3.9.8 8.7 1.7 14.7zM444.2 329.3c.2.6.4 1.1.5 1.7l.2 1.1c-.5 4.5-1.3 8.9-2.4 13.2l1.1-1.8c.3-.7.4-1.4.4-2.1-.1-.1-.3.3-.7 1.4 1-2.4 1.7-5 2.1-7.6.3-2.6 0-5.2-.8-7.7-.4.4-.6.4-.4 1.8zM443.3 324.6c.4.9.8 1.9 1.1 2.8v-.1c-.3-1-.7-1.9-1.2-2.8l.1.1z" class="st2"/><path d="M444.1 411.2c1 3.1 2.1 6.2 3.2 9.2l1.8 4.5c.6 1.5 1.2 2.9 1.8 4.4 1.3 2.9 2.4 5.8 3.7 8.5s2.5 5.6 3.9 8.3c.7.7 1.2 1.5 1.6 2.4.3.9.6 1.8 1 2.7.8 1.6 1.6 3.1 2.5 4.7.3.5.7 1 1 1.6.6.8.6.5.4-.1s-.5-1.2-.6-1.8l.6 1.8c.3.9.7 1.8 1.2 2.6.9 1.4 1.8 2.8 2.7 4.3-1-1.4-1.9-2.8-2.7-4.3l-1.6-2.5c-.2-.2-.3-.5-.5-.7 1 1.8 1.9 3.6 3 5.3l3.1 5.2c.5.8 1 1.5 1.5 2.1 1.6 2 3 4.1 4.2 6.4l1.3 1.8-.2-.4c.2.3.3.5.4.7.9 1.2 1.8 2.5 2.7 3.7l2.9 3.6 2.1 2.1c.7.7 1.5 1.4 2.2 2.1 0 0 .7 1.2 1 1.9.9.7 1.9 1.4 2.7 2.2-1-1.4-1.7-2.7-2.5-3.9-1-1.8-3.8-2.7-4.6-5.2.8 2.5 3.6 3.4 4.6 5.2.8 1.2 1.5 2.5 2.5 3.9 1.2 1.1 2.3 2.2 3.4 3.4 1.1 1.2 2.3 2.5 3.2 3.7-1.4-1-2.7-2.2-3.9-3.5-1-1.1-1.9-2.3-2.7-3.6-.8-.8-1.7-1.5-2.7-2.1-.3-.6-1-1.9-1-1.9-.7-.7-1.5-1.4-2.2-2.1l-2.1-2.1c1.8 2.4 3.9 4.6 5.9 6.9 1 1.2 2.1 2.2 3.1 3.3s2.1 2.2 3.2 3.3c7.1 6.9 14.9 12.9 23.4 17.9 2.1 1.3 4.3 2.3 6.4 3.5 1.1.6 2.2 1 3.3 1.5l3.3 1.5c4.5 1.8 9.1 3.3 13.9 4.5 19 4.9 39.3 4 59.4-1.7 5.4-1.6 10.7-3.4 15.8-5.6a167.67 167.67 0 0041.5-25.4c8.1-6.7 15.5-14.1 22.1-22.3l2.4-3c.8-1 1.6-2 2.3-3.1 1.5-2.1 3-4.2 4.4-6.3 2.9-4.2 5.5-8.7 7.9-13.2s4.6-9.2 6.6-14c2-4.8 3.7-9.8 5.2-14.8 1.5-5.1 2.7-10.3 3.5-15.6.9-5.4 1.4-10.9 1.4-16.4v-1.6-1.6-3.5c0-2.4-.1-4.9-.2-7.6-.1-5.3-.3-11-.3-16.6-.1-11.3.2-22.5 1.4-29.6.4-4.8.9-7.4.8-8.3 0-.1 0-.3-.1-.3s-.1-.1-.2-.1l-.1-.1v-.1-.3a1.61 1.61 0 00-1.1-1.5c-.4-.1-.8-.1-1.1 0-.4.2-.7.3-1.1.6-.2.2-.4.3-.6.5-.3.3-.6.6-.8 1l-.7 1c-.4.7-.8 1.4-1.1 2.2-.7 1.5-1.2 3-1.6 4.6-.4 1.6-.7 3.2-1 4.9s-.5 3.5-.7 5.3c-.7 7.5-.9 16.6-1.6 29.8.1-4.5.5-5.9.7-5.3.4 2.4.6 4.8.7 7.2.1 1.9.2 4.1.2 6.4s.1 4.8.2 7.3c.2 4.7-.1 9.4-.9 14-1.2 5.8-2.5 12.1-4.4 18.7-1.9 6.9-4.2 13.7-7 20.3-5.8 13.9-13.9 26.8-24 38a203.6 203.6 0 01-16.8 16.7c-2.1 1.8-4.4 3.5-6.6 5.2s-4.5 3.3-6.8 4.8l-6.9 4.5c-2.3 1.5-4.7 2.8-7.1 4.1s-4.8 2.5-7.3 3.8-4.9 2.3-7.5 3.3-5.1 2-7.6 2.9-5.2 1.7-7.8 2.4c-5.2 1.5-10.6 2.6-16 3.2l-2 .3-2 .2c-1.4.1-2.7.3-4.1.3l-4.1.2-4.1-.1c-5.6-.2-11.1-.9-16.6-2-5.6-1.2-11.1-2.9-16.3-5.1-5.4-2.2-10.7-4.8-15.8-7.6-2.4-1.4-4.8-2.7-7-4.3-1.1-.8-2.3-1.4-3.4-2.2l-3.2-2.4c-6-4.9-11.5-11.2-15.6-15.9-5.9-6.8-11.4-13.9-16.6-21.2 4.8 7.3 10 14.3 15.8 20.8 1.1 1.3 1.5 1.7 1.2 1.7-.7-.4-1.4-1-1.9-1.6-2.2-2-4.3-4.2-6.2-6.4-1.3-1.5-2.4-4.5-3.6-6-1.2-1.8-2.4-3.4-3.7-5L470 461c-1.2-1.5-.3-1.9-.8-2.6-1.6-2.6-3.3-4.9-4.8-6.9-1.3-1.8-2.4-3.7-3.4-5.8-1.3-2.8-2.2-5.3-3.3-7.8l-2.1-4.7-1.6-3c.1.6 0 1.3-.3 1.8-.6-1.5-1.4-3.8-1.9-5.3.6 1.5 1.3 3.8 1.9 5.3.3-.6.4-1.2.3-1.8-4.1-7.9-7.6-16.1-10.5-24.5v.1c1.5 5 3.1 9.7 4.4 15-.6-2.3-.3-2.1.7.4l.3 2.1c-2.1-4.1-3.6-8.4-4.5-12.9l-.5-1-.7-1.7c-.3-1.5 0-1.5.2-1.8l-.9-2.9c.2 1.8.4 3.5.8 5.3.2 1 .4 1.9.5 2.5s.3.4.3.4z" class="st2"/><path d="M466.2 459.9c-.4-.6-.8-1.4-1.3-2.1 1.6 3 3.4 5.8 5.1 8.7-.5-1.8-2.1-4.1-3.8-6.6z" class="st2"/></g></svg>