<svg xmlns="http://www.w3.org/2000/svg" id="Layer_1" x="0" y="0" version="1.1" viewBox="0 0 841.9 841.9" xml:space="preserve"><defs/><style>.st1{opacity:.85}.st2{fill:#161315}.st3{fill:#211f1e}</style><path fill="#fad5e5" d="M0 .6h841.9v841.9H0z"/><g class="st1"><path d="M391.6 359.2l-2.8 2.8c.5-.4 1.1-.8 1.6-1.2.6-.4 1-.9 1.2-1.6zM386.2 364.6l-.5.5-.4.5.9-1zM381.5 369.6c.9-.8 1.7-1.7 2.5-2.5-.9.8-1.8 1.6-2.5 2.5z" class="st2"/><path d="M385.5 365.9c-.4.2-.6.2-.2-.3l-1.4 1.6c.5-.5 1.1-.9 1.6-1.3z" class="st2"/><path d="M385.5 365.9c.4-.2.9-.6 1.1-.7-.3.2-.7.4-1.1.7zM386.7 369.5c-.4.6-1-.2-1.8.9-2.1 2.5-3.7 4.7-5.9 6.9-.8 1.1-3.1 1.9-3.9 3-2.1 2.5-7 9.2-3.6 5.8 5.1-5.3 8.3-8.8 12.8-13.6 3.5-4 6.8-8 10.4-12.1 1-1.1 2.1-2.1 3.2-3l-4.5 3.9c-2.2 1.7-3.8 5-6.7 8.2zM412.7 339l-1.2 1.7c-2.6 1.9-4.9 4.1-6.8 6.6l1.4-.7c1.3-1.4 1.2-1.7-.1-.7 2.9-2.2 5.7-4.6 8.1-7.3-.4.1-.6-.2-1.4.4z" class="st2"/><path d="M415.5 337.1l-1.5 1.6h.1l1.4-1.6zM371.8 380.6c-6.5 6.5-12.6 12.6-18.6 18.5-.3.6-.7 1.2-1.2 1.6-.6.3-1.1.7-1.6 1.2-.9.9-1.8 1.7-2.6 2.6l-.9 1c-.4.6-.2.5.2.3s.8-.5 1.2-.7c-.2.1-.8.5-1.2.7-.6.4-1.1.8-1.6 1.2-.8.9-1.6 1.7-2.5 2.5.7-.9 1.6-1.7 2.5-2.5l1.4-1.6c.1-.2.2-.3.4-.5l-6 5.8c-.4.5-.9.9-1.2 1.3-1.4 1.5-2.8 3-4 3.5l-1.1 1 .3-.1-.5.3-4.9 3.9c-.5.5-.9 1-1.4 1.5s-1 1-1.5 1.4l-1.4.5c-.5.7-1 1.3-1.6 1.8 1.1-.4 2.1-.8 3-1.2 1.5-.5 2-2.6 3.9-3-1.8.4-2.4 2.5-3.9 3-.9.4-1.9.8-3 1.2-.4.3-.8.7-1.3 1l-1.5.9c-1 .5-2 1-3.1 1.4 1.7-1.4 3.7-2.5 5.8-3.2.6-.5 1.2-1.1 1.6-1.8l1.4-.5c.5-.5 1-1 1.5-1.4s1-1 1.4-1.5c-1.6 1.3-3.3 2.4-5 3.6l-2.6 1.8c-.9.6-1.8 1.1-2.7 1.7l-4.4 2.6-4.5 2.3-2.2 1.2-2.3 1-4.5 2-4.6 1.8-2.3.9c-.8.3-1.6.5-2.4.8l-4.7 1.5-4.8 1.2-2.4.6c-.8.2-1.6.3-2.4.5l-4.9.9-5 .6-2.5.3-2.5.2-5.1.3h-5.1c-1.7 0-3.4-.1-5.2-.2l-2.6-.1c-.9 0-1.7-.1-2.6-.2-14.6-1.5-28.8-5.8-41.9-12.5l-4.7-2.4-4.5-2.7c-.7-.5-1.5-.9-2.2-1.3l-2.1-1.4c-1.4-1-2.9-1.9-4.2-2.9-2.7-2.1-5.5-4-8-6.3l-1.9-1.6-1-.8-.9-.9-3.6-3.5c-4.8-4.8-9.1-10.1-12.8-15.7-1.9-2.9-3.7-5.8-5.2-8.9-.8-1.5-1.5-3.1-2.2-4.7l-1.1-2.4c-.4-.8-.6-1.6-.9-2.5-1.9-4.9-4.9-12.5-8.1-19.9s-6.4-14.6-8.5-19.6c-7.2-12.8-8-4.2-8-3.5.3 9.6 4.8 15.3 10 32.9-1.9-6-.5-4.1 1.7.8.5 1.2 1.1 2.6 1.7 4.1s1.2 3.1 1.9 4.8 1.3 3.4 1.8 5c.1.4.3.8.4 1.2s.3.8.4 1.2c.3.8.5 1.5.8 2.3 2.5 8.6 8.3 17.9 16 26.2s17 15.6 25.9 21.9c1.1.8 2.3 1.6 3.4 2.4l3.8 2.2c1.3.7 2.6 1.5 4 2.2l4.3 2.1c7.5 3.8 15.3 6.8 23.4 9 8 2 16.3 3.3 24.5 3.7l6.2.2 6.3-.2c1 0 2.1-.1 3.1-.2l3.1-.3 3.2-.3 3.1-.5c8.6-1.2 17.1-3.2 25.3-6 9-3.1 16.1-7.5 22.7-11.9 2.4-1.6 5-3.1 7.4-4.6s4.6-3.1 6.5-4.5c1.4-1.2 2.8-2.3 4.1-3.5l1.9-1.7c.6-.5 1.2-1.2 1.8-1.7 2.3-2.3 4.5-4.6 6.3-6.8-2.2 2.4-4.4 4.5-6.5 6.6l-1.6 1.6-1.8 1.5-4 3.4c-1 .8-1.4 1-1.3.8.3-.5.7-1 1.1-1.5 1.3-1.5 3.3-3.7 4.5-4.8.6-.6 1.3-1.1 2.1-1.4a8 8 0 002.1-1.5c1.1-1 2.1-2.1 3.1-3.3.9-1.1 1.9-2.3 2.9-3.6.8-1.1 1.4-.3 1.8-.9 3-3.3 4.5-6.5 6.6-8.3l4.5-3.9c.9-.8 1.7-1.6 2.6-2.5l1.5-1.9c-.5.2-1 .2-1.5 0 .9-.8 2.2-1.8 3-2.6-.9.8-2.2 1.8-3 2.6.5.2 1 .2 1.5 0 3.7-4.5 8-9.6 12.1-14.2h-.1c-2.5 2.7-5.2 5.1-8.1 7.3 1.3-1 1.4-.7.1.7l-1.4.7c1.9-2.5 4.2-4.8 6.8-6.6l1.2-1.7c.8-.6 1-.4 1.3-.4l1.5-1.5c-1.5.9-3.3 2.1-4.9 3.5z" class="st2"/><path d="M345.4 406.9l1.2-1.3-5.1 4.9c1.2-.5 2.5-2 3.9-3.6z" class="st2"/></g><g class="st1"><path d="M453.1 368.9l3.3 3.4c-.5-.6-1-1.3-1.5-1.9-.4-.6-1.1-1.1-1.8-1.5zM459.5 375.5l.6.6.6.5-1.2-1.1zM465.6 381.2c-1-1.1-2-2-3-3 .9 1.1 1.9 2.1 3 3zM461.1 376.3c.3.5.3.8-.3.2l1.9 1.7c-.7-.6-1.2-1.2-1.6-1.9zM461.1 376.3c-.2-.4-.7-1.1-.8-1.3.2.5.5.9.8 1.3zM465 375.4c.7.5-.1 1.1 1.2 2.1 2.9 2.6 5.6 4.6 8.2 7.2 1.3 1 2.4 3.6 3.7 4.6 3 2.6 10.9 8.7 6.7 4.6-6.3-6.1-10.6-10-16.3-15.5-4.8-4.3-9.5-8.3-14.4-12.7-1.3-1.3-2.5-2.5-3.7-3.8l4.8 5.4c2.1 2.5 5.8 4.5 9.8 8.1zM428.7 343.6l2 1.5c2.3 3.1 5 5.8 8 8.2l-.9-1.6c-1.6-1.5-2-1.5-.7 0a81.9 81.9 0 00-8.9-9.7c-.1.5-.3.7.5 1.6z" class="st2"/><path d="M426.3 340.4l1.9 1.8v-.1l-1.9-1.7zM478.7 393c7.9 7.8 15.2 15.2 22.3 22.4a7 7 0 011.9 1.5c.4.7.9 1.3 1.5 1.9l3.1 3.2 1.2 1c.7.5.6.2.3-.2s-.6-.9-.9-1.4c.1.3.6.9.9 1.4.5.7 1 1.3 1.5 1.9 1 .9 2 1.9 3 3-1.1-.9-2.1-1.9-3-3l-1.9-1.7c-.2-.1-.4-.3-.6-.5l7.1 7.3 1.5 1.4c1.8 1.6 3.6 3.3 4.4 4.7l1.3 1.3-.3-.2.4.5 5.3 5.5c1.3 1 2.7 2.1 4 3.2l.9 1.5c.9.5 1.6 1 2.4 1.7-.8-1.2-1.4-2.3-2.1-3.3-.9-1.6-3.4-2-4.2-4.1.8 2.1 3.3 2.5 4.2 4.1.7 1 1.3 2.1 2.1 3.3 2 1.8 3.8 3.8 5.4 6a25.8 25.8 0 01-5.4-6c-.7-.7-1.5-1.2-2.4-1.7l-.9-1.5c-1.3-1.1-2.7-2.2-4-3.2l10.6 11c11.5 12 22.7 23.3 34 34.8l8.5 8.6c1.5 1.5 2.8 2.9 4.4 4.4.8.8 1.6 1.4 2.4 2.1s1.7 1.3 2.5 2c7.2 5.1 15.7 8.1 24.6 8.5 19.7 1 38-10.2 46.1-28.2 14.7-31.9 26-61.8 42.1-93.5 6.1-12.2 15.5-35.6 20.5-47.7 5.4-16.8-2-10-2.5-9.4-7.5 8.6-9 17.1-19.4 36.6 6.9-13.4-2.2 11.1-10 23.2-11.4 17.4-20 45.5-30.8 68.4-2.7 5.7-5.1 12-8.2 18.9-1.8 3.9-4.1 7.5-6.9 10.6a40.22 40.22 0 01-33.5 12.9c-8.4-.8-16.4-4.5-22.5-10.3l-.6-.6-.7-.6-1.3-1.3-2.6-2.6-5.3-5.3-10.7-10.8c-7.7-7.7-15.1-13.9-22-20-4.9-4.6-9.6-10-13.5-13.9-6.1-6-11.5-11-16.8-15.7 5.7 5.5 10 9.4 16.3 15.5 4.2 4.1-3.8-2-6.7-4.6-1.3-1-2.4-3.6-3.8-4.6-2.6-2.6-5.2-4.6-8.2-7.2-1.3-1-.5-1.6-1.2-2.1-3.9-3.6-7.7-5.6-9.9-8.2l-4.8-5.4c-1-1-2-2.1-3-3.1l-2.2-1.9c.3.5.3 1.1.2 1.6-1-1-2.2-2.6-3.1-3.6 1 1 2.2 2.6 3.1 3.6.1-.6.1-1.1-.2-1.6-5.3-4.5-11.4-9.9-17-14.9v.1c3.2 3 6.2 6.3 8.9 9.7-1.2-1.5-.9-1.6.8 0l.9 1.6c-3-2.6-5.9-5.1-8-8.2l-2-1.5c-.8-1-.5-1.1-.5-1.5L474 387c1 1.5 4.7 6 4.7 6z" class="st2"/><path d="M510.5 424.9l-1.5-1.4 5.9 6.1c-.8-1.5-2.6-3.1-4.4-4.7z" class="st2"/></g><g class="st1"><path d="M605.3 498.5c.3.2.6.5.9.6-.2-.1-.3-.3-.4-.4-.1-.2-.3-.3-.5-.2zM607 499.6l.2.1h.2c-.1 0-.2 0-.4-.1zM608.9 500.4c-.3-.1-.6-.3-.9-.4.2.2.5.3.9.4zM607.5 499.6c.1.1.1.2-.1.2l.6.2c-.2-.1-.4-.2-.5-.4zM607.5 499.6c-.1-.1-.2-.2-.2-.3 0 .1.1.2.2.3zM608.7 498.3c.2 0-.1.4.3.5.4.1.8.2 1.2.2l1.1.2c.3 0 .8.7 1.1.6.9.1 2.9-.5 1.7-.5-1.5 0-3-.3-4.5-.7-1.3-.3-2.6-.8-3.8-1.5-.3-.2-.6-.5-.8-.8.2.2.3.4.5.6l.6.5c.3.3.7.5 1.1.5.5.1 1 .2 1.5.4zM600.3 492.1l.4.4c.2.9.7 1.7 1.4 2.2v-.5c-.3-.4-.5-.4-.3.1-.4-.9-.8-1.9-1.3-2.7-.1.2-.3.2-.2.5z" class="st3"/><path d="M600.2 491.2c.1.2.2.3.3.5l-.3-.5z" class="st3"/><path d="M612.9 501c2.4.3 4.8.1 7.1-.6.1-.1.2-.3.5-.3h.6c.3-.1.6-.3.9-.4l.3-.2c.1-.1.1-.2-.1-.2h-.4.4c.2 0 .4-.1.5-.1.3-.2.5-.4.8-.5-.2.2-.5.4-.8.5l-.5.3-.1.1c.7-.3 1.4-.7 2-1.1.1-.1.3-.2.4-.3a2 2 0 011.2-.8l.3-.3h-.1l.1-.1c.5-.4.9-.7 1.3-1.2l.6-1 .4-.1c0-.2.1-.5.2-.6-.3.1-.6.3-.8.4-.4.1-.2 1-.9 1 .6 0 .5-.8.9-1 .2-.1.5-.3.8-.4.3-.5.8-1 1.3-1.4-.2.6-.7 1.1-1.3 1.4-.1.2-.2.4-.2.6l-.4.1-.6 1 1.2-1.2c.4-.4.8-.9 1.1-1.4 2.4-3 3.6-6.8 3.6-10.6-.2-4-1.9-7.8-4.8-10.5-1.5-1.6-3.2-2.9-5.1-4.1-1.8-1.1-3.8-2-5.8-2.7-2-.7-4.2-.9-6.3-.8-2.2.1-4.3.7-6.2 1.8-1.9 1.1-3.6 2.6-4.9 4.4a27.7 27.7 0 00-3.4 5.7c-.8 2.1-1.2 4.3-1.2 6.5s.3 4.4.9 6.6c.3.7.8 1.4 1.5 1.8.3.2.7.3 1.1.1.4-.3.7-.7.9-1.1.2-.6.3-1.3.3-1.9v-.9c0-.3 0-.6-.1-1-.2-1.7-.1-3.5.5-5.2-.4 1.5-.7 1-.6-.4.1-1.7.8-3.3 1.8-4.6 1.6-1.6 2.8-3.5 4.5-5 .8-.8 1.8-1.4 2.9-1.8.5-.2 1.1-.4 1.7-.5.6-.1 1.2-.1 1.8 0 .6.1 1.2.1 1.8.2.3 0 .7.1 1 .1l1 .2c1.8.6 3.5 1.4 5.2 2.4 1.6.9 3.1 2 4.4 3.3a10.93 10.93 0 013.4 9.7c-.2 1.9-.7 3.8-1.3 5.6-.3.6-.7 1.2-1.2 1.7s-.9 1-1.3 1.3c-1 1.1-2.1 2.2-3.3 3.2 1.2-.9 2.3-1.9 3.3-3.1.4-.4.4-.2.2.3a3 3 0 01-.4.8c-.1.2-.3.4-.5.6-.2.3-.9.3-1.2.5-.3.2-.6.5-.8.8-.3.2-.5.5-.8.8s-.4-.2-.6 0c-.4.3-.8.6-1.2 1-.3.3-.6.5-1 .6-.5.1-1 .2-1.5.2-.3.1-.6.1-.9.1l-.6.2c.2.1.3.3.3.5-.3 0-.7 0-1-.1.3 0 .7.1 1 .1-.1-.2-.2-.3-.3-.5-1.6.5-3.2.6-4.8.5.5.1.9.1 1.4.2.5.1 1 .2 1.5.4-.4-.1-.4-.3.1-.3.1.1.2.2.4.2-.8.2-1.7.1-2.5-.3l-.6.1c-.3-.1-.2-.3-.2-.4l-.5-.1.9.6.8.6z" class="st3"/><path d="M622.7 499.1c-.1.1-.3.2-.4.2.6-.2 1.1-.6 1.7-.9-.5.1-.9.4-1.3.7z" class="st3"/></g><circle cx="615" cy="484.8" r="5.7" fill="#1f2020"/><g class="st1"><path d="M618.6 488.7l-.3.2h.2c.1 0 .1-.1.1-.2zM618.1 489.1l-.1.1zM617.7 489.5c.1 0 .2-.1.3-.2-.2.1-.3.1-.3.2zM618.1 489.3c-.1 0-.1 0 0 0h-.2.2zM618.1 489.3zM618.4 490.1c0 .1-.2-.1-.2 0-.2.2-.4.4-.7.6-.1.1-.4-.1-.5 0-.3.2-1 .7-.5.5.6-.2 1.2-.5 1.7-.8.4-.4.8-.7 1.1-1.2l.3-.3c-.2.1-.3.2-.5.3s-.3.6-.7.9zM620.2 486.7v.2c-.3.2-.3.5-.4.7h.2c.1-.1 0-.2-.1-.1.3-.2.5-.5.5-.8h-.2zM620.4 486.5v.2-.2z" class="st3"/><path d="M616.6 490.2c-.8.2-1.6.3-2.3.1-.1 0-.1.1-.2 0 0-.1-.1-.1-.2-.1l-.3-.1h-.1c-.1 0-.1 0 0 .1l.1.1-.1-.1s-.1-.1-.2-.1-.2-.1-.3-.1c.1 0 .2.1.3.1H613.6c-.2-.1-.5-.2-.7-.3h-.2c-.2 0-.4-.1-.4-.3l-.1-.1c-.1-.1-.3-.2-.4-.3-.1 0-.3-.1-.4-.1v-.2c-.1 0-.2 0-.2-.1 0 .1 0 .2.1.4 0 .2.4 0 .4.3 0-.3-.3-.1-.4-.3 0-.1-.1-.2-.1-.4-.2-.1-.3-.3-.3-.5.2.1.3.3.3.5.1 0 .1.1.2.1v.1c.1.1.3.1.4.1-.3-.2-.5-.5-.8-.8a5.4 5.4 0 01-.3-6.4c.7-1 1.8-1.7 3-1.9 1.1-.2 2.2-.1 3.2.3s1.7 1.2 2 2.3c.1.4.3.9.4 1.4.1.5.1 1 0 1.4 0 .4.3.7.7.9.2.1.4.1.7 0 .5-.2.8-.7.8-1.2.1-.7.1-1.4.1-2.1 0 .7-.2.5-.3 0l-.6-2c-.3-1.1-1-2-2.1-2.5s-2.3-.8-3.5-.8c-.6 0-1.3.1-1.9.3-1.8.4-3.4 1.6-4.2 3.2-.9 1.7-1.1 3.6-.6 5.4.3.9.8 1.7 1.5 2.3.3.5.7.9 1.2 1.3s1.2.7 1.9.8c-.6-.2-1.2-.5-1.8-.9-.4-.3.5 0 .8.1.1 0 .2.4.4.4.3.1.6.2.9.2.2 0 .1.2.1.2.5.1.8-.1 1.1 0 .2.1.4.1.6.2h.4l.2-.1c-.1-.1-.1-.2-.1-.2.1 0 .3.1.4 0h-.4c0 .1.1.2.1.2.6-.2 1.2-.4 1.7-.7-.3.1-.7.2-1 .1.2 0 .2.1 0 .1l-.2-.1c.3-.1.6-.2.9-.1l.2-.1c.1 0 .1.1.2.1l.2-.1h-1.1z" class="st3"/><path d="M613.3 490.1h.2c-.2-.1-.4-.2-.6-.2 0 .2.2.2.4.2z" class="st3"/></g><g class="st1"><path d="M203.9 412.5l1 .4c-.2-.1-.3-.2-.5-.3-.2-.1-.4-.1-.5-.1zM205.9 413.3l.2.1h.2l-.4-.1zM207.7 413.7c-.3-.1-.6-.2-.9-.2.3.1.6.2.9.2zM206.3 413.1c.1.1.1.2-.1.2l.6.1c-.2 0-.4-.1-.5-.3zM206.3 413.1l-.3-.3c.1.2.2.3.3.3zM207.3 411.7c.2 0 0 .5.4.5.8.1 1.7.2 2.5.4.4 0 .8.7 1.2.7.9.1 3.2 0 1.9-.3-1.9-.4-3.2-.7-5-1.1l-2.2-.3c-.7-.1-1.4-.3-2.2-.4-.4-.1-.8-.3-1.1-.4l1.5.7c.7.2 1.8 0 3 .2zM196.4 409.5l.6.1c.7.5 1.5.9 2.4 1l-.3-.4c-.5-.2-.6-.1-.2.2-.8-.6-1.7-1-2.7-1.4 0 .2 0 .4.2.5z" class="st3"/><path d="M195.7 408.9l.6.2v-.1l-.6-.1zM211.7 414.4c2.4.6 4.8 1.2 7 1.7.2-.1.4-.1.6 0 .2.1.3.2.5.3l1 .2h.4c.2 0 .2-.1.1-.2s-.2-.1-.3-.2c.1.1.2.1.3.2.2.1.3.2.5.2.3 0 .6.1.9.1-.3 0-.6-.1-.9-.1h-.8l2.3.5h.5c.5 0 1 .1 1.4.4l.4.1h-.1l.1.1 1.7.3c.4 0 .8-.1 1.2-.1l.4.3c.2-.1.4-.1.7-.1-.3-.2-.6-.4-.8-.5-.4-.3-.9.4-1.3-.1.4.5 1-.1 1.3.1.2.1.5.3.8.5.6 0 1.2.2 1.8.5-.6.1-1.3-.1-1.8-.5-.2 0-.5.1-.7.1l-.4-.3c-.4 0-.8.1-1.2.1l3.4.6c7.5 1.1 15 1.5 22.5 1.4 4.3 0 8.4-.2 12.5-.3 8.1-.4 15.3-2.4 23.5-3.4 3.2-.4 8.7-2.4 11.6-3.6 1.8-1.1 2-2 1.7-2.6-.3-.4-.7-.7-1.1-.9-2.9-.7-4.4.9-9.4 1.4 3.4-.5-2.1 1.9-5.5 1.5-4.9-.6-11 2.2-16.7 2.6-1.4.1-2.9.4-4.6.5-8.8.4-16.9 1.5-26.1.8-1.2-.1-2.3-.1-3.5 0l-3.2.1c-1.4-.1-2.9-.4-4.3-.7-1.9-.2-3.6-.4-5.2-.4 1.8.2 3.1.3 5 .5 1.3.1-1 .5-1.9.5-.4 0-.9-.6-1.3-.5-.8-.1-1.6-.1-2.5-.1-.4 0-.3-.4-.5-.4-1.2-.1-2.2.3-2.9 0l-1.5-.5c-.3-.1-.6-.2-.9-.2h-.7c.1.2.2.4.2.6-.3-.1-.7-.3-1-.4.3.1.7.3 1 .4 0-.2-.1-.4-.2-.6-1.6-.1-3.4-.3-5.1-.5 1 .2 1.9.5 2.8 1-.4-.2-.3-.3.2-.2l.3.3c-.9 0-1.8-.2-2.5-.7h-.4c-.2-.1-.2-.3-.2-.4l-.6-.1.9.6.6.1z" class="st3"/><path d="M221.7 416.7h-.5l1.9.4c-.4-.3-.9-.5-1.4-.4z" class="st3"/></g></svg>