<svg xmlns="http://www.w3.org/2000/svg" id="Layer_1" viewBox="0 0 841.89 841.89"><defs/><defs><style>.cls-2{opacity:.85}.cls-3{fill:#0f0c0e}</style></defs><path fill="#bd8675" d="M0 0h841.89v841.89H0z"/><g class="cls-2"><path d="M636.51 354.48c1.39 1.5 2.81 3 4.16 4.58a40.45 40.45 0 01-1.84-2.55 9.52 9.52 0 00-2.32-2.03zM644.39 363.4l.7.85.67.66zM651.34 371.63a54.53 54.53 0 00-3.42-4.29c.9 1.27 2.08 2.66 3.42 4.29zM646.17 364.77c.32.6.41.94-.37.17.74.78 1.45 1.58 2.16 2.43-.71-.98-1.3-1.85-1.79-2.6zM646.17 364.77c-.31-.58-.86-1.44-1-1.76.25.53.6 1.12 1 1.76zM650.53 364.74c.78.8-.13 1.19 1.4 2.76 1.69 1.92 3.24 3.74 4.75 5.53s2.93 3.62 4.24 5.64a16.86 16.86 0 011.9 3.44 17.67 17.67 0 001.79 3.49l5.77 8.37c1.7 2.47 2.57 3.57.77.1a170.24 170.24 0 00-16.6-24.79 224.63 224.63 0 00-17.4-18.39 96.91 96.91 0 01-2.48-2.52l-1.19-1.25-.52-.56-.51-.62.61.77.76.84 1.54 1.71c1 1.15 2.11 2.35 3.21 3.63a26.1 26.1 0 002.44 2.53c.88.87 1.85 1.75 2.89 2.68s2.13 1.93 3.23 3 2.29 2.29 3.4 3.64zM608.11 318.31c.66.87 2.07 2.55 2.07 2.55 2.15 4.4 5.41 8.36 8.74 12.2l-1-2.07c-1.8-2.28-2.21-2.4-.82-.21-3.12-5.06-6.3-9.64-9.42-14.44-.03.44-.32.53.43 1.97zM605.89 313.49l1.79 2.85v-.15l-1.84-2.81z" class="cls-3"/><path d="M664.79 390.17a133.75 133.75 0 0115.25 38 9.89 9.89 0 011 3c0 1.05.1 2.09.22 3.12.34 1.9.56 3.81.8 5.7l.29 2v.05c.22 1.07.33.74.4.05s.07-1.45.14-2.05c0 .38-.07 1.39-.14 2.05v3.13c.09.87.17 1.77.23 2.68s0 1.86 0 2.81c-.08-1.06-.13-2-.16-3s-.1-1.76-.11-2.54a46.7 46.7 0 00-.4-3.23l-.19-.93a92.88 92.88 0 01.45 13.12v2.74c0 1.59-.06 3.17-.24 4.59a13 13 0 01-.78 3.62l-.38 2.31.15-.44a6.25 6.25 0 01-.23.85c-.35 1.61-.63 3.23-1.08 4.82l-.62 2.39-.73 2.37c-.19 1.06-.47 2.11-.73 3.18l-.41 1.61-.5 1.59-1.27 1.88a18.58 18.58 0 01-1.09 3.56c1-1.51 2-2.85 2.73-4.22 1.32-1.93.9-5 2.52-7.26-1.62 2.25-1.2 5.33-2.52 7.26-.72 1.37-1.75 2.71-2.73 4.22a34.73 34.73 0 01-5.57 8.83 72.5 72.5 0 015.57-8.83 18.58 18.58 0 001.09-3.56l1.27-1.88.5-1.59.41-1.61c.26-1.07.54-2.12.73-3.18a79 79 0 01-8.13 17.77 81.49 81.49 0 01-21.4 22.85 97.66 97.66 0 01-27.59 13.85 129.88 129.88 0 01-30.76 5.86c-2.65.23-5.31.3-8 .41s-5.37.07-8.08 0a156.09 156.09 0 01-16.37-1.12 73.83 73.83 0 01-32.1-12.55A108.49 108.49 0 01502 500.86c-3.39-4.44-6.54-9-9.5-13.64s-5.66-9.39-8.25-14.18a289.46 289.46 0 01-13.62-29.53 343.56 343.56 0 01-18.25-63.76c-1.66-8.64-4.23-20.92-6.5-33.19s-4.28-24.51-5.41-32.89c-2.23-11.15-3.79-13.71-5.05-13.34s-2 3.67-2 4.21c-1 7.2-.53 13.53.46 21.6s2.55 17.92 4.35 32.27c-1.3-9.76-.08-6.29 1.68 1.91s4.34 21.1 5.52 30.39c1.57 13.49 6 29.36 12.07 45.48a375.09 375.09 0 0022 47.29 166.41 166.41 0 0015.48 22.92A109.27 109.27 0 00524 533.3a83.06 83.06 0 0018.19 8.42c.8.26 1.59.54 2.4.77l2.44.62 2.45.62 2.48.46 2.48.46c.83.12 1.66.21 2.5.31l2.5.29c.85.1 1.62.12 2.43.19a181 181 0 0019.38.46 166.2 166.2 0 0019.65-1.71 128 128 0 0039.1-12.13 83 83 0 0017.5-12.22 89.7 89.7 0 0012.82-14.75c5.42-7.43 10.3-16.12 12.62-23.29a81.56 81.56 0 004-31 102.42 102.42 0 01-.63 14.79A83.06 83.06 0 01683 481c-1.29 3.83-1.12 2.39-.45-.61s1.44-7.65 1.74-10.25a10.74 10.74 0 01.4-1.84c.18-.66.39-1.36.6-2.06s.43-1.4.59-2.07a9.49 9.49 0 00.24-1.88 73 73 0 00-.23-14.59c-.35-2.22.62-2 .44-3.13-.73-7.14-3-12.28-3.72-16.7-.62-3.37-1.3-6.38-2-9.3-.48-1.85-1.11-3.63-1.78-5.53-.51-1.14-1-2.32-1.58-3.5a3.29 3.29 0 01-.33 2l-1-3 1 3a3.29 3.29 0 00.33-2 173.13 173.13 0 00-14.78-25.73v.19a75.63 75.63 0 017.92 15.34c-1-2.39-.58-2.24.79.37.2.74.35 1.5.52 2.24-2.42-4.51-5-8.86-6.87-13.36 0 0-1.28-1.78-2-2.62-.74-1.44-.44-1.54-.4-2a55.2 55.2 0 00-1.9-2.8c.49 1.11 1.55 3.36 2.52 5.32.49 1 .9 1.9 1.22 2.57z" class="cls-3"/><path d="M682.69 445.37c-.08-.77-.15-1.72-.29-2.73.18 1.83.22 3.67.32 5.51s.07 3.68 0 5.52A13.16 13.16 0 00683 452v-2c0-.7 0-1.48-.09-2.25z" class="cls-3"/></g><path fill="#121011" d="M191.87 515.33c1 4.31 0 8.26-2.31 8.82s-5.45-.46-6.49-4.77-1.7-9.77.62-10.34 7.13 1.96 8.18 6.29z"/><g class="cls-2"><path d="M190.63 512.12l-.26-.34a.81.81 0 01.07.22c.04.09.11.09.19.12zM190.11 511.48l-.05-.06-.06-.03.11.09zM189.54 511l.28.26a.71.71 0 00-.28-.26zM189.92 511.45c0-.05 0-.09.08-.06l-.18-.13a.58.58 0 01.1.19zM189.92 511.45v.16a.5.5 0 000-.16zM189.2 511.93c-.07 0 .11-.19 0-.25a8 8 0 01-.78-.44c-.14 0-.15-.38-.29-.42-.31-.13-1.15-.26-.75 0a9.79 9.79 0 011.52.94 8.17 8.17 0 011.27.94 2.49 2.49 0 01.23.37 3.78 3.78 0 00-.26-.54c-.14-.29-.6-.35-.94-.6zM192 514.93l-.15-.18c.09-.37-.15-.66-.33-1l-.05.19c.09.17.16.17.14 0a4.45 4.45 0 00.26 1.13c0-.01.13-.02.13-.14zM191.9 515.31a1.8 1.8 0 01-.08-.21l.1.2z" class="cls-3"/><path d="M188.19 510.23a9.64 9.64 0 00-2.48-1.17c-.08 0-.14.07-.22 0a1 1 0 00-.18-.13l-.39-.07h-.14c-.08 0-.06.06 0 .1a.69.69 0 01.13.11l-.13-.11a.4.4 0 00-.2-.08 1.51 1.51 0 01-.37 0 .94.94 0 01.37 0H184.87a3.46 3.46 0 00-.91 0l-.18.05h-.1a.77.77 0 01-.49.13l-.14.1h-.07a2.14 2.14 0 00-.51.53c0 .16-.06.34-.08.48a1.34 1.34 0 00-.17.1.52.52 0 010 .28l.29-.25c.17-.07-.08-.4.2-.45-.28.05 0 .38-.2.45l-.29.25a1.42 1.42 0 01-.27.67.71.71 0 01.27-.67.52.52 0 000-.28 1.34 1.34 0 01.17-.1c0-.14.05-.32.08-.48A4.32 4.32 0 00182 511a13.13 13.13 0 00-.11 4.28c.16 1.41.4 2.8.7 4.28A7.87 7.87 0 00185 524a5.55 5.55 0 005 1.07 4.3 4.3 0 002.32-1.73 10.44 10.44 0 001.22-2.4 7.43 7.43 0 00.35-2.54 14.58 14.58 0 00-.29-2.45c-.73-1.54-1.55-.44-1.6-.38a2.35 2.35 0 00-.34 1.46 5.45 5.45 0 01-.22 2c.15-.59.3-.37.31.15A2.75 2.75 0 01191 521c-.64.62-1.05 1.3-1.47 1.63a.91.91 0 00-.16.11.79.79 0 00-.16.08 6 6 0 01-.61.13 2.34 2.34 0 01-1.21-.16 4.5 4.5 0 01-1.13-.58 6.89 6.89 0 01-1.83-3.4 24 24 0 01-.89-4.78c-.08-.87-.31-1.63-.35-2.33a2.59 2.59 0 01.39-1.2 1.85 1.85 0 01.32-.48l.31-.12-.32.08a1 1 0 00-.34.47c-.13.3-.19-.36-.07-.53s.26.05.29 0a.18.18 0 00.09-.06 2.16 2.16 0 01.5-.2c.12-.06.1.18.15.16.36 0 .74-.27 1-.14a5.65 5.65 0 01.5.27l.32.14h.24a.53.53 0 010-.28 3.71 3.71 0 01.32.23 3.71 3.71 0 00-.32-.23.53.53 0 000 .28 6.34 6.34 0 011.78.6 3.58 3.58 0 01-.86-.72c.12.12.07.17-.11.09l-.07-.17a1.22 1.22 0 01.82.53l.22.06c.07.09 0 .15 0 .21l.19.12a2.79 2.79 0 00-.35-.58z" class="cls-3"/><path d="M184.55 508.89h.19a4.79 4.79 0 00-.76 0 .83.83 0 00.57 0z" class="cls-3"/></g><g class="cls-2"><path d="M199.22 352.18c-1.39 1.51-2.86 3-4.21 4.53a23.31 23.31 0 012.34-2.08 9.68 9.68 0 001.87-2.45zM191.24 361l-.7.84-.53.78c.41-.51.83-1.05 1.23-1.62zM184.8 369.66c1.16-1.51 2.27-3 3.28-4.39a45.9 45.9 0 00-3.28 4.39zM190.23 363c-.53.43-.85.58-.24-.33-.63.87-1.3 1.7-1.93 2.62a25.07 25.07 0 012.17-2.29zM190.23 363c.51-.4 1.25-1.11 1.53-1.32-.46.39-.98.83-1.53 1.32zM191.19 367.23c-.56.91-1.16.12-2.28 1.93-1.43 2-2.56 4-3.77 5.94s-2.3 3.83-3.53 5.78a15.83 15.83 0 01-2.25 3 14.89 14.89 0 00-2.15 3.1c-.58 1.1-1.28 2.68-2 4.32s-1.21 3.36-1.71 4.7a12.44 12.44 0 00-.73 2.59c0 .24.31-.28 1.11-1.94a161.09 161.09 0 0110.14-18.72c1.23-1.9 2.52-3.84 3.94-5.91a171.51 171.51 0 0114.84-19.41 93.3 93.3 0 012.42-2.44l1.2-1.16a4.55 4.55 0 00.38-.39l.29-.31.57-.62-.77.8c-.12.12-.28.3-.47.47l-.41.38-1.65 1.51c-1.11 1-2.28 2.07-3.43 3.24a34.44 34.44 0 00-4.56 5.65c-1.56 2.26-3.15 4.81-5.18 7.49zM227.84 317.44c-.45 1-1.48 2.85-1.48 2.85a112.43 112.43 0 00-8.82 11.82l1.74-1.46c1.68-2.32 1.66-2.75 0-.85a81.16 81.16 0 0010.18-13.56c-.46.16-.66-.06-1.62 1.2zM231.06 313.36c-.54 1-1.08 1.94-1.63 2.88l.14-.06c.52-1 1.05-2 1.57-2.91z" class="cls-3"/><path d="M173.41 389.41a134.05 134.05 0 00-13.52 38.33 10.17 10.17 0 01-.18 3.08 19.65 19.65 0 00-.75 3l-.34 2.86-.24 2.85c0 .66-.06 1.34 0 2v.06c.07 1.08.23.76.39.1a17.94 17.94 0 01.47-2c-.1.37-.32 1.33-.47 2-.15.9-.27 1.9-.37 3.08 0 1.74.09 3.57.08 5.45a39.12 39.12 0 01-.08-5.45v-3.24-.94a114.54 114.54 0 00-.09 13.1c.1 1 .22 2 .32 2.73.4 3.14 1 6.22.89 8.23.13.76.23 1.54.4 2.31v-.46c0 .35.07.64.1.88.32 1.62.64 3.24 1.06 4.85s.84 3.21 1.31 4.81c.38 1 .86 2 1.31 3s.9 2 1.39 3l.38 2.25a20.93 20.93 0 011.94 3.18c-.46-1.75-.87-3.33-1.21-4.82-.39-2.19-2.67-4.28-2.6-7.05-.07 2.77 2.21 4.86 2.6 7.05.34 1.49.75 3.07 1.21 4.82 1.5 2.75 3.19 6.41 4.55 9.42a27.45 27.45 0 01-4.55-9.42 20.93 20.93 0 00-1.94-3.18l-.38-2.25c-.49-1-.95-2-1.39-3s-.93-2-1.31-3a93.07 93.07 0 007.64 18.25 89.41 89.41 0 0020 24.81 92.27 92.27 0 0027 16.18A105.17 105.17 0 00248.1 543a123.4 123.4 0 0016.31-.1c2.74-.16 5.48-.49 8.24-.83l4.14-.62c1.38-.24 2.78-.54 4.17-.81A91.31 91.31 0 00314 526a123.11 123.11 0 0013.67-11.27A142.92 142.92 0 00339.54 502a184.09 184.09 0 0019-28c2.69-4.85 5.25-9.74 7.6-14.71s4.63-9.95 6.74-15c8.49-20.2 15.37-41 22.21-63 2.59-8.46 5.54-20.76 7.91-33.07s4.24-24.65 5.37-33.11c.78-11.43-.47-14.38-1.72-14.27s-2.71 3.18-2.89 3.7c-2.58 6.68-3.83 12.72-5.29 20.56a303.06 303.06 0 01-7.07 31.05c2.52-9.28 2.38-5.7.79 2.37s-4.91 20.55-8.46 29c-5.18 12.16-9.93 27.21-15.65 42.72a346.26 346.26 0 01-9.39 23.24 185 185 0 01-11.53 21.7c-.52.85-1 1.7-1.58 2.55l-1.65 2.57c-1.08 1.74-2.25 3.47-3.43 5.25s-2.45 3.54-3.73 5.38-2.67 3.65-4.17 5.45a126.63 126.63 0 01-25.9 24.12 81.58 81.58 0 01-31.37 13.17 112.4 112.4 0 01-35.33 1 93.8 93.8 0 01-17.57-4.14 82.52 82.52 0 01-16.67-7.8 108.65 108.65 0 01-15.15-10.96 81.87 81.87 0 01-11.88-12.62c-4.87-6.68-8.25-14.93-10.38-21.25a113.75 113.75 0 01-5.85-27.71 90.27 90.27 0 001.69 13.39 100.09 100.09 0 003.76 13.75c1.22 3.39.52 2.33-.72-.18-.61-1.26-1.29-2.91-1.92-4.53s-1.16-3.23-1.46-4.41c-.68-2-.21-5.4-.71-7.41-.65-4.45-1.36-8.55-1.68-13.43-.23-2.09.73-1.84.66-2.88-.06-6.59-.59-11.86.36-16.06.38-1.58.72-3.08 1.1-4.53s.81-2.82 1.2-4.2c.55-1.72 1-3.45 1.54-5.27l.86-3.54a3.16 3.16 0 01-1.46 1.26c.54-1.7 1.65-4 2.27-5.64-.62 1.67-1.73 3.94-2.27 5.64a3.16 3.16 0 001.46-1.26 130.72 130.72 0 014.43-13.33 143.78 143.78 0 016.16-13.24l-.13.06c-2.78 4.88-5.31 9.69-8.2 14.79 1.2-2.23 1.32-1.83.22.82-.43.61-.9 1.22-1.31 1.83 1.69-4.71 3.61-9.39 6.48-13.23 0 0 .19-.5.47-1.11l.82-1.84c.9-1.31 1.13-1.1 1.52-1.26.51-1 1.1-1.9 1.64-2.86-.4.43-1 1.13-1.63 1.93s-1.28 1.76-1.91 2.63c-1.36 1.74-2.33 3.33-2.33 3.33z" class="cls-3"/><path d="M158.32 444.91v-2.72c-.08 1.83-.17 3.65-.15 5.49s0 3.66.12 5.5a17.49 17.49 0 00.15-3.68c.02-1.43-.08-3-.12-4.59z" class="cls-3"/></g><g class="cls-2"><path d="M207.31 533.87l.15-.7a1.14 1.14 0 01-.31.31c-.15.15.04.25.16.39zM207.6 532.51v-.24zM207.62 531.24a1.42 1.42 0 00-.07.64 1.09 1.09 0 00.07-.64z" class="cls-3"/><path d="M207.29 532.21c.11-.07.23-.09.29 0v-.39a1.23 1.23 0 01-.29.39zM207.29 532.21c-.12 0-.23.16-.3.19a2.2 2.2 0 00.3-.19zM204.82 531.53c-.06-.13.65 0 .52-.26a8 8 0 01-.32-1.64c-.14-.25.69-.55.55-.81-.14-.59-1-2.09-1-1.25 0 1.27.13 2.12.1 3.27.14 1 .34 1.9.44 2.9a2.13 2.13 0 01-.19.76c.17-.31.33-.63.49-1s-.55-1.19-.59-1.97zM205.83 539l-.16-.42c.62-.42.55-1 .48-1.66l-.41.18c0 .33.16.41.37.16a2.86 2.86 0 00-.84 1.83c.2-.01.42.05.56-.09zM205.25 539.46v-.39h-.06v.4z" class="cls-3"/><path d="M207.24 528.53c.17-1.65.22-3.21.33-4.74-.13-.12-.29-.2-.2-.35a1.16 1.16 0 00.26-.36v-.67l-.07-.23c-.09-.12-.2-.08-.3 0a1.84 1.84 0 01-.25.23c.06 0 .15-.16.25-.23a1 1 0 00.19-.37 1.65 1.65 0 01-.06-.63 1 1 0 01.06.63l.11.38.07.1v-1.53a2.38 2.38 0 00-.07-.31c-.11-.36-.22-.72.12-1v-.27l-.06.06.06-.11v-1.16a8.31 8.31 0 01-.49-.72l.32-.3a.75.75 0 01-.4-.38c-.19.24-.41.46-.53.65-.33.3.78.48.14.86.64-.38-.47-.56-.14-.86.12-.19.34-.41.53-.65a1.36 1.36 0 01.14-1.26c.39.42.19.86-.14 1.26a.75.75 0 00.4.38l-.32.3a8.31 8.31 0 00.49.72c0-.76 0-1.54-.12-2.33a26.9 26.9 0 00-.56-3.72l-.43-1.82c-.14-.6-.39-1.19-.59-1.78a36.07 36.07 0 00-1.43-3.52c-.27-.58-.59-1.14-.89-1.73l-.47-.88-.52-.86a46.57 46.57 0 00-5-7 25.44 25.44 0 00-6.49-5.05c-2.33-1.38-4.7-2.64-7.15-4.42a12.53 12.53 0 00-4-1.54 38.68 38.68 0 00-4.22-.66 2.51 2.51 0 00-2.11 2.38 5.46 5.46 0 00.33 1.89 3.31 3.31 0 002.11 2.09 8.56 8.56 0 013.24 1.71c-.92-.69-.44-1 .47-.86a4.26 4.26 0 012.87 2 6.74 6.74 0 004 3.19c1.59.7 3.38 1.31 4.54 2.59.57.62 1.33 1.07 2 1.75 1.63 2 3.25 3.75 4.71 5.72a21 21 0 013.54 6.76 6.68 6.68 0 00.93 1.87 20 20 0 011 1.74 4.35 4.35 0 01.2 1.38 9.45 9.45 0 000 1.29 9 9 0 00.37 1.63 12 12 0 00.46 1.51c-.09-.55-.19-1-.29-1.51s-.26-1-.39-1.58c-.14-.8 1 .45 1.25 1 .2.22-.56.65-.4.87a4.77 4.77 0 00.59 1.51c.17.24-.55.23-.47.35.21.74 1.14 1.32.92 1.82s-.24.7-.36 1a1.67 1.67 0 00-.06.63l.17.42a2.28 2.28 0 01.76-.15c0 .2-.21.48-.26.68.05-.2.22-.48.26-.68a2.28 2.28 0 00-.76.15 17.68 17.68 0 01.84 3.37h.07a2.83 2.83 0 01.61-1.91c-.18.28-.38.23-.39-.1l.38-.23c.15.59.3 1.19-.27 1.69l.2.39c-.11.17-.34.14-.53.16v.39a4.63 4.63 0 00.9-1.04z" class="cls-3"/><path d="M207.49 521.79a2.38 2.38 0 01.07.31l.05-1.28c-.34.24-.23.6-.12.97z" class="cls-3"/></g><g class="cls-2"><path d="M581.45 499l.81-.2a1.77 1.77 0 01-.45 0c-.2-.02-.26.11-.36.2zM583 498.65h.14l.11-.08zM584.37 498.12a3.11 3.11 0 00-.71.23 1.83 1.83 0 00.71-.23zM583.22 498.33c.11.05.17.11 0 .2l.4-.18a1.29 1.29 0 01-.4-.02zM583.22 498.33a.76.76 0 01-.3-.09 1.32 1.32 0 00.3.09zM583.1 496.6c.13-.09.23.38.48.2a9.21 9.21 0 011.72-.86c.25-.19.84.2 1.08 0 .62-.31 2.1-1.44 1.13-1.12l-3.69 1.38c-1 .5-2 1-3.06 1.51a5.86 5.86 0 01-.9.21l1.26-.14c.61-.03 1.12-.78 1.98-1.18zM575.46 500.47l.37-.28a2.82 2.82 0 001.95-.48l-.35-.15c-.37.14-.37.28 0 .28a5.46 5.46 0 00-2.3.37c.07.11.1.26.33.26zM574.7 500.37l.42-.16-.41.19zM587.21 496.85a147.8 147.8 0 015.3-1.56c.11-.12.17-.26.36-.26a1.82 1.82 0 00.45.05l.75-.2.25-.12c.12-.1.06-.16-.05-.2l-.31-.08c.06 0 .21 0 .31.08a1.28 1.28 0 00.44 0 3.19 3.19 0 01.7-.23 1.79 1.79 0 01-.7.23l-.4.19-.11.08 1.72-.45.34-.14a1.41 1.41 0 011.1-.23l.31-.07h-.07.12l1.3-.34c.25-.17.5-.37.77-.53l.35.14a1 1 0 01.41-.38c-.28-.06-.53-.15-.76-.18s-.49.66-1 .34c.48.32.61-.48 1-.34s.48.12.76.18a2.28 2.28 0 011.41-.21 1.55 1.55 0 01-1.41.21 1 1 0 00-.41.38l-.35-.14c-.27.16-.52.36-.77.53l2.58-.69c5.64-1.45 10.71-3.19 16.49-4.94 3.13-1 6.17-1.8 9.16-2.65 6-1.65 10.94-4.34 17.17-5.94a33.17 33.17 0 008.41-4.53 3.57 3.57 0 001-1.73 1.27 1.27 0 000-.33v-.32a.65.65 0 00-.28-.41 4.11 4.11 0 00-1.33-.44 5.11 5.11 0 00-3 .64 15.54 15.54 0 01-4 1.53c2.56-.69-1.16 1.92-3.92 1.84-3.92-.14-8 3.09-12.25 4.28-1.07.28-2.13.77-3.37 1.19-6.56 1.82-12.29 4.57-19.14 6.69a32.91 32.91 0 00-4.72 2.23c-1.09.43-2.35.59-3.25.88a25.74 25.74 0 00-3.73 1.54l3.66-1.42c1-.34-.49.8-1.1 1.13-.25.19-.84-.19-1.09 0a10.3 10.3 0 00-1.71.88c-.24.19-.35-.28-.47-.19-.86.38-1.36 1.17-2 1.22l-1.25.15a4.73 4.73 0 00-.74.19l-.45.26a1 1 0 01.36.42c-.24.05-.6.05-.84.09.24 0 .6 0 .84-.09a1 1 0 00-.36-.42 47.27 47.27 0 01-3.55 1.84 5.55 5.55 0 012.29-.38c-.36 0-.36-.15 0-.29l.35.15a2.94 2.94 0 01-1.94.51l-.38.27c-.22 0-.26-.15-.33-.26l-.43.16a6.84 6.84 0 001.51.19z" class="cls-3"/><path d="M594.74 494.58l-.34.14 1.44-.36c-.32-.15-.71.03-1.1.22z" class="cls-3"/></g></svg>