<svg xmlns="http://www.w3.org/2000/svg" id="Layer_1" x="0" y="0" version="1.1" viewBox="0 0 842 842" xml:space="preserve"><defs/><style>.st1{opacity:.85}.st2{fill:#211f1e}.st3{fill:#1f2020}</style><path fill="#f5d0c6" d="M0-1h842v842H0z"/><g class="st1"><path d="M216 570h-1 1zM215 571h-1 1zM213 571h0zM215 571h-1 1zM215 571zM215 573l-1-1-1 1h-4v1l5-1 3-3 1-1-1 1-1 1v1l-1 1zM220 564l-1 2c1 0 1 0 0 0l1-1 1-1h-1zM221 563v0z" class="st2"/><path d="M210 572l-6-2h-1l-1-1c-1 0-1 0 0 0v0h-1-1 2l-2-1-1-1h-1l-1-1-1-1v-1 1l1 1-1-1v-1l-1-1 1 1v1l1 1-1-2v-1l-3-9v-4l1-1 1-4 4-4h5a49 49 0 0113 8l2 3 1 4-1 4c-1 2 0 2 1 3h1l2-3 1-1v-2-3c0 2 0 1 0 0l-1-3-1-3-1-1v-1l-1-1-3-2-4-2-4-2-4-2h-4l-4 1-3 2-2 3c-2 5-3 9-2 14 0 2 1 5 3 6v1a25 25 0 002 3l1 1 1 1 2 1-2-1-1-1-1-1 2 1 1 1 1 1h1v1h3l1 1h3-1l5 1-3-1c1 0 0 0 0 0h3v0h-1z" class="st2"/><path d="M201 569h1l-2-1 1 1z" class="st2"/></g><path d="M203 565c-4-1-6-4-5-8 0-3 3-3 6-3s7 2 6 6c0 3-4 6-7 5z" class="st3"/><g class="st1"><path d="M206 565zM207 565zM207 565zM207 565zM207 565h-1 1zM206 564h1v-1h1v-1l-1 1-2 1h1zM203 565h0zM203 565z" class="st2"/><path d="M208 564l2-2v-1-1-1-1c0-1 0 0 0 0v-1 0l-1-2h-2a57 57 0 00-6-2l-3 1-1 2-1 2 1 5 2 2 2 1h1v-1l-1-1-1-2v1l-1-2v-2-1-2h4a14 14 0 016 2v1h1l-1 1c0 1 0 0 0 0v2h-1 1l-1 1 1-1h-1l-1 2 1-1v1h-1 1zM210 561v-1 1z" class="st2"/></g><g class="st1"><path d="M340 551l-4 4 2-2 2-2zM332 559l-1 1v1l1-2zM324 566l2-1 2-1v-1l-4 3zM331 561v-1 1l-3 2 3-2zM331 561l2-1-2 1z" class="st2"/><path d="M331 565l-1 1-1 1-3 2-1 1-2 2a73 73 0 01-9 6l-3 1-9 5-2 2 2-1a95 95 0 0025-16c6-5 12-11 17-18l4-5-1 1-2 2-3 4-2 2-1 2-2 1-2 4-4 3zM361 512v3l-2 3-1 4-3 7 2-2c1-3 0-3-1-1 3-5 5-10 6-16l-1 2zM363 507l-1 3 1-3z" class="st2"/><path d="M306 579a125 125 0 01-41 13h-11v1h0-8 5l3-1h1-15l-8-1-2-1v1l-1-1-5-1h-2l-2-1-3-1h-3l-2-2h-2l-2-1 4 3 4 1 4 1-4-1-4-1-4-3h-2l-3-2-4-2 5 2 4 3h2l2 1 2 1h1l2 1h3l-18-7-7-4-3-2-3-3a101 101 0 01-28-35l-2-3-2-4-1-3-2-4a75 75 0 014-62l8-15c6-9 13-18 21-26l22-24c7-8 15-16 21-25a192 192 0 0018-28l3-9 1-9-1-18a81 81 0 00-19-41l-6-7-12-10-11-5c-2-1-3 0-3 1l2 4 8 7a410 410 0 0016 17c4 4 7 9 9 15l-2-5 2 2 1 2 1 2 5 13 1 15v10l-3 9-10 20c-9 13-21 26-32 38a427 427 0 00-41 50 130 130 0 00-14 35 80 80 0 006 49 756 756 0 0014 26 109 109 0 0010 12l2 2 2 2 4 3 4 3 4 2 1 2h1l1 1a136 136 0 0024 11l15 4h15-11l-4-1-15-3h6l5 1 4 1 4 1h14l3 1 16-3 9-1 6-2 3-1h-1l6-2-6 2h1c10-3 18-7 27-13h-1a76 76 0 01-15 8h-3l14-5 3-2 2-1 2-1-2 1-3 1-2 1-2 1z" class="st2"/><path d="M251 593h3-6l-5-1 8 1z" class="st2"/></g><g class="st1"><path d="M624 570l1 1-1-1zM626 572zM628 572h-1 1zM626 572h0zM626 572v-1 1zM627 570v1h5v-1h-4l-3-1-1-1 1 2h2zM620 564l1 1 1 2v-1h-1v-1-1h-1zM620 563l1 1-1-1z" class="st2"/><path d="M631 572l7-1v-1h2l-1-1h2-1l-1 1 2-1 1-1h1v-1l1-1 1-1v-1 1l-1 1 1-1v-1l2-1-2 1v1l-1 1 1-1 1-1c4-6 5-14 1-21l-4-4-6-1-6 2-5 2-5 3-4 4-1 2-1 1v4l2 6 2 2 1-1v-4-1-1-3c0 2-1 1-1 0l1-2 2-1 5-4 7-4 3-1 4 1 3 3c2 3 2 6 2 10l-1 5-1 1v1l-2 1v1h-1l-2 2 2-2h1v-1 2h-1c-1 0 0 0 0 0l-1 1-1 1c-1 1 0-1 0 0l-1 1h-1l-1 1h-2l1 1h-1 1l-1-1-4 2h3v-1 1h-2-1c-1 0 0 0 0 0h1z" class="st2"/><path d="M640 569v1l1-1h-1z" class="st2"/></g><path d="M639 565c3-1 5-4 5-8-1-3-4-3-7-3s-7 2-6 6c1 3 4 6 8 5z" class="st3"/><g class="st1"><path d="M636 565l-1-1 1 1zM635 564zM634 564h0zM635 564zM635 564zM634 565l-1-1c0 1 0 0 0 0h-1l2 1h2-1-1zM638 565h-1 1zM639 565h-1 1zM633 563l-1-2h-1v-1-1-1c0-1 0 0 0 0-1 0 0 0 0 0s-1 0 0 0v-1 0l3-2h8v1l1 2-2 3-1 1-1 1-1 1 1 1h1l2-1v-1l2-1 1-3v-2l-1-2-1-2-3-1-3 1-5 1-2 2v2 3l1 1v1h1v-1l-1 1 2 1-1-1 1 1v-1zM631 561v-1 1z" class="st2"/></g><g class="st1"><path d="M499 552l4 5-2-2-2-3zM507 561l1 1h1l-2-1zM515 568l-2-2-1-1h-1l4 3zM509 562c0 1 1 1 0 0l2 3-2-3zM509 562zM513 562l1 1 1 1 3 2 1 1 2 1 5 3 3 3 3 2a57 57 0 0012 4l-2-1a118 118 0 01-46-35l1 1 1 2 3 4 2 2 2 2 1 1 4 3 3 3zM479 512l1 3 1 4a36 36 0 004 10l-1-2v-1l-5-16v2zM478 507l1 3-1-3z" class="st2"/><path d="M535 580a132 132 0 0041 12l3 1h8c1 0 1 0 0 0l-2-1 2 1h8-9 16l8-1h2l5-1 3-1h2l3-1 2-1 1-1h2l2-1 1-1-4 1-4 2 4-2 4-1 3-1 2-1 5-2a29 29 0 01-10 4l-2 1-1 1h-2l-2 1-1 1-3 1a92 92 0 0025-11l3-2 4-3 11-10c7-8 14-16 18-26l2-3 2-3 2-4 1-4 5-15c2-11 2-22-1-33a102 102 0 00-14-32l-20-29c-14-17-30-32-43-49l-9-13-7-13a45 45 0 01-2-15 81 81 0 016-29 84 84 0 0129-37l8-7 2-3h-5l-9 4c-4 2-7 4-9 7a101 101 0 00-18 20l-1 3-1 2-1 2a142 142 0 00-10 35v3h-1v3l2 12c3 8 7 16 12 23l16 20 17 19 17 19a264 264 0 0129 45l5 16a73 73 0 01-1 34 82 82 0 01-7 17l-10 15-6 8-3 4-1 1-2 2-3 3-3 3-3 3-2 1-1 1h-1c-3 3-7 5-10 6l-6 2-5 2-14 4-7 1h-7 9l2-1h3l13-4c4-1 3 0 0 1l-2 1-2 1-5 1-3 1h-4l-7 1h-9l-16-1-9-2-5-1-4-1 2 2-6-3 6 3-2-2c-9-2-18-5-26-10v1l7 4 8 3c-3-1-2-1 0 0l2 1c-4-1-9-3-13-6l-3-1-1-1-3-2 2 1 2 2 3 2 1 1zM590 593h-3 11-8z" class="st2"/></g></svg>