<svg xmlns="http://www.w3.org/2000/svg" id="Layer_1" x="0" y="0" version="1.1" viewBox="0 0 841.9 841.9" xml:space="preserve"><defs/><style>.st1{opacity:.85}.st2{fill:#211f1e}.st4{fill:#060707}</style><path fill="#f3d8c7" d="M0 0h841.9v841.9H0z"/><g class="st1"><path d="M569.7 496.2l.8.6c-.1-.1-.2-.3-.3-.4-.2-.2-.3-.2-.5-.2zM571.3 497.3l.2.1h.2l-.4-.1zM572.9 498.1c-.3-.1-.5-.3-.8-.4.3.2.5.3.8.4z" class="st2"/><path d="M571.7 497.3c.1.1.1.2-.1.2l.5.2c-.1-.1-.3-.2-.4-.4zM571.7 497.3c-.1-.1-.2-.2-.2-.3.1.1.2.2.2.3zM572.9 496c.2 0-.1.4.3.5s.7.2 1.1.2c.3 0 .7.1 1 .2.3 0 .7.6 1 .6.5 0 1 0 1.5-.1.4-.1.6-.2.1-.3-1.4-.1-2.8-.4-4.1-.9-1.2-.3-2.4-.8-3.5-1.4-.3-.2-.5-.5-.8-.7.3.4.6.7.9 1.1.3.2.6.4 1 .5.6 0 1.1.1 1.5.3zM565.2 490.2l.4.4c0 .4.2.8.4 1.1.2.4.5.7.8.9v-.4c-.3-.4-.4-.3-.3.1-.3-.9-.7-1.7-1.1-2.5-.1.1-.2.2-.2.4zM565.1 489.3l.3.5-.3-.5z" class="st2"/><path d="M576.6 498.8c2.2.4 4.4.4 6.6 0 .1-.1.2-.3.5-.3h.5l.9-.3.3-.1c.1-.1.1-.2-.1-.2h-.4.9c.2-.2.5-.3.8-.4-.2.2-.5.3-.8.4l-.5.2-.1.1c.7-.2 1.4-.5 2-.8.1-.1.3-.2.4-.3.3-.3.7-.6 1.2-.6l.3-.2h-.1.1c.5-.3.9-.6 1.3-1l.6-.9.4-.1c0-.2.1-.4.2-.6-.3.1-.6.2-.8.3-.4.1-.2.9-.8.9.6 0 .4-.8.8-.9.2-.1.5-.2.8-.3.3-.5.7-.9 1.2-1.2-.2.6-.6 1-1.2 1.2-.1.2-.2.4-.2.6l-.4.1-.6.9c.8-.7 1.6-1.5 2.2-2.4 2.2-2.8 3.4-6.3 3.3-9.8 0-3.7-1.2-7.2-3.3-10.2-2.4-3.3-5.8-5.8-9.8-6.9-3.9-1.1-8-.6-11.6 1.2-3.7 1.9-6.7 4.8-8.8 8.3-1 1.9-1.6 4-1.7 6.2-.1 2.1.1 4.2.8 6.3.3.7.8 1.3 1.4 1.7.3.2.7.2 1 .1.4-.3.7-.6.9-1.1.2-.6.3-1.2.3-1.8v-1.7c-.2-1.6 0-3.2.6-4.6-.5 1.3-.7.8-.6-.4.2-1.5 1-2.9 2.1-3.9 1.7-1.2 3-2.7 4.8-4 1.8-1.4 3.9-2.2 6.2-2.2 1.2 0 2.3.1 3.5.3 3.1.9 5.9 2.8 7.8 5.4 2.1 2.7 2.9 6.2 2.4 9.5-.2 1.7-.5 3.5-1.1 5.1-.6 1-1.4 1.9-2.2 2.6-.5.5-1.1 1-1.6 1.5s-1 .9-1.6 1.2c1.2-.7 2.2-1.5 3.1-2.5.4-.4.3-.1.2.3-.1.2-.2.5-.3.7-.2.2-.3.4-.4.6s-.9.1-1.1.4c-.3.2-.5.4-.8.6l-.8.7c-.2.2-.4-.2-.5-.1-.4.2-.8.5-1.1.8-.3.2-.6.4-1 .5h-2.2l-.5.1c.1.1.2.3.3.5-.3 0-.7-.1-.9-.1.3 0 .7.1.9.1 0-.2-.1-.4-.3-.5-1.5.4-3 .4-4.5.2.9.2 1.7.4 2.6.8-.4-.1-.3-.3.1-.3l.3.2c-.4.1-.8.1-1.2 0-.4 0-.8-.2-1.1-.4h-.5c-.2-.1-.2-.3-.2-.4s-.3 0-.5-.1c.6.4 1.1.8 1.6 1z" class="st2"/><path d="M585.8 497.9l-.4.2c.6-.2 1.1-.4 1.7-.7-.5 0-.9.2-1.3.5z" class="st2"/></g><circle cx="580.3" cy="484.5" r="5.6" fill="#1f2020"/><g class="st1"><path d="M583.9 488.4l-.3.2h.2c.1-.1.1-.2.1-.2zM583.4 488.8h-.1zM582.9 489.1c.1 0 .2-.1.2-.2 0 .1-.1.1-.2.2zM583.3 488.9l-.2.1c.1-.1.2-.1.2-.1zM583.3 488.9zM583.7 489.7c0 .1-.2-.1-.2 0-.2.2-.4.4-.7.6-.1.1-.4-.1-.5 0s-1 .6-.5.5c.6-.2 1.2-.4 1.7-.8.4-.3.8-.7 1.1-1.2l.3-.3c-.2.1-.3.2-.5.3s-.4.6-.7.9zM585.4 486.4v.2c-.3.2-.3.5-.4.7h.2c.1-.1 0-.2-.1-.1.3-.2.5-.5.5-.8-.1 0-.1-.1-.2 0zM585.6 486.2v.2-.2z" class="st2"/><path d="M581.8 489.8c-.7.2-1.5.3-2.3.1-.1 0-.1.1-.2 0l-.2-.1c-.1 0-.2-.1-.3-.1h-.1c-.1 0-.1 0 0 .1l.1.1-.1-.1s-.1-.1-.2-.1-.2-.1-.3-.1c.1 0 .2 0 .3.1h.2c-.2-.1-.5-.2-.7-.3h-.2c-.2 0-.3-.1-.4-.2l-.1-.1c-.2-.1-.3-.2-.4-.3-.1 0-.2-.1-.4-.1v-.2c-.1 0-.2 0-.2-.1 0 .1 0 .2.1.4 0 .2.4 0 .3.3 0-.3-.3-.1-.3-.3 0-.1-.1-.2-.1-.4-.2-.1-.3-.3-.3-.5.2.1.3.3.3.5.1 0 .1.1.2.1v.2c.1 0 .2.1.4.1-.3-.2-.5-.5-.8-.8a5.26 5.26 0 01-.3-6.3c.7-1 1.7-1.7 2.9-1.9 1-.2 2.1-.1 3.1.3s1.7 1.2 2 2.2c.1.4.3.9.4 1.4.1.5.1.9 0 1.4 0 .4.3.7.7.8.2.1.4.1.6 0 .5-.2.8-.7.8-1.2.1-.7.1-1.4.1-2.1 0 .7-.2.5-.3 0-.2-.6-.4-1.3-.5-1.9-.2-1.1-1-2-2.1-2.5s-2.3-.8-3.5-.8c-.6 0-1.3.1-1.9.3-1.8.4-3.3 1.6-4.2 3.2-.9 1.6-1.1 3.5-.6 5.3.3.9.8 1.6 1.5 2.2.3.5.7.9 1.1 1.3.5.4 1.2.7 1.8.8-.6-.2-1.2-.5-1.8-.8-.4-.3.5 0 .8.1.2 0 .2.4.4.4.3.1.6.2.9.2.2 0 0 .2.1.2.5.1.8-.1 1.1 0s.4.1.6.2h.4l.2-.1c-.1-.1-.1-.2-.1-.2.1 0 .3.1.4.1-.1 0-.3 0-.4-.1 0 .1.1.2.1.2.6-.2 1.1-.4 1.7-.7-.3.2-.7.2-1 .1.2 0 .2.1 0 .1l-.2-.1c.3-.1.5-.1.8-.1l.2-.1c.1 0 .1.1.2.1l.2-.1c0-.1-.2-.1-.5-.1z" class="st2"/><path d="M578.6 489.8h.2c-.2-.1-.4-.2-.6-.2 0 .1.2.1.4.2z" class="st2"/></g><g class="st1"><path d="M453.7 432.8l1.2 1.9 1.2 1.9c-.4-.6-.7-1.3-1-2-.3-.7-.8-1.3-1.4-1.8zM458.4 440l.4.7.5.5-.9-1.2zM463.1 446.1c-.8-1.1-1.6-2.2-2.4-3.1.8 1.1 1.6 2.1 2.4 3.1zM459.7 441c.2.5.2.8-.4.2l1.5 1.8c-.4-.6-.8-1.3-1.1-2zM459.7 441c-.1-.5-.5-1.1-.5-1.4.1.5.3.9.5 1.4zM463.6 440.6c.5.6-.3 1 .8 2.1l3.4 3.8c1.1 1.2 2.2 2.4 3.3 3.7 1.1 1 1.8 3.6 3 4.6 1.7 1.6 3.5 3.2 5.3 4.7 1.7 1.2 2.5 1.7.7-.2-4.8-4.9-9.3-10-13.6-15.4-1.9-2.2-3.8-4.4-5.6-6.8-.9-1.1-1.8-2.3-2.7-3.5l-2.7-3.6c-.9-1.4-1.7-2.8-2.5-4.2l3.1 5.8c.9 1.5 2 2.9 3.2 4.1 1.3 1.4 2.7 3 4.3 4.9zM438.2 404l1.3 1.9c.9 3.4 2.9 6.5 4.8 9.5l-.3-1.6c-1-1.8-1.4-1.9-.7-.2-1.5-3.8-3.2-7.6-5-11.2-.2.4-.5.5-.1 1.6zM437.1 400.4l1.1 2.1v-.1c-.3-.8-.7-1.4-1.1-2z" class="st2"/><path d="M474.2 458.3c6.5 7.3 13.6 14.1 21.1 20.4.7.2 1.4.6 1.9 1.1.5.6 1 1.1 1.6 1.6l3.3 2.5 1.2.8c.7.4.6.1.3-.3-.4-.4-.7-.7-1-1.1.2.2.7.7 1 1.1.5.5 1.1 1 1.7 1.4 1.1.6 2.2 1.3 3.3 2.1-1.2-.6-2.3-1.3-3.3-2.1-.7-.4-1.4-.8-2-1.2l-.6-.3c1.3 1 2.6 1.8 3.9 2.7s2.6 1.8 4 2.6l1.7.9c1 .5 2 1 2.9 1.5.8.4 1.5.9 2.2 1.5l1.5.8-.2-.2c.2.1.4.3.5.4 1 .6 2.1 1.1 3.2 1.6l3.2 1.6c1.5.5 3.1.8 4.6 1.3l1.3 1c.9.1 1.8.2 2.7.4-1.1-.7-2.1-1.4-3-2-1.3-1-3.7-.4-5-2 1.4 1.6 3.8 1 5 2 .9.6 1.9 1.3 3 2 1.2.3 2.4.7 3.5 1.2 1.2.4 2.4 1 3.5 1.5-1.3-.2-2.7-.5-3.9-1.1-1.1-.5-2.1-1-3.1-1.7-.9-.2-1.8-.4-2.7-.4l-1.3-1c-1.5-.5-3.1-.8-4.6-1.3 2.1 1 4.3 1.8 6.5 2.8 2.2.8 4.5 1.7 6.8 2.4 14.5 4.8 29.8 6.7 45.1 5.7 15.6-1 30.9-4.5 45.3-10.4 15.9-6.3 30.7-15.1 43.9-26 12.8-10.7 23.2-23.4 30-38.3 1.7-3.8 3.1-7.7 4.2-11.7 1.1-4.1 1.8-8.3 2-12.6 0-1.1.1-2.2.1-3.3s-.1-2.2-.1-3.3-.2-2.2-.4-3.3c0-.2-.1-.6-.1-.8v-.5-1.1c.1-1.8.2-3.6.5-5.3.3-1.9.7-3.8 1.1-5.7 1.3-5.9 3.2-14.6 5.2-23.2s4.1-17.2 5.6-23c1.4-8 .6-10.3-.7-10.5s-2.9 1.7-3.2 2.1c-3 4.4-4.6 8.6-6.3 14.1s-3.4 12.4-6.7 22.2c2.1-6.7 2.1-4.1.9 1.8s-3.3 14.9-5.1 21.7c-.4 1.3-.6 2.6-.9 3.9-.3 1.5-.3 3.1-.2 4.6 0 .4.1 1 .1 1.2v.9c0 .6.1 1.2.1 1.8v3.6c-.2 5.3-1 10.5-2.5 15.5-3.3 11-9.1 21.1-16.8 29.6-4 4.6-8.3 8.9-12.9 13-6.6 5.5-13.6 10.5-21 14.9-7.3 4.4-14.9 8.3-22.8 11.5-15.8 6.4-33 10.3-51.3 9.7-9.7-.3-18.2-.7-26.3-2.3-5.6-1.5-11-3.4-16.3-5.8-7.1-3-13-5.9-18.7-8.8 1.5.9 3 1.7 4.4 2.5s2.8 1.5 4.2 2.1c2.8 1.4 5.9 2.7 9.5 4.2 2.5 1 1.5.9-.5.5-2.3-.6-4.5-1.3-6.7-2.1-1.5-.5-3-2.5-4.5-3-1.4-.8-2.8-1.5-4.3-2.2l-2.2-1-2.3-1.2c-1.4-.6-.7-1.4-1.4-1.7l-1.5-.9c-.5-.3-1-.6-1.5-.8-1-.5-1.9-1-2.7-1.4-1.6-.7-3-1.7-4.4-2.8l-2.5-2.3c-.8-.7-1.5-1.5-2.2-2.2-1-.9-1.9-1.8-3-2.7-.7-.5-1.4-1.1-2.1-1.6.2.5.3 1 .2 1.6-.9-.9-2.1-2.4-3-3.3.9.9 2 2.3 3 3.3.1-.5.1-1.1-.2-1.6l-3.9-3.1a123 123 0 01-3.9-3.5c-.6-.6-1.3-1.2-2-1.8s-1.2-1.2-1.9-1.9L472 454v.1c2.7 3 5.3 6.1 7.8 9.4-1.1-1.5-.8-1.5.7 0l.8 1.5c-1.3-1.2-2.7-2.4-3.9-3.7a25.9 25.9 0 01-3.2-4.2l-1.8-1.5c-.6-.9-.4-1.1-.4-1.4l-1.6-1.8c.2.4.5 1 .9 1.6s.8 1.3 1.3 2l1.6 2.3z" class="st2"/><path d="M505.4 485.9l-1.7-1 3.3 2.2c1.1.7 2.2 1.5 3.3 2.2-1.5-1.3-3.1-2.5-4.9-3.4z" class="st2"/></g><g class="st1"><path d="M342.4 416h-2.1c.4.1.7.2 1 .3.5.1.8-.2 1.1-.3zM338.4 416h-.4l-.3.1.7-.1zM334.9 416.3c.6 0 1.2 0 1.8-.1-.6-.1-1.3 0-1.8.1zM337.7 416.5c-.2-.1-.3-.3 0-.4l-1.1.2c.4-.1.8 0 1.1.2zM337.7 416.5c.2.1.6.2.7.3-.2-.2-.5-.3-.7-.3zM336.9 419.9c-.4.1-.3-.8-1-.6-1.5.4-3.1.7-4.7.8-.7.2-1.9-.8-2.6-.6-1.7.3-5.9 1.7-3.4 1.6 3.8-.2 6.3-.6 9.7-.8 2.8-.5 5.4-1 8.3-1.4.8-.1 1.5-.1 2.3 0-1-.1-2-.2-3.1-.4-1.5-.2-3.2 1.1-5.5 1.4zM357.6 416.1l-1.1.4c-1.6-.5-3.4-.5-5 0l.8.5c1-.1 1.1-.4.2-.5 1.9.5 3.8.6 5.7.4-.1-.3 0-.6-.6-.8zM359.4 416.7l-1.1.1v.1l1.1-.2zM327.2 417.4c-4.8.2-9.3.3-13.7.3-.3.2-.6.4-1 .3l-1-.3h-2l-.7.1c-.4.1-.2.3 0 .4.2.1.5.2.7.3-.1-.1-.5-.2-.7-.3-.3-.1-.7-.2-1-.2-.6.1-1.3.1-1.9.1.6-.1 1.2-.2 1.8-.1l1.1-.2.3-.1h-4.4l-.9.1c-.9.3-1.9.2-2.8-.1h-.8l.2.1c-.1 0-.2 0-.3-.1h-3.3c-.7.2-1.5.5-2.2.6l-.8-.5c-.4.3-.8.5-1.2.5.6.3 1.1.6 1.7.8.8.5 1.6-1 2.5-.1-.9-.9-1.8.6-2.5.1-.5-.2-1.1-.5-1.7-.8-1.2.2-2.4.1-3.5-.4 1.2-.3 2.4-.2 3.5.4.4-.1.9-.2 1.2-.5l.8.5 2.2-.6h-6.6c-7.2-.1-14.1 0-21.1.1s-14 .3-21.5.4c-8.1.1-15.9-.1-23.5-.3-15.2-.4-29 1.5-44.5.1-6-.5-16.9.8-22.7 1.6a9.5 9.5 0 00-3.8 2.1c-.6.7-1 1.5-.7 2.1.5.9 1.2 1.6 2 2.1 2.2 1.2 4.8 1.7 7.3 1.5 3.6-.2 7.2-.1 10.7.4-6.5-.7 4.6-2.6 10.8-.6 9 3.1 21.4-.5 32.4-.1 2.7.1 5.6-.2 8.9-.3 16.9.5 32.6-1.6 50.4-2 4.7-.2 8.8-1.2 12.8-1.8 2.9-.3 6 .1 8.4 0 3.3-.1 6.6-.5 9.9-1.1-3.4.3-5.9.6-9.7.9-2.5.1 1.7-1.3 3.4-1.6.7-.2 1.9.8 2.6.6 1.6-.2 3.1-.4 4.7-.8.7-.2.7.7 1 .6 2.3-.3 4-1.6 5.5-1.3 1.1.1 2.1.2 3.1.4h1.9l1.2-.3c-.3-.3-.5-.6-.6-1 .6 0 1.5.2 2.1.2-.6 0-1.5-.2-2.1-.2.1.4.3.7.6 1 3-.6 6.5-1.3 9.7-1.8v-.1c-1.9.2-3.8 0-5.7-.4.9.2.8.5-.2.5l-.8-.5c1.6-.5 3.4-.5 5 0l1.1-.4c.5.1.5.4.6.7l1.1-.1c-1-.4-2.1-.7-3.3-.9z" class="st4"/><path d="M307.8 417.9l.9-.1H305c.9.3 1.9.4 2.8.1z" class="st4"/></g></svg>