<svg xmlns="http://www.w3.org/2000/svg" id="Layer_1" x="0" y="0" version="1.1" viewBox="0 0 842 842" xml:space="preserve"><defs/><style>.st1{opacity:.85}.st2{fill:#211f1e}.st3{fill:#1f2020}</style><path fill="#fde8ea" d="M0-2h842v842H0z"/><g class="st1"><path d="M271 498v0zM270 499v1-1zM268 500h0zM270 500s-1 0 0 0h-1 1zM270 500zM270 502v-1l-1 1-2 1h-1-2v1l5-2 3-3 1-1-1 1-1 1-1 2zM276 493v1l-1 1v0l1-2zM277 493h-1 1z" class="st2"/><path d="M265 502h-7v-1h-1c-1 0-1 0 0 0v1l-1-1h-1 2l-2-1-2-1-1-1-1-1h-1v1l1 1-1-1v-1l-1-2 1 2h1l1 1-2-2a16 16 0 011-19l8-5 10 2 3 3 2 4 1 4-1 5 1 2h2l1-1 1-2 1-6c-1 2-1 1-1 0l-1-5-5-7-9-3h-5c-5 1-9 4-12 8s-4 9-3 13c0 3 1 5 3 7l3 4 2 1 2 1-4-2v-1l1 1h1l1 1 1 1h1v1h5l1 1v-1h0l5-1h-3v1-1h4-2z" class="st2"/><path d="M256 501h1l-2-1 1 1z" class="st2"/></g><circle cx="262" cy="488" r="6" class="st3"/><g class="st1"><path d="M258 492zM258 493zM259 493h-1 1zM258 493zM258 493zM259 492h1v0h-1-1v-1 1h1zM256 490l1 1h-1v-1zM256 490z" class="st2"/><path d="M260 493h4-1 2v-1l1-1v1h-1 1c2-2 2-5 1-8a6 6 0 00-8-3l-4 3-1 2v3h2v-1l1-2c0 1-1 0 0 0l1-1 1-1 3-1h1l2 2 1 4-1 1-1 1-1 1 1-1v1h-1l-1 1v-1h-1v0h-2l1 1h-1l1-1h-1l1 1zM263 493h0z" class="st2"/></g><g class="st1"><path d="M387 434l-2 2-1 2 2-2 1-2zM382 441l-1 1v1l1-2zM377 448l3-4-3 4zM381 443l-1 2 1-2zM381 443l1-1-1 1zM383 447l-2 1-3 4-3 4c0 2-3 3-4 4l-4 6a181 181 0 0018-24l3-3 2-4 3-5-4 6-3 5-3 6zM403 406l-1 2-5 10 1-2c1-1 1-2 0 0 3-3 5-7 6-11l-1 1zM405 403l-1 2 1-2zM368 461a156 156 0 01-23 22l-2 1-3 2-1 1v1l1-1-1 1-2 1-4 2 4-2 2-2-4 2-4 3-2 1-2 1-3 1-1 1h-1l-3 2-3 1-4 2-2 1-2 1 3-1 6-2-6 2-3 1a21 21 0 01-7 2l3-2h4l2-1 2-1 4-2-7 3-6 2a128 128 0 01-89-6 159 159 0 01-41-28l-16-17-3-5-3-4a79 79 0 01-9-21l-1-11v-5l1-3v-1-2-7a142 142 0 00-5-31l-6-24c-3-7-5-9-6-8l-2 3 2 15 4 23c-1-7 1-4 2 1s3 15 2 22v3l-1 3v2l-1 2-1 5c0 6 1 13 3 19l9 18a169 169 0 0024 30 137 137 0 0048 29c18 7 37 10 56 10 10-1 20-3 28-6l18-5 19-11-4 3-5 2-10 5c-2 1-2 1 0 0l7-4 5-2 4-3 2-2 2-1 3-1 1-1 1-1 3-2 4-4 3-2 2-2 3-3 2-2h-2l4-3-4 3h2l3-4 4-4 2-2 1-2 4-4h-1l-8 9c1-1 1-1 0 0l-2 1 4-4 4-3 1-2 1-1 2-2-2 1-1 2-2 2z" class="st2"/><path d="M337 489l1-1-3 2-4 2 6-3z" class="st2"/></g><g class="st1"><path d="M570 500h1-1zM571 501h1-1zM573 501h-1 1zM572 501zM572 501v-1 1zM573 499v1h2l1 1h2v-1l-8-2v-1 1l1 1h2zM565 494h1v1l1 1v-1l-1 1-1-3v1zM565 493z" class="st2"/><path d="M577 502h8l1-1h-1 2-2v1l2-1 1-1h1l1-1 1-1 1-1h-1l-1 1 1-1h1l1-1-1 1-1 1-1 1 3-3c2-3 3-6 3-10 0-3-1-7-3-10-3-3-6-6-10-7s-8-1-12 1c-3 2-6 5-8 9l-2 6 1 6 1 2h1l1-1v-2-2l1-4c-1 1-1 1-1-1l2-4 5-3 6-3 4 1c3 1 6 2 8 5s3 6 2 10l-1 5-2 2-2 2-1 1 3-3v1l-1 1h-1l-1 1-1 1c0 1 0 0 0 0h-1l-1 1h-3l1 1h-1 1l-1-1h-4l2 1h1-3v-1h-1l2 1zM586 501h0z" class="st2"/></g><circle cx="580" cy="488" r="6" class="st3"/><g class="st1"><path d="M584 492zM584 492h-1zM583 492zM584 492c-1 0-1 0 0 0h-1 1zM584 492zM584 493l-1 1h-1s-1 0 0 0l2-1 1-1h-1v1zM586 490l-1 1v-1h1zM586 489v0z" class="st2"/><path d="M582 493h-2-1-1 0v-1h-1-1 0v-1 1h1l-1-1v-6l3-2h3l2 3v2l1 1h1l1-1v-2h-1v-2l-2-3h-4-2l-4 3v6l1 2 1 1 2 1-2-1h1v1h4l1-1h-1v1-1h2-1zM579 493h-1 1z" class="st2"/></g><g class="st1"><path d="M453 436l1 2 2 2-1-2-2-2zM458 443v1h1l-1-1zM463 449zM459 444c0 1 0 1 0 0l1 2-1-2zM459 444v-1 1zM463 444l1 2 3 4 3 3 4 5 5 5c2 1 2 1 1-1l-14-15-6-7-3-3-2-4-3-4a186 186 0 007 10l4 5zM438 407l1 2 5 9-1-1v-1l-5-11v2zM436 403l1 2h1l-2-2z" class="st2"/><path d="M474 461a188 188 0 0024 24l4 2 1 1c1 0 1 0 0 0l-1-1 1 1 2 1 3 2-3-2-2-1h-1l4 2 4 3 2 1 3 1 2 2 2 1-1-1 1 1 3 1 3 2 5 1 1 1 3 1-3-2c-1-1-4 0-5-2 1 2 4 1 5 2l3 2 3 1 4 2-4-1-3-2-3-1-1-1-5-1 7 3 7 2c14 5 30 7 45 6s31-4 45-10c17-7 31-16 45-26a112 112 0 0034-51l2-12v-4-3-3-2-1-5l1-6 5-23 6-24c2-8 1-10-1-10s-2 2-3 2c-3 4-4 9-6 14l-7 23a280 280 0 01-4 24l-1 3v12a79 79 0 01-19 45l-13 13a176 176 0 01-45 27c-15 6-33 10-51 10l-27-3-16-5-19-9 5 2 4 2a136 136 0 009 5l-7-2-4-3-4-2-3-1-2-2-1-1-2-1-1-1-3-1-5-3-2-3-2-2-3-2-2-2v2l-3-4 3 4v-2l-4-3-4-3-2-2-2-2-3-4 7 10c-1-2 0-2 1 0l1 1-4-4-3-4-2-1-1-2-1-2 1 2 1 2 2 2z" class="st2"/><path d="M505 489l-2-1 4 2 3 3-5-4z" class="st2"/></g></svg>