<svg xmlns="http://www.w3.org/2000/svg" id="Layer_1" x="0" y="0" version="1.1" viewBox="0 0 842 842" xml:space="preserve"><defs/><style>.st1{opacity:.85}.st2{fill:#161315}.st3{fill:#211f1e}</style><path fill="#dbb0a9" d="M0 0h842v842H0z"/><g class="st1"><path d="M712 440l-1 3-1 2 2-2v-3zM708 449l-1 1 1-1zM704 456l2-4-2 4zM708 451l-1-1-1 2 2-1zM708 451l1-2-1 2z" class="st2"/><path d="M709 454l-2 2-2 5c0 2-3 3-4 5l-4 4-3 3-2 4c-2 1-2 2 0 0a123 123 0 0012-14l1-2 2-3 5-9 2-4 1-3 1-2 2-6-1 4-2 3-2 6-4 7zM721 405l1 2v1l-1 6-1 6 1-2c0-2 0-3-1-1l1-3 1-3v-4-3l-1 1zM722 401v3-3z" class="st2"/><path d="M693 471l-3 3-3 3-2 2-1 1-3 3-4 2-3 3-3 2-2 1-1 1-2 2-3 1-4 2-1 1v1l2-1-2 1-2 1-4 2 4-2 2-2h1l-5 2c-2 0-3 2-5 3l-2 1-6 2-2 1h1-1l-8 3-4 2h-2l-3 2 4-1 6-2-6 2-4 1-8 2 8-2 3-2h2l4-2-7 2-8 3a212 212 0 01-62 6l-13-2a134 134 0 01-66-46 302 302 0 01-50-92l-4-12-4-14-4-26-3-8c0-2-1-2-2-2l-2 3-1 17c0 6 3 15 5 26l-1-4 2 6 7 24c2 11 7 23 14 35a594 594 0 0036 53 165 165 0 0048 39 103 103 0 0039 11h9l16-1c12-1 22-4 31-6l11-3 9-3c8-3 15-6 22-11l-10 6-11 5c-3 1-2 0 0-1l7-4 6-2 5-3 3-1 2-2h3l11-8 6-4 4-3 2-2h-2l2-2 2-1-2 1-2 2h2l16-18a56 56 0 01-10 10c2-2 2-1 0 0l-2 1 5-4 4-4 2-2 1-1 2-2-4 3-2 1v1zM656 500l2-1-4 2-4 2 6-3z" class="st2"/></g><g class="st1"><path d="M585 502h-2 2zM582 503h-1 1zM579 504l1-1-1 1zM581 503h-1 1zM581 503h1-1zM581 505h-1l-4 1-2 1-3 1 8-2 7-3 1-1-2 1-4 2zM594 494l-1 1-2 3v-1l3-3zM594 493v1-1zM573 506a37 37 0 01-12 0v-1h-3 0l-2-1 2 1h1l-4-1-2-1-1-1-2-1-2-1v-1h-1l1 1 2 1-2-1-1-1v-1l-1-1 1 2h1v1l2 1-1-1h-1v-1l-1-1-1-1-2-8v-8l2-8 5-6 8-6c5-2 11-4 17-4l7 2c3 2 5 3 6 6l4 7 1 8-1 8v4h2l1-1 1-2v-1l1-2v-9c0 3 0 2 0 0l-2-9-1-3v-1l-1-2-2-3-2-1-1-1-2-1-2-1a27 27 0 00-19-1 36 36 0 00-18 11l-2 2-2 2-1 3-1 3-2 11 1 6a29 29 0 002 5 27 27 0 003 4l2 2h1l1 1 1 1h1l4 1-4-1h-1l-1-1-2-1c-1-1-1-1 0 0h1l2 1 2 1 3 1 1 1h10l8-1h-5c1 0 1 0 0 0h-1 4l1-1 1 1 1-1h-2l-1 1zM558 505l-3-1 3 1z" class="st3"/></g><circle cx="571" cy="482" r="9" fill="#1f2020"/><g class="st1"><path d="M565 488l1 1h-1v-1zM566 489zM567 490l-1-1 1 1zM566 489zM566 489zM567 489h1l1 1 1-1h-3l-2-1v-1 1l2 1zM563 485l1 1-1-1zM563 484v0z" class="st3"/><path d="M569 490h6l1-1h1v-1h1-1s0 1 0 0h1l1-1-1 1h-1v1l1-1 3-6c0-2 0-4-2-5a10 10 0 00-11-4c-2 0-4 2-6 4l-1 3v3l1 1h1v-1-1l1-2-1-1 2-2 3-2 4-1 2 1 4 3 1 6-1 2-2 2-2 1 2-1v1h-1-1l-2 1h-3 0-1 1zM574 490h0z" class="st3"/></g><g class="st1"><path d="M134 382l2 1-1-1h-1zM138 384zM141 385h-2 2zM139 384h-1l1 1v-1zM139 384l-1-1 1 1zM141 381l1 1 4 2 2 1h4l-9-3a74 74 0 01-10-4l3 2 5 1zM121 373l1 1 4 3v-1h-1l-4-4v1zM120 372h1-1zM149 388l13 5h1l2 1h1v-1 1h3-3l4 1h1l3 1h1l3 1h4l-1-1h-3 3l1 1 4 1-4-1h-4l7 1 2 1h3l5 1h6l5 1h11l11-1a355 355 0 0046-7l22-6 12-4 10-5c3-2 3-4 3-5l-3-1c-2-1-5-1-7 1l-10 3c3-1 2 0-1 1-3 2-6 2-10 3h-7l-8 3-4 1-4 1-8 2-9 2-24 3c-9 1-17 2-25 1l-13 1-8-2-5-1h-5l5 1h5l-1 1h-3l-2-1h-5l-1-1-6-1-2-1-2-1h-1v1l-2-1 2 1v-1l-10-2 5 3c-1-1 0-1 1-1v1l-5-2h-1v-1h-1l3 2z" class="st2"/><path d="M167 394h-1l4 1-3-1z" class="st2"/></g></svg>