<svg xmlns="http://www.w3.org/2000/svg" id="Layer_1" viewBox="0 0 842 842"><defs/><defs><style>.cls-2{opacity:.85}.cls-3{fill:#211f1e}</style></defs><path fill="#fde8ea" d="M0 0h842v842H0z"/><g class="cls-2"><path d="M570 502h1-1zM572 503zM573 504a5 5 0 00-1-1 3 3 0 001 1zM572 503h1a2 2 0 01-1 0zM572 503zM573 502h2a5 5 0 011 1h1a5 5 0 001 0c1 0 1 0 0 0a14 14 0 01-4-1 14 14 0 01-3-2 7 7 0 01-1 0 13 13 0 001 1 2 2 0 001 0 7 7 0 011 1zM566 496a2 2 0 000 1 5 5 0 001 1c0-1 0-1 0 0a14 14 0 00-1-3v1zM565 495h1-1z" class="cls-3"/><path d="M577 504a17 17 0 007 0 2 2 0 001 0h1a1 1 0 01-1 0h1a5 5 0 011-1 3 3 0 01-1 1 16 16 0 002-1 2 2 0 011-1h1-1 1a13 13 0 001-1v-1h1a1 1 0 010-1l-1 1h-1 1l1-1a4 4 0 011-1 2 2 0 01-1 1 1 1 0 000 1h-1v1a15 15 0 002-2 16 16 0 004-10 18 18 0 00-4-11 18 18 0 00-10-7 16 16 0 00-11 2 21 21 0 00-9 8 14 14 0 00-2 6 18 18 0 001 7 4 4 0 001 1 1 1 0 001 0 2 2 0 001-1 8 8 0 001-2v-1a9 9 0 010-5c0 1 0 1 0 0a6 6 0 012-4l5-4a10 10 0 016-2 17 17 0 013 0 16 16 0 018 5 13 13 0 013 10 22 22 0 01-1 5 10 10 0 01-3 3l-1 1-2 1a13 13 0 003-2h1a5 5 0 01-1 1l-1 1a5 5 0 00-1 0l-1 1h-1a6 6 0 00-1 1 2 2 0 01-1 0 9 9 0 01-1 0h-1a1 1 0 010 1h-1 1a1 1 0 000-1 12 12 0 01-5 1 14 14 0 013 0c-1 0-1 0 0 0a4 4 0 01-1 0 2 2 0 01-1 0h-1a5 5 0 010-1 7 7 0 001 1z" class="cls-3"/><path d="M586 504a16 16 0 002-1 2 2 0 00-2 1z" class="cls-3"/></g><circle cx="581" cy="490" r="6" fill="#1f2020"/><g class="cls-2"><path d="M584 494zM584 494zM583 495a1 1 0 001 0 1 1 0 00-1 0zM584 494v1zM584 494z" class="cls-3"/><path d="M584 495a3 3 0 01-1 1h-1a6 6 0 002 0 7 7 0 001-2l-1 1zM586 492l-1 1h1a2 2 0 000-1zM586 492z" class="cls-3"/><path d="M582 495a5 5 0 01-2 1v-1h-1a1 1 0 010 1v-1a1 1 0 01-1 0l-1-1c-1 0 0 0 0 0v0a1 1 0 010-1 1 1 0 010 1 5 5 0 010-1 5 5 0 01-1-6 5 5 0 013-2 6 6 0 014 1 3 3 0 012 2v1a4 4 0 010 2 1 1 0 001 0 1 1 0 001-1 15 15 0 000-2c0 1 0 1 0 0a13 13 0 01-1-2 3 3 0 00-2-2 9 9 0 00-3-1 6 6 0 00-2 0 6 6 0 00-4 3 8 8 0 00-1 6 5 5 0 001 2 9 9 0 002 1 4 4 0 001 1 6 6 0 01-1-1c-1 0 0 0 0 0l1 1a2 2 0 001 0h1a1 1 0 001 0 7 7 0 002-1 2 2 0 01-1 1l1-1a3 3 0 00-1 0zM579 495z" class="cls-3"/></g><g class="cls-2"><path d="M453 438l2 2 1 2a17 17 0 01-1-2 5 5 0 00-2-2zM458 445l1 1zM463 451l-2-3a29 29 0 002 3zM459 446c1 1 1 1 0 0l2 2a13 13 0 01-2-2zM459 446v-1a13 13 0 000 1zM463 446l1 2 3 4 4 4 3 4a65 65 0 005 5c2 1 3 2 1 0a207 207 0 01-14-16l-6-7-2-3-3-4-2-4 3 6a19 19 0 003 4l4 5zM438 409l1 2 5 10v-2c-1-2-2-2-1 0a107 107 0 00-5-11v1zM437 405l1 3v-1l-1-2z" class="cls-3"/><path d="M474 464a184 184 0 0021 20 5 5 0 012 1 11 11 0 002 2l3 2 1 1h1a13 13 0 01-1-1l1 1a16 16 0 001 1l4 3a27 27 0 01-4-3l-2-1 4 3 4 2 1 1 3 2a9 9 0 013 1l1 1 3 2 4 1 4 2 2 1a13 13 0 012 0l-3-2c-1-1-3 0-5-2 2 2 4 1 5 2l3 2a29 29 0 014 1 32 32 0 013 2 16 16 0 01-4-1 25 25 0 01-3-2 13 13 0 00-2 0l-2-1-4-2 6 3 7 3a121 121 0 0045 5 145 145 0 0046-10 169 169 0 0023-12 167 167 0 0021-14c13-11 23-24 30-39a83 83 0 005-12 63 63 0 002-12v-7l-1-3v-1-1a39 39 0 011-6l1-6 5-23 6-23c1-8 0-11-1-11l-3 2c-3 5-5 9-6 15l-7 22a276 276 0 01-4 24 35 35 0 00-1 3 22 22 0 00-1 5l1 1v7a64 64 0 01-3 15 78 78 0 01-17 30 158 158 0 01-13 13 176 176 0 01-21 15 160 160 0 01-23 11c-16 7-33 11-51 10l-27-2a102 102 0 01-16-6l-19-9 4 3 5 2a145 145 0 009 5 68 68 0 01-7-3c-2 0-3-2-5-3l-4-2-2-1-2-1-2-2-1-1h-2l-3-2a17 17 0 01-4-3l-2-2-3-2-3-3-2-2a2 2 0 010 2l-3-3 3 3a2 2 0 000-2l-4-3-4-3-2-2-2-2-3-4a118 118 0 018 10c-2-2-1-2 0 0l1 1-4-3a21 21 0 01-3-5l-2-1v-2l-2-1 1 1 1 2z" class="cls-3"/><path d="M505 491l-1-1 3 3 3 2a23 23 0 00-5-4z" class="cls-3"/></g><g class="cls-2"><path d="M201 429l1 1a2 2 0 010-1h-1zM203 430h1zM206 431a5 5 0 00-1-1 3 3 0 001 1zM204 430h1a3 3 0 01-1 0zM204 430v-1a3 3 0 000 1zM206 427v1a16 16 0 014 0l1 1 3-1-7-1-6-1a7 7 0 01-2 0l2 1h5zM190 426l1-1a5 5 0 003 2v0a9 9 0 00-4-2v1zM189 425h1-1zM212 431l10 3s0-1 0 0a3 3 0 001 0h2a3 3 0 001 0 5 5 0 011 1 3 3 0 01-1-1h-1l3 1 2 1h3a16 16 0 012 0l1 1a2 2 0 011-1l-1-1h-2 2l1 1a4 4 0 012 1 3 3 0 01-2-1 2 2 0 00-1 1l-1-1a16 16 0 00-2 0l3 1h2c11 3 20 3 31 4h18a75 75 0 0016-2l17-4a32 32 0 008-4 50 50 0 008-6 6 6 0 001-3 2 2 0 00-1-2 6 6 0 00-3-1 9 9 0 00-5 2 21 21 0 01-7 3c2-1 2 0 0 1a12 12 0 01-7 2l-10 2-6 2a28 28 0 01-6 1 22 22 0 00-3 0h-3l-18 1h-13l-5-1a27 27 0 00-5 0l-4 1a44 44 0 01-6-2 40 40 0 00-7 0l7 1-3 1c-1 0-1-2-2-1a20 20 0 00-3 0l-1-1h-4l-2-1a8 8 0 00-1 0h-1a2 2 0 010 1l-2-1 2 1a2 2 0 000-1h-8a9 9 0 014 1h1a5 5 0 01-3-1l-1 1-1-1a11 11 0 002 1z" class="cls-3"/><path d="M226 434h-1l3 1-2-1z" class="cls-3"/></g></svg>