<svg xmlns="http://www.w3.org/2000/svg" id="Layer_1" viewBox="0 0 841.89 841.89"><defs/><defs><style>.cls-2{opacity:.85}.cls-3{fill:#131413}.cls-4{fill:#211f1e}.cls-5{fill:#1f2020}</style></defs><path fill="#fbdfe9" d="M0 .03h841.89v841.89H0z"/><g class="cls-2"><path d="M100.83 381.64l.48 2.15.58 2.13a16.22 16.22 0 01-.27-2.22 5.07 5.07 0 00-.79-2.06zM103 389.86l.2.76c.07.24.19.42.28.61a5.88 5.88 0 01-.48-1.37zM105.6 397.06c-.39-1.3-.83-2.51-1.29-3.68a25.72 25.72 0 001.29 3.68z" class="cls-3"/><path d="M103.86 391.21c0 .49 0 .75-.41.05l.87 2.15a17.22 17.22 0 01-.46-2.2zM103.86 391.21c0-.47-.08-1.2-.08-1.46a9.56 9.56 0 00.08 1.46zM107.7 392c.35.68-.62.81.06 2.17.36.8.7 1.58 1 2.34s.74 1.47 1.09 2.19c.72 1.43 1.4 2.85 2 4.37.78 1.28.8 3.86 1.61 5.14a50.29 50.29 0 003.83 5.8c1.23 1.63 1.91 2.29.69 0-.92-1.74-1.81-3.31-2.59-4.83l-2.15-4.39c-.73-1.41-1.33-2.85-2-4.32s-1.32-3-1.94-4.65l-1.67-4-.83-2-.74-2c-.48-1.35-1-2.7-1.47-4.07s-.86-2.79-1.3-4.22a39.47 39.47 0 01-.94-4.7c.22 2 .61 4.1 1 6.42a16.66 16.66 0 001.71 4.85 85.37 85.37 0 012.64 5.9zM97.2 349.52l.38 2.27a19.06 19.06 0 00-.13 5.23 46 46 0 00.75 5.3c.1-.54.17-1.07.3-1.62-.21-2-.5-2.25-.57-.42.13-2.1.15-4.12.08-6.12s0-4-.15-6c-.26.27-.56.22-.66 1.36z" class="cls-3"/><path d="M97.72 345.82c0 .78.09 1.58.14 2.35l.08-.09-.2-2.35zM112.7 411.65a163.78 163.78 0 0015 24.75 5.1 5.1 0 011.58 1.54 19.08 19.08 0 001.08 1.93c.83 1.09 1.65 2.17 2.54 3.18l1 1c.58.5.54.23.34-.21a13.34 13.34 0 01-.66-1.3c.11.25.47.86.66 1.3a18.35 18.35 0 001.23 1.83l1.29 1.39c.46.46.91.94 1.35 1.45-.56-.5-1.06-1-1.5-1.45s-.81-.95-1.14-1.39l-1.6-1.65-.5-.44 3 3.56 3.15 3.41L141 452c1.66 1.51 3.4 2.92 4.07 4.22l1.19 1.17-.18-.28.39.5 5.25 4.71c1.29.84 2.68 1.61 4 2.48l.95 1.35a13.75 13.75 0 012.38 1.19c-.88-.94-1.56-1.94-2.29-2.75-.93-1.35-3.37-1.4-4.23-3.28.86 1.88 3.3 1.93 4.23 3.28.73.81 1.41 1.81 2.29 2.75a25.94 25.94 0 013 2.12c1 .81 2 1.71 2.82 2.51a13.77 13.77 0 01-3.35-2.19 24.7 24.7 0 01-2.46-2.44 13.75 13.75 0 00-2.38-1.19l-.95-1.35c-1.31-.87-2.7-1.64-4-2.48 1.75 1.49 3.57 2.93 5.37 4.41s3.76 2.8 5.67 4.23a152.1 152.1 0 0019.4 11.67 161.18 161.18 0 0020.69 8.4 165.6 165.6 0 0021.95 5.27 176.09 176.09 0 0023.29 2.07c17.23.22 34-1.15 50-5.65a94 94 0 0022.48-9.59 89 89 0 0018.88-15.05 103.27 103.27 0 0014.47-19.42 150.06 150.06 0 0010.56-22.5 118.86 118.86 0 005.7-24.14 213.1 213.1 0 001.81-24.19 28.27 28.27 0 00-1.4-8.16c-.6-1.5-1.26-1.94-1.89-1.86-1.26.18-2.38 2.45-2.5 2.82a44.15 44.15 0 00-1.92 7.17c-.46 2.4-.66 4.9-1 7.69l-.46 4.47c-.16 1.59-.46 3.26-.72 5.07s-.65 3.75-1.09 5.83-1 4.3-1.69 6.68c1.75-6.51 1.88-4 1 1.72-.21 1.44-.61 3-1 4.76-.21.85-.41 1.74-.67 2.63s-.56 1.77-.84 2.68-.61 1.79-.91 2.68-.71 1.74-1.07 2.59a35.83 35.83 0 01-2.32 4.64c-.6 1-1.19 2-1.76 3.06l-1.83 3.17c-1.15 2.18-2.5 4.35-3.74 6.64a153 153 0 01-8.87 13.61 81.57 81.57 0 01-11.52 12.37 73.43 73.43 0 01-6.72 5.15l-3.57 2.17c-1.17.74-2.44 1.29-3.65 1.91a111.67 111.67 0 01-16.45 6.79 155.82 155.82 0 01-24.9 4.78 213.69 213.69 0 01-25.31 1.3 135.21 135.21 0 01-50.76-9.95c-8.91-3.57-16.81-6.76-24-10.7-1.28-.77-2.56-1.59-3.83-2.42s-2.42-1.81-3.6-2.7c-2.38-1.73-4.45-3.64-6.37-5.12-1.53-1.14-2.87-2.39-4.26-3.51l-2.05-1.68c-.66-.55-1.29-1.14-1.93-1.69l-3.75-3.26q-1.8-1.65-3.52-3.26l3.55 3.52 3.53 3.15 1.78 1.58 1.92 1.57c1.33 1.06 2.67 2.25 4.23 3.43 2.07 1.59 1.17 1.27-.63.31s-4.34-2.77-5.77-3.8c-1.29-.81-2.21-3.26-3.45-4.11a43.53 43.53 0 00-1.78-1.6l-1.77-1.58-3.74-3.27c-1.14-1-.31-1.5-.88-2-.81-.86-1.64-1.63-2.44-2.34s-1.58-1.36-2.27-2a21.62 21.62 0 01-3.48-3.76c-1.28-1.93-2.34-3.75-3.4-5.48-.73-1.07-1.36-2.18-2.13-3.3l-1.6-2a2.25 2.25 0 01-.22 1.53 2.25 2.25 0 00.22-1.53c-1-1.24-1.92-2.58-2.86-4s-2-2.78-2.85-4.26l-2.7-4.48c-.92-1.48-1.66-3.05-2.48-4.54a.49.49 0 010 .11c1.67 3.62 3.4 7.08 4.83 11-.36-.82-.42-1.24-.3-1.21a4.88 4.88 0 011 1.36l.36 1.59-1.5-2.22c-.47-.75-.89-1.53-1.3-2.31a22.37 22.37 0 01-2-4.81l-1.23-1.93c-.35-1.09 0-1.17.08-1.49-.34-.69-.69-1.4-1-2.11a37.66 37.66 0 001 4l.58 1.93c.15.5.27.8.27.8z" class="cls-3"/><path d="M135.57 445.83l-1.32-1.41 2.51 3 2.65 2.87a9 9 0 00-1.57-2.11c-.34-.37-.72-.75-1.11-1.13z" class="cls-3"/></g><g class="cls-2"><path d="M232.05 443.27a13.17 13.17 0 001.38 1 2.71 2.71 0 01-.62-.6 1.54 1.54 0 00-.76-.4zM234.76 445.06l.26.16.25.07a4.67 4.67 0 01-.51-.23zM237.47 446.21c-.47-.22-.92-.43-1.37-.6a7.16 7.16 0 001.37.6zM235.4 445.13c.13.14.18.24-.12.16l.83.32a6.47 6.47 0 01-.71-.48zM235.4 445.13a4.89 4.89 0 01-.4-.41 2.56 2.56 0 00.4.41zM236.8 443.91c.27.07 0 .47.55.61a12.55 12.55 0 001.78.45c.57.14 1.12.28 1.7.4s1.26.8 1.83.74c1.33.17 4.56-.37 2.68-.44a13.23 13.23 0 01-2-.15 11.75 11.75 0 01-1.74-.25c-.55-.12-1.11-.21-1.67-.36l-1.74-.54c-.51-.15-1-.35-1.48-.51a10.87 10.87 0 01-1.46-.59l-1.43-.67-1.39-.84a7.5 7.5 0 01-1.34-1.16l.8.85.93.81a4.17 4.17 0 001.69.88zM224.38 433.75l.52.7a5.94 5.94 0 00.83 1.81 9.62 9.62 0 001.28 1.58c0-.21-.11-.41-.17-.62-.48-.6-.65-.6-.32 0-.66-1.46-1.38-2.73-2.05-4.09-.08.15-.22.2-.09.62zM224 432.36l.43.78-.45-.77z" class="cls-4"/><path d="M243.52 447.34a24.86 24.86 0 002.82.22c.93 0 1.85-.06 2.76-.09s1.8-.22 2.67-.4 1.75-.38 2.58-.68a1.43 1.43 0 01.72-.42 5.66 5.66 0 00.84-.13 14.7 14.7 0 001.41-.62l.47-.27c.24-.17.13-.2-.06-.19a4.69 4.69 0 01-.56.08l.56-.08a4.41 4.41 0 00.8-.24 11.42 11.42 0 011.24-.78 7.68 7.68 0 01-1.24.78l-.75.44-.2.15a30.86 30.86 0 003.09-1.69c.22-.15.41-.32.58-.46a5.88 5.88 0 011.84-1.25l.48-.4h-.12l.21-.12a23.87 23.87 0 002-1.78l1-1.47.56-.31a3.14 3.14 0 01.44-.92c-.41.28-.81.52-1.14.76-.52.31-.54 1.29-1.34 1.5.8-.21.82-1.19 1.34-1.5.33-.24.73-.48 1.14-.76a12.15 12.15 0 011.83-2.14 4.73 4.73 0 01-1.83 2.14 3.14 3.14 0 00-.44.92l-.56.31-1 1.47a23.47 23.47 0 001.81-1.92 20.38 20.38 0 001.67-2.11 26.34 26.34 0 005.37-16.07 23.28 23.28 0 00-7.3-15.76 39.08 39.08 0 00-7.71-6 41.52 41.52 0 00-8.77-3.81 26.14 26.14 0 00-9.38-1.08 20.9 20.9 0 00-9.13 2.69 24.57 24.57 0 00-7.07 6.44 35.39 35.39 0 00-4.71 8.54 29.22 29.22 0 00-1.69 9.63 34.38 34.38 0 00.34 5.28c.11.83.3 1.61.44 2.34s.36 1.4.51 2c.16.39.31.74.46 1a7 7 0 00.48.8 5.47 5.47 0 00.84 1c.5.45.86.47 1.14.32a2.32 2.32 0 00.77-1.48 11.9 11.9 0 000-1.45v-1.37a13 13 0 00-.17-1.36c0-.47-.08-.95-.14-1.46a21.47 21.47 0 01.35-8.16c-.47 2.42-.69 1.53-.59-.61a18 18 0 01.78-3.74 13.56 13.56 0 011.69-3.59c2-2.75 4-6 6.91-8.53a15.54 15.54 0 015-3 14.25 14.25 0 012.84-.72 12 12 0 011.47-.11 8.9 8.9 0 011.46 0c1 .11 2 .08 3 .26.53.08 1.07.11 1.62.22l1.69.39a40.05 40.05 0 018.37 3.63 31.94 31.94 0 017.11 5.44 20.91 20.91 0 014.77 7.27 17.19 17.19 0 01.73 8.85 31 31 0 01-2.62 9.02 8.65 8.65 0 01-.87 1.38c-.32.44-.62.9-1 1.3-.73.78-1.36 1.57-2 2.17a39.49 39.49 0 01-5.44 5 27.16 27.16 0 005.39-4.79c.64-.69.53-.35.15.29-.19.32-.44.72-.7 1.11s-.58.7-.79.94c-.35.44-1.31.62-1.69 1a11.91 11.91 0 00-1.32 1.13c-.45.36-.91.74-1.42 1.13s-.59-.07-.8.11a14.07 14.07 0 00-1.9 1.35 5.57 5.57 0 01-1.67.84 19.94 19.94 0 01-2.31.42c-.45.11-.91.14-1.4.23l-.91.26a1 1 0 01.49.44h-1.59 1.59a1 1 0 00-.49-.44 22 22 0 01-7.47.4v.05c.73.11 1.45.2 2.18.36s1.47.21 2.24.41c-.67-.14-.58-.27.18-.26a4.66 4.66 0 00.58.23 10.31 10.31 0 01-2 .08 4.63 4.63 0 01-1.9-.43h-.87c-.41-.12-.35-.28-.41-.42l-.86-.18a6.41 6.41 0 001.41.68z" class="cls-4"/><path d="M258.58 444.5c-.18.12-.4.23-.64.36a10.71 10.71 0 001.3-.68l1.28-.74a5.24 5.24 0 00-1.94 1.06z" class="cls-4"/></g><circle cx="246.75" cy="420.97" r="8.79" class="cls-5"/><g class="cls-2"><path d="M252.46 427.2l-.41.34a.85.85 0 01.26-.11c.11-.06.12-.14.15-.23zM251.65 427.82l-.08.05-.05.07.13-.12zM250.91 428.37a2.7 2.7 0 00.4-.25 1.52 1.52 0 00-.4.25zM251.57 428c-.07 0-.11 0 0-.09l-.21.19a1 1 0 01.21-.1zM251.57 428h.19zM251.83 428.88c-.07.07-.18-.14-.32 0a4.48 4.48 0 01-1.11.76c-.16.15-.57 0-.74.11-.4.24-1.57.79-.85.62a8.78 8.78 0 002.58-1.13 10.61 10.61 0 001.72-1.63 3.9 3.9 0 01.46-.45c-.23.17-.43.36-.69.53a1.82 1.82 0 00-.45.52 4 4 0 01-.6.67zM254.77 424v.3a3.29 3.29 0 00-.64 1.14l.21-.1c.12-.23.07-.29-.08-.12A3.14 3.14 0 00255 424c-.08 0-.15-.08-.23 0zM255.08 423.66l-.08.34c0-.09 0-.19.07-.29zM249.16 429.35a8.31 8.31 0 01-3.59.22c-.09 0-.16.08-.28 0l-.25-.13c-.17 0-.33-.09-.49-.13h-.18c-.1 0-.09.05 0 .1a.64.64 0 01.15.13 1.08 1.08 0 00-.15-.13 1.38 1.38 0 00-.24-.14 2.8 2.8 0 01-.46-.16 2.24 2.24 0 01.46.16h.37a7.73 7.73 0 01-1.08-.4c-.09 0-.16-.06-.23-.08-.26-.1-.53-.19-.62-.37l-.17-.12v-.06a4.94 4.94 0 01-.7-.5l-.54-.25-.06-.22a.68.68 0 01-.32-.14l.18.45c.06.13.5.09.55.42-.05-.33-.47-.19-.55-.42s-.12-.29-.18-.45a1.49 1.49 0 01-.54-.75 1.54 1.54 0 01.54.75.68.68 0 00.32.14l.06.22.54.25a8.07 8.07 0 01-1.21-1.2 8.85 8.85 0 01-2-4.92 8.2 8.2 0 011.36-5.15 7.76 7.76 0 014.68-3.18 8.56 8.56 0 015.17.39 6.13 6.13 0 013.53 3.59 12.27 12.27 0 01.73 2.4 7.35 7.35 0 01.05 2.46c0 .86.27 1.19.59 1.27a.91.91 0 00.68-.16 2 2 0 00.63-.82 2.94 2.94 0 00.26-1 14.71 14.71 0 000-3.12c.08 1-.13.64-.36-.11s-.69-1.89-1-2.8a5.91 5.91 0 00-3.14-3.44 12.25 12.25 0 00-5.07-1.18 8.73 8.73 0 00-2.72.38 9.35 9.35 0 00-6 4.64 10.72 10.72 0 00-.94 7.7 7.8 7.8 0 002 3.34 12.26 12.26 0 001.7 1.84 6.67 6.67 0 002.67 1.3 8.59 8.59 0 01-2.59-1.29c-.6-.46.59.12 1 .28.2.06.35.46.57.5a4.38 4.38 0 001.32.38c.21 0 .11.25.22.25a4.11 4.11 0 00.91 0 1.84 1.84 0 01.71 0 8.09 8.09 0 00.87.19 1.94 1.94 0 00.54 0l.36-.07a.45.45 0 01-.17-.25 5.44 5.44 0 00.58 0 5.44 5.44 0 01-.58 0 .45.45 0 00.17.25 10.35 10.35 0 002.59-.9 3.3 3.3 0 01-1.53.26c.23 0 .22.09 0 .14l-.22-.09a3.59 3.59 0 011.32-.25l.25-.17c.15 0 .17.06.22.11l.28-.12a5.64 5.64 0 00-.97.16z" class="cls-4"/><path d="M244.08 429.26h.24a5.89 5.89 0 01-.91-.35 1.2 1.2 0 00.67.35z" class="cls-4"/></g><g class="cls-2"><path d="M738.59 380.53c-.33 1.38-.66 2.77-1.09 4.13.25-.67.58-1.32.9-2a4.77 4.77 0 00.19-2.13zM736.37 388.44l-.22.73c-.07.23-.06.45-.09.64l.31-1.37zM734.3 395.58c.47-1.23.85-2.43 1.18-3.6a24.94 24.94 0 00-1.18 3.6zM736.42 390c-.28.4-.49.57-.37-.18-.17.73-.38 1.43-.58 2.17a19.94 19.94 0 01.95-1.99zM736.42 390c.25-.38.56-1 .71-1.23a12.21 12.21 0 00-.71 1.23zM739.05 392.86c-.15.76-1 .29-1.28 1.79a70.07 70.07 0 01-2.82 9.56c-.33 1.52-2.37 3.24-2.77 4.71-.31.84-.68 2-1.09 3.25s-.87 2.45-1.18 3.44c-.63 2-.79 3 .42.56A139.17 139.17 0 00738 397c.75-2.87 1.56-5.65 2.1-8.52l.9-4.29c.27-1.45.49-2.92.75-4.4.31-1.65.8-3.15 1.11-4.71-.24 1-.54 2-.86 3l-1 3.23a13.88 13.88 0 00-.51 2.38c-.15.85-.27 1.75-.39 2.72s-.23 2-.39 3.07l-.27 1.66c-.1.57-.22 1.14-.39 1.72zM743.2 349.43l.26 2.25a35.24 35.24 0 00-.73 5.06c-.13 1.72-.06 3.48-.16 5.22.23-.48.46-1 .65-1.49.09-2-.16-2.26-.5-.51a60.11 60.11 0 001-5.93c.19-2 .2-3.92.21-5.9-.27.25-.57.19-.73 1.3zM743.9 345.82v2.31l.09-.08c0-.78 0-1.56-.08-2.32zM729.06 410.54a137.69 137.69 0 01-14.75 24.29 4 4 0 01-1 1.88 16.11 16.11 0 00-1.6 1.48c-.84 1-1.67 2.09-2.51 3.1l-.87 1.11c-.41.64-.15.57.26.31s.83-.61 1.19-.84c-.23.15-.78.59-1.19.84a19.45 19.45 0 00-1.61 1.45 34 34 0 01-2.48 2.89 32.56 32.56 0 012.48-2.89l1.37-1.79.36-.54c-2 2.26-4 4.58-6.16 6.69l-1.33 1.48a14.26 14.26 0 01-4.22 3.89l-1.19 1.1.28-.15c-.19.15-.36.26-.5.36-1.64 1.58-3.47 3-5.21 4.47l-1.52 1.7c-.54.54-1.09 1.09-1.65 1.62l-1.51.58a9.74 9.74 0 01-1.72 2c1.15-.54 2.23-1 3.19-1.49a5.26 5.26 0 001.88-1.72 4.33 4.33 0 012.18-1.69 4.33 4.33 0 00-2.18 1.69 5.26 5.26 0 01-1.88 1.72c-1 .5-2 1-3.19 1.49a25.81 25.81 0 01-6.16 3.85 20.26 20.26 0 016.16-3.85 9.74 9.74 0 001.72-2l1.51-.58c.56-.53 1.11-1.08 1.65-1.62l1.52-1.7c-1.69 1.47-3.53 2.79-5.33 4.17s-3.69 2.68-5.6 4a150.9 150.9 0 01-19 11 144.15 144.15 0 01-20 8.09l-2.56.85-2.6.73c-1.74.46-3.47 1-5.23 1.41l-5.32 1.19-1.33.29-1.35.23-2.71.46-2.72.46c-.91.16-1.83.23-2.75.35-1.84.21-3.68.45-5.54.63-3.74.23-7.51.55-11.35.51-16.64 0-32.77-1.72-47.56-6.18a110.11 110.11 0 01-20.76-8.47 74.15 74.15 0 01-17.38-12.83c-10.15-10.19-16.87-23.64-19.92-38.65-1.24-5.75-2.93-14-4-22.35s-1.79-16.79-2-22.59c-1-7.74-2.37-9.65-3.65-9.48s-2.31 2.41-2.43 2.78a31.36 31.36 0 00-1.61 7.19 55.56 55.56 0 00-.24 7.77l.16 4.51c.06 1.6.19 3.32.3 5.17l.37 6c.07 1.09.1 2.21.19 3.38l.26 3.66c-.55-6.9.43-4.45 1.5 1.3.29 1.44.61 3.09 1 4.84.17.88.31 1.79.5 2.72l.56 2.81c.19.95.35 1.91.52 2.86s.39 1.89.57 2.82a1224.49 1224.49 0 001.57 9c.25 1.25.66 2.49 1 3.77l.59 1.94c.2.65.49 1.28.74 1.92.53 1.29 1 2.62 1.65 3.91a70.08 70.08 0 009.9 15.16 78.48 78.48 0 0014 13 123.27 123.27 0 0016 9.72c5.37 2.81 11.49 4.77 18.34 6.69a134.24 134.24 0 0026.64 5c4.44.43 8.86.61 13.27.73l6.61.05 6.72-.24a165.37 165.37 0 0053.6-12.33c9.43-4 16.88-9.14 23.74-14.18 2.61-1.69 5.21-3.6 7.79-5.27s4.88-3.51 6.86-5.1a111.55 111.55 0 0014.91-15.26c-2.46 2.69-4.51 5.11-6.85 7.4-1.16 1.15-2.29 2.38-3.59 3.57l-4.21 3.82c-1 .91-1.44 1.09-1.38.92a10.86 10.86 0 011.2-1.6c1.34-1.64 3.52-4 4.73-5.31 1-1.2 3.44-2.09 4.4-3.32a35.11 35.11 0 003.24-3.68c1-1.29 2.08-2.57 3.12-4 .84-1.3 1.45-.54 1.87-1.19.76-1 1.42-1.9 2-2.82s1.08-1.85 1.56-2.7a25 25 0 012.86-4.35l4.15-5.09c.76-1.07 1.5-2.15 2.22-3.34l1.22-2.36a2.25 2.25 0 01-1.5.47c.36-.52.84-1.13 1.3-1.75s.88-1.26 1.22-1.8c-.34.54-.78 1.17-1.22 1.8s-.94 1.23-1.3 1.75a2.25 2.25 0 001.5-.47 189.34 189.34 0 008.22-18.86l-.12.05a54.48 54.48 0 01-2.51 5.36c-1 1.73-2 3.43-3.23 5.12 1-1.48 1.14-1.16.24.67l-1.19 1.11c.79-1.58 1.43-3.22 2.22-4.77a31.9 31.9 0 012.67-4.39l.63-2.2c.59-1 .84-.79 1.17-.9l.9-2.17a77.25 77.25 0 00-3.78 5.76z" class="cls-3"/><path d="M706.83 444.24l1.18-1.48c-1.71 1.88-3.35 3.83-5.19 5.61a8.63 8.63 0 002-1.63 42.9 42.9 0 002.01-2.5z" class="cls-3"/></g><g class="cls-2"><path d="M609.06 442.2a15.3 15.3 0 01-1.33.88c.25-.11.51-.2.77-.3a1.29 1.29 0 00.56-.58zM606.44 443.8l-.24.14-.2.15a4.17 4.17 0 00.44-.29zM604 445.11a7.65 7.65 0 001.29-.61 9 9 0 00-1.29.61zM606.06 444.28c-.19 0-.3 0-.07-.19l-.73.41a6 6 0 01.8-.22zM606.06 444.28a3 3 0 00.54-.09zM606.15 446.11c-.26.18-.39-.28-.88.06a17.75 17.75 0 01-1.76.93 7.61 7.61 0 01-1.81.69c-.56.24-1.58 0-2.14.17s-1.88.59-2.69.76-1.18.39-.1.32a14.66 14.66 0 002.23-.3 15.5 15.5 0 002-.45c.62-.2 1.24-.35 1.85-.57l1.9-.76c.53-.26 1-.57 1.52-.85a11.53 11.53 0 001.45-.93l1.4-1 1.32-1.13c.54-.39 1-.78 1.49-1.16l-1 .72-1.12.69a11.62 11.62 0 00-1.56 1.28 9.22 9.22 0 01-2.1 1.53zM616.84 433.41l-.23.84a9.25 9.25 0 00-1.18 1.54c-.31.58-.66 1.13-1 1.7l.55-.33c.44-.63.38-.77-.11-.29a11.24 11.24 0 002.51-3.75.53.53 0 00-.54.29z" class="cls-4"/><path d="M617.72 432.31l-.35.81.33-.82zM598.33 447a22 22 0 01-2.79.23c-.92 0-1.82-.07-2.72-.1s-1.77-.25-2.63-.44-1.71-.41-2.52-.73a1.35 1.35 0 01-.81-.14 4.88 4.88 0 00-.71-.44 13.06 13.06 0 01-1.36-.65l-.5-.2c-.28-.07-.24 0-.11.17a3.73 3.73 0 01.4.39c-.07-.08-.28-.25-.4-.39a5 5 0 00-.68-.48 13.5 13.5 0 01-1.24-.74 7.24 7.24 0 011.24.74l.8.32.24.06a28.48 28.48 0 01-3-1.76c-.23-.13-.43-.28-.61-.39a4.54 4.54 0 01-1.67-1.39l-.45-.41.06.11-.14-.19a19.86 19.86 0 01-1.85-1.82c-.45-.35-1-.68-1.39-1.07l-.19-.61a3 3 0 01-.8-.6c.19.45.34.89.52 1.27.18.64 1.26.64 1.4 1.47-.14-.83-1.22-.83-1.4-1.47-.18-.38-.33-.82-.52-1.27a6.31 6.31 0 01-1.42-2.37 6.72 6.72 0 011.42 2.37 3 3 0 00.8.6l.19.61c.43.39.94.72 1.39 1.07a23.71 23.71 0 01-1.67-1.94 24.4 24.4 0 01-1.52-2.1 26.37 26.37 0 01-4.61-15.34 20.8 20.8 0 017.07-14.29 33.31 33.31 0 017.49-5.2 34.44 34.44 0 018.3-2.85 28 28 0 018.26-.51 17 17 0 017.39 2.3 19.21 19.21 0 018.41 13.12 50 50 0 011 8.14 28.55 28.55 0 01-.87 7.95c0 .34-.07.65-.08.94s-.07.53-.08.76a4.26 4.26 0 000 1.12c.11.59.36.88.66 1 .6.2 1.39-.39 1.5-.51a10.22 10.22 0 001-1.11 8 8 0 00.7-1.25c.2-.43.38-.88.56-1.36s.25-1 .37-1.54a50.17 50.17 0 00.93-8.88c-.09 2.73-.44 1.72-.67-.54-.22-1.12-.33-2.58-.62-4.06s-.55-3-.67-4.34a18.55 18.55 0 00-6.83-11.52 20.76 20.76 0 00-6.87-3.65 26.49 26.49 0 00-3.75-.89c-.62-.12-1.24-.14-1.85-.21s-1.23-.17-1.83-.16a21.38 21.38 0 00-3.72.17c-.64.09-1.3.15-1.95.28l-2 .44a34.4 34.4 0 00-10.06 3.8 33.24 33.24 0 00-8.4 6.62 26.87 26.87 0 00-5.78 9.5 24.75 24.75 0 00-.91 11.58 24.34 24.34 0 004.48 10.15c.31.54.67 1.05 1 1.57s.66 1.06 1 1.55a23.42 23.42 0 008.87 7.73 29.39 29.39 0 01-6.55-5c-.76-.77-.38-.6.31-.13l1.18.85c.41.3.84.55 1.12.76.52.31.87 1.37 1.45 1.62a15 15 0 001.63 1l1.82.85c.57.22.27.61.57.71a18.42 18.42 0 002.49.79 7.4 7.4 0 012 .51c.84.41 1.66.61 2.43.91a6.67 6.67 0 001.55.32h1.06a1 1 0 01-.4-.58c.24.05.53.13.83.21a7.07 7.07 0 00.84.12 7.07 7.07 0 01-.84-.12c-.3-.08-.59-.16-.83-.21a1 1 0 00.4.58 29.68 29.68 0 007.94-1.09 19.29 19.29 0 01-2.26.35 12.19 12.19 0 01-2.33-.13c.68.07.6.21-.18.28-.2-.06-.4-.17-.6-.25.68 0 1.35-.18 2-.21a16.19 16.19 0 012 0l.83-.29a.59.59 0 01.56.25l.87-.26z" class="cls-4"/><path d="M583.47 444.22l.67.28a9.36 9.36 0 01-1.26-.73l-1.22-.78a5.19 5.19 0 001.81 1.23z" class="cls-4"/></g><circle cx="595.14" cy="420.97" r="8.79" class="cls-5"/><g class="cls-2"><path d="M589 427.69l.42.38a1.53 1.53 0 01-.16-.25.35.35 0 00-.26-.13zM589.82 428.4l.08.06.09.03-.17-.09zM590.69 428.88a2.7 2.7 0 00-.44-.24 2 2 0 00.44.24z" class="cls-4"/><path d="M590.05 428.42c0 .06 0 .11-.06.07l.26.15a1.33 1.33 0 01-.2-.22z" class="cls-4"/><path d="M590.05 428.42l-.09-.18a.76.76 0 00.09.18zM590.72 427.85c.09 0-.06.21.13.26.4.17.77.22 1.13.38.17 0 .35.36.54.37.44.1 1.53 0 .93-.13a8.31 8.31 0 01-2.26-.71 7.88 7.88 0 01-1.85-1 4 4 0 01-.39-.44 6.27 6.27 0 00.48.64 1.42 1.42 0 00.54.33 3.5 3.5 0 01.75.3zM586.77 424.18l.18.24a2 2 0 00.58 1.21v-.23c-.15-.21-.21-.21-.15 0a8.63 8.63 0 00-.51-1.46c-.05.06-.12.06-.1.24z" class="cls-4"/><path d="M586.75 423.68l.12.28c0-.09-.1-.18-.14-.27z" class="cls-4"/><path d="M592.69 429.49a9.52 9.52 0 003.65.28c.09-.06.14-.12.27-.11h.29c.17 0 .34-.08.5-.12l.18-.06c.09 0 0-.08 0-.1h-.19.19a1 1 0 00.29 0 2.75 2.75 0 01.46-.18 1.81 1.81 0 01-.46.18l-.27.11h-.08a9.35 9.35 0 001.14-.35 1.14 1.14 0 00.22-.12 1.23 1.23 0 01.69-.29l.19-.1h.08a7.62 7.62 0 00.77-.48c.13-.16.25-.33.39-.48l.23-.05a.74.74 0 01.16-.32l-.46.16c-.22 0-.19.46-.51.43.32 0 .29-.39.51-.43l.46-.16a2.76 2.76 0 01.73-.61 1.14 1.14 0 01-.73.61.74.74 0 00-.16.32l-.23.05c-.14.15-.26.32-.39.48a8.54 8.54 0 001.38-1.18 8.87 8.87 0 002.41-5.24A9.46 9.46 0 00603 416a10 10 0 00-5.09-4.24 9.12 9.12 0 00-6.41.14 11.77 11.77 0 00-5.24 4.08 7.8 7.8 0 00-1.3 3.27 9.44 9.44 0 00.06 3.48c.42 1.13.88 1.25 1.16 1.14a1.15 1.15 0 00.5-.53 5.85 5.85 0 00.23-1v-.93a5.26 5.26 0 01.59-2.57c-.31.73-.4.43-.25-.26a3.73 3.73 0 011.39-2.07c1-.6 1.83-1.4 2.93-2a6.11 6.11 0 013.67-.94 10.19 10.19 0 012 .34 8.43 8.43 0 014.21 3.44 7 7 0 01.82 5.51 11.05 11.05 0 01-1 2.79 6 6 0 01-1.37 1.35 12.59 12.59 0 01-1.9 1.3 7.85 7.85 0 001.93-1.25c.45-.39-.12.52-.47.78-.12.15-.49.06-.62.17-.33.18-.61.41-1 .62-.15.11-.2-.12-.28-.07a3.42 3.42 0 00-.68.38 1.3 1.3 0 01-.58.2 4.84 4.84 0 01-.78 0H594.69a.71.71 0 01.13.26c-.16 0-.37-.07-.52-.1.15 0 .36.08.52.1a.71.71 0 00-.13-.26 6.6 6.6 0 01-2.49-.13 8.75 8.75 0 011.41.53c-.22-.09-.17-.15.08-.13l.17.15a1.94 1.94 0 01-1.27-.32h-.29c-.13-.08-.1-.15-.1-.22l-.2-.01a4.34 4.34 0 00.69.49z" class="cls-4"/><path d="M597.86 429.42l-.23.08a8 8 0 001-.3 1.15 1.15 0 00-.77.22z" class="cls-4"/></g></svg>