<svg xmlns="http://www.w3.org/2000/svg" id="Layer_1" x="0" y="0" version="1.1" viewBox="0 0 842 842" xml:space="preserve"><defs/><style>.st1{opacity:.85}.st2{fill:#211f1e}.st3{fill:#1f2020}</style><path fill="#edc4b3" d="M0 0h842v842H0z"/><g class="st1"><path d="M185 479l2 1-1-1h-1zM188 480h1-1zM191 482l-1-1 1 1zM189 480l1 1-1-1zM189 480zM191 479v1l2 1 2 1 1 2c2 1 5 3 3 1l-7-5-7-2-2-1 2 1h3l3 1zM172 480h3l2-1h-1l-5 1h1zM171 480h1-1z" class="st2"/><path d="M197 485l9 8v1h1l1 1 1 1v-1 1h1l1 1-1-1h-1l3 2v1l2 1 1 1h-1 1l2 2 1 1v1h1v-1l-2-2 2 2v1l2 3-2-3-1-1-1-1 3 4 2 4v5l-5 7a24 24 0 01-6 4v1h-1l-9 4a29 29 0 01-19-3l-8-5a36 36 0 01-11-25l1-8c0-3 2-5 4-6l2-2 1-1-2-1-6 2-5 10 1-2v12c-1 4 1 9 3 14 3 4 6 9 11 12l1 1 2 1 4 3c7 3 15 4 23 1 4-1 8-2 11-5l1-1 1-1 3-2 2-2 2-3 2-6-1-7-5-6a49 49 0 000-1c2 2-2 0-3-1l-1-2-4-2v-1l-5-3-2-2-1-1h-1l-1-1 1 1-7-5 4 3c-1 0 0 0 0 0l1 1-4-3-1-1-1-1 2 1 1 1z" class="st2"/><path d="M210 496h-1l3 2-2-2z" class="st2"/></g><path d="M195 513a10 10 0 11-21 0c0-6 5-13 10-11 8 4 11 5 11 11z" class="st3"/><g class="st1"><path d="M193 508v-1 1zM193 507h-1zM192 506zM192 507s0-1 0 0v-1 1zM192 507zM192 507h-1l-1-1h-1l-1-1 3 2 2 1 1 1-1-1-1-1zM195 512v-2 2s0 1 0 0zM195 513v-1 1z" class="st2"/><path d="M189 505l-4-2v-1h-2 0-1l-1-1-1 1h-1 0l-1 1 1-1h1l-2 1a13 13 0 00-5 12c1 3 2 5 5 7 2 2 4 2 7 2l7-2 3-4 1-4-1-1-1 1v1l-2 3c1-1 1 0 0 0l-2 2-4 1h-5l-2-1a10 10 0 01-4-9l1-4 2-3 2-1h3l-1-1-1 1h-1l1-1h2v1h2l1 1h1l3 1-2-1 1 1h1v1l-1-1zM184 502h-1 1z" class="st2"/></g><g class="st1"><path d="M642 495h-2 2zM639 496h-1 1zM636 498l1-1h-1v1zM638 496l-1 1 1-1zM638 496h1-1zM638 498h-1l-1 2-2 1-2 1-2 3 7-6 6-3h2-3l-2 1-2 1zM656 497l-1-1h-3l-2-1 1 1c1 0 1 0 0 0l5 1zM657 497h-1 1z" class="st2"/><path d="M631 502a276 276 0 01-10 9h-1l-1 1h-1 0v1l-2 1 2-1v-1h1l-4 3-2 2h-1 1-1l-2 2-1 2h-1v1l1-1 2-1-2 1-1 1-2 2 2-2v-1h1l1-2-4 4-2 5v5c1 3 3 6 6 8l3 3 2 2h1l1 1 9 4c7 1 15 1 21-2l9-5 7-8c3-6 6-12 7-19v-11l-5-8-3-2-3-1-2 1 1 2 5 4 2 8v-2l1 2-1 9-5 12c-2 5-5 8-8 10l-2 1-1 1-4 2c-6 2-13 3-19 1-3-1-7-2-9-4h-1l-1-1-2-2-2-2-2-2-2-4v-4l4-5a161 161 0 011-1l1-2 2-1 3-3 1-1 3-3 3-2 1-1 1-1h-1l2-1-2 1h1l6-6-4 3v1h-1l3-3 1-1h0l-1 1zM618 513l-2 2 2-2z" class="st2"/></g><path d="M633 530a11 11 0 0021 0c0-6-6-13-11-11-7 4-10 5-10 11z" class="st3"/><g class="st1"><path d="M635 525v-1 1zM635 524h1zM636 523v0zM636 524zM636 524h-1 1zM635 523h1l1-1h1v-1l-2 1-2 3h-1l1-1 1-1zM633 529v-2 2zM633 530v-1 1z" class="st2"/><path d="M638 522l4-2h1v-1c1 0 0 0 0 0h1-1 5v0h-1 1v1h0v-1h-1l2 1a13 13 0 014 9v3l-4 6-7 1-3-1-2-2-2-2-1-3-1-1-1 1v2l2 3c-1-1 0-1 0 0l2 3 5 2h6l3-2c3-1 4-4 5-7v-4l-2-5-3-3-2-2h-4 1-1l-1 1h-1l-1 1h-1 1-1 1-1l-2 2 1-1h1l-2 1h-1 1zM644 519h-1 2-1z" class="st2"/></g><g class="st1"><path d="M91 339v0zM91 353v1l1 1-1-2zM92 365zM92 355c0 1 0 1 0 0v0zM92 355v-2 2zM96 358l-1 4 2 15v9l3 11a484 484 0 01-6-60v-8 11l2 18zM93 288v4l-1 16 1-2c0-3 0-4-1-1l2-19-1 2zM94 282v0z" class="st2"/><path d="M96 391a391 391 0 0010 52l2 6 1 2c0 2 0 1 0 0v-2 2l1 4-1-4-1-1 2 8c0 3 2 4 3 7l1 2 2 5 1 4 1 3v-1l1 1 2 5 3 5 2 3 2 3v3l3 3-2-5-2-4 2 4 2 5 2 2 1 3 2 3 1 2a38 38 0 01-5-8l-1-2-2-3-1-3-2-3-2-3 11 19a129 129 0 0055 45 137 137 0 0093 2 104 104 0 0034-22l7-7 3-4 3-4a150 150 0 0025-51 230 230 0 009-37l3-18a749 749 0 005-77l-3-38c-2-13-4-16-5-16l-2 5v24a312 312 0 011 39 250 250 0 01-2 34c-2 15-4 33-8 51a262 262 0 01-16 54l-1 3-2 3-3 6-2 3-2 3-2 4-1 1-1 2c-8 11-18 20-29 27l-2 1-2 1-5 2-4 2-3 1-2 1-2 1-3 1-4 1-5 1-5 1-20 1h-11l-5-1h-2l-3-1-5-1-5-1-5-1-3-1-2-1a155 155 0 01-51-35l-2-2-1-1-2-3-4-6-3-6-3-5-15-30 3 7 3 7 4 7 2 4 2 4 1 3-2-3-6-9c-1-2-1-6-3-8l-1-4-2-3-3-8v-3l-7-17-1-6-1-5-1-6-1-4v2l-1-7 1 7v-2c-2-10-5-21-6-32a284 284 0 012 20v2l-2-16-1-4 1-2-1-4v7l1 5z" class="st2"/><path d="M110 455l-1-3a233 233 0 002 8l-1-5z" class="st2"/></g><g class="st1"><path d="M748 341v0zM748 355v2-2zM747 367zM748 357h-1v4l1-4zM748 357v-2 2zM751 360l-1 4v16l-2 8v12a412 412 0 003-61v-8 11 18zM747 290l1 4 1 16v-2c0-3 0-4-1-1v-19l-1 2zM747 284l1 4-1-4zM746 393a349 349 0 01-11 52l-2 6v2c-1 1 0 1 0 0l1-2-1 2-1 3-2 6 2-6 1-3v-1l-3 7-2 7-1 3-2 5-2 3-1 3v-1 1l-3 5-2 5-2 4-1 3-2 2-2 4 4-5 2-3 2-4-2 4-2 3-4 5-1 2-2 3-2 2-2 2 4-5 1-2 2-2 2-4 2-2 1-3 2-4-12 19a117 117 0 01-89 51 129 129 0 01-55-8 101 101 0 01-38-28l-3-4-3-4a161 161 0 01-23-49 268 268 0 01-12-92l1-38 2-37c0-13 0-16-2-16s-3 4-3 4c-2 8-4 15-4 24l-3 37c0-6 0-8 1-7v26l-1 18a291 291 0 0021 109l2 3 2 3 3 7 2 3 2 4 3 3 1 2 1 2c8 12 19 22 32 30l2 2 3 1 5 3 5 2 3 1 2 1 3 1h2l6 2 5 1 6 1 22 1h3l2-1h6l5-1h3l3-1 5-1 6-1 5-2h3l3-1 21-10a105 105 0 0033-31l1-1 1-2 2-3 5-6 4-6 3-6c6-10 10-20 13-31l-2 8-3 7-4 8-1 4-3 4-1 2 1-3 4-11 5-7 1-4 1-4 3-8 1-3c3-7 3-13 5-18l1-5 2-5 1-6v-5l-1 2 2-7-2 7 2-2 3-32a125 125 0 01-3 20l-1 2 3-17v-3l1-2v-4l-1 6-1 5z" class="st2"/><path d="M732 457l1-3a274 274 0 01-3 8l2-5z" class="st2"/></g></svg>