<svg xmlns="http://www.w3.org/2000/svg" id="Layer_1" x="0" y="0" version="1.1" viewBox="0 0 842 842" xml:space="preserve"><defs/><style>.st1{opacity:.85}.st2{fill:#090a0a}.st3{fill:#211f1e}.st4{fill:#1f2020}</style><path fill="#f9dec9" d="M0 0h842v842H0z"/><g class="st1"><path d="M388 383l-2 3 1-1 1-2zM384 389v0zM382 395l1-3-1 3zM384 391v-1l-1 2 1-1zM384 391l1-1-1 1zM386 394l-1 1-3 7-3 4-2 6 8-15 6-14 2-3-3 4-4 10zM401 360l-1 1-4 8 1-1c1-1 1-2 0 0l5-9-1 1zM403 357l-1 2 1-2zM376 407a1193 1193 0 01-12 23l-2 1-1 3-1 1 1 1v-1 1l-2 1-1 3 1-3 1-2-3 7-1 1-3 4-1 1-4 5-2 3h-1l-1 2 2-1 3-4-3 4-2 1-5 4 5-4 1-2h1l2-3-8 8a84 84 0 01-68 19 81 81 0 01-28-12l-8-5c-22-16-44-28-65-45l-33-21c-12-6-9 1-8 2 5 7 11 9 24 20-9-7 9 3 16 11 11 11 32 21 48 32l13 8 9 7 5 3 3 1 1 1h1c8 3 15 5 23 6l3 1h9l12-1c8-1 16-3 23-7 7-3 14-7 20-13l11-10a63 63 0 006-8l-3 3-3 4v-1l2-2 1-3 3-3 2-4 2-4 2-1 3-9 3-5 2-3 1-2-2 1 2-3-2 3 1-1 7-16-5 9v1l-1 1 5-8v-2h1l1-2-3 4z" class="st2"/><path d="M360 437v-1l-1 2-2 3 3-4z" class="st2"/></g><g class="st1"><path d="M290 473v0zM291 474h1-1zM293 474h-1 1zM292 474zM292 474h-1 1zM292 472l1 1h4-2l-2-1h-2v0h1zM289 467v2c0-1 0-1 0 0v-3 1zM289 466z" class="st3"/><path d="M296 475h8-1 3l1-1h1l1-1h-1 1c1 0 0 0 0 0l2-1-2 1-1 1 3-1 6-7v-1-1l1-2v-3-2l-1-1-1-1-3-1-4-1-5-1-1-1h-8l-6 3-3 5v5c1 2 1 3 2 2h1l1-3 1-4v-1l1-1h1l3-1h8l4 1 4 1h1l1 1v3l-2 4-2 4-3 1v1h-1l-2 1 2-1h1v-1 1h-1l-2 1h-1l-1 1-2-1h-1v0h-4l3 1c-1 0-1 0 0 0h-3v-1l1 2zM304 475h-1 1z" class="st3"/></g><path d="M299 471c3 2 7 1 8-2 2-3 0-5-3-6s-6-3-7 0c-2 3-1 7 2 8z" class="st4"/><g class="st1"><path d="M298 469h-1 1zM297 468zM297 468zM297 468zM297 468zM296 469v-1-1h-1l1 1 1 2v-1h-1zM299 471l-1-1v0l1 1zM299 471zM296 467v-2-1h1-1 1v-1 0l1-1h4l3 2 2 2v2l-1 1-3 1h-2l-1 1h-1l1 1 2 1 1-1h2l2-1 1-2 1-1v-2l-1-3-2-1-4-2-5 1-1 2 1-2v1h-1v5zM297 464v-1 1z" class="st3"/></g><g class="st1"><path d="M452 385l2 3-1-2-1-1zM455 391l1 1-1-1zM458 396zM456 392l1 1-1-1zM456 392v-2 2zM460 391v2l5 7 2 5c1 2 6 8 4 4l-9-15-8-12-2-4 2 5 6 8zM440 360l1 2 4 8v-2h-1l-4-9v1zM439 357l1 2-1-2z" class="st2"/><path d="M466 408a1257 1257 0 0113 24l1 3 1 1c0 1 0 1 0 0v-1 1l1 2 2 3-2-3-1-2 2 3 1 4 1 1 3 4 1 1v1l1 1 1 1 2 2 3 3 1 1 2 1-2-2c-1-2-3-2-3-4 0 2 2 2 3 4l2 2 4 5-4-5-2-1-1-1-3-3 8 9a110 110 0 0093 21l20-8 2-1 2-2 4-3 8-5 16-12 33-22 32-24c10-9 2-8 1-8-9 2-13 8-27 16 9-6-6 7-16 11-15 7-31 22-47 33l-6 5-4 2-1 1-2 1-2 1-2 2h-2l-1 1-2 1-5 1-5 2c-21 5-43 3-62-5l-20-10c-4-2-7-6-10-9l-11-13 1 2 2 1 2 3 5 7c2 1 1 1 0 0l-2-2-2-2-3-4-2-3-2-3-1-2-5-8-3-5-1-3-1-2-1 2-1-4 1 4 1-2-10-14 4 9h1v2l-4-8-1-2v-1l-1-2 2 6z" class="st2"/><path d="M482 438l-1-1 2 3 1 3-2-5z" class="st2"/></g><g class="st1"><path d="M554 466zM553 466zM552 467v-1 1zM553 466h-1 1zM553 466c0 1 0 0 0 0zM553 468h-1l-1 1h-1l-2 1 2-1h2l1-1h1l1-1 1-1v-1l-1 2h-1l-1 1zM555 460v3-1l1-2h-1zM556 460z" class="st3"/><path d="M549 468l-6 1v-1h-1v0h-1-1 2-3l-1-1v1-1h-1-1v-1h-1l1 1h0l-1-1-1-1 1 1h1v1h1l-2-2c-2-1-4-3-5-6l-1-1v-1l-1-2 1-3 3-2h5l4-1h8l3 2 1 3v4l2 1h1l1-3v-5 1l-1-1v-1l-1-1v-1l-1-1-3-2-2-1h-8l-1 1h-4l-5 1-2 1h-1l-1 1-1 1-1 2v1l-1 1v1h1v4l3 5 4 4a35 35 0 005 3h3-2l-1-1h0l1 1h8v-1h1-1v1l4-2-3 1c1 0 1 0 0 0l2-1h0zM541 468h1-2 1z" class="st3"/></g><path d="M545 465c-3 1-6 0-8-3-1-3 1-4 3-6s6-2 8 1c1 2 0 6-3 8z" class="st4"/><g class="st1"><path d="M548 463zM548 462zM548 462zM548 462zM548 462zM547 462h1v-1-1s0-1 0 0l-1 1v2-1zM546 465v-1h1-1v1zM545 465h1-1z" class="st3"/><path d="M549 460v-2h-1v-2h-1v-1h-1 1v0h-1 0-4l-3 1-2 2-1 2v2l1 2 3 3a6 6 0 005-1l1-1h-1-3c1 0 0 0 0 0l-1-1-2-1-1-1v-1-1l2-2 4-2h2l1 1-1-1h1v1l1 1v3l1-1zM548 457z" class="st3"/></g></svg>