<svg xmlns="http://www.w3.org/2000/svg" id="Layer_1" x="0" y="0" version="1.1" viewBox="0 0 842 842" xml:space="preserve"><defs/><style>.st1{opacity:.85}.st2{fill:#211f1e}.st3{fill:#1f2020}</style><path fill="#b07d62" d="M0 0h842v842H0z"/><g class="st1"><path d="M221 500l1-1-1 1zM223 499zM224 499zM223 499zM223 499zM223 497h5-4l-3 1-1 1 1-1h1l1-1zM216 503l1-1 1-1c-1 0 0 0 0 0l-2 2zM216 503v-1 1z" class="st2"/><path d="M227 498l5 2h1v1h1v1h1-1v-1l1 2 1 1 1 1v1h1l-1-1 1 1v2-2h-1v-1 10l-5 7c-2 1-5 2-8 1-3 0-5-1-7-3l-2-3v-4-4l2-3-1-2-1-1-2 1-1 1-2 5c1-2 1-1 1 0l-1 5 2 7 7 5 4 1c4 0 9-1 12-3 3-3 5-7 6-11l-1-6-1-4-3-3 3 3-2-1v-1l-1-1h-1v-1h-1l-1-1-1-1h-2l1 1-1-1 1 1-1-1h-4 3c-1 0-1 0 0 0v1l-1-1h-2 1z" class="st2"/><path d="M234 502v-1l1 1h-1z" class="st2"/></g><circle cx="226" cy="512" r="6" class="st3"/><g class="st1"><path d="M231 509v-1 1zM231 508zM230 507v0zM231 508h-1 1zM231 508zM230 508h-1v-1h-1l2 1 1 1v0l-1-1zM232 512v-1-1 2zM232 512z" class="st2"/><path d="M229 507l-2-1h-2-2-1 2-2c-2 2-3 4-3 7l3 4 4 2 5-2 1-2 1-2-1-1-1 1-1 2c0-1 0-1 0 0l-1 1h-3-2-1l-2-3 1-4 1-1 1-1h1l1-1v1l1-1v1h1v-1 1-1 1h1l-1-1v1-1l1 1zM226 506h-1 1z" class="st2"/></g><g class="st1"><path d="M609 500l1-1h-1v1zM610 499zM612 499h-1 1zM610 499s1 0 0 0h0zM610 499zM610 497h6-5l-3 1-1 1 1-1h1l1-1zM604 503v-1h1v-1l-2 2h1zM603 503v-1 1z" class="st2"/><path d="M615 498l5 2v1h1l1 1-1-1 1 2h1v1l1 1 1 1v0l-1-1 1 2v8l-5 7c-3 1-6 2-9 1l-6-3-2-3-1-4 1-4 1-3v-2l-2-1-1 1-1 1-2 5c0-2 1-1 0 0v5c-1 2 0 5 2 7l7 5 4 1 12-3c3-3 5-7 6-11l-1-6-1-4-3-3 3 3-2-1v-1l-1-1h-1v-1h-1l-1-1-1-1h-2v1l-1-1 1 1v-1h-4 2l1 1-1-1h-2-1 2zM622 502l-1-1 1 1z" class="st2"/></g><circle cx="613" cy="512" r="6" class="st3"/><g class="st1"><path d="M618 509v-1 1zM618 508zM617 507l1 1-1-1zM618 508zM618 508zM617 508h-1v-1h-1l2 1 1 1v0l-1-1zM619 512v-1-1 2zM619 512z" class="st2"/><path d="M616 507l-2-1h-1-1 0-1-1-1 2-2c-2 2-3 4-3 7l3 4 4 2 5-2 2-2v-2l-1-1-1 1-1 2c1-1 1-1 0 0l-1 1h-5-1l-2-3 1-4 1-1 1-1h2-2 1l1-1v1l1-1v1h1v-1 1h1v-1l-1 1v-1l1 1h1-1zM613 506h-1 1z" class="st2"/></g><g class="st1"><path d="M234 562l-4-1 2 1h2zM227 560h-1 1zM221 559l3 1-3-1zM226 561v-1h-2l2 1zM226 561h0zM223 563l-1-1-4-1-4-1-4-3-3-1-2-1c-2 0-3 0-1 1l8 4 4 1 4 1 7 2 7 1 4 1-5-1-4-1h-3l-1-1h-2zM259 567h-2l-4-1h-4 2l9 1h-1zM262 567h-2 2z" class="st2"/><path d="M209 554a66 66 0 01-20-15l-1-1-2-3-1-1v0l-1-1-2-3 2 3 1 1 1 1-1-2-1-2-2-3-1-1-1-2-1-2-1-1v-1l-2-5-1-3v-2l-1-2v3c0 2 2 3 1 4 1-1-1-2-1-4v-3l-1-6 1 4v2l1 2v2l1 3v-3l-1-2-1-3v-3a134 134 0 01-1-35v-5l1-2v-2l1-5v-4l1-2v-3l1-4 3-9 1-5 1-5 1-3 1-2 1-5 2-10v-5l1-5a157 157 0 000-39l-2-19-2-19a143 143 0 00-12-38c-3-6-5-7-6-6l-1 3c0 4 0 8 2 12l4 18c-1-5 0-4 2 1l3 17c-1 8 1 16 2 26s2 19 2 28v7a127 127 0 01-4 29l-1 5-1 5-3 10-6 45 3 23v3l1 4 1 2v2l1 3a57 57 0 006 13l-1-2-1-2-2-4-2-4c-1-2 0-2 1 0l1 2 2 3 1 4 2 4 1 1 1 1 1 1v2l4 4 4 3 1 2 2 2 3 3 2 1v-2l1 2 1 1-1-1-1-2v2h1v1l2 1 4 2 4 2 4 1-4-2-4-3h-1l-1-1 4 2 4 2 1 1 1 1 2 1-3-2-2-2z" class="st2"/><path d="M184 533l1 1-2-3-1-2 2 4z" class="st2"/></g><g class="st1"><path d="M608 566l3-1h-1l-2 1zM615 564l1-1-1 1zM621 562l-3 1 3-1zM616 563h2-2zM616 563h-1 1zM616 559h2l4-1 3-2 4-1 3-2 2-2c1-1 2-1 0 0l-7 4-4 1-4 2-6 3-7 2-4 1 6-1 4-1 2-2h1l1-1zM582 569l2-1h8l-1-1c-2 1-2 1 0 1h-10l1 1zM579 568h2-2z" class="st2"/><path d="M632 556a74 74 0 0020-16l2-1 2-3v-1c1 0 1 0 0 0l-1 1 1-1 1-1 2-3-2 3-1 1v1l1-2 1-1 3-3v-2l1-2 2-2v-1l3-6v-3l1-2v-2l-1 3c-1 1 0 3-2 4 2-1 1-3 2-4l1-3 1-3 1-3a11 11 0 01-2 6v2l-1 2v3-1l1-1v-3l1-3 1-3a112 112 0 002-36v-4l-1-3v-2l-1-5v-4l-1-2v-3l-1-4-2-10-1-5-1-5-1-2v-3l-1-5-1-9v-5l-1-5v-19l1-9v-9a158 158 0 018-37l6-18 6-18c1-6 1-8-1-9s-2 1-3 1c-3 3-5 7-6 11l-7 17c2-5 2-3 1 2l-6 17c-4 7-6 16-7 26l-1 30v16l3 22 1 5 1 5 1 3v3l2 5c3 13 6 27 6 42v24l-1 4v2l-1 1-1 3a114 114 0 01-4 12l1-2v-2l2-3 1-5c1-2 1-1 1 1l-1 3-1 2-2 4-1 3-1 1v1l-1 2-1 1-3 4-2 4-2 1-2 2-3 2-1 1 1 1-1 1h-2 2l1-1-1-1-1 1v1l-2 1-3 2-4 3-3 2 4-2 5-2c-2 0-2 0 0-1h1l-4 2-4 2-1 1h-1l-2 1 3-1h2z" class="st2"/><path d="M657 534l-1 1 2-2 2-3-3 4z" class="st2"/></g></svg>