<svg xmlns="http://www.w3.org/2000/svg" id="Layer_1" x="0" y="0" version="1.1" viewBox="0 0 842 842" xml:space="preserve"><defs/><style>.st2{opacity:.85}.st3{fill:#211f1e}</style><path fill="#e6b8a2" d="M0 0h842v842H0z"/><path fill="#262524" d="M135 492c1 3-1 6-3 7s-6 0-7-3-1-8 1-9c3 0 8 1 9 5z"/><g class="st2"><path d="M133 489zM133 488zM132 488zM133 488h-1 1zM133 488c0 1 0 1 0 0zM132 489h-1v-1l-1 1h2l1 1-1-1zM135 491l-1-1v1h1v0zM135 492v-1 1z" class="st3"/><path d="M131 488l-3-1h-1 1-1-2v1h1-1v-1 1l-1 4v4l1 2 2 2h5a6 6 0 005-5v-3h-2v1l-1 2v2l-2 1h-3-1l-2-3-1-4v-2h1v-1h0v0h5zM127 487h1-1z" class="st3"/></g><g class="st2"><path d="M170 372l-4 4 2-2 2-2zM161 379v1l-1 1 1-2zM154 386l4-3-4 3zM160 381c-1 0-1 1 0 0l-2 2 2-2zM160 381l2-1-2 1zM160 385l-2 2-5 5-4 4-3 3-2 2c-3 4-10 14-5 9l4-6 4-5 5-5 2-2 3-3 17-15 1-1 1-1v-1l3-2-2 2-2 1-3 3-6 4-2 3-4 3zM203 344l-2 2-11 10 2-1 1-1 11-11-1 1zM206 341l-2 2 2-2z" class="st3"/><path d="M140 403a120 120 0 00-24 44v2c0 1 0 0 0 0l1-2-1 2v1l-1 2v0l1-2v-1-1l-2 12 1 3v8l1 2v-1 1l2 9 4 6v2l1 1 2 2-2-5-2-3 2 3 2 5 3 4 1 2 2 2a23 23 0 01-6-8l-1-2-2-1v-1-1l-3-5c2 5 5 11 10 16 6 7 15 13 24 18a154 154 0 0059 10 205 205 0 0048-9 154 154 0 0068-46l10-12 10-13a493 493 0 0045-85l10-31c2-11 1-14 0-14l-4 3-7 19c-4 10-7 19-12 28 4-8 4-5 1 3a141 141 0 01-13 25l-23 37c-9 13-18 27-28 38l-18 17a145 145 0 01-95 32c-18 0-36-3-52-11l-14-8c-3-3-6-5-8-9-2-2-4-5-5-9a57 57 0 01-5-12l4 12 1 2-1-2-4-8-1-7-1-13 1-2v-1-1l1-3v-4l1-3a35 35 0 013-7l2-4 2-4 2-3h-2l3-4-3 4h2a102 102 0 0115-23l-11 12c2-2 2-1 0 1l-1 1 8-11 1-1 1-1 2-1 2-3-2 2-2 2-3 3z" class="st3"/><path d="M115 452l1-3-2 11 1-8z" class="st3"/></g><g class="st2"><path d="M150 507zM150 506zM151 505l-1 1 1-1zM150 506h1-1zM150 506zM148 505v-2h1l-1-2v4zM148 512v-1l1-1h-1 1l-1 2zM147 512z" class="st3"/><path d="M151 503v-3-3-1 1-1-1-2-1h-1l1 1-1-1h1v-1 0l-2-7-4-5-6-5c-2-2-5-3-7-3l-7-3-7-1c-2 1-2 2-2 3v2l3 1 3 2c-2-1 1-2 3 0l4 2 5 2h1l1 1 5 4 4 4 1 2 1 1v2l1 3-1-3h1l1 1-1 1 1 1-1 1 1 1v2h1l-1 1 1-1h-1v3l1-1v-1 2h-1v1l2-1zM151 497v-1 1z" class="st3"/></g><g class="st2"><path d="M686 376l4 3-2-2-2-1zM694 382v1h1l-1-1zM701 388l-3-3 3 3zM696 383h-1l3 2-2-2zM696 383l-1-1 1 1zM700 382l1 2 5 4 5 4 4 6 3 3 2 2 1 2 2 2-1-2-9-11-2-2-2-2-5-5-4-3-2-2-3-1-4-4-5-3-4-4 3 3 1 1 1 1 1 1 12 8zM657 347l1 1 1 1c2 4 6 7 9 10l-1-2c-2-2-2-2-1 0l-10-12 1 2zM654 343l2 3v-1l-2-2z" class="st3"/><path d="M716 402l9 16 2 9-1 8v3l-1 3-1 2-1 2-1 2c0 1 0 1 0 0l1-1-1 1-1 2-3 5 3-5 1-2v-1c-1 3-3 7-6 10l-1 2-4 6-1 2v-1 1l-3 4-1 1-1 2-2 6-2 2v3l2-4 3-6-3 6-2 4-5 8 5-8v-3l2-2 2-6-4 8a80 80 0 01-22 29c-7 5-15 9-24 11s-18 2-27 1l-14-3-4-1h-1l-2-1-3-1-4-1a146 146 0 01-60-45l-9-11c-18-23-32-49-41-76l-10-28-9-28c-3-9-5-11-6-11l-2 4c0 7 1 12 3 19l7 28a298 298 0 0111 27c3 11 10 24 17 37a390 390 0 0043 56 145 145 0 0074 41 104 104 0 0036 1 71 71 0 0026-12 59 59 0 0013-12l5-7 6-11 5-9 1-3v-1h1v-1l1-1 3-6-3 5-1 2-1 1-1 3-1 2v-3l1-1v-2h1l2-4 4-5c2-4 5-7 6-11l2-2 2-4 1-4 1-2v-2-3l1-2v-2-3-2-4-1l-1-2v-1l-1 1-1-2-1-3 1 3 1 2 1-1-7-12-8-10 8 13c-1-3 0-2 1 0v2l-7-11-2-2v-2l-2-2 2 4 2 2 1 1z" class="st3"/><path d="M721 450l1-3a86 86 0 01-1 3z" class="st3"/></g><g class="st2"><path d="M699 440v0zM699 442zM699 443v-1 1zM699 442zM699 442zM701 442l-1 1v3l1-3v-3-1l-1 2 1 1zM699 436l1 2v-1h-1l1-1h-1zM700 435v0zM699 445l-2 4v2-1l-1 1v2h-1v2l1-1-1 1-1 1 1-1v-1-1l-1 2-6 11-5 6-9 10-4 5 1 3h1c2 0 2-2 5-3-2 1 0-2 2-3 3-1 4-5 7-7l1-3c4-3 6-8 8-13l2-4 1-2 1-3-1 3c-1 1-1-1-1-1l1-1v-2h1v-2-1-1-2-1 1z" class="st3"/><path d="M697 451v-1l-1 1h1z" class="st3"/></g></svg>