<svg xmlns="http://www.w3.org/2000/svg" id="Layer_1" viewBox="0 0 841.89 841.89"><defs/><defs><style>.cls-2{opacity:.85}.cls-3{fill:#211f1e}.cls-4{fill:#1f2020}</style></defs><path fill="#d69f7e" d="M0-.44h841.89v841.89H0z"/><g class="cls-2"><path d="M250.3 521.28l1.49-.47a5.15 5.15 0 01-.8.09 1.23 1.23 0 00-.69.38zM253.2 520.48l.27-.06.22-.09zM255.86 519.88a11.74 11.74 0 00-1.38.2 7.16 7.16 0 001.38-.2zM253.69 520.12c.18 0 .27.09 0 .2l.79-.25a4.44 4.44 0 01-.79.05zM253.69 520.12h-.54a2.92 2.92 0 00.54 0zM254.06 518.3c.28-.12.3.38.85.2l1.89-.47a16.4 16.4 0 011.88-.18c.59-.16 1.49.46 2.07.38l1.31-.07h1.42c.81 0 1.21-.13.17-.29a24.62 24.62 0 00-8 .08 28.29 28.29 0 00-6.38 2.18c-.58.28-1.14.49-1.71.7.76-.23 1.5-.55 2.37-.75a6.25 6.25 0 001.8-.81 15 15 0 012.33-.97zM240.51 527.33l.46-.71a10.53 10.53 0 001.55-1.09c.48-.43.93-.9 1.44-1.3l-.62.13c-.58.47-.55.65 0 .31a15.09 15.09 0 00-1.87 1.23 12.1 12.1 0 00-1.57 1.55.53.53 0 00.61-.12z" class="cls-3"/><path d="M239.35 528.1l.57-.65-.55.67zM261.7 519.39a23.79 23.79 0 019.93 3.39 1.33 1.33 0 01.75.3 4.53 4.53 0 00.59.57c.42.26.78.61 1.16.9l.44.3c.25.13.24 0 .15-.14a3.1 3.1 0 01-.31-.46c.05.1.22.31.31.46a4.11 4.11 0 00.54.6 10.33 10.33 0 011 1 7.57 7.57 0 01-1-1l-.7-.46-.22-.12a25.64 25.64 0 012.46 2.31 5.88 5.88 0 01.5.49 4.72 4.72 0 011.29 1.69l.33.5v-.12a1.65 1.65 0 00.09.22 21.39 21.39 0 011.29 2.18c.33.44.71.89 1 1.36v.64a2.73 2.73 0 01.59.78c0-.48-.06-.93-.13-1.34 0-.65-1-.93-.95-1.75-.08.82.94 1.1.95 1.75.07.41.09.86.13 1.34a5.61 5.61 0 01.66 2.61 7.06 7.06 0 01-.66-2.61 2.73 2.73 0 00-.59-.78v-.63c-.33-.47-.71-.92-1-1.36a22.19 22.19 0 011.06 2.26 19.12 19.12 0 01.83 2.38 25.84 25.84 0 01-.37 15.67 25.16 25.16 0 01-9.71 12.52 23.53 23.53 0 01-16.51 3.74 26.61 26.61 0 01-7.67-2.4 21.87 21.87 0 01-6.32-4.58 21.19 21.19 0 01-4.33-6.46 18.86 18.86 0 01-1.48-7.74 31.51 31.51 0 01.83-7.73 22.5 22.5 0 013-7l.35-.85q.18-.37.3-.69a4.9 4.9 0 00.29-1.06 1.1 1.1 0 00-.35-1.12 1.85 1.85 0 00-1.57 0 7 7 0 00-2.3 1.68c-.32.34-.62.71-.93 1.1s-.53.86-.81 1.33a37 37 0 00-3.26 8.21c.77-2.61.84-1.55.54.68s-.34 5.76-.42 8.38c-.23 3.81 1.42 8.48 4.53 12.25a31.61 31.61 0 0011.7 8.61c.54.24 1.1.46 1.67.68s1.19.34 1.81.5l.94.24 1 .16c.66.09 1.34.25 2 .3a26.87 26.87 0 0020.32-5.59 30.24 30.24 0 0011-18.58 23.48 23.48 0 00-1-10.85c-.12-.6-.33-1.19-.5-1.79s-.3-1.2-.53-1.76a20.22 20.22 0 00-1.3-3.11 22.66 22.66 0 00-2.46-3.68 24 24 0 00-2.86-2.78 31.78 31.78 0 012.76 2.84 25.42 25.42 0 012.38 3.49c.53.94.21.67-.33 0l-.91-1.1c-.35-.38-.68-.74-.9-1a2.74 2.74 0 01-.47-1 2.32 2.32 0 00-.55-.93 13.28 13.28 0 00-1.33-1.37l-1.58-1.21c-.5-.32-.12-.65-.39-.8a17.46 17.46 0 00-2.23-1.25 7.27 7.27 0 01-1.81-.91 23 23 0 00-2.12-1.38 7.17 7.17 0 00-1.4-.65l-1-.24a1 1 0 01.25.63c-.45-.18-1-.56-1.51-.7.47.14 1.06.52 1.51.7a1 1 0 00-.25-.63 28.1 28.1 0 00-7.8-.78 11.73 11.73 0 014.41.86c-.31-.14-.45-.2-.4-.25s.26-.06.63 0l.51.38-1-.16c-.33 0-.65-.06-1-.11a9.89 9.89 0 01-1.87-.49l-.86.11c-.41-.09-.39-.24-.47-.38a8.61 8.61 0 00-.88 0c.31.11.94.31 1.5.45z" class="cls-3"/><path d="M275.29 525.34l-.58-.4.54.45.5.5 1 1a4.84 4.84 0 00-1.46-1.55z" class="cls-3"/></g><circle cx="258.32" cy="545.18" r="11.71" class="cls-4"/><g class="cls-2"><path d="M268.78 539.24l-.38-.66a2.29 2.29 0 01.12.37c.06.16.15.2.26.29zM268 538l-.08-.11-.08-.08zM267.11 537a5.42 5.42 0 00.46.49 3.32 3.32 0 00-.46-.49zM267.74 537.86c0-.08 0-.14.09-.05l-.27-.3a1.79 1.79 0 01.18.35z" class="cls-3"/><path d="M267.74 537.86c0 .1.06.2.08.25a1.44 1.44 0 00-.08-.25zM266.89 538.14c-.1-.08.1-.21-.1-.36-.43-.39-.86-.65-1.26-1-.2-.13-.35-.55-.58-.66-.5-.32-1.91-.73-1.18-.32a10.77 10.77 0 012.61 1.9 11.29 11.29 0 011.89 2.11 7.55 7.55 0 01.32.72 8.53 8.53 0 00-.39-1 2.26 2.26 0 00-.53-.67 6.39 6.39 0 01-.78-.72zM270.18 544.54c0-.13-.1-.38-.1-.38a3.29 3.29 0 00-.26-1.77l-.05.28c.1.34.16.37.15.05 0 .73.06 1.37.1 2a.23.23 0 00.16-.18zM270.06 545.17v-.4c0 .13 0 .26.05.39z" class="cls-3"/><path d="M264.89 535.4a12.51 12.51 0 00-4.51-1.84.61.61 0 01-.38 0 1.51 1.51 0 00-.35-.14c-.23 0-.46 0-.69-.06h-.25c-.13 0-.09.06 0 .1a1.57 1.57 0 01.23.09l-.23-.09a1.82 1.82 0 00-.37-.09h-.65a3.05 3.05 0 01.65 0h.5a13.88 13.88 0 00-1.58 0 1.4 1.4 0 00-.32.06 2.29 2.29 0 01-1 .1l-.27.06h-.06c-.38.1-.78.16-1.16.3-.23.13-.46.28-.69.4h-.29a1.55 1.55 0 01-.35.3c.22 0 .43 0 .61-.08s.46-.43.83-.32c-.37-.11-.55.33-.83.32s-.39.05-.61.08a5.82 5.82 0 01-1.16.51 1.83 1.83 0 011.16-.51 1.55 1.55 0 00.35-.3h.29c.23-.12.46-.27.69-.4a11.91 11.91 0 00-7.31 6.57 12.45 12.45 0 00-.65 7.8 12.83 12.83 0 004.71 7.26 12 12 0 008 2.33 14.54 14.54 0 008-3 10.75 10.75 0 002.85-3.51 12.65 12.65 0 001.31-4.27c0-1.54-.44-1.88-.73-1.85a1.11 1.11 0 00-.64.48 9 9 0 00-.55 1.14l-.39 1.2a7.77 7.77 0 01-1.73 3.13c.67-.84.61-.43.12.38a5.93 5.93 0 01-2.58 2.2 32.79 32.79 0 01-4.65 1.59A9 9 0 01255 555a13 13 0 01-2.48-1.28 11.39 11.39 0 01-4.16-6.36 9.92 9.92 0 011.3-7.67 13.54 13.54 0 012.57-3.18 8.34 8.34 0 012.42-1.19 14.39 14.39 0 013.11-.85 10.37 10.37 0 00-3.06.78c-.77.31.42-.53 1-.69.23-.13.65.05.87 0a4.79 4.79 0 00.75-.17l.79-.15c.24-.06.21.17.33.15a6.11 6.11 0 001-.14 2.12 2.12 0 01.84 0 6.38 6.38 0 011 .33l.6.19.42.09a.45.45 0 01-.09-.3l.63.32-.63-.32a.45.45 0 00.09.3 9.6 9.6 0 013.08 1.31c-.53-.39-1.06-.74-1.6-1.21.24.19.17.22-.14.09l-.18-.22a3.21 3.21 0 011.5.91l.35.16a.23.23 0 01.07.27l.32.22a8.6 8.6 0 00-.81-.99z" class="cls-3"/><path d="M258.31 533.39h.33a9.69 9.69 0 00-1.32 0 2.18 2.18 0 00.99 0z" class="cls-3"/></g><g class="cls-2"><path d="M601.67 534.11c.33.4.68.79 1 1.19a5.3 5.3 0 01-.4-.7 1.34 1.34 0 00-.6-.49zM603.56 536.46l.16.22.17.17zM605.17 538.66a9.11 9.11 0 00-.74-1.18 7.61 7.61 0 00.74 1.18zM604.08 536.76c0 .18 0 .29-.18.1l.54.63a4.69 4.69 0 01-.36-.73zM604.08 536.76c0-.17-.14-.42-.16-.51a3 3 0 00.16.51zM605.9 536.38c.22.21-.23.42.16.86l1.18 1.55a17.33 17.33 0 01.92 1.64c.38.48.17 1.56.47 2.06l.59 1.17c.2.45.41.92.59 1.28.37.73.61 1.07.34 0a24.78 24.78 0 00-3.26-7.31 28.29 28.29 0 00-4.55-5c-.49-.42-.9-.86-1.32-1.29.51.6 1.1 1.16 1.63 1.88a6.85 6.85 0 001.46 1.33 14.8 14.8 0 011.79 1.83zM592.21 527.55l.84.14a11.14 11.14 0 001.62 1c.58.26 1.19.49 1.77.79l-.38-.51c-.66-.35-.81-.24-.27.15a13.68 13.68 0 00-1.87-1.23 12.22 12.22 0 00-2-.83c0 .15-.07.28.29.49zM591.05 526.79l.82.26-.83-.23z" class="cls-3"/><path d="M608 543.82a24 24 0 01.85 10.46 1.38 1.38 0 010 .81 5.4 5.4 0 00-.29.76 13.63 13.63 0 01-.37 1.43l-.09.52c0 .28.07.23.18.08a4.81 4.81 0 01.3-.47c-.06.09-.19.32-.3.47a5.23 5.23 0 00-.33.74 11.18 11.18 0 01-.47 1.33 7 7 0 01.47-1.33l.15-.83a2.29 2.29 0 010-.25 24.37 24.37 0 01-1.14 3.17 9.87 9.87 0 01-1.28 2.52l-.34.5.1-.08-.16.17a18.39 18.39 0 01-1.47 2.06c-.26.49-.52 1-.82 1.5l-.58.26a2.78 2.78 0 01-.48.85c.42-.24.83-.44 1.18-.66.59-.27.44-1.32 1.23-1.57-.79.25-.64 1.3-1.23 1.57-.35.22-.76.42-1.18.66a5.72 5.72 0 01-2.13 1.64 6.9 6.9 0 012.13-1.64 2.78 2.78 0 00.48-.85l.58-.26c.3-.49.56-1 .82-1.5a17.15 17.15 0 01-1.64 1.87 17.77 17.77 0 01-1.85 1.72 25.83 25.83 0 01-14.52 5.9 25.17 25.17 0 01-15.35-3.91 23.54 23.54 0 01-10-13.65 26.37 26.37 0 01-.86-8 22 22 0 011.68-7.62 21.08 21.08 0 014.2-6.55 19.21 19.21 0 016.51-4.45 32.89 32.89 0 017.42-2.32 22.89 22.89 0 017.65-.07H588.71a5 5 0 001.1-.16c.56-.17.82-.45.88-.76.14-.61-.51-1.35-.63-1.44a7 7 0 00-2.46-1.44c-.44-.16-.9-.29-1.38-.42s-1-.14-1.54-.21a37.31 37.31 0 00-8.83.28c2.7-.33 1.75.16-.41.77s-5.41 2-7.86 3c-3.58 1.3-7.2 4.67-9.42 9a31.55 31.55 0 00-3.23 14.17v1.8c0 .61.16 1.23.26 1.86l.15 1 .25 1c.18.64.3 1.32.53 2a26.89 26.89 0 0013.23 16.4 30.19 30.19 0 0021.41 2.65 23.41 23.41 0 009.54-5.28c.5-.35 1-.77 1.44-1.17s1-.76 1.41-1.19a19.93 19.93 0 002.32-2.43 22.24 22.24 0 002.4-3.72 23.51 23.51 0 001.41-3.74 33.77 33.77 0 01-1.5 3.67 27.17 27.17 0 01-2.26 3.57c-.65.86-.53.46-.17-.28l.65-1.28.56-1.22a2.86 2.86 0 01.7-.82 2.14 2.14 0 00.63-.87 14.06 14.06 0 00.73-1.77l.48-1.93c.17-.67.55-.37.58-.68a16.57 16.57 0 00.26-2.55 7.13 7.13 0 01.11-2 25.09 25.09 0 00.42-2.5 6.08 6.08 0 000-1.54c0-.33-.11-.67-.17-1a1 1 0 01-.48.49c0-.48.1-1.18 0-1.67.06.49 0 1.19 0 1.67a1 1 0 00.48-.49A28.33 28.33 0 00608 542a11.53 11.53 0 011 4.39c0-.35 0-.5.07-.48s.16.22.22.6l-.15.62-.24-1c-.11-.32-.2-.63-.29-.94a11.17 11.17 0 01-.3-1.91l-.44-.74a.51.51 0 01.16-.58c-.11-.27-.21-.55-.35-.82 0 .33.09 1 .19 1.56s.13 1.12.13 1.12z" class="cls-3"/><path d="M607.9 558.65c0-.19.09-.43.14-.69l-.2.68-.26.66-.53 1.32a4.82 4.82 0 00.85-1.97z" class="cls-3"/></g><circle cx="582.94" cy="551" r="11.71" class="cls-4"/><g class="cls-2"><path d="M592.57 558.22l.44-.61a2.43 2.43 0 01-.29.26.57.57 0 00-.15.35zM593.38 557a.75.75 0 00.07-.12v-.11zM593.92 555.82a4 4 0 00-.26.61 3.6 3.6 0 00.26-.61zM593.41 556.73c.07-.06.12-.07.08.06l.17-.36a2 2 0 01-.25.3zM593.41 556.73l-.19.16a2.31 2.31 0 00.19-.16zM592.82 556.05c0-.12.23 0 .28-.23.19-.55.26-1.05.42-1.55 0-.24.36-.55.37-.8.1-.59-.09-2.05-.17-1.21a10.45 10.45 0 01-.71 3.15 11.16 11.16 0 01-1.17 2.57 7.54 7.54 0 01-.54.58 10.69 10.69 0 00.77-.75 2.65 2.65 0 00.4-.75 5.8 5.8 0 01.35-1.01zM588.26 561.62l.31-.25a3.23 3.23 0 001.52-.93l-.28.06c-.27.22-.27.29 0 .16-.67.27-1.23.6-1.84.9.08.04.1.12.29.06z" class="cls-3"/><path d="M587.63 561.76l.35-.2-.34.21z" class="cls-3"/><path d="M594.53 553.13a12.6 12.6 0 00-.11-4.87.65.65 0 01-.17-.34 1.6 1.6 0 000-.38c0-.23-.15-.44-.22-.66l-.1-.22c-.07-.11-.1-.07-.1 0a1.13 1.13 0 010 .26v-.26a2 2 0 00-.07-.37 6.27 6.27 0 01-.3-.58 2.69 2.69 0 01.3.58l.17.35.06.1a12.39 12.39 0 00-.62-1.45 2.27 2.27 0 00-.18-.28 2.16 2.16 0 01-.49-.87l-.17-.23v.06-.1a9.68 9.68 0 00-.74-.95c-.21-.16-.44-.31-.64-.48l-.12-.26a1.32 1.32 0 01-.42-.2c.12.19.21.38.31.53s.58.25.64.63c-.06-.38-.53-.37-.64-.63s-.19-.34-.31-.53a5.33 5.33 0 01-.93-.86 1.87 1.87 0 01.93.86 1.32 1.32 0 00.42.2l.12.26c.2.17.43.32.64.48a11.32 11.32 0 00-1.79-1.62 11.88 11.88 0 00-7.2-2.45 12.56 12.56 0 00-7.41 2.51 12.89 12.89 0 00-4.78 7.22 12 12 0 001 8.27 14.51 14.51 0 006 6.14 10.63 10.63 0 004.39 1.21 12.26 12.26 0 004.44-.5c1.4-.63 1.55-1.15 1.4-1.4a1.09 1.09 0 00-.69-.4 7.87 7.87 0 00-1.27 0c-.4 0-.8.08-1.25.11a7.58 7.58 0 01-3.56-.34c1 .28.64.39-.3.27a5.87 5.87 0 01-3-1.5 31.3 31.3 0 01-3.32-3.63 8.89 8.89 0 01-1.78-5 13 13 0 01.18-2.78 11.34 11.34 0 014.18-6.35 10 10 0 017.55-1.86 13.49 13.49 0 013.94 1.08 8.83 8.83 0 012.06 1.74 15.18 15.18 0 012 2.52 10.13 10.13 0 00-1.93-2.49c-.59-.58.65.17 1 .61.2.16.21.62.37.79s.3.41.45.62l.46.66c.15.2-.07.26 0 .36a5.49 5.49 0 00.54.9 2 2 0 01.31.77 6.55 6.55 0 01.09 1c0 .21 0 .41.06.63l.09.42a.52.52 0 01.24-.21v0a.52.52 0 00-.24.21 9.64 9.64 0 010 3.35c.15-.65.26-1.28.47-2-.07.3-.13.25-.13-.09l.13-.25a3.07 3.07 0 01-.24 1.73v.39c-.07.18-.15.15-.22.18s-.05.25-.07.38a7.8 7.8 0 00.57-.99z" class="cls-3"/><path d="M593.75 546.29l.14.3c-.13-.42-.36-.8-.53-1.21a2 2 0 00.39.91z" class="cls-3"/></g><g class="cls-2"><path d="M148 296.69v8.71c.06-1.47.15-2.91.31-4.4a19.71 19.71 0 00-.31-4.31zM148 313.45V315c0 .49.08.91.11 1.32.01-.95-.04-1.92-.11-2.87zM148.62 328.6c0-2.68-.12-5.24-.24-7.71-.02 2.18.05 4.72.24 7.71zM148.57 316.52c-.13.94-.27 1.4-.4-.14v-.06l.22 4.57c.01-1.64.08-3.11.18-4.37zM148.57 316.52c.12-.9.22-2.33.29-2.82-.11.82-.21 1.77-.29 2.82zM152 320.27c.14 1.52-.82 1.18-.53 4.2.44 7.07 1.09 13.1 1.35 19.72.33 3-.51 7.8-.15 10.8.59 7.08 3.07 25.05 2.32 14.41-1.11-16-1.82-26.42-2.42-40.8a1149.9 1149.9 0 01-1.72-34.92c-.06-3.36 0-6.49.11-9.65a825.7 825.7 0 00-.44 13c-.2 6.19 1.08 13.62 1.48 23.24zM149.82 232.59l.12 4.55c-1 6.72-.94 13.83-.84 20.93l.55-3.14c.06-4.05-.19-4.53-.5-.93.81-8.24 1.19-16 1.49-24-.28.46-.58.35-.82 2.59zM150.82 225.29l-.18 4.69a1.14 1.14 0 00.09-.16c0-1.58.08-3.15.12-4.69z" class="cls-3"/><path d="M150.83 360.68c1.14 20.12 2.66 39 4.66 57.45a19 19 0 01.79 4.27c0 1.45.06 2.92.19 4.36l1 8 .48 2.81v.08c.32 1.49.41 1 .42.07s-.07-2-.06-2.85c0 .53.06 1.93.06 2.85 0 1.28.16 2.7.34 4.35.39 2.44.85 5 1.19 7.62-.55-2.91-1-5.43-1.19-7.62l-.77-4.5-.27-1.29c.8 6.13 1.66 12.21 2.62 18.28l.72 3.8c.84 4.38 1.83 8.71 1.85 11.51l.61 3.24v-.64l.16 1.24c.83 4.56 1.8 9.12 2.75 13.7.87 2.91 1.81 5.89 2.66 8.89l.32 3.15a38.52 38.52 0 011.76 4.92c-.35-2.51-.61-4.81-.95-6.92-.32-3.14-2.57-6.58-2.54-10.38 0 3.8 2.22 7.24 2.54 10.38.34 2.11.6 4.41.95 6.92a149.4 149.4 0 013.69 14.26 65.34 65.34 0 01-3.65-14.28 38.52 38.52 0 00-1.76-4.92l-.32-3.15c-.85-3-1.79-6-2.66-8.89 2 8.92 4.16 17.89 6.75 27 2.07 7.31 4.42 14.46 6.94 21.51s5.41 13.91 8.63 20.59a178 178 0 0010.81 19.43 125.12 125.12 0 0013.75 17.53 82.47 82.47 0 0017.49 14.17 70.29 70.29 0 0021.21 8.47 68.38 68.38 0 0023.26 1.13 58.65 58.65 0 0022.57-7.92 77.73 77.73 0 0019.5-17.05 126.56 126.56 0 0014-21.07c1-1.86 2-3.67 2.88-5.55l2.67-5.62 2.46-5.68c.83-1.89 1.53-3.82 2.3-5.73q4.43-11.49 7.84-23.15c9.07-31 13.36-61.64 16.51-92.25s4.69-61.46 6.19-93.87c.54-12.45.58-30.24.11-47.89s-1.38-35.19-2.12-47.18c-1.74-16-3.58-19.78-4.78-19.35s-2 5-2 5.8c-1.07 9.94-1 18.7-.65 30s.81 25.16.09 45.19c.33-13.64 1-8.63 1.31 3s-.06 30-1.51 42.8c-2.18 18.57-3.18 41.06-4.85 64.6s-4 48.12-8.57 70.47c-2.28 11.16-4.61 23-8.3 36.06a284.74 284.74 0 01-8.36 24.62 189 189 0 01-10.71 23 106.69 106.69 0 01-14.18 20.1A63.14 63.14 0 01288.81 605c-.44.22-.87.47-1.31.66l-1.37.53-2.72 1.08c-.91.36-1.88.55-2.81.83s-1.87.57-2.83.77l-2.91.5a20.46 20.46 0 01-2.93.41l-3 .21c-.5 0-1 .09-1.49.11L266 610a62.55 62.55 0 01-23.7-4.83 69.1 69.1 0 01-20.84-13.8 108 108 0 01-16.6-20.46A228.93 228.93 0 01191.51 547a250.87 250.87 0 01-9.91-23.42c-4-11.4-6.87-24-9.09-33.63a964.12 964.12 0 01-8.67-40.76 544.77 544.77 0 005.74 29.08c.73 3.37 1.54 6.91 2.51 10.76 1.25 5.16.53 3.44-.74-.43-.66-1.93-1.36-4.42-2.06-6.84s-1.32-4.8-1.72-6.52a31.63 31.63 0 01-.75-5.34 32.46 32.46 0 00-.67-5.36c-1.19-6.45-2.59-12.33-3.92-19.27-.68-3 .34-2.76 0-4.24-1.61-9.47-3.7-16.7-4.15-22.85a621.6 621.6 0 01-.95-13c-.19-2.59-.41-5.16-.69-7.9l-.7-5.19a5 5 0 01-.8 2.45c-.17-2.54-.27-6.14-.41-8.68.14 2.54.24 6.14.41 8.68a5 5 0 00.8-2.45 780.6 780.6 0 01-4.15-40.77l-.08.18c.47 8 .82 15.72.81 24 0-3.59.26-3.17.6.9l-.26 3.15c-.77-7.07-1.5-14.13-1.16-20.89l-.56-4.52c0-2.26.34-2.17.57-2.66l-.29-4.69c-.16 1.67-.28 5.12-.35 8.16s-.04 5.73-.04 5.73z" class="cls-3"/><path d="M158.69 442.29l-.61-3.8c.66 5.12 1.42 10.23 2.19 15.35.01-2.78-.79-7.15-1.58-11.55z" class="cls-3"/></g><g class="cls-2"><path d="M691.28 296.68c0 2.88-.08 5.79-.12 8.69.08-1.46.2-2.9.38-4.38a18.31 18.31 0 00-.26-4.31zM691 313.41v1.54c0 .54 0 .91.06 1.32-.06-.95-.06-1.92-.06-2.86zM690.91 328.53c.12-2.67.16-5.23.16-7.7-.13 2.17-.2 4.72-.16 7.7zM691.43 316.49c-.17.92-.32 1.38-.4-.16v-.06 4.56c.12-1.63.25-3.09.4-4.34zM691.43 316.49c.15-.9.31-2.32.4-2.81-.15.81-.28 1.76-.4 2.81zM694.74 320.38c.08 1.53-.88 1.15-.74 4.18.1 7.1.31 13.19 0 19.83.1 3-1.19 7.76-1.12 10.78 0 7.13 0 25.36.67 14.66.84-16.11 1-26.62 1.28-41.08 0-11.75-.34-23.05-.66-35.07 0-3.36 0-6.5.08-9.67l-.44 13.05c-.25 6.17.93 13.64.93 23.32zM690.58 232.66l.52 4.52a175.65 175.65 0 00.54 20.92l.4-3.16c-.17-4.05-.45-4.51-.56-.91a223.37 223.37 0 00-.34-24.05c-.24.52-.54.43-.56 2.68zM690.8 225.31l.34 4.67a1 1 0 00.07-.17 547.4 547.4 0 00-.4-4.67 1 1 0 01-.01.17zM690.46 360.65a883.6 883.6 0 01-4.86 57.39 18.55 18.55 0 01-.22 4.33c-.34 1.42-.6 2.85-.86 4.27l-1.09 8-.32 2.83v.08c-.1 1.52.11 1.09.38.18s.5-1.95.74-2.75c-.15.51-.48 1.87-.74 2.75-.3 1.25-.59 2.64-.88 4.28-.28 2.44-.66 5-1.12 7.62.33-2.95.75-5.46 1.12-7.62l.51-4.54c0-.43.06-.86.1-1.31a676.86 676.86 0 01-2.89 18.21l-.56 3.82a65.21 65.21 0 01-2.26 11.4l-.67 3.23.21-.61-.33 1.2c-.92 4.53-2 9.06-3 13.61-.52 3-1 6.05-1.6 9.11l-1.24 2.91a37.25 37.25 0 01-.83 5.14c.91-2.35 1.78-4.49 2.5-6.52 1.25-2.92.7-7 2.43-10.42-1.73 3.39-1.18 7.5-2.43 10.42-.72 2-1.59 4.17-2.5 6.52a91.61 91.61 0 01-4.53 14 93.26 93.26 0 014.53-14 37.25 37.25 0 00.83-5.14l1.24-2.91c.6-3.06 1.08-6.14 1.6-9.11a451.56 451.56 0 01-7.19 26.71c-2.2 7.22-4.66 14.27-7.26 21.2s-5.54 13.68-8.79 20.23a175.63 175.63 0 01-10.79 19 122.67 122.67 0 01-13.5 16.94c-9.93 10.43-22.68 18.38-37 21.34a64 64 0 01-21.91.87 54.11 54.11 0 01-20.9-7.63 72.19 72.19 0 01-18-16.4 119.91 119.91 0 01-13-20.52c-.87-1.82-1.84-3.59-2.64-5.44s-1.63-3.69-2.44-5.52-1.49-3.74-2.24-5.6-1.38-3.76-2.07-5.64c-2.65-7.55-5-15.17-6.93-22.87-7.81-30.69-12.14-60.86-15-91.21a774.55 774.55 0 01-2.92-93.2l.89-47.49c.32-17.49 1-34.92 1.68-46.8.14-16-.88-19.86-2.18-19.62s-2.71 4.65-2.87 5.39c-2.44 9.7-3.32 18.47-4.06 29.79s-1.28 25.21-2.63 45.29c.84-13.68 1.28-8.61 1.23 3.08s-.37 30-1.32 43c-1.48 18.75-.84 41.54 1.16 65.33s5.37 48.58 9.09 71.55a367.11 367.11 0 008.24 37.1 249.82 249.82 0 008.05 25.86 183.93 183.93 0 0011.19 24.66 114 114 0 0015.87 22.39A74 74 0 00548 615.7c.54.26 1.06.55 1.62.79l1.69.64 3.38 1.29c1.13.42 2.32.66 3.48 1s2.33.66 3.51.9l3.58.58a28.86 28.86 0 003.59.45l3.6.21c.6 0 1.2.08 1.8.1l1.8-.07a74.27 74.27 0 0028-6 81.85 81.85 0 0024-16.09 124.14 124.14 0 0018.37-22.5 158.13 158.13 0 0013.2-25.86 274.97 274.97 0 008.6-24.88c3.77-11.79 7.62-24.44 9.9-34.22a389.28 389.28 0 007.28-41.65c-1 7.17-2 13.36-3.11 19.75l-1.81 9.87c-.63 3.44-1.4 7.06-2.32 11-1.21 5.27-1.08 3.36-.47-.72.31-2 .69-4.64 1.07-7.17s.77-5 1-6.74a35.21 35.21 0 011.38-5.28 31.71 31.71 0 001.3-5.3c1.21-6.53 1.77-12.62 2.57-19.69.26-3 1.14-2.56 1.25-4.08 1.19-9.64.84-17.21 1.82-23.32l1.83-12.95c.3-2.6.6-5.18.81-7.93l.22-5.27a5.07 5.07 0 01-1.22 2.29c.28-2.54.8-6.12 1-8.66-.24 2.54-.76 6.12-1 8.66a5.07 5.07 0 001.22-2.29c.53-12.75 1-27.44 1.2-41.09l-.09.18a225 225 0 01-2 24c.46-3.55.69-3.1.47 1l-.7 3.09a174.7 174.7 0 011.46-20.89l-.08-4.56c.23-2.24.53-2.12.81-2.58 0-1.56.09-3.13.14-4.71-.32 1.65-.74 5.08-1.11 8.1s-.58 5.55-.58 5.55z" class="cls-3"/><path d="M682.55 442.19l.46-3.81a622.7 622.7 0 01-2.45 15.29c.91-2.67 1.44-7.05 1.99-11.48z" class="cls-3"/></g></svg>