<svg xmlns="http://www.w3.org/2000/svg" id="Layer_1" x="0" y="0" version="1.1" viewBox="0 0 842 842" xml:space="preserve"><defs/><style>.st1{fill:#121011}.st2{opacity:.85}.st3{fill:#0f0c0e}</style><path fill="#bd8675" d="M0 0h842v842H0z"/><path d="M648 514c-1 4 0 8 2 9s6-1 7-5 1-10-1-11-7 2-8 7z" class="st1"/><g class="st2"><path d="M649 511h0zM650 510zM650 510zM650 510zM650 510zM650 510c0-1 0 0 0 0v-1l1-1s1 0 0 0l-1 1-1 2h-1 1l1-1zM648 513v-1c0 1 0 1 0 0v1zM648 514z" class="st3"/><path d="M651 509l3-1h1v-1h1v1h1v6l-1 4-3 3h-3l-1-2v-2-2c0-2-1-1-2-1v1l-1 2h1v3l1 3 1 1h4l2-1 2-3 1-2 1-6-1-2v-2l-2-2h-1 1l2 1v1l-1-1-1-1h-1l-1 1h-1-1 1l-2 1h0v1zM655 508c0-1 0-1 0 0z" class="st3"/></g><g class="st2"><path d="M638 352l4 5-1-3-3-2zM646 361l1 1 1 1-2-2zM653 370l-4-5 4 5zM648 363h-1l2 2-1-2zM648 363l-1-2 1 2zM652 363l2 2 4 6 4 6 2 3 2 4 2 4 3 4 2 2-1-2a116 116 0 00-11-19l-5-6-17-18-2-3-1-1h-1v-1 1h1v1l1 1 4 4 5 5 6 7zM610 317l2 2c2 5 6 8 9 12l-1-2c-2-2-2-2-1 0l-9-14v2zM608 312l2 3-2-3zM666 388a126 126 0 0114 44v8h1v-2 5l-1-3v-1 16l-1 8-1 2v1l-1 4-2 5v3l-1 3-1 2-1 4 2-5c2-1 1-5 3-7-2 2-1 6-3 7l-2 5-6 9 6-9 1-4 1-2 1-3v-3l-7 18a90 90 0 01-47 38 100 100 0 01-46 6l-8-1h-4l-4-1c-11-3-21-8-30-15a112 112 0 01-24-24 213 213 0 01-24-42l-7-14c-8-21-14-42-19-63l-6-33-6-32c-2-11-4-14-5-13l-2 4v21l5 32c-1-10 0-6 2 2l6 30c1 13 6 29 12 45a377 377 0 0022 46l2 3 1 3 4 5 4 6 4 6a120 120 0 0045 36c6 3 13 5 19 6a124 124 0 0059-5 97 97 0 0028-15l7-7 12-15a85 85 0 0012-24c-1 4-1 3-1 0l1-5 1-5 2-8v-14l1-4c0-7-2-12-3-16v-5l-1-4-2-6-1-3-1 1-1-6 1 6 1-1-6-14-8-12c3 5 6 10 7 15 0-2 0-2 1 1l1 2-7-14v-1l-1-1-1-2-2-3 1 2 2 3 2 4z" class="st3"/><path d="M681 443l-1-2v11l1-4v-5z" class="st3"/></g><g class="st2"><path d="M634 532v-1 1zM634 531v-1 1zM634 529v0zM634 530zM634 530v0zM631 530h1l-1-2v-1l-1-1 1 4 1 2v0l-1-2zM635 537h-1v-2c0 1 0 1 0 0v2h1zM635 538l-1-1 1 1zM633 527v-5h-1l1-1h-1v-1h1v1-2-1-1-1h1l-1-1v1l-1 1 1-1v-1l1-1-1 1 1 1h-1v1l1-3 1-3 1-2v-1l2-3 1-2v-1h1c1-2 3-4 6-5l6-4 7-2h3l3-1c1-1 2-2 1-3v-2l-3-1h-4v1h-4c-2-1-4 0-5 1l-6 3-3 2-6 7-5 10v8l1 1-1 1 1 2h-1l1 2v2h1v0h-1l1 4h1v-2h-1l1-1v2l-1 1h1v-1zM633 520v1-1z" class="st3"/></g><path d="M194 514c1 4 0 8-2 9s-6-1-7-5-1-10 1-11 7 2 8 7z" class="st1"/><g class="st2"><path d="M193 511v-1 1zM193 510h-1zM192 509v0zM192 510zM192 510zM192 510c-1 0 0 0 0 0h-1l-1-1s-1 0 0 0l1 1 2 1v1l-1-1v-1zM194 513v-1 1c0 1 0 0 0 0zM194 514z" class="st3"/><path d="M191 509l-3-2s0 1 0 0h-1-2v2l-1 1 1-1v-1l-1 1v5l1 4 2 4c2 1 4 2 5 1l3-1 1-3v-2-3h-2v5l-2 2h-1-1-1l-2-4-1-5v-2-1l1-1-1 1v-1h3v1h2l-1-1v1-1l1 1zM187 507h-1 1z" class="st3"/></g><g class="st2"><path d="M202 351l-5 4 3-2 2-2zM194 359l-1 1-1 1 2-2zM187 368l3-4-3 4zM193 361h-1l-1 3 2-3zM193 361l1-1-1 1zM194 366c-1 1-2 0-3 2l-4 5c-2 1-2 4-3 6l-2 3-2 3-2 5-2 4-1 3 1-2 7-13 3-6 4-6a174 174 0 0118-21l1-2 1-1-1 1-1 1-1 1a100 100 0 00-8 9l-5 8zM230 316l-1 3c-4 3-6 7-9 11l2-1v-1l10-13-2 1zM233 312l-1 3 1-3z" class="st3"/><path d="M176 388a133 133 0 00-14 41l-1 3v8c0 1 0 1 0 0l1-2-1 2v-1a115 115 0 000 16l1 8v3l2 5 1 5 1 3 2 3v2l2 3-1-5c-1-2-3-4-3-7 0 3 2 5 3 7l1 5a205 205 0 01-2-5l-2-3-1-3 7 18a89 89 0 0047 41 104 104 0 0048 6h8l4-1 4-1c12-2 23-7 33-14a113 113 0 0026-25 184 184 0 0026-42l7-15a676 676 0 0030-96l6-33c0-12-1-15-2-15l-3 4c-3 7-4 13-5 21a296 296 0 01-7 33c-1 8-5 20-8 29l-16 43a388 388 0 01-21 45l-1 2-2 3-3 5-4 5-4 6c-8 9-16 17-26 24-10 6-20 11-31 13a114 114 0 01-53-3 87 87 0 01-32-19l-12-12c-5-7-8-15-11-22 1 3 1 2-1 0l-2-5-1-4-1-8-1-13v-3l1-16 1-5 1-4 1-5 1-4-1 2 2-6-2 6 1-2a122 122 0 0111-26l-9 15c2-3 2-2 1 0l-2 2 7-13v-1l1-2 2-1 1-3-1 2-2 3-2 3z" class="st3"/><path d="M161 443v-2l-1 5 1 6v-4-5z" class="st3"/></g><g class="st2"><path d="M210 532h-1 1zM210 531zM210 530zM210 531v-1 1zM210 531h-1 1zM207 530h1l-1-2 1-1-1-1v7l1-1-1-2zM208 537l1-2h-1v2zM208 538v-1h-1l1 1z" class="st3"/><path d="M210 527v-5-2l-1 1 1-1v-1 2-2-2-2h-1v0l1-1-1 1h1v-1l-1-4v-1l-1-2-1-4-1-2-1-1-5-7-6-5-8-5-4-1-4-1-2 2v2l2 2 4 2v-1l3 2c1 2 2 3 4 3l4 3 3 2 4 6 4 6 1 2 1 2v4l1 2-1-2v-1l1 1v2c1 0 0 0 0 0l1 2-1 1v1h1v0h-1l1 4 1-2v-1 2l-1 1 2-1zM210 520v1-2 1z" class="st3"/></g></svg>