<svg xmlns="http://www.w3.org/2000/svg" id="Layer_1" viewBox="0 0 842 842"><defs/><defs><style>.cls-2{opacity:.85}.cls-3{fill:#fefefe}</style></defs><path fill="#593d2b" d="M0 0h842v842H0z"/><g class="cls-2"><path d="M697 567l2 1a2 2 0 01-1 0 1 1 0 00-1-1zM700 569zM702 570h-1a4 4 0 001 0zM700 569c1 0 1 0 0 0l1 1a4 4 0 01-1-1zM700 569zM702 568v1h2a9 9 0 011 0h2a12 12 0 002 0v-1a14 14 0 01-6 0 11 11 0 01-5-2 12 12 0 01-1-1l1 1a3 3 0 002 1l1 1h1zM692 558v1a5 5 0 001 1 12 12 0 001 2 5 5 0 010-1h-1a14 14 0 000-2l-1-2v1zM691 557h0z" class="cls-3"/><path d="M708 570a36 36 0 009-2 1 1 0 011-1 4 4 0 001 0l1-1h0a3 3 0 001 0 10 10 0 011-1 6 6 0 01-1 1h-1l3-1 1-1a4 4 0 011-1 5 5 0 001 0l2-2v-1l1-1a4 4 0 010-1l-1 1-1 2 1-2 1-1a9 9 0 012-2 4 4 0 01-2 2 4 4 0 000 1l-1 1v1l1-2 2-2a27 27 0 004-14 30 30 0 000-4v-4l-1-2-1-2a15 15 0 000-2 18 18 0 00-1-2 15 15 0 00-7-6 15 15 0 00-9-1 33 33 0 00-8 2l-7 4a73 73 0 00-7 4 27 27 0 00-6 6 17 17 0 00-1 2 19 19 0 00-1 3 24 24 0 00-1 2v1a8 8 0 000 2 30 30 0 002 8l3 3a2 2 0 001-1 15 15 0 000-5l-1-2v-2a12 12 0 010-4v2a1 1 0 010-1 4 4 0 010-1 8 8 0 011-3 8 8 0 012-3l8-6 5-3a37 37 0 016-2 39 39 0 015-2 11 11 0 017 1 13 13 0 015 5 25 25 0 012 8 23 23 0 010 8 37 37 0 01-2 8l-1 2v1l-2 2h-1v1l-2 1-1 1v1h-1 1v-1l2-1 1-1a12 12 0 001-1c0-1 0 0 0 0a9 9 0 01-1 2 2 2 0 01-1 1 2 2 0 00-1 0 10 10 0 00-1 1l-1 1h-1l-2 1a4 4 0 01-1 1l-2 1a10 10 0 00-1 0l-1 1h-1 1a21 21 0 01-7 2l4-1a6 6 0 001 0 6 6 0 01-4 1h-1a9 9 0 001 0z" class="cls-3"/><path d="M721 566l2-1a4 4 0 00-2 1z" class="cls-3"/></g><path fill="#edefef" d="M719 559a10 10 0 008-11c-2-6-5-6-11-4s-10 2-9 8a10 10 0 0012 7z"/><g class="cls-2"><path d="M714 559zM713 558zM712 558a2 2 0 001 0 3 3 0 00-1 0zM713 558zM713 558v1zM713 559h-1a5 5 0 01-1-1l-1-1a11 11 0 002 2 12 12 0 002 1 6 6 0 011 0l-1-1h-1zM718 559a4 4 0 00-1 0 3 3 0 002 0h-1zM719 559z" class="cls-3"/><path d="M711 557a9 9 0 01-3-3 4 4 0 010-1 3 3 0 010-1 2 2 0 010 1 10 10 0 01-1-1 1 1 0 010-1v-1-1 0a1 1 0 011-1 2 2 0 01-1 1v1a5 5 0 011-2l4-3a36 36 0 016-1 14 14 0 013-1 5 5 0 013 1 5 5 0 011 3 9 9 0 011 2 7 7 0 01-2 5 15 15 0 01-2 2 9 9 0 01-2 1l-1 2a3 3 0 002 0 17 17 0 003-2c-1 1 0 1 0 0l2-2a6 6 0 002-5 11 11 0 000-2 15 15 0 00-1-3 6 6 0 00-2-3 7 7 0 00-4-1 18 18 0 00-4 1 37 37 0 00-7 2 7 7 0 00-3 3 6 6 0 00-1 2 6 6 0 001 3 8 8 0 01-1-3v2a5 5 0 001 2 5 5 0 000 1 2 2 0 011 0 6 6 0 000 1 3 3 0 000 1h1a11 11 0 002 2 3 3 0 01-1-1 3 3 0 010-1c0 1 0 1 0 0a4 4 0 011 1v1a3 3 0 000-1z" class="cls-3"/><path d="M708 553a8 8 0 01-1-1 1 1 0 001 1z" class="cls-3"/></g><g class="cls-2"><path d="M458 521l4 5a33 33 0 01-2-3 12 12 0 00-2-2zM466 532l1 1c1 1 0 0 0 0l-1-1zM474 541l-4-5a60 60 0 004 5zM468 533c0 1 0 1 0 0l2 3-2-3zM468 533l-1-2 1 2zM473 533l1 3 12 12a23 23 0 013 3 21 21 0 003 3l4 3 5 4c3 2 4 2 1 0a266 266 0 01-25-23 234 234 0 01-19-21l-4-6 3 4 3 4c3 5 7 9 13 14zM434 474l1 2v1c1 6 4 11 6 16v-2l-1-1a187 187 0 01-6-18v2zM433 468l1 4v-1l-1-3z" class="cls-3"/><path d="M494 559a212 212 0 0038 27 16 16 0 013 1l2 1 1 1a67 67 0 009 3c1 0 1 0 0 0a18 18 0 01-2-1l2 1a30 30 0 003 1l7 2a49 49 0 01-7-2l-3-1h-1a139 139 0 0014 4h4l5 1a22 22 0 014 1h3-1 1l12 1h7l3 1a27 27 0 014-1l-6-1h-8 8l6 1a104 104 0 0112 1 44 44 0 01-12-1 27 27 0 00-4 1l-3-1h-7l22 1a277 277 0 0037-3 211 211 0 0035-8 140 140 0 0017-6 95 95 0 0016-10 66 66 0 0014-13 50 50 0 008-18 56 56 0 001-22 84 84 0 00-7-20 146 146 0 00-9-18l-11-16-43-63-18-33c-5-11-8-23-8-36a130 130 0 010-17 187 187 0 013-20l2-10 3-10 4-17c5-25-2-13-3-12-4 7-6 14-8 23l-2 7c0 3-2 5-3 8l-5 21 2-6a20 20 0 010 3v2l-1 4v8l-1 4v5a150 150 0 001 19 85 85 0 006 25 181 181 0 0013 26l33 49 17 25 12 18a124 124 0 0110 18 71 71 0 015 19v9l-1 5v2l-1 1v1a40 40 0 01-4 9 51 51 0 01-6 7 70 70 0 01-15 13c-12 7-26 11-41 14a335 335 0 01-43 7h-28a294 294 0 01-33-3 175 175 0 0032 3c5 0 3 0 0 1h-12l-8-2-16-2-3-2-10-2a29 29 0 01-8-3l-2-1-2-2-4-3-6-3-3-2a4 4 0 011 1l-6-4 6 4a4 4 0 00-1-1 209 209 0 01-27-20l14 13c-2-2-1-2 1 0l2 2-13-11-3-2-1-2a222 222 0 011 2l3 3z" class="cls-3"/><path d="M551 593l-3-1 12 3-9-2z" class="cls-3"/></g><g class="cls-2"><path d="M119 410l2 1a5 5 0 01-1-1h-1zM123 411h1zM127 412a11 11 0 00-2-1 6 6 0 002 1zM124 411h1a5 5 0 01-1 0zM124 411l-1-1a4 4 0 001 1zM125 408h1a31 31 0 015 1c1-1 2 1 2 1l4-1-10-1h-4l-4-1a16 16 0 01-3 0l3 1h6zM104 407h1a9 9 0 005 1l-1-1v1a18 18 0 00-6-2l1 1zM102 406h1-1z" class="cls-3"/><path d="M134 412l8 1 6 1a1 1 0 012 0 5 5 0 001 0h2c1 0 1 0 0 0a5 5 0 001 0 10 10 0 012 0 6 6 0 01-2 0h-1l4 1h1a4 4 0 013 0h1l4 1 2-1 1 1a3 3 0 011 0l-2-1h-2 2l2 1a7 7 0 013 0 5 5 0 01-3 0 3 3 0 00-1 0l-1-1-2 1h6a416 416 0 0069 1 228 228 0 0023-2l23-2 23-5c3-2 4-4 3-5a4 4 0 00-2-2 13 13 0 00-7 0 57 57 0 01-11 1c7 0-5 3-11 2-5-1-10 0-16 1l-17 2-9 1-25 1-26 1a53 53 0 00-7 1h-7l-8-1a99 99 0 00-10 0l10 1-4 1-3-1a31 31 0 00-4 0h-7l-3-1a15 15 0 00-2 0h-1a2 2 0 010 1h-2 2a2 2 0 000-1h-11a18 18 0 016 2v-1l1 1a9 9 0 01-5-1h-1v-1h-2a10 10 0 002 1l1 1z" class="cls-3"/><path d="M154 414h-1l4 1a4 4 0 00-3-1z" class="cls-3"/></g></svg>