<svg xmlns="http://www.w3.org/2000/svg" id="Layer_1" x="0" y="0" version="1.1" viewBox="0 0 842 842" xml:space="preserve"><defs/><style>.st1{opacity:.85}.st2{fill:#fefefe}.st3{fill:#f4ecea}</style><path fill="#3f372f" d="M0 0h842v842H0z"/><g class="st1"><path d="M217 525h0zM220 524h1-1zM223 524h-1 1zM221 524zM221 524h-1 1zM221 522h11v-1a28 28 0 00-16 3l-2 1 2-1 2-1 3-1zM205 532l1-1 2-1 1-1h1-1c-1 0-1 1 0 0l-2 2-2 1s0 1 0 0zM204 533l1-1-1 1zM230 523l11 4h1l1 1 1 1h1l1 1 1 1-1-1-1-1 2 3 1 1 2 2 2 3 1 1v1l-1-2 1 2v1l1 3-1-3v-1-1l-1-1 1 2 1 3c2 6 1 13-1 18a28 28 0 01-43 14l-2-1-2-2-5-7-1-9v-9l4-9v-1h1v-2-1h-2l-2 2-2 2v1l-4 10c1-3 1-2 0 0v10c0 4 2 10 5 14 4 4 9 8 14 10l2 1h3l1 1h2c9 1 17-1 23-6 7-6 12-13 13-22 1-4 0-8-1-12l-1-2v-2a22 22 0 00-5-8l-3-3 3 3 3 4h-1l-1-1-1-1v-1l-1-1-1-2-2-1-1-1-2-2-2-1a21 21 0 00-4-2h-2 1-2 2l-9-1 5 1-1-1h1v1h-1-1l-2-1h-2 3z" class="st2"/><path d="M246 530h-1 1v1l1 1-1-2z" class="st2"/></g><circle cx="225" cy="552" r="13" class="st2"/><g class="st1"><path d="M237 545zM236 544zM235 543h0zM236 544v-1 1zM236 544zM234 545v-1l-1-1h-2l3 1 2 2v0l-1-1h-1zM239 551h-1l1-1-1-1s0 1 0 0v2h1zM238 552v-1 1z" class="st3"/><path d="M233 541l-5-2h-1-1v0h-1 1-4l-1 1h-1v1l1-1-1 1v-1l-2 1 2-1h1l-2 1c-3 1-5 3-6 6-2 2-2 5-1 8 1 4 2 7 5 9s6 3 9 2c4 0 7-1 10-3 1-1 3-2 3-4l2-5-1-2-2 1-1 1v1l-2 3v1l-3 1-5 2-5-1-2-1c-2-1-4-4-4-6-1-2-1-5 1-7l2-3 3-2 3-1-3 1 1-1h7l3 1-2-1 2 1v-1zM225 539h1-2 1z" class="st3"/></g><g class="st1"><path d="M131 289zM129 304v2l-1 1 1-3zM126 318l2-7-2 7zM129 307h-1v4l1-4zM129 307l1-3-1 3z" class="st2"/><path d="M131 311l-1 4-1 4-1 3-1 2-1 4-2 4c-2 3-5 6-5 9l-2 5-1 4-1 3-1 3 1-3 7-17 2-4 1-2 1-2 1-2 1-2 2-5a124 124 0 004-32l1-9-1 12-3 21zM133 231v4l1 19v-3-1l-1-22v3zM133 224v4h1l-1-4z" class="st2"/><path d="M115 344l-5 13-1 7-2 6a199 199 0 00-3 30l-1 4v10h1v-2 2l-1 4 1 7-1-7v-5a318 318 0 002 34v-1 1l1 13 2 8v3l2 5-1-7c0-3-2-6-1-9-1 3 1 6 1 9l1 7a134 134 0 01-2-5v-2-1l-2-8a324 324 0 0018 64 219 219 0 0019 36c8 11 17 22 27 31a114 114 0 0059 27h6l6 1h12a110 110 0 0043-12c14-7 25-17 35-28a156 156 0 0023-36 242 242 0 0016-40 534 534 0 0019-86l3-43c0-15-2-19-3-18l-3 5-3 27a350 350 0 01-5 44c-1 10-4 27-8 38-6 16-11 35-19 55l-14 29a131 131 0 01-31 35l-3 3-3 2-4 3-4 2c-13 7-28 11-43 11h-15l-2-1h-6c-7-1-15-3-22-6-14-6-27-15-37-26-12-12-21-25-28-39-8-15-14-30-20-45l-7-31a452 452 0 01-3-13l-1-10-2-18 1-4-1-21 2-12 1-7 1-4-2 2 1-4 1-4-1 4-1 4 2-2c1-12 4-25 9-36l-8 20v1l-1 3c1-6 3-13 6-18l1-2v-2l2-2 2-4-2 3-1 2-1 1-2 4v1z" class="st2"/><path d="M103 418v-3l1 14-1-11z" class="st2"/></g><g class="st1"><path d="M626 528l-2-1 1 1h1zM622 527zM619 527h0zM621 527h1-1zM621 527h0zM620 529l-1-1h-2-2-2-1l-2 1s-1 0 0 0h9l7 1 1 1-2-2h-5zM637 536l-1-1-1-2h-1l-1-1v1h1l1 2 2 1zM638 537h-1 1z" class="st2"/><path d="M612 527c-4 0-8 2-12 4h-1v1l-2 1c-1 0 0 0 0 0l-1 1-1 1 1-1 1-1-3 3h-1l-1 2-1 1-1 2-1 2-1 1v1l1-1 1-2-1 2-1 1-1 3 1-3v-1l1-1v-2l-1 3-1 3c-2 6-2 13 0 19 5 14 18 23 32 22a28 28 0 0015-5l2-2 2-2 7-8 3-11c1-4 0-7-1-11 0-4-2-7-4-10l-1-1-1-1h-2v1l1 3 1 2v1c2 3 2 6 2 9 0-3 1-2 1 1v6l-1 2c-1 4-3 8-6 11s-6 7-11 9h-1l-2 1h-2-2c-6 1-13-1-19-5-5-4-9-11-10-18l-1-10 1-2a33 33 0 012-5c0 1 0 1 0 0v-2l1-1 1-1h1l1-2 1-1 1-1 2-2 1-1 3-1 1-1h1l1-1-1 1 8-2h1-6 0-1 3l2-1h1v1l2-1h-4z" class="st2"/><path d="M596 534l1-1-1 1h-1l-1 1 2-1z" class="st2"/></g><circle cx="617" cy="556" r="13" class="st2"/><g class="st1"><path d="M606 550zM607 549zM608 548h-1 1zM607 549v-1 1zM607 549h-1 1zM606 547l1-1 1-1 1-1-3 3-2 3 1-1v-1l1-1zM604 555v-1-1c0 1 0 1 0 0v2c0 1 0 1 0 0zM604 556zM609 546l5-2h2v-1 1h3l2 1h1v-1h-1 1v1l1 1-1-1h-1c3 1 5 3 7 7v7c-1 3-3 5-5 6l-7 2a8 8 0 01-6-4l-2-2-1-3-2-2-1 1-1 1v2l1 4h1l3 4c1 2 3 3 6 3h8l3-2c4-2 6-5 7-9s0-9-2-12l-5-4-3-1-4-1 4 1h-2l-1-1h-1l-1 1v-1l-2 1h-1-1-1v1h-1 1l-3 2 2-1c-1 0-1 0 0 0l-2 1-1 1 1-1zM617 544h-1 2-1z" class="st3"/></g><g class="st1"><path d="M708 294l1 8v-4l-1-4zM710 309l1 1v2l-1-3zM714 323l-2-7 2 7zM711 312c0 1 0 1 0 0l1 4-1-4zM711 312v-3 3zM715 314l1 4 1 5 1 2 1 2 2 3 2 4 2 5 1 2 1 3 2 5 3 7 2 3-1-3-8-18-2-4-1-2-1-2-2-4-1-4a128 128 0 01-8-40l1 12 1 9 3 11zM708 235v4l-1 19 1-3c0-3-1-4-1-1l1-22v3zM709 228l-1 4v-4h1zM727 349l7 26a201 201 0 013 34l1 7v3c0 1 0 1 0 0v-3 3-2a239 239 0 01-1 21l-1 6-1 4v4l-1 6-1 6-1 9-1 3v4a151 151 0 003-10l-1 4-2 6-4 13 4-13v-4l1-3 1-9a281 281 0 01-38 99c-8 11-17 21-27 30a105 105 0 01-152-17 166 166 0 01-21-35 262 262 0 01-24-81l-6-43-3-42c-2-15-3-18-4-18l-3 5-1 28 3 41v-7l1 10 6 39a188 188 0 0016 58 231 231 0 0024 45l5 7 3 3 3 3 3 3 3 3 6 6a126 126 0 0039 21c8 3 16 4 25 5h12l7-1 6-1 24-6c16-7 30-17 42-29a181 181 0 0048-89l8-32a230 230 0 00-1-2l1-12 1-5 1-5 1-19v-4l-1-21-1-12-1-7-1-5-1 2v-4l-1-4 1 4v4l1-2c-3-12-7-25-13-36 4 7 6 14 7 21 0-3 0-3 1 1v3l-5-19-1-1-1-2-1-3-2-4 2 3 1 4 1 2v2l1 1z" class="st2"/><path d="M738 423v-4 7a95 95 0 010-3z" class="st2"/></g></svg>