<svg xmlns="http://www.w3.org/2000/svg" id="Layer_1" x="0" y="0" version="1.1" viewBox="0 0 842 842" xml:space="preserve"><defs/><style>.st1{opacity:.85}.st2{fill:#211f1e}.st3{fill:#131413}</style><path fill="#fbdfe9" d="M0 0h842v842H0z"/><g class="st1"><path d="M538 395l1 1-1-1zM540 397h1-1zM543 398h-1 1zM541 397v0zM541 397zM543 395v1l3 2 1 1h3l-6-3-5-3-1-1 1 2 4 1zM530 389h1l2 2c-1-1-1-1 0 0l-3-3v1zM529 388h1-1zM548 401l8 5v1h1l1 1h1l-1-1 1 1 1 1-1-1h-1l3 2h1l1 1h1l2 2h1l1 1h1l-1-1-2-1 2 1 1 1 2 1-2-1h-1l-1-1h-1l4 2a120 120 0 0045 14c6 1 11 0 16-1l16-4 8-3 7-3c4-3 1-5 1-5-5-2-6 1-13 2 4-1-3 3-7 3l-11 2c-4 1-7 3-11 3h-6c-5-1-11-1-16-3-6-1-12-2-17-5l-8-3-6-3-6-2 6 3-2-1-2-1-3-1v-1l-4-1-2-2h-1l-1-1v1l-1-1 1 1v-1l-6-3 3 3s0-1 0 0l-2-2h-1v-1h-1l2 2zM559 408l2 1-2-1z" class="st2"/></g><g class="st1"><path d="M101 382v2l1 2v-2l-1-2zM103 390v1h1l-1-1zM106 397zM104 391c0 1 0 1 0 0v0zM104 391v-1 1zM108 392v2l1 3 1 2 2 4 1 5 4 6c1 2 2 3 1 0l-3-5-2-4-2-4-2-5-2-4v-2l-1-2-2-4a67 67 0 01-2-9l1 7 2 4 3 6zM97 350l1 2v10l1-1-1-1v-6-6l-1 2zM98 346v0z" class="st3"/><path d="M113 412a169 169 0 0016 26l1 2 3 3 1 1c1 1 1 0 0 0v-1 1l2 2 1 1 1 2-1-2-1-1-2-2 3 3 3 4 1 1 4 4 1 1 1 1 5 4 4 3 1 1 2 1-2-2c-1-2-4-2-4-4 0 2 3 2 4 4l2 2a27 27 0 016 5l-4-2-2-3-2-1-1-1-4-3 5 5 6 4a147 147 0 0085 27c17 1 34-1 50-5a93 93 0 0056-44 124 124 0 0016-47l2-24-2-8c0-2-1-2-2-2l-2 3-2 7-1 8v4l-1 5-1 6-2 7c2-7 2-4 1 1l-1 5-1 3v3l-1 2-1 3-3 4-1 4-2 3-4 6-9 14a85 85 0 01-18 18l-4 2-3 2a108 108 0 01-42 11l-25 2c-17 0-35-4-51-10l-24-11-4-3-3-2-7-5-4-4-2-2-2-1-4-4-3-3 3 4 4 3 2 1 2 2 4 3c2 2 1 2-1 1l-6-4-3-4-2-2-2-1-4-4v-2l-3-2-2-2-4-4-3-5-2-4-2-2v2l-2-4 2 4v-2l-3-4-2-4-3-5-3-4 5 11v-1l1 1v2l-1-2-2-3-2-4-1-2v-2l-1-2a47 47 0 002 6l1 1z" class="st3"/><path d="M136 446l-2-1 3 3 2 3-1-3-1-1-1-1z" class="st3"/></g><g class="st1"><path d="M232 444l1 1v-1h-1zM235 445zM238 446h-2 2zM235 445v1h1l-1-1zM235 445zM237 444v1h2l2 1h1l-2-1h-2l-1-1h-2l-1-1-1-1-2-1 1 1h1l2 1 2 1zM224 434l1 1 1 1 1 2v-1h-1l-2-4v1zM224 433z" class="st2"/><path d="M244 448h5l3-1 3-1h1l1-1h2l1-1-1 1h-1l3-2 2-1 1-1 2-1 1-2 1-1-1 1-2 1 2-1 1-1 2-2-2 2-1 1-1 2 2-2 1-2c4-5 6-11 6-17-1-6-3-11-8-15a41 41 0 00-16-10c-3-1-6-2-10-1l-9 2-7 7-4 8a29 29 0 00-2 15l1 2v2l1 1v1l1 1 1 1 1-2v-1-2-1-10c-1 3-1 2-1 0l1-4 2-4 7-8a15 15 0 018-4h6l1 1h2l8 4 7 5 5 7 1 9-3 9-1 1-1 2-2 2h1l-1 2h-1l-2 1-1 2-1 1h-1l-2 1-2 1h-2l-1 1h-1-1 1-8l2 1h3c-1 0-1 0 0 0h-2-2l-1-1h-1l2 1 1 1z" class="st2"/><path d="M259 445h-1l1-1h2l-2 1z" class="st2"/></g><circle cx="247" cy="421" r="9" fill="#1f2020"/><g class="st1"><path d="M253 427l-1 1 1-1zM252 428zM251 429v-1 1zM252 428h-1 1zM252 428zM252 429l-2 1-1 1 3-2 1-1 1-1-1 1-1 1zM255 424l-1 2v-1l1-1zM255 424z" class="st2"/><path d="M249 430h-4l-1-1v0h1-2l-1-1h-1v-1 0h-1 1v1h1l-2-1-2-5 2-5 5-4 5 1 3 3 1 3v2l1 2 1-1v-1-3c0 1 0 0 0 0l-1-3-3-4-5-1-3 1c-3 0-5 2-6 4-1 3-2 5-1 8l2 3 2 2 2 1-2-1h1v1h3l1 1h1v-1h3-2c1 0 1 0 0 0h2v-1 1-1l-1 1zM244 429h-1 1z" class="st2"/></g><g class="st1"><path d="M739 379l-1 3 1-2v-1zM737 386v1c0 1 0 0 0 0v-1zM735 393l1-4-1 4zM737 387c0 1 0 1 0 0l-1 2 1-2zM737 387l1-1-1 1zM740 390l-2 2-1 4-1 5-3 4-1 3-1 3v1l4-9 2-5 1-2 1-2 1-4 1-4 1-4v-4l1-2v-3l-1 6-2 11zM743 349l1 2-1 3v5l1-5v-6l-1 1zM744 346v0zM730 406a102 102 0 01-20 28l-1 1c-1 0 0 0 0 0l1-1-1 1a22 22 0 00-4 4l2-3 2-1v-1l-3 3-3 3-2 1-4 3-1 1-3 2-3 2-3 3h-1l-2 1h3c2-1 2-3 4-3-2 0-2 2-4 3h-3l-3 2-3 1 3-1 3-1 2-2h1l3-3-5 3-6 3a158 158 0 01-58 16l-21 1a275 275 0 01-66-8l-19-8a52 52 0 01-23-32 177 177 0 01-7-42c-1-7-2-9-3-8l-3 2c-1 5-2 9-1 14v12l1 3v3l2 5 1 4v3l1 2 1 3v3l1 2 1 3c1 5 3 9 6 14 3 4 7 9 12 12 4 4 10 7 15 9a137 137 0 0034 9c8 2 17 3 25 3h25c17 0 34-3 50-7a113 113 0 0028-13l2-1 2-1 3-1 4-2a86 86 0 000-1l5-5 2-1 2-1 4-3 3-4 2-1 4-5 3-4 4-4 2-3 2-2h-2l3-3-3 3h2l8-18-3 5-3 5v1l-1 1 2-5 3-4 1-2 1-1 1-2-3 3-1 2zM707 436l1-1-5 5 4-4z" class="st3"/></g></svg>