<svg xmlns="http://www.w3.org/2000/svg" id="Layer_1" x="0" y="0" version="1.1" viewBox="0 0 842 842" xml:space="preserve"><defs/><style>.st1{opacity:.85}.st2{fill:#020202}.st4{fill:#090a0a}.st5{fill:#060707}</style><path fill="#eaccca" d="M0 0h842v842H0z"/><g class="st1"><path d="M600 386l1-1h-1v1zM602 385zM603 385h-1 1zM602 385zM602 385h-1 1zM602 383h3l2 1h2c1 0 0 0 0 0l-2-1h-1-3l-4 1h-1 3l1-1zM593 389h1l1-1v-1 1h-1l-1 1s0 1 0 0zM593 390v-1 1z" class="st2"/><path d="M607 385l6 4h1v1h1v1h0v-1l1 2 1 1v1l1 1 1 1v-1 2l1 2-1-2v-1l-1-1 1 2v1c1 4 1 7-1 11-1 3-3 6-6 8l-5 1h-5l-5-3-1-1h-1l-1-1-1-1a11 11 0 01-2-9 39 39 0 013-10v-3h-2l-2 3-3 5 1-1v2l-2 5c0 3 0 6 2 9v1h1l1 1 1 2 3 1 2 2 4 2 8 1 7-4 5-5 3-7-1-8-1-4a16 16 0 000-1c1 2-1 0-2-1v-1l-2-2v-1l-3-1-1-2h-1l-1-1 1 1-6-2h1l1 1 1 1v-1l1 1-3-1-1-1 1 1z" class="st2"/><path d="M615 391v-1l1 2-1-1z" class="st2"/></g><circle cx="605" cy="400" r="8" fill="#040505"/><g class="st1"><path d="M612 396v-1 1zM611 395zM611 394v0zM611 395zM611 395zM610 395l-1-1h-1l2 1 1 1v0l-1-1zM613 400v-1l-1-1c0 1 0 1 0 0v2h1zM613 400z" class="st4"/><path d="M609 393l-3-1h-1-1 1-3-1v1l1-1-1 1h-1 1v-1h1l-2 1c-3 2-5 5-4 9l3 5c2 2 4 2 6 2l6-2 2-2 1-4-1-1h-1v2l-2 2h1l-2 2-3 1a6 6 0 01-5-1l-3-5 1-5 1-2 2-1h2c0-1 0 0 0 0l1-1h1v1h2-1l2 1-1-1h1v0zM605 392h-1 1z" class="st4"/></g><g class="st1"><path d="M462 409l2 2-1-1-1-1zM466 413l1 1-1-1zM471 417l-2-2 2 2zM468 414h-1l2 1-1-1zM468 414l-1-1 1 1zM471 412l1 1 6 4 3 3 5 2-6-4-7-5-10-7-3-2 3 3 8 5zM444 393l2 1 5 5v-1h-1l-6-7v2zM443 390l1 2v-1l-1-1z" class="st5"/><path d="M481 423l5 3 4 3 9 6h2l1 2 2 1 2 1v-1l-1-1 1 1 1 1 3 2-3-2h-1l-1-1 6 4h1l4 2 1 1 5 2 4 1v1h2l-2-2-3-1 3 1 2 2c2 1 4 1 5 3l-5-3h-2v-1l-4-1 5 2 5 2c10 4 21 7 32 9l2 1h2l4 1h9a168 168 0 0054-4 490 490 0 0079-40l14-13c4-5 4-7 3-8h-4l-9 6c-4 4-9 8-14 10 5-2 4-1 0 2l-13 8-11 5-11 6c-7 4-15 9-23 11l-13 4a226 226 0 01-56 6l-20-3-5-1-5-1-5-1-4-1-7-2-5-3-8-3-6-3 6 3 8 3c1 1 1 1-1 1l-2-1-3-1-3-2-7-2-1-2c-3-1-6-1-8-3l-4-3-3-1-1-1v1l-3-2 3 2v-1l-7-4c-2-2-5-2-7-3l7 5h1l1 1-7-4-1-1-1-1-1-1 2 2 1 1z" class="st5"/><path d="M507 439h-1l5 2-4-2z" class="st5"/></g><g class="st1"><path d="M206 413h2-2zM209 413zM212 413h-2 2zM210 413zM210 413l-1-1 1 1zM210 409l1 1 4-1 1 1c2-1 5-2 3-2l-7 1-7 1h-1 2c1 1 3-1 4-1zM194 412h5-1l-4-1v1zM193 412h1v-1l-1 1zM218 412h14l-1-1 1 1h2-3l4 1h6l1-1 1 1 1-1h-3 3l2 1-2-1-1 1-1-1-1 1h5l32 1 18 2c11 1 22 0 34 2l17 1c5-2 2-6 2-6-3-4-6-2-13-4 5 1-4 2-9 0-6-4-16-1-24-2h-7c-13-2-25 0-38-1l-10 2-7-1-7 1 7-1c2 0-1 2-2 2l-2-1-4 1-1-1c-2 1-3 2-4 1h-5l1 1h-2 2l-1-1-7 1v1h4c-1 0-1 0 0 0h1-6l3 1zM232 412h0z" class="st2"/></g></svg>