<svg xmlns="http://www.w3.org/2000/svg" id="Layer_1" viewBox="0 0 841.89 841.89"><defs/><defs><style>.cls-2{opacity:.85}.cls-3{fill:#090a0a}.cls-4{fill:#211f1e}</style></defs><path fill="#f9dec9" d="M0 0h841.89v841.89H0z"/><g class="cls-2"><path d="M451.06 384.57l1.7 3.25a11.33 11.33 0 01-.57-1.79 3.57 3.57 0 00-1.13-1.46zM454.34 390.83l.3.57.34.45-.64-1.02zM457.59 396.32a31.79 31.79 0 00-1.58-2.84 18.35 18.35 0 001.58 2.84zM455.38 391.74c.06.41 0 .65-.39.13l1 1.63a12.09 12.09 0 01-.61-1.76zM455.38 391.74c-.06-.4-.24-1-.27-1.21a10 10 0 00.27 1.21zM459.12 391.54c.41.52-.51.84.28 1.86 1.67 2.5 3.26 4.54 4.6 7 .79 1 .81 3.29 1.61 4.31 1.66 2.5 6.44 8.61 4.24 4.68-3.35-5.89-5.69-9.66-8.74-14.92-2.69-4.16-5.36-8.12-8.07-12.41-.72-1.22-1.28-2.42-1.86-3.63l2.23 5.05c1.01 2.41 3.59 4.59 5.71 8.06zM438.7 360.54l1.2 1.53a27.23 27.23 0 004.1 7.83l-.21-1.39c-.86-1.48-1.19-1.53-.66-.09a50.62 50.62 0 00-4.32-9.19c-.16.31-.44.41-.11 1.31zM437.77 357.53l1 1.7a.42.42 0 000-.1l-1.06-1.68z" class="cls-3"/><path d="M464.82 407.82c4.08 7.45 7.84 14.5 11.48 21.41a3.57 3.57 0 011.13 1.46 11.55 11.55 0 00.57 1.78l1.58 3c.21.34.42.68.64 1 .4.51.44.27.37-.14a9.61 9.61 0 01-.26-1.22c0 .23.2.81.26 1.22a12.24 12.24 0 00.64 1.74c.53.89 1.12 1.81 1.64 2.81a14.51 14.51 0 01-1.64-2.81l-1-1.63a7.35 7.35 0 01-.34-.44l1.8 3.45 1.91 3.42a14.34 14.34 0 001 1.34 16.28 16.28 0 012.66 4.18l.83 1.13-.09-.27.25.48.87 1.19.95 1.15 1.91 2.29c1 .82 2.11 1.6 3.12 2.45 0 0 .39.88.61 1.28a7.12 7.12 0 011.95 1.15c-.58-.94-1.09-1.81-1.59-2.58-.56-1.28-2.75-1.43-3.16-3.18.41 1.75 2.6 1.9 3.16 3.18.5.77 1 1.64 1.59 2.58a26.48 26.48 0 014.45 4.41 12.27 12.27 0 01-4.45-4.41 7.12 7.12 0 00-1.95-1.15c-.22-.4-.61-1.28-.61-1.28-1-.85-2.11-1.63-3.12-2.45a86 86 0 008.43 8.31 97 97 0 0033 18.37 111.19 111.19 0 0038.21 5.58 100.58 100.58 0 0021.46-2.9 85.62 85.62 0 0019.77-7.72c.78-.44 1.6-.87 2.34-1.32l2.07-1.43 4.08-2.86 8-5.73 15.71-11.47c10.47-7.61 21.05-15.1 32.71-22.25 8.9-5.55 24.25-17.5 32.29-23.6 9.91-9.34 1.83-8.47 1.18-8.28-8.75 2.12-12.81 7.56-27.6 16 9.94-5.92-5.49 6.89-15.63 11.41-14.76 6.39-31 22.13-47.17 32.92-2 1.35-4 2.82-6.13 4.39l-3.23 2.4c-.55.4-1.11.84-1.67 1.23l-1.64.95c-.75.38-1.43.8-2.21 1.17l-2.35 1.1-1.16.56-1.2.48-2.37 1c-1.62.58-3.22 1.18-4.84 1.7s-3.26 1-4.93 1.41a96.83 96.83 0 01-62.25-4.86c-7.3-3.08-13.75-5.89-19.48-9.5a64 64 0 01-10.37-9.54A107.17 107.17 0 01486.36 439l1.11 1.77c.36.57.78 1.09 1.16 1.62.78 1.05 1.48 2.1 2.34 3.07a83.52 83.52 0 005.62 6.26c1.51 1.52.77 1.2-.63.26a24.72 24.72 0 01-2.31-1.81 25.73 25.73 0 01-2-1.86c-.92-.87-1.27-3-2.14-3.88a36.34 36.34 0 00-2.38-3.1c-.78-1.05-1.6-2.11-2.44-3.28-.81-1 .11-1.35-.29-1.85-2.13-3.48-4.71-5.65-5.71-8.07-.81-1.81-1.53-3.44-2.24-5-.47-1-1-2-1.54-3l-1.27-1.84a2.11 2.11 0 01-.41 1.37c-.47-1-1-2.41-1.47-3.38.46 1 1 2.41 1.47 3.38a2.11 2.11 0 00.41-1.37 531 531 0 01-9.54-14.5v.11a51.2 51.2 0 014.32 9.18c-.53-1.42-.21-1.39.66.1l.21 1.39a27 27 0 01-4.07-7.83l-1.2-1.54c-.34-.89-.05-1 .08-1.3l-1-1.71a54.31 54.31 0 001.72 5.63z" class="cls-3"/><path d="M481.26 438.22l-.84-1.39 1.51 2.9 1.61 2.88c-.18-1.26-1.28-2.79-2.28-4.39z" class="cls-3"/></g><g class="cls-2"><path d="M553.33 465.86a1.19 1.19 0 01-.6.25 2.69 2.69 0 01.44.05c.18-.03.18-.16.16-.3zM552.13 466.23h-.11l-.09.06zM550.87 466.64a2.72 2.72 0 00.72-.19 2 2 0 00-.72.19zM552 466.51c-.1-.06-.15-.12-.05-.2l-.34.14a1.18 1.18 0 01.39.06zM552 466.51c.1.05.24.08.3.11a1.82 1.82 0 00-.3-.11zM552.05 468.23c-.14.08-.2-.39-.46-.22a11.77 11.77 0 01-1.71.79c-.24.19-.81-.2-1.06 0-.54.32-2.3 1.41-1.2 1.1a17.64 17.64 0 002-.69c.56-.22 1.11-.41 1.75-.62l.77-.34c.36-.13.7-.25 1-.39a6.25 6.25 0 00.93-.48 1.37 1.37 0 00.66-.77 6.78 6.78 0 00.29-1.07 2.47 2.47 0 01-.64 1.28c-.3.2-.56.41-.91.68a4.74 4.74 0 01-1.42.73zM554.42 460.25c0 .15.07.46.07.46a2.71 2.71 0 00-.39 2l.27-.28c0-.38-.09-.45-.25-.12a6.54 6.54 0 00.69-2.23c-.14.01-.28-.03-.39.17zM554.86 459.62l-.05.45v-.46z" class="cls-4"/><path d="M548 467.9a15.17 15.17 0 01-5.4.66c-.14.09-.24.19-.42.12a1.45 1.45 0 00-.4-.19 6.32 6.32 0 01-.76-.11h-.28c-.15 0-.12.12 0 .2a2.76 2.76 0 01.25.21 3.1 3.1 0 01-.25-.21 1.43 1.43 0 00-.39-.2 1.85 1.85 0 01-.72-.12 3.37 3.37 0 01.72.12H540.92a11 11 0 01-1.69-.41l-.36-.05a1.19 1.19 0 01-1-.43l-.29-.12v.06l-.09-.08a8.43 8.43 0 01-1.17-.57 7.15 7.15 0 01-.91-.14l-.14-.36a.86.86 0 01-.54 0c.13.24.24.5.37.69.16.37.83-.13.95.43-.12-.56-.79-.06-.95-.43-.13-.19-.24-.45-.37-.69a1.74 1.74 0 01-1-1 1.74 1.74 0 011 1 .86.86 0 00.54 0l.14.36a7.15 7.15 0 00.91.14 16.65 16.65 0 01-2.18-1.38 17.39 17.39 0 01-5.12-6.23l-.42-.92c-.14-.3-.23-.63-.35-1a12.94 12.94 0 01-.53-1.94 4.94 4.94 0 01.38-3.53c.62-1 2-1.45 3.43-1.75a33.72 33.72 0 014.48-.5 43.7 43.7 0 004.55-.52l1.13-.19 1-.14a16.72 16.72 0 012-.17 9.42 9.42 0 013.67.62 4.82 4.82 0 012.49 2.14A9.53 9.53 0 01552 454a11.48 11.48 0 01.28 3.41c.2 1.29.82 1.81 1.45 1.91a1.9 1.9 0 001.29-.27 3.63 3.63 0 001.48-2.84 22.64 22.64 0 00-.26-4.94c.16.78 0 1.05-.09 1a4.51 4.51 0 01-.64-1c-.16-.27-.27-.62-.48-1s-.4-.7-.59-1.09-.48-.72-.69-1.1-.49-.7-.69-1.07a6.22 6.22 0 00-2.83-2.45 12.08 12.08 0 00-1.93-.62 15.23 15.23 0 00-2-.23 20.93 20.93 0 00-4 .34l-1.86.34a12.67 12.67 0 01-1.61.21c-1.07.07-2.18.32-3.51.49a25.61 25.61 0 00-5.42.87 15.8 15.8 0 00-1.49.54 8.77 8.77 0 00-1.57.86l-.84.64c-.26.24-.5.51-.74.78a7.32 7.32 0 00-1.16 1.88c-.12.33-.2.67-.29 1a5.51 5.51 0 00-.17 1V454l.05.41a15.8 15.8 0 00.28 1.63l.41 1.48a25 25 0 002.67 5.48 13.6 13.6 0 004.56 3.83 29.18 29.18 0 003.14 2.16l1.12.5c.36.15.76.23 1.12.33a12.56 12.56 0 002.13.34c-.75-.16-1.42-.24-2.08-.45l-1-.3c-.35-.13-.71-.29-1.11-.46-1-.48 1-.17 1.71-.05.33 0 .62.67 1 .68a7.9 7.9 0 002.09.19c.33-.05.21.41.37.38a4.36 4.36 0 001.4-.18 2 2 0 011.07-.15 12.18 12.18 0 001.35.22 5.63 5.63 0 00.82 0c.18-.05.35-.12.53-.18a1 1 0 01-.29-.47h.88-.88a1 1 0 00.29.47 33.47 33.47 0 003.82-1.63 4.87 4.87 0 01-2.31.33c.36 0 .35.16 0 .29l-.35-.17a3.11 3.11 0 012-.43l.37-.28c.22 0 .26.15.33.26l.42-.16a6.47 6.47 0 00-1.55-.17z" class="cls-4"/><path d="M540.29 468.36h.37l-.72-.14-.71-.21a1.24 1.24 0 001.06.35z" class="cls-4"/></g><path fill="#1f2020" d="M544.54 464.75a6 6 0 01-8.15-2.44c-1.58-2.92.3-4.4 3.22-6s5.79-2.66 7.37.26a6 6 0 01-2.44 8.18z"/><g class="cls-2"><path d="M546.94 463c.08-.1.14-.21.21-.31a.71.71 0 01-.17.11c-.06.07-.04.13-.04.2zM547.33 462.41v-.12zM547.55 461.8a1.3 1.3 0 00-.13.3 1 1 0 00.13-.3zM547.28 462.24c.05 0 .09 0 .09.05v-.19a.93.93 0 01-.09.14zM547.28 462.24l-.13.06a.52.52 0 00.13-.06zM546.58 461.73c0-.06.21 0 .21-.07a5.56 5.56 0 01.08-.75c0-.11.27-.22.25-.34 0-.29-.27-1-.29-.58a5.94 5.94 0 01-.21 1.43 5 5 0 01-.35 1.27 1.31 1.31 0 01-.24.28 3.88 3.88 0 00.38-.34c.18-.17.09-.56.17-.9zM544.9 464.75l.12-.17a.94.94 0 00.71-.48h-.17c-.13.11-.1.18.05.13a2.75 2.75 0 00-.89.44s.08.1.18.08zM544.57 464.77l.15-.11-.14.13z" class="cls-4"/><path d="M547.69 460.45a7.1 7.1 0 000-2.35c-.06 0-.12-.07-.12-.15a.51.51 0 000-.2c0-.11-.06-.21-.09-.32l-.06-.1c0-.05-.07 0-.09 0a.69.69 0 01-.05.13l.05-.13a.67.67 0 000-.2 1.22 1.22 0 01-.14-.28.57.57 0 01.14.28l.09.17a5.48 5.48 0 00-.27-.71l-.09-.14c-.12-.14-.24-.28-.21-.44l-.07-.12c-.12-.16-.23-.33-.36-.48s-.27-.1-.39-.16a.86.86 0 000-.17.47.47 0 01-.26 0l.13.31c0 .17.36 0 .32.27 0-.26-.31-.1-.32-.27l-.13-.31a1.36 1.36 0 01-.51-.38.52.52 0 01.51.38.47.47 0 00.26 0 .86.86 0 010 .17l.39.16a3.22 3.22 0 00-1-.73 4.93 4.93 0 00-3.76.12 28 28 0 00-3.39 1.59 11.79 11.79 0 00-1.82 1.15 4.11 4.11 0 00-1.42 1.9 3.67 3.67 0 000 2.41 6.81 6.81 0 001 1.91 9.77 9.77 0 003.51 2.8 5 5 0 002.36.38 7 7 0 002.31-.53c.67-.5.63-.91.48-1.17a1.42 1.42 0 00-.5-.45 2.13 2.13 0 00-1.28-.14 2.83 2.83 0 01-1.62-.15c.47.17.31.3-.13.31a1.78 1.78 0 01-1.4-.66 8.36 8.36 0 00-1.51-1.52 4.68 4.68 0 01-.75-.84 2.19 2.19 0 01-.4-1 2.07 2.07 0 010-.79 6.58 6.58 0 012.31-2 13.23 13.23 0 013.56-1.75 7.74 7.74 0 011.54-.44 1.34 1.34 0 01.74.48 8.16 8.16 0 01.88.95 3.41 3.41 0 00-.83-1c-.23-.19.36-.11.57.07s0 .34.07.39a5.48 5.48 0 00.48.53c.09.08-.14.16-.09.2.17.28.54.46.52.7a2 2 0 010 .49v.28l.07.19a.55.55 0 01.25-.1c0 .09-.05.23-.06.33 0-.1.05-.24.06-.33a.55.55 0 00-.25.1 4 4 0 01.23 1.56 3 3 0 01.28-.92c-.06.14-.12.12-.13 0l.13-.12a.86.86 0 01-.13.82v.19c0 .06-.13.06-.2.07s0 .12 0 .18a1.34 1.34 0 00.25-.27 1.67 1.67 0 00.34-.15z" class="cls-4"/><path d="M547.33 457.15a.69.69 0 01.07.15 4.31 4.31 0 00-.22-.6c-.06.15.05.3.15.45z" class="cls-4"/></g><g class="cls-2"><path d="M185.6 427l1.86.33a3.64 3.64 0 01-.89-.47c-.39-.19-.63-.02-.97.14zM189.18 427.61l.33.06h.3zM192.47 427.84a8.84 8.84 0 00-1.66-.2 5.1 5.1 0 001.66.2zM189.91 427.23c.18.17.26.34-.09.4h1a3.73 3.73 0 01-.91-.4zM189.91 427.23c-.17-.16-.46-.33-.55-.43a3 3 0 00.55.43zM191.23 424c.35-.06.13.88.81.76a25.29 25.29 0 014.33-.08c.68-.12 1.55 1.08 2.22 1 1.56 0 5.62-.78 3.32-1-3.45-.36-5.73-.43-8.84-.7-2.56 0-5 .14-7.66.07a12 12 0 01-2-.43c.86.29 1.74.58 2.72.89 1.23.4 3.01-.6 5.1-.51zM172 424.18l1-.16a7.42 7.42 0 004.45.88l-.59-.59c-.88-.08-1 .16-.29.5a13.58 13.58 0 00-5-1.41c.01.28-.06.6.43.78zM170.5 423.32l1 .08a.31.31 0 000-.08h-1zM199.49 428c4.33.59 8.41 1.1 12.38 1.71.33-.14.57-.33 1-.17a3.6 3.6 0 00.89.46l1.73.27h.64c.34-.07.26-.23.08-.39a3.81 3.81 0 01-.57-.41c.1.09.39.25.57.41a3.46 3.46 0 00.91.37 8 8 0 011.66.14 5.27 5.27 0 01-1.66-.14h-1l-.3.06 4 .56h.84a3.55 3.55 0 012.49.48l.71.11-.13-.1.26.12 3 .44c.67-.11 1.36-.25 2-.33l.63.53a2.42 2.42 0 011.17-.38c-.51-.33-1-.69-1.42-.92-.63-.53-1.6.8-2.31-.18.71 1 1.68-.35 2.31.18.44.23.91.59 1.42.92a5.73 5.73 0 013.14.74 3.9 3.9 0 01-3.14-.74 2.42 2.42 0 00-1.17.38l-.63-.53c-.68.08-1.37.22-2 .33 1.95.32 3.94.53 6 .8 13 1.8 25.19 2.42 38.87 2.94l11 .37c3.6 0 7.16.2 10.69.16a114.22 114.22 0 0020.45-1.96 290.67 290.67 0 0020.94-4.45 29.82 29.82 0 004.91-1.87c.89-.47 1.8-1 2.73-1.5s1.83-1.21 2.74-1.82a30.48 30.48 0 008.53-9.29 8 8 0 00.46-5.05 2.7 2.7 0 00-.71-1.21 1.07 1.07 0 00-.91-.45 10.17 10.17 0 00-2.73 1 25.29 25.29 0 00-2.81 1.93c-.79.63-1.46 1.31-2.26 2.08a17.69 17.69 0 01-7.65 4.64c1.33-.44 1.8-.5 1.78-.18s-.63.94-1.66 1.57a14 14 0 01-1.75 1c-.68.3-1.41.59-2.17.84a14.28 14.28 0 01-4.61.68c-4.23-.36-8.61.72-13.37 2s-9.83 2.52-14.73 2.54c-1.21 0-2.45.14-3.76.28s-2.67.23-4.13.3H287.22c-1.87 0-3.72 0-5.56.1s-3.7 0-5.54.09-3.7.13-5.56.13c-3.72 0-7.46.16-11.29 0l-5.79-.14c-2-.08-3.93-.24-5.94-.39a40.49 40.49 0 00-6.07.12c-1.94.12-3.8.31-5.62.39-2.63-.07-5.39-.75-7.52-1a58.59 58.59 0 00-9.07-.2c3.11.15 5.39.14 8.84.37 2.3.18-1.72 1.05-3.27 1.15-.67.15-1.58-1-2.26-.88a24.74 24.74 0 00-4.31.25c-.68.14-.49-.81-.83-.74-2.1 0-3.83 1-5.13.58-1-.27-1.87-.53-2.74-.79a10.28 10.28 0 00-1.69-.28l-1.16.1a2.07 2.07 0 01.38 1.07c-.54-.12-1.29-.43-1.83-.55.54.12 1.29.43 1.83.55a2.07 2.07 0 00-.38-1.07c-2.8.22-6 .32-9 .28v.09a14.72 14.72 0 015.07 1.3c-.74-.31-.61-.56.28-.51l.6.56a7 7 0 01-4.47-.76l-1 .18c-.46-.2-.4-.5-.46-.77l-1-.07a15.72 15.72 0 002.76 1.57z" class="cls-4"/><path d="M217.12 430.24h-.83l3.32.49a3.47 3.47 0 00-2.49-.49z" class="cls-4"/></g></svg>