<svg xmlns="http://www.w3.org/2000/svg" id="Layer_1" x="0" y="0" version="1.1" viewBox="0 0 841.9 841.9" xml:space="preserve"><defs/><style>.st1{opacity:.85}.st2{fill:#211f1e}.st3{fill:#1f2020}</style><path fill="#b07d62" d="M0 .1h841.9V842H0z"/><g class="st1"><path d="M221.4 499.6l.8-.2h-.4c-.2 0-.3.1-.4.2zM222.9 499.2h.1l.1-.1-.2.1zM224.3 498.9c-.2 0-.5 0-.7.1.2 0 .5-.1.7-.1zM223.1 498.9c.1 0 .2.1 0 .2l.4-.1c-.1 0-.2 0-.4-.1zM223.1 498.9c-.1 0-.2-.1-.3-.1.2.1.2.1.3.1zM223.2 497.2c.1-.1.2.4.5.2l1-.4c.3-.1.7-.1 1-.2.3-.1.8.5 1.1.4.7-.1 2.8-.4 1.6-.6-1.5-.2-3-.1-4.4.2-1.2.4-2.3.8-3.4 1.5-.3.1-.6.3-.9.4.4-.1.8-.2 1.3-.3.4-.1.7-.3.9-.5.4-.3.8-.6 1.3-.7zM216.4 502.6l.2-.4c.3-.1.6-.3.9-.5.2-.2.4-.5.7-.7h-.4c-.3.3-.2.4.1.3-.7.3-1.4.7-1.9 1.3.1 0 .2.1.4 0zM215.6 502.9l.3-.4-.3.4z" class="st2"/><path d="M227.3 498.4c1.8.2 3.6.8 5.1 1.8.2 0 .3 0 .4.1.1.1.2.3.3.4.2.1.4.3.6.5l.2.1c.1 0 .2 0 .1-.1 0-.1-.1-.2-.1-.3 0 .1.1.2.1.3.1.1.1.3.2.4.2.1.4.3.5.5-.2-.1-.4-.3-.5-.5l-.4-.2h-.1c.4.4.9.8 1.2 1.2.1.1.2.2.3.2.3.3.6.6.6.9l.2.3v-.1.1c.2.4.5.7.6 1.1.2.2.5.4.7.6 0 0-.1.2-.1.4.2.1.3.2.4.4 0-.3.1-.5.1-.8.1-.4-.7-.4-.5-.9-.2.5.6.5.5.9 0 .2-.1.5-.1.8.3.4.3.9.2 1.4-.3-.4-.4-.9-.2-1.4-.1-.2-.2-.3-.4-.4 0-.1.1-.4.1-.4-.2-.2-.4-.4-.7-.6a13.66 13.66 0 01.6 10.4c-.9 2.6-2.7 4.8-5 6.2-2.4 1.6-5.4 2.1-8.2 1.6-2.5-.5-4.9-1.7-6.7-3.5-.9-.9-1.6-2-2-3.2-.4-1.2-.6-2.5-.4-3.7.1-1.2.3-2.4.5-3.5.3-1.1.7-2.2 1.3-3.2.4-1.2.1-1.9-.4-2.3-.4-.3-.8-.4-1.3-.4-.6.1-1.1.3-1.6.6-.4.3-.8.8-1.1 1.2-.8 1.4-1.5 2.9-2 4.4.6-1.4.7-.8.6.4-.1 1.5-.3 3.1-.6 4.6-.5 2.2.4 4.9 2.2 7 1.9 2.1 4.1 3.7 6.7 4.9 1.3.6 2.8 1 4.2 1.1 4.1.7 8.4-.5 11.6-3.1 3.3-2.7 5.5-6.5 6.2-10.6.2-2.1-.1-4.2-.9-6.1-.3-1.3-.7-2.5-1.2-3.8-.7-1.4-1.8-2.6-3.1-3.5 1.2 1 2.2 2.1 3 3.5.6 1-.9-.5-1.5-1-.3-.2-.1-1-.4-1.1-.2-.3-.5-.5-.8-.7l-.9-.6c-.3-.1.1-.5-.1-.5-.4-.2-.9-.4-1.3-.5-.4 0-.7-.2-1-.4-.4-.3-.7-.6-1.1-.8-.2-.2-.5-.3-.8-.4l-.6-.1c.1.2.1.4.1.6-.2-.1-.5-.4-.8-.5.2.1.6.3.8.5 0-.2 0-.4-.1-.6-1.4-.2-2.8-.2-4.2-.1.8 0 1.6.2 2.3.6-.3-.2-.2-.3.1-.2l.2.3c-.4 0-.7 0-1-.1-.4 0-.7-.2-1-.4l-.5.1c-.2-.1-.2-.2-.2-.4h-.5c.7.2 1.1.4 1.6.6z" class="st2"/><path d="M234.3 501.5l-.3-.2c.4.3.7.6 1 1 0-.3-.3-.6-.7-.8z" class="st2"/></g><circle cx="225.5" cy="511.8" r="6.1" class="st3"/><g class="st1"><path d="M231.1 508.6l-.2-.4v.2c.1.2.2.2.2.2zM230.7 507.9h-.1zM230.2 507.4c.1.1.2.2.2.3 0-.1-.1-.2-.2-.3zM230.5 507.9s0-.1 0 0l-.1-.1c.1 0 .1 0 .1.1zM230.5 507.9v0zM229.8 508.3c-.1 0 .1-.2 0-.2-.2-.1-.5-.3-.7-.4-.1 0-.1-.4-.2-.4s-1-.2-.7 0c.5.2.9.5 1.3.9.4.3.8.6 1.1 1 .1.1.1.2.1.4 0-.2-.1-.4-.1-.5-.1-.5-.5-.5-.8-.8zM231.8 511.5l-.1-.2c.1-.3.1-.7-.1-.9l-.1.2c0 .2.1.2.1 0-.1.4-.1.7 0 1.1.1-.2.2-.2.2-.2zM231.7 511.8v-.2.2z" class="st2"/><path d="M229 506.6c-.7-.5-1.5-.8-2.4-1-.1 0-.1.1-.2 0-.1 0-.1-.1-.2-.1h-.5c-.1 0 0 .1 0 .1l.1.1-.1-.1-.2-.1h-.3.6-1c-.2.1-.4.1-.5 0h-.1c-.2 0-.4.1-.6.1s-.2.2-.3.3h-.2c0 .1-.1.2-.2.2h.4c.2.1.2-.3.4-.2-.2-.1-.3.2-.4.2h-.4c-.2.1-.4.2-.6.2.2-.2.4-.3.6-.2.1 0 .1-.1.2-.2h.2l.3-.3a6.39 6.39 0 00-4.4 7.7c.4 1.6 1.2 3 2.5 4.1 1.3 1 2.8 1.5 4.4 1.4 1.7-.1 3.2-.7 4.6-1.6.7-.5 1.3-1.2 1.7-2 .4-.8.7-1.6.7-2.5-.1-.9-.5-1.1-.8-1.1-.2 0-.4.1-.6.2-.3.3-.6.7-.8 1.2-.2.6-.5 1.1-1 1.5.4-.4.4-.1.2.3-.3.5-.8.9-1.4 1-.8.1-1.5.3-2.3.5-.8.2-1.6.2-2.4-.1-.4-.2-.8-.4-1.1-.6-.9-.8-1.5-1.8-1.9-2.9-.3-1.2-.1-2.5.6-3.5.3-.6.7-1.1 1.1-1.6.4-.2.7-.4 1.2-.5.5-.2 1-.4 1.5-.5-.5.1-1 .2-1.4.5-.4.1.1-.4.4-.5.1-.1.3.1.4.1.2 0 .5-.2.8-.2.1-.1.1.2.2.1.4 0 .7-.3.9-.2.2.1.3.1.5.2l.3.1h.2v-.3l.3.2-.3-.2v.3c.6.1 1.1.2 1.6.5-.3-.2-.6-.4-.8-.7.1.1.1.2-.1.1l-.1-.2c.3 0 .6.2.8.5h.2c.1.1 0 .1 0 .2l.2.1c-.3-.2-.4-.4-.5-.6z" class="st2"/><path d="M225.5 505.6h.2-.7c.1.1.3 0 .5 0z" class="st2"/></g><g class="st1"><path d="M608.7 499.6l.8-.2h-.4c-.3 0-.3.1-.4.2zM610.1 499.2h.1l.1-.1-.2.1zM611.5 498.9c-.2 0-.5 0-.7.1.2 0 .5-.1.7-.1zM610.4 498.9c.1 0 .2.1 0 .2l.4-.1c-.2 0-.3 0-.4-.1zM610.4 498.9c-.1 0-.2-.1-.3-.1.1.1.2.1.3.1zM610.4 497.2c.2-.1.2.4.5.2l1-.4c.3-.1.7-.1 1-.2.3-.1.8.5 1.1.4.7-.1 2.8-.4 1.6-.6-1.5-.2-3-.1-4.4.2-1.2.3-2.3.8-3.4 1.5-.3.1-.6.3-.9.4.4-.1.8-.2 1.3-.3.4-.1.7-.3.9-.5.4-.3.9-.6 1.3-.7zM603.6 502.6l.2-.4c.3-.1.6-.3.9-.5l.7-.7h-.4c-.3.3-.2.4.1.3-.7.3-1.4.7-1.9 1.3.1 0 .2.1.4 0zM602.9 502.9l.3-.4-.3.4z" class="st2"/><path d="M614.5 498.4c1.8.2 3.6.8 5.2 1.8.2 0 .3 0 .4.1.1.1.2.3.3.4.2.1.4.3.6.5l.2.1c.2 0 .2 0 .1-.1 0-.1-.1-.2-.1-.3 0 .1.1.2.1.3.1.1.1.3.2.4.2.1.4.3.5.5-.2-.1-.4-.3-.5-.5l-.4-.2h-.1c.4.4.9.8 1.2 1.2.1.1.2.2.3.2.3.3.6.6.6.9l.2.3v-.1.1c.2.4.5.7.7 1.1.2.2.5.4.7.6l-.1.4c.2.1.3.2.4.4 0-.3.1-.5.1-.8.1-.4-.7-.4-.5-.9-.2.5.6.5.5.9 0 .2-.1.5-.1.8.3.4.3.9.2 1.4-.3-.4-.4-.9-.2-1.4-.1-.2-.2-.3-.4-.4l.1-.4c-.2-.2-.5-.4-.7-.6a13.66 13.66 0 01.6 10.4c-.9 2.6-2.7 4.8-5 6.2-2.4 1.6-5.4 2.1-8.2 1.6-2.5-.5-4.9-1.7-6.7-3.5-.9-.9-1.6-2-2-3.2-.4-1.2-.6-2.5-.4-3.7.1-1.2.3-2.4.5-3.5.3-1.1.7-2.2 1.3-3.2.3-1.2.1-1.9-.4-2.3-.4-.3-.8-.4-1.3-.4-.6.1-1.1.3-1.5.6-.4.3-.8.8-1.1 1.2-.8 1.4-1.5 2.9-2 4.4.5-1.4.7-.8.6.4-.1 1.5-.3 3.1-.5 4.6-.5 2.2.4 4.9 2.2 7 1.9 2.1 4.2 3.7 6.7 4.9 1.3.6 2.8 1 4.2 1.1 4.1.7 8.4-.5 11.6-3.1 3.3-2.7 5.5-6.5 6.2-10.6.2-2.1-.1-4.2-.9-6.1-.3-1.3-.7-2.5-1.2-3.8-.7-1.4-1.8-2.6-3.1-3.5 1.2 1 2.2 2.1 3 3.5.6 1-.9-.5-1.5-1-.3-.2-.1-1-.4-1.1-.2-.3-.5-.5-.8-.7l-.9-.6c-.3-.1 0-.5-.1-.5-.4-.2-.9-.4-1.3-.5-.4 0-.7-.2-1-.4-.4-.3-.7-.6-1.1-.8-.2-.2-.5-.3-.8-.4l-.6-.1c.1.2.1.4 0 .6-.2-.1-.5-.4-.8-.5.2.1.6.3.8.5v-.6c-1.4-.2-2.8-.2-4.3-.1.8 0 1.6.2 2.3.6-.3-.2-.2-.3.2-.2l.2.3c-.3 0-.7 0-1-.1-.4 0-.7-.2-1-.4l-.5.1c-.2-.1-.2-.2-.2-.4h-.5c.3.2.7.4 1.2.6z" class="st2"/><path d="M621.5 501.5l-.3-.2c.4.3.7.6 1 1 0-.3-.3-.6-.7-.8z" class="st2"/></g><circle cx="612.7" cy="511.8" r="6.1" class="st3"/><g class="st1"><path d="M618.3 508.6l-.2-.4v.2c.1.2.2.2.2.2zM617.9 507.9h-.1zM617.4 507.4c.1.1.2.2.2.3 0-.1-.1-.2-.2-.3zM617.8 507.9s0-.1 0 0l-.1-.1.1.1zM617.8 507.9v0zM617 508.3c-.1 0 .1-.2 0-.2s-.5-.3-.7-.4-.1-.4-.2-.4c-.3-.1-1-.2-.7 0 .5.2.9.5 1.3.9.4.3.8.6 1.1 1 .1.1.1.2.2.4 0-.2-.1-.4-.2-.5-.1-.5-.5-.5-.8-.8zM619 511.5l-.1-.2c.1-.3.1-.7-.1-.9l-.1.2c0 .2.1.2.1 0-.1.4-.1.7 0 1.1.1-.2.2-.2.2-.2zM618.9 511.8v-.2.2z" class="st2"/><path d="M616.2 506.6c-.7-.5-1.5-.8-2.4-1-.1 0-.1.1-.2 0-.1 0-.1-.1-.2-.1h-.5c-.1 0 0 .1 0 .1l.1.1-.1-.1c-.1 0-.1-.1-.2-.1h-.3.6-1c-.2.1-.4.1-.5 0h-.2c-.2 0-.4.1-.6.1l-.3.3h-.2c0 .1-.1.2-.2.2h.4c.2.1.2-.3.4-.2-.2-.1-.3.2-.4.2h-.4c-.2.1-.4.2-.6.2.1-.2.4-.3.6-.2.1 0 .1-.1.2-.2h.2l.3-.3a6.39 6.39 0 00-4.4 7.7c.3 1.6 1.2 3 2.5 4.1 1.3 1 2.8 1.5 4.5 1.4 1.7-.1 3.2-.7 4.6-1.6.7-.5 1.3-1.2 1.7-2 .4-.8.6-1.6.7-2.5-.1-.9-.5-1.1-.8-1.1-.2 0-.4.1-.6.2-.3.3-.6.7-.8 1.2-.2.6-.5 1.1-1 1.5.4-.4.4-.1.2.3-.3.5-.8.9-1.4 1-.8.1-1.5.3-2.3.5-.8.2-1.6.2-2.4-.1-.4-.2-.8-.4-1.1-.6-.9-.8-1.5-1.8-1.9-2.9-.3-1.2-.1-2.5.5-3.5.3-.6.7-1.1 1.1-1.6.4-.2.8-.4 1.2-.5.5-.2 1-.4 1.5-.5-.5.1-1 .2-1.5.5-.4.1.1-.4.4-.5.1-.1.3.1.4.1s.5-.2.7-.2c.1-.1.1.2.2.1.4 0 .7-.3.9-.2.2.1.3.1.5.2l.3.1h.2v-.3c.1.1.2.1.3.2-.1-.1-.2-.1-.3-.2v.3c.6.1 1.1.2 1.7.5-.3-.2-.6-.4-.8-.7.1.1.1.2-.1.1l-.1-.2c.3 0 .6.2.8.5h.2c.1.1 0 .1 0 .2l.2.1-.3-.6z" class="st2"/><path d="M612.7 505.6h.2-.7c.1.1.3 0 .5 0z" class="st2"/></g><g class="st1"><path d="M233.7 562.2c-1.1-.2-2.3-.6-3.4-.9.6.2 1.1.5 1.6.8.6.2 1.2.2 1.8.1zM227.2 560.4l-.6-.2h-.5l1.1.2zM221.3 558.7c1 .4 2 .7 3 1-.9-.4-1.9-.8-3-1zM225.9 560.5c-.3-.2-.4-.4.2-.4-.6-.1-1.2-.3-1.8-.5.5.3 1.1.6 1.6.9zM225.9 560.5c.3.2.8.5 1 .6-.3-.2-.7-.4-1-.6zM223.4 563.2c-.6-.1-.2-1-1.4-1.2-1.4-.4-2.8-.6-4.1-1s-2.6-.8-3.9-1.3c-1.3-.2-2.6-2.1-3.8-2.5-.7-.3-1.7-.6-2.7-.9s-2-.8-2.9-1c-1.7-.6-2.5-.7-.5.4 2.6 1.4 5.3 2.7 8.1 3.9 1.3.5 2.5.9 3.8 1.4s2.6 1 4.1 1.4c2.4.6 4.7 1.2 7.1 1.6s4.7.9 7.2 1.2c1.4.2 2.6.6 3.9 1l-5.1-1.7c-1.4-.4-2.8-.6-4.2-.7-.8-.1-1.7-.1-2.6-.2l-1.4-.2c-.7.1-1.1 0-1.6-.2zM259.3 566.5l-1.9.2c-1.3-.4-2.7-.7-4.1-.8-1.4-.2-2.9-.2-4.3-.2l1.2.6c1.6.1 1.9-.1.4-.5 3.1.9 6.4 1.4 9.7 1.5-.2-.2-.1-.5-1-.8zM262.2 567.4l-1.9-.1s0 .1.1.1h1.8zM209.1 554.3c-7-3.5-13.3-8.3-18.6-14a3 3 0 01-1.4-1.1l-.9-1.5c-.7-.8-1.3-1.7-2-2.6l-.8-.9c-.5-.4-.5-.2-.4.2.2.4.3.7.4 1.1-.1-.2-.3-.8-.4-1.1s-.5-1-.8-1.6c-.6-.8-1.2-1.7-1.7-2.6.7.8 1.2 1.7 1.7 2.6.4.5.8 1 1.2 1.4l.4.4-1.1-1.5-1-1.6c-.6-1.1-1.4-2.1-1.9-3.2-.3-.5-.6-1-.8-1.3-.5-.8-1-1.5-1.4-2.2-.3-.6-.5-1.3-.6-2-.2-.4-.4-.8-.5-1.2v.3c-.1-.2-.1-.3-.1-.5-.8-1.7-1.3-3.5-1.9-5.3-.6-1.1-1.2-2.2-1.7-3.4 0 0 .1-.9.1-1.4-.5-.6-.8-1.2-1-1.9v2.9c-.1 1.4 1.7 2.5 1.4 4.2.3-1.7-1.4-2.8-1.4-4.2v-2.9c-.6-1.9-.9-3.9-.8-5.9.4 1 .6 2 .7 3.1.1.9.1 1.9 0 2.8.2.7.5 1.3 1 1.9 0 .4-.1 1.3-.1 1.3.5 1.2 1 2.3 1.7 3.4l-.4-1.3-.4-1.3-.7-2.7c-.3-.9-.4-1.8-.6-2.7s-.4-1.8-.6-2.8c-1-5.9-1.5-11.9-1.7-17.9-.1-5.9.2-11.8.8-17.7.2-1.5.3-2.9.5-4.4l.3-2.2.3-2.2c.2-1.5.4-3 .7-4.5l.8-4.5.4-2.2.5-2.2c.3-1.5.6-3 1-4.5.8-3 1.4-6.1 2.3-9.1l1.4-5c.4-1.7.9-3.4 1.4-5l.7-2.5.6-2.5c.4-1.7.8-3.3 1.1-5 .6-3.3 1.4-6.6 1.8-10 .2-1.7.6-3.3.8-5l.6-5c.8-6.4 1.1-12.9 1.1-19.4 0-3.2-.1-6.4-.2-9.6s-.3-6.4-.6-9.5c-.5-6.3-1.2-12.6-2.1-19s-1.7-12.9-2.7-19.5c-1.1-6.5-2.7-13-4.7-19.3-2.2-7-4.8-13.8-6.6-18.5-3.2-6-5.3-6.9-6.4-6.2s-1.3 2.8-1.3 3.1c0 4.4.9 7.8 2.2 12.2 1.9 5.8 3.4 11.7 4.4 17.8-1-5.4.1-3.7 1.6.8 1.7 5.6 2.7 11.3 2.8 17.1-.2 7.7 1.2 16.6 2.5 26s2.4 19.3 1.9 28.4c-.2 2.3-.2 4.6-.3 7.1s-.2 5-.4 7.8c-.8 7-1.9 13.9-3.2 20.6l-1 5c-.3 1.7-.8 3.3-1.2 5l-2.5 10.4a249.4 249.4 0 00-6.2 44.6c-.1 7.7.8 15.3 2.6 22.8.2 1.3.5 2.6.7 3.9s.5 2.6.8 3.9c.1.6.2 1.3.4 1.9s.3 1.2.4 1.8c.3 1.2.6 2.3.9 3.3 1.9 5.8 4.7 11.2 8.3 16.1a54 54 0 01-2.3-3.7l-1.1-1.8c-.4-.6-.6-1.2-1-1.8-.6-1.2-1.3-2.5-1.9-3.9s-1.1-2.9-1.8-4.5c-.7-2.2-.2-1.5.7 0 .5.8 1 1.8 1.5 2.7s1 1.9 1.4 2.5c.7 1.1.6 3.4 1.3 4.5.7 1.2 1.4 2.4 2.2 3.5l.6.9c.2.3.4.5.7.8.4.6.9 1.1 1.4 1.7.9 1 0 1.4.4 1.9 1.2 1.4 2.6 2.7 4 3.9 1.2.9 2.3 1.9 3.2 3a20 20 0 001.9 2.2l1.8 2c.8.8 1.6 1.6 2.5 2.2l1.9 1.2c-.2-.4-.3-1-.1-1.4.4.3.9.8 1.3 1.3s1 .8 1.4 1.2c-.4-.3-.9-.7-1.4-1.2l-1.3-1.3c-.1.5-.1 1 .1 1.4l.9.5.9.5 1.9 1c1.2.7 2.5 1.4 3.8 2s2.6 1.3 3.9 1.9l4 1.6v-.2c-1.5-.7-3-1.4-4.4-2.2-1.4-.9-2.7-1.9-4-3 1.2.9.9 1.1-.6.2l-.8-1.1c1.2.8 2.6 1.3 3.8 2 1.2.7 2.4 1.5 3.5 2.4l1.8.5c.8.5.6.8.7 1.1.6.2 1.2.5 1.8.8-.5-.5-1.7-1.4-2.7-2.1l-2-1.3z" class="st2"/><path d="M184.2 532.8c.3.4.6.8 1 1.2-.6-.8-1.1-1.7-1.7-2.6s-1.1-1.8-1.6-2.7c.1 1.2 1.2 2.6 2.3 4.1z" class="st2"/></g><g class="st1"><path d="M607.9 565.5c1.2-.2 2.3-.5 3.5-.8-.6.1-1.2.1-1.8.2-.6 0-1.2.3-1.7.6zM614.6 563.8l.6-.2.5-.2-1.1.4zM620.5 561.7c-1 .3-2 .7-3 1.1 1-.3 2-.7 3-1.1zM615.7 563c.4 0 .6.1.1.4.6-.2 1.2-.5 1.8-.7-.7.2-1.3.3-1.9.3zM615.7 563h-1.2c.4.1.8.1 1.2 0zM616.2 559.3c.5-.3.7.7 1.8.1 1.3-.6 2.5-1.1 3.6-1.8 1.1-.6 2.3-1.2 3.5-1.7 1-.6 3.2-.5 4.2-1.2.6-.4 1.4-.9 2.3-1.5s1.6-1.3 2.2-1.9c1.2-1.1 1.7-1.7-.1-.7-2.6 1.7-5 2.8-7.2 4.1-1.1.6-2.3 1.1-3.5 1.6s-2.4 1.1-3.7 1.6c-2.2.9-4.2 1.9-6.4 2.7s-4.4 1.7-6.7 2.3c-1.3.3-2.6.5-3.8.8l5.2-.7c1.4-.2 2.7-.7 3.9-1.4.7-.3 1.4-.7 2.2-1.1l1.2-.5 1.3-.7zM581.9 568.8l1.8-.5c1.4.2 2.8.2 4.2.1 1.4-.2 2.8-.5 4.3-.8l-1.3-.3c-1.6.2-1.8.5-.3.6-3.3-.1-6.6 0-9.8.4.2.1.1.4 1.1.5zM578.8 568.4l1.9-.2-.1-.1-1.8.3z" class="st2"/><path d="M632.2 555.6c7-3.6 13.4-8.4 18.9-14 .2-.6.5-1.1 1-1.5.5-.3 1-.7 1.5-1.1.8-.8 1.4-1.7 2.1-2.6l.7-1c.3-.6.1-.5-.3-.3-.3.3-.6.5-1 .7.2-.1.6-.5 1-.7a8 8 0 001.3-1.3c.5-.9 1.1-1.8 1.7-2.7-.5.9-1.1 1.8-1.7 2.7-.3.6-.7 1.1-1 1.6l-.3.5 1.2-1.5 1.1-1.6c.7-1.1 1.5-2.1 2.1-3.2.3-.5.5-1 .7-1.4.4-.8.8-1.7 1.2-2.4.3-.7.7-1.3 1.2-1.8l.6-1.2-.2.2.3-.4c.9-1.7 1.5-3.5 2.2-5.3.3-1.2.4-2.5.6-3.8l.8-1.1c-.1-.7 0-1.5.1-2.2-.5.9-1.1 1.7-1.5 2.5-.8 1.1.2 3-1.2 4.2 1.4-1.1.4-3.1 1.2-4.2.4-.8 1-1.6 1.5-2.5.1-1 .4-2 .7-2.9.3-1 .7-2 1.1-2.9a11.27 11.27 0 01-1.7 5.8c-.1.7-.2 1.5-.1 2.2l-.8 1.1c-.2 1.3-.3 2.6-.6 3.8l.5-1.3.4-1.3.9-2.7c.3-.9.5-1.8.8-2.8l.7-2.8c1.3-6 2.1-12.1 2.4-18.3.2-6 .1-12.1-.4-18.1-.1-1.5-.3-3-.4-4.5l-.2-2.3-.3-2.3-.6-4.5c-.2-1.5-.5-3-.7-4.5-.1-.8-.2-1.5-.4-2.3s-.3-1.5-.4-2.3l-.9-4.6c-.7-3.1-1.3-6.2-2-9.3l-1.2-5.1-1.1-5c-.2-.8-.3-1.6-.5-2.5l-.4-2.5c-.3-1.6-.6-3.3-.8-4.9-.4-3.3-.9-6.5-1.1-9.8-.1-1.6-.3-3.2-.4-4.9s-.2-3.2-.2-4.8c-.2-6.4-.3-12.7-.1-18.9 0-3.1.2-6.2.4-9.3s.4-6.1.8-9.2c.6-6.2 1.5-12.3 2.8-18.3 1.2-6.2 2.9-12.4 4.9-18.4 1.5-4.7 3.4-11.5 5.5-18.2s4.3-13.3 6-17.8c1.6-6.2 1-8.1-.2-8.5s-2.9.8-3.2 1.1c-3.2 3-4.9 6.3-6.7 10.6s-3.6 9.7-6.9 17.4c2.1-5.2 2.1-3.1.9 1.6-1.4 5.7-3.3 11.4-5.7 16.8-3.5 7.1-5.4 16.4-6.4 26.3s-1.2 20.2-1.6 29.8c-.1 2.4-.1 4.9 0 7.5s.2 5.3.5 8.2c.3 7.4 1 14.7 2.4 22l1.1 5.4c.4 1.8.9 3.6 1.3 5.3l.7 2.7.7 2.5c.4 1.7.9 3.4 1.3 5 3.4 13.5 6.2 27.4 6.5 42.1.2 7.8.7 14.6.2 21.2-.2 1.2-.3 2.4-.6 3.6l-.9 3.5c-.2.6-.3 1.1-.5 1.7s-.4 1.1-.5 1.6c-.3 1-.7 2-.9 2.9-1.7 5.1-3.7 10.1-6.1 14.9.7-1.1 1.3-2.3 1.8-3.5.3-.6.5-1.1.8-1.7s.5-1.1.7-1.7c.5-1.2 1-2.3 1.4-3.6s.9-2.6 1.4-4.1c.6-2 .7-1.2.5.4-.1.8-.3 1.8-.5 2.8-.1.9-.4 1.8-.6 2.6-.3 1.2-2 2.4-2.3 3.6-.6 1.1-1.1 2.3-1.6 3.4l-.3.9c-.1.3-.3.6-.4.9l-.9 1.8c-.5 1.1-1.2.5-1.4 1-.9 1.4-1.7 2.9-2.4 4.5-.6 1.2-1.4 2.3-2.4 3.3-.6.6-1.3 1.2-2 1.7l-2 1.5c-.8.7-1.6 1.2-2.4 2l-1.5 1.5c.5-.1.9 0 1.4.2-.4.3-.9.6-1.5 1s-1.1.6-1.5.9c.4-.3 1-.5 1.5-.9s1-.7 1.5-1c-.4-.2-.9-.3-1.4-.2l-.7.7-.7.6-1.5 1.3c-1 .9-2.1 1.8-3.2 2.5-1.1.8-2.3 1.6-3.5 2.4l-3.6 2.1h.1c1.4-.8 2.9-1.4 4.3-2.1 1.5-.8 3-1.4 4.5-2-1.4.5-1.3.2 0-.7l1.3-.3c-1.1.9-2.3 1.8-3.5 2.5-1.2.8-2.5 1.3-3.9 1.6L630 556c-.9.3-1 0-1.3-.2-.6.3-1.1.6-1.7.9 1.1-.2 2.2-.4 3.3-.8l1.9-.3z" class="st2"/><path d="M657.4 533.9c-.3.5-.5.9-.9 1.3.7-.8 1.3-1.7 1.8-2.6l1.8-2.7c-1.1 1.2-2.1 2.5-2.7 4z" class="st2"/></g></svg>