<svg xmlns="http://www.w3.org/2000/svg" id="Layer_1" x="0" y="0" version="1.1" viewBox="0 0 842 842" xml:space="preserve"><defs/><style>.st1{opacity:.85}.st2{fill:#211f1e}</style><path fill="#d69f7e" d="M0 0h842v842H0z"/><g class="st1"><path d="M203 419h0zM207 419zM210 418h-2 2zM207 418v1l1-1h-1zM207 418zM208 415l4-1h3l2-1-8 1-6 2h-2 2c1 1 3-1 5-1zM191 421l1-1h4l-1-1v1h-5l1 1zM189 420h1-1zM216 417l6-1h5l1-1 1 1h2v-1l1 1 2-1h-2l-1 1h10l2-1 1 1 1-1-2-1h-2 2l2 1 3 1-3-1-1 1-1-1-2 1h41l20 1h18l19 1h10l10-2c3-1 3-3 3-4l-2-2-6-2h-9c6 1-4 3-9 1-7-3-18 0-27-1h-7c-14-1-27 1-42 1l-11 1h-7l-8 1 8-1c2 0-2 2-3 2h-7l-5 1h-5l1 1h-2 2l-1-1-8 2v1h5v-1l1 1h-7l3 1zM232 416h-1 1z" class="st2"/></g><g class="st1"><path d="M638 427h-2 2zM635 427h-1 1zM631 427h2-2zM634 427h-1 1zM634 427zM633 430h-5l-2-1-3 1h15l2 1-3-1h-4zM651 430h-3l-3-1 1 1v-1l5 2v-1zM652 431h-1 1zM625 427l-12-1h-1l-1-1h-2v1h0l-1-1h-1 2-7l-3-1-2 1v-1l-2 1 2 1h2-2l-2-1-3-1 3 1 2-1v1l2-1h-6l-36-1-20-2-18-1-19-2-9-2h-5l-4-1c-3 0-4 1-4 2v3l5 4 4 1 6 1c-6-1 4-1 9 1 4 2 8 3 13 3h22c15 2 28 0 43 0l11-1 7 1 9-1-8 1c-3 0 1-2 3-2l2 1 4-1 1 1 4-1a105 105 0 015 1h1l-1-1h0l1 1 8-1-5-1v1l-1-1 5 1v-1l1 1h1l-3-1zM608 425h1-3 2z" class="st2"/></g></svg>