<svg xmlns="http://www.w3.org/2000/svg" id="Layer_1" x="0" y="0" version="1.1" viewBox="0 0 841.9 841.9" xml:space="preserve"><defs/><style>.st1{opacity:.85}.st2{fill:#fefefe}.st3{fill:#f4ecea}</style><path fill="#3f372f" d="M0 0h841.9v841.9H0z"/><g class="st1"><path d="M216.7 525.2l1.7-.5c-.3.1-.6.1-.9.1-.3 0-.6.2-.8.4zM220.1 524.2l.3-.1.3-.1-.6.2zM223.2 523.6c-.5 0-1.1.1-1.6.2.5 0 1-.1 1.6-.2z" class="st2"/><path d="M220.6 523.9c.2 0 .3.1 0 .2l.9-.3c-.2 0-.5.1-.9.1zM220.6 523.9h-.6.6zM221.1 522c.3-.1.3.4 1 .2l2.2-.5c.7-.1 1.4-.2 2.2-.2.7-.2 1.7.5 2.4.4l1.5-.1h1.6c.9 0 1.4-.1.2-.3-3-.5-6.2-.5-9.2 0-2.5.5-5 1.3-7.4 2.4-.7.3-1.3.5-2 .8.9-.3 1.7-.7 2.7-.9.7-.2 1.4-.5 2.1-.9l2.7-.9zM205.4 532.2l.6-.8c.6-.4 1.2-.8 1.8-1.3.3-.2.6-.5.8-.8s.6-.5.9-.7l-.7.2c-.7.5-.6.7 0 .3-.7.4-1.5.9-2.1 1.5-.7.5-1.3 1.1-1.8 1.8 0 0 .1.1.5-.2zM204.1 533.2l.7-.8h-.1c-.3.3-.5.5-.6.8zM229.9 523.1c4.1.4 8 1.8 11.5 3.9.3 0 .6.2.9.4.2.2.4.4.7.6.5.3.9.7 1.4 1l.5.3c.3.2.3 0 .1-.1-.1-.2-.3-.3-.4-.5.1.1.3.3.4.5.2.2.4.5.6.7.4.4.8.7 1.2 1.1-.4-.3-.8-.7-1.2-1.1l-.8-.5-.2-.1c1 .8 2 1.7 2.9 2.7l.6.6c.6.6 1.1 1.2 1.5 2l.4.6v-.1l.1.2c.6.8 1.1 1.6 1.5 2.5.4.5.8 1 1.2 1.6v.7c.3.3.5.6.6.9-.1-.5-.1-1.1-.2-1.5-.1-.7-1.1-1.1-1.1-2 0 .9 1 1.3 1.1 2 .1.5.1 1 .2 1.5.5.9.8 2 .8 3-.4-1-.7-2-.8-3-.2-.3-.4-.7-.6-.9v-.7c-.4-.5-.8-1.1-1.2-1.6.5.8.9 1.7 1.2 2.6a29.77 29.77 0 01.6 21c-2.1 5.9-6 11.1-11.3 14.6-5.6 3.8-12.5 5.4-19.2 4.5-4.7-.7-9.1-2.4-12.9-5.1l-1.8-1.4c-.6-.5-1.1-1.1-1.7-1.6-2.1-2.2-3.9-4.7-5.1-7.6-1.2-2.9-1.8-6-1.8-9.1-.1-3.1.2-6.1.9-9.1.7-2.9 1.9-5.7 3.5-8.3.2-.4.3-.7.4-1s.3-.5.4-.8c.2-.4.3-.8.4-1.2.1-.7 0-1-.3-1.2-.5-.4-1.5 0-1.7.1-1 .5-1.8 1.2-2.6 2-.4.4-.7.8-1.1 1.3s-.6 1-.9 1.5c-1.6 3-2.8 6.2-3.7 9.5.9-3 .9-1.8.5.8 0 .7-.1 1.4-.2 2.2s-.1 1.6-.1 2.5-.1 1.7-.1 2.6-.1 1.7 0 2.4c-.1 4.3 1.8 9.7 5.3 14 3.6 4.3 8.2 7.7 13.4 9.8.6.3 1.2.5 1.9.8s1.4.4 2.1.6l1.1.3 1.1.2c.8.1 1.5.3 2.3.3 8.3 1.1 16.6-1.2 23.2-6.4 6.7-5.3 11.1-12.8 12.5-21.2.6-4.2.2-8.4-1.2-12.4-.1-.7-.4-1.4-.6-2s-.4-1.4-.6-2a23.62 23.62 0 00-4.3-7.7c-1-1.2-2.1-2.2-3.3-3.2 1.1 1 2.2 2.1 3.1 3.3 1 1.3 1.9 2.6 2.7 4 .6 1.1.2.8-.4 0l-1-1.3a9 9 0 01-1-1.2c-.2-.3-.4-.7-.6-1.1-.1-.4-.4-.7-.6-1-.5-.6-1-1.1-1.5-1.6l-1.8-1.4c-.6-.4-.2-.7-.5-.9-.8-.5-1.7-1-2.5-1.5-.7-.3-1.4-.6-2.1-1.1-.8-.6-1.6-1.1-2.5-1.6-.5-.3-1.1-.6-1.6-.7l-1.1-.3c.2.2.3.4.3.7-.5-.2-1.2-.6-1.8-.8.5.2 1.2.6 1.8.8 0-.3-.1-.5-.3-.7-2.9-.8-6-1.1-9-1 1.7 0 3.5.3 5.1 1-.4-.2-.5-.2-.5-.3.2-.1.5 0 .7.1l.6.4-1.1-.2c-.4 0-.8-.1-1.1-.1-.7-.1-1.5-.3-2.2-.5l-1 .1c-.5-.1-.4-.2-.5-.4h-1c.4.1 1.1.3 1.7.5l1.7-.2z" class="st2"/><path d="M245.7 530l-.7-.5.7.5.6.6 1.2 1.2c-.6-.7-1.1-1.3-1.8-1.8z" class="st2"/></g><ellipse cx="225.4" cy="551.9" class="st2" rx="12.9" ry="12.5"/><g class="st1"><path d="M237.1 545.3l-.4-.7c0 .1.1.3.1.5.1.1.2.1.3.2zM236.3 543.9l-.1-.1-.1-.1.2.2zM235.2 542.9c.2.2.3.4.5.5-.1-.2-.3-.3-.5-.5zM235.9 543.8c0-.1 0-.2.2-.1l-.3-.3c0 .2.1.3.1.4zM235.9 543.8v0zM234.4 544.7c-.1-.1.2-.3 0-.5-.5-.4-1-.5-1.4-.9-.2-.1-.3-.7-.5-.8-.6-.3-2.2-.4-1.4 0 1 .5 1.9 1 2.8 1.8.8.6 1.6 1.2 2.2 2 .1.2.3.5.3.8l-.3-1.1c-.1-.3-.4-.5-.7-.6-.4-.2-.7-.5-1-.7zM238.7 551.2l-.2-.4c.1-.3.2-.7.1-1-.1-.3-.2-.7-.4-1l-.1.3c.1.3.2.4.3 0-.1.7-.1 1.5 0 2.2.1.1.2.1.3-.1zM238.4 551.9l-.1-.4.1.4z" class="st3"/><path d="M232.6 541.3c-1.5-.9-3.2-1.6-4.9-1.9-.1.1-.2.2-.4.1-.1-.1-.2-.2-.4-.2s-.5 0-.8-.1h-.3c-.1 0-.1.1 0 .2.1 0 .2.1.2.2 0 0-.2-.1-.2-.2-.1-.1-.3-.1-.4-.2h-.7H225.9h-1.7c-.1 0-.2 0-.4.1-.3.2-.7.2-1.1.1h-.3.1-.1l-1.3.3c-.2.2-.5.4-.7.5l-.4-.1c-.1.2-.2.3-.3.4.3 0 .5.1.7.1s.4-.7.9-.3c-.5-.3-.6.5-.9.3s-.5-.1-.7-.1c-.4.3-.9.4-1.3.4.3-.4.8-.6 1.3-.4.2-.1.3-.3.3-.4l.4.1c.2-.2.5-.4.7-.5-.9.2-1.7.6-2.5 1-2.6 1.3-4.7 3.4-5.9 6-1.3 2.7-1.6 5.8-.9 8.7.8 3.3 2.7 6.2 5.4 8.3 2.6 2 5.9 2.9 9.2 2.7 3.4-.2 6.7-1.3 9.5-3.1 1.5-1 2.7-2.4 3.6-4 .9-1.6 1.4-3.3 1.6-5.1 0-.7-.2-1.3-.6-1.8-.2-.3-.6-.4-.9-.4-.5 0-.9.2-1.3.5-.4.4-.7.7-1 1.2l-.3.6-.3.6c-.4 1.2-1.1 2.2-2.1 3 .8-.8.9-.3.4.6-.7 1-1.7 1.7-2.9 1.9-1.6.2-3.2.6-4.8 1.1-1.7.5-3.5.4-5.1-.3-.8-.3-1.6-.8-2.4-1.2-1.9-1.5-3.3-3.6-4-6-.7-2.5-.3-5.1 1.2-7.2.7-1.2 1.5-2.3 2.4-3.3.8-.5 1.6-.9 2.5-1.1 1-.4 2.1-.7 3.1-1-1.1.2-2.1.5-3.1.9-.8.3.3-.8.9-1 .2-.2.7.3.9.1.3-.1.5-.1.8-.2.2-.1.5-.2.8-.3s.2.3.3.3l1.1-.3c.3-.1.6-.2.9-.1.3.1.7.3 1 .4.2.1.4.1.6.2h.4v-.5c.2.1.5.3.7.4-.2-.1-.4-.3-.7-.4v.5c1.2.1 2.4.4 3.4 1-.6-.4-1.2-.8-1.7-1.4.2.2.1.3-.2.2l-.1-.3c.7.1 1.3.4 1.6 1l.4.1c.1.2 0 .3 0 .4l.4.2c-.1-.3-.2-.5-.4-.7-.1-.2-.3-.4-.4-.6z" class="st3"/><path d="M225.4 539.2h.4-1.4c.2.2.6.1 1 0z" class="st3"/></g><g class="st1"><path d="M131.1 289.1c-.3 2.6-.6 5.2-1 7.8.2-1.3.5-2.6.9-3.9.2-1.3.2-2.6.1-3.9zM128.8 304.1l-.3 1.4c-.1.5-.1.8-.2 1.2.3-.9.4-1.7.5-2.6zM125.8 317.5c.7-2.2 1.3-4.5 1.8-6.7-.5 1.8-1.1 4.1-1.8 6.7zM128.8 306.9c-.3.8-.6 1.2-.4-.2v-.1c-.2 1.4-.4 2.7-.8 4.1.5-1.4.8-2.7 1.2-3.8zM128.8 306.9c.3-.8.7-2 .8-2.4-.2.7-.5 1.5-.8 2.4z" class="st2"/><path d="M131.3 311.1c-.2 1.4-1.1.9-1.6 3.6-.4 1.6-.7 3.2-1.2 4.7-.2.8-.4 1.5-.6 2.2l-.7 2.2c-.4 1.5-1.1 2.9-1.6 4.3s-1.4 2.8-2.1 4.2c-1.1 2.4-4.1 5.7-4.9 8.3-.6 1.5-1.3 3.6-2 5.8l-.9 3.3c-.3 1.1-.5 2.1-.7 3-.3 1.1-.5 2.3-.6 3.4 0 .3.3-.4 1-2.7 1.8-6 4.1-11.8 6.9-17.4.6-1.3 1.3-2.5 2-3.8l1.1-2.1c.4-.7.7-1.4 1-2.1s.6-1.5.9-2.2.6-1.5.8-2.2c.6-1.5 1-3.1 1.6-4.7a124 124 0 003.1-15.9c.7-5.3 1.2-10.7 1.6-16.2.3-3.1.5-6 .8-8.8-.4 3.8-.9 7.6-1.4 11.9-1.1 5.4-.7 12.4-2.5 21.2zM132.8 230.8c.2 1.4.5 4.1.5 4.1-.4 6.2 0 12.6.2 19.1.2-.9.3-1.9.5-2.9-.1-3.7-.4-4.1-.5-.9.5-7.3.4-14.7-.1-22-.3.6-.5.5-.6 2.6z" class="st2"/><path d="M133 224.1c.1 1.4.3 2.9.4 4.3 0 0 0-.1.1-.1-.1-1.4-.3-2.9-.4-4.3l-.1.1zM114.6 344.4c-1.7 4.2-3.1 8.6-4.3 12.9-.6 2.1-1.1 4.3-1.7 6.5s-1 4.3-1.4 6.5c-1.7 8.4-2.8 17-3.4 25.6.2 1.3.2 2.7 0 4-.2 1.3-.4 2.6-.5 4-.1 2.5-.2 5-.2 7.4 0 .9.1 1.7.1 2.6v.1c.1 1.4.3 1 .4.1l.3-2.6c-.1.5-.2 1.8-.3 2.6-.2 1.3-.2 2.7-.2 4 .1 2.3.2 4.6.2 7-.2-2.3-.3-4.7-.2-7-.1-1.4-.1-2.8-.2-4.2l-.1-1.2c-.1 5.6.1 11.3.3 16.9.1 1.3.2 2.5.3 3.5.5 3.5.7 7.1.7 10.6l.3 3v-.6 1.1c.5 4.2 1 8.5 1.7 12.7.6 2.7 1.4 5.5 2 8.2v1.1c0 .6 0 1.3.1 1.8.6 1.5 1.1 3 1.4 4.5-.2-2.3-.3-4.4-.5-6.4 0-2.9-2.1-6.1-1.8-9.6-.4 3.5 1.7 6.7 1.8 9.6.2 2 .3 4.1.5 6.4 1 3.9 2.1 9 2.7 13.2a50 50 0 01-2.7-13.2c-.4-1.5-.9-3.1-1.4-4.5 0-.5 0-1.2-.1-1.8s0-1.1 0-1.1c-.7-2.8-1.4-5.5-2-8.2 1.3 8.3 2.9 16.6 4.9 25 3.2 13.3 7.4 26.4 12.7 39 2.6 6.3 5.5 12.4 8.6 18.3 3.2 6 6.6 11.8 10.4 17.4 7.5 11.5 16.6 21.9 26.9 31 10.7 9.5 23.1 16.9 36.5 21.8 7.4 2.7 15.2 4.5 23 5.4l2.9.3 2.9.3 5.8.4c3.9.1 7.7.2 11.6-.1 7.7-.4 15.2-1.6 22.7-3.6 7.3-2 14.4-4.8 21.1-8.3 13.1-7.1 24.6-16.6 34.1-28 4.6-5.5 8.9-11.4 12.7-17.5 3.8-6 7.3-12.3 10.5-18.7 3.2-6.4 6.1-12.9 8.7-19.5 2.6-6.6 5.1-13.4 7.4-20.2 4.5-13.7 8.4-27.7 11.9-42.3 3.2-14.3 5.6-28.9 7.2-43.5 1.8-16.2 2.8-32.4 3.1-43.4-.3-14.8-1.9-18.4-3.1-18.1s-2.3 4.5-2.5 5.2c-1.9 9-2.6 16.9-3.5 27.2-1 13.7-2.8 27.3-5.4 40.8 1.1-6.1 1.6-8 1.7-7.1 0 3.3-.3 6.7-.9 10-1.3 10.5-4.6 27-8.4 38.1-5.5 16.1-11.1 35.7-19.1 55.3-4 9.9-8.8 19.6-14.2 28.8a131.27 131.27 0 01-30.5 35.4l-3.2 2.6-3.4 2.4c-1.1.8-2.4 1.6-3.6 2.3s-2.5 1.6-3.8 2.2a100.6 100.6 0 01-43.6 11.4h-7.1l-1.4-.1-2.8-.1c-.9-.1-1.9-.1-2.8-.2l-2.8-.3c-1.9-.1-3.7-.5-5.6-.7-7.4-1.2-14.7-3.2-21.6-6-14.2-5.9-27-14.7-37.7-25.8a163.5 163.5 0 01-28.1-39.4c-7.6-14.3-14-29.1-19.2-44.4-3.3-10.5-5.3-22.2-6.9-31-1.2-6.9-2.2-13.4-3-19.6s-1.4-12.1-1.9-17.9c.4 6.5.9 12.1 1.6 17.9s1.6 11.7 2.9 18.8c.9 4.7.3 3.1-.7-.4s-2.2-9.2-2.7-12.3c-.6-2.7 0-7.1-.4-9.8-.5-5.9-1.3-11.4-1.8-17.8-.3-2.8.7-2.5.6-3.8-.4-8.7-1.3-15.5-.6-21.1.4-4.2 1-8 1.5-11.7.3-2.3.7-4.6 1.1-7.1.2-1.5.3-3.1.6-4.7-.3.8-.8 1.4-1.4 1.9.2-1.1.6-2.5.9-3.9s.7-2.7.9-3.8c-.3 1.1-.6 2.5-.9 3.8s-.7 2.7-.9 3.9c.6-.5 1.1-1.2 1.4-1.9 1.5-11.4 4.6-24.4 9.6-35.7l-.2.1c-3.1 6.5-5.5 13.2-8.2 20.2 1.1-3.1 1.2-2.6.3 1-.4.9-.8 1.8-1.2 2.6 1.3-6.3 3.1-12.7 6.1-18.1 0 0 .2-.7.5-1.5l.9-2.5c1-1.8 1.2-1.6 1.6-1.9.6-1.3 1.2-2.6 1.9-3.8-.7.9-1.3 1.8-1.8 2.7l-1 1.8-1 1.9c-.7 1.2-1.3 2.4-1.7 3.2l-.9 1.7z" class="st2"/><path d="M103.3 418.1c-.1-1-.1-2.2-.1-3.5 0 4.7.1 9.4.3 14.2.3-2.5 0-6.6-.2-10.7z" class="st2"/></g><g class="st1"><path d="M625.6 528l-1.8-.6c.3.1.6.3.9.5.3.1.6.2.9.1zM622.1 527l-.3-.1h-.3l.6.1zM618.8 526.5c.6.1 1.1.2 1.7.2-.5-.1-1.1-.2-1.7-.2zM621.4 527c-.2-.1-.3-.2.1-.2l-1-.2c.3.2.6.3.9.4zM621.4 527c.2.1.5.2.6.3l-.6-.3zM620.3 528.5c-.3 0-.2-.5-.8-.4h-2.1c-.7.1-1.3.1-2 .1-.6 0-1.6-.4-2.2-.2l-1.4.3c-.5.2-1 .3-1.4.5-.8.3-1.1.5-.1.3 2.7-.6 5.5-.8 8.3-.5 2.4.1 4.8.5 7.1 1.2.7.3 1.2.5 1.8.8-.8-.5-1.6-.9-2.4-1.2-.7-.3-1.4-.4-2.1-.5-.9-.1-1.8-.2-2.7-.4zM637 535.8l-.8-.6c-.4-.6-.9-1.2-1.5-1.7-.3-.2-.6-.5-.9-.7s-.7-.4-1-.6l.4.6c.7.5.9.5.3-.1.6.7 1.2 1.3 1.8 1.9l1.8 1.8c.1-.1.2-.2-.1-.6zM637.9 537.2l-.7-.7.7.7z" class="st2"/><path d="M611.9 526.9c-4.1.5-8.1 1.8-11.7 3.9-.2.3-.4.5-.7.6-.3.1-.6.2-.9.4-.5.3-.9.7-1.4 1l-.5.4c-.2.2-.1.2.1.2.2-.1.4-.2.6-.2-.1 0-.4.2-.6.2-.3.1-.6.3-.8.5l-1.2 1.2 1.2-1.2.7-.7.2-.2c-1.1.8-2.1 1.7-3 2.6-.2.2-.4.4-.5.6-.4.7-1 1.4-1.7 1.9l-.4.6.1-.1-.2.2c-.6.8-1.2 1.6-1.7 2.5-.2.6-.5 1.3-.7 1.9l-.5.5c0 .4-.1.8-.2 1.1.3-.4.7-.8 1-1.2.5-.5.3-1.5 1-2-.8.5-.6 1.5-1 2-.3.4-.6.8-1 1.2-.3 1-.8 2-1.3 2.9.1-1.1.6-2.1 1.3-2.9.1-.4.2-.7.2-1.1l.5-.5c.2-.6.5-1.3.7-1.9-.5.9-1 1.7-1.4 2.7-.4.9-.8 1.9-1.1 2.8-2.1 6.2-2.2 12.9-.1 19.1 4.7 13.8 18 22.7 32.5 21.9 3.6-.2 7.1-1.1 10.3-2.6 1.6-.7 3.1-1.6 4.6-2.6l2.1-1.6c.7-.5 1.3-1.2 1.9-1.8 2.5-2.5 4.6-5.4 6.3-8.5 1.7-3.3 2.9-6.8 3.5-10.5a26 26 0 00-.6-11.1c-.9-3.6-2.4-7-4.5-10-.3-.4-.6-.7-.8-1s-.5-.5-.8-.7c-.4-.3-.8-.6-1.2-.8-.7-.3-1-.3-1.2 0-.4.5-.2 1.6-.2 1.8.3 1.1.7 2 1.1 3 .2.5.4.9.7 1.4s.4 1 .7 1.5c1.4 2.8 2.1 5.8 2.2 8.9-.2-2.8.3-1.8.7.5.1.6.1 1.3.2 2 0 .8 0 1.5-.1 2.3 0 .8-.2 1.5-.4 2.3-.1.7-.4 1.4-.7 2-1.6 3.5-3.2 7.5-6 11.2s-6.6 6.9-10.9 8.3c-.5.2-1.1.3-1.6.5l-1.7.4-.9.2-.9.2-1.9.3c-6.8.4-13.5-1.6-19-5.6-5.7-4.2-9.5-10.4-10.7-17.4-.7-3.5-.8-7.1-.3-10.6.1-.6.3-1.2.5-1.8.2-.6.4-1.2.6-1.7.5-1.1 1-2.1 1.5-3 .7-1.3 1.4-2.5 2.2-3.7.8-1.1 1.6-2.1 2.5-3.1-.9.9-1.8 1.9-2.5 3-.8 1.2-1.5 2.4-2.1 3.6-.5.9-.5.5-.2-.2.1-.5.3-.9.5-1.4.2-.5.5-.9.6-1.2.2-.3.5-.6.8-.8.3-.2.6-.5.8-.7.4-.5.8-1 1.2-1.6l1.3-1.6c.4-.5.6-.1.8-.3.7-.6 1.3-1.2 1.8-1.9a7 7 0 011.7-1.3c.8-.4 1.6-.8 2.5-1.1l1.5-.6 1-.5c-.2 0-.5-.1-.6-.3.6-.2 1.2-.3 1.8-.5-.6.1-1.2.3-1.8.5.2.2.4.3.6.3 2.6-1.2 5.3-2 8.2-2.3-.8.1-1.7.1-2.5.2s-1.7.1-2.6.2c.4-.1.6 0 .5 0-.2.1-.4.2-.7.3l-.7-.1 1.1-.4c.4-.1.7-.2 1.1-.2.7-.2 1.5-.2 2.2-.1l1-.2c.5 0 .5.2.6.3.3 0 .7-.1 1-.1-.6-.1-1.2-.2-1.7-.3l-1.9-.3z" class="st2"/><path d="M596 533.8c.2-.2.4-.3.6-.5l-.6.5-.7.5-1.2 1.1c.7-.3 1.4-.9 1.9-1.6z" class="st2"/></g><ellipse cx="616.5" cy="556" class="st2" rx="12.9" ry="12.5"/><g class="st1"><path d="M605.8 550.1l.4-.6c-.1.1-.2.2-.3.2-.1.1-.1.2-.1.4zM606.7 548.9l.1-.1v-.1zM607.5 547.9c-.2.1-.3.3-.4.5.1-.2.3-.3.4-.5zM606.7 548.6c.1 0 .2 0 .2.1.1-.1.1-.2.2-.3-.2 0-.3.1-.4.2zM606.7 548.6c-.1 0-.2.1-.3.1.1-.1.2-.1.3-.1zM605.6 547.2c.1-.2.4.2.5-.1.3-.6.7-1.1 1.2-1.6.2-.3.9-.1 1-.4.5-.5 1.8-2 .8-1.4-1.2.7-2.3 1.7-3.2 2.8-.7 1-1.2 2-1.6 3.1-.1.3-.3.6-.5.8.2-.3.5-.7.8-1 .2-.3.3-.6.4-1l.6-1.2zM603.9 555.3l-.1-.4c.2-.3.3-.6.3-.9 0-.3 0-.6.1-1l-.3.2c-.1.4.1.4.2.1-.4.6-.6 1.4-.5 2.1.1.1.2.1.3-.1zM603.6 556v-.4.4zM609.4 545.7c1.5-.9 3.1-1.6 4.9-1.8.1-.1.2-.2.4-.2.1.1.3.1.4.1h1c.1-.1.1-.1 0-.2-.1 0-.2-.1-.3-.2.1 0 .2.1.3.2.1.1.3.1.4.1h.7-.7l-.4.1h-.1c.6 0 1.1 0 1.7.1h.3c.4 0 .8 0 1 .3.1 0 .2 0 .3.1v-.1l.1.1c.4.1.8.2 1.2.4h.9s.1.2.2.3c.2-.1.4-.1.5 0-.2-.2-.3-.5-.4-.6-.2-.3-.8.2-1-.3.2.5.8 0 1 .3.1.2.3.4.4.6.4.1.8.4 1 .8-.4-.1-.8-.4-1-.8-.2-.1-.4-.1-.5 0 0-.1-.2-.3-.2-.3h-.9c3.2 1.2 5.8 3.7 7.1 6.8 1 2.4 1.1 5 .4 7.5-.9 2.6-2.7 4.8-5.1 6-2.2 1.2-4.6 1.7-7.1 1.5-1.2-.1-2.3-.4-3.4-1s-2-1.4-2.7-2.3c-.7-.9-1.3-1.8-1.9-2.7-.5-.9-.9-1.9-1.1-3-.5-1-1.2-1.4-1.8-1.3-.4 0-.9.2-1.2.5-.4.4-.6.9-.7 1.5 0 .3-.1.5-.1.8 0 .3 0 .5.1.8.3 1.5.8 3 1.4 4.5-.5-1.4 0-1 .7-.1.9 1.1 1.8 2.3 2.6 3.6 1 1.9 3.5 3.2 6.1 3.6 2.6.3 5.3.1 7.8-.6 1.3-.4 2.6-1 3.8-1.7 3.5-2 6-5.4 6.8-9.4.7-4-.1-8.2-2.4-11.7-1.2-1.6-2.8-2.9-4.6-3.6-1-.7-2.2-1.3-3.3-1.8-1.4-.5-2.9-.7-4.4-.5 1.5 0 2.9.1 4.3.5 1.1.4-.9.3-1.7.3-.3 0-.7-.6-1-.5h-1l-1 .2c-.3.1-.3-.4-.4-.3-.4.1-.9.2-1.3.5-.3.2-.6.3-1 .3s-.9 0-1.3.1c-.3 0-.5.1-.8.2l-.5.3c.2.1.3.2.4.4-.2 0-.6.1-.8.1.2-.1.6-.1.8-.1-.1-.2-.2-.3-.4-.4-1.2.7-2.2 1.6-3.2 2.5.6-.5 1.3-.8 2.1-.9-.3 0-.4-.1 0-.3l.4.1c-.5.5-1.1.8-1.8.9l-.2.4c-.2.1-.3-.1-.4-.1l-.3.3c.3 0 .6-.1.8-.2l.1-.7z" class="st3"/><path d="M616.5 543.7h-.3c.5 0 .9 0 1.4.1-.3-.2-.7-.2-1.1-.1z" class="st3"/></g><g class="st1"><path d="M708.1 293.7c.3 2.6.6 5.3 1 8-.1-1.3-.2-2.7-.2-4-.1-1.4-.3-2.7-.8-4zM710.3 309c.1.5.2 1 .3 1.4l.3 1.2c-.2-.8-.5-1.7-.6-2.6zM713.8 322.6c-.7-2.4-1.4-4.7-1.9-6.9.5 2.4 1.1 4.7 1.9 6.9zM711.3 311.7c0 .9 0 1.3-.4 0v-.1c.3 1.4.7 2.7 1 4.1-.3-1.3-.5-2.6-.6-4zM711.3 311.7c0-.8-.2-2.1-.2-2.6 0 .8.1 1.7.2 2.6zM715.3 314.4c.5 1.3-.6 1.2.3 3.8.5 1.5 1 3 1.5 4.4.3.7.5 1.4.8 2.1l.9 2c.5 1.3 1.3 2.5 1.9 3.8s1.4 2.5 2.1 3.8c.9 1.5 1.6 3 2.1 4.6.3.9.6 1.7.9 2.5.3.7.6 1.5.9 2.2.8 1.5 1.7 3.6 2.8 5.7s2 4.4 2.7 6.2 1.3 3 1.5 3.3.1-.6-.7-3c-2-6.3-4.6-12.4-7.8-18.3-.7-1.4-1.5-2.6-2.2-4l-1-1.8c-.3-.6-.7-1.2-1-1.8-.6-1.3-1.2-2.6-1.8-4s-1.1-2.8-1.6-4.3c-1.7-4.9-3.1-9.9-4.2-15s-2-10.4-2.7-15.8c-.3-3-.5-5.9-.6-8.8.1 3.8.2 7.6.6 11.9.3 3.1.8 6.2 1.6 9.3.9 3.3 2 7 3 11.2zM707.5 234.8c0 1.4.1 4.2.1 4.2-.8 6.4-1 12.8-.5 19.2.2-1 .3-1.9.5-2.9 0-3.7-.3-4.1-.5-.9.6-7.6.9-14.7 1.3-22-.3.5-.6.4-.9 2.4zM708.5 228.1c-.1 1.4-.1 2.9-.2 4.3l.1-.1c0-1.4.1-2.9.1-4.3.1 0 .1.1 0 .1zM726.8 349.1c3.2 8.4 5.7 17 7.3 25.9 1.6 8.5 2.6 17 3.1 25.6.4 1.3.5 2.6.5 3.9-.1 1.3-.2 2.7-.2 4 .1 2.5.1 5 .1 7.4 0 .9 0 1.7.1 2.6v.1c.1 1.4.3 1 .4.1l.3-2.6c-.1.5-.2 1.8-.3 2.6-.1 1.2-.2 2.5-.3 4 0 2.3 0 4.6-.2 7 0-2.7.1-5 .2-7 0-1.4 0-2.8-.1-4.2l-.1-1.2c0 5.6-.3 11.3-.7 16.9 0 1.3-.1 2.5-.2 3.5-.1 2-.2 4.1-.4 5.9-.1 1.6-.4 3.1-.8 4.7-.1 1-.2 2-.4 3 0-.2.1-.4.2-.6-.1.4-.2.8-.2 1.1l-.9 6.3c-.3 2.1-.7 4.2-1 6.3-.2 2.8-.6 5.6-1 8.4 0 0-.7 1.8-1 2.7 0 1.6-.2 3.2-.5 4.8.8-2.2 1.5-4.2 2.1-6.1a15.31 15.31 0 010 0c-.6 1.9-1.3 3.9-2.1 6.1-.8 4.4-2 8.8-3.7 13 .9-4.4 2.1-8.7 3.7-13 .3-1.6.5-3.2.5-4.8.3-.9 1-2.7 1-2.7.4-2.8.7-5.7 1-8.4-1.5 8.2-3.2 16.4-5.5 24.7-3.5 13.1-8 26-13.4 38.5-5.3 12.3-11.7 24-19.3 35.1-7.6 11.1-16.6 21.2-26.8 29.9a104.72 104.72 0 01-80.3 24.8c-14.4-1.4-28.4-6-40.8-13.4-11.9-7.4-22.3-16.8-30.9-27.9-4.3-5.4-8.2-11.1-11.8-17-3.6-5.9-6.8-12-9.8-18.2-5.9-12.6-10.8-25.7-14.6-39-3.9-13.8-7-27.8-9.1-42-1.7-11.1-4.2-27-6-42.8s-3-31.7-3.4-42.5c-1.3-14.5-2.5-18-3.8-17.6s-2.4 4.4-2.5 5.1c-1.6 9-1.7 17.2-1.3 27.6s1.4 23.2 2.8 41.6c-.5-6.3-.5-8.3-.1-7.4.8 3.3 1.4 6.6 1.8 10 1.5 10.6 4.1 27.3 5.5 39.2 1.1 9.4 2.9 18.8 5.4 27.9 2.8 10.3 6.3 20.5 10.4 30.4 4.3 10.4 9.4 20.5 15.2 30.2 3 4.8 6 9.6 9.4 14.2 1.6 2.3 3.4 4.5 5 6.7.9 1.1 1.8 2.2 2.7 3.2.9 1.1 1.7 2.2 2.7 3.2l2.8 3.1c.9 1 2 2 3 3 2 2 4.2 3.9 6.5 5.9 4.9 4 10 7.7 15.4 10.9a103 103 0 0023.5 10.5c8.1 2.4 16.5 3.8 25 4.3 2.1.2 4.2.1 6.3.2h3.1l3.1-.2c2.1-.1 4.2-.2 6.3-.4s4.2-.4 6.3-.8c8.3-1.3 16.5-3.5 24.3-6.7 15.7-6.3 29.7-16.4 41.7-28.5s21.9-26.5 30.3-42c8.7-16.6 13.7-32.3 17.7-47.4 3.1-10.9 6.2-22.7 7.8-31.8 2.3-12.8 3.5-25.8 3.6-38.9-.2 6.7-.6 12.5-1.1 18.4s-1.3 12.1-2.5 19.5c-.9 4.9-.9 3.1-.5-.6s.8-9.6 1.1-12.9c.2-1.7.5-3.3.9-4.9.4-1.6.7-3.3.8-5 .5-6.1.6-12.2.5-18.3-.2-2.8.8-2.5.7-3.9-.1-9-1.6-15.8-1.7-21.5-.1-4.3-.4-8.2-.7-12.1-.2-2.4-.5-4.8-.9-7.3-.3-1.5-.7-3.2-1-4.8 0 .8-.2 1.6-.6 2.3-.2-1.2-.4-2.6-.6-4s-.4-2.8-.6-4c.2 1.2.5 2.6.6 4s.4 2.8.6 4c.4-.7.7-1.5.6-2.3-2.6-11.5-6.7-24.6-12.6-35.8v.2a81.3 81.3 0 017.1 21c-.7-3.2-.3-2.9.8.7.1 1 .2 2 .2 2.9-1.9-6.3-4.1-12.4-5.8-18.4l-.7-1.4-1.2-2.3c-.7-1.9-.4-2-.4-2.5-.7-1.3-1.3-2.6-2-3.9.3.7.7 1.8 1.2 3.1s1 2.6 1.5 4l.7 1.9c.2.6.4 1.1.5 1.6l.5 1.3z" class="st2"/><path d="M737.9 422.9v-3.5c0 2.4-.1 4.7-.2 7.1s-.2 4.7-.4 7.1c.5-2.5.6-6.6.6-10.7z" class="st2"/></g></svg>