<svg xmlns="http://www.w3.org/2000/svg" id="Layer_1" x="0" y="0" version="1.1" viewBox="0 0 841.9 841.9" xml:space="preserve"><defs/><style>.st1{opacity:.85}.st2{fill:#161315}.st3{fill:#211f1e}</style><path fill="#dbb0a9" d="M0 0h841.9v841.9H0z"/><g class="st1"><path d="M712.3 440.4c-.3.7-.7 1.5-1 2.2l-1.2 2.2c.4-.7.9-1.4 1.5-2.1.4-.7.6-1.5.7-2.3zM707.9 448.8l-.5.8c-.1.2-.2.5-.3.7l.8-1.5zM703.6 456.2c.9-1.2 1.7-2.4 2.4-3.7-.7 1.1-1.6 2.2-2.4 3.7zM707.5 450.5c-.4.4-.7.5-.3-.3-.4.8-.8 1.5-1.2 2.3.4-.6.9-1.3 1.5-2zM707.5 450.5c.4-.4.9-1 1.1-1.2-.4.4-.8.8-1.1 1.2zM709.2 454.2c-.4.8-1 .2-1.8 1.7-1 1.8-2 3.5-2.9 5.1s-2.1 3.1-3.2 4.7c-1 1.5-3.6 3-4.5 4.4-.6.8-1.5 2-2.4 3.1s-1.8 2.5-2.5 3.4c-1.5 1.9-2 2.9.2.7 2.9-3 5.6-6.1 8.2-9.4 1.2-1.5 2.3-3 3.4-4.6l1.7-2.4 1.7-2.6c1.8-2.9 3.3-6 4.9-9l2.1-4.7c.4-.8.7-1.6 1-2.4s.6-1.6.9-2.5c.8-1.8 1.5-3.5 2.2-5.2-.5 1.1-1 2.2-1.5 3.4s-1.2 2.3-1.8 3.5c-.9 1.8-1.6 3.7-2.3 5.6-1.1 2.6-2.1 5-3.4 7.2zM721.4 405.3l.2 1.6v1c-.5 1.9-.8 3.9-1 5.8-.3 2-.5 4-.7 6 .3-.5.5-1.1.8-1.7.3-2.3.1-2.6-.4-.6l.9-3.4c.3-1.1.4-2.3.6-3.4s.3-2.3.4-3.4.1-2.3.1-3.4c-.4.3-.7.2-.9 1.5zM722.2 401.1v2.7l.1-.1V401l-.1.1z" class="st2"/><path d="M692.8 471.1c-1 1-1.9 2.1-3 3.1l-3 3-1.5 1.5-1.6 1.3-3.1 2.7c-1.1.9-2.2 1.7-3.2 2.5s-2.1 1.7-3.2 2.5l-3.3 2.3c-.5.4-1.1.8-1.6 1.2l-1.7 1.1c-.5.7-1.2 1.2-1.9 1.7-.8.3-1.5.7-2.3 1.1l-4 2.3-1.4.9c-.7.5-.4.5.1.4s1.1-.4 1.6-.5c-.3.1-1.1.4-1.6.5-.7.3-1.5.6-2.3 1-1.2.7-2.5 1.5-3.9 2.1 1.2-.8 2.5-1.5 3.9-2.1.8-.5 1.5-.9 2.2-1.4l.6-.5c-1.5.9-3.1 1.7-4.7 2.5s-3.1 1.6-4.7 2.4l-2 1c-1.9 1.2-4 2.1-6.1 2.6l-1.8.7.4-.1c-.3.1-.5.1-.7.2-2.5 1-5 1.9-7.5 2.8-1.5.8-3.2 1.5-4.8 2.3l-1.8.1c-.8.6-1.7 1-2.7 1.3 1.5-.1 2.8-.2 4-.5 1.9-.2 3.5-2.2 5.8-2.1-2.3-.1-3.9 1.9-5.8 2.1-1.2.2-2.6.3-4 .5-2.6 1-5.4 1.6-8.2 1.9 2.6-1 5.4-1.6 8.2-1.9 1-.3 1.9-.8 2.7-1.3l1.8-.1c1.6-.7 3.3-1.5 4.8-2.3-2.5.9-5 1.6-7.5 2.5l-7.7 2.2c-16.4 4.2-33.2 6.5-50.1 6.7-4.2.1-8.4 0-12.5-.3-4.2-.4-8.3-1.2-12.4-2.1-8.4-2.1-16.4-5.4-24-9.6-8.3-4.6-16-10.1-23.1-16.3-6.9-6.1-13.3-12.7-19.1-19.8a302.14 302.14 0 01-29.9-43.5c-8.8-15.4-15.7-31.8-20.6-48.8l-3.5-11.8c-1.3-4.4-2.6-9.2-3.8-14-2.1-8.5-3.7-17-4.7-25.7-.4-2.9-1.1-5.8-2.1-8.7-.6-1.6-1.3-2.1-2-2-1.2.2-2.3 2.8-2.4 3.2-1.5 5.7-1.5 10.9-.7 17.5s2.3 14.5 4.4 26c-.8-3.9-.8-5.2-.4-4.7.9 2 1.6 4 2.1 6.1 1.9 6.5 5 16.7 6.6 24.1 2.2 10.8 7.4 23.1 14 35.3s14.7 24.4 22.3 35.5c4.2 6 8.8 11.8 13.7 17.3 6.7 8.1 14.1 15.5 22.1 22.1a130 130 0 0026.3 17c9.6 4.8 20 8 30.6 9.6 2.7.4 5.4.7 8.2.8 1.4.1 2.8.1 4.2.2h4.1c5.4-.1 10.8-.3 16.4-.7 11.7-1 21.8-3.7 31.2-6.5 3.5-1 7.1-1.8 10.5-2.8s6.7-1.9 9.4-2.9c7.8-2.8 15.2-6.3 22.3-10.5-3.8 2-7 3.7-10.4 5.3s-7 3.2-11.4 4.9c-3 1-2 .4.1-.7s5.4-2.9 7.3-3.8c1.5-.9 4.5-1 6.1-2 1.7-.8 3.4-1.7 5-2.7l2.5-1.5 2.5-1.6c1.5-1 1.7-.1 2.5-.6 4.9-3 7.9-6.3 11-8.1 2.4-1.4 4.4-2.8 6.5-4 1.3-.8 2.5-1.8 3.7-2.8l2.2-2.1c-.5.2-1.2.3-1.7.1.6-.4 1.3-.9 2.1-1.5s1.4-1.1 2-1.5c-.6.5-1.3 1-2 1.5s-1.5 1-2.1 1.5c.6.2 1.2.1 1.7-.1 5.8-5.5 11.1-11.5 16-17.8h-.1c-1.4 1.8-3 3.5-4.6 5.1-1.7 1.7-3.4 3.2-5.3 4.6 1.6-1.3 1.6-.9 0 .8-.5.3-1.1.6-1.6.9 1.4-1.5 2.8-3 4.2-4.4 1.4-1.4 2.8-2.8 4.4-4 0 0 1.1-1.4 1.5-2.2.9-.9 1.1-.7 1.5-.7l1.7-2.1c-.8.6-2.3 1.9-3.6 3.1-.6.6-1.3 1.1-1.7 1.5l-.6.7z" class="st2"/><path d="M655.7 499.7l1.9-1.1-3.9 2c-1.3.7-2.6 1.4-4 2 1.7-.2 3.8-1.6 6-2.9z" class="st2"/></g><g class="st1"><path d="M584.5 501.6c-.5.2-1 .5-1.5.7.3-.1.5-.1.8-.2.3-.1.5-.3.7-.5zM581.6 502.8l-.3.1-.2.1.5-.2zM578.9 503.8c.5-.1.9-.3 1.4-.5-.5.2-.9.3-1.4.5zM581.1 503.2c-.2 0-.3 0 0-.2l-.8.3c.3 0 .6 0 .8-.1zM581.1 503.2h.6-.6zM581 505.1c-.3.1-.4-.3-.9 0-1.2.6-2.4 1-3.7 1.3-.6.2-1.6-.1-2.1.1-1.3.4-4.8 1.4-2.8 1.1 2.7-.3 5.3-1 7.9-1.8 2.2-.8 4.2-1.9 6.2-3.1.6-.4 1.1-.6 1.7-.9-.7.4-1.5.7-2.3 1-1.1.4-2.2 1.5-4 2.3zM593.5 494l-.3.8c-.9.9-1.8 1.9-2.6 3l.6-.2c.5-.6.5-.7-.1-.3 1.2-.9 2.2-2.1 2.9-3.5-.1 0-.2-.1-.5.2zM594.4 492.9l-.4.8.4-.8zM573.1 505.5c-3.6.6-7.3.6-11 .1-.3.1-.6.1-.8 0-.3-.1-.5-.2-.8-.3l-1.5-.3-.5-.1c-.3 0-.2.1-.1.2.2.1.3.2.5.3-.1-.1-.3-.2-.5-.3-.3-.1-.5-.2-.8-.3-.5-.1-1-.2-1.4-.4.5.1 1 .2 1.4.4.3.1.6.1.9.1h.2c-1.1-.3-2.3-.6-3.3-1l-.7-.2c-.7-.1-1.4-.5-2-1l-.5-.3.1.1-.2-.1c-.7-.5-1.5-.9-2.2-1.5l-1.5-.9c-.1-.2-.2-.4-.2-.6-.3-.1-.6-.3-.8-.5.2.4.4.9.6 1.2.3.6 1.3.5 1.6 1.3-.3-.8-1.3-.7-1.6-1.3l-.6-1.2c-.4-.3-.7-.6-.9-1-.2-.4-.5-.8-.6-1.3.6.7 1.2 1.5 1.5 2.3.2.2.5.4.8.5.1.2.2.4.2.6l1.5.9-1-.8-.5-.4-.4-.5-.9-1c-.3-.3-.5-.7-.8-1.1-1.5-2.3-2.5-4.9-2.8-7.7-.3-2.7-.2-5.5.4-8.1.5-2.7 1.4-5.4 2.5-7.9 1.2-2.5 2.9-4.8 5-6.8 2.2-2.2 4.8-4 7.5-5.3 5.2-2.7 11-4 16.8-3.8 2.7.1 5.3.8 7.7 2 2.4 1.2 4.4 3 5.9 5.2 1.6 2.3 2.7 4.8 3.2 7.5.7 2.7 1 5.4 1.2 8.2.1 2.7-.2 5.4-.9 8-.2.9-.2 1.9-.2 2.9.1.6.3.9.7 1 .6.1 1.1-.1 1.5-.5.4-.3.7-.7 1-1.1.3-.4.5-.8.7-1.3.2-.4.4-.9.6-1.4.1-.5.3-1 .4-1.6.6-3 .9-6 .9-9-.1 2.8-.4 1.8-.7-.5s-1.1-5.8-1.6-8.5c-.2-1-.4-2-.8-3-.2-.5-.4-1-.7-1.5l-.9-1.5c-.7-1-1.4-2-2.2-2.9-.4-.5-.9-.9-1.4-1.3l-1.5-1.2-1.5-1.1-1.8-.9c-1.2-.5-2.5-1-3.7-1.3-2.5-.6-5-.8-7.5-.9-2.6 0-5.2.4-7.7 1.1-3.6.8-7 2.2-10.1 4-3.2 1.8-6 4.1-8.5 6.8l-1.8 2.1-1.6 2.4-1.4 2.8-1 2.5c-1.3 3.6-2.1 7.3-2.2 11.2-.1 2 .2 4.1.8 6 .3.9.6 1.8 1 2.7.4.8.8 1.6 1.3 2.4.7 1.2 1.4 2.3 2.2 3.3.4.5.9 1 1.3 1.4.4.4.8.8 1.3 1.1.3.3.6.5 1 .8l1 .6 1 .6c.3.2.7.3 1 .5 1.3.6 2.6 1 3.9 1.3-1.3-.4-2.6-.8-3.9-1.4l-.9-.4-.9-.5c-.7-.4-1.4-.8-2-1.3-.9-.7-.5-.6.3-.2l.6.3.7.3c.5.2 1 .4 1.3.6.6.2 1.2 1.1 1.8 1.3 1.2.5 2.6.9 3.9 1 .6 0 .4.5.7.5 1.9.4 3.5 0 4.7.2.9.2 1.7.3 2.5.4.5.1 1 .1 1.6.1l1-.1c-.2-.1-.4-.3-.5-.5.5 0 1.2.1 1.7.1-.5 0-1.2-.1-1.7-.1.1.2.3.4.5.5 2.7-.3 5.3-.8 7.9-1.5-1.5.4-3.1.5-4.6.3.7.1.6.2-.2.3l-.6-.2c1.3-.3 2.7-.4 4-.4 0 0 .6-.2.8-.3.4 0 .5.1.6.2l.9-.2c-.3 0-1-.1-1.6-.1l-1.1.2z" class="st3"/><path d="M557.5 504.9l.7.1c-1-.2-1.9-.5-2.8-.9.7.5 1.4.7 2.1.8z" class="st3"/></g><ellipse cx="571.4" cy="481.8" fill="#1f2020" rx="9" ry="8.6"/><g class="st1"><path d="M565.2 488.4l.4.4c-.1-.1-.1-.2-.2-.2 0-.2-.1-.2-.2-.2zM566 489.1h.1l.1.1zM566.9 489.5c-.1-.1-.3-.2-.5-.2.2.1.4.2.5.2zM566.3 489.1c0 .1 0 .1 0 0l.2.2c-.1 0-.2-.1-.2-.2zM566.3 489.1l-.1-.2.1.2zM566.9 488.5c.1 0 0 .2.1.3.4.2.8.2 1.1.4.2 0 .4.4.5.4.4.1 1.5 0 .9-.1-.8-.1-1.6-.4-2.3-.7-.7-.2-1.3-.6-1.9-1l-.4-.4c.1.2.3.4.5.6.5.2 1 .3 1.5.5zM562.9 484.9l.2.2c.1.5.3.9.6 1.2v-.2c-.2-.2-.2-.2-.2 0-.1-.5-.3-1-.5-1.5-.1.2-.1.2-.1.3z" class="st3"/><path d="M562.9 484.4l.1.3c0-.1-.1-.2-.1-.3z" class="st3"/><path d="M568.9 490.1c1.2.3 2.4.4 3.7.3.1-.1.1-.1.3-.1h.3c.2 0 .3-.1.5-.1l.2-.1c.1 0 0-.1 0-.1h-.2.5l.5-.2c-.1.1-.3.1-.5.2l-.3.1h-.1c.4-.1.8-.2 1.1-.3.1 0 .2-.1.2-.1.2-.2.4-.3.7-.3.1 0 .1-.1.2-.1h.1c.2-.1.5-.3.8-.5s.3-.3.4-.5h.2c0-.1.1-.2.2-.3l-.5.1c-.2 0-.2.5-.5.4.3 0 .3-.4.5-.4l.5-.1c.2-.2.5-.4.8-.6-.1.3-.4.5-.8.6-.1.1-.1.2-.2.3h-.2c-.1.1-.3.3-.4.5a8.52 8.52 0 003.9-6.3 9.65 9.65 0 00-6.6-9.9c-2.1-.7-4.3-.7-6.4.1-2.1.8-4 2.1-5.4 3.9-.7 1-1.2 2.1-1.4 3.3-.2 1.2-.2 2.4 0 3.5.4 1.1.9 1.3 1.2 1.1.2-.1.4-.3.5-.5.1-.3.2-.7.2-1v-.9c0-.9.2-1.8.6-2.5-.3.7-.4.4-.2-.3.2-.8.7-1.5 1.5-2 1-.6 1.9-1.4 3-2 1.1-.7 2.4-1 3.7-.9.7 0 1.3.2 2 .3 1.8.6 3.3 1.8 4.3 3.4a6.3 6.3 0 01.8 5.5c-.2 1-.5 1.9-1 2.8-.4.5-.9.9-1.5 1.3-.6.5-1.3.9-2 1.3.7-.3 1.4-.7 2-1.2.5-.4-.1.5-.5.8-.1.1-.5 0-.6.2-.3.2-.6.4-1 .6-.2.1-.2-.1-.3-.1-.5.2-.9.6-1.3.6H571c.1.1.1.2.1.3-.2 0-.3-.1-.5-.1.2 0 .3.1.5.1 0-.1-.1-.2-.1-.3-.8.1-1.7.1-2.5-.1.5.1 1 .3 1.4.5-.2-.1-.2-.1.1-.1l.2.1c-.4 0-.9-.1-1.3-.3h-.3c-.1-.1-.1-.1-.1-.2l-.3-.1c.2.1.5.3.7.4z" class="st3"/><path d="M574.1 490.1l-.2.1 1-.3c-.3 0-.6 0-.8.2z" class="st3"/></g><g class="st1"><path d="M134.1 382c.6.4 1.2.8 1.8 1.1-.3-.2-.6-.5-.8-.8-.3-.3-.6-.3-1-.3zM137.6 384l.3.2.3.1-.6-.3zM141.1 385.4c-.5-.3-1.1-.6-1.7-.8.5.4 1.1.6 1.7.8zM138.5 383.9c.1.2.2.4-.2.3l1.1.4c-.3-.2-.6-.4-.9-.7zM138.5 383.9c-.1-.2-.4-.5-.5-.6.2.2.4.4.5.6zM140.9 381.3c.4.1-.1.9.6 1 1.5.4 3 .8 4.5 1.4.7.1 1.4 1.5 2.1 1.6 1.7.4 6.1.8 3.8-.1-3.5-1.3-6-1.9-9.1-3.3-2.7-.8-5.3-1.7-7.9-2.8-.7-.4-1.3-.8-1.9-1.2.8.6 1.6 1.3 2.5 1.9 1.1 1 3.2.7 5.4 1.5zM121.2 373.3l1.1.4c1.1 1.4 2.5 2.4 4.1 3a3 3 0 00-.4-.8c-.8-.5-1.1-.3-.5.3a15.9 15.9 0 00-4.5-3.7c.1.1-.1.4.2.8zM120.1 371.8l1 .6v-.1l-1-.5z" class="st2"/><path d="M148.5 387.8c4.5 1.9 8.8 3.3 13 4.8.4-.1.7-.2 1.1 0l.9.6 1.9.6.7.1c.4 0 .3-.2.1-.4-.2-.2-.4-.3-.6-.5.1.1.4.3.6.5.3.2.6.4.9.5.6.1 1.2.2 1.8.4-.6-.1-1.2-.2-1.8-.4l-1.1-.2h-.3c1.4.4 2.8.9 4.3 1.3.3 0 .7.1.9.1 1 0 1.9.2 2.7.8l.8.2-.1-.1.3.1 3.3.8c.8 0 1.5-.2 2.3-.2l.7.6c.4-.2.9-.3 1.3-.3-.6-.4-1.1-.8-1.5-1-.7-.6-1.8.7-2.6-.4.7 1.1 1.9-.2 2.6.4.5.3 1 .7 1.5 1 1.2 0 2.4.4 3.4 1-1.2.1-2.5-.2-3.4-1-.5 0-.9.1-1.3.3l-.7-.6c-.8 0-1.6.2-2.3.2 2.2.5 4.4.8 6.6 1.3.9.2 1.8.4 2.7.5l2.7.4 5.4.7 5.3.4c1.8.1 3.6.2 5.3.2l5.4.1c1.8 0 3.6-.1 5.4-.1 3.6 0 7.4-.3 11.2-.5 8.3-.5 16.2-1.3 24-2.3 7.5-1.1 14.9-2.7 22.2-4.8 7.2-2 14.4-4.1 22.3-5.7 3.8-1 7.5-2.3 11.1-3.9 4-1.7 7.8-3.7 10.5-5 3.2-2.5 3.4-4.2 2.8-5.3-.6-.8-1.4-1.3-2.4-1.5a13 13 0 00-7.5 1c-3.3 1.4-6.8 2.4-10.4 3.1 3.2-.7 2.3.3-.2 1.5a24.5 24.5 0 01-10 2.4c-2.5-.1-5 .2-7.4.8-2.5.5-5.1 1.5-7.8 2.3l-4 1.4-4.1 1.3c-2.7.8-5.4 1.5-8.2 1.9-2.7.4-5.5 1.1-8.7 1.8-8.4 1-16.3 2.2-24.4 3.2-8.3 1.1-16.7 1.4-25.1 1-4.6-.1-8.7.3-12.7.4-2.9-.2-5.8-1.2-8.1-1.5-1.8-.3-3.5-.6-5.1-.8s-3.2-.3-4.7-.5c1.6.4 3.1.5 4.6.7s3 .4 4.9.7c1.2.2.8.4-.2.6-1.1.2-2.2.2-3.4.2-.8.1-1.6-1.2-2.4-1.1-1.5-.3-3-.2-4.7-.4-.8 0-.4-.9-.8-.9-2.2-.4-4.3.3-5.6-.3-1-.5-1.9-1-2.8-1.4-.6-.3-1.2-.5-1.8-.6l-1.2-.2c.2.4.2.7.2 1.1-.6-.2-1.3-.7-1.9-1 .6.2 1.3.7 1.9 1 0-.4 0-.8-.2-1.1-3.3-.5-6.5-1.2-9.6-2.1v.1c1.8.6 3.6 1.5 5.1 2.7-.7-.5-.5-.7.4-.4.2.2.4.5.5.7a8.7 8.7 0 01-4.6-2l-1.1-.1c-.4-.3-.3-.6-.3-.9l-1.1-.4c.8.7 1.7 1.4 2.6 2.1z" class="st2"/><path d="M167.3 394l-.9-.2 3.6 1.1c-.8-.6-1.8-.9-2.7-.9z" class="st2"/></g></svg>