<svg xmlns="http://www.w3.org/2000/svg" id="Layer_1" x="0" y="0" version="1.1" viewBox="0 0 841.9 841.9" xml:space="preserve"><defs/><style>.st1{opacity:.85}.st2{fill:#060707}</style><path fill="#9d6b53" d="M0 0h841.9v841.9H0z"/><g class="st1"><path d="M497.8 421.1l2 .2c-.3-.1-.7-.2-1-.4-.4-.1-.7.1-1 .2zM501.6 421.5h.4l.3-.1-.7.1zM505.1 421.4c-.6-.1-1.2-.1-1.8-.1.6.2 1.2.2 1.8.1z" class="st2"/><path d="M502.4 421c.2.1.3.3 0 .4l1-.1c-.4 0-.7-.2-1-.3zM502.4 421c-.2-.1-.5-.3-.6-.4.1.2.3.3.6.4zM503.4 417.7c.4-.1.2.9.9.7 1.5-.3 3-.4 4.5-.4.7-.2 1.7 1 2.4.8 1.6-.2 5.8-1.3 3.4-1.3l-9.4.1c-2.7.2-5.3.5-8 .7-.7 0-1.5-.1-2.2-.2l2.9.6c1.5.2 3.3-.9 5.5-1zM483.2 419.7l1.1-.3c1.5.8 3.1.6 4.8.4l-.7-.5c-.9 0-1.1.3-.2.5-1.7-.6-3.6-.9-5.5-.9.1.3 0 .6.5.8zM481.6 419h1.1v-.1l-1.1.1zM512.5 421c4.6.2 8.9.4 13.2.7.3-.2.6-.4 1-.2.3.2.7.3 1 .4l1.8.1h.7c.4-.1.3-.2 0-.4-.2-.1-.4-.2-.6-.4.1.1.4.2.6.4.3.2.7.3 1 .3.6-.1 1.2-.1 1.8 0-.6.1-1.2.1-1.8 0l-1 .1-.3.1 4.2.3h.9c.9-.2 1.8-.1 2.7.3l.8.1-.2-.1c.1 0 .2.1.3.1l3.2.2c.7-.2 1.4-.4 2.1-.5l.7.5c.4-.2.8-.4 1.2-.4-.6-.3-1.1-.6-1.6-.9-.7-.5-1.6.9-2.4 0 .8.9 1.7-.5 2.4 0 .5.2 1 .5 1.6.9 1.1-.2 2.3 0 3.3.4-1.1.3-2.4.1-3.3-.6-.4 0-.8.2-1.2.4l-.7-.5c-.7.1-1.4.3-2.1.5l6.3.4c13.8 1.1 26.6 1.2 41 1.8 7.8.2 15.3.7 22.6 1 3.7.2 7.3.3 10.8.2l10.5-.2c3.5-.1 7.1-.3 10.7-.3s7.3 0 11.1.2c1.7 0 3.4 0 5.1-.2 2-.2 4-.4 6-.8 2-.3 4.1-.7 6-1.2 1-.2 1.9-.4 2.7-.6l2.4-.7c.8-.4 1.6-.9 2.2-1.4.5-.4.9-.9 1.3-1.4l.3-.6c.1-.2.2-.4.2-.6.1-.4 0-.7-.2-1-.7-.7-1.5-1.3-2.4-1.6-2.3-.8-4.7-.9-7.1-.5-1.3.1-2.6.4-4.3.5-2 .2-3.9.2-5.9 0 1.6.1 2.1.3 1.9.5-.7.5-1.5.8-2.4.8-2.6.5-6.8.7-9.8-.3-2.3-.7-4.6-1-7-1-2.6 0-5.2.1-7.8.4-2.7.3-5.4.5-8.1.7-2.7.2-5.3.3-8 .2-2.6-.2-5.4 0-8.5 0-8.1-.4-15.9-.4-23.8-.1s-16 .3-24.5 0c-4.5-.1-8.5.6-12.4 1-2.8.1-5.8-.5-8-.5-3.2-.1-6.4 0-9.6.4l9.4-.2c2.4 0-1.7 1.2-3.4 1.4-.7.2-1.7-.9-2.4-.8-1.5 0-3 .2-4.5.5-.7.2-.6-.8-.9-.7-2.2.1-4 1.3-5.4 1-1.1-.2-2-.4-3-.6-.6-.1-1.2-.1-1.8-.1l-1.2.2c.3.3.4.6.5 1-.6-.1-1.4-.3-2-.4.6.1 1.4.3 2 .4-.1-.4-.2-.7-.5-1-2.9.4-6.3.8-9.4 1v.1c1.9 0 3.7.2 5.5.8-.8-.2-.7-.5.2-.5l.7.5c-1.6.4-3.2.2-4.8-.4l-1.1.3c-.5-.2-.5-.5-.6-.7h-1.1c1 .5 2.1.9 3.2 1.3z" class="st2"/><path d="M531.2 421.8h-.9l3.5.3c-.8-.4-1.7-.5-2.6-.3z" class="st2"/></g><g class="st1"><path d="M351.5 416.5h-2.1c.4.1.7.2 1 .3.5.1.7-.1 1.1-.3zM347.5 416.5h-.4l-.3.1.7-.1zM343.9 416.8c.6 0 1.2 0 1.8-.1-.6-.1-1.2 0-1.8.1zM346.8 417c-.2-.1-.3-.3 0-.4l-1.1.1c.3.1.7.2 1.1.3zM346.8 417c.2.1.6.2.7.3-.3-.1-.5-.2-.7-.3zM345.9 420.4c-.4.1-.3-.8-1-.6-1.5.4-3.1.7-4.7.8-.7.2-1.9-.8-2.6-.6-1.7.3-5.9 1.7-3.4 1.6 3.8-.2 6.3-.6 9.7-.8 2.8-.5 5.4-1 8.3-1.4.8-.1 1.5-.1 2.3 0-1-.1-2-.2-3.1-.4-1.4-.2-3.2 1.1-5.5 1.4zM366.7 416.6l-1.1.4c-1.6-.5-3.4-.5-5 0l.8.5c1-.1 1.1-.4.2-.5 1.9.5 3.8.6 5.7.4-.1-.3-.1-.6-.6-.8zM368.4 417.2l-1.1.1v.1l1.1-.2zM336.3 417.9c-4.8.2-9.3.3-13.7.3-.3.2-.6.4-1 .3l-1-.3h-1.9l-.7.1c-.4.1-.2.3 0 .4.2.1.5.2.7.3-.1-.1-.5-.2-.7-.3-.3-.1-.7-.2-1-.2-.6.1-1.2.1-1.8.1.6-.1 1.2-.2 1.8-.1l1.1-.2.3-.1h-4.5l-.9.1c-.9.3-1.9.2-2.8-.1h-.8l.1.1c-.1 0-.2 0-.3-.1H306c-.7.2-1.4.5-2.2.6l-.8-.5c-.4.3-.8.5-1.2.5.6.3 1.2.6 1.7.8.8.5 1.6-1 2.5-.1-.9-.9-1.8.6-2.5.1-.5-.2-1.1-.5-1.7-.8-1.2.2-2.4.1-3.5-.4 1.2-.4 2.4-.2 3.5.4.4-.1.9-.2 1.2-.5l.8.5 2.2-.6h-6.6c-7.2-.1-14.1 0-21.1.1s-14 .3-21.5.4c-8.1.1-15.9-.1-23.5-.3-15.2-.4-29 1.5-44.5.1-6-.5-16.9.8-22.7 1.6a9.5 9.5 0 00-3.8 2.1c-.6.7-1 1.5-.7 2.1.5.9 1.1 1.6 1.9 2.1 2.2 1.2 4.8 1.7 7.3 1.5 3.6-.2 7.2-.1 10.7.4-6.5-.7 4.6-2.6 10.8-.6 9 3.1 21.4-.5 32.4-.1 2.7.1 5.6-.2 8.9-.3 16.9.5 32.6-1.6 50.4-2 4.7-.2 8.8-1.2 12.8-1.8 2.9-.3 6 .1 8.4 0 3.3-.1 6.6-.5 9.9-1.1-3.4.3-5.9.6-9.7.9-2.5.1 1.7-1.3 3.4-1.6.7-.2 1.9.8 2.6.6 1.6-.2 3.1-.4 4.7-.8.7-.2.7.7 1 .6 2.3-.3 4-1.6 5.5-1.3 1.1.1 2.1.2 3.1.4h1.9l1.2-.3c-.3-.3-.5-.6-.6-1 .6 0 1.5.2 2.1.2-.6 0-1.5-.2-2.1-.2.1.4.3.7.6 1 3-.6 6.5-1.3 9.7-1.8v-.1c-1.9.2-3.8 0-5.7-.4.9.2.8.5-.2.5l-.8-.5c1.6-.5 3.4-.5 5 0l1.1-.4c.5.1.5.4.6.7l1.1-.1c-1-.4-2.2-.7-3.3-.9z" class="st2"/><path d="M316.9 418.4l.9-.1h-3.7c.9.4 1.8.4 2.8.1z" class="st2"/></g></svg>