<svg xmlns="http://www.w3.org/2000/svg" id="Layer_1" x="0" y="0" version="1.1" viewBox="0 0 841.9 841.9" xml:space="preserve"><defs/><style>.st1{opacity:.85}.st2{fill:#211f1e}</style><path fill="#deab90" d="M0 0h841.9v841.9H0z"/><g class="st1"><path d="M720.8 367.6l-.6 4.1.6-2c.1-.7.1-1.5 0-2.1zM719.6 375.4c0 .2-.1.5-.1.7v.6c0-.4 0-.8.1-1.3zM718.7 382.6c.3-1.2.4-2.5.6-3.6-.3 1.1-.5 2.4-.6 3.6zM719.9 377c-.2.4-.4.6-.4-.1 0 .7-.1 1.4-.2 2.2.2-.9.4-1.6.6-2.1zM719.9 377c.2-.4.4-1.1.5-1.3-.2.4-.4.9-.5 1.3zM722.9 379.3c0 .7-.9.4-1 1.9-.3 3.4-.3 6.3-.9 9.5 0 1.5-1.5 3.5-1.6 5-.4 3.4-.8 12.2.1 7.1.7-3.8 1.2-7 1.7-10s.8-6 1.3-9.5l.4-4.2.3-4.1c.2-2.8.3-5.6.6-8.4.2-1.6.4-3.1.7-4.6-.3 1.9-.8 3.9-1.2 6.1-.7 2.9.1 6.5-.4 11.2zM724.4 337.3c0 .7.1 2.2.1 2.2-.8 3.2-1.2 6.6-1 9.9l.6-1.4c.1-1.9-.1-2.2-.5-.5.8-3.7 1.4-7.5 1.5-11.4-.2.2-.5.2-.7 1.2zM725.3 333.9c0 .7-.1 1.5-.1 2.2l.1-.1v-2.1zM716.9 397.8c-.5 2.4-.9 4.7-1.4 7l-1.6 6.7c-.3 1.1-.5 2.2-.8 3.3s-.6 2.2-.9 3.2l-1.8 6.4c.1.7 0 1.4-.3 2.1-.4.6-.7 1.2-1 1.9l-1.2 3.6-.3 1.3c-.1.7.1.6.4.2.2-.4.5-.8.7-1.2-.2.2-.5.8-.7 1.2-.3.6-.6 1.2-.9 1.9-.3 1.2-.7 2.3-1.2 3.5.3-1.2.7-2.3 1.2-3.5.2-.7.4-1.4.5-2.1 0-.2.1-.4.1-.6-.9 2.8-2 5.5-3 8.2l-.6 1.8c-.4 1.8-1.2 3.5-2.2 5-.2.5-.4 1-.6 1.4l.2-.2c-.1.2-.2.4-.3.5-.9 2-1.8 4-2.8 6-.5 1.4-.9 2.8-1.4 4.2l-1.1 1.1c-.1.8-.4 1.6-.8 2.4.8-.8 1.6-1.6 2.3-2.5 1.1-1.1.6-3.4 2.2-4.6-1.6 1.2-1.1 3.5-2.2 4.6-.7.9-1.5 1.7-2.3 2.5-1 2.1-2.3 4.1-3.9 5.8.9-2.2 2.2-4.1 3.9-5.8.4-.7.6-1.6.8-2.4l1.1-1.1c.5-1.4 1-2.8 1.4-4.2l-3 5.8-3.3 5.7c-3.7 6-7.8 11.6-12.5 16.9-4.6 5.1-9.8 9.6-15.5 13.5-5.8 3.8-12.1 6.7-18.7 8.6-6.9 1.9-14 2.8-21.1 2.7a99.1 99.1 0 01-23-3.4c-7.3-2-14.4-4.6-21.3-7.8-6.8-3.1-13.3-6.4-19.6-10s-12.5-7.3-18.5-11.3c-12.3-8.1-23.8-17.4-34.3-27.6-4.2-4.1-10.4-9.6-16.5-15.2s-12.1-11.2-16-15.2c-5.8-4.8-8-5.2-8.8-4.2s-.2 3.3 0 3.6c2 4.6 4.6 7.9 8.3 11.9s8.5 8.6 15 15.8c-4.5-4.8-2.3-3.6 1.9 0 5.2 4.5 10.1 9.4 14.7 14.5 5.8 7.1 14.4 14 23.9 20.3s20.1 12.2 29.8 17.9c1.2.7 2.5 1.4 3.8 2s2.6 1.3 4 2l4.2 2 4.5 2c7.9 3.6 16.2 6.5 24.7 8.4 8.6 2 17.4 2.9 26.2 2.5 9.1-.4 18-2.3 26.4-5.7 8.7-3.6 16.7-8.6 23.7-14.9.9-.8 1.8-1.7 2.7-2.6l2.5-2.6c1.6-1.8 2.9-3.7 4.3-5.4.7-.9 1.3-1.8 1.9-2.7l1.8-2.7c1.2-1.8 2.2-3.6 3.2-5.4l2.4-3.9c.8-1.3 1.6-2.6 2.3-3.9s1.6-2.5 2.2-3.7 1.2-2.4 1.8-3.5c.8-1.7 1.7-3.4 2.3-5s1.3-3.3 1.9-4.9c1.3-3.1 2.1-6.2 3-9.2-1.1 3.3-2 6.2-3.2 9.1s-2.2 6-4 9.5c-1.1 2.4-1 1.4-.4-.5.3-1 .7-2.2 1.1-3.4s.7-2.3 1-3.1c.4-1.4 2.3-3.1 2.6-4.6 1.1-3 2-6.1 2.7-9.2.3-1.5 1.2-1 1.3-1.7 1.2-4.5 1.2-8.3 2.2-11l2.1-5.9c.4-1.2.8-2.4 1.1-3.7l.3-2.5c-.3.4-.8.7-1.3.8.3-1.2.9-2.8 1.3-4-.3 1.2-.9 2.8-1.3 4 .5-.1.9-.4 1.2-.9.4-3 .9-6.3 1.4-9.6s.9-6.7 1.3-9.9l-.1.1c-.6 3.8-1.5 7.5-2.9 11.1.6-1.6.8-1.4.4.6l-.8 1.3c.6-3.3.9-6.7 2.2-9.7 0 0 .1-1.5.1-2.2.3-1 .6-.9.9-1.1l.4-2.2c-.9 1-2.4 5.8-2.4 5.8z" class="st2"/><path d="M706.9 435.4c.1-.5.3-1.1.5-1.8l-.6 1.7-.7 1.7c-.5 1.1-.9 2.3-1.3 3.4.9-.9 1.5-2.9 2.1-5z" class="st2"/></g><g class="st1"><path d="M628.5 444.9l-1-.3c.2.1.3.2.5.2.1.1.3.1.5.1zM626.6 444.3h-.4.4zM624.9 444.1c.3.1.6.1.9.1-.3-.1-.6-.1-.9-.1zM626.3 444.4c-.1-.1-.2-.1 0-.1l-.5-.1c.1 0 .3.1.5.2zM626.3 444.4l.3.1-.3-.1zM625.7 445.1c-.2 0-.1-.2-.4-.2h-2.2c-.3 0-.8-.2-1.2-.1-.5.1-1 .2-1.5.4-.4.2-.6.3 0 .2 1.4-.3 2.9-.4 4.4-.3 1.3 0 2.5.3 3.8.6.3.1.7.3 1 .5-.4-.2-.8-.5-1.3-.7l-1.1-.3c-.5 0-1 0-1.5-.1zM634.5 449l-.4-.3c-.2-.3-.5-.6-.8-.9-.3-.3-.6-.5-1-.7l.2.3c.4.3.5.3.2 0 .6.7 1.3 1.3 1.9 2 0-.2.1-.2-.1-.4zM635 449.7l-.4-.4.4.4z" class="st2"/><path d="M621.2 444.2c-2.2.3-4.3 1-6.2 2-.1.1-.2.3-.4.3-.2.1-.3.1-.5.2-.3.2-.5.4-.7.5l-.2.2c-.1.1-.1.1 0 .1l.3-.1-.3.1c-.1.1-.3.2-.4.2l-.6.6.6-.6.4-.3.1-.1c-.6.4-1.1.9-1.6 1.4l-.3.3c-.2.4-.5.7-.9 1l-.2.3h.1l-.1.1c-.3.4-.6.9-.9 1.3l-.4 1-.2.3c0 .2-.1.4-.1.6.2-.2.3-.5.5-.6s.2-.8.5-1.1c-.4.3-.3.8-.5 1.1s-.3.4-.5.6c-.2.5-.4 1-.7 1.5.1-.6.3-1.1.7-1.5.1-.2.1-.4.1-.6l.2-.3.4-1c-.6.9-1 1.9-1.3 2.9-1.1 3.3-1.1 6.8 0 10.1 2.5 7.3 9.5 12 17.1 11.5 3.8-.3 7.3-1.9 10-4.6 2.7-2.7 4.5-6.2 5.1-10 .3-2 .2-3.9-.3-5.9-.5-1.9-1.3-3.7-2.4-5.3-.4-.5-.9-1-1.5-1.3-.3-.2-.5-.1-.6 0s-.1.8-.1.9c.2.6.4 1 .6 1.6s.5 1 .7 1.5c.7 1.5 1.1 3.1 1.2 4.7-.1-1.5.1-1 .4.3.2 1.5 0 3.1-.5 4.6-.8 2.1-1.9 4.1-3.2 5.9-1.5 2-3.5 3.5-5.8 4.4-1.2.4-2.5.7-3.8.9-3.6.2-7.2-.9-10.1-3-3-2.2-5-5.5-5.7-9.2-.3-1.9-.4-3.7-.2-5.6.3-1.2.7-2.4 1.4-3.4.4-.7.8-1.4 1.2-2 .5-.6.8-1.2 1.3-1.6-1 1-1.9 2.2-2.5 3.5-.3.5-.2.3-.1-.1.1-.2.2-.5.3-.7s.2-.5.3-.6l.8-.8c.2-.2.4-.5.6-.8l.7-.8c.2-.3.3-.1.4-.2.4-.3.7-.6 1-1 .3-.3.6-.5.9-.7.4-.2.9-.4 1.3-.6.3-.1.5-.2.8-.3l.5-.3c-.1 0-.2-.1-.3-.1.3-.1.7-.2.9-.2-.3 0-.7.2-.9.2.1.1.2.1.3.1 1.4-.7 2.8-1.1 4.3-1.2-.9 0-1.7.2-2.7.2.4 0 .4 0-.1.2h-.4c.4-.2.8-.3 1.2-.3.4-.1.8-.1 1.2 0l.5-.1c.3 0 .2.1.3.1h.5c-.4-.2-.9-.3-1.5-.4z" class="st2"/><path d="M612.8 447.9l.3-.3c-.5.4-.9.7-1.3 1.2.4-.2.8-.5 1-.9z" class="st2"/></g><circle cx="623.3" cy="460.2" r="7.2" fill="#040505"/><g class="st1"><path d="M617.4 456.8l.2-.4c-.1.1-.1.1-.2.1v.3zM617.9 456.1v-.1zM618.3 455.5c-.1.1-.2.2-.2.3 0-.1.1-.2.2-.3zM617.9 456s.1 0 0 0l.2-.1c-.1 0-.2.1-.2.1zM617.9 456c-.1 0-.1 0-.2.1l.2-.1zM617.3 455.3c0-.1.2.1.3-.1.2-.3.4-.6.7-.9.1-.2.5-.1.6-.2.2-.3 1-1.1.5-.8-.7.4-1.2 1-1.7 1.6-.4.5-.7 1.1-.9 1.8-.1.2-.2.3-.2.5.1-.2.2-.4.4-.6s0-.9.3-1.3zM616.4 459.8l-.1-.2c.2-.3.2-.7.2-1l-.2.1c0 .2 0 .2.1.1-.2.4-.3.8-.3 1.2.2-.1.2-.1.3-.2zM616.2 460.2v-.2.2z" class="st2"/><path d="M619.4 454.3c.8-.6 1.7-.9 2.7-1.1.1-.1.1-.1.2-.1h.8c.1 0 0-.1 0-.1l-.2-.1.2.1H623.7 623h1.1c.2 0 .5 0 .6.1h.2c.2.1.5.1.7.2h.5l.1.2h.3c-.1-.1-.2-.2-.2-.3-.1-.2-.4.1-.5-.2.1.3.4 0 .5.2.1.1.2.2.2.3.3.1.5.2.6.5-.2-.1-.5-.2-.6-.5h-.3l-.1-.2h-.5l1.2.6c1.2.8 2.2 1.9 2.7 3.3s.6 2.9.2 4.3c-.5 1.5-1.5 2.8-2.8 3.5-1.2.7-2.6 1-4 .9-1.4-.1-2.7-.8-3.5-1.9-.4-.5-.8-1.1-1.1-1.6-.3-.6-.5-1.2-.6-1.8-.3-.6-.6-.8-.9-.8-.2 0-.4.1-.6.3-.4.5-.5 1.1-.3 1.7.2.8.4 1.7.8 2.5-.3-.8 0-.6.4 0s1 1.3 1.4 2c.8 1.1 2 1.9 3.4 2 1.5.2 2.9.1 4.3-.4.7-.2 1.4-.6 2.1-1 1.9-1.1 3.2-3.1 3.6-5.2.4-2.2 0-4.5-1.2-6.4-.6-.9-1.5-1.6-2.5-2.1-.6-.4-1.2-.7-1.8-1-.8-.3-1.6-.4-2.5-.3.8 0 1.6.1 2.4.3.6.2-.5.1-.9.1-.2 0-.4-.3-.6-.3-.4 0-.8 0-1.1.1-.2 0-.2-.2-.2-.2-.6.1-1 .4-1.3.4h-.7c-.2 0-.3 0-.4.1l-.3.2c.1 0 .2.1.2.2-.1 0-.3 0-.5.1.1 0 .3-.1.5-.1 0-.1-.1-.1-.2-.2-.6.4-1.2.9-1.8 1.4.3-.3.7-.5 1.1-.6-.2 0-.2 0 0-.1h.2c-.3.3-.6.4-1 .5l-.1.2h-.2l-.2.2c0 .2.3.2.6.1zM623.3 453.1h-.2.8-.6z" class="st2"/></g><g class="st1"><path d="M209.2 425.7l1.3-.1c-.2-.1-.5-.1-.7-.3-.3-.1-.4.2-.6.4zM211.7 425.5h.2l.2-.1-.4.1zM214 425.1c-.4 0-.8 0-1.1.1.3 0 .7 0 1.1-.1zM212.1 425c.1.1.2.3 0 .4l.7-.2c-.2 0-.5-.1-.7-.2zM212.1 425c-.1-.1-.4-.2-.4-.3.1.1.3.2.4.3zM212.4 421.5c.2-.1.2.8.7.6 1-.4 2-.7 3-.9.4-.2 1.2.8 1.7.5 1.1-.3 3.8-1.8 2.1-1.6-2.5.3-4 .7-6.2 1-1.8.5-3.4 1.2-5.2 1.7-.5.1-1 .1-1.5.1l2 .2c.9.1 2-1.2 3.4-1.6zM199.6 426.5l.6-.4c1 .4 2.2.2 3.1-.4l-.6-.4c-.6.1-.6.4 0 .5-1.2-.3-2.5-.3-3.7 0 .2.3.2.6.6.7z" class="st2"/><path d="M198.4 426l.7-.2-.1-.1-.6.3zM218.7 423.9c3-.3 5.9-.2 8.7-.2.2-.2.4-.4.6-.3.2.1.4.3.7.3h1.2l.4-.1c.2-.1.2-.3 0-.4-.2-.1-.3-.2-.4-.3.1.1.3.2.4.3.2.1.4.2.7.3.4-.1.8-.1 1.2 0-.4.1-.8.1-1.2 0l-.7.1-.2.1 2.8.1.6-.1c.7-.1 1.3-.3 1.8.2h.5l-.1-.1.2.1 2.1.1c.5-.2.9-.4 1.4-.5l.5.5c.2-.2.5-.4.8-.5-.4-.3-.7-.6-1.1-.8-.5-.5-1.1 1-1.6.1.6.9 1.1-.6 1.6-.1.3.2.7.5 1.1.8.8-.1 1.6.1 2.3.6-.8.3-1.7.1-2.2-.5-.3.1-.6.2-.8.5l-.5-.5c-.5.1-.9.4-1.4.5l4.2.3c9.1.6 17.6.8 27.1 1.5 5.1.4 10.1 1 14.9 1.6 4.7.5 9.4.8 14.2.9 4.8.1 9.7.5 14.4 1.4 1.1.2 2.3.3 3.5.2 1.4 0 2.7 0 4.1-.2 2.6-.2 5.1-.6 7.6-1.2 2.5-1.3 2.8-2.8 2.4-4-.3-.9-.8-1.6-1.4-2.2-1.3-1.1-3-1.7-4.8-1.5-2.3.1-4.5-.1-6.8-.6 4.2.9-2.9 2.5-6.8.2-5.6-3.5-13.5-.6-20.5-1.7-1.7-.3-3.6-.1-5.6-.2-10.7-1.5-20.8-.3-32.3-.8-3 0-5.7.8-8.3 1.3-1.9.1-3.9-.4-5.4-.3-2.2 0-4.3.3-6.4.8 2.2-.2 3.8-.5 6.3-.6 1.6-.1-1.1 1.2-2.2 1.5-.5.2-1.2-.8-1.7-.6-1 .1-2 .4-3 .7-.5.2-.4-.7-.6-.6-1.5.2-2.6 1.5-3.5 1.3-.7-.1-1.4-.2-2-.4h-1.2l-.8.3c.2.3.3.6.4 1-.4 0-1-.2-1.3-.3.4 0 .9.2 1.3.3a3 3 0 00-.4-1c-1.9.6-4.1 1.2-6.2 1.8v.1c1.2-.2 2.5-.1 3.7.4-.6-.2-.5-.5.1-.5l.5.5c-1.1.3-2.1.7-3.2 0l-.7.4c-.4-.1-.4-.4-.4-.7l-.7.1c.7 0 1.4.4 2.1.6z" class="st2"/><path d="M231.1 423.5l-.6.1 2.4.1c-.4-.5-1.1-.4-1.8-.2z" class="st2"/></g></svg>