<svg xmlns="http://www.w3.org/2000/svg" id="Layer_1" x="0" y="0" version="1.1" viewBox="0 0 842 842" xml:space="preserve"><defs/><style>.st1{opacity:.85}.st2{fill:#211f1e}</style><path fill="#edc4b3" d="M0 0h842v842H0z"/><g class="st1"><path d="M180 480h1-1zM183 481h1-1zM186 482l-2-1 1 1h1zM184 481h-1 1zM184 481l-1-1 1 1z" class="st2"/><path d="M185 480h1l2 1 1 1 2 2c1 1 5 3 3 1l-7-5-8-2h-2 3l2 1 3 1zM167 481l1-1h4l-1-1v1l-5 1h1zM165 481h1-1z" class="st2"/><path d="M191 486l9 8h1l1 1 1 1h1-1l1 1 1 1-1-1-1-1 3 3h1l1 2h1l2 2 2 2 1 1-1-2-1-1 1 1 1 2 1 2-1-2-1-1-2-2 4 5 1 4v4l-5 7a31 31 0 01-5 5h-1l-1 1-9 3a29 29 0 01-19-2l-7-6a35 35 0 01-11-24v-9l5-6 2-2v-1l-1-1c-2 0-5 1-6 3-2 2-4 5-5 9l1-2v3l-1 9c0 4 1 9 4 14l10 13 2 1 1 1 4 2c8 4 16 4 24 2l11-5 1-1 1-1 2-2 2-3 2-2c2-2 3-4 3-7 0-2 0-4-2-6l-4-7c1 2-2-1-3-2l-2-1-3-3-1-1-4-2-2-2-1-1-1-1v1l-1-1 1 1v-1l-7-5 4 4c-1-1-1-1 0 0l-3-3h-1v-1h-1l1 1 1 1z" class="st2"/><path d="M204 497v-1a55 55 0 000 1z" class="st2"/></g><path fill="#1f2020" d="M189 513a11 11 0 01-21 0c0-6 6-13 11-10 7 4 10 5 10 10z"/><g class="st1"><path d="M188 508h-1 1zM187 507zM186 506l1 1-1-1zM187 507h-1 1zM187 507zM186 508v-1h-1l-1-1h-1l3 1 2 2v-1h-2zM189 513v-1-1 2zM189 513z" class="st2"/><path d="M184 505l-4-2h-1l-1-1 1 1-2-1h-2l-1 1h-1 1l1-1-1 1h-1-1 2l1-1-2 1a13 13 0 00-5 9c-1 4 1 8 4 10 2 2 5 3 7 3l8-3 2-3 1-4v-2h-1v1l-1 2-1 2v1l-3 2-4 1h-4l-3-2a10 10 0 01-3-9l1-3 2-4 2-1h2-1 0c0-1 0 0 0 0h3l1 1h1l1 1-1-1 3 2-1-1h-1v-1l2 1v0zM178 503l-1-1 1 1z" class="st2"/></g><g class="st1"><path d="M86 340v0zM86 353v2-2zM87 365v-6 6zM87 356h-1a568 568 0 011 0zM87 356v-3 3zM90 359v3l2 16v8l3 12a484 484 0 01-6-61v-7l-1 10 2 19zM88 288v4l-1 17v-3c0-3 0-3 0 0l2-20-1 2zM89 283l-1 3h1v-4 1z" class="st2"/><path d="M90 391a391 391 0 0010 49v3l2 7 1 2c1 1 1 0 0 0v-3 3l1 3 2 6-2-6-1-3v-1l2 7 2 7 1 3 2 4 2 5 1 2v-1 1l2 5 3 5 2 3 2 4 1 2 3 3-3-5-2-3 2 3 2 5 2 3 2 2 1 3 2 2a31 31 0 01-5-7l-1-3-3-3-1-2-2-3-2-4a155 155 0 0036 46 117 117 0 0066 27 141 141 0 0057-7 104 104 0 0034-21l7-8 4-3 3-4a150 150 0 0025-52 230 230 0 009-36l2-19a749 749 0 005-77c0-14-2-28-3-38-2-13-4-16-5-15l-2 5v24a312 312 0 012 38 250 250 0 01-2 34l-8 51a291 291 0 01-16 54l-2 3-1 3-3 6-2 4-2 3-2 3-1 2-2 1c-8 11-18 20-29 27l-2 1-2 2-4 2-5 2-2 1-3 1h-2l-2 1-5 1-5 1-5 1c-6 1-13 2-20 1h-10l-5-1h-5l-5-1-6-1-5-2-2-1h-3l-19-9a155 155 0 01-32-27l-1-1-1-1-2-3-4-6-4-6-3-6-14-29 3 7 3 7 3 7 2 4 3 4 1 2-2-2-6-10-3-8-1-3-2-4-3-7v-3l-7-18-1-5-1-5-1-6-1-4-1 2-1-7 1 7 1-2c-3-10-5-22-6-33v1a284 284 0 012 20v2l-2-17-1-3 1-2-1-4v11z" class="st2"/><path d="M104 455l-1-3a233 233 0 003 8l-2-5z" class="st2"/></g><g class="st1"><path d="M753 338v0zM754 351v0zM755 362v-6 6zM755 353h-1l1 3v-3zM755 353v-2 2zM758 356v3l1 15v8c0 6 0 20 1 12a232 232 0 00-6-66l1 10 3 18zM743 290l1 3 4 16v-3c-1-3-1-3-1 0l-4-18v2zM742 285l1 3-1-4v1zM756 387a205 205 0 01-6 47l-1 3-2 6-1 2h1l1-2-1 2-2 3 1-3 1-1-2 3-1 3-1 4-2 3-1 3-2 4-2 3-1 3v-1 1l-3 4-3 5-4 6-2 1-2 4 4-4 2-3-2 3-4 4a45 45 0 01-8 8l4-5 4-3 2-4 2-1 4-6-14 16-3 3-3 3-1 1-2 2-3 2-14 10a203 203 0 01-97 26l-10-1-2-1h-2l-4-2c-6-2-11-6-16-9l-4-3-3-3-4-3-3-3-12-14c-7-9-12-20-17-30l-13-33c-7-23-11-46-14-69l-4-36c-2-13-2-27-2-36-2-12-3-15-4-15l-3 5-1 23 2 34c-1-10 0-6 1 3l3 33c1 14 4 31 9 49a357 357 0 0027 65 172 172 0 0023 29l4 3 2 2 2 2 4 3 2 1 2 2 9 5 3 1 1 1h1l3 1 3 1 21 3 21-2 10-1 5-2 5-1 10-2 6-2 5-2 2-1 3-1 5-2 5-2 2-1 3-1a120 120 0 0034-25l6-5 2-3 3-3 2-2 2-3a51 51 0 007-9l2-3 4-8 2-3 1-4 1-2 1-1 1-4-3 7-1 4-2 3-4 7-2 4-3 4c-2 3-1 2 0-1l5-10 5-7 6-14 1-3c3-7 3-13 5-18l1-5 1-5 1-6 1-4-2 2 2-7-2 7 2-2v-31l-1 18v3l1-16-1-3 1-2v-4l-1 6v5z" class="st2"/><path d="M745 448l1-3-2 6-2 5 1-3 2-5z" class="st2"/></g><g class="st1"><path d="M602 537v-1 1zM603 536h1-1zM605 536h-1 1zM604 536zM604 536h-1 1zM603 533c0-1 0 0 0 0l2-1h1l1-2-4 2-3 2h-1 2l2-1zM595 538l2-1c-1 0-1 0 0 0l-3 1h1zM594 538zM608 534l6-2v-1h2l-1-1 1 1 1-1-1 1 2-1h2-1 1l1-1 1-1v1l1-1-1-1-1 1h2l-1 1v-1l-1 1 3-1 9-3 5-2 4-3 3-1 2-1 5-2 5-2 4-3 10-5 4-3 4-4v-4l-3-1h-4l-4 2v2l-4 1c-3 0-5 1-7 3l-6 4-4 2-5 3-2 1-2 2-5 3-5 2-5 4-4 1-4 3 4-3v1l-1 1h-1l-2 1c0 1 0 0 0 0l-2 2h-2-1v1l1 1h-1 1l-1-1-4 3 3-1s-1 0 0 0l-2 1h-1l2 1zM616 531l1-1-1 1z" class="st2"/></g></svg>