<svg xmlns="http://www.w3.org/2000/svg" id="Layer_1" x="0" y="0" version="1.1" viewBox="0 0 841.9 841.9" xml:space="preserve"><defs/><style>.st1{opacity:.85}.st2{fill:#211f1e}.st3{fill:#262524}</style><path fill="#e6b8a2" d="M0 0h841.9v841.9H0z"/><g class="st1"><path d="M166.4 372.4c-1.6 1.1-3.1 2.4-4.7 3.6.8-.6 1.6-1.1 2.5-1.6.9-.6 1.6-1.2 2.2-2zM157.5 379.4l-.8.7-.6.6 1.4-1.3zM150 386.4c1.4-1.2 2.6-2.4 3.9-3.5-1.4 1.1-2.7 2.3-3.9 3.5zM156.2 381.1c-.6.3-.9.4-.2-.4-.8.7-1.5 1.4-2.2 2.1.8-.5 1.6-1.1 2.4-1.7z" class="st2"/><path d="M156.2 381.1c.6-.3 1.4-.8 1.7-1-.5.3-1 .7-1.7 1zM156.5 385.4c-.7.8-1.1-.1-2.5 1.4-1.7 1.7-3.1 3.3-4.6 4.9s-2.9 3.2-4.4 4.8c-.8.9-1.7 1.7-2.7 2.4-1 .7-1.9 1.5-2.6 2.5-3.1 3.7-9.2 14-5 8.4 1.6-2.1 3.1-4 4.5-5.8s2.9-3.4 4.3-5 2.8-3.2 4.3-4.7l2.3-2.4 2.5-2.4c5.4-5.6 11.2-10.9 17.2-15.9l1.3-1 .7-.5c.1-.1.3-.2.4-.3l.3-.3 2.5-2-1.7 1.3c-.6.4-1.1.9-1.8 1.3l-3.7 2.5c-1.9 1.4-3.6 2.9-5.2 4.6l-2.8 3c-1 1-2.1 2.1-3.3 3.2zM198.6 343.8c-.6.8-1.8 2.5-1.8 2.5-3.6 3-7 6.2-10.1 9.7l1.9-1.1c1.9-1.9 2-2.3.1-.8 4.3-3.3 8.2-7 11.8-11.1-.6 0-.8-.2-1.9.8z" class="st2"/><path d="M202.3 340.5l-2 2.5h.1l2-2.5h-.1zM135.6 402.8c-8.7 10.5-15.7 21.4-20.2 33.1-.1 1-.3 2-.7 2.9-.5.9-.9 1.8-1.2 2.7-.6 1.8-1 3.5-1.4 5.3l-.3 1.9c-.1 1 .1.8.4.2s.5-1.3.7-1.8c-.2.3-.4 1.2-.7 1.8-.1.4-.3.9-.4 1.3l-.3 1.5c-.2 1.7-.3 3.4-.5 5.2 0-1 .1-1.9.1-2.8s.2-1.6.4-2.4l.2-1.5c.1-.5.2-1 .2-1.5 0-.3 0-.6.1-.9-.9 4.1-1.4 8.3-1.4 12.5 0 1 .1 1.9.1 2.6s.1 1.5.2 2.2.2 1.5.2 2.1c.2 1.2.2 2.4.2 3.5.1.7.3 1.5.4 2.2v-.5c0 .3.1.6.1.9.7 3.1 1.6 6.2 2.8 9.1 1 1.8 2.1 3.6 3.3 5.4l.2.8.4 1.3c.4.4.7.7 1.1 1.2.4.5.8 1 1.3 1.5-.8-1.5-1.3-3-1.9-4.4a9.96 9.96 0 010 0c.6 1.3 1.1 2.8 1.9 4.4.9 1.2 2 2.5 3 3.9.5.7 1.1 1.4 1.6 2.1l1.5 2a22.8 22.8 0 01-3.7-3.9c-.9-1.3-1.7-2.6-2.3-4-.4-.6-.9-1.1-1.3-1.5-.3-.4-.7-.8-1.1-1.2l-.4-1.3-.2-.8c-1.2-1.8-2.3-3.6-3.3-5.4 2.4 5.9 5.8 11.3 10 16.1 6.8 7.7 15.2 13.8 24.6 18 9.2 4.1 18.9 6.9 28.9 8.3 10 1.5 20.2 2 30.3 1.5 10.4-.5 20.8-1.8 31.1-3.9 5.7-1.2 11.2-2.7 16.7-4.6 5.4-1.9 10.6-4 15.8-6.5 10-4.9 19.5-10.9 28.3-17.7 8.5-6.6 16.4-14 23.6-22.1 3.6-3.9 7-8 10.2-12.1 3.3-4.1 6.4-8.4 9.4-12.7 12-17.2 22.3-35.5 32.5-55.1 4.8-9.7 9.1-19.8 12.8-30 4.1-11.3 7.6-22.7 9.8-30.6 2.2-10.8 1.3-13.8.1-13.8s-3.1 2.7-3.3 3.1c-3.4 6-5.4 11.5-7.8 18.7-3.2 9.6-6.9 19-11.3 28.2 3.8-8.3 3.2-5 .4 2.4a175 175 0 01-5.6 12.9c-2.1 4.4-4.5 8.7-7.2 12.9-7 10.5-14.1 23.7-22.5 37s-17.9 26.8-28.6 37.5c-5.7 5.9-11.7 11.5-18 16.7-18.4 14.2-38.6 24.5-60.8 28.8-11.3 2.3-22.8 3.6-34.3 3.7-17.9.3-35.6-3.4-51.9-10.7-5-2.3-9.7-5.1-14-8.5-3-2.5-5.6-5.4-7.8-8.5-2-2.8-3.8-5.9-5.2-9a57.1 57.1 0 01-5.6-25.4 52.36 52.36 0 005.2 24.9c.7 1.5.9 2 .7 1.9a6.6 6.6 0 01-1.4-2c-1.6-2.5-2.8-5.2-3.8-8-.8-1.8-.2-5-.7-6.9-.6-4.2-.9-8.4-.8-12.6 0-2 1-1.6 1-2.6 0-.4.1-.8.1-1.1s.1-.8.1-1.1c.1-.7.2-1.4.2-2.1.2-1.4.3-2.7.5-4s.4-2.4.7-3.5c.3-1 .6-2 1-3 .6-1.4 1.2-2.7 1.8-4s1.3-2.5 1.9-3.7c.8-1.5 1.6-3 2.5-4.6.5-1 1-2.1 1.5-3.1-.5.4-1 .7-1.7.9.9-1.5 2.3-3.4 3.3-4.8-.9 1.4-2.4 3.3-3.3 4.8.6-.1 1.2-.4 1.7-.9 2-4 4.3-7.8 6.8-11.5 2.6-3.9 5.5-7.6 8.4-11.2h-.1c-3.5 4-6.9 8-10.6 12.2 1.6-1.8 1.6-1.4.1.8l-1.6 1.4c2.4-4.1 5.3-7.8 8.7-11l.7-.9c.4-.5.8-1.1 1.1-1.6 1.1-1 1.3-.8 1.7-.9l2.1-2.4c-.5.3-1.2.9-1.9 1.5s-1.6 1.4-2.3 2.1c-2.1 1.4-3.3 2.7-3.3 2.7zM111.4 451.9c.1-.7.2-1.6.3-2.6-.7 3.4-1.1 6.9-1.2 10.5.6-1.9.6-4.9.9-7.9z" class="st2"/></g><g class="st1"><path d="M146.1 507.4l.2-.6c-.1.1-.2.2-.4.2 0 .1.1.2.2.4zM146.5 506.2v-.2.2zM146.7 505.1c-.1.2-.1.4-.1.6.1-.2.1-.4.1-.6zM146.2 505.9c.1 0 .2 0 .3.1v-.4c0 .1-.1.2-.3.3zM146.2 505.9c-.1 0-.2.1-.3.1.1 0 .3-.1.3-.1zM143.9 504.9c0-.1.6.1.6-.2 0-.5-.3-1-.2-1.5-.1-.2.7-.4.6-.6-.1-.5-.8-2-.9-1.2-.1 1.1-.1 1.9-.2 2.9 0 .9.1 1.7.1 2.6-.1.2-.1.4-.3.6.2-.2.4-.5.6-.8s-.4-1.1-.3-1.8zM144.1 511.8c0-.1-.1-.4-.1-.4.7-.3.7-.8.7-1.4l-.4.1c-.1.3.1.4.3.2-.5.4-.9.9-1 1.5.1 0 .3.1.5 0zM143.4 512.1c0-.1.1-.2.1-.3h-.1v.3z" class="st2"/><path d="M146.6 502.6c.1-.4.1-.7.2-1.1l.1-1.1.3-2.1c-.1-.1-.3-.2-.2-.3l.3-.3.1-.6v-.2c-.1-.1-.2-.1-.3 0-.1.1-.2.1-.3.2.1 0 .2-.1.3-.2.1-.1.2-.2.2-.3v-.6c.1.2.1.4 0 .6l.1.3.1.1.2-1.4c0-.1-.1-.2-.1-.3-.1-.3-.2-.7.1-.9v-.2h-.1l.1-.1V493c-.1-.2-.4-.4-.5-.6l.3-.3c-.2-.1-.3-.2-.4-.3-.2.2-.4.4-.5.6-.3.3.8.4.2.8.7-.4-.5-.5-.2-.8.1-.2.3-.4.5-.6-.2-.4-.1-.8.1-1.2.4.4.1.8-.1 1.2.1.2.3.3.4.3l-.3.3c.1.2.4.4.5.6 0-.7-.1-1.4-.2-2.1-.3-2.3-1-4.5-2.1-6.5-1.2-2.1-2.6-4-4.4-5.6a49.2 49.2 0 00-6.1-5c-2.1-1.3-4.3-2.4-6.7-3-2.4-.7-4.7-1.6-6.9-2.7-1.8-.9-5.5-1-7.4-.9a2.5 2.5 0 00-1.6 2.6c0 .6.2 1.3.4 1.9.4.9 1.2 1.6 2.1 1.8 1.1.2 2.2.6 3.1 1.2-1.9-1.1 1.7-1.6 3.2.5 1 1.3 2.5 2.2 4.1 2.3 1.6.3 3.3.4 4.6 1.3.3.2.7.4 1.1.5.4.2.8.3 1.2.5 1.9 1.4 3.7 2.5 5.3 3.8 1.7 1.2 3.1 2.8 4 4.8.2.5.6 1 1 1.4.4.4.8.9 1.1 1.3.3.7.1 1.6.2 2.2.1.9.4 1.8.7 2.7-.1-1-.4-1.6-.6-2.6-.1-.3.2-.2.5 0 .3.3.5.5.7.9.2.2-.6.6-.4.8.1.5.3.9.6 1.3.1.2-.6.2-.5.3.1.6 1 1.2.8 1.6-.1.3-.3.6-.4.9-.1.2-.1.4-.1.5 0 .1.1.3.1.4.3-.1.5-.1.8-.1l-.3.6.3-.6c-.3 0-.5 0-.8.1.2.5.3 1 .4 1.5.1.5.1 1 .2 1.6h.1c0-.6.3-1.2.8-1.6-.2.2-.4.2-.4-.1l.4-.2c.2.5.1 1.2-.4 1.5l.2.4c-.1.1-.4.1-.6.1v.4c.2-.5.5-.8.8-1.1z" class="st2"/><path d="M147.3 496.5v.3l.1-1.2c-.3.3-.2.6-.1.9z" class="st2"/></g><path d="M131.3 492.3c.8 3.4-.6 6.7-3.2 7.4s-6 0-6.9-3.4-1.1-7.8 1.5-8.5 7.7 1.1 8.6 4.5z" class="st3"/><g class="st1"><path d="M129.8 489.5c-.1-.1-.2-.2-.3-.2.1 0 .1.1.1.2.1.1.2 0 .2 0zM129.2 489.1h-.1.1zM128.6 488.8c.1.1.2.1.3.2 0-.2-.1-.2-.3-.2zM129.1 489.1s0-.1 0 0l-.1-.2c0 .1 0 .1.1.2zM129.1 489.1c0 .1 0 .1.1.1-.1 0-.1-.1-.1-.1zM128.5 489.7c-.1 0 .1-.2-.1-.2-.3-.1-.5-.1-.8-.2s-.2-.3-.3-.3c-.3-.1-1.1 0-.7.1.5.1 1 .3 1.5.5.5.1.9.3 1.3.6l.3.3c-.1-.2-.2-.3-.3-.4-.2-.3-.6-.2-.9-.4zM131.4 492l-.1-.2c0-.3-.1-.6-.4-.8v.2c.1.1.2.1.1 0l.3 1c0-.1.1-.1.1-.2zM131.3 492.3c0-.1 0-.1-.1-.2.1.1.1.1.1.2z" class="st2"/><path d="M127.3 488.3c-.8-.3-1.6-.5-2.4-.7-.1 0-.1.1-.2.1s-.1-.1-.2-.1h-.5c-.1 0 0 .1 0 .1l.1.1-.1-.1c-.1 0-.1-.1-.2-.1h-.3.6-1c-.2.1-.4.1-.5 0H122.3l-.3.1-.3.2c-.1.1-.2.2-.2.4h-.2c0 .1 0 .2-.1.3.1 0 .2-.1.3-.1.2 0 0-.4.3-.3-.3-.1-.2.3-.3.3-.1 0-.2 0-.3.1-.1.2-.3.4-.4.5 0-.2.2-.4.4-.5 0-.1.1-.2.1-.3h.2c.1-.1.2-.3.2-.4-.4.2-.7.5-.9.9-.6 1.2-.9 2.6-.7 3.9.1 1.3.3 2.7.6 4 .2.8.6 1.5 1.1 2.2a7 7 0 001.9 1.5c1.4.6 3 .7 4.5.3a6.38 6.38 0 004.8-5.4c.1-.8.1-1.6-.1-2.4-.7-1.5-1.5-.4-1.6-.4-.3.4-.4.8-.4 1.3 0 .6-.1 1.2-.4 1.7.2-.5.4-.3.3.2-.1.6-.4 1.1-.9 1.4-.7.3-1.2.8-1.8 1-.2.1-.3.1-.5.2s-.4.1-.6.1c-.4.1-.8.1-1.2 0-.4-.1-.8-.1-1.2-.3-.9-.4-1.6-1.3-1.9-2.3-.4-1.4-.7-2.8-.7-4.2 0-.7-.1-1.4 0-1.9.1-.3.3-.5.6-.7.1 0 .1-.1.2-.1s.2-.1.2-.1c.2-.1.4-.2.7-.2-.2 0-.4.1-.7.2-.1.1-.3.2-.4.3-.2.2-.1-.4.2-.5.1-.1.3.1.4.1s.4-.2.7-.3.1.2.2.2c.4 0 .7-.3.9-.2.2.1.3.1.5.2l.3.1h.2v-.3c.1 0 .2.1.3.2-.1 0-.2-.1-.3-.2v.3c.6 0 1.2.1 1.7.2-.3-.1-.6-.3-.9-.5.1.1.1.2-.1.1l-.1-.2c.3 0 .6.1.8.3h.2c.1.1 0 .1 0 .2l.2.1c-.2-.3-.3-.4-.5-.6z" class="st2"/><path d="M123.8 487.6h.2-.7c.1.1.3.1.5 0z" class="st2"/></g><path d="M711.5 493.4c-.8 3.4.6 6.7 3.2 7.4s6 0 6.9-3.4 1.1-7.8-1.5-8.5-7.8 1.1-8.6 4.5z" class="st3"/><g class="st1"><path d="M713.4 491.1c.1-.1.2-.1.3-.2h-.2c-.1.1-.1.2-.1.2zM713.9 490.7h.1v-.1zM714.4 490.4c-.1 0-.2.1-.3.2.2-.1.2-.2.3-.2zM714 490.6s.1 0 0 0h.1-.1zM714 490.6zM713.6 489.8c0-.1.2.1.2 0 .2-.2.4-.4.7-.6.1-.1.4 0 .5-.1.3-.2 1-.8.5-.6-.6.3-1.1.6-1.7.9-.4.4-.8.7-1.1 1.2l-.3.3c.2-.1.3-.2.5-.3s.4-.5.7-.8zM711.8 493.2v-.2c.2-.2.4-.5.4-.8h-.2c-.1.2 0 .2.1.1-.3.2-.5.5-.5.9h.2zM711.5 493.4v-.2.2z" class="st2"/><path d="M715.5 489.6c.8-.3 1.6-.5 2.4-.6.1 0 .1-.1.2-.1l.2.1h.4c.1 0 0-.1 0-.1l-.1-.1.1.1c.1 0 .1 0 .2.1h.3-.5 1c.2 0 .4 0 .5.1h.1l.2.1.2.2c.1 0 .3.1.4.1v.2c.1 0 .2 0 .2.1v-.4c0-.2-.4 0-.4-.3 0 .2.3.1.4.3v.4c.2.1.2.4.2.6-.2-.2-.2-.4-.2-.6-.1-.1-.1-.1-.2-.1v-.2c-.1-.1-.2-.1-.4-.1.3.2.5.5.7.8.4 1.1.5 2.4.4 3.6-.1 1.3-.3 2.5-.7 3.7-.4 1.2-1.3 2.1-2.6 2.3-1.1.3-2.3.2-3.4 0-1-.3-1.7-1.1-1.9-2.2-.1-.4-.2-1-.3-1.6-.1-.5-.1-1.1 0-1.6 0-.5-.4-.9-1-.9-.1 0-.3 0-.4.1a2 2 0 00-.8 1.2c-.1.5-.1 1.1-.2 2.1 0-.7.2-.4.3.1.2.7.3 1.4.4 2 .2 1.2 1.1 2.3 2.3 2.7l1 .3c.3 0 .6.1.9.1.6 0 1.2.1 1.8.1.7 0 1.3-.1 1.9-.4 1-.3 1.9-.8 2.5-1.5.6-.8 1.1-1.7 1.3-2.6.3-1.6.5-3.3.5-5 0-.9-.3-1.8-.8-2.6-.2-.7-.6-1.3-1.1-1.8-.2-.1-.4-.3-.6-.4l-.7-.2h-1c.3 0 .7 0 1 .1.4.1.9.2 1.2.5.5.4-.5-.1-1-.1-.2 0-.4-.4-.5-.3-.3 0-.7 0-1 .1-.1 0-.1-.2-.2-.2-.5.1-.8.4-1.1.4h-.6c-.1 0-.2 0-.4.1l-.2.1.2.2h-.4.4c0-.1-.1-.2-.2-.2-.5.3-1.1.6-1.6.9.3-.2.7-.3 1-.2-.2 0-.2-.1 0-.1l.2.1c-.2.2-.6.3-.9.3l-.2.1c-.1 0-.1-.1-.2-.1l-.2.1c.6 0 .8 0 1 .1z" class="st2"/><path d="M718.9 488.9h-.2.7c-.1-.1-.3-.1-.5 0z" class="st2"/></g><g class="st1"><path d="M673.8 374.5c1.5 1.2 3 2.4 4.6 3.6l-2.1-2.1c-.7-.6-1.5-1.2-2.5-1.5zM682.5 381.6l.8.7.7.5-1.5-1.2zM690.3 388.2c-1.2-1.2-2.5-2.4-3.9-3.4 1.1 1 2.4 2.1 3.9 3.4zM684.4 382.6c.4.5.5.8-.3.2.8.6 1.6 1.3 2.4 1.9-.9-.7-1.5-1.5-2.1-2.1z" class="st2"/><path d="M684.4 382.6c-.4-.5-1-1.2-1.2-1.5.3.4.7.9 1.2 1.5zM688.6 381.7c.8.6 0 1.2 1.7 2.4l5.3 4.4c1.7 1.5 3.3 2.9 4.9 4.5.9.9 1.7 1.9 2.3 2.9.6 1.1 1.4 2.1 2.2 3l1.5 1.5 1.8 1.8 1.8 1.8 1.6 1.7c2 2 3 2.9.8 0-1.7-2.2-3.4-4.1-4.9-5.9s-3.1-3.4-4.7-5-3.1-3.1-4.7-4.6l-2.5-2.4-2.7-2.4c-6.1-5.2-12.3-9.7-19-14.4l-1.3-1-.7-.5-.2-.2-.3-.3-2.4-2.1 1.5 1.4c.5.5 1 1 1.5 1.4l3.5 2.9c1.8 1.5 3.7 2.8 5.8 4 1.1.7 2.3 1.5 3.5 2.3 1.3.9 2.5 1.8 3.7 2.8zM642.2 344.8l2.3 2c2.7 3.8 6.3 7 10 10l-1.2-1.8c-2-1.9-2.4-1.9-.8 0-3.6-4.3-7.3-8-11-12 .1.5-.2.6.7 1.8z" class="st2"/><path d="M639.4 340.7l2.1 2.4v-.1c-.7-.8-1.5-1.5-2.2-2.3h.1zM705.8 403.1c8.7 10.4 15.6 21.4 19.9 33 .6.8 1 1.7 1.2 2.7.2 1 .3 2 .5 2.9.5 1.7.9 3.5 1.3 5.3.1.6.3 1.2.4 1.9.3 1 .4.7.4 0V447v1.9c.1.9.1 1.8.2 2.9.3 1.7.5 3.4.6 5.1l-.3-2.8c-.1-.9-.2-1.6-.2-2.4l-.3-1.5-.4-1.5c-.1-.3-.2-.6-.2-.9.8 4 1.2 8.1 1.2 12.3V464.9c0 .7-.1 1.4-.1 2.1-.1 1.2-.4 2.3-.8 3.4-.2.7-.3 1.4-.5 2.1l.2-.4a56.63 56.63 0 01-3.1 9.6c-.6 2-1.3 3.9-2.2 5.8 0 0-.2.3-.5.6l-.9 1c-.1.5-.3 1-.5 1.5-.3.6-.6 1.2-1 1.7 1.1-1.1 2.2-2.3 3.2-3.5a8.92 8.92 0 010 0c-1 1.2-2.1 2.4-3.2 3.5-.9 1.4-1.9 2.7-3 3.9l-1.8 1.8c-.6.5-1.2 1.1-1.9 1.5 1.2-1.5 2.3-2.8 3.5-4s2.2-2.2 3.2-3.3c.4-.5.7-1.1 1-1.7.2-.5.4-1 .5-1.5l.9-1c.3-.3.5-.6.5-.6.9-1.9 1.6-3.8 2.2-5.8-2.5 5.6-5.8 10.8-10 15.3-6.8 7.2-15 12.9-24.1 16.8-9 3.9-18.4 6.5-28.1 7.8-9.8 1.4-19.7 1.7-29.6 1.1-10.2-.6-20.4-2.1-30.3-4.3-5.4-1.3-10.8-2.9-16-4.9-5.1-1.9-10.2-4.2-15-6.8-9.5-5.1-18.3-11.2-26.5-18.2a233.12 233.12 0 01-40.8-46.2 271.2 271.2 0 01-28.9-55.2c-3-7.7-7.5-18.6-11.5-29.6s-7.7-22-9.9-29.7c-3.7-10-5.5-12.2-6.7-11.6s-1.5 3.7-1.5 4.2c0 6.9 1.2 12.7 3.3 20.1s5 16.3 9 29.4c-2.8-8.9-1-5.9 1.9 1.5 1.5 3.7 3.4 8.4 5.2 13.2s3.7 9.8 5.1 14c3.8 12.3 10.9 26.2 19.8 39.8 9.1 13.7 19.2 26.7 30.2 38.9 5.8 6.4 12.2 12.4 18.9 17.9a147.33 147.33 0 0030.8 20.4c11 5.4 22.7 9.3 34.8 11.5 12.1 2.2 24.3 3.4 36.6 3.3 12.9 0 25.7-1.7 38.1-5.1a80.95 80.95 0 0033.3-19c3.3-3 6.4-6.2 9.1-9.7 2.5-3.2 4.7-6.6 6.5-10.3a53.43 53.43 0 004.9-29.7c.4 4.8.2 9.5-.5 14.3-.8 5.1-2.2 10-4.3 14.7-.8 1.8-1.2 2.3-1.2 2 .2-.9.5-1.8.8-2.7 1-3.2 1.9-6.4 2.5-9.7.4-2.1 2-5.3 2.1-7.5.4-4.7.2-9.4-.6-14-.5-2.1.5-2 .3-3-.1-.4-.2-.8-.2-1.2l-.3-1.2-.6-2.3c-.5-1.5-1-2.8-1.5-4s-1-2.4-1.4-3.5c-.5-1-.8-2.1-1.2-3.2-.5-1.5-1-3-1.5-4.4l-1.6-4.1c-.8-1.6-1.5-3.3-2.5-4.9-.7-1-1.3-2-2-3 .2.6.2 1.3-.1 1.9-.8-1.5-1.9-3.7-2.8-5.2.9 1.5 2 3.7 2.8 5.2.2-.6.3-1.3.1-1.9-2.5-3.6-5.3-7.4-8.4-11s-6.3-7.2-9.6-10.5v.1c3.8 3.9 7.1 8.3 9.8 13-1.2-2.1-.8-2 .8.2.3.7.6 1.3.8 2-3-3.8-6.1-7.4-8.5-11.3l-.8-.8-1.4-1.3c-.9-1.2-.6-1.4-.7-1.8-.7-.8-1.5-1.5-2.2-2.3.3.5.8 1.2 1.4 2l1.8 2.5c1.1 2.1 2.1 3.5 2.1 3.5z" class="st2"/><path d="M729.8 452c-.1-.7-.2-1.6-.5-2.5.6 3.4.9 6.9.9 10.3.4-2.6.2-5.3-.4-7.8z" class="st2"/></g><g class="st1"><path d="M697.7 506.8l-.2-.6c0 .1-.1.3-.2.4.1.1.2.1.4.2zM697.4 505.6v-.1l-.1-.1.1.2zM696.9 504.6c0 .2.1.4.2.5 0-.2-.1-.3-.2-.5zM697 505.5c.1-.1.2-.2.3-.1l-.2-.3c0 .2 0 .3-.1.4zM697 505.5c-.1.1-.1.2-.2.3.1-.1.1-.2.2-.3zM694.5 505.9c-.1-.1.6-.3.4-.4-.4-.4-.7-.8-.9-1.3-.2-.2.5-.7.3-.9-.3-.5-1.6-1.7-1.3-.9.4 1.2.7 2 1.1 3 .5.8 1.1 1.5 1.6 2.3.1.2.1.5.2.7v-1c0-.3-1.1-.8-1.4-1.5zM698.9 511.3l-.3-.2c.3-.7-.1-1.1-.5-1.5l-.2.3c.2.3.3.2.4-.1-.2.6-.1 1.3.2 1.8.1 0 .3-.1.4-.3zM698.7 512l-.2-.3c0 .1.1.2.2.3zM695.8 502.5c-.1-.4-.2-.7-.2-1.1s-.1-.7-.1-1.1c-.1-.7-.2-1.4-.2-2.1-.2-.1-.3-.1-.2-.3.1-.1.2-.2.2-.3v-.6c0-.1 0-.1-.1-.2s-.2-.1-.3 0l-.2.2c.1 0 .2-.1.2-.2.1-.1.2-.2.2-.3v-.6c.1.2.1.4 0 .6l.1.3.1.1.1-1.3v-.3c-.1-.3-.2-.7.2-.8v-.2h-.1l.1-.1.2-1c-.1-.2-.2-.5-.3-.7l.4-.2c-.1-.1-.2-.3-.3-.4-.2.1-.5.3-.7.4-.4.2.6.6-.1.8.7-.2-.3-.6.1-.8.2-.2.5-.3.7-.4 0-.4.2-.8.5-1 .2.5-.1.7-.5 1 0 .2.1.3.3.4l-.4.2c.1.2.2.5.3.7.1-.6.3-1.3.5-1.9.6-2 1.5-3.9 2.6-5.6 1.1-1.8 2.6-3.3 4.2-4.5 1.9-1.3 4-2.3 6.2-2.8 2.1-.6 4.1-1.3 6.2-1.8 2.1-.6 4.4-.6 6.6-.2 1.8.4 4.9-.3 6.5-.4.9-.6 1.4-1.6 1.3-2.6 0-.6-.1-1.3-.4-1.9-.4-.9-1.3-1.6-2.3-1.7-1.2 0-2.4-.3-3.5-.7 2.2.7-1.3 1.8-3.5.4-1.7-1.1-3.5-.9-5.3-.3-1.8.7-3.6 1.4-5.5 1.9-.5.1-1 .3-1.4.5-.5.2-.9.5-1.5.7-2.9.9-5.5 2.5-7.6 4.6-2.3 2.3-4.2 4.9-5.6 7.8-.3.8-.6 1.6-.6 2.5v2.3c-.1 1-.6 2-.8 2.9-.1 1.2 0 2.4.3 3.6-.1-1.1-.2-2.3-.2-3.4.1-.5.3-.3.5.1l.6 1.2c.2.2-.7.6-.5.8 0 .6.2 1.1.5 1.6.2.2-.5.2-.5.3.2.8 1.1 1.3 1 1.8s-.1.7-.2 1v.6c.1.1.2.2.2.4.2-.1.5-.2.7-.3 0 .2-.1.5-.1.7 0-.2.1-.5.1-.7-.3.1-.5.1-.7.3.3.5.5 1 .8 1.4s.6 1 .8 1.4h.1c-.3-.6-.3-1.2 0-1.8-.1.3-.3.3-.4 0l.3-.3c.2.5.6 1 .2 1.5l.3.3c-.1.2-.3.2-.5.3 0 .1.1.2.1.3l.5-1z" class="st2"/><path d="M695.1 496.5c0 .1.1.2.1.3l.1-1.1c-.4.2-.3.5-.2.8z" class="st2"/></g></svg>