<svg xmlns="http://www.w3.org/2000/svg" id="Layer_1" x="0" y="0" version="1.1" viewBox="0 0 842 842" xml:space="preserve"><defs/><style>.st1{opacity:.85}.st2{fill:#211f1e}.st4{fill:#060707}</style><path fill="#f3d8c7" d="M0 0h842v842H0z"/><g class="st1"><path d="M570 496l1 1-1-1zM571 497h1-1zM573 498h-1 1zM572 497v0zM572 497zM573 496v1h5l-4-1-4-1-1-1 1 1 1 1h2zM565 490l1 1v1l1 1v-1h-1l-1-2zM565 489v1-1z" class="st2"/><path d="M577 499h7l1-1h1l1-1-1 1h-1l2-1h1l1-1 1-1 1-1h1-1l-1 1 1-1h1l1-2-1 2h-1l-1 1 3-2a18 18 0 00-10-27c-4-1-8-1-12 1l-9 8-1 7 1 6 1 2h1l1-1v-2-2l1-4c-1 1-1 0-1-1l2-4 5-4 6-2h4c3 1 6 3 7 6 3 3 3 6 3 9l-1 5-2 3-2 2-2 1 3-3 1 1h-1v1h-1l-1 1-1 1v-1l-1 1-1 1h-3-1 1-4l2 1h1-2l-1-1h-1l2 1z" class="st2"/><path d="M586 498h-1l2-1-1 1z" class="st2"/></g><circle cx="580" cy="485" r="6" fill="#1f2020"/><g class="st1"><path d="M584 488v0zM583 489zM583 489zM583 489zM583 489zM584 490h-1-1v1l1-1 2-1h-1v1zM585 486v1l1-1h-1zM586 486z" class="st2"/><path d="M582 490h-3-1 1l-1-1h-1-1v-1 1h0v-1 1h1l-1-1c-1-2-2-4 0-6 0-1 1-2 3-2h3l2 2v3l1 1 1-1v-2-2l-2-3-4-1-2 1c-2 0-3 1-4 3l-1 5 2 2 1 2h2-1 1v1h2v-1l1 1-1-1v1l2-1h-1 1zM579 490h-1 1z" class="st2"/></g><g class="st1"><path d="M454 433l1 2 1 2-1-2-1-2zM458 440l1 1-1-1zM463 446l-2-3 2 3zM460 441h-1l2 2-1-2zM460 441l-1-1 1 1zM464 441v2l4 4 3 3 3 5 5 5c2 1 3 1 1-1a200 200 0 01-22-25l-3-4-2-4 3 6 3 4 5 5zM438 404l1 2 5 9v-1c-1-2-1-2-1 0l-5-12v2zM437 400l1 2-1-2z" class="st2"/><path d="M474 458a203 203 0 0025 23l3 3 1 1 1-1-1-1 1 1 1 2 4 2-4-2-2-1v-1l4 3 4 3 1 1a77 77 0 015 3h2v1l3 1 4 2 4 1 2 1h2l-3-2c-1-1-3 0-5-2 2 2 4 1 5 2l3 2 4 2 3 1-4-1-3-2h-2l-2-1-4-1 6 2 7 3c14 5 30 7 45 6a164 164 0 0089-36 109 109 0 0034-51l2-12v-4-3-3-2-1-5l1-6 6-23 5-23c2-8 1-10 0-11s-3 2-4 3c-3 4-4 8-6 14l-7 22a278 278 0 01-4 24l-1 3v12l-2 16c-4 11-9 21-17 29a144 144 0 01-134 47 281 281 0 01-35-15l4 3 4 2a155 155 0 009 5l-6-2c-2-1-3-3-5-3l-4-2-2-1-3-2-1-1-2-1-1-1-3-1-4-3-3-2-2-3-3-2-2-2v2l-3-4 3 4v-2l-4-3-4-4-2-1-2-2-3-4a144 144 0 019 10v1l-4-4-3-4-2-1v-2l-2-2 1 2 2 2 1 2z" class="st2"/><path d="M505 486l-1-1 3 2 3 2-5-3z" class="st2"/></g><g class="st1"><path d="M342 416h-2 2zM338 416zM335 416h2-2zM338 417v-1h-1l1 1zM338 417zM337 420l-1-1-5 1-2-1-4 2 10-1 8-1h2l-3-1-5 2zM358 416l-1 1h-5 6v-1zM359 417h-1 1zM327 417a327 327 0 01-14 1h-4c-1 0 0 0 0 0h1-1-3 3-16l1 1h3-3l-1-1h-4 8-117l-23 2-4 2-1 2 2 2c3 1 5 2 8 1l10 1c-6-1 5-3 11-1 9 3 22 0 33 0h9l50-2 13-2h8l10-1-10 1 4-2 2 1 5-1 1 1 6-2 3 1h2l1-1-1-1 2 1-2-1 1 1 9-1v-1h-5l-1 1v-1h8l-4-1zM308 418h1-4 3z" class="st4"/></g></svg>