<svg xmlns="http://www.w3.org/2000/svg" id="Layer_1" viewBox="0 0 842 842"><defs/><defs><style>.cls-2{opacity:.85}.cls-3{fill:#fefefe}</style></defs><path fill="#784936" d="M0-1h842v842H0z"/><g class="cls-2"><path d="M223 448l-1-1a1 1 0 010 1h1zM222 446h-1a3 3 0 011 0zM221 445a3 3 0 000 1 2 2 0 000-1zM221 446zM221 446v1a3 3 0 000-1zM218 447s1 0 0 0l-1-1a5 5 0 01-1-2v-1-1l-1-1h-1a18 18 0 003 6 22 22 0 004 3 6 6 0 011 1l-1-2h-1a5 5 0 01-2-2zM229 453h-1a2 2 0 00-1-1 12 12 0 00-1 0s1 0 0 0a4 4 0 003 2v-1zM229 454z" class="cls-3"/><path d="M218 441a15 15 0 010-7v-1l1-1-1-1a3 3 0 010 1v-1a1 1 0 001 0 3 3 0 010-1 2 2 0 010 1v1a16 16 0 011-2v-1l1-1a13 13 0 011-2 11 11 0 011-1 1 1 0 010-1 9 9 0 00-1 0l-1 2 1-2a9 9 0 011 0 2 2 0 012 0h-2a1 1 0 000 1 11 11 0 00-1 1 18 18 0 013-2 18 18 0 0110-3 16 16 0 0110 3 14 14 0 015 10 22 22 0 010 5 13 13 0 01-2 4 10 10 0 01-2 4 8 8 0 01-5 1l-4 1a13 13 0 01-4 0 4 4 0 00-3 3 5 5 0 000 2 4 4 0 002 2 5 5 0 001 1 8 8 0 001 0l7 1c-3 0-2-1 0-1a26 26 0 016-1c4 0 7-3 9-6s3-8 3-12a15 15 0 000-2v-1a11 11 0 000-2v-1a21 21 0 00-11-15 26 26 0 00-17-3c-4 1-6 3-8 5l-1 1-1 1a12 12 0 00-2 1 13 13 0 00-2 3 14 14 0 00-1 4 19 19 0 013-6c0-1 0-1 0 0v1a8 8 0 01-1 1l-1 1a5 5 0 00-1 2v1l-1 1a6 6 0 001 2 2 2 0 010 2l-1 1a3 3 0 000 2 2 2 0 011 0v0a2 2 0 00-1 0 25 25 0 002 6h1a4 4 0 01-1-3v-1l1 1a2 2 0 010 2v1a6 6 0 000-1v-1z" class="cls-3"/><path d="M219 431a17 17 0 011-1l-1 1z" class="cls-3"/></g><circle cx="236" cy="437" r="8" fill="#e0caca"/><g class="cls-2"><path d="M229 431l-1 1a1 1 0 011 0v-1zM228 432zM228 433zM228 432v1a1 1 0 010-1z" class="cls-3"/><path d="M228 432h1a2 2 0 00-1 0zM231 434h-1l1 1-1 1a2 2 0 001 0c0 1 0 1 0 0a7 7 0 010-1 5 5 0 010-2c-1 0-1 0 0 0a3 3 0 010 1zM232 429l-1 1c1 0 0 0 0 0a2 2 0 002 0l-1-1zM233 429v1-1z" class="cls-3"/><path d="M228 435a12 12 0 00-1 4h1v1a1 1 0 010 1v-1a9 9 0 000 1v1a6 6 0 001 1h1l-1 1a1 1 0 011-1v0a1 1 0 00-1 1l1-1h-1a8 8 0 001 2 9 9 0 006 2 11 11 0 006-1 13 13 0 005-6 10 10 0 000-8 25 25 0 00-5-7 8 8 0 00-4-2 13 13 0 00-5 0 3 3 0 00-1 4 13 13 0 001 2 13 13 0 002 2 2 2 0 012 2v-1s2 0 1 1v3l1 1-1 1a4 4 0 00-1 1 2 2 0 01-2 1l-1 1-1-1a3 3 0 00-1-1 5 5 0 001 1h-1a2 2 0 01-1 0h1l-1-1s1 0 0 0l-1-1a1 1 0 000-1h-1 1a4 4 0 01-1-2 1 1 0 01-1 1h1-1v-1h1a2 2 0 00-1 0z" class="cls-3"/><path d="M228 440a8 8 0 000 1v-1z" class="cls-3"/></g><g class="cls-2"><path d="M379 411l-3 2a13 13 0 012-1 3 3 0 001-1zM374 415h-1v1zM369 419a29 29 0 002-2 19 19 0 00-2 2zM373 416c-1 0-1 0 0 0l-2 1a13 13 0 012-1zM373 416h1a12 12 0 00-1 0zM374 420h-2a74 74 0 01-7 6l-4 2-4 4c-1 2-2 1 0 0l14-10 5-5 6-5 3-2-4 3a15 15 0 00-4 3 31 31 0 01-3 4zM400 394l-1 2-7 5h1c2-1 2-2 0-1a49 49 0 008-6h-1zM403 393l-2 1 2-1zM358 427l-2 2-3 2-5 3-10 6a3 3 0 01-2 1 12 12 0 00-1 1l-3 1-1 1c-1 0-1 0 0 0a9 9 0 011 0h-1a18 18 0 00-2 1l-3 1a18 18 0 013-1l2-1v-1l-3 2-4 2-1 1a11 11 0 01-5 2h-1l-5 3-4 2h-1a7 7 0 01-2 1h3l4-2c-2-1-3 1-4 2h-3a20 20 0 01-6 2 14 14 0 016-2 7 7 0 002-1h1l4-2-11 4-5 1-4 1-9 3-4 1-5 1-4 1-5 1h-4l-5 1h-9a140 140 0 01-19-1 121 121 0 01-38-11 167 167 0 01-32-21 130 130 0 01-25-28l-11-16-10-16c-4-5-6-6-7-6l-1 3c0 5 1 8 4 13l9 16c-3-5-1-3 2 1a144 144 0 0110 15c3 7 10 15 18 21l25 18a121 121 0 0014 8 118 118 0 0044 12 143 143 0 0023-1 201 201 0 0023-3c9-2 16-5 22-8l8-2c3 0 4-2 6-3l9-4 7-4-7 4-4 2-2 1-2 1c-5 2 2-3 5-4l4-1a74 74 0 007-5h2l8-6 5-2 3-2 2-1a2 2 0 01-2-1l3-1-3 1a2 2 0 002 1l6-6 7-5a41 41 0 01-9 5c2-1 2 0 0 1h-1l4-3a18 18 0 013-2l2-1h1l2-1a51 51 0 00-6 2z" class="cls-3"/><path d="M329 445l1-1-5 3 4-2z" class="cls-3"/></g><g class="cls-2"><path d="M520 416l2 1a3 3 0 01-1-1h-1zM523 417zM525 418a6 6 0 00-1-1 3 3 0 001 1zM524 417h-1 1zM524 417h-1a3 3 0 001 0zM525 414l1 1a17 17 0 013 0l2 1c1 0 4 0 2-1l-7-1-6-1a7 7 0 01-1 0l2 1h4zM510 413l4 1-1-1v1a9 9 0 00-4-2l1 1zM508 412h1-1zM531 418l10 3h3a2 2 0 001 0 5 5 0 011 1 3 3 0 01-1-1h-1l3 1h1l2 1 3 1a16 16 0 011-1l1 1a2 2 0 011 0l-1-1-2-1 2 1 1 1a4 4 0 012 0 3 3 0 01-2 0 2 2 0 00-1 0l-1-1a16 16 0 00-1 1h2l3 1c10 2 20 3 31 3h17a75 75 0 0017-2l17-4a32 32 0 008-4 50 50 0 007-6 6 6 0 001-3 2 2 0 00-1-2 6 6 0 00-2-1 9 9 0 00-6 2 21 21 0 01-6 3c2-1 1 0 0 1a12 12 0 01-7 2l-11 2-6 2a28 28 0 01-5 1 22 22 0 00-3 0h-4l-17 1h-14l-4-1a26 26 0 00-5 0l-5 1a46 46 0 01-6-2 40 40 0 00-7 0h7c2 1-1 1-3 1l-1-1a20 20 0 00-4 1v-1h-5l-2-1a8 8 0 00-1 0h-1a2 2 0 010 1l-1-1 1 1a2 2 0 000-1h-7a9 9 0 014 1c-1 0-1 0 0 0a5 5 0 01-3-1l-1 1v-1h-1a11 11 0 002 1z" class="cls-3"/><path d="M545 422l-1-1 3 1h-2z" class="cls-3"/></g></svg>