<svg xmlns="http://www.w3.org/2000/svg" id="Layer_1" viewBox="0 0 842 842"><defs/><defs><style>.cls-2{opacity:.85}.cls-3{fill:#0f0c0e}</style></defs><path fill="#bd8675" d="M0 0h842v842H0z"/><g class="cls-2"><path d="M637 354l4 5-2-2a10 10 0 00-2-3zM644 363l1 1 1 1zM651 372a55 55 0 00-3-5l3 5zM646 365s1 1 0 0l2 2-2-2zM646 365l-1-2 1 2zM651 365c0 1-1 1 1 3l5 5 4 6a17 17 0 012 3 18 18 0 002 4l5 8c2 2 3 4 1 0a170 170 0 00-16-25 225 225 0 00-18-18l-2-3-2-1-1-1 1 1 1 1 1 1 4 4a26 26 0 002 2l3 3a170 170 0 007 7zM608 318l2 3 9 12-1-2c-2-2-2-2-1 0l-9-15v2zM606 313l2 3-2-3z" class="cls-3"/><path d="M665 390a134 134 0 0115 38 10 10 0 011 3v3l1 6v2h1v-2 5a47 47 0 00-1-4 93 93 0 011 13v3l-1 4a13 13 0 010 4l-1 2a6 6 0 010 1l-1 5-1 2v2l-1 4v1l-1 2-1 2a19 19 0 01-1 3l2-4c2-2 1-5 3-7-2 2-1 5-3 7l-2 4a35 35 0 01-6 9 73 73 0 016-9 19 19 0 001-3l1-2 1-2v-1l1-4a79 79 0 01-8 18 81 81 0 01-22 23 98 98 0 01-27 14 130 130 0 01-31 6h-16a156 156 0 01-17-1 74 74 0 01-32-13 108 108 0 01-24-23c-3-5-7-9-9-14l-9-14a289 289 0 01-13-29 344 344 0 01-19-64l-6-33-6-33c-2-11-3-14-5-14s-2 4-2 5c-1 7 0 13 1 21l4 32a307 307 0 017 32c2 14 6 30 12 46a375 375 0 0022 47 166 166 0 0016 23 109 109 0 0029 27 83 83 0 0018 9h3l2 1 2 1h3l2 1h8a181 181 0 0019 1 166 166 0 0020-2 128 128 0 0039-12 83 83 0 0018-12 90 90 0 0012-15c6-7 11-16 13-23a82 82 0 004-31 102 102 0 01-1 15 83 83 0 01-3 15v-1l1-10a11 11 0 011-2v-2l1-2a9 9 0 000-2 73 73 0 000-14v-3c0-8-3-13-3-17l-2-9-2-6-2-3a3 3 0 010 2l-1-3 1 3a3 3 0 000-2 173 173 0 00-15-26 76 76 0 018 15c-1-2 0-2 1 1l1 2-7-13-2-3-1-2-1-3 2 5 1 3z" class="cls-3"/><path d="M683 445l-1-2 1 5v6a13 13 0 000-2v-2-2z" class="cls-3"/></g><path fill="#121011" d="M192 515c1 5 0 9-2 9s-6 0-7-5-2-9 1-10 7 2 8 6z"/><g class="cls-2"><path d="M191 512h-1 1zM190 511zM190 511zM190 511zM190 511v1a1 1 0 000-1zM189 512a8 8 0 01-1-1h-1a10 10 0 012 1 8 8 0 011 1l-1-1zM192 515v-1h-1 1a4 4 0 000 1zM192 515z" class="cls-3"/><path d="M188 510a10 10 0 00-2-1h-1a2 2 0 01-1 0 1 1 0 011 0 3 3 0 00-1 0 1 1 0 01-1 0 2 2 0 00-1 1 1 1 0 010 1l1-1s-1 0 0 0c-1 0 0 0 0 0l-1 1a1 1 0 000-1 4 4 0 000 1 13 13 0 000 4l1 5a8 8 0 002 4 6 6 0 005 1 4 4 0 002-2 10 10 0 002-2 7 7 0 000-3 15 15 0 000-2c-1-2-2 0-2 0a2 2 0 000 1 5 5 0 01-1 2h1a3 3 0 01-1 2l-1 2a1 1 0 00-1 0 2 2 0 01-2 0 5 5 0 01-1-1 7 7 0 01-2-3 24 24 0 010-5l-1-2a3 3 0 011-1 2 2 0 010-1h-1 4a6 6 0 011 1 4 4 0 01-1-1c1 0 1 0 0 0a1 1 0 011 0v1h1a3 3 0 00-1-1z" class="cls-3"/><path d="M185 509a5 5 0 00-1 0 1 1 0 001 0z" class="cls-3"/></g><g class="cls-2"><path d="M199 352l-4 5a23 23 0 012-2 10 10 0 002-3zM191 361v1l-1 1 1-2zM185 370l3-5a46 46 0 00-3 5zM190 363s-1 1 0 0l-2 2a25 25 0 012-2zM190 363l2-1-2 1zM191 367l-2 2-4 6-3 6a16 16 0 01-3 3 15 15 0 00-2 3l-2 4-1 5a12 12 0 00-1 3l1-2a161 161 0 0114-25 172 172 0 0115-19l2-3 1-1a5 5 0 001 0v-1h1-1l-1 1-2 2-3 3a34 34 0 00-5 6l-5 7zM228 317l-2 3a112 112 0 00-8 12l1-1c2-3 2-3 0-1a81 81 0 0010-14l-1 1zM231 313l-2 3h1l1-3z" class="cls-3"/><path d="M173 389a134 134 0 00-13 39 10 10 0 010 3 20 20 0 00-1 3v3l-1 3v2h1a18 18 0 010-2 70 70 0 00-1 5v5a39 39 0 010-5v-3-1a115 115 0 000 13l1 2 1 9v2l1 5 1 5 2 3 1 3v2a21 21 0 012 3l-1-4-2-7 2 7 1 4 5 10a27 27 0 01-5-10 21 21 0 00-2-3v-2l-1-3-2-3a93 93 0 008 18 89 89 0 0020 25 92 92 0 0027 16 105 105 0 0031 7 123 123 0 0016 0l9-1 4-1h4a91 91 0 0033-15 123 123 0 0014-11 143 143 0 0012-13 184 184 0 0019-28l7-15 7-15a691 691 0 0030-96l5-33c1-11 0-14-1-14l-3 4c-3 6-4 12-6 20a303 303 0 01-7 31c3-9 3-6 1 3s-5 20-8 29l-16 42-9 23a185 185 0 01-12 22l-1 3-2 2-3 6-4 5-4 5a127 127 0 01-26 24 82 82 0 01-32 14 112 112 0 01-35 1 94 94 0 01-18-4 83 83 0 01-16-8l-8-6-7-5a82 82 0 01-12-13c-5-7-9-15-11-21a114 114 0 01-6-28 90 90 0 002 14 100 100 0 004 13c1 4 0 3-1 0a66 66 0 01-3-9l-1-7-2-14 1-3v-16l2-4 1-4 1-6 1-3a3 3 0 01-1 1l2-5-2 5a3 3 0 001-1 131 131 0 015-13 144 144 0 016-14l-9 15c2-2 2-2 1 1l-2 2c2-5 4-10 7-13v-2l1-1 2-2 1-2-1 1-2 3-3 3z" class="cls-3"/><path d="M158 445v-3 11a17 17 0 000-3v-5z" class="cls-3"/></g><g class="cls-2"><path d="M207 534v-1 1zM208 533v-1zM208 531a1 1 0 000 1 1 1 0 000-1zM207 532h1a1 1 0 01-1 0zM207 532zM205 532v-1a8 8 0 010-1l1-1-1-1v6a2 2 0 010 1v-1-2zM206 539v-2s0 1 0 0a3 3 0 00-1 2h1zM205 539z" class="cls-3"/><path d="M207 529l1-5-1-1a1 1 0 001 0v-1h-1a2 2 0 010-1 1 1 0 010 1h1v-1a2 2 0 000-1v-1-1a8 8 0 01-1-1h1a1 1 0 01-1 0v0a1 1 0 010-2v2a1 1 0 001 0h-1a8 8 0 001 1v-2a27 27 0 00-1-4v-2l-1-2a36 36 0 00-1-3l-1-2-1-1v-1a47 47 0 00-5-7 25 25 0 00-7-5l-7-4a13 13 0 00-4-2 39 39 0 00-4 0 3 3 0 00-2 2 5 5 0 000 2 3 3 0 002 2 9 9 0 013 2c-1-1 0-1 1-1a4 4 0 013 2 7 7 0 004 3l4 3 2 1 5 6a21 21 0 014 7 7 7 0 000 2 20 20 0 011 1 4 4 0 011 2 9 9 0 000 1 9 9 0 000 2 12 12 0 000 1v-1-2l1 1v1a5 5 0 000 2l1 2-1 1v1a2 2 0 011 0 2 2 0 00-1 0 18 18 0 011 3 3 3 0 011-2c0 1 0 0 0 0v2h-1v1a5 5 0 001-1z" class="cls-3"/><path d="M207 522a2 2 0 011 0v-1l-1 1z" class="cls-3"/></g><g class="cls-2"><path d="M581 499h0zM583 499zM584 498zM583 498v1l1-1a1 1 0 01-1 0zM583 498zM583 497h1a9 9 0 011-1h1l2-1-4 1-3 2a6 6 0 01-1 0h1l2-1zM575 500h1a3 3 0 002 0h-1a5 5 0 00-2 0zM575 500z" class="cls-3"/><path d="M587 497l6-2h1v-1 1a1 1 0 001 0 3 3 0 010-1 2 2 0 010 1h-1l2-1a1 1 0 011 0h2l1-1a1 1 0 011 0h-1-1 2a2 2 0 011 0 2 2 0 01-1 0 1 1 0 00-1 0l-1 1 3-1 16-5 9-3c6-1 11-4 17-6a33 33 0 009-4 4 4 0 001-2v-1a4 4 0 00-2 0 5 5 0 00-3 0 16 16 0 01-4 2c3-1-1 2-4 2-4-1-8 3-12 4l-3 1-19 7a33 33 0 00-5 2l-3 1a26 26 0 00-4 1l4-1-2 1h-1a10 10 0 00-1 1h-1l-2 1h-1a5 5 0 00-1 0v1h-1 1l-4 2a6 6 0 012-1h1a3 3 0 01-2 0l-1 1v-1 1a7 7 0 001 0z" class="cls-3"/><path d="M595 495h-1l2-1-1 1z" class="cls-3"/></g></svg>