<svg xmlns="http://www.w3.org/2000/svg" id="Layer_1" x="0" y="0" version="1.1" viewBox="0 0 841.9 841.9" xml:space="preserve"><defs/><style>.st1{opacity:.85}.st2{fill:#090a0a}.st3{fill:#131413}</style><path fill="#d0b8ab" d="M0 0h841.9v841.9H0z"/><g class="st1"><path d="M547.6 466.4l1 .3c-.2-.1-.3-.2-.4-.4-.3-.1-.4 0-.6.1zM549.4 466.9h.4-.4zM551.2 467.1c-.3-.1-.6-.1-.9-.1.3 0 .6.1.9.1zM549.8 466.6c.1.1.1.2-.1.3h.5c-.1 0-.2-.1-.4-.3zM549.8 466.6l-.3-.3c.2.1.2.2.3.3zM550.8 464.2c.2 0 0 .6.4.6.7-.1 1.5-.1 2.2-.1.4-.1.8.8 1.1.6.8-.1 2.9-.7 1.8-.9-1.8-.2-2.9-.1-4.5-.3l-2 .1h-2l-1-.3c.4.2.8.5 1.3.7s1.6-.4 2.7-.4zM540.7 463.7h.6c.5.7 1.4 1 2.2.9l-.2-.5c-.5-.1-.6.1-.2.4-.7-.7-1.5-1.1-2.4-1.4-.1.2-.2.4 0 .6zM540.1 463l.5.1v-.1h-.5zM554.9 467c1.1.2 2.2.3 3.3.4s2.1.3 3.2.4c.2-.1.3-.3.5-.2.1.1.3.2.5.3l.9.1h.3c.2-.1.1-.2 0-.3l-.3-.3.3.3c.1.1.3.2.5.2h.9c-.3.1-.6.1-.9 0l-.5.1h-.2l2.1.2h.4c.5-.1 1-.1 1.3.2h.4l-.1-.1s.1 0 .1.1l1.6.1c.3-.1.7-.3 1.1-.4l.3.4c.2-.2.4-.3.6-.4-.3-.2-.5-.5-.8-.6-.3-.4-.8.7-1.2 0 .4.7.9-.4 1.2 0 .2.1.5.4.8.6.6-.1 1.2 0 1.7.4-.6.2-1.2.1-1.7-.4-.2 0-.4.2-.6.4l-.3-.4c-.4.1-.7.2-1.1.4 1 .1 2.1.2 3.2.2 6.9.5 13.2.2 20.4 0 3.9-.1 7.6-.1 11.3-.1 7.3 0 13.8-1.9 21.3-1.3 2.9.2 8-1.1 10.7-1.7 1.4-.6 2.1-2.1 1.5-3.5-.2-.5-.5-.9-.9-1.2-2.7-2.1-4.1-.4-8.8-1.1 3.2.3-1.9 2.1-5.1.8-4.6-2-10.1 1-15.3 1-1.3 0-2.6.3-4.2.4-8 0-15.3 1.7-23.6 1.7-2 .2-4 .6-6 1.1-1.3 0-2.6-.1-3.9-.3-1.6 0-3.1.1-4.7.4 1.6 0 2.8-.2 4.5-.2 1.2 0-.8.9-1.7 1.1-.3.1-.8-.7-1.2-.5-.8.1-1.5.2-2.2.4-.3.1-.3-.6-.4-.5-1.1.1-2 .9-2.7.7-.5-.1-1-.3-1.4-.5-.3-.1-.6-.1-.9-.1l-.6.1c.1.2.2.5.2.8-.3-.1-.7-.3-.9-.4.3.1.7.3.9.4 0-.3-.1-.5-.2-.8l-2.3.3c-.8.1-1.6.1-2.4.1.9 0 1.8.3 2.6.8-.4-.2-.3-.4.2-.4l.3.4c-.8.2-1.7.1-2.3-.4l-.5.2c-.2-.1-.2-.4-.2-.6h-.5c.5.6.9 1 1.5 1.2z" class="st2"/><path d="M564.1 468.1h-.4l1.8.2c-.4-.4-.9-.3-1.4-.2z" class="st2"/></g><g class="st1"><path d="M293.2 461.4l-1 .2c.2 0 .4.1.5.1.3 0 .4-.1.5-.3zM291.4 461.8h-.2l-.1.1.3-.1zM289.8 462.3c.3 0 .6-.1.8-.2-.3 0-.6 0-.8.2z" class="st2"/><path d="M291.1 462.2c-.1-.1-.2-.2 0-.3l-.5.2c.2 0 .3 0 .5.1zM291.1 462.2c.1.1.3.1.4.2-.1-.1-.3-.2-.4-.2zM291.2 464.7c-.1.1-.3-.6-.6-.4-.7.4-1.4.7-2.1 1-.3.2-1-.5-1.3-.3-.8.3-2.7 1.6-1.5 1.4 1.8-.4 3-.7 4.6-1.2l1.9-.8c.6-.3 1.2-.6 1.9-.9.4-.1.7-.2 1.1-.2h-1.5c-.8-.1-1.4 1.1-2.5 1.4zM300.1 459.6l-.4.4c-.9-.2-1.5.3-2.2.7l.5.2c.4-.2.4-.4 0-.4.9.1 1.9-.1 2.7-.6-.2-.1-.3-.3-.6-.3zM301.1 459.7l-.5.2.5-.2zM286.3 463.5c-1.1.2-2.2.3-3.3.4s-2.1.2-3.2.2c-.1.2-.2.3-.5.3-.2-.1-.3-.2-.5-.2h-.8l-.3.1c-.2.1-.1.2 0 .3.1.1.2.1.3.2-.1 0-.2-.1-.3-.2-.2-.1-.3-.1-.5-.2-.3.1-.6.1-.9.1.3-.1.6-.1.9-.1l.5-.1.1-.1h-2.1l-.4.1c-.5.1-1 .2-1.3-.1h-.4l.1.1-.1-.1H272c-.3.1-.7.3-1 .4l-.4-.4c-.1.2-.3.3-.6.4.3.2.5.4.8.6.4.4.8-.8 1.2-.1-.4-.7-.9.4-1.2.1-.3-.2-.5-.4-.8-.6-.6.1-1.2 0-1.7-.3.6-.2 1.2-.1 1.7.3.2-.1.4-.2.6-.4l.4.4c.4-.1.7-.3 1-.4-1 0-2.1 0-3.1-.1-6.8-.4-13.1-.6-20.1-1.4-3.8-.5-7.4-1.2-11-2-7-1.6-13.7-1.6-20.5-4.6-2.6-1.1-7.8-1.7-10.4-2.1-3.7.5-2.6 3.9-2.4 4.1 1.7 3 3.7 1.9 7.9 4.3-2.9-1.4 2.5-1.2 5.1 1 3.8 3.4 10.1 2.1 15.2 3.5 1.4.3 2.8.5 4.2.6 8 1.8 15.7 1.3 24.3 1.8 2.1-.1 4.2-.4 6.2-1 1.4-.1 2.9.2 4.1.2 1.6-.1 3.3-.3 4.8-.8-1.6.2-2.9.5-4.7.6-1.2.1.8-.9 1.6-1.2.3-.2.9.6 1.3.4.8-.1 1.5-.4 2.2-.6.3-.2.3.5.5.5 1.1-.2 1.9-1.2 2.6-1.1l1.5.2c.3 0 .6 0 .9-.1l.6-.3c-.2-.2-.3-.5-.4-.7.3 0 .7.1 1 .1-.3 0-.7-.1-1-.1.1.3.2.5.4.7.7-.3 1.5-.6 2.2-.9s1.5-.6 2.3-.9v-.1c-.9.3-1.9.3-2.8 0 .4.1.4.3 0 .4l-.4-.3c.7-.4 1.6-.5 2.4-.2l.5-.3c.3.1.3.3.4.5l.5-.1c-.4-.4-1-.6-1.6-.7z" class="st2"/><path d="M277.1 464.5l.4-.1h-1.8c.4.3.9.2 1.4.1z" class="st2"/></g><g class="st1"><path d="M374.7 427l-3.3 2.3c.6-.3 1.2-.7 1.8-.9a4 4 0 001.5-1.4zM368.4 431.5l-.6.4-.5.4 1.1-.8zM362.8 435.8c1-.7 2-1.4 2.9-2.1-1 .6-2 1.3-2.9 2.1zM367.5 432.7c-.4.1-.7.1-.2-.4l-1.6 1.3c.5-.3 1.1-.6 1.8-.9zM367.5 432.7c.4-.1 1-.4 1.3-.5-.5.2-.9.3-1.3.5zM368 436.5c-.5.5-.9-.4-1.9.6-2.5 2.1-4.5 4.1-7 5.9-1 1-3.4 1.4-4.4 2.4-2.5 2.1-8.6 8.1-4.6 5.2 6-4.5 9.7-7.5 15-11.6 4.2-3.5 8.1-6.9 12.4-10.5 1.2-1 2.5-1.7 3.7-2.5l-5.1 3.2c-2.5 1.5-4.6 4.5-8.1 7.3zM399.1 410.1l-1.5 1.5c-2.9 1.4-5.6 3.3-8 5.5l1.5-.5c1.5-1.1 1.5-1.5 0-.7 3.3-1.7 6.4-3.7 9.4-6-.4 0-.5-.3-1.4.2zM402.2 408.6l-1.7 1.4h.1l1.6-1.4zM351.3 445.2a1199 1199 0 01-21.7 15.5 4 4 0 01-1.5 1.4l-1.8.9-3.1 2.1-1 .8c-.5.5-.3.5.2.4s.9-.3 1.3-.5c-.2.1-.9.3-1.3.5-.6.2-1.3.5-1.9.8-.9.6-1.9 1.3-3 1.9.9-.7 2-1.3 3-1.9l1.7-1.2.5-.4c-1.2.8-2.4 1.5-3.6 2.2s-2.5 1.4-3.7 2.1l-1.5.9c-.8.6-1.7 1.1-2.6 1.5-.7.4-1.5.6-2.3.8l-1.4.6h.3c-.2.1-.4.1-.5.2l-3 1.3-3 1.2c-1.2.7-2.5 1.4-3.8 2H296c-.6.5-1.4.9-2.1 1.2 1.2-.1 2.3-.1 3.3-.3 1.6 0 2.7-2.1 4.6-1.8-1.9-.2-3.1 1.8-4.6 1.8l-3.3.3c-1 .4-2.1.8-3.2 1-1.1.2-2.3.4-3.4.5 1.1-.5 2.3-.9 3.5-1.1 1.1-.2 2.2-.3 3.1-.4.8-.3 1.5-.7 2.1-1.2h1.5c1.3-.6 2.5-1.4 3.8-2-2 .7-3.9 1.5-6 2.1l-3 1-3.1.8c-13.1 3.4-26.7 4.6-40.2 3.6-13.7-1-27.2-4.4-39.7-10.2-13.6-6.3-25.7-15.3-35.8-26.4-1.2-1.3-2.4-2.7-3.6-4.1l-3.7-4.1-7.3-8-14.5-15.7c-9.6-10.4-19.2-21-28.5-32.7-7.2-9-22.2-24.2-29.8-32.2-11.3-9.7-9-1.3-8.7-.6 3.7 9 10 12.9 21.2 27.9-7.8-10 8 5.3 14.5 15.6 9.2 15.1 28.2 31.1 42.1 47.2 1.7 2 3.6 4 5.6 6.1l3 3.2 1.6 1.7 1.7 1.8a112.6 112.6 0 0041.7 28.7c16.2 6.4 33.6 9.5 51.1 9.2 9.7-.2 18-2.4 25.6-4.7l8.6-2.2c2.8-.8 5.5-1.6 7.6-2.5a86.6 86.6 0 0017.8-9.4l-4.2 2.5c-1.3.8-2.7 1.5-4 2.2s-2.8 1.4-4.3 2.1l-2.3 1.1-2.5 1.1c-4.8 1.9 2.9-2.4 5.8-4.1 1.2-.7 3.7-.8 4.9-1.7 1.4-.7 2.7-1.5 4-2.4 1.3-.9 2.6-1.8 3.9-2.8 1.1-1 1.5 0 2-.5 1.7-1.2 3.2-2.6 4.7-4 1.1-1.2 2.3-2.2 3.7-3.1l5.1-3.2c1-.7 2-1.3 3-2.1l1.8-1.6a2 2 0 01-1.5-.2l3.5-2.1-3.5 2.1c.5.2 1 .3 1.5.2 4.4-3.9 9.6-8.3 14.5-12.3h-.1c-2.9 2.3-6.1 4.3-9.4 6 1.5-.8 1.5-.5 0 .7l-1.5.5c2.4-2.2 5-4.1 7.9-5.5l1.5-1.5c.9-.5 1.1-.2 1.4-.2l1.7-1.3c-2 .9-3.9 1.9-5.8 2.9z" class="st3"/><path d="M320.3 467.2l1.5-1c-2 1.2-4 2.5-6.2 3.6.8-.2 1.6-.5 2.2-.9.8-.5 1.7-1.1 2.5-1.7z" class="st3"/></g><g class="st1"><path d="M465.6 436.9l3.2 2.4c-.5-.5-1-.9-1.4-1.5-.5-.4-1.1-.7-1.8-.9zM471.9 441.6l.6.4.5.3-1.1-.7zM477.7 445.5c-1-.8-2-1.4-2.9-2 .9.7 1.9 1.4 2.9 2zM473.3 442c.3.4.4.6-.3.3l1.8 1.1c-.5-.4-1-.9-1.5-1.4zM473.3 442c-.3-.4-.7-.9-.9-1 .3.3.6.7.9 1zM476.7 440.3c.6.3-.1 1 1.2 1.6 2.8 1.7 5.4 3 7.8 4.8 1.3.6 2.4 2.8 3.7 3.4 2.8 1.7 10.4 5.6 6.4 2.7-6.1-4.2-10.2-6.9-15.7-10.6-4.6-2.9-9.1-5.5-13.8-8.5-1.3-.9-2.4-1.8-3.6-2.7l4.6 3.9c2.2 1.9 5.7 3 9.4 5.4zM441.9 419.1l1.9 1c2.3 2.3 4.9 4.3 7.8 5.8l-.9-1.2c-1.6-1-1.9-1-.7.2-2.7-2.6-5.6-4.9-8.7-7 .1.3-.1.5.6 1.2zM439.5 416.6l1.8 1.2v-.1l-1.8-1.1z" class="st3"/><path d="M490.3 453.5c7.6 5.4 14.7 10.6 21.6 15.7.7.2 1.3.5 1.8.9.4.5.9 1 1.4 1.5l3.1 2.2 1.1.7c.7.3.6 0 .3-.3s-.6-.6-.9-1l.9 1c.5.5 1 .9 1.6 1.3 1 .5 2 1.2 3.1 1.9-1.1-.5-2.1-1.2-3.1-1.9l-1.9-1-.6-.3 3.6 2.4c1.2.8 2.4 1.5 3.7 2.2l1.6.8c.9.5 1.9.9 2.7 1.3.7.3 1.4.8 2 1.4l1.4.7-.2-.2.5.3 2.9 1.4c1 .5 2 .9 3 1.3 1.4.3 2.8.7 4.2 1l1.2.9c.8 0 1.6.1 2.4.3-1-.6-1.9-1.3-2.8-1.8-1.2-.9-3.4-.3-4.6-1.7 1.3 1.5 3.4.8 4.6 1.7.9.5 1.8 1.1 2.8 1.8 1 .3 2.1.6 3.2 1s2.2.9 3.2 1.4c-1.2-.2-2.4-.5-3.6-.9-1-.4-2-.9-2.9-1.5-.8-.2-1.6-.3-2.4-.3l-1.2-.9c-1.4-.4-2.8-.7-4.2-1 2 .8 3.9 1.7 6 2.4l3.1 1.1 3.1 1c13.3 4 27.2 5.7 41.1 4.8 14.2-.9 28.1-4.1 41.2-9.7 14.4-6.1 27.6-14.7 38.9-25.5 1.4-1.3 2.7-2.6 4-3.9l3.8-3.9 7.5-7.8 14.7-15.5c9.8-10.2 19.8-20.4 30.9-30.5 8.5-7.8 22.7-23.6 30.2-31.8 9-11.9.7-9.1.1-8.8-8.8 4.2-12.3 10.8-26.5 22.9 9.5-8.4-4.8 8.4-14.7 15.4-14.5 10.1-29.3 30.1-44.5 45-1.9 1.9-3.8 3.9-5.8 6l-3 3.2-1.6 1.7-1.6 1.6c-5.6 5.3-11.7 10.2-18.1 14.5a118.8 118.8 0 01-42.3 18c-7.9 1.6-16 2.3-24.1 2-8 0-16.1-.5-24-1.7-2.7-.6-5.3-1.3-7.9-2.2-2.5-1-4.9-1.8-7-2.7-6.5-2.5-12-4.9-17.2-7.4l4.1 2.1c1.3.7 2.6 1.2 3.9 1.8s2.7 1.1 4.1 1.7l2.2.9 2.4.9c4.5 1.7-3.6 0-6.6-1.1-1.4-.3-2.8-2.3-4.1-2.7-1.3-.6-2.6-1.2-4-1.8s-2.7-1.1-4.2-1.9c-1.3-.5-.6-1.3-1.3-1.5-1.9-1-3.7-1.9-5.3-2.6-1.5-.6-2.9-1.4-4.1-2.4l-4.6-3.9c-1-.8-1.9-1.5-3-2.2l-2.1-1.2c.3.4.4 1 .3 1.5-.9-.7-2.1-1.9-3.1-2.6.9.7 2.2 1.9 3.1 2.6.1-.5 0-1-.3-1.5-5.1-3-10.9-6.5-16.3-9.9v.1c3.1 2.1 6 4.4 8.7 7-1.2-1.1-.9-1.2.7-.2l.9 1.2c-2.9-1.5-5.5-3.5-7.8-5.8l-1.9-1c-.8-.7-.5-.9-.6-1.3l-1.8-1.2c1.3 1.1 4.9 4.5 4.9 4.5z" class="st3"/><path d="M521.2 475.5l-1.5-.9c2 1.3 4 2.7 6.1 3.8-.6-.6-1.2-1.1-1.9-1.5-.9-.4-1.8-.9-2.7-1.4z" class="st3"/></g></svg>