<svg xmlns="http://www.w3.org/2000/svg" id="Layer_1" x="0" y="0" version="1.1" viewBox="0 0 842 842" xml:space="preserve"><defs/><style>.st1{opacity:.85}.st2{fill:#131413}.st3{fill:#211f1e}.st4{fill:#1f2020}</style><path fill="#fce2e4" d="M0 0h842v842H0z"/><g class="st1"><path d="M374 461l-5 1 2-1h3zM365 463h-2 2zM356 465l4-1-4 1zM363 464v-1l-3 1h3zM363 464l1-1-1 1zM361 466h-2l-11 3-6 1c-3 1-13 4-7 3l22-6 18-5 6-1-8 1-12 4zM408 452l-2 1-12 3h2c2-1 3-1 1-1l13-3h-2zM412 452h-2 2zM339 470l-31 7-2 1h-3l-4 1-2 1h2-2-2l-4 1 4-1h3v-1l-10 3h-2l-6 2h-2l-8 2-5 1-1 1-3 1 4-1 5-1-5 1-4 1 3-1 1-1 5-1-15 4-48 11-24 6-12 3-6 1-3 1h-17a46 46 0 01-35-54l2-6 2-13 12-50 11-52c3-17-1-9-1-8-4 10-5 19-11 40 4-14-1 12-5 25l-9 35-4 20-1 5v2l-1 3v10a49 49 0 0015 34 50 50 0 0027 13h15l4-1 4-1 7-2 14-3 30-8 29-7 19-5 22-6-22 6c-6 1 4-2 8-3l6-1 10-3h3l12-4 7-1 4-1 3-1h-1l5-1-5 1h1l22-6a176 176 0 01-13 3h-2l11-3h4l3-1-8 2z" class="st2"/><path d="M295 481l2-1-8 2 6-1z" class="st2"/></g><g class="st1"><path d="M117 475l1-1h-1v1zM118 474zM119 473v0zM118 474zM118 474zM118 472l2-1h2l-4 1-2 2h-1 1l1-1 1-1zM114 478v-2 1l-1 1h1zM113 479v-1 1z" class="st3"/><path d="M121 473h7-1 2l1 1h2v1h1l-1-1h-1 1l1 1h1-2v-1h-1l2 1a62 62 0 0112 8l5 6 2 7v7l-1 3v2l-1 1 1 2h2l2-2v-1l1-2v-1-3l1-1v-2-3l-1-3-1-3-1-3-6-7-2-2-2-1-4-2-5-1-2-2h-4 3c1 1 0 1-1 1l-1-1h-4l-1-1h-1v1h-1 1v-1l-4 1h3-2v1l-1-1 1 1zM128 473l1 1-1-1z" class="st3"/></g><path d="M131 498c-4-1-7-5-6-9s4-4 8-3 8 2 7 6-5 7-9 6z" class="st4"/><g class="st1"><path d="M135 498zM136 498zM136 498zM136 498zM136 498zM135 497h1l1-1c0-1 0-1 0 0l-1 1-2 1 1-1zM131 498h0zM131 498z" class="st3"/><path d="M138 497l1-3h1v-1 1-1 0-1-1-1-1 0l-2-2-2-1-5-1h-5l-2 3v2l1 6 2 2 2 1h2l-1-1-1-1-1-2-1 1-1-2v-3-2-1l1-1h4a18 18 0 017 2l1 1v1c0-1 0 0 0 0v3h-1v1l-1 1h0v0l1 1zM140 493z" class="st3"/></g><g class="st1"><path d="M471 464l4 1-2-1h-2zM480 466h1-1zM488 468l-4-1 4 1zM482 466h-1l3 1-2-1zM482 466h-2 2zM484 465l2 1 11 2 6 2 8 1-23-5-19-4-5-2 7 2 13 3zM436 455h3l11 3h-2c-2-1-2-1 0 0l-13-4 1 1zM432 454h3-3z" class="st2"/><path d="M505 472l31 7a20 20 0 015 1l4 2h2c1 0 0 0 0 0l-2-1 2 1h2l4 1-4-1h-3l10 2 2 1 6 1 2 1 8 2 5 1h1l3 1-3-1-6-2 6 2 3 1a71 71 0 01-3-1h-1l-5-1 15 4 48 12 23 6 13 3 6 1 3 1 3 1a49 49 0 0028-6 47 47 0 0025-52l-1-6-3-13-10-51-11-51c-4-17-5-8-4-7 0 11 3 19 7 41l5 25 6 36 5 19 1 5v3l1 2v9c0 7-2 13-5 19a47 47 0 01-20 18 45 45 0 01-26 4h-4l-3-1-7-2-15-4-29-7-29-6-19-5-23-5 22 5-8-1-6-2-10-2-3-1-12-3-7-2-5-1h-3 2l-5-1 5 1h-1l-23-5a166 166 0 0114 3l2 1-12-3h-2l-1-1-3-1 7 3z" class="st2"/><path d="M550 483l-3-1 9 2-6-1z" class="st2"/></g><g class="st1"><path d="M728 475zM727 475v-1 1zM726 474zM727 475v-1h-1l1 1zM727 475zM726 476h-2l-1-1-1 1a14 14 0 016 0v0h-1-1zM732 480l-1-1v-1l1 2zM732 480h-1 1z" class="st3"/><path d="M723 474h-6v1h-1v-1h1l-2 1h-2l-1 1h0c-1 0 0 0 0 0h-1 1l1-1-2 1a56 56 0 00-13 7l-6 6c-2 2-3 5-3 7l-2 8a16 16 0 001 7v2l3 1 1-1v-2-2-2h-1l1-3v-2-1l1-2v-3l1-2 2-3 4-5 2-1 1-2 4-2 4-2 2-1 3-1-3 1 1-1h1l1-1h4v-1h0v1l4-1-2-1v1h-1 3l-1-1z" class="st3"/><path d="M717 475v-1l-1 1h1z" class="st3"/></g><path d="M714 500c4-1 7-5 6-9-1-5-4-4-8-3s-8 2-7 6c0 4 5 7 9 6z" class="st4"/><g class="st1"><path d="M710 500v-1 1zM709 499zM709 499zM709 499zM709 499zM709 500l-1-1h-1-1l2 1h3-1-1zM713 500h-1 1zM714 500z" class="st3"/><path d="M707 498l-2-2v-1-1 0-1c1-1 0 0 0 0v-1h-1 0s1 0 0 0h1v-1 1h-1 1v-1l3-2 5-1h4l2 4-2 4-1 1-2 1-1 1 1 1h1l3-1v-1l1-2 2-3v-2l-1-2-2-2-3-2-3 1-6 1-2 3-1 2v2l1 1v1l1 1 2 2-1-1h1v0zM705 495v-1 1z" class="st3"/></g></svg>