<svg xmlns="http://www.w3.org/2000/svg" id="Layer_1" x="0" y="0" version="1.1" viewBox="0 0 841.9 841.9" xml:space="preserve"><defs/><style>.st1{opacity:.85}.st2{fill:#fefefe}.st3{fill:#edefef}</style><path fill="#5e503f" d="M-.2 0h841.9v841.9H-.2z"/><g class="st1"><path d="M177.7 620.4c-.3.2-.6.5-.9.7.2-.1.4-.2.6-.2s.2-.3.3-.5zM175.9 621.7l-.2.1-.1.1c.1-.1.2-.1.3-.2zM174.1 622.6a3 3 0 001-.4c-.1 0-.3.1-.4.2-.2 0-.4.1-.6.2z" class="st2"/><path d="M175.7 622.1c-.1 0-.2 0-.1-.2l-.5.3c.2 0 .4-.1.6-.1zM175.7 622.1h.4-.4z" class="st2"/><path d="M175.9 623.9c-.2.2-.3-.3-.7 0s-1 .5-1.4.7c-.5.1-1 .3-1.5.3-.5.1-1.2-.4-1.7-.3s-1.5.2-2.1.2-1 .2-.1.3c2.2.4 4.4.2 6.4-.5 1.7-.7 3.2-1.9 4.4-3.3.3-.4.6-.7 1-1-.5.4-1 .9-1.5 1.2-.4.3-.8.7-1.1 1.1-.2.2-.4.5-.7.7-.4.2-.7.4-1 .6zM182.8 613.2l-.1.7c-.6.8-1.1 1.6-1.4 2.6.1-.1.3-.2.4-.3.2-.5.2-.6-.2-.2.4-.4.7-.9 1-1.4.3-.5.5-1 .7-1.5-.1-.1-.2-.1-.4.1zM183.5 612.4l-.2.6h.1l.1-.6z" class="st2"/><path d="M169.8 623.4c-2.7-.3-5.3-1.1-7.8-2.2-.2.1-.4 0-.6-.1-.2-.2-.3-.3-.5-.4l-1-.5-.4-.1c-.2 0-.2 0-.1.2l.3.3-.3-.3c-.1-.1-.3-.3-.5-.4-.3-.2-.6-.3-.9-.6.3.1.6.3.9.6l.6.3h.2c-.8-.4-1.4-.9-2.2-1.4l-.4-.3c-.5-.3-1.1-.7-1.2-1.1l-.3-.3v.1c0-.1-.1-.1-.1-.2-.4-.5-.9-.9-1.4-1.4-.3-.3-.7-.5-1-.8 0 0-.1-.3-.1-.5-.2-.1-.5-.2-.6-.4l.3 1c.1.5 1 .4 1 1.1 0-.7-.9-.6-1-1.1l-.3-1a4 4 0 01-1-1.8c.5.5.9 1.1 1 1.8.2.2.4.4.6.4 0 .2.1.5.1.5.3.3.7.5 1 .8L153 614l-1.1-1.6c-2.1-3.5-3.2-7.5-3.3-11.6 0-1 0-2 .1-3 .1-.5.2-1 .2-1.5l.1-.8.2-.7c.1-.5.3-1 .4-1.5s.4-1 .6-1.5c.2-.5.4-1 .6-1.4.2-.5.5-.9.8-1.4 1-1.9 2.6-3.4 4.6-4.2 1.9-.6 4-.6 5.9 0 4 1.3 7.8 3.1 11.4 5.3 1.8 1 3.5 2.2 5.1 3.5 1.5 1.2 2.7 2.8 3.4 4.6.6 1.6.9 3.3.8 4.9-.1 1.9-.5 3.8-1.2 5.6-.4 2.1.1 2.9.6 3.1.5.1 1 0 1.4-.3 1.2-.9 2.1-2.2 2.5-3.7l.4-1.3c.1-.5.2-1 .4-1.5.3-1.3.5-2.7.6-4-.1 1.1-.2 1.5-.4 1.3-.2-.6-.3-1.1-.3-1.7-.2-1.1-.4-2.2-.8-3.2-.4-1.2-.9-2.3-1.3-3.3a10.34 10.34 0 00-1.9-3.1l-.9-.9c-1.3-1.2-2.7-2.2-4.2-3.1-1.5-.9-3.1-1.7-4.7-2.4l-4.7-2.3c-1.8-.9-3.6-1.5-5.5-1.9-.7-.2-1.4-.3-2.2-.4l-1.1-.1h-1.2c-.8 0-1.6.2-2.4.4-.4.1-.8.2-1.2.4-.4.2-.8.3-1.1.5-2 1.2-3.8 2.8-5 4.8-.4.6-.7 1.2-1.1 1.9-1.3 2.5-2.1 5.2-2.5 8-.4 2.9-.4 5.8.1 8.7.6 2.8 1.8 5.4 3.5 7.7.2.4.5.8.7 1.2l.8 1.2c.4.7 1 1.5 1.5 2.1l1.2 1.2c.4.4.8.8 1.3 1.1.8.6 1.7 1.1 2.6 1.6l-.7-.4-.6-.4-1.2-.8c-.4-.3-.8-.7-1.2-1l-1.2-1.2c-.6-.6-.2-.5.3-.1s1.4.9 1.8 1.2c.2.2.4.4.5.7.1.3.3.5.6.6.4.3.8.6 1.2.8.4.2.9.4 1.4.6s.2.5.4.6c.6.3 1.3.5 1.9.5.5.1 1 .2 1.5.4l1.7.9c.4.2.7.3 1.1.4l.8.1c-.1-.2-.2-.4-.2-.6.3.2.8.4 1.2.5-.4-.1-.8-.4-1.2-.5 0 .2.1.4.2.6 2 .3 4 .5 6.1.3-1.2.1-2.3-.2-3.4-.7.5.2.4.3-.2.2-.1-.1-.3-.2-.4-.3 1 0 2 .2 2.9.6.2 0 .4-.1.7-.1.3.1.3.2.4.3h.7c-.4-.1-.8-.3-1.2-.3l-.8-.2z" class="st2"/><path d="M159 619.7c.1.1.3.2.5.2l-1.8-1.2c.1.4.7.7 1.3 1z" class="st2"/></g><path d="M160.6 614.5c-4.4-1-7.2-5.3-6.3-9.8.9-4.4 4.2-4.3 8.6-3.3s8.4 2.4 7.4 6.8c-.9 4.5-5.2 7.3-9.7 6.3z" class="st3"/><g class="st1"><path d="M164.6 614.8c.2 0 .3-.1.5-.1h-.3c0-.1-.1 0-.2.1zM165.6 614.5v-.1h.1zM166.3 614c-.1.1-.3.1-.4.2.2 0 .3-.1.4-.2zM165.7 614.3s.1 0 0 0h.2-.2zM165.7 614.3zM165.5 613.4c.1-.1.1.2.3 0 .3-.2.5-.5.8-.7.1-.1.4-.1.5-.2.3-.3.7-1.2.3-.8-.5.5-1 .9-1.6 1.3-.5.4-1 .7-1.6.9-.2.1-.3.1-.5.1h.7c.4.1.7-.3 1.1-.6zM161 614.8h.3c.4.2.8.2 1.2.1l-.2-.1c-.2 0-.2.1-.1.1l-1.3-.3c0 .1 0 .2.1.2zM160.6 614.6h.3-.3z" class="st2"/><path d="M167.7 612.9c.8-.7 1.5-1.5 2-2.5v-.2c.1 0 .2-.1.3-.2.1-.1.1-.3.2-.4v-.2c0-.1 0-.1-.1 0l-.1.1.1-.1c.1-.1.1-.1.1-.2s.1-.3.1-.4c0 .1 0 .3-.1.4l-.1.2v.1c.1-.3.3-.7.3-1v-.2c0-.2 0-.4.1-.6V607.4v-.8c-.1-.2-.1-.3-.2-.5 0-.1.1-.1.1-.2-.1-.1-.1-.2-.2-.2 0 .1-.1.3-.1.4-.1.2.3.3.1.6.2-.2-.2-.4-.1-.6 0-.1 0-.3.1-.4-.1-.3-.2-.5-.2-.8.2.2.3.5.2.8.1.1.1.2.2.2 0 .1 0 .1-.1.2.1.2.1.3.2.5 0-.5-.1-1.1-.4-1.6-.4-.8-1-1.5-1.7-2s-1.5-.9-2.2-1.1c-1.6-.5-3.2-1-4.9-1.3-.9-.2-1.9-.3-2.9-.4-1-.1-2.1.2-3 .7-.9.6-1.6 1.4-1.9 2.4-.3.9-.5 1.8-.6 2.8-.1 2 .3 3.9 1.2 5.7.5.9 1.2 1.7 2 2.3.8.6 1.7 1.1 2.7 1.4 1.1.1 1.4-.2 1.4-.5 0-.2 0-.5-.2-.7-.3-.5-.8-.8-1.3-1.1-.7-.4-1.3-.9-1.7-1.5.4.6.1.5-.3.1-.6-.5-.9-1.2-1-1.9 0-1-.3-2-.4-3-.1-.6-.1-1.1 0-1.7.1-.5.2-1 .5-1.5.2-.4.5-.7.9-1 1-.5 2.8-.4 4.6-.1 1.8.2 3.7.7 5.4 1.4.7.3 1.5.7 2.1 1.2.3.4.4.8.4 1.3.1.6.1 1.3 0 1.9.1-.6.2-1.2.1-1.9-.1-.5.4.3.4.6.1.2-.3.3-.2.5 0 .3 0 .6-.1 1 0 .2-.2.1-.2.2-.1.5 0 .9-.2 1.2-.1.2-.3.4-.4.5-.1.1-.2.2-.2.3l-.1.2c.1 0 .2 0 .3.1l-.3.3.3-.3c-.1 0-.2-.1-.3-.1-.3.7-.7 1.3-1.3 1.8.3-.3.7-.5 1.1-.8-.2.1-.2 0-.1-.1h.2c-.2.4-.5.6-.9.8 0 .1-.1.1-.1.2h-.2l-.2.2c.2 0 .3-.1.5-.1.1.1.3 0 .4-.1z" class="st2"/><path d="M170.2 609.1l-.1.2c.1-.3.2-.5.3-.8-.1.2-.1.4-.2.6z" class="st2"/></g><g class="st1"><path d="M345.2 577.2c-1.7 1.9-3.3 3.8-5.1 5.6 1-.8 1.8-1.8 2.8-2.6.9-.9 1.7-1.9 2.3-3zM335.2 587.8l-1 .9c-.3.3-.5.6-.8.8l1.8-1.7zM325.4 596.7c1.8-1.5 3.6-2.8 5.1-4.3-1.4 1.2-3.2 2.5-5.1 4.3zM333.5 590c-.7.5-1.1.6-.2-.4l-2.9 2.8c1.2-1 2.2-1.8 3.1-2.4z" class="st2"/><path d="M333.5 590c.7-.4 1.7-1.2 2.1-1.4-.6.4-1.3.8-2.1 1.4z" class="st2"/><path d="M333.3 594.8c-.9 1-1.3.1-3.3 2-2.4 2.1-4.5 4.2-6.8 5.9l-3.4 2.7c-1.1.9-2.4 1.7-3.6 2.5-1.3.9-2.8 1.7-4.2 2.3-1.5.6-3 1.3-4.4 2.1-2.7 1.7-7.5 4.6-10.6 6.5s-4.4 2.9-.2.8c3.2-1.6 6-3.1 8.8-4.6s5.3-3 7.7-4.5l3.6-2.4c1.2-.8 2.4-1.6 3.6-2.5l3.6-2.7 1.9-1.4 1.8-1.5c7.9-6.9 15.1-14.5 21.4-22.9.9-1.2 1.8-2.3 2.7-3.4.4-.6.9-1.1 1.3-1.7l1.3-1.7c-.6.7-1.1 1.5-1.7 2.2l-1.8 2.2-1.9 2.2-1 1.2-1 1.1c-1 1-1.9 2.1-2.8 3.3s-2 2.5-3 3.8-2.2 2.8-3.5 4.2-2.9 2.8-4.5 4.3zM371.7 528.5c-.2 1.3-.7 3.9-.7 3.9-.5 1.4-1.1 2.8-1.7 4.2s-1 2.8-1.6 4.3-1.1 2.9-1.7 4.3c-.2.7-.5 1.5-.9 2.2l-.9 2.1 1.6-2.3c1.4-3.3 1.2-3.8-.1-1 3.3-6.2 5.7-12.9 7.1-19.8-.3.3-.6.2-1.1 2.1zM373.5 522.3c-.2 1.4-.5 2.7-.7 4.1l.1-.1.6-4.1v.1z" class="st2"/><path d="M302.2 612.7c-14.9 7.9-30.4 14.8-46.4 20.4-1.1.7-2.3 1.2-3.5 1.5-1.3.2-2.5.5-3.8.9-2.3.7-4.5 1.4-6.8 2l-2.4.7h-.1c-1.3.5-.8.5 0 .4s1.8-.2 2.5-.3c-.5 0-1.7.3-2.5.3-1.1.2-2.4.4-3.8.7-2.1.6-4.3 1.1-6.6 1.5 2.5-.6 4.7-1.2 6.6-1.5 1.3-.4 2.6-.8 3.9-1.1l1.1-.4c-5.2 1.4-10.5 2.6-15.8 3.5-1.2.2-2.4.5-3.3.7-3.8.8-7.7 1.3-10.1 1.1l-2.9.2h.6-1.1c-4.1.2-8.1.2-12.2 0-2.6.1-5.4.1-8.1-.1l-2.6-.9c-1.5 0-3.1-.1-4.6-.3 2.1.7 4 1.4 5.9 1.8 1.5.3 3 .5 4.5.3 1.6-.1 3.3 0 4.9.5-1.6-.4-3.2-.6-4.9-.5-1.5.1-3 0-4.5-.3-1.9-.5-3.8-1.1-5.9-1.8-4.2-.7-8.4-2.1-12.2-4.1 4.8 1.4 8.7 2.8 12.2 4.1 1.5.3 3 .4 4.6.3l2.6.9c2.7.2 5.5.2 8.1.1-8-.3-16-1.8-23.6-4.3-1.6-.5-3.1-1.1-4.6-1.7s-3-1.3-4.4-2c-2.9-1.4-5.7-3-8.4-4.8a75.3 75.3 0 01-14.4-12.6c-8.5-9.5-14.8-20.8-19.4-32.7-2.3-6-4.3-12.1-5.9-18.3-.8-3.2-1.6-6.3-2.3-9.5s-1.3-6.4-1.9-9.6c-2.4-13.1-3-26.5-1.7-39.8.9-7.2 2.6-14.3 5.1-21.1 2.5-6.7 5.7-13 9.6-19 7.7-11.9 17.4-22.2 27.2-32.3s19.6-19.9 28.5-30.4c4.5-5.2 8.7-10.6 12.8-16.2l3-4.2 1.5-2.1 1.4-2.2 2.8-4.3c.9-1.5 1.8-2.9 2.7-4.4l1.3-2.2c.4-.7.9-1.5 1.3-2.3s.9-1.6 1.3-2.4l1.2-2.4c1.5-3.2 2.7-6.6 3.8-10 1-3.4 1.8-6.9 2.5-10.5.6-3.5 1-7.1 1.3-10.6 1-14.2-.4-28.6-3.1-43-1.3-6.5-2.9-12.9-4.8-19.2-2.1-7-4.8-14.5-7.8-21.8-5.3-13-11.4-25.7-18.1-38-2.4-4.1-5.2-8-8.4-11.6-1.9-1.9-2.9-2.3-3.3-1.8-.9 1 .2 4.9.5 5.6 2.9 8.4 6.1 15.3 10.4 24.3 2.1 4.5 4.4 9.5 6.9 15.5 2.9 7 5.4 14.1 7.5 21.3-1.7-5.7-2.2-7.5-1.7-6.8 1.5 2.9 2.7 5.8 3.7 8.9 2.1 5.7 3.8 11.6 5.2 17.6 1.5 6.2 2.5 12.5 2.9 18.8.6 8.7.7 17.4.4 26.1-.3 9.5-2.1 18.8-5.2 27.8-.4 1.1-.9 2.2-1.4 3.4s-1 2.2-1.6 3.3c-1 2.1-2.5 4.4-3.7 6.6s-2.7 4.4-4.1 6.6l-2.1 3.3-2.2 3.2c-5.8 8.4-12.3 16.4-19.3 23.9-6.8 7.3-14.1 15.1-22.5 24-5.5 5.6-11 11.4-16.1 17.5-5.2 6.1-9.9 12.7-14 19.6-8.3 14.1-13 29.9-13.9 46.2-.4 8-.2 16.1.8 24.1.3 4 1.1 7.9 1.8 11.9.3 2 .8 3.9 1.2 5.9s.8 4 1.3 5.9c3.7 15.6 8.8 31.6 17.8 46.6a84.23 84.23 0 0016.8 20.2c3.1 2.7 6.4 5.2 9.9 7.3 1.7 1.1 3.5 2 5.2 3s3.5 1.8 5.3 2.5c5.2 2.4 10.6 4.4 16.1 5.8 5 1.3 10.1 2.2 15.2 2.6 6.7.5 13.4.3 20.1-.5 6-.7 11.9-1.8 17.7-3.2a172 172 0 01-17.7 3c-2.9.3-5.9.6-9 .7s-6.5.1-10.2-.1c-2.5-.2-3.2-.3-2.9-.4 1.2-.1 2.4-.2 3.5-.2 3.8-.1 9.5-.5 12.6-.8 2.7-.3 7.1.4 9.8-.2 5.9-.8 11.7-2.1 17.3-3.9 2.6-.8 2.5.2 3.8-.2 8.4-2.3 14.3-5.6 19.5-7.2a176.53 176.53 0 0017.5-6.3l4.2-2.1c-.8.2-1.6.2-2.3-.1 2.1-.8 5.1-2 7.2-2.8-2.1.9-5.1 2-7.2 2.8.8.3 1.6.3 2.3.1 5-2.5 10.4-5.3 15.8-8.3s10.9-6 16-9.2h-.2c-6.1 3.6-12.5 6.7-19.1 9.3 2.9-1.2 2.7-.8-.5.8l-2.7.8c5.5-3 11-6 16.6-8.1l3.4-2.2c1.8-.8 1.9-.5 2.4-.5.6-.3 1.2-.7 1.8-1.1l1.7-1.2c-.7.3-1.7.8-2.9 1.3l-3.7 1.7-3.2 1.5-1.3.8z" class="st2"/><path d="M235.4 639.3c.9-.2 2.1-.6 3.2-.9-4.4 1.1-8.8 2.1-13.3 2.9 2.5 0 6.3-.9 10.1-2z" class="st2"/></g><g class="st1"><path d="M663.3 621.4c.3.3.6.6 1 .9-.2-.2-.3-.3-.4-.5-.2-.3-.4-.4-.6-.4zM665.3 622.9c.1 0 .1.1.2.1h.2c-.2.1-.3 0-.4-.1zM667.4 623.7c-.4-.1-.8-.2-1.1-.4.2.1.3.2.5.2.2.1.4.2.6.2zM665.8 623c.1.1.1.2-.1.2l.7.2c-.3-.1-.4-.2-.6-.4zM665.8 623l-.3-.3.3.3zM667 621.6c.2 0 0 .5.4.5s.9.1 1.3.1h1.2c.4-.1 1 .4 1.4.3.6-.2 1.2-.4 1.7-.7.5-.3.7-.5 0-.3-1.6.4-3.3.5-5 .1-1.5-.2-2.8-.9-4-1.8-.3-.3-.6-.6-.8-1 .3.5.7 1 1.1 1.4.3.4.7.6 1.2.7l.8.2c.1.4.4.4.7.5zM658.4 613.5l.4.5c.2 1 .6 1.9 1.3 2.7v-.5c-.3-.5-.4-.5-.3 0-.1-.6-.3-1.1-.6-1.7-.2-.5-.4-1-.7-1.5 0 .2-.2.2-.1.5zM658.3 612.5l.3.6-.3-.6z" class="st2"/><path d="M672.1 623.7c2.7-.4 5.4-1.1 7.9-2.2.2-.2.2-.3.5-.4.2 0 .4-.1.6-.1l1-.5.3-.2c.2-.2.1-.2-.1-.2h-.5.5c.2 0 .4-.1.6-.2l.9-.6-.9.6c-.2.1-.3.3-.5.4l-.2.1c.8-.4 1.5-.9 2.3-1.3.2-.1.3-.3.4-.4.4-.4.8-.8 1.4-1 .1-.1.2-.2.4-.3h-.1l.2-.1c.5-.5 1-.9 1.5-1.4.2-.4.4-.8.7-1.2l.5-.2c0-.3.1-.5.3-.7-.3.2-.6.4-.9.5-.5.2-.3 1.1-1 1.2.7-.1.5-1 1-1.2.3-.2.6-.3.9-.5.4-.6.8-1.2 1.4-1.6-.2.7-.7 1.3-1.4 1.6-.1.2-.2.5-.3.7l-.5.2c-.2.4-.4.8-.7 1.2.5-.5.9-1 1.3-1.5l1.2-1.6c2.5-3.6 3.8-7.8 4-12.2 0-1.1 0-2.2-.1-3.2-.1-.5-.2-1.1-.2-1.6l-.1-.8-.2-.8c-.1-.5-.3-1.1-.4-1.6l-.6-1.6c-.2-.5-.4-1.1-.7-1.6-.2-.5-.5-1.1-.8-1.6-1.1-2.4-3-4.3-5.3-5.6-2.4-1.1-5.1-1.4-7.7-.9-2.3.4-4.6 1.1-6.8 2.1-2.1.9-4 1.9-6 3s-4 2.3-5.9 3.6c-2.1 1.4-4 3.2-5.6 5.3-.3.5-.6 1-.9 1.6-.3.6-.5 1.3-.7 2-.2.7-.3 1.5-.4 2.2-.1.8-.1 1.5 0 2.3.2 2.5.8 5 1.7 7.3 1.2 2.1 2.1 2.3 2.7 2 .4-.3.7-.7.8-1.2.2-1.4.1-2.9-.3-4.3-.1-.4-.2-.8-.2-1.2s-.1-.9-.2-1.4c-.1-1.1 0-2.2.3-3.3-.3 1.7-.7 1.1-.6-.4a6.06 6.06 0 012.7-4.5c2.1-1.2 4.3-2.9 7-4.6 2.7-1.8 5.6-3.4 8.6-4.6 1.5-.6 3-1.1 4.5-1.4 1.8-.3 3.6-.1 5.3.6 1.6 1 2.8 2.4 3.7 4.1 1.1 1.9 1.8 4 2.2 6.2.4 2.3.4 4.6 0 6.8-.3 2.3-.9 4.5-1.6 6.7-.2.3-.4.7-.6 1s-.5.6-.7.9c-.5.6-1 1.1-1.4 1.6-.3.4-.6.7-1 1.1-.3.3-.6.7-.9 1-.7.6-1.2 1.2-1.9 1.7l.5-.4.5-.4.9-.8.9-.9c.4-.3.7-.7 1-1.1.9-1.1-.1 1.2-.8 1.9-.2.2-.4.3-.6.4-.2 0-.5.1-.7.3l-.9.9c-.3.3-.6.6-1 .9s-.5-.1-.6 0c-.5.3-.9.7-1.3 1.1-.3.4-.7.6-1.2.8-.6.2-1.2.3-1.8.5l-1 .3-.6.3c.2.1.3.2.5.4-.3.1-.8.1-1.2.2.3-.1.9-.1 1.2-.2-.1-.2-.3-.3-.5-.4-1.7.9-3.5 1.4-5.3 1.7 1.1 0 2.2-.2 3.3-.1-.5 0-.5-.2.1-.3l.5.1c-.9.4-1.9.6-2.9.4 0 0-.4.2-.6.2s-.3-.2-.4-.3h-.6c.4.2.7.3 1.1.4l1.1.3z" class="st2"/><path d="M683.1 619.9c-.1.1-.3.2-.5.3l1.9-1.1c-.5.2-1 .4-1.4.8z" class="st2"/></g><path d="M681.2 614.5c4.4-1 7.2-5.3 6.3-9.8-1-4.4-4.2-4.3-8.6-3.3s-8.4 2.4-7.4 6.8c.9 4.5 5.3 7.3 9.7 6.3z" class="st3"/><g class="st1"><path d="M677.4 614.1c-.1 0-.3-.1-.4-.1.1 0 .1.1.2.2.1 0 .1-.1.2-.1zM676.6 613.8h-.2zM675.8 613.5c.1.1.2.1.4.2-.1-.1-.2-.1-.4-.2zM676.4 613.9c0-.1 0-.1 0 0l-.2-.2c.1 0 .1.1.2.2zM676.4 613.9l.1.1c0-.1-.1-.1-.1-.1zM675.8 614.5c-.1 0 0-.2-.2-.2-.4-.1-.8-.2-1.1-.4-.2-.1-.2-.4-.4-.5-.4-.2-1.4-.7-.9-.3.6.5 1.3 1 2.1 1.3.6.2 1.3.4 2 .5.2 0 .4.1.5.2l-.7-.3c-.2-.2-.7 0-1.3-.3zM680.8 614.4l-.2.1c-.4-.1-.8-.1-1.1 0l.2.1c.2 0 .2-.1 0-.1.4.1.9.1 1.3 0-.1 0-.1-.1-.2-.1zM681.2 614.5l-.2.1.2-.1z" class="st2"/><path d="M674.3 612.7c-.8-.7-1.5-1.5-1.9-2.4-.1 0-.2-.1-.2-.2v-.2c-.1-.1-.1-.3-.2-.4l-.1-.1c0-.1-.1 0-.1 0v-.2c-.1-.1-.1-.3-.1-.4.1.1.1.3.1.4l.1.2v.1l-.3-1-.1-.2c0-.3 0-.5-.1-.8v-.1-.7c0-.2-.1-.3-.1-.5 0-.1.1-.1.2-.1v-.3l-.3.3c-.1.1.2.4-.1.6.2-.2-.1-.4.1-.6l.3-.3c0-.3.2-.5.4-.7-.1.3-.2.5-.4.7v.3c-.1 0-.1.1-.2.1 0 .2 0 .3.1.5.1-.5.2-.9.4-1.3.9-1.3 2.2-2.2 3.7-2.5 1.6-.5 3.2-.8 4.8-1.1.9-.1 1.8-.2 2.6-.1.8 0 1.5.3 2.1.8 2 2.3 2 5.7-.1 8-.5.5-1 1-1.6 1.5-.6.4-1.2.8-1.8 1.1-.6.4-.8.8-.7 1.1.1.2.2.4.4.5.6.3 1.2.3 1.8 0 .8-.4 1.6-.8 2.4-1.3-.7.5-.6.1-.1-.3s1.2-1.3 1.8-1.8c1-1 1.6-2.3 1.6-3.8 0-.8 0-1.5-.2-2.3-.1-.8-.4-1.5-.6-2.2-.4-.9-1-1.6-1.7-2.1-1-.8-2.3-1.2-3.5-1.1-1.1 0-2.1.1-3.1.4-2.1.4-4.1 1-6 1.8-1.1.5-2 1.4-2.6 2.5-.5.7-.8 1.4-1 2.3-.1.9.1 1.8.4 2.7-.3-.8-.4-1.7-.4-2.6.1-.7.2.5.3 1 0 .2-.2.5-.1.7.1.4.2.8.4 1.1.1.2-.1.2-.1.3.2.5.7.8.8 1.2.1.2.2.5.3.7.1.1.2.3.2.4l.2.2c0-.1.1-.2.1-.3l.2.5-.2-.5c-.1.1-.1.2-.1.3.6.5 1.3 1 2 1.4-.4-.2-.7-.6-.9-1 .1.2 0 .2-.1.1v-.2c.3.2.6.5.8.8.1 0 .2.1.2.1.1.1 0 .2 0 .2l.2.1c-.1-.1-.2-.3-.3-.4l.4-.9z" class="st2"/><path d="M671.8 609.1l.1.2c-.1-.3-.2-.5-.2-.8-.1.2 0 .4.1.6z" class="st2"/></g><g class="st1"><path d="M494.7 578.9c1.7 1.9 3.3 3.9 5.1 5.8-.9-1-1.6-2-2.4-3.1-.8-1-1.7-1.9-2.7-2.7zM504.7 589.9l1 .9c.3.2.6.5.9.7l-1.9-1.6zM515 598.5c-1.8-1.6-3.6-2.9-5.3-4.3 1.7 1.5 3.4 3 5.3 4.3z" class="st2"/><path d="M507.1 591.4c.5.7.7 1-.4.2l3.1 2.7c-1.1-1.1-2-2.1-2.7-2.9zM507.1 591.4c-.5-.6-1.3-1.6-1.6-1.9.4.5 1 1.2 1.6 1.9zM511.8 591.1c1.1.8.2 1.3 2.3 2.8 2.5 1.8 4.8 3.6 7.1 5l3.5 2.3c1.2.8 2.4 1.5 3.6 2.3 1.3.8 2.6 1.8 3.8 2.8 1.2 1 2.5 1.8 3.9 2.6 2.7 1.4 7.9 3.6 11.2 4.9s5 1.7.8-.3c-3.2-1.5-6-3-8.8-4.3s-5.1-2.7-7.5-4.1l-3.5-2.2c-1.2-.7-2.4-1.4-3.5-2.2l-3.5-2.5-1.8-1.3c-.6-.5-1.2-.9-1.8-1.4-8.2-6-15.7-12.8-22.4-20.4-.9-1.1-1.8-2.3-2.6-3.4-.4-.6-.9-1.1-1.2-1.7l-1.1-1.7c.5.8 1 1.5 1.5 2.3l1.6 2.2 1.7 2.3.9 1.2 1 1.2c.9 1.1 1.8 2.2 2.8 3.2 1.1 1.1 2.3 2.2 3.5 3.2l4 3.5c1.4 1.1 3 2.3 4.5 3.7zM468.8 528.8c.4 1.3 1.3 3.8 1.3 3.8.2 1.5.5 3 1 4.4.4 1.5.9 3 1.5 4.4.6 1.4 1.2 2.9 1.9 4.3.3.7.7 1.4 1 2.1l1.1 2.1c-.3-.9-.5-1.8-.8-2.7-1.5-3.2-1.8-3.6-.8-.5-2.4-6.7-4.4-13.5-6-20.3-.2.4-.6.4-.2 2.4zM468.1 522.3l.9 4c0-.1 0-.1.1-.2l-.9-4v.2z" class="st2"/><path d="M539.4 613.2c15 7.9 30.5 14.8 46.4 20.7 1.3.2 2.5.5 3.7 1 1.2.6 2.3 1.1 3.5 1.5l6.8 2.1c.8.2 1.6.4 2.5.6h.1c1.3.2 1 0 .2-.3s-1.7-.7-2.3-1c.4.2 1.6.7 2.3 1 1 .4 2.2.8 3.6 1.2l6.6 1.5c-2.2-.4-4.5-.8-6.6-1.5l-3.9-.9-1.2-.2c5.2 1.5 10.5 2.8 15.8 3.8 1.2.2 2.4.4 3.4.5 3.9.5 7.8.8 10.2 1.5l2.9.3c-.2 0-.4-.1-.6-.1l1.1.2c4.1.3 8.3.4 12.4.3 2.7-.3 5.4-.8 8.1-1.2l2.8.1c1.5-.5 2.9-.9 4.5-1.3-2.2.2-4.3.2-6.2.2-1.5.1-3 .3-4.5.7 1.5-.4 3-.7 4.5-.7 1.9 0 3.9-.1 6.2-.2 3.8-.9 8.7-2.2 12.6-3.2-4 1.8-8.3 2.9-12.6 3.2-1.5.3-3 .8-4.5 1.3l-2.8-.1c-2.7.5-5.5.9-8.1 1.2 8.3-.2 16.4-1.6 24.3-4 1.6-.5 3.2-1.1 4.8-1.7s3.1-1.2 4.6-2c3-1.4 6-3 8.8-4.8 5.6-3.6 10.7-7.9 15.2-12.8 9-9.7 15.5-21.3 20.3-33.5 2.4-6.1 4.5-12.3 6.2-18.7.8-3.2 1.7-6.4 2.4-9.6s1.4-6.5 2-9.8c2.6-13.5 3.3-27.2 2.2-40.9-.8-7.6-2.5-15-4.9-22.2-2.4-7.1-5.6-13.9-9.5-20.2-7.7-12.7-17.3-23.6-26.8-34.1s-19-20.4-27.5-30.7c-4.3-5.1-8.3-10.4-12.3-15.8l-2.8-4.1c-.5-.7-1-1.4-1.4-2l-1.3-2.1-2.7-4.2c-.9-1.4-1.7-2.8-2.5-4.3l-1.3-2.1-1.2-2.1c-.4-.7-.8-1.4-1.1-2.1l-1-2.2c-1.3-2.9-2.4-5.9-3.2-9-.8-3.1-1.5-6.3-2-9.5s-.7-6.5-.9-9.7c-.5-13.1 1.6-26.6 5.3-39.9 1.4-5.1 3.2-11.3 5.4-18s4.8-13.8 7.6-20.9c5.1-12.6 10.8-24.9 17.2-36.9 2.1-4.1 3.9-8.4 5.4-12.8.8-2.5.6-3.4 0-3.7-1.2-.5-4.2 2.4-4.6 2.9-5.9 6.6-9.9 13.3-14.6 22.2-2.3 4.5-4.8 9.5-7.5 15.4s-5.9 12.8-9.4 21c2.3-5.6 3.3-7.3 3.2-6.4s-1.3 4.5-2.9 9.4-3.7 11.2-5.7 17.8-3.8 13.2-5.4 18.9c-2.5 9-3.8 18.3-3.9 27.6-.1 10.8 1.8 21.5 5.6 31.6.5 1.3 1.1 2.6 1.7 3.9s1.2 2.6 1.9 3.8c1.4 2.6 2.8 4.8 4.2 7.1s2.9 4.6 4.4 6.9c.8 1.1 1.5 2.3 2.3 3.4l2.4 3.3c6.3 8.8 13.1 17.1 19.8 25s14.3 15.6 22.5 24.4c5.2 5.8 10.3 11.5 15.1 17.4 4.7 5.7 8.9 11.8 12.7 18.1a92.58 92.58 0 0112.5 40.9c.5 7.4.4 14.7-.5 22.1-.3 3.7-1 7.5-1.5 11.2-.3 1.9-.7 3.7-1.1 5.6s-.7 3.8-1.2 5.6-.9 3.8-1.4 5.6-.9 3.8-1.5 5.6-1 3.7-1.7 5.5-1.2 3.7-1.9 5.5c-2.6 7.4-6 14.4-10 21.1-2 3.5-4.3 6.8-6.7 10-2.3 3-4.7 5.9-7.4 8.6-2.5 2.6-5.3 5-8.2 7.1-1.4 1.1-2.9 2-4.3 3s-3 1.8-4.6 2.6c-4.6 2.3-9.5 3.9-14.5 5-4.6 1-9.2 1.6-13.9 1.9-6.2.4-12.4.4-18.6 0-5.9-.4-11.5-1.1-17-2 5.6 1.1 11.2 1.9 16.9 2.3 6 .5 11.9.5 17.9 0 2.3-.2 3-.2 2.7 0-1 .3-2.1.6-3.2.7-3.9.6-7.9.9-11.9.9-2.6.1-6.6-1.3-9.2-1.4-5.6-.7-10.8-1.2-16.9-2.3-2.6-.4-2.1-1.3-3.4-1.5-8.1-1.8-14.7-2.7-19.7-4.7-3.8-1.5-7.2-2.9-10.5-4.4-2.1-.9-4.2-1.8-6.4-2.7l-4.3-1.6c.7.4 1.2 1 1.5 1.8-2-.9-4.8-2.4-6.8-3.4 2 1 4.8 2.5 6.8 3.4-.3-.7-.8-1.3-1.5-1.8-5.2-2-10.8-4.3-16.3-6.8-2.8-1.2-5.6-2.5-8.4-3.8s-5.5-2.7-8.1-4.1l.1.2c6.1 3.4 12.2 6.5 18.5 10.2-2.7-1.6-2.3-1.6 1-.1l2.3 1.6c-5.7-2.3-11.2-5.1-16.4-8.4L535 610c-1.7-1.1-1.4-1.3-1.7-1.7-.6-.3-1.2-.6-1.8-1l-1.8-1.1c.8.7 1.6 1.4 2.5 2l3.3 2.3 2.9 1.9 1 .8z" class="st2"/><path d="M606.3 640c-.9-.2-2.1-.5-3.3-.8 4.4 1.2 8.8 2.3 13.3 3.2-2.3-.9-6.1-1.6-10-2.4z" class="st2"/></g></svg>