<svg xmlns="http://www.w3.org/2000/svg" id="Layer_1" x="0" y="0" version="1.1" viewBox="0 0 842 842" xml:space="preserve"><defs/><style>.st1{opacity:.85}.st2{fill:#090a0a}</style><path fill="#eee2de" d="M0 0h842v842H0z"/><g class="st1"><path d="M202 460v-1h-1l1 1zM202 457zM202 454v0zM202 457c0-1 0-1 0 0v-1 1zM202 457zM198 455h1v-2-2l1-2-1-3h-1v8l1 7-1 1 1-2-1-5zM199 473l-1-1 2-4h-1v1l-1 4h1zM198 474v-1 1z" class="st2"/><path d="M202 448v-6-3-3-1-3h-1v0l1-1v-1-1-4-3l-1-1v-1-1l-1 1v0l1-1v-3 5l1 1-1-5c0-12-3-23-5-35l-5-19-6-18-5-18-4-9-4-8-5-2-2 3c-1 5 2 6 3 14-1-5 4 3 4 9l3 12 5 13 2 7 6 19a174 174 0 016 26l2 5v6l1 8-1-7c0-2 2 1 2 2l-1 2 1 4v1l1 4v5h1l-1 2 1-2h-1v4l1 4 1-4h-1l1-1v2l-1 2 1 1h-1v1l2-2zM202 432v-3 3z" class="st2"/></g><g class="st1"><path d="M642 458v-2 2zM642 455v-1 1zM641 452v0zM641 455h1l-1-1v1zM641 455zM638 454v-3l-1-2 1-2-1-3h-1l1 9 2 6v0c1-2-1-3-1-5zM644 471l-1-1v-4l-1 1h1v4h1zM644 472l-1-1 1 1zM640 446v-6-3-2l-1-1 1-1v-2h-1l1-1v-2-1-3h1-1 1v-3l-1-2 1-1v-1l-1 2v0l1-2v-3 4l-1 1 1 2 1-6a283 283 0 0114-52l7-17 8-16 9-16c0-3-1-4-2-5h-2c-5 2-5 5-10 11 3-4 0 5-4 9-4 2-6 6-7 11l-5 13-3 7c-2 7-5 13-6 20l-4 22-1 5 1 6-2 7 1 8v-8l1 3-1 2 1 4-1 1 1 4v6l1-1-1 2 1-2-1 1 1 4 1 4v-5h-1l1-1v7l1-3zM640 430v-2 2z" class="st2"/></g><g class="st1"><path d="M245 540h0zM247 541zM250 541h-2 2zM248 540v0zM248 540h-1 1zM249 538v1l3-1 2 1 2-1h-12-1 6zM235 538l4 1-1-1s-1 0 0 0l-4-1 1 1zM234 537zM255 541h13-1l3 1h5l1-1 1 1 1-1h-3 3l2 1-2-1-1 1-1-1-1 1h4l29-1 15-1 30-2 15-2c5-2 2-5 1-5-3-2-5 0-12-1 5 1-3 3-7 1-6-1-14 2-21 2l-6 1-34 2-8 2h-12 6l-2 1h-5s0-1 0 0h-8v1l-1-1 1 1v-1h-3l-4 1h5-4-1l2 1zM268 541h-1 3-2z" class="st2"/></g><g class="st1"><path d="M598 537h-2 2zM595 537zM593 538l1-1-1 1zM595 538v-1h-1l1 1zM595 538zM595 540h-1l-3 1-2-1c-1 1-4 2-2 2l6-1 3-1 3-1h1-2l-3 1zM608 535l-1 1h-3l1 1v-1h3v-1zM609 536h-1 1zM588 539h-9-1-2c-1 0-1 0 0 0v0h-2 2-4-7l1 1h2-2l-1-1h-2 5l-5-1-28-2-15-2c-10-2-20-3-29-6l-15-3c-5 1-3 4-3 4 3 3 5 2 11 5-4-2 4-1 8 1 5 4 14 3 21 4l6 1c11 2 22 2 34 3l8-1 6 1 7-1h-7l3-1 1 1 3-1 1 1 4-1h4v-1h0v1l3-1 4-1h-5 5-2zM575 539h-2 2z" class="st2"/></g></svg>