<svg xmlns="http://www.w3.org/2000/svg" id="Layer_1" x="0" y="0" version="1.1" viewBox="0 0 842 842" xml:space="preserve"><defs/><style>.st1{opacity:.85}.st2{fill:#211f1e}.st3{fill:#1f2020}</style><path fill="#feece1" d="M0 0h842v842H0z"/><g class="st1"><path d="M282 487h-1 1zM280 488h-1 1zM278 489h1-1zM279 489v-1 1zM279 489h1-1zM280 490h-1l-2 1-1 1h-2l-3 1h2l2-1h2l1-1 2-1 1-1h1l1-1 2-1h-1l-1 1-2 1-1 1zM289 479l-1 1-1 3v-1l2-3zM290 478l-1 1 1-1zM273 491c-3 1-6 0-9-1h-1-1l-1-1h-1l-1-1 1 1h1l-3-2-1-1h-1v-1l-2-1-1-1v-1h-1l1 1 1 1-1-1v-1l-2-2 2 2v1l1 1-1-2-1-2c-3-4-4-8-4-13 0-4 2-9 6-12a28 28 0 0120-7l7 2c3 2 6 6 7 11v17h2l1-1v-1l1-2v-1l1-8c0 3 0 2-1 0l-1-7c0-4-2-8-5-11l-6-3-4-1h-8l-2 1c-3 0-6 2-8 3l-8 6-5 8-1 10c1 4 2 7 4 9l1 2 1 1 2 2h1l1 1 1 1 1 1 1 1 2 1 3 1h1l2 1h3-1 1l6-1-2 1-2-1v1l2-1h2-1z" class="st2"/><path d="M260 489h1l-2-2 1 2z" class="st2"/></g><circle cx="270" cy="470" r="8" class="st3"/><g class="st1"><path d="M265 476zM266 476v1zM266 477zM266 476s0 1 0 0v0zM266 476zM266 476h1l1 1 1-1-4-1 1 1zM263 473l1 1h-1v-2 1zM263 472v1-1z" class="st2"/><path d="M268 477l3 1v-1h3v-1h1v-1 0h1l-1 1 1-1 2-4-1-5-4-4h-6l-5 3-1 3v3c1 1 1 2 2 1v-2l1-2c0 1-1 1 0 0l1-2 2-1 3-1h2l3 3 1 5-1 2-1 1v1h-1-1c0 1 0 0 0 0l-1 1h-2 1-2 0-1 1zM272 477h0z" class="st2"/></g><g class="st1"><path d="M403 371v0zM403 382l-1 1v1l1-2zM402 392v-3-2 5zM403 384h-1v3l1-3zM403 384v-2 2z" class="st2"/><path d="M406 387l-1 3-1 3v6l-1 4-3 6-1 5-1 4c0 3 0 4 1 1l4-14 1-6 2-7a92 92 0 00-1-29v8c0 4 2 9 1 16zM396 330v10l2 7v-2-1l-1-8 1-7-2 1zM398 326l-1 3v-1l2-3-1 1z" class="st2"/><path d="M397 412l-3 9-2 5-2 4-3 9-4 8-1 2-2 3-3 4-1 2h1l1-1-1 1-2 3-2 4 2-4 2-3v-1l-3 5-3 5-2 3-4 6-1 1-1 1-2 3-3 4-2 2-2 3-2 1-2 3 4-3 5-5c-3 1-3 4-5 5l-4 3-3 3-4 3a42 42 0 017-6l2-3 2-1 2-3 2-2-6 6-4 4-3 3-23 17-6 3-4 1-3 2a105 105 0 01-86-4 136 136 0 01-39-26l-20-22-3-3-2-3-4-6a160 160 0 01-13-26 113 113 0 01-7-29 80 80 0 011-21v-8l1-17-2-32c-1-5-3-9-6-11v-1h-2-1v5l1 1v8l1 10a205 205 0 010 24v14l-1 7-1 15c-1 7 0 14 1 21l7 22a185 185 0 0073 79 196 196 0 0033 14l18 3h9l4 1 5-1a116 116 0 0037-8c6-2 11-5 17-9l7-5 3-3 3-3 17-17a135 135 0 00-1 1l1-2 5-8 5-5 3-6 4-6 2-2 3-7 3-7 4-7 1-2 1-3 1-3-1 1 2-5-2 5 1-1 8-26-5 15v1l-1 1 4-13 1-1v-2l1-1 1-3-2 5-1 2-1 1z" class="st2"/><path d="M375 461l1-3-5 9 4-6z" class="st2"/></g><g class="st1"><path d="M559 487h0zM562 488zM564 489h-1 1zM562 488v1h1l-1-1zM562 488zM563 487l1 1h3l1 1h3l-2-1h-2-1l-2-1h-1-1l-1-1-1-1-2-1 1 1 1 1h1l2 1zM553 479l2 3h-1l-1-4v1zM552 477l1 1-1-1z" class="st2"/><path d="M569 490c3 1 6 0 9-1h2l1-1h1l1-1-1 1h-1l3-1 2-2 2-2 1-1 1-1-1 1-1 1 1-1 1-1 1-2-1 2-1 1-1 1 2-1 1-2c3-4 5-9 5-14s-3-10-6-13a33 33 0 00-15-9l-8-1-8 2-6 6-4 7-2 9 2 8v2l1 1h1l1-2v-1-1-1-1-7-1l2-6 6-7 4-3h10l7 3 6 5 4 6 1 7-2 8-1 1-1 1-1 2v1l-1 1h-1l-1 1-1 1-1 1h-1l-2 1-1 1h-2l-1 1h-1-1 1-7a79 79 0 004 1h1-2-2v-1h-1l1 1h1zM582 488l2-1-2 1z" class="st2"/></g><circle cx="572" cy="469" r="8" class="st3"/><g class="st1"><path d="M577 474h-1 1zM576 475zM575 475h0zM576 475zM576 475zM576 476h-1-1v1l2-1 1-1 1-1-1 1-1 1zM579 472l-1 1v-1l1-1v1zM579 471z" class="st2"/><path d="M574 476h-5 0v-1h-1l-1-1v0l-1-1 1 1 1 1-1-1-2-5 1-4 4-3 4 1c2 0 3 1 3 3l1 2v2l1 1 1-2v-2-1l-1-2-3-3-4-1h-3l-5 4-1 7 2 3 2 2c-1-1 0 0 0 0h1l1 1h4-1l3-1h-2 1zM570 476h-1 1z" class="st2"/></g><g class="st1"><path d="M437 370l-1 3v3l1-3v-3zM437 381v0zM438 391l-1-5v2l1 3zM437 383c0 1 0 1 0 0v0zM437 383v-2 2zM441 385v6l1 3 1 3 1 3 1 7 2 4 2 4a221 221 0 01-4-13l-2-5-1-7c-2-7-3-14-2-22v-6 4l-1 4 2 15zM444 329l1 2v1c-1 5-1 9-3 13l2-1v-3l-1 2 2-8v-8l-1 2zM443 325l1 2-1-2z" class="st2"/><path d="M444 411a248 248 0 005 14l2 4 4 9 4 8 1 2a29 29 0 004 8l1 1c0 1 0 1 0 0l-1-1 1 1 1 3-1-3h-1l3 5 3 5 2 2 4 7 1 2v-1 1l3 4 3 3 2 2 2 2 1 2 3 3-3-4-4-6 4 6 3 4 3 3 4 4a26 26 0 01-7-8l-3-2-1-2-2-2-2-2 6 7 3 3 3 4c7 7 15 13 24 18l6 3 3 2 4 1a107 107 0 0073 3 141 141 0 0030-13 168 168 0 0049-40l3-3 2-3 4-7a135 135 0 0020-42 117 117 0 005-32v-1-2-3-8l-1-17 2-29 1-9h-1a2 2 0 00-1-2h-1l-1 1h-1v1l-1 1-1 2-2 5-1 5-1 5-1 30c0-5 0-6 1-5v13l1 8-1 14-5 18-7 21c-5 13-14 26-24 38l-16 16-7 5-7 5-7 5-7 4-7 4c-2 2-5 2-8 3l-7 3-8 2c-5 2-11 3-16 3l-2 1h-14a103 103 0 01-49-14l-7-5-3-2-4-2-15-16a281 281 0 01-1-1l1 2-2-1-6-7-4-6-3-5-4-5-1-3-5-7-3-5-3-8-2-5-2-3v2l-2-5 2 5v-2l-11-24 5 15c-1-3 0-2 1 0v2l-5-13v-1l-1-1v-2l-1-3 1 5 1 3c0 1 0 0 0 0z" class="st2"/><path d="M466 460l-1-2 5 8-4-6z" class="st2"/></g></svg>