<svg xmlns="http://www.w3.org/2000/svg" id="Layer_1" viewBox="0 0 842 842"><defs/><defs><style>.cls-2{opacity:.85}.cls-3{fill:#131413}.cls-4{fill:#211f1e}.cls-5{fill:#1f2020}</style></defs><path fill="#fbdfe9" d="M0 0h842v842H0z"/><g class="cls-2"><path d="M101 382v2l1 2a16 16 0 010-2 5 5 0 00-1-2zM103 390v1c0 1 0 0 0 0v-1zM106 397l-2-4a26 26 0 002 4zM104 391h-1l1 2a17 17 0 010-2zM104 391v-1a10 10 0 000 1zM108 392v2l1 3 1 2 2 4 1 5a50 50 0 004 6c2 2 2 2 1 0l-3-5-2-4-2-5-2-4-1-4-1-2-1-2-1-4-2-4a39 39 0 01-1-5l1 6a17 17 0 002 5l3 6zM97 350l1 2a19 19 0 00-1 5 46 46 0 001 5l1-1c-1-2-1-3-1-1v-6-6l-1 2zM98 346v0z" class="cls-3"/><path d="M113 412a164 164 0 0015 24 5 5 0 011 2 19 19 0 001 2l3 3 1 1c0 1 0 0 0 0a13 13 0 010-1v1a18 18 0 001 2l2 1-2-1-1-2h-1l3 3 4 4 1 1 4 4 1 1v1l6 4 4 3 1 1a14 14 0 012 1l-2-2c-1-2-4-2-4-4 0 2 3 2 4 4l2 2a26 26 0 013 2l3 3a14 14 0 01-3-2 25 25 0 01-3-3 14 14 0 00-2-1l-1-1-4-3 5 5 6 4a152 152 0 0019 12 161 161 0 0021 8 166 166 0 0022 5 176 176 0 0023 2c17 1 34-1 50-5a94 94 0 0023-10 89 89 0 0018-15 103 103 0 0015-19 150 150 0 0010-23 119 119 0 006-24 213 213 0 002-24 28 28 0 00-1-8l-2-2c-2 0-3 2-3 3a44 44 0 00-2 7l-1 7v5l-1 5-1 6-2 7c2-7 2-4 1 1l-1 5v3l-1 2-1 3-1 3a36 36 0 01-2 4l-2 3-2 3-4 7a153 153 0 01-9 14 82 82 0 01-11 12 73 73 0 01-7 5l-3 2-4 2a112 112 0 01-17 7 156 156 0 01-24 5 214 214 0 01-26 1 135 135 0 01-51-10 222 222 0 01-27-13l-4-3-6-5-5-3-2-2-2-2-3-3-4-3 4 3 3 4 2 1 2 2 4 3c2 2 1 1 0 0l-6-3c-2-1-2-4-4-4l-1-2-2-2-4-3-1-2-2-2-3-2a22 22 0 01-3-4l-3-5-3-4-1-2a2 2 0 010 2 2 2 0 000-2l-3-4-3-4-3-5-2-4 5 11-1-1a5 5 0 011 1l1 2-2-2-1-3a22 22 0 01-2-5l-1-1v-2l-1-2a38 38 0 001 4v2l1 1z" class="cls-3"/><path d="M136 446l-2-2 3 3 2 3a9 9 0 00-1-2l-1-1z" class="cls-3"/></g><g class="cls-2"><path d="M232 443a13 13 0 001 1 2 2 0 00-1-1zM235 445zM237 446h-1a7 7 0 001 0zM235 445c1 0 1 0 0 0l1 1a6 6 0 01-1-1zM235 445zM237 444v1a13 13 0 002 0h2l2 1h2a13 13 0 01-2 0 12 12 0 01-1-1h-2l-2-1h-1a11 11 0 01-2-1h-1l-2-1a8 8 0 01-1-1h1l1 1a4 4 0 002 1zM224 434h1a6 6 0 001 2 10 10 0 001 2v-1c-1 0-1 0 0 0l-3-4v1zM224 432v1-1z" class="cls-4"/><path d="M244 447a25 25 0 002 1l3-1h3l2-1a1 1 0 011 0 6 6 0 001 0 15 15 0 001-1h1a5 5 0 01-1 0h1a4 4 0 001 0 11 11 0 011-1 8 8 0 01-1 1h-1a31 31 0 003-2 6 6 0 012-1l1-1h-1 1a24 24 0 002-2l1-1a3 3 0 011-1h-1l-2 2 2-2h1a12 12 0 011-2 5 5 0 01-1 2 3 3 0 00-1 1l-1 1a23 23 0 001-2 20 20 0 002-2 26 26 0 006-16 23 23 0 00-8-15 39 39 0 00-8-6 42 42 0 00-8-4 26 26 0 00-10-1 21 21 0 00-9 2 25 25 0 00-7 7 35 35 0 00-5 8 29 29 0 00-1 10v5l1 3v3a7 7 0 001 0 5 5 0 001 1l1 1a2 2 0 001-2 12 12 0 000-1v-2a13 13 0 000-1l-1-1a21 21 0 011-9c-1 3-1 2-1 0a18 18 0 011-4 14 14 0 012-4l7-8a16 16 0 015-3 14 14 0 012-1 12 12 0 012 0 9 9 0 011 0h3l2 1h2a40 40 0 018 4 32 32 0 017 5 21 21 0 015 7 17 17 0 011 9 31 31 0 01-3 9 9 9 0 01-1 2l-1 1-2 2a39 39 0 01-5 5 27 27 0 005-5v2l-1 1-2 1a12 12 0 00-1 1l-2 1c-1 1 0 0 0 0a14 14 0 00-2 1 6 6 0 01-2 1 20 20 0 01-2 1h-3a1 1 0 011 1h-2 2a1 1 0 00-1-1 22 22 0 01-7 0v1h4a5 5 0 001 0 10 10 0 01-2 0 5 5 0 01-2 0h-1v-1h-1a6 6 0 001 1z" class="cls-4"/><path d="M259 445h-1a11 11 0 001-1l2-1a5 5 0 00-2 2z" class="cls-4"/></g><circle cx="247" cy="421" r="9" class="cls-5"/><g class="cls-2"><path d="M252 427v1a1 1 0 010-1zM252 428zM251 428zM252 428c-1 0-1 0 0 0h-1a1 1 0 011 0zM252 428zM252 429a4 4 0 01-2 1h-1a9 9 0 002-1 11 11 0 002-1 4 4 0 011-1l-1 1a2 2 0 00-1 0 4 4 0 010 1zM255 424a3 3 0 00-1 1 3 3 0 001-1zM255 424zM249 429a8 8 0 01-3 1h-1v-1h-1a1 1 0 011 1 1 1 0 00-1-1 8 8 0 01-1 0v-1h-1l-1-1v1h1-1v-1a1 1 0 01-1-1 2 2 0 011 1l1 1a8 8 0 01-2-1 9 9 0 01-2-5 8 8 0 012-6 8 8 0 015-3 9 9 0 015 1 6 6 0 013 3 12 12 0 011 3 7 7 0 010 2l1 1a2 2 0 001-1 3 3 0 000-1 15 15 0 000-3c0 1 0 1 0 0l-1-3a6 6 0 00-3-3 12 12 0 00-5-1 9 9 0 00-3 0 9 9 0 00-6 5 11 11 0 00-1 7 8 8 0 002 4 12 12 0 002 2 7 7 0 002 1 9 9 0 01-2-1h1a4 4 0 002 1 4 4 0 001 0 8 8 0 001 0 2 2 0 001 0 5 5 0 001 0 5 5 0 01-1 0 10 10 0 003-1 3 3 0 01-2 1c1 0 1 0 0 0a4 4 0 011-1h1a6 6 0 00-1 0z" class="cls-4"/><path d="M244 429a6 6 0 01-1 0 1 1 0 001 0z" class="cls-4"/></g><g class="cls-2"><path d="M739 381l-1 4v-2a5 5 0 001-2zM736 388v0zM734 396l1-4a25 25 0 00-1 4zM736 390s0 1 0 0l-1 2a20 20 0 011-2zM736 390l1-1a12 12 0 00-1 1zM739 393l-1 2a70 70 0 01-3 9c0 2-2 3-3 5l-1 3-1 4c-1 2-1 3 0 0a139 139 0 008-19l2-9 1-4 1-4 1-5-1 3-1 3a14 14 0 00-1 3v5l-1 2v2zM743 349v3a35 35 0 000 5v3c0-2 0-2 0 0a60 60 0 001-6v-6l-1 1zM744 346v0zM729 411a138 138 0 01-15 24 4 4 0 01-1 2 16 16 0 00-1 1l-3 3-1 1 1 1 1-1-1 1a19 19 0 00-2 1 34 34 0 01-3 3 33 33 0 013-3l1-2h1l-6 7-2 1a14 14 0 01-4 4l-1 1-6 5-1 1-2 2-1 1a10 10 0 01-2 2l3-2a5 5 0 002-2 4 4 0 012-1 4 4 0 00-2 1 5 5 0 01-2 2l-3 2a26 26 0 01-6 3 20 20 0 016-3 10 10 0 002-2l1-1 2-2 1-1-5 4-6 4a151 151 0 01-19 11 144 144 0 01-20 8l-2 1-3 1-5 1-5 1h-2l-1 1h-3l-2 1h-3l-6 1h-11c-17 0-33-2-48-6a110 110 0 01-20-9 74 74 0 01-18-12 76 76 0 01-20-39 273 273 0 01-6-45c-1-8-2-10-3-10l-3 3a31 31 0 00-1 7 56 56 0 00-1 8l1 5v14l1 4c-1-7 0-4 1 1l1 5 1 3v3l1 2a331 331 0 002 12l1 4 1 2v2l2 4a70 70 0 0010 15 78 78 0 0014 13 123 123 0 0016 10c5 3 11 4 18 6a134 134 0 0027 5l13 1h13a165 165 0 0054-12c9-4 17-10 24-15l8-5 6-5a112 112 0 0015-15l-7 7-3 4-4 4-2 1a11 11 0 011-2l5-5 5-4a35 35 0 003-3l3-4 2-2 2-2 1-3a25 25 0 013-4l4-6 3-3 1-2a2 2 0 01-2 0l2-2 1-1-1 1-2 2a2 2 0 002 0 189 189 0 008-19 54 54 0 01-3 5l-3 5v1l-1 1 2-5a32 32 0 013-4l1-2 1-1 1-2-4 6z" class="cls-3"/><path d="M707 444l1-1-5 5a9 9 0 002-1l2-3z" class="cls-3"/></g><g class="cls-2"><path d="M609 442a15 15 0 01-1 1 1 1 0 001-1zM606 444zM604 445a8 8 0 001 0 9 9 0 00-1 0zM606 444h-1a6 6 0 011 0zM606 444a3 3 0 001 0zM606 446h-1a18 18 0 01-1 1 8 8 0 01-2 1h-2l-3 1c-1 0-1 0 0 0a15 15 0 002 0 16 16 0 002-1h2l2-1 1-1a12 12 0 002-1l1-1 1-1 2-1-1 1h-1a12 12 0 00-2 2 9 9 0 01-2 1zM617 433v1a9 9 0 00-2 2l-1 1h1s0-1 0 0a11 11 0 002-4zM618 432l-1 1 1-1z" class="cls-4"/><path d="M598 447a22 22 0 01-2 0h-6l-2-1a1 1 0 01-1 0 5 5 0 00-1-1 13 13 0 01-1 0h-1c0-1 0 0 0 0a4 4 0 011 0h-1a5 5 0 000-1 14 14 0 01-2-1 7 7 0 012 1v1h1a28 28 0 01-3-2l-1-1a5 5 0 01-2-1 20 20 0 01-2-2l-2-1v-1a3 3 0 01-1-1l1 2 1 1-1-1-1-2a6 6 0 01-1-2 7 7 0 012 2 3 3 0 000 1v1l2 1a24 24 0 01-2-2 24 24 0 01-1-2 26 26 0 01-5-16 21 21 0 017-14 33 33 0 018-5 34 34 0 018-3 28 28 0 018 0 17 17 0 018 2 19 19 0 018 13 50 50 0 011 8 29 29 0 01-1 8v2a4 4 0 000 1l1 1 1-1a10 10 0 001-1 8 8 0 001-1v-1l1-2a50 50 0 001-9c0 3-1 2-1 0l-1-4v-5a19 19 0 00-7-11 21 21 0 00-7-4 26 26 0 00-4-1h-3a21 21 0 00-4 0h-2l-2 1a34 34 0 00-10 4 33 33 0 00-9 6 27 27 0 00-5 10 25 25 0 00-1 11 24 24 0 004 10l1 2 1 1a23 23 0 009 8 29 29 0 01-6-5c-1-1-1 0 0 0l1 1 1 1 2 1a15 15 0 001 1l2 1 1 1a18 18 0 002 1 7 7 0 012 0l3 1a7 7 0 001 0h2-1a30 30 0 008-1 19 19 0 01-2 1 12 12 0 01-2 0h-1l2-1a16 16 0 012 0h2z" class="cls-4"/><path d="M583 444l1 1a9 9 0 01-1-1l-1-1a5 5 0 001 1z" class="cls-4"/></g><circle cx="595" cy="421" r="9" class="cls-5"/><g class="cls-2"><path d="M589 428zM590 428zM591 429a3 3 0 00-1 0 2 2 0 001 0zM590 428s0 1 0 0v1a1 1 0 010-1zM590 428z" class="cls-4"/><path d="M591 428h1l1 1s1 0 0 0a8 8 0 01-2-1 8 8 0 01-2-1 1 1 0 001 1 4 4 0 011 0zM587 424a2 2 0 001 2v-1h-1a9 9 0 000-1zM587 424z" class="cls-4"/><path d="M593 429a10 10 0 003 1h1l1-1h-1 1a9 9 0 001 0 1 1 0 011 0 8 8 0 001-1 1 1 0 010-1l-1 1 1-1a3 3 0 011 0 1 1 0 01-1 0 1 1 0 000 1 9 9 0 001-1 9 9 0 002-5 9 9 0 00-1-6 10 10 0 00-5-4 9 9 0 00-7 0 12 12 0 00-5 4 8 8 0 00-1 3 9 9 0 000 4l1 1a1 1 0 001-1 6 6 0 000-1v-1a5 5 0 010-2c0 1 0 0 0 0a4 4 0 012-2c1-1 1-2 3-2a6 6 0 013-1 10 10 0 012 0 8 8 0 014 3 7 7 0 011 6 11 11 0 01-1 3 6 6 0 01-1 1 13 13 0 01-2 1 8 8 0 002-1l-1 1-1 1a3 3 0 00-1 0 1 1 0 01-1 0h-1-1 1a7 7 0 01-3 0 9 9 0 012 1v-1 1a2 2 0 01-1-1h-1a4 4 0 001 0z" class="cls-4"/><path d="M598 429v1a8 8 0 001-1 1 1 0 00-1 0z" class="cls-4"/></g></svg>