<svg xmlns="http://www.w3.org/2000/svg" id="Layer_1" viewBox="0 0 842 842"><defs/><defs><style>.cls-2{opacity:.85}.cls-3{fill:#161315}.cls-4{fill:#211f1e}.cls-5{fill:#1f2020}</style></defs><path fill="#dbb0a9" d="M0 0h842v842H0z"/><g class="cls-2"><path d="M86 440l1 2 1 2a21 21 0 010-2 7 7 0 00-2-2zM91 449v1zM95 456l-2-4a25 25 0 002 4zM92 450h-1l2 2a23 23 0 01-1-2zM92 450l-1-2 1 2zM96 450c0 1-1 1 1 2l3 5 4 4 3 5 3 3 3 2a146 146 0 01-7-9l-4-4-2-2-1-2-6-8-2-4a24 24 0 01-2-3l-1-2a37 37 0 01-2-5l1 3 2 4a20 20 0 003 5l4 6zM78 404v1a6 6 0 000 1 30 30 0 001 6l1 6v-2c0-2-1-2-1 0v-4-3-3-4l-1 2zM78 399l1 3v-3z" class="cls-3"/><path d="M108 470l3 3 3 3 1 1 2 2 3 3 3 2 3 3 4 2 1 1 2 1a6 6 0 012 2 20 20 0 002 1l4 3h2c0 1 0 1 0 0l-1-1 1 1a17 17 0 002 2l4 2a34 34 0 01-4-2l-3-2 4 3 5 2 2 1 6 3 2 1 8 3 5 1 1 1a17 17 0 013 1l-3-2c-2-1-4 0-6-2l6 2 3 2a48 48 0 018 3 22 22 0 01-8-3 17 17 0 00-3-1l-1-1-5-1 7 3 8 2a199 199 0 0050 8 107 107 0 0013 0 99 99 0 0013-2 108 108 0 0026-9 147 147 0 0024-17 205 205 0 0021-19c13-14 23-29 32-44a474 474 0 0024-49l4-12 4-15a186 186 0 005-27l-1-10c0-2-1-2-2-2l-3 3-3 17a135 135 0 01-7 25l2-4a29 29 0 01-1 6l-10 23-16 32c-6 12-14 24-22 35l-13 16a214 214 0 01-21 20 136 136 0 01-24 16 91 91 0 01-27 9l-7 1h-8l-15-1-30-3a95 95 0 01-10-3l-9-3-22-9 10 5 11 4c3 1 2 1 0 0l-8-2c-2 0-4-2-5-3l-5-2-3-1-3-1-2-2c-4-2-9-3-11-6l-6-4-4-3-2-2a3 3 0 010 2l-2-2-1-1 1 1 2 2a3 3 0 000-2 119 119 0 01-18-15l5 5c2 1 3 4 4 6-1-2-1-2 1 0l1 1-5-4a27 27 0 01-3-4l-2-2-1-2-2-2 3 4 1 2z" class="cls-3"/><path d="M145 499l-2-1 4 2 4 2a29 29 0 00-6-3z" class="cls-3"/></g><g class="cls-2"><path d="M753 442l-1 2-1 2a23 23 0 012-2 6 6 0 000-2zM749 450l-1 1v1zM745 458a32 32 0 002-4l-2 4zM748 452c0 1 0 1 0 0l-1 2a22 22 0 011-2zM748 452l1-1-1 1zM750 456l-2 2-3 5-3 4-4 5-3 3-2 3c-2 2-2 3 0 1a115 115 0 008-9l3-5 2-2 2-3 5-9 2-5 1-2 1-2 2-6-2 4-1 3a53 53 0 00-3 6 43 43 0 01-3 7zM762 407l1 2v1a37 37 0 00-1 5l-1 6 1-1c0-3 0-3-1-1l1-3 1-4v-3-3l-1 1zM763 403v0z" class="cls-3"/><path d="M734 473l-3 3-3 3-2 1-1 2-3 2-4 3-3 2-3 3-2 1-1 1a6 6 0 01-2 2 25 25 0 00-3 1l-4 2-1 1c-1 1 0 1 0 0h2-2l-2 1-4 3a36 36 0 014-3l2-1h1l-5 2-5 2-2 1a20 20 0 01-6 3l-2 1h1-1l-7 3-5 2h-2a10 10 0 01-3 1 40 40 0 004 0l6-2-6 2a40 40 0 01-4 0 31 31 0 01-8 2 30 30 0 018-2 10 10 0 003-1h2l5-2-8 2-8 2a215 215 0 01-50 7 102 102 0 01-12 0 95 95 0 01-13-2 100 100 0 01-24-10 132 132 0 01-23-16 177 177 0 01-19-20 292 292 0 01-30-44 227 227 0 01-20-48l-4-12c-2-4-2-10-3-14a189 189 0 01-5-26 50 50 0 00-2-9l-2-2-3 4v17l4 26v-5a38 38 0 012 6l6 25c3 10 8 23 14 35s15 24 23 35a194 194 0 0013 18 163 163 0 0023 22 132 132 0 0026 17 104 104 0 0030 9l9 1h24c12-1 22-4 31-7l11-3 9-2a134 134 0 0023-11 183 183 0 01-22 9l7-3 6-2a49 49 0 005-3l3-1 2-2 3-1 11-8 6-4a38 38 0 004-3l2-2a3 3 0 01-1 0l2-1 2-2-2 2-2 1a3 3 0 001 0 160 160 0 0016-17 55 55 0 01-4 5 47 47 0 01-6 4c2-1 2-1 0 1l-1 1 4-5a41 41 0 014-4l2-2h1l2-3-4 4-1 1zM697 501l2-1-4 2-4 2 6-3z" class="cls-3"/></g><g class="cls-2"><path d="M216 496l2 1a4 4 0 01-1-1 1 1 0 00-1 0zM219 497l1 1zM222 498h-1a6 6 0 001 0zM220 497v1h1a4 4 0 01-1-1zM220 497zM221 496l1 1h4l2 1h2a42 42 0 01-7-2 32 32 0 01-6-1 11 11 0 01-2-1 21 21 0 002 1l4 1zM207 488h1a7 7 0 003 4l-1-1c0-1 0-1 0 0l-3-4a1 1 0 000 1zM207 486v1-1z" class="cls-4"/><path d="M228 499a47 47 0 0012 0 5 5 0 001 0h2c1 0 0 0 0 0a4 4 0 001 0l2-1a7 7 0 01-2 1h-1a32 32 0 003-1h1a7 7 0 012-1h1l2-2 2-1a3 3 0 011-1h-2l-1 2 1-2h2a7 7 0 010-1h1a9 9 0 011-1 5 5 0 01-2 2 3 3 0 00-1 1 4 4 0 01-1 0l-1 1 1-1h1v-1l1-1 1-1a18 18 0 004-8 26 26 0 00-1-8 39 39 0 00-2-9 27 27 0 00-5-7 35 35 0 00-8-6 42 42 0 00-9-4 31 31 0 00-9-2 22 22 0 00-10 2 24 24 0 00-7 6 34 34 0 00-5 9 28 28 0 00-2 10 31 31 0 001 9 8 8 0 002 3l1 1 1-2a12 12 0 000-1v-2l-1-1v-2a21 21 0 011-8c-1 3-1 2-1 0a16 16 0 013-8l1-2 1-1 1-1 2-2 1-1a10 10 0 011-1l1-1 2-1a15 15 0 018-1 34 34 0 017 1 40 40 0 018 4 34 34 0 018 5l1 2 1 2 1 2 1 2a28 28 0 012 9 35 35 0 010 5 15 15 0 01-1 4 11 11 0 01-2 3l-1 1a12 12 0 01-1 0l-1 1v1h-1l-1 1a23 23 0 01-3 1 18 18 0 003-1l1-1h1a12 12 0 001-1c1-1 1-1 0 0l-1 1-1 1h-1l-4 2-5 1h-2-2a1 1 0 010 1l-2-1 2 1a1 1 0 000-1 36 36 0 01-8 0 42 42 0 014 1h1a9 9 0 01-4 0h-1v-1h-1a9 9 0 001 1h1z" class="cls-4"/><path d="M244 499h-1l3-1a7 7 0 00-2 1z" class="cls-4"/></g><circle cx="230" cy="475" r="9" class="cls-5"/><g class="cls-2"><path d="M236 481v1a1 1 0 010-1zM235 482zM234 482a2 2 0 001 0 2 2 0 00-1 0zM235 482zM235 482z" class="cls-4"/><path d="M235 483a5 5 0 01-1 1h-1-1a9 9 0 003-1 11 11 0 002-1 4 4 0 010-1l-1 1-1 1zM238 478a3 3 0 000 2v-1a3 3 0 001-1h-1zM239 478z" class="cls-4"/><path d="M233 483a9 9 0 01-4 1 1 1 0 00-1-1v1a2 2 0 010-1 2 2 0 01-1 0 2 2 0 011 0 7 7 0 01-1 0 1 1 0 01-1-1h-1-1a1 1 0 010-1 4 4 0 000 1h0a4 4 0 010-1 1 1 0 010-1 2 2 0 010 1 1 1 0 000 1h1a10 10 0 01-1-1 9 9 0 01-2-5 8 8 0 016-8 9 9 0 015 0 6 6 0 014 4 12 12 0 010 2 7 7 0 010 2l1 2a1 1 0 001-1 3 3 0 001-1 14 14 0 000-4h-1l-1-2a6 6 0 00-3-4 13 13 0 00-5-1 9 9 0 00-3 1 9 9 0 00-6 4 10 10 0 00-1 8 8 8 0 002 3 13 13 0 002 2 7 7 0 003 1 9 9 0 01-3-1h1l1 1a5 5 0 001 0h2a7 7 0 001 0h1a11 11 0 002-1 3 3 0 01-1 1 4 4 0 011-1h1a6 6 0 00-1 0z" class="cls-4"/><path d="M228 483a7 7 0 01-1 0 1 1 0 001 0z" class="cls-4"/></g><g class="cls-2"><path d="M625 503l-1 1a7 7 0 011 0 1 1 0 000-1zM623 504l-1 1zM620 505a8 8 0 001 0 11 11 0 00-1 0zM622 505h-1a6 6 0 011 0zM622 505h1a3 3 0 00-1 0z" class="cls-4"/><path d="M622 507h-1a21 21 0 01-4 1h-2l-3 1a41 41 0 008-2 37 37 0 007-3l1-1-2 1-4 3zM634 496a27 27 0 00-2 3c1 0 1-1 0 0a9 9 0 003-4l-1 1zM635 495zM614 507a40 40 0 01-11 0 1 1 0 01-1 0 6 6 0 00-1 0h-2-1a9 9 0 01-1-1 10 10 0 011 1h2a32 32 0 01-4-1v-1a4 4 0 01-2-1h-1l-2-1-2-1a4 4 0 010-1 3 3 0 01-1 0l1 1 1 1-1-1-1-1v-1a7 7 0 01-1 0 7 7 0 010-2 8 8 0 011 3 3 3 0 001 0 4 4 0 000 1l2 1-1-1-1-1-1-1-1-1a18 18 0 01-3-8 26 26 0 011-8 36 36 0 012-8 24 24 0 015-7 30 30 0 018-5 34 34 0 0117-4 18 18 0 017 2 17 17 0 016 5 20 20 0 013 8 43 43 0 012 8 27 27 0 01-1 8 12 12 0 000 3v1l2-1a11 11 0 001-1 11 11 0 001-1 11 11 0 000-1v-2a48 48 0 001-9c0 3 0 2 0 0l-2-9a13 13 0 00-1-3v-1l-1-2a20 20 0 00-3-3 17 17 0 00-1-1 12 12 0 00-1-1l-2-1-2-1a24 24 0 00-4-1 35 35 0 00-7-1 30 30 0 00-8 1 36 36 0 00-18 11l-2 2-2 2-1 3-1 2a37 37 0 00-2 11 20 20 0 000 6l1 3a19 19 0 002 2 29 29 0 002 4l1 1a13 13 0 001 1l1 1 1 1h1l1 1a20 20 0 004 1 24 24 0 01-3-1l-1-1h-1a13 13 0 01-2-2c-1 0-1 0 0 0l1 1h2l1 2a15 15 0 004 1h1l5 1h2a13 13 0 002 0h1a1 1 0 01-1-1l2 1-2-1a1 1 0 001 1 55 55 0 008-2 14 14 0 01-5 1c1 0 1 0 0 0h-1a15 15 0 014-1h2a9 9 0 001 0h-2z" class="cls-4"/><path d="M598 507h1a28 28 0 01-3-1 5 5 0 002 1z" class="cls-4"/></g><circle cx="612" cy="483" r="9" class="cls-5"/><g class="cls-2"><path d="M606 490h1a1 1 0 01-1 0zM607 491zM608 491a3 3 0 00-1 0 2 2 0 001 0zM607 491zM607 491zM608 490l1 1h2a9 9 0 01-3-1 9 9 0 01-2-1 6 6 0 001 1h1zM604 487a2 2 0 001 1h-1a10 10 0 000-2v1zM604 486z" class="cls-4"/><path d="M610 492a10 10 0 004 0h1a8 8 0 001 0v-1a1 1 0 011 0h1a6 6 0 010-1 1 1 0 011 0h-1 1a3 3 0 010-1 1 1 0 010 1 1 1 0 00-1 0 6 6 0 000 1 10 10 0 001-2 9 9 0 003-5 9 9 0 00-2-6 10 10 0 00-5-4 10 10 0 00-6 0 12 12 0 00-6 4 8 8 0 00-1 4 9 9 0 000 3l1 1a1 1 0 001 0 5 5 0 000-1v-1a5 5 0 010-3c0 1 0 1 0 0a4 4 0 012-2l3-2a6 6 0 013-1 10 10 0 012 0 9 9 0 015 4 7 7 0 011 5 11 11 0 01-1 3 6 6 0 01-2 1 14 14 0 01-2 2 8 8 0 002-2v1h-1l-1 1h-2c-1 0 0 0 0 0h-1a1 1 0 010 1h-1 1a1 1 0 000-1 7 7 0 01-3 0 9 9 0 012 1 2 2 0 01-1 0h-1v-1a5 5 0 001 1z" class="cls-4"/><path d="M615 492a9 9 0 001 0 1 1 0 00-1 0z" class="cls-4"/></g></svg>