<svg xmlns="http://www.w3.org/2000/svg" id="Layer_1" viewBox="0 0 842 842"><defs/><defs><style>.cls-2{opacity:.85}.cls-3{fill:#211f1e}.cls-4{fill:#040505}</style></defs><path fill="#deab90" d="M0 0h842v842H0z"/><g class="cls-2"><path d="M118 367l1 4a15 15 0 010-2 4 4 0 00-1-2zM119 375v0zM121 381l-1-3a21 21 0 001 3zM120 376h-1l1 2a11 11 0 010-2zM120 376v-1a11 11 0 000 1zM123 377v2l2 9 1 4a587 587 0 001-3l-3-8v-4l-1-4-2-8a36 36 0 010-4v6l2 10zM116 339v2a31 31 0 001 9v-2c0-1 0-2 0 0a58 58 0 000-11l-1 2zM116 335l1 2-1-2z" class="cls-3"/><path d="M124 395l1 7 2 6v3l1 3 2 6a4 4 0 011 2 13 13 0 000 2l1 4 1 1c0 1 0 0 0 0a12 12 0 010-1v1a14 14 0 000 2l1 3a20 20 0 01-1-3l-1-2v-1l3 8 1 2 1 5 1 1 2 6 3 4v1a10 10 0 011 2v-3l-2-4 2 4v3a26 26 0 013 6 15 15 0 01-3-6 10 10 0 00-1-2v-1l-3-4 3 6 3 5a100 100 0 0012 17 78 78 0 0014 13 68 68 0 0019 9 75 75 0 0021 3 103 103 0 0023-2 156 156 0 0040-15c7-3 13-7 18-11 12-7 23-15 35-24a184 184 0 0017-14l15-15c5-6 5-8 4-9s-3 0-4 1l-11 7a151 151 0 01-15 13c5-3 3-1 0 2l-16 11-24 16-27 17-14 6a167 167 0 01-22 7 91 91 0 01-22 2 63 63 0 01-21-4 59 59 0 01-19-12 118 118 0 01-16-16l-2-4-2-3-1-4c0-2-1-2-2-3l-2-4-2-4-4-8 4 8 4 8c1 2 0 1-1 0l-2-3-1-2-2-5-3-8v-2l-5-9-1-6-1-3v-3a2 2 0 01-1 2l-1-4 1 4a2 2 0 001-2l-3-8-3-9a63 63 0 012 11c0-2 0-2 0 0v1a27 27 0 01-1-9l-1-2v-1-2a60 60 0 000 6z" class="cls-3"/><path d="M133 431v-2l2 7-2-5z" class="cls-3"/></g><g class="cls-2"><path d="M721 366l-1 4a15 15 0 011-2 4 4 0 000-2zM720 374l-1 1v1l1-2zM719 381v-3a23 23 0 000 3zM720 376h-1v2l1-2zM720 376v-2a10 10 0 000 2zM723 378l-1 2-1 9-2 5c0 4 0 13 1 7l1-10 2-9v-4-4l1-9v-4l-1 6v11zM724 336l1 2a34 34 0 00-1 10v-1-1a65 65 0 001-11l-1 1zM725 333v0zM717 397l-2 7-1 6-1 4-1 3-2 6a4 4 0 010 2 14 14 0 00-1 2l-1 4-1 1h1a13 13 0 011-1l-1 1a16 16 0 00-1 2 33 33 0 01-1 4 28 28 0 011-4v-2l1-1-3 9-1 1a13 13 0 01-2 5l-1 2-3 6-1 4-1 1a8 8 0 01-1 3 28 28 0 002-3l2-4-2 4a28 28 0 01-2 3 23 23 0 01-4 6 19 19 0 014-6 8 8 0 001-3l1-1 1-4-3 6-3 6a115 115 0 01-13 16 82 82 0 01-15 14 68 68 0 01-19 8 72 72 0 01-21 3 96 96 0 01-23-3 137 137 0 01-21-8 254 254 0 01-38-21 233 233 0 01-35-28l-16-15-16-15c-6-5-8-6-9-5v4c2 5 5 8 8 12l15 16c-4-5-2-4 2 0a147 147 0 0115 14c6 7 14 14 24 20l30 18 4 2 4 2 4 2 4 2a128 128 0 0025 9 97 97 0 0026 2 79 79 0 0027-5 82 82 0 0023-15 34 34 0 003-3l2-3 5-5a30 30 0 002-3l1-3 4-5 2-4 2-4c0-2 2-2 3-3l1-4 3-5 2-5 3-9-4 9-4 10v-1l1-3 1-3c0-2 2-4 3-5a89 89 0 002-9l2-2 2-11 2-6 1-4v-2a2 2 0 01-1 1l1-4-1 4a2 2 0 001-1l2-10 1-10v1a59 59 0 01-3 11c1-2 1-2 0 0v2c0-4 0-7 2-10v-2l1-1v-3l-2 7z" class="cls-3"/><path d="M707 434v-2 2l-1 2-1 3 2-5z" class="cls-3"/></g><g class="cls-2"><path d="M628 444l-1-1a2 2 0 011 1zM627 443h-1zM625 443h1a5 5 0 00-1 0zM626 443zM626 443h1a3 3 0 00-1 0z" class="cls-3"/><path d="M626 444h-2-1a9 9 0 00-1 0 7 7 0 00-2 0 15 15 0 015 0 15 15 0 014 0l1 1-2-1a4 4 0 00-1 0 13 13 0 01-1 0zM635 448l-1-1a3 3 0 00-1 0 5 5 0 00-1-1h1l2 2zM635 448z" class="cls-3"/><path d="M621 443a16 16 0 00-6 2 4 4 0 00-1 1h-1 1-1a4 4 0 000 1h-1a5 5 0 011 0v-1a15 15 0 00-1 2 3 3 0 00-1 0 4 4 0 010 1h-1a13 13 0 00-1 2v1l1-1-1 1a11 11 0 01-1 2 3 3 0 011-2v-1a14 14 0 00-1 2 16 16 0 000 11 17 17 0 0017 11 16 16 0 0010-4 18 18 0 005-10 15 15 0 000-6 16 16 0 00-2-6 5 5 0 00-2-1h-1v1l1 2 1 1a11 11 0 011 5c0-2 0-1 0 0a9 9 0 010 5 28 28 0 01-3 6 13 13 0 01-6 4 14 14 0 01-14-2 14 14 0 01-6-9 18 18 0 010-6 12 12 0 011-3 23 23 0 012-2l1-2a13 13 0 00-3 3c0 1 0 1 0 0h1v-1l1-1v-1l1-1h1a9 9 0 001-1 11 11 0 012-1l1-1h1-1a13 13 0 014-1h-2v1h-1a5 5 0 011-1 4 4 0 012 0h1a10 10 0 00-2 0z" class="cls-3"/><path d="M613 447v-1a13 13 0 00-1 2 4 4 0 001-1z" class="cls-3"/></g><circle cx="623" cy="459" r="7" class="cls-4"/><g class="cls-2"><path d="M617 456l1-1a1 1 0 01-1 0v1zM618 455zM618 454a3 3 0 000 1 1 1 0 000-1zM618 455zM618 455z" class="cls-3"/><path d="M617 454h1a4 4 0 010-1h1v-1a7 7 0 00-1 2 9 9 0 00-1 1 4 4 0 01-1 1 7 7 0 011-1v-1zM616 459v-1a2 2 0 001-1h-1v1a2 2 0 000 1zM616 459z" class="cls-3"/><path d="M619 453a7 7 0 013-1h1a2 2 0 011 0 1 1 0 01-1 0 7 7 0 011 0h1a5 5 0 011 0v1a2 2 0 000-1 2 2 0 010 1 1 1 0 011 0 1 1 0 01-1 0v-1a6 6 0 011 1 7 7 0 012 3 7 7 0 011 5 6 6 0 01-3 3 7 7 0 01-4 1 5 5 0 01-4-2 12 12 0 01-1-1 6 6 0 010-2l-1-1a1 1 0 00-1 0 2 2 0 000 2 15 15 0 001 2c-1 0 0 0 0 0l1 2a5 5 0 004 2 11 11 0 004 0 7 7 0 002-1 8 8 0 004-5 9 9 0 00-1-7 6 6 0 00-3-2 10 10 0 00-2-1 5 5 0 00-2 0 7 7 0 012 0h-1a3 3 0 00-1 0h-1-1a6 6 0 00-1 0 2 2 0 000 1h-1 1a9 9 0 00-2 1 2 2 0 011 0v-1a2 2 0 01-1 1z" class="cls-3"/><path d="M623 452a7 7 0 011 0h-1z" class="cls-3"/></g><g class="cls-2"><path d="M205 443h1a3 3 0 01-1 0zM206 443h1zM208 442a7 7 0 00-1 0 4 4 0 001 0zM207 443v-1a3 3 0 010 1zM207 443h-1z" class="cls-3"/><path d="M207 442l1-1h2l1 1h1v-1a14 14 0 00-4 0 16 16 0 00-4 2h-1 1a4 4 0 001-1 9 9 0 012 0zM199 447v-1a9 9 0 001 0l1-1c-1 0-1 0 0 0a7 7 0 00-2 2zM198 447h1-1z" class="cls-3"/><path d="M211 442a14 14 0 016 2 3 3 0 001 1h1a3 3 0 000 1 8 8 0 011 0 6 6 0 01-1 0v-1a14 14 0 011 1 4 4 0 010 1 3 3 0 011 1 11 11 0 011 1l1 1v0l-1-1 1 1v1a4 4 0 010 1 5 5 0 010-1v-1l-1-1a13 13 0 011 3 15 15 0 010 9 14 14 0 01-6 7 14 14 0 01-9 2 14 14 0 01-8-4 13 13 0 01-3-3 11 11 0 01-1-5 17 17 0 011-4 13 13 0 011-4l1-2h-1a4 4 0 00-1 1 7 7 0 00-1 1 20 20 0 00-2 5c0-2 0-1 0 0v5a11 11 0 003 7 18 18 0 006 5 15 15 0 004 1 15 15 0 0012-3 17 17 0 006-11 14 14 0 000-6 17 17 0 00-2-4 13 13 0 00-1-2 15 15 0 00-2-2 14 14 0 013 4l-1-1v-1a7 7 0 00-1-1l-1-1a10 10 0 00-2-1 5 5 0 01-1 0 13 13 0 00-1-1 4 4 0 00-1-1v1l-1-1 1 1v-1a16 16 0 00-5 0 7 7 0 013 0h-1a8 8 0 01-1 0h-1 1z" class="cls-3"/><path d="M219 446v-1a11 11 0 011 1 3 3 0 00-1 0z" class="cls-3"/></g><circle cx="209" cy="457" r="7" class="cls-4"/><g class="cls-2"><path d="M215 453zM215 453zM214 452a1 1 0 001 0 1 1 0 00-1 0zM215 453v-1a1 1 0 010 1zM215 453zM214 453l-1-1c0-1 0 0 0 0h-1a10 10 0 013 2l-1-1zM216 457v-1a1 1 0 000-1v1a5 5 0 000 1zM216 457z" class="cls-3"/><path d="M213 451a7 7 0 00-3-1c-1 0-1 0 0 0a1 1 0 00-1 0h1-2a5 5 0 00-1 0v1a1 1 0 01-1 0h1s0-1 0 0c0-1 0 0 0 0h-1a1 1 0 001 0v-1a7 7 0 00-1 1 7 7 0 00-4 8 8 8 0 003 4 7 7 0 005 2 10 10 0 005-2 6 6 0 002-2 8 8 0 000-3v-1a1 1 0 00-1 0 3 3 0 00-1 1 4 4 0 01-1 2c1 0 1 0 0 0a2 2 0 01-1 1 22 22 0 00-3 1 4 4 0 01-2 0 9 9 0 01-2-1 6 6 0 01-2-3 5 5 0 011-4 10 10 0 011-2 4 4 0 011 0 14 14 0 012-1 5 5 0 00-2 1l1-1h2a4 4 0 011 0 4 4 0 011 0 4 4 0 00-1 0 5 5 0 012 1 5 5 0 01-1-1c1 0 0 0 0 0a1 1 0 011 0v1a3 3 0 000-1zM209 450z" class="cls-3"/></g></svg>