<svg xmlns="http://www.w3.org/2000/svg" id="Layer_1" viewBox="0 0 841.89 841.89"><defs/><defs><style>.cls-2{opacity:.85}.cls-3{fill:#020202}.cls-4{fill:#040505}.cls-5{fill:#090a0a}.cls-6{fill:#060707}</style></defs><path fill="#eaccca" d="M0 0h841.89v841.89H0z"/><g class="cls-2"><path d="M599.28 385.45l1-.2a1.93 1.93 0 01-.52-.06c-.26 0-.35.13-.48.26zM601.18 385.17h.17l.15-.06zM602.92 385a4.49 4.49 0 00-.9 0 3 3 0 00.9 0zM601.51 384.9c.12.06.17.13 0 .2a2.25 2.25 0 01.49-.1zM601.51 384.9c-.11-.06-.28-.11-.34-.14zM601.92 383.18c.2-.05.16.43.55.33a8.93 8.93 0 012.62-.1c.41 0 .89.66 1.29.64s1.29.16 1.86.17.86 0 .2-.27l-1.43-.44c-.45-.11-.89-.18-1.31-.26a9.09 9.09 0 00-1.29-.15 12 12 0 00-1.41-.1 15 15 0 00-4.52 1.09c-.4.16-.8.28-1.2.4a10.5 10.5 0 011.67-.33 3.79 3.79 0 001.27-.48 6.11 6.11 0 011.7-.5zM593.07 389.33l.21-.53a5 5 0 001-.74c.29-.3.53-.65.84-.94h-.46c-.35.35-.28.5.09.27a7 7 0 00-1.23.83 6.17 6.17 0 00-.92 1.11c.14.07.25.17.47 0zM592.28 389.84l.32-.47h-.05l-.29.49z" class="cls-3"/><path d="M606.73 385.3a16.93 16.93 0 016 3.43c.2 0 .36 0 .5.23a3.64 3.64 0 00.28.47l.67.71.27.21c.17.09.19 0 .16-.13a3 3 0 01-.12-.36c0 .07.09.24.12.36a3.27 3.27 0 00.26.48 6.06 6.06 0 01.62.7 3 3 0 01-.62-.7c-.13-.13-.28-.24-.42-.36l-.15-.08c.53.53.94 1.15 1.41 1.71l.31.36c.35.39.75.78.72 1.19l.19.35v-.09a1.55 1.55 0 000 .15 10.81 10.81 0 01.75 1.48 6.14 6.14 0 01.72.88s0 .29-.08.44a1.27 1.27 0 01.45.49 7.88 7.88 0 00.06-.93c.09-.47-.77-.58-.57-1.18-.2.6.66.71.57 1.18a7.88 7.88 0 01-.06.93 3 3 0 01.28 1.75 2.58 2.58 0 01-.28-1.75 1.27 1.27 0 00-.45-.49c0-.15.08-.44.08-.44a6.14 6.14 0 00-.72-.88 10.25 10.25 0 01.61 1.5 12.41 12.41 0 01.46 1.58 16.47 16.47 0 01-1 10.11c-1.37 3.11-3.31 6.26-6.21 8.24a10.17 10.17 0 01-5.16 1.69 12.8 12.8 0 01-5.23-.9 28.84 28.84 0 01-4.72-2.35l-1.1-.71-1-.75a5.77 5.77 0 01-.89-.82 5.6 5.6 0 01-.81-.88 10.23 10.23 0 01-2.09-4.27 12.25 12.25 0 01-.3-2.44 12.62 12.62 0 01.28-2.51 41.64 41.64 0 011.18-4.9 24.79 24.79 0 011.87-4.69c.52-1.68.21-2.45-.35-2.78a1.93 1.93 0 00-1.38-.12 5.28 5.28 0 00-2.82 2.7c-.71 1.27-1.38 2.87-2.48 5.31.32-.85.58-1.06.64-.91a4.5 4.5 0 01-.1 1.43c-.3 1.46-.64 3.76-1.16 5.51-.82 2.53-.19 6 1.73 8.9l.35.55.42.51.85 1c.61.63 1.26 1.22 1.92 1.78s1.4 1.05 2.07 1.47 1.31.86 2 1.26a18.89 18.89 0 004.7 2 15.74 15.74 0 007.59.88 14.14 14.14 0 007.14-3.22 20.68 20.68 0 004.67-5.79 27.72 27.72 0 002.86-6.95 14.61 14.61 0 00-.47-7.54 23.34 23.34 0 00-1.34-4.65 15 15 0 00-3.36-4.51 20.12 20.12 0 013.21 4.43c.66 1.29-1-.68-1.58-1.35-.31-.27-.16-1.11-.5-1.37a10 10 0 00-1.86-1.8c-.33-.23.06-.51-.11-.63-1-.86-2.06-1.09-2.59-1.67a13.74 13.74 0 00-1.2-1.21 6.58 6.58 0 00-.83-.61l-.65-.24a1 1 0 010 .59c-.26-.19-.61-.51-.87-.7.26.19.61.51.87.7a1 1 0 000-.59 20.35 20.35 0 00-5.1-1.32c.25.05.49.1.73.17a6.65 6.65 0 01.69.28 4.44 4.44 0 011.3.8c-.36-.28-.26-.38.21-.19l.25.38a6.18 6.18 0 01-2.36-1h-.59c-.25-.13-.2-.28-.23-.42l-.58-.1c.35.37 1.49.97 1.47 1.01z" class="cls-3"/><path d="M614.86 390.74a5.63 5.63 0 00-.34-.32c.42.47.78 1 1.17 1.46-.03-.4-.43-.77-.83-1.14z" class="cls-3"/></g><ellipse cx="604.18" cy="400.03" class="cls-4" rx="7.93" ry="8.12"/><g class="cls-2"><path d="M611.38 395.9l-.26-.46a1.18 1.18 0 01.06.27c.04.11.11.14.2.19zM610.86 395.03l-.05-.07-.07-.06.12.13zM610.24 394.36a3.49 3.49 0 00.31.34 1.56 1.56 0 00-.31-.34zM610.65 395c0-.07 0-.12.09-.06l-.19-.2a1.06 1.06 0 01.1.26zM610.65 395v.18a.57.57 0 000-.18zM609.85 395.3c-.06-.05.13-.18 0-.28-.3-.25-.6-.41-.87-.64-.14-.07-.18-.43-.35-.49-.35-.21-1.34-.39-.85-.12a11 11 0 013.06 2.63 3 3 0 01.2.49 4.31 4.31 0 00-.22-.7c-.13-.34-.61-.52-.97-.89zM612.27 399.59l-.09-.26a1.68 1.68 0 00-.16-1.22l-.07.2c.06.23.13.25.15 0a6.62 6.62 0 000 1.41c.07 0 .15 0 .17-.13zM612.14 400v-.27a2.16 2.16 0 000 .27z" class="cls-5"/><path d="M608.68 393.26a8.44 8.44 0 00-3.09-1.31c-.09 0-.15.08-.26 0a1.08 1.08 0 00-.24-.12c-.15 0-.31 0-.47-.05h-.17c-.09 0-.07.07 0 .1l.16.1-.16-.1a1.6 1.6 0 00-.26-.08 2.17 2.17 0 01-.45 0 1.87 1.87 0 01.45 0H604.54a7.9 7.9 0 00-1.09 0h-.22a1.06 1.06 0 01-.69.05h-.27a7.23 7.23 0 00-.8.21l-.46.32h-.22a.72.72 0 01-.22.25h.43c.21 0 .29-.37.57-.24-.28-.13-.36.27-.57.24h-.44a2.34 2.34 0 01-.81.33 1 1 0 01.81-.33.72.72 0 00.22-.25h.22l.46-.32a7.6 7.6 0 00-1.53.66 8.52 8.52 0 00-4 9.37 9.21 9.21 0 003.17 5.2 8.15 8.15 0 005.65 1.75 10.84 10.84 0 005.76-2.15 7.31 7.31 0 002-2.54 9.37 9.37 0 00.9-3.08c-.08-1.11-.48-1.35-.78-1.33a1.16 1.16 0 00-.63.33 4.4 4.4 0 00-.82 1.57 4.61 4.61 0 01-1.22 2.05c.48-.53.49-.25.18.31a3.33 3.33 0 01-1.78 1.41c-1 .22-2 .67-3.06.92a5.15 5.15 0 01-3.36-.21 8.74 8.74 0 01-1.57-.85 7.89 7.89 0 01-2.59-4.15 6.48 6.48 0 01.78-5 11.11 11.11 0 011.55-2.17 4.86 4.86 0 011.57-.77 11.23 11.23 0 012-.63 6.49 6.49 0 00-2 .56c-.5.22.23-.45.6-.58.14-.1.44.1.58 0 .34-.07.63-.2 1-.28.16-.06.14.17.22.15a2.49 2.49 0 00.69-.16 1.08 1.08 0 01.56 0 4.89 4.89 0 01.65.27l.4.14h.28a.55.55 0 010-.28 3.58 3.58 0 01.42.25 3.58 3.58 0 00-.42-.25.55.55 0 000 .28 6.12 6.12 0 012.12.8 6.6 6.6 0 01-1.06-.88c.16.15.1.19-.11.1l-.1-.19a1.6 1.6 0 011 .65l.26.09c.08.11 0 .16 0 .23s.15.09.22.15a3.48 3.48 0 00-.31-.54z" class="cls-5"/><path d="M604.17 391.83h.23a6.91 6.91 0 00-.91 0 1 1 0 00.68 0z" class="cls-5"/></g><g class="cls-2"><path d="M461.29 409.16c.82.71 1.63 1.44 2.46 2.14a8.07 8.07 0 01-1-1.32 2.82 2.82 0 00-1.46-.82zM466.08 413.22c.15.13.3.26.45.37l.44.24zM470.67 416.58a24 24 0 00-2.28-1.78 15.11 15.11 0 002.28 1.78zM467.28 413.57c.18.33.23.55-.29.28l1.42 1a9.26 9.26 0 01-1.13-1.28zM467.28 413.57c-.18-.32-.51-.75-.61-.93a9.16 9.16 0 00.61.93zM470.5 411.8c.51.27-.19.94.82 1.47 2.21 1.45 4.32 2.39 6.27 3.88 1 .48 1.79 2.43 2.85 2.89 2.33 1.29 8.55 4.06 5.28 1.85-2.46-1.66-4.57-2.91-6.52-4.28s-3.88-2.62-6.06-4.16c-3.61-2.42-7.23-4.59-10.82-7.26-1-.77-1.82-1.59-2.67-2.4l3.41 3.48c1.56 1.73 4.52 2.48 7.44 4.53zM443.86 392.64l1.46.94a19.73 19.73 0 005.59 5.48l-.54-1.15c-1.17-1-1.47-.9-.62.16a42 42 0 00-6.12-6.61 1 1 0 00.23 1.18zM442.31 390.3l1.32 1.16a.37.37 0 000-.11l-1.36-1.11z" class="cls-6"/><path d="M480.88 423l4.58 3.18 4.54 3c3 2 6 3.77 8.94 5.62a3 3 0 011.54.56 9.86 9.86 0 001.26 1.08l2.62 1.51 1 .45c.55.18.47 0 .23-.32a9.23 9.23 0 01-.76-.82c.13.16.53.53.76.82a9.36 9.36 0 001.3 1 23.74 23.74 0 012.59 1.27 15.65 15.65 0 01-2.59-1.27l-1.56-.71-.47-.16c2 1.19 4 2.21 6.06 3.31l1.33.59c1.53.66 3.12 1.19 3.85 2.06l1.11.55-.18-.18.38.28c1.56.77 3.13 1.54 4.74 2.23 1.11.27 2.28.51 3.4.83l.91.9a6.5 6.5 0 012 .26c-.78-.59-1.46-1.2-2.12-1.7-.89-.89-2.78-.11-3.7-1.48.92 1.37 2.81.59 3.7 1.48.66.5 1.34 1.11 2.12 1.7a16.19 16.19 0 015 2.36 11.1 11.1 0 01-5-2.36 6.5 6.5 0 00-2-.26l-.91-.9c-1.12-.32-2.29-.56-3.4-.83l4.72 2.11 4.87 1.95a158.16 158.16 0 0032.16 8.95l2.05.36 2.07.28 4.15.56 4.18.41 2.11.2 2.12.13a169.52 169.52 0 0017.38.28 177.17 177.17 0 0018.93-1.58 199.4 199.4 0 0018.2-3.34 160.84 160.84 0 0033.28-12.22c10.52-5.1 20.68-10.88 31.43-17.09a114.56 114.56 0 0014.72-10.84c5.15-4.37 10-9.07 13.18-12.39 3.78-5 3.67-7.17 2.66-7.89s-3-.18-3.28-.05c-3.78 1.49-6.32 3.48-9.5 6.21a92.1 92.1 0 01-13.42 10c4.27-2.72 3.21-1.11-.08 1.69a51.28 51.28 0 01-13.55 8.22 77.89 77.89 0 00-10.29 4.71c-3.55 1.85-7.19 4-11 6.06-7.53 4.18-15.58 8.4-23.6 10.81-4 1.26-8.16 2.75-13 4.08a220.62 220.62 0 01-37.34 5.62 149.26 149.26 0 01-19-.14 126.26 126.26 0 01-19.57-2.86l-5.14-1c-1.67-.33-3.31-.57-4.9-.91l-4.72-.89c-1.54-.34-3-.69-4.53-1.05a50.94 50.94 0 01-6.32-2.37c-2-.83-3.93-1.77-5.6-2.47l-7.45-3c-2.37-.91-4.6-1.85-6.8-2.74 2.39 1.13 4.47 2.08 6.67 2.94s4.42 1.85 7.17 2.88c1.82.72 1.07.75-.44.49a27.79 27.79 0 01-5.05-1.25c-1.11-.27-2.25-2-3.35-2.24-2.2-1-4.35-1.7-6.82-2.62-1.1-.32-.53-1.11-1.08-1.27-3.2-1.54-6.23-1.77-8.08-3.15l-3.9-2.85c-.8-.55-1.6-1.06-2.48-1.58l-1.76-.85a2.07 2.07 0 01.2 1.33c-.77-.56-1.78-1.46-2.54-2 .76.56 1.77 1.46 2.54 2a2.07 2.07 0 00-.2-1.33c-2.11-1.06-4.43-2.16-6.68-3.44s-4.47-2.61-6.68-3.91v.11a41.38 41.38 0 017 5.61c-1-.94-.69-1.07.59-.25l.71 1a20 20 0 01-6.34-4.55l-1.58-.71a1 1 0 01-.39-1.13l-1.44-1a17.58 17.58 0 002 2.38z" class="cls-6"/><path d="M506.94 439.13c-.38-.15-.82-.38-1.3-.62 1.66 1 3.39 1.85 5.09 2.78-.73-.88-2.24-1.52-3.79-2.16z" class="cls-6"/></g><g class="cls-2"><path d="M249.3 381.28l-1.08-.27a2.16 2.16 0 01.51.29.7.7 0 00.57-.02zM247.19 380.87h-.37zM245.26 381a5.29 5.29 0 001 0 3.73 3.73 0 00-1 0zM246.78 381.07c-.11-.08-.16-.16 0-.2a3.86 3.86 0 00-.58 0 1.43 1.43 0 01.58.2zM246.78 381.07c.11.08.29.16.34.21a1.4 1.4 0 00-.34-.21zM246.27 382.74c-.17.06-.13-.42-.47-.3-.81.11-1.45.47-2.18.55-.3.19-.94-.2-1.26 0a6.16 6.16 0 00-1.35.91c-.37.32-.48.56.05.32a14.71 14.71 0 014.29-1.27 11.33 11.33 0 013.91-.16 6.11 6.11 0 011 .42 8 8 0 00-1.34-.68 2.14 2.14 0 00-1.19 0 8.18 8.18 0 01-1.46.21zM255.76 386l-.47-.35a2.27 2.27 0 00-.72-1.08 4.21 4.21 0 00-1.09-.77l.16.42c.39.3.51.26.26-.14a9.49 9.49 0 00.88 1.25c.32.37.58.77.91 1.13.07-.13.19-.21.07-.46z" class="cls-3"/><path d="M256.07 386.88l-.38-.43v.05l.41.41z" class="cls-3"/><path d="M241.41 382.13a20.28 20.28 0 00-6.15 3.41c-.08.18-.1.34-.31.45a2 2 0 00-.52.22l-.72.69-.22.28c-.09.17 0 .18.13.14l.37-.12c-.07 0-.24.09-.37.12a1.81 1.81 0 00-.46.3 5 5 0 01-.6.74 3.15 3.15 0 01.6-.74c.1-.16.22-.3.33-.45l.08-.15c-.56.52-1 1.12-1.55 1.67l-.24.41a2.56 2.56 0 01-.92 1.11l-.23.34h.08l-.12.11a11.67 11.67 0 00-.9 1.48c-.09.38-.18.76-.24 1.15l-.37.27a1.44 1.44 0 010 .68c.25-.24.51-.44.69-.64.35-.25-.1-1 .51-1.18-.61.21-.16.93-.51 1.18-.18.2-.44.4-.69.64a4.21 4.21 0 01-.74 1.69 2.32 2.32 0 01.74-1.69 1.44 1.44 0 000-.68l.37-.27c.06-.39.15-.77.24-1.15a10.6 10.6 0 00-.76 1.55 12.47 12.47 0 00-.62 1.65 16.68 16.68 0 00.51 11.05 26.69 26.69 0 002.57 5 18.1 18.1 0 004 4.37 13.36 13.36 0 006.11 2.6 17.32 17.32 0 006.5-.36 21.43 21.43 0 005.74-2.27L255 415l1.28-.93a19.94 19.94 0 002.31-2.19 17.57 17.57 0 003.24-5.55 27.25 27.25 0 00.93-3.15 32 32 0 00.5-3.3 17.24 17.24 0 00-.82-6.5 27.17 27.17 0 00-2.58-5.83c-1.44-1.69-2.33-1.66-2.82-1.28a2.24 2.24 0 00-.65 1.28 8.12 8.12 0 00.7 3.68 13.79 13.79 0 011.07 5.1c0-.79 0-1.06.17-1a2.23 2.23 0 01.51 1.19 7.7 7.7 0 01-.29 4.86c-1 2-1.6 4.09-2.74 6.1l-.21.39-.25.35-.5.72c-.38.45-.79.89-1.22 1.31a15.62 15.62 0 01-1.47 1.1 11.23 11.23 0 01-1.72.89 25.38 25.38 0 01-3.71 1.47c-3.66.76-6.82.4-9.45-1.62a14.73 14.73 0 01-3.54-4 16.94 16.94 0 01-2.26-5.33 20.58 20.58 0 01-.84-5.52 10.91 10.91 0 011.28-3.49 43.61 43.61 0 012.17-4.06 18.83 18.83 0 00-2.2 3.92c-.25.52-.3.28-.26-.19a5.74 5.74 0 01.36-1.57c.1-.35.8-.53.92-.85.43-.61.66-1.29 1.11-2 .14-.34.47 0 .55-.15.65-.85.83-1.91 1.48-2.25a8.39 8.39 0 011.32-.74 8.14 8.14 0 00.75-.5l.45-.4a1.09 1.09 0 01-.5-.29c.28-.13.69-.25 1-.38-.27.13-.68.25-1 .38a1.09 1.09 0 00.5.29 13.34 13.34 0 014.09-2.49l-.68.19-.68.2c-.45.12-.94.19-1.44.28.43-.08.43.07 0 .3l-.44-.06a3.66 3.66 0 012.36-.87l.18-.12.31-.18c.28 0 .3.15.39.26l.53-.17a5.91 5.91 0 00-1.78-.17z" class="cls-3"/><path d="M233.13 387.64a2.91 2.91 0 01.29-.37c-.45.44-.85.93-1.29 1.4.4-.12.7-.57 1-1.03z" class="cls-3"/></g><ellipse cx="244.07" cy="397.15" class="cls-4" rx="7.93" ry="8.12"/><g class="cls-2"><path d="M237.44 393.34l.26-.41a.83.83 0 01-.2.16c-.08.08-.06.16-.06.25zM237.96 392.57l.06-.07.02-.07-.08.14zM238.44 391.87a2 2 0 00-.27.33 1.36 1.36 0 00.27-.33zM238 392.36c.06 0 .1 0 .07.07l.13-.23a1.27 1.27 0 01-.2.16zM238 392.36l-.17.08zM237.43 391.66c0-.1.21.07.29-.1a4.36 4.36 0 01.73-1c.1-.17.51-.14.62-.3.27-.33 1.12-1.18.54-.82a7.72 7.72 0 00-1.9 1.77 9.07 9.07 0 00-1 1.93 3.3 3.3 0 01-.27.53c.15-.21.27-.44.45-.66s.21-.84.54-1.35zM236.34 396.73l-.07-.27a2.58 2.58 0 00.23-1.17l-.16.15c0 .23 0 .27.12.08a2.69 2.69 0 00-.3 1.35c.07-.02.14-.02.18-.14zM236.17 397.14a2.44 2.44 0 010-.27v.27z" class="cls-5"/><path d="M239.65 390.5a7.21 7.21 0 013-1.23c.08-.06.12-.12.24-.11a1.19 1.19 0 00.26 0 3.44 3.44 0 01.46 0h.16c.09 0 .06-.07 0-.1l-.17-.08s.11 0 .17.08l.25.05a2.17 2.17 0 01.44 0 1.57 1.57 0 01-.44 0l-.26.05h-.08a7.31 7.31 0 011.05.06h.27a1 1 0 01.64.15l.18.06h.06a6.59 6.59 0 01.75.25l.54.06.11.19a.67.67 0 01.31 0 3.75 3.75 0 00-.27-.36c-.12-.19-.47.08-.59-.21.12.29.47 0 .59.21a3.75 3.75 0 01.27.36 1.26 1.26 0 01.67.52 1.23 1.23 0 01-.67-.52.67.67 0 00-.31 0l-.11-.19-.54-.06a7.85 7.85 0 014.63 9.33 7 7 0 01-3.11 4.08 7.58 7.58 0 01-4.53 1.11 5.33 5.33 0 01-4-2.17 13.93 13.93 0 01-1.24-1.88 6.87 6.87 0 01-.7-2.1c-.28-.73-.62-.95-.94-.93a.88.88 0 00-.6.33 2.25 2.25 0 00-.33 1.85 15.81 15.81 0 00.84 2.75c-.32-.84 0-.61.37 0s1.11 1.48 1.58 2.23a5.29 5.29 0 003.71 2.22 11.28 11.28 0 004.81-.41 8 8 0 002.28-1.09 8.65 8.65 0 003.88-5.82 10.25 10.25 0 00-1.32-7 7.19 7.19 0 00-2.68-2.4 11.2 11.2 0 00-2-1.18 6 6 0 00-2.72-.39 7.84 7.84 0 012.64.41c.66.25-.56.08-1 .08-.2 0-.44-.34-.65-.3a3.85 3.85 0 00-1.26.05c-.19 0-.17-.2-.27-.17a3.52 3.52 0 00-.81.23 1.54 1.54 0 01-.62.2 6.91 6.91 0 00-.82.08 1.72 1.72 0 00-.48.13l-.29.08a.51.51 0 01.22.19c-.14.05-.38.06-.52.12.14-.06.38-.07.52-.12a.51.51 0 00-.22-.19 10 10 0 00-2 1.57 2.9 2.9 0 011.26-.67c-.21.06-.23 0 0-.14h.22a2.94 2.94 0 01-1.07.61l-.17.22c-.12.06-.16 0-.23 0a1.8 1.8 0 00-.2.19 6 6 0 00.84-.28z" class="cls-5"/><path d="M244.07 389.12h-.22a8.65 8.65 0 01.88.05 1 1 0 00-.66-.05z" class="cls-5"/></g><g class="cls-2"><path d="M378.9 400.49c-.83.68-1.66 1.38-2.51 2.05a12.83 12.83 0 011.47-.79 2.81 2.81 0 001.04-1.26zM374 404.36l-.45.35-.33.38zM369.77 408.07a24.25 24.25 0 002.22-1.82 15.27 15.27 0 00-2.22 1.82zM373.43 405.45c-.36.11-.59.1-.21-.35l-1.22 1.15a9.69 9.69 0 011.43-.8zM373.43 405.45c.34-.1.84-.33 1-.38a8.3 8.3 0 00-1 .38zM374.42 409c-.39.44-.87-.4-1.63.48a56 56 0 01-5.51 5.06c-.79.85-2.83 1.09-3.64 1.9-2 1.75-6.93 6.73-3.65 4.38 4.95-3.55 7.94-6.17 12.18-9.58 3.21-3.08 6.3-6 9.47-9.24.93-.85 1.88-1.55 2.82-2.27l-4 2.83c-1.92 1.32-3.33 4-6.04 6.44zM397 384.93l-1 1.4c-2.31 1.22-4 3.3-5.78 5.24l1.19-.43c1.09-1.06 1-1.38-.1-.63a38.27 38.27 0 006.89-5.77 1 1 0 00-1.2.19z" class="cls-6"/><path d="M399.39 383.48l-1.21 1.26h.1l1.17-1.31zM360.66 415.87l-4.56 3.19-4.54 2.94c-3 2-6 3.67-9 5.43a2.53 2.53 0 01-1.26 1.06 10 10 0 00-1.58.49L337 430.4l-.89.58c-.45.37-.23.42.14.37a8.76 8.76 0 011.1-.21c-.21 0-.73.17-1.1.21a11.61 11.61 0 00-1.55.54 23.33 23.33 0 01-2.54 1.34 15.46 15.46 0 012.54-1.34c.5-.3 1-.62 1.43-.93l.39-.32c-2 1.12-4.11 2-6.16 3.06l-1.25.72a9.1 9.1 0 01-4 1.67l-1.13.49h.25l-.45.11c-1.58.69-3.17 1.38-4.8 2-1 .6-1.94 1.26-3 1.83h-1.26a5.2 5.2 0 01-1.63 1.14 23.73 23.73 0 002.71-.21c1.26 0 2-1.89 3.67-1.59-1.63-.3-2.41 1.58-3.67 1.59a23.73 23.73 0 01-2.71.21 16.22 16.22 0 01-5.29 1.48 10.88 10.88 0 015.29-1.48 5.2 5.2 0 001.63-1.14H316c1-.57 2-1.23 3-1.83l-4.76 1.86-4.91 1.7a185.68 185.68 0 01-31.89 7.75l-2 .31-2 .24-4.06.47-4.1.32-2.06.16-2.08.08a143.81 143.81 0 01-17-.23 138.64 138.64 0 01-18.26-2.55 148.09 148.09 0 01-17.25-4.62 233.22 233.22 0 01-31.54-12.92 135.3 135.3 0 01-28.42-19c-3.42-3-8.48-6.94-13.37-11.06s-9.63-8.34-12.69-11.36c-4.62-3.55-6.48-3.66-7.36-2.72s-.57 2.88-.46 3.16c1.22 3.9 3.32 6.55 6.28 9.64s6.82 6.62 12.09 12.2c-3.65-3.73-1.8-2.94 1.7-.27a99.14 99.14 0 0112.21 10.8 49 49 0 008.87 7.77 99.16 99.16 0 0011.36 6.72c8.13 4.13 17 7.63 25.13 11.09a129.26 129.26 0 0013.69 4.62 137.45 137.45 0 0039.92 6.73 167.34 167.34 0 0020.44-.8 191.86 191.86 0 0020.93-3.18 53.41 53.41 0 005.41-1.4 61 61 0 005-1.69l4.73-1.83 4.49-1.93c2.21-.77 4.47-1.59 6.67-2.3s4.28-1.44 6-2.18c1.37-.58 2.71-1.13 4-1.75s2.46-1.24 3.63-1.86c2.36-1.2 4.5-2.53 6.59-3.82-2.4 1.32-4.46 2.5-6.66 3.59s-4.42 2.31-7.24 3.52c-1.88.82-1.34.26 0-.66.65-.46 1.49-1 2.32-1.53s1.6-1.05 2.18-1.39c1-.68 3.05-.47 4-1.15a58.48 58.48 0 006.39-4c.92-.71 1.25.2 1.71-.16 3.11-2 5-4.38 7.12-5.32l4.44-2.16a26.36 26.36 0 002.59-1.51l1.54-1.28a2 2 0 01-1.3-.37c.83-.48 2.08-1 2.92-1.51-.84.47-2.09 1-2.92 1.51a2 2 0 001.3.37c1.85-1.56 3.9-3.13 5.9-4.84l6-5.06h-.11a38.14 38.14 0 01-7.7 4.69c1.22-.59 1.24-.27 0 .65l-1.25.23c2.08-1.67 4.06-3.46 6.53-4.32l1.21-1.23a1 1 0 011.2 0l1.37-1.11a29.57 29.57 0 00-2.87 1.2z" class="cls-6"/><path d="M334.65 431.92l1.22-.76c-1.7.91-3.46 1.69-5.19 2.54 1.12-.05 2.54-.91 3.97-1.78z" class="cls-6"/></g></svg>