<svg xmlns="http://www.w3.org/2000/svg" id="Layer_1" viewBox="0 0 841.89 841.89"><defs/><defs><style>.cls-2{opacity:.85}.cls-3{fill:#211f1e}.cls-4{fill:#040505}</style></defs><path fill="#deab90" d="M0 0h841.89v841.89H0z"/><g class="cls-2"><path d="M118.3 367.2l.48 3.88a15 15 0 01.07-2 3.82 3.82 0 00-.55-1.88zM119.22 374.67c0 .23 0 .46.08.68l.17.58-.25-1.26zM120.51 381.35c-.15-1.2-.37-2.33-.61-3.41a21.18 21.18 0 00.61 3.41zM119.88 376c-.09.44-.21.66-.41 0 .13.66.27 1.32.43 2a11 11 0 01-.02-2zM119.88 376c.08-.42.12-1.07.17-1.3a10.87 10.87 0 00-.17 1.3zM123.48 377.15c.22.65-.75.64-.32 1.93.78 3.08 1.65 5.67 2.14 8.58.41 1.29-.18 3.56.28 4.84.89 3.06 3.72 10.68 2.74 6-.77-3.48-1.44-6.35-2.1-9.13s-1.15-5.51-1.78-8.65l-.93-3.79c-.31-1.25-.56-2.51-.85-3.77-.55-2.53-1.1-5.07-1.63-7.7a36 36 0 01-.43-4.29c0 1.85.14 3.73.29 5.82.11 2.81 1.76 5.94 2.59 10.16zM116 338.55l.49 2a30.91 30.91 0 00.63 9.36l.36-1.44c-.2-1.81-.49-2-.56-.37a57.54 57.54 0 00-.33-10.78c-.28.24-.59.22-.59 1.23zM116.3 335.23l.25 2.09.08-.08-.31-2.08z" class="cls-3"/><path d="M123.93 395.37c.47 2.21.85 4.4 1.36 6.53l1.48 6.34.72 3.12.81 3.07q.81 3 1.6 6.06a4.4 4.4 0 01.83 1.78 12.53 12.53 0 00.26 2l1.06 3.48.46 1.19c.31.62.39.38.39-.07a12.38 12.38 0 010-1.31c0 .24.06.88 0 1.31a14.09 14.09 0 00.34 1.95c.42 1 .87 2.09 1.22 3.23a20 20 0 01-1.22-3.23l-.75-1.91-.26-.53c.75 2.66 1.72 5.25 2.62 7.85l.68 1.6c.77 1.85 1.7 3.61 1.75 4.93l.56 1.38v-.3l.14.55c.78 1.93 1.53 3.89 2.46 5.78.76 1.14 1.57 2.3 2.31 3.49l.19 1.49a9.79 9.79 0 011.55 1.82c-.3-1.12-.53-2.15-.75-3.11-.19-1.47-2.24-2.39-2.15-4.27-.09 1.88 2 2.8 2.15 4.27.22 1 .45 2 .75 3.11a26.46 26.46 0 012.88 6 14.83 14.83 0 01-2.88-6 9.79 9.79 0 00-1.55-1.82l-.19-1.49c-.74-1.19-1.55-2.35-2.31-3.49l2.62 5.62 3 5.56a99.56 99.56 0 0011.5 16.65 77.55 77.55 0 0014.89 13.47 68.47 68.47 0 0018.38 8.79 74.91 74.91 0 0020.85 3.14 103.15 103.15 0 0022.83-2.4 155.54 155.54 0 0040.89-15.1 256.6 256.6 0 0018-10.66c11.71-7.52 23-15.67 35-24.13A183.71 183.71 0 00345 437.2a389.42 389.42 0 0015.19-15c4.52-5.77 4.63-8.11 3.61-8.84s-3.22 0-3.54.19c-4.29 2-7.3 4.48-11 7.88a151.08 151.08 0 01-15.54 12.84c4.89-3.63 3.62-1.71-.17 1.86s-10.22 8.63-15.43 11.29c-7.57 3.81-15.56 9.74-24.08 15.78s-17.57 12.18-26.7 16.45c-4.58 2.05-9.27 4.6-14.82 6.77a166.62 166.62 0 01-21.65 6.49 91.36 91.36 0 01-21.67 2.36 62.6 62.6 0 01-21.2-4 59 59 0 01-19-11.85 118.27 118.27 0 01-15.7-16.68c-.74-1.09-1.49-2.2-2.17-3.36s-1.26-2.37-1.86-3.54-1.2-2.28-1.7-3.39-1-2.18-1.46-3.15c-.73-1.54-1.54-3-2.18-4.43s-1.32-2.85-2-4.22c-1.37-2.7-2.46-5.39-3.66-8 1.19 2.93 2.17 5.49 3.43 8s2.36 5.21 4 8.28c1.05 2.08.42 1.49-.68 0-.55-.72-1.22-1.67-1.85-2.6s-1.13-1.9-1.5-2.59c-.72-1.15-.56-3.49-1.28-4.63-1.09-2.68-2.36-5.06-3.72-7.9-.66-1.19.29-1.35 0-1.95-1.49-4-3.73-6.75-4.23-9.47l-1.11-5.69a46.29 46.29 0 00-.88-3.41l-.77-2.22a2.21 2.21 0 01-.74 1.28c-.21-1.12-.37-2.73-.58-3.85.21 1.12.37 2.73.58 3.85a2.21 2.21 0 00.74-1.28 374.6 374.6 0 01-2.83-8.55l-2.48-9-.07.1a63 63 0 011.57 10.64c-.16-1.6.15-1.47.62.29 0 .49-.09 1-.14 1.47a26.7 26.7 0 01-1.79-9.19l-.71-1.93c-.07-1 .24-1 .45-1.28l-.49-2.05a59.62 59.62 0 00.12 6.4z" class="cls-3"/><path d="M133.26 430.88l-.6-1.61c.62 2.23 1.47 4.38 2.21 6.59.01-1.32-.81-3.14-1.61-4.98z" class="cls-3"/></g><g class="cls-2"><path d="M720.75 366.33l-.61 4.09a15.18 15.18 0 01.63-2 4.35 4.35 0 00-.02-2.09zM719.58 374.2c0 .24-.08.49-.11.72v.63l.11-1.35zM718.71 381.34c.27-1.25.43-2.45.57-3.62a23.18 23.18 0 00-.57 3.62zM719.86 375.71c-.21.42-.38.61-.39-.12-.05.72-.1 1.43-.19 2.17.19-.76.38-1.47.58-2.05zM719.86 375.71c.19-.4.41-1 .52-1.27a10.41 10.41 0 00-.52 1.27zM722.94 378c0 .74-.93.42-1 1.88-.29 3.39-.34 6.33-.86 9.46 0 1.47-1.55 3.51-1.6 5-.4 3.38-.84 12.19.11 7.14.68-3.8 1.21-7 1.71-10s.8-6 1.29-9.44l.39-4.18c.12-1.38.18-2.76.27-4.15.17-2.77.35-5.55.56-8.42.19-1.59.43-3.07.65-4.57-.34 2-.76 3.93-1.21 6.13-.63 2.87.14 6.56-.31 11.15zM724.42 336.09l.14 2.17a34.36 34.36 0 00-1 9.92l.6-1.45c.11-1.93-.14-2.18-.49-.49a64.93 64.93 0 001.53-11.36c-.26.22-.56.12-.78 1.21zM725.32 332.65c0 .75-.07 1.5-.1 2.23l.08-.07c0-.75 0-1.5.05-2.24zM716.86 396.52c-.48 2.35-.87 4.68-1.41 7s-1.07 4.51-1.6 6.72l-.8 3.31-.9 3.24-1.83 6.39a4 4 0 01-.29 2.07 13.76 13.76 0 00-1 1.87l-1.22 3.64-.34 1.32c-.11.73.09.57.36.19a12.91 12.91 0 01.74-1.18c-.15.21-.48.81-.74 1.18a15.92 15.92 0 00-.89 1.88 32.62 32.62 0 01-1.22 3.46 28.28 28.28 0 011.22-3.46l.54-2.1c0-.21.07-.41.11-.63-.88 2.8-2 5.5-3 8.22l-.57 1.75a13.45 13.45 0 01-2.25 5.05l-.64 1.43.2-.25-.32.51c-.89 2-1.76 4-2.81 6-.47 1.36-.91 2.79-1.44 4.18l-1.08 1.11a7.62 7.62 0 01-.76 2.39 27.61 27.61 0 002.26-2.54c1.09-1.14.6-3.43 2.19-4.61-1.59 1.18-1.1 3.47-2.19 4.61a27.61 27.61 0 01-2.26 2.54 23.33 23.33 0 01-3.87 5.82 19 19 0 013.87-5.82 7.62 7.62 0 00.76-2.39l1.08-1.11c.53-1.39 1-2.82 1.44-4.18l-3 5.79-3.34 5.69a114.61 114.61 0 01-12.53 16.85 81.71 81.71 0 01-15.45 13.47 68.39 68.39 0 01-18.67 8.56 71.67 71.67 0 01-21.07 2.67 96.47 96.47 0 01-23-3.43 137.48 137.48 0 01-21.32-7.78c-6.8-3.1-13.31-6.43-19.63-10s-12.47-7.28-18.47-11.27A233 233 0 01507.41 447c-4.21-4.05-10.42-9.58-16.52-15.18s-12.06-11.25-16-15.22c-5.81-4.81-8-5.2-8.83-4.22s-.17 3.28 0 3.61c2 4.62 4.63 7.9 8.34 11.85s8.48 8.58 14.95 15.77c-4.47-4.83-2.3-3.61 1.94 0A147.22 147.22 0 01506 458.06c5.79 7.1 14.38 13.95 23.94 20.33s20.09 12.25 29.79 17.88c1.22.7 2.49 1.36 3.78 2s2.62 1.35 4 2l4.24 2 4.54 1.94a128.11 128.11 0 0024.71 8.43 96.92 96.92 0 0026.17 2.54 79.47 79.47 0 0026.42-5.67 81.74 81.74 0 0023.69-14.89A34.46 34.46 0 00680 492l2.48-2.64c1.56-1.78 2.9-3.65 4.27-5.43a30.29 30.29 0 001.88-2.74l1.75-2.74c1.2-1.77 2.18-3.63 3.19-5.43.78-1.29 1.63-2.56 2.44-3.85s1.56-2.61 2.31-3.89 1.56-2.49 2.21-3.7 1.24-2.39 1.78-3.48c.81-1.73 1.68-3.37 2.32-5s1.29-3.27 1.89-4.85c1.26-3.14 2.09-6.24 3-9.23-1.14 3.29-2 6.19-3.2 9.1s-2.24 6-4 9.5c-1.12 2.36-1 1.4-.44-.54.28-1 .67-2.18 1.07-3.35s.69-2.35 1-3.16c.38-1.43 2.26-3.14 2.64-4.59a89.13 89.13 0 002.7-9.18c.3-1.44 1.17-1 1.29-1.7 1.2-4.52 1.17-8.28 2.24-11.05.75-2.12 1.42-4 2.08-5.92.38-1.19.76-2.38 1.07-3.67l.35-2.51a2.2 2.2 0 01-1.25.87c.33-1.18.93-2.81 1.26-4-.33 1.17-.93 2.8-1.26 4a2.2 2.2 0 001.25-.87c.42-3 .92-6.29 1.42-9.59s.86-6.67 1.28-9.91l-.1.07a59.4 59.4 0 01-2.92 11.1c.6-1.62.81-1.36.42.55l-.81 1.35c.56-3.35.88-6.73 2.21-9.73l.1-2.19c.34-1 .63-.92.93-1.1l.36-2.22a71.93 71.93 0 00-2.35 6.24z" class="cls-3"/><path d="M706.92 434.21l.48-1.77-.59 1.75-.66 1.71-1.34 3.44c.89-1.06 1.51-3.09 2.11-5.13z" class="cls-3"/></g><g class="cls-2"><path d="M628.49 443.64l-1-.32a2.25 2.25 0 01.46.24 1.14 1.14 0 00.54.08zM626.64 443.07H626.31zM624.91 442.83c.3.05.6.08.88.1a5.1 5.1 0 00-.88-.1zM626.27 443.11c-.1-.06-.15-.11 0-.09l-.52-.09zM626.27 443.11l.29.16a2.52 2.52 0 00-.29-.16zM625.69 443.85c-.17 0-.09-.23-.43-.22h-2.17a9.25 9.25 0 00-1.18-.12 6.67 6.67 0 00-1.48.4c-.42.15-.6.26 0 .16a14.67 14.67 0 014.39-.26 15.1 15.1 0 013.77.63c.34.14.65.3 1 .45-.4-.2-.8-.46-1.28-.65a4.39 4.39 0 00-1.12-.26 12.9 12.9 0 01-1.5-.13zM634.52 447.75l-.42-.32a3.27 3.27 0 00-.8-.86 5.24 5.24 0 00-1-.69l.22.3c.38.26.45.26.17-.05.64.72 1.29 1.3 1.91 2 .01-.13.07-.13-.08-.38z" class="cls-3"/><path d="M635 448.46l-.39-.37.39.36z" class="cls-3"/><path d="M621.24 443a15.91 15.91 0 00-6.17 2.05 1.11 1.11 0 01-.38.32 3.85 3.85 0 00-.47.19c-.26.16-.49.37-.74.55l-.25.21c-.12.12-.06.12 0 .08l.3-.13-.3.13a3.52 3.52 0 00-.43.26c-.2.2-.4.41-.63.61a5 5 0 01.63-.61l.38-.35.11-.11a14.93 14.93 0 00-1.59 1.39 2.59 2.59 0 00-.28.33 4.05 4.05 0 01-.9 1l-.22.31.06-.05-.1.1a12.74 12.74 0 00-.88 1.33l-.39 1-.24.28a2.68 2.68 0 01-.12.59c.17-.24.35-.44.48-.64s.16-.81.55-1.07c-.39.26-.3.8-.55 1.07s-.31.4-.48.64A11.44 11.44 0 01608 454a3 3 0 01.66-1.55 2.68 2.68 0 00.12-.59l.24-.28.39-1a14.45 14.45 0 00-1.34 2.9 15.91 15.91 0 00-.05 10.09 17.05 17.05 0 0017.13 11.52 15.57 15.57 0 0010-4.56 18.12 18.12 0 005.1-10 14.66 14.66 0 00-.32-5.86 16.25 16.25 0 00-2.38-5.28 4.63 4.63 0 00-1.46-1.33c-.34-.18-.53-.15-.63 0s-.1.82-.08.9c.18.57.39 1.05.59 1.56s.48 1 .72 1.55a11.41 11.41 0 011.17 4.72c-.12-1.46.13-1 .36.28a9.31 9.31 0 01-.5 4.58 28.34 28.34 0 01-3.17 5.95 12.59 12.59 0 01-5.81 4.38 14.24 14.24 0 01-13.87-2.08 14.33 14.33 0 01-5.65-9.23 17.86 17.86 0 01-.15-5.62 12 12 0 011.36-3.43 22.52 22.52 0 011.18-2c.46-.57.84-1.17 1.32-1.66a13.38 13.38 0 00-2.49 3.53c-.26.49-.24.29-.11-.13.07-.21.16-.49.26-.74s.24-.48.34-.65.64-.57.82-.83.42-.55.63-.84l.7-.83c.2-.26.32-.07.43-.19a9.17 9.17 0 001-1 4.12 4.12 0 01.89-.69 11 11 0 011.3-.57c.26-.11.51-.23.79-.33l.52-.25a.57.57 0 01-.34-.15c.28-.08.66-.19.93-.25-.27.06-.65.17-.93.25a.57.57 0 00.34.15 12.87 12.87 0 014.33-1.23c-.89.06-1.74.17-2.68.21.4 0 .36 0-.08.15h-.36a4.69 4.69 0 011.15-.32 3.55 3.55 0 011.17-.06l.5-.11c.26 0 .25.09.3.15s.35 0 .53 0a10.46 10.46 0 00-1.63-.23z" class="cls-3"/><path d="M612.83 446.68l.33-.28a13.3 13.3 0 00-1.32 1.17 4 4 0 00.99-.89z" class="cls-3"/></g><circle cx="623.33" cy="458.96" r="7.16" class="cls-4"/><g class="cls-2"><path d="M617.39 455.58l.24-.36a.85.85 0 01-.19.14c-.07.07-.05.14-.05.22zM617.87 454.91l.04-.06.02-.07-.06.13zM618.29 454.29a3.47 3.47 0 00-.25.29.81.81 0 00.25-.29zM617.86 454.71c.06 0 .1 0 .08.07l.11-.2a.68.68 0 01-.19.13zM617.86 454.71a.77.77 0 01-.15.06zM617.32 454c0-.08.21.09.28-.07a3.52 3.52 0 01.65-.9c.09-.16.48-.1.57-.24.25-.3 1-1.09.48-.77a7.33 7.33 0 00-1.73 1.57 8.79 8.79 0 00-.9 1.75 3.5 3.5 0 01-.25.47 7 7 0 01.42-.58c.22-.23.16-.74.48-1.23zM616.37 458.58l-.07-.24a2 2 0 00.21-1l-.15.13c0 .21 0 .24.11.07a2.27 2.27 0 00-.28 1.21c.07-.07.14-.06.18-.17zM616.2 459v-.24.25z" class="cls-3"/><path d="M619.37 453.07a6.6 6.6 0 012.72-1.06c.07-.06.11-.12.21-.11l.23.06a2.88 2.88 0 01.41 0h.15c.08 0 0-.07 0-.1l-.15-.08.15.08a.77.77 0 00.23.06 1.7 1.7 0 01.39 0 1.24 1.24 0 01-.39 0H623.02a7.15 7.15 0 01.93.05h.2c.23 0 .46 0 .57.14l.16.05a5.11 5.11 0 01.66.22h.49l.1.18a.45.45 0 01.28 0 1.85 1.85 0 00-.24-.34c-.1-.18-.42.09-.52-.19.1.28.42 0 .52.19a1.85 1.85 0 01.24.34 1 1 0 01.59.46 1 1 0 01-.59-.46.45.45 0 00-.28 0l-.1-.18h-.49a6.49 6.49 0 011.23.63 7.27 7.27 0 012.73 3.3 6.52 6.52 0 01.2 4.28 6.06 6.06 0 01-2.82 3.53 7 7 0 01-4 .94 4.61 4.61 0 01-3.47-1.92 11.92 11.92 0 01-1.09-1.62 5.72 5.72 0 01-.63-1.8c-.27-.62-.61-.81-.93-.79a.88.88 0 00-.6.29 1.87 1.87 0 00-.34 1.67 14.75 14.75 0 00.75 2.48c-.28-.76 0-.56.37 0s1 1.32 1.43 2a4.64 4.64 0 003.36 2 11 11 0 004.35-.37 7 7 0 002.07-1 7.7 7.7 0 003.61-5.25 9.08 9.08 0 00-1.24-6.4 6.3 6.3 0 00-2.49-2.11 10.45 10.45 0 00-1.82-1 5.18 5.18 0 00-2.46-.32 7.05 7.05 0 012.39.34c.59.21-.52.11-.92.11-.17 0-.39-.32-.57-.28a3.4 3.4 0 00-1.14.06c-.18.05-.15-.2-.24-.17-.57.07-.95.42-1.29.42a5.58 5.58 0 00-.73.05 1.69 1.69 0 00-.44.12l-.26.16a.43.43 0 01.21.19c-.13 0-.34.05-.47.09.13 0 .34-.05.47-.09a.43.43 0 00-.21-.19 8.85 8.85 0 00-1.77 1.41 2.37 2.37 0 011.14-.57c-.19 0-.2 0 0-.14h.2a2.29 2.29 0 01-1 .52l-.14.2c-.12.05-.16 0-.22-.05l-.18.17a4.49 4.49 0 00.79-.2z" class="cls-3"/><path d="M623.33 451.88h-.2a6.83 6.83 0 01.79.06c-.13-.11-.36-.09-.59-.06z" class="cls-3"/></g><g class="cls-2"><path d="M204.67 443.15l.86-.27a3.4 3.4 0 01-.46.06.85.85 0 00-.4.21zM206.34 442.69H206.63zM207.88 442.35a6.7 6.7 0 00-.8.11 4.46 4.46 0 00.8-.11zM206.63 442.5c.1 0 .15 0 0 .1l.45-.14a2.5 2.5 0 01-.45.04zM206.63 442.5h-.31zM206.87 441.58c.16-.07.16.18.48.09l1.08-.26c.36 0 .71-.08 1.08-.09s.85.23 1.18.2 1.09 0 1.56 0 .69-.05.09-.14a14.26 14.26 0 00-4.57 0 16.37 16.37 0 00-3.66 1.21c-.33.16-.65.28-1 .41.44-.14.86-.33 1.35-.45a3.94 3.94 0 001-.45 9.41 9.41 0 011.41-.52zM199 446.66l.27-.4a9.43 9.43 0 00.88-.64c.28-.25.54-.52.84-.74l-.35.09c-.33.27-.32.36 0 .16a7.16 7.16 0 00-2 1.61c.16.01.21.07.36-.08z" class="cls-3"/><path d="M198.39 447.11l.33-.37-.32.38zM211.24 442.1a13.75 13.75 0 015.72 1.95.93.93 0 01.43.18 2.5 2.5 0 00.34.31 6.78 6.78 0 01.67.53l.25.17c.14.08.13 0 .07-.07a3 3 0 01-.18-.25l.18.25a3.26 3.26 0 00.32.34 7.68 7.68 0 01.6.56 5.66 5.66 0 01-.6-.56l-.4-.27-.12-.07a13.62 13.62 0 011.42 1.32 4 4 0 01.29.29 3 3 0 01.74 1l.19.29V448l.06.12a11.25 11.25 0 01.76 1.25c.19.25.39.51.58.79v.35a2.12 2.12 0 01.32.46c0-.27-.06-.53-.1-.76s-.57-.55-.55-1c0 .46.52.64.55 1s.06.49.1.76a3.75 3.75 0 01.4 1.5 4.8 4.8 0 01-.4-1.5 2.12 2.12 0 00-.32-.46v-.35c-.19-.28-.39-.54-.58-.79a13.14 13.14 0 011.1 2.67 14.83 14.83 0 01-.2 9 14.48 14.48 0 01-5.59 7.24 13.65 13.65 0 01-9.56 2.21 14.15 14.15 0 01-8.14-4 12.69 12.69 0 01-2.53-3.76 11.28 11.28 0 01-.91-4.5 17.46 17.46 0 01.46-4.52 13.22 13.22 0 011.75-4.12c.7-1.37.74-1.88.46-2.07s-.76 0-.83.06a4.37 4.37 0 00-1.27 1 6.62 6.62 0 00-1 1.41 20.43 20.43 0 00-1.82 4.7c.43-1.49.44-.89.27.38s-.19 3.3-.19 4.78a11 11 0 002.63 6.94 17.56 17.56 0 006.64 4.89 14.5 14.5 0 004.22 1.07 15.39 15.39 0 0011.53-3.2 17.11 17.11 0 006.24-10.55 13.64 13.64 0 00-.55-6.17 17.23 17.23 0 00-1.33-3.78A13.42 13.42 0 00222 447a15.23 15.23 0 00-1.62-1.6 13.94 13.94 0 012.91 3.62c.57 1.08-.62-.64-1.17-1.21-.23-.25-.32-.84-.6-1.06a7.13 7.13 0 00-.76-.79l-.89-.7c-.28-.19-.08-.35-.23-.44a10.44 10.44 0 00-1.26-.74 4.61 4.61 0 01-1-.53 13.43 13.43 0 00-1.22-.77 3.73 3.73 0 00-.81-.37l-.57-.15a.46.46 0 01.16.33c-.26-.1-.6-.32-.87-.39.27.07.61.29.87.39a.46.46 0 00-.16-.33 16 16 0 00-4.45-.5 7.18 7.18 0 012.53.48c-.36-.13-.3-.21.13-.11l.3.2c-.38-.07-.75-.12-1.12-.16a7.75 7.75 0 01-1.08-.27l-.49.05c-.24 0-.23-.12-.27-.19a4.34 4.34 0 00-.51 0c.33.1 1.42.34 1.42.34z" class="cls-3"/><path d="M219.06 445.53l-.33-.24a11.43 11.43 0 011.18 1.13 3.15 3.15 0 00-.85-.89z" class="cls-3"/></g><circle cx="209.3" cy="456.94" r="6.73" class="cls-4"/><g class="cls-2"><path d="M215.43 453.45l-.22-.38a.59.59 0 010 .23c.07.1.15.11.22.15zM214.99 452.73l-.05-.07-.06-.04.11.11zM214.45 452.17a1.44 1.44 0 00.27.28 1.17 1.17 0 00-.27-.28z" class="cls-3"/><path d="M214.8 452.67c0-.06 0-.1.08-.05l-.16-.17a1.19 1.19 0 01.08.22zM214.8 452.67v.17a1 1 0 000-.17zM214 453.06c-.07 0 .13-.18 0-.25s-.53-.3-.75-.49-.14-.38-.28-.43c-.3-.16-1.14-.25-.74 0a10.28 10.28 0 012.62 2.07 2.37 2.37 0 01.17.41 3.81 3.81 0 00-.18-.58c-.06-.32-.51-.44-.84-.73zM216.2 456.57l-.09-.22a1.29 1.29 0 00-.14-1l-.07.18c0 .19.12.2.14 0a4.83 4.83 0 000 1.2c.05-.05.13-.05.16-.16z" class="cls-3"/><path d="M216.06 456.93v-.22c0 .08 0 .16.05.23z" class="cls-3"/><path d="M213.09 451.29a7.47 7.47 0 00-2.6-1.07c-.08 0-.13.08-.22 0a1.06 1.06 0 00-.2-.12h-.54c-.08 0-.06.07 0 .1l.13.1-.13-.1a1.13 1.13 0 00-.22-.08 1.5 1.5 0 01-.37 0 1.25 1.25 0 01.37 0H209.6h-.91a.53.53 0 00-.19 0c-.22.06-.42.13-.58 0h-.16a5.2 5.2 0 00-.68.17c-.13.09-.26.2-.39.28h-.19a.52.52 0 01-.18.22h.39c.18 0 .23-.34.47-.19-.24-.15-.29.24-.47.19h-.39a1.5 1.5 0 01-.69.25.73.73 0 01.69-.25.52.52 0 00.18-.22h.19c.13-.08.26-.19.39-.28a6.53 6.53 0 00-1.3.52 7.08 7.08 0 00-3.47 7.89 7.9 7.9 0 002.72 4.41 7.06 7.06 0 004.84 1.48 9.88 9.88 0 005-1.74 6 6 0 001.81-2.15 7.74 7.74 0 00.8-2.68c-.09-1-.49-1.17-.79-1.15a1.24 1.24 0 00-.63.27 3.24 3.24 0 00-.78 1.29 3.55 3.55 0 01-1.07 1.65c.42-.42.44-.17.18.29a2.39 2.39 0 01-1.52 1.09 22 22 0 00-2.54.64 4.12 4.12 0 01-2.73-.15 8.85 8.85 0 01-1.27-.68 6.45 6.45 0 01-2.11-3.3 4.93 4.93 0 01.63-4 9.75 9.75 0 011.23-1.79 4.08 4.08 0 011.3-.6 14.22 14.22 0 011.65-.53 5.49 5.49 0 00-1.63.47c-.41.18.17-.41.48-.53.11-.09.37.12.48.06.28-.06.52-.18.83-.26.14-.06.12.18.19.15.4 0 .76-.32 1-.2a3.82 3.82 0 01.54.24l.33.11h.24a.5.5 0 010-.27 4.05 4.05 0 01.35.21 4.05 4.05 0 00-.35-.21.5.5 0 000 .27 5 5 0 011.8.59 4.61 4.61 0 01-.88-.74c.13.12.08.17-.1.1l-.08-.17a1.21 1.21 0 01.85.53l.22.07c.06.09 0 .14 0 .21l.19.12a2.67 2.67 0 00-.4-.51z" class="cls-3"/><path d="M209.29 450.13h.19a6.37 6.37 0 00-.76 0 .73.73 0 00.57 0z" class="cls-3"/></g></svg>