<svg xmlns="http://www.w3.org/2000/svg" id="Layer_1" x="0" y="0" version="1.1" viewBox="0 0 842 842" xml:space="preserve"><defs/><style>.st1{opacity:.85}.st2{fill:#090a0a}.st3{fill:#131413}</style><path fill="#d0b8ab" d="M0 0h842v842H0z"/><g class="st1"><path d="M548 466l1 1-1-1zM549 467h1-1zM551 467h-1 1zM550 467zM550 467l-1-1 1 1zM551 464v1h3c1 0 3 0 2-1h-9l1 1 3-1zM541 464l3 1-1-1-2-1v1zM540 463h1-1zM555 467h3l3 1h3l-1-1 1 1h0-1 5-1 3l1 1v-1h-1-1 2l2 1-2-1v1l-1-1-1 1h35l21-2 11-1 2-4-1-1c-3-2-4-1-9-1 3 0-2 2-5 1-5-2-10 1-16 1h-4l-23 2-6 1-4-1-5 1h5l-2 1-1-1-3 1v-1l-3 1-1-1h-2l1 1-1-1-2 1h-2l2 1 1-1v1l-2-1h-2l2 1zM564 468h2-2z" class="st2"/></g><g class="st1"><path d="M293 461l-1 1h1v-1zM291 462zM290 462h1-1zM291 462zM291 462h1-1zM291 465v-1l-3 1h-1l-1 1 4-1 2-1 2-1h0l-3 2zM300 460l-2 1v-1h2zM301 460zM286 464h-6-2v1l-1-1-1 1 1-1h1-3-3l-1 1v-1l-1 1h0l-2-1 2 1 1-1v1l1-1h-3l-20-1-11-2c-7-2-14-2-21-5l-10-2c-4 0-3 4-3 4 2 3 4 2 8 4-3-1 3-1 5 1 4 4 11 2 16 4h4c8 2 16 2 24 2l6-1 4 1 5-1h-4c-2 0 0-1 1-1l1 1 3-1 3-1h3l-1-1h0l1 1 2-1 2-1h-2v1l-1-1h2z" class="st2"/><path d="M277 465l1-1h-2l1 1z" class="st2"/></g><g class="st1"><path d="M375 427l-4 2 2-1 2-1zM368 432h-1 1zM363 436l3-2-3 2zM368 433l-1-1-1 2 2-1zM368 433l1-1-1 1zM368 437h-2l-7 6-4 2c-3 2-9 8-5 6l15-12 13-11 3-2-5 3-8 8zM399 410l-1 2-8 5h1c2-1 2-2 0-1l10-6h-2zM402 409l-2 1h1l1-1z" class="st3"/><path d="M351 445a1199 1199 0 01-23 17l-2 1-3 2-1 1h2-2l-2 1-2 2 3-2 1-1 1-1-4 3-4 2-1 1-3 1-2 1-1 1h-1l-3 1-3 1-3 2h-2l-2 2 3-1 5-2-5 2a202 202 0 01-6 2h-4l4-1 3-1 2-1h2l3-2-6 2-3 1-3 1a124 124 0 01-80-6c-13-7-25-16-35-27l-4-4-4-4-7-8-15-16-28-32-30-33c-11-9-9-1-9 0 4 9 10 13 22 28-8-10 8 5 14 15 9 15 28 31 42 48l6 6 3 3 1 2 2 1c12 13 26 23 42 29s33 10 51 9c10 0 18-2 26-4l8-3 8-2 18-10-5 3-4 2-4 2-2 1-3 1c-5 2 3-2 6-4l5-1 4-3 4-3h2l5-4 3-3 5-3 3-2 2-2h-1l3-2-3 2h1l15-12-10 6c2-1 2-1 0 0l-1 1 8-6 1-1h1l2-2-6 3z" class="st3"/><path d="M320 467l2-1-6 4 2-1 2-2z" class="st3"/></g><g class="st1"><path d="M466 437l3 2-2-1-1-1zM472 442h1-1zM478 446l-3-2 3 2zM473 442c1 0 1 1 0 0l2 1-2-1zM473 442l-1-1 1 1zM477 440l1 2 8 5 3 3c3 2 11 6 7 3l-16-11-14-8-3-3 4 4 10 5zM442 419l2 1 8 6-1-1h-1l-9-7 1 1zM440 417l1 1-1-1z" class="st3"/><path d="M490 454a1407 1407 0 0125 18l3 2h2l-1-1 1 1 1 1 3 2-3-2-2-1 3 3 4 2 2 1 2 1 2 1 2 1 3 1 3 2 4 1 1 1h3l-3-2c-1-1-3 0-5-2 2 2 4 1 5 2l3 2 3 1 3 1-3-1-3-1h-3l-1-1-4-1 6 2 3 1 3 1a117 117 0 0082-5c15-6 28-14 39-25l4-4 4-4 8-8 14-15 31-31c9-8 23-23 30-32 9-11 1-9 0-8-8 4-12 10-26 23 9-9-5 8-15 15-14 10-29 30-44 45l-6 6-3 3-2 2-1 1a140 140 0 01-38 26 115 115 0 01-47 9l-24-2-8-2-7-3-17-7 4 2 4 2 4 2h2l3 1c4 2-4 0-7-1l-4-2-4-2-4-2-1-2-6-2-4-3-4-4-3-2-2-1v2l-3-3 3 3v-2l-17-10 9 7h1l1 1-8-5-2-1-1-2-2-1 5 5z" class="st3"/><path d="M521 476l-1-1 6 3-2-1-3-1z" class="st3"/></g></svg>