<svg xmlns="http://www.w3.org/2000/svg" id="Layer_1" viewBox="0 0 842 842"><defs/><defs><style>.cls-2{opacity:.85}.cls-3{fill:#020202}.cls-4{fill:#040505}.cls-5{fill:#090a0a}.cls-6{fill:#060707}</style></defs><path fill="#eaccca" d="M0 0h842v842H0z"/><g class="cls-2"><path d="M599 385h0zM601 385zM603 385a4 4 0 00-1 0 3 3 0 001 0zM602 385zM602 385h-1zM602 383v1a9 9 0 013-1l1 1h2s1 0 0 0h-1l-1-1a9 9 0 00-2 0 12 12 0 00-1 0 15 15 0 00-5 1h-1a11 11 0 012 0 4 4 0 001 0 6 6 0 012-1zM593 389a5 5 0 001-1l1-1c-1 0-1 1 0 0a7 7 0 00-1 1 6 6 0 00-1 1s0 1 0 0zM592 390l1-1-1 1z" class="cls-3"/><path d="M607 385a17 17 0 016 4 4 4 0 001 0v1h1a3 3 0 01-1 0h1a3 3 0 000 1l-1-1 2 2 1 2a11 11 0 011 1 6 6 0 010 1v1a1 1 0 011 0 8 8 0 000-1l-1-1 1 1a8 8 0 010 1 3 3 0 010 2 3 3 0 010-2 1 1 0 00-1 0v-1a6 6 0 000-1 10 10 0 010 2 12 12 0 011 1 16 16 0 01-1 11l-6 8a10 10 0 01-6 2 13 13 0 01-5-1 29 29 0 01-5-3h-1l-1-1a6 6 0 01-1-1 6 6 0 010-1 10 10 0 01-2-4 12 12 0 01-1-3 13 13 0 011-2 42 42 0 011-5 25 25 0 012-5l-1-2a2 2 0 00-1-1 5 5 0 00-3 3l-2 5s0-1 0 0a5 5 0 010 1l-1 5c-1 3 0 6 2 9v1l1 1 2 2a45 45 0 004 3 19 19 0 005 2 16 16 0 008 1 14 14 0 007-3 21 21 0 004-6 28 28 0 003-7 15 15 0 000-8 23 23 0 00-2-4 15 15 0 00-3-5 20 20 0 013 5l-1-2-1-1a10 10 0 00-2-2v-1l-2-1a14 14 0 00-2-1 7 7 0 000-1h-1-1 1a20 20 0 00-5-2l1 1a4 4 0 012 1v-1 1a6 6 0 01-2-1h-1v-1h-1l2 1z" class="cls-3"/><path d="M615 391v-1l1 2-1-1z" class="cls-3"/></g><circle cx="604" cy="400" r="8" class="cls-4"/><g class="cls-2"><path d="M611 396v-1a1 1 0 010 1zM611 395zM610 394a3 3 0 001 1 2 2 0 00-1-1zM611 395zM611 395zM610 395l-1-1h-1a11 11 0 013 2 3 3 0 010 1 4 4 0 000-1l-1-1zM612 400v-1a2 2 0 000-1c0 1 0 1 0 0a7 7 0 000 2zM612 400z" class="cls-5"/><path d="M609 393a8 8 0 00-3-1h-2 1-1 1a8 8 0 00-2 0h-1a7 7 0 00-1 0 1 1 0 010 1l1-1-1 1a2 2 0 01-1 0 1 1 0 011 0 1 1 0 000-1 8 8 0 00-1 1 9 9 0 00-4 9 9 9 0 003 5 8 8 0 006 2 11 11 0 006-2 7 7 0 002-3 9 9 0 000-3v-1a1 1 0 00-1 0 4 4 0 00-1 2 5 5 0 01-1 2c0-1 0 0 0 0a3 3 0 01-2 2l-3 1a5 5 0 01-3-1 9 9 0 01-2-1 8 8 0 01-2-4 6 6 0 011-5 11 11 0 011-2 5 5 0 012-1 11 11 0 012 0 6 6 0 00-2 0c-1 1 0 0 0 0h1l1-1v1a2 2 0 001-1 5 5 0 011 1h1a6 6 0 012 1 7 7 0 01-1-1 2 2 0 011 0v1a3 3 0 000-1z" class="cls-5"/><path d="M604 392a7 7 0 00-1 0 1 1 0 001 0z" class="cls-5"/></g><g class="cls-2"><path d="M461 409l3 2a8 8 0 01-1-1 3 3 0 00-2-1zM466 413l1 1zM471 417a24 24 0 00-3-2 15 15 0 003 2zM467 414s1 0 0 0l1 1a9 9 0 01-1-1zM467 414v-1a9 9 0 000 1zM471 412v1l7 4 2 3 6 2-7-4-6-5-11-7-2-2 3 3 8 5zM444 393l1 1a20 20 0 006 5l-1-1c-1-1-1-1 0 0a42 42 0 00-6-7 1 1 0 000 2zM442 390l2 1-2-1z" class="cls-6"/><path d="M481 423l4 3 5 3 9 6a3 3 0 011 0 10 10 0 002 1l2 2h2a9 9 0 01-1-1l1 1a9 9 0 001 1 24 24 0 012 1 16 16 0 01-2-1l-2-1 6 4h1l4 2 1 1 5 2 4 1v1a7 7 0 012 0l-2-2-3-1 3 1 2 2a16 16 0 015 2 11 11 0 01-5-2 7 7 0 00-2 0v-1l-4-1 5 2 5 2a158 158 0 0032 9h2l2 1h4l4 1h5a170 170 0 0017 0 177 177 0 0019-1l18-4a161 161 0 0033-12l32-17a115 115 0 0015-11l13-12c3-5 3-7 2-8h-3c-4 1-6 3-9 6a92 92 0 01-14 10c4-3 3-1 0 2a51 51 0 01-13 8 78 78 0 00-11 5l-11 6-23 11-13 4a221 221 0 01-38 5 149 149 0 01-19 0 126 126 0 01-19-3l-5-1-5-1-5-1-5-1a51 51 0 01-6-2l-5-2-8-3-7-3 7 3 7 3c2 0 1 0 0 0a43 43 0 01-5-1l-4-2-7-3-1-1-8-3-4-3-2-2-2-1a2 2 0 010 2l-2-2 2 2a2 2 0 000-2l-7-3-6-4a41 41 0 017 6v-1l1 1a20 20 0 01-6-4l-2-1a1 1 0 010-1l-2-1a18 18 0 002 2z" class="cls-6"/><path d="M507 439h-1l5 2-4-2z" class="cls-6"/></g><g class="cls-2"><path d="M249 381h-1a2 2 0 011 0zM247 381zM245 381a5 5 0 001 0 4 4 0 00-1 0zM247 381a4 4 0 00-1 0 1 1 0 011 0zM247 381zM246 383v-1l-2 1h-2a6 6 0 00-1 1 15 15 0 014-1 11 11 0 014 0 6 6 0 011 0 8 8 0 00-1 0 2 2 0 00-1 0 8 8 0 01-2 0zM256 386h-1a2 2 0 000-1 4 4 0 00-2-1h1c0 1 0 0 0 0a9 9 0 001 1l1 1zM256 387v-1 1z" class="cls-3"/><path d="M241 382a20 20 0 00-6 4 2 2 0 00-1 0v1h-1 1a2 2 0 00-1 1v-1h1l-2 2a3 3 0 01-1 1v1a12 12 0 00-1 1l-1 1v1h1v-2 2h-1a4 4 0 01-1 2 2 2 0 011-2v-1l1-1a11 11 0 00-1 2 12 12 0 00-1 1 17 17 0 001 11 27 27 0 002 5 18 18 0 004 5 13 13 0 006 2 17 17 0 007 0 21 21 0 006-2l1-1 1-1a20 20 0 003-2 18 18 0 003-6 27 27 0 001-3 32 32 0 000-3 17 17 0 00-1-7 27 27 0 00-2-5l-3-2a2 2 0 00-1 2 8 8 0 001 3 14 14 0 011 5v-1a2 2 0 011 2 8 8 0 010 4l-3 6v1h-1v1l-1 1a16 16 0 01-2 1 11 11 0 01-2 1 25 25 0 01-3 2c-4 0-7 0-10-2a15 15 0 01-3-4 17 17 0 01-3-5 21 21 0 010-6 11 11 0 011-3 44 44 0 012-4 19 19 0 00-2 4v-1a6 6 0 010-1l1-1 1-2h1l1-2a8 8 0 011-1 8 8 0 001-1h1a1 1 0 01-1 0l1-1-1 1a1 1 0 001 0 13 13 0 014-3l-1 1h-1-2a4 4 0 013 0v-1h1a6 6 0 00-2 0z" class="cls-3"/><path d="M233 388a3 3 0 010-1l-1 2 1-1z" class="cls-3"/></g><circle cx="244" cy="397" r="8" class="cls-4"/><g class="cls-2"><path d="M237 393h1a1 1 0 01-1 0zM238 393v-1 1zM238 392zM238 392zM238 392z" class="cls-5"/><path d="M237 392h1a4 4 0 010-1l1-1 1-1a8 8 0 00-2 2 9 9 0 00-1 2 3 3 0 01-1 1l1-1v-1zM236 397v-1a3 3 0 001-1h-1v1a3 3 0 000 1zM236 397z" class="cls-5"/><path d="M240 391a7 7 0 013-2 3 3 0 011 0 7 7 0 011 0 1 1 0 011 0 7 7 0 011 1 1 1 0 011 0 4 4 0 00-1 0v-1 1a4 4 0 011 0 1 1 0 00-1 0 8 8 0 014 9 7 7 0 01-3 4 8 8 0 01-4 1 5 5 0 01-4-2 14 14 0 01-2-2 7 7 0 010-2l-1-1a1 1 0 00-1 0 2 2 0 000 2 16 16 0 001 3c-1-1 0-1 0 0l2 2a5 5 0 003 2 11 11 0 005 0 8 8 0 002-1 9 9 0 004-6 10 10 0 00-1-7 7 7 0 00-3-2 11 11 0 00-2-1 6 6 0 00-2-1 8 8 0 012 1h-1v-1a4 4 0 00-2 0 4 4 0 00-1 1 7 7 0 00-1 0 2 2 0 00-1 0 10 10 0 00-2 2 3 3 0 011-1 3 3 0 01-1 0v1a6 6 0 001 0z" class="cls-5"/><path d="M244 389a9 9 0 011 0 1 1 0 00-1 0z" class="cls-5"/></g><g class="cls-2"><path d="M379 400l-3 3a13 13 0 012-1 3 3 0 001-2zM374 404v1h-1zM370 408a24 24 0 002-2 15 15 0 00-2 2zM373 405c0 1 0 1 0 0l-1 1a10 10 0 011-1z" class="cls-6"/><path d="M373 405h1a8 8 0 00-1 0zM374 409h-1a56 56 0 01-6 6l-3 1c-2 2-7 7-4 5l12-10 10-9 2-2-4 3-6 6zM397 385l-1 1-6 6 1-1c2-1 1-1 0 0a38 38 0 007-6 1 1 0 00-1 0zM399 383l-1 2 1-2zM361 416l-5 3-4 3-9 5a3 3 0 01-2 1 10 10 0 00-1 1l-3 1-1 1a9 9 0 011 0h-1a12 12 0 00-1 1 23 23 0 01-3 1 15 15 0 013-1l1-1h1l-7 3h-1a9 9 0 01-4 2l-1 1-5 2-3 2h-1a5 5 0 01-2 1 24 24 0 003-1l3-1-3 1a24 24 0 01-3 1 16 16 0 01-5 1 11 11 0 015-1 5 5 0 002-1h1l3-2-5 2-5 1a186 186 0 01-32 8h-2l-2 1h-8l-2 1h-2a144 144 0 01-17-1 139 139 0 01-18-2 148 148 0 01-17-5 233 233 0 01-32-13 135 135 0 01-28-19l-14-11-12-11c-5-4-7-4-8-3v3c1 4 3 7 6 10l12 12c-3-4-2-3 2 0a99 99 0 0112 11 49 49 0 009 7 99 99 0 0011 7l25 11a129 129 0 0014 5 137 137 0 0040 7 167 167 0 0020-1 192 192 0 0021-3 53 53 0 006-2l5-1 5-2 4-2 7-3 6-2 4-1c2 0 2-2 3-2l7-4-7 3-7 4c-2 1-1 0 0-1l2-1 3-2 4-1a58 58 0 006-4h2l7-5 4-2a26 26 0 003-2l1-1a2 2 0 01-1-1l3-1-3 1a2 2 0 001 1l6-5 6-5a38 38 0 01-8 5c2-1 2-1 0 0h-1l7-4 1-1a1 1 0 011 0l1-1a30 30 0 00-2 1z" class="cls-6"/><path d="M335 432l1-1-5 3 4-2z" class="cls-6"/></g></svg>