<svg xmlns="http://www.w3.org/2000/svg" id="Layer_1" x="0" y="0" version="1.1" viewBox="0 0 841.9 841.9" xml:space="preserve"><defs/><style>.st1{opacity:.85}.st2{fill:#211f1e}</style><path fill="#feece1" d="M0-.5h841.9v841.9H0z"/><g class="st1"><path d="M558.2 489.3l1.2.9c-.2-.2-.4-.3-.5-.6a.9.9 0 00-.7-.3zM560.6 490.9l.2.1c.1 0 .1 0 .2.1-.1-.1-.2-.2-.4-.2zM563 491.9c-.4-.2-.8-.4-1.2-.5.4.2.8.4 1.2.5zM561.2 490.9c.1.1.2.2-.1.2l.8.3c-.3-.2-.5-.3-.7-.5zM561.2 490.9c-.1-.1-.3-.3-.3-.4.1.2.2.3.3.4zM562.5 489.6c.2.1 0 .5.5.6.5.2 1 .3 1.6.4l1.5.3c.5 0 1.1.8 1.6.7 1.2.1 4-.4 2.4-.5-.6 0-1.2 0-1.7-.1-.5 0-1-.1-1.5-.2l-1.5-.3-1.5-.5c-.5-.1-1-.3-1.4-.4-.5-.2-.9-.3-1.3-.5l-1.3-.6-1.2-.7c-.4-.3-.8-.6-1.2-1l.7.8.8.7c.4.4 1 .6 1.5.8l2 .5zM551.4 480.8l.5.6c.3 1.2 1 2.2 1.9 3 0-.2-.1-.4-.1-.6-.4-.5-.6-.5-.3 0-.6-1.3-1.2-2.5-1.8-3.7-.3.2-.3.5-.2.7z" class="st2"/><path d="M551.1 479.5c.1.2.2.5.4.7-.1-.2-.3-.5-.4-.7z" class="st2"/><path d="M568.5 492.9c3.2.4 6.5.2 9.6-.9.2-.2.4-.3.6-.4.3 0 .5 0 .8-.1.4-.1.8-.4 1.3-.5l.4-.2c.2-.2.1-.2-.1-.2h-.5.5c.3 0 .5-.1.7-.2.4-.3.7-.5 1.1-.7-.3.3-.7.5-1.1.7l-.7.4-.2.1c1-.4 1.9-.9 2.8-1.5.2-.1.3-.3.5-.4.5-.5 1-.9 1.7-1.1l.4-.4h-.1l.2-.1c.6-.5 1.2-1 1.8-1.6.3-.4.6-.9.9-1.3l.5-.3c.1-.3.2-.6.4-.8-.4.2-.8.4-1 .6-.5.2-.4 1.2-1.2 1.3.8-.1.7-1.1 1.2-1.3.3-.2.7-.4 1-.6.5-.7 1-1.3 1.7-1.9-.3.8-.9 1.5-1.7 1.9a3 3 0 00-.4.8l-.5.3c-.3.4-.6.9-.9 1.3.6-.5 1.1-1.1 1.6-1.7.5-.6 1-1.2 1.5-1.9 3.1-4.1 4.8-9.2 4.8-14.3-.3-5.4-2.6-10.4-6.5-14.1-2.1-2.1-4.4-3.9-6.9-5.4-2.5-1.4-5.1-2.6-7.8-3.4-2.7-.9-5.6-1.2-8.4-1-2.9.2-5.7 1-8.2 2.4a23.6 23.6 0 00-6.4 5.8c-1.8 2.3-3.2 4.9-4.3 7.6-1 2.8-1.5 5.7-1.5 8.6 0 2.9.4 5.8 1.2 8.6.2.6.5 1.1.9 1.6.2.3.5.6.8.9.5.4.8.4 1.1.2.4-.3.7-.8.8-1.4.1-.4.1-.9.1-1.3v-1.2c0-.4-.1-.8-.1-1.2s-.1-.9-.1-1.3c-.3-2.4-.2-4.9.4-7.2-.5 2.1-.7 1.4-.6-.5a12.98 12.98 0 012.3-6.4c1.9-2.4 3.7-5.2 6.2-7.4 1.3-1.1 2.7-2 4.3-2.6.8-.3 1.6-.5 2.5-.6.4-.1.9-.1 1.3-.1h1.3c.8.1 1.7.1 2.7.2.5.1.9.1 1.4.2l1.5.3c2.6.8 5 1.9 7.3 3.2 2.3 1.3 4.4 2.9 6.2 4.8 1.8 1.8 3.3 4 4.2 6.3.9 2.5 1.1 5.1.6 7.7-.4 2.7-1.1 5.3-2.2 7.8-.2.4-.5.8-.8 1.2-.3.4-.6.8-.9 1.1-.6.7-1.2 1.4-1.8 1.9-1.5 1.6-3.1 3.1-4.8 4.4 1.8-1.2 3.3-2.6 4.7-4.2.6-.6.5-.3.2.3-.2.3-.4.6-.6 1-.2.3-.4.6-.7.9-.3.4-1.2.5-1.5.9-.4.3-.8.6-1.2 1-.4.3-.8.7-1.2 1s-.5-.1-.7.1c-.6.4-1.1.8-1.7 1.2-.4.3-.9.6-1.5.8-.7.2-1.3.3-2 .4-.4.1-.8.1-1.2.2l-.8.2c.2.1.3.3.4.5h-1.4 1.4c-.1-.2-.2-.4-.4-.5-2.2.6-4.4.8-6.7.5.7.1 1.3.2 1.9.3s1.3.2 2 .4c-.6-.1-.5-.3.2-.3.2.1.3.2.5.2-.6.1-1.2.1-1.8.1-.6 0-1.2-.1-1.7-.4h-.8c-.4-.1-.3-.3-.4-.4l-.8-.1c.4.3.8.5 1.2.6l1.2.6z" class="st2"/><path d="M581.9 490.3c-.2.1-.3.2-.6.3.8-.3 1.5-.8 2.3-1.3-.6.2-1.2.6-1.7 1z" class="st2"/></g><circle cx="571.3" cy="470.8" r="7.8" fill="#1f2020"/><g class="st1"><path d="M576.4 476.3l-.4.3c.1 0 .1-.1.2-.1.2 0 .2-.1.2-.2zM575.7 476.9h-.1v.1zM575 477.3c.1-.1.2-.1.4-.2-.2.1-.3.1-.4.2zM575.6 477c-.1 0-.1 0 0 0l-.2.1c0-.1.1-.1.2-.1zM575.6 477h.2-.2zM575.9 477.9c-.1.1-.2-.1-.3 0-.3.3-.6.5-1 .7-.2.1-.5 0-.7.1-.4.2-1.4.8-.8.6.8-.2 1.6-.5 2.3-1 .6-.4 1.1-.9 1.5-1.5l.4-.4c-.2.1-.4.3-.6.5s-.3.6-.8 1zM578.5 473.5v.3c-.3.3-.5.6-.6 1l.2-.1c.1-.2 0-.3-.1-.1.3-.3.6-.7.7-1.2-.1 0-.2 0-.2.1zM578.7 473.2l-.1.3.1-.3z" class="st2"/><path d="M573.5 478.2c-1 .3-2.1.4-3.2.2-.1 0-.2.1-.2 0-.1 0-.1-.1-.2-.1l-.4-.1h-.2c-.1 0-.1 0 0 .1.1 0 .1.1.1.1l-.1-.1c-.1-.1-.1-.1-.2-.1s-.3-.1-.4-.1c.1 0 .3.1.4.1H569.4c-.3-.1-.7-.2-1-.4l-.2-.1c-.2-.1-.5-.2-.5-.3l-.2-.1v-.1c-.2-.1-.4-.3-.6-.5-.2-.1-.3-.1-.5-.2v-.2c-.1 0-.2 0-.3-.1 0 .1.1.3.2.4.1.2.5.1.5.4 0-.3-.4-.2-.5-.4-.1-.1-.1-.3-.2-.4-.2-.2-.4-.4-.5-.7.2.2.4.4.5.7.1.1.2.1.3.1v.2c.2.1.3.1.5.2-.4-.3-.8-.7-1.1-1.1-1-1.2-1.6-2.8-1.8-4.4-.1-1.6.3-3.2 1.2-4.5 1-1.4 2.5-2.4 4.1-2.8 1.5-.3 3.1-.2 4.5.4 1.4.6 2.5 1.7 3 3.2.3.7.5 1.4.6 2.1.1.7.1 1.4 0 2.1.1.8.3 1.1.6 1.1.2 0 .5 0 .7-.1.5-.4.8-1 .9-1.6.1-.9.1-1.9 0-2.8.1.9-.2.6-.4-.1s-.6-1.7-.8-2.5c-.5-1.4-1.5-2.5-2.8-3.1-1.4-.7-3-1-4.6-1.1-.8 0-1.7.1-2.5.4-2.3.6-4.3 2.1-5.4 4.2a9.92 9.92 0 00-.8 7c.3 1.1 1 2.2 1.8 3 .5.6 1 1.2 1.5 1.7a6 6 0 002.5 1.3c-.8-.3-1.6-.6-2.3-1.2-.5-.4.5.1 1 .2.2.1.3.4.5.5.4.2.8.3 1.2.3.2 0 .1.2.2.2.6.1 1.1-.1 1.5 0s.5.1.8.2h.5l.3-.1c-.1-.1-.1-.2-.2-.2.2 0 .4.1.5 0h-.5c0 .1.1.2.2.2.8-.2 1.6-.5 2.3-.8-.4.2-.9.3-1.4.2.2 0 .2.1 0 .1l-.2-.1c.4-.2.8-.2 1.2-.2l.2-.2c.1 0 .2 0 .2.1l.2-.1h-.8z" class="st2"/><path d="M569 478.1h.2c-.3-.1-.5-.2-.8-.3.1.2.3.3.6.3z" class="st2"/></g><g class="st1"><path d="M431.2 368.4c0 1-.1 2-.1 3v3l.3-3c.1-1 .1-2-.2-3zM431.3 379.9c0 .4.1.7.1 1l.2.9-.3-1.9zM432.9 390.1l-.8-5.2c.1.8.1 1.5.3 2.4s.2 1.8.5 2.8zM432 382c-.1.6-.2 1-.4-.1.1 1 .3 2 .5 3.1-.1-1-.2-2-.1-3zM432 382c.1-.6.1-1.6.2-1.9-.2.5-.2 1.1-.2 1.9zM435.6 384.1c.2 1-.8.9-.3 2.8.2 1.2.5 2.3.8 3.3s.5 2.1.9 3.2.6 2.1.9 3.1l.9 3.1c.7 1.9.6 5.2 1.3 7.1.4 1.1 1 2.6 1.7 4.2s1.4 3.1 2 4.4c1.3 2.4 2 3.5.7.2-1.9-5-3.3-9.2-4.6-13.3-.6-2-1.2-4.1-1.7-6.1s-1.1-4.3-1.5-6.6c-1.9-7.5-2.7-15.2-2.5-23 .1-2.1.4-4.2.9-6.3-.3 1.3-.5 2.7-.8 4.1s-.5 2.9-.6 4.4c-.4 4.2.9 9.2 1.9 15.4zM439.2 326.3c.2.6.4 1.2.5 1.8l.2 1.1c-.5 4.6-1.3 9.2-2.5 13.7.4-.6.7-1.3 1.1-1.9.3-.7.4-1.5.4-2.2-.1-.1-.3.4-.7 1.5 1.1-2.5 1.8-5.2 2.1-7.9.3-2.7 0-5.4-.9-7.9-.2.3-.4.3-.2 1.8zM438.2 321.5c.5 1 .8 1.9 1.2 2.9v-.1c-.4-1-.8-2-1.2-2.9v.1z" class="st2"/><path d="M439.1 411.1c1 3.2 2.2 6.4 3.4 9.5.6 1.5 1.2 3.1 1.8 4.6.6 1.5 1.2 3 1.9 4.5 1.3 3 2.5 5.9 3.8 8.8s2.6 5.8 4 8.6c.7.7 1.2 1.6 1.6 2.5.3 1 .7 1.9 1 2.8.8 1.6 1.7 3.2 2.6 4.8l1 1.6c.6.8.6.5.4-.1s-.5-1.3-.6-1.8c.1.4.5 1.2.6 1.8.3.8.7 1.7 1.2 2.7.9 1.4 1.9 2.9 2.8 4.4-1-1.4-1.9-2.9-2.8-4.4l-1.6-2.6-.5-.7c1 1.8 2 3.7 3.1 5.5l3.2 5.3c.5.8 1.1 1.5 1.5 2.1 1.7 2 3.1 4.3 4.3 6.6l1.3 1.8-.2-.4.4.7c.9 1.3 1.8 2.6 2.8 3.8l3 3.7c.7.7 1.4 1.5 2.2 2.2s1.5 1.4 2.3 2.2l1.1 1.9c1 .7 1.9 1.4 2.8 2.2-1-1.4-1.8-2.8-2.6-4-1-1.9-3.9-2.9-4.8-5.4.9 2.5 3.7 3.5 4.8 5.4.8 1.2 1.6 2.6 2.6 4 1.2 1.1 2.4 2.3 3.5 3.5 1.2 1.3 2.4 2.5 3.4 3.8-1.5-1-2.8-2.3-4-3.6-1.1-1.2-2-2.5-2.9-3.7-.9-.8-1.8-1.6-2.8-2.2l-1.1-1.9c-.8-.7-1.5-1.5-2.3-2.2s-1.5-1.5-2.2-2.2c1.9 2.5 4 4.7 6.1 7.1 1 1.2 2.2 2.3 3.3 3.4s2.2 2.3 3.4 3.4c7.3 7.1 15.4 13.3 24.3 18.5 2.2 1.3 4.4 2.4 6.7 3.6 1.1.6 2.3 1.1 3.4 1.6s2.3 1 3.5 1.5c4.7 1.9 9.5 3.5 14.4 4.7 19.6 5 40.7 4.2 61.4-1.8 5.6-1.6 11-3.6 16.4-5.8 5.3-2.2 10.4-4.7 15.4-7.5 4.9-2.8 9.8-5.6 14.3-8.8 1.2-.8 2.3-1.6 3.4-2.4s2.3-1.6 3.4-2.5c2.2-1.7 4.4-3.4 6.5-5.2 4.2-3.5 8.2-7.2 12.1-11 1.9-2 3.8-3.9 5.5-5.9l2.7-3 2.6-3.1c.9-1 1.7-2.1 2.5-3.1s1.6-2.1 2.4-3.2c1.5-2.2 3.1-4.3 4.6-6.5 3-4.4 5.7-9 8.2-13.7s4.8-9.5 6.8-14.5c2.1-5 3.8-10.1 5.3-15.3 1.5-5.3 2.7-10.7 3.6-16.1.9-5.6 1.4-11.3 1.4-17v-1.7-1.7c0-1.1 0-2.3-.1-3.6-.1-2.5-.2-5.1-.2-7.8-.1-5.5-.3-11.4-.3-17.2-.1-11.7.2-23.3 1.4-30.7.4-5 1-7.7.9-8.7 0-.1 0-.2-.1-.4-.1 0-.1-.1-.2-.1l-.1-.1v-.1-.3c0-.3-.1-.6-.2-.9-.2-.3-.5-.5-.8-.6-.4-.1-.8-.1-1.2 0-.4.2-.7.4-1.1.6l-.6.6a7 7 0 00-.8 1c-.2.4-.5.7-.7 1.1-.4.7-.8 1.5-1.2 2.3-.7 1.5-1.2 3.1-1.7 4.7s-.7 3.3-1.1 5-.5 3.6-.7 5.5c-.7 7.7-1 17.2-1.6 30.9.1-4.7.5-6.1.7-5.5.4 2.5.6 5 .7 7.5.1 2 .2 4.2.2 6.7s.2 5 .2 7.6c.2 4.9-.1 9.7-.9 14.5-1.2 6-2.6 12.5-4.5 19.4-2 7.2-4.4 14.2-7.3 21a139 139 0 01-24.9 39.4 202.9 202.9 0 01-17.4 17.3c-2.2 1.9-4.6 3.6-6.8 5.4s-4.6 3.4-7 5-4.8 3.1-7.2 4.7-4.9 2.9-7.4 4.3-5 2.6-7.5 3.9-5.1 2.4-7.7 3.4-5.2 2-7.9 3-5.3 1.8-8.1 2.5c-5.4 1.6-11 2.7-16.6 3.5l-2.1.3-2.1.2c-1.4.1-2.8.3-4.2.3l-4.3.2-4.3-.1c-5.8-.2-11.6-.9-17.2-2.1-5.8-1.3-11.5-3-17-5.3-5.6-2.3-11.1-4.9-16.4-7.9-2.5-1.5-5-2.9-7.3-4.5-1.2-.8-2.4-1.5-3.5-2.3l-3.3-2.5c-6.3-5-11.9-11.6-16.2-16.5-6-7-11.7-14.4-16.9-22 4.9 7.6 10.4 14.8 16.4 21.6 1.1 1.4 1.5 1.8 1.3 1.7-.7-.5-1.4-1-2-1.6-2.3-2.1-4.4-4.3-6.5-6.7-1.4-1.5-2.5-4.6-3.7-6.2-1.2-1.8-2.5-3.5-3.8-5.2l-3.9-5.4c-1.3-1.6-.3-1.9-.9-2.7-1.7-2.8-3.4-5-4.9-7.1-1.4-1.9-2.6-3.9-3.6-6-1.3-2.9-2.3-5.5-3.4-8.1-.7-1.6-1.4-3.2-2.1-4.9-.5-1-1.1-2.1-1.6-3.1.1.6 0 1.3-.3 1.9-.6-1.6-1.4-3.9-2-5.5.6 1.6 1.4 3.9 2 5.5.3-.6.4-1.2.3-1.9-4.2-8.2-7.8-16.7-10.8-25.4v.1c1.6 5.1 3.2 10.1 4.6 15.5-.6-2.4-.3-2.1.7.4l.3 2.1c-2.1-4.2-3.7-8.7-4.6-13.4l-.5-1.1c-.2-.6-.5-1.3-.7-1.8-.3-1.5 0-1.5.2-1.9-.3-1-.7-2-.9-3 .2 1.8.5 3.7.8 5.5.2 1 .4 2 .5 2.6l.1 1.4z" class="st2"/><path d="M462 461.5c-.4-.6-.9-1.4-1.4-2.2 1.6 3.1 3.5 6 5.3 9-.5-1.8-2.2-4.2-3.9-6.8z" class="st2"/></g><g class="st1"><path d="M138.8 429.7l2.4.3c-.4-.1-.8-.3-1.2-.5-.4-.1-.8 0-1.2.2zM143.5 430.3l.4.1h.4l-.8-.1zM147.7 430.5c-.7-.1-1.4-.2-2.1-.2.7.2 1.4.3 2.1.2zM144.4 429.9c.2.2.4.3-.1.4h1.3c-.4-.1-.8-.2-1.2-.4zM144.4 429.9c-.2-.2-.6-.3-.8-.4.3.2.5.3.8.4zM145.8 426.7c.4-.1.2.9 1.1.8 2-.1 3.7-.2 5.5-.1.9-.2 2.1 1 2.9.8 2-.1 7.1-1 4.1-1.2-2.2-.1-4.1-.1-5.8-.1h-2.7l-2.8-.2c-3.3 0-6.4.1-9.8.1-.9-.1-1.8-.2-2.7-.4 1.1.3 2.3.6 3.6.8 1.7.4 3.9-.6 6.6-.5zM121.2 426.6l1.3-.1c1.8.8 3.8 1.1 5.8 1l-.8-.6c-1.1-.1-1.3.1-.3.5-2.1-.9-4.3-1.4-6.5-1.6 0 .3-.1.6.5.8zM119.3 425.7l1.3.1v-.1h-1.3z" class="st2"/><path d="M156.7 430.4l8.2.6 7.9.4c.4-.2.8-.3 1.2-.2.4.2.8.3 1.2.4l2.2.1h.8c.4-.1.3-.2 0-.4a3 3 0 01-.8-.4c.1.1.5.2.8.4.4.2.8.2 1.2.3.7-.1 1.4-.1 2.1-.1-.7.1-1.4.1-2.1.1-.4 0-.9.1-1.3.1l-.4.1c1.7.1 3.4.1 5.1.1.4 0 .8-.1 1.1-.1a5 5 0 013.2.2h.9l-.2-.1c.1 0 .2 0 .4.1l3.9.1c.8-.2 1.7-.5 2.6-.7l.9.4c.4-.3.9-.5 1.4-.6-.7-.2-1.4-.5-2-.7-.9-.4-1.9 1.1-3 .2 1.1.8 2.1-.7 3-.2.6.2 1.2.4 2 .7 1.4-.2 2.8-.2 4.1.2-1.4.4-2.8.3-4.1-.2-.5.1-1 .3-1.4.6l-.9-.4c-.9.2-1.7.5-2.6.7l7.8-.2c4.2 0 8.4-.4 12.5-.8s8.2-1 12.3-1.5c1-.2 2-.3 3.1-.5l3.1-.6 6.2-1.2c2.1-.4 4.1-1 6.2-1.5s4.2-.9 6.4-1.6l6.9-1.9c2.3-.7 4.5-1.4 6.7-2.1s4.4-1.5 6.6-2.3 4.3-1.5 6.4-2.5c8.2-3.4 16-7.7 23.3-12.8 7.2-5 14.1-10.5 21.5-16.4 3.5-3.1 6.6-6.6 9.4-10.3 2.8-3.7 5.3-7.7 7.5-11.8 1.6-4.6.7-6.5-.5-6.8-1-.2-2 0-2.9.5-2.4 1.5-4.5 3.6-6.1 6-2.3 3.4-5 6.5-8.1 9.2 1.4-1.2 2-1.6 2-1.2-.3 1-.8 1.9-1.5 2.6-.5.6-1.1 1.3-1.7 2.1-.7.7-1.4 1.5-2.2 2.1-1.5 1.4-3.2 2.6-5 3.5-4.9 2.2-9.4 6.1-14.4 10.1l-1.9 1.5-1.9 1.5c-1.3 1-2.6 2-3.9 2.9-2.6 1.8-5.4 3.4-8.3 4.8-1.4.6-2.8 1.4-4.3 2.2s-3.1 1.5-4.7 2.3c-8.9 3.5-17.6 6.8-26.6 9.6l-6.8 1.9c-1.1.3-2.3.7-3.5.9l-3.5.8-3.6.8c-1.2.2-2.4.5-3.6.7-2.5.4-4.9.8-7.5 1.1l-2 .3-1.9.3c-1.3.2-2.5.5-3.7.8-2.4.5-4.7 1.2-7 1.5-3.3.4-7 .1-9.7.3-4.3.2-8 .5-11.5 1l11.3-.8c1.5-.1 1 .2-.1.6-1.2.4-2.5.8-3.8 1-.8.2-2.2-.8-3-.6-1.8.1-3.6.4-5.4.8-.8.2-.7-.7-1.2-.6-2.7.2-4.7 1.3-6.4 1l-3.6-.5c-.7-.1-1.5-.1-2.2-.1l-1.5.2c.3.3.5.6.6 1-.7-.1-1.7-.3-2.4-.5.7.1 1.7.4 2.4.5-.1-.4-.3-.7-.6-1-3.5.3-7.6.5-11.4.7v.1c2.2 0 4.5.4 6.6 1-1-.3-.8-.5.3-.5l.8.5c-2 .3-3.9.1-5.8-.6l-1.3.2c-.6-.2-.6-.5-.7-.7H153c1.1.6 2.4 1 3.7 1.3z" class="st2"/><path d="M179.6 431.5c-.4 0-.7.1-1.1.1 1.4.1 2.9.1 4.3.1-.8-.5-2-.4-3.2-.2z" class="st2"/></g></svg>