<svg xmlns="http://www.w3.org/2000/svg" id="Layer_1" x="0" y="0" version="1.1" viewBox="0 0 842 842" xml:space="preserve"><defs/><style>.st1{opacity:.85}.st2{fill:#211f1e}</style><path fill="#deab90" d="M0 0h842v842H0z"/><g class="st1"><path d="M721 368l-1 4 1-2v-2zM720 375v0zM719 383v-4 4zM720 377h-1 1l-1 2 1-2zM720 377v-1 1zM723 379l-1 2-1 10-2 5v7l2-10 2-10v-4-4l1-8v-5l-1 6v11zM724 337v12-1c0-2 0-2 0 0l1-12-1 1zM725 334v0zM717 398l-2 7-1 7-1 3-1 3-2 6v2l-1 2-1 4v2l1-2-1 2-1 1-1 4 1-4 1-2-3 8-1 2-2 5-1 1h1-1l-3 6-1 5-1 1-1 2 2-2c2-2 1-4 3-5-2 1-1 3-3 5l-2 2-4 6 4-6 1-2 1-1 1-5-3 6-3 6-12 17-16 13a69 69 0 01-40 12l-23-4c-7-2-14-4-21-8a240 240 0 01-38-21c-12-8-24-17-34-28l-17-15-16-15c-6-5-8-5-9-4v3c2 5 5 8 9 12a398 398 0 0117 16l14 15c6 7 15 14 24 20l30 18 4 2 4 2 4 2 4 2 25 8 26 3a80 80 0 0050-21l3-2 3-3 4-5 2-3 2-3 3-5 2-4 3-4 2-4 2-3 2-5 2-5 3-9-3 9-4 9c-2 3-1 2-1 0l1-4 1-3 3-4 3-9 1-2 2-11 2-6 1-4 1-2-2 1 2-4-2 4 1-1 2-10 1-10c-1 4-1 8-3 11 1-1 1-1 1 1l-1 1 2-9v-3l1-1v-2l-2 6z" class="st2"/><path d="M707 435v-1 1l-1 2-1 3 2-5z" class="st2"/></g><g class="st1"><path d="M629 445h-1 1zM627 444h-1 1zM625 444h0zM626 444zM626 444h1-1zM626 445h-2-1-3 5l4 1h1l-2-1h-1-1zM635 449h-1l-1-1-1-1h1c0 1 0 1 0 0l2 2zM635 450v-1 1z" class="st2"/><path d="M621 444l-6 2-1 1h-1v1h-1 1v-1l-1 2h-1l-1 1-1 2v1l1-1-1 1v1l-1 1 1-1v-2l-1 3v10c3 7 10 12 17 11 4 0 8-2 10-4 3-3 5-7 5-10v-6l-2-6-2-1-1 1 1 2 1 1 1 5c0-2 0-1 0 0v5l-3 6a13 13 0 01-10 5c-4 0-7-1-10-3s-5-6-6-9v-6l1-3 2-2 1-2-3 4v-1h1v-1l1-1c1-1 0 0 0 0l1-1c0-1 0 0 0 0l1-1 1-1 2-1h1v-1 1l4-2-3 1c1 0 1 0 0 0h2l1-1v1h1l-2-1zM613 448l-1 1 1-1z" class="st2"/></g><circle cx="623" cy="460" r="7" fill="#040505"/><g class="st1"><path d="M617 457l1-1-1 1zM618 456zM618 456zM618 456zM618 456zM617 455h1v-1h1v-1a6 6 0 00-2 4v-2zM616 460v-1 1zM616 460zM619 454l3-1h5-1 1v0h-1l1 1a7 7 0 013 8l-3 3-4 1-4-2-1-2v-1l-1-1h-1v2l1 2c-1-1 0 0 0 0l2 2 3 2h4l2-1c2-1 4-3 4-5l-1-7-3-2-2-1h-2 1-4v1l-2 1 1-1-1 1zM623 453h0z" class="st2"/></g><g class="st1"><path d="M209 426h1v-1l-1 1zM212 426v-1 1zM214 425h-1 1zM212 425h0zM212 425zM212 422h1l3-1 2 1c1-1 4-2 2-2l-6 1-6 2h-1 2l3-1zM200 427v-1h3v0h-4l1 1zM198 426h1-1zM219 424h8l1-1 1 1h1v-1h1l1 1h-2 11l-1-1h-2 2l1 1h2-2-3 4l27 2a324 324 0 0129 2l15 2h7l8-1c3-2 3-3 2-4l-1-3-5-1-7-1c5 1-2 3-6 1-6-4-14-1-21-2h-5c-11-2-21-1-33-1l-8 1h-5l-7 1 6-1c2 0-1 1-2 2l-1-1-3 1-1-1c-2 0-3 2-4 1h-2-2l1 1h-1 1l-1-1-6 2 4 1v-1l1 1h-4l-1-1 2 1zM231 424h-1 1z" class="st2"/></g></svg>