<svg xmlns="http://www.w3.org/2000/svg" id="Layer_1" x="0" y="0" version="1.1" viewBox="0 0 842 842" xml:space="preserve"><defs/><style>.st1{opacity:.85}.st2{fill:#090a0a}.st3{fill:#131413}.st4{fill:#211f1e}</style><path fill="#fce2e4" d="M0 0h842v842H0z"/><g class="st1"><path d="M153 401h3-2-1zM158 402zM161 402h-2 2zM158 401v1h1l-1-1zM158 401zM160 399h6l2 1 4-1h-19l-3-1 4 1h6zM137 398h2l5 1h-1c-1 0-1 0 0 0a33 33 0 00-6-2v1zM136 397h1-1z" class="st2"/><path d="M169 402l15 1 1-1 1 1h3l-1-1h1l1 1h2-3 9l4 1 2-1 1 1 1-1h-4 4l4 1-4-1-1 1-1-1-2 1h7l45 1 24 1h72c8-2 3-5 3-5-5-2-9-1-19-2 7 1-5 2-12 0-9-2-22 0-34 0h-63l-13 1-9-1-11 1h11l-4 1-3-1h-18v1l-2-1 2 1v-1h-11l6 1h1-6l-1-1h-1l3 2zM190 403h-1 4-3z" class="st2"/></g><g class="st1"><path d="M438 463l4 1-2-1h-2zM447 465v1h1l-1-1zM455 467l-5-1 5 1zM448 465v1h3l-3-1zM448 465h-1 1zM451 464l2 1 11 2 5 2c4 1 14 3 8 1l-22-5-19-4-5-1 7 2 13 2zM403 454l3 1 11 2h-2c-2-1-2-1 0 0l-13-4 1 1zM399 453h3c0 1 0 1 0 0h-3z" class="st3"/><path d="M472 471l31 8a20 20 0 015 1l4 1h2c1 0 0 0 0 0h-2 2l2 1 4 1-4-1-2-1h-1l10 3h2l6 2h2l8 2 5 1 1 1h3l-3-1-6-1 6 1 3 1a71 71 0 01-3 0l-1-1-5-1 15 4 48 12 23 6 13 3 6 2h3l3 1a49 49 0 0028-6c8-4 15-11 20-19a47 47 0 005-32l-1-7-3-12a1773 1773 0 01-21-103c-5-17-5-7-5-7l7 42c-2-15 4 10 6 25l6 35 5 20 1 5v2l1 2v9c0 7-2 13-5 19a47 47 0 01-20 19 45 45 0 01-26 4l-4-1-3-1-7-2-15-3-29-7-29-7-19-5-23-5 22 5c6 2-4 0-8-1l-6-2-10-2-3-1-12-2-7-2-5-1-3-1 2 1-5-2 5 2-2-1-22-5a166 166 0 0114 4h1l-11-3h-2l-2-1h-2l7 2z" class="st3"/><path d="M516 482l-2-1 8 2-6-1z" class="st3"/></g><g class="st1"><path d="M695 475v-1 1zM694 474zM693 473v0zM694 474h-1 1zM694 474zM693 475h-2l-1-1-1 1a14 14 0 016 1l-1-1h-1zM698 479l-1-2h1v2zM698 480v-1 1z" class="st4"/><path d="M690 473h-5v1h-1-1 1-2-1l-1 1h-1l-1 1h1l1-1-1 1-1-1-1 1 1-1h2-3a56 56 0 00-13 7l-5 6-4 8-1 8v7l1 1c1 2 2 2 2 1l1-1 1-2-1-2v-2c0 1 0 1 0 0v-3l1-1v-1l1-3v-2l1-3 1-2 5-6 2-1 1-1 4-2 3-3h3l3-2-3 1 1-1h3l1-1h2v-1l1 1-1-1v1l3-1h-1-1 3l-1-1zM683 474h1-2 1z" class="st4"/></g><path fill="#1f2020" d="M681 499c4-1 6-5 5-9s-4-4-8-3-8 2-7 6c1 5 5 7 10 6z"/><g class="st1"><path d="M677 499h-1 1zM676 499zM675 498h0zM676 499v-1 1zM676 499zM675 499h-1v-1h-1l2 1 2 1v-1h-2zM680 499h-1 1zM681 499h-1 1zM674 498l-2-3v-1 0l-1-1v-1-1h1-1v0h1v-1 1h-1v1l1-2 3-2 5-1 4 1 2 3-2 4-1 1-2 1-1 2h2l3-1v-1l1-1 2-4v-2l-1-2-2-2-3-1h-3l-6 2-2 2-1 2v2l1 1h-1l1 1 1 1v1l2 1-1-1 1 1zM672 494z" class="st4"/></g></svg>