<svg xmlns="http://www.w3.org/2000/svg" id="Layer_1" x="0" y="0" version="1.1" viewBox="0 0 842 842" xml:space="preserve"><defs/><style>.st1{opacity:.85}.st2{fill:#090a0a}.st3{fill:#040505}</style><path fill="#eee2de" d="M0 0h842v842H0z"/><g class="st1"><path d="M161 628l-1 1h1v-1zM159 630zM158 630zM159 630h-1 1zM159 630z" class="st2"/><path d="M159 632h-1-1l-1 1-2-1-2 1c-1 0-1 0 0 0l6-1c2 0 3-1 4-3l1-1-1 1-1 1-1 1-1 1zM166 621v1l-2 2h1l1-1v-2zM167 621h-1 1z" class="st2"/><path d="M153 631l-7-2h-1v-1h-2l-1-1 1 1h1l-3-1v-1l-1-1h-1l-1-1-1-1v-1h-1l1 1 1 1-1-1-1-1v-2 2h1v1l1 1-1-2-1-1-3-12v-3-2l1-2v-1l1-2 1-1 4-4h6a51 51 0 0116 9 11 11 0 014 9l-1 5c-1 2 0 3 1 3h1l2-3 1-2v-1l1-4-1 1v-1l-1-3-1-4a11 11 0 00-2-3l-1-1-4-3-4-2-5-2-5-2-2-1h-3a10 10 0 00-3 1l-1 1a13 13 0 00-5 4l-1 2a27 27 0 00-3 16l4 8 1 1v1l2 2 1 2 1 1 3 1h-1l-1-1h-1l-1-1-1-2 2 2h1v1l1 1h2v1h2l1 1 2 1h3-1 6-4c1 0 1 0 0 0h3l-1-1zM143 628l-2-1 2 1z" class="st2"/></g><path d="M144 623c-4-1-7-6-6-10s4-4 9-3 8 2 7 6c-1 5-5 8-10 7z" class="st3"/><g class="st1"><path d="M148 623h1-1zM149 623zM150 622zM149 622zM149 622zM149 622c0-1 0 0 0 0l1-1h1v-1l-1 1-2 1h1zM145 623h1-1zM144 623h1-1z" class="st2"/><path d="M151 621l2-2v-1h0l1-1-1 1 1-1v-1-1-1h-1l1 1-1-1h1l-1-1 1 1v1l-1-2-1-2-2-1-5-1h-6l-2 3v2c-1 2 0 4 1 6l2 2 2 2 2-1v-1l-2-1-1-1h-1l-1-2v-3-2-1l1-1h5a18 18 0 017 2v2h1v2h-1v2h-1 1v0l-2 2 1-1v1h-1 1zM154 617v0z" class="st2"/></g><g class="st1"><path d="M682 622l1 1h-1v-1zM684 624zM686 625l-1-1 1 1zM684 624h0zM684 624v-1 1zM685 623h6v-1h-5l-4-1v-1l1 1 1 1h1v1zM677 615l2 3v-1h-1v-1l-1-2v1zM677 614z" class="st2"/><path d="M690 625l8-2 1-1h1l1-1h-1 1l1-1-1 1h-1l3-1 1-1 1-1h-1 1l1-1 1-1v-1l-1 2 1-2h1l1-2-2 2v1l-1 1 1-1 2-2 4-12v-3l-1-1v-2-2l-1-1v-2l-1-1-5-6h-8l-6 2a104 104 0 00-12 6l-5 5-1 2-1 2v2 2l1 7c1 2 2 2 3 2l1-1v-4l-1-2v-1-3c0 2 0 1 0 0l1-3 1-2 7-4a44 44 0 0113-6h5l4 4a19 19 0 012 13l-2 6-1 1v1l-2 2-1 1-1 1-1 2v-1h1l1-1v-1l1-1v2h-1l-1 1h-1l-1 1c-1 0 0 0 0 0l-2 1-1 1-1 1h-2v1h-1 1v-1l-5 2h4-3-2l1 1h1zM701 621l2-1-2 1z" class="st2"/></g><path d="M699 616c5-1 7-5 6-10-1-4-4-4-8-3s-8 2-7 7c1 4 5 7 9 6z" class="st3"/><g class="st1"><path d="M696 615h-1 1zM695 615zM694 615zM695 615h-1 1zM695 615zM694 616l-1-1h-1l-1-1 2 2h3-1-1zM699 616h-2 2zM699 616zM693 614l-2-3h-1c0-1 0 0 0 0v-1-1-1-1l-1 1 1-1v-1 1l4-3 4-1h3l2 1c2 2 2 5 0 8l-2 1-1 1-1 1v1h2l3-2c-1 1-1 0 0 0l1-2 2-3v-3l-1-2-2-2-3-1h-3l-6 2-3 2v3 3l1 1v1h1l1 1v-1h-1l1 1c1 0 0 0 0 0h1zM690 610z" class="st2"/></g><g class="st1"><path d="M337 576l-3 3-1 1-1 1 3-2 2-3zM327 586l-1 1-1 1 2-2zM317 595l5-4-5 4zM325 589v-1l-3 3 3-2zM325 589l2-2-2 2z" class="st2"/><path d="M325 593l-3 2-3 3-4 3-3 3-4 2a32 32 0 01-4 2l-4 2c-5 4-20 11-11 7l9-4 7-5 8-4 3-3 4-3 21-22 2-3 2-2 1-2-4 5-4 4-5 7-4 4-4 4zM363 528l-1 4-6 17 1-2 1-3-1 2c3-7 6-13 7-20l-1 2zM365 522l-1 4 1-4z" class="st2"/><path d="M294 611a225 225 0 01-46 17l-4 1-3 1-7 1-3 1c-1 0 0 1 0 0h3-3l-3 1-7 2 7-2 3-1h2l-16 3-3 1a178 178 0 01-10 1l-3 1h-7l-6 1h-4l-4 1h-7 3a275 275 0 018 0l-5 1-3-1h-9l-3-1h-4l13 1 5-1 2 1 4-1h4-26l-2-1h-5l-5-1-5-2-9-2c-3 0-6-2-8-3l-3-3-3-4-3-8-5-19-2-4-1-5-1-4-1-5v-5l-1-2v-3l-1-5v-4-5-7-3l1-4v-5l1-3v-2l1-5 1-1v-1l1-3 1-5 2-5 2-5 1-1 1-1 1-2 1-3 1-2 3-5 3-4 3-5 13-16 13-16 25-33c7-12 13-24 17-37l2-5 1-5 1-5 1-5 1-2v-3l1-5 1-10a236 236 0 00-36-133c-2-2-3-3-4-2l1 5c2 9 5 16 9 25a241 241 0 0112 33l2 6 4 17 1 5v5l1 9a443 443 0 01-3 54 150 150 0 01-25 55l-19 25c-10 12-20 24-28 37l-12 20c-3 7-6 15-7 22l-2 6-1 6v6l-1 6 1 12v6l1 6v3l1 3 1 6 3 12 7 23a55 55 0 006 13c1 2 3 4 6 5l6 3 12 2 5 1 6 1a150 150 0 0068-4l-17 3a153 153 0 01-18 1l6-1 6-1h9l17-4h4l19-7 11-2 7-3 4-1-2-1 7-2a198 198 0 0119-8l8-5-4 3-5 2-10 4h-1l-2 1 16-7 2-1 2-1 2-1 3-2-1 1h-1l-4 2-3 1-2 1z" class="st2"/><path d="M227 633l4-1-7 2-7 1 10-2z" class="st2"/></g><g class="st1"><path d="M503 576l3 3 1 1 1 2-1-2-1-2-3-2zM513 587l1 1h1l-2-1zM523 595zM515 588c1 1 1 1 0 0l3 3-3-3zM515 588l-1-2 1 2zM520 588l2 3 4 2 3 2 4 3 3 2 2 1a32 32 0 006 4c5 3 20 8 12 4l-9-4-7-4-7-4-4-2-3-3c-9-6-16-12-22-20l-3-3-1-2-1-1 3 4 3 4 7 7 4 3 4 4zM478 527l1 3c1 7 3 12 6 18v-3l-2-3 1 2c-3-6-5-13-6-20v3zM477 520l1 4-1-4z" class="st2"/><path d="M547 609a283 283 0 0054 20l7 1 2 1c2 0 1 0 1-1h-3l3 1 3 1 7 1-7-1-4-1h-1l16 3 3 1 6 1 4 1h3-1 4l3 1h14l3 1 5-1h-11 8l3 1 6-1h6-12l-5 1-3-1h-8l25 1h2l3-1h4l5-1 5-1 9-2 10-4 4-4 2-4 4-9 5-18 2-5 1-5 1-4 1-5 1-5v-2l1-3v-5l1-4v-13-2l-1-5v-3l-1-2v-5l-1-5-1-2v-1l-1-2-2-6-2-5-2-5v-1l-1-2-1-2-1-2-1-2-3-5-3-5-3-4-12-18-13-16-23-33c-7-11-12-23-17-35-8-25-7-51-1-78l4-18c1-7 4-14 7-21a358 358 0 0119-50v-3c-1-1-4 2-5 3a557 557 0 00-26 56l-1 6-5 17-1 5-1 5-2 9c-2 9-4 18-4 27a132 132 0 0014 61c4 10 10 19 15 28l20 26 27 36 10 19 8 20 1 5 1 6v5l1 5v14l-1 3v5l-1 3v3l-1 6-1 5-2 6-6 22-5 10c-1 2-1 3-3 3l-4 2-10 3-6 2-5 1c-10 2-21 1-29 1a323 323 0 01-1 0h-12l-5-1-4-1-17-2-3-2-20-4-11-3-6-2-4-2 1 2-7-3 7 3-1-2a245 245 0 01-25-8l-8-4 4 2 5 3 9 4h1l3 2-17-8h-1l-3-1-1-2-4-2 1 1 2 1 3 2 3 2h1z" class="st2"/><path d="M614 632l-3-1 7 2 6 1-10-2z" class="st2"/></g></svg>