<svg xmlns="http://www.w3.org/2000/svg" id="Layer_1" x="0" y="0" version="1.1" viewBox="0 0 842 842" xml:space="preserve"><defs/><style>.st1{opacity:.85}.st2{fill:#fefefe}.st3{fill:#edefef}</style><path fill="#5e503f" d="M0 0h842v842H0z"/><g class="st1"><path d="M178 620l-1 1 1-1zM176 622zM174 623l1-1-1 1zM176 622s-1 0 0 0h-1 1zM176 622zM176 624h-1l-1 1h-2-1-2-1 7l4-4 1-1-1 2-1 1h-1l-1 1zM183 613v1l-2 3 1-1 1-1v-2zM184 612l-1 1 1-1z" class="st2"/><path d="M170 623l-8-2h-1l-1-1h-1l1 1-1-1c-1 0 0 0 0 0l-1-1 1 1h1l-3-1v-1l-1-1h-1l-1-1-1-1v-1h-1l1 1 1 1-1-1-1-1-1-2 1 2h1v1l1 1-1-2-1-2c-2-3-3-7-3-11v-3-3l1-2v-1l1-2 1-1 4-4h6a54 54 0 0117 9l3 4 1 5-1 6v3l2-1 2-3v-2l1-1 1-4-1 1v-1l-1-4-1-3a10 10 0 00-2-3l-1-1-4-3-5-2-5-3a22 22 0 00-7-2h-2-1a10 10 0 00-3 1h-1l-5 5-1 2c-2 2-3 5-3 8v9l4 7v1l1 2 2 2 1 1 1 1 3 2-1-1h-1l-1-1-1-1-1-1c-1-1 0-1 0 0l2 1v1h1l1 1 2 1c1 0 0 0 0 0l2 1h1l2 1 1 1h1v-1l1 1-1-1v1h6l-3-1s0 1 0 0h-1l3 1h2-1l-1-1z" class="st2"/><path d="M159 620h1l-2-1 1 1z" class="st2"/></g><path d="M161 615c-5-1-8-6-7-10 1-5 4-5 9-4s8 3 7 7c-1 5-5 8-9 7z" class="st3"/><g class="st1"><path d="M165 615zM166 615v-1zM166 614zM166 614zM166 614zM166 613s0 1 0 0h1v-1s1-1 0 0l-1 1-2 1 2-1zM161 615h2-1-1zM161 615z" class="st2"/><path d="M168 613l2-3v-1-1h1v-1l-1-1v-1 1l1 1-1-2-2-2-2-1a39 39 0 00-8-2l-3 1-1 2-1 3 1 6 2 2 3 1h1v-1l-1-1-2-1-1-2-1-3v-2l1-1 1-1h4l6 1 2 1v1l1 1-1 1v2l-1 1h1-1 0l-1 2 1-1-1 1h1zM170 609z" class="st2"/></g><g class="st1"><path d="M345 577l-5 6 3-3 2-3zM335 588l-1 1h-1l2-1zM325 597l5-5-5 5zM334 590h-1l-3 2 4-2zM334 590l2-1-2 1z" class="st2"/><path d="M333 595l-3 2-7 6-3 2-4 3-4 2-4 2-11 7c-3 2-4 3 0 1l9-5 7-5 4-2 4-2 3-3 2-2 2-1c8-7 15-15 21-23l3-3 1-2 2-2-2 2-2 3-2 2-1 1-1 1-3 4-3 3-3 4-5 5zM372 529l-1 3-2 5-1 4-2 4-1 2-1 2 2-2v-1l7-20-1 3zM374 522l-1 4 1-4z" class="st2"/><path d="M302 613a337 337 0 01-54 23l-6 2h-3v1l3-1-3 1h-4l-6 2 6-2 4-1h1l-15 3-4 1-10 1h-3 1-1a124 124 0 01-21 0l-2-1h-5l6 2h5-5l-6-2-12-4 12 4h5l2 1h9c-8 0-16-1-24-4l-5-2-4-2a70 70 0 01-23-17c-8-10-15-21-19-33l-6-18-2-10-2-9c-3-13-3-27-2-40a96 96 0 0115-40c7-12 17-22 27-32a506 506 0 0041-47l3-4 2-2 1-2 3-5 3-4 1-2 1-3 1-2 2-2a86 86 0 007-32 169 169 0 00-8-62l-7-22a378 378 0 00-27-49l-3-2v6l11 24a391 391 0 0124 75l1 26c-1 10-3 19-6 28l-1 4c0 2-1 2-2 3l-3 6-4 7-3 3-2 4-19 23a4932 4932 0 01-39 42l-14 20c-8 14-13 29-14 46l1 24 2 12 1 6 2 6a161 161 0 0025 57 78 78 0 0019 17l5 3 6 2a94 94 0 0051 8 149 149 0 00-19 0h-3 3l13-1h10l17-4h4l19-7a177 177 0 0018-7l4-2h-2l7-3-7 3h2l16-8 16-9a135 135 0 01-20 10h-3l17-8 3-2h3l2-1 1-2-3 2-3 1-4 2-1 1z" class="st2"/><path d="M235 639l4-1a197 197 0 01-4 1z" class="st2"/></g><g class="st1"><path d="M663 621l1 1-1-1zM665 623h0zM667 624l-1-1 1 1zM666 623zM666 623h-1 1zM667 622h3l1 1 2-1v-1l-5 1-4-2-1-1 1 1 2 1 1 1zM658 614h1l1 3v-1l-1-1-1-2v1zM658 613h1-1z" class="st2"/><path d="M672 624l8-2 1-1h1v-1c1 0 0 0 0 0h1l1-1-1 1h-1l2-1h1l1-1 1-1 1-1 1-1v-1h1-1l-1 1 1-1h1l1-2-1 2h-1v1l-1 1 2-2 1-1c2-4 4-8 4-12v-4l-1-1v-2-1l-1-2-1-2v-1c-1-3-3-5-6-6l-7-1-7 2a67 67 0 00-12 7l-6 5-1 2v2l-1 2v2l2 8c1 2 2 2 3 2l1-2-1-4v-1-1-4c0 2-1 1 0 0v-3l2-2 7-4a47 47 0 0113-6h6l3 4a19 19 0 013 13l-2 7-1 1v1l-2 2-1 1-1 1-2 1h1l1-1 1-1 1-1-1 2-1 1h-1l-1 1c-1 0 0 0 0 0l-2 1-1 1-2 1h-1v1h-1 1v-1l-6 2h4c-1 0-1 0 0 0h-3-1 1l1 1zM683 620l2-1-2 1z" class="st2"/></g><path d="M681 615c5-1 7-6 7-10-1-5-5-5-9-4s-9 3-8 7c1 5 6 8 10 7z" class="st3"/><g class="st1"><path d="M677 614zM677 614h-1zM676 614zM676 614zM676 614c1 0 0 0 0 0zM676 615v-1h-2v-1h-1a7 7 0 004 2h1-1-1zM681 614l-2 1h2v-1zM681 615z" class="st2"/><path d="M674 613l-2-3v-1 0l-1-1v-1 1-1-1 0l1-1-1 1v1l1-2 3-2 5-1h5c2 3 2 6 0 8l-2 2-2 1v2h2l2-2c0 1 0 0 0 0l2-2 2-3-1-3v-2l-2-2-3-1h-3l-6 2-3 3-1 2v2l1 1h-1l1 1 1 1v1-1 1l2 1-1-1 1 1v-1zM672 609z" class="st2"/></g><g class="st1"><path d="M495 579l5 6-3-3-2-3zM505 590l1 1h1l-2-1zM515 599l-5-5 5 5zM507 591v1l3 2-3-3zM507 591l-1-2 1 2zM512 591l2 3 7 5 4 2 3 2 4 3 4 3 11 5s5 1 1-1l-9-4-7-4-4-2-3-2-4-3-2-1-1-2a140 140 0 01-25-23l-2-2-1-2 2 3 1 2 2 2 1 1 1 1a43 43 0 006 7l4 3 5 4zM469 529l1 4 1 4 2 4 2 5 1 2 1 2-1-3c-2-3-2-3-1 0l-6-21v3zM468 522l1 4-1-4z" class="st2"/><path d="M539 613a393 393 0 0054 23l7 3h3l-3-1 3 1 3 1 7 2-7-2-4-1h-1a173 173 0 0019 4l10 2h16l8-1h3l5-1h-7l-4 1 4-1h7l12-3-12 3-5 1h-3l-8 1c9 0 17-1 25-4l4-1 5-2a75 75 0 0024-18c9-10 15-21 20-33 3-6 5-13 6-19l3-10 2-9c2-14 3-28 2-41a105 105 0 00-14-43c-8-12-18-23-27-34l-28-31-12-15-3-4-1-2-1-3-3-4-3-4-1-2-1-2-1-2-1-3c-1-2-3-5-3-9l-2-9-1-10c-1-13 1-26 5-40a382 382 0 0136-88v-4c-2 0-5 2-5 3-6 7-10 13-15 22l-7 16-10 21 4-7-3 10-6 17-5 19c-3 9-4 19-4 28a87 87 0 009 39l4 7 5 7 2 4 2 3 20 25 23 24a481 481 0 0127 36c8 12 12 26 13 41l-1 22-1 11-1 6-1 5-2 6-1 5-2 6-2 5a116 116 0 01-24 40l-8 7-5 3-4 3-15 5-14 2a144 144 0 012 0l-3 1-12 1-9-2-17-2-3-2-20-4-10-5-7-2-4-2 1 2-6-4 6 4-1-2-16-7-9-4-8-4 19 11c-3-2-3-2 1 0l2 1-16-8-4-2-2-2-2-1-1-1 2 2 4 3 2 1 1 1z" class="st2"/><path d="M606 640a144 144 0 0110 2l-10-2z" class="st2"/></g></svg>