<svg xmlns="http://www.w3.org/2000/svg" id="Layer_1" x="0" y="0" version="1.1" viewBox="0 0 841.9 841.9" xml:space="preserve"><defs/><style>.st1{opacity:.85}.st2{fill:#fefefe}</style><path fill="#7f563a" d="M0-.2h841.9v841.9H0z"/><g class="st1"><path d="M126.4 384.3l1.3 4.6c-.2-.8-.3-1.6-.3-2.4-.2-.8-.5-1.5-1-2.2zM129 393.1l.3.8.3.7-.6-1.5zM132 400.8c-.5-1.4-1.1-2.7-1.6-3.9.4 1.4 1 2.7 1.6 3.9zM129.9 394.6c0 .5 0 .8-.4 0l.9 2.3c-.2-.7-.3-1.5-.5-2.3zM129.9 394.6zM133.8 395.4c.4.7-.6.9.2 2.3l2.4 4.9c.8 1.5 1.6 3 2.3 4.6.4.9.7 1.8.9 2.8.2 1 .5 1.9 1 2.7.5.8 1.2 1.9 2 3.1s1.7 2.2 2.3 3.1c1.4 1.7 2.1 2.4.7 0-1.1-1.8-2.1-3.5-3-5.1s-1.7-3.1-2.5-4.6c-1.5-3.1-3.1-6-4.5-9.6-2.7-5.7-5-11.5-6.8-17.5-.4-1.8-.8-3.4-1.1-5.1.4 2.2.7 4.5 1.2 6.9.4 1.8 1.1 3.6 1.9 5.2 1 1.8 2.1 3.9 3 6.3zM122.1 349.6c.1.8.4 2.5.4 2.5-.2.9-.2 1.9-.2 2.8 0 .9.1 1.9.1 2.8s.2 1.9.3 2.9.4 1.9.5 2.9l.3-1.8c-.3-2.2-.6-2.4-.6-.5.1-2.3.1-4.5 0-6.6-.1-1.1-.1-2.2-.1-3.2s-.1-2.2-.1-3.2c-.2.2-.5.2-.6 1.4zM122.6 345.6l.2 2.5.1-.1c-.2-.8-.2-1.7-.3-2.4z" class="st2"/><path d="M140.1 416.4c4.9 9.2 10.8 17.9 17.5 26 .7.4 1.3.9 1.8 1.6.4.7.8 1.4 1.3 2 .9 1.1 2 2.2 3 3.3l1.1 1.1c.6.5.6.2.3-.2s-.6-.9-.8-1.4c.1.3.6.9.8 1.4.4.7.9 1.3 1.4 1.9 1 .9 2 1.8 3.1 2.9-1.1-.9-2.1-1.8-3.1-2.9l-1.8-1.7-.6-.5c2.2 2.5 4.7 4.8 7.1 7.2.6.5 1.2 1 1.6 1.3 1.7 1.2 3.3 2.7 4.7 4.3l1.4 1.1-.2-.3.5.5 2.9 2.4c1 .8 2 1.5 3.1 2.3 1.5.8 2.9 1.6 4.4 2.4l1.2 1.3c.9.3 1.8.6 2.6 1.1l-2.7-2.7c-1.2-1.3-3.7-1.3-4.8-3.2 1.1 1.9 3.6 2 4.8 3.2.9.8 1.7 1.7 2.7 2.7.5.3 1.1.6 1.6 1s1.2.7 1.8 1.1c1.1.7 2.2 1.6 3.3 2.4-1.3-.6-2.6-1.3-3.8-2.1-.5-.4-1-.7-1.5-1.2-.5-.4-.9-.8-1.3-1.2-.8-.5-1.7-.9-2.6-1.1l-1.2-1.3c-1.5-.8-3-1.6-4.4-2.4l3 2.2c1 .7 2.1 1.4 3.1 2.1l3.2 2.1 3.3 2c7 4.2 14.4 7.8 22 10.8 7.5 2.9 15.3 5.2 23.2 6.8 34.4 6.9 70.2 2.4 101.7-13 7.8-3.9 15.3-8.4 22.3-13.7 1.7-1.3 3.4-2.6 5.1-4l4.9-4.2 4.7-4.4c1.6-1.5 3-3 4.5-4.6 5.9-6.3 11.3-13 16.3-20 5.1-7.3 9.7-14.9 13.8-22.8 4-8.1 7-16.6 9.1-25.3 2.1-8.6 3.4-17.4 3.9-26.3 0-1.1 0-2.1-.1-3.1s-.2-1.8-.3-2.5c-.2-1.2-.4-2.3-.8-3.4-.6-1.6-1.2-2.1-1.9-2-1.3.2-2.4 2.6-2.5 3-.5 1.3-.9 2.6-1.2 3.9s-.7 2.5-.9 3.8-.5 2.6-.7 4-.5 2.8-.7 4.3a99 99 0 01-6.2 23.3c2.5-6.8 2.4-4.1.8 1.9-1.1 3.6-2.4 7.1-4 10.5l-1.3 2.8c-.5.9-1 1.8-1.5 2.6-.9 1.6-1.9 3.2-3 4.7-6 8-12.3 18-20.1 27.6-2 2.4-4 4.8-6.1 7.1-1.1 1.1-2.1 2.4-3.2 3.5l-3.4 3.3c-1.1 1.1-2.3 2.1-3.5 3.2s-2.3 2.1-3.6 3c-2.5 1.9-4.9 3.8-7.4 5.4-5.4 3.7-11 7.1-16.8 10.2-16.4 8.1-34.1 13.3-52.2 15.5-18.7 2.2-37.7.7-55.8-4.6-10-2.9-18.8-5.6-26.9-9.3l-2.2-1.1-2.1-1.2c-1.4-.8-2.8-1.7-4.2-2.5l-3.8-2.6-1.8-1.2-1.7-1.2c-6.8-4.7-12.4-9-17.7-13.4 5.4 4.8 11.1 9.3 17.1 13.2 2.3 1.6 1.4 1.3-.6.3-1-.5-2.2-1.1-3.4-1.8s-2.3-1.4-3.1-1.9c-1.4-.8-2.8-3.2-4.1-4.1-1.3-1.1-2.7-2.2-4.1-3.2s-2.7-2.2-4.2-3.4c-1.3-1-.5-1.5-1.2-2-1.7-1.6-3.5-3.1-5.3-4.5-1.4-1.2-2.8-2.5-3.9-3.9-.8-1-1.4-2-2.1-2.9l-1.9-2.8c-.9-1.1-1.6-2.3-2.5-3.5l-1.8-2.1c.2.5.1 1.1-.1 1.6-.8-1.1-1.7-2.8-2.4-4 .7 1.2 1.6 2.9 2.4 4 .2-.5.2-1.1.1-1.6-4.7-5.7-8.8-11.8-12.4-18.2v.1c1 1.9 2 3.8 2.9 5.7s1.9 3.9 2.8 6c-.8-1.8-.4-1.7.7.2.2.6.3 1.1.5 1.7-1.2-1.5-2.2-3.1-3.2-4.8-1-1.6-1.8-3.3-2.3-5.1l-1.4-2c-.4-1.1-.1-1.2 0-1.6l-.6-1.1-.6-1.1c.3 1.5.8 2.9 1.3 4.3.4 1.6.9 3 .9 3z" class="st2"/><path d="M166.6 452.1l-1.5-1.5 1.5 1.5 1.4 1.6 3 3c-.7-1.4-2.6-3-4.4-4.6z" class="st2"/></g><g class="st1"><path d="M256.5 443.6c.4.4.9.7 1.4 1-.2-.2-.4-.5-.5-.8-.3-.3-.5-.2-.9-.2zM259.3 445.4l.3.2h.3c-.3 0-.4-.1-.6-.2zM262.1 446.5c-.4-.2-.9-.4-1.4-.6.4.3.9.5 1.4.6z" class="st2"/><path d="M260 445.3c.1.2.1.4-.2.3l.9.3c-.2-.2-.5-.4-.7-.6zM260 445.3c-.1-.2-.3-.5-.3-.6l.3.6zM262.2 442.6c.3 0-.2.9.4.9.6.1 1.2.2 1.8.2.6.1 1.1.1 1.7.2.5-.1 1.1 1.2 1.7 1 .8-.1 1.7-.3 2.5-.6.7-.3 1-.6.1-.6-.6 0-1.2 0-1.8-.1-.5 0-1.1-.1-1.6-.2s-1.1-.1-1.6-.3l-1.6-.4-1.5-.3c-.5-.1-1-.2-1.5-.4l-1.5-.5-1.4-.7c-.5-.3-.9-.7-1.3-1.1.2.3.5.6.7.9l.8.9c.5.4 1.1.7 1.8.7s1.5.2 2.3.4zM248.9 433.7l.7.6c0 .7.2 1.4.6 1.9.4.6.9 1.1 1.4 1.5v-.7c-.5-.6-.8-.5-.5.2-.4-1.5-1-2.9-1.8-4.3-.2.2-.5.3-.4.8zM248.9 432.1l.5.8.1-.1-.6-.7z" class="st2"/><path d="M268.4 447.2c.9.1 1.9.2 2.8.2.9 0 1.9-.1 2.8-.1s1.8-.2 2.7-.4 1.8-.4 2.6-.6c.2-.3.3-.5.7-.6h.9c.5-.1 1-.4 1.4-.6l.5-.3c.2-.2.1-.3-.2-.4-.2 0-.4 0-.6-.1.1 0 .4 0 .6.1.3 0 .6 0 .9-.1.4-.3.8-.6 1.2-.8-.4.3-.8.6-1.2.8l-.7.5-.2.2c1.1-.5 2.1-1 3.2-1.6.2-.2.4-.3.6-.5.5-.6 1.1-1.1 1.9-1.2l.5-.4h-.1l.2-.1c.7-.5 1.4-1.1 2.1-1.8.3-.6.5-1.1.8-1.7l.7-.2c0-.4.1-.8.3-1.1-.5.2-1 .3-1.4.5-.7.1-.2 1.6-1.3 1.5 1.1.1.6-1.4 1.3-1.5.4-.2.9-.3 1.4-.5.5-.8 1.2-1.5 2-2-.3 1-1 1.7-2 2-.2.3-.3.7-.3 1.1l-.7.2c-.3.5-.6 1.1-.8 1.7 1.3-1.2 2.5-2.6 3.6-4 3.7-4.7 5.7-10.5 5.7-16.5-.1-3.1-.8-6.1-2.1-8.8-.7-1.4-1.4-2.7-2.3-4l-1.4-1.9c-.5-.6-1-1.2-1.6-1.8-2.3-2.4-5-4.6-7.8-6.4-2.8-1.8-5.9-3.2-9-4.3-3.2-1.1-6.6-1.6-9.9-1.4-3.5.2-6.9 1.2-10 2.9-3 1.8-5.7 4.1-7.9 6.9-2.2 2.8-4.1 5.8-5.6 9-1.4 3.3-2.1 6.8-2.1 10.4 0 1 0 2 .1 2.9l.3 2.8.5 2.5c.1.8.4 1.5.6 2.2.2.4.4.8.6 1.1.2.3.4.6.7.8.4.4.8.7 1.3 1 .6.3 1.4.3 2 0 .8-.5 1.5-1.2 1.9-2 .2-.5.4-1.1.6-1.6l.3-1.4v-1.4-1.4c-.1-1.1-.1-2.3-.1-3.4.1-1.5.5-3 1-4.4-.8 2.3-1.2 1.4-1.2-.6.1-1.2.4-2.4.9-3.6.5-1.2 1.2-2.3 2.2-3.2 2.8-2.2 4.6-4.8 7-7 1.2-1.1 2.5-2 4-2.6.8-.3 1.6-.5 2.4-.6.4-.1.9-.1 1.3-.1s.9 0 1.3.1c.9.2 1.7.1 2.7.3.5.1 1 .1 1.5.2l1.5.4c2.6 1 5.1 2.2 7.5 3.6 2.4 1.3 4.5 3 6.5 4.8 1.8 1.7 3.3 3.8 4.3 6.1.9 2.4 1.1 5 .6 7.5-.3 2.8-.8 5.6-1.6 8.3-.2.5-.5.9-.8 1.3-.3.4-.6.8-1 1.2-.7.7-1.3 1.4-1.9 1.9-1.7 1.9-3.2 3.5-4.8 4.9 1.8-1.4 3.4-2.9 4.8-4.7.6-.6.6-.2.4.5-.1.4-.3.8-.5 1.2-.2.3-.4.7-.6 1-.3.5-1.5.2-1.8.7-.4.3-.8.7-1.2 1.2-.4.4-.8.8-1.2 1.3s-.8-.4-.9-.2c-.6.5-1.2 1-1.6 1.6-.4.5-.9.8-1.5 1-.7.1-1.5.2-2.2.2-.4.1-.9.1-1.3.2l-.8.4c.2.3.4.6.5.9h-.8c-.3 0-.5-.1-.8-.1.2 0 .5.1.8.1h.8c-.1-.4-.3-.7-.5-.9-2.3.8-4.8 1.2-7.2 1.1v.1c.7.1 1.4.2 2.1.4.8.2 1.5.4 2.2.7-.7-.2-.6-.5.2-.5.2.2.4.3.6.5-.7.2-1.3.2-2 .2s-1.3-.2-1.9-.6l-.9.2c-.4-.2-.3-.5-.3-.8l-.9-.1c.4.4.8.7 1.3 1 .3.3.8.5.8.5z" class="st2"/><path d="M283.5 444.4c-.2.1-.4.3-.6.4.5-.2.9-.4 1.3-.7l1.3-.7c-.7-.1-1.3.5-2 1z" class="st2"/></g><circle cx="271.6" cy="420.7" r="8.8" fill="#e0caca"/><g class="st1"><path d="M276.7 426.2l-.4.3c.1 0 .3 0 .4.1.1 0 0-.2 0-.4zM275.9 426.7l-.1.1.1-.1zM275.3 427.4c.1 0 .3-.1.3-.2-.1-.1-.2 0-.3.2zM276 427.2c-.1-.1-.2-.2-.2-.3 0 .1-.1.2-.1.2.1 0 .2 0 .3.1zM276 427.2c.1.1.3.1.3.2-.1-.1-.2-.1-.3-.2zM277.7 430.2c0 .1-.5-.7-.6-.4-.3.5-.6 1.1-1.1 1.3-.1.3-.9-.6-1-.3-.3.4-.6.7-.8 1.1-.2.4-.4.8.1.6 1.1-.4 2.2-1 3.1-1.8.6-.8 1.1-1.7 1.5-2.6.2-.2.3-.4.6-.5-.3.1-.6.3-1 .4s-.3.4-.3.8c-.1.6-.3 1-.5 1.4zM279.1 423.6l.2.4c-.8.1-.7.5-.7 1l.5.1c.1-.2-.1-.4-.4-.3.6-.1 1.1-.5 1.1-1.1-.2-.1-.5-.2-.7-.1zM279.9 423.4v.3h.1l-.1-.3z" class="st2"/><path d="M274 428.9c-1.1.4-2.3.4-3.5.1-.1.2-.2.4-.3.2 0-.1-.1-.3-.2-.4-.2 0-.3-.1-.5-.2h-.2c-.1.1-.2.2-.1.4 0 .1.1.3.1.4 0-.1-.1-.3-.1-.4 0-.1-.1-.2-.2-.3-.2 0-.3 0-.5-.1.2 0 .3 0 .5.1h.3l.1-.1c-.3-.1-.7-.3-1-.5h-.2c-.3 0-.6 0-.5-.5l-.1-.1v0c-.2-.2-.4-.4-.6-.5-.3.1-.5.1-.8.1l.2-.5c-.2.1-.4.2-.5.1-.1.3-.2.6-.2.9-.1.5 1-.5.6.4.4-.9-.7.1-.6-.4.1-.3.1-.6.2-.9-.3-.1-.4-.5-.2-1 .5 0 .4.4.2 1 .2 0 .4 0 .5-.1l-.2.5c.3 0 .5 0 .8-.1-.4-.4-.7-.8-1-1.2a9.9 9.9 0 01-1.4-4.4c0-1.5.5-3 1.4-4.2 1-1.2 2.5-1.8 4-1.6.7.1 1.2.2 1.8.3.5.1 1.1.2 1.5.5.5.2.9.6 1.1 1.1.2.6.2 1.2-.1 1.8-.2.3-.2.7-.1 1.1.1.3.2.6.2.9 1 .6 2.1 1.1 3.2 1.5.8.3 1.6.4 2.4.4.7 0 1.4-.2 1.9-.6.4-.3.6-.7.7-1.1.2-.9.3-2 .8-4-.3 1.3-.9 1-1.3.1-.5-1.2-.6-2.6-.3-3.9.5-2.5-1.2-4.5-3.5-5.5s-4.8-1.2-7.1-1.5c-1.3-.1-2.6 0-3.8.5-3.8.6-7 3-8.6 6.4-1.6 3.4-2 7.3-1.1 11 .5 2 2.2 3.2 3.5 4.2.8.8 1.3 2 2.1 2.6 1.1.8 2.4 1.3 3.8 1.3-1.3-.2-2.5-.7-3.6-1.4-.4-.3-.1-.4.4-.5h1.5c.3 0 .1 1.1.5 1 .6.2 1.2.2 1.8 0 .3-.1 0 .8.1.7.5 0 .9-.2 1.2-.5.4-.2.7-.4.9-.3s.7.4 1 .5c.2.1.4.1.6.1l.4-.3c-.1-.3-.2-.7-.2-1 .2 0 .5.2.7.3-.2 0-.5-.2-.7-.3 0 .3.1.7.2 1 1-.6 1.9-1.3 2.7-2v-.1c-.5.3-1.2.3-1.7-.1.3.2.3.4 0 .5l-.3-.5c.4-.3.8-.7 1.4-.1l.2-.4c.2.1.3.4.4.6.1-.1.2-.1.3-.2-.2-.2-.5-.4-.8-.5l-.1-.3z" class="st2"/><path d="M269 428.8h.2c-.3-.1-.6-.3-.8-.4 0 .4.3.4.6.4z" class="st2"/></g><g class="st1"><path d="M703.2 378.7l-1.9.3c.3 0 .7.1 1 .2.4 0 .6-.2.9-.5zM699.5 379.2h-.3l-.3.1.6-.1zM696.2 379.9c.6 0 1.1-.1 1.7-.3-.6.1-1.2.2-1.7.3zM698.9 379.8c-.2-.1-.3-.2 0-.4l-1 .3c.3 0 .7 0 1 .1zM698.9 379.8c.2.1.5.2.7.2-.3-.1-.5-.2-.7-.2zM698.5 383.3c-.3.2-.4-.8-1-.5-1.4.6-2.8 1-4.3 1.3-.6.3-1.8-.6-2.5-.3-1.5.5-5.4 2.3-3 1.9 3.6-.6 5.9-1.2 9-1.8 2.6-.8 5-1.6 7.6-2.4l2.2-.3c-.9 0-1.9 0-3 .1-1.4 0-2.8 1.4-5 2zM717.1 376.2c-.3.2-.5.4-.8.6-.8-.1-1.6 0-2.3.2-.8.2-1.5.5-2.2.8l.8.3c.9-.3.9-.5.1-.6.9.1 1.8 0 2.8-.1.9-.1 1.7-.4 2.5-.8-.3-.1-.4-.4-.9-.4zM718.8 376.2l-.9.5.1.1.8-.6zM689.2 381.8c-4.5.6-8.7 1.1-12.8 1.5-.3.2-.5.5-.9.4-.3-.1-.7-.2-1-.2l-1.8.1-.6.1c-.3.1-.2.3 0 .4.2.1.5.2.7.3-.1-.1-.5-.2-.7-.3-.3-.1-.7-.2-1-.2-.6.1-1.1.2-1.7.2.6-.2 1.1-.2 1.7-.2l1-.2.3-.1-4.1.3c-.3.1-.6.1-.8.2-.8.3-1.8.4-2.6.1h-.7l.2.1-.3-.1-3.1.2c-.7.2-1.3.5-2 .8l-.8-.4c-.3.3-.7.5-1.1.6.6.2 1.1.5 1.6.6.8.4 1.5-1.1 2.4-.3-.9-.8-1.6.7-2.4.3-.5-.1-1-.4-1.6-.6-1.1.3-2.2.2-3.3-.1 1.1-.4 2.3-.4 3.3.1.4-.1.8-.3 1.1-.6l.8.4c.7-.2 1.3-.5 2-.8l-6.2.4c-13.5.7-25.9 1.9-39.9 2.7-7.6.4-14.9.5-22.1.5-14.3 0-27.2 2.3-41.7.9-5.6-.4-15.8.8-21.1 1.3-7.1 2.2-3 6-2.6 6.2 4.7 3.1 7.9 1 17 2.4-6.2-.7 4.3-2.6 10.2-.6 8.6 3 20.2-.8 30.6-.6 2.6 0 5.3-.4 8.4-.5 16 0 30.7-2.8 47.4-4 4.4-.4 8.2-1.7 11.9-2.5 2.7-.4 5.7-.2 7.9-.5 3.1-.3 6.2-.9 9.3-1.7-3.2.5-5.5 1-9.1 1.5-2.4.3 1.5-1.4 3.1-1.8.7-.3 1.8.7 2.5.4 1.5-.3 2.9-.7 4.3-1.2.7-.3.7.7 1 .5 2.1-.5 3.7-1.9 5-1.8l3 .1c.6 0 1.2-.1 1.8-.2l1.1-.4c-.3-.2-.5-.6-.7-.9.6 0 1.4.1 2 .1-.6 0-1.4-.1-2-.1.1.4.3.7.7.9 2.8-.9 6-1.8 8.9-2.6v-.1c-1.8.4-3.6.4-5.4.1.8.1.8.4-.1.6l-.8-.4c1.5-.5 3.1-.9 4.7-.4l1-.5c.5.1.5.4.7.6l1-.2c-1.4-.5-2.5-.7-3.6-.8z" class="st2"/><path d="M671 383.9c.2-.1.5-.1.8-.2l-3.5.2c.9.4 1.9.4 2.7 0z" class="st2"/></g></svg>