<svg xmlns="http://www.w3.org/2000/svg" id="Layer_1" x="0" y="0" version="1.1" viewBox="0 0 841.9 841.9" xml:space="preserve"><defs/><style>.st1{opacity:.85}.st2{fill:#211f1e}.st3{fill:#1f2020}</style><path fill="#edc4b3" d="M0 0h841.9v841.9H0z"/><g class="st1"><path d="M185.2 479.1c.6.1 1.1.2 1.7.4-.3-.1-.5-.3-.8-.4-.3-.1-.6-.1-.9 0zM188.3 480.1l.3.1.3.1-.6-.2zM191.1 481.5c-.4-.3-.9-.6-1.4-.8.2.1.4.2.6.4s.5.3.8.4zM189 480.2c.1.2.2.3-.1.2l.8.4c-.2-.2-.5-.4-.7-.6zM189 480.2l-.4-.4.4.4z" class="st2"/><path d="M190.5 479.1c.3.1 0 .5.6.7s1.3.7 1.9 1c.6.3 1.2.7 1.8 1.1.6.3 1 1.4 1.6 1.7 1.2.9 4.5 2.9 2.8 1.4-2.2-1.9-4.6-3.6-7.1-5.2-2.3-1.3-4.8-2.1-7.4-2.3-.7-.1-1.4-.1-2.1-.2 1 .1 1.9.3 2.8.5.7.2 1.5.3 2.3.4 1 .2 1.9.4 2.8.9zM172.1 480.3l.9-.4c.7 0 1.4-.1 2.1-.3l2.1-.6-.7-.1c-.8.2-.9.4-.1.3-1.7.1-3.4.4-5 .9.2.1.3.3.7.2zM170.6 480.4l.9-.3-.9.3z" class="st2"/><path d="M196.6 485.3c3.2 2.7 6.1 5.4 9.1 7.9.3.1.6.2.8.5.2.3.4.5.6.7l1.3 1.1.5.3c.3.2.3 0 .1-.1-.1-.2-.2-.3-.4-.5.1.1.2.3.4.5s.4.5.6.7c.4.3.9.6 1.3 1-.5-.3-.9-.6-1.3-1l-.8-.5-.2-.1 3 2.5.6.5c.7.4 1.3 1 1.8 1.6l.5.5-.1-.1.2.2c.7.6 1.4 1.3 2.1 2l1.5 1.2.3.6c.3.2.6.4.9.7-.2-.5-.4-.9-.6-1.4-.3-.7-1.4-.7-1.6-1.6.2.9 1.3.9 1.6 1.6.2.4.5.9.6 1.4.7.7 1.2 1.6 1.5 2.6-.6-.8-1.1-1.7-1.5-2.6-.3-.3-.6-.5-.9-.7l-.3-.6-1.5-1.2c1.4 1.3 2.6 2.8 3.6 4.4.8 1.3 1.4 2.7 1.7 4.1.2 1.4.1 2.9-.3 4.2-1 2.8-2.7 5.3-4.9 7.3-1 1.1-2.2 2.1-3.4 3-.6.5-1.2.9-1.9 1.3l-.9.6-1 .5a27 27 0 01-8.7 3.3 29.72 29.72 0 01-19.3-2.4 36.5 36.5 0 01-7.6-5.2c-2.2-2.1-4.1-4.5-5.7-7.1a34.5 34.5 0 01-5.3-17.6c-.2-2.9.1-5.9.9-8.7.6-2.5 2.2-4.7 4.3-6.1 1-.9 1.7-1.4 2.1-1.8.3-.3.5-.7.4-1.1-.2-.6-1.3-.8-1.4-.8-2.3-.1-4.5.9-6.1 2.6-1.8 1.9-3.5 4.7-4.7 9.1.4-1.5.7-1.9.7-1.7 0 .8-.1 1.6-.2 2.5-.3 2.6-.3 6.5-.4 9.4-.2 4.2 1.3 9.2 3.8 13.8 2.6 4.7 6 9 10.1 12.5.5.4 1 .8 1.5 1.3l1.8 1.1c1.3.8 2.6 1.5 3.9 2.1a32.7 32.7 0 0023.4 1.9c3.9-1.1 7.5-2.9 10.8-5.2l1.2-.9c.4-.3.8-.7 1.2-1 .8-.7 1.6-1.3 2.3-2.1.7-.8 1.4-1.5 2.1-2.3.7-.8 1.4-1.7 2-2.6 1.3-2 2.1-4.3 2.4-6.6.1-2.2-.3-4.5-1.4-6.5-1.2-2.5-2.7-4.7-4.6-6.7-2.2-2.1-4.5-4-7.1-5.7 2.4 1.7 4.7 3.6 6.8 5.6 1.7 1.7-1.6-.8-2.8-1.6-.6-.3-1-1.4-1.5-1.8-1.1-.9-2.3-1.6-3.5-2.4-.6-.3-.2-.6-.5-.8-1.6-1.2-3.2-1.7-4.2-2.6-.7-.7-1.4-1.3-1.9-1.9-.4-.4-.8-.7-1.2-1.1l-.9-.6c.1.2.1.5 0 .7-.4-.4-.9-1-1.3-1.3.4.4.9 1 1.3 1.3.1-.2.1-.5 0-.7-2.2-1.5-4.7-3.4-7-5.1v.1c1.3 1 2.6 2.2 3.6 3.5-.5-.6-.3-.6.3-.1l.3.6c-1.2-.8-2.3-1.8-3.3-2.9l-.8-.5c-.3-.4-.2-.5-.2-.6l-.8-.6c.3.5.7.9 1.1 1.4l1.1.8z" class="st2"/><path d="M209.8 496.3l-.7-.5 2.5 2.1a6.9 6.9 0 00-1.8-1.6z" class="st2"/></g><path d="M194.7 512.8a10.5 10.5 0 11-21 0c0-5.8 5.4-13.2 10.5-10.5 7.6 4.1 10.5 4.7 10.5 10.5z" class="st3"/><g class="st1"><path d="M193.4 507.5c-.1-.2-.3-.3-.5-.5.1.1.1.2.2.3.1.2.2.2.3.2zM192.5 506.6l-.1-.1h-.1zM191.5 506c.2.1.3.2.5.3-.2-.1-.3-.2-.5-.3zM192.2 506.5s0-.1 0 0l-.2-.3c.1.2.1.3.2.3zM192.2 506.5l.1.2s0-.1-.1-.2zM191.5 507c-.1 0 .1-.2-.1-.3-.5-.2-.9-.4-1.3-.6-.2-.1-.4-.5-.6-.5-.5-.2-1.9-.5-1.1-.2 1.1.5 1.8.9 2.7 1.4.8.4 1.5.8 2.1 1.4.1.2.3.4.4.6-.1-.3-.3-.6-.5-.8-.4-.5-1-.6-1.6-1zM194.9 512.3l-.1-.3c.1-.5 0-1.1-.2-1.6l-.1.3c.1.3.2.3.1 0v1.8c.2-.1.3 0 .3-.2zM194.8 512.8v-.4.4z" class="st2"/><path d="M189.2 504.9l-3.9-2.1c-.1 0-.2 0-.3-.1l-.2-.2-.5-.3-.2-.1c-.1 0-.1 0-.1.1l.2.2-.2-.2c-.1-.1-.2-.1-.3-.2-.2 0-.4-.1-.6-.2.2 0 .4.1.6.2l.3.1h.1c-.4-.2-.9-.4-1.4-.5h-.3c-.3 0-.6 0-.9-.1h-.3c-.4.1-.7.1-1.1.2-.2.1-.4.3-.6.4h-.3l-.3.3.6-.1c.3 0 .4-.4.7-.3-.3-.1-.5.4-.7.3l-.6.1c-.3.2-.6.4-1 .6.2-.3.6-.5 1-.6l.3-.3h.3c.2-.1.4-.3.6-.4-.7.2-1.3.6-1.9 1-1.8 1.4-3.3 3.4-4.1 5.5-.4 1.1-.7 2.2-.9 3.4a11.71 11.71 0 004.4 10.4c2.1 1.6 4.6 2.4 7.2 2.2 2.7-.2 5.2-1.1 7.3-2.7 1.1-.9 2-1.9 2.6-3.2.6-1.2 1-2.5 1.2-3.9 0-1.4-.4-1.7-.7-1.7-.3.1-.5.2-.6.4-.2.3-.4.7-.5 1-.1.3-.2.7-.4 1.1-.3 1-.8 2-1.6 2.8.6-.7.6-.4.1.3-.6.9-1.4 1.6-2.3 1.9-1.4.5-2.8 1-4.2 1.3-1.6.4-3.2.3-4.7-.3-.8-.3-1.5-.7-2.2-1.1a9.89 9.89 0 01-3.6-5.7c-.3-1.1-.3-2.3-.1-3.5.2-1.2.6-2.4 1.2-3.5.5-1.1 1.2-2.2 1.9-3.2.6-.5 1.2-.9 1.9-1.2.8-.4 1.6-.5 2.5-.4l-.6-.1-.6.1c-.2 0-.4.1-.6.1-.2.1-.4.1-.6.2-.6.3.3-.5.8-.6.2-.1.5.2.7.1H183c.2 0 .1.2.2.3.1 0 .3.1.4.1l.5.1c.3 0 .5.1.8.3l.8.6c.2.1.4.2.5.3l.4.1v-.3l.6.4-.6-.4v.3c.9.3 2 .7 2.9 1.1-.6-.3-1.1-.6-1.5-1 .2.2.2.2-.1.1l-.2-.2c.5.2 1 .4 1.4.8l.3.1c.1.1.1.2.1.2l.3.2c0-.1-.3-.4-.6-.6z" class="st2"/><path d="M183.7 502l.3.1c-.4-.2-.7-.3-1.1-.4.2.1.5.2.8.3z" class="st2"/></g><g class="st1"><path d="M642 494.7c-.6.1-1.3.2-1.9.4.3-.1.7-.1 1-.1.3 0 .6-.1.9-.3zM638.5 495.8l-.3.1c-.1 0-.2.1-.2.2.1-.1.3-.2.5-.3zM635.7 497.5c.5-.3.9-.6 1.4-.9-.2.1-.4.2-.7.4s-.4.3-.7.5zM638 496.3c-.2 0-.3 0-.1-.2l-.8.5c.3-.1.6-.3.9-.3zM638 496.3l.6-.1c-.2 0-.4 0-.6.1zM638.1 498.1c-.2.2-.4-.3-.9.1l-1.6 1.3c-.5.4-1 .9-1.5 1.3s-1.5.7-1.9 1.2c-1 1.1-3.5 4-1.8 2.5 2-1.9 4.2-3.7 6.4-5.4 1.8-1.5 3.9-2.5 6.1-3 .6-.1 1.3-.1 1.9-.1-.9-.1-1.7-.1-2.6 0-.7.1-1.4.3-1.9.7-.7.5-1.4.9-2.2 1.4zM655.5 496.5l-1-.1c-.6-.3-1.3-.6-2.1-.7-.7-.2-1.5-.3-2.2-.3l.6.4c.8.1 1 0 .2-.2 1.6.6 3.2 1.1 4.8 1.4.1-.2.1-.3-.3-.5zM656.9 497.2l-1-.2 1 .2z" class="st2"/><path d="M630.6 502c-3.2 2.8-6.2 5.4-9.2 7.8-.1.3-.3.5-.6.7-.3.1-.6.3-.8.4l-1.3 1-.4.4c-.2.2-.1.2.1.2.2-.1.4-.2.6-.2-.1 0-.4.2-.6.2-.3.1-.5.3-.8.5-.4.4-.8.7-1.2 1 .4-.4.8-.7 1.2-1l.7-.6.2-.2-3.1 2.4-.6.5c-.6.6-1.2 1.1-1.9 1.5l-.5.5.1-.1-.2.1c-.8.6-1.5 1.3-2.2 2l-1.2 1.6-.6.3c-.1.4-.3.7-.5 1l1.2-.8c.6-.3.7-1.4 1.5-1.6-.9.2-.9 1.3-1.5 1.6l-1.2.8c-.6.9-1.3 1.7-2 2.4.4-1 1.1-1.9 2-2.4.2-.3.4-.6.5-1l.6-.3 1.2-1.6c-1.5 1.3-2.8 2.8-3.9 4.4-1 1.4-1.6 2.9-2 4.5-.3 1.6-.3 3.3.2 5 1 3.1 2.8 5.8 5.1 8 1.1 1.2 2.2 2.2 3.5 3.2.6.5 1.3.9 1.9 1.4l1 .7 1 .6c2.8 1.7 5.9 3 9.2 3.7 7 1.8 14.4 1.3 21.1-1.4a31 31 0 008.8-5.5c2.5-2.3 4.7-4.9 6.6-7.8 3.7-5.9 6.2-12.4 7.5-19.2.7-3.7.4-7.5-.6-11.1-.9-3-2.6-5.8-5-7.9l-2.1-1.5c-1.2-.7-2.5-1-3.9-1-.8.1-1 .3-1.1.7-.1.6.7 1.5.8 1.6 1.5 1.3 3 2.7 4.3 4.2 1.9 2.2 2.9 5.1 2.8 8-.1-1.3-.1-1.8.1-1.6.3.7.5 1.4.6 2.1.4 2.9 0 5.8-1 8.5-1.5 3.5-3 7.7-5 11.9s-4.8 8.3-8.5 10.8c-.5.3-.9.7-1.3 1l-1.5.9c-1.1.7-2.2 1.3-3.3 1.8-6.2 2.4-13.1 2.9-19.6 1.3-3.3-.9-6.4-2.3-9.2-4.1l-1.1-.7c-.3-.3-.7-.5-1-.8-.7-.5-1.3-1.1-2-1.7-.6-.6-1.2-1.2-1.8-1.9-.6-.7-1.1-1.4-1.5-2.1-.9-1.3-1.6-2.7-2-4.2-.3-1.4-.3-2.8.2-4.1.8-2 2.6-3.8 4-5.2 2.2-2.2 4.2-4.1 6.2-5.9-2.3 2-3.9 3.4-6.1 5.7-1.5 1.5.6-1.5 1.6-2.6.4-.5 1.5-.7 1.9-1.2 1-.9 1.9-1.8 3-2.9.4-.5.7 0 .9-.3 1.5-1.3 2.3-2.8 3.4-3.5l2.3-1.6c.4-.3.9-.7 1.3-1.1l.8-.8c-.2.1-.5.1-.7 0l1.5-1.1-1.5 1.1c.2.1.5.1.7 0 1.8-2 4-4.2 6-6.1h-.1c-1.2 1.1-2.6 2.1-4 3 .6-.4.7-.2 0 .3l-.7.2c1-1.1 2.1-2.1 3.4-2.8l.6-.7c.4-.2.5-.1.7-.1l.7-.6c-.5.2-1.1.5-1.5.8l-1.2.6z" class="st2"/><path d="M617.5 513l.6-.5-2.6 2c.7-.4 1.4-.9 2-1.5z" class="st2"/></g><path d="M632.7 529.8c.3 5.8 5.2 10.3 11 10 5.4-.2 9.8-4.6 10-10 0-5.8-5.4-13.2-10.5-10.5-7.6 4-10.5 4.7-10.5 10.5z" class="st3"/><g class="st1"><path d="M634.5 524.9c.1-.2.3-.3.4-.5-.1.1-.2.1-.3.2 0 .1-.1.2-.1.3zM635.4 524.1l.1-.1.1-.1zM636.3 523.4c-.2.1-.3.2-.5.3.2-.1.3-.2.5-.3zM635.5 523.8c.1 0 .1 0 0 0l.3-.1c-.1.1-.2.1-.3.1zM635.5 523.8l-.2.1.2-.1zM635.2 523c.1-.1.2.1.4-.1.4-.4.8-.7 1.2-1 .2-.2.6-.1.8-.3.5-.3 1.5-1.3.8-.9-.9.5-1.8 1.1-2.7 1.7-.7.6-1.4 1.3-1.9 2.1-.2.2-.3.4-.5.6.2-.3.5-.5.7-.8.4-.4.8-.8 1.2-1.3zM632.9 529.2l-.1-.3c.2-.5.3-1 .3-1.5l-.2.2c0 .3 0 .3.1.1-.2.6-.3 1.2-.3 1.8.1-.1.2-.1.2-.3zM632.7 529.8v-.4.4zM638.3 522c1.3-.7 2.6-1.4 3.9-2 .1-.1.1-.2.3-.2.1 0 .2 0 .3-.1l.5-.3.2-.1c.1-.1 0-.1 0-.1.1 0 .2 0 .3-.1.2-.1.3-.2.5-.2-.2 0-.4.2-.5.2l-.3.2-.1.1c.4-.2.8-.3 1.3-.4l.3-.1c.3-.1.6-.1.8 0H646.1l1 .3c.2 0 .5.1.7.2l.2.2c.1 0 .3 0 .4.1-.1-.2-.2-.3-.3-.5s-.6 0-.8-.3c.2.3.6.1.8.3s.2.3.3.5c.3.2.6.4.8.7-.3-.2-.6-.4-.8-.7-.1-.1-.3-.1-.4-.1 0-.1-.1-.1-.2-.2-.2-.1-.5-.1-.7-.2.6.2 1.2.6 1.7 1a13.18 13.18 0 014.3 8.6c.1 1.1 0 2.2-.3 3.3-.6 2.3-2.1 4.3-4.1 5.5-1.8 1.2-4 1.7-6.2 1.6-1.1-.1-2.1-.3-3-.8-1-.5-1.8-1.2-2.5-2s-1.3-1.6-1.8-2.5c-.5-.9-.8-1.9-1-2.9-.3-1-.6-1.3-1-1.3-.3 0-.5.2-.6.4-.2.4-.3.7-.3 1.2 0 .4 0 .8.1 1.2.3 1.2.7 2.4 1.2 3.5-.5-1-.1-.7.4 0s1.5 1.9 2.2 2.8a7 7 0 004.8 2.6c2 .3 4.1.1 6.1-.5 1-.3 2-.8 2.9-1.5 2.6-1.7 4.4-4.3 4.9-7.4.3-1.5.2-3.1-.1-4.5-.3-1.5-.8-3-1.5-4.3-.7-1.3-1.8-2.5-3-3.4-.7-.7-1.6-1.3-2.5-1.8a5.5 5.5 0 00-3.8-.2l.9-.2h.9c.3 0 .6 0 .9.1.3 0 .7.1 1 .3.9.4-.7 0-1.3 0-.2 0-.7-.3-.9-.2h-.4l-.4.1c-.3.1-.6.2-.8.3-.2.1-.3-.1-.4 0-.2.1-.4.2-.5.3-.1.1-.2.2-.4.3-.2.2-.4.3-.7.5l-.9.4c-.2.1-.4.2-.5.3l-.3.2c.1 0 .2.1.3.1l-.6.2.6-.2c-.1-.1-.2-.1-.3-.1l-2.6 1.8c.5-.3 1.1-.6 1.7-.8-.3.1-.3 0 0-.2h.3c-.4.3-.9.6-1.4.7l-.3.2h-.3l-.3.2c.3 0 .6 0 1-.1z" class="st2"/><path d="M643.8 519.1l-.3.1c.3-.2.7-.3 1.1-.3-.2 0-.5 0-.8.2z" class="st2"/></g><g class="st1"><path d="M91.1 339.3c0 2.3.1 4.7.1 7 0-1.2.1-2.3.2-3.5.1-1.2 0-2.4-.3-3.5zM91.4 352.8v1.2l.1 1.1-.1-2.3zM92.4 364.9c-.1-2.2-.2-4.2-.4-6.2 0 2.1.1 4.2.4 6.2zM92 355.2c-.1.8-.2 1.1-.4-.1l.3 3.7c0-1.4 0-2.6.1-3.6zM92 355.2c.1-.7.2-1.9.2-2.3 0 .7-.1 1.5-.2 2.3zM95.6 358.1c.2 1.2-.8 1-.4 3.4.6 5.6 1.4 10.4 1.9 15.7.4 2.4-.2 6.3.3 8.6.8 5.6 4.3 19.8 3 11.3-1.9-12.7-3-21-4-32.4-1-9.3-1.9-18.3-2.3-27.9-.1-2.7 0-5.2 0-7.7-.1 3.3-.3 6.7-.3 10.4-.3 5 1.1 10.9 1.8 18.6zM93.2 287.8v3.7c-1.1 5.4-1.1 11.1-1.1 16.8l.6-2.5c.1-3.2-.2-3.6-.5-.8.9-6.6 1.3-12.8 1.8-19.2-.3.3-.6.2-.8 2zM94.3 282l-.3 3.8.1-.1c.1-1.3.1-2.5.2-3.8v.1z" class="st2"/><path d="M95.7 390.6c1.9 15.3 4.7 30.5 8.4 45.5.5 1 .9 2.1 1.2 3.3.1 1.2.3 2.3.6 3.5.6 2.1 1.2 4.2 1.8 6.2.2.7.5 1.4.8 2.2v.1c.5 1.1.5.7.4 0s-.3-1.6-.3-2.3c0 .4.2 1.5.3 2.3.2 1 .5 2.1.8 3.4.7 1.9 1.4 3.8 2.1 5.8-.8-1.9-1.5-3.9-2.1-5.8l-1.2-3.4c-.1-.3-.3-.6-.4-1 .8 2.4 1.5 4.7 2.2 7.1s1.6 4.7 2.4 7c.4 1 .8 2.1 1.2 2.9.7 1.7 1.5 3.3 2.1 4.8.5 1.3 1 2.6 1.3 4l1.1 2.4-.1-.5.3.9c.7 1.7 1.5 3.4 2.4 5.1s1.6 3.4 2.5 5l2 3.1 2.1 3.1.9 2.4c1 1 1.8 2.1 2.6 3.3-.8-1.9-1.6-3.6-2.2-5.2-.6-1.3-1.3-2.4-2.2-3.5.9 1 1.7 2.2 2.2 3.5.7 1.6 1.4 3.3 2.2 5.2.5.7 1 1.5 1.6 2.4s1.1 1.7 1.7 2.5 1.1 1.8 1.6 2.6 1.1 1.7 1.5 2.5a37.51 37.51 0 01-5.2-7.6c-.4-.8-.8-1.6-1.1-2.4-.8-1.2-1.7-2.3-2.6-3.3l-.9-2.4-2.1-3.1-2-3.1c3.4 6.7 7.3 13.1 11.5 19.2 6.9 10 15.1 18.9 24.5 26.6 9.3 7.6 19.7 13.7 30.8 18.1 11.3 4.3 23.1 7.1 35.1 8.3 12.4 1.3 25 1 37.4-1 6.8-1.2 13.5-3 20-5.4 6.4-2.5 12.5-5.5 18.3-9.2 5.7-3.6 11-7.8 15.9-12.4 2.5-2.2 4.7-4.7 7-7.2l3.2-3.8c1.1-1.3 2-2.6 3-3.9 7.7-10.4 14-21.7 18.8-33.7a236.57 236.57 0 0011.3-35.9c1.4-6.1 2.6-12.2 3.8-18.3s2.1-12.4 2.9-18.6c1.7-12.5 3-25.2 4.1-38.3.9-12.9 1-25.8.5-38.7-.5-14.3-1.7-28.4-2.7-38-2.1-12.9-4.1-15.8-5.3-15.4s-1.8 4.2-1.9 4.8c-.8 8-.5 15 0 24.1.8 12 .9 24.1.3 36.2.2-5.5.4-7.2.7-6.4.4 2.9.6 5.9.6 8.8.1 4.7 0 10.7-.3 16.8-.3 5.8-.9 11.6-1.9 17.4-2.6 14.7-4.5 32.5-7.8 51-1.6 9.3-3.7 18.5-6.3 27.6-2.5 8.9-5.7 17.6-9.7 26l-1.5 3-1.5 3c-1 2.1-2.2 4.1-3.3 6.2-.6 1.1-1.2 2.1-1.8 3.1s-1.3 2.1-1.9 3.2l-2.1 3.2-1.1 1.6c-.4.5-.8 1.1-1.2 1.6-7.9 10.8-17.9 20-29.2 27l-2.1 1.2-2.1 1.2-4.4 2.2-4.5 2c-.7.3-1.5.6-2.3.9l-2.3.8c-.8.3-1.5.6-2.3.8l-2.4.7c-1.6.4-3.1 1-4.8 1.3l-4.8 1.1-4.9.8c-6.6 1-13.4 1.4-20.1 1.2H234c-.9 0-1.7-.1-2.6-.1l-5.1-.3-5.1-.6-2.6-.3-2.5-.4c-1.7-.3-3.4-.5-5.1-.9l-5.1-1.3c-1.7-.4-3.3-1-5-1.4-.8-.3-1.7-.5-2.5-.8l-2.5-.9c-6.7-2.3-13.1-5.3-19.2-9-6.2-3.7-12.1-7.8-17.7-12.3-5.2-4.2-10-8.8-14.4-13.9l-1.2-1.4-1.1-1.4-2.2-2.9c-1.4-2-2.7-4-4-6s-2.4-4-3.5-5.9-2.1-3.7-3.1-5.4c-5.3-9.7-10-19.6-14.2-29.8 1 2.7 2 5.1 3 7.5s2 4.6 3.1 7 2.2 4.6 3.4 7l1.9 3.8 2.2 4c1 1.9 1.3 2.5 1.1 2.3-.7-.7-1.3-1.6-1.9-2.4-2.1-3-4-6.2-5.8-9.4-1.2-2.1-1.8-6-2.9-8.1-.5-1.2-1-2.4-1.6-3.5l-1.5-3.5c-1.1-2.3-2.1-4.7-3.2-7.3-1-2.2 0-2.3-.4-3.4-2.6-7.2-5.3-12.6-6.3-17.4l-1.1-5.2-.9-5c-.4-2-.8-4.1-1.3-6.2-.4-1.3-.7-2.7-1-4.1 0 .7-.2 1.5-.6 2.1-.3-2-.7-4.9-1-6.9.3 2 .6 4.9 1 6.9.4-.6.6-1.3.6-2.1-2.5-9.9-4.7-21.4-6.2-32.2l-.1.2c.8 6.3 1.5 12.5 1.9 19.2-.2-2.9.1-2.6.7.7 0 .9-.1 1.7-.1 2.5-1.2-5.6-2.3-11.2-2.2-16.6l-.8-3.6c-.1-1.8.2-1.8.5-2.2l-.5-3.7c-.1 1.3-.1 4.1 0 6.6s.4 4.7.4 4.7z" class="st2"/><path d="M109.6 454.8l-1-2.9c1.2 4 2.5 7.9 3.9 11.8-.3-1.4-.6-2.7-1.1-4-.5-1.5-1.2-3.2-1.8-4.9z" class="st2"/></g><g class="st1"><path d="M748.1 341.3c-.1 2.3-.1 4.6-.2 7 .1-1.2.2-2.3.4-3.5.1-1.2 0-2.3-.2-3.5zM747.6 354.7c0 .4 0 .8-.1 1.2s0 .7 0 1.1l.1-2.3zM747.1 366.8c.2-2.1.3-4.2.3-6.2-.1 1.8-.2 3.8-.3 6.2zM747.9 357.2c-.2.7-.3 1.1-.4-.1 0 1.2 0 2.4-.1 3.7.2-1.4.4-2.6.5-3.6zM747.9 357.2c.2-.7.3-1.9.5-2.2-.2.6-.3 1.4-.5 2.2zM751.2 360.4c0 1.2-.9.9-.8 3.3-.1 5.7 0 10.6-.5 16 0 2.5-1.5 6.2-1.5 8.6-.3 5.7-1.2 20.4 0 11.9 1.6-12.9 2.2-21.4 2.8-33 .3-9.5.2-18.6 0-28.2 0-2.7.1-5.2.2-7.8-.2 3.3-.3 6.7-.5 10.5-.6 4.9.5 10.9.3 18.7zM747.2 290l.6 3.6c-.1 5.6.1 11.2.8 16.8.1-.8.2-1.7.4-2.5-.2-3.2-.5-3.6-.6-.7.3-6.4 0-12.9-.7-19.3-.2.3-.5.3-.5 2.1zM747.3 284.1c.2 1.2.3 2.5.4 3.7l.1-.1c-.2-1.3-.3-2.5-.5-3.7v.1zM745.5 392.5c-1.8 15.3-4.7 30.5-8.5 45.4 0 1.2-.2 2.3-.6 3.4-.5 1.1-.9 2.2-1.2 3.3-.6 2.1-1.3 4.1-1.9 6.2l-.6 2.2v.1c-.3 1.2 0 .9.3.2s.7-1.5 1-2.1c-.2.4-.6 1.4-1 2.1-.4.9-.9 2-1.3 3.2-.5 1.9-1.2 3.9-2 5.9.7-2.3 1.4-4.2 2-5.9.3-1.2.7-2.4 1-3.5.1-.3.2-.7.2-1-.8 2.4-1.5 4.7-2.4 7s-1.6 4.6-2.6 6.9c-.4 1.1-.8 2.1-1 2.9-.6 1.7-1.2 3.4-1.8 4.8-.5 1.3-1.1 2.5-1.9 3.7-.4.8-.8 1.6-1.1 2.4l.3-.4c-.2.3-.4.6-.5.9-.8 1.7-1.6 3.4-2.5 5s-1.7 3.3-2.6 5c-.5 1.1-1 2.2-1.5 3.4s-1.1 2.2-1.7 3.4l-1.7 1.9c-.5 1.3-1.1 2.6-1.8 3.8 1.3-1.5 2.6-2.9 3.6-4.3.8-1.1 1.5-2.4 1.9-3.7.5-1.4 1.3-2.8 2.3-3.9-1 1.1-1.8 2.4-2.2 3.9-.5 1.3-1.1 2.5-1.9 3.7-1 1.4-2.3 2.8-3.6 4.3-.4.8-.9 1.6-1.5 2.4s-1.2 1.6-1.8 2.5-1.2 1.6-1.9 2.4-1.3 1.5-2 2.1c1.2-1.9 2.4-3.6 3.6-5.2.6-.8 1.2-1.5 1.8-2.2s1.1-1.4 1.7-2c.7-1.2 1.3-2.5 1.8-3.8l1.7-1.9c.6-1.1 1.1-2.2 1.7-3.4s1-2.3 1.5-3.4c-3.5 6.5-7.5 12.7-11.8 18.7-7 9.6-15.2 18.2-24.5 25.6-9.1 7.2-19.3 13.1-30.1 17.3-11 4.1-22.5 6.7-34.2 7.8-12.1 1.2-24.3.7-36.2-1.5-6.5-1.3-12.8-3.1-19-5.6-6-2.5-11.7-5.6-17.1-9.2a90.6 90.6 0 01-14.6-12.3c-2.2-2.2-4.3-4.6-6.3-7l-2.9-3.7c-1-1.2-1.8-2.6-2.7-3.8-6.9-10.2-12.7-21.1-17.1-32.6-2.2-5.6-4.2-11.4-6-17.2s-3.2-11.7-4.6-17.6c-5.3-24.2-7.8-49-7.4-73.8 0-9.9 0-23.9.5-37.9s1.3-27.9 2.2-37.3c.5-12.7-.4-15.9-1.7-15.8s-2.8 3.5-3 4.1c-2.7 7.6-3.8 14.7-4.7 23.8s-1.6 20.2-2.9 36.4c.4-5.5.7-7.2.9-6.4.3 3 .4 5.9.3 8.9 0 4.7 0 10.8-.1 16.9s-.2 12.5-.5 17.7c-1 15.2.5 33.6 4.3 52.7 3.8 19.2 9.5 38 17.1 56.1.5 1.1.9 2.2 1.4 3.3l1.6 3.3c1 2.2 2.3 4.4 3.5 6.7.6 1.1 1.3 2.3 2 3.4l2.1 3.4 2.3 3.5 1.2 1.8 1.3 1.7c8.4 12.4 19.3 22.9 32 30.8l2.4 1.4c.8.5 1.6 1 2.4 1.4l5 2.5 5.1 2.2c.8.4 1.7.7 2.6 1l2.6.9c.9.3 1.7.6 2.6.9l2.7.8c1.8.5 3.5 1 5.4 1.4l5.4 1.1 5.5.8c7.3.9 14.7 1.3 22 1l2.8-.1c.9 0 1.8-.1 2.8-.2l5.5-.4 5.5-.7c.9-.1 1.8-.2 2.8-.4l2.8-.5c1.8-.4 3.7-.6 5.5-1.1l5.5-1.3c1.8-.5 3.6-1.1 5.5-1.6.9-.3 1.8-.5 2.7-.8l2.7-1c7.3-2.6 14.4-5.9 21.1-9.8 6.8-4.1 13.1-8.9 18.8-14.4 5.2-5 9.9-10.4 14.2-16.1l1.2-1.5 1-1.5 2.3-3c1.5-2 3-4.1 4.4-6.2s2.8-4.1 4-6 2.4-3.9 3.3-5.7c5.5-10.1 9.9-20.7 13.3-31.6-.9 2.8-1.9 5.3-2.8 7.9s-1.9 4.9-2.9 7.3-2 4.9-3.3 7.5l-1.9 4-2.2 4.2c-1 2-1.5 2.5-1.4 2.2.3-1 .7-2 1.1-3l4.4-10.5c.8-2.3 3.4-5.4 4.2-7.8.5-1.2 1-2.5 1.5-3.7.4-1.2.8-2.5 1.2-3.7.8-2.5 1.5-5.1 2.4-7.8.6-2.4 1.4-1.8 1.7-3 2.3-7.5 2.6-13.7 4.2-18.4l1.5-5.2 1.3-4.9c.5-2 1-4.1 1.4-6.3l.6-4.2c-.3.7-.7 1.3-1.3 1.7.4-2 1.2-4.8 1.6-6.8-.4 2-1.2 4.8-1.6 6.8.6-.4 1.1-1 1.3-1.7 1.4-10.2 2.6-22 3.4-32.9l-.1.1c-.5 6.4-1.6 12.8-3.1 19.1.6-2.8.8-2.4.4.8l-.9 2.4c.5-5.6 1.3-11.1 2.5-16.6 0 0 .1-2.5.1-3.7.3-1.8.6-1.7.9-2l.3-3.8c-.4 1.3-.9 4-1.4 6.4l-1.1 4.2z" class="st2"/><path d="M731.6 456.7c.2-.8.6-1.9.9-3-1.3 3.9-2.7 7.8-4.2 11.7.7-1.2 1.3-2.5 1.7-3.8.6-1.5 1.1-3.2 1.6-4.9z" class="st2"/></g></svg>