<svg xmlns="http://www.w3.org/2000/svg" id="Layer_1" x="0" y="0" version="1.1" viewBox="0 0 841.9 841.9" xml:space="preserve"><defs/><style>.st1{opacity:.85}.st2{fill:#020202}.st3{fill:#040505}.st4{fill:#090a0a}.st5{fill:#060707}</style><path fill="#9d6b53" d="M0 0h841.9v841.9H0z"/><g class="st1"><path d="M240.4 397.4l-.9-.2c.2.1.3.1.4.2.2.1.3 0 .5 0zM238.6 397H238.3h.3zM237 397.1h.8c-.2-.1-.5-.1-.8 0zM238.2 397.2c-.1-.1-.1-.2 0-.2h-.5c.2.1.4.2.5.2zM238.2 397.2c.1.1.2.1.3.2-.1 0-.1-.1-.3-.2zM237.8 398.9c-.1 0-.1-.4-.4-.4-.7.2-1.2.3-1.9.4-.3.1-.8-.4-1.1-.2-.4.2-.8.4-1.2.7-.3.3-.4.5 0 .3.7-.2 1.3-.4 1.9-.5l.9-.2.9-.1c.6-.1 1.1-.1 1.6-.2h1.7l.9.3c-.4-.2-.7-.4-1.1-.6-.5 0-1.4.4-2.2.5zM246.1 400.9l-.4-.2c-.1-.4-.4-.7-.7-.9-.3-.2-.6-.4-1-.5l.2.4c.4.2.5.1.2-.2.2.4.5.7.8 1l.9.9c0-.2.2-.3 0-.5zM246.5 401.6l-.4-.3.4.3z" class="st2"/><path d="M233.7 397.8c-1.9.4-3.8 1.1-5.6 2-.1.1-.1.3-.3.3-.2 0-.3 0-.5.1l-.7.4-.2.2c-.1.1 0 .2.1.2h.3-.3c-.2 0-.3.1-.4.1-.2.2-.4.4-.6.5.2-.2.4-.4.6-.5l.4-.3.1-.1c-.6.3-1 .7-1.6 1.1l-.3.3c-.3.4-.6.7-1 .8l-.2.2h.1l-.1.1c-.4.3-.7.7-1 1.1l-.4.9-.4.1c0 .2 0 .4-.1.6.3-.1.5-.2.7-.4s0-.9.6-.9c-.6 0-.3.8-.6.9s-.5.2-.7.4c-.2.5-.5.9-.9 1.3.1-.5.4-1 .9-1.3.1-.2.1-.4.1-.6l.4-.1.4-.9c-.3.4-.6.7-.9 1.1-.3.4-.6.8-.8 1.3-.8 1.4-1.2 3.1-1.2 4.7s.4 3.2 1.1 4.7c.7 1.4 1.6 2.8 2.6 4 1.1 1.3 2.4 2.4 3.8 3.3 3.2 1.9 6.9 2.6 10.6 2.1 1.7-.2 3.4-.6 5.1-1.2.8-.3 1.6-.6 2.3-1l1.2-.6c.4-.2.8-.4 1.1-.7a14.28 14.28 0 006.2-9.6c.3-2 0-4-.7-5.9-.6-1.8-1.5-3.5-2.7-5-1.4-1.3-2.3-1.1-2.7-.7-.3.4-.5.8-.6 1.3 0 1.1.2 2.1.7 3.1.7 1.3 1 2.7 1 4.1 0-1.3.4-.9.7.1.4 1.3.2 2.7-.6 3.8-1.2 1.4-1.9 2.6-3.2 4-.3.3-.7.6-1.1 1s-.8.6-1.3.8c-.9.5-1.9 1-3 1.2-1.1.3-2.2.6-3.3.8-2.8.4-5.7-.1-8.3-1.5-1.3-.7-2.4-1.7-3.2-2.9-1-1.2-1.7-2.5-2-4-.5-1.3-.6-2.7-.5-4.1.3-.9.9-1.8 1.6-2.5.8-1.1 1.6-2.1 2.4-3-.9.8-1.7 1.8-2.4 2.8-.3.4-.3.2-.2-.2.1-.2.1-.5.2-.7l.3-.6c.1-.3.8-.2.9-.5.2-.2.4-.5.6-.7.2-.2.4-.5.6-.8s.4.1.5 0c.7-.6.9-1.5 1.6-1.7.4-.2.8-.3 1.2-.4.2-.1.5-.2.7-.3l.3-.2c-.2-.1-.3-.2-.4-.4.2-.1.6-.1.9-.1-.2.1-.6.1-.9.1.1.2.2.3.4.4 1.1-.8 2.4-1.3 3.7-1.7-.8.2-1.6.3-2.4.2.4 0 .4.1 0 .3l-.4-.1c.3-.2.7-.3 1-.4.4-.1.7-.1 1.1 0l.4-.2c.2 0 .2.2.3.3l.5-.1-.9-.3-.7.1z" class="st2"/><path d="M226 401.2l.3-.3c-.4.3-.9.6-1.3.9.4 0 .7-.3 1-.6z" class="st2"/></g><ellipse cx="235.1" cy="409.3" class="st3" rx="7.5" ry="6"/><g class="st1"><path d="M229 406.3l.3-.3c-.1 0-.1.1-.2.1s-.1.1-.1.2zM229.6 405.7v-.1zM230.1 405.2c-.1.1-.2.1-.3.2.1 0 .2-.1.3-.2zM229.6 405.5s.1 0 0 0l.2-.1c-.1.1-.1.1-.2.1zM229.6 405.5h-.2.2zM229.2 404.8c.1-.1.2.1.3 0 .2-.3.5-.5.8-.8.1-.1.4 0 .6-.1.3-.2 1.1-.9.5-.7-.7.3-1.3.7-1.8 1.2-.4.5-.8 1-1.1 1.5-.1.1-.2.3-.3.4.1-.2.3-.3.5-.5s.1-.7.5-1zM227.8 408.9l-.1-.2c.2-.3.3-.6.3-1l-.2.1c-.1.2 0 .2.1.1-.2.3-.3.7-.3 1.1.1 0 .2 0 .2-.1zM227.6 409.3v-.2.2z" class="st4"/><path d="M231.2 404.2c.8-.4 1.7-.7 2.7-.8.1-.1.1-.1.2-.1l.2.1h.5c.1 0 .1-.1 0-.1l-.1-.1.1.1c.1 0 .1.1.2.1h.4H234.7h1.1c.2 0 .4 0 .6.1h.2l.6.2h.5l.1.1h.3l-.3-.3c-.1-.1-.4.1-.5-.1.1.3.4 0 .5.1l.3.3c.2 0 .5.2.6.4-.2 0-.5-.2-.6-.4h-.3l-.1-.1h-.5c.4.1.8.3 1.2.5 1.2.6 2.3 1.5 3 2.7.7 1.2.8 2.6.3 3.9-.6 1.3-1.7 2.4-3.1 2.9-1.3.5-2.6.7-4 .6-1.3 0-2.6-.6-3.6-1.5-.4-.4-.8-.9-1.2-1.3-.3-.4-.6-.9-.7-1.5-.3-.5-.6-.7-.9-.7-.2 0-.4.1-.6.3-.4.5-.5 1.1-.3 1.6.3.8.6 1.6 1 2.3-.4-.7-.1-.5.4-.1.6.5 1.1 1.1 1.6 1.7.8.9 2 1.5 3.3 1.6 1.3.1 2.7 0 4-.3.7-.1 1.4-.4 2-.7 2-.8 3.5-2.5 4.1-4.5.6-2.2 0-4.6-1.6-6.2a5.3 5.3 0 00-2.7-1.6c-.6-.3-1.2-.6-1.8-.8-.7-.2-1.5-.2-2.3-.1.7 0 1.5 0 2.2.2.6.1-.5.2-.9.2-.2 0-.4-.3-.6-.2-.4 0-.7 0-1.1.1-.1 0-.1-.2-.2-.2-.5.1-.9.4-1.2.4h-.7c-.1 0-.3 0-.4.1-.1 0-.2.1-.2.1l.2.2h-.4.4c0-.1-.1-.2-.2-.2-.6.3-1.2.7-1.8 1.1.3-.2.7-.4 1.1-.4-.2 0-.2 0 0-.1l.2.1a3 3 0 01-1 .4l-.2.2c-.1 0-.1 0-.2-.1l-.2.1c.6-.3.9-.3 1.1-.3zM235.1 403.3h-.2.7-.5z" class="st4"/></g><g class="st1"><path d="M607.8 400.8l.8-.1c-.2 0-.3 0-.5-.1-.2 0-.2.1-.3.2zM609.4 400.6H609.7h-.3zM610.8 400.4c-.3-.1-.5-.1-.8 0h.8zM609.6 400.3c.1.1.2.1 0 .2l.4-.1c-.1 0-.2 0-.4-.1zM609.6 400.3c-.1-.1-.2-.1-.3-.1l.3.1zM609.9 398.6c.2-.1.2.4.5.3.7-.2 1.4-.3 2.2-.3.3-.1.8.5 1.1.5.5 0 1.1-.1 1.6-.1s.7-.1.1-.3l-2.3-.3h-2.2c-.6.1-1.3.2-1.9.4l-1.8.6c-.3.1-.7.2-1 .2l1.4-.2c.6.1 1.2-.6 2.3-.8zM602.2 403.5l.2-.4c.3-.1.7-.3.9-.5.3-.2.5-.5.8-.7h-.4c-.3.3-.3.4.1.3-.4.1-.8.3-1.1.5-.3.2-.6.5-.9.8.1 0 .2.2.4 0zM601.5 403.9l.3-.4-.3.4z" class="st2"/><path d="M614.1 400.3c1.9.4 3.8 1 5.5 2 .2 0 .3-.1.5.1.1.1.2.3.3.4l.7.5.3.1c.2 0 .2 0 .1-.2-.1-.1-.1-.2-.2-.3 0 .1.1.2.2.3.1.1.2.3.3.4.2.1.4.3.6.5-.2-.1-.5-.3-.6-.5-.1-.1-.3-.1-.4-.2h-.1c.5.4 1 .8 1.4 1.2.1.1.2.2.3.2.4.3.8.5.8.9l.2.2v-.1.1c.3.3.6.7.9 1.1.3.2.5.4.8.6v.4c.2.1.4.2.5.3v-.8c0-.4-.8-.3-.7-.9-.1.6.7.4.7.9v.8c.3.4.5.9.5 1.4-.3-.4-.5-.9-.5-1.4-.1-.1-.3-.3-.5-.3v-.4c-.2-.2-.5-.4-.8-.6.3.4.5.7.7 1.1l.6 1.2c.6 1.3.8 2.7.8 4.1-.1 1.4-.5 2.8-1.1 4-.7 1.3-1.5 2.5-2.5 3.5-1 1.1-2.1 2-3.4 2.7-2.8 1.4-6 1.6-9 .7-1.4-.4-2.8-.9-4.2-1.5-.7-.3-1.3-.6-2-.9-.3-.2-.6-.3-.9-.5-.3-.2-.6-.3-.8-.5-2.2-1.4-3.3-4-2.9-6.5.2-1.2.5-2.5.8-3.7.4-1.3 1-2.5 1.7-3.6.5-1.3.2-2.1-.3-2.5-.4-.3-.8-.4-1.3-.4a4 4 0 00-2.8 1.9l-.5.8-.6 1-.6 1.2c-.2.4-.5.9-.7 1.4.7-1.5.8-.8.5.5s-.5 3.3-.8 4.9c-.3 1.3-.1 2.7.5 3.9.1.3.3.7.5 1l.6.9c.5.6 1 1.2 1.5 1.7.6.5 1.2.9 1.8 1.3.6.4 1.3.7 1.9 1l3.6 1.6c1.3.6 2.7.9 4.1 1.2 2.1.5 4.2.7 6.3.4 2.2-.3 4.3-1.1 6.1-2.3 3.6-2.6 6.3-6.3 7.5-10.5.3-1.2.3-2.5.1-3.7-.2-1.1-.6-2.1-1.1-3.1-.5-1.3-1.1-2.6-1.9-3.8-1-1.3-2.2-2.4-3.6-3.1 1.3.9 2.5 1.9 3.5 3.1.8 1-1-.4-1.6-.8-.3-.2-.3-.9-.6-1.1-.3-.2-.6-.5-.9-.6l-1-.5c-.3-.1 0-.5-.2-.5-1-.5-2-.5-2.5-.9-.4-.3-.8-.6-1.2-.8-.2-.2-.5-.3-.8-.4l-.6-.1c.1.2.1.4.1.6-.2-.1-.6-.4-.8-.5.2.1.6.4.8.5 0-.2 0-.4-.1-.6-1.5-.3-2.9-.4-4.4-.4.9 0 1.7.3 2.4.8-.3-.2-.3-.3.2-.2l.2.3c-.4 0-.7-.1-1.1-.1a3 3 0 01-1-.4l-.5.1c-.2-.1-.2-.2-.2-.4h-.5c.3.2.5.3.8.5l.6.3z" class="st2"/><path d="M621.6 403.6c-.1-.1-.2-.1-.3-.2.4.3.8.7 1.2 1-.1-.4-.5-.6-.9-.8z" class="st2"/></g><ellipse cx="612.7" cy="411.4" class="st3" rx="7.5" ry="6"/><g class="st1"><path d="M619.3 408c-.1-.1-.2-.2-.3-.4 0 .1.1.1.1.2.1.2.1.2.2.2zM618.8 407.3h-.1l-.1-.1zM618.1 406.9c.1.1.2.2.3.2-.1-.1-.2-.2-.3-.2zM618.5 407.3c0-.1 0-.1 0 0l-.1-.2c.1.1.1.1.1.2zM618.5 407.3v.2c.1-.1.1-.1 0-.2zM617.8 407.8c-.1 0 .1-.2 0-.2-.3-.1-.6-.2-.8-.4s-.2-.4-.3-.4c-.3-.1-1.2-.1-.8.1.6.2 1.1.5 1.6.8.5.2.9.5 1.3.9.1.1.2.2.2.4-.1-.2-.1-.4-.2-.5-.1-.4-.6-.5-1-.7zM620.4 411l-.1-.2c.1-.3 0-.7-.2-1l-.1.2c.1.2.2.2.1 0 0 .4 0 .8.1 1.2.1 0 .2 0 .2-.2zM620.2 411.4v-.2.2z" class="st4"/><path d="M616.6 406.2c-.9-.4-1.8-.7-2.7-.8-.1 0-.1.1-.2 0-.1 0-.1-.1-.2-.1H612.9c-.1 0 0 .1 0 .1l.1.1-.1-.1-.2-.1h-.4H613h-1.1c-.2.1-.4.1-.6 0H611l-.7.1c-.1.1-.3.2-.4.3l-.2-.1-.2.2.4.1c.2.1.3-.3.5-.2-.2-.2-.3.2-.5.2l-.4-.1c-.2.1-.5.2-.7.2.2-.2.5-.2.7-.2.1-.1.2-.1.2-.2l.2.1c.1-.1.3-.2.4-.3-.5.1-.9.2-1.3.4a6.5 6.5 0 00-3.5 2.8 5.2 5.2 0 00-.5 4.7c.6 1.7 1.8 3.1 3.4 4 1.5.8 3.2 1.2 4.9 1.1 1.7-.1 3.5-.5 5.1-1.2.9-.4 1.6-1.1 2.1-1.9.6-.8 1-1.7 1.1-2.7 0-1-.5-1.3-.8-1.2-.2 0-.4.1-.6.3-.4.3-.7.8-.8 1.2-.3.6-.7 1.1-1.3 1.5.5-.3.5-.1.1.3-.4.5-1 .8-1.7.9-.9.1-1.8.2-2.7.4-1 .2-2 .2-3-.1-.5-.2-1-.3-1.4-.6-1.1-.7-2-1.7-2.5-2.9-.4-1.2-.1-2.6.8-3.6.4-.6 1-1.1 1.5-1.6.5-.2.9-.4 1.4-.5.7-.2 1.2-.3 1.8-.5-.6.1-1.2.2-1.8.4-.4.1.2-.4.5-.5.1-.1.4.2.5.1.3 0 .5-.2.9-.2.1-.1.1.2.2.1.4 0 .8-.3 1.1-.2.2.1.4.1.6.2.1 0 .2.1.3.1h.3v-.3c.1 0 .3.1.4.2-.1 0-.2-.1-.4-.2v.3c.7 0 1.3.1 1.9.4-.4-.2-.7-.4-1-.6.2.1.1.2-.1.1l-.1-.2c.4 0 .7.2.9.4h.2c.1.1 0 .1 0 .2l.2.1c0-.1-.2-.2-.4-.4z" class="st4"/><path d="M612.7 405.3h.2-.8c.2.1.4.1.6 0z" class="st4"/></g><g class="st1"><path d="M479.5 415.7l2.5 1.4c-.4-.3-.8-.6-1.1-1-.4-.3-.9-.5-1.4-.4zM484.4 418.3l.5.2.4.1-.9-.3zM489 420.2c-.8-.4-1.5-.7-2.3-1 .7.5 1.5.8 2.3 1zM485.5 418.3c.2.3.3.5-.2.3l1.4.6c-.4-.2-.8-.5-1.2-.9zM485.5 418.3c-.2-.3-.6-.6-.7-.7l.7.7zM488.1 415.8c.5.1 0 .9 1 1.1 2.1.5 4.2 1.2 6.2 2 1 .2 2 1.8 3 2 1.5.5 3 .8 4.5 1 1.4.2 2 .1.4-.5l-12.4-4.9-2.7-.9-2.6-1c-1.8-.7-3.5-1.4-5.4-2.1-.9-.5-1.9-1-2.8-1.5l3.6 2.3c1.6 1.3 4.3 1.3 7.2 2.5zM461.4 404.9l1.5.5c1.7 1.6 3.7 2.8 5.9 3.6l-.8-1c-1.2-.6-1.5-.5-.5.3a31 31 0 00-6.5-4.4c-.1.4 0 .8.4 1zM459.6 403.2l1.4.7v-.1l-1.4-.6z" class="st5"/><path d="M499 423.8c1.5.7 3 1.2 4.5 1.8l4.5 1.8c2.9 1.1 5.8 2.4 8.7 3.3a2 2 0 011.5.2c.4.3.8.5 1.2.8l2.5.9.9.2c.5 0 .4-.1.2-.4-.3-.2-.5-.4-.8-.6a8.11 8.11 0 002.1 1.3c.8.2 1.6.5 2.4.8-.8-.2-1.6-.4-2.4-.8l-1.5-.4h-.4l2.9 1c1 .3 1.9.7 2.9 1l1.2.3c1.5.3 2.9.5 3.6 1.2l1 .3-.2-.1c.1.1.3.1.4.2l4.4 1.3c1 .1 2 .1 3.1.2l.9.7c.6-.2 1.2-.2 1.8-.1-.7-.5-1.4-.9-2-1.3-.9-.7-2.5.5-3.4-.8 1 1.2 2.5 0 3.4.8.6.3 1.3.8 2 1.3 1.6.2 3.2.7 4.6 1.5-1.7 0-3.3-.6-4.6-1.5-.6-.1-1.2-.1-1.8.1l-.9-.7c-1-.1-2.1-.1-3.1-.2 2.9.8 5.8 1.5 8.9 2.3 4.8 1.3 9.7 2.1 14.5 3 2.4.5 4.8.8 7.2 1.1l7.2.9c9.9 1 19.9 1.4 29.9 1.3 10.9 0 21.9-.7 32.8-1.9 10.3-1.3 20.5-3.4 30.4-6.3 9.8-2.8 19.6-6 30-9.1 2-.6 4.4-1.6 6.9-2.6s5.2-2.4 7.8-3.8c5.3-2.7 10.3-5.8 13.8-8 4.2-3.6 4.5-5.6 3.7-6.6-.8-.7-1.9-1-3-1-3.7.3-6.2 1.5-9.5 3.1-4.3 2.3-8.7 4.3-13.4 5.8 2.1-.7 2.9-.8 2.7-.4-.9.8-1.9 1.5-3 2-.8.4-1.8.9-2.9 1.4s-2.2.9-3.4 1.3c-2.3.8-4.6 1.4-7 1.7-3.3.4-6.6 1-9.8 2-1.7.5-3.4 1-5.2 1.6l-2.6.9-2.7.9c-7.2 2.7-14.6 4.7-22.2 6.1-1.8.2-3.7.6-5.7 1l-3 .6c-1 .2-2.1.3-3.2.5l-4.2.5c-1.4.2-2.8.4-4.2.5-2.8.2-5.6.5-8.4.8s-5.6.4-8.3.6l-2.1.2-2.1.1-4.2.2c-11.5.6-23.1.1-34.5-1.4-1.6-.2-3.1-.3-4.6-.4s-3-.3-4.4-.4c-2.9-.2-5.7-.2-8.4-.6-3.9-.7-7.9-2-11-2.7-4.9-1.3-9.2-2.1-13.3-2.9 4.5 1.1 7.9 1.7 12.9 3 1.7.4 1 .5-.3.6-1.5 0-3.1-.1-4.6-.4-1 0-2.2-1.5-3.2-1.5-1-.3-2.1-.5-3.1-.6l-1.6-.2-1.7-.3c-1-.1-.6-1-1.1-1-3-.8-5.7-.4-7.6-1.2-1.4-.6-2.7-1.1-3.9-1.8-.8-.4-1.6-.7-2.4-1l-1.7-.4c.3.4.4.8.4 1.2-.8-.4-1.8-1-2.5-1.3.8.4 1.8 1 2.5 1.3 0-.4-.1-.9-.4-1.2-4.4-1-8.7-2.2-13-3.7v.1c1.2.5 2.4 1 3.5 1.6 1.2.6 2.4 1.3 3.5 2-1-.6-.8-.8.5-.4l.8.8c-2.3-.6-4.6-1.1-6.3-2.7l-1.5-.3c-.6-.4-.5-.7-.5-1l-1.4-.6c1.1.8 2.3 1.7 3.6 2.6z" class="st5"/><path d="M524.3 433.1l-1.2-.3c1.6.5 3.2 1.2 4.8 1.7-1.1-.7-2.3-1.2-3.6-1.4z" class="st5"/></g><g class="st1"><path d="M361 409.4l-2.5 1.3c.5-.2.9-.3 1.4-.4.4-.1.8-.5 1.1-.9zM356.1 411.8l-.5.2-.4.3.9-.5zM351.8 414.2c.8-.3 1.5-.7 2.3-1.1-.8.3-1.6.6-2.3 1.1zM355.4 412.7c-.3 0-.5 0-.1-.4l-1.3.8c.5-.2 1-.3 1.4-.4zM355.4 412.7c.3 0 .8-.1 1-.1-.3 0-.6.1-1 .1zM355.8 416.3c-.4.3-.7-.6-1.5 0-1.8 1.2-3.7 2.3-5.7 3.3-.8.6-2.7.3-3.5.9-1 .6-2.8 1.9-3.9 2.6s-1.6 1.3 0 .7c1.2-.5 2.3-1.1 3.4-1.6l3-1.5 5.9-3c.8-.5 1.7-1 2.5-1.5l2.4-1.6c1.6-1.1 3.2-2.1 4.9-3.2.9-.5 1.9-1 2.9-1.4l-4 1.6c-2 .9-3.7 3.1-6.4 4.7zM379.7 399.7l-1.1 1c-2.2.7-4.3 1.8-6 3.3l1.1-.1c1.1-.7 1.1-1 0-.6 2.5-.8 4.9-2 7.1-3.5-.3-.2-.8-.3-1.1-.1zM382.1 399.1l-1.3.8h.1l1.2-.8zM342.5 419.3c-1.5.7-3 1.3-4.5 1.9l-4.4 1.7c-3 1.1-5.8 2.3-8.7 3.1-.3.4-.8.6-1.3.7-.5 0-1 0-1.5.1l-2.5.8-.9.4c-.4.3-.2.4.1.4h1-1c-.5 0-1 .1-1.4.2-.8.3-1.6.6-2.4.8.8-.4 1.6-.6 2.4-.8l1.4-.6c.1-.1.2-.1.4-.2l-2.9.9c-1 .3-1.9.6-2.9.8l-1.2.4c-1.4.5-2.8 1-3.7.8l-1 .3h.2-.4l-4.4 1.1c-.9.5-1.9.9-2.8 1.2l-1.1-.2c-.5.4-1 .7-1.6.8.9.1 1.7.2 2.4.3 1.1.2 2-1.4 3.4-.9-1.4-.5-2.3 1.1-3.4.9-.7 0-1.5-.2-2.4-.3-1.5.5-3.2.7-4.8.6 1.5-.7 3.2-.9 4.8-.6.6-.2 1.1-.4 1.6-.8l1.1.2c1-.4 1.9-.8 2.8-1.2-2.9.7-5.9 1.2-8.9 1.8-4.8 1-9.7 1.6-14.4 2.3-2.4.4-4.8.6-7.1.9l-7.1.7c-9.8.8-19.6.9-29.5.4-10.7-.6-21.3-2-31.8-4.3-10.1-2.3-19.8-4.4-29.3-7.3-9.7-2.9-19-6.8-27.8-11.8-1.7-1-3.9-2.1-6.2-3.3l-7.4-3.7c-5-2.5-9.9-5.2-13.2-7.1-4.7-2-6.4-1.5-7-.5-.4 1-.4 2.1.1 3 1.7 3.3 4 5.1 7.2 7.2s7.2 4.3 12.7 8.2c-1.9-1.2-2.4-1.9-2-1.9 1.2.2 2.4.6 3.5 1.2.9.4 1.9.9 2.9 1.4s2.2 1.1 3.3 1.7c2.2 1.2 4.2 2.5 6.2 4 2.7 2.1 5.7 3.9 8.9 5.3 1.7.7 3.5 1.4 5.3 2.1.9.3 1.8.7 2.8 1l2.9.9c7.6 2.3 15.8 3.8 23.3 6 1.9.5 3.8.9 5.9 1.3l3.1.6 3.3.6 4.4.9c1.5.3 2.9.6 4.4.8 2.9.4 5.9.8 8.8 1.1l8.8.6 2.2.1H237.8c12.1 0 24.1-.7 36.1-2.2 1.6-.2 3.3-.4 4.8-.7s3-.7 4.5-1.1c2.9-.8 5.7-1.5 8.4-2.3 4-1 8.3-1.5 11.6-2.2 4.5-1.2 9-2.7 13.3-4.5-4.6 1.5-7.9 2.6-13 4.2-1.7.4-1.2 0 0-.7 1.4-.8 2.8-1.5 4.3-2.1.9-.5 2.7.1 3.6-.4 1-.3 2-.7 3-1.1l1.5-.6 1.6-.8c.9-.5 1.1.4 1.5.2 3-1.2 4.9-3.2 7-3.5 1.5-.4 2.9-.6 4.2-1 .8-.3 1.6-.5 2.5-.9l1.5-.9c-.4-.1-.8-.3-1.1-.7.8-.3 2-.5 2.8-.8-.8.3-2 .5-2.8.8.3.3.7.6 1.1.7 3.7-2.1 8.1-4.2 12-6.5h-.1c-1.2.6-2.4 1.1-3.6 1.6-1.3.5-2.6.8-3.9 1 1.2-.2 1.1.1-.1.6l-1.1-.1c2-1.2 4.2-2 6.4-2.5l1.2-.9c.4-.2.8 0 1.1.3l1.4-.7c-1.9.1-3.4.4-5 .8z" class="st5"/><path d="M317.3 428.6l1.2-.5c-1.6.5-3.2 1-4.9 1.4 1 .3 2.3-.3 3.7-.9z" class="st5"/></g></svg>