<svg xmlns="http://www.w3.org/2000/svg" id="Layer_1" x="0" y="0" version="1.1" viewBox="0 0 842 842" xml:space="preserve"><defs/><style>.st1{opacity:.85}.st2{fill:#211f1e}</style><path fill="#f5d0c6" d="M0 0h842v842H0z"/><g class="st1"><path d="M247 562h-1v1l1-1zM245 562zM244 561l1 1-1-1zM245 562zM245 562zM243 565v-1h-2v-1h-2l3 2h3l1 1-1-1h-2zM251 565h-2s1 0 0 0l2 1v-1zM251 566zM241 561l-4-3v-1h-1v0l-1-1 1 1-1-1-1-1-1-1h-1v-1l-1 1v1h0v-1-2 2l1-1v1h1l-2-2c-3-3-7-6-10-11l-4-7c-3-5-6-8-7-14l-5-7c-2-1-5 2-5 2-2 4 0 4 0 8 0-3 3 0 2 3-1 5 4 7 6 11l2 3 2 4 3 3 4 3 3 4 5 2 2 2 4 2-4-2h2l1 1h1v1h3v1h1l1-1v0l-1 1 4 1-1-2-1 1v-1l2 1v1h1l-1-1zM236 557l-1-1 1 1z" class="st2"/></g><g class="st1"><path d="M324 547l-4 4 2-1 2-3zM317 555l-1 1 1-1zM311 562l1-2 2-2-3 4zM316 557v-1 1l-2 2 2-2zM316 557l1-1-1 1z" class="st2"/><path d="M317 561l-2 1-5 5-4 4-6 3-4 3-3 3c-2 1-3 2 0 1l11-8 4-4 5-4c5-6 10-11 14-18l3-5-2 4-3 3-8 12zM341 513v2l-5 12 1-1v-1l2-3 1-4 1-3 1-2v-2l-1 2zM343 508l-1 3 1-3z" class="st2"/><path d="M296 575l-4 2-4 2-4 2-4 2a61 61 0 01-20 5h-3-3l-2-1h-1v1h0l-3-1h-1l-1-1h-2 2l1 1h5c-4 0-8-1-11-3h-2l-2-1-2-1-1-1-1-1-2-1v0l-4-2-3-3-5-3-1-2-3-2 3 4 5 4-5-4-3-4a33 33 0 01-5-7l3 4 2 3 3 2 1 2 5 3-12-12-16-23c-5-7-9-15-12-24l-3-6-3-6-2-7-2-6c-3-9-4-18-4-28 1-10 3-20 7-29s8-18 14-26l17-24a203 203 0 0021-38v-2l1-2 1-4v-3l1-2v-2-8-4-4a91 91 0 00-8-29l-9-14c-6-9-14-16-22-22l-10-4-3 1 2 4 13 12a80 80 0 0117 22l-2-4v-1l4 6 5 11c2 4 2 9 3 13v18l-4 19-9 19-13 18a320 320 0 00-29 49l-4 17-1 4v13c0 12 3 23 7 34l3 8 4 8 3 8 4 8 5 8 2 3 3 4 5 6 2 4 3 3 15 17a59 59 0 001 0c-3-3-2-2 0 0l8 4 3 2 1 2h2c4 2 8 4 12 4l3 2h8l7-1h4l4-1a39 39 0 008-3h-2l6-2-6 2h2l11-6 3-2 3-2 3-2 2-2-3 3-3 2-2 1h-2l-3 2c2-1 2-1 0 1h-2l2-2 3-1 2-1 1-1 3-1 2-2h2l2-2-4 2-3 1v1z" class="st2"/><path d="M248 587h2l-4-1h-3l-2-1 3 1 2 1h2z" class="st2"/></g><g class="st1"><path d="M604 572h0zM606 573zM608 573h-1 1zM606 573h0zM606 573v-1 1zM607 571v1h4l1-1s1 0 0 0h-4l-3-1-1-1 1 2h2zM600 565l1 1 1 2v-1h-1v-1-1h-1zM600 564l1 1-1-1z" class="st2"/><path d="M611 573l7-1v-1h2l-1-1h2-1l-1 1 2-1 1-1h1v-1l1-1 1-1v-1l-1 1v0l1-1 1-1-1 1v1l-1 1 1-1 1-1c4-6 5-14 1-21l-4-4-7-1-5 2-5 2-5 3-4 4-1 2-1 1v4l1 6 3 2 1-1v-5-4c0 2-1 1-1 0l1-2 1-1 6-4c2-1 4-3 7-3l3-2 4 1 3 3c2 3 2 7 2 10l-1 5-1 1-1 1-1 1v1h-1l-2 2 2-1 1-1v-1 2h-1l-1 1-1 1c-1 1 0-1 0 0l-1 1h-1l-2 1h-1l1 1h-1 1l-1-1-4 2h3v-1 1h-2-2 2z" class="st2"/><path d="M620 570v1l1-1h-1z" class="st2"/></g><path fill="#1f2020" d="M619 566c3-1 5-4 5-8-1-3-4-3-7-3s-7 2-6 6c1 3 4 6 8 5z"/><g class="st1"><path d="M616 566l-1-1h1v1zM615 565zM614 565h0zM615 565zM615 565zM614 566l-1-1c0 1 0 0 0 0h-1l2 1h2-1-1zM618 566h-1 1zM619 566h-1 1z" class="st2"/><path d="M613 564l-1-2h-1v-1-1-1-1 1l3-2 4-1h4v2l1 1c0 2-1 3-2 3l-1 2h-1l-1 1 1 1h1l2-1 2-2 1-3v-2l-1-2-1-1-3-1h-3l-5 2-2 2v2 0c0-1 0 0 0 0v2l1 1v1h1-1l2 1-1-1c0 1 0 1 0 0l1 1v-1zM611 562v-1 1z" class="st2"/></g><g class="st1"><path d="M479 553l4 5-2-2-2-3zM487 562l1 1 1 1-2-2zM495 569l-2-2-1-1h-1l4 3zM489 563c0 1 1 1 0 0v1l2 2-2-3zM489 563zM493 563l1 1 1 1 3 2 1 1 2 1 5 4 3 2 3 2a61 61 0 0012 4l-2-1a118 118 0 01-46-35l1 1 1 2 3 4 2 2 2 2 1 1 3 3 4 3zM459 513l1 3 1 4a36 36 0 004 10l-1-2c-1-3-1-3 0 0l-5-17v2zM458 508l1 3-1-3z" class="st2"/><path d="M515 581a133 133 0 0050 13h2c1 0 1 0 0 0l-2-1 2 1h8-9 16l8-1h2l5-1h3l2-1 3-1 2-1 1-1h2l2-1 1-1-4 1-4 2 4-2 4-1 3-1 2-1 5-2-5 3-5 1-2 1-1 1h-2l-2 1-1 1-3 1a95 95 0 0025-11l4-2 3-3 11-10c8-8 14-16 19-25l2-4 1-3 2-4 1-3 5-16c2-10 2-22-1-32a102 102 0 00-14-33l-20-28c-14-18-30-33-43-49l-9-13c-2-5-5-9-6-14a45 45 0 01-3-14 81 81 0 017-30 84 84 0 0129-37l8-7 1-2c-1-2-4-1-5-1l-9 4-9 7a101 101 0 00-17 20l-1 3-1 2-2 2a142 142 0 00-10 35v6l1 12c3 8 7 16 12 23l16 20 17 19 17 19a264 264 0 0129 45l5 16a73 73 0 01-1 34l-3 8a155 155 0 01-14 25l-5 7-3 4-2 1-2 2-3 3a44 44 0 01-6 6l-2 1-1 1v1l-11 6-6 2-5 1-14 4-7 1h-3l-3 1 3-1h7l3-1 13-3c4-1 3-1 0 1h-2l-2 1-5 2h-7l-7 1-3 1h-3l-3-1h-16l-9-2-5-2h-4l2 1-6-2 6 2-2-1c-9-2-18-6-26-10l7 4 8 4c-2-1-2-2 1 0l1 1c-4-2-9-3-13-6l-3-2-1-1-3-2 2 2 3 2 2 1 1 1zM570 594h-3l6 1h5l-8-1z" class="st2"/></g></svg>