<svg xmlns="http://www.w3.org/2000/svg" id="Layer_1" x="0" y="0" version="1.1" viewBox="0 0 842 842" xml:space="preserve"><defs/><style>.st1{opacity:.85}.st2{fill:#fefefe}.st3{fill:#e0caca}</style><path fill="#7f563a" d="M0 0h842v842H0z"/><g class="st1"><path d="M85 385l1 4v-2l-1-2zM88 393v2-2zM91 401l-2-4 2 4zM89 395h-1l1 2v-2zM89 395l-1-2 1 2zM92 396l1 2 2 5 2 4 1 3 1 3 2 3 3 3c1 2 2 3 0 0l-3-5-2-5-5-9a138 138 0 01-8-23l1 7 2 5c1 2 3 4 3 7zM81 350v11l1 3v-2c0-2-1-2-1 0l1-7-1-3v-3 1zM81 346v0z" class="st2"/><path d="M99 417a156 156 0 0019 27l1 2 3 4 1 1 1-1-1-1 1 1 1 2-2-1v-1l7 7 2 2 4 4 2 1h-1 1l3 3 3 2 4 2 2 2 2 1-3-3-4-3 4 3 3 3 2 1 2 1 3 2a20 20 0 01-5-3l-2-1-2-1-2-2-4-2 3 2 3 2 3 2 4 2 22 11a159 159 0 00147-20l5-4 5-4 5-4 4-5a195 195 0 0030-43 145 145 0 0013-52v-2-3l-1-3-2-2-2 3-2 4-1 3v4l-1 5c-1 8-3 15-6 23 2-7 2-4 1 2l-4 10-2 3-1 3-3 4-20 28-6 7-4 4-3 3-3 3-4 3a127 127 0 01-24 16c-17 8-34 13-53 15-18 2-37 1-55-4l-27-10-2-1-3-1-4-2-4-3-1-1-2-1a246 246 0 01-1 0l-4-2-3-2-4-4-4-3-4-4-1-2-6-4a29 29 0 01-6-7l-2-3-2-3-2-3v2l-2-4 2 4v-2c-5-5-9-11-12-18l3 6 2 6c0-2 0-2 1 0l1 2a40 40 0 01-6-10l-1-2v-2l-1-1v-1l1 4 1 4zM125 452l-1-1 1 1 2 2 3 3-5-5z" class="st2"/></g><g class="st1"><path d="M215 444l2 1-1-1h-1zM218 446h1-1zM221 447l-2-1 2 1zM219 446h-1 1zM219 446l-1-1 1 1zM221 443v1h4l1 1 3-1c1 0 1 0 0 0h-2-1l-2-1h-2-1l-2-1h-1l-2-1-1-1 1 1 1 1h2l2 1zM208 434l1 2 1 2v-1c0-1-1 0 0 0l-2-4v1zM208 432v1-1z" class="st2"/><path d="M227 448h6l2-1 3-1h1l2-1c1 0 1 0 0 0v-1 1l1-1h0l-1 1 3-1 1-1 2-1v-1h1l2-1v-2h1l1-1h-2l-1 2 1-2h2l2-2-2 2-1 1h-1v2l2-2 1-2c4-5 6-11 6-17l-2-9-2-4-2-2-1-1a44 44 0 00-17-11l-10-2a24 24 0 00-18 10l-6 9a26 26 0 00-2 14l1 2v3l1 2v1l1 1 1 1h2l2-2 1-2v-1-1-2-3l1-5c-1 3-1 2-1 0l1-4 2-3 7-7 4-3h9l2 1 7 3 7 5 4 6 1 8-2 8-1 1-1 1-2 2 1 1-1 1v1l-2 1-1 1-2 1h-1l-1 2-2 1h-2-1l-1 1 1 1h-1l-1-1 1 1h1l-1-1-7 1h2l2 1v-1l1 1h-2l-2-1-1 1v-1h-1l1 1 1 1z" class="st2"/><path d="M242 445h-1l2-1h1l-2 1z" class="st2"/></g><circle cx="230" cy="421" r="9" class="st3"/><g class="st1"><path d="M235 426v0zM235 427h-1 1zM234 428v-1 1zM235 427h-1 1zM235 427v1-1zM236 430c0 1 0 0 0 0l-1 1h-1l-1 1v1l3-2 1-3h0v1l-1 1zM238 424l-1 1h0l2-1h-1zM239 424z" class="st2"/><path d="M233 429h-4s0 1 0 0h-1v0h-1 1l-1-1h-1v-1h-1l-1 1h0l1-1-1-1 1 1h1l-1-1-2-4 2-5 4-1h2l1 1 1 1v4l3 1h5v-1l1-4h-1v-4c0-3-2-5-4-6l-7-1h-4c-4 1-7 3-8 7-2 3-2 7-2 11l4 4 2 3 4 1-4-1 1-1h1l1 1h1l1 1 1-1h2v1l1-1v-1 1l3-2h-2v1-1h1v-1zM228 429h-1 1z" class="st2"/></g><g class="st1"><path d="M754 384l-1 4 1-2v-2zM752 392l-1 1v1l1-2zM749 400l2-4-2 4zM752 394h-1v2l1-2zM752 394v-1 1zM754 397l-1 2-2 5-2 6-2 2-1 3-2 3-1 4c-1 2-1 3 0 0l3-5 3-5 4-10a151 151 0 006-24l-2 7-2 5-1 7zM760 350v5l-1 3v6l1-2c0-2 0-2-1 0l1-7v-3-3 1zM760 346v0z" class="st2"/><path d="M743 416a146 146 0 01-19 28l-2 2-3 3-1 1c0 1 0 1 0 0l2-1-2 1-2 2-3 3 3-3 2-2v-1l-7 7-1 2-5 3-2 2 1-1-1 1-3 2-3 2-4 4h-1l-3 2 4-1 5-4-5 4-4 1-1 1-2 1-4 2 4-3h2l2-1 2-2h1l4-4-3 2-3 2-3 2-4 2a155 155 0 01-93 18 138 138 0 01-70-31l-5-4-4-4-5-4-4-5a133 133 0 01-33-65l-4-24-1-3v-2l-1-4c-1-1-1-2-2-1l-2 3-1 4-1 4v8l5 25c-2-8-1-5 1 1l4 11 1 3 1 3 2 6c3 10 9 21 18 31a191 191 0 0047 38c18 10 37 16 57 18s40 0 60-6c11-3 19-8 27-12l3-2 2-1 4-2 5-3 2-1 1-1a107 107 0 001-1c-3 2-2 1 0-1l3-2 2-3 5-3 4-4 4-4 2-1 5-6 3-5 2-2 3-3 2-3 2-3-2 1 3-4-3 4 2-1 10-20-3 6-4 5v1l-1 1 3-5 3-5 1-2 1-1v-1l1-1-3 3-1 3zM716 452l2-2-2 2-1 1-3 3 4-4z" class="st2"/></g><g class="st1"><path d="M625 442h-1 1zM623 443h-1 1zM620 445l1-1-1 1zM622 444v-1l-1 1h1zM622 444h0zM623 447h-1l-2 1-1 1h-3l-2 1-1 1 3-1h2l2-1 2-1 1-1 2-1 1-1 1-1 2-2-1 1-1 1-2 1-2 2zM633 433v1l-2 1v2c1-1 1-1 0 0l3-4h-1zM634 432v0z" class="st2"/><path d="M615 447h-6l-2-1h-3-1v-1l-2-1v0h-1l-1-1 1 1h1l-3-2-2-2-2-2-2-1-1-1v2l2 1-2-1v-2l-1-2 1 2 1 1 2 1-2-2-1-2c-3-4-5-10-4-15 0-5 3-10 7-14a30 30 0 0123-7l6 2c4 3 7 7 7 12l1 8-1 7v1l1 2 1 1h3l1-1 1-1 1-2 1-1 1-10c0 3-1 2-1 0v-4l-1-5c1-4-2-9-7-13l-7-4-4-1h-2-7-2l-2 1a36 36 0 00-20 11c-3 3-5 6-6 10s-2 9-1 13l2 6 3 5 1 2 2 1a20 20 0 009 8l-7-5h1l1 1h1l1 2 2 1 2 1 1 1h2l3 1 2 1h3v-1l1 1-1-1v1l8-2-2 1-3-1v0h4v-1l1 1h1l-2-1-1 1z" class="st2"/><path d="M600 444h1l-1-1h-2l2 1z" class="st2"/></g><circle cx="612" cy="421" r="9" class="st3"/><g class="st1"><path d="M605 428v0zM606 429zM607 430l-1-1 1 1zM606 429zM606 429zM608 426v1h1l1 1v-1l1-1h-4v1l1-1zM603 424v1l1 1v-1l-1 1v-2zM603 424h1-1z" class="st2"/><path d="M609 430h5v-1 1l1-1-1 1h1v-1h2v-1h1l-1-1v0l1 1 1-1-1 1-1 1 2-1 3-6-1-7-6-6h-8l-8 5-2 4v6h4l2-1 1-1 1-1 1-1-1-1 2-1h5l2 1v3l1 2h-1l-1 2 1-2v2s0-1 0 0l-1 1v-1l-1 1v0h-1v0l-2 1 1 1h-1v-1h-1l1 1v1zM614 430h0z" class="st2"/></g></svg>