<svg xmlns="http://www.w3.org/2000/svg" id="Layer_1" x="0" y="0" version="1.1" viewBox="0 0 841.9 841.9" xml:space="preserve"><defs/><style>.st1{opacity:.85}.st2{fill:#211f1e}.st3{fill:#1f2020}</style><path fill="#f3d8c7" d="M0 0h841.9v841.9H0z"/><g class="st1"><path d="M272.2 498l-.8.5c.2-.1.3-.1.5-.1.2-.1.2-.2.3-.4zM270.7 499l-.1.1-.1.1.2-.2zM269.3 499.9c.3-.1.5-.2.8-.4-.3.1-.6.2-.8.4zM270.5 499.4c-.1 0-.2 0-.1-.2l-.4.3c.2-.1.4-.1.5-.1zM270.5 499.4h.4a.3.3 0 00-.4 0zM271 501.1c-.1.1-.3-.3-.6-.1l-1 .7c-.3.2-.7.4-1.1.5-.3.2-1-.1-1.4 0s-.5.2-.8.4-.6.3-.8.4c-.5.2-.7.4 0 .3 1.7-.3 3.3-.9 4.8-1.7 1.2-.8 2.3-1.7 3.3-2.7.3-.3.6-.5.9-.7-.4.3-.8.6-1.3.8-.4.2-.7.5-.9.9-.3.5-.7.8-1.1 1.2zM276.8 492.8c0 .2-.1.5-.1.5-.3.2-.6.5-.8.9-.2.3-.4.7-.5 1.1l.4-.1c.2-.4.1-.5-.1-.2.7-.6 1.3-1.3 1.6-2.2-.2-.2-.3-.2-.5 0zM277.5 492.1c-.1.2-.1.3-.2.5 0-.1.1-.3.2-.5z" class="st2"/><path d="M266 501.4c-2.1.4-4.3.4-6.4-.1-.2 0-.3.1-.5 0-.1-.1-.3-.2-.4-.3l-.9-.3-.3-.1c-.2 0-.2.1-.1.2s.2.2.2.3c0-.1-.2-.2-.2-.3-.1-.1-.3-.2-.4-.3a3 3 0 01-.8-.4c.3.1.5.2.8.4l.5.1h.1l-1.8-.9c-.1 0-.3-.1-.4-.2-.4-.2-.9-.4-1-.8l-.3-.2v.1l-.1-.1c-.4-.3-.8-.6-1.1-1-.3-.2-.6-.3-.9-.5l-.1-.4c-.2 0-.4-.1-.6-.3.1.3.1.6.2.9.1.4.9.2.9.8 0-.6-.8-.4-.9-.8-.1-.2-.1-.6-.2-.9-.4-.4-.7-.9-.8-1.5.4.4.7.9.8 1.5l.6.3.1.4c.3.2.6.4.9.5-.7-.7-1.4-1.5-1.9-2.4-1.8-2.7-2.7-5.9-2.6-9.1.1-3.3 1.3-6.4 3.3-8.9 2.2-2.7 5.3-4.5 8.8-4.9 3.1-.4 6.2.1 9 1.5 1.3.7 2.5 1.7 3.5 2.9s1.6 2.6 2 4.1c.4 1.4.6 2.9.8 4.3.1 1.4 0 2.9-.3 4.3 0 1.5.4 2.2 1 2.4.4.1.9.1 1.4-.1.6-.3 1-.8 1.4-1.3.3-.5.6-1.2.7-1.8.4-1.8.6-3.7.6-5.6-.1 1.8-.4 1.1-.7-.3s-.9-3.5-1.1-5.2c-.3-2.5-2.3-5.2-5-6.9-2.7-1.6-5.8-2.7-9-3-1.7-.2-3.4-.1-5 .3-4.7.8-8.9 3.5-11.6 7.5-2.6 4.1-3.7 8.9-3 13.7.4 2.4 1.5 4.6 3 6.4.8 1.3 1.7 2.5 2.7 3.7.7.7 1.5 1.3 2.3 1.8.7.4 1.5.7 2.4 1-1.6-.7-3.1-1.6-4.5-2.8-.5-.5-.2-.4.3-.2l.8.4.8.4c.2.1.5.9.9 1 .3.2.7.4 1.1.5l1.2.4c.4.1.1.5.4.5.5.1 1.1.2 1.6.2.4 0 .9 0 1.3.1.5.2 1 .4 1.5.5.3.1.7.1 1 .1l.6-.1c-.1-.1-.2-.3-.3-.5.3.1.7.1 1 .2-.3 0-.7-.1-1-.2 0 .2.1.4.3.5 1.6-.2 3.3-.7 4.8-1.3-.9.3-1.8.4-2.8.2.4.1.4.2-.1.3l-.5-.1 1.2-.3c.4-.1.8-.1 1.2 0l.5-.3c.3 0 .3.1.4.3.2 0 .4-.1.5-.2-.6-.1-1.2-.1-1.8-.1z" class="st2"/><path d="M257 500.5l.4.1c-.5-.2-1.1-.5-1.6-.8.2.3.7.5 1.2.7z" class="st2"/></g><circle cx="262.4" cy="487.3" r="5.6" class="st3"/><g class="st1"><path d="M258.4 491.7l.3.3c0-.1-.1-.1-.1-.2-.1-.1-.1-.1-.2-.1zM258.9 492.2zM259.5 492.5c-.1-.1-.2-.1-.3-.1.1 0 .2.1.3.1zM259.1 492.2s0 .1 0 0l.1.2c0-.1-.1-.2-.1-.2zM259.1 492.2v-.1.1zM259.7 491.5c.1 0-.1.2 0 .2s.5.1.7.2.2.3.3.3 1-.2.6-.2c-.5-.1-.9-.2-1.4-.4-.4-.1-.8-.3-1.2-.5-.1-.1-.2-.2-.2-.3.1.1.2.3.3.4.2.3.6.2.9.3zM257 489.4l.1.1c0 .3.1.6.4.8v-.2c-.1-.1-.2-.1-.1 0 0-.3-.1-.7-.3-1-.1.2-.1.2-.1.3zM257 489.1l.1.2-.1-.2z" class="st2"/><path d="M260.8 492.8c.8.2 1.6.3 2.4.2.1 0 .1-.1.2-.1s.1 0 .2.1l.3-.1h.1c.1 0 0-.1 0-.1h-.1H264.2c.1-.1.2-.1.3-.1-.1.1-.2.1-.3.1l-.2.1c.3-.1.5-.1.7-.2.1 0 .1-.1.1-.1.2-.1.3-.2.5-.2l.1-.1c.2-.1.3-.2.5-.3.1-.1.1-.2.2-.4h.2c0-.1 0-.2.1-.2h-.3c-.2 0-.1.4-.3.3.3.1.2-.3.3-.3h.3c.1-.2.3-.3.5-.4-.1.2-.3.4-.5.4 0 .1-.1.1-.1.2h-.2c-.1.1-.1.2-.2.4a5.8 5.8 0 001.7-8c-.8-1.3-1.9-2.3-3.3-2.9-1.4-.5-2.9-.5-4.3 0-1.4.6-2.7 1.5-3.7 2.7-.5.7-.8 1.4-.9 2.2-.1.8-.1 1.6.1 2.4.4.8.8.8 1.1.7.2-.1.4-.2.5-.4.2-.4.4-.8.4-1.2 0-.6.2-1.1.5-1.5-.2.4-.4.2-.3-.2.1-.5.5-1 1-1.2.7-.3 1.3-.6 1.9-1a3.6 3.6 0 013.2-.4c1 .4 1.8 1.1 2.4 2 .6.9.8 2.1.5 3.1-.1.6-.2 1.1-.5 1.7-.2.3-.5.6-.9.8-.4.3-.7.6-1.1.9.4-.2.8-.5 1.1-.8.3-.2 0 .4-.2.6s-.3 0-.4 0c-.2.1-.4.3-.6.4-.1.1-.1-.1-.2-.1-.3.1-.5.5-.8.5-.2 0-.3 0-.5-.1h-.3l-.2.1c0 .1.1.2.1.2l-.3-.1.3.1c0-.1 0-.2-.1-.2-.5.1-1.1.1-1.6 0 .3.1.6.2.9.4-.1-.1-.1-.1.1-.1l.1.1c-.3.1-.6 0-.8-.2h-.2c-.1-.1 0-.1 0-.2h-.2c.2.2.3.4.4.5z" class="st2"/><path d="M264.2 492.8l-.1.1c.2 0 .4-.1.6-.2-.2-.1-.4 0-.5.1z" class="st2"/></g><g class="st1"><path d="M386.8 434.2l-1.2 1.8-1.3 1.8c.5-.6 1-1.1 1.5-1.6s.8-1.2 1-2zM382 441.2l-.5.6-.3.6.8-1.2zM377.7 447.6c.9-1.1 1.6-2.1 2.3-3.2-.9 1-1.6 2.1-2.3 3.2zM381.5 442.8c-.4.3-.6.4-.3-.3-.4.7-.8 1.3-1.2 2 .5-.7 1-1.2 1.5-1.7zM381.5 442.8c.4-.3.9-.8 1.1-1-.4.3-.7.6-1.1 1zM383.1 446.4c-.4.7-1 0-1.8 1.4l-2.7 4.4c-.9 1.4-1.9 2.7-2.9 4.1-.8 1.4-3.2 2.6-4 3.9-1.1 1.5-2.9 4.2-4.1 6s-1.6 2.7.2.6c4.7-5.3 9-10.9 13.1-16.7 1.6-2.5 3.3-5 4.7-7.6.8-1.3 1.5-2.6 2.3-3.9.8-1.3 1.5-2.6 2.2-4s1.8-2.8 2.7-4.1l-3.9 5.4c-1 1.5-1.9 3-2.6 4.6-.9 2-2 3.9-3.2 5.9zM403.1 406.2l-.7 2.2c-2 2.9-3.7 6.1-5 9.4l1.2-1.2c.9-1.9.8-2.2-.2-.7a62 62 0 006.1-10.6c-.5.1-.7-.1-1.4.9z" class="st2"/><path d="M405.4 403.1c-.3.7-.7 1.5-1 2.2h.1c.3-.7.6-1.5.9-2.2zM368.1 460.8c-6.4 7.4-13.5 14.1-21.2 20.1-.4.6-.9 1.2-1.5 1.6-.7.3-1.3.7-2 1.1l-3.3 2.4-1.1.9c-.6.5-.3.5.2.4.4-.2.9-.4 1.4-.6-.3.1-.9.4-1.4.6-.7.3-1.4.6-2 1-1 .7-2.1 1.5-3.3 2.2 1-.8 2.1-1.5 3.3-2.2.6-.5 1.3-.9 1.9-1.4l.5-.5c-1.3.9-2.6 1.7-3.9 2.5s-2.6 1.7-4 2.4l-1.6 1.1c-.9.6-1.8 1.2-2.8 1.7-.8.4-1.6.7-2.5.9l-1.5.7.3-.1-.6.2c-1 .5-2.1 1-3.2 1.5l-3.2 1.4c-1.3.8-2.7 1.5-4.1 2.3l-1.6.1c-.7.6-1.5 1-2.3 1.3 1.2-.1 2.4-.2 3.6-.5 1.7-.2 3-2.2 5-2.1-2.1-.1-3.4 2-5 2.1-1.2.2-2.4.4-3.6.5-1.1.5-2.3.9-3.5 1.2-1.2.3-2.5.5-3.7.6 1.2-.5 2.5-1 3.8-1.2 1.1-.3 2.3-.5 3.4-.6.8-.3 1.6-.8 2.3-1.3l1.6-.1c1.4-.7 2.8-1.5 4.1-2.3-2.1.9-4.3 1.7-6.5 2.5s-4.4 1.5-6.7 2.1c-14.3 4.1-29.3 5.6-44.1 4.5-15.1-1.1-30-4.8-43.9-10.9-7.7-3.4-15.1-7.4-22.1-12-6.8-4.5-13.1-9.5-19-15.1-5.6-5.3-10.9-11.1-15.6-17.3-1.2-1.5-2.2-3.1-3.3-4.6s-2.1-3.1-3-4.8a93.3 93.3 0 01-5.2-9.9c-1.5-3.4-2.6-6.9-3.5-10.4-.8-3.5-1.3-7.1-1.3-10.8 0-.9 0-1.8.1-2.7l.3-2.7c.1-.9.4-1.7.5-2.6l.1-.7.2-1a51.45 51.45 0 00.3-8.7c-.1-2.2-.2-4.3-.4-6.4-.9-8.2-2.4-16.4-4.4-24.4-2.1-8.8-4.5-17.4-6.1-23.3-2.9-7.7-4.9-9.2-6-8.7s-1.6 3-1.6 3.4c-.3 5.3.4 9.7 1.7 15.3 1.8 7.5 3.2 15 4.1 22.6-.9-6.9.2-4.5 1.6 1.2s2.8 15 2.2 21.4c-.1 1.1-.2 2.3-.4 3.4-.1 1-.3 2-.6 3-.1.2-.1.3-.2.7l-.3 1.1c-.2.7-.3 1.5-.5 2.2l-.6 4.6c-.3 6.5.7 12.9 2.7 19.1 2.1 6.2 4.9 12.1 8.4 17.7 3.3 5.4 7 10.6 10.9 15.5 4.2 5.2 8.8 9.9 13.7 14.3 6.8 6.4 14.2 12.1 22.1 17 7.8 4.8 16.1 8.9 24.8 12.1 17.9 6.8 36.8 10.1 55.9 9.7 10.6-.3 19.7-2.7 28.1-5.3 6.2-1.8 12.9-3.6 17.7-5.6 6.8-2.9 13.2-6.5 19.2-10.8-1.6 1-3.1 1.9-4.5 2.9s-2.9 1.8-4.4 2.6c-2.9 1.7-6.1 3.2-9.9 5-2.6 1.1-1.8.4 0-.7s4.6-2.9 6.2-3.8c1.3-.9 4-1.1 5.3-2 1.5-.8 2.9-1.8 4.3-2.8l2.1-1.5 2.1-1.6c1.2-1 1.6-.1 2.2-.7s1-.7 1.5-1.1.9-.8 1.3-1.2c.8-.8 1.6-1.5 2.3-2.2 1.2-1.3 2.6-2.5 4-3.6l2.9-2c.9-.6 1.8-1.3 2.6-2 1-.9 2.1-1.7 3.1-2.7.6-.6 1.2-1.4 1.8-2-.5.2-1.1.3-1.6.1 1-.9 2.5-2 3.5-2.9-1 .9-2.5 2-3.5 2.9.5.2 1.1.1 1.6-.1l3.4-3.8 3.4-4.1 1.7-2.1 1.6-2.1 3.3-4.2h-.2c-2.6 3.2-5.5 6.1-8.7 8.7 1.4-1.2 1.5-.8.1.7l-1.5.8c1.2-1.4 2.3-2.8 3.5-4.1 1.2-1.3 2.5-2.5 3.8-3.6l1.3-2c.9-.8 1-.5 1.4-.6.5-.6 1-1.3 1.5-1.9-.4.2-.9.7-1.4 1.2l-1.8 1.5-2.1 2.4z" class="st2"/><path d="M336.9 488.2l1.6-1.1-3.3 2.1c-1.1.7-2.2 1.4-3.4 2 1.5-.2 3.3-1.6 5.1-3z" class="st2"/></g><g class="st1"><path d="M568.9 499l.8.6c-.1-.1-.2-.3-.3-.4-.2-.2-.4-.1-.5-.2zM570.5 500.2l.2.1h.2l-.4-.1zM572.1 500.9c-.3-.1-.5-.3-.8-.4.2.2.5.4.8.4z" class="st2"/><path d="M570.9 500.2c.1.1.1.2-.1.2l.5.2c-.2-.1-.3-.3-.4-.4zM570.9 500.2c0-.1-.2-.2-.2-.3.1.1.1.2.2.3zM572.1 498.9c.2 0-.1.4.2.5s.7.2 1.1.2c.3 0 .7.1 1 .2.3 0 .7.6 1 .6.5 0 1 0 1.5-.1s.6-.2.1-.3c-1.4-.1-2.8-.4-4.1-.9-1.2-.3-2.4-.8-3.5-1.4-.3-.2-.5-.5-.8-.7.3.4.6.7.9 1.1.3.2.6.4 1 .5.6 0 1.1.1 1.6.3zM564.4 493.1l.4.4c0 .4.2.8.4 1.1.2.4.5.7.8.9v-.4c-.3-.4-.4-.3-.3.1-.3-.9-.7-1.7-1.1-2.5-.1.1-.3.1-.2.4zM564.3 492.2l.3.5-.3-.5z" class="st2"/><path d="M575.8 501.7c2.2.4 4.4.4 6.6 0 .1-.1.2-.3.4-.3h.5l.9-.3.3-.1c.1-.1.1-.2-.1-.2h-.4.9c.3-.2.5-.3.8-.4-.2.2-.5.3-.8.4l-.5.2-.1.1c.7-.2 1.4-.5 2-.8.1-.1.3-.2.4-.3.3-.3.7-.6 1.2-.6l.3-.2h-.1.1c.4-.3.9-.6 1.3-1l.6-.9.4-.1c0-.2.1-.4.2-.6-.3.1-.6.2-.8.3-.4.1-.2.9-.8.9.6 0 .4-.8.8-.9.2-.1.5-.2.8-.3.3-.5.7-.9 1.2-1.2-.2.6-.6 1-1.2 1.2-.1.2-.2.4-.2.6l-.4.1-.6.9c.8-.7 1.6-1.5 2.2-2.4 2.2-2.8 3.4-6.3 3.3-9.8 0-3.7-1.2-7.2-3.3-10.2-2.4-3.3-5.8-5.8-9.8-6.9-3.9-1.1-8-.6-11.6 1.2-3.7 1.9-6.7 4.8-8.8 8.3-1 1.9-1.6 4-1.7 6.2-.1 2.1.1 4.2.8 6.3.3.7.8 1.3 1.4 1.7.3.2.7.2 1 .1.4-.2.7-.6.9-1.1.2-.6.3-1.2.3-1.8 0-.5 0-1.1-.1-1.7-.2-1.6 0-3.2.7-4.6-.5 1.3-.7.8-.6-.4.2-1.5 1-2.9 2.1-3.9 1.7-1.2 3-2.7 4.8-4 1.8-1.4 3.9-2.2 6.2-2.2 1.2 0 2.3.1 3.5.3 3.1.9 5.9 2.8 7.8 5.4 2.1 2.7 2.9 6.2 2.4 9.5-.2 1.7-.5 3.5-1.1 5.1-.6 1-1.4 1.9-2.2 2.6-.5.5-1.1 1-1.6 1.5s-1 .9-1.6 1.2c1.2-.7 2.2-1.6 3.1-2.6.4-.4.3-.1.2.3-.1.2-.2.5-.4.7-.1.2-.3.4-.4.6-.2.3-.9.1-1.1.4-.3.2-.5.4-.8.6l-.8.7c-.2.2-.4-.2-.5-.1-.4.2-.8.5-1.1.8-.3.2-.6.4-1 .5h-1.4l-.8.1-.5.1c.1.1.2.3.3.5-.3 0-.7-.1-.9-.1.3 0 .7.1.9.1 0-.2-.1-.4-.3-.5-1.5.4-3 .4-4.4.2.9.2 1.8.4 2.6.8-.4-.1-.3-.3.1-.3l.3.2c-.4.1-.8.1-1.2 0-.4 0-.8-.2-1.1-.4h-.5c-.2-.1-.2-.3-.2-.4s-.3 0-.5-.1c.7.4 1.2.7 1.7 1z" class="st2"/><path d="M585 500.8l-.4.2c.6-.2 1.1-.4 1.7-.7-.5 0-1 .2-1.3.5z" class="st2"/></g><circle cx="579.5" cy="487.3" r="5.6" class="st3"/><g class="st1"><path d="M583.1 491.2l-.3.2h.2c.1 0 0-.1.1-.2zM582.5 491.6v.1zM582.1 492c.1 0 .2-.1.3-.2-.1.1-.2.1-.3.2zM582.5 491.8s-.1 0 0 0l-.1.1.1-.1zM582.5 491.8zM582.9 492.6c0 .1-.2-.1-.2 0-.2.2-.4.4-.7.6-.1.1-.4-.1-.5 0-.3.2-1 .6-.5.5.6-.2 1.2-.4 1.7-.8.4-.3.8-.7 1.1-1.2l.3-.3c-.2.1-.3.2-.5.3s-.4.6-.7.9zM584.6 489.3v.2c-.3.2-.3.5-.4.7h.2c.1-.1 0-.2-.1-.1.3-.2.5-.5.5-.8-.1-.1-.2-.1-.2 0zM584.8 489v.2-.2z" class="st2"/><path d="M581 492.7c-.7.2-1.5.3-2.3.1-.1 0-.1.1-.2 0 0 0-.1-.1-.2-.1l-.3-.1c-.1 0-.1 0 0 .1l.1.1-.1-.1s-.1-.1-.2-.1-.2-.1-.3-.1c.1 0 .2 0 .3.1h.2c-.2-.1-.5-.2-.7-.3h-.1c-.2 0-.3-.1-.4-.2l-.1-.1c-.1-.1-.3-.2-.4-.3-.1 0-.3-.1-.4-.1v-.2c-.1 0-.2 0-.2-.1 0 .1 0 .2.1.4 0 .2.4 0 .4.3 0-.3-.3-.1-.4-.3 0-.1-.1-.2-.1-.4-.2-.1-.3-.3-.3-.5.2.1.3.3.3.5.1 0 .1.1.2.1v.2c.1 0 .3.1.4.1-.3-.2-.5-.5-.8-.8a5.26 5.26 0 01-.3-6.3c.7-1 1.7-1.7 2.9-1.9 1-.2 2.1-.1 3.1.3s1.7 1.2 2 2.2c.1.4.3.9.4 1.4.1.5.1.9 0 1.4 0 .4.3.7.7.8.2.1.4.1.7 0 .5-.2.8-.7.8-1.2.1-.7.1-1.4.1-2.1 0 .7-.2.5-.3 0-.2-.6-.4-1.3-.5-1.9-.2-1.1-1-2-2.1-2.5s-2.3-.8-3.5-.8c-.6 0-1.3.1-1.9.3-1.8.4-3.3 1.6-4.2 3.2-.9 1.6-1.1 3.5-.6 5.3.3.9.8 1.7 1.5 2.2.3.5.7.9 1.1 1.3.5.4 1.2.7 1.8.8-.6-.2-1.2-.5-1.8-.8-.4-.3.5 0 .8.1.1 0 .2.4.4.4.3.1.6.2.9.2.2 0 .1.2.1.2.5.1.8-.1 1.1 0s.4.1.6.2h.4l.2-.1c-.1-.1-.1-.2-.1-.2.1 0 .3.1.4.1-.1 0-.3 0-.4-.1 0 .1.1.2.1.2.6-.2 1.2-.4 1.7-.7-.3.1-.7.2-1 .1.2 0 .2.1 0 .1l-.2-.1c.3-.1.6-.2.9-.1l.2-.1c.1 0 .1.1.2.1l.2-.1c-.4-.1-.7-.1-.9-.1z" class="st2"/><path d="M577.8 492.6h.2c-.2-.1-.4-.1-.6-.2 0 .1.2.2.4.2z" class="st2"/></g><g class="st1"><path d="M452.9 435.7l1.2 1.9 1.2 1.9c-.4-.6-.7-1.3-1-2-.3-.7-.8-1.3-1.4-1.8zM457.6 442.9l.4.7.5.5-.9-1.2zM462.3 449c-.8-1.1-1.6-2.2-2.4-3.1.8 1.1 1.6 2.1 2.4 3.1zM458.9 443.9c.1.5.2.8-.4.2l1.5 1.8c-.5-.6-.8-1.3-1.1-2zM458.9 443.9c-.1-.5-.5-1.1-.5-1.4.1.5.3.9.5 1.4zM462.8 443.5c.5.5-.3 1 .7 2.1l3.4 3.8c1.1 1.2 2.2 2.4 3.3 3.7 1.1 1 1.8 3.6 3 4.6 1.7 1.6 3.5 3.2 5.3 4.7 1.7 1.2 2.5 1.7.7-.2-4.8-4.9-9.3-10-13.6-15.4-1.9-2.2-3.8-4.4-5.6-6.8l-2.7-3.5c-.9-1.2-1.8-2.4-2.6-3.6-1-1.4-1.7-2.8-2.5-4.2l3.1 5.8c.9 1.5 2 2.9 3.2 4.1 1.3 1.4 2.7 3 4.3 4.9zM437.4 406.9l1.3 1.9c.9 3.4 2.8 6.5 4.8 9.5l-.3-1.6c-1-1.8-1.4-1.9-.7-.2-1.5-3.8-3.1-7.6-5-11.2-.2.4-.5.5-.1 1.6zM436.3 403.2l1.1 2.1v-.1c-.4-.7-.8-1.4-1.1-2z" class="st2"/><path d="M473.4 461.2c6.5 7.3 13.6 14.1 21.2 20.4.7.2 1.4.6 1.9 1.1.5.6 1 1.1 1.6 1.6l3.3 2.5 1.2.8c.7.4.6.1.3-.3-.4-.4-.7-.7-1-1.1.2.2.7.7 1 1.1.5.5 1.1 1 1.7 1.4 1.1.6 2.2 1.3 3.3 2.1-1.2-.6-2.3-1.3-3.3-2.1-.7-.4-1.4-.8-2-1.2l-.6-.3c1.3 1 2.6 1.8 3.9 2.7s2.6 1.8 4 2.6l1.8.9c1 .5 2 1 2.9 1.5.8.4 1.5.9 2.2 1.5l1.5.8-.2-.2.5.4c1 .6 2.1 1.1 3.2 1.6l3.2 1.6c1.5.5 3.1.8 4.6 1.3l1.3 1c.9.1 1.8.2 2.7.4-1.1-.7-2.1-1.4-3-2-1.3-1-3.7-.4-5-2 1.4 1.6 3.8 1 5 2 .9.6 1.9 1.3 3 2 1.2.3 2.4.7 3.5 1.2 1.2.4 2.4 1 3.5 1.5-1.3-.2-2.7-.5-3.9-1.1-1.1-.5-2.1-1-3.1-1.7-.9-.2-1.8-.4-2.7-.4l-1.3-1c-1.5-.5-3.1-.8-4.6-1.3 2.1 1 4.3 1.8 6.5 2.8 2.2.8 4.5 1.7 6.8 2.4 14.5 4.8 29.8 6.7 45.1 5.7 15.6-1 30.9-4.5 45.3-10.4 15.9-6.3 30.7-15.1 43.9-26 12.8-10.7 23.2-23.4 30-38.3 1.7-3.8 3.1-7.7 4.2-11.7 1.1-4.1 1.8-8.3 2-12.6 0-1.1.1-2.2.1-3.3l-.1-3.3c-.1-1.1-.2-2.2-.4-3.3 0-.2-.1-.6-.1-.8v-.5-1.1c.1-1.8.2-3.6.5-5.3.3-1.9.7-3.8 1.1-5.7 1.3-5.9 3.2-14.6 5.2-23.2s4.1-17.2 5.7-23c1.4-8 .6-10.3-.7-10.5s-2.9 1.7-3.1 2.1c-3 4.4-4.6 8.6-6.3 14.1s-3.5 12.4-6.7 22.2c2.1-6.7 2.1-4.1.9 1.8s-3.3 15-5.1 21.7c-.4 1.3-.7 2.6-.9 3.9-.3 1.5-.3 3.1-.3 4.6 0 .4.1 1 .1 1.2v.9c0 .6.1 1.2.1 1.8v3.6c-.2 5.2-1.1 10.4-2.6 15.5-3.4 11-9.1 21.1-16.8 29.6-4 4.6-8.3 8.9-12.9 13-6.6 5.5-13.7 10.5-21.1 14.9-7.3 4.4-14.9 8.3-22.8 11.5-15.8 6.4-33 10.3-51.3 9.7-9.7-.3-18.2-.7-26.3-2.3-5.6-1.5-11-3.4-16.3-5.8-7.1-3-13-5.9-18.7-8.8 1.5.9 3 1.7 4.4 2.5s2.8 1.5 4.3 2.1c2.8 1.4 5.9 2.7 9.5 4.2 2.5 1 1.5.9-.5.5-2.3-.6-4.5-1.3-6.7-2.1-1.4-.5-3-2.5-4.5-3-1.5-.8-2.8-1.5-4.3-2.2l-2.2-1.1-2.3-1.2c-1.4-.6-.7-1.4-1.4-1.7l-1.5-.9c-.5-.3-1-.6-1.5-.8-1-.5-1.9-1-2.7-1.4-1.6-.7-3.1-1.7-4.4-2.8l-2.5-2.3c-.8-.7-1.5-1.5-2.2-2.2-1-.9-1.9-1.8-3-2.7-.7-.5-1.4-1.1-2.1-1.6.2.5.3 1 .2 1.6-.9-.9-2.1-2.4-3-3.3.9.9 2.1 2.3 3 3.3.1-.5.1-1.1-.2-1.6l-3.9-3.1a123 123 0 01-3.9-3.5l-2-1.8c-.6-.6-1.3-1.2-1.9-1.9l-3.7-3.7v.2c2.8 3 5.3 6.1 7.8 9.4-1.1-1.5-.8-1.5.7 0 .2.5.5 1 .8 1.5-1.3-1.2-2.7-2.4-3.9-3.7a25.9 25.9 0 01-3.2-4.2l-1.8-1.5c-.6-.9-.4-1.1-.4-1.4l-1.6-1.8.8 1.6c.3.6.8 1.3 1.3 2l1.9 2.2z" class="st2"/><path d="M504.6 488.8l-1.7-1 3.3 2.2c1.1.7 2.2 1.5 3.3 2.2-1.5-1.4-3.1-2.5-4.9-3.4z" class="st2"/></g></svg>