<svg xmlns="http://www.w3.org/2000/svg" id="Layer_1" x="0" y="0" version="1.1" viewBox="0 0 841.9 841.9" xml:space="preserve"><defs/><style>.st1{opacity:.85}.st2{fill:#161315}.st3{fill:#211f1e}.st4{fill:#1f2020}</style><path fill="#fad5e5" d="M.1 0H842v841.9H.1z"/><g class="st1"><path d="M387 363.6l-3.4 3.3c.6-.5 1.3-1 1.9-1.5.6-.5 1.1-1.1 1.5-1.8zM380.4 370l-.6.6-.5.6 1.1-1.2zM374.7 376c1.1-1 2-2 3-3-1.1.9-2.1 1.9-3 3zM379.5 371.5c-.5.3-.7.3-.2-.3l-1.7 1.8c.6-.5 1.3-1 1.9-1.5zM379.5 371.5c.5-.2 1.1-.7 1.3-.9-.3.3-.8.6-1.3.9zM380.5 375.4c-.5.7-1-.1-2.1 1.2-2.5 2.9-4.6 5.6-7.2 8.2-1 1.3-3.6 2.4-4.6 3.7-2.6 3-8.7 10.9-4.6 6.7 6.1-6.3 10-10.6 15.5-16.3 4.3-4.8 8.3-9.5 12.7-14.4 1.3-1.3 2.5-2.5 3.8-3.7l-5.4 4.8c-2.5 2.1-4.6 5.9-8.1 9.8zM412.2 339.1l-1.5 2c-3.1 2.1-5.7 5.1-8.2 8l1.6-.9c1.5-1.6 1.5-2 0-.7 3.5-2.7 6.7-5.7 9.7-8.9-.4 0-.6-.3-1.6.5z" class="st2"/><path d="M415.5 336.7l-1.8 1.9h.1l1.7-1.9zM362.9 389.1c-7.8 7.8-15.2 15.2-22.4 22.3a7 7 0 01-1.5 1.9c-.7.4-1.3.9-1.9 1.4l-3.2 3.1-1.1 1.2c-.5.7-.2.6.2.3s.9-.6 1.3-.9c-.3.1-.9.6-1.3.9-.7.5-1.3 1-1.9 1.5-.9 1-1.9 2-3 3 .9-1.1 1.9-2.1 3-3l1.7-1.9.5-.6-7.3 7.1-1.5 1.5c-1.6 1.8-3.3 3.6-4.7 4.4l-1.3 1.2.3-.2c-.2.1-.4.3-.5.4l-5.5 5.3c-1 1.3-2.1 2.7-3.2 4l-1.5.9c-.5.9-1 1.6-1.7 2.4 1.2-.8 2.3-1.4 3.3-2.1 1.5-.9 2-3.4 4.1-4.2-2.1.8-2.6 3.3-4.1 4.2-1 .7-2.1 1.4-3.3 2.1-1.8 2-3.8 3.8-6 5.4 1.7-2.1 3.7-3.9 6-5.4.7-.7 1.2-1.5 1.7-2.4l1.5-.9c1.1-1.3 2.2-2.7 3.2-4l-10.9 10.6c-12 11.5-23.3 22.7-34.8 34l-8.6 8.5c-1.5 1.4-2.9 2.9-4.3 4.2-.7.7-1.5 1.3-2.2 1.9s-1.6 1.2-2.4 1.8c-6.7 4.6-14.5 7.1-22.6 7.3-10.9.3-21.5-3.8-29.5-11.2-1.5-1.4-2.9-3-4.2-4.6-2.5-3.3-4.6-6.9-6-10.8-12.6-32.7-26.3-61.7-37.9-95.3-4.5-12.9-14.8-35.9-20-48-8.3-15.6-8.6-5.6-8.4-4.7 1 11.3 6.1 18.3 12.8 39.4-4.8-14.3 6.4 9.3 9.7 23.3 4.6 20.3 18.7 46 27.7 69.7 2.2 5.9 5 12 7.9 19 2 5.1 4.8 9.9 8.3 14.1 3.5 4.2 7.8 7.7 12.5 10.5a49.9 49.9 0 0060.3-7.5l10.5-10.6 10.8-10.7c7.7-7.7 13.9-15.1 20-22 4.6-4.9 10-9.6 13.9-13.5 6.1-6.1 11-11.5 15.7-16.8-5.5 5.7-9.4 10-15.5 16.3-4.1 4.2 2-3.8 4.6-6.7 1-1.3 3.6-2.4 4.7-3.8 2.6-2.6 4.6-5.2 7.2-8.2 1-1.3 1.6-.5 2.1-1.2 3.6-3.9 5.6-7.7 8.2-9.9l5.4-4.7c1-1 2.1-2 3.1-3l1.9-2.2c-.5.3-1.1.3-1.6.2 1-1 2.6-2.2 3.6-3.1-1 1-2.6 2.2-3.6 3.1.6.1 1.1.1 1.6-.2 4.5-5.3 9.9-11.4 14.9-17h-.1c-3 3.2-6.3 6.2-9.7 8.9 1.5-1.2 1.5-.9 0 .7l-1.5.9c2.4-3 5.2-5.7 8.2-8l1.5-2c1-.8 1.1-.5 1.5-.5l1.8-1.9c-2.1 1.2-6.5 4.8-6.5 4.8z" class="st2"/><path d="M331 420.9l1.4-1.5-6.1 5.9c1.5-.8 3.1-2.6 4.7-4.4z" class="st2"/></g><g class="st1"><path d="M235.9 493.9l-.9.6c.2-.1.4-.1.5-.1.3-.2.3-.3.4-.5zM234.2 494.9l-.2.1-.1.1.3-.2zM232.6 495.8c.3-.1.6-.2.8-.4-.2.1-.5.2-.8.4zM234 495.3c-.1 0-.2-.1-.1-.2l-.5.3c.2 0 .4-.1.6-.1zM234 495.3h.4-.4zM234.3 497c-.2.1-.3-.3-.6 0s-.8.5-1.1.7c-.4.2-.8.4-1.2.5-.4.2-1.1-.1-1.4 0-.9.4-3.3 1.1-1.8 1 1.8-.2 3.6-.7 5.3-1.5a20 20 0 003.7-2.8l1-.8-.7.5-.8.4c-.4.3-.7.6-1 .9-.4.5-.9.8-1.4 1.1zM241 488.3c0 .2-.1.6-.1.6-.6.6-1.1 1.3-1.4 2.1l.4-.2c.3-.4.2-.5-.1-.2.8-.6 1.4-1.5 1.7-2.4-.2 0-.3-.1-.5.1zM241.7 487.6c-.1.2-.1.4-.2.5h.1l.1-.5zM229 497.2c-2.3.4-4.7.1-6.9-.7-.2 0-.4.1-.6 0l-.4-.4c-.3-.1-.6-.3-.9-.4l-.3-.1c-.2 0-.2.1-.1.2l.2.3c0-.1-.2-.2-.2-.3l-.4-.4c-.3-.1-.6-.3-.8-.5.3.1.6.3.8.5l.5.2h.2c-.7-.3-1.3-.7-1.9-1.2-.1-.1-.3-.2-.4-.2-.5-.3-1-.5-1.1-.9l-.3-.3v.1l-.1-.1-1.2-1.2c-.3-.2-.7-.4-1-.6l-.1-.5-.6-.3c.1.3.1.6.2.9.1.5.9.3.9 1 0-.6-.9-.5-.9-1-.1-.3-.2-.6-.2-.9-.4-.4-.7-1-.9-1.6.5.4.8 1 .9 1.6.2.2.4.3.6.3l.1.5c.3.2.7.4 1 .6-.4-.4-.7-.8-1.1-1.3-.4-.4-.7-.9-1-1.4-1.9-2.9-3-6.4-2.9-9.9.2-3.5 1.9-6.8 4.6-9.1 1.5-1.3 3.1-2.4 4.8-3.3 1.7-.8 3.5-1.4 5.3-1.7 3.6-.6 7.1-.4 9.7 1.2 2.8 1.9 4.6 4.9 4.9 8.2.3 1.7.4 3.3.5 5 .1 1.6-.1 3.3-.5 4.9 0 .6 0 1.2.2 1.8.1.3.4.6.8.7.5.2 1 .1 1.5-.1a4 4 0 001.4-1.5c.2-.3.3-.6.4-.9l.3-1c.4-2 .7-3.9.8-5.9-.2 1.8-.5 1.2-.7-.3-.3-1.9-.5-3.8-.6-5.7 0-2.7-1.6-5.8-4.4-8-1.4-1.1-3.1-2-4.8-2.5-.9-.3-1.7-.5-2.6-.6l-2.5-.3c-.9-.1-1.7 0-2.6.1-.4.1-.9.1-1.3.2l-1.4.3c-4.8.9-9.2 3.4-12.6 7-1.8 1.9-3.1 4.1-3.9 6.6-.8 2.6-1 5.3-.6 8 .5 2.5 1.6 4.9 3.3 6.8l1.4 2.1c.4.6.9 1.2 1.4 1.8 1.3 1.4 2.9 2.5 4.6 3.3-1.6-.9-3.2-2-4.5-3.3-.5-.5-.2-.4.3-.2l.9.5c.3.2.6.3.8.5.4.2.5 1 .9 1.2.4.3.7.5 1.1.7l1.3.5c.4.1.1.5.3.6.6.2 1.1.3 1.7.4.5 0 .9.1 1.4.3.6.3 1.1.5 1.6.7.3.1.7.2 1 .2h.7c-.1-.2-.2-.3-.2-.5l1.1.3-1.1-.3c0 .2.1.4.2.5 1.8-.1 3.6-.4 5.3-1-.5.1-1 .2-1.5.2s-1 0-1.5-.2c.4.1.4.2-.1.3-.1-.1-.3-.2-.4-.2.9-.2 1.7-.2 2.6-.1l.5-.2c.3 0 .3.2.4.3l.6-.2c-.5 0-1.9-.1-1.9-.1z" class="st3"/><path d="M219.4 495.4l.4.2c-.6-.3-1.1-.7-1.6-1 .2.3.7.5 1.2.8z" class="st3"/></g><circle cx="227" cy="481.3" r="5.7" class="st4"/><g class="st1"><path d="M222.9 485.7l.3.3c0-.1-.1-.1-.1-.2-.1-.1-.2 0-.2-.1zM223.4 486.2h.1-.1zM224 486.5c-.1-.1-.2-.1-.3-.2.1.1.2.2.3.2zM223.6 486.2s0 .1 0 0l.1.2c0-.1-.1-.1-.1-.2zM223.6 486.2s0-.1-.1-.1c.1 0 .1.1.1.1zM224.2 485.6c.1 0-.1.2.1.2s.5.1.7.2c.1 0 .2.3.3.3.3 0 1-.1.6-.2-.5-.1-1-.2-1.4-.4-.4-.1-.8-.3-1.2-.5-.1-.1-.2-.2-.2-.3.1.2.2.3.3.4 0 .2.5.1.8.3zM221.4 483.4l.1.1c0 .3.1.6.4.8v-.2c-.1-.1-.2-.1-.1 0 0-.3-.1-.7-.3-1 0 .2-.1.2-.1.3zM221.5 483l.1.2-.1-.2z" class="st3"/><path d="M225.4 486.9c.8.2 1.6.3 2.4.2.1 0 .1-.1.2-.1s.1 0 .2.1l.3-.1h.1c.1 0 0-.1 0-.1h-.1H228.8c.1-.1.2-.1.3-.1-.1.1-.2.1-.3.1l-.2.1h-.1c.3-.1.5-.1.8-.2l.1-.1c.2-.1.3-.2.5-.2l.1-.1c.2-.1.3-.2.5-.3.1-.1.1-.2.2-.3h.2c0-.1 0-.2.1-.2h-.3c-.2 0-.1.4-.3.3.2.1.2-.3.3-.3h.3c.1-.2.3-.3.5-.4-.1.2-.3.4-.5.4 0 .1-.1.1-.1.2h-.2c-.1.1-.1.2-.2.3a6.18 6.18 0 001.7-8.2c-.8-1.3-2-2.4-3.4-3-1.4-.6-3-.6-4.4 0a8.5 8.5 0 00-3.7 2.8c-.5.7-.9 1.4-1 2.3-.1.8-.1 1.6.1 2.5.4.8.8.8 1.1.7.2-.1.4-.2.5-.4.2-.4.4-.8.4-1.2 0-.6.2-1.1.5-1.6-.2.4-.4.2-.3-.2.1-.5.5-1 1-1.2.7-.3 1.3-.7 1.9-1.1a3.6 3.6 0 013.2-.4c1 .4 1.8 1.1 2.4 2 .6.9.8 2.1.5 3.2-.1.6-.3 1.2-.5 1.7-.2.3-.5.6-.9.8-.4.3-.8.6-1.1.9.4-.2.8-.5 1.1-.8.3-.2 0 .4-.2.6-.1.1-.3 0-.4.1-.2.1-.4.3-.6.4-.1.1-.1-.1-.2-.1-.3.1-.5.5-.8.5-.2 0-.3 0-.5-.1h-.5c0 .1.1.2.1.3-.1 0-.2-.1-.3-.1.1 0 .2.1.3.1 0-.1 0-.2-.1-.3-.5.1-1.1.1-1.6 0 .3.1.6.2.9.4-.1-.1-.1-.1.1-.1l.1.1c-.3.1-.6 0-.8-.2h-.2c-.1-.1 0-.1 0-.2h-.2c.3.2.5.4.7.6z" class="st3"/><path d="M228.7 486.8l-.1.1c.2 0 .4-.1.6-.2-.1-.1-.3 0-.5.1z" class="st3"/></g><g class="st1"><path d="M453.2 368.5l3.4 3.4c-.5-.6-1-1.3-1.5-1.9-.6-.7-1.2-1.2-1.9-1.5zM459.6 375.1l.6.6.6.5-1.2-1.1zM465.6 380.8c-1-1.1-2-2-3-3l3 3zM461.1 375.9c.3.5.3.8-.3.2l1.9 1.7c-.6-.6-1.1-1.2-1.6-1.9zM461.1 375.9c-.2-.4-.7-1.1-.8-1.3.2.4.5.8.8 1.3zM465 375c.7.5-.1 1 1.2 2.1 2.9 2.6 5.6 4.6 8.2 7.2 1.3 1 2.4 3.6 3.7 4.6 3 2.6 10.9 8.7 6.7 4.6-6.3-6.1-10.6-10-16.3-15.5-4.8-4.3-9.5-8.3-14.4-12.7-1.3-1.3-2.5-2.5-3.7-3.8l4.8 5.4c2.2 2.5 5.9 4.5 9.8 8.1zM428.7 343.2l2 1.5c2.3 3.1 5 5.8 8 8.2l-.9-1.5c-1.6-1.5-2-1.5-.7 0a81.9 81.9 0 00-8.9-9.7c0 .4-.2.6.5 1.5z" class="st2"/><path d="M426.3 340l1.9 1.8v-.1l-1.9-1.7zM478.7 392.6c7.8 7.8 15.2 15.2 22.3 22.4a7 7 0 011.9 1.5c.4.7.9 1.3 1.5 1.9l3.1 3.2 1.2 1c.7.5.6.2.3-.2s-.6-.9-.9-1.3c.1.3.6.9.9 1.3.5.7 1 1.3 1.5 1.9 1 .9 2 1.9 3 3-1.1-.9-2.1-1.9-3-3l-1.9-1.7-.6-.4 7.1 7.2 1.5 1.4c1.8 1.6 3.6 3.3 4.4 4.7l1.3 1.3-.2-.3.4.5 5.3 5.5c1.3 1 2.7 2.1 4 3.2l.9 1.5c.8.5 1.6 1.1 2.3 1.7-.8-1.2-1.4-2.3-2.1-3.3-.9-1.6-3.4-2-4.2-4.1.8 2.1 3.3 2.5 4.2 4.1.7 1 1.3 2.1 2.1 3.3 2 1.8 3.8 3.8 5.4 6a25.8 25.8 0 01-5.4-6c-.7-.7-1.5-1.2-2.4-1.7l-.9-1.5c-1.3-1.1-2.7-2.2-4-3.2l10.6 10.9c11.5 12 22.7 23.3 34 34.8l8.6 8.7c1.5 1.5 2.8 2.9 4.4 4.4.8.8 1.6 1.4 2.4 2.1s1.7 1.3 2.5 2c7.2 5.1 15.7 8.1 24.6 8.5 19.7 1 38-10.2 46.1-28.2 14.7-31.9 26-61.8 42.1-93.5 6.1-12.2 15.5-35.6 20.5-47.7 5.4-16.8-2-10-2.5-9.3-7.5 8.6-9 17.1-19.4 36.6 6.9-13.3-2.2 11.1-10 23.2-11.4 17.4-20 45.5-30.8 68.4-2.7 5.7-5.1 12-8.2 18.9-1.8 3.9-4.1 7.5-6.9 10.6a40.22 40.22 0 01-33.5 12.9c-8.4-.8-16.4-4.5-22.5-10.3l-.6-.6-.7-.6-1.3-1.3-2.6-2.6-5.3-5.2-10.7-10.8c-7.7-7.7-15.1-13.9-22-20-4.9-4.6-9.6-10-13.5-13.9-6.1-6.1-11.5-11-16.8-15.8 5.7 5.5 10 9.4 16.3 15.5 4.2 4.1-3.8-2-6.7-4.6-1.3-1-2.4-3.6-3.8-4.7-2.6-2.6-5.2-4.6-8.2-7.2-1.3-1-.5-1.6-1.2-2.1-3.9-3.6-7.7-5.6-9.9-8.2l-4.7-5.3c-1-1-2-2.1-3-3.1l-2-2c.3.5.3 1.1.2 1.6-1-1-2.2-2.6-3.1-3.6 1 1 2.2 2.6 3.1 3.6.1-.6.1-1.1-.2-1.6-5.3-4.5-11.4-9.9-17-14.9v.1c3.2 3 6.3 6.3 9 9.7-1.2-1.5-.9-1.6.8 0l.9 1.5c-3-2.6-5.9-5.1-8-8.2l-2-1.5c-.8-1-.5-1.1-.5-1.5l-1.9-1.8c.8 1.7 4.4 6.2 4.4 6.2z" class="st2"/><path d="M510.5 424.4L509 423l5.9 6.1c-.7-1.4-2.6-3-4.4-4.7z" class="st2"/></g><g class="st1"><path d="M605.3 498l.9.6c-.2-.1-.3-.3-.4-.4-.1-.2-.3-.1-.5-.2zM607.1 499.2l.2.1h.2c-.2 0-.3 0-.4-.1zM608.9 499.9c-.3-.1-.6-.3-.9-.4.3.2.6.4.9.4zM607.6 499.2c.1.1.1.2-.1.2l.5.2-.4-.4zM607.6 499.2c-.1-.1-.2-.3-.2-.3 0 .1.1.2.2.3zM608.7 497.9c.2 0-.1.4.3.5.4.1.8.2 1.2.2.4.1.7.1 1.1.2s.8.7 1.1.6c.9.1 2.9-.5 1.7-.5-1.5 0-3-.3-4.5-.7-1.3-.3-2.6-.8-3.8-1.5-.3-.2-.6-.5-.8-.8.2.2.3.4.5.6l.6.5c.3.3.7.5 1.1.5.5.1 1 .2 1.5.4zM600.3 491.7l.4.4c.2.9.7 1.7 1.4 2.2v-.5c-.3-.4-.5-.4-.3.1-.4-.9-.8-1.9-1.3-2.7-.1.2-.2.2-.2.5zM600.2 490.7c.1.2.2.3.3.5l-.3-.5z" class="st3"/><path d="M612.9 500.5c2.4.3 4.8.1 7.1-.6.1-.1.2-.3.5-.3h.6c.3-.1.6-.3.9-.4l.3-.2c.1-.1.1-.2-.1-.2.2 0 .4-.1.5-.1.3-.2.5-.4.8-.5-.2.2-.5.4-.8.5l-.5.3-.1.1c.7-.3 1.4-.7 2-1.1.1-.1.3-.2.4-.3.3-.4.8-.7 1.2-.8l.3-.3.1-.1c.5-.4.9-.7 1.3-1.2l.6-1 .4-.1c0-.2.1-.5.2-.7-.3.2-.6.3-.8.4-.4.1-.2 1-.9 1 .6 0 .5-.8.9-1 .2-.1.5-.2.8-.4.3-.5.8-1 1.3-1.4-.2.6-.7 1.1-1.3 1.4-.1.2-.2.4-.2.7l-.4.1-.6 1 1.2-1.2c.4-.4.8-.9 1.1-1.4 2.4-3 3.6-6.8 3.6-10.6-.2-4-1.9-7.8-4.8-10.5a25.48 25.48 0 00-10.9-6.7c-2-.7-4.2-.9-6.3-.8-2.2.1-4.3.7-6.2 1.8-1.9 1.1-3.6 2.6-4.9 4.4a27.7 27.7 0 00-3.4 5.7c-.8 2.1-1.2 4.3-1.2 6.5s.3 4.4.9 6.6c.3.8.8 1.4 1.4 1.9.3.2.7.3 1.1.1.4-.3.8-.7.9-1.2.2-.6.3-1.3.3-1.9v-.9c0-.3 0-.6-.1-.9-.2-1.7-.1-3.5.5-5.2-.4 1.5-.7 1-.6-.4.1-1.7.8-3.3 1.8-4.6 1.6-1.6 2.8-3.5 4.5-5 .8-.8 1.8-1.4 2.9-1.8.5-.2 1.1-.4 1.7-.4.6-.1 1.2-.1 1.8 0 .6.1 1.2.1 1.8.2.3 0 .7.1 1 .1l1 .2c1.8.6 3.5 1.4 5.2 2.4 1.6.9 3.1 2 4.4 3.3a10.93 10.93 0 013.4 9.7c-.2 1.9-.7 3.8-1.3 5.6-.3.6-.7 1.2-1.2 1.7s-.9 1-1.3 1.3c-1 1.1-2.1 2.2-3.3 3.2 1.2-.9 2.3-1.9 3.3-3.1.4-.4.4-.2.2.3-.1.2-.2.5-.4.8-.1.2-.3.4-.5.6-.2.3-.9.3-1.2.5-.3.2-.6.5-.8.8l-.8.8c-.2.3-.4-.2-.6 0-.4.3-.8.6-1.1 1-.3.3-.6.5-1 .6-.5.1-1 .2-1.5.2-.3.1-.6.1-.9.1l-.6.2c.2.1.3.3.3.5h-1c.3 0 .7.1 1 0-.1-.2-.2-.3-.3-.5-1.6.5-3.2.6-4.8.5.5.1 1 .1 1.4.2.5.1 1 .2 1.5.4-.4-.1-.4-.3.1-.3.1.1.2.1.4.2-.8.2-1.7.1-2.5-.3l-.6.1c-.3-.1-.2-.3-.2-.4l-.5-.1.9.6.7.3z" class="st3"/><path d="M622.8 498.7c-.1.1-.3.2-.4.2.6-.3 1.2-.6 1.7-.9-.5.1-1 .3-1.3.7z" class="st3"/></g><circle cx="615" cy="484.3" r="5.7" class="st4"/><g class="st1"><path d="M618.7 488.3l-.3.2h.2c.1-.1.1-.1.1-.2zM618.2 488.7h-.1v.1zM617.7 489.1c.1 0 .2-.1.3-.2-.1 0-.2.1-.3.2zM618.2 488.9s-.1 0 0 0h-.1.1zM618.2 488.9zM618.5 489.7c0 .1-.2-.1-.2 0-.2.2-.4.4-.7.6-.1.1-.4-.1-.5 0s-1 .7-.5.5c.6-.2 1.2-.5 1.7-.8.4-.4.8-.7 1.1-1.2l.3-.3c-.2.1-.3.2-.5.3-.3.1-.4.6-.7.9zM620.2 486.3v.2c-.3.2-.3.5-.4.7h.2c.1-.1 0-.2-.1-.1.3-.2.5-.5.5-.8 0 0-.1-.1-.2 0zM620.5 486.1v.2-.2z" class="st3"/><path d="M616.6 489.8c-.8.2-1.6.3-2.3.1-.1 0-.1.1-.2 0 0 0-.1-.1-.2-.1l-.3-.1h-.1c-.1 0-.1 0 0 .1l.1.1-.1-.1s-.1-.1-.2-.1-.2-.1-.3-.1c.1 0 .2.1.3.1h.2c-.2-.1-.5-.2-.7-.3h-.2c-.2 0-.4-.1-.4-.3l-.1-.1c-.2-.1-.3-.2-.4-.3-.1 0-.3-.1-.4-.1v-.2c-.1 0-.2 0-.2-.1 0 .1 0 .2.1.4 0 .2.4 0 .4.3 0-.3-.3-.1-.4-.3 0-.1-.1-.2-.1-.4-.2-.1-.3-.3-.3-.5.2.1.3.3.3.5.1 0 .1.1.2.1v.2c.1 0 .3.1.4.1-.3-.2-.5-.5-.8-.8a5.25 5.25 0 01-.3-6.4c.7-1 1.8-1.7 3-1.9 1.1-.2 2.2-.1 3.2.3s1.7 1.2 2 2.3c.1.4.3.9.4 1.4.1.5.1.9 0 1.4 0 .4.3.7.7.9.2.1.4.1.7 0 .5-.2.8-.7.8-1.2.1-.7.1-1.4.1-2.1 0 .7-.2.5-.3 0-.2-.6-.4-1.3-.6-2-.2-1.1-1-2.1-2.1-2.5-1.1-.5-2.3-.8-3.5-.8-.6 0-1.3.1-1.9.3-1.8.4-3.4 1.6-4.2 3.2-.9 1.7-1.1 3.6-.6 5.4.3.9.8 1.7 1.5 2.3.3.5.7.9 1.2 1.3s1.2.7 1.9.8c-.6-.2-1.2-.5-1.8-.9-.4-.3.5 0 .8.1.1 0 .2.4.4.4.3.1.6.2.9.2.2 0 .1.2.1.2.5.1.8-.2 1.1-.1.2.1.4.1.6.2h.4l.2-.1c-.1-.1-.1-.2-.1-.2.1 0 .3.1.4.1-.1 0-.3-.1-.4-.1 0 .1.1.2.1.2.6-.2 1.2-.4 1.7-.7-.3.1-.7.2-1 .1.2 0 .2.1 0 .1l-.2-.1c.3-.1.6-.2.9-.1l.2-.1c.1 0 .1.1.2.1l.2-.1h-1z" class="st3"/><path d="M613.3 489.7h.2c-.2-.1-.4-.2-.6-.2.1.1.2.2.4.2z" class="st3"/></g></svg>