<svg xmlns="http://www.w3.org/2000/svg" id="Layer_1" x="0" y="0" version="1.1" viewBox="0 0 842 842" xml:space="preserve"><defs/><style>.st1{opacity:.85}.st2{fill:#211f1e}.st3{fill:#262524}</style><path fill="#e6b8a2" d="M0 0h842v842H0z"/><g class="st1"><path d="M166 372l-4 4 2-2 2-2zM158 379l-1 1-1 1 2-2zM150 386l4-3-4 3zM156 381s-1 1 0 0l-2 2 2-2zM156 381l2-1-2 1zM157 385c-1 1-2 0-3 2l-5 5-4 4-3 3-2 2c-3 4-9 14-5 9l4-6 5-5 4-5 2-2 3-3 17-15 1-1 1-1 1-1 2-2-2 2-1 1-4 3-5 4-3 3-3 3zM199 344l-2 2-10 10 2-1c1-2 2-2 0-1l11-11-1 1zM202 341l-2 2 2-2z" class="st2"/><path d="M136 403a120 120 0 00-24 44v2c0 1 0 0 0 0l1-2-1 2v1l-1 2v0l1-2v-1-1l-1 12v11l1 2v-1 1c0 3 1 7 3 9l3 6v2l2 1 1 2-2-5-2-3 2 3 2 5 3 4 1 2 2 2a23 23 0 01-6-8l-1-2-1-1-1-1v-1l-3-5c2 5 5 11 10 16 6 7 15 13 24 18a154 154 0 0059 10 205 205 0 0048-9 154 154 0 0068-46 192 192 0 0020-25 493 493 0 0045-85l10-31c2-11 1-14 0-14l-3 3c-4 6-6 12-8 19-3 10-7 19-12 28 4-8 4-5 1 3a175 175 0 01-13 25l-22 37a210 210 0 01-47 55 145 145 0 01-95 32c-18 0-36-3-52-11l-14-8c-3-3-6-5-8-9-2-2-4-5-5-9a57 57 0 01-1 0l1 2-1-2-4-8-1-7-1-13 1-2 1-1v-1-3-4l1-3a35 35 0 013-7l2-4 2-4 2-3h-2l3-4-3 4h2a102 102 0 0115-23l-11 12c2-2 2-1 0 1l-1 1 8-11 1-1 1-1 2-1 2-3-2 2-2 2-3 3z" class="st2"/><path d="M111 452l1-3-1 11v-8z" class="st2"/></g><g class="st1"><path d="M146 507zM147 506zM147 505v0zM146 506h0zM146 506zM144 505h1l-1-2h1l-1-2v4zM144 512v-1l1-1h-1 1l-1 2zM143 512h1-1z" class="st2"/><path d="M147 503v-3-3-1 1l1-1v-2-1l-1-1v-1 1l1 1-1-2-2-7-4-5-6-5c-2-2-4-3-7-3l-7-3-7-1-2 3 1 2 2 1 3 2c-2-1 2-2 3 0l4 2 5 2h1l1 1 5 4 4 4 1 2 1 1 1 2v0l1 1v6h1v0h-1v2l1 1 1-1-1-1h1l-1 2v1l1-1zM147 497v-1 1z" class="st2"/></g><path d="M131 492c1 4 0 7-3 8s-6 0-7-4-1-7 2-8 7 1 8 4z" class="st3"/><g class="st1"><path d="M130 490v-1 1zM129 489zM129 489zM129 489zM129 489zM129 490l-1-1h-1s-1 0 0 0l1 1h1l1 1-1-1zM131 492v-1 1zM131 492z" class="st2"/><path d="M127 488h-2-1-1 0-2v1h1v-1h-1v0h1l-1 1-1 4 1 4 1 2 2 1 4 1a6 6 0 005-6v-2c-1-2-2 0-2 0v3c0-1 0-1 0 0l-1 1-2 1h-1-2l-2-2-1-4v-2l1-1h1-1c-1 0-1 0 0 0l1-1v1l1-1 1 1v-1 1h2l-1-1v1-1 1h1l-1-1zM124 488h-1 1z" class="st2"/></g><path d="M712 493c-1 4 0 7 3 8s6 0 7-4 1-7-2-8-8 1-8 4z" class="st3"/><g class="st1"><path d="M713 491h1-1zM714 491zM714 490v0zM714 491zM714 491zM714 490l1-1 1-1-2 1-1 2h-1 1l1-1zM712 493v-1 1zM712 493z" class="st2"/><path d="M716 490l2-1h3v1h1-1v-1 1l1 4-1 4-2 2h-4l-2-2v-2-2h-1l-1 1v2c0-1 0 0 0 0v2l3 3h5l3-2 1-2v-5-3l-1-2h-2-1 0-1-2l1 1h-1 1l-1-1-1 1h0v0l-1 1h2zM719 489z" class="st2"/></g><g class="st1"><path d="M674 375l4 3-2-2-2-1zM683 382l1 1-1-1zM690 388l-4-3 4 3zM684 383c1 0 1 0 0 0l3 2-3-2zM684 383l-1-2 1 2zM689 382l1 2 6 4 5 5 2 3 2 3 2 1 1 2 2 2 2 2c2 2 3 3 0 0l-4-6-5-5-5-5-2-2-3-3-19-14-1-1h-1v-1h-1l-2-2 2 1 1 2 4 3 5 4 4 2 4 3zM642 345a879 879 0 0013 12l-2-2c-2-2-2-2-1 0l-10-12v2zM639 341l2 2h1l-3-2z" class="st2"/><path d="M706 403a114 114 0 0121 36v3l2 5v2c0 1 0 1 0 0v-2 2l1 3v0l-1-2v-1-1l1 12v7l-1 3v3-1 1l-3 9-2 6h-1l-1 1v2l-1 1 3-3 1-3-1 3-3 3-3 4-2 2-2 2 4-4 3-4 1-1v-2l1-1 1-1 2-5-10 15c-7 7-15 13-24 17s-19 6-28 8l-30 1a192 192 0 01-46-10l-15-6a233 233 0 01-67-64c-12-18-22-36-29-56l-12-30-10-29c-4-10-5-12-7-12s-1 4-1 4c0 7 1 13 3 20l9 30a539 539 0 017 15l5 14c4 12 11 26 20 39a334 334 0 0049 57 147 147 0 0066 32c12 2 24 3 37 3 12 0 25-1 38-5a81 81 0 0049-39 54 54 0 004-30 62 62 0 01-4 29l-2 2 1-2 3-10 2-7-1-14 1-3-1-2v-1l-1-2-1-4-1-4-2-3-1-4-2-4-2-5-2-3v2l-3-6 3 6v-2l-9-11-9-11 10 13c-2-2-1-2 0 1l1 2-8-12h-1l-2-2v-2l-3-2 2 2 2 3 2 3z" class="st2"/><path d="M730 452l-1-2 1 10v-8z" class="st2"/></g><g class="st1"><path d="M698 507v-1l-1 1h1zM697 506v-1 1zM697 505zM697 506v-1 1zM697 506zM695 506v-1l-1-1v-1l-1-1 1 3 2 3v-1l-1-1zM699 511l-1-1v2l1-1zM699 512zM696 503v-2l-1-1v-3-1 1-1-1l1-1v-1-1h-1v0h1v-1 0l3-5a16 16 0 0110-8l7-1 6-1h7l1-3v-2l-3-1-3-1c2 1-2 2-4 0h-5l-6 2-1 1h-1l-8 5-6 8v4l-1 3v1h1v4l1 1-1 1v1h1v2l1 1v-2c0 1 0 1 0 0v2h1zM695 497v-1 1z" class="st2"/></g></svg>