<svg xmlns="http://www.w3.org/2000/svg" id="Layer_1" x="0" y="0" version="1.1" viewBox="0 0 841.9 841.9" xml:space="preserve"><defs/><style>.st1{opacity:.85}.st2{fill:#fefefe}.st3{fill:#e0caca}</style><path fill="#784936" d="M0 .6h841.9v841.9H0z"/><g class="st1"><path d="M222.4 449.3l-.6-.9c.1.2.1.4.1.6 0 .3.2.3.5.3zM221.2 447.6c0-.1-.1-.1-.1-.2l-.2-.1.3.3zM220.1 446.2c.1.3.3.6.5.8-.1-.3-.3-.6-.5-.8zM220.6 447.6c.1-.2.1-.3.4-.2l-.4-.4v.6zM220.6 447.6c-.1.2-.1.4-.1.5.1-.2.1-.4.1-.5zM217.4 448.9c-.2-.1.6-.6.3-.9l-1.1-1.1c-.3-.4-.6-.8-.8-1.2-.4-.3.4-1.4.1-1.7l-.6-.9c-.2-.3-.5-.6-.7-.9-.5-.5-.8-.8-.6 0 .5 2 1.4 4 2.6 5.7 1.1 1.3 2.4 2.5 3.9 3.5.3.3.6.6.9 1-.3-.5-.6-1-.9-1.6-.2-.4-.6-.6-1.2-.9-.8-.2-1.4-.5-1.9-1zM228.3 454.3l-.6.1c-.2-.4-.5-.8-.9-1-.4-.2-.8-.3-1.3-.5l.1.6c.5.2.7 0 .4-.4.5.9 1.4 1.6 2.5 1.9-.1-.2 0-.4-.2-.7zM228.9 455.3l-.6-.2v.1l.6.1z" class="st2"/><path d="M217.8 442.8c-.6-2.4-.7-4.9-.1-7.3-.1-.2-.3-.4-.2-.6.2-.1.3-.3.4-.5l.3-1v-.4c-.1-.2-.2-.2-.4-.1-.1.1-.3.2-.4.2.1 0 .3-.2.4-.2.2-.1.3-.3.4-.5.1-.3.2-.6.4-.9 0 .3-.1.6-.4.9v.8c.3-.7.6-1.4 1-2.1 0-.2.1-.3.1-.5.2-.5.3-1.1.9-1.2l.3-.3h-.1l.2-.1c.3-.5.7-.9 1.1-1.3.1-.4.2-.8.4-1.2l.6.1c-.1-.3 0-.6.1-.8h-1.2c-.7 0 .1 1.3-.9 1.1 1 .2.2-1.1.9-1.1h1.2c.4-.6 1-.9 1.7-.8-.3.8-1 .8-1.7.8-.1.2-.2.5-.1.8l-.6-.1c-.1.4-.3.8-.4 1.2.4-.4.8-.8 1.2-1.1.4-.4.9-.7 1.4-1 3-2 6.4-3.1 10-3.1 3.5 0 7 1.2 9.8 3.3 2.9 2.3 4.8 5.7 5.2 9.4.2 1.6.1 3.2-.1 4.9-.2 1.5-.6 3-1.3 4.4-.7 1.4-1.7 2.6-2.9 3.5-1.2.9-2.7 1.5-4.3 1.6-1.2.1-2.6.5-4.1.7-1.3.2-2.7.2-4.1 0-1.4.4-2.4 1.4-2.9 2.8-.3.8-.3 1.7-.2 2.5a4 4 0 002.4 2.8c.4.2.7.3 1.1.4 1.6.4 3.6.5 6.9.9-2.2-.2-1.5-.9.2-1.3 2.1-.7 4.3-1.1 6.5-1.2 3.5.1 6.9-2.6 8.8-6.2 1.9-3.6 2.7-7.8 3.2-11.6.1-.5.1-1 .1-1.5s-.1-1-.1-1.6c-.1-.5-.1-1.1-.3-1.6-.1-.5-.2-1.1-.4-1.7-1.1-6.1-4.8-11.3-10.1-14.3-5.4-3-11.6-4.1-17.7-2.9-3.4.7-5.7 2.8-7.7 4.6l-1.2.9c-.4.3-.8.5-1.2.9-.8.5-1.5 1.1-2.1 1.8-.8.9-1.5 1.9-2 3-.4 1-.8 2-1 3.1.6-2.1 1.7-4.1 3-5.8.6-.7.6-.2.4.5l-.3 1.2c-.1.4-.2.8-.3 1-.1.5-1.4.5-1.4 1-.2.4-.4.9-.5 1.4-.1.5-.1 1-.2 1.6s-.9.1-.8.4c-.1.7 0 1.4.1 2.1.2.5.3 1.1.1 1.6-.3.6-.5 1.2-.7 1.9-.1.4-.2.8-.1 1.2l.2.8c.3-.2.6-.3 1-.3 0 .4-.3.9-.3 1.2 0-.4.2-.9.3-1.2-.4 0-.7.2-1 .3.6 1.9 1.4 3.8 2.4 5.5h.1c-.5-1-.5-2.2-.2-3.3-.1.5-.4.5-.5 0l.4-.5c.1.2.2.5.3.7.1.2.2.4.2.7.1.5.1 1-.1 1.4l.5.5c0 .3-.3.4-.6.5l.3.6c.2-.4.3-.8.4-1.3.3-.7.3-1 .3-1z" class="st2"/><path d="M218.4 432.5c0 .1 0 .3-.1.5.2-.6.5-1.2.9-1.8-.6.1-.7.7-.8 1.3z" class="st2"/></g><circle cx="235.4" cy="438.7" r="8.2" class="st3"/><g class="st1"><path d="M228.1 432.6l-.4.4h.5c.1-.1 0-.2-.1-.4zM227.4 433.4l-.1.2s0-.1.1-.2zM227 434.5c.1-.1.2-.3.2-.5-.1.1-.2.3-.2.5zM227.6 433.9c-.1 0-.3-.1-.3-.2l-.1.3c.2-.1.3-.1.4-.1zM227.6 433.9h.4-.4zM230.4 435.8c.1.1-.8-.4-.6-.1.1.4.4.8.3 1.1.1.2-.9 0-.7.2.2.3.4.6.7.8.3.2.6.3.6.1-.1-.5-.1-1.1-.1-1.6-.2-.6-.2-1.3-.1-1.9.1-.1.2-.2.4-.3-.3 0-.5.1-.8.2-.2 0-.1.3 0 .6.2.2.3.6.3.9zM231.9 430.5c0 .1-.1.4-.1.4-.7-.4-1 0-1.2.5l.4.3c.2-.2.1-.4-.2-.5.5.2 1.1.1 1.6-.2-.3-.2-.4-.5-.5-.5z" class="st2"/><path d="M232.5 430.9l-.2.2v.1l.2-.3z" class="st2"/><path d="M227.1 436.7c-.2 1.2-.3 2.4-.2 3.5.2 0 .4.1.3.2l-.3.3c0 .2.1.3.1.5l.1.1c.1 0 .3 0 .4-.1l.3-.3-.3.3c-.1.1-.1.2-.2.3.1.1.2.3.2.4-.1-.1-.2-.2-.2-.4l-.2-.2h-.1c.1.4.2.8.3 1.1l.2.2c.3.2.5.4.2.8l.1.2v-.1.1c.1.3.3.5.4.8.3 0 .5 0 .8.1 0 0-.1.3-.2.5.2-.1.4-.1.6-.1l.3-.9c.2-.4-1 .3-.4-.4-.5.8.7 0 .4.4-.1.2-.2.5-.3.9.3.1.5.4.4 1-.6.1-.6-.4-.4-1-.2 0-.4 0-.6.1.1-.2.2-.5.2-.5-.3 0-.5-.1-.8-.1.3.5.7 1 1.1 1.5 1.5 1.5 3.4 2.5 5.5 2.6 2.2.2 4.4-.4 6.4-1.5 2.3-1.3 4.2-3.3 5.3-5.7 1.1-2.5 1-5.4-.1-7.9-1.2-2.7-2.9-5.2-4.9-7.3a7.34 7.34 0 00-4.5-1.9c-1.6-.2-3.3 0-4.8.4-1.1.9-1.4 2.5-.7 3.8.3.8.7 1.5 1.2 2.2l1.2 1.5c.2.2.5.4.8.5.8.1 1.4.6 1.6 1.4-.3-.7-.1-1.2.4-1.2s1.2.7.9 1.9c-.5 1.9-.5 2.1-.1 2.4s1 .8.6 1.3c-.2.2-.1.5-.2.7-.5.3-1 .8-1.3 1.3-.4.6-1.1.9-1.8.7-.3 0-1 .6-1.7.7-.4-.1-.4-.7-.5-.9-.4-.3-.8-.5-1.3-.6.3.3.7.6 1.1.8.1.1-.1.3-.5.4-.3.1-.7.2-1 .1-.2 0 .6-.7.3-.7-.1-.2-.6-.2-1-.4s.6-.4.5-.4c-.3-.1-.6-.2-.9-.2-.3-.1-.6-.2-.5-.3.1-.2.2-.4.4-.6v-.3l-.2-.2c-.3.1-.7.1-1 .1 0-.1.2-.3.3-.4-.1.1-.3.3-.3.4.3 0 .7-.1 1-.1-.6-.6-1-1.3-1.2-2.1h-.1c0 .5-.4 1-.9 1.2.2-.2.5-.1.5.1l-.5.1c-.2-.4-.4-.9.3-1.1l-.2-.3c.2-.1.4 0 .7.1v-.3c-.3 0-.6.1-.8.2.1.1 0 .2-.2.3z" class="st2"/><path d="M227.4 441.7c-.1-.1-.1-.1-.1-.2.1.3.1.6.2 1 .4-.4.2-.6-.1-.8z" class="st2"/></g><g class="st1"><path d="M619.8 418.2l1 .4c-.2-.1-.3-.3-.4-.5-.2-.2-.4-.1-.6.1zM621.6 418.9l.2.1h.2c-.1 0-.2-.1-.4-.1zM623.4 419.5a3 3 0 00-.8-.4c.2.2.5.3.8.4z" class="st2"/><path d="M622.2 418.6c0 .2 0 .3-.2.4l.6.1c-.2-.2-.3-.3-.4-.5zM622.2 418.6c0-.2-.2-.4-.2-.5 0 .2.1.4.2.5zM624 415.7c.2 0-.2.9.3.9s1 .2 1.5.3c.5.1.9.3 1.3.6.5.1.4 1.4.9 1.5.2.1.6.2 1 .4.4.1.7.3 1.1.4.7.2 1.1.2.5-.4-1.6-1.4-3.4-2.5-5.3-3.2-1.7-.4-3.4-.7-5.2-.7-.5-.1-.9-.2-1.3-.4.5.3 1.1.5 1.7.8.4.2.9.1 1.5 0 .7-.4 1.3-.3 2-.2zM612 417.4l.5-.4c.4.2.9.3 1.3.3.4-.1.9-.2 1.3-.4l-.4-.5c-.5.1-.6.4-.1.5-1-.5-2.1-.5-3.1-.2.2.3.2.6.5.7z" class="st2"/><path d="M611 416.9l.6-.2v-.1l-.6.3z" class="st2"/><path d="M627.2 421c1.9 1.6 3.3 3.6 4.2 5.9.2.1.5.1.5.4-.1.2-.1.4-.1.6l.3 1 .2.3c.2.1.3.1.4-.1.1-.2.1-.3.2-.5-.1.1-.1.3-.2.5s-.1.4-.1.6c.1.3.2.7.2 1-.2-.3-.3-.7-.2-1l-.3-.5-.1-.1c.2.8.3 1.5.4 2.3.1.2.1.3.1.5.2.5.4 1.1-.1 1.5v.4l.1-.1-.1.2c0 .6-.1 1.1-.2 1.7.2.4.3.8.4 1.2l-.5.3c.2.2.3.5.3.7l1-.7c.6-.3-.8-1 .1-1.4-1 .4.4 1.1-.1 1.4-.3.3-.7.5-1 .7 0 .7-.4 1.3-1 1.6-.2-.8.4-1.2 1-1.6 0-.3-.1-.5-.3-.7l.5-.3c-.1-.4-.2-.8-.4-1.2-.1.6-.2 1.1-.4 1.6-.1.6-.3 1.1-.5 1.6a18.1 18.1 0 01-6.5 8.2c-2.9 2-6.4 3-10 2.8-3.7-.2-7.2-1.9-9.6-4.8-1-1.2-2-2.6-2.7-4-.7-1.4-1.2-2.9-1.4-4.4-.2-1.5-.1-3.1.4-4.5a7.6 7.6 0 012.6-3.7c.9-.8 1.9-1.9 3-2.9 1-.9 2.1-1.7 3.4-2.3.9-1.1 1.2-2.6.8-3.9-.2-.8-.7-1.6-1.3-2.2-.7-.6-1.5-.9-2.4-1-.4 0-.8 0-1.1.1-.4.1-.8.2-1.1.4-2.1.9-4.2 2-6.2 3.1 1.9-1.1 1.7-.1.6 1.2-1.4 1.8-2.9 3.3-4.7 4.7-2.9 1.9-4.2 6-3.7 10.1s2.2 8 4 11.4c.2.4.5.9.8 1.3s.6.8 1 1.2c.3.4.7.8 1.1 1.2l1.2 1.2c4.3 4.4 10.4 6.6 16.5 6 6.1-.6 11.9-3.2 16.2-7.6 2.4-2.5 3.2-5.5 3.7-8.2l.5-1.4c.2-.5.4-.9.5-1.4.3-.9.6-1.7.7-2.6.1-1.2.1-2.4-.1-3.6-.2-1.1-.5-2.1-.9-3.1.7 2.1.9 4.3.8 6.5-.1.9-.3.5-.6-.2l-.4-1.1-.3-1c-.2-.4.9-1.2.6-1.7-.1-.5-.2-1-.4-1.5s-.5-.9-.7-1.4.7-.6.5-.8c-.3-.6-.8-1.2-1.3-1.6-.5-.4-.9-.8-1-1.3-.1-.6-.3-1.3-.5-1.9-.1-.4-.3-.7-.6-1l-.6-.5c-.1.3-.4.6-.6.9-.2-.3-.3-.9-.5-1.2.2.3.3.9.5 1.2.3-.2.5-.5.6-.9-1.6-1.3-3.3-2.3-5.1-3.2v.1c1 .6 1.7 1.5 2 2.6-.2-.5.1-.6.5-.3l-.1.6c-.2-.1-.4-.3-.6-.4-.2-.1-.4-.3-.6-.4-.4-.3-.6-.8-.7-1.2l-.7-.1c-.1-.3 0-.5.2-.8l-.6-.3c.1.4.2.8.4 1.2 0 .3.2.6.2.6z" class="st2"/><path d="M632.5 429.8c-.1-.1-.1-.3-.2-.5l.3 1.9c.4-.3.2-.9-.1-1.4z" class="st2"/></g><circle cx="615" cy="434.3" r="8.2" class="st3"/><g class="st1"><path d="M624.5 435.2l.1-.6c-.1.1-.2.2-.4.3-.1.1.1.2.3.3zM624.6 434v-.1l-.1-.1c.1.1.1.2.1.2zM624.3 433c0 .2 0 .4.1.5.1-.2 0-.4-.1-.5z" class="st2"/><path d="M624.2 433.9c.1-.1.3-.1.4 0l-.1-.3-.3.3zM624.2 433.9c-.1.1-.3.2-.3.2 0-.1.1-.2.3-.2zM620.8 433.9c-.1 0 .8-.1.6-.2-.3-.3-.8-.5-.8-.7-.2 0 .7-.5.5-.6-.3-.2-.7-.2-1-.2-.4 0-.7.1-.6.2.4.4.7.8 1 1.3.5.4.9.9 1.2 1.5 0 .2-.1.3-.2.4.2-.2.4-.4.5-.6.1-.1-.1-.3-.4-.5s-.7-.4-.8-.6zM622.6 439l-.1-.4c.8 0 .8-.6.7-1.1h-.5c0 .2.2.4.5.3-.5.1-1 .5-1.2 1 .2.1.4.3.6.2zM621.8 439.1c0-.1.1-.2.1-.3h-.1v.3z" class="st2"/><path d="M623 431.2c-.5-1.1-1.1-2.1-1.9-3-.2.1-.4.2-.4 0v-.4l-.4-.4h-.2c-.1 0-.2.2-.2.3 0 .1 0 .3-.1.4 0-.1 0-.2.1-.4v-.4c-.2 0-.3-.1-.4-.2.2 0 .3.1.4.2l.3.1h.1c-.3-.3-.6-.5-.9-.8h-.3c-.3 0-.6 0-.6-.5l-.2-.1v0a3 3 0 00-.8-.4c-.2.1-.5.3-.7.4 0 0-.1-.3-.1-.5-.1.2-.2.3-.4.4l.3.9c0 .5.6-.8.6.1 0-.9-.5.4-.6-.1-.1-.2-.2-.5-.3-.9-.3.1-.6-.1-.9-.6.4-.4.7 0 .9.6.2-.1.3-.2.4-.4 0 .2.1.5.1.5.2-.1.5-.2.7-.4a8.44 8.44 0 00-7.8.4c-1.9 1.1-3.5 2.8-4.4 4.8-1.2 2.4-1.6 5.1-1.2 7.7.6 2.7 2.2 5 4.6 6.4 2.5 1.6 5.3 2.7 8.2 3.2 1.7.2 3.3-.2 4.8-1 1.4-.8 2.7-1.8 3.7-3.1.5-1.8-.6-2.8-1.6-3.5-.7-.5-1.4-.8-2.2-1.1-.6-.2-1.2-.4-1.8-.5-.3-.1-.6-.1-.9 0-.7.3-1.5.3-2.1-.2.7.4.8.9.3 1.2s-1.4.1-1.8-1c-.7-1.8-.8-2-1.3-2.1s-1.3 0-1.2-.7c0-.3-.2-.4-.2-.7.3-.6.4-1.2.4-1.8 0-.7.4-1.3 1.1-1.6.3-.1.5-1.1 1-1.6.4-.1.7.4.9.4.5 0 1 0 1.4-.2-.5-.1-.9-.1-1.4 0-.2 0 0-.3.2-.6s.4-.5.7-.7c.2-.1 0 .9.1.7.2.1.6-.2 1-.2.2-.1-.3.7-.2.6l.9-.3c.3-.1.6-.2.6 0v.7c0 .1.1.2.2.3h.3c.2-.2.5-.5.8-.7v0c-.3.2-.5.4-.8.7.8.1 1.6.5 2.2 1.1h.1c-.3-.4-.3-1 0-1.4-.1.3-.3.4-.5.2l.3-.4c.4.2.9.5.4 1.1l.4.1c-.1.2-.4.2-.6.4 0 .1.1.2.2.2.2-.2.4-.4.5-.6.1-.3.1-.4.2-.6z" class="st2"/><path d="M619.9 427.3l.2.1c-.2-.2-.5-.4-.7-.6-.1.4.2.5.5.5z" class="st2"/></g><g class="st1"><path d="M378.6 412l-2.9 2.2c.5-.3 1.1-.6 1.6-.9.6-.3 1-.7 1.3-1.3zM373.1 416.2l-.5.4-.4.4.9-.8zM368.1 420.1c.9-.6 1.7-1.2 2.6-1.9-.9.6-1.8 1.2-2.6 1.9zM372.3 417.4c-.4.1-.6.1-.2-.4l-1.5 1.2c.6-.3 1.2-.6 1.7-.8zM372.3 417.4c.4-.1.9-.4 1.1-.4-.3.1-.7.2-1.1.4zM373.1 421c-.5.5-.9-.4-1.8.5-2 1.9-4.1 3.8-6.3 5.5-.9.9-3.2 1.1-4.1 2-1.2 1-3.1 2.8-4.4 4s-1.7 1.9.1.7c5.5-3.9 9-6.6 13.8-10.3 1.9-1.6 3.7-3.2 5.5-4.8s3.6-3.3 5.5-5c1.1-.9 2.2-1.6 3.2-2.4l-4.6 3c-1.2.9-2.2 1.9-3.2 3-1 1.3-2.3 2.6-3.7 3.8zM399.5 395.5l-1.2 1.5c-2.6 1.3-4.6 3.5-6.7 5.6.4-.1.9-.3 1.3-.5 1.2-1.1 1.2-1.5 0-.7 2.9-1.8 5.5-3.8 8-6.1-.4 0-.6-.3-1.4.2zM402.3 394l-1.4 1.3h.2l1.4-1.4-.2.1zM357.7 428.6l-2.6 1.8-2.6 1.7-5.1 3.3c-3.4 2.1-6.8 4-10.1 6-.4.5-.9.9-1.4 1.1-.6.1-1.2.3-1.8.6l-3 1.6-1 .6c-.5.4-.3.4.1.4l1.2-.3c-.2 0-.8.2-1.2.3-.6.2-1.2.4-1.7.6-.9.6-1.9 1.1-2.8 1.5.9-.6 1.9-1.1 2.8-1.5.6-.3 1.1-.7 1.6-1l.4-.3c-1.1.6-2.3 1.2-3.4 1.7l-3.4 1.7-1.4.8c-1.3 1-2.8 1.6-4.4 1.9l-1.3.5h.3l-.5.1c-1.8.8-3.5 1.6-5.3 2.3-1.1.6-2.2 1.4-3.3 2l-1.4.1c-.5.5-1.1 1-1.8 1.3 1.1-.1 2.1-.2 3-.4 1.4-.1 2.3-2 4.1-1.8-1.8-.2-2.7 1.7-4.1 1.8-.9.2-1.9.2-3 .4-1.9.9-3.8 1.5-5.9 1.7 1.8-1 3.8-1.6 5.9-1.7.7-.3 1.3-.8 1.8-1.3l1.4-.1c1.1-.6 2.2-1.3 3.3-2-3.5 1.4-7.1 2.8-10.8 4.1-1.5.5-3 1.1-4.4 1.5l-4.4 1.4c-2.9 1-5.9 1.7-8.8 2.5-1.5.4-3 .7-4.4 1.1l-4.4 1-4.5.8c-1.5.3-3 .5-4.5.7l-4.5.6c-1.5.2-3 .3-4.5.5-3 .4-6.1.4-9.2.5-6.3.1-12.6-.2-18.9-.9-13.4-1.7-26.4-5.7-38.4-11.7-11.3-5.6-22-12.5-31.7-20.5-9.8-8.1-18.4-17.6-25.5-28.1-2.8-4.2-7-10-11-15.9s-7.6-12-9.9-16.2c-3.7-5.3-5.5-6.1-6.6-5.5s-1.3 2.8-1.3 3.1c.2 4.5 1.6 8 3.8 12.2s5.2 9.2 9.2 16.8c-2.8-5.1-1.1-3.6 1.8.3 3.7 4.9 7 9.9 10 15.2 3.7 7.2 10.3 14.5 18.1 21.2s16.7 12.6 25 18c4.6 2.9 9.4 5.4 14.4 7.6a120.4 120.4 0 0044 11.8c7.6.6 15.3.5 22.9-.1 7.9-.7 15.7-1.9 23.4-3.5 8.4-1.9 15.3-4.9 21.9-7.7 2.4-1 5-1.9 7.4-2.7s4.7-1.7 6.7-2.5c3.1-1.2 5.8-2.7 8.4-4s5-2.8 7.3-4.2c-2.7 1.5-5 2.8-7.4 4l-3.8 1.9-2 1-2.2 1c-4.2 1.8 2.5-2.3 5-3.9 1.1-.7 3.4-.6 4.4-1.4 2.5-1.3 4.8-2.8 7.1-4.4 1-.8 1.4.1 1.9-.2 3.5-2.1 5.6-4.8 8-5.8l4.9-2.4c1-.5 1.9-1 2.9-1.7l1.8-1.4c-.5.1-1-.1-1.4-.3 1-.5 2.3-1.2 3.2-1.7-.9.5-2.3 1.2-3.2 1.7.4.3.9.4 1.4.3 2.1-1.7 4.4-3.5 6.7-5.2s4.6-3.7 6.8-5.5h-.1c-2.7 2-5.6 3.8-8.6 5.1 1.4-.6 1.4-.3 0 .7l-1.4.3c1.2-.9 2.3-1.8 3.6-2.6 1.2-.8 2.5-1.5 3.8-2.1l1.4-1.3c.9-.4 1-.1 1.3 0l1.6-1.2c-2.1.6-3.9 1.4-5.7 2.3z" class="st2"/><path d="M328.5 446.2l1.4-.8c-1.9 1-3.9 1.9-5.8 2.8 1.2-.1 2.8-1 4.4-2z" class="st2"/></g><g class="st1"><path d="M460.7 415.7c.9.8 1.9 1.5 2.9 2.3-.5-.4-.9-.9-1.2-1.4a7 7 0 00-1.7-.9zM466.2 420.1c.2.1.3.3.5.4l.5.2c-.4-.2-.7-.4-1-.6zM471.4 423.6c-.8-.7-1.7-1.3-2.6-1.9.8.8 1.7 1.4 2.6 1.9zM467.5 420.5c.2.4.3.6-.3.3l1.6 1c-.5-.4-.9-.9-1.3-1.3zM467.5 420.5c-.2-.3-.6-.8-.7-1 .2.3.4.7.7 1zM470.8 418.7c.6.3-.1 1 1 1.5 2.5 1.5 4.8 2.7 7 4.2 1.2.5 2.2 2.5 3.3 3 1.7.9 3.5 1.8 5.3 2.5 1.6.6 2.4.8.6-.4-5.6-3.6-9.3-5.8-14.2-9.2-2.1-1.3-4.1-2.5-6.2-3.8s-4.1-2.6-6.1-4c-1.1-.8-2.1-1.6-3.1-2.5 1.2 1.2 2.5 2.4 4 3.7 1.1.9 2.3 1.7 3.6 2.3 1.5.8 3.1 1.6 4.8 2.7zM440.4 398.2l1.6 1a24 24 0 006.5 5.8l-.7-1.2c-1.3-1.1-1.6-1-.6.2-2.2-2.6-4.6-4.9-7.2-7 0 .3-.2.5.4 1.2zM438.5 395.8l1.5 1.2v-.1l-1.5-1.1z" class="st2"/><path d="M482.9 430.6l2.6 1.8 2.6 1.7 5.1 3.3c3.4 2.1 6.7 4.1 10 6.2.6 0 1.2.3 1.7.6.4.4.9.8 1.4 1.2l2.9 1.7 1.1.5c.6.2.5 0 .2-.3l-.9-.9c.1.2.6.6.9.9.4.4.9.8 1.5 1.1.9.4 1.9.9 2.9 1.4-1-.4-2-.9-2.9-1.4-.6-.2-1.2-.5-1.7-.8l-.5-.2c1.1.6 2.2 1.3 3.4 1.9l3.4 1.8 1.5.7c1.7.8 3.5 1.4 4.3 2.3l1.2.6-.2-.2c.2.1.3.2.4.3 1.7.8 3.5 1.8 5.3 2.5 1.2.3 2.5.6 3.8 1l1 1c.7 0 1.5.1 2.2.4-.9-.7-1.6-1.3-2.4-1.9-1-.9-3.1-.2-4.1-1.7 1.1 1.4 3.1.7 4.1 1.7.8.5 1.5 1.2 2.4 1.9 2 .6 3.9 1.5 5.6 2.6-2-.4-3.9-1.3-5.6-2.6-.7-.3-1.4-.4-2.2-.4l-1-1c-1.2-.4-2.5-.7-3.8-1 3.5 1.5 7 3.2 10.7 4.6 1.5.6 2.9 1.2 4.4 1.7l4.4 1.6c2.9 1.1 5.9 1.9 8.9 2.8 1.5.5 3 .8 4.5 1.2l4.5 1.1 4.5.9c1.5.3 3 .6 4.6.8l4.6.7c1.5.2 3.1.4 4.6.5 3.1.4 6.2.5 9.4.7 6.5.2 13 .1 19.4-.4 14-1.3 27.7-4.6 40.7-9.8 12.7-5.1 23.8-12.3 34-20.4S708 426 717.7 416c4.6-5 8.8-10.5 12.5-16.2 3.7-5.6 7.1-11.5 10.1-17.5 2.5-6.5 1.8-8.7.6-9.1s-3 .9-3.2 1.1c-3.4 2.9-5.4 5.9-7.9 9.9-3.2 5.3-6.9 10.4-11.1 15 3.7-4.3 3-2.3.3 1.8s-7.6 9.8-11.9 13c-6.3 4.6-12.7 11.1-19.8 17.6s-14.9 12.8-23.1 17.1c-4.1 2.1-8.3 4.6-13.4 6.8-12.9 5.2-26.5 8.6-40.4 10.1-7 .7-14.1.9-21.1.5-7.3-.5-14.6-1.5-21.8-3.1-7.8-1.7-14.8-3-21.5-4.7-2.4-.8-4.8-1.8-7-2.7s-4.4-2-6.2-2.8l-15.9-6.6c2.7 1.3 5 2.4 7.4 3.4l3.8 1.6 2 .9 2.2.9c4.1 1.6-3.3 0-6.1-1.1-1.2-.3-2.5-2.1-3.8-2.5-2.5-1.2-4.8-2-7.6-3-1.2-.4-.6-1.2-1.2-1.4-3.6-1.7-6.9-2.1-9-3.6-1.6-1.1-3-2.1-4.4-3.1-.9-.6-1.8-1.2-2.8-1.7-.6-.3-1.3-.6-2-.9.3.4.4.9.3 1.4-.9-.6-2-1.6-2.9-2.2.9.6 2 1.6 2.9 2.2.1-.5-.1-1-.3-1.4-2.4-1.2-4.9-2.5-7.5-3.9s-5.1-2.9-7.5-4.3v.1c2.8 1.8 5.5 3.8 8 6.1-1.1-1-.8-1.1.6-.2l.8 1.1-3.9-2.1c-1.2-.8-2.3-1.7-3.3-2.8l-1.8-.8c-.7-.6-.5-.9-.5-1.2l-1.7-1c1.5 1.3 2.8 2.7 4.3 3.9z" class="st2"/><path d="M512.1 448.4c-.4-.2-.9-.4-1.5-.7 1.9 1.1 3.8 2 5.7 3.1-.8-1-2.5-1.7-4.2-2.4z" class="st2"/></g></svg>