<svg xmlns="http://www.w3.org/2000/svg" id="Layer_1" x="0" y="0" version="1.1" viewBox="0 0 841.9 841.9" xml:space="preserve"><defs/><style>.st1{opacity:.85}.st2{fill:#090a0a}</style><path fill="#eee2de" d="M0 0h841.9v841.9H0z"/><g class="st1"><path d="M201.5 460.4l.3-1.7c-.1.3-.3.6-.4.8-.2.4 0 .6.1.9zM202 457.1v-.3l-.1-.3.1.6zM202.1 454.1c-.1.5-.2 1-.1 1.5.1-.5.2-1 .1-1.5z" class="st2"/><path d="M201.6 456.5c.2-.2.3-.2.4.1v-.9c-.1.2-.2.5-.4.8zM201.6 456.5zM198.3 455.3c-.1-.3.9-.1.7-.7s-.1-1.3-.2-2c-.1-.6-.1-1.3-.1-1.9-.2-.6.9-1.4.8-2-.1-.9-.4-1.8-.7-2.7-.3-.8-.6-1.2-.6-.1-.1 3.1.1 5.1 0 7.9.1 2.3.4 4.5.4 6.9-.1.6-.2 1.2-.4 1.8.3-.8.6-1.5.9-2.4.3-1.3-.8-2.9-.8-4.8zM198.5 472.8l-.1-1a6.4 6.4 0 001.1-4l-.6.5c-.1.8.1.9.5.3-.8 1.4-1.4 2.9-1.6 4.5.2 0 .5.1.7-.3zM197.6 474l.1-.9h-.1v.9z" class="st2"/><path d="M201.7 447.7c.2-2 .1-3.9.2-5.8 0-1 .1-1.9.1-2.8v-2.8c-.2-.3-.4-.5-.3-.9.2-.3.3-.6.3-.9V433l-.1-.6c-.1-.3-.3-.2-.4 0l-.3.6c.1-.1.2-.4.3-.6.1-.3.2-.6.2-.9-.1-.5-.1-1-.1-1.5.1.5.2 1 .1 1.5 0 .3.1.6.1.9l.1.3v-3.6c0-.3-.1-.5-.1-.8-.3-.8-.3-1.6 0-2.4v-.6l-.1.1c0-.1 0-.2.1-.2 0-.9-.1-1.8-.1-2.8-.2-.6-.5-1.2-.7-1.8l.4-.7c-.3-.3-.5-.6-.6-1-.2.5-.5 1-.7 1.4-.4.6 1.1 1.3.3 2.1.8-.8-.7-1.4-.3-2.1.1-.4.4-.9.7-1.4-.2-1-.2-2 .1-2.9.4.9.4 2-.1 2.9.1.4.3.7.6 1l-.4.7c.2.6.5 1.2.7 1.8l-.3-5.5c-.8-12-3.1-22.9-5.8-35-1.5-6.6-3-12.9-4.4-19.1-1.6-6-3.5-11.9-5.7-17.6-2.3-5.8-4.2-11.8-5.8-17.8-.9-3.1-2.1-6-3.6-8.9-1.6-3.2-3.3-6.2-4.5-8.3-2.2-2.5-3.9-2.5-5-1.8-.7.5-1.3 1.3-1.6 2.2-1.3 5.1 1.9 6.8 3.4 14.8-1.3-5.3 3.8 2.6 3.6 8.2-.2 4.1 1.4 8.1 3.2 12.4s4 8.5 5.1 12.9c.6 2.2 1.4 4.4 2.2 6.9 1.6 6.8 3.5 13.1 5.4 19.5 2 6.6 3.6 13.4 4.8 20.2.3 1.8.8 3.6 1.4 5.3.5 1.7 1.1 3.2 1.5 4.8.5 2.3.2 4.9.4 6.8.3 2.7.7 5.4 1.3 8-.4-2.8-.6-4.8-1.1-7.8-.3-2 1.4 1.3 1.8 2.7.2.6-.8 1.6-.5 2.1.2 1.3.5 2.6.9 3.8.2.6-.7.5-.6.8.2 1.9 1.5 3.3 1.3 4.5-.1.9-.2 1.7-.4 2.5-.1.5-.1 1-.1 1.5l.2 1c.3-.2.6-.4 1-.5-.1.5-.3 1.2-.4 1.7.1-.5.3-1.2.4-1.7-.4.1-.7.2-1 .5.2 1.2.5 2.6.7 3.9s.3 2.8.4 4.1h.1c0-1.6.3-3.2.8-4.7-.2.7-.5.6-.5-.2l.5-.6c.1.7.2 1.4.2 2.1 0 .7-.2 1.4-.6 2l.3.9c-.2.4-.5.4-.7.5v.9c.9-.9 1.4-1.8 1.7-2.7z" class="st2"/><path d="M201.9 431.5c0 .2.1.5.1.8v-3.1c-.5.6-.3 1.5-.1 2.3z" class="st2"/></g><g class="st1"><path d="M642.1 458.2c-.1-.5-.1-1.1-.2-1.7 0 .3-.1.6-.2.9-.1.4.1.6.4.8zM641.8 455v-.3l-.1-.2.1.5zM641.2 452.1c0 .5.1 1 .2 1.5 0-.5-.1-1-.2-1.5zM641.2 454.5c.1-.2.3-.3.4 0-.1-.3-.2-.6-.2-.9 0 .3-.1.6-.2.9zM641.2 454.5c-.1.2-.2.5-.3.6.2-.2.3-.4.3-.6zM637.8 454.1c-.1-.3.8-.3.5-.9s-.5-1.3-.7-2c-.2-.6-.3-1.3-.4-1.9-.3-.6.7-1.6.5-2.2-.3-.9-.6-1.9-1.1-2.7-.4-.8-.7-1.2-.6-.1.4 3.2.7 5.3 1.2 8.2.7 2.3 1.3 4.5 2 6.8.1.6.2 1.3.2 1.9v-2.6c.2-1.3-1.2-2.6-1.6-4.5zM643.9 470.6l-.5-.8c.4-1.5-.2-2.7-.8-4l-.3.7c.2.8.5.8.6.1-.2 1.6 0 3.2.5 4.7.2-.2.5-.2.5-.7zM643.7 472.2l-.3-.9h-.1c.1.3.2.6.4.9zM639.8 445.9c-.2-2-.2-3.9-.2-5.8v-2.8c0-.9.1-1.8.1-2.7-.2-.3-.4-.5-.3-.9.2-.3.3-.5.4-.9l.1-1.6-.1-.6c-.1-.3-.3-.2-.4 0-.1.2-.2.4-.4.5.1-.1.2-.4.4-.5.1-.3.2-.5.3-.8-.1-.5-.1-1 0-1.5.1.5.1 1 0 1.5l.1.9.1.3c0-1.2.2-2.4.3-3.6v-.8c-.1-.9-.2-1.8.3-2.3l.1-.6-.1.1c0-.1.1-.2.1-.2l.3-2.7c-.1-.6-.3-1.2-.4-1.9l.5-.6c-.2-.3-.4-.7-.4-1.1-.3.5-.7.9-.9 1.3-.5.6.8 1.5-.1 2.1 1-.6-.4-1.5.1-2.1.2-.4.6-.8.9-1.3-.1-1 .2-2 .8-2.8.2 1-.1 2-.8 2.8 0 .4.2.8.4 1.1l-.5.6c.1.6.2 1.2.4 1.9.3-1.8.5-3.6.8-5.4 2-11.7 4-22.4 7.5-34.2 1.9-6.2 4.1-12.2 6.7-18.1 2.5-5.7 4.5-11.3 6.8-16.8a75.5 75.5 0 018.6-16.1c2.7-4 6.2-12.2 8.3-16.3.7-3.1-.2-4.4-1.3-4.9-.8-.4-1.8-.5-2.7-.3-4.9 1.8-4.7 5.4-10 11.6 3.4-4.4.3 4.5-4 8.2-3.2 2.6-5.2 6.8-6.8 11.2s-2.9 9.2-4.9 13.4c-1 2.1-1.6 4.5-2.6 7-2.7 6.5-4.8 13.2-6.3 20.1-1.6 6.8-2.8 13.8-4.2 21.3-.3 1.9-.4 3.8-.4 5.7 0 1.8.2 3.6.2 5.3-.2 2.4-.9 5-1.1 7-.2 2.8-.2 5.7.2 8.5 0-2.9-.2-5 0-8.3.2-2.1 1.1 1.6 1.2 3 .2.6-.9 1.5-.8 2.1 0 1.3.2 2.7.5 4 .2.6-.8.5-.7.8.2 2 1.4 3.5 1.1 4.7l-.5 2.6v1.6l.3 1c.3-.3.6-.4 1-.5 0 .5-.2 1.2-.3 1.7 0-.5.2-1.2.3-1.7-.4.1-.7.2-1 .5.3 1.3.6 2.6.9 4s.6 2.8.9 4.1h.1c-.3-1.6-.2-3.2.3-4.8-.2.7-.5.6-.5-.2l.5-.6c.2.7.3 1.4.3 2.1.1.7 0 1.4-.3 2l.4.9c-.1.5-.4.5-.7.6 0 .3.1.6.1.9.5-.8.8-1.8 1-2.7z" class="st2"/><path d="M639.7 429.8c0 .2 0 .5.1.8 0-1 .2-2 .3-3-.5.4-.5 1.3-.4 2.2z" class="st2"/></g><g class="st1"><path d="M244.5 540.3l1.4.2c-.2-.1-.5-.2-.7-.4-.3-.1-.5.1-.7.2zM247.1 540.7h.4-.4zM249.6 540.8c-.4-.1-.8-.1-1.2-.1.3.1.7.1 1.2.1zM247.7 540.4c.1.1.2.2-.1.3h.7c-.2 0-.4-.1-.6-.3zM247.7 540.4c-.1-.1-.4-.2-.4-.3.1.1.2.2.4.3zM248.6 538c.2 0 .1.7.6.5 1-.1 2.1-.2 3.1-.2.5-.1 1.2.7 1.6.6 1.1-.1 4-.9 2.4-.9-2.5-.1-4.2 0-6.4-.1l-2.8.2h-2.8l-1.5-.3c.6.2 1.3.4 2 .6 1 .3 2.2-.4 3.8-.4zM234.6 537.9l.8-.1c.9.7 2.1 1 3.2.8l-.4-.5c-.6-.1-.8.1-.2.4-1.1-.7-2.3-1.1-3.6-1.3-.1.3-.2.6.2.7zM233.5 537.2l.7.1v-.1h-.7zM254.7 540.6l4.7.3c1.6.1 3 .2 4.5.2.2-.1.4-.3.7-.2.2.1.4.2.7.3l1.3.1h.5c.2-.1.2-.2 0-.3-.2-.1-.3-.2-.5-.3.1.1.3.2.5.3.2.1.4.2.7.2h1.2c-.4.1-.8.1-1.2 0l-.7.1-.2.1 2.9.1h.6c.6-.2 1.3-.1 1.8.2h.5l-.1-.1.2.1 2.2.1c.5-.2 1-.3 1.5-.4l.5.3c.2-.2.5-.3.8-.4-.4-.2-.8-.4-1.1-.6-.5-.3-1.1.7-1.7.1.6.7 1.2-.4 1.7-.1.3.2.7.4 1.1.6.8-.1 1.6 0 2.3.3-.8.3-1.6.2-2.3-.3-.3.1-.6.2-.8.4l-.5-.3c-.5.1-1 .3-1.5.4 1.4 0 2.9.1 4.4.1 9.6.2 18.5-.4 28.4-1 5.4-.3 10.6-.5 15.7-.6 10.2-.3 19.2-2.5 29.7-2.3 4 0 11.2-1.5 14.9-2.2 4.8-2.1 1.6-4.7 1.4-4.8-3.5-2-5.7-.2-12.2-.7 4.4.2-2.9 2.2-7.2 1-6.2-1.8-14.2 1.5-21.5 1.7-1.8 0-3.7.4-5.9.6-11.2.3-21.5 2.4-33.3 2.8-2.8.3-5.7.7-8.4 1.4-1.8.1-3.7 0-5.5-.1-2.2.1-4.4.3-6.6.6 2.3-.1 3.9-.3 6.4-.5 1.7-.1-1.1.9-2.3 1.2-.5.2-1.2-.6-1.7-.5-1.1.1-2.1.2-3.1.5-.5.2-.4-.6-.6-.5-1.5.1-2.7 1-3.7.8l-2-.4c-.4-.1-.8-.1-1.2-.1l-.8.1c.2.2.3.5.3.8-.4-.1-1-.2-1.4-.3.4.1 1 .2 1.4.3 0-.3-.2-.6-.3-.8-1 .2-2.1.3-3.2.4l-3.3.3v.1c1.3 0 2.6.2 3.8.7-.6-.2-.5-.4.2-.4l.5.4c-1.1.3-2.3.1-3.3-.3l-.7.2c-.3-.1-.3-.3-.4-.5h-.7c.4.2 1.2.5 1.9.8z" class="st2"/><path d="M267.7 541.2h-.6l2.5.1c-.7-.3-1.3-.3-1.9-.1z" class="st2"/></g><g class="st1"><path d="M597.8 536.8l-1.4.2c.2 0 .5.1.7.2.4-.1.5-.2.7-.4zM595.2 537h-.2l-.2.1.4-.1zM592.9 537.5c.4 0 .8-.1 1.2-.2-.4 0-.8.1-1.2.2zM594.8 537.5c-.2-.1-.2-.2 0-.3l-.7.2c.2-.1.4 0 .7.1zM594.8 537.5c.2.1.4.2.5.2-.2-.1-.4-.2-.5-.2zM594.5 540.1c-.2.1-.2-.6-.7-.4-1 .4-2 .7-3.1.8-.5.2-1.3-.5-1.8-.3-1.1.3-4 1.5-2.2 1.3 2.6-.3 4.2-.6 6.5-1l2.7-.8 2.7-.8c.5-.1 1-.1 1.5-.2H598c-1 0-2 1-3.5 1.4zM607.8 535.3l-.6.4c-1.1-.1-2.3.1-3.2.6l.6.3c.6-.2.7-.4.1-.4 1.3.1 2.6 0 3.8-.5-.3-.2-.3-.4-.7-.4zM609 535.5l-.7.2.7-.2zM587.9 538.6c-1.6.2-3.1.2-4.6.3s-3 .1-4.5.1c-.2.1-.4.3-.7.2-.2-.1-.4-.2-.7-.2h-1.3l-.5.1c-.2.1-.2.2 0 .3.2.1.3.2.5.2-.1-.1-.3-.2-.5-.2-.2-.1-.5-.2-.7-.2h-1.2c.4-.1.8-.1 1.2 0l.7-.1.2-.1c-1 0-2 0-2.9-.1l-.6.1c-.6.2-1.3.1-1.8-.1h-.5l.1.1-.2-.1-2.2-.1c-.5.1-1 .3-1.5.4l-.5-.4c-.2.2-.5.3-.8.3.4.2.8.5 1.1.6.5.4 1.1-.7 1.7 0-.6-.7-1.2.4-1.7 0-.3-.2-.7-.4-1.1-.6-.8.1-1.6 0-2.3-.4.8-.2 1.6-.1 2.3.4.3 0 .6-.2.8-.3l.5.4c.5-.1 1-.3 1.5-.4-1.4-.1-2.9-.1-4.4-.3-9.5-.7-18.3-1.2-28.2-2.4-5.3-.7-10.4-1.5-15.4-2.5-9.9-2-19.2-2.2-29-5.6-3.8-1.2-11-2-14.7-2.6-5.1.3-3.1 3.8-2.9 4 2.6 3.1 5.3 2.1 11.3 4.7-4.1-1.6 3.4-1.2 7.2 1.2 5.5 3.6 14.2 2.6 21.4 4.2 1.8.4 3.7.5 5.9.8 11.2 2.2 21.9 2 33.8 2.8 2.9 0 5.8-.2 8.7-.7 2-.1 4 .3 5.6.3 2.2 0 4.5-.2 6.7-.6-2.3.1-4 .4-6.5.4-1.7 0 1.2-.9 2.3-1.1.5-.2 1.2.6 1.7.5 1.1-.1 2.1-.3 3.1-.5.5-.2.4.6.7.5 1.5-.2 2.7-1.2 3.7-1l2.1.3h1.3l.9-.2c-.2-.2-.4-.5-.4-.7.4 0 1 .2 1.4.2-.4 0-1-.2-1.4-.2.1.3.2.5.4.7 1-.3 2.1-.5 3.2-.8s2.2-.5 3.3-.8v-.1c-1.3.2-2.6.2-3.8-.2.6.1.5.3-.1.4l-.5-.3c1.1-.4 2.2-.4 3.3-.1l.7-.3c.4.1.4.3.5.5l.7-.1c-.9-.2-1.6-.4-2.4-.6z" class="st2"/><path d="M574.9 539.1l.6-.1-2.5-.1c.7.4 1.3.4 1.9.2z" class="st2"/></g></svg>