<svg xmlns="http://www.w3.org/2000/svg" id="Layer_1" x="0" y="0" version="1.1" viewBox="0 0 842 842" xml:space="preserve"><defs/><style>.st1{opacity:.85}.st2{fill:#fefefe}.st3{fill:#ddd9d9}</style><path fill="#423228" d="M0 0h842v842H0z"/><g class="st1"><path d="M437 371l1 3v-1l-1-2zM439 381l1 1v1l-1-2zM442 390l-1-4 1 4zM440 383s0 1 0 0l1 3-1-3zM440 383v-2 2zM444 384v3l1 3 1 3 2 5 2 7 4 7c1 3 2 4 0 1l-2-7-2-5-1-3-1-3-2-6-2-5-1-2v-3l-2-5-1-6-1-5a140 140 0 003 14l2 7zM434 331a701 701 0 011 16v-2-1-7-7l-1 1zM435 327v-1 1z" class="st2"/><path d="M449 409a202 202 0 0019 36l2 5 2 1c0 1 0 0 0 0l-1-2 1 2 1 2-1-2-1-1 2 3 1 2 4 5 1 1 5 6 1 2v-1l1 1 3 3 3 3 4 4 1 1 3 2-3-3-2-2 2 2 3 3 7 6c-3-1-5-4-7-6l-3-2-1-1-4-4 3 3 3 3 6 6a139 139 0 00105 30c21-3 41-10 59-21 17-11 31-25 43-40a245 245 0 0029-52 229 229 0 0013-65l-1-4-2-2-3 4-2 8-1 10-1 5-1 6-1 4-1 3-3 9 2-5v2l-1 5-4 12-5 12-20 34-3 4-3 5-7 8-15 16-8 6-5 4-2 1-3 2a144 144 0 01-89 21c-11-1-22-4-32-8l-28-14-5-4-4-3-4-4-4-3-17-18 2 2 2 2 2 3 2 2 4 4 5 5c2 2 1 1-1 0l-6-5-2-3-2-3-4-4-5-5-1-2-5-6-3-5-4-7-2-5-2-2v1l-2-5 2 5v-1l-2-3-1-3-3-5-5-12 1 4 1 3 1 3 1 2 1 2c-1-2-1-2 0 0l1 2c-3-3-4-7-5-12l-1-2v-2l-1-3 1 5v4z" class="st2"/><path d="M473 453l-1-2 2 4 3 4-4-6z" class="st2"/></g><g class="st1"><path d="M622 437v-1c1 0 0 0 0 0v1zM622 434v-1 1zM622 431v0zM622 433v-1 1zM622 433v0zM618 433l1-1-1-2-1-1v-2l-2-2s-1 0 0 0l2 3v2l1 2v1l1 2v5l1-1v-2l-1-2-1-2zM618 450v-1l2-2v-2h-1l1 1-3 4h1zM617 451v-1 1z" class="st2"/><path d="M619 425l-2-3-1-2-2-2-2-2h-1l-1-1-1-1h-1l1 1-1-1v-1h-2 2l1 1-3-2h-1l-2-1h-1l-3-1h-2-1l1 1h0l-1-1-3-1 3 1h3l-2-1h-3c-6-1-13 1-18 4a23 23 0 00-9 12v2l-1 2a41 41 0 000 21l5 9c2 3 5 6 8 7 3 2 7 3 11 3h11l10-4 2-2 2-2 2-2 2-1 1-2v-1-1l-1-2-3-1-2 1-1 1h-1l-1 1-3 2-5 2c3-1 2 0 0 1a12 12 0 01-7 2c-4-2-7-2-11-2a13 13 0 01-6-4l-1-1-1-2-1-2-1-2v-1a43 43 0 01-1-17l3-8 6-5 9-3h3l3 1v-1h3l1 1 2 1h2v1h3l1 1 2 2 1 1 1 1v-1l1 1-1-1v1l5 5-1-2-1-2s0 1 0 0v-1l1 2 1 2v-1z" class="st2"/><path d="M608 413v1l-1-1-1-1 2 1z" class="st2"/></g><circle cx="594" cy="437" r="9" class="st3"/><g class="st1"><path d="M596 430v-1 1zM597 430zM598 430h-1 1zM597 430zM597 430v-1 1zM599 427s-1 0 0 0l1 1 1 1h1l1-1-4-1h-3v-1 1h3zM592 429h2l-1-1v1l-1-1v1zM592 429v-1 1z" class="st2"/><path d="M600 431l2 3v1h1v-1l-1 1h0v3h1l-1 1h1v-1 1l-1 1 1-1h-1l1-1h-1v1l-3 4c-2 1-3 2-5 1l-4-2-1-2v-2-1l2-1 1-1 1-1-1-3-1-2-1-2h-2l-4 2c2-1 2 0 1 1l-3 2c-2 1-3 4-3 6l3 8 2 3c3 2 7 4 11 3 4 0 7-2 10-5l2-5 1-4-1-4v4c0 1 0 1 0 0l-1-1 1-1-1-2c-1 0 0 0 0 0l-1-1-1-1v-1l-1-1v1l-1-1 1 1v-1l-3-1 1 2v-1 1l-1-1v-1 2zM602 435v0z" class="st2"/></g><g class="st1"><path d="M402 368v2l-1 3 1-2v-3zM400 378v0zM398 387l1-4-1 4zM400 380h-1 1l-1 3 1-3zM400 380l1-2-1 2zM403 383l-2 3v3l-1 3-1 6-3 6-3 8a1301 1301 0 013-6l2-6 1-3 1-3 2-6 1-5v-3l1-2v-6l1-5 1-6a209 209 0 01-2 14l-1 8zM406 329a701 701 0 010 9v4c0-2 0-2 0 0l1-8v-7l-1 2zM407 324v0zM392 406a189 189 0 01-17 34l-1 2-3 5-1 1c-1 1 0 1 0 0l1-1-1 1-2 2-3 4 3-4 2-2v-1l-2 3-1 2-4 5-1 1-5 6-1 1-1 1-3 3-3 3-4 4-1 1-3 2 4-2 2-2 3-2-3 2-2 2-4 2-7 6 7-6 2-2 2-1 4-4-3 3-3 2-7 6a158 158 0 01-48 24 128 128 0 01-110-19 174 174 0 01-73-117l-4-28-1-6-1-4-2-2-2 3-2 9 1 10v6l1 6 1 4v4l2 8-1-5 1 2 1 5 4 12 4 14c2 11 9 24 17 37l4 5 3 4 7 9 16 16 9 8 5 4 2 2 3 1a135 135 0 00131 14c12-5 21-11 30-18l4-3 5-4 4-3 4-4c7-6 12-13 17-20l-2 3-2 2-1 3-2 2-5 5-5 5c-2 2-1 1 0-1l6-7 2-2 3-2 4-5c2-1 2-4 3-6l2-1 4-7 3-6 5-7 2-4 2-3-2 1 3-5-3 5 2-1 1-3 1-3 2-6 4-12-1 3-1 4-2 3-1 2-1 1v1l-1 2 5-12 1-3 1-1 1-3-2 5-2 2z" class="st2"/><path d="M368 451l1-2-2 3-3 4 4-5z" class="st2"/></g><g class="st1"><path d="M222 435v-2 2zM222 432v-1 1zM222 429v0zM222 431v-1 1zM222 431v0zM219 430v-1-2l1-2 1-2 1-3c0-1 0-2-1-1l-1 3a17 17 0 00-1 4v4 0zM225 447l-1-1v-2l-1-2v1c0 1 0 1 0 0l2 4zM225 448v-1 1zM224 423l1-3 2-2 1-2 3-2v-1h2l1-1h-1 2l1-1-1 1h-1l3-1 1-1h2l3-1 2-1v1l1-1h-3c1 1 1-1 2-1l1 1h3-3l-1 1v-1l-2 1h5c6 0 11 2 16 5 4 3 7 8 8 14a32 32 0 01-7 24l-5 5c-5 2-11 1-15-1l-7-4-6-5h-1l-2-1-2 1-1 2v4l1 1 1 1 8 7c-3-2-1-2 1-1l4 2 4 2c4 3 9 4 15 2l8-5 3-3 2-1 1-2 2-4 1-2 1-2a36 36 0 002-24c-2-4-3-8-6-11-3-4-7-6-11-8l-6-2h-8-2l-4 1-9 3 9-3c1 0 0 0 0 0l-2 1-1 1h-3l-1 1-2 1h-1l-2 2-2 2-2 1-2 2v1h1l-1 1 1-1h-1c-2 2-3 5-3 8l1-2 2-2-1-1h1l-1 2-1 1v1l-1 1v1l1-2h1z" class="st2"/><path d="M234 412l1-1h2l-3 1z" class="st2"/></g><circle cx="248" cy="435" r="9" class="st3"/><g class="st1"><path d="M245 425zM244 425zM243 426l1-1-1 1zM244 426v-1 1zM244 426zM245 429v-1l-1 1c0 1 0 0 0 0v2l1-2 1-1h1l-1-1v1l-1 1zM250 425h-2v1l1-1 1 1v-1zM251 426h-1 1z" class="st2"/><path d="M242 428l-3 3h1-1v1h0v0l-1 1v3h1-1l1 1v-1 1l-1 1 1-1-1-1h1-1c0 3 1 6 3 7 2 2 5 3 7 3 3 0 6 0 8-2 3-1 4-4 5-7v-9l-2-4-5-3c-1 0-3 1-3 3v5l1 2 1-1v3l-1 2-1 2-1 1h-2l-3-1h-2v-2-1 1h-1v-1-1s1 0 0 0v-1c0-1-1 0 0 0v-1h1-1v-1 1l1-3h-2l1 1h-1l1-1v-1l1 1h-1zM239 432v0z" class="st2"/></g></svg>