<svg xmlns="http://www.w3.org/2000/svg" id="Layer_1" x="0" y="0" version="1.1" viewBox="0 0 841.9 841.9" xml:space="preserve"><defs/><style>.st1{opacity:.85}.st2{fill:#fefefe}</style><path fill="#5e503f" d="M-.5 0h841.9v841.9H-.5z"/><g class="st1"><path d="M157 375.7l.3-1.8c-.1.3-.3.6-.4.8-.2.5 0 .7.1 1zM157.5 372.4l.1-.3-.1-.3v.6zM157.6 369.2c-.1.5-.2 1-.1 1.6.1-.5.2-1 .1-1.6zM157.1 371.7c.2-.2.3-.2.4.1v-.9c-.1.2-.2.5-.4.8zM157.1 371.7c-.2.2-.3.4-.4.5.2-.2.3-.3.4-.5zM153.8 370.5c-.1-.3.9-.1.7-.8s-.1-1.4-.2-2c-.1-.7-.2-1.3-.1-2-.2-.6.9-1.5.8-2.1-.1-1-.4-1.9-.7-2.8-.3-.8-.6-1.2-.6-.1-.1 3.2.1 5.3 0 8.1.1 2.4.4 4.6.3 7.1-.1.6-.2 1.3-.4 1.9.3-.8.6-1.6.9-2.5.4-1.2-.7-2.9-.7-4.8zM153.9 388.4l-.1-1a6.7 6.7 0 001.1-4.1l-.6.5c-.1.8.1 1 .5.3-.9 1.4-1.4 3-1.6 4.6.2 0 .5.1.7-.3zM153 389.7c.1-.3.1-.6.1-1h-.1v1zM157.2 362.7c.2-2 .1-4 .2-6 0-1 .1-1.9.1-2.9V351c-.2-.3-.4-.5-.3-.9.1-.3.3-.6.3-.9v-1.6c0-.2-.1-.4-.1-.6-.1-.3-.3-.2-.4 0l-.3.6c.1-.1.2-.4.3-.6l.3-.9c-.1-.5-.1-1-.1-1.5.1.5.2 1 .1 1.5.1.3.1.6.1.9l.1.3v-3.8c0-.3-.1-.5-.1-.8-.3-.8-.3-1.6.1-2.4v-.7l-.1.1c0-.1.1-.2.1-.3 0-.9-.1-1.9-.1-2.8-.2-.6-.5-1.2-.7-1.8l.4-.7c-.3-.3-.5-.6-.6-1-.2.5-.5 1-.7 1.5-.4.7 1.1 1.3.3 2.1.8-.8-.7-1.5-.3-2.1.1-.5.4-.9.7-1.5-.2-1-.2-2 .1-3 .4 1 .4 2.1-.1 3 .1.4.3.7.6 1l-.4.7c.2.6.5 1.2.7 1.8l-.3-5.6c-.9-12.3-3.2-23.5-6-36-1.5-6.8-3-13.3-4.6-19.7-1.6-6.1-3.6-12.2-5.9-18.1-2.3-6-4.3-12.1-6-18.3-1-3.1-2.2-6.2-3.7-9.1-1.6-3.2-3.4-6.4-4.6-8.6-2.3-2.6-4-2.6-5-1.9-.7.6-1.3 1.3-1.6 2.2-1.2 5.1 2 7 3.6 15.1-1.3-5.4 3.8 2.7 3.7 8.4-.2 4.2 1.4 8.4 3.4 12.7 1.9 4.3 4.1 8.8 5.2 13.3.6 2.2 1.5 4.5 2.3 7.1 1.6 6.9 3.6 13.4 5.6 20.1 2.1 6.8 3.7 13.7 4.9 20.7.3 1.8.8 3.7 1.4 5.4.5 1.7 1.1 3.3 1.6 5 .5 2.4.2 5 .4 7 .3 2.8.7 5.5 1.4 8.2-.2-1.4-.4-2.6-.5-3.9s-.4-2.6-.6-4.1c-.3-2.1 1.4 1.4 1.8 2.8.2.6-.8 1.6-.5 2.2.2 1.3.5 2.6.9 3.9.2.6-.7.6-.6.9.2 1.9 1.5 3.4 1.3 4.6-.1.9-.2 1.8-.4 2.6-.1.5-.1 1.1-.1 1.6.1.3.1.7.2 1 .3-.2.6-.4 1-.5-.1.5-.3 1.2-.4 1.7.1-.5.3-1.2.4-1.7-.4.1-.7.2-1 .5.2 1.3.5 2.6.7 4s.3 2.8.4 4.2h.1c0-1.6.3-3.3.9-4.8-.2.7-.5.6-.5-.2l.5-.6c.1.7.2 1.4.2 2.1 0 .7-.2 1.4-.6 2l.3.9c-.2.4-.5.4-.7.5v1c.5-.6.9-1.6 1.2-2.5z" class="st2"/><path d="M157.4 346.1c0 .2.1.5.1.8v-3.1c-.3.7-.4 1.5-.1 2.3z" class="st2"/></g><g class="st1"><path d="M650.2 621.4c.3.3.6.6 1 .9-.2-.2-.3-.3-.4-.5-.2-.3-.4-.4-.6-.4zM652.1 622.9l.2.1h.2c-.1.1-.2 0-.4-.1zM654.3 623.7c-.4-.1-.8-.2-1.1-.4.2.1.3.2.5.2.2.1.4.2.6.2zM652.7 623c.1.1.1.2-.1.2l.7.2c-.3-.1-.5-.2-.6-.4zM652.7 623c-.1-.1-.2-.3-.3-.3 0 .1.1.2.3.3zM653.9 621.6c.2 0 0 .5.3.5s.9.1 1.3.1h1.2c.4-.1 1 .4 1.4.3.6-.2 1.2-.4 1.8-.7.5-.3.7-.5 0-.3-1.6.4-3.3.5-5 .1-1.5-.2-2.8-.9-4-1.8-.3-.3-.6-.6-.8-1 .3.5.6 1 1 1.4.3.4.7.6 1.2.7l.8.2c.2.4.5.4.8.5zM645.3 613.5l.4.5c.2 1 .6 1.9 1.3 2.7v-.5c-.3-.5-.4-.5-.3 0-.1-.6-.3-1.1-.6-1.7-.2-.5-.4-1-.7-1.5 0 .2-.2.2-.1.5zM645.2 612.5l.3.6c-.2-.2-.3-.4-.3-.6z" class="st2"/><path d="M659 623.7c2.7-.4 5.4-1.1 7.9-2.2.1-.2.3-.3.5-.4.2 0 .4-.1.6-.1l1-.5.3-.2c.2-.2.1-.2-.1-.2h-.4.4c.2 0 .4-.1.6-.2l.9-.6-.9.6c-.2.1-.3.3-.5.4l-.2.1c.8-.4 1.5-.9 2.3-1.3.2-.1.3-.3.4-.4.4-.4.8-.8 1.4-1 .1-.1.2-.2.4-.3h-.1l.2-.1c.5-.5 1-.9 1.5-1.4.2-.4.4-.8.7-1.2l.5-.2c0-.3.1-.5.3-.7-.3.2-.7.4-.9.5-.5.2-.3 1.1-1 1.2.7-.1.5-1 1-1.2.3-.2.6-.3.9-.5.4-.6.8-1.2 1.4-1.6-.2.7-.7 1.3-1.4 1.6-.1.2-.2.5-.3.7l-.5.2c-.2.4-.5.8-.7 1.2l1.3-1.5 1.2-1.6c2.5-3.6 3.8-7.8 4-12.2 0-1.1 0-2.2-.1-3.2-.1-.5-.2-1.1-.2-1.6l-.1-.8-.2-.8c-.1-.5-.2-1.1-.4-1.6s-.4-1.1-.6-1.6c-.2-.5-.4-1.1-.7-1.6-.2-.5-.5-1.1-.8-1.6-1.1-2.4-3-4.3-5.3-5.6-2.4-1.1-5.1-1.4-7.7-.9-2.3.4-4.6 1.1-6.7 2.1-2.1.9-4 1.9-6 3s-4 2.3-5.9 3.6c-2.1 1.4-4 3.2-5.6 5.3-.3.5-.6 1-.9 1.6-.3.7-.5 1.3-.7 2-.2.7-.3 1.5-.4 2.2v2.3c.2 2.5.8 5 1.8 7.3 1.2 2.1 2.1 2.3 2.7 2 .4-.3.7-.7.8-1.2.2-1.4.1-2.9-.3-4.3-.1-.4-.2-.8-.2-1.2s-.1-.9-.2-1.4c-.1-1.1 0-2.2.3-3.3-.3 1.7-.7 1.1-.6-.4.1-.9.4-1.7.8-2.5.5-.8 1.1-1.5 1.9-2 2.1-1.2 4.3-2.9 7-4.6 2.7-1.8 5.6-3.4 8.6-4.6 1.5-.6 3-1.1 4.5-1.4 1.8-.3 3.6-.1 5.3.6 1.6 1 2.8 2.4 3.7 4.1 1.1 1.9 1.8 4 2.2 6.2.4 2.2.4 4.6 0 6.8-.3 2.3-.9 4.5-1.6 6.7-.2.3-.4.7-.6 1s-.5.6-.7.9c-.5.6-1 1.1-1.4 1.6-.3.4-.6.7-1 1.1-.3.3-.6.7-.9 1-.7.6-1.2 1.2-1.9 1.7l.6-.4.5-.4.9-.8.9-.9c.4-.3.7-.7 1-1.1.9-1.1-.1 1.2-.8 1.9-.2.2-.4.3-.6.4-.2 0-.5.1-.7.3l-.9.9c-.3.3-.6.6-1 .9s-.5-.1-.6 0c-.5.3-.9.7-1.3 1.1-.3.4-.7.6-1.2.8-.6.2-1.2.3-1.8.5l-1 .3-.6.3c.2.1.4.2.5.4-.3.1-.8.1-1.2.2.3-.1.8-.1 1.2-.2-.1-.2-.3-.3-.5-.4-1.7.9-3.5 1.4-5.3 1.7 1.1 0 2.1-.2 3.3-.1-.5 0-.5-.2.1-.3l.5.1c-.9.4-1.9.6-2.9.4 0 0-.4.2-.6.2s-.3-.2-.4-.3h-.7c.4.2.7.3 1.1.4l.9.3z" class="st2"/><path d="M670 619.9c-.1.1-.3.2-.5.3l1.9-1.1c-.5.2-1 .4-1.4.8z" class="st2"/></g><path fill="#edefef" d="M668.1 614.5c4.4-1 7.3-5.3 6.3-9.8-1-4.4-4.2-4.3-8.7-3.3s-8.4 2.4-7.4 6.8c1 4.5 5.4 7.3 9.8 6.3z"/><g class="st1"><path d="M664.3 614.1c-.1 0-.3-.1-.4-.2.1 0 .1.1.2.2 0 .1.1 0 .2 0zM663.5 613.8h-.2zM662.7 613.5c.1.1.2.1.4.2-.1-.1-.3-.1-.4-.2z" class="st2"/><path d="M663.3 613.9c0-.1 0-.1 0 0l-.2-.2.2.2zM663.3 613.9l.1.1-.1-.1zM662.7 614.5c-.1 0 0-.2-.2-.2-.4-.1-.8-.2-1.1-.4-.2-.1-.2-.4-.4-.5-.4-.2-1.4-.7-.9-.3.6.5 1.3 1 2.1 1.3.6.2 1.3.4 2 .5.2 0 .4.1.5.2l-.7-.3c-.2-.2-.7 0-1.3-.3zM667.7 614.4l-.2.1c-.4-.1-.8-.1-1.1 0l.2.1c.2 0 .2-.1 0-.1.4.1.9.1 1.3 0-.1 0-.1-.1-.2-.1zM668.1 614.5l-.2.1.2-.1z" class="st2"/><path d="M661.2 612.7c-.8-.7-1.5-1.5-1.9-2.4-.1 0-.2-.1-.2-.2v-.2c-.1-.1-.1-.3-.2-.4l-.1-.1c0-.1-.1 0-.1 0v-.2c-.1-.1-.1-.3-.1-.4.1.1.1.3.1.4l.1.2v.1l-.3-1-.1-.2c-.1-.2-.1-.4 0-.6v-.2-.1-.7c0-.2 0-.3-.1-.5 0-.1.1-.1.2-.1v-.3l-.3.3c-.2.2.2.4-.1.6.3-.2-.1-.4.1-.6l.3-.3c0-.3.2-.5.4-.7-.1.3-.2.5-.4.7v.3c-.1 0-.1.1-.2.1 0 .2 0 .3.1.5.1-.5.2-.9.4-1.3.9-1.3 2.2-2.2 3.7-2.5 1.6-.5 3.2-.8 4.8-1.1.9-.1 1.8-.2 2.6-.1.8 0 1.5.3 2.1.8 2 2.3 2 5.7-.1 8l-1.5 1.5c-.6.4-1.2.8-1.8 1.1-.6.4-.8.8-.7 1.1.1.2.2.4.4.5.6.3 1.2.3 1.8 0 .8-.4 1.6-.8 2.4-1.3-.7.5-.6.1-.1-.3s1.2-1.3 1.8-1.8c1-1 1.6-2.3 1.6-3.8 0-.8 0-1.5-.2-2.3-.2-.8-.4-1.5-.6-2.2-.4-.9-1-1.6-1.7-2.1-1-.8-2.3-1.2-3.5-1.1-1.1 0-2.1.1-3.1.4-2.1.4-4.1 1-6 1.8-1.1.5-2.1 1.4-2.7 2.5-.5.7-.8 1.4-1 2.3-.1.9.1 1.8.4 2.7-.3-.8-.4-1.7-.4-2.6.1-.7.2.5.3 1 0 .2-.2.5-.1.7.1.4.2.8.4 1.1.1.2-.1.2-.1.3.2.5.7.8.8 1.2.1.2.2.5.3.7.1.1.1.3.2.4l.2.2c0-.1.1-.2.1-.3l.2.5-.2-.5c-.1.1-.1.2-.1.3.6.5 1.3 1 2 1.4-.4-.2-.7-.6-.9-1 .1.2 0 .2-.1.1v-.2c.3.2.6.5.8.8l.2.1c.1.1 0 .2 0 .2l.2.1c-.1-.1-.2-.3-.3-.4l.3-.9z" class="st2"/><path d="M658.7 609.1l.1.2c-.1-.3-.2-.5-.2-.8-.1.2 0 .4.1.6z" class="st2"/></g><g class="st1"><path d="M481.5 578.9c1.7 1.9 3.3 3.9 5.1 5.8-.9-1-1.6-2-2.4-3.1-.7-1-1.6-1.9-2.7-2.7zM491.6 589.9l1 .9.9.7-1.9-1.6zM501.9 598.5c-1.8-1.6-3.6-2.9-5.3-4.3 1.7 1.5 3.5 3 5.3 4.3z" class="st2"/><path d="M494 591.4c.5.7.7 1-.4.2l3.1 2.7c-1.1-1.1-2-2.1-2.7-2.9zM494 591.4c-.5-.6-1.3-1.6-1.6-1.9.4.5.9 1.2 1.6 1.9zM498.7 591.1c1 .8.2 1.3 2.3 2.8 2.5 1.8 4.8 3.6 7.1 5l3.5 2.3c1.1.8 2.4 1.5 3.6 2.3 1.3.8 2.6 1.7 3.8 2.8 1.2 1 2.5 1.8 3.9 2.6 2.7 1.4 7.9 3.6 11.2 4.9s5 1.7.8-.3c-3.2-1.5-6.1-3-8.8-4.3s-5.1-2.7-7.5-4.1l-3.5-2.2c-1.2-.7-2.4-1.4-3.5-2.2l-3.5-2.5c-.6-.4-1.2-.8-1.8-1.3s-1.2-.9-1.8-1.4c-8.2-6-15.7-12.8-22.3-20.4-.9-1.1-1.8-2.3-2.6-3.4-.4-.6-.9-1.1-1.2-1.7l-1.1-1.7c.5.8 1 1.5 1.5 2.3l1.6 2.2 1.7 2.3.9 1.2 1 1.2c.9 1.1 1.8 2.2 2.9 3.2 1.1 1.1 2.3 2.2 3.5 3.2l4 3.5c1.2 1.1 2.7 2.3 4.3 3.7zM455.6 528.8l1.4 3.8c.2 1.5.5 3 1 4.4.4 1.5.9 3 1.5 4.4.6 1.4 1.2 2.9 1.9 4.3.3.7.7 1.4 1 2.1l1.1 2.1c-.2-.9-.5-1.8-.8-2.7-1.5-3.2-1.8-3.6-.8-.5-2.4-6.7-4.4-13.5-6-20.3-.2.4-.6.4-.3 2.4zM455 522.3l.9 4v-.2l-.9-4v.2z" class="st2"/><path d="M526.2 613.2c15 7.9 30.5 14.8 46.4 20.7 1.3.2 2.5.5 3.7 1 1.2.6 2.3 1.1 3.5 1.5l6.8 2.1 2.4.6h.1c1.3.2 1 0 .2-.3s-1.7-.7-2.3-1c.4.2 1.6.7 2.3 1 1.1.4 2.2.8 3.7 1.2l6.6 1.5c-2.2-.4-4.5-.8-6.6-1.5l-3.9-.9-1.1-.2c5.2 1.5 10.5 2.8 15.8 3.8 1.2.2 2.4.4 3.4.5 3.9.5 7.8.8 10.2 1.5l2.9.3c-.2 0-.4-.1-.5-.1l1.1.2c4.1.3 8.3.4 12.4.3 2.7-.3 5.4-.8 8.1-1.2l2.8.1c1.5-.5 2.9-.9 4.5-1.3-2.2.2-4.3.2-6.2.2-1.5.1-3 .3-4.5.7 1.4-.4 2.9-.7 4.5-.7 1.9 0 3.9-.1 6.2-.2 3.8-.9 8.7-2.2 12.7-3.2-4 1.8-8.3 2.9-12.7 3.2-1.5.3-3 .8-4.5 1.3l-2.8-.1c-2.7.5-5.5.9-8.1 1.2 8.2-.2 16.4-1.6 24.3-4 1.6-.5 3.2-1.1 4.8-1.7s3.1-1.2 4.6-2c3-1.4 6-3 8.8-4.8 5.6-3.6 10.7-7.9 15.2-12.8 9-9.7 15.5-21.3 20.3-33.5 2.4-6.1 4.5-12.3 6.2-18.7.8-3.2 1.7-6.4 2.4-9.6s1.4-6.5 2-9.8c2.6-13.5 3.3-27.2 2.2-40.9-.8-7.6-2.5-15-4.9-22.2-2.4-7.1-5.6-13.9-9.5-20.2-7.7-12.7-17.3-23.6-26.8-34.1s-19-20.4-27.5-30.7c-4.3-5.1-8.4-10.4-12.3-15.8l-2.8-4.1c-.5-.7-1-1.4-1.4-2l-1.3-2.1-2.7-4.2c-.9-1.4-1.7-2.8-2.5-4.3l-1.3-2.1-1.2-2.1c-.4-.7-.8-1.4-1.1-2.1l-1-2.2c-1.3-2.9-2.4-5.9-3.2-9-.8-3.1-1.5-6.3-2-9.5s-.8-6.5-.9-9.7c-.5-13.1 1.6-26.6 5.3-39.9 1.4-5.1 3.2-11.3 5.4-18s4.8-13.8 7.6-20.9c5.1-12.6 10.8-24.9 17.2-36.9 2.1-4.1 3.9-8.4 5.4-12.8.8-2.5.6-3.4 0-3.7-1.2-.5-4.2 2.4-4.6 2.9-5.9 6.6-9.9 13.3-14.6 22.2-2.3 4.5-4.8 9.5-7.5 15.4s-5.9 12.8-9.4 21c2.3-5.6 3.3-7.3 3.2-6.4s-1.3 4.5-2.9 9.4-3.7 11.2-5.7 17.8-3.8 13.2-5.4 18.9c-2.5 9-3.8 18.3-3.9 27.6-.1 10.8 1.8 21.5 5.6 31.6.5 1.3 1.1 2.6 1.7 3.9s1.2 2.6 1.9 3.8c1.4 2.6 2.8 4.8 4.2 7.1s2.9 4.6 4.4 6.9c.8 1.1 1.5 2.3 2.3 3.4l2.4 3.3c6.3 8.8 13.1 17.1 19.8 25s14.3 15.6 22.5 24.4c5.2 5.8 10.3 11.5 15.1 17.4 4.7 5.7 8.9 11.8 12.6 18.1a92.58 92.58 0 0112.5 40.9c.5 7.4.4 14.7-.5 22.1-.3 3.7-1 7.5-1.5 11.2-.3 1.9-.7 3.7-1.1 5.6s-.7 3.8-1.2 5.6-.9 3.8-1.4 5.6-.9 3.8-1.5 5.6-1 3.7-1.7 5.5-1.2 3.7-1.9 5.5c-2.6 7.4-6 14.4-10 21.1a96.82 96.82 0 01-14.1 18.6c-2.5 2.6-5.3 5-8.2 7.1-1.4 1.1-2.9 2-4.4 3s-3 1.8-4.6 2.6c-4.6 2.3-9.5 3.9-14.5 5-4.6 1-9.2 1.6-13.9 1.9-6.2.4-12.4.4-18.6 0-5.9-.4-11.5-1.1-17-2 5.6 1.1 11.2 1.9 16.9 2.3 6 .5 12 .5 17.9 0 2.2-.2 3-.2 2.7 0-1 .3-2.1.6-3.2.7-3.9.6-7.9.9-11.9.9-2.6.1-6.6-1.3-9.2-1.4-5.6-.7-10.9-1.2-16.9-2.3-2.6-.4-2.1-1.3-3.4-1.5-8.2-1.8-14.7-2.7-19.7-4.7-3.8-1.5-7.2-2.9-10.5-4.4-2.1-.9-4.2-1.8-6.4-2.7l-4.3-1.6c.7.4 1.2 1 1.5 1.8-2-.9-4.8-2.4-6.8-3.4 2 1 4.8 2.5 6.8 3.4-.3-.7-.9-1.3-1.5-1.8-5.2-2-10.8-4.3-16.3-6.8-2.8-1.2-5.6-2.5-8.4-3.8s-5.5-2.7-8.1-4.1l.1.2c6.1 3.4 12.2 6.5 18.5 10.2-2.7-1.6-2.3-1.6 1-.1l2.3 1.6c-5.7-2.3-11.2-5.1-16.4-8.4l-3.6-1.7c-1.7-1.1-1.4-1.3-1.7-1.7-.6-.3-1.2-.6-1.8-1l-1.8-1.1c.8.7 1.6 1.4 2.5 2l3.3 2.3 2.9 1.9 1 .8z" class="st2"/><path d="M593.2 640c-.9-.2-2.1-.5-3.3-.8 4.4 1.2 8.8 2.3 13.3 3.2-2.3-.9-6.2-1.6-10-2.4z" class="st2"/></g><g class="st1"><path d="M185.9 475.5l1.6.6c-.3-.2-.5-.4-.7-.6-.4-.2-.6 0-.9 0zM188.9 476.6l.3.1h.3l-.6-.1zM191.7 477.2c-.5-.2-.9-.3-1.4-.3.4.2.9.3 1.4.3z" class="st2"/><path d="M189.6 476.4c.1.2.2.4-.1.4l.9.1c-.4-.2-.6-.3-.8-.5zM189.6 476.4c-.1-.2-.3-.4-.4-.5.1.2.2.3.4.5zM191.2 473.3c.3 0 0 .9.6.8 1.2 0 2.5.1 3.7.3.6-.1 1.2 1.2 1.8 1.1 1.4 0 4.9-.5 2.9-.9-2.9-.4-4.8-.7-7.4-1.2l-1.6-.1-1.6-.3c-1.1-.1-2.1-.3-3.2-.5-.6-.2-1.1-.4-1.6-.7.7.4 1.4.9 2.1 1.2.9.7 2.6 0 4.3.3zM175 470.3l.9.1c.9 1 2.1 1.7 3.5 1.8-.1-.2-.2-.4-.4-.7-.7-.3-.9-.1-.4.4-1.1-1.1-2.4-1.9-3.8-2.5 0 .4-.1.6.2.9z" class="st2"/><path d="M174 469.2l.8.3v-.1l-.8-.2zM197.7 477.9l5.4 1.1 5.2 1c.3-.1.5-.3.9-.2.2.2.5.3.8.4l1.5.2h.6c.3-.1.2-.2.1-.4-.2-.1-.3-.3-.5-.4.1.1.3.3.5.4.2.2.5.3.8.4.5 0 1 0 1.4.1-.5 0-1 0-1.4-.1h-1.1l3.4.6h.7c.9 0 1.7-.1 2.1.4l.6.1-.1-.1.2.1 2.6.4c.6-.1 1.2-.3 1.8-.4l.6.5c.3-.2.6-.4 1-.4-.4-.3-.9-.7-1.2-.9-.5-.5-1.4.9-2-.1.6 1 1.4-.4 2 .1.4.2.8.6 1.2.9 1-.1 1.9.1 2.7.6-1 .3-2 0-2.7-.6-.4 0-.7.2-1 .4l-.6-.5c-.6.1-1.2.3-1.8.4l5.2.6c2.8.4 5.6.5 8.4.7s5.5.2 8.3.2 5.5 0 8.4-.1 5.7-.1 8.6-.2l18.6-.5c12.1-.3 22.7-3.4 35.1-3.4 4.8-.1 13.2-2.4 17.6-3.6 5.6-3.1 1.4-6.3 1.1-6.4-4.4-2.5-6.7.1-14.4-.3 5.2.1-3.2 3-8.4 1.6-7.5-2.3-16.6 2.3-25.2 2.5-2.1 0-4.3.5-6.9.7-6.6.2-12.9.8-19.2 1.4-6.5.7-13.1 1.1-19.7 1-3.3.2-6.6.6-9.9 1.2-2.2 0-4.6-.6-6.4-.7-2.6-.2-5.1-.2-7.7 0 2.6.1 4.6 0 7.5.2 1 0 .6.3-.2.6-.9.3-1.7.5-2.6.6-.6.2-1.4-1-1.9-.8-1.2 0-2.5.1-3.7.3-.6.1-.4-.8-.7-.7-1.8 0-3.3 1-4.4.6-.8-.3-1.6-.6-2.3-.8-.5-.2-.9-.3-1.4-.3l-1 .1c.2.3.3.7.2 1.1-.4-.1-1.1-.5-1.5-.6.4.1 1.1.5 1.5.6 0-.4-.1-.7-.2-1.1-1.2.1-2.5 0-3.8 0s-2.6-.1-3.9-.2v.1c1.5.2 2.9.7 4.2 1.5-.6-.4-.5-.6.3-.5l.5.6c-1.4 0-2.7 0-3.8-1l-.9.1c-.4-.2-.3-.5-.3-.8l-.9-.2c.4.4.8.8 1.3 1.1.4.5.8.8.8.8z" class="st2"/><path d="M212.8 480.5h-.7l2.9.5c-.5-.5-1.3-.5-2.2-.5z" class="st2"/></g></svg>