<svg xmlns="http://www.w3.org/2000/svg" id="Layer_1" x="0" y="0" version="1.1" viewBox="0 0 841.9 841.9" xml:space="preserve"><defs/><style>.st1{opacity:.85}.st2{fill:#fefefe}.st3{fill:#ddd9d9}</style><path fill="#423228" d="M0 0h841.9v841.9H0z"/><g class="st1"><path d="M437.3 370.8c.1.9.3 1.8.4 2.7l.5 2.7c-.1-.9-.2-1.8-.2-2.7-.1-1-.3-1.9-.7-2.7zM439.3 381l.2 1c.1.3.2.5.3.8-.2-.6-.4-1.2-.5-1.8zM441.8 390.1c-.4-1.6-.8-3.2-1.2-4.6.3 1.5.7 3.1 1.2 4.6zM440.2 382.8c0 .6-.1.9-.4 0l.8 2.7c-.2-1-.4-1.9-.4-2.7zM440.2 382.8c0-.6-.1-1.5-.1-1.8 0 .6 0 1.2.1 1.8zM444.1 384.3c.3.9-.6.9 0 2.6.4 1 .7 2 1 3s.7 1.9 1.1 2.8c.7 1.9 1.4 3.7 2 5.6.8 1.7.8 4.8 1.6 6.5 1.2 2.6 2.5 5.2 3.9 7.6 1.3 2.2 2 3.1.7.1l-2.7-6.2c-.8-2-1.5-3.8-2.2-5.7-.3-.9-.7-1.8-1-2.8l-.9-2.8c-.6-1.9-1.3-3.8-1.9-5.9-.5-1.7-1.1-3.4-1.6-5.1l-.8-2.5-.7-2.6c-.5-1.7-.9-3.4-1.4-5.2-.5-1.7-.8-3.5-1.2-5.3-.4-2-.7-3.9-.9-5.9.2 2.5.5 5.1.9 8 .3 2.1.8 4.2 1.6 6.1.7 2.3 1.6 4.8 2.5 7.7zM434.3 331.1l.3 2.8c-.3 2.1-.4 4.3-.2 6.4.1 2.2.3 4.4.6 6.6l.3-2c-.2-2.5-.4-2.8-.6-.5.2-2.6.2-5.1.2-7.5s.1-4.9 0-7.4c-.1.2-.4.2-.6 1.6zM435 326.5c0 1 0 2 .1 2.9l.1-.1c0-1-.1-2-.1-2.9l-.1.1z" class="st2"/><path d="M449 408.8c4.3 11.1 9.6 21.8 15.8 32 .7.6 1.2 1.3 1.7 2.1.3.8.7 1.7 1.1 2.5.9 1.4 1.9 2.8 2.8 4.2l1.1 1.4c.6.7.6.4.4-.2s-.5-1.1-.7-1.6c.1.3.5 1.1.7 1.6.4.8.8 1.6 1.4 2.4 1 1.2 2 2.4 2.9 3.8-1-1.2-2-2.5-2.9-3.8-.6-.7-1.2-1.5-1.8-2.2l-.5-.6 1.6 2.4 1.7 2.3 3.4 4.6 1.6 1.8c1.7 1.7 3.2 3.6 4.6 5.6l1.4 1.5c-.1-.1-.1-.2-.2-.4.2.2.3.5.5.6l2.9 3.2 3.1 3.1c1.5 1.2 3 2.4 4.6 3.5l1.1 1.6c1 .5 1.9 1.1 2.7 1.8-1-1.3-1.8-2.4-2.7-3.5-.7-.8-1.5-1.5-2.5-2-1-.6-1.8-1.5-2.4-2.5.5 1 1.4 1.9 2.4 2.5 1 .5 1.8 1.2 2.5 2 .9 1 1.7 2.2 2.7 3.5 2.5 1.8 4.7 3.9 6.8 6.1-2.6-1.6-4.9-3.7-6.8-6.1-.8-.7-1.8-1.3-2.7-1.8l-1.1-1.6c-1.6-1.1-3.1-2.4-4.6-3.5l3 3 3.2 2.9c2.1 2 4.4 3.8 6.6 5.7a139.4 139.4 0 0048.7 25.8c18.2 5.3 37.4 6.8 56.3 4.2 20.7-2.8 40.5-10 58.2-21.1 17.2-10.7 31.3-24.5 43-40 5.9-7.8 11.2-16 16.1-24.4 4.9-8.8 9.4-17.8 13.3-27 3.9-9.4 6.8-19.1 8.8-29 2-9.8 3.3-19.7 4-29.6 0-2.1-.1-4.2-.3-6.3-.1-1.3-.4-2.6-.7-3.9-.5-1.9-1.2-2.4-1.8-2.3-1.3.2-2.5 3-2.6 3.4-.9 2.9-1.7 5.8-2.2 8.8-.6 2.9-.9 6-1.5 9.4-.3 1.7-.5 3.5-.8 5.5s-.8 4-1.2 6.2c-.2 1.1-.5 2.2-.7 3.4s-.6 2.4-1 3.7c-.7 2.5-1.4 5.3-2.5 8.1 1.4-4 1.8-5.2 1.9-4.5 0 .8 0 1.5-.2 2.3-.2 1.1-.5 2.6-1 4.4-1 4.2-2.3 8.2-3.7 12.2-1.6 4.2-3.5 8.2-5.8 12.1-6 9.8-12.1 21.9-19.9 33.9l-3 4.5c-1 1.5-2.1 2.9-3.2 4.4-2.1 3-4.4 5.8-6.7 8.6-4.5 5.5-9.6 10.5-15 15.1-2.6 2.3-5.4 4.4-8.3 6.8-1.5 1.1-3 2.2-4.6 3.4-.8.6-1.6 1.2-2.4 1.7l-2.5 1.6c-18.1 11.2-37.5 18.5-58 21.1-10.4 1.3-20.9 1.3-31.2.1-10.8-1.3-21.4-4.1-31.4-8.2-10.9-4.5-20.4-9-28.9-14.4-1.5-1.1-3.1-2.1-4.5-3.3l-4.3-3.5c-1.4-1.2-2.6-2.4-3.9-3.6s-2.5-2.2-3.5-3.3c-6.2-5.8-12-11.9-17.6-18.3.7.9 1.3 1.7 2 2.5l2 2.3c.7.7 1.3 1.5 2 2.2s1.3 1.5 2 2.1l4.2 4.3c1.5 1.5 3.1 3 4.9 4.6 2.3 2.2 1.3 1.7-.7.2-2.3-1.7-4.5-3.5-6.6-5.4-.8-.8-1.5-1.7-2-2.6-.6-1-1.2-1.8-2-2.7-1.3-1.5-2.6-2.9-4-4.3s-2.7-2.9-4.1-4.6c-1.3-1.4-.4-1.8-1-2.4-1.8-2.3-3.5-4.3-5.1-6-1.4-1.6-2.7-3.3-3.7-5.1-1.5-2.5-2.5-4.8-3.7-7.1l-2.3-4.3c-.5-.9-1.1-1.8-1.7-2.8.1.6 0 1.2-.2 1.8-.7-1.4-1.5-3.5-2.1-4.9l2.1 4.9c.3-.5.4-1.2.2-1.8l-1.6-2.6-1.5-2.7c-1-1.8-2-3.7-3-5.6-1.8-3.9-3.8-7.8-5.3-11.7v.1c.4 1.1.9 2.3 1.3 3.5s.9 2.3 1.3 3.4.8 2.3 1.2 3.5l.6 1.8.6 1.8c-.7-2.1-.4-2 .7.3.1.6.2 1.3.4 2a48.1 48.1 0 01-4.9-12s-.8-1.7-1.2-2.5c-.3-1.4 0-1.4.1-1.8-.3-.9-.7-1.8-1-2.7.1 1 .6 3.1 1 5 .2.9.4 1.8.6 2.4s-.3 1-.3 1z" class="st2"/><path d="M473.2 453.3c-.4-.5-.9-1.2-1.5-1.9.9 1.4 1.9 2.6 2.8 3.9l2.9 3.9c-.6-1.6-2.4-3.7-4.2-5.9z" class="st2"/></g><g class="st1"><path d="M622.4 437.4c.1-.6.1-1.2.1-1.8 0 .3-.2.6-.3.9-.2.4 0 .6.2.9zM622.4 434v-.3c0-.1-.1-.2-.1-.3.1.2.1.4.1.6zM621.8 430.9l.3 1.6c0-.6-.1-1.1-.3-1.6zM621.9 433.4c.1-.2.2-.3.4 0l-.3-.9c0 .3 0 .6-.1.9zM621.9 433.4c-.1.2-.2.5-.3.6l.3-.6zM618.4 433c-.2-.2.8-.3.5-.8-.2-.6-.5-1.2-.8-1.7-.3-.5-.5-1.1-.7-1.6-.4-.4.4-1.6-.1-2-.5-.7-1.2-1.3-1.9-1.9-.7-.5-1.1-.5-.6.2.7 1 1.2 2.1 1.8 3.2.2.5.5 1 .7 1.5s.4 1.1.6 1.7.3 1 .5 1.4c.1.6.3 1.1.4 1.6.1.5.2 1 .4 1.6s.1 1.1.2 1.6c0 .6-.1 1.2-.3 1.8.1-.4.3-.7.4-1.1l.3-1.2c.1-.7 0-1.4-.4-1.9-.4-.9-.7-1.6-1-2.4zM618.1 449.7l.2-1c.6-.4 1-1 1.3-1.7.3-.7.5-1.4.5-2.1l-.7.4c-.2.8 0 1 .4.4-1 1.2-1.9 2.6-2.7 4 .4.2.6.3 1 0zM616.8 450.7c.1-.3.3-.6.4-.8h-.1l-.3.8z" class="st2"/><path d="M618.9 425c-.4-.9-.9-1.8-1.4-2.6-.5-.8-1.1-1.6-1.7-2.4s-1.2-1.5-1.9-2.1-1.3-1.3-2.1-1.9c-.3 0-.6 0-.9-.3-.1-.3-.3-.6-.5-.8-.4-.4-.9-.6-1.3-.9l-.5-.2c-.3-.1-.3.1-.2.3l.3.6c0-.1-.2-.4-.3-.6-.2-.3-.4-.5-.6-.7-.5-.2-1-.4-1.4-.6.5.1 1 .3 1.4.6l.8.4.3.1c-1-.7-2.1-1.3-3.2-1.8-.2-.1-.5-.2-.8-.2-.8-.1-1.6-.4-2.1-1l-.6-.2.1.1c-.1 0-.2-.1-.2-.1-.9-.3-1.8-.6-2.7-.8-.6.1-1.3.1-1.9.2l-.6-.5c-.3.2-.7.3-1.1.4.5.3.9.7 1.3.9.5.5 1.5-.7 2.1.3-.5-1-1.5.2-2.1-.3-.4-.2-.8-.6-1.3-.9-1 .1-2-.2-2.9-.6 1-.3 2.1-.1 2.9.6.4 0 .8-.2 1.1-.4l.6.5c.6 0 1.3-.1 1.9-.2-.9-.2-1.8-.4-2.8-.6-.9-.2-1.9-.3-2.8-.3-6.2-.6-12.4 1-17.6 4.4-2.6 1.8-4.8 4.1-6.5 6.8-.9 1.4-1.6 2.8-2.2 4.3l-.8 2.3c-.3.8-.4 1.6-.6 2.4-.8 3.4-1.2 6.9-1.1 10.5.1 3.5.6 6.9 1.4 10.3.9 3.4 2.4 6.6 4.5 9.4 2.1 3 4.9 5.4 8.2 7 3.3 1.6 6.8 2.6 10.5 2.9 3.7.3 7.4.2 11-.3 3.6-.7 7.1-2.1 10.2-4.1.8-.6 1.7-1.1 2.5-1.7s1.5-1.2 2.2-1.9l1.9-1.9c.6-.6 1.1-1.2 1.6-1.8l.6-1.2c.1-.3.2-.7.3-1.1.1-.5.2-1.1.1-1.6-.1-.7-.5-1.4-1.1-1.7-.8-.4-1.8-.6-2.7-.5-.6.1-1.1.3-1.7.5-.5.2-.9.3-1.4.6-.4.2-.8.5-1.2.8-.4.2-.8.5-1.2.9-.9.7-1.9 1.4-2.9 2-1.4.8-2.9 1.3-4.5 1.6 2.4-.7 2 .2.1 1.4-1.1.6-2.4 1.1-3.6 1.3-1.3.3-2.7.3-4.1 0-3.5-1.1-6.9-1.2-10.2-2a12.84 12.84 0 01-6.6-3.9c-.3-.3-.6-.7-.8-1.1-.3-.4-.5-.8-.7-1.2-.4-.9-.9-1.6-1.3-2.5-.2-.5-.5-.9-.7-1.4s-.4-1-.6-1.6c-.7-2.9-1.1-5.8-1.2-8.7-.2-2.8 0-5.7.6-8.5.5-2.6 1.5-5.1 3-7.3 1.6-2.2 3.8-3.9 6.3-4.9 2.7-1.2 5.4-2.6 8.2-3.2.5-.1 1.1-.1 1.6 0 .5 0 1.1.1 1.6.2 1 .2 2 .4 2.8.6 2.6.4 4.9.9 7.1 1.4-2.2-.8-4.5-1.3-6.9-1.6-.9-.1-.5-.4.2-.6l1.3-.3h1.3c.6 0 1.1 1.2 1.7 1.2.5.2 1.1.3 1.7.4.6.1 1.2.2 1.8.4s.1.9.4.9c.8.3 1.6.5 2.4.5.6.1 1.2.3 1.7.8.5.6 1 1.2 1.5 1.9.3.3.6.7.9 1l.8.5c.1-.4.2-.7.5-1 .1.2.3.5.4.7.1.3.2.5.3.8-.1-.2-.2-.5-.3-.8-.1-.2-.3-.5-.4-.7-.2.3-.4.6-.5 1 2 1.6 3.8 3.5 5.1 5.7l.1-.1c-.4-.7-.7-1.4-.9-2.1-.3-.7-.5-1.5-.7-2.3.2.7-.1.8-.5.1 0-.3.1-.5.1-.8.5.5 1 1 1.3 1.6.4.6.6 1.3.5 2l.7.7c.1.5-.2.5-.5.7.1.3.2.5.4.8.1-.6.2-1.2.1-1.7-.3-.7-.4-1.2-.4-1.2z" class="st2"/><path d="M607.8 413.3c.2.1.5.2.7.3-.4-.3-.9-.6-1.3-.8l-1.4-.7c.3.7 1.1 1 2 1.2z" class="st2"/></g><circle cx="593.8" cy="437.3" r="9.2" class="st3"/><g class="st1"><path d="M595.8 429.6l.5.2c-.1-.1-.1-.3-.1-.4-.2-.1-.3.1-.4.2zM596.7 430h.2-.2zM597.5 430.2c-.1-.1-.3-.2-.4-.2.1.1.3.2.4.2zM597 429.7c0 .1 0 .3-.2.4h.3c0-.2-.1-.3-.1-.4zM597 429.7v-.4.4zM598.6 426.6c.2 0-.3.8 0 .7.6-.1 1.2 0 1.8.2.3 0 0 1.1.3 1 .5.1 1 .1 1.5.1s.8-.1.5-.4c-1-.7-2.1-1.3-3.3-1.7-1-.1-2.1-.1-3.1.1-.3 0-.5-.1-.7-.2l.9.6c.3.2.5 0 .9-.2.3-.1.8-.2 1.2-.2zM592.1 429l.2-.4c.5.6.9.3 1.3 0l-.2-.5c-.3.1-.3.3 0 .5-.4-.5-1.1-.6-1.6-.3 0 .3.1.6.3.7zM591.5 428.5l.3-.1v-.1l-.3.2z" class="st2"/><path d="M599.7 430.5c1 .8 1.7 1.8 2.1 3 .2 0 .4 0 .4.1-.1.1-.2.2-.2.4s.1.3.1.5l.1.1c.1 0 .3 0 .4-.1l.3-.3-.3.3c-.1.1-.1.2-.2.4.1.1.2.3.2.5-.1-.1-.2-.3-.2-.5-.1-.1-.1-.2-.2-.2h-.1c.1.4.1.8.2 1.1l.1.2c.2.2.3.5-.1.7v.2h.1l-.1.1c0 .3-.1.6-.1.8.2.2.4.4.5.6l-.5.1c.2.1.3.2.4.4l.9-.3c.5-.2-.9-.6 0-.7-.9.2.5.6 0 .7l-.9.3c.1.3-.2.6-.7.8-.3-.4.2-.6.7-.8-.1-.2-.2-.3-.4-.4l.5-.1c-.1-.2-.3-.4-.5-.6-.1.5-.3 1.1-.5 1.6a9.5 9.5 0 01-3.1 3.8c-1.3.9-2.9 1.3-4.5 1.2-1.6-.2-3-1.2-3.8-2.6-.3-.6-.6-1.2-.8-1.7-.3-.5-.4-1.1-.5-1.7-.1-.6 0-1.1.3-1.6.3-.6.9-.9 1.6-1 .4-.1.8-.3 1.1-.6.2-.3.5-.5.8-.7 0-1.2-.2-2.4-.5-3.5-.2-.8-.5-1.6-1-2.3-.4-.6-.9-1-1.6-1.3-.5-.2-.9-.2-1.4 0-.9.3-1.9.9-3.9 1.5 1.3-.5 1.3.2.8 1-.8 1.1-1.9 2-3.2 2.5-2.4.9-3.2 3.6-2.8 6.1s1.7 4.8 2.7 7c.6 1.2 1.5 2.2 2.5 3 2.6 2.9 6.5 4.3 10.4 3.8 3.9-.5 7.4-2.3 10.1-5.2 1.4-1.6 1.6-3.7 1.7-5.4.2-1.1 1-2.3 1-3.3.1-1.4-.2-2.8-1-4 .5 1.2.8 2.5.8 3.9 0 .5-.3.3-.6-.1s-.6-.8-.8-1.3c-.2-.2.8-.7.6-1-.1-.6-.6-1.1-1-1.6-.3-.2.7-.4.5-.5-.3-.4-.7-.7-1.1-.8-.4-.2-.8-.4-.7-.6s-.1-.8-.1-1.2l-.3-.6-.5-.2c-.2.3-.4.5-.7.7-.1-.2-.1-.5-.2-.7.1.2.1.5.2.7.3-.2.5-.5.7-.7-1-.5-2.2-1-3.3-1.3v.1c.6.3.9.9.9 1.5 0-.3.2-.5.4-.3l-.4.6c-.5-.2-1-.3-.9-1.1l-.5.1c0-.2.2-.4.3-.7-.1-.1-.2-.1-.3-.1v.9l.1.4z" class="st2"/><path d="M602.4 434.9l-.2-.2c.1.3.1.7.1 1 .5-.3.3-.5.1-.8z" class="st2"/></g><g class="st1"><path d="M402 367.9l-.5 2.6-.6 2.6c.3-.9.6-1.7.9-2.6.3-.8.3-1.7.2-2.6zM399.8 378c-.1.3-.1.6-.2.9s-.1.6-.1.8c.1-.5.2-1.1.3-1.7zM397.8 387.1c.5-1.6.8-3.1 1.2-4.6-.5 1.5-.9 3-1.2 4.6zM399.9 380c-.3.5-.5.8-.4-.2-.2.9-.4 1.8-.6 2.8.3-1.1.7-1.9 1-2.6zM399.9 380c.3-.5.6-1.3.7-1.6-.2.4-.5 1-.7 1.6zM402.6 383.1c-.1 1-1 .5-1.3 2.4l-.6 3.2c-.2 1.1-.5 2-.7 3-.5 2-.9 3.9-1.5 5.9-.4 1.9-2.4 4.3-2.9 6.2-.5 2.2-1.8 5.9-2.4 8.5s-.8 3.7.4.6l2.5-6.6c.8-2.1 1.3-4 2-6l.9-2.9c.3-1 .5-1.9.8-2.9.5-2 1.2-4 1.7-6.2.4-1.8.7-3.6 1.1-5.4l.5-2.7.4-2.7.9-5.4c.3-1.8.5-3.6.7-5.5.3-2.1.8-4 1.1-5.9-.5 2.5-1.1 5.1-1.8 8-.4 2.1-.7 4.3-.9 6.4 0 2.6-.4 5.3-.9 8zM406 328.7l.3 2.8c-.3 2.1-.5 4.2-.6 6.4-.1 2.2 0 4.4 0 6.5.2-.6.4-1.3.6-1.9.1-2.5-.2-2.8-.5-.6.4-2.5.7-5 .9-7.5s.1-4.9.1-7.4c-.3.4-.6.3-.8 1.7zM406.7 324.1c0 1 0 2 .1 2.9l.1-.1c0-1-.1-2-.1-2.9l-.1.1zM392.4 406.2c-4.3 11.1-9.6 21.7-15.9 31.8-.2.9-.6 1.7-1.2 2.4s-1.2 1.4-1.7 2.1c-.9 1.4-1.9 2.7-2.9 4.1l-1 1.5c-.4.8-.2.7.3.3s.9-.9 1.3-1.2c-.3.2-.9.9-1.3 1.2-.6.6-1.1 1.3-1.8 2-.9 1.2-1.8 2.5-2.9 3.8.9-1.3 1.8-2.6 2.9-3.8.6-.8 1-1.6 1.5-2.4l.4-.7-1.7 2.3-1.7 2.4-3.5 4.5c-.5.7-1 1.3-1.5 1.9-1.7 2.2-3.3 4.4-4.8 5.3l-1.4 1.5.3-.2-.6.5-3 3.1-3.1 3c-1.2 1.4-2.4 3-3.8 4.3l-1.8.9c-.6.9-1.3 1.7-2.1 2.5 1.4-.8 2.6-1.5 3.7-2.2.9-.6 1.7-1.4 2.2-2.3a6.4 6.4 0 000 0c-.6.9-1.4 1.7-2.2 2.3-1.1.7-2.4 1.4-3.7 2.2a35.6 35.6 0 01-7.4 5.3c2.2-2.1 4.7-3.9 7.4-5.3.8-.7 1.5-1.6 2.1-2.5l1.8-.9c1.4-1.4 2.6-2.9 3.8-4.3-1 1-2 2-3.1 2.9l-3.2 2.8c-2.1 1.9-4.4 3.6-6.7 5.4-7.3 5.5-15 10.3-23.2 14.5a132 132 0 01-25.1 9.8c-17.8 5-36.4 6.2-54.7 3.3a132 132 0 01-55.1-22.5c-15.5-10.8-29.1-24-40.3-39.1-5.6-7.5-10.5-15.5-14.7-23.8-4.3-8.6-7.8-17.5-10.5-26.7-2.2-7.1-5.2-17.4-7.3-27.7-2-9.2-3.4-18.6-4.2-28-.4-2.4-.7-4.3-1.1-5.9-.2-1.2-.6-2.4-1-3.6-.7-1.8-1.4-2.3-2-2.2-1.2.2-2.2 3-2.3 3.5-.8 2.9-1.2 6-1.3 9-.1 3.2 0 6.5.4 9.7.2 1.8.4 3.6.6 5.6s.6 4.1.9 6.4c.2 1.1.3 2.4.5 3.6s.4 2.5.6 3.9c.4 2.7.8 5.6 1.4 8.7-.8-4.2-.7-5.6-.4-5.1.3.7.6 1.4.8 2.2.4 1.1.8 2.6 1.3 4.4.9 3.5 2.3 8 3.5 12.7 1.4 4.6 2.6 9.4 3.7 13.3 2.7 11.6 9 24.8 17.6 37.3l3.3 4.7c1.1 1.6 2.3 3 3.5 4.6 2.3 3.1 4.9 6 7.4 8.9 5.1 5.7 10.4 11.2 15.8 16.3 2.6 2.6 5.6 5 8.7 7.5 1.6 1.2 3.2 2.4 4.9 3.6.9.6 1.7 1.3 2.6 1.9l2.7 1.8c18.6 13 40.2 21.2 62.8 23.6 11.3 1.2 22.8 1 34.1-.6 11.7-1.6 23.2-4.7 34.1-9.1 11.9-4.9 21.2-11.3 29.6-17.9 1.5-1.2 3.2-2.3 4.7-3.5s3.1-2.4 4.6-3.6 2.9-2.4 4.3-3.5 2.7-2.2 3.8-3.4c6.4-6.1 12.2-12.9 17.3-20.2-.7.9-1.3 1.8-2 2.7l-2 2.5-1.9 2.4c-.6.8-1.3 1.6-2 2.3l-4.2 4.7c-1.5 1.6-3.2 3.2-5 5.1-2.4 2.4-1.8 1.3-.2-.7s4.2-5.1 5.6-6.9c.7-.9 1.6-1.6 2.5-2.3 1-.6 1.8-1.4 2.5-2.3 1.3-1.6 2.5-3.2 3.8-4.8s2.3-3.5 3.5-5.3c1-1.6 1.6-.9 2.1-1.7 1.5-2.3 2.8-4.7 4-7.1.9-2 1.9-3.9 3.1-5.7 1.7-2.4 3.1-4.7 4.5-6.8.9-1.4 1.7-2.9 2.5-4.4.4-1 .9-2 1.3-3-.4.5-1 .8-1.6.9.8-1.4 2-3.3 2.7-4.7-.7 1.4-2 3.3-2.7 4.7.6-.1 1.2-.4 1.6-.9l1.2-2.8c.4-1 .8-1.9 1.1-2.9.8-2 1.5-4 2.3-6 1.4-4.1 2.9-8.3 4.1-12.4l-.1.1c-.4 1.2-.8 2.3-1.2 3.5s-.9 2.3-1.4 3.4-1 2.3-1.6 3.4c-.3.6-.6 1.1-.9 1.7s-.6 1.1-1 1.7c1.1-1.9 1.2-1.6.2.8-.4.5-.8 1-1.2 1.6 1.7-4.1 2.9-8.3 5.2-11.9l.6-2.8c.6-1.3.9-1.1 1.2-1.3l.9-2.8c-.6.9-1.5 2.8-2.4 4.5l-1.1 2.2v.4z" class="st2"/><path d="M368.2 450.6c.4-.5.8-1.2 1.3-2-.9 1.3-1.9 2.5-2.9 3.8l-3 3.8c1.4-1.1 3-3.4 4.6-5.6z" class="st2"/></g><g class="st1"><path d="M222.2 434.9v-1.6c-.1.3-.2.6-.4.8-.1.4.2.5.4.8zM222.3 431.8v-.3l-.1-.3c0 .2.1.4.1.6zM222.4 428.9c-.1.5-.2 1-.2 1.4.2-.4.3-.9.2-1.4z" class="st2"/><path d="M221.9 431.2c.2-.2.3-.2.4.1v-.9c-.1.3-.3.5-.4.8zM221.9 431.2c-.1.2-.3.3-.4.5.1-.2.2-.3.4-.5zM218.6 430c-.1-.3.9-.1.8-.8s0-1.5 0-2.2c0-.7.1-1.4.3-2.1 0-.7 1.3-1.3 1.4-2s.4-2.1.5-3.1.1-1.5-.5-.4c-.4.7-.7 1.5-1 2.3-.3.7-.5 1.4-.7 2.1-.2.7-.4 1.4-.5 2.1s-.2 1.4-.4 2.2.1 1.3.1 1.9c-.1.7 0 1.3.1 2 .1.6.1 1.2.2 1.9s.2 1.2.4 1.9.1 1.4.1 2v-1.3c0-.4.1-.9.1-1.4 0-.7-.1-1.5-.4-2.1-.3-1.1-.5-2-.5-3zM225.1 446.6l-.7-.6c0-.7-.2-1.4-.5-2-.3-.6-.7-1.2-1-1.8-.1.2-.2.5-.2.7.3.7.6.7.6 0 .1 1.6.6 3.2 1.6 4.4 0-.1.3-.3.2-.7zM225.3 448.1c-.2-.2-.4-.5-.5-.7l-.1.1.6.6zM223.6 422.8c.4-.9.9-1.7 1.4-2.5.5-.8 1.1-1.5 1.6-2.3s1.2-1.4 1.9-2 1.3-1.2 2.1-1.8c.1-.3.1-.6.5-.7.3 0 .6-.1.9-.2.4-.3.9-.6 1.4-.8l.4-.4c.2-.2.1-.3-.2-.4h-.7.7c.3 0 .6-.1.9-.2.4-.3.9-.5 1.3-.7-.4.3-.9.5-1.3.7-.2.2-.5.4-.7.6l-.2.2c1-.6 2.1-1.1 3.2-1.5.2-.1.5-.2.7-.4.8-.4 1.5-.9 2.2-.6l.6-.1h-.1.2c.9-.2 1.7-.4 2.6-.5.5-.3 1.1-.6 1.7-.9l.7.4c.3-.3.6-.5.9-.6-.5-.2-1-.5-1.4-.6-.7-.4-1.2 1.2-2.1.4.9.8 1.4-.9 2.1-.4.4.1.9.4 1.4.6 1-.2 2-.1 2.9.3-1 .3-2 .2-2.9-.3-.4.1-.7.3-.9.6l-.7-.4c-.6.3-1.1.5-1.7.9l2.6-.3c.9-.1 1.8-.1 2.7-.1 5.6 0 11 1.7 15.6 4.8 4.4 3.4 7.3 8.4 8 13.9.9 6 0 12.2-2.5 17.7-1.1 2.5-2.5 4.8-4.2 6.9-1.5 1.9-3.4 3.5-5.6 4.6-4.8 2-10.2 1.6-14.6-1-1.8-1-4.4-2.2-6.9-3.7-2.2-1.3-4.2-2.9-5.9-4.7-.3-.2-.6-.3-.8-.4-.2-.1-.5-.2-.7-.3-.4-.2-.8-.3-1.3-.3-.7 0-1.4.2-2 .6-.7.6-1.2 1.4-1.4 2.3-.1.6-.1 1.2 0 1.8.1.5.2 1.1.5 1.5.2.5.5 1 .8 1.4.3.4.7.9 1.1 1.3 1.6 1.8 3.9 3.6 7.2 6.6-2.3-1.9-1-1.9 1.2-.8 1.1.4 2.5 1.2 4 1.9s2.9 1.6 4.2 2.5c3.6 2.7 9.4 3.3 15.2 1.4 2.9-1 5.6-2.5 7.9-4.5 1.1-1 2.2-2 3.2-3.1.5-.5.9-1.1 1.4-1.6s1-1.1 1.3-1.6c.9-1.1 1.6-2.3 2.2-3.6.3-.6.6-1.3.9-2s.5-1.4.8-2.2c1.6-3.7 2.5-7.7 2.8-11.7.3-4-.1-8.1-1.1-12-1.1-4.2-3-8.1-5.7-11.5-2.9-3.5-6.5-6.3-10.7-8.2-2.1-.9-4.3-1.4-6.5-1.6-2-.1-4-.1-5.9.1h-4.2c-1.3 0-2.5.1-3.8.3-3.1.5-6.1 1.7-8.7 3.5 2.7-1.5 5.5-2.6 8.5-3.3 1.2-.2.8.1 0 .6-.4.3-.9.5-1.4.8s-1 .6-1.3.7c-.6.4-1.9-.4-2.4.1-.7.3-1.3.6-1.9 1l-1.8 1.3c-.5.5-.9-.4-1.1-.2-.8.6-1.4 1.3-2 2.1-.4.7-.9 1.3-1.6 1.7-.9.5-1.6 1-2.4 1.5-.5.3-.9.7-1.2 1.2l-.6 1c.4 0 .8.1 1.1.3-.2.2-.5.4-.7.6-.2.2-.5.4-.7.6.2-.2.4-.4.7-.6.3-.2.5-.4.7-.6-.3-.2-.7-.3-1.1-.3a34.7 34.7 0 00-3.1 8.1h.1c.3-.8.6-1.5 1-2.2.5-.7 1-1.3 1.7-1.9-.5.5-.7.3-.4-.5.2-.1.5-.2.8-.3-.3.6-.5 1.4-.9 2-.3.6-.8 1.2-1.3 1.6 0 0 0 .6-.1 1-.3.4-.6.2-.8.2-.1.3-.2.6-.2.9.4-.4.9-.8 1.2-1.3.3 0 .7-.4.7-.4z" class="st2"/><path d="M234.4 411.5l-.6.5c.4-.3.9-.5 1.4-.6l1.4-.6c-.7-.3-1.4.2-2.2.7z" class="st2"/></g><circle cx="248" cy="434.9" r="9.2" class="st3"/><g class="st1"><path d="M245.4 424.7l-.6.1c.2 0 .3.1.4.2.2.1.2-.1.2-.3zM244.2 425h-.1l-.1.1.2-.1zM243.3 425.7c.2 0 .4-.2.5-.3-.3 0-.4.1-.5.3zM244.2 425.5c-.1-.1-.2-.2-.1-.4l-.3.2c.1.1.2.1.4.2zM244.2 425.5c.1.1.3.2.3.2-.1 0-.2-.1-.3-.2zM245.3 428.7c0 .1-.4-.8-.5-.5-.2.4-.3.9-.5 1.1 0 .2-.8-.5-.8-.2-.1.4-.1.7.1 1.1.1.4.3.6.4.5.3-.6.7-1.1 1.1-1.5.3-.7.7-1.2 1.2-1.7h.5c-.3-.1-.5-.2-.8-.3-.2-.1-.3.2-.4.5 0 .4-.1.7-.3 1zM250.1 425.2l-.4.2c-.4-.8-.9-.6-1.4-.3l.2.5c.3 0 .3-.3.1-.5.4.5.9.8 1.6.8 0-.3.1-.6-.1-.7zM250.5 425.9h-.3v.1l.3-.1z" class="st2"/><path d="M241.8 427.7c-1 .9-1.8 1.9-2.4 3.1.1.2.3.3.1.4-.2 0-.3.1-.4.1-.1.2-.2.3-.2.5v.2c.1.1.2.2.4.1.1 0 .3-.1.4-.1-.1 0-.2 0-.4.1-.1 0-.3.1-.4.2 0 .2 0 .4-.1.5-.1-.2 0-.4.1-.5v-.3l-.1-.1c-.2.4-.3.8-.4 1.2v.3c.1.3.2.6-.3.8v.2h.1l-.1.1c-.1.3-.1.7-.1 1l.6.6-.4.3c.2 0 .4.1.5.3.2-.2.5-.4.7-.6.4-.2-1-.4-.1-.7-.9.3.6.4.1.7-.2.2-.4.4-.7.6.2.3.1.7-.2 1.1-.5-.3-.2-.8.2-1.1-.1-.2-.3-.2-.5-.3l.4-.3-.6-.6c-.2 3 1.1 6 3.4 7.9 1.9 1.6 4.2 2.5 6.6 2.7 2.9.3 5.7-.3 8.2-1.7a11 11 0 004.9-7c.7-3.1.7-6.3.2-9.4-.4-1.7-1.4-3.3-2.7-4.4-1.3-1.2-2.8-2.1-4.5-2.6a3 3 0 00-2.9 2.6c-.2.8-.3 1.7-.3 2.5 0 .7.1 1.3.2 2 .1.3.2.6.4.9.6.5.9 1.4.8 2.2 0-.8.6-1.1 1-.7.6.6.6 1.6-.1 2.2l-.1.1c-1.4 1.4-1.6 1.7-1.5 2.3s.3 1.5-.4 1.8c-.4.1-.4.4-.8.6-.8.1-1.7.3-2.5.5-.9.2-1.9-.1-2.5-.8-.3-.3-1.4-.3-2-.7-.3-.4 0-1 0-1.3-.1-.6-.4-1.1-.7-1.6.1.5.2 1.1.5 1.5 0 .2-.3.2-.6 0-.3-.1-.6-.3-.9-.6-.2-.2.9-.3.7-.4 0-.3-.4-.6-.6-1-.2-.2.8.1.7 0s-.3-.5-.6-.8-.4-.5-.2-.6c.2-.1.4-.3.7-.4.1-.1.2-.2.2-.3l-.1-.4c-.3-.1-.6-.3-.9-.5.1-.1.4-.1.5-.2-.1.1-.4.1-.5.2.3.2.6.3.9.5-.1-.9.1-1.8.5-2.6l-.1-.1c-.4.4-.9.6-1.5.6.3 0 .5.2.4.4l-.5-.2c.1-.5.3-1.1 1.1-.8v-.4c.2 0 .4.3.6.5.1-.1.1-.2.2-.2-.3-.1-.5-.2-.8-.3-.3.2-.4.2-.6.2z" class="st2"/><path d="M238.9 432.4v-.3c-.2.3-.2.7-.4 1 .5-.1.4-.4.4-.7z" class="st2"/></g></svg>