<svg xmlns="http://www.w3.org/2000/svg" id="Layer_1" viewBox="0 0 842 842"><defs/><defs><style>.cls-2{opacity:.85}.cls-3{fill:#211f1e}</style></defs><path fill="#b07d62" d="M0 0h842v842H0z"/><g class="cls-2"><path d="M222 500l1-1a1 1 0 01-1 0v1zM223 499h1zM225 499a3 3 0 00-1 0 2 2 0 001 0zM224 499zM224 499h-1a1 1 0 001 0zM224 497s0 1 0 0h1a5 5 0 011 0h3a13 13 0 00-5 0 16 16 0 00-3 1 5 5 0 01-1 1l1-1a2 2 0 001 0 5 5 0 012-1zM217 503v-1a2 2 0 001 0l1-1h-1a4 4 0 00-2 2h1zM216 503z" class="cls-3"/><path d="M228 498a12 12 0 015 2 1 1 0 001 1h1a2 2 0 01-1 0h1a3 3 0 010 1 2 2 0 010-1h-1a13 13 0 011 1l1 1v1h1a11 11 0 010 1l1 1v-1 1a2 2 0 010 2 2 2 0 010-2l-1-1a12 12 0 011 2 13 13 0 010 8 12 12 0 01-5 7 11 11 0 01-8 1 13 13 0 01-7-3 9 9 0 01-2-3 8 8 0 01-1-4 28 28 0 011-4 11 11 0 011-3v-2a2 2 0 00-1-1 3 3 0 00-2 1 4 4 0 00-1 1 31 31 0 00-2 5c0-2 1-1 1 0a44 44 0 01-1 5c-1 2 0 5 2 7a20 20 0 007 5 13 13 0 004 1 15 15 0 0012-3 18 18 0 006-11 12 12 0 00-1-6 20 20 0 00-1-4 10 10 0 00-3-3 13 13 0 013 3l-2-1v-1a4 4 0 00-1-1h-1v-1a6 6 0 00-1-1 2 2 0 01-1 0l-2-1h-1-1 1a17 17 0 00-4 0 4 4 0 012 0h1-1a2 2 0 01-1 0h-1a4 4 0 00-1 0 9 9 0 002 0z" class="cls-3"/><path d="M235 501h-1a11 11 0 011 1v-1z" class="cls-3"/></g><circle cx="226" cy="512" r="6" fill="#1f2020"/><g class="cls-2"><path d="M232 509l-1-1 1 1zM231 508zM231 507a2 2 0 000 1 1 1 0 000-1zM231 508zM231 508zM230 508l-1-1s-1 0 0 0a6 6 0 011 1 5 5 0 011 1l-1-1zM232 511a1 1 0 000-1c0 1 0 1 0 0a4 4 0 000 2v-1zM232 512z" class="cls-3"/><path d="M229 507a7 7 0 00-2-1 2 2 0 00-1 0h-3a3 3 0 001 0 3 3 0 01-1 0h1a6 6 0 00-1 0 6 6 0 00-3 7 7 7 0 002 4 6 6 0 004 2 9 9 0 005-2 5 5 0 002-2 7 7 0 001-2l-1-1a1 1 0 00-1 0 3 3 0 00-1 1 3 3 0 01-1 2h1a2 2 0 01-2 1 13 13 0 00-2 0 4 4 0 01-3 0 7 7 0 01-1 0 6 6 0 01-2-3 4 4 0 011-4 10 10 0 011-1 4 4 0 011-1h2a5 5 0 00-2 0l1-1v1l1-1h1l1 1a1 1 0 010-1v1-1a1 1 0 000 1 4 4 0 012 0 4 4 0 01-1-1v1-1a1 1 0 010 1h1a3 3 0 00-1 0z" class="cls-3"/><path d="M226 506a5 5 0 00-1 0h1z" class="cls-3"/></g><g class="cls-2"><path d="M234 562l-3-1a12 12 0 011 1 3 3 0 002 0zM228 560h-1zM222 559a28 28 0 003 1 18 18 0 00-3-1zM226 560h-1a14 14 0 011 0zM226 560l1 1a10 10 0 00-1-1zM224 563l-2-1-4-1a40 40 0 01-4-1l-3-3-3-1-3-1c-2 0-2 0-1 1a80 80 0 009 4l3 1 4 1 7 2 8 1 4 1-6-1a20 20 0 00-4-1h-4l-1-1zM260 567h-2a19 19 0 00-4-1h-5 2c1 0 1 0 0 0a37 37 0 0010 1h-1zM263 567h-2 2z" class="cls-3"/><path d="M210 554a66 66 0 01-19-14 3 3 0 01-1-1 11 11 0 00-1-1l-2-3-1-1h-1a10 10 0 011 2l-1-2v-1a29 29 0 01-2-3 17 17 0 012 3 16 16 0 001 1v1l-1-2-1-1-2-4-1-1-1-2a5 5 0 01-1-2v-1-1l-2-5a30 30 0 01-2-3v-2a6 6 0 01-1-2v3l2 4-2-4v-3a17 17 0 010-6 15 15 0 010 4 17 17 0 010 2 6 6 0 001 2v2a30 30 0 002 3l-1-1v-2l-1-2v-3l-1-3a123 123 0 01-1-18 169 169 0 010-17l1-5v-4l1-5 1-4v-2l1-3 1-4 2-9 1-5 2-5v-3l1-2 1-5 2-10 1-5v-5a161 161 0 001-20v-9-10a387 387 0 00-5-38 140 140 0 00-5-20l-7-18c-3-6-5-7-6-6l-1 3 2 12a113 113 0 014 18c-1-6 1-4 2 1a63 63 0 013 17l2 26c1 10 3 19 2 28v7l-1 8-3 21-1 5-1 5-2 10a248 248 0 00-6 45 90 90 0 002 22l1 4 1 4v4l1 3a58 58 0 009 16l-3-4-1-1-1-2-2-4-1-5c-1-2-1-1 0 0l2 3 1 3 1 4 3 4v1h1l1 2 1 2a36 36 0 004 4 17 17 0 013 3 25 25 0 002 2l2 2a18 18 0 002 2l2 2a2 2 0 010-2l1 1 2 2-2-2-1-1a2 2 0 000 2h1l1 1 2 1 3 2 4 1 4 2a44 44 0 01-4-2 43 43 0 01-4-3h-1v-1l3 2a27 27 0 014 2l2 1v1l2 1-2-2z" class="cls-3"/><path d="M185 533l1 1a30 30 0 01-2-3l-2-2 3 4z" class="cls-3"/></g><g class="cls-2"><path d="M616 461h-1a2 2 0 011 1v-1zM614 462h-1zM612 462a4 4 0 001 0 3 3 0 00-1 0zM613 462zM613 462h1a2 2 0 00-1 0zM613 465h-1a13 13 0 01-3 1l-1-1-3 2 7-1 5-2a7 7 0 012 0h-2l-4 1zM626 461l-1 1a4 4 0 00-3 0h1a7 7 0 004 0l-1-1zM627 462zM607 463h-9-3a2 2 0 011 0h-1a2 2 0 00-1 0 4 4 0 01-1 0 3 3 0 011 0h1l-2-1h-5a14 14 0 01-2 0 1 1 0 01-1 0l1 1h0l-1-1a3 3 0 01-2 0 2 2 0 012 0 1 1 0 001 0 14 14 0 002 0l-5-1-27-2-14-3a131 131 0 00-15-1 82 82 0 01-14-2 22 22 0 00-3-1 31 31 0 00-5 1 63 63 0 00-7 0c-3 2-3 3-3 4a5 5 0 002 3 6 6 0 004 1 23 23 0 017 1c-4-1 3-2 7 0 5 4 13 2 20 3h6l32 3 8-1h6a30 30 0 006 0h-6l2-1h2a13 13 0 003 0s0 1 0 0l4-1 2 1a5 5 0 001 0h1a3 3 0 010-1h0a3 3 0 000 1l6-2a7 7 0 01-3-1l-1 1h3l1-1v1h1a9 9 0 00-2-1z" class="cls-3"/><path d="M594 463h1l-2-1 1 1z" class="cls-3"/></g></svg>