<svg xmlns="http://www.w3.org/2000/svg" id="Layer_1" x="0" y="0" version="1.1" viewBox="0 0 842 842" xml:space="preserve"><defs/><style>.st1{opacity:.85}.st2{fill:#fefefe}</style><path fill="#423228" d="M0 0h842v842H0z"/><g class="st1"><path d="M432 370l-1 3v3l1-3v-3zM430 380l-1 1v1l1-2zM428 389l1-4-1 4zM430 382h-1v3l1-3zM430 382l1-1-1 1zM433 385l-2 3v3l-1 3-2 6-3 6-2 9c-1 3-1 3 1 0l2-6 2-6 1-3 1-3 1-6 1-6 1-3v-2l1-6 1-5 1-6a209 209 0 01-3 14v8zM436 331v9 4l1-7v-8l-1 2zM437 327v-1 1zM422 409a185 185 0 01-17 34l-2 2-2 4-1 1v1l1-1-1 1-2 2-3 4 3-4 2-3-2 2-1 2-4 5-1 2-5 5-2 1h1l-1 1-3 3-3 3-4 4-2 1-2 2 4-2 2-2 3-2-3 2-2 2-4 2-7 6 7-6 2-2 2-1 4-4-3 3-3 2-7 6a164 164 0 01-48 24 128 128 0 01-110-19 174 174 0 01-73-117l-4-28-1-6-1-4-2-2c-2 0-3 3-3 4l-1 9v9l1 6 1 6v4l1 4 1 8v-5l1 3 1 4 4 13 3 13c3 12 9 25 18 37l3 5 4 5 7 8 16 17 9 7 5 4 2 2 3 2a135 135 0 00160-4l5-4 5-4 4-3 4-3c6-7 12-13 17-21l-2 3-2 3-2 2-2 2-4 5-5 5c-2 3-2 1 0-1l5-6 3-3 2-2 4-5 4-5 2-2 4-7 3-6a158 158 0 007-11l1-3-1 1 2-5-2 5 1-1 1-3 2-3 2-6 4-12-1 4c0 2-1 2-2 3l-1 3-1 2-1 2v1l-1 1 5-12 1-2 1-2 1-3-3 5-1 2v1z" class="st2"/><path d="M398 453l1-2-3 4-3 3 5-5z" class="st2"/></g><g class="st1"><path d="M252 437v-1 1zM252 434zM252 431v0zM252 434c0-1 0-1 0 0v-1 1zM252 434h-1 1zM249 432c-1 0 0 0 0 0v-3l1-2 1-2 1-3h-1l-1 2a17 17 0 00-1 4l-1 2 1 2v8-3-2-3zM255 449l-1-1v-2l-1-2v1c0 1 0 1 0 0l2 5v-1zM255 451v-1 1zM253 425l2-2 1-3 2-2 2-2h2l1-1 1-1h-1 1l2-1-2 1-1 1 4-2 2-1h4l2-1 1-1h-3 3l3 1-3-1-1 1h-1l-1 1 2-1h3c6 0 11 2 16 5 4 3 7 8 8 14a32 32 0 01-7 24c-2 2-3 4-6 5-4 2-10 2-14-1l-7-4-6-4-1-1h-1-3l-1 2v4l1 1 1 2 7 6c-2-2-1-2 2-1l4 2 4 3c3 2 9 3 15 1l8-4 3-3 1-2 2-2 2-3 1-2v-2a36 36 0 002-24l-6-12c-2-3-6-6-10-8l-7-1h-6-4a22 22 0 00-12 3l8-3c2 0 1 0 0 1l-1 1h-4l-2 1-1 2-1-1-2 3-2 1-2 2-2 1v1h1l-1 1 1-1h-1c-2 3-3 5-3 8l1-2 2-2h-1l1-1-1 2-1 2v1h-1v1l1-1v-1z" class="st2"/><path d="M264 414h1l1-1-2 1z" class="st2"/></g><circle cx="278" cy="437" r="9" fill="#ddd9d9"/><g class="st1"><path d="M275 427c0 1 0 0 0 0zM274 427zM273 428h1-1zM274 428v-1 1zM274 428zM275 431s0-1 0 0l-1 1-1-1v2h1l1-1 1-2h1-1-1v1zM280 428l-2-1v1l1-1 1 1zM280 428z" class="st2"/><path d="M272 430l-3 3v1h1-1v1-1l-1 1v4h1v-1c1 0-1 0 0 0-1 0 1 0 0 0v1l-1 1 1-1h-1v-1c0 3 1 6 3 8l7 2c3 1 6 0 8-1 3-2 4-4 5-7v-10l-3-4-4-3-3 3v5l1 3 1-1v2l-1 2c1 1 0 2-1 2l-1 1h-5l-2-1v-1l-1-2 1 2h-1l-1-1h1v-1c-1-1 0 0 0 0v-1-1h1v-1h-1v-1 1h1v-3l-2 1h1-1l1-1h0z" class="st2"/><path d="M269 435v-1l-1 1h1z" class="st2"/></g><g class="st1"><path d="M704 398h-2 2zM700 398zM697 398h2-2zM700 398s-1 0 0 0h-1 1zM700 398v0zM699 402l-1-1-4 1-2-1c-2 1-5 2-3 2l8-1 7-1h2-2c-2-1-3 1-5 1zM717 399h-5c1 0 1 0 0 0h5zM718 399h-1 1zM691 399h-12-1-3l1 1-1-1h-1-1 2-7l-3-1-2 1v-1l-1 1 1 1h2-2l-1-1-3-1 3 1 1-1v1l2-1h-6l-36-1-19-1c-13-1-25 0-38-2h-19c-6 1-3 5-3 5 4 4 7 2 15 4-5-1 4-2 9 0 8 4 19 1 28 2h50l11-1h7l9-1-9 1c-2 0 2-1 3-2l3 1 4-1v1c2 0 4-2 5-1h5v-1h2-2v1l9-2h-5c1 0 0 0 0 0h-1 4l1-1 1 1h1l-3-1zM674 399h1-3 2z" class="st2"/></g></svg>