<svg xmlns="http://www.w3.org/2000/svg" viewBox="0 0 850 850"><defs/><path fill="#f19ec0" d="M0 0h851v851H0z"/><path fill="#e57fb3" stroke="#231f20" stroke-miterlimit="10" stroke-width="4" d="M223 562l2-30c1-2-1-4-4-5-2 0-4 1-4 3l-14 26c-3 5-10 2-9-3l8-29c1-3 0-5-3-6-2 0-3 0-5 2l-19 22c-3 5-10 0-8-5l15-26c1-2 0-5-2-6h-5l-24 18c-4 4-10-2-6-6l19-23c2-2 1-5-1-7h-5l-27 13c-5 2-9-5-4-8l23-18c2-2 3-5 1-7l-5-2-29 8c-5 1-8-7-3-9l27-13c2-1 3-4 2-6s-2-3-4-3l-30 1c-6 0-7-8-1-9l29-7c2-1 4-3 3-6 0-2-2-3-4-3l-29-5c-6-1-5-9 1-10l29-1c3 0 5-2 5-4s-1-4-3-5l-28-11c-5-2-3-10 3-9l29 6c3 0 5-2 6-4l-2-5-25-16c-5-3-1-10 4-8l28 11a5 5 0 005-8l-21-21c-3-4 2-10 6-7l25 16c2 2 5 1 7-1v-5l-16-25c-3-5 3-10 7-6l21 22c2 2 4 2 6 0 2-1 2-3 2-5l-11-28c-2-5 6-9 9-4l15 25c2 2 5 3 7 2s2-3 2-5l-4-29c-1-6 7-8 9-3l10 28c1 3 4 4 6 3 2 0 3-2 3-4l2-30c0-5 9-5 9 0l4 30c1 2 3 4 6 4 1 0 3-2 3-4l9-28c1-6 9-4 9 1l-2 30c-1 3 1 5 4 5l4-2 14-27c3-4 10-1 9 4l-8 29c-1 2 0 5 3 5 2 1 3 0 5-1l19-23c3-4 10 0 8 5l-15 27c-1 2 0 5 2 6s4 1 5-1l24-18c4-3 10 2 6 7l-19 22c-2 2-1 5 1 7l5 1 26-13c5-3 10 4 5 7l-23 19c-2 1-3 4-1 6 1 2 3 2 5 2l29-7c5-2 8 6 3 8l-27 13c-2 2-3 4-2 7l4 2 30-1c6 0 7 8 1 9l-29 8c-2 0-4 3-3 5 0 2 2 3 4 4l29 5c5 1 5 9-1 9l-30 1c-2 0-4 2-4 5 0 2 1 3 3 4l27 11c6 2 3 10-2 9l-30-5c-2-1-4 1-5 4l2 4 25 17c4 3 1 10-5 8l-27-11a5 5 0 00-5 7l21 22c3 4-2 10-6 7l-25-17c-2-1-5-1-6 1s-2 4-1 5l16 26c3 4-3 9-7 5l-21-21c-2-2-5-2-6 0-2 1-2 3-2 5l11 28c1 5-6 9-9 4l-15-26c-2-2-5-3-7-1l-2 4 4 30c1 6-7 8-9 2l-10-28c-1-2-4-3-6-3l-3 4-2 30c-1 6-9 6-9 0l-4-29c-1-3-3-4-6-4-2 0-3 1-4 3l-8 29c-1 5-9 4-9-2z"/><circle cx="254" cy="425" r="32" fill="#e06ba9" stroke="#231f20" stroke-miterlimit="10" stroke-width="3"/><circle cx="254" cy="426" r="14" fill="#3f2a37"/><circle cx="254" cy="423" r="14" fill="#e661a4" stroke="#231f20" stroke-miterlimit="10" stroke-width="3"/><path fill="#9e537f" stroke="#231f20" stroke-miterlimit="10" stroke-width="3" d="M527 428h159c2 0 3 1 3 3v5c0 2-1 3-3 3H527c-2 0-3-1-3-3v-4c0-3 1-4 3-4z"/></svg>