<svg xmlns="http://www.w3.org/2000/svg" viewBox="0 0 850.4 850.4"><defs/><path fill="#ec79a9" d="M0 0h850.4v850.4H0z"/><path fill="#3f2a37" d="M667.7 560.8a33 33 0 00-45.6 10c-.6.9-1.1 1.9-1.6 2.8-14 27.7-55 22.4-61.6-7.9a33.02 33.02 0 00-39.3-25.2c-1.1.2-2.1.5-3.2.9-29.5 9.6-54.7-23.1-38-49.2a33 33 0 00-10-45.6c-.9-.6-1.9-1.1-2.8-1.6-27.6-14-22.4-55 7.9-61.6a33.02 33.02 0 0025.2-39.3c-.2-1.1-.5-2.1-.9-3.2-9.6-29.5 23.1-54.7 49.2-38a33 33 0 0045.6-10c.6-.9 1.1-1.9 1.6-2.8 14-27.7 55-22.4 61.6 7.9a33.02 33.02 0 0039.3 25.2c1.1-.2 2.1-.5 3.2-.9 29.5-9.6 54.7 23.1 38 49.2a33 33 0 0010 45.6c.9.6 1.9 1.1 2.8 1.6 27.7 14 22.4 55-7.9 61.6a33.02 33.02 0 00-25.2 39.3c.2 1.1.5 2.1.9 3.2 9.5 29.5-23.2 54.7-49.2 38z" opacity=".47"/><path fill="#f6aac4" stroke="#231f20" stroke-miterlimit="10" stroke-width="4" d="M667.7 546.4h0a33 33 0 00-45.6 10c-.6.9-1.1 1.9-1.6 2.8h0c-14 27.7-55 22.4-61.6-7.9h0a33.02 33.02 0 00-39.3-25.2c-1.1.2-2.1.5-3.1.9h0c-29.5 9.6-54.7-23.1-38-49.2h0a33 33 0 00-10-45.6c-.9-.6-1.9-1.1-2.8-1.6h0c-27.6-14-22.4-55 7.9-61.6h0a33.02 33.02 0 0025.2-39.3c-.2-1.1-.5-2.1-.9-3.2h0c-9.6-29.5 23.1-54.7 49.2-38h0a33 33 0 0045.6-10c.6-.9 1.1-1.9 1.6-2.8h0c14-27.6 55-22.4 61.6 7.9h0a33.02 33.02 0 0039.3 25.2c1.1-.2 2.1-.5 3.2-.9h0c29.5-9.6 54.7 23.1 38 49.2h0a33 33 0 0010 45.6c.9.6 1.9 1.1 2.8 1.6h0c27.7 14 22.4 55-7.9 61.6h0a33.02 33.02 0 00-25.2 39.3c.2 1.1.5 2.1.9 3.2h0c9.4 29.6-23.3 54.8-49.3 38z"/><circle cx="607.4" cy="420.1" r="52.1" fill="#e681b4" stroke="#231f20" stroke-miterlimit="10" stroke-width="3"/><circle cx="607.4" cy="422.5" r="23.4" fill="#3f2a37"/><circle cx="607.4" cy="417.8" r="23.4" fill="#e661a4" stroke="#231f20" stroke-miterlimit="10" stroke-width="3"/><path fill="#9e537f" stroke="#231f20" stroke-miterlimit="10" stroke-width="3" d="M155.3 418.9h201.5c2.1 0 3.8 1.7 3.8 3.8v4c0 2.1-1.7 3.8-3.8 3.8H155.3a3.8 3.8 0 01-3.8-3.8v-4c0-2.1 1.7-3.8 3.8-3.8z"/></svg>