<svg xmlns="http://www.w3.org/2000/svg" viewBox="0 0 850.4 850.4"><defs/><path fill="#f19ec0" d="M0 0h850.7v850.7H0z"/><path fill="#3f2a37" d="M223.2 575.2l2.2-29.8c.2-2.6-1.7-4.8-4.3-5-1.8-.1-3.6.8-4.4 2.4l-14 26.3c-2.6 4.9-10.1 1.9-8.6-3.5l8.3-28.7c.7-2.5-.8-5-3.2-5.7-1.7-.5-3.6.1-4.8 1.4l-19.2 22.8c-3.6 4.3-10.3-.3-7.7-5.2l14.1-26.3c1.3-2.2.5-5.1-1.8-6.3a4.7 4.7 0 00-5.2.5l-23.5 18.4c-4.4 3.4-10-2.4-6.4-6.7l19.2-22.8c1.7-2 1.4-4.9-.6-6.6a4.58 4.58 0 00-5-.6l-26.9 13c-5 2.5-9.3-4.4-4.9-7.9l23.6-18.3c2-1.6 2.4-4.5.9-6.5a4.8 4.8 0 00-4.9-1.7l-29 7.2c-5.4 1.4-8.2-6.3-3.2-8.7l26.9-13c2.3-1.1 3.3-3.9 2.2-6.2-.8-1.7-2.5-2.7-4.4-2.6l-29.8 1c-5.6.2-6.7-7.8-1.3-9.2l29-7.1c2.5-.6 4-3.1 3.4-5.6a4.6 4.6 0 00-3.7-3.5l-29.4-5.2c-5.5-1-4.9-9 .7-9.2l29.8-1c2.6-.1 4.6-2.2 4.5-4.8 0-1.9-1.2-3.5-2.9-4.2l-27.7-11.2c-5.2-2.1-2.9-9.9 2.6-8.9l29.4 5.3c2.5.4 5-1.3 5.4-3.8.3-1.8-.5-3.6-2-4.7L122 366.7c-4.6-3.1-.8-10.3 4.4-8.2l27.6 11.3a4.68 4.68 0 005.1-7.6l-20.7-21.5c-3.9-4 1.3-10.2 6-7.1l24.6 16.8c2.1 1.4 5 .9 6.5-1.2 1-1.5 1.1-3.5.1-5.1l-15.8-25.3c-3-4.7 3.4-9.7 7.3-5.7l20.7 21.5c1.8 1.9 4.7 1.9 6.6.2 1.3-1.3 1.8-3.2 1.2-5l-10.1-28.1c-1.9-5.3 5.4-8.8 8.3-4l15.8 25.4c1.3 2.2 4.2 2.9 6.4 1.5 1.6-1 2.4-2.8 2.2-4.6l-4.1-29.6c-.8-5.5 7.1-7.5 9-2.2l10.1 28.1a4.8 4.8 0 006 2.8c1.7-.6 2.9-2.2 3-4l2.1-29.8c.4-5.6 8.5-5.8 9.2-.3l4.1 29.6a4.7 4.7 0 005.2 4 4.9 4.9 0 003.9-3.3l8.2-28.7c1.5-5.4 9.5-4 9.1 1.6l-2.2 29.8a4.7 4.7 0 004.3 5c1.8.1 3.5-.8 4.4-2.4l14-26.4c2.6-4.9 10.1-1.9 8.6 3.5l-8.3 28.7c-.7 2.5.8 5 3.2 5.7 1.7.5 3.6-.1 4.8-1.4l19.2-22.9c3.6-4.3 10.3.3 7.7 5.2l-14.1 26.3a4.7 4.7 0 001.8 6.3c1.7.9 3.7.7 5.2-.5l23.5-18.4c4.4-3.4 10 2.4 6.4 6.7L343 356.1c-1.7 2-1.4 4.9.5 6.6 1.4 1.2 3.4 1.5 5.1.6l26.8-13.1c5-2.5 9.3 4.4 4.9 7.9l-23.6 18.3c-2 1.6-2.4 4.5-.9 6.5a4.8 4.8 0 004.9 1.7l29-7.2c5.4-1.4 8.2 6.3 3.1 8.7l-26.9 13a4.68 4.68 0 00-2.2 6.2c.8 1.7 2.5 2.7 4.4 2.6l29.8-1c5.6-.2 6.7 7.8 1.3 9.2l-29 7.1c-2.5.6-4 3.1-3.4 5.6.4 1.8 1.9 3.1 3.7 3.5l29.4 5.2c5.5 1 4.9 9-.7 9.2l-29.8 1c-2.6 0-4.6 2.1-4.6 4.7 0 1.9 1.2 3.6 3 4.3l27.7 11.2c5.2 2.1 2.9 9.9-2.6 8.9l-29.4-5.3c-2.5-.5-4.9 1.2-5.4 3.8-.3 1.8.5 3.6 2 4.7l24.8 16.6c4.6 3.1.8 10.3-4.4 8.2L353 493.5a4.68 4.68 0 00-5.1 7.6l20.7 21.5c3.9 4-1.3 10.2-6 7.1L338 512.9c-2.1-1.4-5-.9-6.5 1.2a4.7 4.7 0 00-.1 5.1l15.8 25.3c3 4.8-3.4 9.7-7.3 5.7l-20.7-21.5a4.71 4.71 0 00-6.6-.2 4.86 4.86 0 00-1.2 5l10.2 28.1c1.9 5.2-5.4 8.8-8.3 4l-15.8-25.3a4.58 4.58 0 00-6.4-1.5c-1.6 1-2.4 2.8-2.2 4.6L293 573c.8 5.5-7.1 7.5-9 2.2l-9.9-28.2a4.8 4.8 0 00-6-2.8c-1.7.6-2.9 2.2-3 4L263 578c-.4 5.6-8.5 5.8-9.2.3l-4.1-29.6a4.8 4.8 0 00-5.3-4c-1.8.3-3.3 1.5-3.8 3.3l-8.2 28.7c-1.6 5.5-9.6 4.1-9.2-1.5z" opacity=".3"/><path fill="#e57fb3" stroke="#231f20" stroke-miterlimit="10" stroke-width="4" d="M223.2 562.2l2.2-29.8c.2-2.6-1.7-4.8-4.3-5-1.8-.1-3.6.8-4.4 2.4l-14 26.3c-2.6 4.9-10.1 1.9-8.6-3.5l8.3-28.7c.7-2.5-.8-5-3.2-5.7-1.7-.5-3.6.1-4.8 1.4l-19.2 22.8c-3.6 4.3-10.3-.3-7.7-5.2l14.1-26.3c1.3-2.2.5-5.1-1.8-6.3a4.7 4.7 0 00-5.2.5l-23.5 18.4c-4.4 3.4-10-2.4-6.4-6.7l19.2-22.8c1.7-2 1.4-4.9-.6-6.6a4.58 4.58 0 00-5-.6l-26.8 13.1c-5 2.5-9.3-4.4-4.9-7.9l23.6-18.3c2-1.6 2.4-4.5.9-6.5a4.8 4.8 0 00-4.9-1.7l-29 7.2c-5.4 1.4-8.2-6.3-3.2-8.7l26.9-13c2.3-1.1 3.3-3.9 2.2-6.2-.8-1.7-2.5-2.7-4.3-2.6l-29.8 1c-5.6.2-6.7-7.8-1.3-9.2l29-7.1c2.5-.6 4-3.1 3.4-5.6a4.6 4.6 0 00-3.7-3.5l-29.4-5.2c-5.5-1-4.9-9 .7-9.2l29.8-1c2.6 0 4.6-2.1 4.6-4.7 0-1.9-1.2-3.6-3-4.3l-27.7-11.2c-5.2-2.1-2.9-9.9 2.6-8.9l29.4 5.3c2.5.4 5-1.3 5.4-3.8.3-1.8-.5-3.6-2-4.7L122 353.8c-4.6-3.1-.8-10.3 4.4-8.2l27.6 11.3a4.68 4.68 0 005.1-7.6l-20.7-21.5c-3.9-4 1.3-10.2 6-7.1l24.6 16.8c2.1 1.4 5 .9 6.5-1.2 1-1.5 1.1-3.5.1-5.1l-15.8-25.3c-3-4.7 3.4-9.7 7.3-5.7l20.7 21.5c1.8 1.9 4.7 1.9 6.6.2 1.3-1.3 1.8-3.2 1.2-5l-10.2-28c-1.9-5.3 5.4-8.8 8.3-4l15.8 25.4c1.4 2.2 4.2 2.8 6.4 1.5 1.6-1 2.4-2.8 2.1-4.6l-4.1-29.6c-.8-5.5 7.1-7.5 9-2.2l10.1 28.1a4.8 4.8 0 006 2.8c1.7-.6 2.9-2.2 3-4l2.1-29.8c.4-5.6 8.5-5.8 9.2-.3l4.1 29.6a4.7 4.7 0 005.2 4 4.9 4.9 0 003.9-3.3l8.2-28.7c1.5-5.4 9.5-4 9.1 1.6l-2.1 29.8a4.7 4.7 0 004.3 5c1.8.1 3.5-.8 4.4-2.4l14-26.4c2.6-4.9 10.1-1.9 8.6 3.5l-8.3 28.7c-.7 2.5.8 5 3.2 5.7 1.7.5 3.6-.1 4.8-1.4l19.2-22.9c3.6-4.3 10.3.3 7.7 5.2l-14.1 26.3a4.7 4.7 0 001.8 6.3c1.7.9 3.7.7 5.2-.5l23.5-18.4c4.4-3.4 10 2.4 6.4 6.7l-19.3 22.8c-1.7 2-1.4 4.9.6 6.6 1.4 1.2 3.4 1.4 5 .6l26.8-13.1c5-2.5 9.3 4.4 4.9 7.9l-23.6 18.3c-2 1.6-2.4 4.5-.9 6.5a4.8 4.8 0 004.9 1.7l29-7.2c5.4-1.4 8.2 6.3 3.1 8.7l-26.9 13a4.68 4.68 0 00-2.2 6.2c.8 1.7 2.5 2.7 4.4 2.6l29.8-1c5.6-.2 6.7 7.8 1.3 9.2l-29 7.1c-2.5.6-4 3.1-3.4 5.6.4 1.8 1.9 3.1 3.7 3.5l29.4 5.2c5.5 1 4.9 9-.7 9.2l-29.8 1c-2.6 0-4.6 2.1-4.6 4.7 0 1.9 1.2 3.6 3 4.3l27.6 11.2c5.2 2.1 2.9 9.9-2.6 8.9l-29.4-5.3c-2.5-.5-4.9 1.2-5.4 3.8-.3 1.8.5 3.6 2 4.7l24.7 16.7c4.6 3.1.8 10.3-4.4 8.2L353 480.6a4.68 4.68 0 00-5.1 7.6l20.7 21.5c3.9 4-1.3 10.2-6 7.1L338 500c-2.1-1.4-5-.9-6.5 1.2a4.7 4.7 0 00-.1 5.1l15.8 25.3c3 4.8-3.4 9.7-7.3 5.7l-20.7-21.5a4.71 4.71 0 00-6.6-.2 4.86 4.86 0 00-1.2 5l10.2 28.1c1.9 5.2-5.4 8.8-8.3 4l-15.7-25.4a4.58 4.58 0 00-6.4-1.5c-1.6 1-2.4 2.8-2.2 4.6l4.1 29.6c.8 5.5-7.1 7.5-9 2.2L274 534.1a4.8 4.8 0 00-6-2.8c-1.7.6-2.9 2.2-3 4l-2.1 29.8c-.4 5.6-8.5 5.8-9.2.3l-4.1-29.6a4.8 4.8 0 00-5.3-4c-1.8.3-3.3 1.5-3.8 3.3l-8.2 28.7c-1.5 5.4-9.5 4-9.1-1.6z"/><circle cx="253.6" cy="424.7" r="32.1" fill="#e06ba9" stroke="#231f20" stroke-miterlimit="10" stroke-width="3"/><circle cx="253.6" cy="426.2" r="14.4" fill="#3f2a37"/><circle cx="253.6" cy="423.3" r="14.4" fill="#e661a4" stroke="#231f20" stroke-miterlimit="10" stroke-width="3"/><path fill="#9e537f" stroke="#231f20" stroke-miterlimit="10" stroke-width="3" d="M527.4 427.7h158.2c2.1 0 3.8 1.7 3.8 3.8v4c0 2.1-1.7 3.8-3.8 3.8H527.4a3.8 3.8 0 01-3.8-3.8v-4c0-2.1 1.7-3.8 3.8-3.8z"/></svg>