<svg xmlns="http://www.w3.org/2000/svg" id="Layer_1" viewBox="0 0 850.39 850.39"><defs/><defs><style>.cls-2,.cls-5{fill:#3f2a37}.cls-2{opacity:.44}.cls-3,.cls-4,.cls-6{fill:#dc7cb2;stroke-width:4px;stroke:#231f20;stroke-miterlimit:10}.cls-4,.cls-6{fill:#e681b4;stroke-width:3px}.cls-6{fill:#e661a4}</style></defs><path fill="#e9a4c9" d="M0 0h850.39v850.39H0z"/><path d="M731.89 380.71l-87.32-87.33a11.41 11.41 0 00-16.13 0l-25.51 25.52a11.41 11.41 0 01-16.13 0l-25.51-25.52a11.41 11.41 0 00-16.13 0l-87.32 87.33a11.4 11.4 0 000 16.12l25.51 25.52a11.4 11.4 0 010 16.13L457.84 464a11.41 11.41 0 000 16.13l87.32 87.32a11.41 11.41 0 0016.13 0l25.51-25.52a11.41 11.41 0 0116.13 0l25.51 25.52a11.41 11.41 0 0016.13 0l87.32-87.32a11.4 11.4 0 000-16.13l-25.51-25.51a11.41 11.41 0 010-16.13l25.51-25.52a11.38 11.38 0 000-16.13z" class="cls-2"/><path d="M731.89 370.28L644.57 283a11.4 11.4 0 00-16.13 0l-25.51 25.51a11.41 11.41 0 01-16.13 0L561.29 283a11.4 11.4 0 00-16.13 0l-87.32 87.32a11.41 11.41 0 000 16.13l25.51 25.51a11.4 11.4 0 010 16.13l-25.51 25.51a11.41 11.41 0 000 16.13L545.16 557a11.41 11.41 0 0016.13 0l25.51-25.5a11.4 11.4 0 0116.13 0l25.51 25.5a11.41 11.41 0 0016.13 0l87.32-87.32a11.4 11.4 0 000-16.13l-25.51-25.51a11.41 11.41 0 010-16.13l25.51-25.51a11.4 11.4 0 000-16.12z" class="cls-3"/><circle cx="594.87" cy="425.2" r="35.85" class="cls-4"/><circle cx="594.87" cy="426.81" r="16.09" class="cls-5"/><circle cx="594.87" cy="423.59" r="16.09" class="cls-6"/><path d="M392.55 380.71l-87.32-87.33a11.4 11.4 0 00-16.12 0l-25.52 25.52a11.41 11.41 0 01-16.13 0L222 293.38a11.41 11.41 0 00-16.13 0l-87.37 87.33a11.4 11.4 0 000 16.12l25.5 25.52a11.4 11.4 0 010 16.13L118.5 464a11.41 11.41 0 000 16.13l87.32 87.32a11.41 11.41 0 0016.13 0l25.51-25.52a11.41 11.41 0 0116.13 0l25.52 25.52a11.4 11.4 0 0016.12 0l87.32-87.32a11.4 11.4 0 000-16.13L367 438.48a11.41 11.41 0 010-16.13l25.51-25.52a11.38 11.38 0 00.04-16.12z" class="cls-2"/><path d="M392.55 370.28L305.23 283a11.38 11.38 0 00-16.12 0l-25.52 25.51a11.41 11.41 0 01-16.13 0L222 283a11.4 11.4 0 00-16.13 0l-87.37 87.28a11.41 11.41 0 000 16.13l25.5 25.51a11.4 11.4 0 010 16.13l-25.5 25.51a11.41 11.41 0 000 16.13L205.82 557a11.41 11.41 0 0016.18 0l25.51-25.51a11.4 11.4 0 0116.13 0L289.11 557a11.4 11.4 0 0016.12 0l87.32-87.32a11.4 11.4 0 000-16.13L367 428.05a11.41 11.41 0 010-16.13l25.51-25.51a11.4 11.4 0 00.04-16.13z" class="cls-3"/><circle cx="255.53" cy="425.2" r="35.85" class="cls-4"/><circle cx="255.53" cy="426.81" r="16.09" class="cls-5"/><circle cx="255.53" cy="423.59" r="16.09" class="cls-6"/></svg>