<svg xmlns="http://www.w3.org/2000/svg" viewBox="0 0 850.39 850.39"><defs/><path fill="#e661a4" d="M0 0h850.39v850.39H0z"/><path fill="#3f2a37" d="M341.12 560.82l-64.82-46.73a12.85 12.85 0 00-15.11 0l-64.47 47.21c-10 7.35-23.62-2.45-19.82-14.3l24.41-76a12.85 12.85 0 00-4.72-14.35l-64.81-46.73c-10.1-7.28-5-23.22 7.46-23.27l79.91-.29a12.84 12.84 0 0012.18-8.92l24.42-76.09c3.8-11.85 20.55-11.91 24.44-.09l25 75.91a12.85 12.85 0 0012.22 8.83l79.9-.29c12.45-.05 17.68 15.86 7.64 23.21l-64.47 47.18a12.84 12.84 0 00-4.62 14.38l25 75.9c3.86 11.82-9.65 21.72-19.74 14.44z" opacity=".47"/><path fill="#e58bba" stroke="#231f20" stroke-miterlimit="10" stroke-width="3" d="M340 554.93l-64.82-46.74a12.85 12.85 0 00-15.1.06l-64.47 47.2c-10.05 7.36-23.63-2.44-19.83-14.29l24.42-76.08a12.86 12.86 0 00-4.72-14.35L130.67 404c-10.09-7.28-5-23.22 7.47-23.27l79.9-.29a12.85 12.85 0 0012.19-8.92l24.41-76.09c3.81-11.85 20.55-11.91 24.44-.09l25 75.91a12.86 12.86 0 0012.25 8.83l79.91-.29c12.44-.05 17.68 15.86 7.64 23.21l-64.48 47.2a12.85 12.85 0 00-4.61 14.38l25 75.91c3.83 11.82-9.68 21.71-19.79 14.44z"/><circle cx="270.68" cy="438.32" r="30.14" fill="#e681b4" stroke="#231f20" stroke-miterlimit="10" stroke-width="3"/><circle cx="270.68" cy="439.67" r="13.53" fill="#3f2a37"/><circle cx="270.68" cy="436.97" r="13.53" fill="#e661a4" stroke="#231f20" stroke-miterlimit="10" stroke-width="3"/><rect width="151.3" height="8.36" x="497.86" y="434.14" fill="#9e537f" stroke="#231f20" stroke-miterlimit="10" stroke-width="3" rx="3.78"/></svg>