<svg xmlns="http://www.w3.org/2000/svg" id="Layer_1" x="0" y="0" version="1.1" viewBox="0 0 850 850" xml:space="preserve"><defs/><style>.st1{opacity:.47;fill:#3f2a37;enable-background:new}.st2,.st3{fill:#e972a1;stroke:#231f20;stroke-width:4;stroke-miterlimit:10}.st3{fill:#e8518f;stroke-width:3}.st4{fill:#492d3e}.st5{fill:#e52e78;stroke:#231f20;stroke-width:3;stroke-miterlimit:10}</style><path fill="#ec68a4" d="M0 0h850v850H0z"/><path d="M164 285h187l58 177-151 110-151-109z" class="st1"/><path d="M167 275h181l57 172-147 107-147-106z" class="st2"/><path d="M235 388h46l14 43-37 28-37-27z" class="st3"/><path d="M247 409h21l7 20-17 12-17-12z" class="st4"/><path d="M248 407h20l6 19-16 12-16-12z" class="st5"/><path d="M500 285h186l58 177-150 110-151-109z" class="st1"/><path d="M503 275h181l57 172-147 107-147-106z" class="st2"/><path d="M571 388h46l14 43-37 28-37-27z" class="st3"/><path d="M583 409h21l7 20-17 12-17-12z" class="st4"/><path d="M584 407h20l6 19-16 12-16-12z" class="st5"/></svg>