<svg xmlns="http://www.w3.org/2000/svg" id="Layer_1" x="0" y="0" version="1.1" viewBox="0 0 850 850" xml:space="preserve"><defs/><style>.st1{fill:#9e537f}.st2,.st3,.st4{fill:#f175a8;stroke:#231f20;stroke-width:4;stroke-miterlimit:10}.st3,.st4{fill:#e1659e;stroke-width:3}.st4{fill:#ee4f9c}</style><path fill="#e686b7" d="M0 0h850v850H0z"/><path d="M390 322s-71 189-255 211c0 0 30-183 255-211z" class="st1"/><path d="M392 317s-69 180-254 202c0 0 30-174 254-202z" class="st2"/><circle cx="170" cy="490" r="17" class="st3"/><circle cx="170" cy="493" r="10" class="st1"/><circle cx="168" cy="491" r="10" class="st4"/><path d="M460 322s70 189 255 211c0 0-31-183-255-211z" class="st1"/><path d="M457 317s70 180 254 202c0 0-29-174-254-202z" class="st2"/><circle cx="680" cy="490" r="17" class="st3"/><circle cx="680" cy="493" r="10" class="st1"/><circle cx="681" cy="491" r="10" class="st4"/></svg>