<svg xmlns="http://www.w3.org/2000/svg" id="Layer_1" viewBox="0 0 850 850"><defs/><defs><style>.cls-2,.cls-5{fill:#3f2a37}.cls-2{opacity:.44}.cls-3,.cls-4,.cls-6{fill:#dc7cb2;stroke-width:4px;stroke:#231f20;stroke-miterlimit:10}.cls-4,.cls-6{fill:#e681b4;stroke-width:3px}.cls-6{fill:#e661a4}</style></defs><path fill="#e9a4c9" d="M0 0h850v850H0z"/><path d="M732 381l-87-88a11 11 0 00-17 0l-25 26a11 11 0 01-16 0l-26-26a11 11 0 00-16 0l-87 88a11 11 0 000 16l25 25a11 11 0 010 16l-25 26a11 11 0 000 16l87 87a11 11 0 0016 0l26-25a11 11 0 0116 0l25 25a11 11 0 0017 0l87-87a11 11 0 000-16l-26-26a11 11 0 010-16l26-25a11 11 0 000-16z" class="cls-2"/><path d="M732 370l-87-87a11 11 0 00-17 0l-25 26a11 11 0 01-16 0l-26-26a11 11 0 00-16 0l-87 87a11 11 0 000 16l25 26a11 11 0 010 16l-25 26a11 11 0 000 16l87 87a11 11 0 0016 0l26-25a11 11 0 0116 0l25 25a11 11 0 0017 0l87-87a11 11 0 000-16l-26-26a11 11 0 010-16l26-26a11 11 0 000-16z" class="cls-3"/><circle cx="595" cy="425" r="36" class="cls-4"/><circle cx="595" cy="427" r="16" class="cls-5"/><circle cx="595" cy="424" r="16" class="cls-6"/><path d="M393 381l-88-88a11 11 0 00-16 0l-25 26a11 11 0 01-17 0l-25-26a11 11 0 00-16 0l-87 88a11 11 0 000 16l25 25a11 11 0 010 16l-25 26a11 11 0 000 16l87 87a11 11 0 0016 0l25-25a11 11 0 0117 0l25 25a11 11 0 0016 0l88-87a11 11 0 000-16l-26-26a11 11 0 010-16l26-25a11 11 0 000-16z" class="cls-2"/><path d="M393 370l-88-87a11 11 0 00-16 0l-25 26a11 11 0 01-17 0l-25-26a11 11 0 00-16 0l-87 87a11 11 0 000 16l25 26a11 11 0 010 16l-25 26a11 11 0 000 16l87 87a11 11 0 0016 0l26-26a11 11 0 0116 0l25 26a11 11 0 0016 0l88-87a11 11 0 000-16l-26-26a11 11 0 010-16l26-26a11 11 0 000-16z" class="cls-3"/><circle cx="256" cy="425" r="36" class="cls-4"/><circle cx="256" cy="427" r="16" class="cls-5"/><circle cx="256" cy="424" r="16" class="cls-6"/></svg>