<svg xmlns="http://www.w3.org/2000/svg" id="Layer_1" viewBox="0 0 850 850"><defs/><defs><style>.cls-2,.cls-5{fill:#3f2a37}.cls-2{opacity:.56}.cls-3,.cls-4,.cls-6{fill:#ea456b;stroke-width:4px;stroke:#231f20;stroke-miterlimit:10}.cls-4,.cls-6{fill:#e23261;stroke-width:3px}.cls-6{fill:#e11c4f}</style></defs><path fill="#e581b4" d="M0 0h850v850H0z"/><path d="M374 328c-31-18-82 11-120 65-38-54-89-83-120-65-34 20-31 90 8 157 32 55 78 91 112 91s80-35 112-91c38-67 42-137 8-157z" class="cls-2"/><path d="M374 312c-31-18-82 11-120 66-38-55-89-84-120-66-34 20-31 91 8 157 32 56 78 91 112 91s80-35 112-91c38-66 42-137 8-157z" class="cls-3"/><circle cx="254" cy="474" r="37" class="cls-4"/><circle cx="254" cy="476" r="17" class="cls-5"/><circle cx="254" cy="472" r="17" class="cls-6"/><path d="M729 320c-31-18-82 11-120 66-38-55-89-84-119-66-35 20-31 90 7 157 32 56 78 91 112 91 35 0 80-35 112-91 39-67 42-137 8-157z" class="cls-2"/><path d="M729 304c-31-18-82 11-120 66-38-55-89-84-119-66-35 20-31 91 7 157 32 56 78 91 112 91 35 0 80-35 112-91 39-66 42-137 8-157z" class="cls-3"/><circle cx="609" cy="466" r="37" class="cls-4"/><circle cx="609" cy="468" r="17" class="cls-5"/><circle cx="609" cy="464" r="17" class="cls-6"/></svg>