<svg xmlns="http://www.w3.org/2000/svg" id="Layer_1" viewBox="0 0 850 850"><defs/><defs><style>.cls-2,.cls-5{fill:#3f2a37}.cls-2{opacity:.56}.cls-3,.cls-4,.cls-6{fill:#e783b5;stroke:#000;stroke-width:4px;stroke-miterlimit:10}.cls-4,.cls-6{fill:#e681b4;stroke:#231f20;stroke-width:3px}.cls-6{fill:#e661a4}</style></defs><path fill="#ea9bc3" d="M0 0h850v850H0z"/><path d="M399 375l-46-143a14 14 0 00-13-9H190a14 14 0 00-13 9l-47 143a14 14 0 005 15l40 30a14 14 0 010 22l-40 29a14 14 0 00-5 15l46 143a14 14 0 0013 10h150a14 14 0 0013-10l47-143a14 14 0 00-5-15l-40-29a14 14 0 010-22l40-30a14 14 0 005-15z" class="cls-2"/><path d="M399 364l-46-143a14 14 0 00-13-9H190a14 14 0 00-13 9l-47 143a14 14 0 005 15l40 29a14 14 0 010 22l-40 30a14 14 0 00-5 15l46 143a14 14 0 0013 9h150a14 14 0 0013-9l47-143a14 14 0 00-5-15l-40-29a14 14 0 010-22l40-30a14 14 0 005-15z" class="cls-3"/><circle cx="264" cy="542" r="41" class="cls-4"/><circle cx="264" cy="544" r="19" class="cls-5"/><circle cx="264" cy="540" r="19" class="cls-6"/><path d="M721 375l-47-143a14 14 0 00-13-9H511a14 14 0 00-13 9l-46 143a14 14 0 005 15l40 30a14 14 0 010 22l-41 29a14 14 0 00-5 15l47 143a14 14 0 0012 10h151a14 14 0 0013-10l46-143a14 14 0 00-5-15l-40-29a14 14 0 010-22l41-30a14 14 0 005-15z" class="cls-2"/><path d="M721 364l-47-143a14 14 0 00-13-9H511a14 14 0 00-13 9l-46 143a14 14 0 005 15l40 29a14 14 0 010 22l-41 30a14 14 0 00-5 15l47 143a14 14 0 0012 9h151a14 14 0 0013-9l46-143a14 14 0 00-5-15l-40-29a14 14 0 010-22l41-30a14 14 0 005-15z" class="cls-3"/><circle cx="586" cy="542" r="41" class="cls-4"/><circle cx="586" cy="544" r="19" class="cls-5"/><circle cx="586" cy="540" r="19" class="cls-6"/></svg>