<svg xmlns="http://www.w3.org/2000/svg" viewBox="0 0 850.39 850.39"><defs/><path fill="#e9a4c9" d="M0 0h850.39v850.39H0z"/><path fill="#3f2a37" d="M392.55 380.71l-87.32-87.33a11.4 11.4 0 00-16.12 0l-25.52 25.52a11.41 11.41 0 01-16.13 0L222 293.38a11.41 11.41 0 00-16.13 0l-87.37 87.33a11.4 11.4 0 000 16.12l25.5 25.52a11.4 11.4 0 010 16.13L118.5 464a11.41 11.41 0 000 16.13l87.32 87.32a11.41 11.41 0 0016.13 0l25.51-25.52a11.41 11.41 0 0116.13 0l25.52 25.52a11.4 11.4 0 0016.12 0l87.32-87.32a11.4 11.4 0 000-16.13L367 438.48a11.41 11.41 0 010-16.13l25.51-25.52a11.38 11.38 0 00.04-16.12z" opacity=".44"/><path fill="#dc7cb2" stroke="#231f20" stroke-miterlimit="10" stroke-width="4" d="M392.55 370.28L305.23 283a11.38 11.38 0 00-16.12 0l-25.52 25.51a11.41 11.41 0 01-16.13 0L222 283a11.4 11.4 0 00-16.13 0l-87.37 87.28a11.41 11.41 0 000 16.13l25.5 25.51a11.4 11.4 0 010 16.13l-25.5 25.51a11.41 11.41 0 000 16.13L205.82 557a11.41 11.41 0 0016.18 0l25.51-25.51a11.4 11.4 0 0116.13 0L289.11 557a11.4 11.4 0 0016.12 0l87.32-87.32a11.4 11.4 0 000-16.13L367 428.05a11.41 11.41 0 010-16.13l25.51-25.51a11.4 11.4 0 00.04-16.13z"/><circle cx="255.53" cy="425.2" r="35.85" fill="#e681b4" stroke="#231f20" stroke-miterlimit="10" stroke-width="3"/><circle cx="255.53" cy="426.81" r="16.09" fill="#3f2a37"/><circle cx="255.53" cy="423.59" r="16.09" fill="#e661a4" stroke="#231f20" stroke-miterlimit="10" stroke-width="3"/><rect width="209.04" height="11.55" x="493.84" y="421.03" fill="#9e537f" stroke="#231f20" stroke-miterlimit="10" stroke-width="3" rx="3.78"/></svg>