<svg xmlns="http://www.w3.org/2000/svg" viewBox="0 0 850.4 850.4"><defs/><path fill="#f2c0d9" d="M0 0h849.9v849.5H0z"/><path fill="#3f2a37" d="M219 249.7h102.9c43.7 0 79.1 35.4 79.1 79.1v209.4c0 43.7-35.4 79.1-79.1 79.1H219c-43.7 0-79.1-35.4-79.1-79.1V328.8c0-43.7 35.4-79.1 79.1-79.1z" opacity=".44"/><path fill="#e19bc4" stroke="#231f20" stroke-miterlimit="10" stroke-width="4" d="M218.8 234.8h102.9c43.7 0 79.1 35.4 79.1 79.1v209.4c0 43.7-35.4 79.1-79.1 79.1H218.8c-43.7 0-79.1-35.4-79.1-79.1V313.9c0-43.7 35.4-79.1 79.1-79.1z"/><circle cx="271" cy="519.8" r="46.9" fill="#e681b4" stroke="#231f20" stroke-miterlimit="10" stroke-width="3"/><circle cx="271" cy="521.9" r="21" fill="#3f2a37"/><circle cx="271" cy="517.7" r="21" fill="#e661a4" stroke="#231f20" stroke-miterlimit="10" stroke-width="3"/><path fill="#9e537f" stroke="#231f20" stroke-miterlimit="10" stroke-width="3" d="M498.3 420.2h201.5c2.1 0 3.8 1.7 3.8 3.8v4c0 2.1-1.7 3.8-3.8 3.8H498.3a3.8 3.8 0 01-3.8-3.8v-4c0-2.1 1.7-3.8 3.8-3.8z"/></svg>