<svg xmlns="http://www.w3.org/2000/svg" viewBox="0 0 850 850"><defs/><path fill="#e661a4" d="M0 0h850v850H0z"/><path fill="#e58bba" stroke="#231f20" stroke-miterlimit="10" stroke-width="3" d="M340 555l-65-47a13 13 0 00-15 0l-64 47c-10 8-24-2-20-14l24-76a13 13 0 00-5-14l-64-47c-10-7-5-23 7-23l80-1a13 13 0 0012-8l25-77c3-11 20-11 24 0l25 76a13 13 0 0012 9h80c13 0 18 16 8 23l-65 47a13 13 0 00-4 15l25 75c4 12-10 22-20 15z"/><circle cx="271" cy="438" r="30" fill="#e681b4" stroke="#231f20" stroke-miterlimit="10" stroke-width="3"/><circle cx="271" cy="440" r="14" fill="#3f2a37"/><circle cx="271" cy="437" r="14" fill="#e661a4" stroke="#231f20" stroke-miterlimit="10" stroke-width="3"/><rect width="151" height="8" x="498" y="434" fill="#9e537f" stroke="#231f20" stroke-miterlimit="10" stroke-width="3" rx="4"/></svg>