<svg xmlns="http://www.w3.org/2000/svg" id="Layer_1" x="0" y="0" version="1.1" viewBox="0 0 850 850" xml:space="preserve"><defs/><style>.st1{opacity:.47;enable-background:new}.st1,.st2{fill:#9e537f}.st3,.st4{fill:#f9c3d5;stroke:#231f20;stroke-width:4;stroke-miterlimit:10}.st4{fill:#e4a5ca;stroke-width:3}.st5{opacity:.8;fill:#9e537f;enable-background:new}.st6{fill:#ed95bf;stroke:#231f20;stroke-width:3;stroke-miterlimit:10}</style><path fill="#f6aac4" d="M0 0h850v850H0z"/><path d="M133 299h248c17 0 17 21 8 36L276 554a23 23 0 01-40 0L128 333c-8-15-13-34 5-34z" class="st1"/><path d="M224 435h66a6 6 0 015 9l-33 58a6 6 0 01-10 0l-34-58a6 6 0 016-9z" class="st2"/><path d="M243 451h28a2 2 0 012 4l-14 24c-1 1-2 2-3 1l-1-1-14-24v-3l2-1z" class="st2"/><path d="M115 285h282a11 11 0 0110 17L266 546a11 11 0 01-20 0L106 302a11 11 0 019-17z" class="st3"/><path d="M224 429h65a6 6 0 015 9l-32 56a6 6 0 01-11 0l-32-56a6 6 0 015-9z" class="st4"/><path d="M247 454h19c4 0 5-3 3 1l-9 20c-2 4-5 3-7 0l-10-20c-1-3 0-1 4-1z" class="st5"/><path d="M243 445h27a2 2 0 012 3l-14 24c0 1-2 2-3 1l-1-1-14-24 1-3h2z" class="st6"/><path d="M471 299h248c17 0 16 21 8 36L614 554a23 23 0 01-40 0L466 333c-8-15-13-34 5-34z" class="st1"/><path d="M561 435h67a6 6 0 015 9l-33 58a6 6 0 01-11 0l-33-58a6 6 0 015-9z" class="st2"/><path d="M581 451h28a2 2 0 012 4l-14 24c-1 1-2 2-4 1v-1l-14-24v-3l2-1z" class="st2"/><path d="M453 285h282c6 0 12 5 12 11l-2 6-141 244a11 11 0 01-20 0L443 302c-3-5-1-12 4-16l6-1z" class="st3"/><path d="M562 429h65a6 6 0 015 9l-33 56a6 6 0 01-10 0l-33-56a6 6 0 016-9z" class="st4"/><path d="M585 454h19c3 0 5-3 3 1l-10 20c-2 4-4 3-6 0l-10-20c-2-3 0-1 4-1z" class="st5"/><path d="M580 445h28a2 2 0 012 3l-14 24c0 1-2 2-3 1l-1-1-14-24 1-3h1z" class="st6"/></svg>