<svg xmlns="http://www.w3.org/2000/svg" id="Layer_1" x="0" y="0" version="1.1" viewBox="0 0 850 850" xml:space="preserve"><defs/><style>.st1{opacity:.47;fill:#9e537f;enable-background:new}.st2,.st3{fill:#ed95bf;stroke:#231f20;stroke-width:4;stroke-miterlimit:10}.st3{fill:#e772ac;stroke-width:2}.st4{fill:#9e537f}.st5{fill:#e661a4;stroke:#231f20;stroke-width:2;stroke-miterlimit:10}</style><path fill="#f9c3d5" d="M0 0h850v850H0z"/><path d="M309 292H191c-12 0-23 6-29 16l-58 102c-6 11-6 23 0 33l58 102c6 10 17 16 29 16h117c12 0 23-6 29-16l59-102c5-10 5-22 0-33l-59-102c-6-10-17-16-28-16z" class="st1"/><path d="M307 287H192c-11 0-22 6-28 16l-57 100c-6 10-6 22 0 32l57 100c6 10 17 16 28 16h115c12 0 22-6 28-16l58-100c5-10 5-22 0-32l-58-100c-6-10-16-16-28-16z" class="st2"/><path d="M273 371h-47c-3 0-5 1-7 4l-23 40v8l23 41c2 2 4 3 7 3h47c3 0 6-1 7-3l23-41c2-3 2-6 0-8l-23-41c-1-2-4-3-7-3z" class="st3"/><path d="M261 396h-22c-3 0-6 1-7 3l-11 20v7l11 19c1 3 4 4 7 4h22c2 0 5-1 6-4l11-19c2-2 2-5 0-7l-11-20c-1-2-4-3-6-3z" class="st4"/><path d="M260 393h-21c-3 0-5 2-7 4l-10 18v8l11 18c1 3 3 4 6 4h21c3 0 5-1 7-4l10-18c2-2 2-5 0-8l-10-18c-2-2-4-4-7-4z" class="st5"/><path d="M660 292H542c-12 0-23 6-28 16l-59 102c-6 11-6 23 0 33l59 102c5 10 16 16 28 16h118c11 0 22-6 28-16l59-102c5-10 5-22 0-33l-59-102c-6-10-17-16-28-16z" class="st1"/><path d="M658 287H543c-11 0-22 6-28 16l-57 100c-6 10-6 22 0 32l57 100c6 10 17 16 28 16h115c12 0 22-6 28-16l58-100c5-10 5-22 0-32l-58-100c-5-10-16-16-28-16z" class="st2"/><path d="M624 371h-47c-2 0-5 1-6 4l-24 40v8l24 41c1 2 4 4 6 4h47c3 0 6-2 7-4l23-41c2-2 2-5 0-8l-23-40c-1-3-4-4-7-4z" class="st3"/><path d="M612 396h-22c-3 0-6 1-7 3l-11 20v7l11 19c2 3 4 4 7 4h22c2 0 5-1 6-4l11-19c2-2 2-5 0-7l-11-20c-1-2-3-3-6-3z" class="st4"/><path d="M611 393h-21c-3 0-5 2-6 4l-11 18v8l11 18c1 2 3 4 6 4h21c3 0 6-2 7-4l10-18c2-3 2-5 0-8l-10-18c-1-2-4-4-7-4z" class="st5"/></svg>