<svg xmlns="http://www.w3.org/2000/svg" id="Layer_1" x="0" y="0" version="1.1" viewBox="0 0 850 850" xml:space="preserve"><defs/><style>.st1{opacity:.47;fill:#9e537f;enable-background:new}.st2,.st3{fill:#f6aac4;stroke:#231f20;stroke-width:4;stroke-miterlimit:10}.st3{fill:#f294ba;stroke-width:3}.st4{fill:#9e537f}.st5{fill:#d96a94;stroke:#231f20;stroke-width:3;stroke-miterlimit:10}</style><path fill="#dc9db5" d="M0 0h850v850H0z"/><path d="M313 559l-29 11c-22 9-46 10-68 3l-30-9c-22-7-41-22-53-42l-17-26a99 99 0 01-14-66l4-31c3-23 15-44 32-60l23-21c17-15 39-24 62-25l31-2c24 0 46 7 65 21l24 19c19 14 32 35 36 57l7 31c5 22 2 46-9 67l-14 27a99 99 0 01-50 46z" class="st1"/><path d="M313 540l-29 12c-22 9-46 10-68 2l-30-9c-22-7-41-22-53-41l-17-27a99 99 0 01-14-66l4-31c3-23 15-44 32-60l23-21c17-15 39-24 62-25l31-1c24-1 46 6 65 20l24 19c19 15 32 35 36 58l7 30c5 23 2 46-9 67l-14 28a99 99 0 01-50 45z" class="st2"/><path d="M243 382l-18 6c-3 1-6 4-8 7l-9 16c-2 4-3 7-2 11l3 19 5 9 15 12c3 3 6 4 10 4h19c4 0 7-1 10-4l15-12c3-2 5-5 5-9l4-19c0-4 0-7-2-10l-10-17c-2-3-5-6-8-7l-18-6c-3-2-7-2-11 0z" class="st3"/><path d="M243 403l-6 2c-4 1-6 4-8 7l-4 6c-1 3-2 7-1 10l1 7c0 4 2 7 5 9l5 5c3 2 6 3 10 3h7c4 0 7-1 10-3l5-5c3-2 5-5 6-9l1-7c0-3 0-7-2-10l-4-6c-1-3-4-6-8-7l-6-2h-11z" class="st4"/><path d="M244 401l-7 3c-3 1-6 3-7 6l-4 6c-1 3-2 6-1 9l1 7c0 3 2 6 5 8l5 5c2 2 6 3 9 3h7l9-3 5-5c3-2 4-5 5-8l1-7c1-3 0-6-1-9l-4-6c-2-3-4-5-7-6l-7-3h-9z" class="st5"/><path d="M674 559l-29 11c-22 9-46 10-68 3l-30-9c-22-7-41-22-53-42l-17-26a99 99 0 01-14-66l4-31c3-23 14-44 32-60l23-21c17-15 39-24 62-25l31-2c23 0 46 7 65 21l24 19c19 14 31 35 36 57l7 31c5 22 2 46-9 67l-15 27a99 99 0 01-49 46z" class="st1"/><path d="M674 540l-29 12c-22 9-46 10-68 2l-30-9c-22-7-41-22-53-41l-17-27a99 99 0 01-14-66l4-31c3-23 14-44 32-60l23-21c17-15 39-24 62-25l31-1c23-1 46 6 65 20l24 19c19 15 31 35 36 58l7 30c5 23 2 46-9 67l-15 28a98 98 0 01-49 45z" class="st2"/><path d="M604 382l-18 6c-3 1-6 4-8 7l-10 16c-1 4-2 7-1 11l3 19c0 3 2 7 5 9l15 12c3 3 6 4 10 4h19c4 0 7-1 10-4l15-12c3-2 4-5 5-9l3-19c1-4 0-7-2-10l-9-17c-2-3-5-6-8-7l-18-6c-3-2-7-2-11 0z" class="st3"/><path d="M604 403l-6 2c-4 1-7 4-8 7l-4 6c-2 3-2 7-2 10l2 7c0 4 2 7 5 9l5 5c3 2 6 3 10 3h7c4 0 7-1 10-3l5-5c3-2 5-5 5-9l2-7c0-3 0-7-2-10l-4-6c-1-3-4-6-8-7l-6-2h-11z" class="st4"/><path d="M605 401l-7 3c-3 1-6 3-7 6l-4 6c-1 3-2 6-1 9l1 7c0 3 2 6 5 9l5 4c2 2 6 3 9 3h7l9-3 5-5c3-2 4-5 5-8l1-7c1-3 0-6-2-9l-3-6c-2-3-4-5-7-6l-7-3h-9z" class="st5"/></svg>