<svg xmlns="http://www.w3.org/2000/svg" id="Layer_1" x="0" y="0" version="1.1" viewBox="0 0 850 850" xml:space="preserve"><defs/><style>.st2{fill:#3f2a37}</style><path fill="#f27cad" d="M0 0h849v851H0z"/><path fill="#e99dc4" stroke="#231f20" stroke-miterlimit="10" stroke-width="4" d="M455 391l109-115c17-17 45-18 62-1l115 109c18 17 18 45 1 63L633 561a44 44 0 01-62 2L456 453a44 44 0 01-1-62z"/><circle cx="599" cy="425" r="38" fill="#e681b4" stroke="#231f20" stroke-miterlimit="10" stroke-width="3"/><circle cx="599" cy="427" r="17" class="st2"/><circle cx="599" cy="424" r="17" fill="#e661a4" stroke="#231f20" stroke-miterlimit="10" stroke-width="3"/><path fill="#9e537f" stroke="#231f20" stroke-miterlimit="10" stroke-width="3" d="M147 418h202c2 0 3 1 3 3v5c0 2-1 3-3 3H147c-2 0-4-1-4-3v-4c0-3 2-4 4-4z"/></svg>