<svg xmlns="http://www.w3.org/2000/svg" viewBox="0 0 850.4 850.4"><defs/><path fill="#e19bc4" d="M0 0h850.4v850.4H0z"/><path fill="#3f2a37" d="M520.4 555.8l-59.2-111.2a76.95 76.95 0 0114-91l62.7-61.5c30.3-29.7 79-29.3 108.7 1l60.8 61.9c24.2 24.7 29 62.5 11.6 92.4l-64.2 110.8c-30.2 52.2-106 50.8-134.4-2.4z" opacity=".56"/><path fill="#dd73ad" stroke="#231f20" stroke-miterlimit="10" stroke-width="4" d="M521.7 536.9l-59.2-111.2a76.95 76.95 0 0114-91l62.6-61.5c30.3-29.7 79-29.3 108.7 1l60.8 61.9c24.2 24.7 29 62.5 11.7 92.4l-64.2 110.8c-30.3 52.2-106.1 50.8-134.4-2.4z"/><circle cx="591.4" cy="525.8" r="42.8" fill="#e681b4" stroke="#231f20" stroke-miterlimit="10" stroke-width="3"/><circle cx="591.4" cy="527.8" r="19.2" fill="#3f2a37"/><circle cx="591.4" cy="523.9" r="19.2" fill="#e661a4" stroke="#231f20" stroke-miterlimit="10" stroke-width="3"/><path fill="#9e537f" stroke="#231f20" stroke-miterlimit="10" stroke-width="3" d="M166.3 420.9h201.5c2.1 0 3.8 1.7 3.8 3.8v4c0 2.1-1.7 3.8-3.8 3.8H166.3a3.8 3.8 0 01-3.8-3.8v-4c.1-2.1 1.7-3.8 3.8-3.8z"/></svg>