<svg xmlns="http://www.w3.org/2000/svg" id="Layer_1" x="0" y="0" version="1.1" viewBox="0 0 850.4 850.4" xml:space="preserve"><defs/><style>.st2{fill:#9e537f}</style><path fill="#f6aac4" d="M0 0h850.4v850.4H0z"/><path fill="#9e537f" d="M470.6 299.4h247.9c17.6 0 16.9 20.4 8.1 35.7l-112.8 219a22.98 22.98 0 01-31.3 8.4c-3.5-2-6.4-4.9-8.4-8.4l-108-221c-8.6-15.2-13.1-33.7 4.5-33.7z" opacity=".47"/><path d="M561.4 435.2h66.4a6.06 6.06 0 015.3 9.1l-33.2 57.5a6.06 6.06 0 01-10.5 0l-33.2-57.5a6.06 6.06 0 015.2-9.1z" class="st2"/><path d="M580.5 451.4h28.1a2.43 2.43 0 012.1 3.6l-14 24.3c-.7 1.2-2.2 1.6-3.3.9-.4-.2-.7-.5-.9-.9l-14-24.3c-.7-1.2-.3-2.6.9-3.3.4-.2.8-.3 1.1-.3z" class="st2"/><path fill="#f9c3d5" stroke="#231f20" stroke-miterlimit="10" stroke-width="4" d="M453.2 284.8H735c6.4 0 11.5 5.1 11.5 11.5 0 2-.5 4-1.5 5.8l-141 244a11.47 11.47 0 01-19.9 0l-140.9-244c-3.2-5.5-1.3-12.5 4.2-15.7 1.7-1 3.7-1.6 5.8-1.6z"/><path fill="#e4a5ca" stroke="#231f20" stroke-miterlimit="10" stroke-width="3" d="M561.6 428.7h64.9a6.06 6.06 0 015.3 9.1L599.3 494a6.06 6.06 0 01-10.5 0l-32.5-56.2a6.06 6.06 0 015.3-9.1z"/><path fill="#9e537f" d="M584.5 453.5h19.1c3.7 0 5.5-2.1 3.6 1.1l-9.8 20.5c-2.2 3.6-4.7 3.3-6.5.1l-9.6-20c-1.9-3.2-.6-1.7 3.2-1.7z" opacity=".8"/><path fill="#ed95bf" stroke="#231f20" stroke-miterlimit="10" stroke-width="3" d="M580.3 444.6h27.5a2.43 2.43 0 012.1 3.6L596.2 472c-.7 1.2-2.2 1.6-3.3.9-.4-.2-.7-.5-.9-.9l-13.7-23.8c-.7-1.2-.2-2.7.9-3.3.3-.2.7-.3 1.1-.3z"/><path fill="#9e537f" stroke="#231f20" stroke-miterlimit="10" stroke-width="3" d="M172.6 407.9H374c2.1 0 3.8 1.7 3.8 3.8v4c0 2.1-1.7 3.8-3.8 3.8H172.6a3.8 3.8 0 01-3.8-3.8v-4c0-2.1 1.7-3.8 3.8-3.8z"/></svg>