<svg xmlns="http://www.w3.org/2000/svg" id="Layer_1" x="0" y="0" version="1.1" viewBox="0 0 850 850" xml:space="preserve"><defs/><style>.st1{opacity:.47;fill:#3f2a37;enable-background:new}.st2,.st3{fill:#db80b4;stroke:#231f20;stroke-width:4;stroke-miterlimit:10}.st3{fill:#e681b4;stroke-width:3}.st4{fill:#3f2a37}.st5{fill:#e661a4;stroke:#231f20;stroke-width:3;stroke-miterlimit:10}</style><path fill="#edbfd9" d="M0 0h850v850H0z"/><path d="M255 652L151 549c-4-4-6-11-4-17l104-310c5-15 26-15 32 0l103 310c2 6 0 12-4 17L279 652c-7 7-18 7-24 0z" class="st1"/><path d="M255 635L151 532c-4-5-6-11-4-17l104-310c5-16 26-16 32 0l103 310c2 6 0 12-4 17L279 635c-7 7-18 7-24 0z" class="st2"/><circle cx="267" cy="565" r="35" class="st3"/><circle cx="267" cy="567" r="16" class="st4"/><circle cx="267" cy="564" r="16" class="st5"/><path d="M572 652L469 549c-5-4-6-11-4-17l103-310c5-15 27-15 32 0l103 310c2 6 1 12-4 17L596 652c-7 7-17 7-24 0z" class="st1"/><path d="M572 635L469 532c-5-5-6-11-4-17l103-310c5-16 27-16 32 0l103 310c2 6 0 12-4 17L596 635c-7 7-17 7-24 0z" class="st2"/><circle cx="584" cy="565" r="35" class="st3"/><circle cx="584" cy="567" r="16" class="st4"/><circle cx="584" cy="564" r="16" class="st5"/></svg>