<svg xmlns="http://www.w3.org/2000/svg" viewBox="0 0 850 850"><defs/><path fill="#f2c0d9" d="M0 0h850v850H0z"/><path fill="#e19bc4" stroke="#231f20" stroke-miterlimit="10" stroke-width="4" d="M219 235h103c43 0 79 35 79 79v209c0 44-36 79-79 79H219c-44 0-79-35-79-79V314c0-44 35-79 79-79z"/><circle cx="271" cy="520" r="47" fill="#e681b4" stroke="#231f20" stroke-miterlimit="10" stroke-width="3"/><circle cx="271" cy="522" r="21" fill="#3f2a37"/><circle cx="271" cy="518" r="21" fill="#e661a4" stroke="#231f20" stroke-miterlimit="10" stroke-width="3"/><path fill="#9e537f" stroke="#231f20" stroke-miterlimit="10" stroke-width="3" d="M498 420h202c2 0 4 2 4 4v4c0 2-2 4-4 4H498c-2 0-3-2-3-4v-4c0-2 1-4 3-4z"/></svg>