<svg xmlns="http://www.w3.org/2000/svg" viewBox="0 0 850 850"><defs/><path fill="#e9a4c9" d="M0 0h850v850H0z"/><path fill="#dc7cb2" stroke="#231f20" stroke-miterlimit="10" stroke-width="4" d="M393 370l-88-87a11 11 0 00-16 0l-25 26a11 11 0 01-17 0l-25-26a11 11 0 00-16 0l-87 87a11 11 0 000 16l25 26a11 11 0 010 16l-25 26a11 11 0 000 16l87 87a11 11 0 0016 0l26-26a11 11 0 0116 0l25 26a11 11 0 0016 0l88-87a11 11 0 000-16l-26-26a11 11 0 010-16l26-26a11 11 0 000-16z"/><circle cx="256" cy="425" r="36" fill="#e681b4" stroke="#231f20" stroke-miterlimit="10" stroke-width="3"/><circle cx="256" cy="427" r="16" fill="#3f2a37"/><circle cx="256" cy="424" r="16" fill="#e661a4" stroke="#231f20" stroke-miterlimit="10" stroke-width="3"/><rect width="209" height="12" x="494" y="421" fill="#9e537f" stroke="#231f20" stroke-miterlimit="10" stroke-width="3" rx="4"/></svg>