<svg xmlns="http://www.w3.org/2000/svg" id="Layer_1" x="0" y="0" version="1.1" viewBox="0 0 850 850" xml:space="preserve"><defs/><style>.st1{opacity:.44;fill:#3f2a37;enable-background:new}.st2,.st3{fill:#e19bc4;stroke:#231f20;stroke-width:4;stroke-miterlimit:10}.st3{fill:#e681b4;stroke-width:3}.st4{fill:#3f2a37}.st5{fill:#e661a4;stroke:#231f20;stroke-width:3;stroke-miterlimit:10}</style><path fill="#f2c0d9" d="M0 0h850v850H0z"/><path d="M218 250h103c43 0 79 35 79 79v209c0 44-36 79-79 79H218c-44 0-79-35-79-79V329c0-44 35-79 79-79z" class="st1"/><path d="M218 235h103c43 0 79 35 79 79v209c0 44-36 79-79 79H218c-44 0-79-35-79-79V314c0-44 35-79 79-79z" class="st2"/><circle cx="270" cy="520" r="47" class="st3"/><circle cx="270" cy="522" r="21" class="st4"/><circle cx="270" cy="518" r="21" class="st5"/><path d="M528 250h102c44 0 79 35 79 79v209c1 44-35 79-79 79H528c-44 0-80-35-80-79V329c1-44 36-79 80-79z" class="st1"/><path d="M527 235h103c44 0 79 35 79 79v209c0 44-35 79-79 79H527c-43 0-79-35-79-79V314c0-44 36-79 79-79z" class="st2"/><circle cx="580" cy="520" r="47" class="st3"/><circle cx="580" cy="522" r="21" class="st4"/><circle cx="580" cy="518" r="21" class="st5"/></svg>