<svg xmlns="http://www.w3.org/2000/svg" viewBox="0 0 850.4 850.4"><defs/><path fill="#ea9bc3" d="M0 0h850.4v850.4H0z"/><path fill="#3f2a37" d="M719.4 375.3L673 232.4c-1.8-5.6-7-9.4-12.9-9.4H509.8c-5.9 0-11 3.8-12.8 9.4l-46.5 143c-1.8 5.6.2 11.7 4.9 15.1l40.2 29.2a13.56 13.56 0 010 21.9l-40.8 29.6c-4.7 3.4-6.7 9.6-4.9 15.1l46.5 142.9c1.8 5.6 7 9.4 12.9 9.3h150.3c5.9 0 11.1-3.8 12.9-9.3l46.4-142.9c1.8-5.6-.2-11.7-4.9-15.1L673.8 442a13.56 13.56 0 010-21.9l40.8-29.6c4.7-3.5 6.7-9.6 4.8-15.2z" opacity=".56"/><path fill="#e783b5" stroke="#000" stroke-miterlimit="10" stroke-width="4" d="M719.4 364.1L673 221.2c-1.8-5.6-7-9.4-12.9-9.4H509.8c-5.8 0-11 3.8-12.8 9.4l-46.5 142.9c-1.8 5.6.2 11.7 4.9 15.1l40.2 29.2a13.56 13.56 0 010 21.9l-40.8 29.6c-4.7 3.4-6.7 9.6-4.9 15.1l46.5 143c1.8 5.6 7 9.4 12.9 9.3h150.3c5.9 0 11.1-3.8 12.9-9.3l46.4-142.9c1.8-5.6-.2-11.7-4.9-15.1l-40.2-29.2a13.56 13.56 0 010-21.9l40.8-29.6c4.7-3.5 6.7-9.6 4.8-15.2z"/><circle cx="584.7" cy="542.3" r="41.4" fill="#e681b4" stroke="#231f20" stroke-miterlimit="10" stroke-width="3"/><circle cx="584.7" cy="544.1" r="18.6" fill="#3f2a37"/><circle cx="584.7" cy="540.4" r="18.6" fill="#e661a4" stroke="#231f20" stroke-miterlimit="10" stroke-width="3"/><path fill="#9e537f" stroke="#231f20" stroke-miterlimit="10" stroke-width="3" d="M136.5 434.7H338c2.1 0 3.8 1.7 3.8 3.8v4c0 2.1-1.7 3.8-3.8 3.8H136.5a3.8 3.8 0 01-3.8-3.8v-4c0-2.1 1.7-3.8 3.8-3.8z"/></svg>