<svg xmlns="http://www.w3.org/2000/svg" id="Layer_1" x="0" y="0" version="1.1" viewBox="0 0 850 850" xml:space="preserve"><defs/><style>.st1{opacity:.47;fill:#3f2a37;enable-background:new}.st2,.st3{fill:#f6aac4;stroke:#231f20;stroke-width:4;stroke-miterlimit:10}.st3{fill:#e681b4;stroke-width:3}.st4{fill:#3f2a37}.st5{fill:#e661a4;stroke:#231f20;stroke-width:3;stroke-miterlimit:10}</style><path fill="#ec79a9" d="M0 0h850v850H0z"/><path d="M303 561c-15-10-35-6-45 10l-2 3a33 33 0 01-62-8 33 33 0 00-42-25 33 33 0 01-38-49c10-15 5-36-10-45l-3-2a33 33 0 018-62 33 33 0 0025-42 33 33 0 0149-38 33 33 0 0047-13c14-28 55-22 62 8a33 33 0 0042 24c30-9 55 23 38 50-10 15-5 35 10 45l3 2c27 14 22 55-8 61a33 33 0 00-24 43c9 29-24 55-50 38z" class="st1"/><path d="M303 546c-15-9-35-5-45 10l-2 3a33 33 0 01-62-8 33 33 0 00-42-24 33 33 0 01-38-49c10-16 6-36-10-46l-3-1a33 33 0 018-62 33 33 0 0025-43 33 33 0 0149-38 33 33 0 0047-12c14-28 55-23 62 8a33 33 0 0042 24c30-10 55 23 38 49-10 15-5 36 10 46l3 1c28 14 22 55-8 62a33 33 0 00-24 42c9 30-24 55-50 38z" class="st2"/><circle cx="243" cy="418" r="52" class="st3"/><circle cx="243" cy="420" r="23" class="st4"/><circle cx="243" cy="416" r="23" class="st5" transform="matrix(.07089 -.9975 .9975 .07089 -189.236 628.318)"/><path d="M668 561c-16-10-36-6-46 10l-1 3a33 33 0 01-62-8 33 33 0 00-43-25 33 33 0 01-38-49c10-15 6-36-10-45l-2-2a33 33 0 017-62 33 33 0 0025-42 33 33 0 0149-38c15 10 36 5 46-10l1-3c14-28 55-22 62 8a33 33 0 0042 24c30-9 55 23 38 49-9 16-5 36 10 46l3 2c28 14 23 55-8 61a33 33 0 00-24 43c9 29-23 55-49 38z" class="st1"/><path d="M668 546c-16-9-36-5-46 10l-1 3a33 33 0 01-62-8 33 33 0 00-42-24 33 33 0 01-38-49c9-16 5-36-10-46l-3-1a33 33 0 018-62 33 33 0 0024-43 33 33 0 0149-38c15 10 36 6 46-10l1-2c14-28 55-23 62 8a33 33 0 0042 24c30-10 55 23 38 49-9 15-5 36 10 46l3 1c28 14 23 55-8 62a33 33 0 00-24 42c9 30-23 55-49 38z" class="st2"/><circle cx="607" cy="420" r="52" class="st3"/><circle cx="607" cy="423" r="23" class="st4"/><circle cx="607" cy="418" r="23" class="st5"/></svg>