<svg xmlns="http://www.w3.org/2000/svg" id="Layer_1" x="0" y="0" version="1.1" viewBox="0 0 850.4 850.4" xml:space="preserve"><defs/><style>.st1{opacity:.47;fill:#3f2a37;enable-background:new}.st2,.st3{fill:#f6aac4;stroke:#231f20;stroke-width:4;stroke-miterlimit:10}.st3{fill:#e681b4;stroke-width:3}.st4{fill:#3f2a37}.st5{fill:#e661a4;stroke:#231f20;stroke-width:3;stroke-miterlimit:10}</style><path fill="#ec79a9" d="M0 0h850.4v850.4H0z"/><path d="M303.3 560.8a33 33 0 00-45.6 10c-.6.9-1.1 1.9-1.6 2.8-14 27.7-55 22.4-61.6-7.9a33.02 33.02 0 00-39.3-25.2c-1.1.2-2.1.5-3.2.9-29.5 9.6-54.7-23.1-37.9-49.2a33 33 0 00-10-45.6c-.9-.6-1.9-1.1-2.8-1.6-27.7-14-22.4-55 7.9-61.6a33.02 33.02 0 0025.2-39.3c-.2-1.1-.5-2.1-.9-3.2-9.6-29.5 23.1-54.7 49.2-38a33 33 0 0045.6-9.9c.6-.9 1.2-1.9 1.7-2.9 14-27.7 55-22.4 61.6 7.9a33.02 33.02 0 0039.3 25.2c1-.2 2.1-.5 3.1-.8 29.5-9.6 54.7 23.1 38 49.2a33 33 0 0010 45.6c.9.6 1.9 1.1 2.8 1.6 27.6 14 22.4 55-7.9 61.6a33.02 33.02 0 00-25.2 39.3c.2 1.1.5 2.1.9 3.2 9.5 29.4-23.2 54.6-49.3 37.9z" class="st1"/><path d="M303.3 546.4a33 33 0 00-45.6 10c-.6.9-1.1 1.9-1.6 2.8-14 27.7-55 22.4-61.6-7.9a33.02 33.02 0 00-39.3-25.2c-1.1.2-2.1.5-3.1.9-29.5 9.6-54.7-23.1-37.9-49.2a33 33 0 00-10-45.6c-.9-.6-1.9-1.1-2.8-1.6-27.7-14-22.4-55 7.9-61.6a33.02 33.02 0 0025.2-39.3c-.2-1.1-.5-2.1-.9-3.2-9.6-29.5 23.1-54.7 49.2-38a33 33 0 0045.6-9.9c.6-.9 1.2-1.9 1.7-2.9 14-27.6 55-22.4 61.6 7.9a33.02 33.02 0 0039.3 25.2c1-.2 2.1-.5 3.1-.8 29.5-9.6 54.7 23.1 38 49.2a33 33 0 0010 45.6c.9.6 1.9 1.1 2.8 1.6 27.6 14 22.4 55-7.9 61.6a33.02 33.02 0 00-25.2 39.3c.2 1.1.5 2.1.9 3.2 9.4 29.5-23.3 54.7-49.4 37.9z" class="st2"/><circle cx="242.7" cy="418.1" r="52.1" class="st3"/><circle cx="242.7" cy="420.4" r="23.4" class="st4"/><circle cx="242.7" cy="415.7" r="23.4" class="st5" transform="matrix(.07089 -.9975 .9975 .07089 -189.236 628.318)"/><path d="M667.7 560.8a33 33 0 00-45.6 10c-.6.9-1.1 1.9-1.6 2.8-14 27.7-55 22.4-61.6-7.9a33.02 33.02 0 00-39.3-25.2c-1.1.2-2.1.5-3.2.9-29.5 9.6-54.7-23.1-38-49.2a33 33 0 00-10-45.6c-.9-.6-1.9-1.1-2.8-1.6-27.6-14-22.4-55 7.9-61.6a33.02 33.02 0 0025.2-39.3c-.2-1.1-.5-2.1-.9-3.2-9.6-29.5 23.1-54.7 49.2-38a33 33 0 0045.6-10c.6-.9 1.1-1.9 1.6-2.8 14-27.7 55-22.4 61.6 7.9a33.02 33.02 0 0039.3 25.2c1.1-.2 2.1-.5 3.2-.9 29.5-9.6 54.7 23.1 38 49.2a33 33 0 0010 45.6c.9.6 1.9 1.1 2.8 1.6 27.7 14 22.4 55-7.9 61.6a33.02 33.02 0 00-25.2 39.3c.2 1.1.5 2.1.9 3.2 9.5 29.5-23.2 54.7-49.2 38z" class="st1"/><path d="M667.7 546.4a33 33 0 00-45.6 10c-.6.9-1.1 1.9-1.6 2.8-14 27.7-55 22.4-61.6-7.9a33.02 33.02 0 00-39.3-25.2c-1.1.2-2.1.5-3.1.9-29.5 9.6-54.7-23.1-38-49.2a33 33 0 00-10-45.6c-.9-.6-1.9-1.1-2.8-1.6-27.6-14-22.4-55 7.9-61.6a33.02 33.02 0 0025.2-39.3c-.2-1.1-.5-2.1-.9-3.2-9.6-29.5 23.1-54.7 49.2-38a33 33 0 0045.6-10c.6-.9 1.1-1.9 1.6-2.8 14-27.6 55-22.4 61.6 7.9a33.02 33.02 0 0039.3 25.2c1.1-.2 2.1-.5 3.2-.9 29.5-9.6 54.7 23.1 38 49.2a33 33 0 0010 45.6c.9.6 1.9 1.1 2.8 1.6 27.7 14 22.4 55-7.9 61.6a33.02 33.02 0 00-25.2 39.3c.2 1.1.5 2.1.9 3.2 9.4 29.6-23.3 54.8-49.3 38z" class="st2"/><circle cx="607.4" cy="420.1" r="52.1" class="st3"/><circle cx="607.4" cy="422.5" r="23.4" class="st4"/><circle cx="607.4" cy="417.8" r="23.4" class="st5"/></svg>