<svg xmlns="http://www.w3.org/2000/svg" id="Layer_1" x="0" y="0" version="1.1" viewBox="0 0 850 850" xml:space="preserve"><defs/><style>.st1{opacity:.47;fill:#3f2a37;enable-background:new}.st2,.st3{fill:#db65a6;stroke:#231f20;stroke-width:4;stroke-miterlimit:10}.st3{fill:#e681b4;stroke-width:3}.st4{opacity:.62;fill:#3f2a37;enable-background:new}.st5{fill:#e661a4;stroke:#231f20;stroke-width:3;stroke-miterlimit:10}</style><path fill="#f38bb9" d="M0 0h851v851H0z"/><path d="M388 430l-88 79a51 51 0 01-65 1l-98-78a51 51 0 0131-90l186-1c47 0 69 58 34 89z" class="st1"/><path d="M388 421l-88 79a51 51 0 01-65 1l-98-78a51 51 0 0131-90l186-1c47 0 69 58 34 89z" class="st2"/><circle cx="268" cy="456" r="26" class="st3"/><circle cx="268" cy="458" r="12" class="st4"/><circle cx="268" cy="455" r="12" class="st5"/><path d="M715 427l-88 79a51 51 0 01-66 1l-97-78a51 51 0 0131-90l186-1c47 0 69 58 34 89z" class="st1"/><path d="M715 418l-88 79a51 51 0 01-66 1l-97-78a51 51 0 0131-90l186-1c47 0 69 58 34 89z" class="st2"/><circle cx="594" cy="453" r="26" class="st3"/><circle cx="594" cy="455" r="12" class="st4"/><circle cx="594" cy="451" r="12" class="st5"/></svg>