<svg xmlns="http://www.w3.org/2000/svg" id="Layer_1" x="0" y="0" version="1.1" viewBox="0 0 850.4 850.4" xml:space="preserve"><defs/><style>.st1{fill:#9e537f}.st2,.st3,.st4{fill:#f175a8;stroke:#231f20;stroke-width:4;stroke-miterlimit:10}.st3,.st4{fill:#e1659e;stroke-width:3}.st4{fill:#ee4f9c}</style><path fill="#e686b7" d="M0 0h850v850.3H0z"/><path d="M390.1 322s-70.8 189.3-255.6 210.9c.1-.1 30.9-183.2 255.6-210.9z" class="st1"/><path d="M392.3 317s-69.3 180.1-254 201.7c0 0 29.2-174 254-201.7z" class="st2"/><circle cx="169.8" cy="489.5" r="16.8" class="st3"/><circle cx="169.8" cy="492.9" r="9.6" class="st1"/><circle cx="168.3" cy="490.7" r="9.6" class="st4"/><path d="M459.5 322s70.8 189.3 255.6 210.9c0-.1-30.8-183.2-255.6-210.9z" class="st1"/><path d="M457.4 317s69.3 180.1 254 201.7c0 0-29.2-174-254-201.7z" class="st2"/><circle cx="679.9" cy="489.5" r="16.8" class="st3"/><circle cx="679.9" cy="492.9" r="9.6" class="st1"/><circle cx="681.3" cy="490.7" r="9.6" class="st4"/></svg>