<svg xmlns="http://www.w3.org/2000/svg" id="Layer_1" viewBox="0 0 850.39 850.39"><defs/><defs><style>.cls-2,.cls-5{fill:#3f2a37}.cls-2{opacity:.56}.cls-3,.cls-4,.cls-6{fill:#e783b5;stroke:#000;stroke-width:4px;stroke-miterlimit:10}.cls-4,.cls-6{fill:#e681b4;stroke:#231f20;stroke-width:3px}.cls-6{fill:#e661a4}</style></defs><path fill="#ea9bc3" d="M0 0h850.39v850.39H0z"/><path d="M399.25 375.34L352.8 232.39a13.54 13.54 0 00-12.87-9.39h-150.3a13.54 13.54 0 00-12.87 9.35l-46.44 143a13.52 13.52 0 004.91 15.12l40.17 29.19a13.52 13.52 0 010 21.89l-40.76 29.61a13.54 13.54 0 00-4.91 15.13l46.44 142.94a13.54 13.54 0 0012.83 9.34h150.3a13.52 13.52 0 0012.87-9.35l46.45-142.94a13.55 13.55 0 00-4.92-15.13L353.57 442a13.54 13.54 0 010-21.9l40.76-29.61a13.53 13.53 0 004.92-15.15z" class="cls-2"/><path d="M399.25 364.11L352.8 221.17a13.53 13.53 0 00-12.87-9.35h-150.3a13.53 13.53 0 00-12.87 9.35l-46.44 142.94a13.53 13.53 0 004.91 15.13l40.17 29.18a13.53 13.53 0 010 21.9l-40.76 29.61a13.53 13.53 0 00-4.91 15.13L176.17 618a13.54 13.54 0 0012.83 9.35h150.3a13.52 13.52 0 0012.91-9.35l46.45-142.94a13.54 13.54 0 00-4.92-15.13l-40.17-29.18a13.54 13.54 0 010-21.9l40.76-29.61a13.54 13.54 0 004.92-15.13z" class="cls-3"/><circle cx="264.49" cy="542.28" r="41.42" class="cls-4"/><circle cx="264.49" cy="544.14" r="18.59" class="cls-5"/><circle cx="264.49" cy="540.42" r="18.59" class="cls-6"/><path d="M720.66 375.34l-46.44-142.95a13.54 13.54 0 00-12.87-9.39h-150.3a13.54 13.54 0 00-12.87 9.35l-46.44 143a13.51 13.51 0 004.91 15.12l40.17 29.19a13.52 13.52 0 010 21.89l-40.76 29.61a13.54 13.54 0 00-4.91 15.13l46.44 142.94a13.54 13.54 0 0012.87 9.35h150.3a13.53 13.53 0 0012.87-9.35l46.45-142.94a13.55 13.55 0 00-4.92-15.13L675 442a13.54 13.54 0 010-21.9l40.76-29.61a13.51 13.51 0 004.9-15.15z" class="cls-2"/><path d="M720.66 364.11l-46.44-142.94a13.53 13.53 0 00-12.87-9.35h-150.3a13.53 13.53 0 00-12.87 9.35l-46.44 142.94a13.52 13.52 0 004.91 15.13l40.17 29.18a13.53 13.53 0 010 21.9l-40.76 29.61a13.53 13.53 0 00-4.91 15.13L497.59 618a13.54 13.54 0 0012.87 9.35h150.3a13.53 13.53 0 0012.87-9.35l46.45-142.94a13.54 13.54 0 00-4.92-15.13L675 430.75a13.54 13.54 0 010-21.9l40.76-29.61a13.52 13.52 0 004.9-15.13z" class="cls-3"/><circle cx="585.91" cy="542.28" r="41.42" class="cls-4"/><circle cx="585.91" cy="544.14" r="18.59" class="cls-5"/><circle cx="585.91" cy="540.42" r="18.59" class="cls-6"/></svg>