<svg xmlns="http://www.w3.org/2000/svg" id="Layer_1" x="0" y="0" version="1.1" viewBox="0 0 850 850" xml:space="preserve"><defs/><style>.st1{opacity:.3;fill:#3f2a37;enable-background:new}.st2,.st3{fill:#e57fb3;stroke:#231f20;stroke-width:4;stroke-miterlimit:10}.st3{fill:#e06ba9;stroke-width:3}.st4{fill:#3f2a37}.st5{fill:#e661a4;stroke:#231f20;stroke-width:3;stroke-miterlimit:10}</style><path fill="#f19ec0" d="M0 0h851v851H0z"/><path d="M222 575l3-30c0-2-2-4-5-5-2 0-3 1-4 3l-14 26c-3 5-10 2-9-3l8-29c1-2 0-5-3-6-1 0-3 0-4 2l-20 22c-3 5-10 0-7-5l14-26c1-2 0-5-2-6h-5l-24 19c-4 3-10-3-6-7l19-23c2-2 2-5 0-7h-5l-27 13c-5 2-10-5-5-8l23-18c2-2 3-5 1-7l-5-2-29 8c-5 1-8-7-3-9l27-13c2-1 3-4 2-6 0-2-2-3-4-3l-30 1c-5 0-7-8-1-9l29-7c2-1 4-3 3-6 0-2-2-3-3-3l-30-5c-5-1-5-9 1-10l30-1a5 5 0 001-9l-27-11c-6-2-3-10 2-9l30 6c2 0 4-2 5-4 0-2 0-4-2-5l-25-16c-4-4-1-11 5-9l27 12c3 1 5-1 6-3s1-4-1-5l-20-21c-4-4 1-10 6-7l24 16c2 2 5 1 7-1v-5l-16-25c-3-5 3-10 7-6l21 22c2 2 5 2 7 0l1-5-10-28c-2-6 5-9 8-4l16 25c1 2 4 3 6 2s2-3 2-5l-4-30c-1-5 7-7 9-2l10 28c1 3 4 4 6 3s3-2 3-4l2-30c1-5 9-6 9 0l4 30c1 2 3 4 6 4l4-4 8-28c1-6 9-4 9 1l-2 30c-1 3 1 5 4 5l4-2 14-27c3-5 10-2 9 4l-8 28c-1 3 0 5 3 6 2 1 3 0 5-1l19-23c3-4 10 0 8 5l-15 26c-1 3 0 5 2 7 2 1 4 0 5-1l24-18c4-4 10 2 6 6l-19 23c-2 2-1 5 1 7h5l27-13c5-2 9 5 4 8l-23 18c-2 2-2 5-1 7l5 2 29-8c5-1 8 7 3 9l-27 13c-2 1-3 4-2 6l4 3 30-1c6 0 7 8 2 9l-29 7c-3 1-4 3-4 6 1 2 2 3 4 3l29 6c6 1 5 9 0 9l-30 1c-3 0-5 2-5 4s1 4 3 5l28 11c5 2 3 10-3 9l-29-6c-3 0-5 2-6 4l2 5 25 16c5 4 1 11-4 9l-28-12a5 5 0 00-5 8l21 21c4 5-2 11-6 8l-25-17a5 5 0 00-7 6l16 26c3 4-3 9-7 5l-21-21c-2-2-5-2-6 0-2 1-2 3-2 5l11 28c2 5-6 8-9 4l-15-26c-2-2-5-3-7-1l-2 4 4 30c1 6-7 8-9 2l-10-28c-1-2-3-4-6-3-1 1-3 2-3 4l-2 30c0 6-8 6-9 0l-4-29c0-3-3-5-5-4-2 0-4 1-4 3l-8 29c-2 5-10 4-10-2z" class="st1"/><path d="M222 562l3-30c0-2-2-4-5-5-2 0-3 1-4 3l-14 26c-3 5-10 2-9-3l8-29c1-2 0-5-3-6-1 0-3 0-4 2l-20 22c-3 5-10 0-7-5l14-26c1-2 0-5-2-6h-5l-24 19c-4 3-10-3-6-7l19-23c2-2 2-5 0-7h-5l-27 13c-5 2-10-4-5-8l23-18c2-2 3-5 1-7-1-1-3-2-5-1l-29 7c-5 1-8-7-3-9l27-13c3-1 4-4 2-6 0-2-2-3-4-3l-30 1c-5 0-6-8-1-9l29-7c2-1 4-3 3-6l-3-3-30-5c-5-1-5-9 1-10l30-1c2 0 4-2 4-4s-1-4-3-5l-27-11c-6-2-3-10 2-9l30 6c2 0 4-2 5-4 0-2 0-4-2-5l-25-16c-4-4-1-11 5-9l27 12c3 1 5-1 6-3s1-4-1-5l-20-21c-4-4 1-11 6-7l24 16c3 2 5 1 7-1v-5l-16-25c-3-5 3-10 7-6l21 22c2 2 5 2 7 0l1-5-10-28c-2-5 5-9 8-4l16 25c1 2 4 3 6 2s2-3 2-5l-4-29c-1-6 7-8 9-3l10 28c1 3 4 4 6 3 2 0 3-2 3-4l2-30c1-5 9-5 9 0l4 30c1 2 3 4 6 4l4-4 8-28c1-6 9-4 9 1l-2 30c0 3 1 5 4 5l4-2 14-27c3-4 11-1 9 4l-8 29c-1 2 1 5 3 5 2 1 4 0 5-1l19-23c4-4 10 0 8 5l-14 27c-2 2-1 5 1 6s4 1 6-1l23-18c4-3 10 2 6 7l-19 22c-1 2-1 5 1 7l5 1 27-13c5-3 9 4 5 7l-24 19c-2 1-2 4-1 6s3 2 5 2l29-8c5-1 8 7 3 9l-27 13c-2 1-3 4-2 6l4 3 30-1c6 0 7 8 2 9l-29 7c-3 1-4 3-4 6 1 2 2 3 4 3l29 6c6 1 5 9 0 9l-30 1c-3 0-5 2-5 5l3 4 28 11c5 2 3 10-3 9l-29-5c-3-1-5 1-6 3l2 5 25 17c5 3 1 10-4 8l-28-11a5 5 0 00-5 7l21 22c4 4-2 10-6 7l-25-17a5 5 0 00-6 6l15 26c3 5-3 9-7 5l-21-21c-1-2-4-2-6 0-2 1-2 3-1 5l10 28c2 5-6 9-8 4l-16-26c-1-2-4-3-7-1l-2 4 4 30c1 6-7 8-9 2l-10-28c-1-2-3-3-6-3l-3 4-2 30c0 6-8 6-9 1l-4-30c0-3-3-4-5-4s-4 2-4 3l-8 29c-2 5-10 4-10-2z" class="st2"/><circle cx="253" cy="425" r="32" class="st3"/><circle cx="253" cy="426" r="14" class="st4"/><circle cx="253" cy="423" r="14" class="st5"/><path d="M566 575l2-30c0-2-2-4-4-5-2 0-4 1-5 3l-14 26c-2 5-10 2-8-3l8-29c1-2-1-5-3-6-2 0-4 0-5 2l-19 22c-4 5-11 0-8-5l14-26c1-2 1-5-2-6h-5l-23 19c-5 3-10-3-7-7l19-23c2-2 2-5 0-7h-5l-27 13c-5 2-9-5-5-8l24-18c2-2 2-5 1-7l-5-2-29 8c-6 1-9-7-3-9l26-13c3-1 4-4 3-6s-3-3-5-3l-30 1c-5 0-6-8-1-9l29-7c3-1 4-3 4-6-1-2-2-3-4-3l-30-5c-5-1-4-9 1-10l30-1a5 5 0 002-9l-28-11c-5-2-3-10 3-9l29 6c3 0 5-1 5-4 1-2 0-4-2-5l-24-16c-5-3-1-11 4-8l28 11c2 1 5 0 6-3 1-1 0-3-1-5l-21-21c-4-4 1-10 6-7l25 16c2 2 5 1 6-1v-5l-15-25c-3-5 3-10 7-6l21 22c1 1 4 2 6 0 1-1 2-3 1-5l-10-28c-2-5 5-9 8-4l16 25c2 2 4 3 7 2l2-5-4-30c-1-5 7-7 9-2l10 28c1 3 3 4 6 3 1 0 3-2 3-4l2-30c0-5 8-5 9 0l4 30c0 2 3 4 5 4 2-1 4-2 4-4l8-28c2-6 10-4 10 1l-3 30c0 3 2 5 5 5l4-2 14-27c3-5 10-2 9 4l-9 28c0 3 1 5 4 6 1 1 3 0 4-1l20-23c3-4 10 0 7 5l-14 26c-1 2 0 5 2 6h5l24-18c4-4 10 2 6 6l-19 23c-2 2-2 5 0 7h5l27-13c5-2 9 5 5 8l-24 18c-2 2-2 5-1 7l5 2 29-8c6-1 9 7 4 9l-27 13c-3 1-4 4-3 6s3 3 5 3l30-1c5 0 6 8 1 9l-29 7c-3 1-4 3-3 6 0 2 1 3 3 3l30 6c5 1 5 9-1 9l-30 1c-2 0-4 2-4 4s1 4 3 5l27 11c5 2 3 10-2 9l-30-6c-2 0-5 2-5 4-1 2 0 4 2 5l24 17c5 3 1 10-4 8l-28-12a5 5 0 00-5 8l21 22c4 4-1 10-6 7l-25-17a5 5 0 00-6 6l16 26c3 4-4 9-8 5l-20-21c-2-2-5-2-7 0-1 1-2 3-1 5l10 28c2 5-5 8-8 4l-16-26c-1-2-4-3-6-1l-3 4 5 30c0 6-8 8-9 2l-10-28c-1-2-4-4-6-3s-3 2-3 4l-2 30c-1 6-9 6-10 0l-4-29c0-3-2-5-5-4-2 0-3 1-4 3l-8 29c-2 5-10 4-9-2z" class="st1"/><path d="M566 562l2-30c0-2-2-4-4-5-2 0-4 1-5 3l-14 26c-2 5-10 2-8-3l8-29c1-2-1-5-3-6-2 0-4 0-5 2l-19 22c-4 5-11 0-8-5l14-26c1-2 1-5-2-6h-5l-23 19c-5 3-10-3-7-7l19-23c2-2 2-5 0-7h-5l-27 13c-5 2-9-4-5-8l24-18c2-2 2-5 1-7-1-1-3-2-5-1l-29 7c-6 1-8-7-3-9l27-13c2-1 3-4 2-6s-3-3-5-3l-29 1c-6 0-7-8-2-9l29-7c3-1 4-3 4-6-1-1-2-3-4-3l-29-5c-6-1-5-9 0-10l30-1c3 0 5-2 5-4s-2-4-3-5l-28-10c-5-3-3-10 3-9l29 5c3 0 5-1 5-4 1-2 0-3-2-4l-24-17c-5-3-1-10 4-8l28 11c2 1 5 0 6-3 1-1 0-3-1-5l-21-21c-4-4 1-10 6-7l25 16c2 2 5 1 6-1v-5l-15-25c-3-5 3-10 7-6l21 22c1 1 4 2 6 0 1-1 2-3 1-5l-10-28c-2-5 5-9 8-4l16 25c1 2 4 3 6 2s3-3 3-5l-4-29c-1-6 7-8 9-3l10 28c1 3 3 4 6 3 1 0 3-2 3-4l2-30c0-5 8-5 9 0l4 30c0 2 3 4 5 4s4-2 4-4l8-28c2-6 10-4 9 1l-2 30c0 3 2 5 5 5l4-2 14-27c3-5 10-2 9 4l-9 29c0 2 1 5 3 5 2 1 4 0 5-1l19-23c4-4 11 0 8 5l-14 26c-1 3 0 5 2 7 1 1 3 0 5-1l24-18c4-4 10 2 6 6l-19 23c-2 2-2 5 0 7h5l27-13c5-2 9 5 5 8l-24 19c-2 1-2 4-1 6 2 2 4 2 5 2l29-7c6-2 9 6 4 8l-27 13c-3 1-4 4-3 6s3 3 5 3l30-1c5 0 6 8 1 9l-29 7c-3 1-4 3-3 6 0 2 1 3 3 3l30 6c5 1 5 9-1 9l-30 1c-2 0-4 2-4 5l3 4 27 11c5 2 3 10-2 9l-30-5c-2-1-5 1-5 3-1 2 0 4 2 5l24 17c5 3 1 10-4 8l-28-11a5 5 0 00-5 7l21 22c4 4-1 10-6 7l-24-17a5 5 0 00-7 6l16 26c3 5-4 9-8 5l-20-21c-2-2-5-2-7 0-1 1-2 3-1 5l10 28c2 5-5 9-8 4l-16-26c-1-2-4-3-6-1-2 1-3 3-2 4l4 30c1 6-7 8-9 2l-10-28c-1-2-4-3-6-3l-3 4-2 30c-1 6-9 6-10 1l-4-30c0-3-2-4-5-4-2 0-3 2-4 3l-8 29c-2 5-10 4-9-2z" class="st2"/><circle cx="596" cy="425" r="32" class="st3"/><circle cx="596" cy="426" r="14" class="st4"/><circle cx="596" cy="423" r="14" class="st5"/></svg>