<svg xmlns="http://www.w3.org/2000/svg" viewBox="0 0 850 850"><defs/><path fill="#f38bb9" d="M0 0h851v851H0z"/><path fill="#db65a6" stroke="#231f20" stroke-miterlimit="10" stroke-width="4" d="M389 421l-89 79a51 51 0 01-65 1l-98-78a51 51 0 0131-90l187-1c47 0 69 58 34 89z"/><circle cx="268" cy="456" r="26" fill="#e681b4" stroke="#231f20" stroke-miterlimit="10" stroke-width="3"/><circle cx="268" cy="458" r="12" fill="#3f2a37"/><circle cx="268" cy="454" r="12" fill="#e661a4" stroke="#231f20" stroke-miterlimit="10" stroke-width="3"/><path fill="#9e537f" stroke="#231f20" stroke-miterlimit="10" stroke-width="3" d="M527 415h130c2 0 4 1 4 3h0c0 3-2 4-4 4H527c-2 0-4-1-4-4h0c0-2 2-3 4-3z"/></svg>