<svg xmlns="http://www.w3.org/2000/svg" viewBox="0 0 850.4 850.4"><defs/><path fill="#f38bb9" d="M0 0h850.7v850.7H0z"/><path fill="#3f2a37" d="M388.7 429.8l-88.3 78.8a50.83 50.83 0 01-65.5 1.8l-97.8-78.1c-37.5-29.9-16.4-90.3 31.5-90.5l186.1-.6c46.8-.3 68.9 57.5 34 88.6z" opacity=".47"/><path fill="#db65a6" stroke="#231f20" stroke-miterlimit="10" stroke-width="4" d="M388.7 420.8l-88.3 78.8a50.83 50.83 0 01-65.5 1.8L137 423.3c-37.5-29.9-16.4-90.3 31.5-90.5l186.1-.6c46.9-.3 69 57.4 34.1 88.6z"/><circle cx="267.9" cy="455.5" r="26" fill="#e681b4" stroke="#231f20" stroke-miterlimit="10" stroke-width="3"/><circle cx="267.9" cy="457.6" r="12.3" fill="#3f2a37" opacity=".62"/><circle cx="267.9" cy="454.4" r="11.6" fill="#e661a4" stroke="#231f20" stroke-miterlimit="10" stroke-width="3"/><path fill="#9e537f" stroke="#231f20" stroke-miterlimit="10" stroke-width="3" d="M526.7 414.6H657c2.1 0 3.8 1.7 3.8 3.8h0c0 2.1-1.7 3.8-3.8 3.8H526.7a3.8 3.8 0 01-3.8-3.8h0c0-2.1 1.7-3.8 3.8-3.8z"/></svg>