<svg xmlns="http://www.w3.org/2000/svg" id="Layer_1" viewBox="0 0 850.39 850.39"><defs/><defs><style>.cls-2,.cls-5{fill:#3f2a37}.cls-2{opacity:.56}.cls-3,.cls-4,.cls-6{fill:#eb9ac3;stroke-width:4px;stroke:#231f20;stroke-miterlimit:10}.cls-4,.cls-6{fill:#e681b4;stroke-width:3px}.cls-6{fill:#e661a4}</style></defs><path fill="#ecb5d3" d="M0 0h850.39v850.39H0z"/><path d="M192.58 605.34l-57.74-214.07a43.5 43.5 0 01-.51-20.6l17-78.17a43.55 43.55 0 0123.26-29.78l62.43-30.83a43.55 43.55 0 0137.79-.38l63 29.58a43.57 43.57 0 0123.85 29.31l18.47 77.35a43.52 43.52 0 01-.32 21.48l-58.27 215.69a43.55 43.55 0 01-41.6 32.17l-44.89.45a43.53 43.53 0 01-42.47-32.2z" class="cls-2"/><path d="M192 590.8l-57.72-214.06a43.54 43.54 0 01-.5-20.61l17-78.16a43.55 43.55 0 0123.26-29.78l62.44-30.84a43.56 43.56 0 0137.78-.37l63 29.58a43.57 43.57 0 0123.85 29.31l18.47 77.34a43.56 43.56 0 01-.32 21.49L321 590.39a43.54 43.54 0 01-41.6 32.17l-44.9.44a43.55 43.55 0 01-42.5-32.2z" class="cls-3"/><circle cx="256.81" cy="548.73" r="41.6" class="cls-4"/><circle cx="256.81" cy="550.6" r="18.67" class="cls-5"/><circle cx="256.81" cy="546.86" r="18.67" class="cls-6"/><path d="M528.81 605.34l-57.74-214.07a43.5 43.5 0 01-.51-20.6l17-78.17a43.56 43.56 0 0123.27-29.78l62.43-30.83a43.55 43.55 0 0137.79-.38l63 29.58A43.55 43.55 0 01698 290.4l18.46 77.35a43.52 43.52 0 01-.32 21.48l-58.38 215.69a43.53 43.53 0 01-41.6 32.17l-44.88.45a43.53 43.53 0 01-42.47-32.2z" class="cls-2"/><path d="M528.25 590.8l-57.74-214.06a43.54 43.54 0 01-.51-20.61L487 278a43.55 43.55 0 0123.26-29.78l62.43-30.84a43.59 43.59 0 0137.79-.37l63 29.58a43.55 43.55 0 0123.86 29.31l18.47 77.34a43.56 43.56 0 01-.32 21.49l-58.28 215.66a43.55 43.55 0 01-41.6 32.17l-44.89.45a43.54 43.54 0 01-42.47-32.21z" class="cls-3"/><circle cx="593.04" cy="548.73" r="41.6" class="cls-4"/><circle cx="593.04" cy="550.6" r="18.67" class="cls-5"/><circle cx="593.04" cy="546.86" r="18.67" class="cls-6"/></svg>