<svg xmlns="http://www.w3.org/2000/svg" id="Layer_1" x="0" y="0" version="1.1" viewBox="0 0 850.4 850.4" xml:space="preserve"><defs/><style>.st1{opacity:.56;fill:#3f2a37;enable-background:new}.st2,.st3{fill:#ea456b;stroke:#231f20;stroke-width:4;stroke-miterlimit:10}.st3{fill:#e23261;stroke-width:3}.st4{fill:#3f2a37}.st5{fill:#e11c4f;stroke:#231f20;stroke-width:3;stroke-miterlimit:10}</style><path fill="#e581b4" d="M0 0h850.4v850.4H0z"/><path d="M373.5 328.2c-30.8-17.8-81.5 11-119.6 65.3-38-54.3-88.8-83.1-119.6-65.3-34.4 19.9-31 90.2 7.7 157.2 31.8 55.1 77.5 90.7 111.9 90.6 34.4.1 80.1-35.5 111.9-90.5 38.7-67 42.2-137.4 7.7-157.3z" class="st1"/><path d="M373.5 312.2c-30.8-17.8-81.5 11-119.6 65.3-38-54.3-88.8-83.1-119.6-65.3-34.4 19.9-31 90.3 7.7 157.2 31.8 55.1 77.5 90.7 111.9 90.5 34.4.1 80.1-35.5 111.9-90.5 38.7-66.9 42.2-137.3 7.7-157.2z" class="st2"/><circle cx="254" cy="474" r="36.9" class="st3"/><circle cx="254" cy="475.7" r="16.6" class="st4"/><circle cx="254" cy="472.4" r="16.6" class="st5"/><path d="M728.8 329.2c-30.8-17.8-81.5 11-119.6 65.3-38-54.3-88.8-83.1-119.6-65.3-34.4 19.9-31 90.2 7.7 157.2 31.8 55.1 77.5 90.7 111.9 90.5 34.4.1 80.1-35.5 111.9-90.5 38.7-66.9 42.1-137.3 7.7-157.2z" class="st1"/><path d="M728.8 313.3c-30.8-17.8-81.5 11-119.6 65.3-38-54.3-88.8-83.1-119.6-65.3-34.4 19.9-31 90.3 7.7 157.2 31.8 55.1 77.5 90.7 111.9 90.5 34.4.1 80.1-35.5 111.9-90.5 38.7-67 42.1-137.4 7.7-157.2z" class="st2"/><circle cx="609.2" cy="475" r="36.9" class="st3"/><circle cx="609.2" cy="476.7" r="16.6" class="st4"/><circle cx="609.2" cy="473.4" r="16.6" class="st5"/></svg>