<svg xmlns="http://www.w3.org/2000/svg" id="Layer_1" x="0" y="0" version="1.1" viewBox="0 0 850.4 850.4" xml:space="preserve"><defs/><style>.st1{opacity:.56;fill:#3f2a37;enable-background:new}.st2,.st3{fill:#dd73ad;stroke:#231f20;stroke-width:4;stroke-miterlimit:10}.st3{fill:#e681b4;stroke-width:3}.st4{fill:#3f2a37}.st5{fill:#e661a4;stroke:#231f20;stroke-width:3;stroke-miterlimit:10}</style><path fill="#e19bc4" d="M0 0h850.4v850.4H0z"/><path d="M188 555.8l-59.2-111.2a76.95 76.95 0 0114-91l62.6-61.5c30.3-29.7 79-29.3 108.7 1l60.8 61.9c24.2 24.7 29 62.5 11.6 92.4l-64.2 110.8c-30.2 52.2-106 50.8-134.3-2.4z" class="st1"/><path d="M189.2 536.9L130 425.7a76.95 76.95 0 0114-91l62.6-61.5c30.3-29.7 79-29.3 108.7 1l60.8 61.9c24.2 24.7 29 62.5 11.6 92.4l-64.2 110.8c-30.1 52.2-105.9 50.8-134.3-2.4z" class="st2"/><circle cx="259" cy="525.8" r="42.8" class="st3"/><circle cx="259" cy="527.8" r="19.2" class="st4"/><circle cx="259" cy="523.9" r="19.2" class="st5"/><path d="M520.4 555.8l-59.2-111.2a76.95 76.95 0 0114-91l62.7-61.5c30.3-29.7 79-29.3 108.7 1l60.8 61.9c24.2 24.7 29 62.5 11.7 92.4l-64.2 110.8c-30.3 52.2-106.1 50.8-134.5-2.4z" class="st1"/><path d="M521.7 536.9l-59.2-111.2a76.95 76.95 0 0114-91l62.6-61.5c30.3-29.7 79-29.3 108.7 1l60.8 61.9c24.2 24.7 29 62.5 11.7 92.4l-64.2 110.8c-30.3 52.2-106.1 50.8-134.4-2.4z" class="st2"/><circle cx="591.4" cy="525.8" r="42.8" class="st3"/><circle cx="591.4" cy="527.8" r="19.2" class="st4"/><circle cx="591.4" cy="523.9" r="19.2" class="st5"/></svg>