<svg xmlns="http://www.w3.org/2000/svg" viewBox="0 0 850.4 850.4"><defs/><path fill="#ec68a4" d="M0 0h850.4v850.4H0z"/><path fill="#3f2a37" d="M193.8 287.5l186.1-.5L438 463.8 287.7 573.7l-150.9-109z" opacity=".47"/><path fill="#e972a1" stroke="#231f20" stroke-miterlimit="10" stroke-width="4" d="M196.2 277.2l181.6-.5 56.7 172.6-146.7 107.2-147.3-106.3z"/><path fill="#e8518f" stroke="#231f20" stroke-miterlimit="10" stroke-width="3" d="M264.3 390l45.9-.1 14.3 43.6-37.1 27-37.2-26.8z"/><path fill="#492d3e" d="M276.8 411.1l21-.1 6.6 20-17 12.4-17-12.3z"/><path fill="#e52e78" stroke="#231f20" stroke-miterlimit="10" stroke-width="3" d="M277.4 409h19.8l6.3 18.8-16.1 11.7-16.1-11.6z"/><path fill="#9e537f" stroke="#231f20" stroke-miterlimit="10" stroke-width="3" d="M508.4 416.9h201.5c2.1 0 3.8 1.7 3.8 3.8v4c0 2.1-1.7 3.8-3.8 3.8H508.4a3.8 3.8 0 01-3.8-3.8v-4c0-2.1 1.7-3.8 3.8-3.8z"/></svg>