<svg xmlns="http://www.w3.org/2000/svg" viewBox="0 0 850.4 850.4"><defs/><path fill="#e086b7" d="M0 0h850.4v850.4H0z"/><path fill="#3f2a37" d="M408.1 437.2c0-31.2-33.1-58.3-81.7-71.9-13.7-48.6-40.8-81.7-71.9-81.7s-58.3 33.1-71.9 81.7c-48.6 13.7-81.7 40.8-81.7 71.9s33.1 58.3 81.7 71.9c13.7 48.6 40.8 81.7 71.9 81.7s58.3-33.1 71.9-81.7c48.6-13.7 81.7-40.7 81.7-71.9z" opacity=".47"/><path fill="#e69cc4" stroke="#000" stroke-miterlimit="10" stroke-width="4" d="M408.1 422.4c0-31.2-33.1-58.3-81.7-72-13.7-48.6-40.8-81.7-71.9-81.7s-58.3 33.1-71.9 81.7c-48.6 13.7-81.7 40.8-81.7 72s33.1 58.3 81.7 71.9c13.7 48.6 40.8 81.6 71.9 81.6s58.3-33.1 71.9-81.7c48.6-13.5 81.7-40.6 81.7-71.8z"/><circle cx="254.5" cy="422.4" r="41" fill="#e681b4" stroke="#231f20" stroke-miterlimit="10" stroke-width="3" transform="rotate(-80.781 254.517 422.436)"/><circle cx="254.5" cy="424.3" r="18.4" fill="#3f2a37" transform="rotate(-80.781 254.517 424.276)"/><circle cx="254.5" cy="420.6" r="18.4" fill="#e661a4" stroke="#231f20" stroke-miterlimit="10" stroke-width="3" transform="rotate(-80.781 254.517 420.586)"/><path fill="#9e537f" stroke="#231f20" stroke-miterlimit="10" stroke-width="3" d="M498 431.4h201.5c2.1 0 3.8 1.7 3.8 3.8v4c0 2.1-1.7 3.8-3.8 3.8H498a3.8 3.8 0 01-3.8-3.8v-4c0-2.1 1.7-3.8 3.8-3.8z"/></svg>