<svg xmlns="http://www.w3.org/2000/svg" viewBox="0 0 850 850"><defs/><path fill="#ec68a4" d="M0 0h850v850H0z"/><path fill="#e972a1" stroke="#231f20" stroke-miterlimit="10" stroke-width="4" d="M196 277h182l57 172-147 108-147-107z"/><path fill="#e8518f" stroke="#231f20" stroke-miterlimit="10" stroke-width="3" d="M264 390h46l15 44-38 27-37-27z"/><path fill="#492d3e" d="M277 411h21l6 20-17 12-17-12z"/><path fill="#e52e78" stroke="#231f20" stroke-miterlimit="10" stroke-width="3" d="M277 409h20l7 19-17 12-16-12z"/><path fill="#9e537f" stroke="#231f20" stroke-miterlimit="10" stroke-width="3" d="M508 417h202c2 0 4 2 4 4v4c0 2-2 3-4 3H508c-2 1-3-1-3-3v-4c0-2 1-4 3-4z"/></svg>