<svg xmlns="http://www.w3.org/2000/svg" id="Layer_1" x="0" y="0" version="1.1" viewBox="0 0 850.4 850.4" xml:space="preserve"><defs/><style>.st2{fill:#3f2a37}</style><path fill="#f27cad" d="M0 0h849.4v850.8H0z"/><path d="M455.6 403.9L565 289.4a43.95 43.95 0 0162.2-1.4l114.6 109.5a43.95 43.95 0 011.4 62.2L633.8 574.2a43.95 43.95 0 01-62.2 1.4L457 466.2a44.07 44.07 0 01-1.4-62.3z" class="st2" opacity=".47"/><path fill="#e99dc4" stroke="#231f20" stroke-miterlimit="10" stroke-width="4" d="M454.6 390.8l109.5-114.6a43.95 43.95 0 0162.2-1.4l114.6 109.5a43.95 43.95 0 011.4 62.2L632.8 561.1a43.95 43.95 0 01-62.2 1.4L456 453a43.95 43.95 0 01-1.4-62.2z"/><circle cx="598.9" cy="425.2" r="38.4" fill="#e681b4" stroke="#231f20" stroke-miterlimit="10" stroke-width="3"/><circle cx="598.9" cy="426.9" r="17.2" class="st2"/><circle cx="598.9" cy="423.5" r="17.2" fill="#e661a4" stroke="#231f20" stroke-miterlimit="10" stroke-width="3"/><path fill="#9e537f" stroke="#231f20" stroke-miterlimit="10" stroke-width="3" d="M147.1 417.7h201.5c2.1 0 3.8 1.7 3.8 3.8v4c0 2.1-1.7 3.8-3.8 3.8H147.1a3.8 3.8 0 01-3.8-3.8v-4c0-2.1 1.7-3.8 3.8-3.8z"/></svg>