<svg xmlns="http://www.w3.org/2000/svg" viewBox="0 0 850.4 850.4"><defs/><path fill="#f9c3d5" d="M0 0h850.4v850.4H0z"/><path fill="#9e537f" d="M308.5 292.1H190.7c-11.6 0-22.4 6.2-28.2 16.3l-58.9 102a32.71 32.71 0 000 32.6l58.9 102a32.55 32.55 0 0028.2 16.3h117.8c11.6 0 22.4-6.2 28.2-16.3l58.9-102c5.8-10.1 5.8-22.5 0-32.6l-58.9-102a32.43 32.43 0 00-28.2-16.3z" opacity=".47"/><path fill="#ed95bf" stroke="#231f20" stroke-miterlimit="10" stroke-width="4" d="M307 287.1H192.2c-11.6 0-22.4 6.2-28.2 16.3l-57.4 99.4a32.71 32.71 0 000 32.6l57.4 99.4a32.55 32.55 0 0028.2 16.3H307c11.6 0 22.4-6.2 28.2-16.3l57.4-99.4c5.8-10.1 5.8-22.5 0-32.6l-57.4-99.4a32.55 32.55 0 00-28.2-16.3z"/><path fill="#e772ac" stroke="#231f20" stroke-miterlimit="10" stroke-width="2" d="M273.1 370.6h-46.9a7.9 7.9 0 00-6.8 3.9l-23.5 40.6a7.77 7.77 0 000 7.8l23.5 40.6c1.4 2.4 4 3.9 6.8 3.9h46.9c2.8 0 5.4-1.5 6.8-3.9l23.5-40.7c1.4-2.4 1.4-5.4 0-7.8l-23.5-40.6c-1.4-2.3-4-3.8-6.8-3.8z"/><path fill="#9e537f" d="M260.6 395.6h-22c-2.7 0-5.3 1.5-6.6 3.8l-11 19.1a7.4 7.4 0 000 7.6l11 19.1a7.6 7.6 0 006.6 3.8h22c2.7 0 5.3-1.5 6.6-3.8l11-19.1a7.4 7.4 0 000-7.6l-11-19.1a7.56 7.56 0 00-6.6-3.8z"/><path fill="#e661a4" stroke="#231f20" stroke-miterlimit="10" stroke-width="2" d="M260.2 393.2h-21.1c-2.7 0-5.3 1.5-6.6 3.8L222 415.3a7.58 7.58 0 000 7.7l10.5 18.2a7.6 7.6 0 006.6 3.8h21c2.7 0 5.3-1.5 6.6-3.8l10.5-18.2c1.4-2.4 1.4-5.3 0-7.7L266.8 397a7.6 7.6 0 00-6.6-3.8z"/><path fill="#9e537f" stroke="#231f20" stroke-miterlimit="10" stroke-width="3" d="M475.1 419.4h201.5c2.1 0 3.8 1.7 3.8 3.8v4c0 2.1-1.7 3.8-3.8 3.8H475.1a3.8 3.8 0 01-3.8-3.8v-4c0-2.1 1.7-3.8 3.8-3.8z"/></svg>