<svg xmlns="http://www.w3.org/2000/svg" viewBox="0 0 850 850"><defs/><path fill="#e19bc4" d="M0 0h850v850H0z"/><path fill="#3f2a37" d="M520 556l-59-111a77 77 0 0114-91l63-62c30-30 79-29 109 1l60 62c25 25 29 62 12 92l-64 111a77 77 0 01-135-2z"/><path fill="#dd73ad" stroke="#231f20" stroke-miterlimit="10" stroke-width="4" d="M522 537l-59-111a77 77 0 0114-91l62-62c30-30 79-29 109 1l61 62c24 25 29 63 11 92l-64 111a77 77 0 01-134-2z"/><circle cx="591" cy="526" r="43" fill="#e681b4" stroke="#231f20" stroke-miterlimit="10" stroke-width="3"/><circle cx="591" cy="528" r="19" fill="#3f2a37"/><circle cx="591" cy="524" r="19" fill="#e661a4" stroke="#231f20" stroke-miterlimit="10" stroke-width="3"/><path fill="#9e537f" stroke="#231f20" stroke-miterlimit="10" stroke-width="3" d="M166 421h202c2 0 4 2 4 4v4c0 2-2 3-4 3H166c-2 1-3-1-3-3v-4c0-2 1-4 3-4z"/></svg>