<svg xmlns="http://www.w3.org/2000/svg" viewBox="0 0 850 850"><defs/><path fill="#ec79a9" d="M0 0h850v850H0z"/><path fill="#f6aac4" stroke="#231f20" stroke-miterlimit="10" stroke-width="4" d="M668 546h0c-16-9-36-5-46 10l-1 3h0a33 33 0 01-62-8h0a33 33 0 00-42-24h0a33 33 0 01-38-49h0c9-16 5-36-10-46l-3-1h0a33 33 0 018-62h0a33 33 0 0024-43h0a33 33 0 0149-38h0c15 10 36 6 46-10l1-2h0c14-28 55-23 62 8h0a33 33 0 0042 24h0c30-10 55 23 38 49h0c-9 15-5 36 10 46l3 1h0c28 14 23 55-8 62h0a33 33 0 00-24 42h0c9 30-23 55-49 38z"/><circle cx="607" cy="420" r="52" fill="#e681b4" stroke="#231f20" stroke-miterlimit="10" stroke-width="3"/><circle cx="607" cy="423" r="23" fill="#3f2a37"/><circle cx="607" cy="418" r="23" fill="#e661a4" stroke="#231f20" stroke-miterlimit="10" stroke-width="3"/><path fill="#9e537f" stroke="#231f20" stroke-miterlimit="10" stroke-width="3" d="M155 419h202c2 0 4 2 4 4v4c0 2-2 3-4 3H155c-2 1-3-1-3-3v-4c0-2 1-4 3-4z"/></svg>