<svg xmlns="http://www.w3.org/2000/svg" viewBox="0 0 850.39 850.39"><defs/><path fill="#e581b4" d="M0 0h850.39v850.39H0z"/><path fill="#3f2a37" d="M728.81 320.23c-30.81-17.79-81.54 11-119.57 65.27-38-54.3-88.75-83.06-119.56-65.27-34.41 19.86-31 90.25 7.71 157.22 31.79 55.06 77.49 90.67 111.85 90.54 34.37.13 80.07-35.48 111.86-90.54 38.67-66.97 42.12-137.36 7.71-157.22z" opacity=".56"/><path fill="#ea456b" stroke="#231f20" stroke-miterlimit="10" stroke-width="4" d="M728.81 304.27c-30.81-17.79-81.54 11-119.57 65.27-38-54.3-88.75-83.06-119.56-65.27-34.41 19.86-31 90.26 7.71 157.22 31.79 55.07 77.49 90.67 111.85 90.55 34.37.12 80.07-35.48 111.86-90.55 38.67-66.96 42.12-137.36 7.71-157.22z"/><circle cx="609.24" cy="466.04" r="36.89" fill="#e23261" stroke="#231f20" stroke-miterlimit="10" stroke-width="3"/><circle cx="609.24" cy="467.7" r="16.56" fill="#3f2a37"/><circle cx="609.24" cy="464.38" r="16.56" fill="#e11c4f" stroke="#231f20" stroke-miterlimit="10" stroke-width="3"/><rect width="209.04" height="11.55" x="174.94" y="419.42" fill="#9e537f" stroke="#231f20" stroke-miterlimit="10" stroke-width="3" rx="3.78"/></svg>