<svg xmlns="http://www.w3.org/2000/svg" viewBox="0 0 850.39 850.39"><defs/><path fill="#edbfd9" d="M0 0h850.38v850.38H0z"/><path fill="#3f2a37" d="M571.89 652.24L468.61 549a16.8 16.8 0 01-4.06-17.2l103.28-309.89c5.11-15.32 26.79-15.32 31.89 0L703 531.76a16.8 16.8 0 01-4.07 17.2L595.66 652.24a16.8 16.8 0 01-23.77 0z" opacity=".47"/><path fill="#db80b4" stroke="#231f20" stroke-miterlimit="10" stroke-width="4" d="M571.89 635.05L468.61 531.77a16.8 16.8 0 01-4.06-17.2l103.28-309.85c5.11-15.33 26.79-15.33 31.89 0L703 514.57a16.8 16.8 0 01-4.07 17.2L595.66 635.05a16.82 16.82 0 01-23.77 0z"/><circle cx="583.78" cy="565.24" r="34.87" fill="#e681b4" stroke="#231f20" stroke-miterlimit="10" stroke-width="3"/><circle cx="583.78" cy="566.8" r="15.65" fill="#3f2a37"/><circle cx="583.78" cy="563.67" r="15.65" fill="#e661a4" stroke="#231f20" stroke-miterlimit="10" stroke-width="3"/><rect width="209.04" height="11.55" x="184.47" y="457.39" fill="#9e537f" stroke="#231f20" stroke-miterlimit="10" stroke-width="3" rx="3.78"/></svg>