<svg xmlns="http://www.w3.org/2000/svg" id="Layer_1" x="0" y="0" version="1.1" viewBox="0 0 850.4 850.4" xml:space="preserve"><defs/><style>.st1{opacity:.47;fill:#3f2a37;enable-background:new}.st2,.st3{fill:#e69cc4;stroke:#000;stroke-width:4;stroke-miterlimit:10}.st3{fill:#e681b4;stroke:#231f20;stroke-width:3}.st4{fill:#3f2a37}.st5{fill:#e661a4;stroke:#231f20;stroke-width:3;stroke-miterlimit:10}</style><path fill="#e086b7" d="M0 0h850.4v850.4H0z"/><path d="M408.1 437.2c0-31.2-33.1-58.3-81.7-71.9-13.7-48.6-40.8-81.7-71.9-81.7s-58.3 33.1-71.9 81.7c-48.6 13.7-81.7 40.8-81.7 71.9s33.1 58.3 81.7 71.9c13.7 48.6 40.8 81.7 71.9 81.7s58.3-33.1 71.9-81.7c48.6-13.7 81.7-40.7 81.7-71.9z" class="st1"/><path d="M408.1 422.4c0-31.2-33.1-58.3-81.7-72-13.7-48.6-40.8-81.7-71.9-81.7s-58.3 33.1-71.9 81.7c-48.6 13.7-81.7 40.8-81.7 72s33.1 58.3 81.7 71.9c13.7 48.6 40.8 81.6 71.9 81.6s58.3-33.1 71.9-81.7c48.6-13.5 81.7-40.6 81.7-71.8z" class="st2"/><circle cx="254.5" cy="422.4" r="41" class="st3" transform="rotate(-80.781 254.517 422.436)"/><circle cx="254.5" cy="424.3" r="18.4" class="st4" transform="rotate(-80.781 254.517 424.276)"/><circle cx="254.5" cy="420.6" r="18.4" class="st5" transform="rotate(-80.781 254.517 420.586)"/><path d="M749.5 437c0-31.2-33.1-58.3-81.7-72-13.7-48.6-40.8-81.7-72-81.7s-58.2 33.1-71.9 81.6c-48.6 13.7-81.7 40.8-81.7 72s33.1 58.3 81.7 71.9c13.7 48.6 40.8 81.7 71.9 81.7s58.3-33.1 72-81.7c48.6-13.6 81.7-40.7 81.7-71.8z" class="st1"/><path d="M749.5 422.2c0-31.2-33.1-58.3-81.7-71.9-13.7-48.6-40.8-81.7-72-81.7s-58.3 33.1-71.9 81.7c-48.6 13.7-81.7 40.8-81.7 71.9s33.1 58.3 81.7 71.9c13.7 48.6 40.8 81.7 71.9 81.7s58.3-33.1 72-81.7c48.6-13.6 81.7-40.7 81.7-71.9z" class="st2"/><circle cx="595.9" cy="422.2" r="41" class="st3"/><circle cx="595.9" cy="424.1" r="18.4" class="st4"/><circle cx="595.9" cy="420.4" r="18.4" class="st5"/></svg>