<svg xmlns="http://www.w3.org/2000/svg" id="Layer_1" x="0" y="0" version="1.1" viewBox="0 0 850 850" xml:space="preserve"><defs/><style>.st1{opacity:.47;fill:#3f2a37;enable-background:new}.st2,.st3{fill:#e58bba;stroke:#231f20;stroke-width:3;stroke-miterlimit:10}.st3{fill:#e681b4}.st4{fill:#3f2a37}.st5{fill:#e661a4;stroke:#231f20;stroke-width:3;stroke-miterlimit:10}</style><path fill="#e661a4" d="M0 0h850v850H0z"/><path d="M343 561l-65-47c-5-3-11-3-15 0l-65 47c-10 8-24-2-20-14l25-76c1-5-1-11-5-15l-65-46c-10-8-5-23 8-24h80c5 0 10-3 12-9l24-76c4-12 21-12 25 0l25 76c1 5 6 9 12 9l80-1c12 0 17 16 7 24l-64 47c-5 3-6 9-5 14l25 76c4 12-9 22-19 15z" class="st1"/><path d="M341 555l-64-47c-5-3-11-3-15 0l-65 47c-10 8-24-2-20-14l25-76c1-5-1-11-5-14l-65-47c-10-7-5-23 8-23l80-1c5 0 10-3 12-9l24-76c4-12 21-12 25 0l25 76c1 5 6 9 12 9h80c12 0 17 15 7 23l-64 47c-5 3-7 9-5 14l25 76c4 12-9 22-20 15z" class="st2"/><circle cx="272" cy="438" r="30" class="st3"/><circle cx="272" cy="440" r="14" class="st4"/><circle cx="272" cy="437" r="14" class="st5"/><path d="M657 561l-64-47c-5-3-11-3-15 0l-65 47c-10 7-24-2-20-14l25-76c1-6-1-11-5-15l-65-46c-10-8-5-24 8-24h79c6 0 11-4 13-9l24-76c4-12 21-12 24 0l25 76c2 5 7 9 13 9l80-1c12 0 17 16 7 24l-64 47c-5 3-7 9-5 14l25 76c4 12-9 22-20 15z" class="st1"/><path d="M656 555l-65-47c-4-3-10-3-15 0l-64 47c-10 8-24-2-20-14l24-76c2-5 0-11-4-14l-65-47c-10-7-5-23 7-23l80-1c6 0 11-3 12-9l25-76c4-12 20-12 24 0l25 76c2 5 7 9 12 9h80c13 0 18 16 8 23l-64 47c-5 3-7 9-5 14l25 76c4 12-10 22-20 15z" class="st2"/><circle cx="587" cy="438" r="30" class="st3"/><circle cx="587" cy="440" r="14" class="st4"/><circle cx="587" cy="437" r="14" class="st5"/></svg>