<svg xmlns="http://www.w3.org/2000/svg" viewBox="0 0 850 850"><defs/><path fill="#ea9bc3" d="M0 0h850v850H0z"/><path fill="#3f2a37" d="M719 375l-46-143c-2-5-7-9-13-9H510c-6 0-11 4-13 9l-46 143c-2 6 0 12 4 15l41 30a14 14 0 010 22l-41 29c-5 4-7 10-5 15l46 143c2 6 7 10 13 10h151c5 0 11-4 12-10l47-143c2-5 0-11-5-15l-40-29a14 14 0 010-22l41-29c4-4 6-10 4-16z"/><path fill="#e783b5" stroke="#000" stroke-miterlimit="10" stroke-width="4" d="M719 364l-46-143c-2-5-7-9-13-9H510c-6 0-11 4-13 9l-46 143c-2 6 0 12 4 15l41 29a14 14 0 010 22l-41 30c-5 3-7 10-5 15l46 143c2 6 7 9 13 9h151c5 0 11-4 12-9l47-143c2-5 0-12-5-15l-40-29a14 14 0 010-22l41-30c4-3 6-9 4-15z"/><circle cx="585" cy="542" r="41" fill="#e681b4" stroke="#231f20" stroke-miterlimit="10" stroke-width="3"/><circle cx="585" cy="544" r="19" fill="#3f2a37"/><circle cx="585" cy="540" r="19" fill="#e661a4" stroke="#231f20" stroke-miterlimit="10" stroke-width="3"/><path fill="#9e537f" stroke="#231f20" stroke-miterlimit="10" stroke-width="3" d="M137 435h201c2 0 4 1 4 3v5c0 2-2 3-4 3H137c-3 0-4-1-4-3v-4c0-3 1-4 4-4z"/></svg>