<svg xmlns="http://www.w3.org/2000/svg" viewBox="0 0 850.39 850.39"><defs/><path fill="#dd5da2" d="M0 0h850.39v850.39H0z"/><path fill="#3f2a37" d="M369.38 356.83h-40.24a12 12 0 01-12-12V304.6a12 12 0 00-12-12H177.76a12 12 0 00-12 12v40.25a12 12 0 01-12 12h-40.21a12 12 0 00-12 12v127.38a12 12 0 0012 12h40.25a12 12 0 0112 12v40.25a12 12 0 0012 12h127.38a12 12 0 0012-12v-40.3a12 12 0 0112-12h40.24a12 12 0 0012-12V368.81a12 12 0 00-12.04-11.98z" opacity=".44"/><path fill="#e27cb2" stroke="#231f20" stroke-miterlimit="10" stroke-width="4" d="M369.38 344.16h-40.24a12 12 0 01-12-12v-40.22a12 12 0 00-12-12H177.76a12 12 0 00-12 12v40.24a12 12 0 01-12 12h-40.21a12 12 0 00-12 12v127.38a12 12 0 0012 12h40.25a12 12 0 0112 12v40.24a12 12 0 0012 12h127.38a12 12 0 0012-12v-40.28a12 12 0 0112-12h40.24a12 12 0 0012-12V356.14a12 12 0 00-12.04-11.98z"/><circle cx="241.47" cy="426.18" r="41.75" fill="#e681b4" stroke="#231f20" stroke-miterlimit="10" stroke-width="3"/><circle cx="241.47" cy="428.06" r="18.74" fill="#3f2a37"/><circle cx="241.47" cy="424.31" r="18.74" fill="#e661a4" stroke="#231f20" stroke-miterlimit="10" stroke-width="3"/><rect width="209.04" height="11.55" x="498.07" y="422.28" fill="#9e537f" stroke="#231f20" stroke-miterlimit="10" stroke-width="3" rx="3.78"/></svg>