<svg xmlns="http://www.w3.org/2000/svg" viewBox="0 0 850 850"><defs/><path fill="#e581b4" d="M0 0h850v850H0z"/><path fill="#3f2a37" d="M729 320c-31-18-82 11-120 66-38-55-89-84-119-66-35 20-31 90 7 157 32 56 78 91 112 91 35 0 80-35 112-91 39-67 42-137 8-157z"/><path fill="#ea456b" stroke="#231f20" stroke-miterlimit="10" stroke-width="4" d="M729 304c-31-18-82 11-120 66-38-55-89-84-119-66-35 20-31 91 7 157 32 56 78 91 112 91 35 0 80-35 112-91 39-66 42-137 8-157z"/><circle cx="609" cy="466" r="37" fill="#e23261" stroke="#231f20" stroke-miterlimit="10" stroke-width="3"/><circle cx="609" cy="468" r="17" fill="#3f2a37"/><circle cx="609" cy="464" r="17" fill="#e11c4f" stroke="#231f20" stroke-miterlimit="10" stroke-width="3"/><rect width="209" height="12" x="175" y="419" fill="#9e537f" stroke="#231f20" stroke-miterlimit="10" stroke-width="3" rx="4"/></svg>