<svg xmlns="http://www.w3.org/2000/svg" id="Layer_1" x="0" y="0" version="1.1" viewBox="0 0 850.4 850.4" xml:space="preserve"><defs/><style>.st1{opacity:.44;fill:#3f2a37;enable-background:new}.st2,.st3{fill:#e27cb2;stroke:#231f20;stroke-width:4;stroke-miterlimit:10}.st3{fill:#e681b4;stroke-width:3}.st4{fill:#3f2a37}.st5{fill:#e661a4;stroke:#231f20;stroke-width:3;stroke-miterlimit:10}</style><path fill="#dd5da2" d="M0 0h850.4v850.4H0z"/><path d="M369.4 356.3h-40.2c-6.6 0-12-5.4-12-12v-40.2c0-6.6-5.4-12-12-12H177.8c-6.6 0-12 5.4-12 12v40.2c0 6.6-5.4 12-12 12h-40.2c-6.6 0-12 5.4-12 12v127.4c0 6.6 5.4 12 12 12h40.2c6.6 0 12 5.4 12 12V560c0 6.6 5.4 12 12 12h127.4c6.6 0 12-5.4 12-12v-40.3c0-6.6 5.4-12 12-12h40.2c6.6 0 12-5.4 12-12V368.3c0-6.6-5.4-12-12-12z" class="st1"/><path d="M369.4 343.6h-40.2c-6.6 0-12-5.4-12-12v-40.2c0-6.6-5.4-12-12-12H177.8c-6.6 0-12 5.4-12 12v40.2c0 6.6-5.4 12-12 12h-40.2c-6.6 0-12 5.4-12 12V483c0 6.6 5.4 12 12 12h40.2c6.6 0 12 5.4 12 12v40.2c0 6.6 5.4 12 12 12h127.4c6.6 0 12-5.4 12-12V507c0-6.6 5.4-12 12-12h40.2c6.6 0 12-5.4 12-12V355.6c0-6.6-5.4-12-12-12z" class="st2"/><circle cx="241.5" cy="425.7" r="41.8" class="st3"/><circle cx="241.5" cy="427.5" r="18.7" class="st4"/><circle cx="241.5" cy="423.8" r="18.7" class="st5"/><path d="M736.8 354.3h-40.2c-6.6 0-12-5.4-12-12v-40.2c0-6.6-5.4-12-12-12H545.2c-6.6 0-12 5.4-12 12v40.2c0 6.6-5.4 12-12 12H481c-6.6 0-12 5.4-12 12v127.4c0 6.6 5.4 12 12 12h40.2c6.6 0 12 5.4 12 12V558c0 6.6 5.4 12 12 12h127.4c6.6 0 12-5.4 12-12v-40.3c0-6.6 5.4-12 12-12h40.2c6.6 0 12-5.4 12-12V366.3c.1-6.6-5.3-12-12-12 .1 0 0 0 0 0z" class="st1"/><path d="M736.8 341.7h-40.2c-6.6 0-12-5.4-12-12v-40.2c0-6.6-5.4-12-12-12H545.2c-6.6 0-12 5.4-12 12v40.2c0 6.6-5.4 12-12 12H481c-6.6 0-12 5.4-12 12v127.4c0 6.6 5.4 12 12 12h40.2c6.6 0 12 5.4 12 12v40.2c0 6.6 5.4 12 12 12h127.4c6.6 0 12-5.4 12-12V505c0-6.6 5.4-12 12-12h40.2c6.6 0 12-5.4 12-12V353.6c.1-6.6-5.3-11.9-12-11.9.1 0 0 0 0 0z" class="st2"/><circle cx="608.9" cy="423.7" r="41.8" class="st3"/><circle cx="608.9" cy="425.6" r="18.7" class="st4"/><circle cx="608.9" cy="421.8" r="18.7" class="st5"/></svg>