<svg xmlns="http://www.w3.org/2000/svg" id="Layer_1" x="0" y="0" version="1.1" viewBox="0 0 850.4 850.4" xml:space="preserve"><defs/><style>.st1{opacity:.44;fill:#3f2a37;enable-background:new}.st2,.st3{fill:#e19bc4;stroke:#231f20;stroke-width:4;stroke-miterlimit:10}.st3{fill:#e681b4;stroke-width:3}.st4{fill:#3f2a37}.st5{fill:#e661a4;stroke:#231f20;stroke-width:3;stroke-miterlimit:10}</style><path fill="#f2c0d9" d="M0 0h849.9v849.5H0z"/><path d="M217.8 249.7h102.9c43.7 0 79.1 35.4 79.1 79.1v209.4c0 43.7-35.4 79.1-79.1 79.1H217.8c-43.7 0-79.1-35.4-79.1-79.1V328.8c0-43.7 35.4-79.1 79.1-79.1z" class="st1"/><path d="M217.6 234.8h102.9c43.7 0 79.1 35.4 79.1 79.1v209.4c0 43.7-35.4 79.1-79.1 79.1H217.6c-43.7 0-79.1-35.4-79.1-79.1V313.9c0-43.7 35.4-79.1 79.1-79.1z" class="st2"/><circle cx="269.8" cy="519.8" r="46.9" class="st3"/><circle cx="269.8" cy="521.9" r="21" class="st4"/><circle cx="269.8" cy="517.7" r="21" class="st5"/><path d="M527.5 249.7h102.9c43.7 0 79.1 35.4 79.1 79.1v209.4c0 43.7-35.4 79.1-79.1 79.1H527.5c-43.7 0-79.1-35.4-79.1-79.1V328.8c.1-43.7 35.5-79.1 79.1-79.1z" class="st1"/><path d="M527.3 234.8h102.9c43.7 0 79.1 35.4 79.1 79.1v209.4c0 43.7-35.4 79.1-79.1 79.1H527.3c-43.7 0-79.1-35.4-79.1-79.1V313.9c0-43.7 35.5-79.1 79.1-79.1z" class="st2"/><circle cx="579.6" cy="519.8" r="46.9" class="st3"/><circle cx="579.6" cy="521.9" r="21" class="st4"/><circle cx="579.6" cy="517.7" r="21" class="st5"/></svg>