<svg xmlns="http://www.w3.org/2000/svg" viewBox="0 0 850 850"><defs/><path fill="#dd5da2" d="M0 0h850v850H0z"/><path fill="#e27cb2" stroke="#231f20" stroke-miterlimit="10" stroke-width="4" d="M369 344h-40a12 12 0 01-12-12v-40a12 12 0 00-12-12H178a12 12 0 00-12 12v40a12 12 0 01-12 12h-40a12 12 0 00-12 12v128a12 12 0 0012 12h40a12 12 0 0112 12v40a12 12 0 0012 12h127a12 12 0 0012-12v-40a12 12 0 0112-12h40a12 12 0 0012-12V356a12 12 0 00-12-12z"/><circle cx="241" cy="426" r="42" fill="#e681b4" stroke="#231f20" stroke-miterlimit="10" stroke-width="3"/><circle cx="241" cy="428" r="19" fill="#3f2a37"/><circle cx="241" cy="424" r="19" fill="#e661a4" stroke="#231f20" stroke-miterlimit="10" stroke-width="3"/><rect width="209" height="12" x="498" y="422" fill="#9e537f" stroke="#231f20" stroke-miterlimit="10" stroke-width="3" rx="4"/></svg>