<svg xmlns="http://www.w3.org/2000/svg" id="Layer_1" x="0" y="0" version="1.1" viewBox="0 0 850.4 850.4" xml:space="preserve"><defs/><style>.st1{opacity:.47;fill:#3f2a37;enable-background:new}.st2,.st3{fill:#f27cad;stroke:#231f20;stroke-width:4;stroke-miterlimit:10}.st3{fill:#e681b4;stroke-width:3}.st4{fill:#3f2a37}.st5{fill:#e661a4;stroke:#231f20;stroke-width:3;stroke-miterlimit:10}</style><path fill="#f49abe" d="M0 0h850.4v850.4H0z"/><path d="M405.5 430.3c9.3-18.2 5.8-40.4-8.7-54.9l-.5-.5c-.3-.3-.5-.8-.5-1.3v-.6a47.2 47.2 0 00-32.6-44.9c-.5-.2-.9-.6-1.1-1.1l-.4-1.3a45.45 45.45 0 00-43.2-31.4h-2c-.5 0-.9-.2-1.3-.5l-.5-.5a47.25 47.25 0 00-54.9-8.7c-.5.3-1.1.3-1.6 0l-1.2-.6a45.47 45.47 0 00-52.8 8.4l-1.4 1.4c-.3.3-.8.5-1.3.5h-2c-19.7 0-37.1 12.7-43.2 31.4l-.4 1.3c-.2.6-.6 1-1.2 1.2l-1.3.4a45.45 45.45 0 00-31.4 43.2v2c0 .5-.2.9-.5 1.3l-1.4 1.4a45.4 45.4 0 00-8.3 52.8l.6 1.2c.3.5.3 1.1 0 1.6a47.28 47.28 0 008.7 54.9l.4.5c.3.3.5.8.5 1.3v2c0 19.7 12.7 37.1 31.4 43.2l1.3.4c.6.2 1 .6 1.2 1.2l.4 1.3a45.45 45.45 0 0043.2 31.4h2c.5 0 .9.2 1.3.5l1.4 1.4a45.27 45.27 0 0052.7 8.3l1.2-.6c.5-.3 1.1-.3 1.6 0l1.2.6a45.6 45.6 0 0052.8-8.3l1.4-1.4c.3-.3.8-.5 1.3-.5h2c19.7 0 37.1-12.7 43.2-31.4l.4-1.3c.2-.6.6-1 1.2-1.2l1.3-.4a45.45 45.45 0 0031.4-43.2v-2c0-.5.2-.9.5-1.3l.5-.5a47.1 47.1 0 008.6-54.9c-.3-.6-.3-1.3 0-1.8z" class="st1"/><path d="M405.5 417.4c9.3-18.2 5.8-40.4-8.7-54.9l-.5-.5c-.3-.3-.5-.8-.5-1.3v-.6a47.2 47.2 0 00-32.6-44.9c-.6-.2-1-.6-1.2-1.2l-.4-1.3a45.45 45.45 0 00-43.2-31.4h-2c-.5 0-.9-.2-1.3-.5l-.5-.5a47.25 47.25 0 00-54.9-8.7c-.5.3-1.1.3-1.6 0l-1.2-.6a45.47 45.47 0 00-52.8 8.4l-1.4 1.4c-.3.3-.8.5-1.3.5h-2c-19.7 0-37.1 12.7-43.2 31.4l-.4 1.3c-.2.6-.6 1-1.2 1.2l-1.3.4a45.45 45.45 0 00-31.4 43.2v2c0 .5-.2.9-.5 1.3l-1.4 1.4a45.4 45.4 0 00-8.3 52.8l.6 1.2c.3.5.3 1.1 0 1.6A47.28 47.28 0 00121 474l.4.5c.3.3.5.8.5 1.3v2c0 19.7 12.7 37.1 31.4 43.2l1.3.4c.6.2 1 .6 1.2 1.2l.4 1.3a45.45 45.45 0 0043.2 31.4h2c.5 0 .9.2 1.3.5l1.4 1.4a45.58 45.58 0 0052.8 8.4l1.2-.6c.5-.3 1.1-.3 1.6 0l1.2.6c17.6 8.9 38.9 5.5 52.8-8.4l1.4-1.4c.3-.3.8-.5 1.3-.5h2c19.7 0 37.1-12.7 43.2-31.4l.4-1.3c.2-.6.6-1 1.2-1.2l1.3-.4a45.45 45.45 0 0031.4-43.2v-2c0-.5.2-1 .5-1.3l.5-.5c14.5-14.5 18-36.6 8.7-54.9-.4-.6-.4-1.2-.1-1.7z" class="st2"/><circle cx="258.7" cy="424.7" r="28.7" class="st3"/><circle cx="258.7" cy="426" r="12.9" class="st4"/><circle cx="258.7" cy="423.4" r="12.9" class="st5"/><path d="M738.9 430.3c9.3-18.2 5.8-40.4-8.7-54.9l-.5-.5c-.3-.3-.5-.8-.5-1.3v-.6c0-20.5-13.2-38.6-32.7-44.9-.6-.2-1-.6-1.2-1.2l-.4-1.3a45.45 45.45 0 00-43.2-31.4h-2c-.5 0-.9-.2-1.3-.5l-.5-.5a47.25 47.25 0 00-54.9-8.7c-.5.3-1.1.3-1.7 0l-1.2-.6a45.47 45.47 0 00-52.8 8.4l-1.4 1.4c-.3.3-.8.5-1.3.5h-2c-19.7 0-37.1 12.7-43.2 31.4l-.3 1.3c-.2.6-.6 1-1.2 1.2l-1.3.4a45.45 45.45 0 00-31.4 43.2v2c0 .5-.2.9-.5 1.3l-1.4 1.4a45.58 45.58 0 00-8.4 52.8l.6 1.2c.3.5.3 1.1 0 1.6a47.28 47.28 0 008.7 54.9l.5.5c.3.3.5.8.5 1.3v2c.1 19.6 12.7 37 31.4 43.1l1.3.4c.6.2 1 .6 1.2 1.2l.4 1.3a45.45 45.45 0 0043.2 31.4h2c.5 0 .9.2 1.3.5l1.4 1.4a45.4 45.4 0 0052.8 8.3l1.2-.6c.5-.3 1.1-.3 1.7 0l1.2.6a45.6 45.6 0 0052.8-8.3l1.4-1.4c.3-.3.8-.5 1.3-.5h2c19.7 0 37.1-12.7 43.1-31.4l.4-1.3c.2-.6.6-1 1.2-1.2l1.3-.4a45.45 45.45 0 0031.4-43.2v-2c0-.5.2-.9.5-1.3l.5-.5c14.5-14.5 18-36.6 8.7-54.8-.2-.5-.2-1.2 0-1.7z" class="st1"/><path d="M738.9 417.4c9.3-18.2 5.8-40.4-8.7-54.9l-.5-.5c-.3-.3-.5-.8-.5-1.3v-.6c0-20.5-13.2-38.6-32.7-44.9-.6-.2-1-.6-1.2-1.2l-.4-1.3a45.45 45.45 0 00-43.2-31.4h-2c-.5 0-.9-.2-1.3-.5l-.5-.5a47.25 47.25 0 00-54.9-8.7c-.5.3-1.1.3-1.7 0l-1.2-.6a45.47 45.47 0 00-52.8 8.4l-1.4 1.4c-.3.3-.8.5-1.3.5h-2c-19.7 0-37.1 12.7-43.2 31.4l-.4 1.3c-.2.6-.6 1-1.2 1.2l-1.3.4a45.45 45.45 0 00-31.4 43.2v2c0 .5-.2.9-.5 1.3l-1.4 1.4a45.58 45.58 0 00-8.4 52.8l.6 1.2c.3.5.3 1.1 0 1.6a47.28 47.28 0 008.7 54.9l.5.5c.3.3.5.8.5 1.3v2c.1 19.7 12.8 37.1 31.5 43.1l1.3.4c.6.2 1 .6 1.2 1.2l.4 1.3a45.45 45.45 0 0043.2 31.4h2c.5 0 .9.2 1.3.5l1.4 1.4a45.58 45.58 0 0052.8 8.4l1.2-.6c.5-.3 1.1-.3 1.7 0l1.2.6a45.3 45.3 0 0052.7-8.4l1.4-1.4c.3-.3.8-.5 1.3-.5h2c19.7 0 37.1-12.7 43.1-31.4l.4-1.3c.2-.6.6-1 1.2-1.2l1.3-.4a45.45 45.45 0 0031.4-43.2v-2c0-.5.2-.9.5-1.3l.5-.5c14.5-14.5 18-36.6 8.7-54.9-.1-.5-.1-1.1.1-1.6z" class="st2"/><circle cx="592.2" cy="424.7" r="28.7" class="st3"/><circle cx="592.2" cy="426" r="12.9" class="st4"/><circle cx="592.2" cy="423.4" r="12.9" class="st5"/></svg>