<svg xmlns="http://www.w3.org/2000/svg" id="Layer_1" x="0" y="0" version="1.1" viewBox="0 0 850.4 850.4" xml:space="preserve"><defs/><style>.st1{opacity:.47;fill:#3f2a37;enable-background:new}.st2,.st3{fill:#db80b4;stroke:#231f20;stroke-width:4;stroke-miterlimit:10}.st3{fill:#e681b4;stroke-width:3}.st4{fill:#3f2a37}.st5{fill:#e661a4;stroke:#231f20;stroke-width:3;stroke-miterlimit:10}</style><path fill="#edbfd9" d="M0 0h850.4v850.4H0z"/><path d="M254.7 652.2L151.4 549c-4.5-4.5-6.1-11.2-4.1-17.2l103.3-309.9c5.1-15.3 26.8-15.3 31.9 0l103.3 309.9c2 6 .4 12.7-4.1 17.2L278.5 652.2c-6.5 6.6-17.2 6.6-23.8 0z" class="st1"/><path d="M254.7 635L151.4 531.8c-4.5-4.5-6.1-11.2-4.1-17.2l103.3-309.9c5.1-15.3 26.8-15.3 31.9 0l103.3 309.9c2 6 .4 12.7-4.1 17.2L278.5 635c-6.6 6.6-17.2 6.6-23.8 0z" class="st2"/><circle cx="266.6" cy="565.2" r="34.9" class="st3"/><circle cx="266.6" cy="566.8" r="15.7" class="st4"/><circle cx="266.6" cy="563.7" r="15.7" class="st5"/><path d="M571.9 652.2L468.6 549c-4.5-4.5-6.1-11.2-4.1-17.2l103.3-309.9c5.1-15.3 26.8-15.3 31.9 0L703 531.8c2 6 .5 12.7-4 17.2L595.7 652.2c-6.6 6.6-17.2 6.6-23.8 0z" class="st1"/><path d="M571.9 635L468.6 531.8c-4.5-4.5-6.1-11.2-4.1-17.2l103.3-309.9c5.1-15.3 26.8-15.3 31.9 0L703 514.6c2 6 .4 12.7-4.1 17.2L595.7 635c-6.6 6.6-17.2 6.6-23.8 0z" class="st2"/><circle cx="583.8" cy="565.2" r="34.9" class="st3"/><circle cx="583.8" cy="566.8" r="15.7" class="st4"/><circle cx="583.8" cy="563.7" r="15.7" class="st5"/></svg>