<svg xmlns="http://www.w3.org/2000/svg" id="Layer_1" x="0" y="0" version="1.1" viewBox="0 0 850.4 850.4" xml:space="preserve"><defs/><style>.st1{opacity:.47}.st2{fill:#3f2a37}.st3,.st4,.st5{fill:#e99dc4;stroke:#231f20;stroke-width:4;stroke-miterlimit:10}.st4,.st5{fill:#e681b4;stroke-width:3}.st5{fill:#e661a4}</style><path fill="#f27cad" d="M0 0h849.4v850.8H0z"/><g class="st1"><path d="M108.1 405.2l109.5-114.6a43.95 43.95 0 0162.2-1.4l114.6 109.5a43.95 43.95 0 011.4 62.2L286.3 575.4a43.95 43.95 0 01-62.2 1.4L109.5 467.4a43.95 43.95 0 01-1.4-62.2z" class="st2"/></g><path d="M107.1 392l109.5-114.6a43.95 43.95 0 0162.2-1.4l114.6 109.5a43.95 43.95 0 011.4 62.2L285.3 562.3a43.95 43.95 0 01-62.2 1.4L108.5 454.3a44.07 44.07 0 01-1.4-62.3z" class="st3"/><circle cx="251.4" cy="426.4" r="38.4" class="st4"/><circle cx="251.4" cy="428.2" r="17.2" class="st2"/><circle cx="251.4" cy="424.7" r="17.2" class="st5"/><g class="st1"><path d="M455.5 405.2L565 290.6a43.95 43.95 0 0162.2-1.4l114.6 109.5a43.95 43.95 0 011.4 62.2L633.7 575.5a43.95 43.95 0 01-62.2 1.4L456.9 467.4a44.04 44.04 0 01-1.4-62.2z" class="st2"/></g><path d="M454.5 392L564 277.5a43.95 43.95 0 0162.2-1.4l114.6 109.5a43.95 43.95 0 011.4 62.2L632.7 562.3a43.95 43.95 0 01-62.2 1.4L455.9 454.3a44.16 44.16 0 01-1.4-62.3z" class="st3"/><circle cx="598.8" cy="426.4" r="38.4" class="st4"/><circle cx="598.8" cy="428.2" r="17.2" class="st2"/><circle cx="598.8" cy="424.7" r="17.2" class="st5"/></svg>