<svg xmlns="http://www.w3.org/2000/svg" id="Layer_1" x="0" y="0" version="1.1" viewBox="0 0 850.4 850.4" xml:space="preserve"><defs/><style>.st1{fill:#9e537f;stroke:#231f20;stroke-width:3;stroke-miterlimit:10}</style><path fill="#f383a1" d="M0 0h850.4v850.4H0z"/><path d="M151.3 421.7h201.5c2.1 0 3.8 1.7 3.8 3.8v4c0 2.1-1.7 3.8-3.8 3.8H151.3a3.8 3.8 0 01-3.8-3.8v-4c.1-2.1 1.7-3.8 3.8-3.8zM496.6 422.5h201.5c2.1 0 3.8 1.7 3.8 3.8v4c0 2.1-1.7 3.8-3.8 3.8H496.6a3.8 3.8 0 01-3.8-3.8v-4c0-2.1 1.7-3.8 3.8-3.8z" class="st1"/></svg>