<svg xmlns="http://www.w3.org/2000/svg" id="Layer_1" x="0" y="0" version="1.1" viewBox="0 0 850 850" xml:space="preserve"><defs/><style>.st2{fill:#9e537f}</style><path fill="#f6aac4" d="M0 0h850v850H0z"/><path d="M561 435h67a6 6 0 015 9l-33 58a6 6 0 01-11 0l-33-58a6 6 0 015-9z" class="st2"/><path d="M581 451h28a2 2 0 012 4l-14 24c-1 1-2 2-4 1v-1l-14-24v-3l2-1z" class="st2"/><path fill="#f9c3d5" stroke="#231f20" stroke-miterlimit="10" stroke-width="4" d="M453 285h282c6 0 12 5 12 11l-2 6-141 244a11 11 0 01-20 0L443 302c-3-5-1-12 4-16l6-1z"/><path fill="#e4a5ca" stroke="#231f20" stroke-miterlimit="10" stroke-width="3" d="M562 429h65a6 6 0 015 9l-33 56a6 6 0 01-10 0l-33-56a6 6 0 016-9z"/><path fill="#9e537f" d="M585 454h19c3 0 5-3 3 1l-10 20c-2 4-4 3-6 0l-10-20c-2-3 0-1 4-1z"/><path fill="#ed95bf" stroke="#231f20" stroke-miterlimit="10" stroke-width="3" d="M580 445h28a2 2 0 012 3l-14 24c0 1-2 2-3 1l-1-1-14-24 1-3h1z"/><path fill="#9e537f" stroke="#231f20" stroke-miterlimit="10" stroke-width="3" d="M173 408h201c2 0 4 2 4 4v4c0 2-2 3-4 3H173c-3 1-4-1-4-3v-4c0-2 2-4 4-4z"/></svg>