<svg xmlns="http://www.w3.org/2000/svg" id="Layer_1" x="0" y="0" version="1.1" viewBox="0 0 850.4 850.4" xml:space="preserve"><defs/><style>.st1{fill:#9e537f;stroke:#231f20;stroke-width:3;stroke-miterlimit:10}</style><path fill="#e686b7" d="M0 0h850v850.3H0z"/><path d="M225.9 422.3h145.9c2.1 0 3.8 1.7 3.8 3.8v.9c0 2.1-1.7 3.8-3.8 3.8H225.9a3.8 3.8 0 01-3.8-3.8v-.9c0-2.1 1.7-3.8 3.8-3.8zM480.1 422.3H626c2.1 0 3.8 1.7 3.8 3.8v.9c0 2.1-1.7 3.8-3.8 3.8H480.1a3.8 3.8 0 01-3.8-3.8v-.9c0-2.1 1.7-3.8 3.8-3.8z" class="st1"/></svg>