<svg xmlns="http://www.w3.org/2000/svg" id="Layer_1" viewBox="0 0 850 850"><defs/><defs><style>.cls-2,.cls-5{fill:#3f2a37}.cls-2{opacity:.56}.cls-3,.cls-4,.cls-6{fill:#eb9ac3;stroke-width:4px;stroke:#231f20;stroke-miterlimit:10}.cls-4,.cls-6{fill:#e681b4;stroke-width:3px}.cls-6{fill:#e661a4}</style></defs><path fill="#ecb5d3" d="M0 0h850v850H0z"/><path d="M193 605l-58-214a44 44 0 01-1-20l17-79a44 44 0 0124-29l62-31a44 44 0 0138 0l63 29a44 44 0 0124 29l18 78a44 44 0 010 21l-58 216a44 44 0 01-42 32l-45 1a44 44 0 01-42-33z" class="cls-2"/><path d="M192 591l-58-214a44 44 0 010-21l17-78a44 44 0 0123-30l62-31a44 44 0 0138 0l63 30a44 44 0 0124 29l19 77a44 44 0 01-1 22l-58 215a44 44 0 01-42 33h-44a44 44 0 01-43-32z" class="cls-3"/><circle cx="257" cy="549" r="42" class="cls-4"/><circle cx="257" cy="551" r="19" class="cls-5"/><circle cx="257" cy="547" r="19" class="cls-6"/><path d="M529 605l-58-214a44 44 0 010-20l17-79a44 44 0 0123-29l62-31a44 44 0 0138 0l63 29a44 44 0 0124 29l18 78a44 44 0 010 21l-58 216a44 44 0 01-42 32l-45 1a44 44 0 01-42-33z" class="cls-2"/><path d="M528 591l-57-214a44 44 0 01-1-21l17-78a44 44 0 0123-30l63-31a44 44 0 0137 0l63 30a44 44 0 0124 29l19 77a44 44 0 01-1 22l-58 215a44 44 0 01-41 33h-45a44 44 0 01-43-32z" class="cls-3"/><circle cx="593" cy="549" r="42" class="cls-4"/><circle cx="593" cy="551" r="19" class="cls-5"/><circle cx="593" cy="547" r="19" class="cls-6"/></svg>