<svg xmlns="http://www.w3.org/2000/svg" id="Layer_1" x="0" y="0" version="1.1" viewBox="0 0 850 850" xml:space="preserve"><defs/><style>.st1{opacity:.56;fill:#3f2a37;enable-background:new}.st2,.st3{fill:#dd73ad;stroke:#231f20;stroke-width:4;stroke-miterlimit:10}.st3{fill:#e681b4;stroke-width:3}.st4{fill:#3f2a37}.st5{fill:#e661a4;stroke:#231f20;stroke-width:3;stroke-miterlimit:10}</style><path fill="#e19bc4" d="M0 0h850v850H0z"/><path d="M188 556l-59-111a77 77 0 0114-91l62-62c31-30 79-29 109 1l61 62c24 25 29 62 12 92l-65 111a77 77 0 01-134-2z" class="st1"/><path d="M189 537l-59-111a77 77 0 0114-91l63-62c30-30 79-29 108 1l61 62c24 25 29 63 12 92l-64 111a77 77 0 01-135-2z" class="st2"/><circle cx="259" cy="526" r="43" class="st3"/><circle cx="259" cy="528" r="19" class="st4"/><circle cx="259" cy="524" r="19" class="st5"/><path d="M520 556l-59-111a77 77 0 0114-91l63-62c30-30 79-29 109 1l60 62c25 25 29 62 12 92l-64 111a77 77 0 01-135-2z" class="st1"/><path d="M522 537l-59-111a77 77 0 0114-91l62-62c30-30 79-29 109 1l61 62c24 25 29 63 11 92l-64 111a77 77 0 01-134-2z" class="st2"/><circle cx="591" cy="526" r="43" class="st3"/><circle cx="591" cy="528" r="19" class="st4"/><circle cx="591" cy="524" r="19" class="st5"/></svg>