<svg xmlns="http://www.w3.org/2000/svg" id="Layer_1" x="0" y="0" version="1.1" viewBox="0 0 850.4 850.4" xml:space="preserve"><defs/><style>.st1{opacity:.47;fill:#3f2a37;enable-background:new}.st2,.st3{fill:#db65a6;stroke:#231f20;stroke-width:4;stroke-miterlimit:10}.st3{fill:#e681b4;stroke-width:3}.st4{opacity:.62;fill:#3f2a37;enable-background:new}.st5{fill:#e661a4;stroke:#231f20;stroke-width:3;stroke-miterlimit:10}</style><path fill="#f38bb9" d="M0 0h850.7v850.7H0z"/><path d="M388.4 429.9l-88.3 78.8a50.83 50.83 0 01-65.5 1.8l-97.8-78.1c-37.5-29.9-16.4-90.3 31.5-90.5l186.1-.6c46.7-.2 68.9 57.5 34 88.6z" class="st1"/><path d="M388.4 420.9l-88.3 78.8a50.83 50.83 0 01-65.5 1.8l-97.8-78.1c-37.5-29.9-16.4-90.3 31.5-90.5l186.1-.6c46.7-.2 68.9 57.5 34 88.6z" class="st2"/><circle cx="267.5" cy="455.7" r="26" class="st3"/><circle cx="267.5" cy="457.7" r="12.3" class="st4"/><circle cx="267.5" cy="454.5" r="11.6" class="st5"/><path d="M715.1 426.8l-88.3 78.8a50.83 50.83 0 01-65.5 1.8l-97.8-78.1c-37.5-30-16.5-90.4 31.5-90.6l186.1-.6c46.7-.1 68.9 57.6 34 88.7z" class="st1"/><path d="M715.1 417.8l-88.3 78.8a50.83 50.83 0 01-65.5 1.8l-97.8-78.1c-37.5-30-16.5-90.4 31.5-90.6l186.1-.6c46.7-.2 68.9 57.6 34 88.7z" class="st2"/><circle cx="594.3" cy="452.5" r="26" class="st3"/><circle cx="594.3" cy="454.6" r="12.3" class="st4"/><circle cx="594.3" cy="451.4" r="11.6" class="st5"/></svg>