<svg xmlns="http://www.w3.org/2000/svg" id="Layer_1" x="0" y="0" version="1.1" viewBox="0 0 850.4 850.4" xml:space="preserve"><defs/><style>.st1{opacity:.47;fill:#3f2a37;enable-background:new}.st2,.st3{fill:#e972a1;stroke:#231f20;stroke-width:4;stroke-miterlimit:10}.st3{fill:#e8518f;stroke-width:3}.st4{fill:#492d3e}.st5{fill:#e52e78;stroke:#231f20;stroke-width:3;stroke-miterlimit:10}</style><path fill="#ec68a4" d="M0 0h850.4v850.4H0z"/><path d="M164.3 285.4l186.2-.5 58 176.9-150.2 109.8-151-109z" class="st1"/><path d="M166.7 275.1l181.7-.5L405 447.2 258.4 554.4 111.1 448.1z" class="st2"/><path d="M234.9 387.9l45.9-.1 14.3 43.6-37.1 27.1-37.2-26.9z" class="st3"/><path d="M247.4 409h21l6.6 19.9-17 12.5-17.1-12.4z" class="st4"/><path d="M248 406.9h19.8l6.2 18.9-16 11.7-16.1-11.7z" class="st5"/><path d="M500.1 285.4l186.2-.5 58 176.9L594 571.6l-150.9-109z" class="st1"/><path d="M502.5 275.1l181.7-.5 56.6 172.6-146.6 107.2-147.3-106.3z" class="st2"/><path d="M570.7 387.9l45.8-.1 14.4 43.6-37.1 27.1-37.2-26.9z" class="st3"/><path d="M583.2 409h21l6.5 19.9-16.9 12.5-17.1-12.4z" class="st4"/><path d="M583.8 406.9h19.8l6.2 18.9-16 11.7-16.1-11.7z" class="st5"/></svg>