<svg xmlns="http://www.w3.org/2000/svg" viewBox="0 0 850 850"><defs/><path fill="#f9c3d5" d="M0 0h850v850H0z"/><path fill="#ed95bf" stroke="#231f20" stroke-miterlimit="10" stroke-width="4" d="M307 287H192c-11 0-22 6-28 16l-57 100c-6 10-6 22 0 32l57 100c6 10 17 16 28 16h115c12 0 22-6 28-16l58-100c5-10 5-22 0-32l-58-100c-6-10-16-16-28-16z"/><path fill="#e772ac" stroke="#231f20" stroke-miterlimit="10" stroke-width="2" d="M273 371h-47c-3 0-5 1-7 4l-23 40v8l23 41c2 2 4 3 7 3h47c3 0 6-1 7-3l23-41c2-3 2-6 0-8l-23-41c-1-2-4-3-7-3z"/><path fill="#9e537f" d="M261 396h-22c-3 0-6 1-7 3l-11 20v7l11 19c1 3 4 4 7 4h22c2 0 5-1 6-4l11-19c2-2 2-5 0-7l-11-20c-1-2-4-3-6-3z"/><path fill="#e661a4" stroke="#231f20" stroke-miterlimit="10" stroke-width="2" d="M260 393h-21c-3 0-5 2-7 4l-10 18v8l11 18c1 3 3 4 6 4h21c3 0 5-1 7-4l10-18c2-2 2-5 0-8l-10-18c-2-2-4-4-7-4z"/><path fill="#9e537f" stroke="#231f20" stroke-miterlimit="10" stroke-width="3" d="M475 419h202c2 0 3 2 3 4v4c0 2-1 4-3 4H475c-2 0-4-2-4-4v-4c0-2 2-4 4-4z"/></svg>