<svg xmlns="http://www.w3.org/2000/svg" id="Layer_1" x="0" y="0" version="1.1" viewBox="0 0 850.4 850.4" xml:space="preserve"><defs/><style>.st1{opacity:.47;enable-background:new}.st1,.st2{fill:#9e537f}.st3,.st4{fill:#f9c3d5;stroke:#231f20;stroke-width:4;stroke-miterlimit:10}.st4{fill:#e4a5ca;stroke-width:3}.st5{opacity:.8;fill:#9e537f;enable-background:new}.st6{fill:#ed95bf;stroke:#231f20;stroke-width:3;stroke-miterlimit:10}</style><path fill="#f6aac4" d="M0 0h850.4v850.4H0z"/><path d="M132.9 299.4h247.9c17.6 0 16.9 20.4 8.1 35.7l-112.8 219a22.98 22.98 0 01-31.3 8.4c-3.5-2-6.4-4.9-8.4-8.4l-108-221c-8.7-15.2-13.1-33.7 4.5-33.7z" class="st1"/><path d="M223.6 435.2H290a6.06 6.06 0 015.3 9.1l-33.2 57.5a6.06 6.06 0 01-10.5 0l-33.2-57.5a6.06 6.06 0 015.2-9.1z" class="st2"/><path d="M242.8 451.4h28.1a2.43 2.43 0 012.1 3.6l-14.1 24.3c-.7 1.2-2.1 1.6-3.3.9-.4-.2-.7-.5-.9-.9L240.6 455c-.7-1.2-.3-2.6.9-3.3.4-.2.9-.3 1.3-.3z" class="st2"/><path d="M115.4 284.8h281.8a11.48 11.48 0 0110 17.2L266.3 546a11.47 11.47 0 01-19.9 0L105.5 302c-3.2-5.5-1.3-12.5 4.2-15.7 1.8-.9 3.7-1.5 5.7-1.5z" class="st3"/><path d="M223.9 428.7h64.9a6.06 6.06 0 015.3 9.1L261.6 494a6.06 6.06 0 01-10.5 0l-32.5-56.2c-1.7-2.9-.7-6.6 2.2-8.3.9-.6 2-.8 3.1-.8z" class="st4"/><path d="M246.7 453.5h19.1c3.7 0 5.5-2.1 3.6 1.1l-9.8 20.5c-2.1 3.6-4.7 3.3-6.6.1l-9.6-20c-1.8-3.2-.4-1.7 3.3-1.7z" class="st5"/><path d="M242.6 444.6h27.5a2.43 2.43 0 012.1 3.6L258.4 472c-.7 1.2-2.2 1.6-3.3.9-.4-.2-.7-.5-.9-.9l-13.7-23.8c-.7-1.2-.2-2.7.9-3.3.4-.2.8-.3 1.2-.3z" class="st6"/><path d="M470.6 299.4h247.9c17.6 0 16.9 20.4 8.1 35.7l-112.8 219a22.98 22.98 0 01-31.3 8.4c-3.5-2-6.4-4.9-8.4-8.4l-108-221c-8.6-15.2-13.1-33.7 4.5-33.7z" class="st1"/><path d="M561.4 435.2h66.4a6.06 6.06 0 015.3 9.1l-33.2 57.5a6.06 6.06 0 01-10.5 0l-33.2-57.5a6.06 6.06 0 015.2-9.1z" class="st2"/><path d="M580.5 451.4h28.1a2.43 2.43 0 012.1 3.6l-14 24.3c-.7 1.2-2.2 1.6-3.3.9-.4-.2-.7-.5-.9-.9l-14-24.3c-.7-1.2-.3-2.6.9-3.3.4-.2.8-.3 1.1-.3z" class="st2"/><path d="M453.2 284.8H735c6.4 0 11.5 5.1 11.5 11.5 0 2-.5 4-1.5 5.8l-141 244a11.47 11.47 0 01-19.9 0l-140.9-244c-3.2-5.5-1.3-12.5 4.2-15.7 1.7-1 3.7-1.6 5.8-1.6z" class="st3"/><path d="M561.6 428.7h64.9a6.06 6.06 0 015.3 9.1L599.3 494a6.06 6.06 0 01-10.5 0l-32.5-56.2a6.06 6.06 0 015.3-9.1z" class="st4"/><path d="M584.5 453.5h19.1c3.7 0 5.5-2.1 3.6 1.1l-9.8 20.5c-2.2 3.6-4.7 3.3-6.5.1l-9.6-20c-1.9-3.2-.6-1.7 3.2-1.7z" class="st5"/><path d="M580.3 444.6h27.5a2.43 2.43 0 012.1 3.6L596.2 472c-.7 1.2-2.2 1.6-3.3.9-.4-.2-.7-.5-.9-.9l-13.7-23.8c-.7-1.2-.2-2.7.9-3.3.3-.2.7-.3 1.1-.3z" class="st6"/></svg>