<svg xmlns="http://www.w3.org/2000/svg" viewBox="0 0 850 850"><defs/><path fill="#dc9db5" d="M0 0h850v850H0z"/><path fill="#f6aac4" stroke="#231f20" stroke-miterlimit="10" stroke-width="4" d="M313 540l-29 12c-22 9-46 10-68 2l-30-9c-22-7-41-22-53-41l-17-27a99 99 0 01-14-66l4-31c3-23 15-44 32-60l23-21c17-15 39-24 62-25l31-1c24-1 46 6 65 20l24 19c19 15 32 35 36 58l7 30c5 23 2 46-9 67l-14 28a99 99 0 01-50 45z"/><path fill="#f294ba" stroke="#231f20" stroke-miterlimit="10" stroke-width="3" d="M243 382l-18 6c-3 1-6 4-8 7l-9 16c-2 4-3 7-2 11l3 19 5 9 15 12c3 3 6 4 10 4h19c4 0 7-1 10-4l15-12c3-2 5-5 5-9l4-19c0-4 0-7-2-10l-10-17c-2-3-5-6-8-7l-18-6c-3-2-7-2-11 0z"/><path fill="#9e537f" d="M243 403l-6 2c-4 1-6 4-8 7l-4 6c-1 3-2 7-1 10l1 7c0 4 2 7 5 9l5 5c3 2 6 3 10 3h7c4 0 7-1 10-3l5-5c3-2 5-5 6-9l1-7c0-3 0-7-2-10l-4-6c-1-3-4-6-8-7l-6-2h-11z"/><path fill="#d96a94" stroke="#231f20" stroke-miterlimit="10" stroke-width="3" d="M244 401l-7 3c-3 1-6 3-7 6l-4 6c-1 3-2 6-1 9l1 7c0 3 2 6 5 8l5 5c2 2 6 3 9 3h7l9-3 5-5c3-2 4-5 5-8l1-7c1-3 0-6-1-9l-4-6c-2-3-4-5-7-6l-7-3h-9z"/><path fill="#9e537f" stroke="#231f20" stroke-miterlimit="10" stroke-width="3" d="M490 418h202c2 0 3 1 3 3v4c0 2-1 4-3 4H490c-2 0-4-2-4-4v-4c0-2 2-3 4-3z"/></svg>