<svg xmlns="http://www.w3.org/2000/svg" id="Layer_1" x="0" y="0" version="1.1" viewBox="0 0 850.4 850.4" xml:space="preserve"><defs/><style>.st1{opacity:.47;fill:#3f2a37;enable-background:new}.st2,.st3{fill:#e58bba;stroke:#231f20;stroke-width:3;stroke-miterlimit:10}.st3{fill:#e681b4}.st4{fill:#3f2a37}.st5{fill:#e661a4;stroke:#231f20;stroke-width:3;stroke-miterlimit:10}</style><path fill="#e661a4" d="M0 0h850.4v850.4H0z"/><path d="M342.5 560.6l-64.8-46.7c-4.5-3.3-10.6-3.2-15.1.1l-64.5 47.2c-10 7.3-23.6-2.4-19.8-14.3l24.4-76.1c1.7-5.3-.2-11.1-4.7-14.4l-64.8-46.7c-10.1-7.3-5-23.2 7.5-23.3l79.9-.3c5.6 0 10.5-3.6 12.2-8.9l24.4-76.1c3.8-11.9 20.5-11.9 24.4-.1l25 75.9c1.7 5.3 6.7 8.9 12.3 8.8l79.9-.3c12.5 0 17.7 15.9 7.6 23.2l-64.5 47.2c-4.5 3.3-6.3 9.1-4.6 14.4l25 75.9c3.8 11.9-9.7 21.8-19.8 14.5z" class="st1"/><path d="M341.4 554.7L276.6 508c-4.5-3.3-10.6-3.2-15.1.1L197 555.2c-10 7.3-23.6-2.4-19.8-14.3l24.4-76.1c1.7-5.3-.2-11.1-4.7-14.3l-64.8-46.7c-10.1-7.3-5-23.2 7.5-23.3l79.9-.3c5.6 0 10.5-3.6 12.2-8.9l24.4-76.1c3.8-11.9 20.5-11.9 24.4-.1l25 75.9c1.7 5.3 6.7 8.9 12.2 8.8l79.9-.3c12.4 0 17.7 15.9 7.6 23.2L340.8 450c-4.5 3.3-6.4 9.1-4.6 14.4l25 75.9c3.8 11.8-9.7 21.7-19.8 14.4z" class="st2"/><circle cx="272.1" cy="438.1" r="30.1" class="st3"/><circle cx="272.1" cy="439.5" r="13.5" class="st4"/><circle cx="272.1" cy="436.8" r="13.5" class="st5"/><path d="M657.4 560.6l-64.8-46.7c-4.5-3.3-10.6-3.2-15.1.1L513 561.1c-10 7.3-23.6-2.4-19.8-14.3l24.4-76.1c1.7-5.3-.2-11.1-4.7-14.4L448 409.7c-10.1-7.3-5-23.2 7.5-23.3l79.9-.3c5.6 0 10.5-3.6 12.2-8.9l24.4-76.1c3.8-11.9 20.5-11.9 24.4-.1l25 75.9c1.7 5.3 6.7 8.9 12.2 8.8l79.9-.3c12.4 0 17.7 15.9 7.6 23.2l-64.5 47.2c-4.5 3.3-6.3 9.1-4.6 14.4l25 75.9c4 11.9-9.5 21.8-19.6 14.5z" class="st1"/><path d="M656.3 554.7L591.4 508c-4.5-3.3-10.6-3.2-15.1.1l-64.5 47.2c-10 7.3-23.6-2.4-19.8-14.3l24.4-76.1c1.7-5.3-.2-11.1-4.7-14.3l-64.8-46.7c-10.1-7.3-5-23.2 7.5-23.3l79.9-.3c5.6 0 10.5-3.6 12.2-8.9l24.4-76.1c3.8-11.9 20.5-11.9 24.4-.1l25 75.9c1.7 5.3 6.7 8.9 12.2 8.8l79.9-.3c12.5 0 17.7 15.9 7.6 23.2L655.6 450c-4.5 3.3-6.4 9.1-4.6 14.4l25 75.9c3.9 11.8-9.7 21.7-19.7 14.4z" class="st2"/><circle cx="586.9" cy="438.1" r="30.1" class="st3"/><circle cx="586.9" cy="439.5" r="13.5" class="st4"/><circle cx="586.9" cy="436.8" r="13.5" class="st5"/></svg>