<svg xmlns="http://www.w3.org/2000/svg" id="Layer_1" viewBox="0 0 850 850"><defs/><defs><style>.cls-2,.cls-5{fill:#3f2a37}.cls-2{opacity:.47}.cls-3,.cls-4,.cls-6{fill:#e69cc4;stroke:#000;stroke-width:4px;stroke-miterlimit:10}.cls-4,.cls-6{fill:#e681b4;stroke:#231f20;stroke-width:3px}.cls-6{fill:#e661a4}</style></defs><path fill="#e086b7" d="M0 0h850v850H0z"/><path d="M408 437c0-31-33-58-82-72-13-48-40-81-71-81s-59 33-72 81c-49 14-82 41-82 72s33 58 82 72c13 49 40 82 72 82s58-33 71-82c49-14 82-41 82-72z" class="cls-2"/><path d="M408 422c0-31-33-58-82-72-13-48-40-81-71-81s-59 33-72 81c-49 14-82 41-82 72s33 59 82 72c13 49 40 82 72 82s58-33 71-82c49-13 82-40 82-72z" class="cls-3"/><circle cx="255" cy="422" r="41" class="cls-4"/><circle cx="255" cy="424" r="18" class="cls-5"/><circle cx="255" cy="421" r="18" class="cls-6"/><path d="M749 428c0-31-33-58-81-72-14-49-41-82-72-82s-58 33-72 82c-49 14-82 41-82 72s33 58 82 72c14 48 41 82 72 82s58-34 72-82c48-14 81-41 81-72z" class="cls-2"/><path d="M749 413c0-31-33-58-81-72-14-48-41-81-72-81s-58 33-72 81c-49 14-82 41-82 72s33 59 82 72c14 49 41 82 72 82s58-33 72-82c48-13 81-41 81-72z" class="cls-3"/><circle cx="596" cy="413" r="41" class="cls-4"/><circle cx="596" cy="415" r="18" class="cls-5"/><circle cx="596" cy="411" r="18" class="cls-6"/></svg>