<svg xmlns="http://www.w3.org/2000/svg" viewBox="0 0 482.21 457.49"><path d="M340.27,48.42c-1.86,17.19-6.38,69.43,5.23,119.24-5.54,6.08-24.37,23.14-51.77,36.61,0,0-11.47-70.42,4.61-124.56C309.49,65.36,332.86,51.34,340.27,48.42Z" fill="#da429e"/><path d="M340.11,46.66Q338.22,64.27,337.75,82a402.39,402.39,0,0,0,2,54.33,288.32,288.32,0,0,0,5.61,33.52l.14-4.66a116.13,116.13,0,0,1-12.34,11.33,206.37,206.37,0,0,1-22.53,15.95q-8.24,5.06-16.9,9.33l.13.34a5.85,5.85,0,0,0-.14-.92c-.05-.31-.1-.72-.16-1.07a1.86,1.86,0,0,1-.05-.4l-.12-.85c-.45-3.26-.83-6.53-1.18-9.81q-1.74-16.41-2.1-32.93a298.68,298.68,0,0,1,2-42.81,212,212,0,0,1,4-22.53c.44-1.83.9-3.66,1.4-5.47q.36-1.35.75-2.64a6.64,6.64,0,0,1,1.57-2.3,76.75,76.75,0,0,1,7.25-7.4,137.8,137.8,0,0,1,16.7-12.79A120.22,120.22,0,0,1,338,52c.76-.36,1.53-.71,2.31-1,.42-.16.28-2.14.28-2.5a12.36,12.36,0,0,0-.28-2.5,82,82,0,0,0-12.94,7,147.56,147.56,0,0,0-17.45,12.61A93.22,93.22,0,0,0,302,73c-1.12,1.2-2.19,2.44-3.23,3.72s-1.38,3.65-1.84,5.37a202.1,202.1,0,0,0-4.59,23,313.41,313.41,0,0,0-2.86,46.23q.13,18.78,1.94,37.53c.56,5.78,1.08,11.65,2.12,17.37v.24a.5.5,0,0,0,.14.35,209.76,209.76,0,0,0,35.29-22c3.81-2.94,7.52-6,11.06-9.26q1.89-1.71,3.66-3.51a17.29,17.29,0,0,0,1.4-1.45c1-1.07.7-3,.58-4.4a48.68,48.68,0,0,0-1.21-5.76q-.63-3-1.2-6-1.08-5.79-1.91-11.61c-1.11-7.7-1.9-15.45-2.44-23.21a389.64,389.64,0,0,1-.59-40q.48-13.67,1.87-27.21c.07-.72.15-1.44.23-2.16a15,15,0,0,0,0-3.54C340.4,45.9,340.21,45.71,340.11,46.66Z" fill="#da429e"/><path d="M446.77,119.07c-1.61-14.78-9.58-67.37-51.12-76.54-57.5-12.69-79.64,11.6-89.56,19.13,19.63-34.8,52.67-68.35,100.38-56.9S457.27,78.59,446.77,119.07Z" fill="#da429e"/><path d="M447,117.3a146.21,146.21,0,0,0-6-28.91c-4.08-12.71-10.3-25.14-19.93-34.56a52.37,52.37,0,0,0-18-11.61,75.87,75.87,0,0,0-13.2-3.38,149.05,149.05,0,0,0-15.9-2.09c-15.07-1.1-30.53.5-44.42,6.75-8.09,3.64-14.94,8.86-21.79,14.39l-1.6,1.27.07,4.91c9-15.95,20.31-31,34.89-42.3a82.64,82.64,0,0,1,23.63-13,72.07,72.07,0,0,1,28.1-3.67c8.88.6,17.93,2.51,25.89,6.59a51,51,0,0,1,16.78,14c9.3,11.8,13.67,26.86,15.27,41.61a121.15,121.15,0,0,1,.34,22.29,150,150,0,0,1-3.21,22.1c-.38,1.76-.8,3.52-1.25,5.26a11.2,11.2,0,0,0-.1,3.42c0,.27.14,1.81.37.9a164.51,164.51,0,0,0,4.92-48.41c-.71-15.67-3.66-31.87-11.76-45.53A54.67,54.67,0,0,0,425.51,11a55.79,55.79,0,0,0-22.64-9.48,74.84,74.84,0,0,0-30.22.11,76.63,76.63,0,0,0-25.38,10.73c-15.78,10.22-28.11,25.15-37.85,41.05q-1.77,2.91-3.45,5.86a6.55,6.55,0,0,0-.19,2.75c0,.21.24,2.18.27,2.17,2.63-2,5.11-4.19,7.73-6.2a82.57,82.57,0,0,1,11.8-7.59c12.51-6.53,26.63-9.09,40.66-8.94a137.37,137.37,0,0,1,30.29,3.81,51.73,51.73,0,0,1,19.85,9.58c10.78,8.45,17.91,20.7,22.62,33.39a136.52,136.52,0,0,1,7.27,30.29q.15,1.17.27,2.34c.09.83.29.81.39,0A15,15,0,0,0,447,117.3Z" fill="#da429e"/><path d="M420.1,69.16c-4.45,18.91-39,118.2-145.4,152.39C125.27,263.66,86.45,122.11,86.45,122.11,78.58,171,.36,191.75.36,191.75c74.58,120.53,212,113.73,273.34,99.51a159.5,159.5,0,0,0,26.4-8.56C396,241.77,440.46,153.57,440.56,134.23V134C441,130,437.62,85,420.1,69.16Z" fill="#da429e"/><path d="M420,67a150.86,150.86,0,0,1-8.78,24.93,246.07,246.07,0,0,1-22.07,40.16,230.46,230.46,0,0,1-38.84,44.28,213.2,213.2,0,0,1-58.48,36.42,183.07,183.07,0,0,1-69,14.09,136.14,136.14,0,0,1-52.89-10,130.25,130.25,0,0,1-38.08-24.56,157.81,157.81,0,0,1-25.35-30.4,183.19,183.19,0,0,1-14.35-27c-2-4.79-3.52-9.74-5.4-14.58-.07-.23-.14-.45-.19-.68s-.23.34-.22.26c-3.18,19.2-17.35,34-32.8,44.74-13.3,9.22-28.2,16.17-43.45,21.49-3.2,1.12-6.43,2.2-9.7,3.07-.57.15-.37,4.44-.07,4.91a224.88,224.88,0,0,0,51,57.87,217.79,217.79,0,0,0,60,33.47,258.85,258.85,0,0,0,61.52,14.19,310.45,310.45,0,0,0,56.54.78,289.65,289.65,0,0,0,45.94-7c28.38-6.87,55.06-21.7,78.34-39.06a277.17,277.17,0,0,0,51.1-49.54c11.13-14,21.17-29.09,28.72-45.31a98.24,98.24,0,0,0,6.12-16.22,36.45,36.45,0,0,0,1.11-5.84q.09-.84.12-1.68v-.7c.07-2.14-.11,2.07,0,0a35.32,35.32,0,0,0,0-3.71,150.81,150.81,0,0,0-2.81-23.3c-2-10.42-4.77-21-9.78-30.4a40.11,40.11,0,0,0-8.17-11s-.28,2.27-.28,2.5c0,.57-.2,2.06.28,2.5,7.49,6.88,11.47,17.1,14.3,26.64a154.17,154.17,0,0,1,5.48,28.49c.16,1.52.29,3,.38,4.57a5.54,5.54,0,0,0,.07,1.21v.25c0,.37.09-1.22,0-.36,0,.36-.09,1.93-.07,1.57s0-.08,0,.07c-.1.79-.22,1.53-.4,2.42a75.41,75.41,0,0,1-5,14.58C428.15,166.49,419,180.85,409,194.2a276.31,276.31,0,0,1-48,49.43,265.65,265.65,0,0,1-32.21,22.14,218.68,218.68,0,0,1-39.41,18.54c-16.56,5.63-34.16,8.56-51.53,10.35a315.48,315.48,0,0,1-53.85,1,269.52,269.52,0,0,1-59.87-10.8,223.68,223.68,0,0,1-59.54-28,216.2,216.2,0,0,1-53-50.91c-4-5.35-7.68-10.88-11.2-16.54l-.07,4.91a180.43,180.43,0,0,0,36.39-14.53c19.59-10.21,40-24.93,47.59-46.52a39,39,0,0,0,2.14-8.08c.08-.68-.19-.81,0-.42a13.05,13.05,0,0,1,.66,2.15c1.07,3.33,2.3,6.6,3.61,9.83a180.63,180.63,0,0,0,18.11,33.79,149.41,149.41,0,0,0,35.76,37.23,128.42,128.42,0,0,0,58,22.86c27.82,3.7,57.29-.57,83.4-10.55a214.42,214.42,0,0,0,72.94-46.78A238.77,238.77,0,0,0,400.8,118a212.43,212.43,0,0,0,17.92-41.3c.54-1.79,1-3.59,1.47-5.4a11.88,11.88,0,0,0,.1-3.42C420.32,67.66,420.18,66.08,420,67Z" fill="#da429e"/><path d="M365.27,255.75c-19.67,17-43.54,30.41-57.4,36.71,1.13,7,44.6,106.58,83.2,162.57,26.22-23,71.52-21.3,90.81-22.78C425.85,373.91,366.2,260.36,365.27,255.75Z" fill="#da429e"/><path d="M365.27,253.25a250,250,0,0,1-46.86,31.51c-3.47,1.83-7,3.58-10.54,5.2-.31.14-.26,1.62-.26,1.84a14.8,14.8,0,0,0,.12,2.82,26.7,26.7,0,0,0,1.54,4.76c1.14,3,2.37,6,3.62,9,4,9.66,8.33,19.23,12.71,28.74q8.79,19.06,18.21,37.82,10.35,20.61,21.58,40.77c7.16,12.75,14.63,25.34,22.76,37.5q1.41,2.1,2.85,4.2l.07.08c10.36-9,23.46-14.23,36.73-17.32,12.49-2.9,25.3-4,38.08-4.66,5.33-.26,10.68-.4,16-.8.48,0,.4-4.59,0-5a420,420,0,0,1-32.82-39.37c-10.78-14.43-21-29.33-30.73-44.46q-13.49-20.91-26-42.43c-6.37-10.93-12.58-21.95-18.52-33.11-1.9-3.55-3.77-7.12-5.57-10.72a55.82,55.82,0,0,1-2.71-5.76c-.07-.19-.2-.7-.11-.31-.22-1-.37.75-.38.9a12.64,12.64,0,0,0,.1,3.42,21.09,21.09,0,0,0,1.94,4.5c1.57,3.24,3.23,6.44,4.91,9.63,5.59,10.64,11.45,21.13,17.45,31.54q12.21,21.15,25.33,41.82c9.68,15.3,19.79,30.3,30.5,44.93a460.83,460.83,0,0,0,32.56,40.16l4,4.3v-5c-8,.6-16,.71-23.93,1.27a191.1,191.1,0,0,0-30.49,4.27c-10.39,2.45-20.63,6.15-29.58,12.06-1.05.69-2.08,1.41-3.08,2.16s-2.08,1.85-3.21,2.57c-.78.5-.89-.1-1.34-.75-.29-.44-.59-.88-.89-1.31-.75-1.11-1.49-2.23-2.23-3.34q-4.29-6.49-8.35-13.14c-11.66-19-22.25-38.61-32.34-58.47q-13.56-26.67-25.81-54c-2.83-6.34-5.61-12.69-8.26-19.11-1.47-3.54-3-7.11-4.13-10.78,0-.13-.23-.76-.13-.42a2.94,2.94,0,0,0-.1-.48l-.14,4.66a251.29,251.29,0,0,0,43.86-26q7-5.1,13.54-10.74c.45-.39.27-2,.27-2.5a11.47,11.47,0,0,0-.08-1.76A6.94,6.94,0,0,0,365.27,253.25Z" fill="#da429e"/><path d="M178.51,175a26.82,26.82,0,0,1-1.9-6.92c-.1-.76-.1-.83-.14-1.48,0,.69.27-.61,0,.28.26-.89,0,.63,0-.3s-.08.65,0-.4-.07.53,0-.53c.06-.55.13-1.11.23-1.66a27.73,27.73,0,0,1,6.16-13.56,19.38,19.38,0,0,1,12.41-6.52,30.29,30.29,0,0,1,14.92,2.4A35.21,35.21,0,0,1,223,155.21a23.73,23.73,0,0,1,4.14,6.29,18,18,0,0,1,1.24,3.78c.09.47.16.93.22,1.4-.05-.4,0,.75,0,0v-1c.22.07-.55,3.06-.62,3.33a26.1,26.1,0,0,1-1.54,4.17,30.26,30.26,0,0,1-4.59,7.15,28.81,28.81,0,0,1-13.51,9c-12.06,3.53-24.91-3-29.88-14.33-.18-.42-.31.36-.32.37a10.48,10.48,0,0,0-.18,2.24c-.05,1.36-.28,3.32.28,4.62,4.79,11,16.78,17.66,28.61,15s21-14,22.3-25.9c.74-6.83.36-14.24-3.47-20.15a32.69,32.69,0,0,0-12.62-11c-9.67-5-22.39-6.06-30.18,2.79a29.42,29.42,0,0,0-6.6,14.75,50.26,50.26,0,0,0,.66,20.72,30.83,30.83,0,0,0,1.3,3.83c.18.42.32-.38.32-.38a9.93,9.93,0,0,0,.19-2.24C178.84,178.26,179.07,176.34,178.51,175Z" fill="#da429e"/><circle cx="201.54" cy="168.69" r="8.98" fill="#da429e"/></svg>